<svg width="420" height="420" viewBox="0 0 420 420" fill="none" xmlns="http://www.w3.org/2000/svg">
<rect width="420" height="420" fill="white"/>
<path d="M112.245 221.055C52.4627 221.055 4 172.466 4 112.528C4 52.5894 52.4627 4 112.245 4C172.026 4 220.489 52.5894 220.489 112.528H199.511C199.511 52.5894 247.974 4 307.756 4C367.537 4 416 52.5894 416 112.528C416 172.466 367.537 221.055 307.756 221.055V198.945C367.537 198.945 416 247.534 416 307.472C416 367.411 367.537 416 307.756 416C247.974 416 199.511 367.411 199.511 307.472H220.489C220.489 367.411 172.026 416 112.245 416C52.4627 416 4 367.411 4 307.472C4 247.534 52.4627 198.945 112.245 198.945V221.055Z" stroke="url(#paint0_angular_127_1685)" stroke-width="8" stroke-linejoin="round"/>
<path d="M282.871 136.451H137.128V283.549H282.871V136.451Z" stroke="#70728F" stroke-width="8" stroke-linejoin="round"/>
<path d="M172.012 178.434C172.012 178.114 172.092 177.861 172.252 177.674C172.412 177.487 172.612 177.361 172.852 177.294C173.105 177.214 173.365 177.174 173.632 177.174C174.032 177.174 174.398 177.261 174.732 177.434C175.078 177.607 175.245 177.941 175.232 178.434C175.218 180.621 175.178 182.867 175.112 185.174C175.058 187.467 174.972 189.707 174.852 191.894C174.852 192.374 174.678 192.701 174.332 192.874C173.998 193.061 173.625 193.154 173.212 193.154C172.945 193.154 172.685 193.114 172.432 193.034C172.192 192.954 171.998 192.807 171.852 192.594C171.705 192.394 171.632 192.107 171.632 191.734C171.752 189.627 171.838 187.434 171.892 185.154C171.958 182.861 171.998 180.621 172.012 178.434ZM174.192 180.294C173.778 180.334 173.492 180.214 173.332 179.934C173.172 179.654 173.092 179.327 173.092 178.954C173.092 178.581 173.172 178.254 173.332 177.974C173.492 177.681 173.778 177.507 174.192 177.454C174.338 177.414 174.552 177.394 174.832 177.394C175.112 177.381 175.412 177.374 175.732 177.374C177.292 177.374 178.638 177.581 179.772 177.994C180.918 178.394 181.865 178.954 182.612 179.674C183.358 180.394 183.918 181.221 184.292 182.154C184.665 183.087 184.852 184.081 184.852 185.134C184.852 186.347 184.625 187.427 184.172 188.374C183.732 189.307 183.118 190.094 182.332 190.734C181.545 191.374 180.618 191.861 179.552 192.194C178.498 192.514 177.358 192.674 176.132 192.674C175.518 192.674 175.025 192.667 174.652 192.654C174.278 192.641 173.958 192.621 173.692 192.594C173.292 192.541 173.005 192.367 172.832 192.074C172.658 191.767 172.572 191.434 172.572 191.074C172.572 190.554 172.678 190.194 172.892 189.994C173.118 189.794 173.385 189.707 173.692 189.734C173.945 189.747 174.232 189.767 174.552 189.794C174.872 189.821 175.238 189.834 175.652 189.834C176.958 189.834 178.032 189.634 178.872 189.234C179.725 188.821 180.358 188.261 180.772 187.554C181.185 186.847 181.392 186.047 181.392 185.154C181.392 184.527 181.298 183.921 181.112 183.334C180.925 182.734 180.612 182.201 180.172 181.734C179.745 181.267 179.172 180.901 178.452 180.634C177.732 180.354 176.845 180.214 175.792 180.214C175.472 180.214 175.165 180.221 174.872 180.234C174.578 180.247 174.352 180.267 174.192 180.294ZM187.721 178.094C187.721 177.801 187.794 177.581 187.941 177.434C188.087 177.274 188.287 177.161 188.541 177.094C188.794 177.014 189.061 176.941 189.341 176.874C189.647 176.807 190.054 176.747 190.561 176.694C191.067 176.627 191.601 176.594 192.161 176.594C192.987 176.594 193.794 176.681 194.581 176.854C195.367 177.014 196.081 177.274 196.721 177.634C197.361 177.981 197.867 178.434 198.241 178.994C198.614 179.554 198.801 180.227 198.801 181.014C198.801 182.054 198.574 182.954 198.121 183.714C197.667 184.474 197.061 185.101 196.301 185.594C195.541 186.087 194.687 186.461 193.741 186.714C192.807 186.954 191.847 187.074 190.861 187.074L190.801 191.594C190.787 192.007 190.614 192.294 190.281 192.454C189.961 192.614 189.601 192.694 189.201 192.694C188.787 192.694 188.407 192.614 188.061 192.454C187.727 192.294 187.567 192.007 187.581 191.594L187.641 186.894C187.334 186.867 187.101 186.761 186.941 186.574C186.794 186.374 186.707 186.154 186.681 185.914C186.667 185.567 186.741 185.254 186.901 184.974C187.061 184.681 187.314 184.507 187.661 184.454L187.721 178.094ZM190.881 184.554C191.787 184.554 192.534 184.454 193.121 184.254C193.721 184.054 194.194 183.794 194.541 183.474C194.887 183.141 195.134 182.774 195.281 182.374C195.427 181.974 195.501 181.574 195.501 181.174C195.501 180.761 195.361 180.401 195.081 180.094C194.814 179.787 194.434 179.547 193.941 179.374C193.461 179.201 192.901 179.114 192.261 179.114C192.167 179.114 192.027 179.127 191.841 179.154C191.667 179.167 191.494 179.194 191.321 179.234C191.161 179.261 191.034 179.294 190.941 179.334C190.927 180.214 190.914 181.087 190.901 181.954C190.901 182.807 190.894 183.674 190.881 184.554ZM202.001 192.834C201.734 192.834 201.467 192.794 201.201 192.714C200.934 192.647 200.721 192.527 200.561 192.354C200.414 192.167 200.341 191.907 200.341 191.574L200.641 178.234C200.654 177.687 200.807 177.294 201.101 177.054C201.407 176.814 201.747 176.694 202.121 176.694C202.574 176.694 202.941 176.781 203.221 176.954C203.501 177.114 203.774 177.421 204.041 177.874C204.414 178.501 204.834 179.141 205.301 179.794C205.781 180.447 206.281 181.121 206.801 181.814C207.321 182.494 207.841 183.201 208.361 183.934C208.894 184.654 209.394 185.381 209.861 186.114C209.914 185.154 209.967 184.194 210.021 183.234C210.087 182.261 210.154 181.327 210.221 180.434C210.301 179.541 210.367 178.734 210.421 178.014C210.461 177.601 210.614 177.301 210.881 177.114C211.161 176.927 211.541 176.827 212.021 176.814C212.301 176.801 212.567 176.841 212.821 176.934C213.074 177.027 213.281 177.167 213.441 177.354C213.614 177.527 213.687 177.747 213.661 178.014C213.554 179.241 213.454 180.494 213.361 181.774C213.267 183.041 213.181 184.274 213.101 185.474C213.021 186.674 212.947 187.787 212.881 188.814C212.827 189.841 212.787 190.734 212.761 191.494C212.761 191.774 212.674 192.001 212.501 192.174C212.341 192.347 212.147 192.467 211.921 192.534C211.707 192.614 211.521 192.654 211.361 192.654C211.014 192.654 210.701 192.594 210.421 192.474C210.141 192.354 209.887 192.054 209.661 191.574C209.394 191.067 209.101 190.547 208.781 190.014C208.461 189.481 208.101 188.941 207.701 188.394C207.314 187.834 206.907 187.274 206.481 186.714C206.054 186.141 205.621 185.574 205.181 185.014C204.741 184.441 204.301 183.881 203.861 183.334L203.721 191.734C203.707 192.147 203.527 192.434 203.181 192.594C202.834 192.754 202.441 192.834 202.001 192.834ZM219.025 191.734C218.972 192.147 218.798 192.434 218.505 192.594C218.225 192.754 217.845 192.834 217.365 192.834C217.178 192.834 216.965 192.794 216.725 192.714C216.498 192.647 216.305 192.527 216.145 192.354C215.998 192.167 215.938 191.907 215.965 191.574C216.112 190.294 216.232 188.914 216.325 187.434C216.418 185.941 216.492 184.427 216.545 182.894C216.612 181.347 216.658 179.861 216.685 178.434C216.698 177.994 216.852 177.674 217.145 177.474C217.452 177.274 217.818 177.174 218.245 177.174C218.698 177.174 219.045 177.254 219.285 177.414C219.538 177.574 219.792 177.941 220.045 178.514C220.378 179.274 220.738 180.047 221.125 180.834C221.525 181.607 221.925 182.381 222.325 183.154C222.738 183.927 223.132 184.701 223.505 185.474C223.772 185.061 224.058 184.607 224.365 184.114C224.672 183.621 224.985 183.114 225.305 182.594C225.638 182.061 225.965 181.541 226.285 181.034C226.605 180.514 226.905 180.034 227.185 179.594C227.465 179.154 227.712 178.767 227.925 178.434C228.138 178.087 228.298 177.827 228.405 177.654C228.605 177.347 228.832 177.154 229.085 177.074C229.352 176.981 229.618 176.934 229.885 176.934C230.445 176.934 230.865 177.041 231.145 177.254C231.438 177.467 231.572 177.734 231.545 178.054L231.385 181.114C231.345 181.781 231.312 182.514 231.285 183.314C231.272 184.101 231.258 184.907 231.245 185.734C231.232 186.561 231.225 187.354 231.225 188.114C231.225 188.861 231.232 189.541 231.245 190.154C231.258 190.754 231.272 191.227 231.285 191.574C231.298 191.907 231.225 192.167 231.065 192.354C230.905 192.527 230.712 192.647 230.485 192.714C230.272 192.794 230.072 192.834 229.885 192.834C229.418 192.834 229.032 192.754 228.725 192.594C228.418 192.434 228.252 192.147 228.225 191.734C228.212 191.281 228.198 190.741 228.185 190.114C228.185 189.487 228.185 188.807 228.185 188.074C228.185 187.327 228.192 186.554 228.205 185.754C228.232 184.941 228.258 184.127 228.285 183.314C227.885 183.967 227.485 184.607 227.085 185.234C226.698 185.847 226.318 186.447 225.945 187.034C225.572 187.621 225.212 188.194 224.865 188.754C224.945 189.181 224.918 189.521 224.785 189.774C224.665 190.014 224.485 190.187 224.245 190.294C224.005 190.401 223.745 190.454 223.465 190.454C223.012 190.454 222.678 190.361 222.465 190.174C222.265 189.987 222.085 189.681 221.925 189.254C221.778 188.841 221.612 188.421 221.425 187.994C221.238 187.554 221.038 187.114 220.825 186.674C220.612 186.234 220.392 185.801 220.165 185.374C219.952 184.934 219.732 184.501 219.505 184.074C219.478 184.781 219.445 185.481 219.405 186.174C219.378 186.854 219.345 187.521 219.305 188.174C219.265 188.814 219.218 189.434 219.165 190.034C219.125 190.634 219.078 191.201 219.025 191.734ZM245.619 190.114C245.845 190.114 246.079 190.074 246.319 189.994C246.572 189.914 246.772 189.827 246.919 189.734C247.145 189.587 247.332 189.487 247.479 189.434C247.625 189.367 247.752 189.334 247.859 189.334C248.045 189.334 248.225 189.407 248.399 189.554C248.572 189.701 248.712 189.887 248.819 190.114C248.925 190.327 248.979 190.541 248.979 190.754C248.979 190.954 248.939 191.127 248.859 191.274C248.792 191.421 248.685 191.554 248.539 191.674C248.192 191.954 247.725 192.201 247.139 192.414C246.565 192.614 245.899 192.714 245.139 192.714C244.192 192.714 243.379 192.481 242.699 192.014C242.019 191.547 241.499 190.914 241.139 190.114C240.779 189.301 240.599 188.374 240.599 187.334C240.599 186.587 240.699 185.881 240.899 185.214C241.099 184.534 241.399 183.934 241.799 183.414C242.199 182.881 242.699 182.467 243.299 182.174C243.899 181.867 244.585 181.714 245.359 181.714C245.985 181.714 246.552 181.814 247.059 182.014C247.579 182.214 247.992 182.507 248.299 182.894C248.619 183.281 248.779 183.747 248.779 184.294C248.779 184.947 248.592 185.534 248.219 186.054C247.859 186.574 247.352 187.014 246.699 187.374C246.059 187.734 245.325 188.007 244.499 188.194C243.672 188.381 242.792 188.474 241.859 188.474C241.365 188.474 240.979 188.467 240.699 188.454C240.432 188.427 240.179 188.381 239.939 188.314C239.725 188.261 239.552 188.147 239.419 187.974C239.299 187.787 239.239 187.547 239.239 187.254C239.239 186.921 239.325 186.647 239.499 186.434C239.672 186.207 239.945 186.114 240.319 186.154C240.439 186.181 240.672 186.207 241.019 186.234C241.379 186.261 241.885 186.274 242.539 186.274C243.205 186.274 243.792 186.207 244.299 186.074C244.805 185.927 245.199 185.721 245.479 185.454C245.772 185.174 245.919 184.834 245.919 184.434C245.919 184.207 245.859 184.047 245.739 183.954C245.619 183.847 245.459 183.794 245.259 183.794C245.005 183.794 244.772 183.894 244.559 184.094C244.359 184.294 244.179 184.567 244.019 184.914C243.872 185.247 243.759 185.627 243.679 186.054C243.599 186.481 243.559 186.921 243.559 187.374C243.559 188.241 243.759 188.914 244.159 189.394C244.559 189.874 245.045 190.114 245.619 190.114ZM158.745 208.534C158.932 208.707 159.025 208.901 159.025 209.114C159.012 209.541 158.872 209.914 158.605 210.234C158.338 210.541 158.025 210.694 157.665 210.694C157.572 210.694 157.465 210.687 157.345 210.674C157.238 210.647 157.138 210.601 157.045 210.534C156.805 210.334 156.512 210.141 156.165 209.954C155.832 209.767 155.465 209.674 155.065 209.674C154.838 209.674 154.632 209.707 154.445 209.774C154.272 209.841 154.132 209.927 154.025 210.034C153.918 210.141 153.865 210.267 153.865 210.414C153.865 210.587 153.998 210.774 154.265 210.974C154.545 211.161 155.112 211.381 155.965 211.634C156.752 211.861 157.352 212.154 157.765 212.514C158.192 212.874 158.485 213.261 158.645 213.674C158.805 214.087 158.885 214.501 158.885 214.914C158.885 215.754 158.685 216.461 158.285 217.034C157.885 217.607 157.332 218.034 156.625 218.314C155.932 218.594 155.132 218.734 154.225 218.734C153.425 218.734 152.725 218.614 152.125 218.374C151.525 218.121 151.052 217.807 150.705 217.434C150.372 217.061 150.198 216.674 150.185 216.274C150.185 215.914 150.312 215.594 150.565 215.314C150.818 215.034 151.112 214.894 151.445 214.894C151.632 214.894 151.818 214.941 152.005 215.034C152.205 215.114 152.358 215.274 152.465 215.514C152.572 215.727 152.812 215.901 153.185 216.034C153.558 216.154 153.952 216.214 154.365 216.214C154.765 216.214 155.072 216.141 155.285 215.994C155.512 215.847 155.625 215.674 155.625 215.474C155.625 215.341 155.572 215.201 155.465 215.054C155.372 214.894 155.172 214.727 154.865 214.554C154.558 214.381 154.078 214.187 153.425 213.974C152.612 213.707 151.965 213.334 151.485 212.854C151.005 212.361 150.765 211.701 150.765 210.874C150.765 210.274 150.892 209.754 151.145 209.314C151.412 208.861 151.758 208.487 152.185 208.194C152.625 207.901 153.112 207.681 153.645 207.534C154.178 207.387 154.718 207.314 155.265 207.314C155.892 207.314 156.498 207.414 157.085 207.614C157.672 207.814 158.225 208.121 158.745 208.534ZM160.912 208.954C160.965 208.341 161.139 207.921 161.432 207.694C161.739 207.467 162.079 207.354 162.452 207.354C163.159 207.354 163.625 207.507 163.852 207.814C164.092 208.121 164.185 208.501 164.132 208.954C164.079 209.354 164.005 209.894 163.912 210.574C163.819 211.241 163.772 211.934 163.772 212.654C163.772 213.227 163.819 213.747 163.912 214.214C164.005 214.667 164.145 215.027 164.332 215.294C164.519 215.561 164.752 215.694 165.032 215.694C165.272 215.694 165.492 215.581 165.692 215.354C165.905 215.114 166.092 214.807 166.252 214.434C166.425 214.047 166.572 213.634 166.692 213.194C166.812 212.754 166.919 212.321 167.012 211.894C167.105 211.467 167.172 211.094 167.212 210.774C167.225 210.654 167.245 210.507 167.272 210.334C167.312 210.147 167.352 209.961 167.392 209.774C167.432 209.574 167.472 209.381 167.512 209.194C167.552 208.994 167.592 208.814 167.632 208.654C167.739 208.134 167.925 207.774 168.192 207.574C168.472 207.374 168.832 207.274 169.272 207.274C169.552 207.274 169.812 207.307 170.052 207.374C170.305 207.427 170.505 207.541 170.652 207.714C170.785 207.821 170.879 207.961 170.932 208.134C170.999 208.294 171.032 208.494 171.032 208.734C171.032 208.867 171.005 209.054 170.952 209.294C170.899 209.534 170.819 209.861 170.712 210.274C170.672 210.501 170.632 210.827 170.592 211.254C170.552 211.667 170.512 212.134 170.472 212.654C170.445 213.161 170.419 213.681 170.392 214.214C170.365 214.747 170.352 215.241 170.352 215.694C170.352 216.107 170.359 216.487 170.372 216.834C170.385 217.167 170.392 217.421 170.392 217.594C170.419 218.114 170.279 218.467 169.972 218.654C169.679 218.854 169.345 218.954 168.972 218.954C168.492 218.954 168.125 218.861 167.872 218.674C167.632 218.501 167.472 218.267 167.392 217.974C167.325 217.681 167.292 217.374 167.292 217.054C167.292 216.907 167.292 216.747 167.292 216.574C167.292 216.387 167.292 216.194 167.292 215.994C167.092 216.421 166.859 216.841 166.592 217.254C166.325 217.667 165.992 218.014 165.592 218.294C165.192 218.561 164.685 218.694 164.072 218.694C163.445 218.694 162.905 218.514 162.452 218.154C162.012 217.794 161.652 217.314 161.372 216.714C161.092 216.114 160.885 215.461 160.752 214.754C160.619 214.034 160.552 213.334 160.552 212.654C160.552 211.921 160.599 211.221 160.692 210.554C160.799 209.874 160.872 209.341 160.912 208.954ZM172.887 213.674C172.887 212.447 173.107 211.401 173.547 210.534C174.001 209.654 174.594 208.981 175.327 208.514C176.074 208.034 176.887 207.794 177.767 207.794C178.114 207.794 178.474 207.841 178.847 207.934C179.221 208.027 179.581 208.141 179.927 208.274C180.274 208.394 180.567 208.527 180.807 208.674L180.927 208.314C181.007 208.101 181.154 207.914 181.367 207.754C181.594 207.594 181.861 207.514 182.167 207.514C182.594 207.514 182.981 207.661 183.327 207.954C183.674 208.234 183.847 208.621 183.847 209.114C183.847 209.327 183.827 209.601 183.787 209.934C183.747 210.254 183.681 210.641 183.587 211.094C183.507 211.534 183.394 212.021 183.247 212.554C183.114 213.074 182.934 213.634 182.707 214.234C182.707 214.687 182.741 215.054 182.807 215.334C182.874 215.614 182.974 215.814 183.107 215.934C183.241 216.054 183.407 216.114 183.607 216.114C183.781 216.114 183.927 216.061 184.047 215.954C184.181 215.834 184.314 215.674 184.447 215.474C184.581 215.287 184.707 215.161 184.827 215.094C184.947 215.014 185.107 214.974 185.307 214.974C185.614 214.974 185.861 215.087 186.047 215.314C186.247 215.541 186.347 215.774 186.347 216.014C186.347 216.254 186.301 216.501 186.207 216.754C186.114 216.994 185.987 217.214 185.827 217.414C185.494 217.841 185.101 218.167 184.647 218.394C184.194 218.607 183.714 218.714 183.207 218.714C182.821 218.714 182.441 218.647 182.067 218.514C181.694 218.381 181.354 218.174 181.047 217.894C180.754 217.614 180.521 217.274 180.347 216.874C179.894 217.434 179.394 217.861 178.847 218.154C178.301 218.434 177.661 218.574 176.927 218.574C176.141 218.574 175.441 218.374 174.827 217.974C174.227 217.561 173.754 216.987 173.407 216.254C173.061 215.507 172.887 214.647 172.887 213.674ZM176.287 213.554C176.287 213.807 176.314 214.074 176.367 214.354C176.421 214.621 176.507 214.874 176.627 215.114C176.747 215.354 176.901 215.554 177.087 215.714C177.274 215.861 177.501 215.934 177.767 215.934C178.274 215.934 178.674 215.781 178.967 215.474C179.261 215.154 179.534 214.754 179.787 214.274C179.774 213.887 179.781 213.494 179.807 213.094C179.847 212.681 179.894 212.287 179.947 211.914C180.014 211.527 180.081 211.194 180.147 210.914C179.841 210.714 179.547 210.561 179.267 210.454C179.001 210.334 178.707 210.274 178.387 210.274C177.961 210.274 177.587 210.414 177.267 210.694C176.947 210.974 176.701 211.361 176.527 211.854C176.367 212.347 176.287 212.914 176.287 213.554ZM194.185 207.834C194.585 207.994 194.912 208.214 195.165 208.494C195.419 208.774 195.545 209.107 195.545 209.494C195.545 209.827 195.445 210.114 195.245 210.354C195.045 210.594 194.765 210.714 194.405 210.714C194.205 210.714 194.019 210.667 193.845 210.574C193.672 210.467 193.499 210.347 193.325 210.214C193.152 210.081 192.945 209.967 192.705 209.874C192.479 209.767 192.192 209.714 191.845 209.714C191.552 209.714 191.332 209.774 191.185 209.894C191.039 210.014 190.965 210.147 190.965 210.294C190.965 210.534 191.045 210.727 191.205 210.874C191.365 211.007 191.632 211.167 192.005 211.354C192.952 211.821 193.692 212.274 194.225 212.714C194.759 213.141 195.139 213.574 195.365 214.014C195.592 214.454 195.705 214.941 195.705 215.474C195.705 216.141 195.499 216.721 195.085 217.214C194.685 217.694 194.119 218.074 193.385 218.354C192.665 218.634 191.825 218.787 190.865 218.814C190.559 218.814 190.225 218.794 189.865 218.754C189.505 218.727 189.145 218.661 188.785 218.554C188.425 218.461 188.092 218.327 187.785 218.154C187.492 217.981 187.252 217.774 187.065 217.534C186.879 217.281 186.785 217.001 186.785 216.694C186.785 216.334 186.919 216.027 187.185 215.774C187.452 215.521 187.739 215.394 188.045 215.394C188.192 215.394 188.345 215.441 188.505 215.534C188.679 215.627 188.839 215.714 188.985 215.794C189.239 215.901 189.505 216.021 189.785 216.154C190.079 216.274 190.439 216.334 190.865 216.334C191.159 216.334 191.419 216.301 191.645 216.234C191.872 216.167 192.045 216.074 192.165 215.954C192.285 215.821 192.345 215.674 192.345 215.514C192.345 215.341 192.265 215.187 192.105 215.054C191.945 214.907 191.679 214.747 191.305 214.574C190.612 214.241 189.992 213.894 189.445 213.534C188.899 213.174 188.459 212.774 188.125 212.334C187.805 211.881 187.645 211.374 187.645 210.814C187.645 210.081 187.825 209.461 188.185 208.954C188.545 208.434 189.025 208.041 189.625 207.774C190.239 207.494 190.905 207.354 191.625 207.354C192.012 207.354 192.445 207.394 192.925 207.474C193.419 207.554 193.839 207.674 194.185 207.834ZM202.692 213.334C202.692 212.267 202.912 211.301 203.352 210.434C203.805 209.567 204.432 208.881 205.232 208.374C206.032 207.854 206.959 207.594 208.012 207.594C208.505 207.594 208.952 207.687 209.352 207.874C209.765 208.061 210.139 208.294 210.472 208.574C210.739 208.441 211.032 208.374 211.352 208.374C211.712 208.374 212.045 208.494 212.352 208.734C212.659 208.961 212.812 209.234 212.812 209.554C212.812 209.821 212.765 210.121 212.672 210.454C212.592 210.774 212.499 211.227 212.392 211.814C212.285 212.334 212.179 212.927 212.072 213.594C211.965 214.261 211.879 215.014 211.812 215.854C211.745 216.694 211.712 217.634 211.712 218.674C211.712 219.421 211.732 220.061 211.772 220.594C211.812 221.141 211.852 221.581 211.892 221.914C211.932 222.261 211.952 222.521 211.952 222.694C211.952 223.054 211.785 223.334 211.452 223.534C211.132 223.734 210.785 223.834 210.412 223.834C209.905 223.834 209.499 223.727 209.192 223.514C208.899 223.314 208.719 222.987 208.652 222.534C208.572 222.121 208.519 221.654 208.492 221.134C208.465 220.614 208.452 220.067 208.452 219.494C208.465 218.934 208.485 218.381 208.512 217.834C208.552 217.287 208.592 216.787 208.632 216.334C208.259 216.787 207.852 217.134 207.412 217.374C206.972 217.601 206.472 217.714 205.912 217.714C205.232 217.714 204.645 217.527 204.152 217.154C203.672 216.767 203.305 216.247 203.052 215.594C202.812 214.927 202.692 214.174 202.692 213.334ZM206.092 213.314C206.092 213.594 206.119 213.881 206.172 214.174C206.239 214.467 206.339 214.714 206.472 214.914C206.619 215.101 206.805 215.194 207.032 215.194C207.339 215.194 207.619 215.054 207.872 214.774C208.139 214.481 208.459 213.981 208.832 213.274C208.872 212.941 208.912 212.641 208.952 212.374C209.005 212.094 209.052 211.814 209.092 211.534C209.145 211.254 209.205 210.934 209.272 210.574C209.139 210.454 208.985 210.341 208.812 210.234C208.639 210.127 208.452 210.074 208.252 210.074C207.865 210.074 207.505 210.194 207.172 210.434C206.852 210.661 206.592 211.014 206.392 211.494C206.192 211.961 206.092 212.567 206.092 213.314ZM214.975 208.954C215.028 208.341 215.201 207.921 215.495 207.694C215.801 207.467 216.141 207.354 216.515 207.354C217.221 207.354 217.688 207.507 217.915 207.814C218.155 208.121 218.248 208.501 218.195 208.954C218.141 209.354 218.068 209.894 217.975 210.574C217.881 211.241 217.835 211.934 217.835 212.654C217.835 213.227 217.881 213.747 217.975 214.214C218.068 214.667 218.208 215.027 218.395 215.294C218.581 215.561 218.815 215.694 219.095 215.694C219.335 215.694 219.555 215.581 219.755 215.354C219.968 215.114 220.155 214.807 220.315 214.434C220.488 214.047 220.635 213.634 220.755 213.194C220.875 212.754 220.981 212.321 221.075 211.894C221.168 211.467 221.235 211.094 221.275 210.774C221.288 210.654 221.308 210.507 221.335 210.334C221.375 210.147 221.415 209.961 221.455 209.774C221.495 209.574 221.535 209.381 221.575 209.194C221.615 208.994 221.655 208.814 221.695 208.654C221.801 208.134 221.988 207.774 222.255 207.574C222.535 207.374 222.895 207.274 223.335 207.274C223.615 207.274 223.875 207.307 224.115 207.374C224.368 207.427 224.568 207.541 224.715 207.714C224.848 207.821 224.941 207.961 224.995 208.134C225.061 208.294 225.095 208.494 225.095 208.734C225.095 208.867 225.068 209.054 225.015 209.294C224.961 209.534 224.881 209.861 224.775 210.274C224.735 210.501 224.695 210.827 224.655 211.254C224.615 211.667 224.575 212.134 224.535 212.654C224.508 213.161 224.481 213.681 224.455 214.214C224.428 214.747 224.415 215.241 224.415 215.694C224.415 216.107 224.421 216.487 224.435 216.834C224.448 217.167 224.455 217.421 224.455 217.594C224.481 218.114 224.341 218.467 224.035 218.654C223.741 218.854 223.408 218.954 223.035 218.954C222.555 218.954 222.188 218.861 221.935 218.674C221.695 218.501 221.535 218.267 221.455 217.974C221.388 217.681 221.355 217.374 221.355 217.054C221.355 216.907 221.355 216.747 221.355 216.574C221.355 216.387 221.355 216.194 221.355 215.994C221.155 216.421 220.921 216.841 220.655 217.254C220.388 217.667 220.055 218.014 219.655 218.294C219.255 218.561 218.748 218.694 218.135 218.694C217.508 218.694 216.968 218.514 216.515 218.154C216.075 217.794 215.715 217.314 215.435 216.714C215.155 216.114 214.948 215.461 214.815 214.754C214.681 214.034 214.615 213.334 214.615 212.654C214.615 211.921 214.661 211.221 214.755 210.554C214.861 209.874 214.935 209.341 214.975 208.954ZM226.95 213.954C226.95 213.154 227.083 212.381 227.35 211.634C227.617 210.887 227.99 210.221 228.47 209.634C228.963 209.047 229.537 208.581 230.19 208.234C230.857 207.887 231.577 207.714 232.35 207.714C232.803 207.714 233.21 207.781 233.57 207.914C233.943 208.034 234.203 208.147 234.35 208.254C234.417 207.907 234.583 207.661 234.85 207.514C235.117 207.367 235.457 207.294 235.87 207.294C236.257 207.281 236.557 207.354 236.77 207.514C236.997 207.661 237.157 207.841 237.25 208.054C237.343 208.267 237.39 208.481 237.39 208.694C237.39 208.814 237.37 209.067 237.33 209.454C237.303 209.827 237.257 210.321 237.19 210.934C237.137 211.534 237.063 212.241 236.97 213.054C236.93 213.387 236.903 213.701 236.89 213.994C236.877 214.274 236.87 214.481 236.87 214.614C236.883 214.987 236.91 215.307 236.95 215.574C237.003 215.841 237.077 216.041 237.17 216.174C237.277 216.307 237.403 216.374 237.55 216.374C237.71 216.374 237.843 216.334 237.95 216.254C238.057 216.161 238.163 216.074 238.27 215.994C238.377 215.901 238.523 215.854 238.71 215.854C238.99 215.854 239.197 215.934 239.33 216.094C239.463 216.254 239.53 216.487 239.53 216.794C239.53 217.101 239.483 217.361 239.39 217.574C239.297 217.787 239.163 217.974 238.99 218.134C238.723 218.361 238.423 218.534 238.09 218.654C237.77 218.774 237.417 218.834 237.03 218.834C236.283 218.834 235.697 218.654 235.27 218.294C234.843 217.921 234.517 217.461 234.29 216.914C234.037 217.327 233.737 217.681 233.39 217.974C233.043 218.254 232.677 218.467 232.29 218.614C231.903 218.761 231.517 218.834 231.13 218.834C230.263 218.834 229.517 218.601 228.89 218.134C228.263 217.667 227.783 217.061 227.45 216.314C227.117 215.567 226.95 214.781 226.95 213.954ZM233.75 213.274L234.05 210.654C233.863 210.507 233.67 210.394 233.47 210.314C233.283 210.221 233.077 210.174 232.85 210.174C232.49 210.174 232.157 210.281 231.85 210.494C231.543 210.694 231.277 210.967 231.05 211.314C230.823 211.661 230.65 212.054 230.53 212.494C230.41 212.921 230.35 213.354 230.35 213.794C230.35 214.114 230.383 214.421 230.45 214.714C230.517 215.007 230.61 215.267 230.73 215.494C230.863 215.721 231.017 215.901 231.19 216.034C231.377 216.154 231.583 216.214 231.81 216.214C232.103 216.214 232.377 216.081 232.63 215.814C232.883 215.534 233.11 215.167 233.31 214.714C233.51 214.261 233.657 213.781 233.75 213.274ZM240.734 210.154C240.427 210.167 240.194 210.041 240.034 209.774C239.874 209.507 239.794 209.201 239.794 208.854C239.794 208.481 239.887 208.207 240.074 208.034C240.26 207.861 240.48 207.767 240.734 207.754L246.934 207.414C247.36 207.387 247.647 207.501 247.794 207.754C247.954 207.994 248.034 208.254 248.034 208.534C248.034 208.881 247.96 209.174 247.814 209.414C247.68 209.641 247.44 209.767 247.094 209.794L240.734 210.154ZM241.834 205.974C241.887 205.481 242.074 205.147 242.394 204.974C242.727 204.787 243.1 204.694 243.514 204.694C243.994 204.694 244.387 204.787 244.694 204.974C245.014 205.147 245.147 205.481 245.094 205.974C245.094 206.107 245.074 206.347 245.034 206.694C244.994 207.027 244.947 207.387 244.894 207.774C244.84 208.161 244.794 208.514 244.754 208.834C244.687 209.367 244.614 209.941 244.534 210.554C244.454 211.167 244.387 211.761 244.334 212.334C244.294 212.907 244.274 213.394 244.274 213.794C244.287 214.207 244.327 214.561 244.394 214.854C244.474 215.147 244.574 215.374 244.694 215.534C244.827 215.694 244.974 215.774 245.134 215.774C245.44 215.774 245.647 215.694 245.754 215.534C245.874 215.374 245.96 215.254 246.014 215.174C246.16 214.961 246.314 214.801 246.474 214.694C246.647 214.587 246.82 214.534 246.994 214.534C247.434 214.534 247.767 214.667 247.994 214.934C248.22 215.187 248.334 215.494 248.334 215.854C248.334 216.134 248.274 216.414 248.154 216.694C248.034 216.961 247.867 217.207 247.654 217.434C247.307 217.821 246.854 218.141 246.294 218.394C245.747 218.647 245.167 218.774 244.554 218.774C243.834 218.774 243.24 218.614 242.774 218.294C242.307 217.974 241.94 217.567 241.674 217.074C241.407 216.567 241.22 216.021 241.114 215.434C241.007 214.847 240.954 214.281 240.954 213.734C240.954 212.934 241.007 212.121 241.114 211.294C241.22 210.467 241.334 209.667 241.454 208.894C241.494 208.654 241.527 208.394 241.554 208.114C241.594 207.821 241.634 207.534 241.674 207.254C241.714 206.974 241.747 206.721 241.774 206.494C241.814 206.254 241.834 206.081 241.834 205.974ZM250.389 208.674C250.403 208.367 250.503 208.127 250.689 207.954C250.889 207.767 251.129 207.634 251.409 207.554C251.689 207.461 251.969 207.414 252.249 207.414C252.649 207.414 252.983 207.514 253.249 207.714C253.529 207.914 253.649 208.234 253.609 208.674L253.509 210.074C253.936 209.247 254.423 208.647 254.969 208.274C255.516 207.901 256.116 207.714 256.769 207.714C257.129 207.714 257.469 207.781 257.789 207.914C258.123 208.047 258.389 208.287 258.589 208.634C258.803 208.981 258.909 209.481 258.909 210.134C258.909 210.414 258.856 210.694 258.749 210.974C258.643 211.241 258.476 211.467 258.249 211.654C258.036 211.827 257.763 211.914 257.429 211.914C257.069 211.914 256.789 211.801 256.589 211.574C256.403 211.334 256.309 211.034 256.309 210.674C256.203 210.634 256.076 210.614 255.929 210.614C255.809 210.614 255.636 210.661 255.409 210.754C255.183 210.847 254.943 211.021 254.689 211.274C254.436 211.514 254.189 211.854 253.949 212.294C253.723 212.734 253.523 213.301 253.349 213.994C253.349 214.141 253.349 214.367 253.349 214.674C253.349 214.981 253.343 215.314 253.329 215.674C253.329 216.021 253.323 216.347 253.309 216.654C253.309 216.947 253.309 217.174 253.309 217.334C253.296 217.534 253.236 217.741 253.129 217.954C253.023 218.167 252.843 218.347 252.589 218.494C252.336 218.641 251.963 218.714 251.469 218.714C250.976 218.714 250.616 218.654 250.389 218.534C250.176 218.414 250.036 218.261 249.969 218.074C249.916 217.874 249.889 217.661 249.889 217.434C249.889 217.007 249.903 216.541 249.929 216.034C249.969 215.514 250.009 215.021 250.049 214.554C250.103 214.074 250.149 213.694 250.189 213.414C250.229 212.627 250.263 211.841 250.289 211.054C250.316 210.254 250.349 209.461 250.389 208.674ZM266.437 213.234C266.437 212.887 266.41 212.507 266.357 212.094C266.303 211.681 266.183 211.267 265.997 210.854C265.81 210.441 265.517 210.087 265.117 209.794C264.983 209.687 264.877 209.581 264.797 209.474C264.73 209.354 264.697 209.201 264.697 209.014C264.697 208.587 264.85 208.287 265.157 208.114C265.463 207.927 265.797 207.834 266.157 207.834C266.61 207.834 267.043 208.001 267.457 208.334C267.883 208.654 268.263 209.074 268.597 209.594C268.943 210.114 269.21 210.681 269.397 211.294C269.583 211.894 269.677 212.474 269.677 213.034C269.677 214.074 269.437 215.007 268.957 215.834C268.49 216.661 267.83 217.321 266.977 217.814C266.123 218.294 265.123 218.534 263.977 218.534C263.123 218.534 262.383 218.394 261.757 218.114C261.143 217.834 260.63 217.454 260.217 216.974C259.817 216.494 259.517 215.961 259.317 215.374C259.13 214.774 259.037 214.167 259.037 213.554C259.037 212.834 259.157 212.114 259.397 211.394C259.65 210.674 260.01 210.021 260.477 209.434C260.957 208.847 261.53 208.381 262.197 208.034C262.863 207.674 263.623 207.494 264.477 207.494C264.797 207.494 265.137 207.527 265.497 207.594C265.857 207.647 266.17 207.747 266.437 207.894C266.703 208.041 266.837 208.254 266.837 208.534C266.837 209.014 266.757 209.407 266.597 209.714C266.437 210.021 266.203 210.174 265.897 210.174C265.617 210.174 265.397 210.147 265.237 210.094C265.077 210.041 264.823 210.014 264.477 210.014C264.077 210.014 263.717 210.174 263.397 210.494C263.077 210.801 262.83 211.207 262.657 211.714C262.483 212.207 262.397 212.741 262.397 213.314C262.397 213.887 262.463 214.374 262.597 214.774C262.743 215.174 262.95 215.481 263.217 215.694C263.483 215.907 263.797 216.014 264.157 216.014C264.503 216.014 264.85 215.901 265.197 215.674C265.543 215.447 265.837 215.127 266.077 214.714C266.317 214.287 266.437 213.794 266.437 213.234ZM163.54 244.414C162.833 244.414 162.247 244.267 161.78 243.974C161.313 243.667 160.933 243.274 160.64 242.794C160.36 242.301 160.153 241.787 160.02 241.254C159.9 240.707 159.84 240.194 159.84 239.714C159.84 238.927 159.973 238.181 160.24 237.474C160.52 236.767 160.9 236.141 161.38 235.594C161.873 235.034 162.44 234.601 163.08 234.294C163.72 233.974 164.407 233.814 165.14 233.814C165.353 233.814 165.62 233.847 165.94 233.914C166.26 233.981 166.587 234.081 166.92 234.214C167.267 234.347 167.567 234.521 167.82 234.734C168.1 234.961 168.327 235.227 168.5 235.534C168.687 235.841 168.78 236.134 168.78 236.414C168.78 236.774 168.673 237.054 168.46 237.254C168.26 237.441 168.047 237.534 167.82 237.534C167.7 237.534 167.587 237.514 167.48 237.474C167.387 237.434 167.307 237.374 167.24 237.294C167 237.001 166.76 236.767 166.52 236.594C166.293 236.421 165.967 236.334 165.54 236.334C165.193 236.334 164.847 236.434 164.5 236.634C164.153 236.834 163.86 237.167 163.62 237.634C163.38 238.087 163.26 238.687 163.26 239.434C163.26 239.901 163.327 240.307 163.46 240.654C163.607 240.987 163.787 241.247 164 241.434C164.213 241.607 164.427 241.694 164.64 241.694C164.893 241.694 165.133 241.627 165.36 241.494C165.587 241.361 165.78 241.207 165.94 241.034C166.113 240.847 166.233 240.694 166.3 240.574C166.407 240.361 166.507 240.221 166.6 240.154C166.693 240.087 166.8 240.054 166.92 240.054C167.387 240.054 167.707 240.167 167.88 240.394C168.053 240.621 168.14 240.847 168.14 241.074C168.14 241.234 168.06 241.407 167.9 241.594C167.74 241.767 167.467 242.067 167.08 242.494C166.587 243.041 166.047 243.501 165.46 243.874C164.873 244.234 164.233 244.414 163.54 244.414ZM168.72 244.634C168.2 244.634 167.8 244.534 167.52 244.334C167.24 244.134 167.073 243.821 167.02 243.394C166.9 242.247 166.813 241.181 166.76 240.194C166.72 239.194 166.7 238.174 166.7 237.134C166.7 235.747 166.74 234.427 166.82 233.174C166.913 231.907 167.02 230.701 167.14 229.554C167.193 229.154 167.367 228.881 167.66 228.734C167.953 228.587 168.353 228.514 168.86 228.514C169.073 228.514 169.313 228.561 169.58 228.654C169.847 228.747 170.067 228.907 170.24 229.134C170.427 229.347 170.487 229.654 170.42 230.054C170.393 230.201 170.36 230.494 170.32 230.934C170.293 231.361 170.26 231.867 170.22 232.454C170.193 233.027 170.167 233.621 170.14 234.234C170.113 234.847 170.087 235.421 170.06 235.954C170.047 236.474 170.04 236.894 170.04 237.214C170.04 238.307 170.067 239.387 170.12 240.454C170.173 241.507 170.233 242.467 170.3 243.334C170.353 243.801 170.213 244.134 169.88 244.334C169.56 244.534 169.173 244.634 168.72 244.634ZM172.694 234.754C172.76 234.367 172.92 234.087 173.174 233.914C173.427 233.727 173.72 233.634 174.054 233.634C174.627 233.634 175.08 233.741 175.414 233.954C175.76 234.167 175.9 234.501 175.834 234.954C175.754 235.501 175.68 236.147 175.614 236.894C175.56 237.641 175.507 238.421 175.454 239.234C175.414 240.034 175.387 240.801 175.374 241.534C175.374 242.267 175.38 242.894 175.394 243.414C175.42 243.881 175.247 244.214 174.874 244.414C174.514 244.601 174.08 244.694 173.574 244.694C173.12 244.694 172.78 244.581 172.554 244.354C172.34 244.114 172.234 243.734 172.234 243.214C172.234 242.334 172.247 241.447 172.274 240.554C172.314 239.647 172.36 238.801 172.414 238.014C172.467 237.227 172.52 236.547 172.574 235.974C172.627 235.401 172.667 234.994 172.694 234.754ZM172.674 229.874C172.674 229.634 172.754 229.414 172.914 229.214C173.087 229.014 173.3 228.847 173.554 228.714C173.807 228.581 174.074 228.514 174.354 228.514C174.887 228.514 175.334 228.694 175.694 229.054C176.054 229.414 176.234 229.841 176.234 230.334C176.234 230.761 176.054 231.121 175.694 231.414C175.334 231.707 174.874 231.854 174.314 231.854C173.834 231.854 173.44 231.667 173.134 231.294C172.827 230.907 172.674 230.434 172.674 229.874ZM177.995 234.774C177.942 234.347 178.102 234.027 178.475 233.814C178.849 233.601 179.322 233.494 179.895 233.494C180.135 233.494 180.329 233.567 180.475 233.714C180.635 233.861 180.749 234.087 180.815 234.394C180.895 234.701 180.935 235.121 180.935 235.654C181.282 235.134 181.642 234.721 182.015 234.414C182.389 234.107 182.789 233.887 183.215 233.754C183.642 233.607 184.082 233.534 184.535 233.534C185.002 233.534 185.429 233.621 185.815 233.794C186.215 233.967 186.555 234.221 186.835 234.554C187.129 234.874 187.349 235.267 187.495 235.734C187.949 234.907 188.475 234.301 189.075 233.914C189.689 233.514 190.322 233.314 190.975 233.314C191.602 233.314 192.169 233.534 192.675 233.974C193.182 234.414 193.582 235.027 193.875 235.814C194.169 236.587 194.315 237.494 194.315 238.534C194.315 239.414 194.289 240.287 194.235 241.154C194.195 242.021 194.182 242.761 194.195 243.374C194.195 243.761 194.042 244.041 193.735 244.214C193.442 244.387 193.062 244.474 192.595 244.474C192.129 244.474 191.742 244.387 191.435 244.214C191.129 244.041 190.975 243.761 190.975 243.374C190.975 242.841 190.995 242.161 191.035 241.334C191.089 240.494 191.115 239.581 191.115 238.594C191.115 238.181 191.075 237.794 190.995 237.434C190.929 237.074 190.815 236.794 190.655 236.594C190.509 236.381 190.335 236.274 190.135 236.274C189.615 236.274 189.175 236.474 188.815 236.874C188.455 237.274 188.162 237.774 187.935 238.374C187.922 239.214 187.895 240.021 187.855 240.794C187.815 241.554 187.769 242.194 187.715 242.714C187.675 243.287 187.542 243.727 187.315 244.034C187.089 244.341 186.742 244.494 186.275 244.494C185.622 244.494 185.162 244.401 184.895 244.214C184.629 244.027 184.495 243.794 184.495 243.514C184.495 243.327 184.502 243.061 184.515 242.714C184.542 242.354 184.562 241.954 184.575 241.514C184.602 241.061 184.622 240.607 184.635 240.154C184.662 239.701 184.675 239.287 184.675 238.914C184.675 238.527 184.662 238.221 184.635 237.994C184.595 237.634 184.542 237.341 184.475 237.114C184.409 236.874 184.329 236.694 184.235 236.574C184.142 236.441 184.029 236.374 183.895 236.374C183.522 236.374 183.175 236.487 182.855 236.714C182.535 236.927 182.249 237.221 181.995 237.594C181.755 237.967 181.549 238.381 181.375 238.834V242.274C181.375 243.141 181.215 243.761 180.895 244.134C180.575 244.494 180.082 244.674 179.415 244.674C179.055 244.674 178.769 244.614 178.555 244.494C178.355 244.374 178.209 244.167 178.115 243.874C178.035 243.567 177.995 243.154 177.995 242.634C178.009 242.101 178.049 241.421 178.115 240.594C178.129 240.501 178.135 240.414 178.135 240.334C178.135 240.254 178.135 240.114 178.135 239.914C178.135 239.701 178.135 239.367 178.135 238.914C178.135 237.927 178.122 237.087 178.095 236.394C178.069 235.701 178.035 235.161 177.995 234.774ZM201.01 244.674C200.223 244.674 199.516 244.541 198.89 244.274C198.276 243.994 197.756 243.621 197.33 243.154C196.903 242.674 196.576 242.114 196.35 241.474C196.123 240.821 196.01 240.121 196.01 239.374C196.01 238.654 196.143 237.954 196.41 237.274C196.676 236.581 197.05 235.961 197.53 235.414C198.023 234.867 198.596 234.434 199.25 234.114C199.903 233.794 200.623 233.634 201.41 233.634C202.076 233.634 202.663 233.747 203.17 233.974C203.676 234.201 204.063 234.527 204.33 234.954C204.61 235.367 204.75 235.867 204.75 236.454C204.75 236.947 204.643 237.441 204.43 237.934C204.216 238.427 203.876 238.887 203.41 239.314C202.956 239.727 202.35 240.074 201.59 240.354C200.843 240.621 199.923 240.761 198.83 240.774L198.81 238.594C199.343 238.621 199.83 238.547 200.27 238.374C200.723 238.187 201.09 237.934 201.37 237.614C201.663 237.281 201.81 236.914 201.81 236.514C201.81 236.301 201.75 236.127 201.63 235.994C201.523 235.861 201.363 235.794 201.15 235.794C200.91 235.794 200.67 235.867 200.43 236.014C200.203 236.147 199.996 236.354 199.81 236.634C199.636 236.901 199.49 237.254 199.37 237.694C199.263 238.121 199.21 238.627 199.21 239.214C199.21 239.987 199.31 240.581 199.51 240.994C199.71 241.407 199.97 241.701 200.29 241.874C200.61 242.034 200.963 242.114 201.35 242.114C201.87 242.114 202.336 242.021 202.75 241.834C203.176 241.634 203.543 241.341 203.85 240.954C203.996 240.754 204.143 240.601 204.29 240.494C204.436 240.374 204.596 240.314 204.77 240.314C205.076 240.314 205.343 240.461 205.57 240.754C205.796 241.034 205.91 241.354 205.91 241.714C205.91 241.887 205.856 242.074 205.75 242.274C205.643 242.474 205.45 242.714 205.17 242.994C204.636 243.541 204.016 243.961 203.31 244.254C202.603 244.534 201.836 244.674 201.01 244.674ZM207.889 234.434C207.876 234.141 208.016 233.881 208.309 233.654C208.616 233.414 209.082 233.294 209.709 233.294C210.016 233.294 210.262 233.354 210.449 233.474C210.649 233.581 210.796 233.801 210.889 234.134C210.996 234.467 211.056 234.974 211.069 235.654C211.389 234.921 211.789 234.354 212.269 233.954C212.762 233.554 213.369 233.354 214.089 233.354C214.769 233.354 215.396 233.521 215.969 233.854C216.542 234.187 217.002 234.701 217.349 235.394C217.709 236.074 217.889 236.954 217.889 238.034C217.889 238.554 217.869 239.127 217.829 239.754C217.789 240.381 217.742 241.007 217.689 241.634C217.649 242.247 217.629 242.827 217.629 243.374C217.629 243.787 217.456 244.107 217.109 244.334C216.762 244.561 216.309 244.674 215.749 244.674C215.189 244.674 214.789 244.587 214.549 244.414C214.322 244.227 214.209 243.921 214.209 243.494C214.209 243.307 214.222 243.041 214.249 242.694C214.289 242.334 214.322 241.934 214.349 241.494C214.389 241.041 214.422 240.574 214.449 240.094C214.476 239.601 214.489 239.127 214.489 238.674C214.489 238.021 214.429 237.527 214.309 237.194C214.189 236.847 214.029 236.614 213.829 236.494C213.642 236.374 213.429 236.314 213.189 236.314C212.989 236.314 212.789 236.414 212.589 236.614C212.402 236.801 212.222 237.054 212.049 237.374C211.889 237.694 211.749 238.034 211.629 238.394C211.522 238.754 211.436 239.101 211.369 239.434C211.236 240.301 211.129 241.001 211.049 241.534C210.969 242.067 210.902 242.494 210.849 242.814C210.809 243.121 210.776 243.374 210.749 243.574C210.696 243.987 210.536 244.267 210.269 244.414C210.016 244.547 209.642 244.614 209.149 244.614C208.762 244.614 208.429 244.567 208.149 244.474C207.869 244.381 207.669 244.207 207.549 243.954C207.429 243.701 207.409 243.341 207.489 242.874C207.582 242.354 207.662 241.761 207.729 241.094C207.809 240.427 207.869 239.734 207.909 239.014C207.949 238.281 207.969 237.574 207.969 236.894C207.969 236.481 207.962 236.134 207.949 235.854C207.949 235.561 207.942 235.301 207.929 235.074C207.929 234.847 207.916 234.634 207.889 234.434ZM228.006 235.654C228.006 235.947 227.886 236.207 227.646 236.434C227.419 236.647 227.099 236.754 226.686 236.754C226.499 236.754 226.319 236.721 226.146 236.654C225.986 236.587 225.846 236.514 225.726 236.434C225.446 236.261 225.172 236.101 224.906 235.954C224.652 235.794 224.352 235.714 224.006 235.714C223.739 235.714 223.519 235.774 223.346 235.894C223.172 236.001 223.086 236.161 223.086 236.374C223.086 236.507 223.132 236.641 223.226 236.774C223.319 236.894 223.526 237.047 223.846 237.234C224.179 237.421 224.692 237.687 225.386 238.034C226.132 238.394 226.712 238.847 227.126 239.394C227.552 239.927 227.766 240.654 227.766 241.574C227.766 242.134 227.592 242.661 227.246 243.154C226.912 243.647 226.412 244.054 225.746 244.374C225.092 244.694 224.272 244.854 223.286 244.854C222.832 244.854 222.366 244.781 221.886 244.634C221.419 244.501 220.986 244.321 220.586 244.094C220.199 243.854 219.879 243.587 219.626 243.294C219.386 243.001 219.266 242.701 219.266 242.394C219.266 242.007 219.366 241.701 219.566 241.474C219.766 241.234 220.006 241.114 220.286 241.114C220.432 241.114 220.579 241.154 220.726 241.234C220.886 241.314 221.052 241.414 221.226 241.534C221.372 241.627 221.566 241.741 221.806 241.874C222.059 242.007 222.326 242.127 222.606 242.234C222.899 242.327 223.159 242.374 223.386 242.374C223.719 242.374 223.979 242.294 224.166 242.134C224.352 241.974 224.446 241.781 224.446 241.554C224.446 241.394 224.372 241.234 224.226 241.074C224.079 240.914 223.826 240.747 223.466 240.574C222.186 239.974 221.259 239.381 220.686 238.794C220.126 238.207 219.846 237.514 219.846 236.714C219.846 236.127 220.006 235.581 220.326 235.074C220.659 234.567 221.132 234.161 221.746 233.854C222.372 233.534 223.132 233.374 224.026 233.374C224.906 233.374 225.639 233.494 226.226 233.734C226.826 233.974 227.272 234.274 227.566 234.634C227.859 234.994 228.006 235.334 228.006 235.654ZM234.735 233.414C235.055 233.414 235.428 233.447 235.855 233.514C236.281 233.581 236.681 233.674 237.055 233.794C237.441 233.914 237.735 234.061 237.935 234.234C238.575 234.727 239.041 235.374 239.335 236.174C239.628 236.974 239.775 237.827 239.775 238.734C239.775 239.467 239.675 240.187 239.475 240.894C239.275 241.587 238.968 242.214 238.555 242.774C238.141 243.334 237.621 243.781 236.995 244.114C236.368 244.447 235.628 244.614 234.775 244.614C233.801 244.614 232.961 244.467 232.255 244.174C231.548 243.881 230.961 243.474 230.495 242.954C230.041 242.434 229.701 241.841 229.475 241.174C229.261 240.507 229.155 239.801 229.155 239.054C229.155 238.334 229.261 237.641 229.475 236.974C229.701 236.294 230.041 235.694 230.495 235.174C230.961 234.641 231.541 234.214 232.235 233.894C232.941 233.574 233.775 233.414 234.735 233.414ZM232.495 238.954C232.495 239.447 232.568 239.934 232.715 240.414C232.861 240.881 233.095 241.267 233.415 241.574C233.735 241.881 234.141 242.034 234.635 242.034C234.968 242.034 235.248 241.941 235.475 241.754C235.715 241.554 235.901 241.301 236.035 240.994C236.181 240.674 236.281 240.334 236.335 239.974C236.401 239.601 236.435 239.241 236.435 238.894C236.435 238.134 236.335 237.534 236.135 237.094C235.948 236.654 235.695 236.321 235.375 236.094C235.228 236.054 235.095 236.027 234.975 236.014C234.868 235.987 234.748 235.974 234.615 235.974C234.228 235.974 233.895 236.061 233.615 236.234C233.335 236.407 233.115 236.634 232.955 236.914C232.795 237.194 232.675 237.507 232.595 237.854C232.528 238.201 232.495 238.567 232.495 238.954ZM236.675 231.694C236.208 231.694 235.822 231.654 235.515 231.574C235.208 231.481 234.942 231.374 234.715 231.254C234.502 231.134 234.302 231.034 234.115 230.954C233.928 230.861 233.728 230.814 233.515 230.814C233.222 230.814 233.068 231.034 233.055 231.474C233.042 231.634 232.942 231.761 232.755 231.854C232.568 231.947 232.362 231.994 232.135 231.994C231.895 231.994 231.688 231.934 231.515 231.814C231.328 231.681 231.235 231.474 231.235 231.194C231.262 230.354 231.475 229.674 231.875 229.154C232.262 228.621 232.815 228.354 233.535 228.354C233.895 228.354 234.202 228.401 234.455 228.494C234.722 228.574 234.955 228.674 235.155 228.794C235.368 228.914 235.575 229.021 235.775 229.114C235.988 229.194 236.222 229.234 236.475 229.234C236.675 229.234 236.828 229.174 236.935 229.054C237.055 228.921 237.148 228.734 237.215 228.494C237.255 228.307 237.368 228.187 237.555 228.134C237.755 228.081 237.962 228.087 238.175 228.154C238.402 228.207 238.595 228.307 238.755 228.454C238.915 228.601 238.982 228.781 238.955 228.994C238.822 229.874 238.535 230.547 238.095 231.014C237.668 231.467 237.195 231.694 236.675 231.694ZM246.229 244.554C245.309 244.554 244.522 244.401 243.869 244.094C243.215 243.787 242.675 243.387 242.249 242.894C241.835 242.387 241.529 241.821 241.329 241.194C241.142 240.554 241.049 239.914 241.049 239.274C241.049 238.567 241.182 237.874 241.449 237.194C241.729 236.501 242.115 235.874 242.609 235.314C243.115 234.741 243.709 234.281 244.389 233.934C245.082 233.587 245.849 233.414 246.689 233.414C247.435 233.414 248.055 233.534 248.549 233.774C249.055 234.001 249.435 234.327 249.689 234.754C249.955 235.181 250.089 235.687 250.089 236.274C250.089 236.901 249.955 237.454 249.689 237.934C249.422 238.414 249.042 238.821 248.549 239.154C247.949 239.554 247.309 239.854 246.629 240.054C245.949 240.241 245.209 240.361 244.409 240.414C244.529 240.694 244.682 240.954 244.869 241.194C245.055 241.421 245.282 241.607 245.549 241.754C245.829 241.901 246.155 241.974 246.529 241.974C246.995 241.974 247.415 241.861 247.789 241.634C248.162 241.394 248.489 241.121 248.769 240.814C248.929 240.641 249.069 240.534 249.189 240.494C249.309 240.441 249.415 240.414 249.509 240.414C249.695 240.414 249.882 240.481 250.069 240.614C250.255 240.747 250.422 240.907 250.569 241.094C250.729 241.281 250.822 241.474 250.849 241.674C250.902 241.861 250.882 242.047 250.789 242.234C250.709 242.421 250.622 242.561 250.529 242.654C250.035 243.187 249.415 243.641 248.669 244.014C247.935 244.374 247.122 244.554 246.229 244.554ZM244.269 238.234C244.629 238.207 244.922 238.174 245.149 238.134C245.389 238.081 245.669 237.987 245.989 237.854C246.309 237.734 246.582 237.547 246.809 237.294C247.035 237.041 247.149 236.741 247.149 236.394C247.149 236.261 247.115 236.141 247.049 236.034C246.995 235.927 246.909 235.841 246.789 235.774C246.669 235.707 246.515 235.674 246.329 235.674C246.075 235.674 245.829 235.761 245.589 235.934C245.349 236.094 245.135 236.307 244.949 236.574C244.775 236.841 244.629 237.121 244.509 237.414C244.389 237.707 244.309 237.981 244.269 238.234ZM259.929 234.614C260.036 234.721 260.122 234.847 260.189 234.994C260.269 235.141 260.309 235.301 260.309 235.474C260.309 235.647 260.242 235.847 260.109 236.074C259.989 236.287 259.829 236.474 259.629 236.634C259.442 236.794 259.236 236.874 259.009 236.874C258.809 236.874 258.649 236.841 258.529 236.774C258.409 236.707 258.296 236.627 258.189 236.534C258.002 236.347 257.762 236.167 257.469 235.994C257.176 235.821 256.856 235.734 256.509 235.734C256.282 235.734 256.076 235.794 255.889 235.914C255.702 236.021 255.609 236.181 255.609 236.394C255.609 236.661 255.742 236.881 256.009 237.054C256.289 237.227 256.742 237.481 257.369 237.814C257.889 238.094 258.349 238.374 258.749 238.654C259.162 238.934 259.482 239.274 259.709 239.674C259.949 240.061 260.069 240.567 260.069 241.194C260.069 241.807 259.902 242.374 259.569 242.894C259.249 243.414 258.789 243.834 258.189 244.154C257.589 244.474 256.882 244.634 256.069 244.634C255.336 244.634 254.609 244.534 253.889 244.334C253.169 244.134 252.556 243.814 252.049 243.374C251.942 243.281 251.842 243.174 251.749 243.054C251.669 242.921 251.629 242.747 251.629 242.534C251.629 242.187 251.749 241.867 251.989 241.574C252.229 241.267 252.489 241.114 252.769 241.114C252.876 241.114 252.969 241.127 253.049 241.154C253.129 241.181 253.216 241.227 253.309 241.294C253.736 241.574 254.142 241.801 254.529 241.974C254.916 242.147 255.336 242.234 255.789 242.234C256.109 242.234 256.349 242.181 256.509 242.074C256.682 241.967 256.769 241.827 256.769 241.654C256.769 241.361 256.629 241.121 256.349 240.934C256.069 240.747 255.696 240.541 255.229 240.314C254.469 239.954 253.876 239.601 253.449 239.254C253.022 238.894 252.716 238.521 252.529 238.134C252.356 237.734 252.269 237.294 252.269 236.814C252.269 236.174 252.449 235.601 252.809 235.094C253.182 234.574 253.682 234.167 254.309 233.874C254.949 233.581 255.669 233.434 256.469 233.434C257.096 233.434 257.736 233.534 258.389 233.734C259.042 233.921 259.556 234.214 259.929 234.614Z" fill="#292929"/>
<path d="M273.109 90.6479C272.587 90.6479 272.124 90.7505 271.72 90.9556C271.322 91.1548 270.985 91.4448 270.709 91.8257C270.44 92.2065 270.235 92.6665 270.094 93.2056C269.953 93.7446 269.883 94.3511 269.883 95.0249C269.883 95.9331 269.994 96.7095 270.217 97.354C270.446 97.9927 270.797 98.4819 271.272 98.8218C271.746 99.1558 272.359 99.3228 273.109 99.3228C273.63 99.3228 274.152 99.2642 274.673 99.147C275.2 99.0298 275.772 98.8628 276.387 98.646V100.931C275.819 101.166 275.259 101.333 274.708 101.432C274.157 101.538 273.539 101.59 272.854 101.59C271.53 101.59 270.44 101.318 269.584 100.773C268.735 100.222 268.105 99.4546 267.695 98.4702C267.284 97.48 267.079 96.3257 267.079 95.0073C267.079 94.0347 267.211 93.144 267.475 92.3354C267.739 91.5269 268.125 90.8267 268.635 90.2349C269.145 89.6431 269.775 89.186 270.525 88.8638C271.275 88.5415 272.136 88.3804 273.109 88.3804C273.747 88.3804 274.386 88.4624 275.025 88.6265C275.669 88.7847 276.284 89.0044 276.87 89.2856L275.991 91.5005C275.511 91.272 275.028 91.0728 274.541 90.9028C274.055 90.7329 273.577 90.6479 273.109 90.6479ZM287.848 96.4839C287.848 97.3042 287.737 98.0308 287.514 98.6636C287.297 99.2964 286.978 99.8325 286.556 100.272C286.14 100.706 285.636 101.034 285.044 101.256C284.458 101.479 283.796 101.59 283.058 101.59C282.366 101.59 281.731 101.479 281.151 101.256C280.576 101.034 280.075 100.706 279.648 100.272C279.226 99.8325 278.898 99.2964 278.663 98.6636C278.435 98.0308 278.321 97.3042 278.321 96.4839C278.321 95.394 278.514 94.4712 278.901 93.7153C279.287 92.9595 279.838 92.3853 280.553 91.9927C281.268 91.6001 282.12 91.4038 283.111 91.4038C284.031 91.4038 284.845 91.6001 285.554 91.9927C286.269 92.3853 286.828 92.9595 287.233 93.7153C287.643 94.4712 287.848 95.394 287.848 96.4839ZM281.054 96.4839C281.054 97.1284 281.124 97.6704 281.265 98.1099C281.406 98.5493 281.625 98.8804 281.924 99.103C282.223 99.3257 282.613 99.437 283.093 99.437C283.568 99.437 283.951 99.3257 284.244 99.103C284.543 98.8804 284.76 98.5493 284.895 98.1099C285.035 97.6704 285.106 97.1284 285.106 96.4839C285.106 95.8335 285.035 95.2944 284.895 94.8667C284.76 94.4331 284.543 94.1079 284.244 93.8911C283.946 93.6743 283.556 93.5659 283.075 93.5659C282.366 93.5659 281.851 93.8091 281.529 94.2954C281.212 94.7817 281.054 95.5112 281.054 96.4839ZM292.937 105.739C291.566 105.739 290.517 105.499 289.79 105.018C289.07 104.543 288.709 103.875 288.709 103.014C288.709 102.422 288.894 101.927 289.263 101.529C289.632 101.13 290.174 100.846 290.889 100.676C290.614 100.559 290.373 100.369 290.168 100.105C289.963 99.8354 289.861 99.5513 289.861 99.2524C289.861 98.8774 289.969 98.5669 290.186 98.3208C290.403 98.0688 290.716 97.8228 291.126 97.5825C290.611 97.3599 290.2 97.0024 289.896 96.5103C289.597 96.0181 289.448 95.438 289.448 94.77C289.448 94.0552 289.603 93.4487 289.913 92.9507C290.23 92.4468 290.687 92.063 291.284 91.7993C291.888 91.5356 292.62 91.4038 293.482 91.4038C293.663 91.4038 293.874 91.4155 294.115 91.439C294.355 91.4624 294.574 91.4888 294.774 91.5181C294.979 91.5474 295.116 91.5708 295.187 91.5884H298.615V92.9507L297.076 93.3462C297.217 93.563 297.323 93.7944 297.393 94.0405C297.463 94.2866 297.498 94.5474 297.498 94.8228C297.498 95.8774 297.129 96.7007 296.391 97.2925C295.658 97.8784 294.639 98.1714 293.332 98.1714C293.022 98.1538 292.729 98.1304 292.453 98.1011C292.319 98.2065 292.216 98.3179 292.146 98.4351C292.075 98.5522 292.04 98.6753 292.04 98.8042C292.04 98.9331 292.093 99.0415 292.199 99.1294C292.31 99.2114 292.474 99.2759 292.691 99.3228C292.913 99.3638 293.189 99.3843 293.517 99.3843H295.187C296.265 99.3843 297.085 99.6157 297.648 100.079C298.216 100.542 298.5 101.221 298.5 102.118C298.5 103.266 298.02 104.157 297.059 104.79C296.104 105.422 294.73 105.739 292.937 105.739ZM293.051 103.99C293.69 103.99 294.238 103.928 294.695 103.805C295.157 103.688 295.512 103.518 295.758 103.295C296.004 103.079 296.127 102.818 296.127 102.513C296.127 102.267 296.054 102.071 295.907 101.924C295.767 101.784 295.55 101.684 295.257 101.625C294.97 101.567 294.601 101.538 294.15 101.538H292.761C292.433 101.538 292.137 101.59 291.873 101.696C291.616 101.801 291.41 101.948 291.258 102.135C291.106 102.329 291.03 102.551 291.03 102.803C291.03 103.172 291.205 103.462 291.557 103.673C291.914 103.884 292.412 103.99 293.051 103.99ZM293.482 96.5366C293.986 96.5366 294.355 96.3813 294.589 96.0708C294.824 95.7603 294.941 95.3384 294.941 94.8052C294.941 94.2134 294.818 93.771 294.572 93.478C294.331 93.1792 293.968 93.0298 293.482 93.0298C292.99 93.0298 292.62 93.1792 292.374 93.478C292.128 93.771 292.005 94.2134 292.005 94.8052C292.005 95.3384 292.125 95.7603 292.366 96.0708C292.612 96.3813 292.984 96.5366 293.482 96.5366ZM305.822 91.4038C306.87 91.4038 307.714 91.6909 308.353 92.2651C308.991 92.8335 309.311 93.7476 309.311 95.0073V101.415H306.63V95.6753C306.63 94.9722 306.501 94.4419 306.243 94.0845C305.991 93.7271 305.593 93.5483 305.048 93.5483C304.228 93.5483 303.668 93.8267 303.369 94.3833C303.071 94.9399 302.921 95.7427 302.921 96.7915V101.415H300.241V91.5884H302.288L302.649 92.8452H302.798C303.009 92.5054 303.27 92.23 303.58 92.019C303.897 91.8081 304.245 91.6528 304.626 91.5532C305.013 91.4536 305.411 91.4038 305.822 91.4038ZM314.751 91.5884V101.415H312.071V91.5884H314.751ZM313.415 87.7388C313.814 87.7388 314.157 87.8325 314.444 88.02C314.731 88.2017 314.874 88.5444 314.874 89.0483C314.874 89.5464 314.731 89.8921 314.444 90.0854C314.157 90.2729 313.814 90.3667 313.415 90.3667C313.011 90.3667 312.665 90.2729 312.378 90.0854C312.097 89.8921 311.956 89.5464 311.956 89.0483C311.956 88.5444 312.097 88.2017 312.378 88.02C312.665 87.8325 313.011 87.7388 313.415 87.7388ZM321.712 99.4546C322.005 99.4546 322.289 99.4253 322.565 99.3667C322.846 99.3081 323.124 99.2349 323.4 99.147V101.142C323.113 101.271 322.755 101.376 322.327 101.458C321.906 101.546 321.443 101.59 320.939 101.59C320.353 101.59 319.825 101.497 319.357 101.309C318.894 101.116 318.528 100.785 318.258 100.316C317.994 99.8413 317.863 99.1821 317.863 98.3384V93.6011H316.579V92.4673L318.056 91.5708L318.829 89.4966H320.543V91.5884H323.294V93.6011H320.543V98.3384C320.543 98.7134 320.649 98.9946 320.86 99.1821C321.076 99.3638 321.361 99.4546 321.712 99.4546ZM328.075 91.5884V101.415H325.395V91.5884H328.075ZM326.74 87.7388C327.138 87.7388 327.481 87.8325 327.768 88.02C328.055 88.2017 328.199 88.5444 328.199 89.0483C328.199 89.5464 328.055 89.8921 327.768 90.0854C327.481 90.2729 327.138 90.3667 326.74 90.3667C326.335 90.3667 325.99 90.2729 325.702 90.0854C325.421 89.8921 325.281 89.5464 325.281 89.0483C325.281 88.5444 325.421 88.2017 325.702 88.02C325.99 87.8325 326.335 87.7388 326.74 87.7388ZM333.235 101.415L329.491 91.5884H332.294L334.193 97.187C334.298 97.5151 334.38 97.8608 334.439 98.2241C334.503 98.5874 334.547 98.9126 334.571 99.1997H334.641C334.658 98.8892 334.699 98.5581 334.764 98.2065C334.834 97.855 334.925 97.5151 335.036 97.187L336.926 91.5884H339.73L335.986 101.415H333.235ZM345.17 91.3862C346.489 91.3862 347.499 91.6733 348.202 92.2476C348.906 92.8218 349.257 93.6948 349.257 94.8667V101.415H347.385L346.866 100.079H346.796C346.515 100.43 346.228 100.717 345.935 100.94C345.642 101.163 345.305 101.327 344.924 101.432C344.543 101.538 344.08 101.59 343.535 101.59C342.955 101.59 342.434 101.479 341.971 101.256C341.514 101.034 341.154 100.694 340.89 100.237C340.626 99.7739 340.494 99.188 340.494 98.479C340.494 97.436 340.861 96.6685 341.593 96.1763C342.325 95.6782 343.424 95.4028 344.889 95.3501L346.594 95.2974V94.8667C346.594 94.3511 346.459 93.9731 346.19 93.7329C345.92 93.4927 345.545 93.3726 345.065 93.3726C344.59 93.3726 344.124 93.4399 343.667 93.5747C343.21 93.7095 342.753 93.8794 342.296 94.0845L341.408 92.2739C341.93 91.9985 342.513 91.7817 343.157 91.6235C343.808 91.4653 344.479 91.3862 345.17 91.3862ZM346.594 96.8618L345.557 96.897C344.69 96.9204 344.086 97.0757 343.746 97.3628C343.412 97.6499 343.245 98.0278 343.245 98.4966C343.245 98.9067 343.366 99.1997 343.606 99.3755C343.846 99.5454 344.159 99.6304 344.546 99.6304C345.12 99.6304 345.604 99.4604 345.996 99.1206C346.395 98.7808 346.594 98.2974 346.594 97.6704V96.8618Z" fill="#292929"/>
<path d="M260.67 333V320.15H263.395V330.75H268.606V333H260.67ZM273.317 323.174V333H270.637V323.174H273.317ZM271.981 319.324C272.38 319.324 272.723 319.418 273.01 319.605C273.297 319.787 273.44 320.13 273.44 320.634C273.44 321.132 273.297 321.478 273.01 321.671C272.723 321.858 272.38 321.952 271.981 321.952C271.577 321.952 271.231 321.858 270.944 321.671C270.663 321.478 270.522 321.132 270.522 320.634C270.522 320.13 270.663 319.787 270.944 319.605C271.231 319.418 271.577 319.324 271.981 319.324ZM281.72 322.989C282.769 322.989 283.612 323.276 284.251 323.851C284.89 324.419 285.209 325.333 285.209 326.593V333H282.528V327.261C282.528 326.558 282.399 326.027 282.142 325.67C281.89 325.312 281.491 325.134 280.946 325.134C280.126 325.134 279.566 325.412 279.268 325.969C278.969 326.525 278.819 327.328 278.819 328.377V333H276.139V323.174H278.187L278.547 324.431H278.696C278.907 324.091 279.168 323.815 279.479 323.604C279.795 323.394 280.144 323.238 280.524 323.139C280.911 323.039 281.31 322.989 281.72 322.989ZM290.843 337.324C289.472 337.324 288.423 337.084 287.696 336.604C286.976 336.129 286.615 335.461 286.615 334.6C286.615 334.008 286.8 333.513 287.169 333.114C287.538 332.716 288.08 332.432 288.795 332.262C288.52 332.145 288.279 331.954 288.074 331.69C287.869 331.421 287.767 331.137 287.767 330.838C287.767 330.463 287.875 330.152 288.092 329.906C288.309 329.654 288.622 329.408 289.032 329.168C288.517 328.945 288.106 328.588 287.802 328.096C287.503 327.604 287.354 327.023 287.354 326.355C287.354 325.641 287.509 325.034 287.819 324.536C288.136 324.032 288.593 323.648 289.19 323.385C289.794 323.121 290.526 322.989 291.388 322.989C291.569 322.989 291.78 323.001 292.021 323.024C292.261 323.048 292.48 323.074 292.68 323.104C292.885 323.133 293.022 323.156 293.093 323.174H296.521V324.536L294.982 324.932C295.123 325.148 295.229 325.38 295.299 325.626C295.369 325.872 295.404 326.133 295.404 326.408C295.404 327.463 295.035 328.286 294.297 328.878C293.564 329.464 292.545 329.757 291.238 329.757C290.928 329.739 290.635 329.716 290.359 329.687C290.225 329.792 290.122 329.903 290.052 330.021C289.981 330.138 289.946 330.261 289.946 330.39C289.946 330.519 289.999 330.627 290.104 330.715C290.216 330.797 290.38 330.861 290.597 330.908C290.819 330.949 291.095 330.97 291.423 330.97H293.093C294.171 330.97 294.991 331.201 295.554 331.664C296.122 332.127 296.406 332.807 296.406 333.703C296.406 334.852 295.926 335.742 294.965 336.375C294.01 337.008 292.636 337.324 290.843 337.324ZM290.957 335.575C291.596 335.575 292.144 335.514 292.601 335.391C293.063 335.273 293.418 335.104 293.664 334.881C293.91 334.664 294.033 334.403 294.033 334.099C294.033 333.853 293.96 333.656 293.813 333.51C293.673 333.369 293.456 333.27 293.163 333.211C292.876 333.152 292.507 333.123 292.056 333.123H290.667C290.339 333.123 290.043 333.176 289.779 333.281C289.521 333.387 289.316 333.533 289.164 333.721C289.012 333.914 288.936 334.137 288.936 334.389C288.936 334.758 289.111 335.048 289.463 335.259C289.82 335.47 290.318 335.575 290.957 335.575ZM291.388 328.122C291.892 328.122 292.261 327.967 292.495 327.656C292.729 327.346 292.847 326.924 292.847 326.391C292.847 325.799 292.724 325.356 292.478 325.063C292.237 324.765 291.874 324.615 291.388 324.615C290.896 324.615 290.526 324.765 290.28 325.063C290.034 325.356 289.911 325.799 289.911 326.391C289.911 326.924 290.031 327.346 290.271 327.656C290.518 327.967 290.89 328.122 291.388 328.122ZM307.164 323.174V333H305.107L304.747 331.743H304.606C304.396 332.077 304.132 332.35 303.815 332.561C303.499 332.771 303.15 332.927 302.77 333.026C302.389 333.126 301.993 333.176 301.583 333.176C300.88 333.176 300.268 333.053 299.746 332.807C299.225 332.555 298.817 332.165 298.524 331.638C298.237 331.11 298.094 330.425 298.094 329.581V323.174H300.774V328.913C300.774 329.616 300.9 330.146 301.152 330.504C301.404 330.861 301.806 331.04 302.356 331.04C302.901 331.04 303.329 330.917 303.64 330.671C303.95 330.419 304.167 330.053 304.29 329.572C304.419 329.086 304.483 328.494 304.483 327.797V323.174H307.164ZM314.002 322.972C315.32 322.972 316.331 323.259 317.034 323.833C317.737 324.407 318.089 325.28 318.089 326.452V333H316.217L315.698 331.664H315.628C315.347 332.016 315.06 332.303 314.767 332.525C314.474 332.748 314.137 332.912 313.756 333.018C313.375 333.123 312.912 333.176 312.367 333.176C311.787 333.176 311.266 333.064 310.803 332.842C310.346 332.619 309.985 332.279 309.722 331.822C309.458 331.359 309.326 330.773 309.326 330.064C309.326 329.021 309.692 328.254 310.425 327.762C311.157 327.264 312.256 326.988 313.721 326.936L315.426 326.883V326.452C315.426 325.937 315.291 325.559 315.021 325.318C314.752 325.078 314.377 324.958 313.896 324.958C313.422 324.958 312.956 325.025 312.499 325.16C312.042 325.295 311.585 325.465 311.128 325.67L310.24 323.859C310.762 323.584 311.345 323.367 311.989 323.209C312.64 323.051 313.311 322.972 314.002 322.972ZM315.426 328.447L314.389 328.482C313.521 328.506 312.918 328.661 312.578 328.948C312.244 329.235 312.077 329.613 312.077 330.082C312.077 330.492 312.197 330.785 312.438 330.961C312.678 331.131 312.991 331.216 313.378 331.216C313.952 331.216 314.436 331.046 314.828 330.706C315.227 330.366 315.426 329.883 315.426 329.256V328.447ZM323.731 337.324C322.36 337.324 321.312 337.084 320.585 336.604C319.864 336.129 319.504 335.461 319.504 334.6C319.504 334.008 319.688 333.513 320.058 333.114C320.427 332.716 320.969 332.432 321.684 332.262C321.408 332.145 321.168 331.954 320.963 331.69C320.758 331.421 320.655 331.137 320.655 330.838C320.655 330.463 320.764 330.152 320.98 329.906C321.197 329.654 321.511 329.408 321.921 329.168C321.405 328.945 320.995 328.588 320.69 328.096C320.392 327.604 320.242 327.023 320.242 326.355C320.242 325.641 320.397 325.034 320.708 324.536C321.024 324.032 321.481 323.648 322.079 323.385C322.683 323.121 323.415 322.989 324.276 322.989C324.458 322.989 324.669 323.001 324.909 323.024C325.149 323.048 325.369 323.074 325.568 323.104C325.773 323.133 325.911 323.156 325.981 323.174H329.409V324.536L327.871 324.932C328.012 325.148 328.117 325.38 328.188 325.626C328.258 325.872 328.293 326.133 328.293 326.408C328.293 327.463 327.924 328.286 327.186 328.878C326.453 329.464 325.434 329.757 324.127 329.757C323.816 329.739 323.523 329.716 323.248 329.687C323.113 329.792 323.011 329.903 322.94 330.021C322.87 330.138 322.835 330.261 322.835 330.39C322.835 330.519 322.888 330.627 322.993 330.715C323.104 330.797 323.269 330.861 323.485 330.908C323.708 330.949 323.983 330.97 324.312 330.97H325.981C327.06 330.97 327.88 331.201 328.442 331.664C329.011 332.127 329.295 332.807 329.295 333.703C329.295 334.852 328.814 335.742 327.854 336.375C326.898 337.008 325.524 337.324 323.731 337.324ZM323.846 335.575C324.484 335.575 325.032 335.514 325.489 335.391C325.952 335.273 326.307 335.104 326.553 334.881C326.799 334.664 326.922 334.403 326.922 334.099C326.922 333.853 326.849 333.656 326.702 333.51C326.562 333.369 326.345 333.27 326.052 333.211C325.765 333.152 325.396 333.123 324.944 333.123H323.556C323.228 333.123 322.932 333.176 322.668 333.281C322.41 333.387 322.205 333.533 322.053 333.721C321.9 333.914 321.824 334.137 321.824 334.389C321.824 334.758 322 335.048 322.352 335.259C322.709 335.47 323.207 335.575 323.846 335.575ZM324.276 328.122C324.78 328.122 325.149 327.967 325.384 327.656C325.618 327.346 325.735 326.924 325.735 326.391C325.735 325.799 325.612 325.356 325.366 325.063C325.126 324.765 324.763 324.615 324.276 324.615C323.784 324.615 323.415 324.765 323.169 325.063C322.923 325.356 322.8 325.799 322.8 326.391C322.8 326.924 322.92 327.346 323.16 327.656C323.406 327.967 323.778 328.122 324.276 328.122ZM335.087 322.989C335.995 322.989 336.777 323.165 337.434 323.517C338.09 323.862 338.597 324.366 338.954 325.028C339.312 325.69 339.49 326.499 339.49 327.454V328.755H333.153C333.183 329.511 333.408 330.105 333.83 330.539C334.258 330.967 334.85 331.181 335.605 331.181C336.232 331.181 336.807 331.116 337.328 330.987C337.85 330.858 338.386 330.665 338.937 330.407V332.481C338.45 332.722 337.94 332.897 337.407 333.009C336.88 333.12 336.238 333.176 335.482 333.176C334.498 333.176 333.625 332.994 332.863 332.631C332.107 332.268 331.513 331.714 331.079 330.97C330.651 330.226 330.438 329.288 330.438 328.157C330.438 327.009 330.631 326.054 331.018 325.292C331.41 324.524 331.955 323.95 332.652 323.569C333.35 323.183 334.161 322.989 335.087 322.989ZM335.104 324.896C334.583 324.896 334.149 325.063 333.804 325.397C333.464 325.731 333.268 326.256 333.215 326.971H336.977C336.971 326.572 336.897 326.218 336.757 325.907C336.622 325.597 336.417 325.351 336.142 325.169C335.872 324.987 335.526 324.896 335.104 324.896ZM353.21 322.989C354.323 322.989 355.164 323.276 355.732 323.851C356.307 324.419 356.594 325.333 356.594 326.593V333H353.904V327.261C353.904 326.558 353.784 326.027 353.544 325.67C353.304 325.312 352.932 325.134 352.428 325.134C351.719 325.134 351.215 325.389 350.916 325.898C350.617 326.402 350.468 327.126 350.468 328.069V333H347.787V327.261C347.787 326.792 347.734 326.399 347.629 326.083C347.523 325.767 347.362 325.529 347.146 325.371C346.929 325.213 346.65 325.134 346.311 325.134C345.812 325.134 345.42 325.26 345.133 325.512C344.852 325.758 344.649 326.124 344.526 326.61C344.409 327.091 344.351 327.68 344.351 328.377V333H341.67V323.174H343.718L344.078 324.431H344.228C344.427 324.091 344.676 323.815 344.975 323.604C345.279 323.394 345.613 323.238 345.977 323.139C346.34 323.039 346.709 322.989 347.084 322.989C347.805 322.989 348.414 323.106 348.912 323.341C349.416 323.575 349.803 323.938 350.072 324.431H350.31C350.603 323.927 351.016 323.561 351.549 323.332C352.088 323.104 352.642 322.989 353.21 322.989Z" fill="#292929"/>
<path d="M84.6597 101.415L81.5659 91.3335H81.4868C81.4986 91.5737 81.5161 91.937 81.5396 92.4233C81.5689 92.9038 81.5952 93.4165 81.6187 93.9614C81.6421 94.5063 81.6538 94.9985 81.6538 95.438V101.415H79.2193V88.5649H82.9282L85.9693 98.3911H86.022L89.2476 88.5649H92.9566V101.415H90.4165V95.3325C90.4165 94.9282 90.4224 94.4624 90.4341 93.9351C90.4517 93.4077 90.4722 92.9067 90.4956 92.4321C90.5191 91.9517 90.5366 91.5913 90.5484 91.3511H90.4693L87.1558 101.415H84.6597ZM104.918 96.4839C104.918 97.3042 104.807 98.0308 104.584 98.6636C104.368 99.2964 104.048 99.8325 103.626 100.272C103.21 100.706 102.707 101.034 102.115 101.256C101.529 101.479 100.867 101.59 100.128 101.59C99.437 101.59 98.8013 101.479 98.2212 101.256C97.647 101.034 97.146 100.706 96.7183 100.272C96.2964 99.8325 95.9683 99.2964 95.7339 98.6636C95.5054 98.0308 95.3911 97.3042 95.3911 96.4839C95.3911 95.394 95.5845 94.4712 95.9712 93.7153C96.3579 92.9595 96.9087 92.3853 97.6236 91.9927C98.3384 91.6001 99.1909 91.4038 100.181 91.4038C101.101 91.4038 101.916 91.6001 102.625 91.9927C103.339 92.3853 103.899 92.9595 104.303 93.7153C104.713 94.4712 104.918 95.394 104.918 96.4839ZM98.1245 96.4839C98.1245 97.1284 98.1948 97.6704 98.3355 98.1099C98.4761 98.5493 98.6958 98.8804 98.9946 99.103C99.2935 99.3257 99.6831 99.437 100.164 99.437C100.638 99.437 101.022 99.3257 101.315 99.103C101.614 98.8804 101.831 98.5493 101.965 98.1099C102.106 97.6704 102.176 97.1284 102.176 96.4839C102.176 95.8335 102.106 95.2944 101.965 94.8667C101.831 94.4331 101.614 94.1079 101.315 93.8911C101.016 93.6743 100.626 93.5659 100.146 93.5659C99.437 93.5659 98.9214 93.8091 98.5991 94.2954C98.2827 94.7817 98.1245 95.5112 98.1245 96.4839ZM111.273 99.4546C111.566 99.4546 111.85 99.4253 112.126 99.3667C112.407 99.3081 112.685 99.2349 112.96 99.147V101.142C112.673 101.271 112.316 101.376 111.888 101.458C111.466 101.546 111.003 101.59 110.5 101.59C109.914 101.59 109.386 101.497 108.917 101.309C108.455 101.116 108.088 100.785 107.819 100.316C107.555 99.8413 107.423 99.1821 107.423 98.3384V93.6011H106.14V92.4673L107.617 91.5708L108.39 89.4966H110.104V91.5884H112.855V93.6011H110.104V98.3384C110.104 98.7134 110.209 98.9946 110.42 99.1821C110.637 99.3638 110.921 99.4546 111.273 99.4546ZM123.885 96.4839C123.885 97.3042 123.774 98.0308 123.551 98.6636C123.334 99.2964 123.015 99.8325 122.593 100.272C122.177 100.706 121.673 101.034 121.082 101.256C120.496 101.479 119.834 101.59 119.095 101.59C118.404 101.59 117.768 101.479 117.188 101.256C116.614 101.034 116.113 100.706 115.685 100.272C115.263 99.8325 114.935 99.2964 114.701 98.6636C114.472 98.0308 114.358 97.3042 114.358 96.4839C114.358 95.394 114.551 94.4712 114.938 93.7153C115.325 92.9595 115.876 92.3853 116.59 91.9927C117.305 91.6001 118.158 91.4038 119.148 91.4038C120.068 91.4038 120.882 91.6001 121.591 91.9927C122.306 92.3853 122.866 92.9595 123.27 93.7153C123.68 94.4712 123.885 95.394 123.885 96.4839ZM117.091 96.4839C117.091 97.1284 117.162 97.6704 117.302 98.1099C117.443 98.5493 117.663 98.8804 117.961 99.103C118.26 99.3257 118.65 99.437 119.13 99.437C119.605 99.437 119.989 99.3257 120.282 99.103C120.581 98.8804 120.797 98.5493 120.932 98.1099C121.073 97.6704 121.143 97.1284 121.143 96.4839C121.143 95.8335 121.073 95.2944 120.932 94.8667C120.797 94.4331 120.581 94.1079 120.282 93.8911C119.983 93.6743 119.593 93.5659 119.113 93.5659C118.404 93.5659 117.888 93.8091 117.566 94.2954C117.25 94.7817 117.091 95.5112 117.091 96.4839ZM131.584 91.4038C131.719 91.4038 131.875 91.4126 132.05 91.4302C132.232 91.4419 132.378 91.4595 132.49 91.4829L132.288 93.9966C132.2 93.9673 132.074 93.9468 131.91 93.9351C131.751 93.9175 131.614 93.9087 131.497 93.9087C131.151 93.9087 130.814 93.9526 130.486 94.0405C130.164 94.1284 129.874 94.272 129.616 94.4712C129.358 94.6646 129.153 94.9224 129.001 95.2446C128.854 95.561 128.781 95.9507 128.781 96.4136V101.415H126.1V91.5884H128.13L128.526 93.2407H128.658C128.851 92.9067 129.091 92.6021 129.378 92.3267C129.671 92.0454 130.002 91.8228 130.372 91.6587C130.747 91.4888 131.151 91.4038 131.584 91.4038ZM138.299 91.3862C139.618 91.3862 140.628 91.6733 141.332 92.2476C142.035 92.8218 142.386 93.6948 142.386 94.8667V101.415H140.514L139.996 100.079H139.925C139.644 100.43 139.357 100.717 139.064 100.94C138.771 101.163 138.434 101.327 138.053 101.432C137.672 101.538 137.209 101.59 136.665 101.59C136.084 101.59 135.563 101.479 135.1 101.256C134.643 101.034 134.283 100.694 134.019 100.237C133.755 99.7739 133.624 99.188 133.624 98.479C133.624 97.436 133.99 96.6685 134.722 96.1763C135.455 95.6782 136.553 95.4028 138.018 95.3501L139.723 95.2974V94.8667C139.723 94.3511 139.588 93.9731 139.319 93.7329C139.049 93.4927 138.674 93.3726 138.194 93.3726C137.719 93.3726 137.253 93.4399 136.796 93.5747C136.339 93.7095 135.882 93.8794 135.425 94.0845L134.538 92.2739C135.059 91.9985 135.642 91.7817 136.287 91.6235C136.937 91.4653 137.608 91.3862 138.299 91.3862ZM139.723 96.8618L138.686 96.897C137.819 96.9204 137.215 97.0757 136.876 97.3628C136.542 97.6499 136.375 98.0278 136.375 98.4966C136.375 98.9067 136.495 99.1997 136.735 99.3755C136.975 99.5454 137.289 99.6304 137.675 99.6304C138.25 99.6304 138.733 99.4604 139.126 99.1206C139.524 98.7808 139.723 98.2974 139.723 97.6704V96.8618Z" fill="#292929"/>
<path d="M85.6198 315.991C85.6198 316.752 85.4352 317.415 85.0661 317.977C84.6969 318.54 84.1579 318.973 83.4489 319.278C82.7458 319.583 81.8903 319.735 80.8825 319.735C80.4372 319.735 80.0006 319.706 79.5729 319.647C79.151 319.588 78.7438 319.503 78.3512 319.392C77.9645 319.275 77.5954 319.131 77.2438 318.961V316.43C77.8532 316.7 78.486 316.943 79.1422 317.16C79.7985 317.376 80.4489 317.485 81.0934 317.485C81.5387 317.485 81.8961 317.426 82.1657 317.309C82.4411 317.192 82.6403 317.031 82.7633 316.826C82.8864 316.621 82.9479 316.386 82.9479 316.123C82.9479 315.8 82.8395 315.525 82.6227 315.296C82.4059 315.068 82.1071 314.854 81.7262 314.655C81.3512 314.456 80.9264 314.242 80.4518 314.013C80.153 313.873 79.8278 313.703 79.4762 313.503C79.1247 313.298 78.7907 313.049 78.4743 312.756C78.1579 312.463 77.8971 312.109 77.692 311.693C77.4928 311.271 77.3932 310.767 77.3932 310.181C77.3932 309.414 77.569 308.757 77.9206 308.212C78.2721 307.667 78.7731 307.251 79.4235 306.964C80.0797 306.671 80.8532 306.525 81.7438 306.525C82.4118 306.525 83.0475 306.604 83.651 306.762C84.2604 306.915 84.8961 307.137 85.5583 307.43L84.6793 309.548C84.0875 309.308 83.5573 309.124 83.0885 308.995C82.6198 308.86 82.1422 308.792 81.6559 308.792C81.3161 308.792 81.026 308.848 80.7858 308.959C80.5456 309.065 80.3639 309.217 80.2409 309.417C80.1178 309.61 80.0563 309.835 80.0563 310.093C80.0563 310.398 80.1442 310.656 80.32 310.867C80.5016 311.072 80.7711 311.271 81.1286 311.464C81.4918 311.658 81.943 311.883 82.4821 312.141C83.1383 312.452 83.6979 312.777 84.1608 313.117C84.6295 313.451 84.9899 313.846 85.2418 314.303C85.4938 314.754 85.6198 315.317 85.6198 315.991ZM96.6676 314.628C96.6676 315.449 96.5563 316.175 96.3336 316.808C96.1168 317.441 95.7975 317.977 95.3756 318.417C94.9596 318.85 94.4557 319.178 93.8639 319.401C93.278 319.624 92.6159 319.735 91.8776 319.735C91.1862 319.735 90.5504 319.624 89.9704 319.401C89.3961 319.178 88.8952 318.85 88.4674 318.417C88.0456 317.977 87.7174 317.441 87.4831 316.808C87.2545 316.175 87.1403 315.449 87.1403 314.628C87.1403 313.539 87.3336 312.616 87.7204 311.86C88.1071 311.104 88.6579 310.53 89.3727 310.137C90.0875 309.745 90.9401 309.548 91.9303 309.548C92.8502 309.548 93.6647 309.745 94.3737 310.137C95.0885 310.53 95.6481 311.104 96.0524 311.86C96.4625 312.616 96.6676 313.539 96.6676 314.628ZM89.8737 314.628C89.8737 315.273 89.944 315.815 90.0846 316.254C90.2252 316.694 90.445 317.025 90.7438 317.248C91.0426 317.47 91.4323 317.582 91.9127 317.582C92.3874 317.582 92.7711 317.47 93.0641 317.248C93.3629 317.025 93.5797 316.694 93.7145 316.254C93.8551 315.815 93.9254 315.273 93.9254 314.628C93.9254 313.978 93.8551 313.439 93.7145 313.011C93.5797 312.578 93.3629 312.252 93.0641 312.036C92.7653 311.819 92.3756 311.71 91.8952 311.71C91.1862 311.71 90.6706 311.954 90.3483 312.44C90.0319 312.926 89.8737 313.656 89.8737 314.628ZM102.873 319.735C101.9 319.735 101.071 319.559 100.385 319.208C99.6999 318.85 99.1784 318.299 98.8209 317.555C98.4635 316.811 98.2848 315.859 98.2848 314.699C98.2848 313.498 98.487 312.519 98.8913 311.763C99.3014 311.001 99.8668 310.442 100.588 310.084C101.314 309.727 102.155 309.548 103.11 309.548C103.79 309.548 104.376 309.616 104.868 309.75C105.366 309.879 105.799 310.035 106.169 310.216L105.378 312.291C104.956 312.121 104.563 311.983 104.2 311.877C103.837 311.766 103.473 311.71 103.11 311.71C102.641 311.71 102.252 311.822 101.941 312.044C101.631 312.261 101.399 312.589 101.247 313.029C101.094 313.468 101.018 314.019 101.018 314.681C101.018 315.332 101.1 315.871 101.264 316.298C101.428 316.726 101.666 317.045 101.976 317.256C102.287 317.461 102.665 317.564 103.11 317.564C103.667 317.564 104.162 317.491 104.595 317.344C105.029 317.192 105.451 316.981 105.861 316.711V319.005C105.451 319.263 105.02 319.448 104.569 319.559C104.124 319.676 103.558 319.735 102.873 319.735ZM110.827 309.733V319.559H108.146V309.733H110.827ZM109.491 305.883C109.889 305.883 110.232 305.977 110.519 306.165C110.806 306.346 110.95 306.689 110.95 307.193C110.95 307.691 110.806 308.037 110.519 308.23C110.232 308.417 109.889 308.511 109.491 308.511C109.087 308.511 108.741 308.417 108.454 308.23C108.173 308.037 108.032 307.691 108.032 307.193C108.032 306.689 108.173 306.346 108.454 306.165C108.741 305.977 109.087 305.883 109.491 305.883ZM117.673 309.531C118.992 309.531 120.003 309.818 120.706 310.392C121.409 310.966 121.76 311.839 121.76 313.011V319.559H119.888L119.37 318.223H119.299C119.018 318.575 118.731 318.862 118.438 319.084C118.145 319.307 117.808 319.471 117.427 319.577C117.047 319.682 116.584 319.735 116.039 319.735C115.459 319.735 114.937 319.624 114.474 319.401C114.017 319.178 113.657 318.838 113.393 318.381C113.13 317.918 112.998 317.333 112.998 316.624C112.998 315.581 113.364 314.813 114.096 314.321C114.829 313.823 115.927 313.547 117.392 313.495L119.097 313.442V313.011C119.097 312.496 118.963 312.118 118.693 311.877C118.423 311.637 118.048 311.517 117.568 311.517C117.093 311.517 116.628 311.584 116.171 311.719C115.714 311.854 115.256 312.024 114.799 312.229L113.912 310.418C114.433 310.143 115.016 309.926 115.661 309.768C116.311 309.61 116.982 309.531 117.673 309.531ZM119.097 315.006L118.06 315.042C117.193 315.065 116.59 315.22 116.25 315.507C115.916 315.794 115.749 316.172 115.749 316.641C115.749 317.051 115.869 317.344 116.109 317.52C116.349 317.69 116.663 317.775 117.049 317.775C117.624 317.775 118.107 317.605 118.5 317.265C118.898 316.925 119.097 316.442 119.097 315.815V315.006ZM127.21 319.559H124.529V305.883H127.21V319.559ZM138.758 309.548C139.667 309.548 140.449 309.724 141.105 310.076C141.761 310.421 142.268 310.925 142.626 311.587C142.983 312.25 143.162 313.058 143.162 314.013V315.314H136.825C136.854 316.07 137.08 316.665 137.502 317.098C137.929 317.526 138.521 317.74 139.277 317.74C139.904 317.74 140.478 317.675 141 317.546C141.521 317.417 142.057 317.224 142.608 316.966V319.041C142.122 319.281 141.612 319.457 141.079 319.568C140.551 319.679 139.91 319.735 139.154 319.735C138.17 319.735 137.297 319.553 136.535 319.19C135.779 318.827 135.184 318.273 134.751 317.529C134.323 316.785 134.109 315.847 134.109 314.716C134.109 313.568 134.302 312.613 134.689 311.851C135.082 311.083 135.627 310.509 136.324 310.128C137.021 309.742 137.833 309.548 138.758 309.548ZM138.776 311.456C138.255 311.456 137.821 311.623 137.475 311.957C137.135 312.291 136.939 312.815 136.886 313.53H140.648C140.642 313.131 140.569 312.777 140.428 312.466C140.294 312.156 140.089 311.91 139.813 311.728C139.544 311.546 139.198 311.456 138.776 311.456ZM68.8415 335.548C69.7497 335.548 70.5319 335.724 71.1881 336.076C71.8444 336.421 72.3512 336.925 72.7086 337.587C73.0661 338.25 73.2448 339.058 73.2448 340.013V341.314H66.9079C66.9372 342.07 67.1627 342.665 67.5846 343.098C68.0124 343.526 68.6041 343.74 69.36 343.74C69.987 343.74 70.5612 343.675 71.0827 343.546C71.6041 343.417 72.1403 343.224 72.6911 342.966V345.041C72.2047 345.281 71.695 345.457 71.1618 345.568C70.6344 345.679 69.9928 345.735 69.237 345.735C68.2526 345.735 67.3795 345.553 66.6178 345.19C65.862 344.827 65.2672 344.273 64.8336 343.529C64.4059 342.785 64.192 341.847 64.192 340.716C64.192 339.568 64.3854 338.613 64.7721 337.851C65.1647 337.083 65.7096 336.509 66.4069 336.128C67.1041 335.742 67.9157 335.548 68.8415 335.548ZM68.859 337.456C68.3375 337.456 67.904 337.623 67.5583 337.957C67.2184 338.291 67.0221 338.815 66.9694 339.53H70.7311C70.7252 339.131 70.652 338.777 70.5114 338.466C70.3766 338.156 70.1715 337.91 69.8961 337.728C69.6266 337.546 69.2809 337.456 68.859 337.456ZM86.9645 335.548C88.0778 335.548 88.9186 335.835 89.487 336.41C90.0612 336.978 90.3483 337.892 90.3483 339.152V345.559H87.6588V339.82C87.6588 339.117 87.5387 338.586 87.2985 338.229C87.0583 337.872 86.6862 337.693 86.1823 337.693C85.4733 337.693 84.9694 337.948 84.6706 338.458C84.3717 338.961 84.2223 339.685 84.2223 340.628V345.559H81.5416V339.82C81.5416 339.351 81.4889 338.958 81.3834 338.642C81.278 338.326 81.1168 338.088 80.9 337.93C80.6833 337.772 80.4049 337.693 80.0651 337.693C79.567 337.693 79.1745 337.819 78.8874 338.071C78.6061 338.317 78.404 338.683 78.2809 339.169C78.1637 339.65 78.1051 340.239 78.1051 340.936V345.559H75.4245V335.733H77.4723L77.8327 336.99H77.9821C78.1813 336.65 78.4303 336.375 78.7291 336.164C79.0338 335.953 79.3678 335.797 79.7311 335.698C80.0944 335.598 80.4635 335.548 80.8385 335.548C81.5592 335.548 82.1686 335.666 82.6666 335.9C83.1706 336.134 83.5573 336.498 83.8268 336.99H84.0641C84.3571 336.486 84.7702 336.12 85.3034 335.891C85.8424 335.663 86.3961 335.548 86.9645 335.548ZM102.038 340.628C102.038 341.449 101.926 342.175 101.704 342.808C101.487 343.441 101.168 343.977 100.746 344.417C100.33 344.85 99.8258 345.178 99.234 345.401C98.6481 345.624 97.986 345.735 97.2477 345.735C96.5563 345.735 95.9206 345.624 95.3405 345.401C94.7663 345.178 94.2653 344.85 93.8375 344.417C93.4157 343.977 93.0875 343.441 92.8532 342.808C92.6247 342.175 92.5104 341.449 92.5104 340.628C92.5104 339.539 92.7038 338.616 93.0905 337.86C93.4772 337.104 94.028 336.53 94.7428 336.137C95.4577 335.745 96.3102 335.548 97.3004 335.548C98.2204 335.548 99.0348 335.745 99.7438 336.137C100.459 336.53 101.018 337.104 101.423 337.86C101.833 338.616 102.038 339.539 102.038 340.628ZM95.2438 340.628C95.2438 341.273 95.3141 341.815 95.4547 342.254C95.5954 342.694 95.8151 343.025 96.1139 343.248C96.4127 343.47 96.8024 343.582 97.2829 343.582C97.7575 343.582 98.1413 343.47 98.4342 343.248C98.7331 343.025 98.9499 342.694 99.0846 342.254C99.2252 341.815 99.2956 341.273 99.2956 340.628C99.2956 339.978 99.2252 339.439 99.0846 339.011C98.9499 338.578 98.7331 338.252 98.4342 338.036C98.1354 337.819 97.7458 337.71 97.2653 337.71C96.5563 337.71 96.0407 337.954 95.7184 338.44C95.402 338.926 95.2438 339.656 95.2438 340.628ZM108.243 345.735C107.27 345.735 106.441 345.559 105.756 345.208C105.07 344.85 104.548 344.299 104.191 343.555C103.834 342.811 103.655 341.859 103.655 340.699C103.655 339.498 103.857 338.519 104.261 337.763C104.672 337.001 105.237 336.442 105.958 336.084C106.684 335.727 107.525 335.548 108.48 335.548C109.16 335.548 109.746 335.616 110.238 335.75C110.736 335.879 111.17 336.035 111.539 336.216L110.748 338.291C110.326 338.121 109.933 337.983 109.57 337.877C109.207 337.766 108.843 337.71 108.48 337.71C108.011 337.71 107.622 337.822 107.311 338.044C107.001 338.261 106.769 338.589 106.617 339.029C106.465 339.468 106.388 340.019 106.388 340.681C106.388 341.332 106.47 341.871 106.634 342.298C106.798 342.726 107.036 343.045 107.346 343.256C107.657 343.461 108.035 343.564 108.48 343.564C109.037 343.564 109.532 343.491 109.965 343.344C110.399 343.192 110.821 342.981 111.231 342.711V345.005C110.821 345.263 110.39 345.448 109.939 345.559C109.494 345.676 108.928 345.735 108.243 345.735ZM116.197 335.733V345.559H113.516V335.733H116.197ZM114.861 331.883C115.259 331.883 115.602 331.977 115.889 332.165C116.176 332.346 116.32 332.689 116.32 333.193C116.32 333.691 116.176 334.037 115.889 334.23C115.602 334.417 115.259 334.511 114.861 334.511C114.457 334.511 114.111 334.417 113.824 334.23C113.543 334.037 113.402 333.691 113.402 333.193C113.402 332.689 113.543 332.346 113.824 332.165C114.111 331.977 114.457 331.883 114.861 331.883ZM127.948 340.628C127.948 341.449 127.837 342.175 127.614 342.808C127.397 343.441 127.078 343.977 126.656 344.417C126.24 344.85 125.736 345.178 125.144 345.401C124.558 345.624 123.896 345.735 123.158 345.735C122.466 345.735 121.831 345.624 121.251 345.401C120.676 345.178 120.175 344.85 119.748 344.417C119.326 343.977 118.998 343.441 118.763 342.808C118.535 342.175 118.421 341.449 118.421 340.628C118.421 339.539 118.614 338.616 119.001 337.86C119.387 337.104 119.938 336.53 120.653 336.137C121.368 335.745 122.22 335.548 123.211 335.548C124.131 335.548 124.945 335.745 125.654 336.137C126.369 336.53 126.928 337.104 127.333 337.86C127.743 338.616 127.948 339.539 127.948 340.628ZM121.154 340.628C121.154 341.273 121.224 341.815 121.365 342.254C121.506 342.694 121.725 343.025 122.024 343.248C122.323 343.47 122.713 343.582 123.193 343.582C123.668 343.582 124.051 343.47 124.344 343.248C124.643 343.025 124.86 342.694 124.995 342.254C125.135 341.815 125.206 341.273 125.206 340.628C125.206 339.978 125.135 339.439 124.995 339.011C124.86 338.578 124.643 338.252 124.344 338.036C124.046 337.819 123.656 337.71 123.175 337.71C122.466 337.71 121.951 337.954 121.629 338.44C121.312 338.926 121.154 339.656 121.154 340.628ZM135.744 335.548C136.793 335.548 137.636 335.835 138.275 336.41C138.914 336.978 139.233 337.892 139.233 339.152V345.559H136.552V339.82C136.552 339.117 136.423 338.586 136.166 338.229C135.914 337.872 135.515 337.693 134.97 337.693C134.15 337.693 133.59 337.971 133.292 338.528C132.993 339.084 132.843 339.887 132.843 340.936V345.559H130.163V335.733H132.211L132.571 336.99H132.72C132.931 336.65 133.192 336.375 133.503 336.164C133.819 335.953 134.168 335.797 134.548 335.698C134.935 335.598 135.334 335.548 135.744 335.548ZM146.018 335.531C147.337 335.531 148.347 335.818 149.05 336.392C149.754 336.966 150.105 337.839 150.105 339.011V345.559H148.233L147.715 344.223H147.644C147.363 344.575 147.076 344.862 146.783 345.084C146.49 345.307 146.153 345.471 145.772 345.577C145.391 345.682 144.928 345.735 144.383 345.735C143.803 345.735 143.282 345.624 142.819 345.401C142.362 345.178 142.002 344.838 141.738 344.381C141.474 343.918 141.342 343.333 141.342 342.624C141.342 341.581 141.709 340.813 142.441 340.321C143.173 339.823 144.272 339.547 145.737 339.495L147.442 339.442V339.011C147.442 338.496 147.307 338.118 147.038 337.877C146.768 337.637 146.393 337.517 145.913 337.517C145.438 337.517 144.972 337.584 144.515 337.719C144.058 337.854 143.601 338.024 143.144 338.229L142.256 336.418C142.778 336.143 143.361 335.926 144.006 335.768C144.656 335.61 145.327 335.531 146.018 335.531ZM147.442 341.006L146.405 341.042C145.538 341.065 144.934 341.22 144.594 341.507C144.26 341.794 144.093 342.172 144.093 342.641C144.093 343.051 144.214 343.344 144.454 343.52C144.694 343.69 145.007 343.775 145.394 343.775C145.968 343.775 146.452 343.605 146.844 343.265C147.243 342.925 147.442 342.442 147.442 341.815V341.006ZM155.554 345.559H152.874V331.883H155.554V345.559Z" fill="#292929"/>
<defs>
<radialGradient id="paint0_angular_127_1685" cx="0" cy="0" r="1" gradientUnits="userSpaceOnUse" gradientTransform="translate(210 210.5) rotate(-137.35) scale(251.083 251.631)">
<stop stop-color="#868ABB"/>
<stop offset="0.255438" stop-color="#92D3CA"/>
<stop offset="0.505594" stop-color="#F29E4A"/>
<stop offset="0.760317" stop-color="#ED5E7E"/>
</radialGradient>
</defs>
</svg>
