<svg width="558" height="182" viewBox="0 0 558 182" fill="none" xmlns="http://www.w3.org/2000/svg">
<path d="M109.699 6.96C109.699 6.64 109.779 6.38667 109.939 6.2C110.099 6.01333 110.299 5.88667 110.539 5.82C110.792 5.74 111.052 5.7 111.319 5.7C111.719 5.7 112.086 5.78667 112.419 5.96C112.766 6.13333 112.932 6.46667 112.919 6.96C112.906 9.14667 112.866 11.3933 112.799 13.7C112.746 15.9933 112.659 18.2333 112.539 20.42C112.539 20.9 112.366 21.2267 112.019 21.4C111.686 21.5867 111.312 21.68 110.899 21.68C110.632 21.68 110.372 21.64 110.119 21.56C109.879 21.48 109.686 21.3333 109.539 21.12C109.392 20.92 109.319 20.6333 109.319 20.26C109.439 18.1533 109.526 15.96 109.579 13.68C109.646 11.3867 109.686 9.14667 109.699 6.96ZM111.879 8.82C111.466 8.86 111.179 8.74 111.019 8.46C110.859 8.18 110.779 7.85333 110.779 7.48C110.779 7.10667 110.859 6.78 111.019 6.5C111.179 6.20667 111.466 6.03333 111.879 5.98C112.026 5.94 112.239 5.92 112.519 5.92C112.799 5.90667 113.099 5.9 113.419 5.9C114.979 5.9 116.326 6.10667 117.459 6.52C118.606 6.92 119.552 7.48 120.299 8.2C121.046 8.92 121.606 9.74667 121.979 10.68C122.352 11.6133 122.539 12.6067 122.539 13.66C122.539 14.8733 122.312 15.9533 121.859 16.9C121.419 17.8333 120.806 18.62 120.019 19.26C119.232 19.9 118.306 20.3867 117.239 20.72C116.186 21.04 115.046 21.2 113.819 21.2C113.206 21.2 112.712 21.1933 112.339 21.18C111.966 21.1667 111.646 21.1467 111.379 21.12C110.979 21.0667 110.692 20.8933 110.519 20.6C110.346 20.2933 110.259 19.96 110.259 19.6C110.259 19.08 110.366 18.72 110.579 18.52C110.806 18.32 111.072 18.2333 111.379 18.26C111.632 18.2733 111.919 18.2933 112.239 18.32C112.559 18.3467 112.926 18.36 113.339 18.36C114.646 18.36 115.719 18.16 116.559 17.76C117.412 17.3467 118.046 16.7867 118.459 16.08C118.872 15.3733 119.079 14.5733 119.079 13.68C119.079 13.0533 118.986 12.4467 118.799 11.86C118.612 11.26 118.299 10.7267 117.859 10.26C117.432 9.79333 116.859 9.42667 116.139 9.16C115.419 8.88 114.532 8.74 113.479 8.74C113.159 8.74 112.852 8.74667 112.559 8.76C112.266 8.77333 112.039 8.79333 111.879 8.82ZM125.408 6.62C125.408 6.32667 125.482 6.10667 125.628 5.96C125.775 5.8 125.975 5.68667 126.228 5.62C126.482 5.54 126.748 5.46667 127.028 5.4C127.335 5.33333 127.742 5.27333 128.248 5.22C128.755 5.15333 129.288 5.12 129.848 5.12C130.675 5.12 131.482 5.20667 132.268 5.38C133.055 5.54 133.768 5.8 134.408 6.16C135.048 6.50667 135.555 6.96 135.928 7.52C136.302 8.08 136.488 8.75333 136.488 9.54C136.488 10.58 136.262 11.48 135.808 12.24C135.355 13 134.748 13.6267 133.988 14.12C133.228 14.6133 132.375 14.9867 131.428 15.24C130.495 15.48 129.535 15.6 128.548 15.6L128.488 20.12C128.475 20.5333 128.302 20.82 127.968 20.98C127.648 21.14 127.288 21.22 126.888 21.22C126.475 21.22 126.095 21.14 125.748 20.98C125.415 20.82 125.255 20.5333 125.268 20.12L125.328 15.42C125.022 15.3933 124.788 15.2867 124.628 15.1C124.482 14.9 124.395 14.68 124.368 14.44C124.355 14.0933 124.428 13.78 124.588 13.5C124.748 13.2067 125.002 13.0333 125.348 12.98L125.408 6.62ZM128.568 13.08C129.475 13.08 130.222 12.98 130.808 12.78C131.408 12.58 131.882 12.32 132.228 12C132.575 11.6667 132.822 11.3 132.968 10.9C133.115 10.5 133.188 10.1 133.188 9.7C133.188 9.28667 133.048 8.92667 132.768 8.62C132.502 8.31333 132.122 8.07333 131.628 7.9C131.148 7.72667 130.588 7.64 129.948 7.64C129.855 7.64 129.715 7.65333 129.528 7.68C129.355 7.69333 129.182 7.72 129.008 7.76C128.848 7.78667 128.722 7.82 128.628 7.86C128.615 8.74 128.602 9.61333 128.588 10.48C128.588 11.3333 128.582 12.2 128.568 13.08ZM139.688 21.36C139.421 21.36 139.155 21.32 138.888 21.24C138.621 21.1733 138.408 21.0533 138.248 20.88C138.101 20.6933 138.028 20.4333 138.028 20.1L138.328 6.76C138.341 6.21333 138.495 5.82 138.788 5.58C139.095 5.34 139.435 5.22 139.808 5.22C140.261 5.22 140.628 5.30667 140.908 5.48C141.188 5.64 141.461 5.94667 141.728 6.4C142.101 7.02667 142.521 7.66667 142.988 8.32C143.468 8.97333 143.968 9.64667 144.488 10.34C145.008 11.02 145.528 11.7267 146.048 12.46C146.581 13.18 147.081 13.9067 147.548 14.64C147.601 13.68 147.655 12.72 147.708 11.76C147.775 10.7867 147.841 9.85333 147.908 8.96C147.988 8.06667 148.055 7.26 148.108 6.54C148.148 6.12667 148.301 5.82667 148.568 5.64C148.848 5.45333 149.228 5.35333 149.708 5.34C149.988 5.32667 150.255 5.36667 150.508 5.46C150.761 5.55333 150.968 5.69333 151.128 5.88C151.301 6.05333 151.375 6.27333 151.348 6.54C151.241 7.76667 151.141 9.02 151.048 10.3C150.955 11.5667 150.868 12.8 150.788 14C150.708 15.2 150.635 16.3133 150.568 17.34C150.515 18.3667 150.475 19.26 150.448 20.02C150.448 20.3 150.361 20.5267 150.188 20.7C150.028 20.8733 149.835 20.9933 149.608 21.06C149.395 21.14 149.208 21.18 149.048 21.18C148.701 21.18 148.388 21.12 148.108 21C147.828 20.88 147.575 20.58 147.348 20.1C147.081 19.5933 146.788 19.0733 146.468 18.54C146.148 18.0067 145.788 17.4667 145.388 16.92C145.001 16.36 144.595 15.8 144.168 15.24C143.741 14.6667 143.308 14.1 142.868 13.54C142.428 12.9667 141.988 12.4067 141.548 11.86L141.408 20.26C141.395 20.6733 141.215 20.96 140.868 21.12C140.521 21.28 140.128 21.36 139.688 21.36ZM156.713 20.26C156.659 20.6733 156.486 20.96 156.193 21.12C155.913 21.28 155.533 21.36 155.053 21.36C154.866 21.36 154.653 21.32 154.413 21.24C154.186 21.1733 153.993 21.0533 153.833 20.88C153.686 20.6933 153.626 20.4333 153.653 20.1C153.799 18.82 153.919 17.44 154.013 15.96C154.106 14.4667 154.179 12.9533 154.233 11.42C154.299 9.87333 154.346 8.38667 154.373 6.96C154.386 6.52 154.539 6.2 154.833 6C155.139 5.8 155.506 5.7 155.933 5.7C156.386 5.7 156.733 5.78 156.973 5.94C157.226 6.1 157.479 6.46667 157.733 7.04C158.066 7.8 158.426 8.57333 158.813 9.36C159.213 10.1333 159.613 10.9067 160.013 11.68C160.426 12.4533 160.819 13.2267 161.193 14C161.459 13.5867 161.746 13.1333 162.053 12.64C162.359 12.1467 162.673 11.64 162.993 11.12C163.326 10.5867 163.653 10.0667 163.973 9.56C164.293 9.04 164.593 8.56 164.873 8.12C165.153 7.68 165.399 7.29333 165.613 6.96C165.826 6.61333 165.986 6.35333 166.093 6.18C166.293 5.87333 166.519 5.68 166.773 5.6C167.039 5.50667 167.306 5.46 167.573 5.46C168.133 5.46 168.553 5.56667 168.833 5.78C169.126 5.99333 169.259 6.26 169.233 6.58L169.073 9.64C169.033 10.3067 168.999 11.04 168.973 11.84C168.959 12.6267 168.946 13.4333 168.933 14.26C168.919 15.0867 168.913 15.88 168.913 16.64C168.913 17.3867 168.919 18.0667 168.933 18.68C168.946 19.28 168.959 19.7533 168.973 20.1C168.986 20.4333 168.913 20.6933 168.753 20.88C168.593 21.0533 168.399 21.1733 168.173 21.24C167.959 21.32 167.759 21.36 167.573 21.36C167.106 21.36 166.719 21.28 166.413 21.12C166.106 20.96 165.939 20.6733 165.913 20.26C165.899 19.8067 165.886 19.2667 165.873 18.64C165.873 18.0133 165.873 17.3333 165.873 16.6C165.873 15.8533 165.879 15.08 165.893 14.28C165.919 13.4667 165.946 12.6533 165.973 11.84C165.573 12.4933 165.173 13.1333 164.773 13.76C164.386 14.3733 164.006 14.9733 163.633 15.56C163.259 16.1467 162.899 16.72 162.553 17.28C162.633 17.7067 162.606 18.0467 162.473 18.3C162.353 18.54 162.173 18.7133 161.933 18.82C161.693 18.9267 161.433 18.98 161.153 18.98C160.699 18.98 160.366 18.8867 160.153 18.7C159.953 18.5133 159.773 18.2067 159.613 17.78C159.466 17.3667 159.299 16.9467 159.113 16.52C158.926 16.08 158.726 15.64 158.513 15.2C158.299 14.76 158.079 14.3267 157.853 13.9C157.639 13.46 157.419 13.0267 157.193 12.6C157.166 13.3067 157.133 14.0067 157.093 14.7C157.066 15.38 157.033 16.0467 156.993 16.7C156.953 17.34 156.906 17.96 156.853 18.56C156.813 19.16 156.766 19.7267 156.713 20.26ZM183.306 18.64C183.533 18.64 183.766 18.6 184.006 18.52C184.26 18.44 184.46 18.3533 184.606 18.26C184.833 18.1133 185.02 18.0133 185.166 17.96C185.313 17.8933 185.44 17.86 185.546 17.86C185.733 17.86 185.913 17.9333 186.086 18.08C186.26 18.2267 186.4 18.4133 186.506 18.64C186.613 18.8533 186.666 19.0667 186.666 19.28C186.666 19.48 186.626 19.6533 186.546 19.8C186.48 19.9467 186.373 20.08 186.226 20.2C185.88 20.48 185.413 20.7267 184.826 20.94C184.253 21.14 183.586 21.24 182.826 21.24C181.88 21.24 181.066 21.0067 180.386 20.54C179.706 20.0733 179.186 19.44 178.826 18.64C178.466 17.8267 178.286 16.9 178.286 15.86C178.286 15.1133 178.386 14.4067 178.586 13.74C178.786 13.06 179.086 12.46 179.486 11.94C179.886 11.4067 180.386 10.9933 180.986 10.7C181.586 10.3933 182.273 10.24 183.046 10.24C183.673 10.24 184.24 10.34 184.746 10.54C185.266 10.74 185.68 11.0333 185.986 11.42C186.306 11.8067 186.466 12.2733 186.466 12.82C186.466 13.4733 186.28 14.06 185.906 14.58C185.546 15.1 185.04 15.54 184.386 15.9C183.746 16.26 183.013 16.5333 182.186 16.72C181.36 16.9067 180.48 17 179.546 17C179.053 17 178.666 16.9933 178.386 16.98C178.12 16.9533 177.866 16.9067 177.626 16.84C177.413 16.7867 177.24 16.6733 177.106 16.5C176.986 16.3133 176.926 16.0733 176.926 15.78C176.926 15.4467 177.013 15.1733 177.186 14.96C177.36 14.7333 177.633 14.64 178.006 14.68C178.126 14.7067 178.36 14.7333 178.706 14.76C179.066 14.7867 179.573 14.8 180.226 14.8C180.893 14.8 181.48 14.7333 181.986 14.6C182.493 14.4533 182.886 14.2467 183.166 13.98C183.46 13.7 183.606 13.36 183.606 12.96C183.606 12.7333 183.546 12.5733 183.426 12.48C183.306 12.3733 183.146 12.32 182.946 12.32C182.693 12.32 182.46 12.42 182.246 12.62C182.046 12.82 181.866 13.0933 181.706 13.44C181.56 13.7733 181.446 14.1533 181.366 14.58C181.286 15.0067 181.246 15.4467 181.246 15.9C181.246 16.7667 181.446 17.44 181.846 17.92C182.246 18.4 182.733 18.64 183.306 18.64ZM203.933 11.06C204.119 11.2333 204.213 11.4267 204.213 11.64C204.199 12.0667 204.059 12.44 203.793 12.76C203.526 13.0667 203.213 13.22 202.853 13.22C202.759 13.22 202.653 13.2133 202.533 13.2C202.426 13.1733 202.326 13.1267 202.233 13.06C201.993 12.86 201.699 12.6667 201.353 12.48C201.019 12.2933 200.653 12.2 200.253 12.2C200.026 12.2 199.819 12.2333 199.633 12.3C199.459 12.3667 199.319 12.4533 199.213 12.56C199.106 12.6667 199.053 12.7933 199.053 12.94C199.053 13.1133 199.186 13.3 199.453 13.5C199.733 13.6867 200.299 13.9067 201.153 14.16C201.939 14.3867 202.539 14.68 202.953 15.04C203.379 15.4 203.673 15.7867 203.833 16.2C203.993 16.6133 204.073 17.0267 204.073 17.44C204.073 18.28 203.873 18.9867 203.473 19.56C203.073 20.1333 202.519 20.56 201.813 20.84C201.119 21.12 200.319 21.26 199.413 21.26C198.613 21.26 197.913 21.14 197.313 20.9C196.713 20.6467 196.239 20.3333 195.893 19.96C195.559 19.5867 195.386 19.2 195.373 18.8C195.373 18.44 195.499 18.12 195.753 17.84C196.006 17.56 196.299 17.42 196.633 17.42C196.819 17.42 197.006 17.4667 197.193 17.56C197.393 17.64 197.546 17.8 197.653 18.04C197.759 18.2533 197.999 18.4267 198.373 18.56C198.746 18.68 199.139 18.74 199.553 18.74C199.953 18.74 200.259 18.6667 200.473 18.52C200.699 18.3733 200.813 18.2 200.813 18C200.813 17.8667 200.759 17.7267 200.653 17.58C200.559 17.42 200.359 17.2533 200.053 17.08C199.746 16.9067 199.266 16.7133 198.613 16.5C197.799 16.2333 197.153 15.86 196.673 15.38C196.193 14.8867 195.953 14.2267 195.953 13.4C195.953 12.8 196.079 12.28 196.333 11.84C196.599 11.3867 196.946 11.0133 197.373 10.72C197.813 10.4267 198.299 10.2067 198.833 10.06C199.366 9.91333 199.906 9.84 200.453 9.84C201.079 9.84 201.686 9.94 202.273 10.14C202.859 10.34 203.413 10.6467 203.933 11.06ZM206.119 11.48C206.173 10.8667 206.346 10.4467 206.639 10.22C206.946 9.99333 207.286 9.88 207.659 9.88C208.366 9.88 208.833 10.0333 209.059 10.34C209.299 10.6467 209.393 11.0267 209.339 11.48C209.286 11.88 209.213 12.42 209.119 13.1C209.026 13.7667 208.979 14.46 208.979 15.18C208.979 15.7533 209.026 16.2733 209.119 16.74C209.213 17.1933 209.353 17.5533 209.539 17.82C209.726 18.0867 209.959 18.22 210.239 18.22C210.479 18.22 210.699 18.1067 210.899 17.88C211.113 17.64 211.299 17.3333 211.459 16.96C211.633 16.5733 211.779 16.16 211.899 15.72C212.019 15.28 212.126 14.8467 212.219 14.42C212.313 13.9933 212.379 13.62 212.419 13.3C212.433 13.18 212.453 13.0333 212.479 12.86C212.519 12.6733 212.559 12.4867 212.599 12.3C212.639 12.1 212.679 11.9067 212.719 11.72C212.759 11.52 212.799 11.34 212.839 11.18C212.946 10.66 213.133 10.3 213.399 10.1C213.679 9.9 214.039 9.8 214.479 9.8C214.759 9.8 215.019 9.83333 215.259 9.9C215.513 9.95333 215.713 10.0667 215.859 10.24C215.993 10.3467 216.086 10.4867 216.139 10.66C216.206 10.82 216.239 11.02 216.239 11.26C216.239 11.3933 216.213 11.58 216.159 11.82C216.106 12.06 216.026 12.3867 215.919 12.8C215.879 13.0267 215.839 13.3533 215.799 13.78C215.759 14.1933 215.719 14.66 215.679 15.18C215.653 15.6867 215.626 16.2067 215.599 16.74C215.573 17.2733 215.559 17.7667 215.559 18.22C215.559 18.6333 215.566 19.0133 215.579 19.36C215.593 19.6933 215.599 19.9467 215.599 20.12C215.626 20.64 215.486 20.9933 215.179 21.18C214.886 21.38 214.553 21.48 214.179 21.48C213.699 21.48 213.333 21.3867 213.079 21.2C212.839 21.0267 212.679 20.7933 212.599 20.5C212.533 20.2067 212.499 19.9 212.499 19.58C212.499 19.4333 212.499 19.2733 212.499 19.1C212.499 18.9133 212.499 18.72 212.499 18.52C212.299 18.9467 212.066 19.3667 211.799 19.78C211.533 20.1933 211.199 20.54 210.799 20.82C210.399 21.0867 209.893 21.22 209.279 21.22C208.653 21.22 208.113 21.04 207.659 20.68C207.219 20.32 206.859 19.84 206.579 19.24C206.299 18.64 206.093 17.9867 205.959 17.28C205.826 16.56 205.759 15.86 205.759 15.18C205.759 14.4467 205.806 13.7467 205.899 13.08C206.006 12.4 206.079 11.8667 206.119 11.48ZM218.095 16.2C218.095 14.9733 218.315 13.9267 218.755 13.06C219.208 12.18 219.801 11.5067 220.535 11.04C221.281 10.56 222.095 10.32 222.975 10.32C223.321 10.32 223.681 10.3667 224.055 10.46C224.428 10.5533 224.788 10.6667 225.135 10.8C225.481 10.92 225.775 11.0533 226.015 11.2L226.135 10.84C226.215 10.6267 226.361 10.44 226.575 10.28C226.801 10.12 227.068 10.04 227.375 10.04C227.801 10.04 228.188 10.1867 228.535 10.48C228.881 10.76 229.055 11.1467 229.055 11.64C229.055 11.8533 229.035 12.1267 228.995 12.46C228.955 12.78 228.888 13.1667 228.795 13.62C228.715 14.06 228.601 14.5467 228.455 15.08C228.321 15.6 228.141 16.16 227.915 16.76C227.915 17.2133 227.948 17.58 228.015 17.86C228.081 18.14 228.181 18.34 228.315 18.46C228.448 18.58 228.615 18.64 228.815 18.64C228.988 18.64 229.135 18.5867 229.255 18.48C229.388 18.36 229.521 18.2 229.655 18C229.788 17.8133 229.915 17.6867 230.035 17.62C230.155 17.54 230.315 17.5 230.515 17.5C230.821 17.5 231.068 17.6133 231.255 17.84C231.455 18.0667 231.555 18.3 231.555 18.54C231.555 18.78 231.508 19.0267 231.415 19.28C231.321 19.52 231.195 19.74 231.035 19.94C230.701 20.3667 230.308 20.6933 229.855 20.92C229.401 21.1333 228.921 21.24 228.415 21.24C228.028 21.24 227.648 21.1733 227.275 21.04C226.901 20.9067 226.561 20.7 226.255 20.42C225.961 20.14 225.728 19.8 225.555 19.4C225.101 19.96 224.601 20.3867 224.055 20.68C223.508 20.96 222.868 21.1 222.135 21.1C221.348 21.1 220.648 20.9 220.035 20.5C219.435 20.0867 218.961 19.5133 218.615 18.78C218.268 18.0333 218.095 17.1733 218.095 16.2ZM221.495 16.08C221.495 16.3333 221.521 16.6 221.575 16.88C221.628 17.1467 221.715 17.4 221.835 17.64C221.955 17.88 222.108 18.08 222.295 18.24C222.481 18.3867 222.708 18.46 222.975 18.46C223.481 18.46 223.881 18.3067 224.175 18C224.468 17.68 224.741 17.28 224.995 16.8C224.981 16.4133 224.988 16.02 225.015 15.62C225.055 15.2067 225.101 14.8133 225.155 14.44C225.221 14.0533 225.288 13.72 225.355 13.44C225.048 13.24 224.755 13.0867 224.475 12.98C224.208 12.86 223.915 12.8 223.595 12.8C223.168 12.8 222.795 12.94 222.475 13.22C222.155 13.5 221.908 13.8867 221.735 14.38C221.575 14.8733 221.495 15.44 221.495 16.08ZM239.392 10.36C239.792 10.52 240.119 10.74 240.372 11.02C240.626 11.3 240.752 11.6333 240.752 12.02C240.752 12.3533 240.652 12.64 240.452 12.88C240.252 13.12 239.972 13.24 239.612 13.24C239.412 13.24 239.226 13.1933 239.052 13.1C238.879 12.9933 238.706 12.8733 238.532 12.74C238.359 12.6067 238.152 12.4933 237.912 12.4C237.686 12.2933 237.399 12.24 237.052 12.24C236.759 12.24 236.539 12.3 236.392 12.42C236.246 12.54 236.172 12.6733 236.172 12.82C236.172 13.06 236.252 13.2533 236.412 13.4C236.572 13.5333 236.839 13.6933 237.212 13.88C238.159 14.3467 238.899 14.8 239.432 15.24C239.966 15.6667 240.346 16.1 240.572 16.54C240.799 16.98 240.912 17.4667 240.912 18C240.912 18.6667 240.706 19.2467 240.292 19.74C239.892 20.22 239.326 20.6 238.592 20.88C237.872 21.16 237.032 21.3133 236.072 21.34C235.766 21.34 235.432 21.32 235.072 21.28C234.712 21.2533 234.352 21.1867 233.992 21.08C233.632 20.9867 233.299 20.8533 232.992 20.68C232.699 20.5067 232.459 20.3 232.272 20.06C232.086 19.8067 231.992 19.5267 231.992 19.22C231.992 18.86 232.126 18.5533 232.392 18.3C232.659 18.0467 232.946 17.92 233.252 17.92C233.399 17.92 233.552 17.9667 233.712 18.06C233.886 18.1533 234.046 18.24 234.192 18.32C234.446 18.4267 234.712 18.5467 234.992 18.68C235.286 18.8 235.646 18.86 236.072 18.86C236.366 18.86 236.626 18.8267 236.852 18.76C237.079 18.6933 237.252 18.6 237.372 18.48C237.492 18.3467 237.552 18.2 237.552 18.04C237.552 17.8667 237.472 17.7133 237.312 17.58C237.152 17.4333 236.886 17.2733 236.512 17.1C235.819 16.7667 235.199 16.42 234.652 16.06C234.106 15.7 233.666 15.3 233.332 14.86C233.012 14.4067 232.852 13.9 232.852 13.34C232.852 12.6067 233.032 11.9867 233.392 11.48C233.752 10.96 234.232 10.5667 234.832 10.3C235.446 10.02 236.112 9.88 236.832 9.88C237.219 9.88 237.652 9.92 238.132 10C238.626 10.08 239.046 10.2 239.392 10.36ZM247.899 15.86C247.899 14.7933 248.119 13.8267 248.559 12.96C249.013 12.0933 249.639 11.4067 250.439 10.9C251.239 10.38 252.166 10.12 253.219 10.12C253.713 10.12 254.159 10.2133 254.559 10.4C254.973 10.5867 255.346 10.82 255.679 11.1C255.946 10.9667 256.239 10.9 256.559 10.9C256.919 10.9 257.253 11.02 257.559 11.26C257.866 11.4867 258.019 11.76 258.019 12.08C258.019 12.3467 257.973 12.6467 257.879 12.98C257.799 13.3 257.706 13.7533 257.599 14.34C257.493 14.86 257.386 15.4533 257.279 16.12C257.173 16.7867 257.086 17.54 257.019 18.38C256.953 19.22 256.919 20.16 256.919 21.2C256.919 21.9467 256.939 22.5867 256.979 23.12C257.019 23.6667 257.059 24.1067 257.099 24.44C257.139 24.7867 257.159 25.0467 257.159 25.22C257.159 25.58 256.993 25.86 256.659 26.06C256.339 26.26 255.993 26.36 255.619 26.36C255.113 26.36 254.706 26.2533 254.399 26.04C254.106 25.84 253.926 25.5133 253.859 25.06C253.779 24.6467 253.726 24.18 253.699 23.66C253.673 23.14 253.659 22.5933 253.659 22.02C253.673 21.46 253.693 20.9067 253.719 20.36C253.759 19.8133 253.799 19.3133 253.839 18.86C253.466 19.3133 253.059 19.66 252.619 19.9C252.179 20.1267 251.679 20.24 251.119 20.24C250.439 20.24 249.853 20.0533 249.359 19.68C248.879 19.2933 248.513 18.7733 248.259 18.12C248.019 17.4533 247.899 16.7 247.899 15.86ZM251.299 15.84C251.299 16.12 251.326 16.4067 251.379 16.7C251.446 16.9933 251.546 17.24 251.679 17.44C251.826 17.6267 252.013 17.72 252.239 17.72C252.546 17.72 252.826 17.58 253.079 17.3C253.346 17.0067 253.666 16.5067 254.039 15.8C254.079 15.4667 254.119 15.1667 254.159 14.9C254.213 14.62 254.259 14.34 254.299 14.06C254.353 13.78 254.413 13.46 254.479 13.1C254.346 12.98 254.193 12.8667 254.019 12.76C253.846 12.6533 253.659 12.6 253.459 12.6C253.073 12.6 252.713 12.72 252.379 12.96C252.059 13.1867 251.799 13.54 251.599 14.02C251.399 14.4867 251.299 15.0933 251.299 15.84ZM260.182 11.48C260.235 10.8667 260.408 10.4467 260.702 10.22C261.008 9.99333 261.348 9.88 261.722 9.88C262.428 9.88 262.895 10.0333 263.122 10.34C263.362 10.6467 263.455 11.0267 263.402 11.48C263.348 11.88 263.275 12.42 263.182 13.1C263.088 13.7667 263.042 14.46 263.042 15.18C263.042 15.7533 263.088 16.2733 263.182 16.74C263.275 17.1933 263.415 17.5533 263.602 17.82C263.788 18.0867 264.022 18.22 264.302 18.22C264.542 18.22 264.762 18.1067 264.962 17.88C265.175 17.64 265.362 17.3333 265.522 16.96C265.695 16.5733 265.842 16.16 265.962 15.72C266.082 15.28 266.188 14.8467 266.282 14.42C266.375 13.9933 266.442 13.62 266.482 13.3C266.495 13.18 266.515 13.0333 266.542 12.86C266.582 12.6733 266.622 12.4867 266.662 12.3C266.702 12.1 266.742 11.9067 266.782 11.72C266.822 11.52 266.862 11.34 266.902 11.18C267.008 10.66 267.195 10.3 267.462 10.1C267.742 9.9 268.102 9.8 268.542 9.8C268.822 9.8 269.082 9.83333 269.322 9.9C269.575 9.95333 269.775 10.0667 269.922 10.24C270.055 10.3467 270.148 10.4867 270.202 10.66C270.268 10.82 270.302 11.02 270.302 11.26C270.302 11.3933 270.275 11.58 270.222 11.82C270.168 12.06 270.088 12.3867 269.982 12.8C269.942 13.0267 269.902 13.3533 269.862 13.78C269.822 14.1933 269.782 14.66 269.742 15.18C269.715 15.6867 269.688 16.2067 269.662 16.74C269.635 17.2733 269.622 17.7667 269.622 18.22C269.622 18.6333 269.628 19.0133 269.642 19.36C269.655 19.6933 269.662 19.9467 269.662 20.12C269.688 20.64 269.548 20.9933 269.242 21.18C268.948 21.38 268.615 21.48 268.242 21.48C267.762 21.48 267.395 21.3867 267.142 21.2C266.902 21.0267 266.742 20.7933 266.662 20.5C266.595 20.2067 266.562 19.9 266.562 19.58C266.562 19.4333 266.562 19.2733 266.562 19.1C266.562 18.9133 266.562 18.72 266.562 18.52C266.362 18.9467 266.128 19.3667 265.862 19.78C265.595 20.1933 265.262 20.54 264.862 20.82C264.462 21.0867 263.955 21.22 263.342 21.22C262.715 21.22 262.175 21.04 261.722 20.68C261.282 20.32 260.922 19.84 260.642 19.24C260.362 18.64 260.155 17.9867 260.022 17.28C259.888 16.56 259.822 15.86 259.822 15.18C259.822 14.4467 259.868 13.7467 259.962 13.08C260.068 12.4 260.142 11.8667 260.182 11.48ZM272.157 16.48C272.157 15.68 272.29 14.9067 272.557 14.16C272.824 13.4133 273.197 12.7467 273.677 12.16C274.17 11.5733 274.744 11.1067 275.397 10.76C276.064 10.4133 276.784 10.24 277.557 10.24C278.01 10.24 278.417 10.3067 278.777 10.44C279.15 10.56 279.41 10.6733 279.557 10.78C279.624 10.4333 279.79 10.1867 280.057 10.04C280.324 9.89333 280.664 9.82 281.077 9.82C281.464 9.80667 281.764 9.88 281.977 10.04C282.204 10.1867 282.364 10.3667 282.457 10.58C282.55 10.7933 282.597 11.0067 282.597 11.22C282.597 11.34 282.577 11.5933 282.537 11.98C282.51 12.3533 282.464 12.8467 282.397 13.46C282.344 14.06 282.27 14.7667 282.177 15.58C282.137 15.9133 282.11 16.2267 282.097 16.52C282.084 16.8 282.077 17.0067 282.077 17.14C282.09 17.5133 282.117 17.8333 282.157 18.1C282.21 18.3667 282.284 18.5667 282.377 18.7C282.484 18.8333 282.61 18.9 282.757 18.9C282.917 18.9 283.05 18.86 283.157 18.78C283.264 18.6867 283.37 18.6 283.477 18.52C283.584 18.4267 283.73 18.38 283.917 18.38C284.197 18.38 284.404 18.46 284.537 18.62C284.67 18.78 284.737 19.0133 284.737 19.32C284.737 19.6267 284.69 19.8867 284.597 20.1C284.504 20.3133 284.37 20.5 284.197 20.66C283.93 20.8867 283.63 21.06 283.297 21.18C282.977 21.3 282.624 21.36 282.237 21.36C281.49 21.36 280.904 21.18 280.477 20.82C280.05 20.4467 279.724 19.9867 279.497 19.44C279.244 19.8533 278.944 20.2067 278.597 20.5C278.25 20.78 277.884 20.9933 277.497 21.14C277.11 21.2867 276.724 21.36 276.337 21.36C275.47 21.36 274.724 21.1267 274.097 20.66C273.47 20.1933 272.99 19.5867 272.657 18.84C272.324 18.0933 272.157 17.3067 272.157 16.48ZM278.957 15.8L279.257 13.18C279.07 13.0333 278.877 12.92 278.677 12.84C278.49 12.7467 278.284 12.7 278.057 12.7C277.697 12.7 277.364 12.8067 277.057 13.02C276.75 13.22 276.484 13.4933 276.257 13.84C276.03 14.1867 275.857 14.58 275.737 15.02C275.617 15.4467 275.557 15.88 275.557 16.32C275.557 16.64 275.59 16.9467 275.657 17.24C275.724 17.5333 275.817 17.7933 275.937 18.02C276.07 18.2467 276.224 18.4267 276.397 18.56C276.584 18.68 276.79 18.74 277.017 18.74C277.31 18.74 277.584 18.6067 277.837 18.34C278.09 18.06 278.317 17.6933 278.517 17.24C278.717 16.7867 278.864 16.3067 278.957 15.8ZM285.941 12.68C285.634 12.6933 285.401 12.5667 285.241 12.3C285.081 12.0333 285.001 11.7267 285.001 11.38C285.001 11.0067 285.094 10.7333 285.281 10.56C285.467 10.3867 285.687 10.2933 285.941 10.28L292.141 9.94C292.567 9.91333 292.854 10.0267 293.001 10.28C293.161 10.52 293.241 10.78 293.241 11.06C293.241 11.4067 293.167 11.7 293.021 11.94C292.887 12.1667 292.647 12.2933 292.301 12.32L285.941 12.68ZM287.041 8.5C287.094 8.00667 287.281 7.67333 287.601 7.5C287.934 7.31333 288.307 7.22 288.721 7.22C289.201 7.22 289.594 7.31333 289.901 7.5C290.221 7.67333 290.354 8.00667 290.301 8.5C290.301 8.63333 290.281 8.87333 290.241 9.22C290.201 9.55333 290.154 9.91333 290.101 10.3C290.047 10.6867 290.001 11.04 289.961 11.36C289.894 11.8933 289.821 12.4667 289.741 13.08C289.661 13.6933 289.594 14.2867 289.541 14.86C289.501 15.4333 289.481 15.92 289.481 16.32C289.494 16.7333 289.534 17.0867 289.601 17.38C289.681 17.6733 289.781 17.9 289.901 18.06C290.034 18.22 290.181 18.3 290.341 18.3C290.647 18.3 290.854 18.22 290.961 18.06C291.081 17.9 291.167 17.78 291.221 17.7C291.367 17.4867 291.521 17.3267 291.681 17.22C291.854 17.1133 292.027 17.06 292.201 17.06C292.641 17.06 292.974 17.1933 293.201 17.46C293.427 17.7133 293.541 18.02 293.541 18.38C293.541 18.66 293.481 18.94 293.361 19.22C293.241 19.4867 293.074 19.7333 292.861 19.96C292.514 20.3467 292.061 20.6667 291.501 20.92C290.954 21.1733 290.374 21.3 289.761 21.3C289.041 21.3 288.447 21.14 287.981 20.82C287.514 20.5 287.147 20.0933 286.881 19.6C286.614 19.0933 286.427 18.5467 286.321 17.96C286.214 17.3733 286.161 16.8067 286.161 16.26C286.161 15.46 286.214 14.6467 286.321 13.82C286.427 12.9933 286.541 12.1933 286.661 11.42C286.701 11.18 286.734 10.92 286.761 10.64C286.801 10.3467 286.841 10.06 286.881 9.78C286.921 9.5 286.954 9.24667 286.981 9.02C287.021 8.78 287.041 8.60667 287.041 8.5ZM295.597 11.2C295.61 10.8933 295.71 10.6533 295.897 10.48C296.097 10.2933 296.337 10.16 296.617 10.08C296.897 9.98667 297.177 9.94 297.457 9.94C297.857 9.94 298.19 10.04 298.457 10.24C298.737 10.44 298.857 10.76 298.817 11.2L298.717 12.6C299.143 11.7733 299.63 11.1733 300.177 10.8C300.723 10.4267 301.323 10.24 301.977 10.24C302.337 10.24 302.677 10.3067 302.997 10.44C303.33 10.5733 303.597 10.8133 303.797 11.16C304.01 11.5067 304.117 12.0067 304.117 12.66C304.117 12.94 304.063 13.22 303.957 13.5C303.85 13.7667 303.683 13.9933 303.457 14.18C303.243 14.3533 302.97 14.44 302.637 14.44C302.277 14.44 301.997 14.3267 301.797 14.1C301.61 13.86 301.517 13.56 301.517 13.2C301.41 13.16 301.283 13.14 301.137 13.14C301.017 13.14 300.843 13.1867 300.617 13.28C300.39 13.3733 300.15 13.5467 299.897 13.8C299.643 14.04 299.397 14.38 299.157 14.82C298.93 15.26 298.73 15.8267 298.557 16.52C298.557 16.6667 298.557 16.8933 298.557 17.2C298.557 17.5067 298.55 17.84 298.537 18.2C298.537 18.5467 298.53 18.8733 298.517 19.18C298.517 19.4733 298.517 19.7 298.517 19.86C298.503 20.06 298.443 20.2667 298.337 20.48C298.23 20.6933 298.05 20.8733 297.797 21.02C297.543 21.1667 297.17 21.24 296.677 21.24C296.183 21.24 295.823 21.18 295.597 21.06C295.383 20.94 295.243 20.7867 295.177 20.6C295.123 20.4 295.097 20.1867 295.097 19.96C295.097 19.5333 295.11 19.0667 295.137 18.56C295.177 18.04 295.217 17.5467 295.257 17.08C295.31 16.6 295.357 16.22 295.397 15.94C295.437 15.1533 295.47 14.3667 295.497 13.58C295.523 12.78 295.557 11.9867 295.597 11.2ZM311.663 15.76C311.663 15.4133 311.636 15.0333 311.583 14.62C311.53 14.2067 311.41 13.7933 311.223 13.38C311.036 12.9667 310.743 12.6133 310.343 12.32C310.21 12.2133 310.103 12.1067 310.023 12C309.956 11.88 309.923 11.7267 309.923 11.54C309.923 11.1133 310.076 10.8133 310.383 10.64C310.69 10.4533 311.023 10.36 311.383 10.36C311.836 10.36 312.27 10.5267 312.683 10.86C313.11 11.18 313.49 11.6 313.823 12.12C314.17 12.64 314.436 13.2067 314.623 13.82C314.81 14.42 314.903 15 314.903 15.56C314.903 16.6 314.663 17.5333 314.183 18.36C313.716 19.1867 313.056 19.8467 312.203 20.34C311.35 20.82 310.35 21.06 309.203 21.06C308.35 21.06 307.61 20.92 306.983 20.64C306.37 20.36 305.856 19.98 305.443 19.5C305.043 19.02 304.743 18.4867 304.543 17.9C304.356 17.3 304.263 16.6933 304.263 16.08C304.263 15.36 304.383 14.64 304.623 13.92C304.876 13.2 305.236 12.5467 305.703 11.96C306.183 11.3733 306.756 10.9067 307.423 10.56C308.09 10.2 308.85 10.02 309.703 10.02C310.023 10.02 310.363 10.0533 310.723 10.12C311.083 10.1733 311.396 10.2733 311.663 10.42C311.93 10.5667 312.063 10.78 312.063 11.06C312.063 11.54 311.983 11.9333 311.823 12.24C311.663 12.5467 311.43 12.7 311.123 12.7C310.843 12.7 310.623 12.6733 310.463 12.62C310.303 12.5667 310.05 12.54 309.703 12.54C309.303 12.54 308.943 12.7 308.623 13.02C308.303 13.3267 308.056 13.7333 307.883 14.24C307.71 14.7333 307.623 15.2667 307.623 15.84C307.623 16.4133 307.69 16.9 307.823 17.3C307.97 17.7 308.176 18.0067 308.443 18.22C308.71 18.4333 309.023 18.54 309.383 18.54C309.73 18.54 310.076 18.4267 310.423 18.2C310.77 17.9733 311.063 17.6533 311.303 17.24C311.543 16.8133 311.663 16.32 311.663 15.76ZM325.661 20.94C324.955 20.94 324.368 20.7933 323.901 20.5C323.435 20.1933 323.055 19.8 322.761 19.32C322.481 18.8267 322.275 18.3133 322.141 17.78C322.021 17.2333 321.961 16.72 321.961 16.24C321.961 15.4533 322.095 14.7067 322.361 14C322.641 13.2933 323.021 12.6667 323.501 12.12C323.995 11.56 324.561 11.1267 325.201 10.82C325.841 10.5 326.528 10.34 327.261 10.34C327.475 10.34 327.741 10.3733 328.061 10.44C328.381 10.5067 328.708 10.6067 329.041 10.74C329.388 10.8733 329.688 11.0467 329.941 11.26C330.221 11.4867 330.448 11.7533 330.621 12.06C330.808 12.3667 330.901 12.66 330.901 12.94C330.901 13.3 330.795 13.58 330.581 13.78C330.381 13.9667 330.168 14.06 329.941 14.06C329.821 14.06 329.708 14.04 329.601 14C329.508 13.96 329.428 13.9 329.361 13.82C329.121 13.5267 328.881 13.2933 328.641 13.12C328.415 12.9467 328.088 12.86 327.661 12.86C327.315 12.86 326.968 12.96 326.621 13.16C326.275 13.36 325.981 13.6933 325.741 14.16C325.501 14.6133 325.381 15.2133 325.381 15.96C325.381 16.4267 325.448 16.8333 325.581 17.18C325.728 17.5133 325.908 17.7733 326.121 17.96C326.335 18.1333 326.548 18.22 326.761 18.22C327.015 18.22 327.255 18.1533 327.481 18.02C327.708 17.8867 327.901 17.7333 328.061 17.56C328.235 17.3733 328.355 17.22 328.421 17.1C328.528 16.8867 328.628 16.7467 328.721 16.68C328.815 16.6133 328.921 16.58 329.041 16.58C329.508 16.58 329.828 16.6933 330.001 16.92C330.175 17.1467 330.261 17.3733 330.261 17.6C330.261 17.76 330.181 17.9333 330.021 18.12C329.861 18.2933 329.588 18.5933 329.201 19.02C328.708 19.5667 328.168 20.0267 327.581 20.4C326.995 20.76 326.355 20.94 325.661 20.94ZM330.841 21.16C330.321 21.16 329.921 21.06 329.641 20.86C329.361 20.66 329.195 20.3467 329.141 19.92C329.021 18.7733 328.935 17.7067 328.881 16.72C328.841 15.72 328.821 14.7 328.821 13.66C328.821 12.2733 328.861 10.9533 328.941 9.7C329.035 8.43333 329.141 7.22667 329.261 6.08C329.315 5.68 329.488 5.40667 329.781 5.26C330.075 5.11333 330.475 5.04 330.981 5.04C331.195 5.04 331.435 5.08667 331.701 5.18C331.968 5.27333 332.188 5.43333 332.361 5.66C332.548 5.87333 332.608 6.18 332.541 6.58C332.515 6.72667 332.481 7.02 332.441 7.46C332.415 7.88667 332.381 8.39333 332.341 8.98C332.315 9.55333 332.288 10.1467 332.261 10.76C332.235 11.3733 332.208 11.9467 332.181 12.48C332.168 13 332.161 13.42 332.161 13.74C332.161 14.8333 332.188 15.9133 332.241 16.98C332.295 18.0333 332.355 18.9933 332.421 19.86C332.475 20.3267 332.335 20.66 332.001 20.86C331.681 21.06 331.295 21.16 330.841 21.16ZM334.815 11.28C334.882 10.8933 335.042 10.6133 335.295 10.44C335.548 10.2533 335.842 10.16 336.175 10.16C336.748 10.16 337.202 10.2667 337.535 10.48C337.882 10.6933 338.022 11.0267 337.955 11.48C337.875 12.0267 337.802 12.6733 337.735 13.42C337.682 14.1667 337.628 14.9467 337.575 15.76C337.535 16.56 337.508 17.3267 337.495 18.06C337.495 18.7933 337.502 19.42 337.515 19.94C337.542 20.4067 337.368 20.74 336.995 20.94C336.635 21.1267 336.202 21.22 335.695 21.22C335.242 21.22 334.902 21.1067 334.675 20.88C334.462 20.64 334.355 20.26 334.355 19.74C334.355 18.86 334.368 17.9733 334.395 17.08C334.435 16.1733 334.482 15.3267 334.535 14.54C334.588 13.7533 334.642 13.0733 334.695 12.5C334.748 11.9267 334.788 11.52 334.815 11.28ZM334.795 6.4C334.795 6.16 334.875 5.94 335.035 5.74C335.208 5.54 335.422 5.37333 335.675 5.24C335.928 5.10667 336.195 5.04 336.475 5.04C337.008 5.04 337.455 5.22 337.815 5.58C338.175 5.94 338.355 6.36667 338.355 6.86C338.355 7.28667 338.175 7.64667 337.815 7.94C337.455 8.23333 336.995 8.38 336.435 8.38C335.955 8.38 335.562 8.19333 335.255 7.82C334.948 7.43333 334.795 6.96 334.795 6.4ZM340.117 11.3C340.063 10.8733 340.223 10.5533 340.597 10.34C340.97 10.1267 341.443 10.02 342.017 10.02C342.257 10.02 342.45 10.0933 342.597 10.24C342.757 10.3867 342.87 10.6133 342.937 10.92C343.017 11.2267 343.057 11.6467 343.057 12.18C343.403 11.66 343.763 11.2467 344.137 10.94C344.51 10.6333 344.91 10.4133 345.337 10.28C345.763 10.1333 346.203 10.06 346.657 10.06C347.123 10.06 347.55 10.1467 347.937 10.32C348.337 10.4933 348.677 10.7467 348.957 11.08C349.25 11.4 349.47 11.7933 349.617 12.26C350.07 11.4333 350.597 10.8267 351.197 10.44C351.81 10.04 352.443 9.84 353.097 9.84C353.723 9.84 354.29 10.06 354.797 10.5C355.303 10.94 355.703 11.5533 355.997 12.34C356.29 13.1133 356.437 14.02 356.437 15.06C356.437 15.94 356.41 16.8133 356.357 17.68C356.317 18.5467 356.303 19.2867 356.317 19.9C356.317 20.2867 356.163 20.5667 355.857 20.74C355.563 20.9133 355.183 21 354.717 21C354.25 21 353.863 20.9133 353.557 20.74C353.25 20.5667 353.097 20.2867 353.097 19.9C353.097 19.3667 353.117 18.6867 353.157 17.86C353.21 17.02 353.237 16.1067 353.237 15.12C353.237 14.7067 353.197 14.32 353.117 13.96C353.05 13.6 352.937 13.32 352.777 13.12C352.63 12.9067 352.457 12.8 352.257 12.8C351.737 12.8 351.297 13 350.937 13.4C350.577 13.8 350.283 14.3 350.057 14.9C350.043 15.74 350.017 16.5467 349.977 17.32C349.937 18.08 349.89 18.72 349.837 19.24C349.797 19.8133 349.663 20.2533 349.437 20.56C349.21 20.8667 348.863 21.02 348.397 21.02C347.743 21.02 347.283 20.9267 347.017 20.74C346.75 20.5533 346.617 20.32 346.617 20.04C346.617 19.8533 346.623 19.5867 346.637 19.24C346.663 18.88 346.683 18.48 346.697 18.04C346.723 17.5867 346.743 17.1333 346.757 16.68C346.783 16.2267 346.797 15.8133 346.797 15.44C346.797 15.0533 346.783 14.7467 346.757 14.52C346.717 14.16 346.663 13.8667 346.597 13.64C346.53 13.4 346.45 13.22 346.357 13.1C346.263 12.9667 346.15 12.9 346.017 12.9C345.643 12.9 345.297 13.0133 344.977 13.24C344.657 13.4533 344.37 13.7467 344.117 14.12C343.877 14.4933 343.67 14.9067 343.497 15.36V18.8C343.497 19.6667 343.337 20.2867 343.017 20.66C342.697 21.02 342.203 21.2 341.537 21.2C341.177 21.2 340.89 21.14 340.677 21.02C340.477 20.9 340.33 20.6933 340.237 20.4C340.157 20.0933 340.117 19.68 340.117 19.16C340.13 18.6267 340.17 17.9467 340.237 17.12C340.25 17.0267 340.257 16.94 340.257 16.86C340.257 16.78 340.257 16.64 340.257 16.44C340.257 16.2267 340.257 15.8933 340.257 15.44C340.257 14.4533 340.243 13.6133 340.217 12.92C340.19 12.2267 340.157 11.6867 340.117 11.3ZM363.131 21.2C362.344 21.2 361.637 21.0667 361.011 20.8C360.397 20.52 359.877 20.1467 359.451 19.68C359.024 19.2 358.697 18.64 358.471 18C358.244 17.3467 358.131 16.6467 358.131 15.9C358.131 15.18 358.264 14.48 358.531 13.8C358.797 13.1067 359.171 12.4867 359.651 11.94C360.144 11.3933 360.717 10.96 361.371 10.64C362.024 10.32 362.744 10.16 363.531 10.16C364.197 10.16 364.784 10.2733 365.291 10.5C365.797 10.7267 366.184 11.0533 366.451 11.48C366.731 11.8933 366.871 12.3933 366.871 12.98C366.871 13.4733 366.764 13.9667 366.551 14.46C366.337 14.9533 365.997 15.4133 365.531 15.84C365.077 16.2533 364.471 16.6 363.711 16.88C362.964 17.1467 362.044 17.2867 360.951 17.3L360.931 15.12C361.464 15.1467 361.951 15.0733 362.391 14.9C362.844 14.7133 363.211 14.46 363.491 14.14C363.784 13.8067 363.931 13.44 363.931 13.04C363.931 12.8267 363.871 12.6533 363.751 12.52C363.644 12.3867 363.484 12.32 363.271 12.32C363.031 12.32 362.791 12.3933 362.551 12.54C362.324 12.6733 362.117 12.88 361.931 13.16C361.757 13.4267 361.611 13.78 361.491 14.22C361.384 14.6467 361.331 15.1533 361.331 15.74C361.331 16.5133 361.431 17.1067 361.631 17.52C361.831 17.9333 362.091 18.2267 362.411 18.4C362.731 18.56 363.084 18.64 363.471 18.64C363.991 18.64 364.457 18.5467 364.871 18.36C365.297 18.16 365.664 17.8667 365.971 17.48C366.117 17.28 366.264 17.1267 366.411 17.02C366.557 16.9 366.717 16.84 366.891 16.84C367.197 16.84 367.464 16.9867 367.691 17.28C367.917 17.56 368.031 17.88 368.031 18.24C368.031 18.4133 367.977 18.6 367.871 18.8C367.764 19 367.571 19.24 367.291 19.52C366.757 20.0667 366.137 20.4867 365.431 20.78C364.724 21.06 363.957 21.2 363.131 21.2ZM370.01 10.96C369.997 10.6667 370.137 10.4067 370.43 10.18C370.737 9.94 371.203 9.82 371.83 9.82C372.137 9.82 372.383 9.88 372.57 10C372.77 10.1067 372.917 10.3267 373.01 10.66C373.117 10.9933 373.177 11.5 373.19 12.18C373.51 11.4467 373.91 10.88 374.39 10.48C374.883 10.08 375.49 9.88 376.21 9.88C376.89 9.88 377.517 10.0467 378.09 10.38C378.663 10.7133 379.123 11.2267 379.47 11.92C379.83 12.6 380.01 13.48 380.01 14.56C380.01 15.08 379.99 15.6533 379.95 16.28C379.91 16.9067 379.863 17.5333 379.81 18.16C379.77 18.7733 379.75 19.3533 379.75 19.9C379.75 20.3133 379.577 20.6333 379.23 20.86C378.883 21.0867 378.43 21.2 377.87 21.2C377.31 21.2 376.91 21.1133 376.67 20.94C376.443 20.7533 376.33 20.4467 376.33 20.02C376.33 19.8333 376.343 19.5667 376.37 19.22C376.41 18.86 376.443 18.46 376.47 18.02C376.51 17.5667 376.543 17.1 376.57 16.62C376.597 16.1267 376.61 15.6533 376.61 15.2C376.61 14.5467 376.55 14.0533 376.43 13.72C376.31 13.3733 376.15 13.14 375.95 13.02C375.763 12.9 375.55 12.84 375.31 12.84C375.11 12.84 374.91 12.94 374.71 13.14C374.523 13.3267 374.343 13.58 374.17 13.9C374.01 14.22 373.87 14.56 373.75 14.92C373.643 15.28 373.557 15.6267 373.49 15.96C373.357 16.8267 373.25 17.5267 373.17 18.06C373.09 18.5933 373.023 19.02 372.97 19.34C372.93 19.6467 372.897 19.9 372.87 20.1C372.817 20.5133 372.657 20.7933 372.39 20.94C372.137 21.0733 371.763 21.14 371.27 21.14C370.883 21.14 370.55 21.0933 370.27 21C369.99 20.9067 369.79 20.7333 369.67 20.48C369.55 20.2267 369.53 19.8667 369.61 19.4C369.703 18.88 369.783 18.2867 369.85 17.62C369.93 16.9533 369.99 16.26 370.03 15.54C370.07 14.8067 370.09 14.1 370.09 13.42C370.09 13.0067 370.083 12.66 370.07 12.38C370.07 12.0867 370.063 11.8267 370.05 11.6C370.05 11.3733 370.037 11.16 370.01 10.96ZM390.127 12.18C390.127 12.4733 390.007 12.7333 389.767 12.96C389.54 13.1733 389.22 13.28 388.807 13.28C388.62 13.28 388.44 13.2467 388.267 13.18C388.107 13.1133 387.967 13.04 387.847 12.96C387.567 12.7867 387.294 12.6267 387.027 12.48C386.774 12.32 386.474 12.24 386.127 12.24C385.86 12.24 385.64 12.3 385.467 12.42C385.294 12.5267 385.207 12.6867 385.207 12.9C385.207 13.0333 385.254 13.1667 385.347 13.3C385.44 13.42 385.647 13.5733 385.967 13.76C386.3 13.9467 386.814 14.2133 387.507 14.56C388.254 14.92 388.834 15.3733 389.247 15.92C389.674 16.4533 389.887 17.18 389.887 18.1C389.887 18.66 389.714 19.1867 389.367 19.68C389.034 20.1733 388.534 20.58 387.867 20.9C387.214 21.22 386.394 21.38 385.407 21.38C384.954 21.38 384.487 21.3067 384.007 21.16C383.54 21.0267 383.107 20.8467 382.707 20.62C382.32 20.38 382 20.1133 381.747 19.82C381.507 19.5267 381.387 19.2267 381.387 18.92C381.387 18.5333 381.487 18.2267 381.687 18C381.887 17.76 382.127 17.64 382.407 17.64C382.554 17.64 382.7 17.68 382.847 17.76C383.007 17.84 383.174 17.94 383.347 18.06C383.494 18.1533 383.687 18.2667 383.927 18.4C384.18 18.5333 384.447 18.6533 384.727 18.76C385.02 18.8533 385.28 18.9 385.507 18.9C385.84 18.9 386.1 18.82 386.287 18.66C386.474 18.5 386.567 18.3067 386.567 18.08C386.567 17.92 386.494 17.76 386.347 17.6C386.2 17.44 385.947 17.2733 385.587 17.1C384.307 16.5 383.38 15.9067 382.807 15.32C382.247 14.7333 381.967 14.04 381.967 13.24C381.967 12.6533 382.127 12.1067 382.447 11.6C382.78 11.0933 383.254 10.6867 383.867 10.38C384.494 10.06 385.254 9.9 386.147 9.9C387.027 9.9 387.76 10.02 388.347 10.26C388.947 10.5 389.394 10.8 389.687 11.16C389.98 11.52 390.127 11.86 390.127 12.18ZM396.856 9.94C397.176 9.94 397.549 9.97333 397.976 10.04C398.402 10.1067 398.802 10.2 399.176 10.32C399.562 10.44 399.856 10.5867 400.056 10.76C400.696 11.2533 401.162 11.9 401.456 12.7C401.749 13.5 401.896 14.3533 401.896 15.26C401.896 15.9933 401.796 16.7133 401.596 17.42C401.396 18.1133 401.089 18.74 400.676 19.3C400.262 19.86 399.742 20.3067 399.116 20.64C398.489 20.9733 397.749 21.14 396.896 21.14C395.922 21.14 395.082 20.9933 394.376 20.7C393.669 20.4067 393.082 20 392.616 19.48C392.162 18.96 391.822 18.3667 391.596 17.7C391.382 17.0333 391.276 16.3267 391.276 15.58C391.276 14.86 391.382 14.1667 391.596 13.5C391.822 12.82 392.162 12.22 392.616 11.7C393.082 11.1667 393.662 10.74 394.356 10.42C395.062 10.1 395.896 9.94 396.856 9.94ZM394.616 15.48C394.616 15.9733 394.689 16.46 394.836 16.94C394.982 17.4067 395.216 17.7933 395.536 18.1C395.856 18.4067 396.262 18.56 396.756 18.56C397.089 18.56 397.369 18.4667 397.596 18.28C397.836 18.08 398.022 17.8267 398.156 17.52C398.302 17.2 398.402 16.86 398.456 16.5C398.522 16.1267 398.556 15.7667 398.556 15.42C398.556 14.66 398.456 14.06 398.256 13.62C398.069 13.18 397.816 12.8467 397.496 12.62C397.349 12.58 397.216 12.5533 397.096 12.54C396.989 12.5133 396.869 12.5 396.736 12.5C396.349 12.5 396.016 12.5867 395.736 12.76C395.456 12.9333 395.236 13.16 395.076 13.44C394.916 13.72 394.796 14.0333 394.716 14.38C394.649 14.7267 394.616 15.0933 394.616 15.48ZM398.796 8.22C398.329 8.22 397.943 8.18 397.636 8.1C397.329 8.00667 397.063 7.9 396.836 7.78C396.623 7.66 396.423 7.56 396.236 7.48C396.049 7.38667 395.849 7.34 395.636 7.34C395.343 7.34 395.189 7.56 395.176 8C395.163 8.16 395.063 8.28667 394.876 8.38C394.689 8.47333 394.483 8.52 394.256 8.52C394.016 8.52 393.809 8.46 393.636 8.34C393.449 8.20667 393.356 8 393.356 7.72C393.383 6.88 393.596 6.2 393.996 5.68C394.383 5.14667 394.936 4.88 395.656 4.88C396.016 4.88 396.323 4.92667 396.576 5.02C396.843 5.1 397.076 5.2 397.276 5.32C397.489 5.44 397.696 5.54667 397.896 5.64C398.109 5.72 398.343 5.76 398.596 5.76C398.796 5.76 398.949 5.7 399.056 5.58C399.176 5.44667 399.269 5.26 399.336 5.02C399.376 4.83333 399.489 4.71333 399.676 4.66C399.876 4.60667 400.083 4.61333 400.296 4.68C400.523 4.73333 400.716 4.83333 400.876 4.98C401.036 5.12667 401.103 5.30667 401.076 5.52C400.943 6.4 400.656 7.07333 400.216 7.54C399.789 7.99333 399.316 8.22 398.796 8.22ZM408.35 21.08C407.43 21.08 406.643 20.9267 405.99 20.62C405.337 20.3133 404.797 19.9133 404.37 19.42C403.957 18.9133 403.65 18.3467 403.45 17.72C403.263 17.08 403.17 16.44 403.17 15.8C403.17 15.0933 403.303 14.4 403.57 13.72C403.85 13.0267 404.237 12.4 404.73 11.84C405.237 11.2667 405.83 10.8067 406.51 10.46C407.203 10.1133 407.97 9.94 408.81 9.94C409.557 9.94 410.177 10.06 410.67 10.3C411.177 10.5267 411.557 10.8533 411.81 11.28C412.077 11.7067 412.21 12.2133 412.21 12.8C412.21 13.4267 412.077 13.98 411.81 14.46C411.543 14.94 411.163 15.3467 410.67 15.68C410.07 16.08 409.43 16.38 408.75 16.58C408.07 16.7667 407.33 16.8867 406.53 16.94C406.65 17.22 406.803 17.48 406.99 17.72C407.177 17.9467 407.403 18.1333 407.67 18.28C407.95 18.4267 408.277 18.5 408.65 18.5C409.117 18.5 409.537 18.3867 409.91 18.16C410.283 17.92 410.61 17.6467 410.89 17.34C411.05 17.1667 411.19 17.06 411.31 17.02C411.43 16.9667 411.537 16.94 411.63 16.94C411.817 16.94 412.003 17.0067 412.19 17.14C412.377 17.2733 412.543 17.4333 412.69 17.62C412.85 17.8067 412.943 18 412.97 18.2C413.023 18.3867 413.003 18.5733 412.91 18.76C412.83 18.9467 412.743 19.0867 412.65 19.18C412.157 19.7133 411.537 20.1667 410.79 20.54C410.057 20.9 409.243 21.08 408.35 21.08ZM406.39 14.76C406.75 14.7333 407.043 14.7 407.27 14.66C407.51 14.6067 407.79 14.5133 408.11 14.38C408.43 14.26 408.703 14.0733 408.93 13.82C409.157 13.5667 409.27 13.2667 409.27 12.92C409.27 12.7867 409.237 12.6667 409.17 12.56C409.117 12.4533 409.03 12.3667 408.91 12.3C408.79 12.2333 408.637 12.2 408.45 12.2C408.197 12.2 407.95 12.2867 407.71 12.46C407.47 12.62 407.257 12.8333 407.07 13.1C406.897 13.3667 406.75 13.6467 406.63 13.94C406.51 14.2333 406.43 14.5067 406.39 14.76ZM422.05 11.14C422.157 11.2467 422.243 11.3733 422.31 11.52C422.39 11.6667 422.43 11.8267 422.43 12C422.43 12.1733 422.363 12.3733 422.23 12.6C422.11 12.8133 421.95 13 421.75 13.16C421.563 13.32 421.357 13.4 421.13 13.4C420.93 13.4 420.77 13.3667 420.65 13.3C420.53 13.2333 420.417 13.1533 420.31 13.06C420.123 12.8733 419.883 12.6933 419.59 12.52C419.297 12.3467 418.977 12.26 418.63 12.26C418.403 12.26 418.197 12.32 418.01 12.44C417.823 12.5467 417.73 12.7067 417.73 12.92C417.73 13.1867 417.863 13.4067 418.13 13.58C418.41 13.7533 418.863 14.0067 419.49 14.34C420.01 14.62 420.47 14.9 420.87 15.18C421.283 15.46 421.603 15.8 421.83 16.2C422.07 16.5867 422.19 17.0933 422.19 17.72C422.19 18.3333 422.023 18.9 421.69 19.42C421.37 19.94 420.91 20.36 420.31 20.68C419.71 21 419.003 21.16 418.19 21.16C417.457 21.16 416.73 21.06 416.01 20.86C415.29 20.66 414.677 20.34 414.17 19.9C414.063 19.8067 413.963 19.7 413.87 19.58C413.79 19.4467 413.75 19.2733 413.75 19.06C413.75 18.7133 413.87 18.3933 414.11 18.1C414.35 17.7933 414.61 17.64 414.89 17.64C414.997 17.64 415.09 17.6533 415.17 17.68C415.25 17.7067 415.337 17.7533 415.43 17.82C415.857 18.1 416.263 18.3267 416.65 18.5C417.037 18.6733 417.457 18.76 417.91 18.76C418.23 18.76 418.47 18.7067 418.63 18.6C418.803 18.4933 418.89 18.3533 418.89 18.18C418.89 17.8867 418.75 17.6467 418.47 17.46C418.19 17.2733 417.817 17.0667 417.35 16.84C416.59 16.48 415.997 16.1267 415.57 15.78C415.143 15.42 414.837 15.0467 414.65 14.66C414.477 14.26 414.39 13.82 414.39 13.34C414.39 12.7 414.57 12.1267 414.93 11.62C415.303 11.1 415.803 10.6933 416.43 10.4C417.07 10.1067 417.79 9.96 418.59 9.96C419.217 9.96 419.857 10.06 420.51 10.26C421.163 10.4467 421.677 10.74 422.05 11.14Z" fill="#292929"/>
<circle cx="74" cy="108" r="69" fill="white" stroke="#A3A6D6" stroke-width="10"/>
<path d="M279 108C279 146.14 248.3 177 210.5 177C172.7 177 142 146.14 142 108C142 69.8603 172.7 39 210.5 39C248.3 39 279 69.8603 279 108Z" fill="white" stroke="#92D3CA" stroke-width="10"/>
<path d="M416 108C416 146.14 385.3 177 347.5 177C309.7 177 279 146.14 279 108C279 69.8603 309.7 39 347.5 39C385.3 39 416 69.8603 416 108Z" fill="white" stroke="#F29E4A" stroke-width="10"/>
<circle cx="484" cy="108" r="69" fill="white" stroke="#ED5E7E" stroke-width="10"/>
<path d="M48.4253 115L45.3316 104.919H45.2525C45.2642 105.159 45.2818 105.522 45.3052 106.009C45.3345 106.489 45.3609 107.002 45.3843 107.547C45.4077 108.092 45.4195 108.584 45.4195 109.023V115H42.9849V102.15H46.6939L49.7349 111.977H49.7876L53.0132 102.15H56.7222V115H54.1821V108.918C54.1821 108.514 54.188 108.048 54.1997 107.521C54.2173 106.993 54.2378 106.492 54.2612 106.018C54.2847 105.537 54.3023 105.177 54.314 104.937H54.2349L50.9214 115H48.4253ZM68.6841 110.069C68.6841 110.89 68.5728 111.616 68.3501 112.249C68.1333 112.882 67.814 113.418 67.3921 113.857C66.9761 114.291 66.4722 114.619 65.8804 114.842C65.2945 115.064 64.6323 115.176 63.8941 115.176C63.2027 115.176 62.5669 115.064 61.9868 114.842C61.4126 114.619 60.9116 114.291 60.4839 113.857C60.062 113.418 59.7339 112.882 59.4995 112.249C59.271 111.616 59.1568 110.89 59.1568 110.069C59.1568 108.979 59.3501 108.057 59.7368 107.301C60.1236 106.545 60.6743 105.971 61.3892 105.578C62.104 105.186 62.9566 104.989 63.9468 104.989C64.8667 104.989 65.6812 105.186 66.3902 105.578C67.105 105.971 67.6646 106.545 68.0689 107.301C68.479 108.057 68.6841 108.979 68.6841 110.069ZM61.8902 110.069C61.8902 110.714 61.9605 111.256 62.1011 111.695C62.2417 112.135 62.4614 112.466 62.7603 112.688C63.0591 112.911 63.4487 113.022 63.9292 113.022C64.4038 113.022 64.7876 112.911 65.0806 112.688C65.3794 112.466 65.5962 112.135 65.731 111.695C65.8716 111.256 65.9419 110.714 65.9419 110.069C65.9419 109.419 65.8716 108.88 65.731 108.452C65.5962 108.019 65.3794 107.693 65.0806 107.477C64.7818 107.26 64.3921 107.151 63.9116 107.151C63.2027 107.151 62.687 107.395 62.3648 107.881C62.0484 108.367 61.8902 109.097 61.8902 110.069ZM75.0386 113.04C75.3316 113.04 75.6157 113.011 75.8911 112.952C76.1724 112.894 76.4507 112.82 76.7261 112.732V114.728C76.439 114.856 76.0816 114.962 75.6538 115.044C75.232 115.132 74.7691 115.176 74.2652 115.176C73.6792 115.176 73.1519 115.082 72.6831 114.895C72.2202 114.701 71.854 114.37 71.5845 113.901C71.3208 113.427 71.189 112.768 71.189 111.924V107.187H69.9058V106.053L71.3823 105.156L72.1558 103.082H73.8696V105.174H76.6206V107.187H73.8696V111.924C73.8696 112.299 73.9751 112.58 74.1861 112.768C74.4029 112.949 74.687 113.04 75.0386 113.04ZM87.6509 110.069C87.6509 110.89 87.5396 111.616 87.3169 112.249C87.1001 112.882 86.7808 113.418 86.3589 113.857C85.9429 114.291 85.439 114.619 84.8472 114.842C84.2612 115.064 83.5991 115.176 82.8609 115.176C82.1695 115.176 81.5337 115.064 80.9536 114.842C80.3794 114.619 79.8784 114.291 79.4507 113.857C79.0288 113.418 78.7007 112.882 78.4663 112.249C78.2378 111.616 78.1236 110.89 78.1236 110.069C78.1236 108.979 78.3169 108.057 78.7036 107.301C79.0904 106.545 79.6411 105.971 80.356 105.578C81.0708 105.186 81.9234 104.989 82.9136 104.989C83.8335 104.989 84.648 105.186 85.357 105.578C86.0718 105.971 86.6314 106.545 87.0357 107.301C87.4458 108.057 87.6509 108.979 87.6509 110.069ZM80.857 110.069C80.857 110.714 80.9273 111.256 81.0679 111.695C81.2085 112.135 81.4282 112.466 81.7271 112.688C82.0259 112.911 82.4155 113.022 82.896 113.022C83.3706 113.022 83.7544 112.911 84.0474 112.688C84.3462 112.466 84.563 112.135 84.6978 111.695C84.8384 111.256 84.9087 110.714 84.9087 110.069C84.9087 109.419 84.8384 108.88 84.6978 108.452C84.563 108.019 84.3462 107.693 84.0474 107.477C83.7486 107.26 83.3589 107.151 82.8784 107.151C82.1695 107.151 81.6538 107.395 81.3316 107.881C81.0152 108.367 80.857 109.097 80.857 110.069ZM95.3501 104.989C95.4849 104.989 95.6402 104.998 95.8159 105.016C95.9976 105.027 96.1441 105.045 96.2554 105.068L96.0532 107.582C95.9654 107.553 95.8394 107.532 95.6753 107.521C95.5171 107.503 95.3794 107.494 95.2622 107.494C94.9165 107.494 94.5796 107.538 94.2515 107.626C93.9292 107.714 93.6392 107.857 93.3814 108.057C93.1236 108.25 92.9185 108.508 92.7661 108.83C92.6196 109.146 92.5464 109.536 92.5464 109.999V115H89.8657V105.174H91.896L92.2915 106.826H92.4234C92.6167 106.492 92.857 106.188 93.1441 105.912C93.437 105.631 93.7681 105.408 94.1372 105.244C94.5122 105.074 94.9165 104.989 95.3501 104.989ZM102.065 104.972C103.383 104.972 104.394 105.259 105.097 105.833C105.8 106.407 106.152 107.28 106.152 108.452V115H104.28L103.761 113.664H103.691C103.41 114.016 103.123 114.303 102.83 114.525C102.537 114.748 102.2 114.912 101.819 115.018C101.438 115.123 100.975 115.176 100.43 115.176C99.8501 115.176 99.3286 115.064 98.8657 114.842C98.4087 114.619 98.0484 114.279 97.7847 113.822C97.521 113.359 97.3892 112.773 97.3892 112.064C97.3892 111.021 97.7554 110.254 98.4878 109.762C99.2202 109.264 100.319 108.988 101.784 108.936L103.489 108.883V108.452C103.489 107.937 103.354 107.559 103.084 107.318C102.815 107.078 102.44 106.958 101.959 106.958C101.485 106.958 101.019 107.025 100.562 107.16C100.105 107.295 99.648 107.465 99.1909 107.67L98.3032 105.859C98.8247 105.584 99.4077 105.367 100.052 105.209C100.703 105.051 101.374 104.972 102.065 104.972ZM103.489 110.447L102.452 110.482C101.584 110.506 100.981 110.661 100.641 110.948C100.307 111.235 100.14 111.613 100.14 112.082C100.14 112.492 100.26 112.785 100.501 112.961C100.741 113.131 101.054 113.216 101.441 113.216C102.015 113.216 102.499 113.046 102.891 112.706C103.29 112.366 103.489 111.883 103.489 111.256V110.447Z" fill="#292929"/>
<path d="M175.282 104.233C174.761 104.233 174.298 104.336 173.894 104.541C173.495 104.74 173.158 105.03 172.883 105.411C172.613 105.792 172.408 106.252 172.268 106.791C172.127 107.33 172.057 107.937 172.057 108.61C172.057 109.519 172.168 110.295 172.391 110.939C172.619 111.578 172.971 112.067 173.445 112.407C173.92 112.741 174.532 112.908 175.282 112.908C175.804 112.908 176.325 112.85 176.847 112.732C177.374 112.615 177.945 112.448 178.561 112.231V114.517C177.992 114.751 177.433 114.918 176.882 115.018C176.331 115.123 175.713 115.176 175.027 115.176C173.703 115.176 172.613 114.903 171.758 114.358C170.908 113.808 170.278 113.04 169.868 112.056C169.458 111.065 169.253 109.911 169.253 108.593C169.253 107.62 169.385 106.729 169.648 105.921C169.912 105.112 170.299 104.412 170.809 103.82C171.318 103.229 171.948 102.771 172.698 102.449C173.448 102.127 174.31 101.966 175.282 101.966C175.921 101.966 176.56 102.048 177.198 102.212C177.843 102.37 178.458 102.59 179.044 102.871L178.165 105.086C177.685 104.857 177.201 104.658 176.715 104.488C176.229 104.318 175.751 104.233 175.282 104.233ZM190.021 110.069C190.021 110.89 189.91 111.616 189.688 112.249C189.471 112.882 189.151 113.418 188.729 113.857C188.313 114.291 187.81 114.619 187.218 114.842C186.632 115.064 185.97 115.176 185.231 115.176C184.54 115.176 183.904 115.064 183.324 114.842C182.75 114.619 182.249 114.291 181.821 113.857C181.399 113.418 181.071 112.882 180.837 112.249C180.608 111.616 180.494 110.89 180.494 110.069C180.494 108.979 180.688 108.057 181.074 107.301C181.461 106.545 182.012 105.971 182.727 105.578C183.441 105.186 184.294 104.989 185.284 104.989C186.204 104.989 187.019 105.186 187.728 105.578C188.442 105.971 189.002 106.545 189.406 107.301C189.816 108.057 190.021 108.979 190.021 110.069ZM183.228 110.069C183.228 110.714 183.298 111.256 183.438 111.695C183.579 112.135 183.799 112.466 184.098 112.688C184.396 112.911 184.786 113.022 185.267 113.022C185.741 113.022 186.125 112.911 186.418 112.688C186.717 112.466 186.934 112.135 187.068 111.695C187.209 111.256 187.279 110.714 187.279 110.069C187.279 109.419 187.209 108.88 187.068 108.452C186.934 108.019 186.717 107.693 186.418 107.477C186.119 107.26 185.729 107.151 185.249 107.151C184.54 107.151 184.024 107.395 183.702 107.881C183.386 108.367 183.228 109.097 183.228 110.069ZM195.11 119.324C193.739 119.324 192.69 119.084 191.964 118.604C191.243 118.129 190.883 117.461 190.883 116.6C190.883 116.008 191.067 115.513 191.437 115.114C191.806 114.716 192.348 114.432 193.062 114.262C192.787 114.145 192.547 113.954 192.342 113.69C192.137 113.421 192.034 113.137 192.034 112.838C192.034 112.463 192.143 112.152 192.359 111.906C192.576 111.654 192.89 111.408 193.3 111.168C192.784 110.945 192.374 110.588 192.069 110.096C191.771 109.604 191.621 109.023 191.621 108.355C191.621 107.641 191.776 107.034 192.087 106.536C192.403 106.032 192.86 105.648 193.458 105.385C194.062 105.121 194.794 104.989 195.655 104.989C195.837 104.989 196.048 105.001 196.288 105.024C196.528 105.048 196.748 105.074 196.947 105.104C197.152 105.133 197.29 105.156 197.36 105.174H200.788V106.536L199.25 106.932C199.391 107.148 199.496 107.38 199.566 107.626C199.637 107.872 199.672 108.133 199.672 108.408C199.672 109.463 199.303 110.286 198.564 110.878C197.832 111.464 196.812 111.757 195.506 111.757C195.195 111.739 194.902 111.716 194.627 111.687C194.492 111.792 194.39 111.903 194.319 112.021C194.249 112.138 194.214 112.261 194.214 112.39C194.214 112.519 194.267 112.627 194.372 112.715C194.483 112.797 194.647 112.861 194.864 112.908C195.087 112.949 195.362 112.97 195.69 112.97H197.36C198.438 112.97 199.259 113.201 199.821 113.664C200.39 114.127 200.674 114.807 200.674 115.703C200.674 116.852 200.193 117.742 199.232 118.375C198.277 119.008 196.903 119.324 195.11 119.324ZM195.225 117.575C195.863 117.575 196.411 117.514 196.868 117.391C197.331 117.273 197.686 117.104 197.932 116.881C198.178 116.664 198.301 116.403 198.301 116.099C198.301 115.853 198.228 115.656 198.081 115.51C197.94 115.369 197.724 115.27 197.431 115.211C197.144 115.152 196.774 115.123 196.323 115.123H194.935C194.606 115.123 194.311 115.176 194.047 115.281C193.789 115.387 193.584 115.533 193.432 115.721C193.279 115.914 193.203 116.137 193.203 116.389C193.203 116.758 193.379 117.048 193.73 117.259C194.088 117.47 194.586 117.575 195.225 117.575ZM195.655 110.122C196.159 110.122 196.528 109.967 196.763 109.656C196.997 109.346 197.114 108.924 197.114 108.391C197.114 107.799 196.991 107.356 196.745 107.063C196.505 106.765 196.142 106.615 195.655 106.615C195.163 106.615 194.794 106.765 194.548 107.063C194.302 107.356 194.179 107.799 194.179 108.391C194.179 108.924 194.299 109.346 194.539 109.656C194.785 109.967 195.157 110.122 195.655 110.122ZM207.995 104.989C209.044 104.989 209.888 105.276 210.526 105.851C211.165 106.419 211.484 107.333 211.484 108.593V115H208.804V109.261C208.804 108.558 208.675 108.027 208.417 107.67C208.165 107.312 207.767 107.134 207.222 107.134C206.401 107.134 205.842 107.412 205.543 107.969C205.244 108.525 205.095 109.328 205.095 110.377V115H202.414V105.174H204.462L204.822 106.431H204.972C205.183 106.091 205.443 105.815 205.754 105.604C206.07 105.394 206.419 105.238 206.8 105.139C207.187 105.039 207.585 104.989 207.995 104.989ZM216.925 105.174V115H214.244V105.174H216.925ZM215.589 101.324C215.987 101.324 216.33 101.418 216.617 101.605C216.904 101.787 217.048 102.13 217.048 102.634C217.048 103.132 216.904 103.478 216.617 103.671C216.33 103.858 215.987 103.952 215.589 103.952C215.185 103.952 214.839 103.858 214.552 103.671C214.271 103.478 214.13 103.132 214.13 102.634C214.13 102.13 214.271 101.787 214.552 101.605C214.839 101.418 215.185 101.324 215.589 101.324ZM223.886 113.04C224.179 113.04 224.463 113.011 224.738 112.952C225.02 112.894 225.298 112.82 225.573 112.732V114.728C225.286 114.856 224.929 114.962 224.501 115.044C224.079 115.132 223.616 115.176 223.112 115.176C222.526 115.176 221.999 115.082 221.53 114.895C221.067 114.701 220.701 114.37 220.432 113.901C220.168 113.427 220.036 112.768 220.036 111.924V107.187H218.753V106.053L220.229 105.156L221.003 103.082H222.717V105.174H225.468V107.187H222.717V111.924C222.717 112.299 222.822 112.58 223.033 112.768C223.25 112.949 223.534 113.04 223.886 113.04ZM230.249 105.174V115H227.568V105.174H230.249ZM228.913 101.324C229.312 101.324 229.654 101.418 229.941 101.605C230.229 101.787 230.372 102.13 230.372 102.634C230.372 103.132 230.229 103.478 229.941 103.671C229.654 103.858 229.312 103.952 228.913 103.952C228.509 103.952 228.163 103.858 227.876 103.671C227.595 103.478 227.454 103.132 227.454 102.634C227.454 102.13 227.595 101.787 227.876 101.605C228.163 101.418 228.509 101.324 228.913 101.324ZM235.408 115L231.664 105.174H234.468L236.366 110.772C236.472 111.101 236.554 111.446 236.612 111.81C236.677 112.173 236.721 112.498 236.744 112.785H236.814C236.832 112.475 236.873 112.144 236.938 111.792C237.008 111.44 237.099 111.101 237.21 110.772L239.1 105.174H241.903L238.159 115H235.408ZM247.344 104.972C248.662 104.972 249.673 105.259 250.376 105.833C251.079 106.407 251.431 107.28 251.431 108.452V115H249.559L249.04 113.664H248.97C248.688 114.016 248.401 114.303 248.108 114.525C247.815 114.748 247.479 114.912 247.098 115.018C246.717 115.123 246.254 115.176 245.709 115.176C245.129 115.176 244.607 115.064 244.145 114.842C243.688 114.619 243.327 114.279 243.063 113.822C242.8 113.359 242.668 112.773 242.668 112.064C242.668 111.021 243.034 110.254 243.767 109.762C244.499 109.264 245.598 108.988 247.062 108.936L248.768 108.883V108.452C248.768 107.937 248.633 107.559 248.363 107.318C248.094 107.078 247.719 106.958 247.238 106.958C246.764 106.958 246.298 107.025 245.841 107.16C245.384 107.295 244.927 107.465 244.47 107.67L243.582 105.859C244.104 105.584 244.687 105.367 245.331 105.209C245.981 105.051 246.652 104.972 247.344 104.972ZM248.768 110.447L247.73 110.482C246.863 110.506 246.26 110.661 245.92 110.948C245.586 111.235 245.419 111.613 245.419 112.082C245.419 112.492 245.539 112.785 245.779 112.961C246.02 113.131 246.333 113.216 246.72 113.216C247.294 113.216 247.777 113.046 248.17 112.706C248.568 112.366 248.768 111.883 248.768 111.256V110.447Z" fill="#292929"/>
<path d="M299.67 115V102.15H302.395V112.75H307.606V115H299.67ZM312.317 105.174V115H309.637V105.174H312.317ZM310.981 101.324C311.38 101.324 311.723 101.418 312.01 101.605C312.297 101.787 312.44 102.13 312.44 102.634C312.44 103.132 312.297 103.478 312.01 103.671C311.723 103.858 311.38 103.952 310.981 103.952C310.577 103.952 310.231 103.858 309.944 103.671C309.663 103.478 309.522 103.132 309.522 102.634C309.522 102.13 309.663 101.787 309.944 101.605C310.231 101.418 310.577 101.324 310.981 101.324ZM320.72 104.989C321.769 104.989 322.612 105.276 323.251 105.851C323.89 106.419 324.209 107.333 324.209 108.593V115H321.528V109.261C321.528 108.558 321.399 108.027 321.142 107.67C320.89 107.312 320.491 107.134 319.946 107.134C319.126 107.134 318.566 107.412 318.268 107.969C317.969 108.525 317.819 109.328 317.819 110.377V115H315.139V105.174H317.187L317.547 106.431H317.696C317.907 106.091 318.168 105.815 318.479 105.604C318.795 105.394 319.144 105.238 319.524 105.139C319.911 105.039 320.31 104.989 320.72 104.989ZM329.843 119.324C328.472 119.324 327.423 119.084 326.696 118.604C325.976 118.129 325.615 117.461 325.615 116.6C325.615 116.008 325.8 115.513 326.169 115.114C326.538 114.716 327.08 114.432 327.795 114.262C327.52 114.145 327.279 113.954 327.074 113.69C326.869 113.421 326.767 113.137 326.767 112.838C326.767 112.463 326.875 112.152 327.092 111.906C327.309 111.654 327.622 111.408 328.032 111.168C327.517 110.945 327.106 110.588 326.802 110.096C326.503 109.604 326.354 109.023 326.354 108.355C326.354 107.641 326.509 107.034 326.819 106.536C327.136 106.032 327.593 105.648 328.19 105.385C328.794 105.121 329.526 104.989 330.388 104.989C330.569 104.989 330.78 105.001 331.021 105.024C331.261 105.048 331.48 105.074 331.68 105.104C331.885 105.133 332.022 105.156 332.093 105.174H335.521V106.536L333.982 106.932C334.123 107.148 334.229 107.38 334.299 107.626C334.369 107.872 334.404 108.133 334.404 108.408C334.404 109.463 334.035 110.286 333.297 110.878C332.564 111.464 331.545 111.757 330.238 111.757C329.928 111.739 329.635 111.716 329.359 111.687C329.225 111.792 329.122 111.903 329.052 112.021C328.981 112.138 328.946 112.261 328.946 112.39C328.946 112.519 328.999 112.627 329.104 112.715C329.216 112.797 329.38 112.861 329.597 112.908C329.819 112.949 330.095 112.97 330.423 112.97H332.093C333.171 112.97 333.991 113.201 334.554 113.664C335.122 114.127 335.406 114.807 335.406 115.703C335.406 116.852 334.926 117.742 333.965 118.375C333.01 119.008 331.636 119.324 329.843 119.324ZM329.957 117.575C330.596 117.575 331.144 117.514 331.601 117.391C332.063 117.273 332.418 117.104 332.664 116.881C332.91 116.664 333.033 116.403 333.033 116.099C333.033 115.853 332.96 115.656 332.813 115.51C332.673 115.369 332.456 115.27 332.163 115.211C331.876 115.152 331.507 115.123 331.056 115.123H329.667C329.339 115.123 329.043 115.176 328.779 115.281C328.521 115.387 328.316 115.533 328.164 115.721C328.012 115.914 327.936 116.137 327.936 116.389C327.936 116.758 328.111 117.048 328.463 117.259C328.82 117.47 329.318 117.575 329.957 117.575ZM330.388 110.122C330.892 110.122 331.261 109.967 331.495 109.656C331.729 109.346 331.847 108.924 331.847 108.391C331.847 107.799 331.724 107.356 331.478 107.063C331.237 106.765 330.874 106.615 330.388 106.615C329.896 106.615 329.526 106.765 329.28 107.063C329.034 107.356 328.911 107.799 328.911 108.391C328.911 108.924 329.031 109.346 329.271 109.656C329.518 109.967 329.89 110.122 330.388 110.122ZM346.164 105.174V115H344.107L343.747 113.743H343.606C343.396 114.077 343.132 114.35 342.815 114.561C342.499 114.771 342.15 114.927 341.77 115.026C341.389 115.126 340.993 115.176 340.583 115.176C339.88 115.176 339.268 115.053 338.746 114.807C338.225 114.555 337.817 114.165 337.524 113.638C337.237 113.11 337.094 112.425 337.094 111.581V105.174H339.774V110.913C339.774 111.616 339.9 112.146 340.152 112.504C340.404 112.861 340.806 113.04 341.356 113.04C341.901 113.04 342.329 112.917 342.64 112.671C342.95 112.419 343.167 112.053 343.29 111.572C343.419 111.086 343.483 110.494 343.483 109.797V105.174H346.164ZM353.002 104.972C354.32 104.972 355.331 105.259 356.034 105.833C356.737 106.407 357.089 107.28 357.089 108.452V115H355.217L354.698 113.664H354.628C354.347 114.016 354.06 114.303 353.767 114.525C353.474 114.748 353.137 114.912 352.756 115.018C352.375 115.123 351.912 115.176 351.367 115.176C350.787 115.176 350.266 115.064 349.803 114.842C349.346 114.619 348.985 114.279 348.722 113.822C348.458 113.359 348.326 112.773 348.326 112.064C348.326 111.021 348.692 110.254 349.425 109.762C350.157 109.264 351.256 108.988 352.721 108.936L354.426 108.883V108.452C354.426 107.937 354.291 107.559 354.021 107.318C353.752 107.078 353.377 106.958 352.896 106.958C352.422 106.958 351.956 107.025 351.499 107.16C351.042 107.295 350.585 107.465 350.128 107.67L349.24 105.859C349.762 105.584 350.345 105.367 350.989 105.209C351.64 105.051 352.311 104.972 353.002 104.972ZM354.426 110.447L353.389 110.482C352.521 110.506 351.918 110.661 351.578 110.948C351.244 111.235 351.077 111.613 351.077 112.082C351.077 112.492 351.197 112.785 351.438 112.961C351.678 113.131 351.991 113.216 352.378 113.216C352.952 113.216 353.436 113.046 353.828 112.706C354.227 112.366 354.426 111.883 354.426 111.256V110.447ZM362.731 119.324C361.36 119.324 360.312 119.084 359.585 118.604C358.864 118.129 358.504 117.461 358.504 116.6C358.504 116.008 358.688 115.513 359.058 115.114C359.427 114.716 359.969 114.432 360.684 114.262C360.408 114.145 360.168 113.954 359.963 113.69C359.758 113.421 359.655 113.137 359.655 112.838C359.655 112.463 359.764 112.152 359.98 111.906C360.197 111.654 360.511 111.408 360.921 111.168C360.405 110.945 359.995 110.588 359.69 110.096C359.392 109.604 359.242 109.023 359.242 108.355C359.242 107.641 359.397 107.034 359.708 106.536C360.024 106.032 360.481 105.648 361.079 105.385C361.683 105.121 362.415 104.989 363.276 104.989C363.458 104.989 363.669 105.001 363.909 105.024C364.149 105.048 364.369 105.074 364.568 105.104C364.773 105.133 364.911 105.156 364.981 105.174H368.409V106.536L366.871 106.932C367.012 107.148 367.117 107.38 367.188 107.626C367.258 107.872 367.293 108.133 367.293 108.408C367.293 109.463 366.924 110.286 366.186 110.878C365.453 111.464 364.434 111.757 363.127 111.757C362.816 111.739 362.523 111.716 362.248 111.687C362.113 111.792 362.011 111.903 361.94 112.021C361.87 112.138 361.835 112.261 361.835 112.39C361.835 112.519 361.888 112.627 361.993 112.715C362.104 112.797 362.269 112.861 362.485 112.908C362.708 112.949 362.983 112.97 363.312 112.97H364.981C366.06 112.97 366.88 113.201 367.442 113.664C368.011 114.127 368.295 114.807 368.295 115.703C368.295 116.852 367.814 117.742 366.854 118.375C365.898 119.008 364.524 119.324 362.731 119.324ZM362.846 117.575C363.484 117.575 364.032 117.514 364.489 117.391C364.952 117.273 365.307 117.104 365.553 116.881C365.799 116.664 365.922 116.403 365.922 116.099C365.922 115.853 365.849 115.656 365.702 115.51C365.562 115.369 365.345 115.27 365.052 115.211C364.765 115.152 364.396 115.123 363.944 115.123H362.556C362.228 115.123 361.932 115.176 361.668 115.281C361.41 115.387 361.205 115.533 361.053 115.721C360.9 115.914 360.824 116.137 360.824 116.389C360.824 116.758 361 117.048 361.352 117.259C361.709 117.47 362.207 117.575 362.846 117.575ZM363.276 110.122C363.78 110.122 364.149 109.967 364.384 109.656C364.618 109.346 364.735 108.924 364.735 108.391C364.735 107.799 364.612 107.356 364.366 107.063C364.126 106.765 363.763 106.615 363.276 106.615C362.784 106.615 362.415 106.765 362.169 107.063C361.923 107.356 361.8 107.799 361.8 108.391C361.8 108.924 361.92 109.346 362.16 109.656C362.406 109.967 362.778 110.122 363.276 110.122ZM374.087 104.989C374.995 104.989 375.777 105.165 376.434 105.517C377.09 105.862 377.597 106.366 377.954 107.028C378.312 107.69 378.49 108.499 378.49 109.454V110.755H372.153C372.183 111.511 372.408 112.105 372.83 112.539C373.258 112.967 373.85 113.181 374.605 113.181C375.232 113.181 375.807 113.116 376.328 112.987C376.85 112.858 377.386 112.665 377.937 112.407V114.481C377.45 114.722 376.94 114.897 376.407 115.009C375.88 115.12 375.238 115.176 374.482 115.176C373.498 115.176 372.625 114.994 371.863 114.631C371.107 114.268 370.513 113.714 370.079 112.97C369.651 112.226 369.438 111.288 369.438 110.157C369.438 109.009 369.631 108.054 370.018 107.292C370.41 106.524 370.955 105.95 371.652 105.569C372.35 105.183 373.161 104.989 374.087 104.989ZM374.104 106.896C373.583 106.896 373.149 107.063 372.804 107.397C372.464 107.731 372.268 108.256 372.215 108.971H375.977C375.971 108.572 375.897 108.218 375.757 107.907C375.622 107.597 375.417 107.351 375.142 107.169C374.872 106.987 374.526 106.896 374.104 106.896ZM392.21 104.989C393.323 104.989 394.164 105.276 394.732 105.851C395.307 106.419 395.594 107.333 395.594 108.593V115H392.904V109.261C392.904 108.558 392.784 108.027 392.544 107.67C392.304 107.312 391.932 107.134 391.428 107.134C390.719 107.134 390.215 107.389 389.916 107.898C389.617 108.402 389.468 109.126 389.468 110.069V115H386.787V109.261C386.787 108.792 386.734 108.399 386.629 108.083C386.523 107.767 386.362 107.529 386.146 107.371C385.929 107.213 385.65 107.134 385.311 107.134C384.812 107.134 384.42 107.26 384.133 107.512C383.852 107.758 383.649 108.124 383.526 108.61C383.409 109.091 383.351 109.68 383.351 110.377V115H380.67V105.174H382.718L383.078 106.431H383.228C383.427 106.091 383.676 105.815 383.975 105.604C384.279 105.394 384.613 105.238 384.977 105.139C385.34 105.039 385.709 104.989 386.084 104.989C386.805 104.989 387.414 105.106 387.912 105.341C388.416 105.575 388.803 105.938 389.072 106.431H389.31C389.603 105.927 390.016 105.561 390.549 105.332C391.088 105.104 391.642 104.989 392.21 104.989Z" fill="#292929"/>
<path d="M458.943 98.4316C458.943 99.1934 458.759 99.8555 458.39 100.418C458.021 100.98 457.481 101.414 456.772 101.719C456.069 102.023 455.214 102.176 454.206 102.176C453.761 102.176 453.324 102.146 452.896 102.088C452.475 102.029 452.067 101.944 451.675 101.833C451.288 101.716 450.919 101.572 450.567 101.402V98.8711C451.177 99.1406 451.81 99.3838 452.466 99.6006C453.122 99.8174 453.772 99.9258 454.417 99.9258C454.862 99.9258 455.22 99.8672 455.489 99.75C455.765 99.6328 455.964 99.4717 456.087 99.2666C456.21 99.0615 456.271 98.8271 456.271 98.5635C456.271 98.2412 456.163 97.9658 455.946 97.7373C455.729 97.5088 455.431 97.2949 455.05 97.0957C454.675 96.8965 454.25 96.6826 453.775 96.4541C453.477 96.3135 453.151 96.1436 452.8 95.9443C452.448 95.7393 452.114 95.4902 451.798 95.1973C451.481 94.9043 451.221 94.5498 451.016 94.1338C450.816 93.7119 450.717 93.208 450.717 92.6221C450.717 91.8545 450.893 91.1982 451.244 90.6533C451.596 90.1084 452.097 89.6924 452.747 89.4053C453.403 89.1123 454.177 88.9658 455.067 88.9658C455.735 88.9658 456.371 89.0449 456.975 89.2031C457.584 89.3555 458.22 89.5781 458.882 89.8711L458.003 91.9893C457.411 91.749 456.881 91.5645 456.412 91.4355C455.943 91.3008 455.466 91.2334 454.979 91.2334C454.64 91.2334 454.35 91.2891 454.109 91.4004C453.869 91.5059 453.688 91.6582 453.564 91.8574C453.441 92.0508 453.38 92.2764 453.38 92.5342C453.38 92.8389 453.468 93.0967 453.644 93.3076C453.825 93.5127 454.095 93.7119 454.452 93.9053C454.815 94.0986 455.267 94.3242 455.806 94.582C456.462 94.8926 457.021 95.2178 457.484 95.5576C457.953 95.8916 458.313 96.2871 458.565 96.7441C458.817 97.1953 458.943 97.7578 458.943 98.4316ZM469.991 97.0693C469.991 97.8896 469.88 98.6162 469.657 99.249C469.44 99.8818 469.121 100.418 468.699 100.857C468.283 101.291 467.779 101.619 467.188 101.842C466.602 102.064 465.939 102.176 465.201 102.176C464.51 102.176 463.874 102.064 463.294 101.842C462.72 101.619 462.219 101.291 461.791 100.857C461.369 100.418 461.041 99.8818 460.807 99.249C460.578 98.6162 460.464 97.8896 460.464 97.0693C460.464 95.9795 460.657 95.0566 461.044 94.3008C461.431 93.5449 461.981 92.9707 462.696 92.5781C463.411 92.1855 464.264 91.9893 465.254 91.9893C466.174 91.9893 466.988 92.1855 467.697 92.5781C468.412 92.9707 468.972 93.5449 469.376 94.3008C469.786 95.0566 469.991 95.9795 469.991 97.0693ZM463.197 97.0693C463.197 97.7139 463.268 98.2559 463.408 98.6953C463.549 99.1348 463.769 99.4658 464.067 99.6885C464.366 99.9111 464.756 100.022 465.236 100.022C465.711 100.022 466.095 99.9111 466.388 99.6885C466.687 99.4658 466.903 99.1348 467.038 98.6953C467.179 98.2559 467.249 97.7139 467.249 97.0693C467.249 96.4189 467.179 95.8799 467.038 95.4521C466.903 95.0186 466.687 94.6934 466.388 94.4766C466.089 94.2598 465.699 94.1514 465.219 94.1514C464.51 94.1514 463.994 94.3945 463.672 94.8809C463.355 95.3672 463.197 96.0967 463.197 97.0693ZM476.196 102.176C475.224 102.176 474.395 102 473.709 101.648C473.023 101.291 472.502 100.74 472.145 99.9961C471.787 99.252 471.608 98.2998 471.608 97.1396C471.608 95.9385 471.811 94.96 472.215 94.2041C472.625 93.4424 473.19 92.8828 473.911 92.5254C474.638 92.168 475.479 91.9893 476.434 91.9893C477.113 91.9893 477.699 92.0566 478.191 92.1914C478.689 92.3203 479.123 92.4756 479.492 92.6572L478.701 94.7314C478.279 94.5615 477.887 94.4238 477.523 94.3184C477.16 94.207 476.797 94.1514 476.434 94.1514C475.965 94.1514 475.575 94.2627 475.265 94.4854C474.954 94.7021 474.723 95.0303 474.57 95.4697C474.418 95.9092 474.342 96.46 474.342 97.1221C474.342 97.7725 474.424 98.3115 474.588 98.7393C474.752 99.167 474.989 99.4863 475.3 99.6973C475.61 99.9023 475.988 100.005 476.434 100.005C476.99 100.005 477.485 99.9316 477.919 99.7852C478.353 99.6328 478.774 99.4219 479.185 99.1523V101.446C478.774 101.704 478.344 101.889 477.893 102C477.447 102.117 476.882 102.176 476.196 102.176ZM484.15 92.1738V102H481.47V92.1738H484.15ZM482.814 88.3242C483.213 88.3242 483.556 88.418 483.843 88.6055C484.13 88.7871 484.273 89.1299 484.273 89.6338C484.273 90.1318 484.13 90.4775 483.843 90.6709C483.556 90.8584 483.213 90.9521 482.814 90.9521C482.41 90.9521 482.064 90.8584 481.777 90.6709C481.496 90.4775 481.355 90.1318 481.355 89.6338C481.355 89.1299 481.496 88.7871 481.777 88.6055C482.064 88.418 482.41 88.3242 482.814 88.3242ZM490.997 91.9717C492.315 91.9717 493.326 92.2588 494.029 92.833C494.732 93.4072 495.084 94.2803 495.084 95.4521V102H493.212L492.693 100.664H492.623C492.342 101.016 492.055 101.303 491.762 101.525C491.469 101.748 491.132 101.912 490.751 102.018C490.37 102.123 489.907 102.176 489.362 102.176C488.782 102.176 488.261 102.064 487.798 101.842C487.341 101.619 486.98 101.279 486.717 100.822C486.453 100.359 486.321 99.7734 486.321 99.0645C486.321 98.0215 486.688 97.2539 487.42 96.7617C488.152 96.2637 489.251 95.9883 490.716 95.9355L492.421 95.8828V95.4521C492.421 94.9365 492.286 94.5586 492.017 94.3184C491.747 94.0781 491.372 93.958 490.892 93.958C490.417 93.958 489.951 94.0254 489.494 94.1602C489.037 94.2949 488.58 94.4648 488.123 94.6699L487.235 92.8594C487.757 92.584 488.34 92.3672 488.984 92.209C489.635 92.0508 490.306 91.9717 490.997 91.9717ZM492.421 97.4473L491.384 97.4824C490.517 97.5059 489.913 97.6611 489.573 97.9482C489.239 98.2354 489.072 98.6133 489.072 99.082C489.072 99.4922 489.192 99.7852 489.433 99.9609C489.673 100.131 489.986 100.216 490.373 100.216C490.947 100.216 491.431 100.046 491.823 99.7061C492.222 99.3662 492.421 98.8828 492.421 98.2559V97.4473ZM500.533 102H497.853V88.3242H500.533V102ZM512.082 91.9893C512.99 91.9893 513.772 92.165 514.429 92.5166C515.085 92.8623 515.592 93.3662 515.949 94.0283C516.307 94.6904 516.485 95.499 516.485 96.4541V97.7549H510.148C510.178 98.5107 510.403 99.1055 510.825 99.5391C511.253 99.9668 511.845 100.181 512.601 100.181C513.228 100.181 513.802 100.116 514.323 99.9873C514.845 99.8584 515.381 99.665 515.932 99.4072V101.481C515.445 101.722 514.936 101.897 514.402 102.009C513.875 102.12 513.233 102.176 512.478 102.176C511.493 102.176 510.62 101.994 509.858 101.631C509.103 101.268 508.508 100.714 508.074 99.9697C507.646 99.2256 507.433 98.2881 507.433 97.1572C507.433 96.0088 507.626 95.0537 508.013 94.292C508.405 93.5244 508.95 92.9502 509.647 92.5693C510.345 92.1826 511.156 91.9893 512.082 91.9893ZM512.1 93.8965C511.578 93.8965 511.145 94.0635 510.799 94.3975C510.459 94.7314 510.263 95.2559 510.21 95.9707H513.972C513.966 95.5723 513.893 95.2178 513.752 94.9072C513.617 94.5967 513.412 94.3506 513.137 94.1689C512.867 93.9873 512.521 93.8965 512.1 93.8965ZM442.165 117.989C443.073 117.989 443.855 118.165 444.512 118.517C445.168 118.862 445.675 119.366 446.032 120.028C446.39 120.69 446.568 121.499 446.568 122.454V123.755H440.231C440.261 124.511 440.486 125.105 440.908 125.539C441.336 125.967 441.928 126.181 442.684 126.181C443.311 126.181 443.885 126.116 444.406 125.987C444.928 125.858 445.464 125.665 446.015 125.407V127.481C445.528 127.722 445.019 127.897 444.485 128.009C443.958 128.12 443.316 128.176 442.561 128.176C441.576 128.176 440.703 127.994 439.941 127.631C439.186 127.268 438.591 126.714 438.157 125.97C437.729 125.226 437.516 124.288 437.516 123.157C437.516 122.009 437.709 121.054 438.096 120.292C438.488 119.524 439.033 118.95 439.73 118.569C440.428 118.183 441.239 117.989 442.165 117.989ZM442.183 119.896C441.661 119.896 441.228 120.063 440.882 120.397C440.542 120.731 440.346 121.256 440.293 121.971H444.055C444.049 121.572 443.976 121.218 443.835 120.907C443.7 120.597 443.495 120.351 443.22 120.169C442.95 119.987 442.604 119.896 442.183 119.896ZM460.288 117.989C461.401 117.989 462.242 118.276 462.811 118.851C463.385 119.419 463.672 120.333 463.672 121.593V128H460.982V122.261C460.982 121.558 460.862 121.027 460.622 120.67C460.382 120.312 460.01 120.134 459.506 120.134C458.797 120.134 458.293 120.389 457.994 120.898C457.695 121.402 457.546 122.126 457.546 123.069V128H454.865V122.261C454.865 121.792 454.812 121.399 454.707 121.083C454.602 120.767 454.44 120.529 454.224 120.371C454.007 120.213 453.729 120.134 453.389 120.134C452.891 120.134 452.498 120.26 452.211 120.512C451.93 120.758 451.728 121.124 451.604 121.61C451.487 122.091 451.429 122.68 451.429 123.377V128H448.748V118.174H450.796L451.156 119.431H451.306C451.505 119.091 451.754 118.815 452.053 118.604C452.357 118.394 452.691 118.238 453.055 118.139C453.418 118.039 453.787 117.989 454.162 117.989C454.883 117.989 455.492 118.106 455.99 118.341C456.494 118.575 456.881 118.938 457.15 119.431H457.388C457.681 118.927 458.094 118.561 458.627 118.332C459.166 118.104 459.72 117.989 460.288 117.989ZM475.361 123.069C475.361 123.89 475.25 124.616 475.027 125.249C474.811 125.882 474.491 126.418 474.069 126.857C473.653 127.291 473.149 127.619 472.558 127.842C471.972 128.064 471.31 128.176 470.571 128.176C469.88 128.176 469.244 128.064 468.664 127.842C468.09 127.619 467.589 127.291 467.161 126.857C466.739 126.418 466.411 125.882 466.177 125.249C465.948 124.616 465.834 123.89 465.834 123.069C465.834 121.979 466.027 121.057 466.414 120.301C466.801 119.545 467.352 118.971 468.066 118.578C468.781 118.186 469.634 117.989 470.624 117.989C471.544 117.989 472.358 118.186 473.067 118.578C473.782 118.971 474.342 119.545 474.746 120.301C475.156 121.057 475.361 121.979 475.361 123.069ZM468.567 123.069C468.567 123.714 468.638 124.256 468.778 124.695C468.919 125.135 469.139 125.466 469.438 125.688C469.736 125.911 470.126 126.022 470.606 126.022C471.081 126.022 471.465 125.911 471.758 125.688C472.057 125.466 472.273 125.135 472.408 124.695C472.549 124.256 472.619 123.714 472.619 123.069C472.619 122.419 472.549 121.88 472.408 121.452C472.273 121.019 472.057 120.693 471.758 120.477C471.459 120.26 471.069 120.151 470.589 120.151C469.88 120.151 469.364 120.395 469.042 120.881C468.726 121.367 468.567 122.097 468.567 123.069ZM481.566 128.176C480.594 128.176 479.765 128 479.079 127.648C478.394 127.291 477.872 126.74 477.515 125.996C477.157 125.252 476.979 124.3 476.979 123.14C476.979 121.938 477.181 120.96 477.585 120.204C477.995 119.442 478.561 118.883 479.281 118.525C480.008 118.168 480.849 117.989 481.804 117.989C482.483 117.989 483.069 118.057 483.562 118.191C484.06 118.32 484.493 118.476 484.862 118.657L484.071 120.731C483.649 120.562 483.257 120.424 482.894 120.318C482.53 120.207 482.167 120.151 481.804 120.151C481.335 120.151 480.945 120.263 480.635 120.485C480.324 120.702 480.093 121.03 479.94 121.47C479.788 121.909 479.712 122.46 479.712 123.122C479.712 123.772 479.794 124.312 479.958 124.739C480.122 125.167 480.359 125.486 480.67 125.697C480.98 125.902 481.358 126.005 481.804 126.005C482.36 126.005 482.855 125.932 483.289 125.785C483.723 125.633 484.145 125.422 484.555 125.152V127.446C484.145 127.704 483.714 127.889 483.263 128C482.817 128.117 482.252 128.176 481.566 128.176ZM489.521 118.174V128H486.84V118.174H489.521ZM488.185 114.324C488.583 114.324 488.926 114.418 489.213 114.605C489.5 114.787 489.644 115.13 489.644 115.634C489.644 116.132 489.5 116.478 489.213 116.671C488.926 116.858 488.583 116.952 488.185 116.952C487.78 116.952 487.435 116.858 487.147 116.671C486.866 116.478 486.726 116.132 486.726 115.634C486.726 115.13 486.866 114.787 487.147 114.605C487.435 114.418 487.78 114.324 488.185 114.324ZM501.271 123.069C501.271 123.89 501.16 124.616 500.938 125.249C500.721 125.882 500.401 126.418 499.979 126.857C499.563 127.291 499.06 127.619 498.468 127.842C497.882 128.064 497.22 128.176 496.481 128.176C495.79 128.176 495.154 128.064 494.574 127.842C494 127.619 493.499 127.291 493.071 126.857C492.649 126.418 492.321 125.882 492.087 125.249C491.858 124.616 491.744 123.89 491.744 123.069C491.744 121.979 491.938 121.057 492.324 120.301C492.711 119.545 493.262 118.971 493.977 118.578C494.691 118.186 495.544 117.989 496.534 117.989C497.454 117.989 498.269 118.186 498.978 118.578C499.692 118.971 500.252 119.545 500.656 120.301C501.066 121.057 501.271 121.979 501.271 123.069ZM494.478 123.069C494.478 123.714 494.548 124.256 494.688 124.695C494.829 125.135 495.049 125.466 495.348 125.688C495.646 125.911 496.036 126.022 496.517 126.022C496.991 126.022 497.375 125.911 497.668 125.688C497.967 125.466 498.184 125.135 498.318 124.695C498.459 124.256 498.529 123.714 498.529 123.069C498.529 122.419 498.459 121.88 498.318 121.452C498.184 121.019 497.967 120.693 497.668 120.477C497.369 120.26 496.979 120.151 496.499 120.151C495.79 120.151 495.274 120.395 494.952 120.881C494.636 121.367 494.478 122.097 494.478 123.069ZM509.067 117.989C510.116 117.989 510.96 118.276 511.599 118.851C512.237 119.419 512.557 120.333 512.557 121.593V128H509.876V122.261C509.876 121.558 509.747 121.027 509.489 120.67C509.237 120.312 508.839 120.134 508.294 120.134C507.474 120.134 506.914 120.412 506.615 120.969C506.316 121.525 506.167 122.328 506.167 123.377V128H503.486V118.174H505.534L505.895 119.431H506.044C506.255 119.091 506.516 118.815 506.826 118.604C507.143 118.394 507.491 118.238 507.872 118.139C508.259 118.039 508.657 117.989 509.067 117.989ZM519.342 117.972C520.66 117.972 521.671 118.259 522.374 118.833C523.077 119.407 523.429 120.28 523.429 121.452V128H521.557L521.038 126.664H520.968C520.687 127.016 520.399 127.303 520.106 127.525C519.813 127.748 519.477 127.912 519.096 128.018C518.715 128.123 518.252 128.176 517.707 128.176C517.127 128.176 516.605 128.064 516.143 127.842C515.686 127.619 515.325 127.279 515.062 126.822C514.798 126.359 514.666 125.773 514.666 125.064C514.666 124.021 515.032 123.254 515.765 122.762C516.497 122.264 517.596 121.988 519.061 121.936L520.766 121.883V121.452C520.766 120.937 520.631 120.559 520.361 120.318C520.092 120.078 519.717 119.958 519.236 119.958C518.762 119.958 518.296 120.025 517.839 120.16C517.382 120.295 516.925 120.465 516.468 120.67L515.58 118.859C516.102 118.584 516.685 118.367 517.329 118.209C517.979 118.051 518.65 117.972 519.342 117.972ZM520.766 123.447L519.729 123.482C518.861 123.506 518.258 123.661 517.918 123.948C517.584 124.235 517.417 124.613 517.417 125.082C517.417 125.492 517.537 125.785 517.777 125.961C518.018 126.131 518.331 126.216 518.718 126.216C519.292 126.216 519.775 126.046 520.168 125.706C520.566 125.366 520.766 124.883 520.766 124.256V123.447ZM528.878 128H526.197V114.324H528.878V128Z" fill="#292929"/>
</svg>
