<svg width="1147" height="2694" viewBox="0 0 1147 2694" fill="none" xmlns="http://www.w3.org/2000/svg">
<rect x="20" y="98" width="1100" height="794" rx="10" fill="url(#paint0_linear_491_1674)"/>
<rect y="46" width="1140" height="72" rx="10" fill="#B384B0"/>
<text fill="#292929" xml:space="preserve" style="white-space: pre" font-family="Playpen Sans" font-size="20" font-weight="bold" letter-spacing="0em"><tspan x="340" y="21.3">Elementos essenciais dos cuidados de cria&#xe7;&#xe3;o</tspan></text>
<text fill="white" xml:space="preserve" style="white-space: pre" font-family="Open Sans" font-size="18" font-weight="bold" letter-spacing="0em"><tspan x="20" y="75.9829">Boa sa&#xfa;de</tspan></text>
<text fill="white" xml:space="preserve" style="white-space: pre" font-family="Open Sans" font-size="18" letter-spacing="0em"><tspan x="20" y="101.983">Refere-se &#xe0; sa&#xfa;de e ao bem-estar das crian&#xe7;as e de seus cuidadores.</tspan></text>
<text fill="#292929" xml:space="preserve" style="white-space: pre" font-family="Open Sans" font-size="18" letter-spacing="0em"><tspan x="76" y="161.983">Planejamento familiar.&#10;</tspan><tspan x="76" y="211.983">Preven&#xe7;&#xe3;o e abandono do tabagismo e do uso de &#xe1;lcool e subst&#xe2;ncias.&#10;</tspan><tspan x="76" y="261.983">Aten&#xe7;&#xe3;o pr&#xe9;-natal.&#xa0;&#10;</tspan><tspan x="76" y="311.983">Aten&#xe7;&#xe3;o ao parto.&#10;</tspan><tspan x="76" y="361.983">Preven&#xe7;&#xe3;o da transmiss&#xe3;o materno-infantil do HIV.&#10;</tspan><tspan x="76" y="411.983">Aten&#xe7;&#xe3;o essencial ao rec&#xe9;m-nascido com aten&#xe7;&#xe3;o extra a beb&#xea;s pequenos e doentes.&#10;</tspan><tspan x="76" y="461.983">Contato de aten&#xe7;&#xe3;o p&#xf3;s-natal.&#10;</tspan><tspan x="76" y="511.983">M&#xe9;todo m&#xe3;e-canguru para beb&#xea;s com baixo peso ao nascer.&#10;</tspan><tspan x="76" y="561.983">Imuniza&#xe7;&#xe3;o materna.&#xa0;&#10;</tspan><tspan x="76" y="611.983">Imuniza&#xe7;&#xe3;o infantil.&#10;</tspan><tspan x="76" y="661.983">Aten&#xe7;&#xe3;o &#xe0;s crian&#xe7;as com dificuldades e defici&#xea;ncias do desenvolvimento.&#10;</tspan><tspan x="76" y="711.983">Apoio &#xe0; sa&#xfa;de mental dos pais.&#10;</tspan><tspan x="76" y="761.983">Detec&#xe7;&#xe3;o precoce de doen&#xe7;as ou condi&#xe7;&#xf5;es incapacitantes (por exemplo, vis&#xe3;o, audi&#xe7;&#xe3;o).&#10;</tspan><tspan x="76" y="811.983">Busca de aten&#xe7;&#xe3;o para crian&#xe7;as doentes.&#10;</tspan><tspan x="76" y="861.983">Aten&#xe7;&#xe3;o integrada &#xe0;s doen&#xe7;as prevalentes da inf&#xe2;ncia.</tspan></text>
<path d="M56.5748 162.566C53.5488 164.769 49.2922 164.363 46.5762 161.836C45.3855 160.728 44.5709 159.293 44.2297 157.789C44.145 157.599 44.0842 157.385 44.0553 157.144C43.5522 152.942 46.5364 148.837 50.7211 148.104C54.2891 147.478 58.0091 149.752 59.4202 153.01C60.8742 156.368 59.4712 160.459 56.5748 162.566ZM55.7498 156.443C56.0776 154.298 54.1042 152.295 52.0542 152.213C51.0761 152.175 50.2078 152.57 49.5451 153.196C49.5135 153.81 49.2067 154.408 48.71 154.843C48.483 155.042 48.3439 155.303 48.2686 155.591C48.2112 155.938 48.1993 156.288 48.2404 156.631C48.2422 156.647 48.242 156.661 48.2435 156.676C48.3125 157.08 48.4534 157.468 48.6234 157.77C49.1584 158.72 50.1656 159.445 51.2186 159.718C53.3146 160.261 55.4228 158.584 55.7498 156.443Z" fill="#D3A5D0"/>
<path d="M56.5748 212.566C53.5488 214.769 49.2922 214.363 46.5762 211.836C45.3855 210.728 44.5709 209.293 44.2297 207.789C44.145 207.599 44.0842 207.385 44.0553 207.144C43.5522 202.942 46.5364 198.837 50.7211 198.104C54.2891 197.478 58.0091 199.752 59.4202 203.01C60.8742 206.368 59.4712 210.459 56.5748 212.566ZM55.7498 206.443C56.0776 204.298 54.1042 202.295 52.0542 202.213C51.0761 202.175 50.2078 202.57 49.5451 203.196C49.5135 203.81 49.2067 204.408 48.71 204.843C48.483 205.042 48.3439 205.303 48.2686 205.591C48.2112 205.938 48.1993 206.288 48.2404 206.631C48.2422 206.647 48.242 206.661 48.2435 206.676C48.3125 207.08 48.4534 207.468 48.6234 207.77C49.1584 208.72 50.1656 209.445 51.2186 209.718C53.3146 210.261 55.4228 208.584 55.7498 206.443Z" fill="#D3A5D0"/>
<path d="M56.5748 262.566C53.5488 264.769 49.2922 264.363 46.5762 261.836C45.3855 260.728 44.5709 259.293 44.2297 257.789C44.145 257.599 44.0842 257.385 44.0553 257.144C43.5522 252.942 46.5364 248.837 50.7211 248.104C54.2891 247.478 58.0091 249.752 59.4202 253.01C60.8742 256.368 59.4712 260.459 56.5748 262.566ZM55.7498 256.443C56.0776 254.298 54.1042 252.295 52.0542 252.213C51.0761 252.175 50.2078 252.57 49.5451 253.196C49.5135 253.81 49.2067 254.408 48.71 254.843C48.483 255.042 48.3439 255.303 48.2686 255.591C48.2112 255.938 48.1993 256.288 48.2404 256.631C48.2422 256.647 48.242 256.661 48.2435 256.676C48.3125 257.08 48.4534 257.468 48.6234 257.77C49.1584 258.72 50.1656 259.445 51.2186 259.718C53.3146 260.261 55.4228 258.584 55.7498 256.443Z" fill="#D3A5D0"/>
<path d="M56.5748 312.566C53.5488 314.769 49.2922 314.363 46.5762 311.836C45.3855 310.728 44.5709 309.293 44.2297 307.789C44.145 307.599 44.0842 307.385 44.0553 307.144C43.5522 302.942 46.5364 298.837 50.7211 298.104C54.2891 297.478 58.0091 299.752 59.4202 303.01C60.8742 306.368 59.4712 310.459 56.5748 312.566ZM55.7498 306.443C56.0776 304.298 54.1042 302.295 52.0542 302.213C51.0761 302.175 50.2078 302.57 49.5451 303.196C49.5135 303.81 49.2067 304.408 48.71 304.843C48.483 305.042 48.3439 305.303 48.2686 305.591C48.2112 305.938 48.1993 306.288 48.2404 306.631C48.2422 306.647 48.242 306.661 48.2435 306.676C48.3125 307.08 48.4534 307.468 48.6234 307.77C49.1584 308.72 50.1656 309.445 51.2186 309.718C53.3146 310.261 55.4228 308.584 55.7498 306.443Z" fill="#D3A5D0"/>
<path d="M56.5748 362.566C53.5488 364.769 49.2922 364.363 46.5762 361.836C45.3855 360.728 44.5709 359.293 44.2297 357.789C44.145 357.599 44.0842 357.385 44.0553 357.144C43.5522 352.942 46.5364 348.837 50.7211 348.104C54.2891 347.478 58.0091 349.752 59.4202 353.01C60.8742 356.368 59.4712 360.459 56.5748 362.566ZM55.7498 356.443C56.0776 354.298 54.1042 352.295 52.0542 352.213C51.0761 352.175 50.2078 352.57 49.5451 353.196C49.5135 353.81 49.2067 354.408 48.71 354.843C48.483 355.042 48.3439 355.303 48.2686 355.591C48.2112 355.938 48.1993 356.288 48.2404 356.631C48.2422 356.647 48.242 356.661 48.2435 356.676C48.3125 357.08 48.4534 357.468 48.6234 357.77C49.1584 358.72 50.1656 359.445 51.2186 359.718C53.3146 360.261 55.4228 358.584 55.7498 356.443Z" fill="#D3A5D0"/>
<path d="M56.5748 412.566C53.5488 414.769 49.2922 414.363 46.5762 411.836C45.3855 410.728 44.5709 409.293 44.2297 407.789C44.145 407.599 44.0842 407.385 44.0553 407.144C43.5522 402.942 46.5364 398.837 50.7211 398.104C54.2891 397.478 58.0091 399.752 59.4202 403.01C60.8742 406.368 59.4712 410.459 56.5748 412.566ZM55.7498 406.443C56.0776 404.298 54.1042 402.295 52.0542 402.213C51.0761 402.175 50.2078 402.57 49.5451 403.196C49.5135 403.81 49.2067 404.408 48.71 404.843C48.483 405.042 48.3439 405.303 48.2686 405.591C48.2112 405.938 48.1993 406.288 48.2404 406.631C48.2422 406.647 48.242 406.661 48.2435 406.676C48.3125 407.08 48.4534 407.468 48.6234 407.77C49.1584 408.72 50.1656 409.445 51.2186 409.718C53.3146 410.261 55.4228 408.584 55.7498 406.443Z" fill="#D3A5D0"/>
<path d="M56.5748 462.566C53.5488 464.769 49.2922 464.363 46.5762 461.836C45.3855 460.728 44.5709 459.293 44.2297 457.789C44.145 457.599 44.0842 457.385 44.0553 457.144C43.5522 452.942 46.5364 448.837 50.7211 448.104C54.2891 447.478 58.0091 449.752 59.4202 453.01C60.8742 456.368 59.4712 460.459 56.5748 462.566ZM55.7498 456.443C56.0776 454.298 54.1042 452.295 52.0542 452.213C51.0761 452.175 50.2078 452.57 49.5451 453.196C49.5135 453.81 49.2067 454.408 48.71 454.843C48.483 455.042 48.3439 455.303 48.2686 455.591C48.2112 455.938 48.1993 456.288 48.2404 456.631C48.2422 456.647 48.242 456.661 48.2435 456.676C48.3125 457.08 48.4534 457.468 48.6234 457.77C49.1584 458.72 50.1656 459.445 51.2186 459.718C53.3146 460.261 55.4228 458.584 55.7498 456.443Z" fill="#D3A5D0"/>
<path d="M56.5748 512.566C53.5488 514.769 49.2922 514.363 46.5762 511.836C45.3855 510.728 44.5709 509.293 44.2297 507.789C44.145 507.599 44.0842 507.385 44.0553 507.144C43.5522 502.942 46.5364 498.837 50.7211 498.104C54.2891 497.478 58.0091 499.752 59.4202 503.01C60.8742 506.368 59.4712 510.459 56.5748 512.566ZM55.7498 506.443C56.0776 504.298 54.1042 502.295 52.0542 502.213C51.0761 502.175 50.2078 502.57 49.5451 503.196C49.5135 503.81 49.2067 504.408 48.71 504.843C48.483 505.042 48.3439 505.303 48.2686 505.591C48.2112 505.938 48.1993 506.288 48.2404 506.631C48.2422 506.647 48.242 506.661 48.2435 506.676C48.3125 507.08 48.4534 507.468 48.6234 507.77C49.1584 508.72 50.1656 509.445 51.2186 509.718C53.3146 510.261 55.4228 508.584 55.7498 506.443Z" fill="#D3A5D0"/>
<path d="M56.5748 562.566C53.5488 564.769 49.2922 564.363 46.5762 561.836C45.3855 560.728 44.5709 559.293 44.2297 557.789C44.145 557.599 44.0842 557.385 44.0553 557.144C43.5522 552.942 46.5364 548.837 50.7211 548.104C54.2891 547.478 58.0091 549.752 59.4202 553.01C60.8742 556.368 59.4712 560.459 56.5748 562.566ZM55.7498 556.443C56.0776 554.298 54.1042 552.295 52.0542 552.213C51.0761 552.175 50.2078 552.57 49.5451 553.196C49.5135 553.81 49.2067 554.408 48.71 554.843C48.483 555.042 48.3439 555.303 48.2686 555.591C48.2112 555.938 48.1993 556.288 48.2404 556.631C48.2422 556.647 48.242 556.661 48.2435 556.676C48.3125 557.08 48.4534 557.468 48.6234 557.77C49.1584 558.72 50.1656 559.445 51.2186 559.718C53.3146 560.261 55.4228 558.584 55.7498 556.443Z" fill="#D3A5D0"/>
<path d="M56.5748 612.566C53.5488 614.769 49.2922 614.363 46.5762 611.836C45.3855 610.728 44.5709 609.293 44.2297 607.789C44.145 607.599 44.0842 607.385 44.0553 607.144C43.5522 602.942 46.5364 598.837 50.7211 598.104C54.2891 597.478 58.0091 599.752 59.4202 603.01C60.8742 606.368 59.4712 610.459 56.5748 612.566ZM55.7498 606.443C56.0776 604.298 54.1042 602.295 52.0542 602.213C51.0761 602.175 50.2078 602.57 49.5451 603.196C49.5135 603.81 49.2067 604.408 48.71 604.843C48.483 605.042 48.3439 605.303 48.2686 605.591C48.2112 605.938 48.1993 606.288 48.2404 606.631C48.2422 606.647 48.242 606.661 48.2435 606.676C48.3125 607.08 48.4534 607.468 48.6234 607.77C49.1584 608.72 50.1656 609.445 51.2186 609.718C53.3146 610.261 55.4228 608.584 55.7498 606.443Z" fill="#D3A5D0"/>
<path d="M56.5748 662.566C53.5488 664.769 49.2922 664.363 46.5762 661.836C45.3855 660.728 44.5709 659.293 44.2297 657.789C44.145 657.599 44.0842 657.385 44.0553 657.144C43.5522 652.942 46.5364 648.837 50.7211 648.104C54.2891 647.478 58.0091 649.752 59.4202 653.01C60.8742 656.368 59.4712 660.459 56.5748 662.566ZM55.7498 656.443C56.0776 654.298 54.1042 652.295 52.0542 652.213C51.0761 652.175 50.2078 652.57 49.5451 653.196C49.5135 653.81 49.2067 654.408 48.71 654.843C48.483 655.042 48.3439 655.303 48.2686 655.591C48.2112 655.938 48.1993 656.288 48.2404 656.631C48.2422 656.647 48.242 656.661 48.2435 656.676C48.3125 657.08 48.4534 657.468 48.6234 657.77C49.1584 658.72 50.1656 659.445 51.2186 659.718C53.3146 660.261 55.4228 658.584 55.7498 656.443Z" fill="#D3A5D0"/>
<path d="M56.5748 712.566C53.5488 714.769 49.2922 714.363 46.5762 711.836C45.3855 710.728 44.5709 709.293 44.2297 707.789C44.145 707.599 44.0842 707.385 44.0553 707.144C43.5522 702.942 46.5364 698.837 50.7211 698.104C54.2891 697.478 58.0091 699.752 59.4202 703.01C60.8742 706.368 59.4712 710.459 56.5748 712.566ZM55.7498 706.443C56.0776 704.298 54.1042 702.295 52.0542 702.213C51.0761 702.175 50.2078 702.57 49.5451 703.196C49.5135 703.81 49.2067 704.408 48.71 704.843C48.483 705.042 48.3439 705.303 48.2686 705.591C48.2112 705.938 48.1993 706.288 48.2404 706.631C48.2422 706.647 48.242 706.661 48.2435 706.676C48.3125 707.08 48.4534 707.468 48.6234 707.77C49.1584 708.72 50.1656 709.445 51.2186 709.718C53.3146 710.261 55.4228 708.584 55.7498 706.443Z" fill="#D3A5D0"/>
<path d="M56.5748 762.566C53.5488 764.769 49.2922 764.363 46.5762 761.836C45.3855 760.728 44.5709 759.293 44.2297 757.789C44.145 757.599 44.0842 757.385 44.0553 757.144C43.5522 752.942 46.5364 748.837 50.7211 748.104C54.2891 747.478 58.0091 749.752 59.4202 753.01C60.8742 756.368 59.4712 760.459 56.5748 762.566ZM55.7498 756.443C56.0776 754.298 54.1042 752.295 52.0542 752.213C51.0761 752.175 50.2078 752.57 49.5451 753.196C49.5135 753.81 49.2067 754.408 48.71 754.843C48.483 755.042 48.3439 755.303 48.2686 755.591C48.2112 755.938 48.1993 756.288 48.2404 756.631C48.2422 756.647 48.242 756.661 48.2435 756.676C48.3125 757.08 48.4534 757.468 48.6234 757.77C49.1584 758.72 50.1656 759.445 51.2186 759.718C53.3146 760.261 55.4228 758.584 55.7498 756.443Z" fill="#D3A5D0"/>
<path d="M56.5748 812.566C53.5488 814.769 49.2922 814.363 46.5762 811.836C45.3855 810.728 44.5709 809.293 44.2297 807.789C44.145 807.599 44.0842 807.385 44.0553 807.144C43.5522 802.942 46.5364 798.837 50.7211 798.104C54.2891 797.478 58.0091 799.752 59.4202 803.01C60.8742 806.368 59.4712 810.459 56.5748 812.566ZM55.7498 806.443C56.0776 804.298 54.1042 802.295 52.0542 802.213C51.0761 802.175 50.2078 802.57 49.5451 803.196C49.5135 803.81 49.2067 804.408 48.71 804.843C48.483 805.042 48.3439 805.303 48.2686 805.591C48.2112 805.938 48.1993 806.288 48.2404 806.631C48.2422 806.647 48.242 806.661 48.2435 806.676C48.3125 807.08 48.4534 807.468 48.6234 807.77C49.1584 808.72 50.1656 809.445 51.2186 809.718C53.3146 810.261 55.4228 808.584 55.7498 806.443Z" fill="#D3A5D0"/>
<path d="M56.5748 862.566C53.5488 864.769 49.2922 864.363 46.5762 861.836C45.3855 860.728 44.5709 859.293 44.2297 857.789C44.145 857.599 44.0842 857.385 44.0553 857.144C43.5522 852.942 46.5364 848.837 50.7211 848.104C54.2891 847.478 58.0091 849.752 59.4202 853.01C60.8742 856.368 59.4712 860.459 56.5748 862.566ZM55.7498 856.443C56.0776 854.298 54.1042 852.295 52.0542 852.213C51.0761 852.175 50.2078 852.57 49.5451 853.196C49.5135 853.81 49.2067 854.408 48.71 854.843C48.483 855.042 48.3439 855.303 48.2686 855.591C48.2112 855.938 48.1993 856.288 48.2404 856.631C48.2422 856.647 48.242 856.661 48.2435 856.676C48.3125 857.08 48.4534 857.468 48.6234 857.77C49.1584 858.72 50.1656 859.445 51.2186 859.718C53.3146 860.261 55.4228 858.584 55.7498 856.443Z" fill="#D3A5D0"/>
<g filter="url(#filter0_d_491_1674)">
<path d="M1015 306C1084.04 306 1140 250.036 1140 181C1140 111.964 1084.04 56 1015 56C945.964 56 890 111.964 890 181C890 250.036 945.964 306 1015 306Z" fill="white"/>
</g>
<g clip-path="url(#clip0_491_1674)">
<path d="M1015.01 286.777C1073.42 286.777 1120.78 239.421 1120.78 181.004C1120.78 122.587 1073.42 75.2305 1015.01 75.2305C956.589 75.2305 909.232 122.587 909.232 181.004C909.232 239.421 956.589 286.777 1015.01 286.777Z" fill="#D3A5D0"/>
<path d="M969.919 172.803H965.821C962.425 172.803 959.673 170.051 959.673 166.655C959.673 163.26 962.425 160.508 965.821 160.508H967.87" fill="#F9BA7A"/>
<path d="M1000.66 160.508H1002.71C1006.1 160.508 1008.85 163.26 1008.85 166.655C1008.85 170.051 1006.1 172.803 1002.71 172.803H998.607" fill="#F9BA7A"/>
<path d="M1031.39 172.803H1027.3C1023.9 172.803 1021.15 170.051 1021.15 166.655C1021.15 163.26 1023.9 160.508 1027.3 160.508H1029.35" fill="#F9BA7A"/>
<path d="M1062.13 160.508H1064.18C1067.58 160.508 1070.33 163.26 1070.33 166.655C1070.33 170.051 1067.58 172.803 1064.18 172.803H1060.08" fill="#F9BA7A"/>
<path d="M953.526 226.079V205.588C953.526 194.27 962.7 185.096 974.018 185.096H996.559C1007.88 185.096 1017.05 194.27 1017.05 205.588V226.079" fill="#92D3CA"/>
<path d="M963.772 219.932C985.665 219.932 1003.9 206.452 1007.99 188.581C1004.73 186.381 1000.79 185.096 996.559 185.096H974.018C962.7 185.096 953.526 194.27 953.526 205.588V218.909C956.819 219.571 960.245 219.932 963.772 219.932Z" fill="#AFE2DB"/>
<path d="M1012.95 226.079V205.588C1012.95 194.27 1022.13 185.096 1033.44 185.096H1055.98C1067.3 185.096 1076.48 194.27 1076.48 205.588V226.079" fill="#ED5E7E"/>
<path d="M1023.2 219.932C1045.09 219.932 1063.33 206.452 1067.42 188.581C1064.15 186.381 1060.22 185.096 1055.98 185.096H1033.44C1022.13 185.096 1012.95 194.27 1012.95 205.588V218.909C1016.25 219.571 1019.67 219.932 1023.2 219.932Z" fill="#FF7D9A"/>
<path d="M1033.44 242.474V234.278C1033.44 227.487 1027.94 221.982 1021.15 221.982H1008.85C1002.06 221.982 996.558 227.487 996.558 234.278V242.474H1033.44Z" fill="#7DA3BF"/>
<path d="M1000.66 238.376C1013.31 238.376 1023.89 231.919 1026.6 223.269C1024.96 222.454 1023.11 221.982 1021.15 221.982H1008.85C1002.06 221.982 996.558 227.487 996.558 234.278V238.122C997.898 238.273 999.259 238.376 1000.66 238.376Z" fill="#98BCD7"/>
<path d="M1004.75 205.588H1000.66C998.392 205.588 996.558 207.422 996.558 209.686C996.558 211.951 998.392 213.785 1000.66 213.785H1004.75" fill="#F9BA7A"/>
<path d="M1025.25 205.588H1029.35C1031.61 205.588 1033.44 207.422 1033.44 209.686C1033.44 211.951 1031.61 213.785 1029.35 213.785H1025.25" fill="#F9BA7A"/>
<path d="M1025.25 195.345V211.738C1025.25 217.396 1020.66 221.984 1015 221.984C1009.34 221.984 1004.76 217.396 1004.76 211.738V197.394" fill="#FDD4AA"/>
<path d="M1021.15 197.391C1021.15 201.918 1013.38 205.588 1008.85 205.588H1000.66V197.391C1000.66 192.864 1004.33 189.194 1008.85 189.194H1021.15C1025.68 189.194 1029.35 192.864 1029.35 197.391V205.588C1024.82 205.588 1021.15 201.918 1021.15 197.391Z" fill="#A86624"/>
<path d="M1000.66 148.213V168.705C1000.66 177.758 993.317 185.098 984.264 185.098C975.211 185.098 967.871 177.758 967.871 168.705V148.213" fill="#FDD4AA"/>
<path d="M1062.13 148.213V168.705C1062.13 177.758 1054.79 185.098 1045.74 185.098C1036.69 185.098 1029.35 177.758 1029.35 168.705V148.213" fill="#FDD4AA"/>
<path d="M1053.94 135.917C1055.22 134.204 1055.98 132.075 1055.98 129.769C1055.98 124.112 1051.4 119.523 1045.74 119.523C1040.08 119.523 1035.49 124.112 1035.49 129.769C1035.49 132.077 1036.26 134.206 1037.54 135.917" fill="#A86624"/>
<path d="M990.411 135.917H978.116C970.194 135.917 963.772 142.339 963.772 150.261V160.507H976.067C982.858 160.507 988.362 155.003 988.362 148.212V154.36C988.362 157.755 991.114 160.507 994.51 160.507H1004.76V150.261C1004.76 142.339 998.333 135.917 990.411 135.917Z" fill="#A86624"/>
<path d="M1051.89 135.917H1039.59C1031.67 135.917 1025.25 142.339 1025.25 150.261V160.507H1041.64C1048.43 160.507 1053.94 155.003 1053.94 148.212V154.36C1053.94 157.755 1056.69 160.507 1060.08 160.507H1066.23V150.261C1066.23 142.339 1059.81 135.917 1051.89 135.917Z" fill="#A86624"/>
<path d="M976.067 185.096C976.067 189.622 979.737 193.292 984.264 193.292C988.791 193.292 992.461 189.622 992.461 185.096" fill="#FDD4AA"/>
<path d="M1037.54 185.096C1037.54 189.622 1041.21 193.292 1045.74 193.292C1050.27 193.292 1053.94 189.622 1053.94 185.096" fill="#FDD4AA"/>
<path d="M1008.85 221.982V224.032C1008.85 227.427 1011.61 230.179 1015 230.179C1018.4 230.179 1021.15 227.427 1021.15 224.032V221.982" fill="#FDD4AA"/>
<path d="M984.264 178.948C978.614 178.948 974.018 174.352 974.018 168.702H978.116C978.116 172.091 980.875 174.85 984.264 174.85C987.653 174.85 990.412 172.091 990.412 168.702H994.51C994.51 174.352 989.914 178.948 984.264 178.948Z" fill="#F9BA7A"/>
<path d="M1045.74 178.948C1040.09 178.948 1035.49 174.352 1035.49 168.702H1039.59C1039.59 172.091 1042.35 174.85 1045.74 174.85C1049.13 174.85 1051.89 172.091 1051.89 168.702H1055.99C1055.99 174.352 1051.39 178.948 1045.74 178.948Z" fill="#F9BA7A"/>
</g>
<rect x="20" y="958" width="1100" height="366" rx="10" fill="url(#paint1_linear_491_1674)"/>
<rect y="902" width="1140" height="72" rx="10" fill="#B384B0"/>
<text fill="white" xml:space="preserve" style="white-space: pre" font-family="Open Sans" font-size="18" font-weight="bold" letter-spacing="0em"><tspan x="20" y="931.983">Nutri&#xe7;&#xe3;o adequada</tspan></text>
<text fill="white" xml:space="preserve" style="white-space: pre" font-family="Open Sans" font-size="18" letter-spacing="0em"><tspan x="20" y="957.983">Refere-se &#xe0; nutri&#xe7;&#xe3;o materno-infantil.</tspan></text>
<text fill="#292929" xml:space="preserve" style="white-space: pre" font-family="Open Sans" font-size="18" letter-spacing="0em"><tspan x="76" y="1017.98">Nutri&#xe7;&#xe3;o materna.&#13;&#10;</tspan><tspan x="76" y="1067.98">In&#xed;cio de amamenta&#xe7;&#xe3;o exclusiva na primeira hora de vida.&#13;&#10;</tspan><tspan x="76" y="1117.98">Alimenta&#xe7;&#xe3;o complementar e transi&#xe7;&#xe3;o para a dieta saud&#xe1;vel da fam&#xed;lia. Micronutrientes </tspan><tspan x="76" y="1143.98">de acordo com as necessidades.&#13;&#10;</tspan><tspan x="76" y="1193.98">Elimina&#xe7;&#xe3;o de parasitos.&#13;&#10;</tspan><tspan x="76" y="1243.98">Monitoramento do crescimento, e interven&#xe7;&#xe3;o quando indicado.&#13;&#10;</tspan><tspan x="76" y="1293.98">Tratamento de todas as formas de desnutri&#xe7;&#xe3;o.&#13;</tspan></text>
<path d="M56.5748 1018.57C53.5488 1020.77 49.2922 1020.36 46.5762 1017.84C45.3855 1016.73 44.5709 1015.29 44.2297 1013.79C44.145 1013.6 44.0842 1013.38 44.0553 1013.14C43.5522 1008.94 46.5364 1004.84 50.7211 1004.1C54.2891 1003.48 58.0091 1005.75 59.4202 1009.01C60.8742 1012.37 59.4712 1016.46 56.5748 1018.57ZM55.7498 1012.44C56.0776 1010.3 54.1042 1008.29 52.0542 1008.21C51.0761 1008.17 50.2078 1008.57 49.5451 1009.2C49.5135 1009.81 49.2067 1010.41 48.71 1010.84C48.483 1011.04 48.3439 1011.3 48.2686 1011.59C48.2112 1011.94 48.1993 1012.29 48.2404 1012.63C48.2422 1012.65 48.242 1012.66 48.2435 1012.68C48.3125 1013.08 48.4534 1013.47 48.6234 1013.77C49.1584 1014.72 50.1656 1015.44 51.2186 1015.72C53.3146 1016.26 55.4228 1014.58 55.7498 1012.44Z" fill="#D3A5D0"/>
<path d="M56.5748 1068.57C53.5488 1070.77 49.2922 1070.36 46.5762 1067.84C45.3855 1066.73 44.5709 1065.29 44.2297 1063.79C44.145 1063.6 44.0842 1063.38 44.0553 1063.14C43.5522 1058.94 46.5364 1054.84 50.7211 1054.1C54.2891 1053.48 58.0091 1055.75 59.4202 1059.01C60.8742 1062.37 59.4712 1066.46 56.5748 1068.57ZM55.7498 1062.44C56.0776 1060.3 54.1042 1058.29 52.0542 1058.21C51.0761 1058.17 50.2078 1058.57 49.5451 1059.2C49.5135 1059.81 49.2067 1060.41 48.71 1060.84C48.483 1061.04 48.3439 1061.3 48.2686 1061.59C48.2112 1061.94 48.1993 1062.29 48.2404 1062.63C48.2422 1062.65 48.242 1062.66 48.2435 1062.68C48.3125 1063.08 48.4534 1063.47 48.6234 1063.77C49.1584 1064.72 50.1656 1065.44 51.2186 1065.72C53.3146 1066.26 55.4228 1064.58 55.7498 1062.44Z" fill="#D3A5D0"/>
<path d="M56.5748 1118.57C53.5488 1120.77 49.2922 1120.36 46.5762 1117.84C45.3855 1116.73 44.5709 1115.29 44.2297 1113.79C44.145 1113.6 44.0842 1113.38 44.0553 1113.14C43.5522 1108.94 46.5364 1104.84 50.7211 1104.1C54.2891 1103.48 58.0091 1105.75 59.4202 1109.01C60.8742 1112.37 59.4712 1116.46 56.5748 1118.57ZM55.7498 1112.44C56.0776 1110.3 54.1042 1108.29 52.0542 1108.21C51.0761 1108.17 50.2078 1108.57 49.5451 1109.2C49.5135 1109.81 49.2067 1110.41 48.71 1110.84C48.483 1111.04 48.3439 1111.3 48.2686 1111.59C48.2112 1111.94 48.1993 1112.29 48.2404 1112.63C48.2422 1112.65 48.242 1112.66 48.2435 1112.68C48.3125 1113.08 48.4534 1113.47 48.6234 1113.77C49.1584 1114.72 50.1656 1115.44 51.2186 1115.72C53.3146 1116.26 55.4228 1114.58 55.7498 1112.44Z" fill="#D3A5D0"/>
<path d="M56.5748 1194.57C53.5488 1196.77 49.2922 1196.36 46.5762 1193.84C45.3855 1192.73 44.5709 1191.29 44.2297 1189.79C44.145 1189.6 44.0842 1189.38 44.0553 1189.14C43.5522 1184.94 46.5364 1180.84 50.7211 1180.1C54.2891 1179.48 58.0091 1181.75 59.4202 1185.01C60.8742 1188.37 59.4712 1192.46 56.5748 1194.57ZM55.7498 1188.44C56.0776 1186.3 54.1042 1184.29 52.0542 1184.21C51.0761 1184.17 50.2078 1184.57 49.5451 1185.2C49.5135 1185.81 49.2067 1186.41 48.71 1186.84C48.483 1187.04 48.3439 1187.3 48.2686 1187.59C48.2112 1187.94 48.1993 1188.29 48.2404 1188.63C48.2422 1188.65 48.242 1188.66 48.2435 1188.68C48.3125 1189.08 48.4534 1189.47 48.6234 1189.77C49.1584 1190.72 50.1656 1191.44 51.2186 1191.72C53.3146 1192.26 55.4228 1190.58 55.7498 1188.44Z" fill="#D3A5D0"/>
<path d="M56.5748 1244.57C53.5488 1246.77 49.2922 1246.36 46.5762 1243.84C45.3855 1242.73 44.5709 1241.29 44.2297 1239.79C44.145 1239.6 44.0842 1239.38 44.0553 1239.14C43.5522 1234.94 46.5364 1230.84 50.7211 1230.1C54.2891 1229.48 58.0091 1231.75 59.4202 1235.01C60.8742 1238.37 59.4712 1242.46 56.5748 1244.57ZM55.7498 1238.44C56.0776 1236.3 54.1042 1234.29 52.0542 1234.21C51.0761 1234.17 50.2078 1234.57 49.5451 1235.2C49.5135 1235.81 49.2067 1236.41 48.71 1236.84C48.483 1237.04 48.3439 1237.3 48.2686 1237.59C48.2112 1237.94 48.1993 1238.29 48.2404 1238.63C48.2422 1238.65 48.242 1238.66 48.2435 1238.68C48.3125 1239.08 48.4534 1239.47 48.6234 1239.77C49.1584 1240.72 50.1656 1241.44 51.2186 1241.72C53.3146 1242.26 55.4228 1240.58 55.7498 1238.44Z" fill="#D3A5D0"/>
<path d="M56.5748 1294.57C53.5488 1296.77 49.2922 1296.36 46.5762 1293.84C45.3855 1292.73 44.5709 1291.29 44.2297 1289.79C44.145 1289.6 44.0842 1289.38 44.0553 1289.14C43.5522 1284.94 46.5364 1280.84 50.7211 1280.1C54.2891 1279.48 58.0091 1281.75 59.4202 1285.01C60.8742 1288.37 59.4712 1292.46 56.5748 1294.57ZM55.7498 1288.44C56.0776 1286.3 54.1042 1284.29 52.0542 1284.21C51.0761 1284.17 50.2078 1284.57 49.5451 1285.2C49.5135 1285.81 49.2067 1286.41 48.71 1286.84C48.483 1287.04 48.3439 1287.3 48.2686 1287.59C48.2112 1287.94 48.1993 1288.29 48.2404 1288.63C48.2422 1288.65 48.242 1288.66 48.2435 1288.68C48.3125 1289.08 48.4534 1289.47 48.6234 1289.77C49.1584 1290.72 50.1656 1291.44 51.2186 1291.72C53.3146 1292.26 55.4228 1290.58 55.7498 1288.44Z" fill="#D3A5D0"/>
<g filter="url(#filter1_d_491_1674)">
<path d="M1015 1162C1084.04 1162 1140 1106.04 1140 1037C1140 967.964 1084.04 912 1015 912C945.964 912 890 967.964 890 1037C890 1106.04 945.964 1162 1015 1162Z" fill="white"/>
</g>
<g clip-path="url(#clip1_491_1674)">
<path d="M1015.01 1142.78C1073.42 1142.78 1120.78 1095.42 1120.78 1037C1120.78 978.587 1073.42 931.23 1015.01 931.23C956.589 931.23 909.232 978.587 909.232 1037C909.232 1095.42 956.589 1142.78 1015.01 1142.78Z" fill="#D3A5D0"/>
<path d="M1015 1024.75C996.049 1024.75 980.687 1040.11 980.687 1059.06V1103.18H1049.31V1059.06C1049.31 1040.11 1033.95 1024.75 1015 1024.75Z" fill="#FDD4AA"/>
<path d="M1002.11 1082.53L1015 1071.99V1063.96L990.716 1034.82C986.194 1039.35 982.951 1045.15 981.517 1051.63C980.988 1054.02 980.687 1056.51 980.687 1059.06V1103.18H1009.48C1003.05 1103.18 997.843 1097.97 997.843 1091.54C997.843 1088.05 999.41 1084.74 1002.11 1082.53Z" fill="#98BCD7"/>
<path d="M1039.51 1078.67C1031.39 1078.67 1024.8 1072.08 1024.8 1063.96L1015 1071.98L1002.11 1082.53C999.41 1084.74 997.844 1088.05 997.844 1091.54C997.844 1097.97 1003.05 1103.18 1009.48 1103.18C1012.88 1103.18 1016.22 1102.58 1019.43 1101.54C1021.16 1100.97 1022.87 1100.31 1024.49 1099.45L1024.8 1099.28C1028.59 1097.4 1036.73 1093.24 1039.51 1090.92C1041.63 1089.16 1043.41 1087.34 1044.97 1085.52C1051.18 1078.25 1053.22 1071.02 1053.89 1067.05C1052.46 1073.69 1046.57 1078.67 1039.51 1078.67Z" fill="#AFE2DB"/>
<path d="M1054.22 1024.75C1048.8 1024.75 1044.41 1020.36 1044.41 1014.94V999.728C1044.41 1010.28 1037.66 1019.64 1027.65 1022.98C1024.58 1024 1021.41 1024.64 1018.22 1024.9C1033.17 1026.29 1045.32 1037.27 1048.49 1051.62C1057.2 1050.81 1064.02 1043.48 1064.02 1034.55C1064.02 1029.14 1059.63 1024.75 1054.22 1024.75Z" fill="#292929"/>
<path d="M1002.35 1022.98C992.339 1019.64 985.589 1010.28 985.589 999.728V1014.94C985.589 1020.36 981.199 1024.75 975.785 1024.75C970.371 1024.75 965.981 1029.14 965.981 1034.55C965.981 1043.48 972.802 1050.81 981.518 1051.63C982.949 1045.15 986.194 1039.35 990.716 1034.82C996.226 1029.3 1003.61 1025.66 1011.83 1024.91C1008.62 1024.65 1005.44 1024.01 1002.35 1022.98H1002.35Z" fill="#292929"/>
<path d="M1027.65 1022.98C1037.66 1019.64 1044.41 1010.28 1044.41 999.727V995.335C1035.71 995.335 1028.06 989.565 1025.67 981.195L1024.8 978.178L1018.38 987.17C1014.72 992.293 1008.81 995.335 1002.52 995.335H985.589V999.727C985.589 1010.28 992.339 1019.64 1002.35 1022.98H1002.35C1005.44 1024.01 1008.62 1024.65 1011.83 1024.91C1012.87 1024.81 1013.93 1024.75 1015 1024.75C1016.09 1024.75 1017.16 1024.81 1018.22 1024.9C1021.41 1024.65 1024.58 1024.01 1027.65 1022.98L1027.65 1022.98Z" fill="#FFE0C2"/>
<path d="M1025.67 981.195L1024.8 978.178L1018.38 987.17C1014.72 992.293 1008.81 995.335 1002.52 995.335H985.588V999.727C985.588 1000.73 985.469 999.261 985.589 1000.24H1002.52C1008.81 1000.24 1014.72 996.781 1018.38 991.658L1024.81 981.854L1025.67 986.097C1028.04 994.403 1035.79 1000.15 1044.41 1000.24C1044.61 997.8 1044.41 998.781 1044.41 997.786V995.335C1035.71 995.335 1028.06 989.565 1025.67 981.195Z" fill="#FDD4AA"/>
<path d="M1048.8 1075.36C1047.74 1077.08 1046.48 1078.85 1044.97 1080.62C1043.41 1082.44 1041.63 1084.25 1039.51 1086.02C1036.73 1088.34 1028.59 1092.5 1024.8 1094.38L1024.49 1094.55C1022.87 1095.41 1021.16 1096.07 1019.43 1096.64C1016.23 1097.68 1012.88 1098.28 1009.48 1098.28C1003.9 1098.28 999.236 1094.33 998.111 1089.08C997.939 1089.88 997.844 1090.7 997.844 1091.54C997.844 1097.97 1003.05 1103.18 1009.48 1103.18C1012.88 1103.18 1016.22 1102.58 1019.43 1101.54C1021.16 1100.97 1022.87 1100.31 1024.49 1099.45L1024.8 1099.28C1028.59 1097.4 1036.73 1093.24 1039.51 1090.92C1041.63 1089.16 1043.41 1087.34 1044.97 1085.52C1051.18 1078.25 1053.22 1071.02 1053.89 1067.05C1053.17 1070.38 1051.34 1073.29 1048.8 1075.36Z" fill="#92D3CA"/>
<path d="M1045.85 1050.71C1043.93 1049.79 1041.79 1049.26 1039.51 1049.26C1031.39 1049.26 1024.8 1055.84 1024.8 1063.96C1024.8 1072.09 1031.39 1078.67 1039.51 1078.67C1046.57 1078.67 1052.46 1073.69 1053.89 1067.05C1054.05 1066.06 1054.14 1065.26 1054.18 1064.74C1054.19 1064.48 1054.22 1064.22 1054.22 1063.96C1054.22 1058.11 1050.79 1053.08 1045.85 1050.71Z" fill="#FFE0C2"/>
<path d="M1053.89 1062.15C1052.46 1068.79 1046.57 1073.77 1039.51 1073.77C1032.23 1073.77 1026.19 1068.46 1025.03 1061.51C1024.89 1062.31 1024.8 1063.13 1024.8 1063.96C1024.8 1072.08 1031.39 1078.67 1039.51 1078.67C1046.57 1078.67 1052.46 1073.69 1053.89 1067.05C1054.05 1066.06 1054.14 1065.26 1054.18 1064.74C1054.19 1064.48 1054.22 1064.22 1054.22 1063.96C1054.22 1063.11 1054.12 1062.28 1053.98 1061.47C1053.95 1061.7 1053.93 1061.9 1053.89 1062.15Z" fill="#FDD4AA"/>
<path d="M997.843 1059.06H992.941V1076.22H997.843V1059.06Z" fill="#7DA3BF"/>
<path d="M1007.04 1014.94C1008.05 1014.94 1008.87 1013.3 1008.87 1011.27C1008.87 1009.23 1008.05 1007.59 1007.04 1007.59C1006.02 1007.59 1005.2 1009.23 1005.2 1011.27C1005.2 1013.3 1006.02 1014.94 1007.04 1014.94Z" fill="#292929"/>
<path d="M1021.74 1014.94C1022.76 1014.94 1023.58 1013.3 1023.58 1011.27C1023.58 1009.23 1022.76 1007.59 1021.74 1007.59C1020.73 1007.59 1019.9 1009.23 1019.9 1011.27C1019.9 1013.3 1020.73 1014.94 1021.74 1014.94Z" fill="#292929"/>
<path d="M1015 1051.71H1010.1C1010.1 1047.65 1006.8 1044.35 1002.75 1044.35V1039.45C1009.5 1039.45 1015 1044.95 1015 1051.71Z" fill="#F9BA7A"/>
<path d="M1019.9 1051.71H1015C1015 1044.95 1020.5 1039.45 1027.25 1039.45V1044.35C1023.2 1044.35 1019.9 1047.65 1019.9 1051.71Z" fill="#F9BA7A"/>
<path d="M1039.55 1061.51L1039.51 1058.5C1040.39 1058.49 1041.2 1058.13 1041.8 1057.48C1042.4 1056.84 1042.7 1056.01 1042.65 1055.13L1042.58 1053.85L1045.59 1053.68L1045.66 1054.96C1045.76 1056.66 1045.17 1058.29 1044 1059.54C1042.84 1060.79 1041.26 1061.49 1039.55 1061.51Z" fill="#292929"/>
<path d="M1018.38 989.621L1024.8 980.628L1025.67 983.646C1028.06 992.016 1035.71 997.785 1044.41 997.785V990.432C1044.41 974.19 1031.24 961.021 1015 961.021C998.758 961.021 985.589 974.19 985.589 990.432V997.785H1002.52C1008.81 997.785 1014.72 994.744 1018.38 989.621Z" fill="#292929"/>
</g>
<rect x="20" y="1390" width="1100" height="440" rx="10" fill="url(#paint2_linear_491_1674)"/>
<rect y="1334" width="1140" height="72" rx="10" fill="#B384B0"/>
<text fill="white" xml:space="preserve" style="white-space: pre" font-family="Open Sans" font-size="18" font-weight="bold" letter-spacing="0em"><tspan x="20" y="1363.98">Prote&#xe7;&#xe3;o e seguran&#xe7;a</tspan></text>
<text fill="white" xml:space="preserve" style="white-space: pre" font-family="Open Sans" font-size="18" letter-spacing="0em"><tspan x="20" y="1389.98">Refere-se a ambientes seguros e protegidos para crian&#xe7;as e sua fam&#xed;lia.</tspan></text>
<text fill="#292929" xml:space="preserve" style="white-space: pre" font-family="Open Sans" font-size="18" letter-spacing="0em"><tspan x="76" y="1449.98">&#xc1;gua pot&#xe1;vel.&#13;&#10;</tspan><tspan x="76" y="1499.98">Saneamento.&#13;&#10;</tspan><tspan x="76" y="1549.98">Preven&#xe7;&#xe3;o de maus-tratos e neglig&#xea;ncia.&#13;&#10;</tspan><tspan x="76" y="1599.98">Preven&#xe7;&#xe3;o e redu&#xe7;&#xe3;o da polui&#xe7;&#xe3;o em ambientes internos e externos.&#13;&#10;</tspan><tspan x="76" y="1649.98">Ambientes saud&#xe1;veis, verdes, sem toxinas.&#13;&#10;</tspan><tspan x="76" y="1699.98">Preven&#xe7;&#xe3;o de viol&#xea;ncia familiar e por parceiro &#xed;ntimo.&#13;&#10;</tspan><tspan x="76" y="1749.98">Preven&#xe7;&#xe3;o da aplica&#xe7;&#xe3;o de castigos f&#xed;sicos e humilhantes a crian&#xe7;as.&#13;&#10;</tspan><tspan x="76" y="1799.98">Espa&#xe7;os de lazer seguros em &#xe1;reas urbanas e rurais. &#13;</tspan></text>
<path d="M56.5748 1450.57C53.5488 1452.77 49.2922 1452.36 46.5762 1449.84C45.3855 1448.73 44.5709 1447.29 44.2297 1445.79C44.145 1445.6 44.0842 1445.38 44.0553 1445.14C43.5522 1440.94 46.5364 1436.84 50.7211 1436.1C54.2891 1435.48 58.0091 1437.75 59.4202 1441.01C60.8742 1444.37 59.4712 1448.46 56.5748 1450.57ZM55.7498 1444.44C56.0776 1442.3 54.1042 1440.29 52.0542 1440.21C51.0761 1440.17 50.2078 1440.57 49.5451 1441.2C49.5135 1441.81 49.2067 1442.41 48.71 1442.84C48.483 1443.04 48.3439 1443.3 48.2686 1443.59C48.2112 1443.94 48.1993 1444.29 48.2404 1444.63C48.2422 1444.65 48.242 1444.66 48.2435 1444.68C48.3125 1445.08 48.4534 1445.47 48.6234 1445.77C49.1584 1446.72 50.1656 1447.44 51.2186 1447.72C53.3146 1448.26 55.4228 1446.58 55.7498 1444.44Z" fill="#D3A5D0"/>
<path d="M56.5748 1500.57C53.5488 1502.77 49.2922 1502.36 46.5762 1499.84C45.3855 1498.73 44.5709 1497.29 44.2297 1495.79C44.145 1495.6 44.0842 1495.38 44.0553 1495.14C43.5522 1490.94 46.5364 1486.84 50.7211 1486.1C54.2891 1485.48 58.0091 1487.75 59.4202 1491.01C60.8742 1494.37 59.4712 1498.46 56.5748 1500.57ZM55.7498 1494.44C56.0776 1492.3 54.1042 1490.29 52.0542 1490.21C51.0761 1490.17 50.2078 1490.57 49.5451 1491.2C49.5135 1491.81 49.2067 1492.41 48.71 1492.84C48.483 1493.04 48.3439 1493.3 48.2686 1493.59C48.2112 1493.94 48.1993 1494.29 48.2404 1494.63C48.2422 1494.65 48.242 1494.66 48.2435 1494.68C48.3125 1495.08 48.4534 1495.47 48.6234 1495.77C49.1584 1496.72 50.1656 1497.44 51.2186 1497.72C53.3146 1498.26 55.4228 1496.58 55.7498 1494.44Z" fill="#D3A5D0"/>
<path d="M56.5748 1550.57C53.5488 1552.77 49.2922 1552.36 46.5762 1549.84C45.3855 1548.73 44.5709 1547.29 44.2297 1545.79C44.145 1545.6 44.0842 1545.38 44.0553 1545.14C43.5522 1540.94 46.5364 1536.84 50.7211 1536.1C54.2891 1535.48 58.0091 1537.75 59.4202 1541.01C60.8742 1544.37 59.4712 1548.46 56.5748 1550.57ZM55.7498 1544.44C56.0776 1542.3 54.1042 1540.29 52.0542 1540.21C51.0761 1540.17 50.2078 1540.57 49.5451 1541.2C49.5135 1541.81 49.2067 1542.41 48.71 1542.84C48.483 1543.04 48.3439 1543.3 48.2686 1543.59C48.2112 1543.94 48.1993 1544.29 48.2404 1544.63C48.2422 1544.65 48.242 1544.66 48.2435 1544.68C48.3125 1545.08 48.4534 1545.47 48.6234 1545.77C49.1584 1546.72 50.1656 1547.44 51.2186 1547.72C53.3146 1548.26 55.4228 1546.58 55.7498 1544.44Z" fill="#D3A5D0"/>
<path d="M56.5748 1600.57C53.5488 1602.77 49.2922 1602.36 46.5762 1599.84C45.3855 1598.73 44.5709 1597.29 44.2297 1595.79C44.145 1595.6 44.0842 1595.38 44.0553 1595.14C43.5522 1590.94 46.5364 1586.84 50.7211 1586.1C54.2891 1585.48 58.0091 1587.75 59.4202 1591.01C60.8742 1594.37 59.4712 1598.46 56.5748 1600.57ZM55.7498 1594.44C56.0776 1592.3 54.1042 1590.29 52.0542 1590.21C51.0761 1590.17 50.2078 1590.57 49.5451 1591.2C49.5135 1591.81 49.2067 1592.41 48.71 1592.84C48.483 1593.04 48.3439 1593.3 48.2686 1593.59C48.2112 1593.94 48.1993 1594.29 48.2404 1594.63C48.2422 1594.65 48.242 1594.66 48.2435 1594.68C48.3125 1595.08 48.4534 1595.47 48.6234 1595.77C49.1584 1596.72 50.1656 1597.44 51.2186 1597.72C53.3146 1598.26 55.4228 1596.58 55.7498 1594.44Z" fill="#D3A5D0"/>
<path d="M56.5748 1650.57C53.5488 1652.77 49.2922 1652.36 46.5762 1649.84C45.3855 1648.73 44.5709 1647.29 44.2297 1645.79C44.145 1645.6 44.0842 1645.38 44.0553 1645.14C43.5522 1640.94 46.5364 1636.84 50.7211 1636.1C54.2891 1635.48 58.0091 1637.75 59.4202 1641.01C60.8742 1644.37 59.4712 1648.46 56.5748 1650.57ZM55.7498 1644.44C56.0776 1642.3 54.1042 1640.29 52.0542 1640.21C51.0761 1640.17 50.2078 1640.57 49.5451 1641.2C49.5135 1641.81 49.2067 1642.41 48.71 1642.84C48.483 1643.04 48.3439 1643.3 48.2686 1643.59C48.2112 1643.94 48.1993 1644.29 48.2404 1644.63C48.2422 1644.65 48.242 1644.66 48.2435 1644.68C48.3125 1645.08 48.4534 1645.47 48.6234 1645.77C49.1584 1646.72 50.1656 1647.44 51.2186 1647.72C53.3146 1648.26 55.4228 1646.58 55.7498 1644.44Z" fill="#D3A5D0"/>
<path d="M56.5748 1750.57C53.5488 1752.77 49.2922 1752.36 46.5762 1749.84C45.3855 1748.73 44.5709 1747.29 44.2297 1745.79C44.145 1745.6 44.0842 1745.38 44.0553 1745.14C43.5522 1740.94 46.5364 1736.84 50.7211 1736.1C54.2891 1735.48 58.0091 1737.75 59.4202 1741.01C60.8742 1744.37 59.4712 1748.46 56.5748 1750.57ZM55.7498 1744.44C56.0776 1742.3 54.1042 1740.29 52.0542 1740.21C51.0761 1740.17 50.2078 1740.57 49.5451 1741.2C49.5135 1741.81 49.2067 1742.41 48.71 1742.84C48.483 1743.04 48.3439 1743.3 48.2686 1743.59C48.2112 1743.94 48.1993 1744.29 48.2404 1744.63C48.2422 1744.65 48.242 1744.66 48.2435 1744.68C48.3125 1745.08 48.4534 1745.47 48.6234 1745.77C49.1584 1746.72 50.1656 1747.44 51.2186 1747.72C53.3146 1748.26 55.4228 1746.58 55.7498 1744.44Z" fill="#D3A5D0"/>
<path d="M56.5748 1700.57C53.5488 1702.77 49.2922 1702.36 46.5762 1699.84C45.3855 1698.73 44.5709 1697.29 44.2297 1695.79C44.145 1695.6 44.0842 1695.38 44.0553 1695.14C43.5522 1690.94 46.5364 1686.84 50.7211 1686.1C54.2891 1685.48 58.0091 1687.75 59.4202 1691.01C60.8742 1694.37 59.4712 1698.46 56.5748 1700.57ZM55.7498 1694.44C56.0776 1692.3 54.1042 1690.29 52.0542 1690.21C51.0761 1690.17 50.2078 1690.57 49.5451 1691.2C49.5135 1691.81 49.2067 1692.41 48.71 1692.84C48.483 1693.04 48.3439 1693.3 48.2686 1693.59C48.2112 1693.94 48.1993 1694.29 48.2404 1694.63C48.2422 1694.65 48.242 1694.66 48.2435 1694.68C48.3125 1695.08 48.4534 1695.47 48.6234 1695.77C49.1584 1696.72 50.1656 1697.44 51.2186 1697.72C53.3146 1698.26 55.4228 1696.58 55.7498 1694.44Z" fill="#D3A5D0"/>
<path d="M56.5748 1800.57C53.5488 1802.77 49.2922 1802.36 46.5762 1799.84C45.3855 1798.73 44.5709 1797.29 44.2297 1795.79C44.145 1795.6 44.0842 1795.38 44.0553 1795.14C43.5522 1790.94 46.5364 1786.84 50.7211 1786.1C54.2891 1785.48 58.0091 1787.75 59.4202 1791.01C60.8742 1794.37 59.4712 1798.46 56.5748 1800.57ZM55.7498 1794.44C56.0776 1792.3 54.1042 1790.29 52.0542 1790.21C51.0761 1790.17 50.2078 1790.57 49.5451 1791.2C49.5135 1791.81 49.2067 1792.41 48.71 1792.84C48.483 1793.04 48.3439 1793.3 48.2686 1793.59C48.2112 1793.94 48.1993 1794.29 48.2404 1794.63C48.2422 1794.65 48.242 1794.66 48.2435 1794.68C48.3125 1795.08 48.4534 1795.47 48.6234 1795.77C49.1584 1796.72 50.1656 1797.44 51.2186 1797.72C53.3146 1798.26 55.4228 1796.58 55.7498 1794.44Z" fill="#D3A5D0"/>
<g filter="url(#filter2_d_491_1674)">
<path d="M1015 1594C1084.04 1594 1140 1538.04 1140 1469C1140 1399.96 1084.04 1344 1015 1344C945.964 1344 890 1399.96 890 1469C890 1538.04 945.964 1594 1015 1594Z" fill="white"/>
</g>
<g clip-path="url(#clip2_491_1674)">
<path d="M1015.01 1574.78C1073.42 1574.78 1120.78 1527.42 1120.78 1469C1120.78 1410.59 1073.42 1363.23 1015.01 1363.23C956.589 1363.23 909.232 1410.59 909.232 1469C909.232 1527.42 956.589 1574.78 1015.01 1574.78Z" fill="#D3A5D0"/>
<path d="M1058.21 1530.4H972.258C971.221 1530.4 970.228 1529.99 969.495 1529.26C968.762 1528.52 968.351 1527.53 968.351 1526.49V1460.07L1015.24 1415.14L1062.12 1460.07V1526.49C1062.12 1527.53 1061.71 1528.52 1060.98 1529.26C1060.24 1529.99 1059.25 1530.4 1058.21 1530.4Z" fill="#FCD861"/>
<path d="M1015.24 1415.14L968.351 1460.07C968.348 1461.08 968.642 1462.06 969.197 1462.89C969.751 1463.72 970.541 1464.37 971.466 1464.76C972.39 1465.14 973.408 1465.25 974.391 1465.05C975.374 1464.86 976.276 1464.38 976.985 1463.67L1001.99 1438.96C1005.52 1435.47 1010.28 1433.51 1015.25 1433.51C1020.21 1433.51 1024.97 1435.47 1028.5 1438.96L1050.18 1460.45C1052.1 1462.34 1053.63 1464.61 1054.67 1467.1C1055.71 1469.59 1056.25 1472.26 1056.26 1474.96V1520.63C1056.26 1521.67 1055.85 1522.66 1055.11 1523.4C1054.38 1524.13 1053.39 1524.54 1052.35 1524.54C1050.8 1524.54 1049.31 1525.16 1048.21 1526.26C1047.11 1527.36 1046.49 1528.85 1046.49 1530.4H1058.21C1059.25 1530.4 1060.24 1529.99 1060.98 1529.26C1061.71 1528.52 1062.12 1527.53 1062.12 1526.49V1460.07L1015.24 1415.14Z" fill="#F0C638"/>
<path d="M1034.77 1479.61H995.7V1530.4H1034.77V1479.61Z" fill="#F0C638"/>
<path d="M1030.86 1483.52H999.607V1530.4H1030.86V1483.52Z" fill="#A86624"/>
<path d="M1015.24 1462.03C1019.55 1462.03 1023.05 1458.53 1023.05 1454.21C1023.05 1449.9 1019.55 1446.4 1015.24 1446.4C1010.92 1446.4 1007.42 1449.9 1007.42 1454.21C1007.42 1458.53 1010.92 1462.03 1015.24 1462.03Z" fill="#98BCD7"/>
<path d="M1015.24 1465.94C1012.92 1465.94 1010.65 1465.25 1008.72 1463.96C1006.8 1462.67 1005.29 1460.84 1004.41 1458.7C1003.52 1456.56 1003.29 1454.2 1003.74 1451.93C1004.19 1449.65 1005.31 1447.57 1006.95 1445.93C1008.59 1444.29 1010.68 1443.17 1012.95 1442.72C1015.22 1442.27 1017.58 1442.5 1019.72 1443.39C1021.86 1444.27 1023.69 1445.77 1024.98 1447.7C1026.27 1449.63 1026.96 1451.9 1026.96 1454.21C1026.96 1457.32 1025.72 1460.3 1023.52 1462.5C1021.33 1464.7 1018.34 1465.94 1015.24 1465.94ZM1015.24 1446.4C1013.69 1446.4 1012.18 1446.86 1010.89 1447.72C1009.61 1448.58 1008.61 1449.8 1008.02 1451.22C1007.43 1452.65 1007.27 1454.22 1007.57 1455.74C1007.87 1457.25 1008.62 1458.65 1009.71 1459.74C1010.8 1460.83 1012.2 1461.58 1013.71 1461.88C1015.23 1462.18 1016.8 1462.03 1018.23 1461.43C1019.65 1460.84 1020.87 1459.84 1021.73 1458.56C1022.59 1457.27 1023.05 1455.76 1023.05 1454.21C1023.05 1452.14 1022.23 1450.15 1020.76 1448.69C1019.3 1447.22 1017.31 1446.4 1015.24 1446.4Z" fill="#A86624"/>
<path d="M1015.24 1420.01L967.921 1466.77C967.191 1467.49 966.209 1467.89 965.186 1467.89C964.164 1467.89 963.182 1467.49 962.451 1466.77L959.716 1463.98C959.018 1463.25 958.628 1462.28 958.628 1461.28C958.628 1460.27 959.018 1459.3 959.716 1458.57L1012.46 1406.39C1013.19 1405.68 1014.17 1405.27 1015.2 1405.27C1016.22 1405.27 1017.2 1405.68 1017.93 1406.39L1070.68 1458.57C1071.38 1459.3 1071.77 1460.27 1071.77 1461.28C1071.77 1462.28 1071.38 1463.25 1070.68 1463.98L1067.98 1466.77C1067.25 1467.49 1066.27 1467.89 1065.25 1467.89C1064.22 1467.89 1063.24 1467.49 1062.51 1466.77L1015.24 1420.01Z" fill="#91273E"/>
<path d="M1025 1510.87C1026.08 1510.87 1026.96 1509.99 1026.96 1508.91C1026.96 1507.83 1026.08 1506.96 1025 1506.96C1023.92 1506.96 1023.05 1507.83 1023.05 1508.91C1023.05 1509.99 1023.92 1510.87 1025 1510.87Z" fill="white"/>
</g>
<rect x="20" y="1896" width="1100" height="366" rx="10" fill="url(#paint3_linear_491_1674)"/>
<rect y="1840" width="1140" height="98" rx="10" fill="#B384B0"/>
<text fill="white" xml:space="preserve" style="white-space: pre" font-family="Open Sans" font-size="18" font-weight="bold" letter-spacing="0em"><tspan x="20" y="1869.98">Cuidados responsivos</tspan></text>
<text fill="white" xml:space="preserve" style="white-space: pre" font-family="Open Sans" font-size="18" letter-spacing="0em"><tspan x="20" y="1895.98">Refere-se &#xe0; capacidade dos pais e cuidadores de perceber, entender e responder aos sinais </tspan><tspan x="20" y="1921.98">de seus filhos de maneira oportuna e apropriada para atender &#xe0;s necessidades das crian&#xe7;as.</tspan></text>
<text fill="#292929" xml:space="preserve" style="white-space: pre" font-family="Open Sans" font-size="18" letter-spacing="0em"><tspan x="76" y="1981.98">Contato de pele com pele imediatamente ap&#xf3;s o nascimento.&#13;&#10;</tspan><tspan x="76" y="2031.98">Cuidados afetuosos e seguros de adultos em ambiente familiar.&#13;&#10;</tspan><tspan x="76" y="2081.98">Orienta&#xe7;&#xe3;o das crian&#xe7;as nas atividades cotidianas e nas rela&#xe7;&#xf5;es com outras pessoas.&#13;&#10;</tspan><tspan x="76" y="2131.98">Rotinas di&#xe1;rias de alimenta&#xe7;&#xe3;o e sono.&#13;&#10;</tspan><tspan x="76" y="2181.98">Participa&#xe7;&#xe3;o do pai, da fam&#xed;lia ampliada e de outros parceiros.&#13;&#10;</tspan><tspan x="76" y="2231.98">Apoio social por fam&#xed;lias, grupos comunit&#xe1;rios e comunidades religiosas.&#13;</tspan></text>
<path d="M56.5748 1982.57C53.5488 1984.77 49.2922 1984.36 46.5762 1981.84C45.3855 1980.73 44.5709 1979.29 44.2297 1977.79C44.145 1977.6 44.0842 1977.38 44.0553 1977.14C43.5522 1972.94 46.5364 1968.84 50.7211 1968.1C54.2891 1967.48 58.0091 1969.75 59.4202 1973.01C60.8742 1976.37 59.4712 1980.46 56.5748 1982.57ZM55.7498 1976.44C56.0776 1974.3 54.1042 1972.29 52.0542 1972.21C51.0761 1972.17 50.2078 1972.57 49.5451 1973.2C49.5135 1973.81 49.2067 1974.41 48.71 1974.84C48.483 1975.04 48.3439 1975.3 48.2686 1975.59C48.2112 1975.94 48.1993 1976.29 48.2404 1976.63C48.2422 1976.65 48.242 1976.66 48.2435 1976.68C48.3125 1977.08 48.4534 1977.47 48.6234 1977.77C49.1584 1978.72 50.1656 1979.44 51.2186 1979.72C53.3146 1980.26 55.4228 1978.58 55.7498 1976.44Z" fill="#D3A5D0"/>
<path d="M56.5748 2032.57C53.5488 2034.77 49.2922 2034.36 46.5762 2031.84C45.3855 2030.73 44.5709 2029.29 44.2297 2027.79C44.145 2027.6 44.0842 2027.38 44.0553 2027.14C43.5522 2022.94 46.5364 2018.84 50.7211 2018.1C54.2891 2017.48 58.0091 2019.75 59.4202 2023.01C60.8742 2026.37 59.4712 2030.46 56.5748 2032.57ZM55.7498 2026.44C56.0776 2024.3 54.1042 2022.29 52.0542 2022.21C51.0761 2022.17 50.2078 2022.57 49.5451 2023.2C49.5135 2023.81 49.2067 2024.41 48.71 2024.84C48.483 2025.04 48.3439 2025.3 48.2686 2025.59C48.2112 2025.94 48.1993 2026.29 48.2404 2026.63C48.2422 2026.65 48.242 2026.66 48.2435 2026.68C48.3125 2027.08 48.4534 2027.47 48.6234 2027.77C49.1584 2028.72 50.1656 2029.44 51.2186 2029.72C53.3146 2030.26 55.4228 2028.58 55.7498 2026.44Z" fill="#D3A5D0"/>
<path d="M56.5748 2082.57C53.5488 2084.77 49.2922 2084.36 46.5762 2081.84C45.3855 2080.73 44.5709 2079.29 44.2297 2077.79C44.145 2077.6 44.0842 2077.38 44.0553 2077.14C43.5522 2072.94 46.5364 2068.84 50.7211 2068.1C54.2891 2067.48 58.0091 2069.75 59.4202 2073.01C60.8742 2076.37 59.4712 2080.46 56.5748 2082.57ZM55.7498 2076.44C56.0776 2074.3 54.1042 2072.29 52.0542 2072.21C51.0761 2072.17 50.2078 2072.57 49.5451 2073.2C49.5135 2073.81 49.2067 2074.41 48.71 2074.84C48.483 2075.04 48.3439 2075.3 48.2686 2075.59C48.2112 2075.94 48.1993 2076.29 48.2404 2076.63C48.2422 2076.65 48.242 2076.66 48.2435 2076.68C48.3125 2077.08 48.4534 2077.47 48.6234 2077.77C49.1584 2078.72 50.1656 2079.44 51.2186 2079.72C53.3146 2080.26 55.4228 2078.58 55.7498 2076.44Z" fill="#D3A5D0"/>
<path d="M56.5748 2132.57C53.5488 2134.77 49.2922 2134.36 46.5762 2131.84C45.3855 2130.73 44.5709 2129.29 44.2297 2127.79C44.145 2127.6 44.0842 2127.38 44.0553 2127.14C43.5522 2122.94 46.5364 2118.84 50.7211 2118.1C54.2891 2117.48 58.0091 2119.75 59.4202 2123.01C60.8742 2126.37 59.4712 2130.46 56.5748 2132.57ZM55.7498 2126.44C56.0776 2124.3 54.1042 2122.29 52.0542 2122.21C51.0761 2122.17 50.2078 2122.57 49.5451 2123.2C49.5135 2123.81 49.2067 2124.41 48.71 2124.84C48.483 2125.04 48.3439 2125.3 48.2686 2125.59C48.2112 2125.94 48.1993 2126.29 48.2404 2126.63C48.2422 2126.65 48.242 2126.66 48.2435 2126.68C48.3125 2127.08 48.4534 2127.47 48.6234 2127.77C49.1584 2128.72 50.1656 2129.44 51.2186 2129.72C53.3146 2130.26 55.4228 2128.58 55.7498 2126.44Z" fill="#D3A5D0"/>
<path d="M56.5748 2182.57C53.5488 2184.77 49.2922 2184.36 46.5762 2181.84C45.3855 2180.73 44.5709 2179.29 44.2297 2177.79C44.145 2177.6 44.0842 2177.38 44.0553 2177.14C43.5522 2172.94 46.5364 2168.84 50.7211 2168.1C54.2891 2167.48 58.0091 2169.75 59.4202 2173.01C60.8742 2176.37 59.4712 2180.46 56.5748 2182.57ZM55.7498 2176.44C56.0776 2174.3 54.1042 2172.29 52.0542 2172.21C51.0761 2172.17 50.2078 2172.57 49.5451 2173.2C49.5135 2173.81 49.2067 2174.41 48.71 2174.84C48.483 2175.04 48.3439 2175.3 48.2686 2175.59C48.2112 2175.94 48.1993 2176.29 48.2404 2176.63C48.2422 2176.65 48.242 2176.66 48.2435 2176.68C48.3125 2177.08 48.4534 2177.47 48.6234 2177.77C49.1584 2178.72 50.1656 2179.44 51.2186 2179.72C53.3146 2180.26 55.4228 2178.58 55.7498 2176.44Z" fill="#D3A5D0"/>
<path d="M56.5748 2232.57C53.5488 2234.77 49.2922 2234.36 46.5762 2231.84C45.3855 2230.73 44.5709 2229.29 44.2297 2227.79C44.145 2227.6 44.0842 2227.38 44.0553 2227.14C43.5522 2222.94 46.5364 2218.84 50.7211 2218.1C54.2891 2217.48 58.0091 2219.75 59.4202 2223.01C60.8742 2226.37 59.4712 2230.46 56.5748 2232.57ZM55.7498 2226.44C56.0776 2224.3 54.1042 2222.29 52.0542 2222.21C51.0761 2222.17 50.2078 2222.57 49.5451 2223.2C49.5135 2223.81 49.2067 2224.41 48.71 2224.84C48.483 2225.04 48.3439 2225.3 48.2686 2225.59C48.2112 2225.94 48.1993 2226.29 48.2404 2226.63C48.2422 2226.65 48.242 2226.66 48.2435 2226.68C48.3125 2227.08 48.4534 2227.47 48.6234 2227.77C49.1584 2228.72 50.1656 2229.44 51.2186 2229.72C53.3146 2230.26 55.4228 2228.58 55.7498 2226.44Z" fill="#D3A5D0"/>
<g filter="url(#filter3_d_491_1674)">
<path d="M1015 2100C1084.04 2100 1140 2044.04 1140 1975C1140 1905.96 1084.04 1850 1015 1850C945.964 1850 890 1905.96 890 1975C890 2044.04 945.964 2100 1015 2100Z" fill="white"/>
</g>
<g clip-path="url(#clip3_491_1674)">
<path d="M1015.01 2080.78C1073.42 2080.78 1120.78 2033.42 1120.78 1975C1120.78 1916.59 1073.42 1869.23 1015.01 1869.23C956.589 1869.23 909.232 1916.59 909.232 1975C909.232 2033.42 956.589 2080.78 1015.01 2080.78Z" fill="#D3A5D0"/>
<path d="M1032.52 1955.26C1032.52 1955.26 1030 1956.74 1029.67 1958.83L1037.06 1959.87L1032.52 1955.26Z" fill="#F1F1F4"/>
<path d="M1014.65 1992.45C1014.65 1992.45 1015.42 2004.89 1021.61 2009.16C1027.8 2013.44 1047.26 2007.25 1047.26 2007.25L1036.08 1996.07L1014.65 1992.45Z" fill="#FDD4AA"/>
<g opacity="0.4">
<path d="M1014.65 1992.45C1014.65 1992.45 1015.42 2004.89 1021.61 2009.16C1027.8 2013.44 1047.26 2007.25 1047.26 2007.25L1036.08 1996.07L1014.65 1992.45Z" fill="#F9BA7A"/>
</g>
<path d="M975.965 1970.1C975.965 1970.1 975.362 1984.35 971.308 1987.52C967.253 1990.76 959.91 1999.03 957.115 2003.85C957.115 2003.85 946.594 2005 946.375 2007.74C946.101 2010.48 961.28 2011.85 967.691 2007.74C974.102 2003.63 986.431 1999.63 990.048 1984.35L975.965 1970.1Z" fill="#FDD4AA"/>
<g opacity="0.4">
<path d="M975.965 1970.1C975.965 1970.1 975.362 1984.35 971.308 1987.52C967.253 1990.76 959.91 1999.03 957.115 2003.85C957.115 2003.85 946.594 2005 946.375 2007.74C946.101 2010.48 961.28 2011.85 967.691 2007.74C974.102 2003.63 986.431 1999.63 990.048 1984.35L975.965 1970.1Z" fill="#F9BA7A"/>
</g>
<path d="M989.557 1952.42C989.557 1952.42 1029.28 1957.08 1036.63 1958.94C1036.63 1958.94 1047.2 1988.04 1037.56 1997.57C1027.91 2007.11 1030.65 2003.49 1030.65 2003.49C1030.65 2003.49 990.27 2008.97 974.653 1968.15L989.557 1952.42Z" fill="#FDD4AA"/>
<path d="M992.57 1941.73C994.324 1939.92 994.05 1936.8 991.967 1934.77C989.94 1932.8 986.926 1932.58 985.118 1934.28C984.953 1934.17 984.789 1934.01 984.625 1933.9C982.488 1930.5 968.953 1911.16 949.391 1927.65C929.719 1944.31 945.5 1961.57 951.966 1967.49C953.445 1969.4 955.199 1971.16 957.226 1972.58C968.131 1980.47 980.241 1975.27 988.132 1964.36C993.282 1957.19 994.324 1949.35 991.419 1942.5C991.858 1942.34 992.241 1942.12 992.57 1941.73Z" fill="#FFE0C2"/>
<path d="M951.089 1924.2C952.678 1923.98 953.884 1925.46 953.446 1926.99C953.226 1927.65 952.898 1928.42 952.404 1929.13C947.747 1935.7 939.911 1938.22 936.568 1926.77C936.568 1926.77 943.692 1932.47 946.541 1927.54C947.911 1925.18 949.665 1924.36 951.089 1924.2Z" fill="#A86624"/>
<path d="M990.652 1978.5C990.652 1978.5 990.871 1991.55 988.734 1997.52C986.542 2003.49 984.186 2014.07 983.802 2019.11C983.802 2019.11 976.569 2017.74 971.364 2024.15C967.473 2028.97 991.2 2031.05 993.72 2026.01C996.241 2020.97 1004.52 2005.35 1005.89 1997.08C1007.26 1988.81 1012.79 1966.34 1000.35 1966.34C987.912 1966.34 990.652 1978.5 990.652 1978.5Z" fill="#FFE0C2"/>
<path d="M1022.21 2003.59C1022.21 2003.59 1031.59 1993.35 1034.32 1984.63C1037.06 1975.92 1036.19 1960.74 1032.46 1955.26L1044.85 1958.94C1044.85 1958.94 1068.24 1966.72 1065.07 1987.43C1061.83 2008.09 1054.05 2009.18 1048.52 2010.72C1042.98 2012.25 1025.23 2008.36 1022.21 2003.59Z" fill="#D4D5DD"/>
<path d="M1040.84 1989.46C1040.46 1993.9 1041.83 1998.34 1044.41 2002.01C1047.69 2006.72 1053.23 2013.63 1058.21 2014.34C1065.78 2015.38 1079.2 2008.7 1082 2006.01C1082 2006.01 1084.41 2010.07 1082 2014.45C1079.58 2018.83 1087.53 2019.87 1091.31 2016.75C1095.09 2013.63 1095.8 2010.23 1095.42 2006.39C1095.09 2002.61 1095.09 1991.93 1087.48 1993.63L1082.32 1994.56C1082.32 1994.56 1072.24 1992.26 1065.39 1995.65L1063.04 1986.34C1063.04 1986.34 1060.63 1974.34 1048.9 1978.28C1043.04 1980.26 1041.23 1985.13 1040.84 1989.46Z" fill="#FFE0C2"/>
</g>
<rect x="20" y="2328" width="1100" height="366" rx="10" fill="url(#paint4_linear_491_1674)"/>
<rect y="2272" width="1140" height="98" rx="10" fill="#B384B0"/>
<text fill="white" xml:space="preserve" style="white-space: pre" font-family="Open Sans" font-size="18" font-weight="bold" letter-spacing="0em"><tspan x="20" y="2301.98">Aprendizagem precoce</tspan></text>
<text fill="white" xml:space="preserve" style="white-space: pre" font-family="Open Sans" font-size="18" letter-spacing="0em"><tspan x="20" y="2327.98">Refere-se &#xe0;s oportunidades e experi&#xea;ncias de a crian&#xe7;a interagir com uma pessoa, lugar ou </tspan><tspan x="20" y="2353.98">objeto em seu ambiente.</tspan></text>
<text fill="#292929" xml:space="preserve" style="white-space: pre" font-family="Open Sans" font-size="18" letter-spacing="0em"><tspan x="76" y="2413.98">Resposta &#xe0; comunica&#xe7;&#xe3;o da crian&#xe7;a por meio de sons, express&#xf5;es faciais e gestos. &#13;&#10;</tspan><tspan x="76" y="2463.98">Estimula&#xe7;&#xe3;o da linguagem ao falar com a crian&#xe7;a e cantar para ela.&#13;&#10;</tspan><tspan x="76" y="2513.98">Incentivo para explorar objetos com orienta&#xe7;&#xe3;o dos cuidadores.&#13;&#10;</tspan><tspan x="76" y="2563.98">Grupos de brincadeiras de cuidadores com crian&#xe7;as e de leitura e conta&#xe7;&#xe3;o de hist&#xf3;rias.&#13;&#10;</tspan><tspan x="76" y="2613.98">Brinquedotecas e bibliotecas m&#xf3;veis. &#13;&#10;</tspan><tspan x="76" y="2663.98">Creche e educa&#xe7;&#xe3;o infantil de qualidade.&#13;</tspan></text>
<path d="M56.5748 2414.57C53.5488 2416.77 49.2922 2416.36 46.5762 2413.84C45.3855 2412.73 44.5709 2411.29 44.2297 2409.79C44.145 2409.6 44.0842 2409.38 44.0553 2409.14C43.5522 2404.94 46.5364 2400.84 50.7211 2400.1C54.2891 2399.48 58.0091 2401.75 59.4202 2405.01C60.8742 2408.37 59.4712 2412.46 56.5748 2414.57ZM55.7498 2408.44C56.0776 2406.3 54.1042 2404.29 52.0542 2404.21C51.0761 2404.17 50.2078 2404.57 49.5451 2405.2C49.5135 2405.81 49.2067 2406.41 48.71 2406.84C48.483 2407.04 48.3439 2407.3 48.2686 2407.59C48.2112 2407.94 48.1993 2408.29 48.2404 2408.63C48.2422 2408.65 48.242 2408.66 48.2435 2408.68C48.3125 2409.08 48.4534 2409.47 48.6234 2409.77C49.1584 2410.72 50.1656 2411.44 51.2186 2411.72C53.3146 2412.26 55.4228 2410.58 55.7498 2408.44Z" fill="#D3A5D0"/>
<path d="M56.5748 2464.57C53.5488 2466.77 49.2922 2466.36 46.5762 2463.84C45.3855 2462.73 44.5709 2461.29 44.2297 2459.79C44.145 2459.6 44.0842 2459.38 44.0553 2459.14C43.5522 2454.94 46.5364 2450.84 50.7211 2450.1C54.2891 2449.48 58.0091 2451.75 59.4202 2455.01C60.8742 2458.37 59.4712 2462.46 56.5748 2464.57ZM55.7498 2458.44C56.0776 2456.3 54.1042 2454.29 52.0542 2454.21C51.0761 2454.17 50.2078 2454.57 49.5451 2455.2C49.5135 2455.81 49.2067 2456.41 48.71 2456.84C48.483 2457.04 48.3439 2457.3 48.2686 2457.59C48.2112 2457.94 48.1993 2458.29 48.2404 2458.63C48.2422 2458.65 48.242 2458.66 48.2435 2458.68C48.3125 2459.08 48.4534 2459.47 48.6234 2459.77C49.1584 2460.72 50.1656 2461.44 51.2186 2461.72C53.3146 2462.26 55.4228 2460.58 55.7498 2458.44Z" fill="#D3A5D0"/>
<path d="M56.5748 2514.57C53.5488 2516.77 49.2922 2516.36 46.5762 2513.84C45.3855 2512.73 44.5709 2511.29 44.2297 2509.79C44.145 2509.6 44.0842 2509.38 44.0553 2509.14C43.5522 2504.94 46.5364 2500.84 50.7211 2500.1C54.2891 2499.48 58.0091 2501.75 59.4202 2505.01C60.8742 2508.37 59.4712 2512.46 56.5748 2514.57ZM55.7498 2508.44C56.0776 2506.3 54.1042 2504.29 52.0542 2504.21C51.0761 2504.17 50.2078 2504.57 49.5451 2505.2C49.5135 2505.81 49.2067 2506.41 48.71 2506.84C48.483 2507.04 48.3439 2507.3 48.2686 2507.59C48.2112 2507.94 48.1993 2508.29 48.2404 2508.63C48.2422 2508.65 48.242 2508.66 48.2435 2508.68C48.3125 2509.08 48.4534 2509.47 48.6234 2509.77C49.1584 2510.72 50.1656 2511.44 51.2186 2511.72C53.3146 2512.26 55.4228 2510.58 55.7498 2508.44Z" fill="#D3A5D0"/>
<path d="M56.5748 2564.57C53.5488 2566.77 49.2922 2566.36 46.5762 2563.84C45.3855 2562.73 44.5709 2561.29 44.2297 2559.79C44.145 2559.6 44.0842 2559.38 44.0553 2559.14C43.5522 2554.94 46.5364 2550.84 50.7211 2550.1C54.2891 2549.48 58.0091 2551.75 59.4202 2555.01C60.8742 2558.37 59.4712 2562.46 56.5748 2564.57ZM55.7498 2558.44C56.0776 2556.3 54.1042 2554.29 52.0542 2554.21C51.0761 2554.17 50.2078 2554.57 49.5451 2555.2C49.5135 2555.81 49.2067 2556.41 48.71 2556.84C48.483 2557.04 48.3439 2557.3 48.2686 2557.59C48.2112 2557.94 48.1993 2558.29 48.2404 2558.63C48.2422 2558.65 48.242 2558.66 48.2435 2558.68C48.3125 2559.08 48.4534 2559.47 48.6234 2559.77C49.1584 2560.72 50.1656 2561.44 51.2186 2561.72C53.3146 2562.26 55.4228 2560.58 55.7498 2558.44Z" fill="#D3A5D0"/>
<path d="M56.5748 2614.57C53.5488 2616.77 49.2922 2616.36 46.5762 2613.84C45.3855 2612.73 44.5709 2611.29 44.2297 2609.79C44.145 2609.6 44.0842 2609.38 44.0553 2609.14C43.5522 2604.94 46.5364 2600.84 50.7211 2600.1C54.2891 2599.48 58.0091 2601.75 59.4202 2605.01C60.8742 2608.37 59.4712 2612.46 56.5748 2614.57ZM55.7498 2608.44C56.0776 2606.3 54.1042 2604.29 52.0542 2604.21C51.0761 2604.17 50.2078 2604.57 49.5451 2605.2C49.5135 2605.81 49.2067 2606.41 48.71 2606.84C48.483 2607.04 48.3439 2607.3 48.2686 2607.59C48.2112 2607.94 48.1993 2608.29 48.2404 2608.63C48.2422 2608.65 48.242 2608.66 48.2435 2608.68C48.3125 2609.08 48.4534 2609.47 48.6234 2609.77C49.1584 2610.72 50.1656 2611.44 51.2186 2611.72C53.3146 2612.26 55.4228 2610.58 55.7498 2608.44Z" fill="#D3A5D0"/>
<path d="M56.5748 2664.57C53.5488 2666.77 49.2922 2666.36 46.5762 2663.84C45.3855 2662.73 44.5709 2661.29 44.2297 2659.79C44.145 2659.6 44.0842 2659.38 44.0553 2659.14C43.5522 2654.94 46.5364 2650.84 50.7211 2650.1C54.2891 2649.48 58.0091 2651.75 59.4202 2655.01C60.8742 2658.37 59.4712 2662.46 56.5748 2664.57ZM55.7498 2658.44C56.0776 2656.3 54.1042 2654.29 52.0542 2654.21C51.0761 2654.17 50.2078 2654.57 49.5451 2655.2C49.5135 2655.81 49.2067 2656.41 48.71 2656.84C48.483 2657.04 48.3439 2657.3 48.2686 2657.59C48.2112 2657.94 48.1993 2658.29 48.2404 2658.63C48.2422 2658.65 48.242 2658.66 48.2435 2658.68C48.3125 2659.08 48.4534 2659.47 48.6234 2659.77C49.1584 2660.72 50.1656 2661.44 51.2186 2661.72C53.3146 2662.26 55.4228 2660.58 55.7498 2658.44Z" fill="#D3A5D0"/>
<g filter="url(#filter4_d_491_1674)">
<path d="M1015 2532C1084.04 2532 1140 2476.04 1140 2407C1140 2337.96 1084.04 2282 1015 2282C945.964 2282 890 2337.96 890 2407C890 2476.04 945.964 2532 1015 2532Z" fill="white"/>
</g>
<g clip-path="url(#clip4_491_1674)">
<path d="M1015.01 2512.78C1073.42 2512.78 1120.78 2465.42 1120.78 2407C1120.78 2348.59 1073.42 2301.23 1015.01 2301.23C956.589 2301.23 909.232 2348.59 909.232 2407C909.232 2465.42 956.589 2512.78 1015.01 2512.78Z" fill="#D3A5D0"/>
<path d="M1013.84 2428.6C1022.35 2418.03 1028.91 2409.33 1033.34 2402.73C1036 2398.76 1037.84 2395.65 1038.96 2393.2C1039.73 2391.54 1041.51 2387.67 1039.13 2385.3C1036.76 2382.92 1032.89 2384.71 1031.23 2385.46C1028.78 2386.59 1025.67 2388.43 1021.7 2391.09C1015.1 2395.52 1006.4 2402.08 995.833 2410.59C977.158 2425.63 958.454 2442.12 955.213 2445.37C951.553 2449.03 949.289 2453.69 948.84 2458.48C948.375 2463.46 949.91 2468.01 953.167 2471.26C956.424 2474.52 960.965 2476.05 965.951 2475.59C970.744 2475.14 975.4 2472.88 979.064 2469.22C982.304 2465.98 998.802 2447.27 1013.84 2428.6ZM963.596 2460.79C962.497 2459.7 962.497 2457.92 963.596 2456.82C964.691 2455.72 966.474 2455.72 967.569 2456.82C968.668 2457.92 968.668 2459.7 967.569 2460.79C966.474 2461.89 964.691 2461.89 963.596 2460.79Z" fill="#83BEB7"/>
<path d="M975.251 2449.48C974.155 2448.38 974.155 2446.6 975.251 2445.5L1011.51 2409.24C1012.61 2408.14 1014.39 2408.14 1015.49 2409.24C1016.59 2410.33 1016.59 2412.11 1015.49 2413.21L979.228 2449.48C978.129 2450.57 976.35 2450.57 975.251 2449.48Z" fill="#D14766"/>
<path d="M1083.63 2382.92C1083.63 2371.66 1079.24 2361.07 1071.28 2353.11C1063.32 2345.15 1052.73 2340.76 1041.47 2340.76C1030.21 2340.76 1019.62 2345.15 1011.66 2353.11C1003.7 2361.07 999.308 2371.66 999.308 2382.92C999.308 2394.18 1003.7 2404.77 1011.66 2412.73C1011.66 2412.73 1011.66 2412.73 1011.66 2412.73C1019.62 2420.7 1030.21 2425.08 1041.47 2425.08C1052.73 2425.08 1063.32 2420.7 1071.28 2412.73C1079.24 2404.77 1083.63 2394.18 1083.63 2382.92Z" fill="#92D3CA"/>
<path d="M1022.15 2345.42C1018.33 2347.4 1014.79 2349.98 1011.66 2353.11C1009.36 2355.41 1007.36 2357.93 1005.67 2360.62C1009.92 2365.98 1018.11 2375.46 1033.28 2390.63C1048.98 2406.33 1058.59 2414.56 1063.84 2418.67C1066.5 2417 1069 2415.01 1071.28 2412.73C1074.42 2409.59 1077 2406.04 1078.98 2402.2C1073.57 2397.88 1064.17 2389.72 1049.29 2374.84C1034.66 2360.21 1026.52 2350.87 1022.15 2345.42Z" fill="#ED5E7E"/>
<path d="M1045.3 2386.75C1043.11 2388.95 1039.55 2388.95 1037.36 2386.75C1035.16 2384.56 1035.16 2381 1037.36 2378.8C1039.55 2376.61 1043.11 2376.61 1045.3 2378.8C1047.5 2381 1047.5 2384.56 1045.3 2386.75Z" fill="#D14766"/>
<path d="M1029.85 2370.31C1027.66 2372.5 1024.1 2372.5 1021.9 2370.31C1019.71 2368.11 1019.71 2364.56 1021.9 2362.36C1024.1 2360.16 1027.66 2360.16 1029.85 2362.36C1032.05 2364.56 1032.05 2368.11 1029.85 2370.31Z" fill="#D14766"/>
<path d="M1061.65 2402.11C1059.46 2404.3 1055.9 2404.3 1053.7 2402.11C1051.51 2399.92 1051.51 2396.35 1053.7 2394.16C1055.9 2391.97 1059.46 2391.97 1061.65 2394.16C1063.85 2396.35 1063.85 2399.92 1061.65 2402.11Z" fill="#D14766"/>
<path d="M1059.4 2344.74C1059.41 2344.76 1061.26 2351.21 1067.08 2357.03C1072.89 2362.85 1079.63 2364.98 1079.65 2364.99C1077.6 2360.63 1074.79 2356.62 1071.28 2353.11C1067.77 2349.6 1063.76 2346.79 1059.4 2344.74Z" fill="#ED5E7E"/>
<path opacity="0.2" d="M1083.63 2382.92C1083.63 2371.66 1079.24 2361.07 1071.28 2353.11C1070.61 2352.44 1069.93 2351.8 1069.23 2351.19C1075.97 2358.88 1079.65 2368.63 1079.65 2378.95C1079.65 2390.21 1075.26 2400.79 1067.3 2408.76C1059.34 2416.72 1048.75 2421.1 1037.49 2421.1C1027.18 2421.1 1017.42 2417.42 1009.74 2410.68C1010.35 2411.38 1010.99 2412.07 1011.66 2412.73C1011.66 2412.73 1011.66 2412.73 1011.66 2412.73C1019.62 2420.7 1030.21 2425.08 1041.47 2425.08C1052.73 2425.08 1063.32 2420.7 1071.28 2412.73C1079.24 2404.77 1083.63 2394.18 1083.63 2382.92Z" fill="white"/>
</g>
<defs>
<filter id="filter0_d_491_1674" x="889" y="56" width="258" height="258" filterUnits="userSpaceOnUse" color-interpolation-filters="sRGB">
<feFlood flood-opacity="0" result="BackgroundImageFix"/>
<feColorMatrix in="SourceAlpha" type="matrix" values="0 0 0 0 0 0 0 0 0 0 0 0 0 0 0 0 0 0 127 0" result="hardAlpha"/>
<feOffset dx="3" dy="4"/>
<feGaussianBlur stdDeviation="2"/>
<feComposite in2="hardAlpha" operator="out"/>
<feColorMatrix type="matrix" values="0 0 0 0 0 0 0 0 0 0 0 0 0 0 0 0 0 0 0.25 0"/>
<feBlend mode="normal" in2="BackgroundImageFix" result="effect1_dropShadow_491_1674"/>
<feBlend mode="normal" in="SourceGraphic" in2="effect1_dropShadow_491_1674" result="shape"/>
</filter>
<filter id="filter1_d_491_1674" x="889" y="912" width="258" height="258" filterUnits="userSpaceOnUse" color-interpolation-filters="sRGB">
<feFlood flood-opacity="0" result="BackgroundImageFix"/>
<feColorMatrix in="SourceAlpha" type="matrix" values="0 0 0 0 0 0 0 0 0 0 0 0 0 0 0 0 0 0 127 0" result="hardAlpha"/>
<feOffset dx="3" dy="4"/>
<feGaussianBlur stdDeviation="2"/>
<feComposite in2="hardAlpha" operator="out"/>
<feColorMatrix type="matrix" values="0 0 0 0 0 0 0 0 0 0 0 0 0 0 0 0 0 0 0.25 0"/>
<feBlend mode="normal" in2="BackgroundImageFix" result="effect1_dropShadow_491_1674"/>
<feBlend mode="normal" in="SourceGraphic" in2="effect1_dropShadow_491_1674" result="shape"/>
</filter>
<filter id="filter2_d_491_1674" x="889" y="1344" width="258" height="258" filterUnits="userSpaceOnUse" color-interpolation-filters="sRGB">
<feFlood flood-opacity="0" result="BackgroundImageFix"/>
<feColorMatrix in="SourceAlpha" type="matrix" values="0 0 0 0 0 0 0 0 0 0 0 0 0 0 0 0 0 0 127 0" result="hardAlpha"/>
<feOffset dx="3" dy="4"/>
<feGaussianBlur stdDeviation="2"/>
<feComposite in2="hardAlpha" operator="out"/>
<feColorMatrix type="matrix" values="0 0 0 0 0 0 0 0 0 0 0 0 0 0 0 0 0 0 0.25 0"/>
<feBlend mode="normal" in2="BackgroundImageFix" result="effect1_dropShadow_491_1674"/>
<feBlend mode="normal" in="SourceGraphic" in2="effect1_dropShadow_491_1674" result="shape"/>
</filter>
<filter id="filter3_d_491_1674" x="889" y="1850" width="258" height="258" filterUnits="userSpaceOnUse" color-interpolation-filters="sRGB">
<feFlood flood-opacity="0" result="BackgroundImageFix"/>
<feColorMatrix in="SourceAlpha" type="matrix" values="0 0 0 0 0 0 0 0 0 0 0 0 0 0 0 0 0 0 127 0" result="hardAlpha"/>
<feOffset dx="3" dy="4"/>
<feGaussianBlur stdDeviation="2"/>
<feComposite in2="hardAlpha" operator="out"/>
<feColorMatrix type="matrix" values="0 0 0 0 0 0 0 0 0 0 0 0 0 0 0 0 0 0 0.25 0"/>
<feBlend mode="normal" in2="BackgroundImageFix" result="effect1_dropShadow_491_1674"/>
<feBlend mode="normal" in="SourceGraphic" in2="effect1_dropShadow_491_1674" result="shape"/>
</filter>
<filter id="filter4_d_491_1674" x="889" y="2282" width="258" height="258" filterUnits="userSpaceOnUse" color-interpolation-filters="sRGB">
<feFlood flood-opacity="0" result="BackgroundImageFix"/>
<feColorMatrix in="SourceAlpha" type="matrix" values="0 0 0 0 0 0 0 0 0 0 0 0 0 0 0 0 0 0 127 0" result="hardAlpha"/>
<feOffset dx="3" dy="4"/>
<feGaussianBlur stdDeviation="2"/>
<feComposite in2="hardAlpha" operator="out"/>
<feColorMatrix type="matrix" values="0 0 0 0 0 0 0 0 0 0 0 0 0 0 0 0 0 0 0.25 0"/>
<feBlend mode="normal" in2="BackgroundImageFix" result="effect1_dropShadow_491_1674"/>
<feBlend mode="normal" in="SourceGraphic" in2="effect1_dropShadow_491_1674" result="shape"/>
</filter>
<linearGradient id="paint0_linear_491_1674" x1="570" y1="892" x2="570" y2="98" gradientUnits="userSpaceOnUse">
<stop stop-color="#E3E5F7"/>
<stop offset="1" stop-color="#DBEDFA"/>
</linearGradient>
<linearGradient id="paint1_linear_491_1674" x1="570" y1="1324" x2="570" y2="958" gradientUnits="userSpaceOnUse">
<stop stop-color="#E3E5F7"/>
<stop offset="1" stop-color="#DBEDFA"/>
</linearGradient>
<linearGradient id="paint2_linear_491_1674" x1="570" y1="1830" x2="570" y2="1390" gradientUnits="userSpaceOnUse">
<stop stop-color="#E3E5F7"/>
<stop offset="1" stop-color="#DBEDFA"/>
</linearGradient>
<linearGradient id="paint3_linear_491_1674" x1="570" y1="2262" x2="570" y2="1896" gradientUnits="userSpaceOnUse">
<stop stop-color="#E3E5F7"/>
<stop offset="1" stop-color="#DBEDFA"/>
</linearGradient>
<linearGradient id="paint4_linear_491_1674" x1="570" y1="2694" x2="570" y2="2328" gradientUnits="userSpaceOnUse">
<stop stop-color="#E3E5F7"/>
<stop offset="1" stop-color="#DBEDFA"/>
</linearGradient>
<clipPath id="clip0_491_1674">
<rect width="211.538" height="211.538" fill="white" transform="translate(909.232 75.2305)"/>
</clipPath>
<clipPath id="clip1_491_1674">
<rect width="211.538" height="211.538" fill="white" transform="translate(909.232 931.23)"/>
</clipPath>
<clipPath id="clip2_491_1674">
<rect width="211.538" height="211.538" fill="white" transform="translate(909.232 1363.23)"/>
</clipPath>
<clipPath id="clip3_491_1674">
<rect width="211.538" height="211.538" fill="white" transform="translate(909.232 1869.23)"/>
</clipPath>
<clipPath id="clip4_491_1674">
<rect width="211.538" height="211.538" fill="white" transform="translate(909.232 2301.23)"/>
</clipPath>
</defs>
</svg>
