<svg width="558" height="182" viewBox="0 0 558 182" fill="none" xmlns="http://www.w3.org/2000/svg">
<path d="M138.781 13.7246C138.781 15.3327 138.472 16.6771 137.854 17.7578C137.242 18.832 136.353 19.6426 135.188 20.1895C134.022 20.7298 132.619 21 130.979 21H126.936V6.72266H131.418C132.915 6.72266 134.214 6.98958 135.314 7.52344C136.415 8.05078 137.268 8.83529 137.873 9.87695C138.479 10.9121 138.781 12.1947 138.781 13.7246ZM135.637 13.8027C135.637 12.748 135.48 11.8822 135.168 11.2051C134.862 10.5215 134.406 10.0169 133.801 9.69141C133.202 9.36589 132.46 9.20312 131.574 9.20312H129.963V18.5H131.262C132.74 18.5 133.837 18.1061 134.553 17.3184C135.275 16.5306 135.637 15.3587 135.637 13.8027ZM146.301 6.72266C148.143 6.72266 149.488 7.11979 150.334 7.91406C151.18 8.70182 151.604 9.78906 151.604 11.1758C151.604 11.8008 151.509 12.3997 151.32 12.9727C151.132 13.5391 150.822 14.0436 150.393 14.4863C149.969 14.929 149.403 15.2806 148.693 15.541C147.984 15.7949 147.108 15.9219 146.066 15.9219H144.768V21H141.74V6.72266H146.301ZM146.145 9.20312H144.768V13.4414H145.764C146.33 13.4414 146.822 13.3665 147.238 13.2168C147.655 13.0671 147.977 12.8327 148.205 12.5137C148.433 12.1947 148.547 11.7845 148.547 11.2832C148.547 10.5801 148.352 10.0592 147.961 9.7207C147.57 9.37565 146.965 9.20312 146.145 9.20312ZM166.965 21H163.117L156.906 10.1992H156.818C156.844 10.6484 156.867 11.1009 156.887 11.5566C156.906 12.0124 156.926 12.4681 156.945 12.9238C156.965 13.373 156.984 13.8255 157.004 14.2812V21H154.299V6.72266H158.117L164.318 17.416H164.387C164.374 16.9733 164.357 16.5339 164.338 16.0977C164.318 15.6615 164.299 15.2253 164.279 14.7891C164.266 14.3529 164.253 13.9167 164.24 13.4805V6.72266H166.965V21ZM176.613 21L173.176 9.79883H173.088C173.101 10.0658 173.12 10.4694 173.146 11.0098C173.179 11.5436 173.208 12.1133 173.234 12.7188C173.26 13.3242 173.273 13.8711 173.273 14.3594V21H170.568V6.72266H174.689L178.068 17.6406H178.127L181.711 6.72266H185.832V21H183.01V14.2422C183.01 13.793 183.016 13.2754 183.029 12.6895C183.049 12.1035 183.072 11.5469 183.098 11.0195C183.124 10.4857 183.143 10.0853 183.156 9.81836H183.068L179.387 21H176.613ZM198.898 9.87695C199.908 9.87695 200.777 10.0723 201.506 10.4629C202.235 10.847 202.798 11.4069 203.195 12.1426C203.592 12.8783 203.791 13.7767 203.791 14.8379V16.2832H196.75C196.783 17.123 197.033 17.7839 197.502 18.2656C197.977 18.7409 198.635 18.9785 199.475 18.9785C200.171 18.9785 200.809 18.9069 201.389 18.7637C201.968 18.6204 202.564 18.4056 203.176 18.1191V20.4238C202.635 20.6908 202.069 20.8861 201.477 21.0098C200.891 21.1335 200.178 21.1953 199.338 21.1953C198.244 21.1953 197.274 20.9935 196.428 20.5898C195.588 20.1862 194.927 19.571 194.445 18.7441C193.97 17.9173 193.732 16.8757 193.732 15.6191C193.732 14.3431 193.947 13.2819 194.377 12.4355C194.813 11.5827 195.419 10.9447 196.193 10.5215C196.968 10.0918 197.87 9.87695 198.898 9.87695ZM198.918 11.9961C198.339 11.9961 197.857 12.1816 197.473 12.5527C197.095 12.9238 196.877 13.5065 196.818 14.3008H200.998C200.992 13.8581 200.91 13.4642 200.754 13.1191C200.604 12.7741 200.376 12.5007 200.07 12.2988C199.771 12.097 199.387 11.9961 198.918 11.9961ZM219.025 17.7578C219.025 18.5 218.85 19.1283 218.498 19.6426C218.153 20.1504 217.635 20.5378 216.945 20.8047C216.255 21.0651 215.396 21.1953 214.367 21.1953C213.605 21.1953 212.951 21.1465 212.404 21.0488C211.864 20.9512 211.317 20.7884 210.764 20.5605V18.0996C211.356 18.3665 211.991 18.5879 212.668 18.7637C213.352 18.9329 213.951 19.0176 214.465 19.0176C215.044 19.0176 215.458 18.9329 215.705 18.7637C215.959 18.5879 216.086 18.36 216.086 18.0801C216.086 17.8978 216.034 17.735 215.93 17.5918C215.832 17.4421 215.617 17.276 215.285 17.0938C214.953 16.9049 214.432 16.6608 213.723 16.3613C213.039 16.0749 212.476 15.7852 212.033 15.4922C211.597 15.1992 211.271 14.8542 211.057 14.457C210.848 14.0534 210.744 13.5423 210.744 12.9238C210.744 11.9147 211.135 11.1562 211.916 10.6484C212.704 10.1341 213.755 9.87695 215.07 9.87695C215.747 9.87695 216.392 9.94531 217.004 10.082C217.622 10.2188 218.257 10.4368 218.908 10.7363L218.01 12.8848C217.469 12.6504 216.958 12.4583 216.477 12.3086C216.001 12.1589 215.516 12.084 215.021 12.084C214.585 12.084 214.257 12.1426 214.035 12.2598C213.814 12.377 213.703 12.556 213.703 12.7969C213.703 12.9727 213.758 13.1289 213.869 13.2656C213.986 13.4023 214.208 13.5553 214.533 13.7246C214.865 13.8874 215.35 14.099 215.988 14.3594C216.607 14.6133 217.144 14.8802 217.6 15.1602C218.055 15.4336 218.407 15.7754 218.654 16.1855C218.902 16.5892 219.025 17.1133 219.025 17.7578ZM231.369 10.082V21H229.084L228.684 19.6035H228.527C228.293 19.9746 228 20.2773 227.648 20.5117C227.297 20.7461 226.91 20.9186 226.486 21.0293C226.063 21.14 225.624 21.1953 225.168 21.1953C224.387 21.1953 223.706 21.0586 223.127 20.7852C222.548 20.5052 222.095 20.0723 221.77 19.4863C221.451 18.9004 221.291 18.1387 221.291 17.2012V10.082H224.27V16.459C224.27 17.2402 224.41 17.8294 224.689 18.2266C224.969 18.6237 225.415 18.8223 226.027 18.8223C226.633 18.8223 227.108 18.6855 227.453 18.4121C227.798 18.1322 228.039 17.7253 228.176 17.1914C228.319 16.651 228.391 15.9935 228.391 15.2188V10.082H231.369ZM238.967 9.85742C240.432 9.85742 241.555 10.1764 242.336 10.8145C243.117 11.4525 243.508 12.4225 243.508 13.7246V21H241.428L240.852 19.5156H240.773C240.461 19.9062 240.142 20.2253 239.816 20.4727C239.491 20.7201 239.117 20.9023 238.693 21.0195C238.27 21.1367 237.756 21.1953 237.15 21.1953C236.506 21.1953 235.926 21.0716 235.412 20.8242C234.904 20.5768 234.504 20.1992 234.211 19.6914C233.918 19.1771 233.771 18.526 233.771 17.7383C233.771 16.5794 234.178 15.7266 234.992 15.1797C235.806 14.6263 237.027 14.3203 238.654 14.2617L240.549 14.2031V13.7246C240.549 13.1517 240.399 12.7318 240.1 12.4648C239.8 12.1979 239.383 12.0645 238.85 12.0645C238.322 12.0645 237.805 12.1393 237.297 12.2891C236.789 12.4388 236.281 12.6276 235.773 12.8555L234.787 10.8438C235.367 10.5378 236.014 10.2969 236.73 10.1211C237.453 9.94531 238.199 9.85742 238.967 9.85742ZM240.549 15.9414L239.396 15.9805C238.433 16.0065 237.762 16.179 237.385 16.498C237.014 16.8171 236.828 17.237 236.828 17.7578C236.828 18.2135 236.962 18.5391 237.229 18.7344C237.495 18.9232 237.844 19.0176 238.273 19.0176C238.911 19.0176 239.449 18.8288 239.885 18.4512C240.327 18.0736 240.549 17.5365 240.549 16.8398V15.9414ZM254.201 17.7578C254.201 18.5 254.025 19.1283 253.674 19.6426C253.329 20.1504 252.811 20.5378 252.121 20.8047C251.431 21.0651 250.572 21.1953 249.543 21.1953C248.781 21.1953 248.127 21.1465 247.58 21.0488C247.04 20.9512 246.493 20.7884 245.939 20.5605V18.0996C246.532 18.3665 247.167 18.5879 247.844 18.7637C248.527 18.9329 249.126 19.0176 249.641 19.0176C250.22 19.0176 250.633 18.9329 250.881 18.7637C251.135 18.5879 251.262 18.36 251.262 18.0801C251.262 17.8978 251.21 17.735 251.105 17.5918C251.008 17.4421 250.793 17.276 250.461 17.0938C250.129 16.9049 249.608 16.6608 248.898 16.3613C248.215 16.0749 247.652 15.7852 247.209 15.4922C246.773 15.1992 246.447 14.8542 246.232 14.457C246.024 14.0534 245.92 13.5423 245.92 12.9238C245.92 11.9147 246.311 11.1562 247.092 10.6484C247.88 10.1341 248.931 9.87695 250.246 9.87695C250.923 9.87695 251.568 9.94531 252.18 10.082C252.798 10.2188 253.433 10.4368 254.084 10.7363L253.186 12.8848C252.645 12.6504 252.134 12.4583 251.652 12.3086C251.177 12.1589 250.692 12.084 250.197 12.084C249.761 12.084 249.432 12.1426 249.211 12.2598C248.99 12.377 248.879 12.556 248.879 12.7969C248.879 12.9727 248.934 13.1289 249.045 13.2656C249.162 13.4023 249.383 13.5553 249.709 13.7246C250.041 13.8874 250.526 14.099 251.164 14.3594C251.783 14.6133 252.32 14.8802 252.775 15.1602C253.231 15.4336 253.583 15.7754 253.83 16.1855C254.077 16.5892 254.201 17.1133 254.201 17.7578ZM268.273 25.8047V21.2246C268.273 20.9512 268.283 20.6777 268.303 20.4043C268.329 20.1243 268.361 19.8509 268.4 19.584H268.273C267.993 20.0332 267.606 20.4141 267.111 20.7266C266.623 21.0391 265.979 21.1953 265.178 21.1953C263.947 21.1953 262.951 20.7201 262.189 19.7695C261.434 18.8125 261.057 17.4095 261.057 15.5605C261.057 14.3171 261.232 13.2754 261.584 12.4355C261.936 11.5892 262.424 10.9512 263.049 10.5215C263.68 10.0918 264.41 9.87695 265.236 9.87695C266.037 9.87695 266.685 10.0332 267.18 10.3457C267.681 10.6517 268.088 11.0293 268.4 11.4785H268.479L268.742 10.082H271.262V25.8047H268.273ZM266.242 18.8613C266.789 18.8613 267.222 18.7539 267.541 18.5391C267.867 18.3242 268.101 18.002 268.244 17.5723C268.387 17.1361 268.465 16.5924 268.479 15.9414V15.5801C268.479 14.5189 268.316 13.7083 267.99 13.1484C267.665 12.582 267.066 12.2988 266.193 12.2988C265.484 12.2988 264.956 12.582 264.611 13.1484C264.266 13.7148 264.094 14.5319 264.094 15.5996C264.094 16.6868 264.27 17.5039 264.621 18.0508C264.973 18.5911 265.513 18.8613 266.242 18.8613ZM284.396 10.082V21H282.111L281.711 19.6035H281.555C281.32 19.9746 281.027 20.2773 280.676 20.5117C280.324 20.7461 279.937 20.9186 279.514 21.0293C279.09 21.14 278.651 21.1953 278.195 21.1953C277.414 21.1953 276.734 21.0586 276.154 20.7852C275.575 20.5052 275.122 20.0723 274.797 19.4863C274.478 18.9004 274.318 18.1387 274.318 17.2012V10.082H277.297V16.459C277.297 17.2402 277.437 17.8294 277.717 18.2266C277.997 18.6237 278.443 18.8223 279.055 18.8223C279.66 18.8223 280.135 18.6855 280.48 18.4121C280.826 18.1322 281.066 17.7253 281.203 17.1914C281.346 16.651 281.418 15.9935 281.418 15.2188V10.082H284.396ZM291.994 9.85742C293.459 9.85742 294.582 10.1764 295.363 10.8145C296.145 11.4525 296.535 12.4225 296.535 13.7246V21H294.455L293.879 19.5156H293.801C293.488 19.9062 293.169 20.2253 292.844 20.4727C292.518 20.7201 292.144 20.9023 291.721 21.0195C291.298 21.1367 290.783 21.1953 290.178 21.1953C289.533 21.1953 288.954 21.0716 288.439 20.8242C287.932 20.5768 287.531 20.1992 287.238 19.6914C286.945 19.1771 286.799 18.526 286.799 17.7383C286.799 16.5794 287.206 15.7266 288.02 15.1797C288.833 14.6263 290.054 14.3203 291.682 14.2617L293.576 14.2031V13.7246C293.576 13.1517 293.426 12.7318 293.127 12.4648C292.827 12.1979 292.411 12.0645 291.877 12.0645C291.35 12.0645 290.832 12.1393 290.324 12.2891C289.816 12.4388 289.309 12.6276 288.801 12.8555L287.814 10.8438C288.394 10.5378 289.042 10.2969 289.758 10.1211C290.48 9.94531 291.226 9.85742 291.994 9.85742ZM293.576 15.9414L292.424 15.9805C291.46 16.0065 290.79 16.179 290.412 16.498C290.041 16.8171 289.855 17.237 289.855 17.7578C289.855 18.2135 289.989 18.5391 290.256 18.7344C290.523 18.9232 290.871 19.0176 291.301 19.0176C291.939 19.0176 292.476 18.8288 292.912 18.4512C293.355 18.0736 293.576 17.5365 293.576 16.8398V15.9414ZM304.211 18.8223C304.536 18.8223 304.852 18.7897 305.158 18.7246C305.471 18.6595 305.78 18.5781 306.086 18.4805V20.6973C305.767 20.8405 305.37 20.9577 304.895 21.0488C304.426 21.1465 303.911 21.1953 303.352 21.1953C302.701 21.1953 302.115 21.0911 301.594 20.8828C301.079 20.668 300.673 20.3001 300.373 19.7793C300.08 19.252 299.934 18.5195 299.934 17.582V12.3184H298.508V11.0586L300.148 10.0625L301.008 7.75781H302.912V10.082H305.969V12.3184H302.912V17.582C302.912 17.9987 303.029 18.3112 303.264 18.5195C303.505 18.7214 303.82 18.8223 304.211 18.8223ZM314.396 9.87695C314.546 9.87695 314.719 9.88672 314.914 9.90625C315.116 9.91927 315.279 9.9388 315.402 9.96484L315.178 12.7578C315.08 12.7253 314.94 12.7025 314.758 12.6895C314.582 12.6699 314.429 12.6602 314.299 12.6602C313.915 12.6602 313.54 12.709 313.176 12.8066C312.818 12.9043 312.495 13.0638 312.209 13.2852C311.923 13.5 311.695 13.7865 311.525 14.1445C311.363 14.4961 311.281 14.929 311.281 15.4434V21H308.303V10.082H310.559L310.998 11.918H311.145C311.359 11.5469 311.626 11.2083 311.945 10.9023C312.271 10.5898 312.639 10.3424 313.049 10.1602C313.465 9.97135 313.915 9.87695 314.396 9.87695ZM327.307 15.5215C327.307 16.4329 327.183 17.2402 326.936 17.9434C326.695 18.6465 326.34 19.2422 325.871 19.7305C325.409 20.2122 324.849 20.5768 324.191 20.8242C323.54 21.0716 322.805 21.1953 321.984 21.1953C321.216 21.1953 320.51 21.0716 319.865 20.8242C319.227 20.5768 318.671 20.2122 318.195 19.7305C317.727 19.2422 317.362 18.6465 317.102 17.9434C316.848 17.2402 316.721 16.4329 316.721 15.5215C316.721 14.3105 316.936 13.2852 317.365 12.4453C317.795 11.6055 318.407 10.9674 319.201 10.5312C319.995 10.0951 320.943 9.87695 322.043 9.87695C323.065 9.87695 323.97 10.0951 324.758 10.5312C325.552 10.9674 326.174 11.6055 326.623 12.4453C327.079 13.2852 327.307 14.3105 327.307 15.5215ZM319.758 15.5215C319.758 16.2376 319.836 16.8398 319.992 17.3281C320.148 17.8164 320.393 18.1842 320.725 18.4316C321.057 18.679 321.49 18.8027 322.023 18.8027C322.551 18.8027 322.977 18.679 323.303 18.4316C323.635 18.1842 323.876 17.8164 324.025 17.3281C324.182 16.8398 324.26 16.2376 324.26 15.5215C324.26 14.7988 324.182 14.1999 324.025 13.7246C323.876 13.2428 323.635 12.8815 323.303 12.6406C322.971 12.3997 322.538 12.2793 322.004 12.2793C321.216 12.2793 320.643 12.5495 320.285 13.0898C319.934 13.6302 319.758 14.4408 319.758 15.5215ZM338.42 21.1953C337.202 21.1953 336.21 20.7201 335.441 19.7695C334.68 18.8125 334.299 17.4095 334.299 15.5605C334.299 13.6921 334.686 12.2793 335.461 11.3223C336.236 10.3587 337.248 9.87695 338.498 9.87695C339.019 9.87695 339.478 9.94857 339.875 10.0918C340.272 10.235 340.614 10.4271 340.9 10.668C341.193 10.9089 341.441 11.179 341.643 11.4785H341.74C341.701 11.2702 341.652 10.9642 341.594 10.5605C341.542 10.1504 341.516 9.73047 341.516 9.30078V5.80469H344.504V21H342.219L341.643 19.584H341.516C341.327 19.8835 341.089 20.1569 340.803 20.4043C340.523 20.6452 340.188 20.8372 339.797 20.9805C339.406 21.1237 338.947 21.1953 338.42 21.1953ZM339.465 18.8223C340.279 18.8223 340.852 18.5814 341.184 18.0996C341.522 17.6113 341.701 16.8789 341.721 15.9023V15.5801C341.721 14.5189 341.558 13.7083 341.232 13.1484C340.907 12.582 340.301 12.2988 339.416 12.2988C338.758 12.2988 338.244 12.582 337.873 13.1484C337.502 13.7148 337.316 14.5319 337.316 15.5996C337.316 16.6673 337.502 17.4714 337.873 18.0117C338.251 18.5521 338.781 18.8223 339.465 18.8223ZM350.598 10.082V21H347.619V10.082H350.598ZM349.113 5.80469C349.556 5.80469 349.937 5.90885 350.256 6.11719C350.575 6.31901 350.734 6.69987 350.734 7.25977C350.734 7.81315 350.575 8.19727 350.256 8.41211C349.937 8.62044 349.556 8.72461 349.113 8.72461C348.664 8.72461 348.28 8.62044 347.961 8.41211C347.648 8.19727 347.492 7.81315 347.492 7.25977C347.492 6.69987 347.648 6.31901 347.961 6.11719C348.28 5.90885 348.664 5.80469 349.113 5.80469ZM366.555 9.87695C367.792 9.87695 368.726 10.196 369.357 10.834C369.995 11.4655 370.314 12.4811 370.314 13.8809V21H367.326V14.623C367.326 13.8418 367.193 13.2526 366.926 12.8555C366.659 12.4583 366.245 12.2598 365.686 12.2598C364.898 12.2598 364.338 12.543 364.006 13.1094C363.674 13.6693 363.508 14.4733 363.508 15.5215V21H360.529V14.623C360.529 14.1022 360.471 13.666 360.354 13.3145C360.236 12.9629 360.057 12.6992 359.816 12.5234C359.576 12.3477 359.266 12.2598 358.889 12.2598C358.335 12.2598 357.899 12.3997 357.58 12.6797C357.268 12.9531 357.043 13.36 356.906 13.9004C356.776 14.4342 356.711 15.0885 356.711 15.8633V21H353.732V10.082H356.008L356.408 11.4785H356.574C356.796 11.1009 357.072 10.7949 357.404 10.5605C357.743 10.3262 358.114 10.1536 358.518 10.043C358.921 9.93229 359.331 9.87695 359.748 9.87695C360.549 9.87695 361.226 10.0072 361.779 10.2676C362.339 10.528 362.769 10.9316 363.068 11.4785H363.332C363.658 10.9186 364.117 10.5117 364.709 10.2578C365.308 10.0039 365.923 9.87695 366.555 9.87695ZM377.883 9.87695C378.892 9.87695 379.761 10.0723 380.49 10.4629C381.219 10.847 381.783 11.4069 382.18 12.1426C382.577 12.8783 382.775 13.7767 382.775 14.8379V16.2832H375.734C375.767 17.123 376.018 17.7839 376.486 18.2656C376.962 18.7409 377.619 18.9785 378.459 18.9785C379.156 18.9785 379.794 18.9069 380.373 18.7637C380.952 18.6204 381.548 18.4056 382.16 18.1191V20.4238C381.62 20.6908 381.053 20.8861 380.461 21.0098C379.875 21.1335 379.162 21.1953 378.322 21.1953C377.229 21.1953 376.258 20.9935 375.412 20.5898C374.572 20.1862 373.911 19.571 373.43 18.7441C372.954 17.9173 372.717 16.8757 372.717 15.6191C372.717 14.3431 372.932 13.2819 373.361 12.4355C373.798 11.5827 374.403 10.9447 375.178 10.5215C375.952 10.0918 376.854 9.87695 377.883 9.87695ZM377.902 11.9961C377.323 11.9961 376.841 12.1816 376.457 12.5527C376.079 12.9238 375.861 13.5065 375.803 14.3008H379.982C379.976 13.8581 379.895 13.4642 379.738 13.1191C379.589 12.7741 379.361 12.5007 379.055 12.2988C378.755 12.097 378.371 11.9961 377.902 11.9961ZM391.398 9.87695C392.564 9.87695 393.501 10.196 394.211 10.834C394.921 11.4655 395.275 12.4811 395.275 13.8809V21H392.297V14.623C392.297 13.8418 392.154 13.2526 391.867 12.8555C391.587 12.4583 391.145 12.2598 390.539 12.2598C389.628 12.2598 389.006 12.569 388.674 13.1875C388.342 13.806 388.176 14.6979 388.176 15.8633V21H385.197V10.082H387.473L387.873 11.4785H388.039C388.273 11.1009 388.563 10.7949 388.908 10.5605C389.26 10.3262 389.647 10.1536 390.07 10.043C390.5 9.93229 390.943 9.87695 391.398 9.87695ZM405.959 17.7578C405.959 18.5 405.783 19.1283 405.432 19.6426C405.087 20.1504 404.569 20.5378 403.879 20.8047C403.189 21.0651 402.329 21.1953 401.301 21.1953C400.539 21.1953 399.885 21.1465 399.338 21.0488C398.798 20.9512 398.251 20.7884 397.697 20.5605V18.0996C398.29 18.3665 398.924 18.5879 399.602 18.7637C400.285 18.9329 400.884 19.0176 401.398 19.0176C401.978 19.0176 402.391 18.9329 402.639 18.7637C402.893 18.5879 403.02 18.36 403.02 18.0801C403.02 17.8978 402.967 17.735 402.863 17.5918C402.766 17.4421 402.551 17.276 402.219 17.0938C401.887 16.9049 401.366 16.6608 400.656 16.3613C399.973 16.0749 399.41 15.7852 398.967 15.4922C398.531 15.1992 398.205 14.8542 397.99 14.457C397.782 14.0534 397.678 13.5423 397.678 12.9238C397.678 11.9147 398.068 11.1562 398.85 10.6484C399.637 10.1341 400.689 9.87695 402.004 9.87695C402.681 9.87695 403.326 9.94531 403.938 10.082C404.556 10.2188 405.191 10.4368 405.842 10.7363L404.943 12.8848C404.403 12.6504 403.892 12.4583 403.41 12.3086C402.935 12.1589 402.45 12.084 401.955 12.084C401.519 12.084 401.19 12.1426 400.969 12.2598C400.747 12.377 400.637 12.556 400.637 12.7969C400.637 12.9727 400.692 13.1289 400.803 13.2656C400.92 13.4023 401.141 13.5553 401.467 13.7246C401.799 13.8874 402.284 14.099 402.922 14.3594C403.54 14.6133 404.077 14.8802 404.533 15.1602C404.989 15.4336 405.34 15.7754 405.588 16.1855C405.835 16.5892 405.959 17.1133 405.959 17.7578ZM418.205 15.5215C418.205 16.4329 418.081 17.2402 417.834 17.9434C417.593 18.6465 417.238 19.2422 416.77 19.7305C416.307 20.2122 415.747 20.5768 415.09 20.8242C414.439 21.0716 413.703 21.1953 412.883 21.1953C412.115 21.1953 411.408 21.0716 410.764 20.8242C410.126 20.5768 409.569 20.2122 409.094 19.7305C408.625 19.2422 408.26 18.6465 408 17.9434C407.746 17.2402 407.619 16.4329 407.619 15.5215C407.619 14.3105 407.834 13.2852 408.264 12.4453C408.693 11.6055 409.305 10.9674 410.1 10.5312C410.894 10.0951 411.841 9.87695 412.941 9.87695C413.964 9.87695 414.868 10.0951 415.656 10.5312C416.451 10.9674 417.072 11.6055 417.521 12.4453C417.977 13.2852 418.205 14.3105 418.205 15.5215ZM410.656 15.5215C410.656 16.2376 410.734 16.8398 410.891 17.3281C411.047 17.8164 411.291 18.1842 411.623 18.4316C411.955 18.679 412.388 18.8027 412.922 18.8027C413.449 18.8027 413.876 18.679 414.201 18.4316C414.533 18.1842 414.774 17.8164 414.924 17.3281C415.08 16.8398 415.158 16.2376 415.158 15.5215C415.158 14.7988 415.08 14.1999 414.924 13.7246C414.774 13.2428 414.533 12.8815 414.201 12.6406C413.869 12.3997 413.436 12.2793 412.902 12.2793C412.115 12.2793 411.542 12.5495 411.184 13.0898C410.832 13.6302 410.656 14.4408 410.656 15.5215ZM408.859 8.90039C408.898 8.37956 408.993 7.93034 409.143 7.55273C409.292 7.16862 409.488 6.85612 409.729 6.61523C409.969 6.36784 410.24 6.18555 410.539 6.06836C410.845 5.94466 411.171 5.88281 411.516 5.88281C411.783 5.88281 412.043 5.9349 412.297 6.03906C412.557 6.13672 412.811 6.25391 413.059 6.39062C413.312 6.52734 413.56 6.64779 413.801 6.75195C414.048 6.84961 414.289 6.89844 414.523 6.89844C414.719 6.89844 414.908 6.8138 415.09 6.64453C415.279 6.46875 415.415 6.20833 415.5 5.86328H416.955C416.877 6.89193 416.584 7.65365 416.076 8.14844C415.568 8.63672 414.976 8.88086 414.299 8.88086C414.032 8.88086 413.768 8.82878 413.508 8.72461C413.254 8.62044 413 8.50326 412.746 8.37305C412.499 8.23633 412.255 8.11589 412.014 8.01172C411.773 7.90755 411.535 7.85547 411.301 7.85547C411.099 7.85547 410.904 7.94336 410.715 8.11914C410.533 8.28841 410.399 8.54883 410.314 8.90039H408.859ZM425.168 9.87695C426.177 9.87695 427.046 10.0723 427.775 10.4629C428.505 10.847 429.068 11.4069 429.465 12.1426C429.862 12.8783 430.061 13.7767 430.061 14.8379V16.2832H423.02C423.052 17.123 423.303 17.7839 423.771 18.2656C424.247 18.7409 424.904 18.9785 425.744 18.9785C426.441 18.9785 427.079 18.9069 427.658 18.7637C428.238 18.6204 428.833 18.4056 429.445 18.1191V20.4238C428.905 20.6908 428.339 20.8861 427.746 21.0098C427.16 21.1335 426.447 21.1953 425.607 21.1953C424.514 21.1953 423.544 20.9935 422.697 20.5898C421.857 20.1862 421.197 19.571 420.715 18.7441C420.24 17.9173 420.002 16.8757 420.002 15.6191C420.002 14.3431 420.217 13.2819 420.646 12.4355C421.083 11.5827 421.688 10.9447 422.463 10.5215C423.238 10.0918 424.139 9.87695 425.168 9.87695ZM425.188 11.9961C424.608 11.9961 424.126 12.1816 423.742 12.5527C423.365 12.9238 423.146 13.5065 423.088 14.3008H427.268C427.261 13.8581 427.18 13.4642 427.023 13.1191C426.874 12.7741 426.646 12.5007 426.34 12.2988C426.04 12.097 425.656 11.9961 425.188 11.9961ZM440.1 17.7578C440.1 18.5 439.924 19.1283 439.572 19.6426C439.227 20.1504 438.71 20.5378 438.02 20.8047C437.329 21.0651 436.47 21.1953 435.441 21.1953C434.68 21.1953 434.025 21.1465 433.479 21.0488C432.938 20.9512 432.391 20.7884 431.838 20.5605V18.0996C432.43 18.3665 433.065 18.5879 433.742 18.7637C434.426 18.9329 435.025 19.0176 435.539 19.0176C436.118 19.0176 436.532 18.9329 436.779 18.7637C437.033 18.5879 437.16 18.36 437.16 18.0801C437.16 17.8978 437.108 17.735 437.004 17.5918C436.906 17.4421 436.691 17.276 436.359 17.0938C436.027 16.9049 435.507 16.6608 434.797 16.3613C434.113 16.0749 433.55 15.7852 433.107 15.4922C432.671 15.1992 432.346 14.8542 432.131 14.457C431.923 14.0534 431.818 13.5423 431.818 12.9238C431.818 11.9147 432.209 11.1562 432.99 10.6484C433.778 10.1341 434.829 9.87695 436.145 9.87695C436.822 9.87695 437.466 9.94531 438.078 10.082C438.697 10.2188 439.331 10.4368 439.982 10.7363L439.084 12.8848C438.544 12.6504 438.033 12.4583 437.551 12.3086C437.076 12.1589 436.59 12.084 436.096 12.084C435.66 12.084 435.331 12.1426 435.109 12.2598C434.888 12.377 434.777 12.556 434.777 12.7969C434.777 12.9727 434.833 13.1289 434.943 13.2656C435.061 13.4023 435.282 13.5553 435.607 13.7246C435.939 13.8874 436.424 14.099 437.062 14.3594C437.681 14.6133 438.218 14.8802 438.674 15.1602C439.13 15.4336 439.481 15.7754 439.729 16.1855C439.976 16.5892 440.1 17.1133 440.1 17.7578Z" fill="#292929"/>
<circle cx="74" cy="108" r="69" fill="white" stroke="#AEABDA" stroke-width="10"/>
<path d="M279 108C279 146.14 248.3 177 210.5 177C172.7 177 142 146.14 142 108C142 69.8603 172.7 39 210.5 39C248.3 39 279 69.8603 279 108Z" fill="white" stroke="#5FA29B" stroke-width="10"/>
<path d="M416 108C416 146.14 385.3 177 347.5 177C309.7 177 279 146.14 279 108C279 69.8603 309.7 39 347.5 39C385.3 39 416 69.8603 416 108Z" fill="white" stroke="#D8A65F" stroke-width="10"/>
<path d="M553 108C553 146.108 522.108 177 484 177C445.892 177 415 146.108 415 108C415 69.8924 445.892 39 484 39C522.108 39 553 69.8924 553 108Z" fill="white" stroke="#E5A498" stroke-width="10"/>
<path d="M48.4253 115L45.3316 104.919H45.2525C45.2642 105.159 45.2818 105.522 45.3052 106.009C45.3345 106.489 45.3609 107.002 45.3843 107.547C45.4077 108.092 45.4195 108.584 45.4195 109.023V115H42.9849V102.15H46.6939L49.7349 111.977H49.7876L53.0132 102.15H56.7222V115H54.1821V108.918C54.1821 108.514 54.188 108.048 54.1997 107.521C54.2173 106.993 54.2378 106.492 54.2612 106.018C54.2847 105.537 54.3023 105.177 54.314 104.937H54.2349L50.9214 115H48.4253ZM68.6841 110.069C68.6841 110.89 68.5728 111.616 68.3501 112.249C68.1333 112.882 67.814 113.418 67.3921 113.857C66.9761 114.291 66.4722 114.619 65.8804 114.842C65.2945 115.064 64.6323 115.176 63.8941 115.176C63.2027 115.176 62.5669 115.064 61.9868 114.842C61.4126 114.619 60.9116 114.291 60.4839 113.857C60.062 113.418 59.7339 112.882 59.4995 112.249C59.271 111.616 59.1568 110.89 59.1568 110.069C59.1568 108.979 59.3501 108.057 59.7368 107.301C60.1236 106.545 60.6743 105.971 61.3892 105.578C62.104 105.186 62.9566 104.989 63.9468 104.989C64.8667 104.989 65.6812 105.186 66.3902 105.578C67.105 105.971 67.6646 106.545 68.0689 107.301C68.479 108.057 68.6841 108.979 68.6841 110.069ZM61.8902 110.069C61.8902 110.714 61.9605 111.256 62.1011 111.695C62.2417 112.135 62.4614 112.466 62.7603 112.688C63.0591 112.911 63.4487 113.022 63.9292 113.022C64.4038 113.022 64.7876 112.911 65.0806 112.688C65.3794 112.466 65.5962 112.135 65.731 111.695C65.8716 111.256 65.9419 110.714 65.9419 110.069C65.9419 109.419 65.8716 108.88 65.731 108.452C65.5962 108.019 65.3794 107.693 65.0806 107.477C64.7818 107.26 64.3921 107.151 63.9116 107.151C63.2027 107.151 62.687 107.395 62.3648 107.881C62.0484 108.367 61.8902 109.097 61.8902 110.069ZM75.0386 113.04C75.3316 113.04 75.6157 113.011 75.8911 112.952C76.1724 112.894 76.4507 112.82 76.7261 112.732V114.728C76.439 114.856 76.0816 114.962 75.6538 115.044C75.232 115.132 74.7691 115.176 74.2652 115.176C73.6792 115.176 73.1519 115.082 72.6831 114.895C72.2202 114.701 71.854 114.37 71.5845 113.901C71.3208 113.427 71.189 112.768 71.189 111.924V107.187H69.9058V106.053L71.3823 105.156L72.1558 103.082H73.8696V105.174H76.6206V107.187H73.8696V111.924C73.8696 112.299 73.9751 112.58 74.1861 112.768C74.4029 112.949 74.687 113.04 75.0386 113.04ZM87.6509 110.069C87.6509 110.89 87.5396 111.616 87.3169 112.249C87.1001 112.882 86.7808 113.418 86.3589 113.857C85.9429 114.291 85.439 114.619 84.8472 114.842C84.2612 115.064 83.5991 115.176 82.8609 115.176C82.1695 115.176 81.5337 115.064 80.9536 114.842C80.3794 114.619 79.8784 114.291 79.4507 113.857C79.0288 113.418 78.7007 112.882 78.4663 112.249C78.2378 111.616 78.1236 110.89 78.1236 110.069C78.1236 108.979 78.3169 108.057 78.7036 107.301C79.0904 106.545 79.6411 105.971 80.356 105.578C81.0708 105.186 81.9234 104.989 82.9136 104.989C83.8335 104.989 84.648 105.186 85.357 105.578C86.0718 105.971 86.6314 106.545 87.0357 107.301C87.4458 108.057 87.6509 108.979 87.6509 110.069ZM80.857 110.069C80.857 110.714 80.9273 111.256 81.0679 111.695C81.2085 112.135 81.4282 112.466 81.7271 112.688C82.0259 112.911 82.4155 113.022 82.896 113.022C83.3706 113.022 83.7544 112.911 84.0474 112.688C84.3462 112.466 84.563 112.135 84.6978 111.695C84.8384 111.256 84.9087 110.714 84.9087 110.069C84.9087 109.419 84.8384 108.88 84.6978 108.452C84.563 108.019 84.3462 107.693 84.0474 107.477C83.7486 107.26 83.3589 107.151 82.8784 107.151C82.1695 107.151 81.6538 107.395 81.3316 107.881C81.0152 108.367 80.857 109.097 80.857 110.069ZM95.3501 104.989C95.4849 104.989 95.6402 104.998 95.8159 105.016C95.9976 105.027 96.1441 105.045 96.2554 105.068L96.0532 107.582C95.9654 107.553 95.8394 107.532 95.6753 107.521C95.5171 107.503 95.3794 107.494 95.2622 107.494C94.9165 107.494 94.5796 107.538 94.2515 107.626C93.9292 107.714 93.6392 107.857 93.3814 108.057C93.1236 108.25 92.9185 108.508 92.7661 108.83C92.6196 109.146 92.5464 109.536 92.5464 109.999V115H89.8657V105.174H91.896L92.2915 106.826H92.4234C92.6167 106.492 92.857 106.188 93.1441 105.912C93.437 105.631 93.7681 105.408 94.1372 105.244C94.5122 105.074 94.9165 104.989 95.3501 104.989ZM102.065 104.972C103.383 104.972 104.394 105.259 105.097 105.833C105.8 106.407 106.152 107.28 106.152 108.452V115H104.28L103.761 113.664H103.691C103.41 114.016 103.123 114.303 102.83 114.525C102.537 114.748 102.2 114.912 101.819 115.018C101.438 115.123 100.975 115.176 100.43 115.176C99.8501 115.176 99.3286 115.064 98.8657 114.842C98.4087 114.619 98.0484 114.279 97.7847 113.822C97.521 113.359 97.3892 112.773 97.3892 112.064C97.3892 111.021 97.7554 110.254 98.4878 109.762C99.2202 109.264 100.319 108.988 101.784 108.936L103.489 108.883V108.452C103.489 107.937 103.354 107.559 103.084 107.318C102.815 107.078 102.44 106.958 101.959 106.958C101.485 106.958 101.019 107.025 100.562 107.16C100.105 107.295 99.648 107.465 99.1909 107.67L98.3032 105.859C98.8247 105.584 99.4077 105.367 100.052 105.209C100.703 105.051 101.374 104.972 102.065 104.972ZM103.489 110.447L102.452 110.482C101.584 110.506 100.981 110.661 100.641 110.948C100.307 111.235 100.14 111.613 100.14 112.082C100.14 112.492 100.26 112.785 100.501 112.961C100.741 113.131 101.054 113.216 101.441 113.216C102.015 113.216 102.499 113.046 102.891 112.706C103.29 112.366 103.489 111.883 103.489 111.256V110.447Z" fill="#292929"/>
<path d="M175.282 104.233C174.761 104.233 174.298 104.336 173.894 104.541C173.495 104.74 173.158 105.03 172.883 105.411C172.613 105.792 172.408 106.252 172.268 106.791C172.127 107.33 172.057 107.937 172.057 108.61C172.057 109.519 172.168 110.295 172.391 110.939C172.619 111.578 172.971 112.067 173.445 112.407C173.92 112.741 174.532 112.908 175.282 112.908C175.804 112.908 176.325 112.85 176.847 112.732C177.374 112.615 177.945 112.448 178.561 112.231V114.517C177.992 114.751 177.433 114.918 176.882 115.018C176.331 115.123 175.713 115.176 175.027 115.176C173.703 115.176 172.613 114.903 171.758 114.358C170.908 113.808 170.278 113.04 169.868 112.056C169.458 111.065 169.253 109.911 169.253 108.593C169.253 107.62 169.385 106.729 169.648 105.921C169.912 105.112 170.299 104.412 170.809 103.82C171.318 103.229 171.948 102.771 172.698 102.449C173.448 102.127 174.31 101.966 175.282 101.966C175.921 101.966 176.56 102.048 177.198 102.212C177.843 102.37 178.458 102.59 179.044 102.871L178.165 105.086C177.685 104.857 177.201 104.658 176.715 104.488C176.229 104.318 175.751 104.233 175.282 104.233ZM190.021 110.069C190.021 110.89 189.91 111.616 189.688 112.249C189.471 112.882 189.151 113.418 188.729 113.857C188.313 114.291 187.81 114.619 187.218 114.842C186.632 115.064 185.97 115.176 185.231 115.176C184.54 115.176 183.904 115.064 183.324 114.842C182.75 114.619 182.249 114.291 181.821 113.857C181.399 113.418 181.071 112.882 180.837 112.249C180.608 111.616 180.494 110.89 180.494 110.069C180.494 108.979 180.688 108.057 181.074 107.301C181.461 106.545 182.012 105.971 182.727 105.578C183.441 105.186 184.294 104.989 185.284 104.989C186.204 104.989 187.019 105.186 187.728 105.578C188.442 105.971 189.002 106.545 189.406 107.301C189.816 108.057 190.021 108.979 190.021 110.069ZM183.228 110.069C183.228 110.714 183.298 111.256 183.438 111.695C183.579 112.135 183.799 112.466 184.098 112.688C184.396 112.911 184.786 113.022 185.267 113.022C185.741 113.022 186.125 112.911 186.418 112.688C186.717 112.466 186.934 112.135 187.068 111.695C187.209 111.256 187.279 110.714 187.279 110.069C187.279 109.419 187.209 108.88 187.068 108.452C186.934 108.019 186.717 107.693 186.418 107.477C186.119 107.26 185.729 107.151 185.249 107.151C184.54 107.151 184.024 107.395 183.702 107.881C183.386 108.367 183.228 109.097 183.228 110.069ZM195.11 119.324C193.739 119.324 192.69 119.084 191.964 118.604C191.243 118.129 190.883 117.461 190.883 116.6C190.883 116.008 191.067 115.513 191.437 115.114C191.806 114.716 192.348 114.432 193.062 114.262C192.787 114.145 192.547 113.954 192.342 113.69C192.137 113.421 192.034 113.137 192.034 112.838C192.034 112.463 192.143 112.152 192.359 111.906C192.576 111.654 192.89 111.408 193.3 111.168C192.784 110.945 192.374 110.588 192.069 110.096C191.771 109.604 191.621 109.023 191.621 108.355C191.621 107.641 191.776 107.034 192.087 106.536C192.403 106.032 192.86 105.648 193.458 105.385C194.062 105.121 194.794 104.989 195.655 104.989C195.837 104.989 196.048 105.001 196.288 105.024C196.528 105.048 196.748 105.074 196.947 105.104C197.152 105.133 197.29 105.156 197.36 105.174H200.788V106.536L199.25 106.932C199.391 107.148 199.496 107.38 199.566 107.626C199.637 107.872 199.672 108.133 199.672 108.408C199.672 109.463 199.303 110.286 198.564 110.878C197.832 111.464 196.812 111.757 195.506 111.757C195.195 111.739 194.902 111.716 194.627 111.687C194.492 111.792 194.39 111.903 194.319 112.021C194.249 112.138 194.214 112.261 194.214 112.39C194.214 112.519 194.267 112.627 194.372 112.715C194.483 112.797 194.647 112.861 194.864 112.908C195.087 112.949 195.362 112.97 195.69 112.97H197.36C198.438 112.97 199.259 113.201 199.821 113.664C200.39 114.127 200.674 114.807 200.674 115.703C200.674 116.852 200.193 117.742 199.232 118.375C198.277 119.008 196.903 119.324 195.11 119.324ZM195.225 117.575C195.863 117.575 196.411 117.514 196.868 117.391C197.331 117.273 197.686 117.104 197.932 116.881C198.178 116.664 198.301 116.403 198.301 116.099C198.301 115.853 198.228 115.656 198.081 115.51C197.94 115.369 197.724 115.27 197.431 115.211C197.144 115.152 196.774 115.123 196.323 115.123H194.935C194.606 115.123 194.311 115.176 194.047 115.281C193.789 115.387 193.584 115.533 193.432 115.721C193.279 115.914 193.203 116.137 193.203 116.389C193.203 116.758 193.379 117.048 193.73 117.259C194.088 117.47 194.586 117.575 195.225 117.575ZM195.655 110.122C196.159 110.122 196.528 109.967 196.763 109.656C196.997 109.346 197.114 108.924 197.114 108.391C197.114 107.799 196.991 107.356 196.745 107.063C196.505 106.765 196.142 106.615 195.655 106.615C195.163 106.615 194.794 106.765 194.548 107.063C194.302 107.356 194.179 107.799 194.179 108.391C194.179 108.924 194.299 109.346 194.539 109.656C194.785 109.967 195.157 110.122 195.655 110.122ZM207.995 104.989C209.044 104.989 209.888 105.276 210.526 105.851C211.165 106.419 211.484 107.333 211.484 108.593V115H208.804V109.261C208.804 108.558 208.675 108.027 208.417 107.67C208.165 107.312 207.767 107.134 207.222 107.134C206.401 107.134 205.842 107.412 205.543 107.969C205.244 108.525 205.095 109.328 205.095 110.377V115H202.414V105.174H204.462L204.822 106.431H204.972C205.183 106.091 205.443 105.815 205.754 105.604C206.07 105.394 206.419 105.238 206.8 105.139C207.187 105.039 207.585 104.989 207.995 104.989ZM216.925 105.174V115H214.244V105.174H216.925ZM215.589 101.324C215.987 101.324 216.33 101.418 216.617 101.605C216.904 101.787 217.048 102.13 217.048 102.634C217.048 103.132 216.904 103.478 216.617 103.671C216.33 103.858 215.987 103.952 215.589 103.952C215.185 103.952 214.839 103.858 214.552 103.671C214.271 103.478 214.13 103.132 214.13 102.634C214.13 102.13 214.271 101.787 214.552 101.605C214.839 101.418 215.185 101.324 215.589 101.324ZM223.886 113.04C224.179 113.04 224.463 113.011 224.738 112.952C225.02 112.894 225.298 112.82 225.573 112.732V114.728C225.286 114.856 224.929 114.962 224.501 115.044C224.079 115.132 223.616 115.176 223.112 115.176C222.526 115.176 221.999 115.082 221.53 114.895C221.067 114.701 220.701 114.37 220.432 113.901C220.168 113.427 220.036 112.768 220.036 111.924V107.187H218.753V106.053L220.229 105.156L221.003 103.082H222.717V105.174H225.468V107.187H222.717V111.924C222.717 112.299 222.822 112.58 223.033 112.768C223.25 112.949 223.534 113.04 223.886 113.04ZM230.249 105.174V115H227.568V105.174H230.249ZM228.913 101.324C229.312 101.324 229.654 101.418 229.941 101.605C230.229 101.787 230.372 102.13 230.372 102.634C230.372 103.132 230.229 103.478 229.941 103.671C229.654 103.858 229.312 103.952 228.913 103.952C228.509 103.952 228.163 103.858 227.876 103.671C227.595 103.478 227.454 103.132 227.454 102.634C227.454 102.13 227.595 101.787 227.876 101.605C228.163 101.418 228.509 101.324 228.913 101.324ZM235.408 115L231.664 105.174H234.468L236.366 110.772C236.472 111.101 236.554 111.446 236.612 111.81C236.677 112.173 236.721 112.498 236.744 112.785H236.814C236.832 112.475 236.873 112.144 236.938 111.792C237.008 111.44 237.099 111.101 237.21 110.772L239.1 105.174H241.903L238.159 115H235.408ZM247.344 104.972C248.662 104.972 249.673 105.259 250.376 105.833C251.079 106.407 251.431 107.28 251.431 108.452V115H249.559L249.04 113.664H248.97C248.688 114.016 248.401 114.303 248.108 114.525C247.815 114.748 247.479 114.912 247.098 115.018C246.717 115.123 246.254 115.176 245.709 115.176C245.129 115.176 244.607 115.064 244.145 114.842C243.688 114.619 243.327 114.279 243.063 113.822C242.8 113.359 242.668 112.773 242.668 112.064C242.668 111.021 243.034 110.254 243.767 109.762C244.499 109.264 245.598 108.988 247.062 108.936L248.768 108.883V108.452C248.768 107.937 248.633 107.559 248.363 107.318C248.094 107.078 247.719 106.958 247.238 106.958C246.764 106.958 246.298 107.025 245.841 107.16C245.384 107.295 244.927 107.465 244.47 107.67L243.582 105.859C244.104 105.584 244.687 105.367 245.331 105.209C245.981 105.051 246.652 104.972 247.344 104.972ZM248.768 110.447L247.73 110.482C246.863 110.506 246.26 110.661 245.92 110.948C245.586 111.235 245.419 111.613 245.419 112.082C245.419 112.492 245.539 112.785 245.779 112.961C246.02 113.131 246.333 113.216 246.72 113.216C247.294 113.216 247.777 113.046 248.17 112.706C248.568 112.366 248.768 111.883 248.768 111.256V110.447Z" fill="#292929"/>
<path d="M299.67 115V102.15H302.395V112.75H307.606V115H299.67ZM312.317 105.174V115H309.637V105.174H312.317ZM310.981 101.324C311.38 101.324 311.723 101.418 312.01 101.605C312.297 101.787 312.44 102.13 312.44 102.634C312.44 103.132 312.297 103.478 312.01 103.671C311.723 103.858 311.38 103.952 310.981 103.952C310.577 103.952 310.231 103.858 309.944 103.671C309.663 103.478 309.522 103.132 309.522 102.634C309.522 102.13 309.663 101.787 309.944 101.605C310.231 101.418 310.577 101.324 310.981 101.324ZM320.72 104.989C321.769 104.989 322.612 105.276 323.251 105.851C323.89 106.419 324.209 107.333 324.209 108.593V115H321.528V109.261C321.528 108.558 321.399 108.027 321.142 107.67C320.89 107.312 320.491 107.134 319.946 107.134C319.126 107.134 318.566 107.412 318.268 107.969C317.969 108.525 317.819 109.328 317.819 110.377V115H315.139V105.174H317.187L317.547 106.431H317.696C317.907 106.091 318.168 105.815 318.479 105.604C318.795 105.394 319.144 105.238 319.524 105.139C319.911 105.039 320.31 104.989 320.72 104.989ZM329.843 119.324C328.472 119.324 327.423 119.084 326.696 118.604C325.976 118.129 325.615 117.461 325.615 116.6C325.615 116.008 325.8 115.513 326.169 115.114C326.538 114.716 327.08 114.432 327.795 114.262C327.52 114.145 327.279 113.954 327.074 113.69C326.869 113.421 326.767 113.137 326.767 112.838C326.767 112.463 326.875 112.152 327.092 111.906C327.309 111.654 327.622 111.408 328.032 111.168C327.517 110.945 327.106 110.588 326.802 110.096C326.503 109.604 326.354 109.023 326.354 108.355C326.354 107.641 326.509 107.034 326.819 106.536C327.136 106.032 327.593 105.648 328.19 105.385C328.794 105.121 329.526 104.989 330.388 104.989C330.569 104.989 330.78 105.001 331.021 105.024C331.261 105.048 331.48 105.074 331.68 105.104C331.885 105.133 332.022 105.156 332.093 105.174H335.521V106.536L333.982 106.932C334.123 107.148 334.229 107.38 334.299 107.626C334.369 107.872 334.404 108.133 334.404 108.408C334.404 109.463 334.035 110.286 333.297 110.878C332.564 111.464 331.545 111.757 330.238 111.757C329.928 111.739 329.635 111.716 329.359 111.687C329.225 111.792 329.122 111.903 329.052 112.021C328.981 112.138 328.946 112.261 328.946 112.39C328.946 112.519 328.999 112.627 329.104 112.715C329.216 112.797 329.38 112.861 329.597 112.908C329.819 112.949 330.095 112.97 330.423 112.97H332.093C333.171 112.97 333.991 113.201 334.554 113.664C335.122 114.127 335.406 114.807 335.406 115.703C335.406 116.852 334.926 117.742 333.965 118.375C333.01 119.008 331.636 119.324 329.843 119.324ZM329.957 117.575C330.596 117.575 331.144 117.514 331.601 117.391C332.063 117.273 332.418 117.104 332.664 116.881C332.91 116.664 333.033 116.403 333.033 116.099C333.033 115.853 332.96 115.656 332.813 115.51C332.673 115.369 332.456 115.27 332.163 115.211C331.876 115.152 331.507 115.123 331.056 115.123H329.667C329.339 115.123 329.043 115.176 328.779 115.281C328.521 115.387 328.316 115.533 328.164 115.721C328.012 115.914 327.936 116.137 327.936 116.389C327.936 116.758 328.111 117.048 328.463 117.259C328.82 117.47 329.318 117.575 329.957 117.575ZM330.388 110.122C330.892 110.122 331.261 109.967 331.495 109.656C331.729 109.346 331.847 108.924 331.847 108.391C331.847 107.799 331.724 107.356 331.478 107.063C331.237 106.765 330.874 106.615 330.388 106.615C329.896 106.615 329.526 106.765 329.28 107.063C329.034 107.356 328.911 107.799 328.911 108.391C328.911 108.924 329.031 109.346 329.271 109.656C329.518 109.967 329.89 110.122 330.388 110.122ZM346.164 105.174V115H344.107L343.747 113.743H343.606C343.396 114.077 343.132 114.35 342.815 114.561C342.499 114.771 342.15 114.927 341.77 115.026C341.389 115.126 340.993 115.176 340.583 115.176C339.88 115.176 339.268 115.053 338.746 114.807C338.225 114.555 337.817 114.165 337.524 113.638C337.237 113.11 337.094 112.425 337.094 111.581V105.174H339.774V110.913C339.774 111.616 339.9 112.146 340.152 112.504C340.404 112.861 340.806 113.04 341.356 113.04C341.901 113.04 342.329 112.917 342.64 112.671C342.95 112.419 343.167 112.053 343.29 111.572C343.419 111.086 343.483 110.494 343.483 109.797V105.174H346.164ZM353.002 104.972C354.32 104.972 355.331 105.259 356.034 105.833C356.737 106.407 357.089 107.28 357.089 108.452V115H355.217L354.698 113.664H354.628C354.347 114.016 354.06 114.303 353.767 114.525C353.474 114.748 353.137 114.912 352.756 115.018C352.375 115.123 351.912 115.176 351.367 115.176C350.787 115.176 350.266 115.064 349.803 114.842C349.346 114.619 348.985 114.279 348.722 113.822C348.458 113.359 348.326 112.773 348.326 112.064C348.326 111.021 348.692 110.254 349.425 109.762C350.157 109.264 351.256 108.988 352.721 108.936L354.426 108.883V108.452C354.426 107.937 354.291 107.559 354.021 107.318C353.752 107.078 353.377 106.958 352.896 106.958C352.422 106.958 351.956 107.025 351.499 107.16C351.042 107.295 350.585 107.465 350.128 107.67L349.24 105.859C349.762 105.584 350.345 105.367 350.989 105.209C351.64 105.051 352.311 104.972 353.002 104.972ZM354.426 110.447L353.389 110.482C352.521 110.506 351.918 110.661 351.578 110.948C351.244 111.235 351.077 111.613 351.077 112.082C351.077 112.492 351.197 112.785 351.438 112.961C351.678 113.131 351.991 113.216 352.378 113.216C352.952 113.216 353.436 113.046 353.828 112.706C354.227 112.366 354.426 111.883 354.426 111.256V110.447ZM362.731 119.324C361.36 119.324 360.312 119.084 359.585 118.604C358.864 118.129 358.504 117.461 358.504 116.6C358.504 116.008 358.688 115.513 359.058 115.114C359.427 114.716 359.969 114.432 360.684 114.262C360.408 114.145 360.168 113.954 359.963 113.69C359.758 113.421 359.655 113.137 359.655 112.838C359.655 112.463 359.764 112.152 359.98 111.906C360.197 111.654 360.511 111.408 360.921 111.168C360.405 110.945 359.995 110.588 359.69 110.096C359.392 109.604 359.242 109.023 359.242 108.355C359.242 107.641 359.397 107.034 359.708 106.536C360.024 106.032 360.481 105.648 361.079 105.385C361.683 105.121 362.415 104.989 363.276 104.989C363.458 104.989 363.669 105.001 363.909 105.024C364.149 105.048 364.369 105.074 364.568 105.104C364.773 105.133 364.911 105.156 364.981 105.174H368.409V106.536L366.871 106.932C367.012 107.148 367.117 107.38 367.188 107.626C367.258 107.872 367.293 108.133 367.293 108.408C367.293 109.463 366.924 110.286 366.186 110.878C365.453 111.464 364.434 111.757 363.127 111.757C362.816 111.739 362.523 111.716 362.248 111.687C362.113 111.792 362.011 111.903 361.94 112.021C361.87 112.138 361.835 112.261 361.835 112.39C361.835 112.519 361.888 112.627 361.993 112.715C362.104 112.797 362.269 112.861 362.485 112.908C362.708 112.949 362.983 112.97 363.312 112.97H364.981C366.06 112.97 366.88 113.201 367.442 113.664C368.011 114.127 368.295 114.807 368.295 115.703C368.295 116.852 367.814 117.742 366.854 118.375C365.898 119.008 364.524 119.324 362.731 119.324ZM362.846 117.575C363.484 117.575 364.032 117.514 364.489 117.391C364.952 117.273 365.307 117.104 365.553 116.881C365.799 116.664 365.922 116.403 365.922 116.099C365.922 115.853 365.849 115.656 365.702 115.51C365.562 115.369 365.345 115.27 365.052 115.211C364.765 115.152 364.396 115.123 363.944 115.123H362.556C362.228 115.123 361.932 115.176 361.668 115.281C361.41 115.387 361.205 115.533 361.053 115.721C360.9 115.914 360.824 116.137 360.824 116.389C360.824 116.758 361 117.048 361.352 117.259C361.709 117.47 362.207 117.575 362.846 117.575ZM363.276 110.122C363.78 110.122 364.149 109.967 364.384 109.656C364.618 109.346 364.735 108.924 364.735 108.391C364.735 107.799 364.612 107.356 364.366 107.063C364.126 106.765 363.763 106.615 363.276 106.615C362.784 106.615 362.415 106.765 362.169 107.063C361.923 107.356 361.8 107.799 361.8 108.391C361.8 108.924 361.92 109.346 362.16 109.656C362.406 109.967 362.778 110.122 363.276 110.122ZM374.087 104.989C374.995 104.989 375.777 105.165 376.434 105.517C377.09 105.862 377.597 106.366 377.954 107.028C378.312 107.69 378.49 108.499 378.49 109.454V110.755H372.153C372.183 111.511 372.408 112.105 372.83 112.539C373.258 112.967 373.85 113.181 374.605 113.181C375.232 113.181 375.807 113.116 376.328 112.987C376.85 112.858 377.386 112.665 377.937 112.407V114.481C377.45 114.722 376.94 114.897 376.407 115.009C375.88 115.12 375.238 115.176 374.482 115.176C373.498 115.176 372.625 114.994 371.863 114.631C371.107 114.268 370.513 113.714 370.079 112.97C369.651 112.226 369.438 111.288 369.438 110.157C369.438 109.009 369.631 108.054 370.018 107.292C370.41 106.524 370.955 105.95 371.652 105.569C372.35 105.183 373.161 104.989 374.087 104.989ZM374.104 106.896C373.583 106.896 373.149 107.063 372.804 107.397C372.464 107.731 372.268 108.256 372.215 108.971H375.977C375.971 108.572 375.897 108.218 375.757 107.907C375.622 107.597 375.417 107.351 375.142 107.169C374.872 106.987 374.526 106.896 374.104 106.896ZM392.21 104.989C393.323 104.989 394.164 105.276 394.732 105.851C395.307 106.419 395.594 107.333 395.594 108.593V115H392.904V109.261C392.904 108.558 392.784 108.027 392.544 107.67C392.304 107.312 391.932 107.134 391.428 107.134C390.719 107.134 390.215 107.389 389.916 107.898C389.617 108.402 389.468 109.126 389.468 110.069V115H386.787V109.261C386.787 108.792 386.734 108.399 386.629 108.083C386.523 107.767 386.362 107.529 386.146 107.371C385.929 107.213 385.65 107.134 385.311 107.134C384.812 107.134 384.42 107.26 384.133 107.512C383.852 107.758 383.649 108.124 383.526 108.61C383.409 109.091 383.351 109.68 383.351 110.377V115H380.67V105.174H382.718L383.078 106.431H383.228C383.427 106.091 383.676 105.815 383.975 105.604C384.279 105.394 384.613 105.238 384.977 105.139C385.34 105.039 385.709 104.989 386.084 104.989C386.805 104.989 387.414 105.106 387.912 105.341C388.416 105.575 388.803 105.938 389.072 106.431H389.31C389.603 105.927 390.016 105.561 390.549 105.332C391.088 105.104 391.642 104.989 392.21 104.989Z" fill="#292929"/>
<path d="M458.943 98.4316C458.943 99.1934 458.759 99.8555 458.39 100.418C458.021 100.98 457.481 101.414 456.772 101.719C456.069 102.023 455.214 102.176 454.206 102.176C453.761 102.176 453.324 102.146 452.896 102.088C452.475 102.029 452.067 101.944 451.675 101.833C451.288 101.716 450.919 101.572 450.567 101.402V98.8711C451.177 99.1406 451.81 99.3838 452.466 99.6006C453.122 99.8174 453.772 99.9258 454.417 99.9258C454.862 99.9258 455.22 99.8672 455.489 99.75C455.765 99.6328 455.964 99.4717 456.087 99.2666C456.21 99.0615 456.271 98.8271 456.271 98.5635C456.271 98.2412 456.163 97.9658 455.946 97.7373C455.729 97.5088 455.431 97.2949 455.05 97.0957C454.675 96.8965 454.25 96.6826 453.775 96.4541C453.477 96.3135 453.151 96.1436 452.8 95.9443C452.448 95.7393 452.114 95.4902 451.798 95.1973C451.481 94.9043 451.221 94.5498 451.016 94.1338C450.816 93.7119 450.717 93.208 450.717 92.6221C450.717 91.8545 450.893 91.1982 451.244 90.6533C451.596 90.1084 452.097 89.6924 452.747 89.4053C453.403 89.1123 454.177 88.9658 455.067 88.9658C455.735 88.9658 456.371 89.0449 456.975 89.2031C457.584 89.3555 458.22 89.5781 458.882 89.8711L458.003 91.9893C457.411 91.749 456.881 91.5645 456.412 91.4355C455.943 91.3008 455.466 91.2334 454.979 91.2334C454.64 91.2334 454.35 91.2891 454.109 91.4004C453.869 91.5059 453.688 91.6582 453.564 91.8574C453.441 92.0508 453.38 92.2764 453.38 92.5342C453.38 92.8389 453.468 93.0967 453.644 93.3076C453.825 93.5127 454.095 93.7119 454.452 93.9053C454.815 94.0986 455.267 94.3242 455.806 94.582C456.462 94.8926 457.021 95.2178 457.484 95.5576C457.953 95.8916 458.313 96.2871 458.565 96.7441C458.817 97.1953 458.943 97.7578 458.943 98.4316ZM469.991 97.0693C469.991 97.8896 469.88 98.6162 469.657 99.249C469.44 99.8818 469.121 100.418 468.699 100.857C468.283 101.291 467.779 101.619 467.188 101.842C466.602 102.064 465.939 102.176 465.201 102.176C464.51 102.176 463.874 102.064 463.294 101.842C462.72 101.619 462.219 101.291 461.791 100.857C461.369 100.418 461.041 99.8818 460.807 99.249C460.578 98.6162 460.464 97.8896 460.464 97.0693C460.464 95.9795 460.657 95.0566 461.044 94.3008C461.431 93.5449 461.981 92.9707 462.696 92.5781C463.411 92.1855 464.264 91.9893 465.254 91.9893C466.174 91.9893 466.988 92.1855 467.697 92.5781C468.412 92.9707 468.972 93.5449 469.376 94.3008C469.786 95.0566 469.991 95.9795 469.991 97.0693ZM463.197 97.0693C463.197 97.7139 463.268 98.2559 463.408 98.6953C463.549 99.1348 463.769 99.4658 464.067 99.6885C464.366 99.9111 464.756 100.022 465.236 100.022C465.711 100.022 466.095 99.9111 466.388 99.6885C466.687 99.4658 466.903 99.1348 467.038 98.6953C467.179 98.2559 467.249 97.7139 467.249 97.0693C467.249 96.4189 467.179 95.8799 467.038 95.4521C466.903 95.0186 466.687 94.6934 466.388 94.4766C466.089 94.2598 465.699 94.1514 465.219 94.1514C464.51 94.1514 463.994 94.3945 463.672 94.8809C463.355 95.3672 463.197 96.0967 463.197 97.0693ZM476.196 102.176C475.224 102.176 474.395 102 473.709 101.648C473.023 101.291 472.502 100.74 472.145 99.9961C471.787 99.252 471.608 98.2998 471.608 97.1396C471.608 95.9385 471.811 94.96 472.215 94.2041C472.625 93.4424 473.19 92.8828 473.911 92.5254C474.638 92.168 475.479 91.9893 476.434 91.9893C477.113 91.9893 477.699 92.0566 478.191 92.1914C478.689 92.3203 479.123 92.4756 479.492 92.6572L478.701 94.7314C478.279 94.5615 477.887 94.4238 477.523 94.3184C477.16 94.207 476.797 94.1514 476.434 94.1514C475.965 94.1514 475.575 94.2627 475.265 94.4854C474.954 94.7021 474.723 95.0303 474.57 95.4697C474.418 95.9092 474.342 96.46 474.342 97.1221C474.342 97.7725 474.424 98.3115 474.588 98.7393C474.752 99.167 474.989 99.4863 475.3 99.6973C475.61 99.9023 475.988 100.005 476.434 100.005C476.99 100.005 477.485 99.9316 477.919 99.7852C478.353 99.6328 478.774 99.4219 479.185 99.1523V101.446C478.774 101.704 478.344 101.889 477.893 102C477.447 102.117 476.882 102.176 476.196 102.176ZM484.15 92.1738V102H481.47V92.1738H484.15ZM482.814 88.3242C483.213 88.3242 483.556 88.418 483.843 88.6055C484.13 88.7871 484.273 89.1299 484.273 89.6338C484.273 90.1318 484.13 90.4775 483.843 90.6709C483.556 90.8584 483.213 90.9521 482.814 90.9521C482.41 90.9521 482.064 90.8584 481.777 90.6709C481.496 90.4775 481.355 90.1318 481.355 89.6338C481.355 89.1299 481.496 88.7871 481.777 88.6055C482.064 88.418 482.41 88.3242 482.814 88.3242ZM490.997 91.9717C492.315 91.9717 493.326 92.2588 494.029 92.833C494.732 93.4072 495.084 94.2803 495.084 95.4521V102H493.212L492.693 100.664H492.623C492.342 101.016 492.055 101.303 491.762 101.525C491.469 101.748 491.132 101.912 490.751 102.018C490.37 102.123 489.907 102.176 489.362 102.176C488.782 102.176 488.261 102.064 487.798 101.842C487.341 101.619 486.98 101.279 486.717 100.822C486.453 100.359 486.321 99.7734 486.321 99.0645C486.321 98.0215 486.688 97.2539 487.42 96.7617C488.152 96.2637 489.251 95.9883 490.716 95.9355L492.421 95.8828V95.4521C492.421 94.9365 492.286 94.5586 492.017 94.3184C491.747 94.0781 491.372 93.958 490.892 93.958C490.417 93.958 489.951 94.0254 489.494 94.1602C489.037 94.2949 488.58 94.4648 488.123 94.6699L487.235 92.8594C487.757 92.584 488.34 92.3672 488.984 92.209C489.635 92.0508 490.306 91.9717 490.997 91.9717ZM492.421 97.4473L491.384 97.4824C490.517 97.5059 489.913 97.6611 489.573 97.9482C489.239 98.2354 489.072 98.6133 489.072 99.082C489.072 99.4922 489.192 99.7852 489.433 99.9609C489.673 100.131 489.986 100.216 490.373 100.216C490.947 100.216 491.431 100.046 491.823 99.7061C492.222 99.3662 492.421 98.8828 492.421 98.2559V97.4473ZM500.533 102H497.853V88.3242H500.533V102ZM512.082 91.9893C512.99 91.9893 513.772 92.165 514.429 92.5166C515.085 92.8623 515.592 93.3662 515.949 94.0283C516.307 94.6904 516.485 95.499 516.485 96.4541V97.7549H510.148C510.178 98.5107 510.403 99.1055 510.825 99.5391C511.253 99.9668 511.845 100.181 512.601 100.181C513.228 100.181 513.802 100.116 514.323 99.9873C514.845 99.8584 515.381 99.665 515.932 99.4072V101.481C515.445 101.722 514.936 101.897 514.402 102.009C513.875 102.12 513.233 102.176 512.478 102.176C511.493 102.176 510.62 101.994 509.858 101.631C509.103 101.268 508.508 100.714 508.074 99.9697C507.646 99.2256 507.433 98.2881 507.433 97.1572C507.433 96.0088 507.626 95.0537 508.013 94.292C508.405 93.5244 508.95 92.9502 509.647 92.5693C510.345 92.1826 511.156 91.9893 512.082 91.9893ZM512.1 93.8965C511.578 93.8965 511.145 94.0635 510.799 94.3975C510.459 94.7314 510.263 95.2559 510.21 95.9707H513.972C513.966 95.5723 513.893 95.2178 513.752 94.9072C513.617 94.5967 513.412 94.3506 513.137 94.1689C512.867 93.9873 512.521 93.8965 512.1 93.8965ZM442.165 117.989C443.073 117.989 443.855 118.165 444.512 118.517C445.168 118.862 445.675 119.366 446.032 120.028C446.39 120.69 446.568 121.499 446.568 122.454V123.755H440.231C440.261 124.511 440.486 125.105 440.908 125.539C441.336 125.967 441.928 126.181 442.684 126.181C443.311 126.181 443.885 126.116 444.406 125.987C444.928 125.858 445.464 125.665 446.015 125.407V127.481C445.528 127.722 445.019 127.897 444.485 128.009C443.958 128.12 443.316 128.176 442.561 128.176C441.576 128.176 440.703 127.994 439.941 127.631C439.186 127.268 438.591 126.714 438.157 125.97C437.729 125.226 437.516 124.288 437.516 123.157C437.516 122.009 437.709 121.054 438.096 120.292C438.488 119.524 439.033 118.95 439.73 118.569C440.428 118.183 441.239 117.989 442.165 117.989ZM442.183 119.896C441.661 119.896 441.228 120.063 440.882 120.397C440.542 120.731 440.346 121.256 440.293 121.971H444.055C444.049 121.572 443.976 121.218 443.835 120.907C443.7 120.597 443.495 120.351 443.22 120.169C442.95 119.987 442.604 119.896 442.183 119.896ZM460.288 117.989C461.401 117.989 462.242 118.276 462.811 118.851C463.385 119.419 463.672 120.333 463.672 121.593V128H460.982V122.261C460.982 121.558 460.862 121.027 460.622 120.67C460.382 120.312 460.01 120.134 459.506 120.134C458.797 120.134 458.293 120.389 457.994 120.898C457.695 121.402 457.546 122.126 457.546 123.069V128H454.865V122.261C454.865 121.792 454.812 121.399 454.707 121.083C454.602 120.767 454.44 120.529 454.224 120.371C454.007 120.213 453.729 120.134 453.389 120.134C452.891 120.134 452.498 120.26 452.211 120.512C451.93 120.758 451.728 121.124 451.604 121.61C451.487 122.091 451.429 122.68 451.429 123.377V128H448.748V118.174H450.796L451.156 119.431H451.306C451.505 119.091 451.754 118.815 452.053 118.604C452.357 118.394 452.691 118.238 453.055 118.139C453.418 118.039 453.787 117.989 454.162 117.989C454.883 117.989 455.492 118.106 455.99 118.341C456.494 118.575 456.881 118.938 457.15 119.431H457.388C457.681 118.927 458.094 118.561 458.627 118.332C459.166 118.104 459.72 117.989 460.288 117.989ZM475.361 123.069C475.361 123.89 475.25 124.616 475.027 125.249C474.811 125.882 474.491 126.418 474.069 126.857C473.653 127.291 473.149 127.619 472.558 127.842C471.972 128.064 471.31 128.176 470.571 128.176C469.88 128.176 469.244 128.064 468.664 127.842C468.09 127.619 467.589 127.291 467.161 126.857C466.739 126.418 466.411 125.882 466.177 125.249C465.948 124.616 465.834 123.89 465.834 123.069C465.834 121.979 466.027 121.057 466.414 120.301C466.801 119.545 467.352 118.971 468.066 118.578C468.781 118.186 469.634 117.989 470.624 117.989C471.544 117.989 472.358 118.186 473.067 118.578C473.782 118.971 474.342 119.545 474.746 120.301C475.156 121.057 475.361 121.979 475.361 123.069ZM468.567 123.069C468.567 123.714 468.638 124.256 468.778 124.695C468.919 125.135 469.139 125.466 469.438 125.688C469.736 125.911 470.126 126.022 470.606 126.022C471.081 126.022 471.465 125.911 471.758 125.688C472.057 125.466 472.273 125.135 472.408 124.695C472.549 124.256 472.619 123.714 472.619 123.069C472.619 122.419 472.549 121.88 472.408 121.452C472.273 121.019 472.057 120.693 471.758 120.477C471.459 120.26 471.069 120.151 470.589 120.151C469.88 120.151 469.364 120.395 469.042 120.881C468.726 121.367 468.567 122.097 468.567 123.069ZM481.566 128.176C480.594 128.176 479.765 128 479.079 127.648C478.394 127.291 477.872 126.74 477.515 125.996C477.157 125.252 476.979 124.3 476.979 123.14C476.979 121.938 477.181 120.96 477.585 120.204C477.995 119.442 478.561 118.883 479.281 118.525C480.008 118.168 480.849 117.989 481.804 117.989C482.483 117.989 483.069 118.057 483.562 118.191C484.06 118.32 484.493 118.476 484.862 118.657L484.071 120.731C483.649 120.562 483.257 120.424 482.894 120.318C482.53 120.207 482.167 120.151 481.804 120.151C481.335 120.151 480.945 120.263 480.635 120.485C480.324 120.702 480.093 121.03 479.94 121.47C479.788 121.909 479.712 122.46 479.712 123.122C479.712 123.772 479.794 124.312 479.958 124.739C480.122 125.167 480.359 125.486 480.67 125.697C480.98 125.902 481.358 126.005 481.804 126.005C482.36 126.005 482.855 125.932 483.289 125.785C483.723 125.633 484.145 125.422 484.555 125.152V127.446C484.145 127.704 483.714 127.889 483.263 128C482.817 128.117 482.252 128.176 481.566 128.176ZM489.521 118.174V128H486.84V118.174H489.521ZM488.185 114.324C488.583 114.324 488.926 114.418 489.213 114.605C489.5 114.787 489.644 115.13 489.644 115.634C489.644 116.132 489.5 116.478 489.213 116.671C488.926 116.858 488.583 116.952 488.185 116.952C487.78 116.952 487.435 116.858 487.147 116.671C486.866 116.478 486.726 116.132 486.726 115.634C486.726 115.13 486.866 114.787 487.147 114.605C487.435 114.418 487.78 114.324 488.185 114.324ZM501.271 123.069C501.271 123.89 501.16 124.616 500.938 125.249C500.721 125.882 500.401 126.418 499.979 126.857C499.563 127.291 499.06 127.619 498.468 127.842C497.882 128.064 497.22 128.176 496.481 128.176C495.79 128.176 495.154 128.064 494.574 127.842C494 127.619 493.499 127.291 493.071 126.857C492.649 126.418 492.321 125.882 492.087 125.249C491.858 124.616 491.744 123.89 491.744 123.069C491.744 121.979 491.938 121.057 492.324 120.301C492.711 119.545 493.262 118.971 493.977 118.578C494.691 118.186 495.544 117.989 496.534 117.989C497.454 117.989 498.269 118.186 498.978 118.578C499.692 118.971 500.252 119.545 500.656 120.301C501.066 121.057 501.271 121.979 501.271 123.069ZM494.478 123.069C494.478 123.714 494.548 124.256 494.688 124.695C494.829 125.135 495.049 125.466 495.348 125.688C495.646 125.911 496.036 126.022 496.517 126.022C496.991 126.022 497.375 125.911 497.668 125.688C497.967 125.466 498.184 125.135 498.318 124.695C498.459 124.256 498.529 123.714 498.529 123.069C498.529 122.419 498.459 121.88 498.318 121.452C498.184 121.019 497.967 120.693 497.668 120.477C497.369 120.26 496.979 120.151 496.499 120.151C495.79 120.151 495.274 120.395 494.952 120.881C494.636 121.367 494.478 122.097 494.478 123.069ZM509.067 117.989C510.116 117.989 510.96 118.276 511.599 118.851C512.237 119.419 512.557 120.333 512.557 121.593V128H509.876V122.261C509.876 121.558 509.747 121.027 509.489 120.67C509.237 120.312 508.839 120.134 508.294 120.134C507.474 120.134 506.914 120.412 506.615 120.969C506.316 121.525 506.167 122.328 506.167 123.377V128H503.486V118.174H505.534L505.895 119.431H506.044C506.255 119.091 506.516 118.815 506.826 118.604C507.143 118.394 507.491 118.238 507.872 118.139C508.259 118.039 508.657 117.989 509.067 117.989ZM519.342 117.972C520.66 117.972 521.671 118.259 522.374 118.833C523.077 119.407 523.429 120.28 523.429 121.452V128H521.557L521.038 126.664H520.968C520.687 127.016 520.399 127.303 520.106 127.525C519.813 127.748 519.477 127.912 519.096 128.018C518.715 128.123 518.252 128.176 517.707 128.176C517.127 128.176 516.605 128.064 516.143 127.842C515.686 127.619 515.325 127.279 515.062 126.822C514.798 126.359 514.666 125.773 514.666 125.064C514.666 124.021 515.032 123.254 515.765 122.762C516.497 122.264 517.596 121.988 519.061 121.936L520.766 121.883V121.452C520.766 120.937 520.631 120.559 520.361 120.318C520.092 120.078 519.717 119.958 519.236 119.958C518.762 119.958 518.296 120.025 517.839 120.16C517.382 120.295 516.925 120.465 516.468 120.67L515.58 118.859C516.102 118.584 516.685 118.367 517.329 118.209C517.979 118.051 518.65 117.972 519.342 117.972ZM520.766 123.447L519.729 123.482C518.861 123.506 518.258 123.661 517.918 123.948C517.584 124.235 517.417 124.613 517.417 125.082C517.417 125.492 517.537 125.785 517.777 125.961C518.018 126.131 518.331 126.216 518.718 126.216C519.292 126.216 519.775 126.046 520.168 125.706C520.566 125.366 520.766 124.883 520.766 124.256V123.447ZM528.878 128H526.197V114.324H528.878V128Z" fill="#292929"/>
</svg>
