<svg width="16" height="15" viewBox="0 0 16 15" fill="none" xmlns="http://www.w3.org/2000/svg">
<path d="M12.5748 13.656C9.54882 15.7206 5.29216 15.34 2.57618 12.9711C1.38552 11.9325 0.570904 10.5873 0.229692 9.17741C0.145012 8.99897 0.0841723 8.79816 0.0553229 8.57253C-0.447759 4.6328 2.53637 0.784777 6.72109 0.0972278C10.2891 -0.489082 14.0091 1.64292 15.4202 4.69729C16.8742 7.8446 15.4712 11.6799 12.5748 13.656ZM11.7498 7.91543C12.0776 5.90437 10.1042 4.02611 8.05417 3.95005C7.07605 3.91371 6.20779 4.28435 5.54509 4.87103C5.51355 5.44699 5.20668 6.00771 4.71004 6.41577C4.48297 6.60231 4.34391 6.84665 4.26864 7.11664C4.21121 7.44155 4.1993 7.77022 4.24036 8.09171C4.24217 8.10622 4.242 8.11965 4.24352 8.13401C4.31249 8.51229 4.45338 8.87596 4.62341 9.15918C5.15837 10.0503 6.16565 10.7293 7.21861 10.9852C9.31457 11.4947 11.4228 9.92243 11.7498 7.91543Z" fill="#458781"/>
</svg>
