<svg width="16" height="16" viewBox="0 0 16 16" fill="none" xmlns="http://www.w3.org/2000/svg">
<path d="M12.5748 14.5664C9.54882 16.7686 5.29216 16.3626 2.57618 13.8358C1.38552 12.728 0.570904 11.2931 0.229692 9.78924C0.145012 9.5989 0.0841723 9.38471 0.0553229 9.14403C-0.447759 4.94165 2.53637 0.837095 6.72109 0.10371C10.2891 -0.521688 14.0091 1.75245 15.4202 5.01044C16.8742 8.36757 15.4712 12.4585 12.5748 14.5664ZM11.7498 8.44313C12.0776 6.29799 10.1042 4.29452 8.05417 4.21338C7.07605 4.17462 6.20779 4.56997 5.54509 5.19576C5.51355 5.81013 5.20668 6.40822 4.71004 6.84349C4.48297 7.04246 4.34391 7.30309 4.26864 7.59109C4.21121 7.93765 4.1993 8.28823 4.24036 8.63115C4.24217 8.64663 4.242 8.66096 4.24352 8.67628C4.31249 9.07978 4.45338 9.46769 4.62341 9.76979C5.15837 10.7204 6.16565 11.4446 7.21861 11.7176C9.31457 12.261 11.4228 10.5839 11.7498 8.44313Z" fill="#CACAE8"/>
</svg>
