<svg width="21" height="21" viewBox="0 0 21 21" fill="none" xmlns="http://www.w3.org/2000/svg">
<g id="qlementine-icons:media-16" clip-path="url(#clip0_2326_4295)">
<path id="Vector" fill-rule="evenodd" clip-rule="evenodd" d="M8.84375 11.0059C8.84392 10.5059 9.04269 10.0265 9.39634 9.6731C9.57145 9.49811 9.77931 9.35932 10.0081 9.26466C10.2368 9.17 10.482 9.12132 10.7295 9.1214C10.9771 9.12148 11.2222 9.17032 11.4509 9.26514C11.6796 9.35995 11.8873 9.49888 12.0623 9.67399C12.2373 9.8491 12.3761 10.057 12.4708 10.2857C12.5654 10.5145 12.6141 10.7596 12.614 11.0072C12.6139 11.5071 12.4151 11.9866 12.0615 12.34C11.7078 12.6934 11.2282 12.8919 10.7283 12.8917C10.2283 12.8915 9.74887 12.6928 9.39545 12.3391C9.04204 11.9854 8.84358 11.5059 8.84375 11.0059ZM10.7283 10.3777C10.5617 10.3777 10.4019 10.4439 10.2841 10.5617C10.1663 10.6795 10.1001 10.8393 10.1001 11.0059C10.1001 11.1725 10.1663 11.3323 10.2841 11.4501C10.4019 11.5679 10.5617 11.6341 10.7283 11.6341C10.8949 11.6341 11.0546 11.5679 11.1725 11.4501C11.2903 11.3323 11.3564 11.1725 11.3564 11.0059C11.3564 10.8393 11.2903 10.6795 11.1725 10.5617C11.0546 10.4439 10.8949 10.3777 10.7283 10.3777Z" fill="#594C8B"/>
<path id="Vector_2" fill-rule="evenodd" clip-rule="evenodd" d="M6.33251 17.2881V12.8909H3.19164C2.35864 12.8909 1.55974 12.56 0.970719 11.971C0.381693 11.3819 0.0507813 10.5831 0.0507812 9.75004L0.0507813 3.46832C0.0507813 2.63531 0.381693 1.83642 0.970719 1.24739C1.55974 0.658365 2.35864 0.327454 3.19164 0.327454L11.9861 0.327454C12.3985 0.327454 12.8069 0.408694 13.188 0.566538C13.5691 0.724381 13.9153 0.955735 14.207 1.24739C14.4986 1.53905 14.73 1.88529 14.8878 2.26636C15.0457 2.64743 15.1269 3.05585 15.1269 3.46832V6.60918H17.0114C17.8444 6.60918 18.6433 6.94009 19.2324 7.52912C19.8214 8.11814 20.1523 8.91703 20.1523 9.75004V17.2881C20.1523 18.1211 19.8214 18.92 19.2324 19.509C18.6433 20.0981 17.8444 20.429 17.0114 20.429H9.47337C8.64036 20.429 7.84147 20.0981 7.25244 19.509C6.66342 18.92 6.33251 18.1211 6.33251 17.2881ZM1.30713 3.46832C1.30713 2.96851 1.50567 2.48918 1.85909 2.13576C2.2125 1.78235 2.69184 1.5838 3.19164 1.5838H3.81982V4.09649H1.30713V3.46832ZM1.30713 5.35283H3.81982V7.86552H1.30713V5.35283ZM1.30713 9.12187H3.81982V11.6346H3.19164C2.69184 11.6346 2.2125 11.436 1.85909 11.0826C1.50567 10.7292 1.30713 10.2498 1.30713 9.75004V9.12187ZM5.07616 11.6346V1.5838H10.1015V6.60918H9.47337C8.64036 6.60918 7.84147 6.94009 7.25244 7.52912C6.66342 8.11814 6.33251 8.91703 6.33251 9.75004V11.6346H5.07616ZM13.8706 6.60918V5.35283H11.3579V6.60918H13.8706ZM13.8706 3.46832V4.09649H11.3579V1.5838H11.9861C12.4859 1.5838 12.9652 1.78235 13.3186 2.13576C13.672 2.48918 13.8706 2.96851 13.8706 3.46832ZM9.47337 7.86552C8.97357 7.86552 8.49423 8.06407 8.14081 8.41749C7.7874 8.7709 7.58885 9.25024 7.58885 9.75004V17.2881C7.58885 17.9025 7.88284 18.4477 8.33763 18.7957L15.3103 11.823C15.4281 11.7052 15.5879 11.6391 15.7545 11.6391C15.921 11.6391 16.0808 11.7052 16.1986 11.823L18.8997 14.5242V9.76261C18.8997 9.2628 18.7012 8.78347 18.3478 8.43005C17.9944 8.07663 17.515 7.87809 17.0152 7.87809H9.47714L9.47337 7.86552ZM18.896 16.2956L15.7551 13.1547L9.7372 19.1726H17.0114C17.5112 19.1726 17.9906 18.9741 18.344 18.6207C18.6974 18.2673 18.896 17.7879 18.896 17.2881V16.2918V16.2956Z" fill="#594C8B"/>
</g>
<defs>
<clipPath id="clip0_2326_4295">
<rect width="20.1015" height="20.1015" fill="white" transform="translate(0.0507812 0.327454)"/>
</clipPath>
</defs>
</svg>
