<svg width="21" height="21" viewBox="0 0 21 21" fill="none" xmlns="http://www.w3.org/2000/svg">
<g id="material-symbols:developer-guide-outline">
<path id="Vector" d="M4.23763 18.165C3.77697 18.165 3.38275 18.0011 3.05499 17.6734C2.72722 17.3456 2.56306 16.9511 2.5625 16.4899V4.76399C2.5625 4.30333 2.72666 3.90912 3.05499 3.58135C3.38331 3.25359 3.77753 3.08943 4.23763 3.08887H15.9635C16.4242 3.08887 16.8187 3.25303 17.147 3.58135C17.4753 3.90968 17.6392 4.30389 17.6386 4.76399V16.4899C17.6386 16.9505 17.4748 17.345 17.147 17.6734C16.8192 18.0017 16.4247 18.1656 15.9635 18.165H4.23763ZM4.23763 4.76399V16.4899H15.9635V4.76399H14.2884V10.6269L12.1945 9.37059L10.1006 10.6269V4.76399H4.23763Z" fill="#594C8B"/>
</g>
</svg>
