<svg width="21" height="21" viewBox="0 0 21 21" fill="none" xmlns="http://www.w3.org/2000/svg">
<g id="mage:edit-pen" clip-path="url(#clip0_2326_4300)">
<path id="Vector" d="M10.9399 3.62375L15.0641 7.73679M2.53516 18.9247H17.8913M2.86622 14.7022L3.32728 11.4991C3.35208 11.2899 3.44897 11.0958 3.60129 10.9502L12.6401 1.91232C12.7563 1.79384 12.9011 1.7074 13.0605 1.66136C13.22 1.61531 13.3886 1.61124 13.55 1.64952C14.384 1.87091 15.1422 2.31435 15.744 2.93263C16.3664 3.53309 16.8138 4.29148 17.0384 5.12663C17.073 5.28829 17.067 5.456 17.021 5.6148C16.975 5.77359 16.8903 5.9185 16.7746 6.03659L7.73679 15.0744C7.58096 15.2184 7.38666 15.3139 7.17753 15.3494L3.96322 15.8095C3.81349 15.8297 3.66112 15.8149 3.51808 15.7663C3.37505 15.7176 3.24526 15.6364 3.13893 15.5291C3.03259 15.4218 2.95262 15.2912 2.9053 15.1477C2.85798 15.0043 2.8446 14.8518 2.86622 14.7022Z" stroke="#594C8B" stroke-width="1.5" stroke-linecap="round" stroke-linejoin="round"/>
</g>
<defs>
<clipPath id="clip0_2326_4300">
<rect width="20.1" height="20.1" fill="white" transform="translate(0.0507812 0.0794067)"/>
</clipPath>
</defs>
</svg>
