<svg width="558" height="315" viewBox="0 0 558 315" fill="none" xmlns="http://www.w3.org/2000/svg">
<g id="video-cover">
<g id="video-cover-bg">
<rect id="video-solid-bg" width="558" height="315" rx="15" fill="#F1F1F4"/>
<g id="video-detail-bg">
<g id="Clip path group">
<mask id="mask0_103_3636" style="mask-type:luminance" maskUnits="userSpaceOnUse" x="0" y="0" width="558" height="315">
<g id="uuid-ff3c9172-4dcc-4978-a104-d75da5691b3f">
<path id="Vector" d="M543 0H15C6.71573 0 0 6.71573 0 15V300C0 308.284 6.71572 315 15 315H543C551.284 315 558 308.284 558 300V15C558 6.71573 551.284 0 543 0Z" fill="white"/>
</g>
</mask>
<g mask="url(#mask0_103_3636)">
<g id="Group">
<g id="Group_2">
<g id="Group_3">
<g id="Group_4">
<path id="Vector_2" d="M39.1285 -29.9039C37.4702 -28.9837 37.0566 -27.0032 37.8242 -25.3639C42.0645 -16.3082 43.5914 -5.95707 42.1604 3.95186C40.6632 14.3192 35.6566 23.5848 27.7879 30.4386C22.4211 35.1128 16.1221 38.5705 9.7472 41.6398C5.88751 43.498 9.10978 49.3437 12.9567 47.4916C24.7369 41.8201 36.195 34.346 42.7653 22.6302C48.3324 12.7034 50.1437 1.09395 48.8976 -10.1532C48.1879 -16.5586 46.371 -22.7645 43.6423 -28.592C42.8769 -30.2265 40.6286 -30.7361 39.1285 -29.9039Z" fill="#ED5E7E"/>
<path id="Vector_3" d="M198.346 8.63387C191.145 9.3539 183.907 9.54181 176.682 9.08286C174.169 8.92324 170.184 9.22736 168.183 7.34968C166.579 5.84338 166.427 3.10392 166.289 1.04536C165.314 -13.5614 165.834 -28.4276 166.784 -43.0203C167.329 -51.4108 168.132 -59.7823 169.172 -68.1253C169.704 -72.3869 163.133 -73.3819 162.6 -69.105C160.589 -52.9832 159.519 -36.7666 159.336 -20.5203C159.25 -12.8655 159.078 -5.05724 159.748 2.57529C160.016 5.62878 160.765 8.91979 162.797 11.3059C165.143 14.0615 168.483 15.0553 171.962 15.4035C180.974 16.3057 190.149 16.1696 199.154 15.2691C203.407 14.8439 202.61 8.20744 198.346 8.63387Z" fill="#FFE58F"/>
<path id="Vector_4" d="M146.365 6.3686C140.592 1.57556 134.343 -3.23977 127.061 -5.39908C119.632 -7.60227 112.282 -6.23608 106.04 -1.64329C100.181 2.66781 95.355 8.6574 90.7103 14.2104C85.7449 20.1467 81.0817 26.3378 76.7408 32.7502C71.7319 40.1494 67.1472 47.8442 62.9978 55.7628C62.1612 57.3594 63.1399 59.4794 64.6999 60.1688C66.4427 60.9389 68.2409 60.0591 69.0805 58.4568C75.7696 45.6914 83.6682 33.6034 92.6551 22.3545C96.9443 16.9858 101.394 11.5474 106.366 6.79734C110.866 2.49779 116.165 -0.661358 122.576 0.371185C130.094 1.58188 136.518 6.85939 142.214 11.5879C145.52 14.3328 149.663 9.10578 146.365 6.3686Z" fill="#AFE2DB"/>
<path id="Vector_5" d="M216.095 75.1536C202.825 68.1122 190.183 59.9346 178.309 50.7106C176.243 49.1065 176.455 46.1842 178.746 44.9141C182.888 42.6175 187.203 40.6434 191.638 38.9979C192.131 38.4075 192.828 37.9678 193.618 37.7402C196.534 36.9005 199.451 36.0608 202.367 35.2211C204.766 34.5302 207.206 33.6402 209.701 33.3707C212.159 33.1051 214.682 33.406 216.733 34.9078C219.282 36.7747 220.216 39.8646 220.978 42.79C223.594 52.8324 223.489 63.4038 221.091 73.4701C220.541 75.777 217.8 76.0584 216.095 75.1536ZM212.858 40.3241C212.532 40.5036 212.154 40.6366 211.713 40.7027C202.893 42.0258 194.399 44.6462 186.387 48.4841C195.696 55.4069 205.454 61.6976 215.593 67.319C216.723 60.2896 216.489 53.0499 214.948 46.0996C214.595 44.5049 214.302 41.6096 213.023 40.4545C212.97 40.4067 212.914 40.3647 212.858 40.3241Z" fill="#BDBFE1"/>
<path id="Vector_6" d="M144.85 84.6633C139.556 88.234 132.569 87.6743 127.372 84.2242C121.881 80.5796 119.857 73.8836 121.88 67.6897C123.792 61.8358 129.346 57.0071 135.585 56.7797C136.399 56.7501 137.185 56.9522 137.825 57.3578C143.848 57.0778 149.262 62.3852 150.652 68.5189C151.972 74.3471 149.916 81.246 144.85 84.6633ZM144.141 69.7194C143.826 68.3109 142.95 66.6219 141.902 65.6496C140.797 64.6253 138.52 63.2891 136.989 64.1754C135.731 64.9034 134.244 65.0384 133.1 64.2324C130.495 65.4545 128.486 67.9119 127.894 70.7178C127.157 74.2072 128.694 77.3891 131.644 79.0663C134.728 80.8204 138.558 81.0746 141.376 78.9447C144.075 76.9047 144.885 73.0559 144.141 69.7194Z" fill="#F9BA7A"/>
<path id="Vector_7" d="M282.505 -12.6449C280.995 -24.4628 275.751 -36.0618 266.039 -43.2768C260.703 -47.2412 254.28 -49.827 247.606 -49.9958C245.812 -50.0412 244.118 -49.1219 243.832 -47.1803C243.594 -45.5626 244.826 -43.4307 246.632 -43.3849C256.989 -43.1228 266.085 -36.5677 271.008 -27.5808C276.373 -17.7859 277.144 -6.16882 275.752 4.72804C274.824 11.9937 273.014 19.1061 271.014 26.1381C270.52 27.8761 272.204 29.6936 273.813 29.9334C275.783 30.227 277.091 28.8611 277.587 27.1178C281.249 14.2426 284.225 0.81142 282.505 -12.6449Z" fill="#FFCCD7"/>
<path id="Vector_8" d="M253.702 145.576C253.406 142.616 252.947 139.673 252.359 136.758C251.142 130.726 249.414 124.8 247.406 118.989C245.187 112.569 242.629 106.275 240.066 99.9887C238.445 96.0127 232.271 98.4867 233.899 102.479C238.031 112.617 242.265 122.837 244.857 133.507C246.168 138.906 247.181 144.485 247.376 150.05C247.468 152.673 246.883 154.855 245.178 156.856C243.515 158.808 241.439 160.432 239.454 162.037C234.628 165.936 229.447 169.401 223.973 172.309C222.388 173.151 221.409 174.858 222.127 176.656C222.743 178.197 224.853 179.359 226.449 178.512C231.813 175.662 236.959 172.428 241.769 168.705C246.365 165.147 251.846 161.149 253.447 155.256C254.299 152.122 254.022 148.774 253.702 145.576Z" fill="#FCD861"/>
<path id="Vector_9" d="M214.405 102.016C209.245 97.7797 202.481 96.2012 196.009 97.8364C190.446 99.2418 185.94 103.152 182.1 107.255C178.386 111.224 175.069 115.753 170.649 118.978C166.644 121.901 161.767 123.25 156.827 122.754C151.368 122.206 145.98 119.735 142.531 115.357C141.418 113.943 139.524 113.345 137.93 114.396C136.533 115.318 135.856 117.603 136.975 119.024C144.135 128.115 156.845 131.878 167.777 128.016C173.264 126.077 177.613 122.145 181.49 117.911C185.153 113.91 188.516 109.374 193.108 106.385C198.326 102.989 205.059 102.963 209.972 106.997C213.28 109.712 217.722 104.738 214.405 102.016Z" fill="#FFCCD7"/>
<path id="Vector_10" d="M285.772 162.797C281.543 162.167 280.562 168.777 284.798 169.408C289.027 170.039 290.008 163.429 285.772 162.797Z" fill="#FCD861"/>
<path id="Vector_11" d="M102.85 131.779C99.3034 137.436 91.8509 140.325 85.4124 138.92C78.1729 137.341 72.5654 132.179 68.0522 126.529C67.2156 125.482 66.3927 124.391 65.5947 123.262C60.4557 127.357 56.1368 132.271 50.2239 135.358C44.4973 138.347 37.9265 139.543 31.5137 139.119C18.74 138.276 7.38388 129.797 2.14652 118.184C0.373088 114.251 6.55303 111.789 8.31359 115.693C14.3853 129.156 30.0697 135.862 43.9089 130.842C50.7561 128.358 55.4156 123.082 60.8766 118.518C61.2508 118.205 61.6314 117.901 62.0164 117.603C56.3901 107.546 53.6118 95.628 59.775 85.1347C60.6913 83.5745 62.3534 82.6286 64.1578 83.4287C65.6621 84.0959 66.767 86.2825 65.8541 87.837C61.9908 94.4144 62.3839 102.195 65.1618 109.11C65.8312 110.776 66.6195 112.436 67.5047 114.065C71.5808 111.911 76.0369 110.525 80.6742 110.083C87.1887 109.462 94.3091 110.513 99.549 114.74C104.733 118.922 106.485 125.982 102.85 131.779ZM97.1333 121.796C94.2951 117.743 88.5739 116.528 83.9361 116.582C79.4365 116.634 75.0381 117.717 71.0593 119.717C72.922 122.302 75.0062 124.707 77.2202 126.808C81.1548 130.541 86.6772 134.031 92.2427 131.979C96.4155 130.441 100.088 126.014 97.1333 121.796Z" fill="#FCD861"/>
<path id="Vector_12" d="M199.227 167.869C196.098 173.6 189.035 176.45 182.75 175.023C176.443 173.591 171.917 168.36 170.891 161.991C169.883 155.735 172.943 149.671 178.664 146.994C183.873 144.556 189.994 145.463 194.174 149.283C194.374 149.369 194.571 149.47 194.761 149.587C200.656 153.217 202.493 161.888 199.227 167.869ZM191.083 154.482C190.68 154.272 190.304 153.985 189.975 153.638C187.562 151.095 182.78 151.255 179.865 153.34C176.93 155.439 176.138 159.314 177.345 162.778C178.645 166.51 181.701 169.054 185.671 169.231C189.377 169.396 193.33 167.3 194.419 163.597C195.395 160.275 194.122 156.451 191.083 154.482Z" fill="#FFE0C2"/>
<path id="Vector_13" d="M100.506 81.0078C100.438 80.4714 100.245 79.9856 99.9261 79.5505C99.4152 78.9163 98.739 78.4635 97.92 78.3415L97.1926 78.233C96.7788 78.1552 96.3777 78.1846 95.9895 78.3213C95.5967 78.388 95.2416 78.5492 94.9241 78.8049C94.5888 79.0363 94.3324 79.3314 94.155 79.6901C93.9123 80.0242 93.768 80.4017 93.7221 80.8226L93.7109 81.6469C93.7787 82.1833 93.9719 82.6691 94.2906 83.1042C94.8015 83.7384 95.4777 84.1912 96.2967 84.3132L97.0241 84.4217C97.4379 84.4995 97.8389 84.4701 98.2272 84.3334C98.62 84.2667 98.9751 84.1055 99.2926 83.8498C99.6279 83.6184 99.8843 83.3233 100.062 82.9646C100.304 82.6305 100.449 82.253 100.495 81.8321C100.498 81.5574 100.502 81.2826 100.506 81.0078Z" fill="#B9D5EA"/>
<path id="Vector_14" d="M205.645 219.249C209.171 222.687 213.892 227.402 219.284 226.582C222.979 226.02 226.048 223.223 229.188 221.396C231.853 219.844 234.849 218.683 237.903 218.193C238.218 217.217 238.545 216.255 238.875 215.319C241.03 209.216 243.814 203.029 247.71 197.839C251.435 192.876 256.347 188.699 262.513 187.333C268.181 186.077 274.075 187.246 278.449 191.167C279.687 192.276 279.46 194.442 278.338 195.513C277.07 196.723 275.249 196.505 274.017 195.402C270.652 192.385 265.323 192.421 261.352 194.098C255.836 196.428 252.128 201.581 249.342 206.692C247.357 210.333 245.7 214.159 244.378 218.096C248.144 218.619 251.692 220.209 254.418 223.108C258.141 227.065 260.065 233.182 257.843 238.37C255.856 243.01 250.935 246.049 245.928 245.938C239.53 245.797 235.805 240.239 235.331 234.281C235.091 231.254 235.423 228.119 236.059 225.026C233.344 226.012 230.84 227.586 228.312 229.191C223.589 232.191 218.344 233.909 212.89 231.853C208.339 230.137 204.654 226.839 201.214 223.484C198.379 220.719 202.833 216.506 205.645 219.249ZM251.787 229.939C249.992 226.317 246.535 224.347 242.647 224.047C242.148 226.048 241.733 228.08 241.514 230.125C241.267 232.436 241.134 235.103 242.229 237.236C243.873 240.434 247.229 240.363 250.014 238.599C251.119 237.899 252.12 236.687 252.489 235.204C252.929 233.438 252.585 231.55 251.787 229.939Z" fill="#AFE2DB"/>
<path id="Vector_15" d="M3.47825 7.51755C1.2172 12.5553 -3.66753 15.9707 -9.21408 15.64C-10.871 15.5413 -12.0146 13.6821 -11.7887 12.1494C-11.5314 10.4033 -9.96553 9.4616 -8.31815 9.55983C-5.88477 9.7049 -3.67103 7.8205 -2.50365 5.82049C-0.850224 2.98781 -1.05737 -0.541374 -1.73835 -3.6297C-2.98127 -9.26621 -6.0456 -14.7115 -9.82082 -19.1328C-17.6457 -13.0149 -29.5309 -13.2883 -38.4823 -17.1058C-44.2183 -19.552 -49.1592 -23.7077 -52.0156 -29.3232C-54.7545 -34.7079 -55.1498 -41.2674 -52.7327 -46.8348C-51.1581 -50.4616 -45.5658 -47.9791 -47.1416 -44.3495C-49.3056 -39.365 -48.0786 -33.5562 -44.8562 -29.3201C-41.4093 -24.7886 -35.9207 -22.092 -30.4435 -21.0181C-25.4407 -20.0372 -19.89 -20.1659 -15.369 -22.7946C-14.981 -23.0202 -14.5994 -23.2674 -14.226 -23.5324C-17.6612 -26.5328 -21.3729 -29.3766 -23.0741 -33.734C-24.823 -38.2133 -23.7369 -44.439 -19.3983 -47.0483C-13.6634 -50.4972 -7.05726 -45.9097 -4.32037 -40.7542C-1.47972 -35.4034 -2.17584 -29.0976 -5.34494 -24.081C-5.44432 -23.9236 -5.55135 -23.7758 -5.65409 -23.6227C-2.07619 -19.5849 0.785004 -14.8335 2.71697 -9.79066C4.78912 -4.38192 5.94257 2.02685 3.47825 7.51755ZM-11.8487 -29.5714C-11.2501 -29.0563 -10.6579 -28.5375 -10.0728 -28.0124C-9.11399 -29.6639 -8.54535 -31.5145 -8.59243 -33.4512C-8.64466 -35.5995 -9.35034 -37.6881 -10.6561 -39.3898C-11.7564 -40.8238 -13.7032 -42.3283 -15.6081 -42.0575C-16.1002 -41.9875 -16.387 -41.8007 -16.8087 -41.276C-17.1244 -40.8833 -17.5013 -40.0073 -17.5917 -39.6086C-17.9801 -37.8945 -17.8015 -36.5249 -16.8838 -34.9462C-15.6357 -32.7992 -13.7023 -31.1666 -11.8487 -29.5714Z" fill="#F9BA7A"/>
<path id="Vector_16" d="M30.5201 170.404C29.2565 175.899 24.2245 180.266 18.6048 180.678C12.6518 181.115 7.10126 177.207 4.90283 171.716C2.60227 165.969 4.16566 159.062 9.1409 155.283C13.8498 151.706 20.9159 151.777 24.7953 156.49C29.1713 159.452 31.7254 165.164 30.5201 170.404ZM19.6511 160.746C18.8469 160.456 18.2925 159.769 18.0278 158.976C15.3427 158.181 11.962 160.219 10.7368 162.684C8.71805 166.747 10.707 172.051 14.769 173.928C18.3677 175.591 22.8931 173.671 24.3089 169.936C25.7404 166.159 23.2355 162.038 19.6511 160.746Z" fill="#ED5E7E"/>
<path id="Vector_17" d="M49.8368 219.031C45.6358 214.16 39.5545 211.173 33.1692 210.712C27.2303 210.284 21.7195 212.572 16.2672 214.59C10.8592 216.592 5.58582 217.978 -0.0292873 215.895C-5.36212 213.917 -10.0486 209.574 -13.0713 204.791C-16.258 199.749 -18.0815 193.66 -16.5906 187.731C-15.6291 183.907 -21.4812 182.132 -22.4478 185.977C-25.5874 198.463 -18.4442 211.271 -8.37737 218.326C-2.72995 222.284 3.9512 223.997 10.7409 222.669C16.5322 221.537 21.7697 218.562 27.5234 217.29C34.1595 215.823 40.9195 218.067 45.3747 223.233C47.9593 226.23 52.4093 222.014 49.8368 219.031Z" fill="#FFCCD7"/>
<path id="Vector_18" d="M75.6393 191.425C73.9985 193.432 70.5589 193.98 68.2066 194.668C63.4177 196.067 58.541 197.118 53.6023 197.794C51.9272 199.863 47.7022 198.7 48.18 195.4C49.1047 189.012 50.999 182.627 53.9939 176.902C56.1197 172.838 60.4625 168.312 65.442 170.775C67.8082 171.945 69.2255 174.267 70.6068 176.42C72.102 178.75 73.49 181.149 74.7983 183.59C76.0937 186.007 77.7054 188.899 75.6393 191.425ZM69.6944 187.776C69.8296 187.73 69.9864 187.658 70.1486 187.585C69.7012 186.611 68.9973 185.623 68.5697 184.856C67.6655 183.235 66.7014 181.644 65.6987 180.082C64.9841 178.969 64.1037 176.968 62.8753 176.336C62.447 176.115 61.9089 176.435 61.4096 176.887C59.1571 178.925 58.0338 182.486 57.001 185.249C56.2534 187.249 55.6496 189.287 55.163 191.354C57.4782 190.985 59.7798 190.533 62.063 189.99C63.7265 189.595 65.3743 189.139 67.0099 188.64C67.9089 188.365 68.8039 188.077 69.6944 187.776Z" fill="#F9BA7A"/>
<path id="Vector_19" d="M24.6799 83.5022C18.8031 85.9783 12.9263 88.4543 7.04943 90.9304C4.26077 92.1053 1.3326 93.5046 -1.79706 92.1162C-4.33037 90.9924 -5.47043 88.557 -6.03269 86.2311C-6.60159 83.8776 -6.86217 81.4786 -7.44678 79.122C-8.06591 76.6262 -8.86305 74.1717 -9.81136 71.7523C-11.6766 66.9933 -14.096 62.403 -17.0801 58.1054C-18.0769 56.67 -18.0152 54.8435 -16.4466 53.8061C-15.0702 52.8957 -12.6529 53.0879 -11.6587 54.5198C-5.93197 62.7669 -1.94081 71.8302 -0.0413189 81.3301C0.300055 83.0374 0.743856 84.9331 1.09083 86.5179C1.25659 86.3829 1.88431 86.2266 2.04882 86.161C3.34391 85.6442 4.617 85.0817 5.89959 84.5413L22.0359 77.7427C25.9817 76.0803 28.5896 81.8549 24.6799 83.5022ZM1.23366 86.6774C1.18447 86.667 1.14966 86.6555 1.12118 86.6435C1.28847 87.2791 1.42479 86.7178 1.23366 86.6774Z" fill="#FFCCD7"/>
<path id="Vector_20" d="M164.839 196.536C153.496 190.446 142.372 183.947 131.519 177.011C126.54 173.829 121.339 170.745 116.769 166.974C113.725 164.462 110.345 161.017 110.431 156.764C110.496 153.519 112.594 150.621 114.303 148.022C116.403 144.828 118.505 141.635 120.606 138.442C121.516 137.059 121.503 135.226 120.134 134.121C118.938 133.155 116.753 133.205 115.838 134.595C113.848 137.62 111.857 140.646 109.867 143.671C107.987 146.528 105.992 149.391 105.004 152.705C103.284 158.474 105.376 164.063 109.336 168.348C113.39 172.734 118.537 175.857 123.493 179.092C129.464 182.99 135.516 186.762 141.636 190.418C148.456 194.491 155.371 198.403 162.368 202.16C163.824 202.941 165.768 202.028 166.399 200.59C167.107 198.974 166.3 197.321 164.839 196.536Z" fill="#E2BBDF"/>
</g>
<g id="Group_5">
<path id="Vector_21" d="M76.0608 327.184C70.1958 329.952 62.6445 328.357 58.1444 323.776C53.5243 319.072 52.2047 311.374 55.2969 305.457C58.0261 300.235 63.709 296.969 69.5083 297.172C70.115 296.708 70.9222 296.474 71.9103 296.647C79.0071 297.888 85.1225 304.098 85.4452 311.512C85.7316 318.091 82 324.382 76.0608 327.184ZM78.6151 310.423C77.8966 307.442 75.6325 304.962 72.8406 303.814C72.293 304.095 71.6185 304.202 70.8299 304.046C66.5371 303.195 61.8685 305.573 60.6123 309.955C59.5357 313.709 60.9076 317.913 64.1108 320.144C67.1662 322.271 71.572 322.525 74.6545 320.336C77.7086 318.168 79.5141 314.152 78.6151 310.423Z" fill="#FFCCD7"/>
<path id="Vector_22" d="M145.72 365.777C138.519 366.497 131.281 366.685 124.056 366.226C121.543 366.066 117.558 366.37 115.557 364.493C113.953 362.986 113.801 360.247 113.663 358.188C112.688 343.582 113.208 328.715 114.158 314.123C114.703 305.732 115.506 297.361 116.546 289.018C117.078 284.756 110.507 283.761 109.974 288.038C107.963 304.16 106.893 320.376 106.71 336.623C106.624 344.277 106.452 352.086 107.122 359.718C107.39 362.772 108.139 366.063 110.171 368.449C112.517 371.204 115.857 372.198 119.336 372.546C128.348 373.449 137.523 373.313 146.528 372.412C150.781 371.987 149.984 365.35 145.72 365.777Z" fill="#FFE58F"/>
<path id="Vector_23" d="M229.879 344.498C228.369 332.68 223.125 321.081 213.413 313.866C208.077 309.902 201.654 307.316 194.98 307.147C193.186 307.102 191.492 308.021 191.206 309.962C190.968 311.58 192.2 313.712 194.006 313.758C204.363 314.02 213.459 320.575 218.382 329.562C223.747 339.357 224.518 350.974 223.126 361.871C222.198 369.136 220.388 376.249 218.388 383.281C217.894 385.019 219.578 386.836 221.187 387.076C223.157 387.37 224.465 386.004 224.961 384.261C228.623 371.385 231.599 357.954 229.879 344.498Z" fill="#FFCCD7"/>
<path id="Vector_24" d="M156.263 313.13C151.734 313.417 147.44 310.455 145.25 306.588C142.808 302.277 142.832 296.789 144.223 292.142C145.873 286.629 149.724 281.805 150.144 275.913C150.521 270.638 148.602 265.279 143.672 262.826C139.831 260.914 137.162 267.037 140.985 268.94C144.99 270.933 143.476 277.053 142.101 280.301C139.724 285.916 136.918 291.042 136.697 297.306C136.494 303.08 138.038 308.963 141.96 313.315C145.854 317.635 151.236 320.135 157.071 319.766C161.337 319.496 160.526 312.861 156.263 313.13Z" fill="#F9BA7A"/>
<path id="Vector_25" d="M184.57 225.669C184.13 224.019 182.201 222.716 180.498 223.31C173.986 225.582 168.011 229.231 163.747 234.76C159.312 240.512 157.386 247.936 158.899 255.091C159.788 259.296 166.206 257.558 165.317 253.353C162.931 242.067 172.567 233.136 182.225 229.765C183.92 229.174 185.059 227.501 184.57 225.669Z" fill="#FDD4AA"/>
<path id="Vector_26" d="M17.465 230.554C13.9449 228.769 11.4929 234.402 14.9941 236.177C20.4634 238.949 22.5034 246.091 20.8623 251.749C18.9063 258.493 12.8551 263.211 6.53018 265.521C-1.11574 268.313 -9.13794 267.77 -17.1142 267.843C-24.7498 267.913 -32.1487 269.745 -37.2638 275.812C-42.2464 281.722 -43.9603 290.019 -41.5501 297.38C-40.3196 301.138 -34.6498 298.84 -35.878 295.089C-37.748 289.378 -35.7535 282.762 -31.5323 278.6C-26.0272 273.173 -17.6797 273.929 -10.5891 274.006C-2.3887 274.096 6.11906 273.163 13.4182 269.121C20.1761 265.379 25.7542 259.109 27.2129 251.317C28.7374 243.174 24.8998 234.322 17.465 230.554Z" fill="#AFE2DB"/>
<path id="Vector_27" d="M265.808 299.62C265.186 287.935 263.191 276.389 260.052 265.127C259.606 263.528 257.49 262.849 256.077 263.42C254.409 264.094 253.933 265.813 254.38 267.417C257.114 277.23 258.831 287.332 259.561 297.495C259.714 299.621 260.219 302.228 259.601 304.321C259.098 306.022 257.1 306.351 255.62 306.819C250.718 308.369 245.759 309.728 240.755 310.904C239.149 311.281 237.878 312.554 238.093 314.329C238.276 315.841 239.882 317.386 241.498 317.006C247.2 315.667 252.875 314.154 258.45 312.349C261.041 311.51 263.41 310.273 264.755 307.781C266.098 305.295 265.954 302.352 265.808 299.62Z" fill="#BDBFE1"/>
<path id="Vector_28" d="M207.45 291.616C205.544 291.767 203.897 290.764 202.23 289.966C195.25 286.624 188.269 283.283 181.289 279.941C179.521 279.095 177.687 278.311 177.194 276.193C176.708 274.106 178.15 272.624 179.596 271.404C182.553 268.91 185.53 266.44 188.527 263.993C194.443 259.163 200.436 254.429 206.499 249.786C207.735 248.84 209.334 248.567 210.576 249.614C212.171 249.518 213.877 250.508 213.935 252.576C214.168 260.897 213.896 269.226 213.089 277.512C212.903 279.416 212.69 281.317 212.449 283.215C212.247 284.802 212.183 286.527 211.641 288.042C210.963 289.937 209.53 291.451 207.45 291.616ZM206.095 285.034C206.169 284.582 206.217 284.123 206.277 283.671C207.47 274.638 207.982 265.513 207.895 256.402C204.065 259.364 200.261 262.361 196.49 265.398C194.096 267.327 191.714 269.271 189.344 271.231C188.273 272.115 187.206 273.003 186.14 273.894C185.733 274.235 185.327 274.577 184.92 274.918C185.125 275.004 185.315 275.086 185.477 275.163C186.763 275.779 188.049 276.394 189.335 277.01C191.815 278.197 194.295 279.385 196.775 280.572C199.255 281.759 201.735 282.946 204.215 284.134C204.842 284.434 205.468 284.734 206.095 285.034Z" fill="#ED5E7E"/>
<path id="Vector_29" d="M59.462 246.981C55.5722 246.402 54.6698 252.481 58.5661 253.062C62.4559 253.641 63.3583 247.562 59.462 246.981Z" fill="#F9BA7A"/>
<path id="Vector_30" d="M41.5015 291.836C37.9715 283.049 25.679 281.261 17.536 281.608C15.8863 281.678 14.6859 283.479 14.8739 285.033C15.0864 286.79 16.6247 287.781 18.2792 287.711C22.2522 287.541 26.4497 288.055 30.163 289.541C32.4771 290.466 35.3963 292.05 36.0374 294.711C36.4433 296.395 35.7903 298.12 35.1386 299.647C34.2425 301.747 33.2131 303.795 32.2396 305.86C30.2341 310.114 28.2287 314.368 26.2232 318.622C24.5344 322.204 30.1313 324.677 31.8143 321.107C34.1685 316.113 36.5228 311.119 38.8771 306.126C40.9783 301.669 43.5019 296.816 41.5015 291.836Z" fill="#BDBFE1"/>
<path id="Vector_31" d="M135.23 214.264C140.381 216.191 144.101 220.861 144.15 226.449C144.164 228.118 142.398 229.392 140.862 229.27C139.113 229.13 138.072 227.623 138.058 225.963C138.036 223.511 136.017 221.418 133.953 220.382C131.031 218.916 127.544 219.363 124.527 220.257C119.021 221.887 113.827 225.332 109.698 229.42C116.298 236.857 116.835 248.802 113.656 258.043C111.619 263.965 107.833 269.206 102.457 272.454C97.3013 275.568 90.8215 276.41 85.1348 274.363C81.4302 273.029 83.5127 267.249 87.2201 268.584C92.3115 270.417 97.9902 268.791 101.973 265.269C106.234 261.502 108.536 255.812 109.229 250.242C109.862 245.156 109.357 239.595 106.443 235.236C106.193 234.863 105.922 234.496 105.633 234.14C102.89 237.791 100.322 241.708 96.115 243.712C91.7906 245.771 85.5412 245.104 82.6582 240.928C78.8475 235.407 82.9492 228.466 87.8771 225.37C92.9919 222.156 99.2942 222.426 104.486 225.265C104.649 225.354 104.802 225.451 104.961 225.544C108.724 221.68 113.242 218.486 118.113 216.204C123.338 213.757 129.616 212.165 135.23 214.264ZM99.4814 232.164C99.9517 231.529 100.426 230.899 100.907 230.276C99.2039 229.426 97.3296 228.982 95.4116 229.16C93.2842 229.359 91.2603 230.209 89.661 231.635C88.3134 232.836 86.9533 234.892 87.3513 236.785C87.4541 237.274 87.6589 237.549 88.208 237.937C88.6191 238.227 89.5136 238.546 89.9152 238.609C91.6419 238.882 92.9883 238.61 94.492 237.582C96.5369 236.184 98.0249 234.133 99.4814 232.164Z" fill="#B9D5EA"/>
</g>
</g>
<g id="Group_6">
</g>
<g id="Group_7">
<g id="Group_8">
<g id="Group_9">
<path id="Vector_32" d="M311.19 82.2152C310.843 78.8425 310.523 75.4959 309.24 72.3303C307.107 67.0641 302.873 62.7292 297.799 60.3265C292.586 57.8581 286.66 57.1887 281.189 59.1236C278.029 60.2411 275.096 62.0261 271.804 62.7513C269.534 63.2513 267.121 63.1719 264.862 62.6198C259.264 61.2517 254.664 57.4564 252.433 52.0416C251.745 50.3732 249.33 49.9949 247.937 50.8084C246.238 51.8007 246.058 53.6946 246.748 55.3682C251.163 66.0839 264.247 72.2703 275.115 68.7698C278.457 67.6933 281.502 65.7733 284.934 64.9727C287.187 64.4473 289.572 64.5623 291.806 65.1547C296.608 66.4284 300.919 69.7627 303.017 74.3926C304.351 77.338 304.435 80.6961 304.801 83.8585C305.289 88.0913 306.19 91.8341 308.798 95.269C309.885 96.7012 312.308 96.4433 313.448 95.2887C314.832 93.8861 314.533 92.0034 313.441 90.5656C311.704 88.278 311.473 84.9722 311.19 82.2152Z" fill="#AFE2DB"/>
<path id="Vector_33" d="M306.972 117.741C306.767 116.045 305.039 114.482 303.27 114.83C296.506 116.159 290.079 118.926 285.085 123.798C279.89 128.865 276.945 135.943 277.443 143.24C277.736 147.529 284.333 146.716 284.04 142.428C283.255 130.917 294.044 123.436 304.078 121.465C305.838 121.119 307.2 119.624 306.972 117.741Z" fill="#ED5E7E"/>
</g>
<g id="Group_10">
<path id="Vector_34" d="M394.03 22.9987C392.372 23.9188 391.958 25.8993 392.726 27.5387C396.966 36.5943 398.493 46.9455 397.062 56.8544C395.565 67.2218 390.558 76.4874 382.689 83.3412C377.323 88.0154 371.024 91.4731 364.649 94.5424C360.789 96.4006 364.011 102.246 367.858 100.394C379.638 94.7227 391.096 87.2485 397.667 75.5328C403.234 65.6059 405.045 53.9965 403.799 42.7494C403.089 36.344 401.272 30.1381 398.544 24.3106C397.778 22.676 395.53 22.1665 394.03 22.9987Z" fill="#ED5E7E"/>
<path id="Vector_35" d="M302.397 285.611C303.832 284.369 303.834 282.345 302.749 280.899C296.754 272.909 293.151 263.092 292.534 253.098C291.888 242.642 294.901 232.541 301.207 224.212C305.508 218.531 310.969 213.849 316.584 209.531C319.983 206.917 315.638 201.859 312.25 204.465C301.875 212.443 292.182 222.119 288.137 234.94C284.71 245.804 285.302 257.54 288.812 268.292C290.811 274.415 293.854 280.115 297.711 285.257C298.793 286.699 301.098 286.735 302.397 285.611Z" fill="#FFE58F"/>
<path id="Vector_36" d="M483.588 22.9439C477.723 25.7113 470.172 24.1167 465.672 19.5355C461.052 14.832 459.732 7.13366 462.824 1.21686C465.553 -4.00566 471.236 -7.2708 477.036 -7.06809C477.642 -7.53237 478.45 -7.76634 479.438 -7.59349C486.534 -6.35185 492.65 -0.142135 492.973 7.27172C493.259 13.8503 489.527 20.1416 483.588 22.9439ZM486.142 6.18236C485.424 3.20194 483.16 0.721498 480.368 -0.426212C479.82 -0.144791 479.146 -0.0383449 478.357 -0.19447C474.064 -1.04519 469.396 1.33315 468.14 5.71433C467.063 9.46914 468.435 13.673 471.638 15.9037C474.694 18.031 479.099 18.2848 482.182 16.0961C485.236 13.9274 487.041 9.9113 486.142 6.18236Z" fill="#FFCCD7"/>
<path id="Vector_37" d="M553.248 61.5365C546.047 62.2565 538.808 62.4444 531.584 61.9854C529.07 61.8258 525.085 62.1299 523.085 60.2523C521.48 58.746 521.328 56.0065 521.19 53.948C520.215 39.3412 520.736 24.4749 521.685 9.88231C522.231 1.49179 523.033 -6.87968 524.074 -15.2227C524.605 -19.4843 518.034 -20.4793 517.501 -16.2025C515.491 -0.0806179 514.42 16.136 514.238 32.3823C514.152 40.0371 513.979 47.8453 514.649 55.4779C514.917 58.5314 515.667 61.8224 517.699 64.2085C520.045 66.9641 523.384 67.9579 526.863 68.3061C535.876 69.2083 545.051 69.0721 554.056 68.1717C558.308 67.7465 557.511 61.11 553.248 61.5365Z" fill="#FFE58F"/>
<path id="Vector_38" d="M501.268 59.2711C495.494 54.478 489.245 49.6627 481.964 47.5034C474.535 45.3002 467.185 46.6664 460.942 51.2592C455.083 55.5703 450.257 61.5599 445.613 67.1128C440.647 73.0492 435.984 79.2403 431.643 85.6526C426.634 93.0519 422.05 100.747 417.9 108.665C417.064 110.262 418.042 112.382 419.602 113.071C421.345 113.841 423.143 112.962 423.983 111.359C430.672 98.5939 438.571 86.5058 447.557 75.2569C451.847 69.8883 456.297 64.4499 461.268 59.6998C465.769 55.4003 471.067 52.2411 477.478 53.2737C484.996 54.4843 491.42 59.7619 497.116 64.4904C500.423 67.2353 504.565 62.0083 501.268 59.2711Z" fill="#AFE2DB"/>
<path id="Vector_39" d="M570.997 128.056C557.727 121.015 545.085 112.837 533.211 103.613C531.146 102.009 531.358 99.0868 533.648 97.8167C537.79 95.5201 542.105 93.546 546.54 91.9005C547.033 91.3101 547.73 90.8704 548.521 90.6428C551.437 89.8031 554.353 88.9634 557.269 88.1237C559.669 87.4327 562.108 86.5428 564.604 86.2733C567.062 86.0077 569.584 86.3086 571.635 87.8104C574.185 89.6773 575.119 92.7672 575.881 95.6925C578.497 105.735 578.392 116.306 575.993 126.373C575.443 128.68 572.702 128.961 570.997 128.056ZM567.76 93.2266C567.434 93.4061 567.056 93.5392 566.615 93.6053C557.795 94.9284 549.302 97.5488 541.29 101.387C550.599 108.31 560.356 114.6 570.495 120.222C571.626 113.192 571.391 105.953 569.851 99.0022C569.497 97.4075 569.204 94.5122 567.925 93.3571C567.873 93.3093 567.817 93.2673 567.76 93.2266Z" fill="#BDBFE1"/>
<path id="Vector_40" d="M499.751 137.566C494.457 141.136 487.471 140.577 482.273 137.127C476.783 133.482 474.758 126.786 476.781 120.592C478.693 114.738 484.247 109.91 490.486 109.682C491.3 109.653 492.086 109.855 492.726 110.26C498.749 109.98 504.163 115.288 505.553 121.421C506.874 127.25 504.817 134.148 499.751 137.566ZM499.042 122.622C498.728 121.213 497.851 119.524 496.803 118.552C495.698 117.528 493.421 116.192 491.89 117.078C490.633 117.806 489.145 117.941 488.001 117.135C485.397 118.357 483.388 120.814 482.795 123.62C482.058 127.11 483.595 130.292 486.545 131.969C489.63 133.723 493.459 133.977 496.277 131.847C498.976 129.807 499.787 125.958 499.042 122.622Z" fill="#F9BA7A"/>
<path id="Vector_41" d="M563.791 8.8902C559.261 9.17697 554.967 6.21503 552.777 2.34803C550.335 -1.96358 550.359 -7.45103 551.75 -12.0981C553.401 -17.6109 557.251 -22.4351 557.672 -28.327C558.048 -33.6023 556.129 -38.9608 551.199 -41.4142C547.358 -43.3262 544.69 -37.2027 548.513 -35.2999C552.517 -33.3069 551.003 -27.1873 549.628 -23.9388C547.252 -18.3238 544.445 -13.1983 544.225 -6.93387C544.021 -1.16063 545.565 4.72281 549.487 9.07427C553.382 13.3948 558.763 15.8948 564.599 15.5254C568.864 15.2556 568.053 8.62059 563.791 8.8902Z" fill="#F9BA7A"/>
<path id="Vector_42" d="M569.306 154.918C564.146 150.682 557.382 149.104 550.91 150.739C545.347 152.144 540.841 156.054 537.001 160.158C533.287 164.126 529.971 168.655 525.551 171.88C521.546 174.803 516.668 176.152 511.728 175.656C506.27 175.108 500.881 172.638 497.433 168.259C496.319 166.846 494.425 166.248 492.832 167.299C491.434 168.221 490.758 170.506 491.877 171.927C499.037 181.017 511.747 184.78 522.678 180.918C528.165 178.98 532.515 175.048 536.391 170.813C540.054 166.813 543.417 162.276 548.009 159.287C553.227 155.891 559.961 155.866 564.874 159.899C568.182 162.614 572.623 157.641 569.306 154.918Z" fill="#FFCCD7"/>
<path id="Vector_43" d="M457.752 184.681C454.205 190.339 446.752 193.227 440.314 191.823C433.074 190.243 427.467 185.082 422.954 179.432C422.117 178.384 421.294 177.293 420.496 176.164C415.357 180.26 411.038 185.174 405.125 188.26C399.399 191.249 392.828 192.445 386.415 192.022C373.641 191.179 362.285 182.7 357.048 171.086C355.274 167.154 361.454 164.692 363.215 168.596C369.287 182.059 384.971 188.764 398.81 183.745C405.657 181.261 410.317 175.985 415.778 171.421C416.152 171.108 416.533 170.804 416.918 170.506C411.291 160.449 408.513 148.531 414.676 138.037C415.593 136.477 417.255 135.531 419.059 136.331C420.563 136.999 421.668 139.185 420.755 140.74C416.892 147.317 417.285 155.098 420.063 162.012C420.733 163.679 421.521 165.339 422.406 166.968C426.482 164.814 430.938 163.427 435.576 162.985C442.09 162.365 449.21 163.416 454.45 167.643C459.634 171.825 461.387 178.884 457.752 184.681ZM452.035 174.698C449.196 170.646 443.475 169.431 438.837 169.485C434.338 169.537 429.939 170.619 425.961 172.619C427.823 175.204 429.908 177.61 432.122 179.71C436.056 183.444 441.579 186.933 447.144 184.882C451.317 183.343 454.99 178.917 452.035 174.698Z" fill="#FCD861"/>
<path id="Vector_44" d="M449.029 -12.4039C445.499 -21.1915 433.206 -22.9793 425.063 -22.6322C423.414 -22.5619 422.213 -20.761 422.401 -19.2072C422.614 -17.45 424.152 -16.4591 425.807 -16.5296C429.78 -16.699 433.977 -16.1854 437.69 -14.6998C440.004 -13.7739 442.924 -12.1899 443.565 -9.52973C443.971 -7.84561 443.318 -6.12052 442.666 -4.59337C441.77 -2.49317 440.74 -0.445354 439.767 1.61946C437.761 5.87339 435.756 10.1273 433.751 14.3812C432.062 17.9633 437.659 20.4365 439.342 16.8665C441.696 11.8728 444.05 6.87904 446.404 1.88531C448.506 -2.57164 451.029 -7.42409 449.029 -12.4039Z" fill="#BDBFE1"/>
<path id="Vector_45" d="M554.128 220.772C550.999 226.502 543.936 229.353 537.652 227.926C531.344 226.494 526.819 221.263 525.793 214.894C524.785 208.637 527.844 202.574 533.565 199.896C538.775 197.459 544.896 198.366 549.075 202.185C549.276 202.271 549.472 202.372 549.662 202.489C555.557 206.12 557.394 214.79 554.128 220.772ZM545.984 207.384C545.582 207.174 545.205 206.887 544.876 206.541C542.463 203.998 537.681 204.158 534.767 206.242C531.831 208.342 531.039 212.216 532.246 215.681C533.546 219.412 536.602 221.957 540.573 222.134C544.278 222.299 548.231 220.203 549.32 216.5C550.297 213.178 549.023 209.353 545.984 207.384Z" fill="#FFE0C2"/>
<path id="Vector_46" d="M455.407 133.91C455.339 133.374 455.146 132.888 454.827 132.453C454.317 131.819 453.64 131.366 452.821 131.244L452.094 131.136C451.68 131.058 451.279 131.087 450.891 131.224C450.498 131.291 450.143 131.452 449.825 131.707C449.49 131.939 449.234 132.234 449.056 132.593C448.814 132.927 448.669 133.304 448.623 133.725L448.612 134.549C448.68 135.086 448.873 135.572 449.192 136.007C449.703 136.641 450.379 137.094 451.198 137.216L451.925 137.324C452.339 137.402 452.74 137.373 453.129 137.236C453.521 137.169 453.876 137.008 454.194 136.752C454.529 136.521 454.786 136.226 454.963 135.867C455.206 135.533 455.35 135.156 455.396 134.735C455.4 134.46 455.403 134.185 455.407 133.91Z" fill="#B9D5EA"/>
<path id="Vector_47" d="M430.486 45.6883C430.419 45.1518 430.225 44.666 429.907 44.2309C429.396 43.5967 428.719 43.144 427.9 43.0219L427.173 42.9135C426.759 42.8356 426.358 42.865 425.97 43.0017C425.577 43.0684 425.222 43.2296 424.905 43.4853C424.569 43.7167 424.313 44.0118 424.135 44.3705C423.893 44.7046 423.749 45.0821 423.703 45.503C423.699 45.7778 423.695 46.0525 423.691 46.3273C423.759 46.8637 423.952 47.3495 424.271 47.7846C424.782 48.4188 425.458 48.8716 426.277 48.9937L427.005 49.1021C427.418 49.1799 427.819 49.1505 428.208 49.0139C428.6 48.9471 428.956 48.7859 429.273 48.5303C429.608 48.2988 429.865 48.0038 430.042 47.645C430.285 47.3109 430.429 46.9334 430.475 46.5126C430.479 46.2378 430.483 45.963 430.486 45.6883Z" fill="#B9D5EA"/>
<path id="Vector_48" d="M342.007 196.956C341.939 196.42 341.746 195.934 341.427 195.499C340.916 194.865 340.24 194.412 339.421 194.29L338.694 194.181C338.28 194.104 337.879 194.133 337.49 194.27C337.098 194.336 336.743 194.498 336.425 194.753C336.09 194.985 335.833 195.28 335.656 195.638C335.413 195.973 335.269 196.35 335.223 196.771C335.219 197.046 335.216 197.32 335.212 197.595C335.28 198.132 335.473 198.617 335.792 199.053C336.303 199.687 336.979 200.14 337.798 200.262L338.525 200.37C338.939 200.448 339.34 200.418 339.728 200.282C340.121 200.215 340.476 200.054 340.794 199.798C341.129 199.567 341.385 199.272 341.563 198.913C341.805 198.579 341.95 198.201 341.996 197.781C341.999 197.506 342.003 197.231 342.007 196.956Z" fill="#E2BBDF"/>
<path id="Vector_49" d="M560.547 272.151C564.072 275.59 568.794 280.304 574.186 279.485C577.881 278.923 580.95 276.125 584.089 274.298C586.755 272.747 589.75 271.585 592.804 271.095C593.119 270.119 593.446 269.158 593.777 268.221C595.931 262.118 598.715 255.932 602.611 250.741C606.336 245.779 611.249 241.601 617.414 240.236C623.082 238.98 628.977 240.149 633.35 244.069C634.588 245.179 634.362 247.345 633.24 248.415C631.971 249.626 630.15 249.408 628.919 248.304C625.553 245.288 620.224 245.324 616.254 247.001C610.737 249.331 607.029 254.484 604.244 259.594C602.258 263.236 600.602 267.062 599.279 270.998C603.046 271.522 606.593 273.112 609.32 276.01C613.042 279.968 614.966 286.084 612.744 291.273C610.758 295.912 605.836 298.951 600.829 298.841C594.431 298.7 590.707 293.142 590.233 287.183C589.992 284.157 590.324 281.022 590.961 277.929C588.246 278.915 585.741 280.489 583.214 282.094C578.491 285.093 573.245 286.812 567.791 284.755C563.24 283.039 559.556 279.742 556.115 276.387C553.28 273.622 557.734 269.409 560.547 272.151ZM606.688 282.842C604.893 279.22 601.437 277.25 597.548 276.949C597.05 278.951 596.634 280.983 596.416 283.028C596.168 285.339 596.035 288.006 597.131 290.138C598.774 293.337 602.13 293.266 604.916 291.501C606.02 290.802 607.021 289.59 607.391 288.107C607.831 286.34 607.486 284.453 606.688 282.842Z" fill="#AFE2DB"/>
<path id="Vector_50" d="M358.38 60.4201C356.119 65.4579 351.234 68.8733 345.687 68.5426C344.03 68.4438 342.887 66.5847 343.113 65.052C343.37 63.3059 344.936 62.3642 346.583 62.4624C349.017 62.6075 351.23 60.7231 352.398 58.7231C354.051 55.8904 353.844 52.3612 353.163 49.2729C351.92 43.6364 348.856 38.1911 345.081 33.7698C337.256 39.8877 325.37 39.6143 316.419 35.7968C310.683 33.3506 305.742 29.1949 302.886 23.5794C300.147 18.1947 299.752 11.6352 302.169 6.06782C303.743 2.44096 309.336 4.92345 307.76 8.55308C305.596 13.5376 306.823 19.3464 310.045 23.5825C313.492 28.1139 318.981 30.8106 324.458 31.8845C329.461 32.8654 335.011 32.7367 339.532 30.108C339.92 29.8824 340.302 29.6352 340.675 29.3702C337.24 26.3698 333.529 23.526 331.827 19.1686C330.078 14.6893 331.164 8.46357 335.503 5.85433C341.238 2.40541 347.844 6.99292 350.581 12.1483C353.422 17.4991 352.726 23.805 349.556 28.8216C349.457 28.979 349.35 29.1267 349.247 29.2799C352.825 33.3177 355.686 38.0691 357.618 43.1119C359.69 48.5207 360.844 54.9294 358.38 60.4201ZM343.053 23.3312C343.651 23.8463 344.243 24.3651 344.829 24.8902C345.787 23.2387 346.356 21.3881 346.309 19.4514C346.257 17.3031 345.551 15.2145 344.245 13.5128C343.145 12.0788 341.198 10.5743 339.293 10.8451C338.801 10.915 338.514 11.1019 338.093 11.6266C337.777 12.0193 337.4 12.8953 337.31 13.294C336.921 15.0081 337.1 16.3777 338.018 17.9564C339.266 20.1034 341.199 21.7359 343.053 23.3312Z" fill="#F9BA7A"/>
<path id="Vector_51" d="M385.422 223.307C384.159 228.801 379.127 233.169 373.507 233.581C367.554 234.017 362.004 230.11 359.805 224.618C357.505 218.872 359.068 211.965 364.043 208.186C368.752 204.609 375.818 204.68 379.698 209.393C384.074 212.354 386.628 218.067 385.422 223.307ZM374.553 213.649C373.749 213.359 373.195 212.672 372.93 211.878C370.245 211.083 366.864 213.121 365.639 215.587C363.62 219.649 365.609 224.953 369.671 226.831C373.27 228.494 377.795 226.573 379.211 222.838C380.643 219.061 378.138 214.941 374.553 213.649Z" fill="#ED5E7E"/>
<path id="Vector_52" d="M404.738 271.934C400.537 267.063 394.456 264.076 388.071 263.615C382.132 263.186 376.621 265.474 371.169 267.493C365.761 269.495 360.487 270.88 354.872 268.797C349.539 266.819 344.853 262.476 341.83 257.693C338.643 252.651 336.82 246.563 338.311 240.633C339.272 236.809 333.42 235.035 332.454 238.879C329.314 251.365 336.457 264.173 346.524 271.229C352.171 275.187 358.853 276.899 365.642 275.572C371.434 274.439 376.671 271.465 382.425 270.193C389.061 268.725 395.821 270.969 400.276 276.135C402.861 279.132 407.311 274.917 404.738 271.934Z" fill="#FFCCD7"/>
<path id="Vector_53" d="M430.542 244.328C428.901 246.334 425.461 246.883 423.109 247.57C418.32 248.97 413.443 250.02 408.505 250.697C406.83 252.766 402.605 251.603 403.082 248.302C404.007 241.915 405.901 235.529 408.896 229.804C411.022 225.741 415.365 221.214 420.344 223.677C422.711 224.847 424.128 227.17 425.509 229.323C427.004 231.653 428.392 234.051 429.701 236.492C430.996 238.909 432.608 241.801 430.542 244.328ZM424.597 240.679C424.732 240.633 424.889 240.56 425.051 240.487C424.604 239.513 423.9 238.526 423.472 237.759C422.568 236.137 421.604 234.547 420.601 232.985C419.886 231.871 419.006 229.871 417.778 229.238C417.349 229.017 416.811 229.338 416.312 229.79C414.059 231.828 412.936 235.388 411.903 238.151C411.156 240.152 410.552 242.189 410.065 244.257C412.381 243.887 414.682 243.436 416.965 242.893C418.629 242.497 420.277 242.042 421.912 241.542C422.811 241.268 423.706 240.98 424.597 240.679Z" fill="#F9BA7A"/>
<path id="Vector_54" d="M306.728 166.303C307.425 163.802 310.352 161.904 312.229 160.321C316.051 157.098 320.092 154.159 324.34 151.537C325.043 148.964 329.376 148.315 330.262 151.529C331.977 157.749 332.804 164.36 332.358 170.814C332.042 175.395 329.883 181.298 324.339 181.064C321.704 180.953 319.476 179.403 317.349 177.993C315.047 176.467 312.815 174.835 310.639 173.132C308.485 171.446 305.85 169.453 306.728 166.303ZM313.631 167.231C313.526 167.328 313.411 167.458 313.292 167.591C314.092 168.3 315.132 168.918 315.831 169.447C317.309 170.564 318.828 171.628 320.372 172.651C321.473 173.38 323.08 174.853 324.458 174.934C324.938 174.963 325.302 174.451 325.578 173.835C326.822 171.056 326.423 167.343 326.26 164.395C326.142 162.262 325.878 160.152 325.494 158.063C323.524 159.34 321.598 160.687 319.727 162.11C318.363 163.146 317.038 164.231 315.741 165.352C315.029 165.968 314.325 166.594 313.631 167.231Z" fill="#B9D5EA"/>
<path id="Vector_55" d="M379.581 136.405C373.704 138.881 367.828 141.357 361.951 143.833C359.162 145.008 356.234 146.407 353.104 145.019C350.571 143.895 349.431 141.46 348.869 139.134C348.3 136.78 348.039 134.381 347.455 132.025C346.835 129.529 346.038 127.074 345.09 124.655C343.225 119.896 340.805 115.306 337.821 111.008C336.825 109.573 336.886 107.746 338.455 106.709C339.831 105.798 342.248 105.991 343.243 107.422C348.969 115.67 352.961 124.733 354.86 134.233C355.201 135.94 355.645 137.836 355.992 139.421C356.158 139.286 356.786 139.129 356.95 139.064C358.245 138.547 359.518 137.984 360.801 137.444L376.937 130.645C380.883 128.983 383.491 134.758 379.581 136.405ZM356.135 139.58C356.086 139.57 356.051 139.558 356.023 139.546C356.19 140.182 356.326 139.621 356.135 139.58Z" fill="#FFCCD7"/>
<path id="Vector_56" d="M519.74 249.439C508.397 243.348 497.273 236.85 486.421 229.914C481.441 226.731 476.24 223.647 471.671 219.877C468.627 217.365 465.247 213.92 465.332 209.666C465.397 206.422 467.495 203.524 469.204 200.925C471.305 197.731 473.406 194.538 475.507 191.345C476.417 189.961 476.405 188.129 475.036 187.023C473.839 186.058 471.654 186.107 470.74 187.498C468.749 190.523 466.759 193.548 464.768 196.574C462.888 199.431 460.893 202.293 459.905 205.608C458.186 211.376 460.277 216.966 464.238 221.25C468.291 225.636 473.438 228.76 478.394 231.995C484.365 235.893 490.417 239.665 496.538 243.321C503.358 247.394 510.272 251.305 517.269 255.062C518.725 255.844 520.67 254.931 521.3 253.493C522.009 251.877 521.201 250.223 519.74 249.439Z" fill="#E2BBDF"/>
</g>
</g>
<g id="Group_11">
<g id="Group_12">
<path id="Vector_57" d="M511.166 366.033C506.636 366.32 502.342 363.358 500.152 359.491C497.71 355.179 497.734 349.692 499.125 345.044C500.776 339.532 504.626 334.708 505.047 328.816C505.423 323.54 503.504 318.182 498.574 315.728C494.733 313.816 492.065 319.94 495.888 321.843C499.892 323.836 498.378 329.955 497.003 333.204C494.627 338.819 491.82 343.944 491.6 350.209C491.396 355.982 492.94 361.865 496.862 366.217C500.757 370.537 506.138 373.037 511.974 372.668C516.239 372.398 515.428 365.763 511.166 366.033Z" fill="#F9BA7A"/>
<path id="Vector_58" d="M303.25 318.174C303.281 316.466 301.786 314.676 299.986 314.773C293.103 315.143 286.357 316.984 280.737 321.109C274.892 325.401 270.997 331.998 270.481 339.294C270.177 343.582 276.823 343.7 277.126 339.412C277.941 327.903 289.659 322.005 299.868 321.457C301.659 321.361 303.215 320.071 303.25 318.174Z" fill="#FFCCD7"/>
<path id="Vector_59" d="M539.473 278.571C539.032 276.921 537.103 275.618 535.4 276.213C528.889 278.485 522.913 282.133 518.65 287.663C514.214 293.415 512.289 300.839 513.802 307.993C514.691 312.198 521.108 310.46 520.219 306.256C517.833 294.97 527.469 286.038 537.128 282.668C538.822 282.076 539.961 280.403 539.473 278.571Z" fill="#FDD4AA"/>
<path id="Vector_60" d="M372.367 283.456C368.847 281.672 366.395 287.305 369.896 289.08C375.366 291.852 377.406 298.993 375.765 304.651C373.809 311.395 367.757 316.114 361.433 318.423C353.787 321.215 345.764 320.672 337.788 320.745C330.153 320.816 322.754 322.647 317.639 328.715C312.656 334.625 310.942 342.922 313.352 350.283C314.583 354.04 320.253 351.743 319.024 347.992C317.154 342.281 319.149 335.664 323.37 331.503C328.875 326.075 337.223 326.831 344.313 326.909C352.514 326.998 361.021 326.066 368.321 322.024C375.078 318.282 380.657 312.011 382.115 304.219C383.64 296.077 379.802 287.225 372.367 283.456Z" fill="#AFE2DB"/>
<path id="Vector_61" d="M562.352 344.518C560.446 344.669 558.799 343.667 557.132 342.869C550.151 339.527 543.171 336.185 536.19 332.843C534.423 331.997 532.589 331.214 532.095 329.096C531.609 327.009 533.052 325.526 534.497 324.307C537.455 321.813 540.432 319.342 543.428 316.896C549.345 312.066 555.338 307.332 561.4 302.689C562.636 301.742 564.235 301.47 565.477 302.517C567.073 302.421 568.779 303.41 568.837 305.478C569.069 313.799 568.798 322.129 567.99 330.414C567.804 332.318 567.591 334.22 567.35 336.118C567.149 337.704 567.085 339.429 566.543 340.945C565.865 342.839 564.432 344.353 562.352 344.518ZM560.997 337.936C561.07 337.484 561.119 337.026 561.178 336.573C562.372 327.541 562.884 318.416 562.796 309.304C558.966 312.266 555.163 315.263 551.392 318.301C548.997 320.23 546.615 322.174 544.245 324.133C543.175 325.018 542.107 325.906 541.042 326.797C540.634 327.137 540.228 327.479 539.822 327.821C540.026 327.906 540.217 327.988 540.379 328.065C541.664 328.681 542.95 329.297 544.236 329.912C546.716 331.1 549.196 332.287 551.676 333.474C554.156 334.661 556.636 335.849 559.116 337.036C559.743 337.336 560.37 337.636 560.997 337.936Z" fill="#ED5E7E"/>
<path id="Vector_62" d="M414.364 299.884C410.475 299.304 409.572 305.383 413.468 305.964C417.358 306.544 418.261 300.465 414.364 299.884Z" fill="#F9BA7A"/>
<path id="Vector_63" d="M490.133 267.167C495.283 269.094 499.003 273.763 499.052 279.352C499.067 281.021 497.3 282.295 495.764 282.172C494.015 282.033 492.974 280.525 492.96 278.866C492.939 276.414 490.919 274.321 488.856 273.285C485.933 271.818 482.447 272.266 479.43 273.159C473.923 274.789 468.73 278.234 464.601 282.323C471.201 289.759 471.737 301.704 468.559 310.946C466.522 316.868 462.735 322.108 457.359 325.356C452.204 328.47 445.724 329.313 440.037 327.266C436.332 325.932 438.415 320.152 442.122 321.486C447.214 323.319 452.893 321.693 456.876 318.172C461.136 314.405 463.438 308.714 464.132 303.145C464.765 298.058 464.26 292.497 461.345 288.139C461.095 287.765 460.824 287.399 460.536 287.042C457.793 290.693 455.224 294.611 451.017 296.614C446.693 298.673 440.444 298.007 437.561 293.83C433.75 288.31 437.852 281.369 442.779 278.272C447.894 275.058 454.197 275.328 459.388 278.168C459.551 278.257 459.705 278.354 459.864 278.447C463.626 274.582 468.145 271.388 473.016 269.107C478.24 266.66 484.519 265.067 490.133 267.167ZM454.384 285.067C454.854 284.431 455.328 283.802 455.809 283.179C454.106 282.329 452.232 281.884 450.314 282.063C448.187 282.261 446.163 283.111 444.563 284.537C443.216 285.739 441.856 287.795 442.254 289.688C442.356 290.177 442.561 290.452 443.11 290.839C443.521 291.13 444.416 291.448 444.818 291.512C446.544 291.785 447.891 291.513 449.394 290.485C451.439 289.086 452.927 287.035 454.384 285.067Z" fill="#B9D5EA"/>
</g>
</g>
</g>
</g>
</g>
</g>
</g>
</g>
</g>
<g id="video-cover-container">
<rect id="Rectangle 7" y="40" width="558" height="235" fill="#A3A6D6"/>
<text id="video-title" fill="white" xml:space="preserve" style="white-space: pre" font-family="Playpen Sans" font-size="20" font-weight="bold" letter-spacing="0em"><tspan x="25" y="121.3">Instrumento de avalia&#xe7;&#xe3;o </tspan><tspan x="25" y="149.3">de desenvolvimento integral </tspan><tspan x="25" y="177.3">das crian&#xe7;as contido na </tspan><tspan x="25" y="205.3">Caderneta da Crian&#xe7;a</tspan></text>
<path id="Polygon 13" d="M311.122 162.33C314.455 160.406 314.455 155.594 311.122 153.67L265.5 127.33C262.167 125.406 258 127.811 258 131.66L258 184.34C258 188.189 262.167 190.594 265.5 188.67L311.122 162.33Z" fill="#5A5D8C"/>
<g id="silhueta">
<g id="Group 576">
<g id="Vector_64">
<mask id="path-68-inside-1_103_3636" fill="white">
<path d="M463.136 252.619C459.178 252.619 454.436 250.916 452.769 247.113C451.934 245.207 451.325 243.596 450.787 242.176C450.392 241.129 450.018 240.141 449.617 239.207C448.543 236.7 448.03 233.781 447.994 232.775C447.964 231.953 448.26 231.261 448.577 230.763C447.774 227.851 445.051 217.92 444.082 213.533C443.564 211.182 442.722 209.401 441.83 207.514C440.908 205.567 439.956 203.552 439.435 200.96C439.32 200.386 439.203 199.618 439.082 198.633C437.905 198.488 436.609 198.306 435.157 198.084C433.214 197.786 431.469 197.525 429.889 197.29C429.877 197.321 429.865 197.351 429.853 197.379C428.995 199.461 428.874 201.701 428.808 202.905C428.789 203.27 428.773 203.545 428.744 203.777C428.756 204.115 428.917 205.272 429.061 206.297C429.492 209.386 430.144 214.053 429.974 217.313C429.857 219.549 429.43 222.455 429.054 225.018C428.83 226.546 428.565 228.351 428.472 229.425C429.349 229.851 430.001 230.663 430.001 231.839C430.001 232.371 430.055 234.003 430.106 235.582C430.165 237.383 430.221 239.084 430.221 239.754C430.221 240.056 430.279 240.562 430.335 241.052C430.53 242.772 430.714 244.396 429.809 245.409C429.303 245.976 428.473 246.292 426.793 246.898C425.493 247.367 423.529 248.075 422.842 248.716C420.875 250.552 417.467 251.532 411.791 251.893C411.297 251.924 410.825 251.94 410.386 251.94C407.759 251.94 406.008 251.361 405.034 250.17C404.299 249.272 404.066 248.122 404.341 246.753C404.763 244.651 407.23 241.434 407.72 240.81C407.796 240.715 407.881 240.628 407.976 240.551C410.834 238.243 414.188 235.403 414.759 234.726C414.855 234.434 414.841 233.599 414.833 233.093C414.818 232.235 414.805 231.411 415.017 230.696C414.365 227.904 411.436 214.999 411.664 209.048C411.869 203.697 411.559 201.804 410.995 198.368C410.903 197.807 410.805 197.21 410.702 196.555C410.554 195.611 410.555 194.195 410.705 192.245C406.062 189.162 402.067 183.182 401.889 182.912C401.587 182.457 401.534 181.88 401.749 181.378C401.859 181.122 404.499 175.02 410.412 166.774C411.081 165.84 411.765 164.911 412.476 163.972C408.033 163.696 403.916 163.368 400.203 162.995C381.464 161.11 377.911 158.829 377.911 155.278C377.911 151.728 381.464 149.447 400.203 147.562C407.366 146.841 415.772 146.306 425.203 145.97L425.285 145.721C427.313 139.501 429.614 132.45 430.607 125.224C430.728 124.349 431.05 123.178 431.589 121.665C430.963 121.181 430.265 120.631 429.461 119.934C427.84 118.53 419.576 111.33 416.03 107.446C413.054 104.188 411.957 101.6 411.334 99.7098C410.532 97.2795 410.462 92.9889 410.399 89.2038C410.384 88.2317 410.368 87.3087 410.341 86.4886C410.318 85.7951 410.302 85.0985 410.288 84.4134C410.241 82.2301 410.171 78.9312 409.658 78.2567C408.747 77.0613 408.163 74.8184 408.077 73.3148C408.031 72.5068 408.151 71.5838 408.257 70.7695C408.316 70.313 408.406 69.6221 408.384 69.4116C408.244 68.4094 408.03 66.8873 409.004 65.693C409.35 65.2677 409.998 64.7642 411.134 64.7236C411.475 64.3853 411.941 64.0111 412.512 63.752C412.953 63.5525 413.441 63.4512 413.96 63.4512C414.302 63.4512 414.614 63.496 414.871 63.5514C415.253 63.4364 415.769 63.3192 416.293 63.3192C416.442 63.3192 416.589 63.3287 416.731 63.3477C417.141 63.4021 417.496 63.5182 417.79 63.6496C417.792 63.6491 417.794 63.6491 417.796 63.6485C417.964 63.6084 418.145 63.5878 418.331 63.5878C418.813 63.5878 419.323 63.7361 419.772 63.9209C420.24 63.6295 420.813 63.4285 421.468 63.4285C421.766 63.4285 422.068 63.4707 422.366 63.5541C423.02 63.7377 423.557 64.1826 423.879 64.8069C424.535 66.0767 424.115 67.5871 423.904 68.1772C423.809 68.5033 423.825 69.7293 423.835 70.541C423.852 71.8836 423.869 73.2721 423.621 74.2447C423.31 75.4665 422.362 76.4998 421.527 77.4112C421.291 77.6677 420.956 78.0329 420.796 78.2498C420.864 79.4705 421.651 84.88 422.523 87.8628C423.192 90.1506 424.087 92.2975 424.679 93.7182C424.899 94.247 425.083 94.6882 425.208 95.0181C425.498 95.786 427.003 97.0325 428.596 98.3524L428.929 98.629C429.159 98.8195 429.401 99.0037 429.651 99.182C429.64 99.0992 429.635 99.0142 429.635 98.9261C429.522 98.7867 429.427 98.6279 429.355 98.4527C428.9 97.3486 429.584 95.6741 430.094 95.1669C430.131 95.1226 430.164 95.0635 430.2 95.007C430.349 94.779 430.552 94.4666 430.894 94.1768C431.142 93.9668 431.418 93.8085 431.691 93.6839C431.788 92.9878 432.152 92.2247 433.177 91.641C433.757 91.3106 434.406 91.1512 435.025 91.0689C435.042 90.9977 435.146 90.586 435.146 90.586C435.167 90.4974 435.177 90.424 435.187 90.3586C435.268 89.8266 435.405 89.2524 436.101 88.5953C436.326 88.3837 436.56 88.1684 436.814 87.9684C436.983 86.9788 437.637 86.3429 438.038 85.9524C438.166 85.8278 438.381 85.6183 438.411 85.5418C438.429 85.4832 438.436 85.4188 438.447 85.3549C438.494 85.0937 438.558 84.737 438.75 84.3396C438.908 84.0139 439.114 83.7759 439.28 83.6076C439.292 83.3949 439.327 83.1236 439.438 82.8286C439.805 81.8602 440.556 81.3625 441.052 81.0327C441.154 80.9656 441.251 80.9007 441.328 80.8437C441.401 80.7107 441.48 80.5719 441.581 80.4279C441.793 80.1276 442.025 79.8758 442.298 79.6515C442.308 79.5956 442.32 79.5381 442.336 79.479C442.742 77.9501 443.878 76.6861 445.303 76.181C445.789 76.009 446.363 75.8243 446.942 75.7546C446.958 75.7525 446.976 75.7509 446.996 75.7493C447.232 75.4142 447.625 74.9815 448.277 74.773C448.48 74.7086 448.692 74.6764 448.911 74.6764C448.984 74.6764 449.053 74.6801 449.119 74.6859C449.225 74.5888 449.344 74.4643 449.467 74.3355C450.043 73.7307 450.916 72.8166 452.421 72.8166C452.546 72.8166 452.675 72.823 452.809 72.8367C452.859 72.7945 452.911 72.7496 452.953 72.7127C453.241 72.4604 453.6 72.1459 454.102 71.9295C454.533 71.7442 454.982 71.6508 455.44 71.6508C456.262 71.6508 456.917 71.9458 457.395 72.1606L457.496 72.2055C457.583 72.2245 457.685 72.2345 457.792 72.2482C458.109 72.2905 458.673 72.3654 459.208 72.6156C459.643 72.4208 460.162 72.2514 460.753 72.2514C460.937 72.2514 461.121 72.2678 461.3 72.301C461.569 72.3506 461.787 72.4282 461.957 72.5068C462.192 72.4609 462.417 72.4382 462.637 72.4382C463.532 72.4382 464.316 72.8092 464.969 73.5412C465.013 73.5502 465.061 73.5602 465.114 73.5718C466.376 73.8542 466.983 74.6052 467.419 75.1873C467.48 75.2179 467.564 75.257 467.627 75.286C467.793 75.3625 467.957 75.4406 468.105 75.524C468.801 75.9161 469.326 76.4834 469.648 77.1859L469.813 77.2318C470.383 77.3875 471.092 77.5812 471.731 78.0693C472.022 78.2921 472.222 78.5264 472.368 78.6974C472.411 78.748 472.451 78.8019 472.502 78.8467C472.847 79.0483 473.352 79.2774 473.839 79.4985C474.066 79.6014 474.289 79.7022 474.5 79.803C475.888 80.4643 476.252 81.5562 476.469 82.2085C476.52 82.3584 476.595 82.5843 476.636 82.6291C476.7 82.6982 476.769 82.7542 476.833 82.8101C477.173 83.1051 477.741 83.5996 477.935 84.5322C477.95 84.604 477.961 84.6678 477.971 84.7253C478.118 84.8969 478.242 85.0705 478.352 85.2267C478.422 85.3259 478.529 85.4758 478.574 85.5212C478.644 85.5824 478.727 85.6325 478.802 85.6816C479.211 85.9497 479.972 86.449 480.195 87.6966C480.222 87.8459 480.231 87.9868 480.231 88.113C480.361 88.2391 480.506 88.389 480.634 88.5684C481.254 89.4397 481.303 90.2256 481.339 90.7992C481.351 90.9887 481.361 91.1528 481.392 91.3001C481.418 91.4204 481.579 91.7085 481.697 91.9191C481.931 92.336 482.196 92.8084 482.331 93.3826C482.432 93.8206 482.415 94.2006 482.369 94.4967C482.919 94.8893 483.913 95.6155 483.938 97.1576C483.944 97.5296 483.892 97.8458 483.835 98.0938C484.419 98.6485 484.862 99.3536 484.754 100.53C484.71 101 484.465 101.428 484.081 101.702C484.075 101.706 484.068 101.71 484.062 101.715C484.11 101.795 484.159 101.87 484.211 101.945C484.513 102.368 484.62 102.836 484.64 103.268C486.023 104.277 486.604 105.885 486.087 107.317C486.04 107.446 485.985 107.562 485.928 107.666C486.786 109.138 485.944 110.397 485.497 110.96C485.494 110.984 485.49 111.008 485.486 111.032C485.452 111.226 485.405 111.504 485.287 111.801C485.65 112.26 485.709 112.781 485.718 112.95C485.803 114.468 484.447 115.046 483.937 115.264C483.921 115.271 483.906 115.277 483.89 115.284C483.76 115.504 483.578 115.691 483.361 115.828C484.991 115.849 486.366 115.88 487.285 115.945C488.975 116.065 490.408 116.129 491.427 116.129C491.756 116.129 492.003 116.122 492.183 116.113C492.823 114.765 494.169 110.983 494.794 108.702C495.844 104.879 496.504 100.403 496.17 99.4053C494.947 97.6099 494.097 93.6116 493.976 92.6838C493.805 91.3586 494.712 89.8451 496.811 86.953C496.969 86.7355 497.115 86.5345 497.243 86.355C498.096 85.157 498.901 84.0255 500.272 84.0255C500.67 84.0255 501.066 84.1306 501.449 84.3369C501.929 84.595 502.286 84.9465 502.546 85.2921C503.121 85.3402 503.819 85.5027 504.496 85.9249C505.113 85.9925 506.029 86.2147 506.793 86.9034C507.265 87.3287 507.561 87.7515 507.747 88.1225C508.372 88.4808 509.199 89.1136 509.592 90.0957C509.663 90.272 509.789 90.4958 509.923 90.7333C510.353 91.4959 510.941 92.5403 510.891 94.0095C510.83 95.796 510.176 97.0943 509.106 99.02C508.379 100.329 507.679 101.901 507.406 102.53C507.373 104.519 507.452 106.751 507.535 109.106C507.669 112.925 507.808 116.873 507.522 120.633C507.061 126.692 505.313 128.517 503.408 129.99L503.212 130.143C501.841 131.217 498.031 131.48 487.986 131.684C486.749 131.709 485.555 131.733 484.466 131.763C483.982 131.776 483.505 131.782 483.034 131.782C481.064 131.782 479.191 131.677 477.539 131.584C476.175 131.508 474.886 131.436 473.773 131.436C473.169 131.436 472.648 131.456 472.195 131.5C472.372 133.27 472.493 134.818 471.229 136.465C470.869 137.189 470.411 137.985 469.865 138.834C468.426 141.07 467.334 143.159 466.22 145.843C477.064 146.156 487.011 146.747 495.112 147.562C513.853 149.447 517.405 151.729 517.402 155.279C517.402 158.828 513.85 161.109 495.11 162.995C486.175 163.893 475.078 164.515 462.92 164.799C463.765 169.613 465.282 174.454 466.654 176.562C469.525 180.973 473.309 188.024 473.468 188.322C473.735 188.821 473.724 189.423 473.437 189.91C473.279 190.18 469.439 196.517 458.808 197.693C458.577 197.719 458.351 197.744 458.13 197.77C458.119 198.981 458.239 199.737 458.349 199.99C459.877 203.484 461.807 209.336 462.324 217.377C462.482 219.831 462.417 222.407 462.36 224.68C462.318 226.318 462.279 227.882 462.343 228.998C462.78 229.293 463.343 229.796 463.772 230.708C464.065 231.329 464.186 231.844 464.294 232.299C464.455 232.982 464.594 233.571 465.476 234.767C465.681 235.043 465.929 235.371 466.207 235.739C469.063 239.515 471.889 243.445 472.334 246.349C472.538 247.679 472.241 248.894 471.476 249.862C470.255 251.41 467.941 252.272 464.196 252.577C463.851 252.605 463.494 252.619 463.136 252.619ZM462.493 156.279C462.396 156.65 462.265 157.42 462.284 158.828C473.656 158.57 484.145 158.015 492.707 157.215C499.664 156.566 504.143 155.866 507.002 155.273C504.143 154.681 499.669 153.991 492.707 153.341C484.597 152.584 474.697 152.042 464.007 151.77C463.669 152.736 463.314 153.765 462.931 154.875C462.783 155.307 462.641 155.758 462.5 156.254C462.498 156.263 462.495 156.27 462.493 156.279ZM388.287 155.278C391.145 155.871 395.624 156.563 402.609 157.215C406.954 157.621 411.804 157.965 417.034 158.24C417.658 157.487 418.259 156.769 418.835 156.082C419.812 154.914 420.736 153.811 421.562 152.779C421.749 152.547 421.947 152.313 422.158 152.077C414.932 152.379 408.369 152.804 402.609 153.341C395.625 153.994 391.145 154.686 388.287 155.278ZM481.601 115.808C481.596 115.805 481.591 115.801 481.585 115.798C481.583 115.801 481.581 115.804 481.578 115.808H481.601Z"/>
</mask>
<path d="M463.136 252.619C459.178 252.619 454.436 250.916 452.769 247.113C451.934 245.207 451.325 243.596 450.787 242.176C450.392 241.129 450.018 240.141 449.617 239.207C448.543 236.7 448.03 233.781 447.994 232.775C447.964 231.953 448.26 231.261 448.577 230.763C447.774 227.851 445.051 217.92 444.082 213.533C443.564 211.182 442.722 209.401 441.83 207.514C440.908 205.567 439.956 203.552 439.435 200.96C439.32 200.386 439.203 199.618 439.082 198.633C437.905 198.488 436.609 198.306 435.157 198.084C433.214 197.786 431.469 197.525 429.889 197.29C429.877 197.321 429.865 197.351 429.853 197.379C428.995 199.461 428.874 201.701 428.808 202.905C428.789 203.27 428.773 203.545 428.744 203.777C428.756 204.115 428.917 205.272 429.061 206.297C429.492 209.386 430.144 214.053 429.974 217.313C429.857 219.549 429.43 222.455 429.054 225.018C428.83 226.546 428.565 228.351 428.472 229.425C429.349 229.851 430.001 230.663 430.001 231.839C430.001 232.371 430.055 234.003 430.106 235.582C430.165 237.383 430.221 239.084 430.221 239.754C430.221 240.056 430.279 240.562 430.335 241.052C430.53 242.772 430.714 244.396 429.809 245.409C429.303 245.976 428.473 246.292 426.793 246.898C425.493 247.367 423.529 248.075 422.842 248.716C420.875 250.552 417.467 251.532 411.791 251.893C411.297 251.924 410.825 251.94 410.386 251.94C407.759 251.94 406.008 251.361 405.034 250.17C404.299 249.272 404.066 248.122 404.341 246.753C404.763 244.651 407.23 241.434 407.72 240.81C407.796 240.715 407.881 240.628 407.976 240.551C410.834 238.243 414.188 235.403 414.759 234.726C414.855 234.434 414.841 233.599 414.833 233.093C414.818 232.235 414.805 231.411 415.017 230.696C414.365 227.904 411.436 214.999 411.664 209.048C411.869 203.697 411.559 201.804 410.995 198.368C410.903 197.807 410.805 197.21 410.702 196.555C410.554 195.611 410.555 194.195 410.705 192.245C406.062 189.162 402.067 183.182 401.889 182.912C401.587 182.457 401.534 181.88 401.749 181.378C401.859 181.122 404.499 175.02 410.412 166.774C411.081 165.84 411.765 164.911 412.476 163.972C408.033 163.696 403.916 163.368 400.203 162.995C381.464 161.11 377.911 158.829 377.911 155.278C377.911 151.728 381.464 149.447 400.203 147.562C407.366 146.841 415.772 146.306 425.203 145.97L425.285 145.721C427.313 139.501 429.614 132.45 430.607 125.224C430.728 124.349 431.05 123.178 431.589 121.665C430.963 121.181 430.265 120.631 429.461 119.934C427.84 118.53 419.576 111.33 416.03 107.446C413.054 104.188 411.957 101.6 411.334 99.7098C410.532 97.2795 410.462 92.9889 410.399 89.2038C410.384 88.2317 410.368 87.3087 410.341 86.4886C410.318 85.7951 410.302 85.0985 410.288 84.4134C410.241 82.2301 410.171 78.9312 409.658 78.2567C408.747 77.0613 408.163 74.8184 408.077 73.3148C408.031 72.5068 408.151 71.5838 408.257 70.7695C408.316 70.313 408.406 69.6221 408.384 69.4116C408.244 68.4094 408.03 66.8873 409.004 65.693C409.35 65.2677 409.998 64.7642 411.134 64.7236C411.475 64.3853 411.941 64.0111 412.512 63.752C412.953 63.5525 413.441 63.4512 413.96 63.4512C414.302 63.4512 414.614 63.496 414.871 63.5514C415.253 63.4364 415.769 63.3192 416.293 63.3192C416.442 63.3192 416.589 63.3287 416.731 63.3477C417.141 63.4021 417.496 63.5182 417.79 63.6496C417.792 63.6491 417.794 63.6491 417.796 63.6485C417.964 63.6084 418.145 63.5878 418.331 63.5878C418.813 63.5878 419.323 63.7361 419.772 63.9209C420.24 63.6295 420.813 63.4285 421.468 63.4285C421.766 63.4285 422.068 63.4707 422.366 63.5541C423.02 63.7377 423.557 64.1826 423.879 64.8069C424.535 66.0767 424.115 67.5871 423.904 68.1772C423.809 68.5033 423.825 69.7293 423.835 70.541C423.852 71.8836 423.869 73.2721 423.621 74.2447C423.31 75.4665 422.362 76.4998 421.527 77.4112C421.291 77.6677 420.956 78.0329 420.796 78.2498C420.864 79.4705 421.651 84.88 422.523 87.8628C423.192 90.1506 424.087 92.2975 424.679 93.7182C424.899 94.247 425.083 94.6882 425.208 95.0181C425.498 95.786 427.003 97.0325 428.596 98.3524L428.929 98.629C429.159 98.8195 429.401 99.0037 429.651 99.182C429.64 99.0992 429.635 99.0142 429.635 98.9261C429.522 98.7867 429.427 98.6279 429.355 98.4527C428.9 97.3486 429.584 95.6741 430.094 95.1669C430.131 95.1226 430.164 95.0635 430.2 95.007C430.349 94.779 430.552 94.4666 430.894 94.1768C431.142 93.9668 431.418 93.8085 431.691 93.6839C431.788 92.9878 432.152 92.2247 433.177 91.641C433.757 91.3106 434.406 91.1512 435.025 91.0689C435.042 90.9977 435.146 90.586 435.146 90.586C435.167 90.4974 435.177 90.424 435.187 90.3586C435.268 89.8266 435.405 89.2524 436.101 88.5953C436.326 88.3837 436.56 88.1684 436.814 87.9684C436.983 86.9788 437.637 86.3429 438.038 85.9524C438.166 85.8278 438.381 85.6183 438.411 85.5418C438.429 85.4832 438.436 85.4188 438.447 85.3549C438.494 85.0937 438.558 84.737 438.75 84.3396C438.908 84.0139 439.114 83.7759 439.28 83.6076C439.292 83.3949 439.327 83.1236 439.438 82.8286C439.805 81.8602 440.556 81.3625 441.052 81.0327C441.154 80.9656 441.251 80.9007 441.328 80.8437C441.401 80.7107 441.48 80.5719 441.581 80.4279C441.793 80.1276 442.025 79.8758 442.298 79.6515C442.308 79.5956 442.32 79.5381 442.336 79.479C442.742 77.9501 443.878 76.6861 445.303 76.181C445.789 76.009 446.363 75.8243 446.942 75.7546C446.958 75.7525 446.976 75.7509 446.996 75.7493C447.232 75.4142 447.625 74.9815 448.277 74.773C448.48 74.7086 448.692 74.6764 448.911 74.6764C448.984 74.6764 449.053 74.6801 449.119 74.6859C449.225 74.5888 449.344 74.4643 449.467 74.3355C450.043 73.7307 450.916 72.8166 452.421 72.8166C452.546 72.8166 452.675 72.823 452.809 72.8367C452.859 72.7945 452.911 72.7496 452.953 72.7127C453.241 72.4604 453.6 72.1459 454.102 71.9295C454.533 71.7442 454.982 71.6508 455.44 71.6508C456.262 71.6508 456.917 71.9458 457.395 72.1606L457.496 72.2055C457.583 72.2245 457.685 72.2345 457.792 72.2482C458.109 72.2905 458.673 72.3654 459.208 72.6156C459.643 72.4208 460.162 72.2514 460.753 72.2514C460.937 72.2514 461.121 72.2678 461.3 72.301C461.569 72.3506 461.787 72.4282 461.957 72.5068C462.192 72.4609 462.417 72.4382 462.637 72.4382C463.532 72.4382 464.316 72.8092 464.969 73.5412C465.013 73.5502 465.061 73.5602 465.114 73.5718C466.376 73.8542 466.983 74.6052 467.419 75.1873C467.48 75.2179 467.564 75.257 467.627 75.286C467.793 75.3625 467.957 75.4406 468.105 75.524C468.801 75.9161 469.326 76.4834 469.648 77.1859L469.813 77.2318C470.383 77.3875 471.092 77.5812 471.731 78.0693C472.022 78.2921 472.222 78.5264 472.368 78.6974C472.411 78.748 472.451 78.8019 472.502 78.8467C472.847 79.0483 473.352 79.2774 473.839 79.4985C474.066 79.6014 474.289 79.7022 474.5 79.803C475.888 80.4643 476.252 81.5562 476.469 82.2085C476.52 82.3584 476.595 82.5843 476.636 82.6291C476.7 82.6982 476.769 82.7542 476.833 82.8101C477.173 83.1051 477.741 83.5996 477.935 84.5322C477.95 84.604 477.961 84.6678 477.971 84.7253C478.118 84.8969 478.242 85.0705 478.352 85.2267C478.422 85.3259 478.529 85.4758 478.574 85.5212C478.644 85.5824 478.727 85.6325 478.802 85.6816C479.211 85.9497 479.972 86.449 480.195 87.6966C480.222 87.8459 480.231 87.9868 480.231 88.113C480.361 88.2391 480.506 88.389 480.634 88.5684C481.254 89.4397 481.303 90.2256 481.339 90.7992C481.351 90.9887 481.361 91.1528 481.392 91.3001C481.418 91.4204 481.579 91.7085 481.697 91.9191C481.931 92.336 482.196 92.8084 482.331 93.3826C482.432 93.8206 482.415 94.2006 482.369 94.4967C482.919 94.8893 483.913 95.6155 483.938 97.1576C483.944 97.5296 483.892 97.8458 483.835 98.0938C484.419 98.6485 484.862 99.3536 484.754 100.53C484.71 101 484.465 101.428 484.081 101.702C484.075 101.706 484.068 101.71 484.062 101.715C484.11 101.795 484.159 101.87 484.211 101.945C484.513 102.368 484.62 102.836 484.64 103.268C486.023 104.277 486.604 105.885 486.087 107.317C486.04 107.446 485.985 107.562 485.928 107.666C486.786 109.138 485.944 110.397 485.497 110.96C485.494 110.984 485.49 111.008 485.486 111.032C485.452 111.226 485.405 111.504 485.287 111.801C485.65 112.26 485.709 112.781 485.718 112.95C485.803 114.468 484.447 115.046 483.937 115.264C483.921 115.271 483.906 115.277 483.89 115.284C483.76 115.504 483.578 115.691 483.361 115.828C484.991 115.849 486.366 115.88 487.285 115.945C488.975 116.065 490.408 116.129 491.427 116.129C491.756 116.129 492.003 116.122 492.183 116.113C492.823 114.765 494.169 110.983 494.794 108.702C495.844 104.879 496.504 100.403 496.17 99.4053C494.947 97.6099 494.097 93.6116 493.976 92.6838C493.805 91.3586 494.712 89.8451 496.811 86.953C496.969 86.7355 497.115 86.5345 497.243 86.355C498.096 85.157 498.901 84.0255 500.272 84.0255C500.67 84.0255 501.066 84.1306 501.449 84.3369C501.929 84.595 502.286 84.9465 502.546 85.2921C503.121 85.3402 503.819 85.5027 504.496 85.9249C505.113 85.9925 506.029 86.2147 506.793 86.9034C507.265 87.3287 507.561 87.7515 507.747 88.1225C508.372 88.4808 509.199 89.1136 509.592 90.0957C509.663 90.272 509.789 90.4958 509.923 90.7333C510.353 91.4959 510.941 92.5403 510.891 94.0095C510.83 95.796 510.176 97.0943 509.106 99.02C508.379 100.329 507.679 101.901 507.406 102.53C507.373 104.519 507.452 106.751 507.535 109.106C507.669 112.925 507.808 116.873 507.522 120.633C507.061 126.692 505.313 128.517 503.408 129.99L503.212 130.143C501.841 131.217 498.031 131.48 487.986 131.684C486.749 131.709 485.555 131.733 484.466 131.763C483.982 131.776 483.505 131.782 483.034 131.782C481.064 131.782 479.191 131.677 477.539 131.584C476.175 131.508 474.886 131.436 473.773 131.436C473.169 131.436 472.648 131.456 472.195 131.5C472.372 133.27 472.493 134.818 471.229 136.465C470.869 137.189 470.411 137.985 469.865 138.834C468.426 141.07 467.334 143.159 466.22 145.843C477.064 146.156 487.011 146.747 495.112 147.562C513.853 149.447 517.405 151.729 517.402 155.279C517.402 158.828 513.85 161.109 495.11 162.995C486.175 163.893 475.078 164.515 462.92 164.799C463.765 169.613 465.282 174.454 466.654 176.562C469.525 180.973 473.309 188.024 473.468 188.322C473.735 188.821 473.724 189.423 473.437 189.91C473.279 190.18 469.439 196.517 458.808 197.693C458.577 197.719 458.351 197.744 458.13 197.77C458.119 198.981 458.239 199.737 458.349 199.99C459.877 203.484 461.807 209.336 462.324 217.377C462.482 219.831 462.417 222.407 462.36 224.68C462.318 226.318 462.279 227.882 462.343 228.998C462.78 229.293 463.343 229.796 463.772 230.708C464.065 231.329 464.186 231.844 464.294 232.299C464.455 232.982 464.594 233.571 465.476 234.767C465.681 235.043 465.929 235.371 466.207 235.739C469.063 239.515 471.889 243.445 472.334 246.349C472.538 247.679 472.241 248.894 471.476 249.862C470.255 251.41 467.941 252.272 464.196 252.577C463.851 252.605 463.494 252.619 463.136 252.619ZM462.493 156.279C462.396 156.65 462.265 157.42 462.284 158.828C473.656 158.57 484.145 158.015 492.707 157.215C499.664 156.566 504.143 155.866 507.002 155.273C504.143 154.681 499.669 153.991 492.707 153.341C484.597 152.584 474.697 152.042 464.007 151.77C463.669 152.736 463.314 153.765 462.931 154.875C462.783 155.307 462.641 155.758 462.5 156.254C462.498 156.263 462.495 156.27 462.493 156.279ZM388.287 155.278C391.145 155.871 395.624 156.563 402.609 157.215C406.954 157.621 411.804 157.965 417.034 158.24C417.658 157.487 418.259 156.769 418.835 156.082C419.812 154.914 420.736 153.811 421.562 152.779C421.749 152.547 421.947 152.313 422.158 152.077C414.932 152.379 408.369 152.804 402.609 153.341C395.625 153.994 391.145 154.686 388.287 155.278ZM481.601 115.808C481.596 115.805 481.591 115.801 481.585 115.798C481.583 115.801 481.581 115.804 481.578 115.808H481.601Z" fill="#F29E4A" stroke="white" stroke-width="2" mask="url(#path-68-inside-1_103_3636)"/>
</g>
<path id="Vector_65" d="M416.294 64.9406C416.37 64.9406 416.445 64.9449 416.517 64.9546C417.204 65.0458 417.621 65.4353 417.621 65.4353C417.621 65.4353 417.769 65.3206 418.167 65.2263C418.217 65.2144 418.272 65.2089 418.331 65.2089C418.975 65.2089 420.035 65.8798 420.035 65.8798C420.035 65.8798 420.537 65.0497 421.467 65.0498C421.612 65.0498 421.766 65.0697 421.93 65.1157C422.697 65.3308 422.768 66.542 422.379 67.6313C421.99 68.7201 422.442 72.3184 422.053 73.8436C421.664 75.3687 419.256 77.0631 419.179 77.9343C419.101 78.8054 420.035 85.1232 420.969 88.3183C421.903 91.5139 423.226 94.3577 423.693 95.5924C424.161 96.827 425.795 98.1339 427.897 99.8768C428.849 100.666 429.94 101.334 431.139 102.016C431.151 102.001 431.154 101.982 431.168 101.968C431.511 101.603 432.536 101.558 433.08 101.367C433.069 101.289 433.111 101.144 433.252 100.881C433.407 100.591 433.227 100.088 432.911 100.088C432.9 100.088 432.888 100.089 432.876 100.09C432.621 100.119 432.664 100.306 432.678 100.533C432.295 100.474 431.873 100.043 431.922 99.6214C431.934 99.5154 431.965 99.4231 432.004 99.3375C431.923 99.3605 431.839 99.3738 431.757 99.3738C431.561 99.3738 431.381 99.2978 431.295 99.0969C431.122 98.6906 431.652 98.4082 431.892 98.1594C432.09 97.9545 431.927 97.8312 431.852 97.5967C431.77 97.3418 431.875 97.0048 432.131 96.8591C432.233 96.801 432.338 96.7798 432.445 96.7798C432.734 96.7798 433.034 96.9337 433.312 96.9337C433.406 96.9337 433.498 96.9162 433.586 96.8693C433.789 96.7612 433.744 96.6399 433.729 96.4559C433.71 96.2234 433.79 95.9691 433.955 95.7891C434.147 95.5792 434.448 95.5228 434.753 95.5228C434.966 95.5228 435.182 95.5504 435.363 95.5725C435.466 95.5852 435.569 95.6041 435.671 95.6245C435.816 95.5021 435.923 95.3614 435.912 95.1774C435.888 94.7644 435.606 94.5991 435.291 94.5991C435.084 94.5991 434.863 94.671 434.692 94.791C434.452 94.9593 434.296 95.1545 434.026 95.2835C433.924 95.3324 433.768 95.3176 433.646 95.3767C433.176 95.6046 432.83 96.0369 432.328 96.2362C432.166 96.3007 432.039 96.3103 431.94 96.3103C431.898 96.3103 431.861 96.3085 431.828 96.3085C431.702 96.3085 431.646 96.3353 431.628 96.5955C431.611 96.8428 431.546 97.823 431.208 97.9413C431.149 97.9618 431.098 97.9714 431.054 97.9714C430.507 97.9714 431.054 96.4964 431.235 96.3162C431.515 96.0379 431.641 95.6678 431.94 95.4145C432.301 95.1081 432.915 94.9613 433.36 94.8079C433.228 94.0585 433.132 93.532 433.978 93.0497C434.668 92.6572 435.655 92.6211 436.441 92.592C436.434 91.9691 436.596 91.4894 436.721 90.9603C436.85 90.4164 436.745 90.2161 437.212 89.7752C437.567 89.4403 437.984 89.0564 438.438 88.8454C438.129 87.4696 439.535 87.1759 439.93 86.1014C440.057 85.7558 440.038 85.3959 440.207 85.0488C440.35 84.7511 440.647 84.5992 440.801 84.3489C440.967 84.0813 440.83 83.7275 440.953 83.4023C441.217 82.705 441.962 82.4486 442.476 81.9995C442.679 81.8216 442.735 81.6024 442.904 81.3633C443.068 81.1319 443.234 80.9616 443.467 80.7955C443.575 80.7185 443.711 80.7751 443.795 80.6599C443.921 80.4871 443.844 80.1078 443.901 79.8958C444.151 78.9517 444.866 78.0561 445.844 77.7095C446.241 77.5683 446.708 77.4153 447.135 77.3644C447.149 77.3627 447.165 77.362 447.183 77.362C447.291 77.362 447.464 77.387 447.598 77.387C447.663 77.387 447.719 77.3811 447.754 77.3639C448.188 77.1513 448.24 76.4871 448.77 76.3179C448.815 76.3034 448.862 76.2977 448.911 76.2977C449.102 76.2977 449.316 76.3854 449.5 76.3854C449.545 76.3854 449.588 76.3801 449.629 76.3668C449.752 76.327 449.733 76.246 449.827 76.1853C450.711 75.6089 451.185 74.4377 452.422 74.4377C452.499 74.4377 452.578 74.4423 452.661 74.4517C452.893 74.4782 452.973 74.5145 453.058 74.5145C453.121 74.5145 453.187 74.4941 453.322 74.4338C453.84 74.2024 454.214 73.6463 454.742 73.4189C454.986 73.3139 455.218 73.2721 455.44 73.2721C455.985 73.2721 456.467 73.5249 456.902 73.7151C457.432 73.9465 458.797 73.7737 458.914 74.5684C459.477 74.3218 460.094 73.8722 460.754 73.8722C460.837 73.8722 460.921 73.8794 461.006 73.895C461.456 73.9781 461.481 74.1951 461.772 74.1951C461.843 74.1951 461.931 74.1819 462.045 74.1504C462.26 74.091 462.455 74.0598 462.637 74.0598C463.083 74.0598 463.446 74.2485 463.805 74.6714C464.165 75.0955 464.202 75.0297 464.763 75.1546C465.518 75.3233 465.825 75.7587 466.213 76.2796C466.438 76.5824 466.943 76.7287 467.31 76.9362C467.859 77.2456 468.174 77.71 468.311 78.2452C468.6 78.4501 468.878 78.652 469.121 78.7223C469.661 78.8778 470.287 79.0047 470.749 79.358C471.093 79.622 471.259 79.9891 471.631 80.2103C472.289 80.6023 473.113 80.9372 473.805 81.267C475.071 81.87 474.741 82.9695 475.451 83.7331C475.815 84.1256 476.233 84.3035 476.349 84.8622C476.459 85.3918 476.341 85.3373 476.701 85.7339C476.969 86.029 477.206 86.4756 477.495 86.7294C478.006 87.178 478.461 87.1969 478.602 87.9824C478.642 88.2041 478.542 88.5232 478.614 88.7149C478.712 88.9764 479.142 89.2649 479.315 89.5091C479.84 90.2467 479.642 90.84 479.808 91.6321C479.957 92.3478 480.587 93.038 480.754 93.7532C480.932 94.5127 480.291 94.8818 480.938 95.443C481.582 96.0017 482.304 96.2045 482.319 97.1838C482.334 98.1197 481.718 98.4367 482.502 99.0785C482.996 99.4832 483.2 99.7473 483.142 100.381C482.626 100.254 482.549 99.704 482.259 99.3426C481.802 98.7727 481.204 98.6707 481.36 97.8306C481.516 96.9885 481.74 96.8519 481.005 96.2122C480.736 95.9767 480.477 95.7866 480.254 95.5781C480.133 95.8294 479.933 96.0771 479.834 96.3085C479.7 96.6231 479.689 96.805 479.8 97.116C480.693 97.4478 480.994 97.8765 480.884 98.9449C480.811 99.6504 480.805 99.5057 481.299 99.9359C481.68 100.267 482.138 100.733 482.195 101.25C482.212 101.407 482.185 101.558 482.136 101.707C482.235 101.828 482.331 101.95 482.406 102.082C482.566 102.366 482.701 102.616 482.892 102.884C483.113 103.195 483.008 103.755 482.942 104.14C483.154 104.273 483.393 104.378 483.598 104.516C484.335 105.014 484.879 105.894 484.564 106.767C484.458 107.058 484.168 107.23 484.072 107.505C483.937 107.89 484.302 108.122 484.496 108.428C484.908 109.075 484.552 109.563 484.125 110.081C483.809 110.463 483.968 111.149 483.612 111.452C483.605 111.592 483.573 111.733 483.504 111.869C483.351 112.172 483.002 112.242 482.971 112.629C483.016 112.632 483.066 112.633 483.12 112.633C483.185 112.633 483.255 112.632 483.326 112.632C483.684 112.632 484.081 112.663 484.102 113.039C484.143 113.788 482.539 113.742 482.497 114.457C482.195 113.794 483.171 113.608 483.394 113.092C482.87 112.874 481.842 112.778 482.025 112.1C482.125 111.729 482.489 111.708 482.535 111.386C482.416 111.243 482.373 111.047 482.35 110.844C482.142 110.63 481.8 110.55 481.491 110.47C481.488 110.666 481.436 110.86 481.339 111.03C481.245 110.987 481.092 111.007 480.997 110.964C480.242 111.708 482.283 112.858 480.626 113.243C480.467 113.279 480.287 113.309 480.121 113.309C479.928 113.309 479.754 113.269 479.655 113.155C479.598 113.216 479.554 113.285 479.555 113.387C479.561 113.817 480.235 114.002 480.34 114.438C480.446 114.878 479.998 115.208 479.541 115.208C479.469 115.208 479.397 115.199 479.326 115.182C478.63 115.013 479.782 114.314 479.515 113.903C479.395 113.717 478.964 113.706 478.69 113.607C478.505 113.678 478.307 113.734 478.183 113.867C477.921 114.147 478.403 114.344 478.37 114.659C478.355 114.805 478.233 114.938 478.234 115.115C478.234 115.199 478.291 115.377 478.231 115.431C478.206 115.453 478.136 115.461 478.059 115.461C477.958 115.461 477.847 115.447 477.816 115.43C477.602 115.309 477.699 114.946 477.595 114.766C477.358 114.358 476.842 114.402 476.817 113.852C476.815 113.808 476.82 113.763 476.823 113.718C476.803 113.746 476.784 113.774 476.76 113.799C476.626 113.935 476.473 114.008 476.332 114.008C476.321 114.008 476.31 114.007 476.299 114.006C476.31 114.043 476.314 114.086 476.29 114.154C476.06 114.804 476.455 114.912 476.583 115.288C476.669 115.543 476.276 115.78 476.084 115.814C476.03 115.824 475.976 115.838 475.924 115.838C475.876 115.838 475.829 115.826 475.785 115.789C475.677 115.7 475.799 115.589 475.73 115.508C475.709 115.484 475.691 115.473 475.673 115.473C475.607 115.473 475.56 115.627 475.464 115.707C475.296 115.849 475.373 116.008 475.162 116.06C475.12 116.07 475.07 116.075 475.015 116.075C474.659 116.075 474.095 115.872 474.164 115.626C474.223 115.417 474.43 115.339 474.42 115.083C474.418 115.058 474.409 115.049 474.405 115.03C474.331 115.053 474.255 115.083 474.175 115.128C473.916 115.274 473.784 115.747 473.533 115.884C473.474 115.917 473.405 115.922 473.335 115.922C473.298 115.922 473.262 115.921 473.226 115.921C473.159 115.921 473.095 115.926 473.042 115.956C472.763 116.113 472.683 116.429 472.379 116.567C472.232 116.635 472.071 116.662 471.907 116.662C471.864 116.662 471.821 116.66 471.778 116.657C472.663 116.882 473.789 117.112 475.271 117.314C479.292 117.46 484.9 117.4 487.171 117.562C488.887 117.684 490.362 117.75 491.428 117.75C492.299 117.75 492.896 117.706 493.129 117.613C493.648 117.406 495.63 111.778 496.356 109.132C497.082 106.486 498.509 99.9058 497.536 98.5315C496.564 97.1573 495.717 93.5192 495.582 92.4747C495.447 91.4303 497.562 88.7006 498.562 87.2952C499.35 86.1886 499.788 85.6468 500.272 85.6468C500.403 85.6468 500.537 85.6862 500.682 85.7644C501.366 86.1325 501.606 86.9445 501.606 86.9445C501.606 86.9445 501.819 86.8964 502.14 86.8964C502.615 86.8964 503.327 87.0014 503.942 87.521C503.942 87.521 503.969 87.5195 504.017 87.5195C504.269 87.5195 505.105 87.5631 505.71 88.1088C506.43 88.7582 506.44 89.2868 506.44 89.2868C506.44 89.2868 507.715 89.7644 508.09 90.6993C508.465 91.6342 509.322 92.515 509.273 93.954C509.224 95.393 508.677 96.4589 507.691 98.2313C506.707 100.004 505.794 102.181 505.794 102.181C505.674 107.452 506.374 114.382 505.908 120.51C505.441 126.639 503.649 127.742 502.214 128.866C500.779 129.99 490.814 129.966 484.421 130.142C483.953 130.155 483.491 130.161 483.034 130.161C479.485 130.161 476.304 129.814 473.775 129.814C472.483 129.814 471.361 129.905 470.448 130.178C470.639 132.804 471.087 134.078 469.861 135.583C469.859 135.585 469.857 135.586 469.855 135.589C469.546 136.228 469.109 137.014 468.503 137.956C466.5 141.071 465.217 143.824 463.864 147.401C475.526 147.692 486.227 148.297 494.95 149.175C513.26 151.016 515.785 153.197 515.783 155.278C515.783 157.359 513.259 159.539 494.948 161.381C485.524 162.329 473.791 162.959 461.031 163.218C461.764 168.473 463.482 174.657 465.297 177.447C468.164 181.851 472.042 189.088 472.042 189.088C472.042 189.088 468.578 194.981 458.63 196.082C457.895 196.163 457.216 196.245 456.574 196.327C456.431 198.231 456.531 199.872 456.867 200.64C458.505 204.388 460.228 210.014 460.709 217.481C461.008 222.133 460.479 227.364 460.794 229.866C460.835 230.189 461.715 230.142 462.308 231.4C462.943 232.746 462.52 233.49 464.175 235.73C465.83 237.97 470.254 243.459 470.734 246.595C471.214 249.731 467.743 250.662 464.065 250.961C463.762 250.985 463.452 250.998 463.137 250.998C459.636 250.998 455.574 249.475 454.252 246.461C452.812 243.176 452.066 240.807 451.106 238.567C450.145 236.327 449.644 233.591 449.612 232.718C449.58 231.81 450.359 231.127 450.359 231.127C450.359 231.127 446.784 218.26 445.664 213.183C444.544 208.106 441.983 205.419 441.023 200.64C440.861 199.837 440.7 198.624 440.543 197.171C439.069 197.011 437.383 196.785 435.402 196.481C432.898 196.097 430.722 195.775 428.804 195.49C428.638 196.011 428.486 196.446 428.357 196.761C427.131 199.733 427.254 202.821 427.131 203.621C427.009 204.422 428.602 212.54 428.357 217.228C428.112 221.917 426.421 229.896 426.912 230.696C426.912 230.696 428.382 230.696 428.382 231.839C428.382 232.983 428.602 238.497 428.602 239.755C428.602 241.013 429.215 243.642 428.602 244.328C427.989 245.015 423.332 246.044 421.739 247.53C420.145 249.017 417.081 249.932 411.689 250.275C411.22 250.304 410.787 250.319 410.386 250.319C406.177 250.319 405.593 248.743 405.928 247.073C406.296 245.243 408.992 241.813 408.992 241.813C408.992 241.813 415.366 236.668 416.101 235.638C416.837 234.61 416.101 231.751 416.714 230.836C416.714 230.836 413.037 215.514 413.283 209.11C413.528 202.707 413.038 200.991 412.302 196.303C412.142 195.283 412.203 193.531 412.403 191.389C407.667 188.7 403.238 182.016 403.238 182.016C403.238 182.016 405.849 175.917 411.727 167.719C413.094 165.812 414.401 164.098 415.638 162.534C410.1 162.229 404.956 161.843 400.365 161.382C382.055 159.54 379.53 157.36 379.53 155.278C379.53 153.197 382.055 151.017 400.365 149.175C407.809 148.426 416.699 147.877 426.391 147.551C428.508 141.039 431.125 133.346 432.211 125.446C432.353 124.413 432.849 122.867 433.522 121.11C432.706 120.472 431.721 119.748 430.521 118.708C426.906 115.577 420.194 109.604 417.225 106.352C414.255 103.1 413.333 100.602 412.872 99.2014C411.949 96.4044 412.088 90.2885 411.959 86.4343C411.83 82.5801 411.959 78.6056 410.946 77.2741C410.292 76.4152 409.768 74.5037 409.694 73.2211C409.62 71.9391 410.102 70.0026 409.989 69.1911C409.834 68.089 409.792 67.2903 410.258 66.7178C410.507 66.4132 410.935 66.342 411.282 66.342C411.587 66.342 411.829 66.3972 411.829 66.3972C411.829 66.3972 412.37 65.5959 413.179 65.2294C413.438 65.1121 413.71 65.0722 413.96 65.0722C414.49 65.0722 414.922 65.2523 414.922 65.2523C414.922 65.2523 415.648 64.9406 416.294 64.9406ZM434.787 93.8852C435.088 93.8118 435.349 93.6258 435.666 93.5717C436.058 93.5049 436.502 93.5263 436.885 93.4264C437.563 93.2506 437.68 92.5181 438.041 92.0297C438.179 91.8442 438.384 91.7208 438.422 91.5072C438.462 91.2885 438.355 91.0755 438.411 90.8303C438.474 90.5627 438.596 90.0845 438.863 89.9306C438.839 89.9218 438.815 89.9116 438.8 89.9116C438.784 89.9116 438.779 89.9237 438.795 89.9627C438.775 89.9969 438.271 90.241 438.115 90.4092C437.832 90.7156 437.74 91.0857 437.742 91.4762C437.746 92.0547 437.788 92.2815 437.249 92.5512C436.721 92.8153 436.407 93.1919 435.8 93.2179C435.25 93.2414 434.696 93.2164 434.787 93.8852ZM479.062 92.7709C479.127 92.6644 479.222 92.5558 479.22 92.3962C479.215 92.1077 478.904 91.9543 478.836 91.6913C478.745 91.3319 479.106 90.9679 478.945 90.6356C478.852 90.4439 478.468 90.2645 478.135 90.2211C478.16 90.3007 478.186 90.3781 478.192 90.4745C478.229 91.0949 478.15 91.5552 478.476 92.1301C478.619 92.3819 478.817 92.6001 479.062 92.7709ZM479.23 95.9369C479.235 95.8131 479.239 95.6887 479.256 95.5607C479.353 94.844 478.884 94.448 478.306 94.1136C478.351 94.6386 478.443 95.1438 478.799 95.5358C478.93 95.6815 479.086 95.8074 479.23 95.9369ZM433.905 97.6347C433.766 97.6347 433.618 97.5692 433.495 97.485C433.341 97.3799 433.213 97.3083 433.087 97.3083C432.975 97.3083 432.865 97.3635 432.739 97.4998C432.491 97.7674 432.665 97.878 432.786 98.1619C432.871 98.3592 432.853 98.5392 432.777 98.7008C433.3 98.4785 433.929 98.3552 434.264 98.06C434.605 97.7587 434.51 97.4911 434.486 97.0915C434.474 96.8891 434.48 96.7469 434.506 96.6337C434.481 96.6582 434.457 96.6878 434.435 96.7296C434.318 96.9518 434.363 97.2495 434.224 97.458C434.139 97.5858 434.026 97.6347 433.905 97.6347ZM433.941 99.3739C434.084 99.3739 434.225 99.1233 434.478 99.1233C434.48 99.1233 434.482 99.1233 434.484 99.1233C434.971 99.1315 435.068 99.525 434.821 99.9074C434.586 100.27 434.268 100.484 433.947 100.777C433.911 100.81 433.855 100.889 433.795 100.977C433.936 100.953 434.077 100.928 434.217 100.884C434.565 100.775 435.198 100.773 435.482 100.6C435.84 100.38 435.708 99.9394 435.644 99.6224C435.498 98.9062 436.063 98.9001 436.488 98.3939C436.794 98.0299 437.062 97.6976 437.03 97.2138C437.013 97.1359 436.987 97.1037 436.955 97.1037C436.822 97.1037 436.589 97.6395 436.481 97.7975C436.306 98.0549 436.169 98.0753 435.87 98.1839C435.493 98.3205 435.134 98.349 434.747 98.4403C434.351 98.5336 433.421 99.077 433.873 99.3537C433.896 99.3678 433.918 99.3739 433.941 99.3739ZM479.261 98.3694C479.259 98.3694 479.258 98.3694 479.256 98.3694C479.233 98.3689 479.219 98.3623 479.199 98.3597C479.229 98.4816 479.253 98.5968 479.274 98.6849C479.341 98.9612 479.177 99.1233 479.209 99.3812C479.248 99.6942 479.53 100.411 479.696 100.671C479.983 101.118 480.607 101.356 480.97 101.756C481.051 101.844 481.131 101.943 481.211 102.04C481.321 101.904 481.376 101.728 481.346 101.519C481.315 101.308 481.21 101.116 481.098 100.933C481.021 100.865 480.937 100.8 480.833 100.739C480.473 100.529 480.138 100.656 480.054 100.113C480.093 100.108 480.251 98.7981 479.787 98.1834C479.618 98.2769 479.372 98.3694 479.261 98.3694ZM433.618 103.408C433.628 103.155 433.593 102.91 433.482 102.735C433.314 102.469 432.904 102.217 432.522 102.217C432.431 102.217 432.342 102.231 432.258 102.263C432.129 102.311 432.026 102.383 431.931 102.463C432.475 102.767 433.034 103.076 433.618 103.408ZM480.678 108.784C481.277 108.609 480.702 107.591 480.553 107.263C480.359 106.836 480.51 106.614 480.71 106.213C480.833 105.967 480.838 105.711 480.644 105.511C480.533 105.397 480.316 105.225 480.103 105.109C480.013 104.972 479.894 104.811 479.805 104.65C479.625 104.529 479.49 104.377 479.39 104.204C479.168 104.426 479.091 104.861 479.091 105.122C479.091 105.487 479.317 105.784 479.56 106.062C479.702 106.224 479.963 106.37 479.931 106.603C479.906 106.785 479.738 106.867 479.736 107.06C479.732 107.516 480.315 107.592 480.508 107.937C480.611 108.121 480.5 108.239 480.516 108.427C480.526 108.554 480.595 108.684 480.678 108.784ZM482.957 110.294C482.985 110.248 483.015 110.192 483.052 110.115C483.238 109.72 483.01 109.436 483.079 109.006C483.137 108.642 483.974 108.721 483.88 108.283C483.764 107.746 482.855 107.591 482.773 107.093C482.698 106.641 483.554 106.591 483.636 106.132C483.746 105.515 483.174 105.066 482.705 104.758C482.477 104.607 482.281 104.554 482.1 104.554C482.071 104.554 482.042 104.555 482.013 104.558C481.948 104.741 481.839 104.948 481.906 105.114C482.017 105.392 482.343 105.402 482.469 105.68C482.797 106.408 481.413 106.79 481.752 107.65C481.868 107.945 482.235 107.983 482.263 108.447C482.283 108.782 482.053 109.042 482.076 109.36C482.111 109.864 482.567 110.045 482.957 110.294ZM480.272 112.616C480.339 112.265 480.067 111.877 480.169 111.509C480.311 110.998 481.076 110.751 480.301 110.136C479.71 110.162 479.595 110.82 479.375 111.298C479.637 111.587 479.86 111.901 480.005 112.265C480.027 112.321 480.044 112.369 480.059 112.415C480.132 112.449 480.205 112.513 480.272 112.616ZM471.066 116.462C470.913 116.392 470.769 116.31 470.645 116.223C470.621 116.256 470.598 116.284 470.575 116.312C470.728 116.361 470.892 116.411 471.066 116.462ZM460.737 160.482C472.683 160.243 483.785 159.677 492.857 158.829C507.369 157.473 511.451 155.903 512.544 155.278C511.451 154.652 507.368 153.082 492.857 151.727C484.327 150.93 474.003 150.382 462.87 150.12C462.415 151.405 461.935 152.798 461.401 154.347C461.23 154.844 461.072 155.352 460.926 155.868L460.927 155.869C460.644 156.953 460.6 158.582 460.737 160.482ZM417.764 159.901C419.671 157.583 421.372 155.608 422.825 153.794C423.459 153.002 424.213 152.242 424.998 151.534C425.156 151.138 425.31 150.736 425.46 150.327C417.003 150.628 409.173 151.1 402.458 151.727C387.948 153.082 383.864 154.653 382.771 155.278C383.864 155.903 387.947 157.474 402.458 158.829C407.085 159.261 412.24 159.62 417.764 159.901ZM416.294 61.6981C415.756 61.6981 415.236 61.7842 414.797 61.8919C414.54 61.8542 414.258 61.8297 413.96 61.8297C413.209 61.8297 412.498 61.9794 411.845 62.2749C411.299 62.522 410.83 62.8405 410.441 63.1646C409.347 63.3387 408.41 63.8573 407.749 64.6677C406.372 66.3569 406.606 68.3825 406.766 69.5339C406.757 69.7468 406.695 70.2299 406.652 70.5584C406.536 71.444 406.406 72.4479 406.461 73.4077C406.542 74.815 407.091 77.4555 408.273 79.1081C408.573 79.9301 408.631 82.6375 408.669 84.4446C408.684 85.1372 408.699 85.842 408.723 86.5428C408.749 87.3426 408.765 88.2579 408.78 89.227C408.845 93.1293 408.918 97.5522 409.797 100.218C410.47 102.261 411.652 105.054 414.835 108.54C418.44 112.489 426.769 119.746 428.402 121.16C428.859 121.556 429.288 121.911 429.686 122.23C429.33 123.339 429.108 124.244 429.003 125.003C428.073 131.77 425.954 138.441 424.015 144.391C415.007 144.73 406.952 145.253 400.042 145.949C391.39 146.819 385.488 147.843 382 149.08C380.588 149.581 376.292 151.104 376.292 155.278C376.292 159.452 380.588 160.976 382 161.476C385.489 162.713 391.39 163.738 400.042 164.608C402.935 164.899 406.069 165.162 409.408 165.395C409.304 165.54 409.2 165.684 409.096 165.829C403.081 174.217 400.374 180.476 400.262 180.739C399.832 181.744 399.936 182.898 400.54 183.809C400.716 184.074 404.452 189.667 409.028 193.045C408.934 194.672 408.96 195.891 409.103 196.807C409.206 197.465 409.305 198.065 409.397 198.629C409.944 201.962 410.245 203.798 410.047 208.986C409.82 214.896 412.551 227.218 413.353 230.688C413.187 231.507 413.201 232.343 413.214 233.119C413.218 233.377 413.224 233.721 413.216 233.987C412.173 234.985 409.348 237.361 406.96 239.289C406.77 239.442 406.598 239.616 406.448 239.808C405.493 241.022 403.223 244.098 402.754 246.433C402.286 248.76 403.054 250.309 403.781 251.197C405.082 252.788 407.243 253.561 410.386 253.561C410.859 253.561 411.366 253.544 411.894 253.511C417.97 253.124 421.687 252.011 423.947 249.902C424.435 249.472 426.398 248.764 427.342 248.423C429.133 247.777 430.214 247.387 431.016 246.49C432.405 244.935 432.16 242.775 431.943 240.869C431.897 240.466 431.84 239.964 431.84 239.755C431.84 239.057 431.784 237.343 431.725 235.527C431.676 234.035 431.621 232.344 431.621 231.839C431.621 230.546 431.08 229.418 430.186 228.63C430.309 227.62 430.5 226.318 430.656 225.251C431.038 222.654 431.47 219.709 431.591 217.398C431.769 213.983 431.105 209.223 430.665 206.074C430.542 205.196 430.405 204.212 430.37 203.811C430.394 203.567 430.409 203.303 430.425 202.992C430.477 202.041 430.556 200.577 430.975 199.091C432.191 199.273 433.499 199.47 434.912 199.686C435.887 199.836 436.794 199.967 437.643 200.082C437.712 200.542 437.78 200.94 437.848 201.279C438.408 204.067 439.403 206.172 440.366 208.208C441.218 210.009 442.023 211.711 442.502 213.882C443.416 218.029 445.874 227.043 446.843 230.564C446.537 231.234 446.346 232.004 446.376 232.835C446.422 234.12 447.011 237.238 448.13 239.847C448.516 240.747 448.866 241.673 449.272 242.746C449.816 244.186 450.434 245.818 451.287 247.765C453.248 252.238 458.652 254.24 463.137 254.24C463.538 254.24 463.939 254.224 464.327 254.193C466.985 253.977 470.75 253.397 472.747 250.868C473.797 249.537 474.208 247.89 473.935 246.104C473.433 242.825 470.48 238.702 467.499 234.761C467.225 234.398 466.98 234.075 466.778 233.802C466.093 232.874 466.009 232.518 465.87 231.926C465.757 231.447 465.602 230.79 465.237 230.015C464.855 229.206 464.381 228.622 463.934 228.203C463.916 227.233 463.947 226 463.979 224.72C464.037 222.413 464.103 219.799 463.94 217.272C463.411 209.045 461.436 203.023 459.86 199.402C459.849 199.358 459.836 199.291 459.823 199.2C470.623 197.696 474.662 191.023 474.833 190.732C475.406 189.757 475.43 188.552 474.895 187.555C474.734 187.254 470.919 180.146 468.011 175.677C466.932 174.018 465.706 170.302 464.875 166.372C476.319 166.068 486.764 165.463 495.272 164.607C503.923 163.737 509.825 162.713 513.313 161.476C514.725 160.975 519.021 159.452 519.021 155.278C519.025 151.105 514.727 149.581 513.315 149.08C509.827 147.843 503.925 146.819 495.274 145.948C487.742 145.191 478.624 144.626 468.674 144.297C469.444 142.669 470.254 141.224 471.226 139.711C471.772 138.863 472.237 138.06 472.611 137.322C473.687 135.857 473.933 134.416 473.921 133.057C474.956 133.063 476.169 133.131 477.449 133.203C479.123 133.297 481.019 133.404 483.034 133.404C483.537 133.404 484.033 133.397 484.511 133.384C485.597 133.354 486.788 133.33 488.023 133.305C498.983 133.082 502.438 132.808 504.21 131.42L504.398 131.273C506.515 129.635 508.625 127.474 509.137 120.757C509.43 116.906 509.289 112.912 509.153 109.049C509.076 106.843 509.002 104.747 509.021 102.88C509.337 102.165 509.922 100.886 510.522 99.8074C511.503 98.0412 512.431 96.3722 512.51 94.0648C512.575 92.1408 511.798 90.7611 511.334 89.9368C511.246 89.7813 511.126 89.5683 511.095 89.4901C510.614 88.2907 509.732 87.4787 508.951 86.9603C508.694 86.5506 508.346 86.1219 507.878 85.6994C506.94 84.8543 505.862 84.5055 505.038 84.3657C504.519 84.0857 503.959 83.886 503.368 83.7707C503.054 83.4547 502.674 83.1552 502.215 82.9082C501.595 82.5743 500.941 82.4043 500.272 82.4043C498.067 82.4043 496.879 84.0724 495.925 85.4128C495.799 85.5893 495.656 85.7862 495.502 85.9983C493.44 88.8404 492.108 90.8556 492.371 92.8907C492.462 93.5969 493.244 97.6862 494.624 99.9911C494.733 101.282 494.093 105.141 493.233 108.273C492.717 110.156 491.755 112.91 491.112 114.506C490.156 114.494 488.882 114.433 487.401 114.328C487.317 114.322 487.23 114.316 487.14 114.311C487.319 113.802 487.36 113.301 487.335 112.86C487.312 112.437 487.211 112.006 487.032 111.598C488.105 110.014 488.032 108.627 487.688 107.633C488.248 105.786 487.649 103.808 486.156 102.42C486.118 102.249 486.068 102.074 486.003 101.899C486.201 101.525 486.326 101.111 486.366 100.679C486.497 99.261 486.052 98.2571 485.546 97.5753C485.555 97.4356 485.56 97.2878 485.557 97.1326C485.53 95.4248 484.718 94.369 484.014 93.7328C483.999 93.5074 483.966 93.2666 483.907 93.0139C483.721 92.2158 483.367 91.5853 483.109 91.1249C483.064 91.0442 483.007 90.9435 482.967 90.8673C482.963 90.8139 482.959 90.7501 482.956 90.6971C482.915 90.0607 482.841 88.8762 481.953 87.6283C481.9 87.5527 481.845 87.4814 481.79 87.4143C481.79 87.4121 481.789 87.4099 481.789 87.4077C481.446 85.4956 480.196 84.658 479.707 84.3364C479.695 84.3199 479.683 84.3033 479.672 84.2869C479.615 84.2076 479.551 84.1165 479.478 84.0182C479.166 82.7793 478.414 82.0446 478 81.6774C477.757 80.9504 477.19 79.2886 475.196 78.3389C474.977 78.2345 474.745 78.1293 474.51 78.0224C474.164 77.8655 473.809 77.7044 473.522 77.5539C473.347 77.3518 473.083 77.0638 472.716 76.7827C472.031 76.2586 471.31 75.9835 470.726 75.8062C470.267 75.1119 469.647 74.5322 468.899 74.1105C468.74 74.0209 468.591 73.9475 468.46 73.8853C467.956 73.2646 467.151 72.4641 465.797 72.0739C464.687 71.0494 463.492 70.8173 462.637 70.8173C462.472 70.8173 462.306 70.8256 462.139 70.8424C461.972 70.7894 461.79 70.7427 461.592 70.7062C461.319 70.6557 461.037 70.6298 460.755 70.6297C460.167 70.6297 459.639 70.74 459.182 70.8893C458.831 70.7833 458.441 70.699 458.006 70.6412C457.988 70.6389 457.971 70.6366 457.954 70.6344C457.404 70.389 456.537 70.0296 455.44 70.0296C454.761 70.0296 454.097 70.1676 453.464 70.4397C452.946 70.6629 452.542 70.9476 452.232 71.1986C450.28 71.2691 449.064 72.4187 448.419 73.0874C448.203 73.1158 447.991 73.163 447.786 73.2287C447.055 73.4622 446.523 73.8596 446.144 74.2465C445.638 74.3544 445.171 74.5081 444.761 74.6534C442.932 75.3018 441.457 76.8669 440.854 78.7775C440.641 78.9937 440.445 79.2295 440.26 79.4917C440.205 79.5687 440.157 79.6423 440.114 79.7109C439.516 80.108 438.462 80.8338 437.925 82.2535C437.836 82.4874 437.777 82.7107 437.738 82.9147C437.585 83.1141 437.428 83.3544 437.291 83.6379C437.076 84.081 436.969 84.4859 436.906 84.793C436.526 85.1633 435.757 85.9144 435.376 87.0614C435.242 87.1808 435.114 87.2995 434.992 87.4148C434.143 88.2163 433.818 89.0001 433.663 89.6967C433.232 89.8206 432.797 89.9921 432.378 90.231C431.186 90.9102 430.579 91.7735 430.287 92.6107C430.139 92.7088 429.991 92.8182 429.847 92.9406C429.325 93.3825 429.024 93.8451 428.844 94.1214C428.837 94.133 428.829 94.1446 428.822 94.1562C428.496 94.528 428.18 95.066 427.949 95.6842C427.351 95.1563 426.864 94.6842 426.708 94.4075C426.57 94.0464 426.386 93.6044 426.174 93.0952C425.595 91.7074 424.721 89.6102 424.077 87.4078C423.36 84.9544 422.675 80.6029 422.473 78.7777C422.559 78.6828 422.645 78.588 422.719 78.5075C423.637 77.5073 424.778 76.2626 425.19 74.6458C425.492 73.4656 425.473 72.0348 425.454 70.52C425.446 69.8867 425.434 68.9477 425.479 68.5778C426.022 66.9545 425.965 65.3164 425.318 64.0621C424.786 63.0337 423.894 62.299 422.804 61.9933C422.362 61.8697 421.913 61.8073 421.467 61.8073C420.804 61.8072 420.198 61.9442 419.659 62.1671C419.233 62.0454 418.782 61.9664 418.331 61.9664C418.211 61.9664 418.092 61.9716 417.974 61.982C417.664 61.8763 417.319 61.7902 416.943 61.7403C416.734 61.7124 416.515 61.6981 416.294 61.6981ZM464.064 156.675C464.193 156.224 464.327 155.796 464.462 155.403C464.707 154.693 464.933 154.038 465.147 153.421C475.347 153.702 484.781 154.229 492.556 154.955C493.7 155.062 494.776 155.17 495.785 155.278C494.776 155.386 493.7 155.494 492.556 155.601C484.468 156.357 474.644 156.893 463.975 157.165C464.006 156.919 464.04 156.767 464.06 156.689C464.061 156.684 464.062 156.68 464.064 156.675ZM399.532 155.278C400.542 155.17 401.615 155.062 402.759 154.956C407.509 154.512 412.809 154.146 418.579 153.862C418.254 154.252 417.921 154.65 417.581 155.055C417.17 155.547 416.745 156.054 416.309 156.578C411.408 156.311 406.857 155.983 402.759 155.601C401.615 155.494 400.541 155.386 399.532 155.278Z" fill="white"/>
</g>
</g>
</g>
</g>
</svg>
