<svg width="558" height="316" viewBox="0 0 558 316" fill="none" xmlns="http://www.w3.org/2000/svg">
<g id="video-cover">
<g id="Background">
<g clip-path="url(#clip0_103_3636)">
<rect id="Rectangle 173" x="-7" y="-10.6821" width="599" height="346" fill="#E2E2F2"/>
<g id="Frame 609" clip-path="url(#clip1_103_3636)">
<g id="Group 722">
<path id="Vector" d="M15.8315 -25.8166C10.8539 -29.924 5.46603 -34.0505 -0.811516 -35.9009C-7.21647 -37.789 -13.5535 -36.6182 -18.9352 -32.6824C-23.9866 -28.988 -28.1475 -23.8552 -32.1519 -19.0966C-36.4328 -14.0094 -40.4533 -8.70401 -44.1958 -3.20893C-48.5143 3.13189 -52.467 9.72596 -56.0445 16.5118C-56.7657 17.88 -55.9219 19.6968 -54.5769 20.2875C-53.0744 20.9474 -51.5241 20.1935 -50.8002 18.8204C-45.0332 7.8811 -38.2233 -2.47778 -30.4751 -12.1175C-26.7773 -16.7182 -22.9405 -21.3787 -18.6541 -25.4492C-14.7743 -29.1337 -10.2059 -31.841 -4.67878 -30.9561C1.80279 -29.9186 7.3413 -25.396 12.2522 -21.3439C15.1028 -18.9917 18.6742 -23.471 15.8315 -25.8166Z" fill="#F2D8EF"/>
<path id="Vector_2" d="M75.9476 33.1289C64.5067 27.0947 53.6078 20.0869 43.3701 12.1824C41.5897 10.8078 41.7722 8.30356 43.7472 7.21513C47.3184 5.24703 51.0384 3.55535 54.862 2.14521C55.2869 1.6393 55.888 1.2625 56.5696 1.06743C59.0836 0.34787 61.5978 -0.371748 64.1119 -1.09128C66.1808 -1.68342 68.2843 -2.44607 70.4357 -2.67703C72.5549 -2.90465 74.7297 -2.64674 76.4977 -1.35977C78.6959 0.240075 79.5012 2.88796 80.1581 5.39482C82.4135 14.0007 82.3232 23.0599 80.2549 31.6862C79.7809 33.6631 77.4176 33.9042 75.9476 33.1289ZM73.1568 3.28167C72.8761 3.43549 72.5498 3.54949 72.1699 3.60617C64.5656 4.73997 57.2428 6.9855 50.3354 10.2744C58.3612 16.2069 66.7735 21.5977 75.5152 26.415C76.4896 20.3911 76.2875 14.1871 74.9594 8.23103C74.6548 6.86444 74.4021 4.3833 73.2995 3.39349C73.2539 3.35246 73.2057 3.31647 73.1568 3.28167Z" fill="#BDBFE1"/>
<path id="Vector_3" d="M14.524 41.2781C9.95995 44.338 3.9364 43.8584 -0.544489 40.9018C-5.27825 37.7786 -7.0237 32.0405 -5.27955 26.7326C-3.63113 21.7161 1.15717 17.5781 6.53638 17.3832C7.23796 17.3579 7.91555 17.531 8.4674 17.8787C13.6603 17.6387 18.3278 22.1868 19.5261 27.4432C20.6647 32.4377 18.8917 38.3496 14.524 41.2781ZM13.9126 28.4719C13.6416 27.2649 12.886 25.8175 11.9822 24.9843C11.0299 24.1065 9.06654 22.9614 7.74664 23.721C6.66251 24.3449 5.38001 24.4606 4.39398 23.7699C2.14823 24.8171 0.416072 26.923 -0.094779 29.3275C-0.730018 32.3178 0.595229 35.0444 3.13834 36.4818C5.79778 37.9849 9.09949 38.2027 11.5287 36.3776C13.8556 34.6294 14.5547 31.3311 13.9126 28.4719Z" fill="#E2E2F2"/>
<path id="Vector_4" d="M108.372 93.4778C108.117 90.941 107.722 88.4193 107.214 85.9207C106.165 80.7516 104.675 75.6731 102.944 70.6937C101.031 65.1921 98.8253 59.7988 96.6157 54.4114C95.2182 51.0041 89.8953 53.1242 91.2987 56.5457C94.8616 65.2329 98.5118 73.9911 100.746 83.1349C101.877 87.7616 102.75 92.5425 102.918 97.3117C102.997 99.5588 102.493 101.429 101.023 103.144C99.5893 104.816 97.7999 106.208 96.0881 107.583C91.9278 110.925 87.4605 113.894 82.7409 116.386C81.3751 117.108 80.5305 118.57 81.1499 120.111C81.6807 121.432 83.5003 122.428 84.8759 121.702C89.5006 119.26 93.9371 116.489 98.0839 113.298C102.046 110.249 106.772 106.823 108.153 101.773C108.887 99.0867 108.648 96.2178 108.372 93.4778Z" fill="#CACAE8"/>
<path id="Vector_5" d="M74.4904 56.1482C70.0417 52.5182 64.2101 51.1655 58.6299 52.5667C53.8341 53.7711 49.9492 57.1216 46.6383 60.6383C43.4364 64.0392 40.5769 67.9201 36.7662 70.6842C33.3132 73.1887 29.1083 74.3448 24.8488 73.9196C20.1429 73.4499 15.4971 71.3329 12.5242 67.581C11.5642 66.3695 9.93104 65.8571 8.55726 66.7579C7.35226 67.548 6.76908 69.5061 7.7339 70.7238C13.9068 78.5141 24.865 81.7388 34.2898 78.4291C39.02 76.7679 42.7701 73.3983 46.1126 69.7696C49.2707 66.3413 52.17 62.4536 56.1291 59.8925C60.6277 56.9824 66.4329 56.9603 70.6689 60.4167C73.5208 62.7436 77.3501 58.4814 74.4904 56.1482Z" fill="#E1A3D8"/>
<path id="Vector_6" d="M136.021 108.235C132.375 107.695 131.529 113.359 135.181 113.9C138.828 114.441 139.674 108.776 136.021 108.235Z" fill="#E1A3D8"/>
<path id="Vector_7" d="M61.4062 112.581C58.7083 117.492 52.619 119.935 47.2009 118.712C41.7627 117.485 37.8609 113.002 36.9764 107.545C36.1074 102.183 38.7451 96.9866 43.6775 94.6924C48.1688 92.6033 53.4463 93.381 57.0495 96.6539C57.2224 96.7278 57.392 96.8143 57.5557 96.9145C62.638 100.026 64.2221 107.456 61.4062 112.581ZM54.3848 101.109C54.0377 100.929 53.713 100.683 53.4294 100.386C51.3488 98.2069 47.2261 98.344 44.7133 100.13C42.1823 101.93 41.4999 105.25 42.5406 108.219C43.6613 111.417 46.2958 113.597 49.7192 113.749C52.914 113.89 56.3218 112.094 57.2606 108.921C58.1029 106.074 57.0049 102.797 54.3848 101.109Z" fill="#E2E2F2"/>
<path id="Vector_8" d="M66.9396 156.611C69.9791 159.558 74.0498 163.598 78.6985 162.896C81.8841 162.414 84.5302 160.017 87.237 158.451C89.5351 157.122 92.1177 156.126 94.7504 155.706C95.0224 154.87 95.3039 154.046 95.5891 153.243C97.4467 148.013 99.8468 142.712 103.206 138.264C106.417 134.012 110.653 130.431 115.968 129.261C120.855 128.185 125.937 129.187 129.707 132.546C130.775 133.497 130.58 135.353 129.612 136.271C128.519 137.308 126.949 137.121 125.887 136.176C122.985 133.59 118.391 133.622 114.968 135.059C110.212 137.055 107.015 141.471 104.613 145.85C102.902 148.971 101.473 152.25 100.333 155.623C103.58 156.072 106.639 157.434 108.99 159.918C112.199 163.31 113.858 168.551 111.942 172.997C110.229 176.973 105.986 179.578 101.67 179.483C96.1531 179.362 92.9421 174.599 92.5337 169.493C92.3262 166.899 92.6123 164.213 93.1612 161.563C90.8205 162.407 88.6611 163.756 86.4822 165.131C82.4101 167.702 77.8875 169.174 73.1853 167.412C69.2617 165.942 66.0852 163.116 63.1191 160.241C60.6749 157.871 64.5146 154.261 66.9396 156.611ZM106.721 165.773C105.173 162.668 102.193 160.98 98.8409 160.723C98.4108 162.438 98.0527 164.179 97.8642 165.932C97.651 167.912 97.536 170.198 98.4808 172.025C99.8979 174.766 102.791 174.705 105.193 173.193C106.145 172.594 107.008 171.555 107.326 170.284C107.706 168.771 107.409 167.153 106.721 165.773Z" fill="#F2D8EF"/>
<path id="Vector_9" d="M31.7583 137.148C21.9791 131.928 12.3884 126.36 3.03176 120.416C-1.26124 117.689 -5.74546 115.046 -9.68511 111.815C-12.3094 109.662 -15.2236 106.71 -15.1498 103.065C-15.0936 100.284 -13.2852 97.8007 -11.8117 95.5736C-10.0008 92.8367 -8.18877 90.1004 -6.3773 87.3638C-5.59262 86.1784 -5.60358 84.6079 -6.78378 83.6609C-7.81527 82.8332 -9.69906 82.8757 -10.4878 84.0672C-12.2039 86.6598 -13.9201 89.2524 -15.6362 91.8449C-17.2569 94.2935 -18.9769 96.7464 -19.8287 99.5865C-21.3114 104.53 -19.508 109.32 -16.0935 112.992C-12.5986 116.75 -8.16144 119.427 -3.88855 122.199C1.25937 125.539 6.47741 128.772 11.7542 131.905C17.634 135.395 23.5954 138.747 29.628 141.967C30.8832 142.637 32.5599 141.854 33.1034 140.622C33.7142 139.237 33.0181 137.82 31.7583 137.148Z" fill="#E2BBDF"/>
<path id="Vector_10" d="M15.2747 282.179C9.06621 282.796 2.82533 282.957 -3.40295 282.563C-5.57023 282.427 -9.00596 282.687 -10.7305 281.078C-12.114 279.787 -12.245 277.44 -12.3637 275.676C-13.2047 263.158 -12.7557 250.419 -11.9374 237.914C-11.4669 230.723 -10.7748 223.549 -9.87785 216.4C-9.41966 212.748 -15.0848 211.895 -15.5447 215.56C-17.2779 229.376 -18.2006 243.273 -18.358 257.195C-18.4321 263.755 -18.581 270.446 -18.0034 276.987C-17.7723 279.603 -17.126 282.424 -15.3743 284.468C-13.3514 286.83 -10.4724 287.681 -7.47279 287.98C0.297222 288.753 8.20772 288.636 15.9713 287.865C19.6377 287.5 18.9502 281.813 15.2747 282.179Z" fill="#CACAE8"/>
<path id="Vector_11" d="M30.5784 339.183C19.1376 333.149 8.23862 326.141 -1.999 318.236C-3.77945 316.862 -3.59691 314.357 -1.62195 313.269C1.94926 311.301 5.66927 309.609 9.4929 308.199C9.91775 307.693 10.5188 307.316 11.2004 307.121C13.7145 306.402 16.2287 305.682 18.7427 304.963C20.8117 304.37 22.9152 303.608 25.0665 303.377C27.1858 303.149 29.3606 303.407 31.1286 304.694C33.3267 306.294 34.1321 308.942 34.789 311.449C37.0443 320.055 36.954 329.114 34.8857 337.74C34.4117 339.717 32.0484 339.958 30.5784 339.183ZM27.7876 309.336C27.507 309.489 27.1807 309.603 26.8007 309.66C19.1964 310.794 11.8736 313.039 4.96626 316.328C12.9921 322.261 21.4044 327.652 30.1461 332.469C31.1204 326.445 30.9184 320.241 29.5903 314.285C29.2856 312.918 29.033 310.437 27.9303 309.447C27.8848 309.406 27.8365 309.37 27.7876 309.336Z" fill="#BDBFE1"/>
<path id="Vector_12" d="M87.8325 263.944C86.5304 253.816 82.0093 243.876 73.636 237.694C69.0351 234.296 63.4981 232.08 57.7436 231.936C56.1973 231.897 54.7369 232.685 54.4903 234.349C54.2848 235.735 55.3467 237.562 56.9037 237.601C65.8335 237.826 73.6759 243.443 77.9199 251.144C82.5453 259.538 83.2105 269.493 82.0103 278.831C81.2101 285.058 79.6498 291.153 77.9252 297.179C77.499 298.668 78.9515 300.226 80.3387 300.431C82.0367 300.683 83.1646 299.512 83.592 298.018C86.7496 286.985 89.3151 275.475 87.8325 263.944Z" fill="#FFCCD7"/>
<path id="Vector_13" d="M56.6524 277.681C52.5399 280.672 46.7548 280.121 43.0637 276.689C41.4455 275.185 40.3384 273.236 39.8746 271.194C39.7596 270.936 39.6769 270.645 39.6377 270.318C38.954 264.612 43.0096 259.038 48.6968 258.042C53.546 257.193 58.6015 260.281 60.5193 264.705C62.4955 269.264 60.5888 274.819 56.6524 277.681ZM55.5311 269.366C55.9766 266.454 53.2947 263.733 50.5086 263.623C49.1792 263.57 47.9992 264.107 47.0986 264.957C47.0557 265.791 46.6387 266.603 45.9637 267.194C45.6551 267.464 45.4661 267.818 45.3638 268.209C45.2858 268.68 45.2696 269.156 45.3254 269.622C45.3278 269.643 45.3276 269.662 45.3297 269.683C45.4234 270.231 45.6149 270.758 45.8459 271.168C46.573 272.459 47.942 273.442 49.373 273.813C52.2215 274.551 55.0867 272.273 55.5311 269.366Z" fill="#E2BBDF"/>
<path id="Vector_14" d="M24.3646 237.063C20.4594 237.309 16.7576 234.771 14.8693 231.457C12.7639 227.762 12.7844 223.06 13.9839 219.077C15.4068 214.353 18.7268 210.219 19.0892 205.17C19.4136 200.649 17.7595 196.057 13.509 193.955C10.197 192.316 7.89651 197.564 11.1927 199.195C14.6453 200.902 13.3396 206.147 12.1542 208.931C10.1054 213.742 7.68607 218.135 7.49567 223.503C7.32029 228.45 8.65158 233.492 12.0329 237.221C15.3903 240.924 20.03 243.066 25.0613 242.749C28.7387 242.518 28.0399 236.832 24.3646 237.063Z" fill="#AEABDA"/>
<path id="Vector_15" d="M48.7711 162.113C48.3915 160.699 46.7281 159.582 45.2597 160.092C39.6461 162.039 34.4942 165.166 30.8183 169.904C26.9944 174.833 25.3342 181.195 26.6386 187.326C27.4051 190.93 32.9382 189.44 32.1718 185.837C30.1143 176.166 38.4221 168.512 46.7492 165.623C48.2101 165.117 49.1924 163.683 48.7711 162.113Z" fill="#E2E2F2"/>
<path id="Vector_16" d="M118.81 225.486C118.274 215.472 116.553 205.578 113.847 195.927C113.463 194.557 111.638 193.974 110.42 194.464C108.982 195.041 108.571 196.515 108.957 197.89C111.314 206.298 112.794 214.956 113.424 223.665C113.556 225.487 113.991 227.721 113.458 229.514C113.025 230.972 111.302 231.254 110.026 231.655C105.799 232.983 101.525 234.148 97.2102 235.155C95.8256 235.479 94.7299 236.569 94.915 238.09C95.0727 239.386 96.4575 240.71 97.8509 240.385C102.766 239.237 107.66 237.94 112.466 236.394C114.699 235.675 116.742 234.615 117.902 232.479C119.059 230.349 118.935 227.827 118.81 225.486Z" fill="#BDBFE1"/>
<path id="Vector_17" d="M68.495 218.626C66.8518 218.756 65.4318 217.897 63.9946 217.213C57.9762 214.349 51.9578 211.485 45.9394 208.621C44.4159 207.896 42.8345 207.225 42.4091 205.41C41.9899 203.621 43.2338 202.351 44.4801 201.306C47.0298 199.169 49.5966 197.052 52.18 194.955C57.2807 190.816 62.4479 186.759 67.6747 182.781C68.74 181.97 70.1191 181.736 71.1898 182.633C72.5651 182.551 74.0361 183.399 74.0859 185.171C74.2863 192.302 74.0524 199.44 73.3561 206.54C73.1961 208.172 73.0122 209.801 72.8044 211.428C72.6308 212.787 72.5756 214.265 72.1083 215.564C71.5238 217.188 70.2883 218.485 68.495 218.626ZM67.3268 212.986C67.3899 212.599 67.4319 212.206 67.4834 211.818C68.5123 204.078 68.9537 196.258 68.8781 188.449C65.5759 190.988 62.2969 193.556 59.0457 196.159C56.9813 197.812 54.9274 199.478 52.8842 201.157C51.9614 201.915 51.0409 202.676 50.1224 203.44C49.7713 203.732 49.421 204.025 49.0705 204.317C49.247 204.391 49.4109 204.461 49.5506 204.527C50.6593 205.055 51.768 205.582 52.8766 206.11C55.0147 207.127 57.1528 208.145 59.291 209.162C61.4291 210.18 63.5672 211.197 65.7053 212.214C66.2458 212.472 66.7863 212.729 67.3268 212.986Z" fill="#7B6EB9"/>
<path id="Vector_18" d="M6.23051 152.34C10.6713 153.991 13.8783 157.993 13.9205 162.782C13.933 164.212 12.4101 165.304 11.086 165.199C9.57767 165.079 8.68059 163.788 8.66811 162.365C8.64963 160.264 6.90839 158.47 5.12955 157.583C2.61018 156.326 -0.395885 156.71 -2.99718 157.475C-7.7448 158.872 -12.2222 161.824 -15.7822 165.328C-10.0918 171.7 -9.62938 181.937 -12.3698 189.856C-14.1259 194.931 -17.3904 199.422 -22.0256 202.205C-26.4702 204.874 -32.0569 205.596 -36.9597 203.842C-40.1537 202.699 -38.3582 197.745 -35.1618 198.889C-30.7722 200.46 -25.8763 199.066 -22.4423 196.049C-18.7689 192.821 -16.7841 187.944 -16.1866 183.172C-15.6407 178.812 -16.0759 174.047 -18.5889 170.312C-18.8045 169.992 -19.0383 169.678 -19.2868 169.372C-21.6515 172.501 -23.8662 175.858 -27.493 177.575C-31.2213 179.339 -36.6093 178.768 -39.0949 175.189C-42.3804 170.458 -38.844 164.51 -34.5954 161.857C-30.1857 159.103 -24.752 159.334 -20.2761 161.767C-20.1357 161.843 -20.0031 161.927 -19.8661 162.006C-16.6225 158.694 -12.7266 155.957 -8.52711 154.002C-4.02283 151.906 1.39046 150.541 6.23051 152.34ZM-24.5907 167.679C-24.1852 167.135 -23.7762 166.595 -23.3614 166.062C-24.8299 165.333 -26.4459 164.952 -28.0995 165.105C-29.9337 165.275 -31.6785 166.004 -33.0574 167.226C-34.2193 168.255 -35.3919 170.017 -35.0487 171.639C-34.9601 172.058 -34.7835 172.294 -34.3101 172.626C-33.9557 172.875 -33.1844 173.148 -32.8382 173.202C-31.3496 173.437 -30.1887 173.203 -28.8923 172.322C-27.1292 171.124 -25.8464 169.366 -24.5907 167.679Z" fill="#938CCB"/>
<g id="Group">
<path id="Vector_19" d="M463.917 84.5152C463.618 81.6249 463.342 78.7571 462.236 76.0443C460.397 71.5315 456.747 67.8166 452.372 65.7577C447.878 63.6424 442.769 63.0687 438.052 64.7268C435.327 65.6845 432.799 67.2141 429.96 67.8356C428.004 68.264 425.923 68.196 423.975 67.7229C419.149 66.5505 415.183 63.2981 413.259 58.6579C412.666 57.2281 410.584 56.9039 409.383 57.6011C407.919 58.4514 407.763 60.0745 408.358 61.5086C412.164 70.6915 423.445 75.9929 432.815 72.9931C435.696 72.0707 438.322 70.4253 441.28 69.7393C443.223 69.289 445.279 69.3875 447.205 69.8952C451.345 70.9867 455.062 73.844 456.871 77.8116C458.021 80.3357 458.094 83.2134 458.409 85.9234C458.83 89.5507 459.606 92.7582 461.855 95.7017C462.792 96.929 464.882 96.708 465.864 95.7185C467.057 94.5166 466.8 92.9032 465.858 91.671C464.361 89.7107 464.162 86.8778 463.917 84.5152Z" fill="#938CCB"/>
<path id="Vector_20" d="M460.281 114.959C460.104 113.506 458.614 112.166 457.089 112.464C451.257 113.603 445.717 115.974 441.411 120.149C436.932 124.492 434.393 130.557 434.822 136.811C435.074 140.486 440.762 139.789 440.51 136.114C439.833 126.25 449.135 119.839 457.786 118.15C459.303 117.854 460.478 116.573 460.281 114.959Z" fill="#938CCB"/>
</g>
<path id="Vector_21" d="M535.338 33.7696C533.909 34.5581 533.552 36.2553 534.214 37.6601C537.87 45.4204 539.186 54.2908 537.952 62.7823C536.662 71.6666 532.345 79.6067 525.561 85.4801C520.934 89.4857 515.503 92.4488 510.007 95.079C506.68 96.6714 509.458 101.681 512.774 100.094C522.931 95.2335 532.809 88.8285 538.474 78.7887C543.274 70.2819 544.835 60.3332 543.761 50.695C543.149 45.2058 541.583 39.8877 539.23 34.8938C538.57 33.4931 536.632 33.0564 535.338 33.7696Z" fill="#7B6EB9"/>
<path id="Vector_22" d="M456.337 258.815C457.575 257.751 457.576 256.017 456.64 254.777C451.472 247.93 448.366 239.517 447.833 230.953C447.276 221.993 449.874 213.337 455.311 206.199C459.019 201.331 463.727 197.319 468.568 193.619C471.499 191.378 467.753 187.044 464.832 189.277C455.887 196.114 447.53 204.406 444.043 215.393C441.088 224.702 441.598 234.76 444.625 243.974C446.348 249.221 448.971 254.106 452.297 258.512C453.23 259.748 455.217 259.778 456.337 258.815Z" fill="#CACAE8"/>
<path id="Vector_23" d="M627.792 64.8532C622.815 60.7458 617.427 56.6193 611.149 54.7689C604.744 52.8809 598.407 54.0516 593.026 57.9874C587.974 61.6818 583.813 66.8146 579.809 71.5732C575.528 76.6604 571.508 81.9658 567.765 87.4609C563.447 93.8017 559.494 100.396 555.916 107.182C555.195 108.55 556.039 110.367 557.384 110.957C558.886 111.617 560.437 110.863 561.161 109.49C566.928 98.551 573.738 88.1921 581.486 78.5523C585.184 73.9516 589.02 69.2912 593.307 65.2207C597.187 61.5361 601.755 58.8289 607.282 59.7137C613.764 60.7513 619.302 65.2738 624.213 69.3259C627.064 71.6782 630.635 67.1989 627.792 64.8532Z" fill="#F2D8EF"/>
<path id="Vector_24" d="M502.442 -19.3334C502.469 -20.7973 501.18 -22.3307 499.628 -22.2479C493.695 -21.9312 487.878 -20.3534 483.033 -16.8179C477.993 -13.1404 474.636 -7.48694 474.19 -1.23467C473.929 2.44005 479.658 2.54089 479.92 -1.1334C480.622 -10.996 490.725 -16.0505 499.527 -16.5202C501.071 -16.6026 502.412 -17.7082 502.442 -19.3334Z" fill="#E1A3D8"/>
<path id="Vector_25" d="M590.277 172.324C587.219 177.172 580.794 179.647 575.243 178.444C569.001 177.09 564.167 172.667 560.275 167.825C559.554 166.927 558.845 165.992 558.157 165.025C553.726 168.535 550.003 172.746 544.905 175.39C539.968 177.952 534.302 178.977 528.774 178.614C517.761 177.892 507.97 170.625 503.454 160.673C501.925 157.303 507.254 155.194 508.771 158.539C514.006 170.076 527.529 175.822 539.46 171.521C545.364 169.392 549.381 164.871 554.089 160.96C554.412 160.692 554.74 160.431 555.072 160.176C550.221 151.557 547.826 141.344 553.139 132.352C553.929 131.015 555.362 130.204 556.918 130.89C558.215 131.462 559.167 133.336 558.38 134.668C555.05 140.304 555.389 146.972 557.784 152.897C558.361 154.326 559.04 155.748 559.803 157.144C563.318 155.298 567.16 154.11 571.158 153.731C576.774 153.199 582.913 154.1 587.431 157.723C591.9 161.306 593.411 167.356 590.277 172.324ZM585.348 163.768C582.901 160.296 577.968 159.255 573.97 159.301C570.091 159.345 566.298 160.273 562.868 161.987C564.474 164.202 566.271 166.263 568.18 168.064C571.572 171.263 576.333 174.253 581.132 172.495C584.729 171.177 587.896 167.384 585.348 163.768Z" fill="#CACAE8"/>
<path id="Vector_26" d="M562.033 -49.085C558.998 -50.614 556.884 -45.7867 559.903 -44.2659C564.618 -41.8901 566.377 -35.7704 564.962 -30.9217C563.276 -25.1427 558.059 -21.0991 552.606 -19.1199C546.014 -16.7272 539.097 -17.1927 532.22 -17.1299C525.637 -17.0699 519.258 -15.5001 514.848 -10.3007C510.552 -5.23587 509.075 1.8742 511.153 8.18192C512.214 11.4021 517.102 9.43317 516.043 6.2189C514.431 1.32497 516.15 -4.34536 519.79 -7.91154C524.536 -12.5624 531.733 -11.9146 537.846 -11.8483C544.916 -11.7715 552.251 -12.5706 558.544 -16.0343C564.37 -19.2412 569.18 -24.6145 570.437 -31.2919C571.752 -38.2699 568.443 -45.8555 562.033 -49.085Z" fill="#F2D8EF"/>
<path id="Vector_27" d="M490.487 182.843C490.429 182.383 490.262 181.967 489.987 181.594C489.547 181.05 488.964 180.662 488.258 180.558L487.631 180.465C487.274 180.398 486.928 180.423 486.593 180.54C486.255 180.597 485.949 180.736 485.675 180.955C485.386 181.153 485.165 181.406 485.012 181.713C484.803 182 484.678 182.323 484.639 182.684C484.635 182.919 484.632 183.155 484.629 183.39C484.687 183.85 484.854 184.266 485.129 184.639C485.569 185.182 486.152 185.57 486.858 185.675L487.485 185.768C487.842 185.835 488.188 185.809 488.523 185.692C488.861 185.635 489.167 185.497 489.441 185.278C489.73 185.08 489.951 184.827 490.104 184.519C490.313 184.233 490.438 183.91 490.478 183.549C490.481 183.313 490.484 183.078 490.487 182.843Z" fill="#E2BBDF"/>
<path id="Vector_28" d="M504.602 65.8379C502.652 70.155 498.441 73.0819 493.659 72.7985C492.23 72.7138 491.244 71.1207 491.439 69.8072C491.661 68.3109 493.011 67.5039 494.431 67.588C496.529 67.7124 498.438 66.0975 499.444 64.3836C500.87 61.9562 500.691 58.9318 500.104 56.2853C499.032 51.4551 496.391 46.7887 493.136 42.9999C486.389 48.2426 476.142 48.0083 468.425 44.7369C463.48 42.6406 459.22 39.0794 456.757 34.2672C454.396 29.6528 454.055 24.0316 456.139 19.2607C457.496 16.1526 462.318 18.28 460.959 21.3904C459.094 25.6619 460.152 30.6397 462.93 34.2699C465.902 38.1531 470.634 40.464 475.356 41.3843C479.669 42.2248 484.455 42.1146 488.352 39.8619C488.687 39.6686 489.016 39.4567 489.338 39.2297C486.376 36.6585 483.176 34.2214 481.709 30.4874C480.202 26.6489 481.138 21.3137 484.878 19.0777C489.823 16.1221 495.518 20.0534 497.878 24.4714C500.327 29.0567 499.727 34.4605 496.995 38.7595C496.909 38.8944 496.817 39.021 496.728 39.1522C499.813 42.6125 502.28 46.6842 503.945 51.0056C505.732 55.6407 506.726 61.1327 504.602 65.8379ZM491.387 34.0545C491.903 34.496 492.414 34.9405 492.918 35.3905C493.745 33.9753 494.235 32.3894 494.195 30.7297C494.15 28.8887 493.541 27.0989 492.416 25.6406C491.467 24.4118 489.789 23.1225 488.146 23.3545C487.722 23.4145 487.475 23.5746 487.111 24.0242C486.839 24.3608 486.514 25.1115 486.436 25.4531C486.101 26.922 486.255 28.0957 487.046 29.4486C488.122 31.2885 489.789 32.6875 491.387 34.0545Z" fill="#AEABDA"/>
<path id="Vector_29" d="M527.916 205.424C526.826 210.132 522.488 213.875 517.643 214.228C512.511 214.602 507.725 211.254 505.83 206.548C503.846 201.623 505.194 195.704 509.484 192.466C513.544 189.401 519.636 189.461 522.98 193.5C526.753 196.038 528.955 200.933 527.916 205.424ZM518.545 197.147C517.852 196.899 517.374 196.31 517.146 195.63C514.831 194.949 511.916 196.695 510.86 198.808C509.119 202.289 510.834 206.835 514.336 208.444C517.439 209.869 521.34 208.223 522.561 205.022C523.795 201.786 521.635 198.254 518.545 197.147Z" fill="#7B6EB9"/>
<path id="Vector_30" d="M544.571 247.095C540.949 242.92 535.706 240.361 530.201 239.966C525.08 239.598 520.329 241.559 515.628 243.289C510.966 245.004 506.419 246.192 501.578 244.407C496.98 242.712 492.94 238.99 490.334 234.892C487.586 230.571 486.014 225.353 487.3 220.272C488.129 216.995 483.083 215.474 482.25 218.769C479.543 229.469 485.702 240.444 494.381 246.491C499.25 249.883 505.01 251.35 510.864 250.212C515.857 249.242 520.372 246.693 525.333 245.603C531.054 244.345 536.882 246.268 540.724 250.695C542.952 253.264 546.788 249.651 544.571 247.095Z" fill="#E1A3D8"/>
<path id="Vector_31" d="M566.816 223.438C565.401 225.157 562.436 225.627 560.408 226.216C556.279 227.416 552.074 228.316 547.817 228.895C546.372 230.669 542.73 229.672 543.142 226.844C543.939 221.37 545.572 215.898 548.154 210.992C549.987 207.51 553.731 203.631 558.024 205.741C560.064 206.744 561.286 208.734 562.477 210.579C563.766 212.576 564.963 214.631 566.091 216.723C567.208 218.794 568.597 221.273 566.816 223.438ZM561.69 220.311C561.807 220.271 561.942 220.209 562.082 220.146C561.696 219.312 561.089 218.466 560.721 217.809C559.941 216.419 559.11 215.056 558.245 213.717C557.629 212.763 556.87 211.049 555.811 210.507C555.442 210.317 554.978 210.592 554.548 210.979C552.606 212.726 551.637 215.777 550.747 218.145C550.102 219.859 549.582 221.605 549.162 223.377C551.158 223.06 553.142 222.673 555.111 222.208C556.545 221.869 557.966 221.479 559.376 221.051C560.151 220.816 560.923 220.569 561.69 220.311Z" fill="#AEABDA"/>
<path id="Vector_32" d="M460.071 156.574C460.672 154.431 463.196 152.805 464.814 151.448C468.109 148.686 471.593 146.168 475.256 143.921C475.862 141.716 479.597 141.159 480.361 143.913C481.84 149.244 482.553 154.91 482.169 160.44C481.896 164.365 480.035 169.424 475.255 169.224C472.983 169.129 471.062 167.8 469.228 166.592C467.243 165.284 465.319 163.886 463.443 162.426C461.586 160.981 459.315 159.274 460.071 156.574ZM466.023 157.37C465.932 157.452 465.833 157.564 465.731 157.678C466.42 158.286 467.317 158.816 467.919 159.268C469.193 160.226 470.504 161.138 471.835 162.014C472.783 162.639 474.17 163.902 475.357 163.971C475.772 163.995 476.085 163.557 476.323 163.029C477.396 160.648 477.051 157.465 476.911 154.94C476.809 153.111 476.581 151.303 476.25 149.513C474.552 150.608 472.892 151.762 471.278 152.981C470.103 153.869 468.96 154.799 467.842 155.759C467.228 156.287 466.621 156.824 466.023 157.37Z" fill="#B9D5EA"/>
<path id="Vector_33" d="M522.882 130.953C517.815 133.075 512.748 135.197 507.682 137.319C505.277 138.326 502.753 139.525 500.055 138.335C497.871 137.372 496.888 135.285 496.403 133.292C495.912 131.275 495.688 129.219 495.184 127.199C494.65 125.061 493.963 122.957 493.145 120.884C491.537 116.806 489.451 112.872 486.878 109.189C486.019 107.959 486.072 106.394 487.424 105.505C488.611 104.725 490.695 104.89 491.552 106.117C496.49 113.184 499.931 120.951 501.568 129.092C501.863 130.555 502.245 132.179 502.544 133.537C502.687 133.422 503.229 133.288 503.37 133.231C504.487 132.789 505.585 132.307 506.69 131.844L520.602 126.017C524.004 124.593 526.253 129.541 522.882 130.953ZM502.668 133.674C502.625 133.665 502.595 133.655 502.571 133.645C502.715 134.19 502.832 133.709 502.668 133.674Z" fill="#FFCCD7"/>
<path id="Vector_34" d="M567.179 339.776C562.123 342.148 555.612 340.781 551.733 336.856C547.749 332.825 546.612 326.228 549.278 321.157C551.631 316.682 556.53 313.884 561.53 314.058C562.053 313.66 562.749 313.459 563.601 313.607C569.72 314.671 574.992 319.993 575.27 326.346C575.517 331.984 572.3 337.375 567.179 339.776ZM569.382 325.413C568.762 322.859 566.81 320.733 564.403 319.749C563.931 319.991 563.349 320.082 562.67 319.948C558.968 319.219 554.943 321.257 553.86 325.011C552.932 328.229 554.115 331.832 556.877 333.743C559.511 335.566 563.309 335.784 565.967 333.908C568.6 332.05 570.157 328.608 569.382 325.413Z" fill="#E1A3D8"/>
<path id="Vector_35" d="M457.071 286.72C457.098 285.256 455.809 283.723 454.257 283.806C448.324 284.123 442.507 285.7 437.662 289.236C432.622 292.913 429.264 298.567 428.819 304.819C428.558 308.494 434.287 308.595 434.549 304.92C435.251 295.058 445.354 290.003 454.156 289.533C455.7 289.451 457.041 288.346 457.071 286.72Z" fill="#E1A3D8"/>
<path id="Vector_36" d="M516.662 256.969C513.627 255.44 511.513 260.267 514.532 261.788C519.247 264.164 521.006 270.283 519.591 275.132C517.905 280.911 512.688 284.955 507.234 286.934C500.642 289.327 493.726 288.861 486.849 288.924C480.266 288.984 473.887 290.554 469.477 295.753C465.181 300.818 463.704 307.928 465.782 314.236C466.843 317.456 471.731 315.487 470.672 312.273C469.06 307.379 470.779 301.708 474.419 298.142C479.165 293.491 486.362 294.139 492.475 294.206C499.545 294.282 506.88 293.483 513.173 290.02C518.999 286.813 523.809 281.439 525.066 274.762C526.381 267.784 523.072 260.198 516.662 256.969Z" fill="#F2D8EF"/>
<path id="Vector_37" d="M552.87 271.047C549.517 270.55 548.739 275.759 552.098 276.257C555.452 276.754 556.23 271.544 552.87 271.047Z" fill="#AEABDA"/>
<path id="Vector_38" d="M537.384 309.485C534.341 301.955 523.743 300.422 516.722 300.72C515.3 300.78 514.265 302.323 514.427 303.655C514.61 305.161 515.936 306.01 517.363 305.949C520.788 305.804 524.407 306.244 527.608 307.518C529.604 308.311 532.12 309.668 532.673 311.948C533.023 313.391 532.46 314.87 531.898 316.178C531.126 317.978 530.238 319.733 529.399 321.502C527.67 325.148 525.941 328.793 524.212 332.439C522.756 335.508 527.581 337.628 529.032 334.568C531.062 330.289 533.092 326.01 535.121 321.73C536.933 317.911 539.109 313.752 537.384 309.485Z" fill="#BDBFE1"/>
<g id="Group_2">
<path id="Vector_39" d="M157.937 39.1803C157.638 36.29 157.362 33.4222 156.256 30.7094C154.416 26.1965 150.766 22.4817 146.392 20.4228C141.897 18.3075 136.788 17.7338 132.071 19.3919C129.347 20.3496 126.818 21.8792 123.98 22.5007C122.023 22.9291 119.942 22.8611 117.994 22.388C113.168 21.2156 109.202 17.9632 107.279 13.323C106.686 11.8932 104.604 11.569 103.403 12.2662C101.938 13.1165 101.783 14.7396 102.377 16.1737C106.184 25.3566 117.464 30.658 126.834 27.6582C129.716 26.7358 132.341 25.0904 135.3 24.4044C137.242 23.9541 139.298 24.0526 141.225 24.5603C145.365 25.6518 149.082 28.5091 150.89 32.4767C152.041 35.0007 152.113 37.8785 152.428 40.5885C152.849 44.2158 153.626 47.4232 155.874 50.3668C156.812 51.5941 158.901 51.3731 159.883 50.3836C161.076 49.1817 160.819 47.5683 159.878 46.3361C158.38 44.3758 158.181 41.5429 157.937 39.1803Z" fill="#938CCB"/>
<path id="Vector_40" d="M154.301 69.6241C154.124 68.1707 152.634 66.8315 151.109 67.1293C145.277 68.2681 139.736 70.6394 135.43 74.8142C130.951 79.1569 128.413 85.2223 128.842 91.4757C129.094 95.1511 134.782 94.4542 134.53 90.7792C133.853 80.9149 143.154 74.5046 151.805 72.8154C153.323 72.5191 154.497 71.2378 154.301 69.6241Z" fill="#938CCB"/>
</g>
<path id="Vector_41" d="M229.356 -11.5653C227.926 -10.7768 227.57 -9.07962 228.232 -7.67481C231.887 0.0854702 233.204 8.95592 231.97 17.4474C230.679 26.3317 226.363 34.2719 219.579 40.1452C214.952 44.1508 209.521 47.1139 204.025 49.7441C200.697 51.3365 203.475 56.3459 206.792 54.7588C216.948 49.8986 226.827 43.4936 232.492 33.4538C237.291 24.947 238.853 14.9983 237.779 5.36008C237.167 -0.129058 235.6 -5.44721 233.248 -10.4411C232.588 -11.8418 230.649 -12.2785 229.356 -11.5653Z" fill="#7B6EB9"/>
<path id="Vector_42" d="M150.354 213.48C151.592 212.416 151.593 210.682 150.658 209.442C145.489 202.595 142.383 194.182 141.851 185.618C141.294 176.658 143.892 168.002 149.329 160.864C153.037 155.996 157.745 151.984 162.586 148.284C165.517 146.043 161.771 141.709 158.85 143.942C149.905 150.779 141.548 159.071 138.061 170.058C135.106 179.367 135.616 189.425 138.642 198.639C140.366 203.886 142.989 208.771 146.315 213.177C147.248 214.413 149.235 214.443 150.354 213.48Z" fill="#CACAE8"/>
<path id="Vector_43" d="M366.628 21.4596C360.42 22.0767 354.179 22.2377 347.951 21.8444C345.783 21.7076 342.348 21.9682 340.623 20.3591C339.24 19.0683 339.108 16.7207 338.99 14.9567C338.149 2.43941 338.598 -10.3003 339.416 -22.8054C339.887 -29.9957 340.579 -37.1696 341.476 -44.3192C341.934 -47.9712 336.269 -48.8238 335.809 -45.1588C334.076 -31.3432 333.153 -17.4464 332.996 -3.52404C332.921 3.03572 332.773 9.72702 333.35 16.2677C333.581 18.8844 334.227 21.7047 335.979 23.7494C338.002 26.1109 340.881 26.9624 343.881 27.2609C351.651 28.034 359.561 27.9173 367.325 27.1457C370.991 26.7813 370.304 21.0942 366.628 21.4596Z" fill="#CACAE8"/>
<path id="Vector_44" d="M321.812 19.5183C316.834 15.4109 311.447 11.2844 305.169 9.43402C298.764 7.54599 292.427 8.71675 287.045 12.6525C281.994 16.3469 277.833 21.4797 273.829 26.2383C269.548 31.3255 265.527 36.631 261.785 42.126C257.466 48.4669 253.513 55.0609 249.936 61.8467C249.215 63.215 250.059 65.0317 251.404 65.6224C252.906 66.2824 254.456 65.5285 255.18 64.1554C260.947 53.2161 267.757 42.8572 275.505 33.2174C279.203 28.6167 283.04 23.9563 287.326 19.8858C291.206 16.2012 295.775 13.494 301.302 14.3788C307.783 15.4164 313.322 19.9389 318.233 23.991C321.083 26.3433 324.655 21.864 321.812 19.5183Z" fill="#F2D8EF"/>
<path id="Vector_45" d="M381.93 78.4638C370.489 72.4296 359.59 65.4218 349.353 57.5173C347.572 56.1427 347.755 53.6385 349.73 52.55C353.301 50.5819 357.021 48.8903 360.844 47.4801C361.269 46.9742 361.87 46.5974 362.552 46.4023C365.066 45.6828 367.58 44.9632 370.094 44.2436C372.163 43.6515 374.267 42.8888 376.418 42.6579C378.537 42.4303 380.712 42.6882 382.48 43.9751C384.678 45.575 385.484 48.2229 386.141 50.7297C388.396 59.3356 388.306 68.3948 386.237 77.0211C385.763 78.998 383.4 79.2391 381.93 78.4638ZM379.139 48.6166C378.859 48.7704 378.532 48.8844 378.152 48.9411C370.548 50.0749 363.225 52.3204 356.318 55.6093C364.344 61.5418 372.756 66.9326 381.498 71.7499C382.472 65.726 382.27 59.522 380.942 53.5659C380.637 52.1993 380.385 49.7182 379.282 48.7284C379.236 48.6874 379.188 48.6514 379.139 48.6166Z" fill="#BDBFE1"/>
<path id="Vector_46" d="M320.504 86.6129C315.94 89.6728 309.917 89.1932 305.436 86.2367C300.702 83.1135 298.957 77.3753 300.701 72.0674C302.349 67.0509 307.138 62.9129 312.517 62.7181C313.218 62.6927 313.896 62.8659 314.448 63.2135C319.641 62.9735 324.308 67.5217 325.507 72.778C326.645 77.7725 324.872 83.6845 320.504 86.6129ZM319.893 73.8067C319.622 72.5997 318.866 71.1523 317.963 70.3192C317.01 69.4414 315.047 68.2963 313.727 69.0558C312.643 69.6797 311.36 69.7954 310.374 69.1047C308.129 70.152 306.397 72.2578 305.886 74.6624C305.25 77.6526 306.576 80.3793 309.119 81.8166C311.778 83.3198 315.08 83.5376 317.509 81.7124C319.836 79.9642 320.535 76.6659 319.893 73.8067Z" fill="#AEABDA"/>
<path id="Vector_47" d="M439.186 3.22474C437.884 -6.90261 433.363 -16.8424 424.99 -23.0253C420.389 -26.4226 414.852 -28.6385 409.097 -28.7832C407.551 -28.822 406.09 -28.0343 405.844 -26.3704C405.638 -24.9841 406.7 -23.1571 408.257 -23.118C417.187 -22.8933 425.029 -17.2759 429.273 -9.5746C433.899 -1.18084 434.564 8.77442 433.364 18.1125C432.564 24.3388 431.003 30.4338 429.279 36.4598C428.852 37.9493 430.305 39.5067 431.692 39.7122C433.39 39.9638 434.518 38.7934 434.946 37.2994C438.103 26.266 440.669 14.7561 439.186 3.22474Z" fill="#E1A3D8"/>
<path id="Vector_48" d="M408.004 16.9624C403.891 19.9528 398.106 19.4016 394.415 15.9703C392.797 14.4661 391.69 12.5175 391.226 10.4754C391.111 10.217 391.028 9.92611 390.989 9.59929C390.306 3.8928 394.361 -1.68086 400.048 -2.67674C404.898 -3.52598 409.953 -0.437884 411.871 3.9862C413.847 8.54491 411.94 14.1001 408.004 16.9624ZM406.883 8.64752C407.328 5.7346 404.646 3.01404 401.86 2.90387C400.531 2.85123 399.351 3.38808 398.45 4.23785C398.407 5.07211 397.99 5.88428 397.315 6.47534C397.007 6.74553 396.818 7.09944 396.715 7.49051C396.637 7.96112 396.621 8.43718 396.677 8.90284C396.679 8.92386 396.679 8.94331 396.681 8.96412C396.775 9.51204 396.966 10.0388 397.198 10.449C397.925 11.7398 399.294 12.7233 400.725 13.0939C403.573 13.8319 406.438 11.5545 406.883 8.64752Z" fill="#E2BBDF"/>
<path id="Vector_49" d="M414.355 138.813C414.099 136.276 413.704 133.754 413.197 131.256C412.147 126.086 410.658 121.008 408.926 116.029C407.013 110.527 404.808 105.134 402.598 99.7463C401.201 96.339 395.878 98.4591 397.281 101.881C400.844 110.568 404.494 119.326 406.729 128.47C407.86 133.096 408.732 137.877 408.9 142.647C408.98 144.894 408.476 146.764 407.006 148.479C405.572 150.151 403.782 151.543 402.07 152.918C397.91 156.26 393.443 159.229 388.723 161.721C387.357 162.442 386.513 163.905 387.132 165.446C387.663 166.767 389.483 167.763 390.858 167.037C395.483 164.594 399.92 161.824 404.066 158.633C408.029 155.584 412.754 152.158 414.135 147.108C414.87 144.422 414.63 141.553 414.355 138.813Z" fill="#CACAE8"/>
<path id="Vector_50" d="M380.473 101.483C376.024 97.8531 370.193 96.5004 364.612 97.9016C359.816 99.106 355.932 102.456 352.621 105.973C349.419 109.374 346.559 113.255 342.749 116.019C339.296 118.524 335.091 119.68 330.831 119.254C326.125 118.785 321.48 116.668 318.507 112.916C317.547 111.704 315.913 111.192 314.54 112.093C313.335 112.883 312.752 114.841 313.716 116.059C319.889 123.849 330.847 127.074 340.272 123.764C345.002 122.103 348.753 118.733 352.095 115.105C355.253 111.676 358.152 107.788 362.112 105.227C366.61 102.317 372.415 102.295 376.651 105.752C379.503 108.078 383.332 103.816 380.473 101.483Z" fill="#E1A3D8"/>
<path id="Vector_51" d="M442.002 153.57C438.355 153.03 437.509 158.694 441.162 159.235C444.808 159.776 445.654 154.111 442.002 153.57Z" fill="#CACAE8"/>
<path id="Vector_52" d="M284.295 126.989C281.237 131.837 274.811 134.312 269.26 133.109C263.019 131.755 258.184 127.332 254.293 122.49C253.572 121.593 252.862 120.657 252.174 119.69C247.744 123.2 244.02 127.411 238.922 130.056C233.985 132.617 228.32 133.642 222.791 133.279C211.778 132.557 201.987 125.29 197.472 115.338C195.943 111.969 201.271 109.859 202.789 113.204C208.024 124.741 221.546 130.487 233.478 126.186C239.381 124.058 243.398 119.536 248.107 115.625C248.429 115.357 248.757 115.096 249.089 114.841C244.239 106.223 241.843 96.0092 247.157 87.017C247.947 85.68 249.38 84.8694 250.936 85.5551C252.232 86.1269 253.185 88.0006 252.398 89.3327C249.067 94.9692 249.406 101.637 251.801 107.563C252.378 108.991 253.058 110.413 253.821 111.809C257.335 109.963 261.177 108.775 265.175 108.396C270.792 107.864 276.931 108.765 281.448 112.388C285.917 115.971 287.428 122.021 284.295 126.989ZM279.366 118.434C276.919 114.961 271.986 113.92 267.988 113.966C264.108 114.01 260.316 114.938 256.886 116.652C258.492 118.867 260.289 120.929 262.197 122.729C265.59 125.928 270.351 128.918 275.149 127.16C278.747 125.842 281.913 122.049 279.366 118.434Z" fill="#CACAE8"/>
<path id="Vector_53" d="M367.387 157.916C364.689 162.827 358.599 165.27 353.181 164.047C347.743 162.82 343.841 158.337 342.957 152.88C342.088 147.518 344.726 142.322 349.658 140.027C354.149 137.938 359.427 138.716 363.03 141.989C363.203 142.063 363.373 142.149 363.536 142.249C368.618 145.361 370.203 152.791 367.387 157.916ZM360.365 146.444C360.018 146.264 359.694 146.018 359.41 145.721C357.329 143.542 353.207 143.679 350.694 145.465C348.163 147.265 347.48 150.585 348.521 153.554C349.642 156.752 352.276 158.932 355.7 159.084C358.894 159.225 362.302 157.429 363.241 154.256C364.083 151.409 362.985 148.132 360.365 146.444Z" fill="#E2E2F2"/>
<path id="Vector_54" d="M282.274 83.4806C282.216 83.0209 282.049 82.6046 281.774 82.2317C281.334 81.6882 280.751 81.3002 280.045 81.1956L279.418 81.1027C279.061 81.036 278.715 81.0612 278.381 81.1783C278.042 81.2355 277.736 81.3737 277.462 81.5927C277.173 81.7911 276.952 82.0439 276.799 82.3513C276.59 82.6377 276.465 82.9611 276.426 83.3218L276.416 84.0282C276.474 84.4879 276.641 84.9042 276.916 85.2771C277.356 85.8205 277.939 86.2085 278.645 86.3131L279.272 86.4061C279.629 86.4727 279.975 86.4476 280.31 86.3305C280.648 86.2732 280.955 86.1351 281.228 85.916C281.517 85.7177 281.738 85.4649 281.891 85.1574C282.101 84.8711 282.225 84.5476 282.265 84.1869C282.268 83.9515 282.271 83.716 282.274 83.4806Z" fill="#B9D5EA"/>
<path id="Vector_55" d="M260.788 7.87855C260.73 7.41884 260.563 7.00254 260.288 6.62964C259.848 6.08617 259.265 5.69819 258.559 5.59357L257.931 5.50066C257.575 5.43396 257.229 5.45917 256.894 5.57627C256.556 5.63347 256.249 5.7716 255.976 5.99069C255.687 6.18903 255.466 6.44189 255.313 6.74928C255.103 7.03557 254.979 7.35908 254.939 7.71979C254.936 7.95522 254.933 8.19068 254.93 8.42615C254.988 8.88581 255.155 9.3021 255.429 9.67503C255.87 10.2185 256.453 10.6065 257.159 10.7111L257.786 10.804C258.143 10.8707 258.489 10.8455 258.823 10.7284C259.162 10.6712 259.468 10.5331 259.742 10.314C260.031 10.1157 260.252 9.8628 260.405 9.55538C260.614 9.26909 260.739 8.94559 260.778 8.58491C260.782 8.34945 260.785 8.11399 260.788 7.87855Z" fill="#B9D5EA"/>
<path id="Vector_56" d="M184.505 137.508C184.446 137.048 184.28 136.632 184.005 136.259C183.564 135.715 182.981 135.327 182.275 135.223L181.648 135.13C181.291 135.063 180.946 135.088 180.611 135.205C180.272 135.262 179.966 135.401 179.692 135.62C179.403 135.818 179.182 136.071 179.029 136.378C178.82 136.665 178.696 136.988 178.656 137.349C178.653 137.584 178.65 137.82 178.646 138.055C178.705 138.515 178.871 138.931 179.146 139.304C179.587 139.848 180.17 140.236 180.876 140.34L181.503 140.433C181.86 140.5 182.206 140.475 182.54 140.357C182.879 140.3 183.185 140.162 183.459 139.943C183.748 139.745 183.969 139.492 184.122 139.184C184.331 138.898 184.455 138.575 184.495 138.214C184.498 137.978 184.502 137.743 184.505 137.508Z" fill="#E2BBDF"/>
<path id="Vector_57" d="M372.92 201.946C375.96 204.893 380.03 208.933 384.679 208.23C387.865 207.749 390.511 205.352 393.218 203.786C395.516 202.456 398.098 201.461 400.731 201.041C401.003 200.205 401.284 199.381 401.57 198.578C403.427 193.348 405.827 188.047 409.186 183.599C412.398 179.346 416.633 175.766 421.949 174.596C426.836 173.52 431.917 174.522 435.688 177.881C436.755 178.832 436.56 180.688 435.593 181.605C434.499 182.643 432.929 182.456 431.868 181.51C428.966 178.925 424.372 178.956 420.948 180.394C416.192 182.39 412.995 186.806 410.594 191.185C408.882 194.306 407.454 197.584 406.313 200.958C409.561 201.407 412.62 202.769 414.97 205.253C418.179 208.645 419.838 213.886 417.923 218.332C416.21 222.308 411.967 224.913 407.65 224.818C402.134 224.697 398.923 219.934 398.514 214.828C398.307 212.234 398.593 209.548 399.142 206.897C396.801 207.742 394.642 209.091 392.463 210.466C388.391 213.037 383.868 214.509 379.166 212.747C375.242 211.276 372.066 208.451 369.1 205.576C366.655 203.206 370.495 199.596 372.92 201.946ZM412.701 211.108C411.154 208.003 408.174 206.315 404.821 206.058C404.391 207.773 404.033 209.514 403.845 211.267C403.632 213.247 403.517 215.533 404.461 217.36C405.878 220.101 408.771 220.04 411.173 218.528C412.125 217.929 412.988 216.89 413.307 215.619C413.686 214.105 413.389 212.488 412.701 211.108Z" fill="#F2D8EF"/>
<path id="Vector_58" d="M198.621 20.503C196.672 24.8201 192.46 27.747 187.678 27.4636C186.25 27.3789 185.264 25.7858 185.459 24.4723C185.68 22.976 187.03 22.169 188.451 22.2531C190.549 22.3775 192.457 20.7626 193.464 19.0487C194.889 16.6213 194.711 13.5969 194.124 10.9504C193.052 6.12016 190.41 1.45382 187.155 -2.335C180.409 2.90772 170.162 2.67345 162.445 -0.597948C157.499 -2.69426 153.239 -6.25548 150.777 -11.0677C148.415 -15.6821 148.075 -21.3033 150.158 -26.0742C151.516 -29.1823 156.337 -27.0549 154.979 -23.9445C153.113 -19.673 154.171 -14.6952 156.949 -11.065C159.921 -7.1818 164.653 -4.87088 169.375 -3.95063C173.688 -3.11006 178.474 -3.22034 182.372 -5.47302C182.706 -5.66631 183.035 -5.87819 183.357 -6.10525C180.396 -8.67645 177.196 -11.1135 175.729 -14.8475C174.221 -18.686 175.157 -24.0212 178.898 -26.2572C183.842 -29.2128 189.538 -25.2815 191.897 -20.8635C194.347 -16.2782 193.746 -10.8743 191.014 -6.57535C190.928 -6.44049 190.836 -6.31388 190.748 -6.18267C193.832 -2.72241 196.299 1.34929 197.965 5.67073C199.751 10.3058 200.746 15.7978 198.621 20.503ZM185.407 -11.2804C185.923 -10.8389 186.433 -10.3944 186.938 -9.94443C187.765 -11.3596 188.255 -12.9455 188.214 -14.6052C188.169 -16.4462 187.561 -18.236 186.435 -19.6943C185.486 -20.9231 183.808 -22.2124 182.166 -21.9804C181.741 -21.9204 181.494 -21.7603 181.131 -21.3107C180.858 -20.9741 180.533 -20.2234 180.456 -19.8818C180.121 -18.4129 180.275 -17.2392 181.066 -15.8863C182.142 -14.0464 183.809 -12.6474 185.407 -11.2804Z" fill="#AEABDA"/>
<path id="Vector_59" d="M221.936 160.089C220.846 164.797 216.508 168.54 211.663 168.893C206.53 169.267 201.745 165.919 199.849 161.213C197.866 156.288 199.214 150.369 203.503 147.131C207.563 144.066 213.655 144.127 217 148.165C220.773 150.703 222.975 155.598 221.936 160.089ZM212.565 151.812C211.871 151.564 211.393 150.975 211.165 150.295C208.85 149.614 205.936 151.36 204.879 153.473C203.139 156.955 204.854 161.5 208.356 163.109C211.458 164.534 215.36 162.888 216.58 159.687C217.815 156.451 215.655 152.919 212.565 151.812Z" fill="#7B6EB9"/>
<path id="Vector_60" d="M238.59 201.76C234.968 197.586 229.725 195.026 224.22 194.631C219.1 194.263 214.349 196.224 209.648 197.954C204.985 199.669 200.439 200.857 195.598 199.072C191 197.377 186.96 193.655 184.354 189.557C181.606 185.236 180.034 180.018 181.319 174.937C182.148 171.66 177.103 170.139 176.27 173.434C173.563 184.134 179.721 195.109 188.4 201.156C193.269 204.548 199.03 206.015 204.883 204.877C209.876 203.907 214.392 201.358 219.353 200.268C225.074 199.01 230.902 200.933 234.743 205.36C236.971 207.929 240.808 204.316 238.59 201.76Z" fill="#FFCCD7"/>
<path id="Vector_61" d="M260.835 178.103C259.421 179.822 256.455 180.292 254.427 180.881C250.298 182.081 246.094 182.981 241.836 183.56C240.392 185.334 236.749 184.337 237.161 181.509C237.958 176.035 239.592 170.563 242.174 165.657C244.006 162.175 247.751 158.296 252.044 160.406C254.084 161.409 255.306 163.399 256.497 165.244C257.786 167.241 258.982 169.296 260.11 171.388C261.227 173.459 262.617 175.938 260.835 178.103ZM255.71 174.976C255.827 174.936 255.962 174.874 256.102 174.812C255.716 173.977 255.109 173.131 254.74 172.474C253.961 171.084 253.13 169.721 252.265 168.382C251.649 167.428 250.89 165.714 249.831 165.172C249.462 164.983 248.998 165.257 248.567 165.644C246.625 167.391 245.657 170.442 244.766 172.81C244.122 174.524 243.601 176.27 243.182 178.042C245.178 177.725 247.162 177.338 249.13 176.873C250.565 176.534 251.985 176.144 253.396 175.716C254.171 175.481 254.942 175.234 255.71 174.976Z" fill="#AEABDA"/>
<path id="Vector_62" d="M154.089 111.24C154.69 109.096 157.214 107.47 158.832 106.113C162.126 103.351 165.611 100.833 169.273 98.5859C169.88 96.3809 173.615 95.8243 174.379 98.5788C175.857 103.909 176.57 109.575 176.186 115.105C175.914 119.031 174.052 124.09 169.272 123.889C167.001 123.794 165.08 122.465 163.246 121.257C161.261 119.95 159.337 118.551 157.461 117.092C155.603 115.647 153.332 113.939 154.089 111.24ZM160.04 112.035C159.95 112.118 159.851 112.229 159.748 112.343C160.438 112.951 161.335 113.481 161.937 113.934C163.211 114.891 164.521 115.803 165.852 116.68C166.801 117.304 168.187 118.567 169.375 118.636C169.789 118.66 170.103 118.222 170.341 117.694C171.413 115.313 171.069 112.131 170.928 109.605C170.827 107.776 170.599 105.969 170.268 104.178C168.569 105.273 166.91 106.427 165.296 107.646C164.12 108.534 162.978 109.464 161.86 110.424C161.245 110.952 160.639 111.489 160.04 112.035Z" fill="#B9D5EA"/>
<path id="Vector_63" d="M216.9 85.6182C211.833 87.74 206.766 89.8619 201.699 91.9837C199.295 92.9906 196.771 94.1898 194.072 93C191.888 92.0369 190.905 89.9499 190.42 87.9567C189.93 85.9399 189.705 83.8841 189.201 81.8646C188.668 79.7258 187.98 77.6224 187.163 75.5491C185.555 71.4709 183.469 67.5372 180.896 63.8544C180.037 62.6243 180.09 61.059 181.442 60.17C182.629 59.3899 184.713 59.5546 185.57 60.7817C190.507 67.849 193.948 75.6158 195.586 83.7568C195.88 85.2199 196.263 86.8444 196.562 88.2025C196.705 88.0868 197.246 87.9528 197.388 87.8966C198.505 87.4538 199.602 86.9718 200.708 86.5087L214.62 80.6826C218.022 79.2579 220.27 84.2066 216.9 85.6182ZM196.685 88.3392C196.643 88.3303 196.613 88.3204 196.588 88.3101C196.733 88.8548 196.85 88.3738 196.685 88.3392Z" fill="#E1A3D8"/>
<path id="Vector_64" d="M337.739 182.483C327.96 177.263 318.369 171.695 309.012 165.751C304.719 163.024 300.235 160.381 296.295 157.149C293.671 154.997 290.757 152.045 290.831 148.4C290.887 145.619 292.695 143.136 294.169 140.909C295.98 138.172 297.792 135.435 299.603 132.699C300.388 131.513 300.377 129.943 299.197 128.996C298.165 128.168 296.281 128.211 295.493 129.402C293.777 131.995 292.06 134.587 290.344 137.18C288.724 139.628 287.004 142.081 286.152 144.921C284.669 149.865 286.472 154.655 289.887 158.327C293.382 162.085 297.819 164.762 302.092 167.534C307.24 170.874 312.458 174.107 317.735 177.24C323.614 180.73 329.576 184.082 335.608 187.302C336.864 187.972 338.54 187.189 339.084 185.957C339.695 184.572 338.999 183.155 337.739 182.483Z" fill="#E2BBDF"/>
<path id="Vector_65" d="M183.985 294.489C182.555 295.277 182.199 296.974 182.86 298.379C186.516 306.139 187.833 315.01 186.599 323.501C185.308 332.386 180.992 340.326 174.208 346.199C169.581 350.205 164.15 353.168 158.654 355.798C155.326 357.39 158.104 362.4 161.421 360.813C171.577 355.952 181.456 349.547 187.12 339.508C191.92 331.001 193.482 321.052 192.408 311.414C191.796 305.925 190.229 300.607 187.877 295.613C187.217 294.212 185.278 293.775 183.985 294.489Z" fill="#7B6EB9"/>
<path id="Vector_66" d="M261.199 294.442C256.142 296.813 249.632 295.447 245.752 291.521C241.769 287.49 240.631 280.893 243.297 275.823C245.65 271.347 250.55 268.549 255.55 268.723C256.073 268.325 256.769 268.125 257.621 268.273C263.739 269.337 269.012 274.658 269.29 281.011C269.537 286.649 266.32 292.04 261.199 294.442ZM263.401 280.078C262.782 277.524 260.83 275.398 258.423 274.415C257.951 274.656 257.369 274.747 256.689 274.613C252.988 273.884 248.963 275.922 247.88 279.677C246.952 282.894 248.135 286.497 250.896 288.409C253.53 290.232 257.329 290.449 259.987 288.573C262.62 286.715 264.176 283.273 263.401 280.078Z" fill="#E1A3D8"/>
<path id="Vector_67" d="M321.257 327.514C315.049 328.131 308.808 328.292 302.579 327.898C300.412 327.762 296.976 328.022 295.252 326.413C293.868 325.122 293.737 322.775 293.619 321.011C292.778 308.493 293.227 295.754 294.045 283.248C294.515 276.058 295.208 268.884 296.105 261.735C296.563 258.083 290.898 257.23 290.438 260.895C288.705 274.711 287.782 288.608 287.624 302.53C287.55 309.09 287.401 315.781 287.979 322.322C288.21 324.938 288.856 327.759 290.608 329.803C292.631 332.165 295.51 333.016 298.51 333.315C306.28 334.088 314.19 333.971 321.954 333.2C325.62 332.835 324.933 327.148 321.257 327.514Z" fill="#CACAE8"/>
<path id="Vector_68" d="M276.441 325.572C271.463 321.465 266.075 317.338 259.798 315.488C253.393 313.6 247.056 314.771 241.674 318.706C236.623 322.401 232.462 327.534 228.457 332.292C224.177 337.379 220.156 342.685 216.414 348.18C212.095 354.521 208.142 361.115 204.565 367.901C203.844 369.269 204.687 371.086 206.032 371.676C207.535 372.336 209.085 371.582 209.809 370.209C215.576 359.27 222.386 348.911 230.134 339.271C233.832 334.671 237.669 330.01 241.955 325.94C245.835 322.255 250.403 319.548 255.931 320.433C262.412 321.47 267.951 325.993 272.862 330.045C275.712 332.397 279.284 327.918 276.441 325.572Z" fill="#F2D8EF"/>
<path id="Vector_69" d="M393.813 309.279C392.511 299.151 387.99 289.211 379.617 283.029C375.016 279.631 369.479 277.415 363.724 277.271C362.178 277.232 360.717 278.02 360.471 279.683C360.265 281.07 361.327 282.897 362.884 282.936C371.814 283.16 379.656 288.778 383.9 296.479C388.526 304.873 389.191 314.828 387.991 324.166C387.191 330.393 385.63 336.488 383.906 342.514C383.479 344.003 384.932 345.561 386.319 345.766C388.017 346.018 389.145 344.847 389.573 343.353C392.73 332.32 395.296 320.81 393.813 309.279Z" fill="#E1A3D8"/>
<path id="Vector_70" d="M362.633 323.016C358.52 326.007 352.735 325.455 349.044 322.024C347.426 320.52 346.319 318.571 345.855 316.529C345.74 316.271 345.657 315.98 345.618 315.653C344.934 309.947 348.99 304.373 354.677 303.377C359.526 302.528 364.582 305.616 366.5 310.04C368.476 314.599 366.569 320.154 362.633 323.016ZM361.512 314.701C361.957 311.788 359.275 309.068 356.489 308.958C355.16 308.905 353.98 309.442 353.079 310.292C353.036 311.126 352.619 311.938 351.944 312.529C351.636 312.799 351.447 313.153 351.344 313.544C351.266 314.015 351.25 314.491 351.306 314.957C351.308 314.978 351.308 314.997 351.31 315.018C351.404 315.566 351.595 316.093 351.826 316.503C352.553 317.794 353.922 318.777 355.353 319.148C358.202 319.886 361.067 317.608 361.512 314.701Z" fill="#E2BBDF"/>
<path id="Vector_71" d="M330.347 282.398C326.442 282.644 322.74 280.106 320.852 276.792C318.746 273.097 318.767 268.395 319.966 264.412C321.389 259.688 324.709 255.554 325.072 250.505C325.396 245.984 323.742 241.392 319.491 239.29C316.179 237.651 313.879 242.899 317.175 244.529C320.628 246.237 319.322 251.482 318.137 254.265C316.088 259.077 313.668 263.469 313.478 268.838C313.303 273.785 314.634 278.827 318.015 282.556C321.373 286.258 326.012 288.401 331.044 288.084C334.721 287.853 334.022 282.167 330.347 282.398Z" fill="#AEABDA"/>
<path id="Vector_72" d="M151.091 241.385C151.118 239.922 149.829 238.388 148.277 238.471C142.343 238.788 136.527 240.365 131.682 243.901C126.642 247.578 123.284 253.232 122.839 259.484C122.577 263.159 128.306 263.26 128.568 259.585C129.27 249.723 139.374 244.668 148.175 244.199C149.719 244.116 151.06 243.011 151.091 241.385Z" fill="#FFCCD7"/>
<path id="Vector_73" d="M354.752 207.448C354.372 206.034 352.709 204.917 351.24 205.427C345.627 207.374 340.475 210.5 336.799 215.239C332.975 220.168 331.315 226.53 332.619 232.661C333.386 236.264 338.919 234.775 338.152 231.172C336.095 221.501 344.403 213.847 352.73 210.958C354.191 210.452 355.173 209.018 354.752 207.448Z" fill="#E2E2F2"/>
<path id="Vector_74" d="M210.68 211.634C207.645 210.105 205.531 214.932 208.549 216.453C213.265 218.829 215.023 224.949 213.609 229.797C211.922 235.576 206.705 239.62 201.252 241.599C194.66 243.992 187.744 243.526 180.867 243.589C174.284 243.649 167.905 245.219 163.495 250.418C159.199 255.483 157.721 262.593 159.799 268.901C160.86 272.121 165.748 270.152 164.689 266.938C163.077 262.044 164.797 256.374 168.436 252.807C173.182 248.157 180.379 248.804 186.493 248.871C193.563 248.947 200.898 248.148 207.191 244.685C213.017 241.478 217.826 236.104 219.084 229.427C220.398 222.449 217.09 214.863 210.68 211.634Z" fill="#F2D8EF"/>
<path id="Vector_75" d="M424.79 270.821C424.254 260.807 422.533 250.913 419.827 241.261C419.443 239.892 417.618 239.309 416.4 239.799C414.963 240.376 414.552 241.85 414.937 243.224C417.295 251.633 418.775 260.291 419.404 268.999C419.536 270.821 419.971 273.056 419.438 274.849C419.005 276.307 417.282 276.589 416.007 276.99C411.78 278.318 407.505 279.483 403.191 280.49C401.806 280.813 400.71 281.904 400.895 283.425C401.053 284.721 402.438 286.045 403.831 285.72C408.747 284.572 413.64 283.275 418.446 281.729C420.68 281.01 422.722 279.95 423.883 277.814C425.04 275.683 424.916 273.162 424.79 270.821Z" fill="#BDBFE1"/>
<path id="Vector_76" d="M374.477 263.961C372.834 264.091 371.414 263.232 369.977 262.548C363.959 259.684 357.94 256.82 351.922 253.956C350.398 253.231 348.817 252.56 348.392 250.745C347.972 248.956 349.216 247.686 350.463 246.641C353.012 244.504 355.579 242.387 358.162 240.29C363.263 236.151 368.43 232.094 373.657 228.115C374.722 227.304 376.101 227.071 377.172 227.968C378.548 227.886 380.019 228.734 380.068 230.506C380.269 237.636 380.035 244.775 379.339 251.875C379.179 253.507 378.995 255.136 378.787 256.762C378.613 258.122 378.558 259.6 378.091 260.899C377.506 262.523 376.271 263.82 374.477 263.961ZM373.309 258.321C373.372 257.933 373.414 257.541 373.466 257.153C374.495 249.412 374.936 241.593 374.86 233.784C371.558 236.323 368.279 238.891 365.028 241.494C362.964 243.147 360.91 244.813 358.867 246.492C357.944 247.25 357.023 248.011 356.105 248.775C355.754 249.067 355.403 249.359 355.053 249.652C355.229 249.725 355.393 249.796 355.533 249.862C356.642 250.39 357.75 250.917 358.859 251.445C360.997 252.462 363.135 253.48 365.273 254.497C367.411 255.514 369.55 256.532 371.688 257.549C372.228 257.806 372.769 258.064 373.309 258.321Z" fill="#7B6EB9"/>
<path id="Vector_77" d="M246.888 225.712C243.534 225.215 242.756 230.425 246.116 230.922C249.469 231.419 250.247 226.21 246.888 225.712Z" fill="#AEABDA"/>
<path id="Vector_78" d="M231.404 264.15C228.36 256.62 217.762 255.088 210.742 255.385C209.319 255.445 208.284 256.989 208.446 258.32C208.63 259.826 209.956 260.675 211.382 260.615C214.808 260.47 218.427 260.91 221.628 262.183C223.623 262.976 226.14 264.334 226.693 266.613C227.043 268.057 226.48 269.535 225.918 270.844C225.145 272.643 224.258 274.398 223.418 276.168C221.689 279.813 219.96 283.458 218.231 287.104C216.775 290.173 221.601 292.293 223.052 289.234C225.081 284.954 227.111 280.675 229.141 276.395C230.952 272.576 233.128 268.418 231.404 264.15Z" fill="#BDBFE1"/>
<path id="Vector_79" d="M215.417 313.932C215.358 313.473 215.192 313.056 214.917 312.683C214.477 312.14 213.894 311.752 213.187 311.647L212.56 311.554C212.204 311.488 211.858 311.513 211.523 311.63C211.184 311.687 210.878 311.825 210.605 312.045C210.315 312.243 210.094 312.496 209.941 312.803C209.732 313.089 209.608 313.413 209.568 313.774C209.565 314.009 209.562 314.245 209.559 314.48C209.617 314.94 209.784 315.356 210.058 315.729C210.499 316.272 211.082 316.66 211.788 316.765L212.415 316.858C212.772 316.925 213.118 316.899 213.452 316.782C213.791 316.725 214.097 316.587 214.371 316.368C214.66 316.17 214.881 315.917 215.034 315.609C215.243 315.323 215.368 314.999 215.407 314.639C215.41 314.403 215.414 314.168 215.417 313.932Z" fill="#B9D5EA"/>
<path id="Vector_80" d="M312.213 197.675C316.654 199.326 319.861 203.328 319.903 208.116C319.915 209.547 318.392 210.639 317.068 210.534C315.56 210.414 314.663 209.122 314.651 207.7C314.632 205.599 312.891 203.805 311.112 202.918C308.593 201.661 305.587 202.044 302.985 202.81C298.238 204.207 293.76 207.159 290.2 210.663C295.891 217.035 296.353 227.272 293.613 235.191C291.857 240.266 288.592 244.757 283.957 247.54C279.512 250.209 273.926 250.931 269.023 249.176C265.829 248.034 267.624 243.08 270.821 244.224C275.21 245.795 280.106 244.401 283.54 241.384C287.214 238.156 289.198 233.279 289.796 228.506C290.342 224.147 289.906 219.382 287.394 215.647C287.178 215.326 286.944 215.013 286.696 214.707C284.331 217.836 282.116 221.193 278.489 222.91C274.761 224.674 269.373 224.103 266.888 220.524C263.602 215.793 267.138 209.845 271.387 207.192C275.797 204.437 281.23 204.669 285.706 207.102C285.847 207.178 285.979 207.262 286.116 207.341C289.36 204.029 293.256 201.292 297.455 199.337C301.96 197.241 307.373 195.876 312.213 197.675ZM281.392 213.014C281.797 212.47 282.206 211.93 282.621 211.396C281.152 210.668 279.537 210.287 277.883 210.44C276.049 210.61 274.304 211.338 272.925 212.56C271.763 213.59 270.591 215.352 270.934 216.974C271.022 217.393 271.199 217.629 271.672 217.961C272.027 218.21 272.798 218.483 273.144 218.537C274.633 218.771 275.794 218.538 277.09 217.657C278.853 216.459 280.136 214.701 281.392 213.014Z" fill="#938CCB"/>
<path id="Vector_81" d="M153.25 326.557C151.301 330.874 147.089 333.801 142.307 333.517C140.879 333.433 139.893 331.84 140.087 330.526C140.309 329.03 141.659 328.223 143.08 328.307C145.178 328.431 147.086 326.816 148.093 325.102C149.518 322.675 149.34 319.651 148.752 317.004C147.681 312.174 145.039 307.508 141.784 303.719C135.038 308.962 124.791 308.727 117.073 305.456C112.128 303.36 107.868 299.798 105.406 294.986C103.044 290.372 102.703 284.75 104.787 279.98C106.145 276.871 110.966 278.999 109.608 282.109C107.742 286.381 108.8 291.359 111.578 294.989C114.55 298.872 119.282 301.183 124.004 302.103C128.317 302.944 133.103 302.833 137.001 300.581C137.335 300.387 137.664 300.176 137.986 299.949C135.024 297.377 131.824 294.94 130.358 291.206C128.85 287.368 129.786 282.033 133.527 279.797C138.471 276.841 144.167 280.772 146.526 285.19C148.975 289.776 148.375 295.179 145.643 299.478C145.557 299.613 145.465 299.74 145.377 299.871C148.461 303.331 150.928 307.403 152.594 311.725C154.38 316.36 155.375 321.852 153.25 326.557ZM140.036 294.773C140.552 295.215 141.062 295.659 141.567 296.109C142.394 294.694 142.884 293.108 142.843 291.449C142.798 289.608 142.19 287.818 141.064 286.36C140.115 285.131 138.437 283.841 136.795 284.073C136.37 284.133 136.123 284.293 135.759 284.743C135.487 285.08 135.162 285.83 135.084 286.172C134.75 287.641 134.904 288.815 135.695 290.167C136.771 292.007 138.438 293.406 140.036 294.773Z" fill="#AEABDA"/>
</g>
</g>
</g>
</g>
<g id="video-cover-container">
<rect id="Rectangle 7" y="40.3179" width="558" height="235" fill="#938CCB"/>
<text id="video-title" fill="white" xml:space="preserve" style="white-space: pre" font-family="Playpen Sans" font-size="20" font-weight="bold" letter-spacing="0em"><tspan x="25" y="121.618">Instrumento de avalia&#xe7;&#xe3;o </tspan><tspan x="25" y="149.618">de desenvolvimento integral </tspan><tspan x="25" y="177.618">das crian&#xe7;as contido na </tspan><tspan x="25" y="205.618">Caderneta da Crian&#xe7;a</tspan></text>
<path id="Polygon 13" d="M311.121 162.648C314.454 160.723 314.454 155.912 311.121 153.988L265.499 127.648C262.166 125.723 257.999 128.129 257.999 131.978L257.999 184.658C257.999 188.507 262.166 190.912 265.499 188.988L311.121 162.648Z" fill="#594C8B"/>
<g id="silhueta">
<g id="Group 582">
<g id="Group 578">
<path id="Vector_82" d="M467.64 197.095C467.397 197.095 467.14 197.072 466.852 197.024C466.173 196.911 465.705 196.744 465.292 196.598C464.872 196.448 464.541 196.33 463.931 196.246C463.464 196.182 462.929 196.143 462.412 196.106C460.989 196.002 460.13 195.939 459.496 195.402C458.963 194.95 458.612 194.171 458.511 193.379C458.118 193.115 457.694 192.767 457.386 192.343L457.334 192.273C456.862 191.623 455.755 190.101 454.843 188.448C454.625 188.051 454.36 187.623 454.088 187.207C453.875 187.492 453.631 187.757 453.356 187.978C452.608 188.577 450.559 189.974 447.694 190.014L447.589 190.014C445.982 190.014 444.647 189.513 443.356 189.029C442.769 188.808 442.214 188.6 441.645 188.443C441.205 188.321 440.744 188.189 440.283 188.056C439.153 187.731 437.445 187.24 436.976 187.24C436.202 187.265 435.803 187.365 435.456 187.622C435.23 187.79 435.091 187.933 434.93 188.099C434.65 188.387 434.301 188.746 433.68 189.043C433.244 189.252 432.11 189.737 430.986 189.739C430.472 190.542 429.628 191.412 428.338 191.571C427.214 191.708 424.488 191.844 422.833 191.844C422.088 191.844 421.773 191.816 421.6 191.796C420.303 191.643 418.35 190.763 417.127 189.195C417.065 189.115 417.007 189.042 416.954 188.975C416.526 189.516 415.983 189.823 415.33 189.893C414.684 189.962 412.944 189.987 411.931 189.987C411.154 189.987 410.627 189.975 410.366 189.951C410.094 189.926 409.788 189.881 409.492 189.771C408.837 189.72 408.257 189.447 407.842 188.987C407.612 188.733 407.363 188.343 407.257 187.784C406.733 187.21 406.38 186.4 406.5 185.468C406.634 184.432 407.014 183.801 407.453 183.071C407.547 182.912 407.653 182.737 407.769 182.538C407.969 182.19 408.485 181.156 409.03 180.06C410.728 176.651 411.408 175.352 411.841 174.858C411.917 174.77 412.008 174.649 412.112 174.512C412.839 173.561 414.191 171.792 416.211 171.792C416.272 171.792 416.332 171.794 416.392 171.797V170.672C415.698 169.691 414.534 167.628 415.45 165.831C415.988 164.775 416.585 164.257 416.967 163.943C416.968 163.934 416.97 163.924 416.971 163.914C417.016 163.533 417.088 162.935 417.498 162.404C417.519 162.295 417.541 162.148 417.557 162.039C417.624 161.598 417.692 161.142 417.89 160.722C418.027 160.43 419.118 158.28 419.907 157.341C419.996 157.235 420.229 156.884 420.435 156.574C421.351 155.195 422.734 153.112 424.458 151.986C426.509 150.647 431.309 148.556 435.046 148.076C435.755 147.91 440.834 146.721 442.437 146.288C443.509 145.998 444.794 145.546 446.256 144.943C446.365 144.88 446.64 144.696 446.844 144.559C448.221 143.635 449.272 142.98 450.261 142.98C450.298 142.98 450.376 142.983 450.413 142.985C450.73 143.008 450.975 143.051 451.154 143.082C451.155 143.083 451.157 143.083 451.158 143.083C451.249 142.967 451.381 142.773 451.483 142.622C451.992 141.868 452.69 140.836 453.927 140.369C454.149 140.285 454.358 140.21 454.553 140.144C454.213 138.804 453.949 137.449 454.039 136.726C454.051 136.63 454.055 136.513 454.062 136.382C454.108 135.48 454.234 133.002 456.461 132.128C456.782 130.237 457.671 126.61 459.946 124.502C462.741 121.912 466.005 120.443 466.143 120.382C466.228 120.344 466.316 120.313 466.407 120.291L466.445 120.278C467.815 119.873 468.928 119.675 469.848 119.675C469.96 119.675 470.07 119.678 470.177 119.684C470.321 119.693 470.493 119.698 470.685 119.705C472.375 119.762 475.519 119.868 477.843 121.713L478.405 122.157C480.49 123.797 482.46 125.347 483.364 127.94C484.487 131.16 483.862 134.986 483.726 135.72C483.538 136.731 483.192 137.384 482.914 137.911C482.68 138.353 482.551 138.597 482.518 139.021C482.449 139.912 482.272 140.837 482.126 141.493C482.333 141.9 482.416 142.393 482.3 142.935C482.153 143.621 481.631 144.318 481.199 144.799C480.85 146.037 480.189 148.233 479.686 149.008C479.432 149.399 478.388 150.941 477.076 151.98C477.609 153.426 477.54 153.908 477.507 154.142C477.425 154.719 477.104 155.487 476.725 156.359C476.665 156.496 476.615 156.61 476.586 156.684C476.502 156.894 476.379 157.111 476.223 157.387C476.126 157.557 475.951 157.867 475.851 158.081C476.315 160.029 476.238 160.613 476.209 160.84C476.205 160.867 476.209 160.894 476.244 161.049C476.285 161.23 476.34 161.474 476.347 161.773L476.353 161.805C476.421 162.145 476.58 162.943 475.908 163.859C475.724 164.108 475.484 164.385 475.268 164.623C475.313 164.988 475.38 165.452 475.474 165.898L475.623 166.623C475.774 167.371 476.129 169.121 476.279 169.497L476.319 169.566C476.692 170.25 477.467 171.672 477.495 175.578C477.517 178.608 477.488 181.963 477.474 183.575C477.47 184.017 477.467 184.321 477.467 184.442C477.467 184.627 477.474 184.831 477.483 185.02C477.823 185.159 478.128 185.308 478.503 185.516C478.761 185.658 478.922 185.768 479.055 185.86L479.099 185.89C479.127 185.898 479.16 185.906 479.2 185.915C479.446 185.971 480.152 186.005 480.669 186.03C481.107 186.05 481.543 186.073 481.903 186.106C483.207 186.228 485.174 187.041 485.822 187.343C486.814 187.807 487.516 188.219 487.947 188.835C488.405 189.491 488.474 190.309 488.129 190.972C487.992 191.236 487.617 191.784 486.815 191.984C486.468 192.191 485.982 192.367 485.334 192.367C484.791 192.367 484.166 192.259 483.709 192.181C483.706 192.18 483.703 192.18 483.7 192.179C483.329 192.411 482.866 192.556 482.322 192.556C482.174 192.556 482.01 192.545 481.831 192.519C481.281 192.44 480.677 192.4 480.137 192.374C480.678 192.748 480.974 193.264 481.017 193.916C481.059 194.544 480.832 195.174 480.394 195.644C479.895 196.179 479.159 196.474 478.324 196.474C478.184 196.474 478.033 196.466 477.875 196.447C477.589 196.414 477.31 196.384 477.06 196.358C476.767 196.59 476.407 196.743 476.004 196.804C475.8 196.835 475.574 196.849 475.313 196.849C474.57 196.849 473.56 196.724 472.542 196.506C471.62 196.308 470.479 196.118 469.735 196.03C469.649 196.172 469.555 196.289 469.466 196.384C469.161 196.708 468.596 197.095 467.64 197.095ZM467.379 186.89C467.481 186.929 467.597 186.974 467.723 187.027C467.432 186.43 467.151 185.742 467.008 185.206C466.799 184.421 465.614 180.169 465.018 178.319C464.516 176.767 464.389 175.043 464.297 173.783C464.267 173.379 464.241 173.014 464.204 172.709C464.129 172.077 463.976 171.654 463.828 171.245C463.729 170.973 463.627 170.692 463.559 170.379C463.516 170.184 463.495 169.945 463.492 169.644C463.065 169.797 462.558 169.951 461.952 170.113L461.629 170.199C461.574 170.234 461.509 170.284 461.419 170.353C461.158 170.551 460.864 170.727 460.591 170.872L460.549 171.271C460.757 171.542 461.087 171.952 461.578 172.507C463.055 174.18 463.639 177.322 463.525 178.467C463.5 178.832 463.81 179.968 464.02 180.278C464.316 180.678 464.758 181.557 465.695 183.464C466.146 184.383 466.612 185.332 466.845 185.739C467.118 186.217 467.278 186.6 467.379 186.89Z" fill="#93C6BF"/>
<path id="Vector_83" d="M469.849 121.296C469.929 121.296 470.007 121.298 470.084 121.303C471.39 121.377 474.673 121.265 476.837 122.984C479.001 124.702 481.015 126.121 481.836 128.475C482.657 130.828 482.433 133.817 482.134 135.423C481.836 137.029 481.015 137.44 480.903 138.897C480.791 140.354 480.344 141.96 480.344 141.96C480.344 141.96 480.829 142.072 480.717 142.595C480.605 143.118 479.747 143.977 479.747 143.977C479.747 143.977 478.814 147.377 478.329 148.124C477.844 148.871 476.314 150.925 475.046 151.299C475.046 151.299 475.979 153.391 475.904 153.914C475.829 154.437 475.232 155.707 475.083 156.08C474.934 156.454 474.085 157.687 474.197 158.135C474.309 158.583 474.673 160.096 474.603 160.628C474.533 161.161 474.729 161.469 474.729 161.833C474.729 162.197 474.953 162.421 474.603 162.898C474.253 163.374 473.582 164.046 473.582 164.046C473.582 164.046 473.666 165.167 473.889 166.232C474.113 167.296 474.561 169.678 474.813 170.182C475.065 170.686 475.848 171.723 475.876 175.589C475.904 179.455 475.848 183.882 475.848 184.442C475.848 185.003 475.904 185.731 475.904 185.815C475.904 185.899 475.652 186.095 476.24 186.291C476.827 186.487 477.163 186.628 477.723 186.936C478.282 187.244 478.226 187.356 478.842 187.496C479.458 187.636 480.857 187.636 481.752 187.72C482.647 187.804 484.298 188.421 485.138 188.813C485.977 189.205 486.425 189.485 486.621 189.765C486.817 190.046 486.789 190.438 486.173 190.438C486.173 190.438 485.949 190.746 485.334 190.746C484.718 190.746 483.739 190.522 483.571 190.522C483.403 190.522 483.123 190.41 483.123 190.41C483.123 190.41 483.055 190.934 482.323 190.934C482.243 190.934 482.156 190.928 482.06 190.914C481.081 190.774 480.017 190.746 479.29 190.718C478.562 190.69 476.855 190.606 476.1 190.522C475.489 190.454 474.823 190.331 474.294 190.331C474.169 190.331 474.052 190.338 473.945 190.354C473.386 190.438 473.33 190.898 472.994 190.934C472.882 190.946 472.786 190.95 472.707 190.95C472.55 190.95 472.462 190.934 472.462 190.934C472.462 190.934 473.722 191.39 474.673 191.615C475.624 191.839 476.492 192.315 477.051 192.735C477.611 193.155 478.087 193.323 478.422 193.408C478.758 193.492 479.374 193.604 479.402 194.024C479.427 194.404 479.109 194.852 478.325 194.852C478.241 194.852 478.153 194.847 478.059 194.836C477.079 194.724 476.184 194.64 476.184 194.64C476.184 194.64 476.324 195.117 475.764 195.201C475.64 195.219 475.488 195.228 475.312 195.228C474.695 195.228 473.797 195.117 472.882 194.92C471.753 194.678 469.85 194.358 469.106 194.358C469.076 194.358 469.047 194.359 469.021 194.36C468.945 194.363 468.878 194.364 468.819 194.364C468.715 194.364 468.637 194.361 468.579 194.361C468.382 194.361 468.414 194.398 468.433 194.724C468.456 195.118 468.346 195.474 467.641 195.474C467.494 195.474 467.321 195.459 467.118 195.425C465.943 195.229 465.579 194.836 464.152 194.64C462.725 194.444 460.906 194.472 460.543 194.164C460.179 193.856 459.983 192.903 460.179 192.455C460.179 192.455 459.144 192.007 458.696 191.39C458.248 190.774 457.157 189.289 456.261 187.664C455.366 186.039 453.799 183.994 453.799 183.994C453.799 183.994 453.324 185.927 452.344 186.712C451.365 187.496 449.686 188.365 447.671 188.393C447.644 188.393 447.617 188.393 447.589 188.393C445.612 188.393 443.979 187.405 442.075 186.88C440.179 186.357 437.879 185.618 436.975 185.618C436.959 185.618 436.942 185.618 436.927 185.619C436.059 185.647 435.248 185.759 434.492 186.319C433.737 186.88 433.625 187.272 432.981 187.58C432.542 187.79 431.699 188.118 430.977 188.118C430.641 188.118 430.331 188.047 430.099 187.86C430.099 187.86 429.512 189.793 428.141 189.962C427.079 190.092 424.422 190.222 422.836 190.222C422.375 190.222 422.004 190.211 421.789 190.186C420.838 190.074 419.299 189.345 418.403 188.196C417.508 187.048 417.116 186.74 416.669 186.684C416.51 186.664 416.415 186.654 416.355 186.654C416.247 186.654 416.257 186.685 416.221 186.74C416.165 186.824 415.941 188.196 415.158 188.281C414.652 188.335 413.118 188.366 411.93 188.366C411.279 188.366 410.731 188.356 410.513 188.337C409.897 188.281 409.925 188.14 409.925 188.14C409.925 188.14 409.839 188.158 409.715 188.158C409.37 188.158 408.731 188.022 408.834 186.992C408.834 186.992 407.995 186.544 408.107 185.675C408.218 184.806 408.554 184.414 409.17 183.35C409.785 182.285 412.472 176.598 413.059 175.925C413.599 175.308 414.729 173.413 416.211 173.413C416.342 173.413 416.476 173.428 416.613 173.46C417.662 173.705 417.946 173.895 418.012 174.004V170.126C418.012 170.126 416.193 167.941 416.893 166.568C417.592 165.195 418.347 165.139 418.487 164.635C418.627 164.13 418.543 163.598 418.851 163.318C419.159 163.038 419.131 161.889 419.355 161.413C419.579 160.937 420.558 159.084 421.146 158.385C421.733 157.687 423.412 154.605 425.343 153.344C427.273 152.083 431.89 150.094 435.332 149.674C435.332 149.674 441.096 148.329 442.859 147.853C444.621 147.377 446.44 146.62 446.916 146.424C447.384 146.231 449.422 144.602 450.261 144.602C450.275 144.602 450.288 144.602 450.302 144.603C450.761 144.635 451.023 144.729 451.29 144.729C451.496 144.729 451.705 144.673 452.008 144.491C452.708 144.071 453.24 142.362 454.499 141.885C455.758 141.409 456.541 141.269 456.541 141.269C456.541 141.269 455.534 137.823 455.646 136.926C455.758 136.03 455.478 133.649 457.912 133.452C457.912 133.452 458.416 128.129 461.046 125.692C463.676 123.254 466.801 121.863 466.801 121.863C466.941 121.828 468.569 121.296 469.849 121.296ZM469.784 189.663C469.791 189.663 469.798 189.663 469.804 189.663C470.177 189.644 470.14 189.046 470.028 188.71C469.916 188.374 469.897 187.477 469.674 187.197C469.45 186.917 468.797 185.628 468.573 184.788C468.349 183.947 467.155 179.67 466.558 177.821C465.962 175.972 465.962 173.768 465.812 172.517C465.663 171.265 465.271 170.63 465.141 170.033C465.01 169.435 465.346 166.727 465.327 166.596C465.326 166.584 465.318 166.578 465.305 166.578C465.173 166.578 464.498 167.142 464.04 167.567C463.537 168.034 461.839 168.464 461.429 168.576C461.018 168.688 460.981 168.65 460.44 169.061C459.899 169.472 459.078 169.79 459.078 169.79L458.873 171.714C458.873 171.714 459.227 172.293 460.365 173.581C461.503 174.87 461.988 177.56 461.914 178.307C461.839 179.054 462.287 180.66 462.716 181.239C463.145 181.818 464.842 185.498 465.439 186.544C466.036 187.589 465.906 187.944 466.129 188.112C466.353 188.281 466.857 188.374 467.622 188.766C468.373 189.152 469.395 189.663 469.784 189.663ZM469.849 118.054C468.772 118.054 467.509 118.273 465.987 118.723L465.945 118.736C465.788 118.779 465.634 118.834 465.485 118.9C465.337 118.966 461.836 120.542 458.847 123.312C456.536 125.453 455.482 128.853 455.02 131.058C454.21 131.567 453.563 132.292 453.12 133.205C452.542 134.397 452.481 135.588 452.445 136.3C452.44 136.39 452.437 136.472 452.431 136.542C452.395 136.825 452.316 137.456 452.666 139.171C451.575 139.776 450.866 140.67 450.383 141.361C450.343 141.36 450.302 141.359 450.261 141.359C448.814 141.359 447.559 142.127 445.942 143.212C445.805 143.304 445.629 143.423 445.519 143.493C444.173 144.044 442.994 144.458 442.015 144.722C440.487 145.135 435.694 146.259 434.757 146.479C430.617 147.031 425.658 149.267 423.574 150.628C421.57 151.936 420.016 154.278 419.087 155.677C418.936 155.904 418.73 156.213 418.653 156.315C417.649 157.519 416.436 160.008 416.425 160.032C416.127 160.666 416.032 161.293 415.957 161.796C415.956 161.797 415.956 161.797 415.956 161.798C415.679 162.267 415.537 162.734 415.457 163.116C415.027 163.529 414.487 164.154 414.008 165.094C413.005 167.062 413.621 169.083 414.384 170.508C412.619 171.18 411.461 172.696 410.826 173.527C410.747 173.631 410.678 173.723 410.619 173.794C410.06 174.433 409.437 175.612 407.582 179.334C407.095 180.312 406.543 181.421 406.367 181.725C406.257 181.916 406.156 182.083 406.065 182.235C405.577 183.047 405.072 183.887 404.895 185.26C404.729 186.542 405.129 187.671 405.778 188.53C406 189.263 406.371 189.775 406.642 190.075C407.29 190.793 408.164 191.24 409.143 191.365C409.607 191.51 410.009 191.547 410.219 191.566C410.348 191.577 410.686 191.608 411.93 191.608C412.037 191.608 414.547 191.607 415.503 191.505C415.849 191.467 416.286 191.374 416.746 191.16C418.2 192.496 420.039 193.244 421.411 193.406C421.754 193.446 422.194 193.464 422.836 193.464C424.573 193.464 427.342 193.326 428.534 193.18C429.944 193.007 431.049 192.248 431.849 191.296C432.913 191.145 433.852 190.758 434.379 190.505C435.261 190.083 435.78 189.548 436.091 189.229C436.229 189.086 436.299 189.015 436.42 188.925C436.435 188.918 436.542 188.881 436.94 188.863C437.45 188.928 438.94 189.356 439.841 189.616C440.306 189.75 440.772 189.884 441.215 190.006C441.714 190.143 442.236 190.339 442.789 190.547C444.148 191.057 445.689 191.636 447.589 191.636L447.716 191.635C450.445 191.597 452.543 190.512 453.707 189.727C454.599 191.265 455.58 192.614 456.023 193.223L456.077 193.298C456.36 193.687 456.696 194.023 457.041 194.307C457.286 195.221 457.77 196.062 458.451 196.639C459.487 197.517 460.726 197.608 462.293 197.722C462.786 197.758 463.295 197.795 463.712 197.853C464.156 197.914 464.367 197.989 464.751 198.125C465.179 198.278 465.766 198.486 466.586 198.623C466.963 198.686 467.308 198.717 467.641 198.717C468.939 198.717 469.817 198.24 470.374 197.756C470.951 197.846 471.623 197.966 472.204 198.091C473.345 198.336 474.449 198.471 475.312 198.471C475.655 198.471 475.96 198.45 476.245 198.407C476.674 198.343 477.076 198.215 477.442 198.03C477.524 198.039 477.607 198.048 477.691 198.058C477.904 198.082 478.118 198.095 478.325 198.095C479.612 198.095 480.767 197.618 481.576 196.752C482.237 196.045 482.614 195.118 482.64 194.166C483.124 194.134 483.566 194.028 483.963 193.866C484.381 193.93 484.87 193.988 485.334 193.988C486.096 193.988 486.822 193.811 487.446 193.487C488.367 193.194 489.12 192.577 489.566 191.72C490.191 190.519 490.079 189.057 489.274 187.906C488.637 186.996 487.708 186.435 486.507 185.875C486.481 185.862 483.902 184.665 482.054 184.492C481.642 184.453 481.185 184.431 480.744 184.41C480.446 184.396 479.992 184.374 479.711 184.348C479.596 184.275 479.454 184.189 479.284 184.095C479.217 184.058 479.153 184.023 479.09 183.989C479.091 183.873 479.092 183.739 479.093 183.589C479.107 181.972 479.136 178.609 479.114 175.566C479.087 171.819 478.424 170.058 477.769 168.842C477.621 168.333 477.337 166.932 477.211 166.31C477.154 166.028 477.102 165.771 477.058 165.564C477.028 165.418 477 165.269 476.976 165.124C477.058 165.022 477.138 164.919 477.212 164.819C478.24 163.42 478.061 162.115 477.96 161.583C477.941 161.248 477.886 160.974 477.843 160.779C477.872 160.385 477.857 159.693 477.562 158.309C477.588 158.264 477.612 158.222 477.632 158.186C477.811 157.87 477.965 157.597 478.09 157.284C478.116 157.219 478.16 157.12 478.212 157.001C478.653 155.986 478.999 155.148 479.11 154.372C479.159 154.031 479.228 153.544 478.943 152.492C479.914 151.539 480.654 150.491 481.044 149.891C481.219 149.621 481.727 148.839 482.658 145.59C483.311 144.803 483.722 144.027 483.883 143.275C484.025 142.611 483.991 141.955 483.811 141.357C483.941 140.71 484.072 139.923 484.132 139.146C484.137 139.077 484.139 139.058 484.345 138.67C484.639 138.113 485.085 137.271 485.318 136.016C485.528 134.885 486.119 130.92 484.893 127.406C483.833 124.365 481.583 122.595 479.407 120.883C479.222 120.738 479.036 120.592 478.849 120.443C476.108 118.266 472.484 118.143 470.742 118.084C470.563 118.078 470.404 118.073 470.269 118.065C470.132 118.058 469.992 118.054 469.849 118.054Z" fill="white"/>
</g>
</g>
</g>
</g>
</g>
<defs>
<clipPath id="clip0_103_3636">
<rect y="0.317871" width="558" height="315" rx="12" fill="white"/>
</clipPath>
<clipPath id="clip1_103_3636">
<rect width="771" height="488" fill="white" transform="translate(-115 -23.6821)"/>
</clipPath>
</defs>
</svg>
