<svg width="558" height="315" viewBox="0 0 558 315" fill="none" xmlns="http://www.w3.org/2000/svg">
<g id="video-cover">
<g id="Background">
<g clip-path="url(#clip0_2096_3346)">
<rect id="Rectangle 173" x="-7" y="-11" width="599" height="346" fill="#E2E2F2"/>
<g id="Frame 609" clip-path="url(#clip1_2096_3346)">
<g id="Group 722">
<path id="Vector" d="M15.8315 -26.1344C10.8539 -30.2418 5.46603 -34.3683 -0.811516 -36.2187C-7.21647 -38.1067 -13.5535 -36.936 -18.9352 -33.0002C-23.9866 -29.3058 -28.1475 -24.173 -32.1519 -19.4144C-36.4328 -14.3272 -40.4533 -9.02176 -44.1958 -3.52668C-48.5143 2.81414 -52.467 9.40821 -56.0445 16.194C-56.7657 17.5623 -55.9219 19.379 -54.5769 19.9697C-53.0744 20.6297 -51.5241 19.8758 -50.8002 18.5027C-45.0332 7.56335 -38.2233 -2.79553 -30.4751 -12.4353C-26.7773 -17.036 -22.9405 -21.6964 -18.6541 -25.767C-14.7743 -29.4515 -10.2059 -32.1587 -4.67878 -31.2739C1.80279 -30.2364 7.3413 -25.7138 12.2522 -21.6617C15.1028 -19.3094 18.6742 -23.7887 15.8315 -26.1344Z" fill="#F2D8EF"/>
<path id="Vector_2" d="M75.9476 32.8097C64.5067 26.7756 53.6078 19.7678 43.3701 11.8633C41.5897 10.4887 41.7722 7.98441 43.7472 6.89598C47.3184 4.92787 51.0384 3.2362 54.862 1.82606C55.2869 1.32015 55.888 0.943349 56.5696 0.748278C59.0836 0.0287168 61.5978 -0.690901 64.1119 -1.41044C66.1808 -2.00257 68.2843 -2.76522 70.4357 -2.99618C72.5549 -3.2238 74.7297 -2.96589 76.4977 -1.67892C78.6959 -0.0790775 79.5012 2.56881 80.1581 5.07567C82.4135 13.6815 82.3232 22.7407 80.2549 31.3671C79.7809 33.3439 77.4176 33.5851 75.9476 32.8097ZM73.1568 2.96251C72.8761 3.11634 72.5498 3.23034 72.1699 3.28702C64.5656 4.42082 57.2428 6.66635 50.3354 9.95528C58.3612 15.8878 66.7735 21.2786 75.5152 26.0958C76.4896 20.072 76.2875 13.868 74.9594 7.91188C74.6548 6.54529 74.4021 4.06415 73.2995 3.07434C73.2539 3.03331 73.2057 2.99732 73.1568 2.96251Z" fill="#BDBFE1"/>
<path id="Vector_3" d="M14.524 40.9598C9.95995 44.0197 3.9364 43.5401 -0.544489 40.5835C-5.27825 37.4603 -7.0237 31.7222 -5.27955 26.4143C-3.63113 21.3978 1.15717 17.2598 6.53638 17.0649C7.23796 17.0396 7.91555 17.2128 8.4674 17.5604C13.6603 17.3204 18.3278 21.8685 19.5261 27.1249C20.6647 32.1194 18.8917 38.0313 14.524 40.9598ZM13.9126 28.1536C13.6416 26.9466 12.886 25.4992 11.9822 24.666C11.0299 23.7882 9.06654 22.6432 7.74664 23.4027C6.66251 24.0266 5.38001 24.1423 4.39398 23.4516C2.14823 24.4988 0.416072 26.6047 -0.094779 29.0092C-0.730018 31.9995 0.595229 34.7261 3.13834 36.1635C5.79778 37.6667 9.09949 37.8845 11.5287 36.0593C13.8556 34.3111 14.5547 31.0128 13.9126 28.1536Z" fill="#E2E2F2"/>
<path id="Vector_4" d="M108.372 93.1617C108.117 90.6249 107.722 88.1032 107.214 85.6046C106.165 80.4355 104.675 75.357 102.944 70.3776C101.031 64.876 98.8253 59.4827 96.6157 54.0953C95.2182 50.688 89.8953 52.8081 91.2987 56.2296C94.8616 64.9168 98.5118 73.675 100.746 82.8188C101.877 87.4455 102.75 92.2264 102.918 96.9956C102.997 99.2427 102.493 101.113 101.023 102.828C99.5893 104.5 97.7999 105.892 96.0881 107.267C91.9278 110.609 87.4605 113.578 82.7409 116.07C81.3751 116.791 80.5305 118.254 81.1499 119.795C81.6807 121.116 83.5003 122.112 84.8759 121.386C89.5006 118.943 93.9371 116.173 98.0839 112.982C102.046 109.933 106.772 106.507 108.153 101.457C108.887 98.7706 108.648 95.9017 108.372 93.1617Z" fill="#CACAE8"/>
<path id="Vector_5" d="M74.4904 55.8313C70.0417 52.2013 64.2101 50.8486 58.6299 52.2499C53.8341 53.4543 49.9492 56.8047 46.6383 60.3214C43.4364 63.7224 40.5769 67.6033 36.7662 70.3673C33.3132 72.8719 29.1083 74.028 24.8488 73.6028C20.1429 73.1331 15.4971 71.0161 12.5242 67.2641C11.5642 66.0526 9.93104 65.5402 8.55726 66.4411C7.35226 67.2312 6.76908 69.1893 7.7339 70.4069C13.9068 78.1972 24.865 81.422 34.2898 78.1123C39.02 76.4511 42.7701 73.0815 46.1126 69.4528C49.2707 66.0244 52.17 62.1367 56.1291 59.5757C60.6277 56.6655 66.4329 56.6435 70.6689 60.0999C73.5208 62.4267 77.3501 58.1645 74.4904 55.8313Z" fill="#E1A3D8"/>
<path id="Vector_6" d="M136.021 107.919C132.375 107.379 131.529 113.043 135.181 113.584C138.828 114.125 139.674 108.46 136.021 107.919Z" fill="#E1A3D8"/>
<path id="Vector_7" d="M61.4062 112.264C58.7083 117.175 52.619 119.618 47.2009 118.395C41.7627 117.168 37.8609 112.685 36.9764 107.227C36.1074 101.866 38.7451 96.6695 43.6775 94.3752C48.1688 92.2862 53.4463 93.0639 57.0495 96.3368C57.2224 96.4106 57.392 96.4971 57.5557 96.5974C62.638 99.7087 64.2221 107.139 61.4062 112.264ZM54.3848 100.792C54.0377 100.612 53.713 100.366 53.4294 100.069C51.3488 97.8897 47.2261 98.0269 44.7133 99.8133C42.1823 101.613 41.4999 104.933 42.5406 107.902C43.6613 111.099 46.2958 113.28 49.7192 113.431C52.914 113.573 56.3218 111.777 57.2606 108.604C58.1029 105.757 57.0049 102.479 54.3848 100.792Z" fill="#E2E2F2"/>
<path id="Vector_8" d="M66.9396 156.295C69.9791 159.241 74.0498 163.281 78.6985 162.579C81.8841 162.098 84.5302 159.7 87.237 158.134C89.5351 156.805 92.1177 155.809 94.7504 155.39C95.0224 154.553 95.3039 153.73 95.5891 152.927C97.4467 147.697 99.8468 142.395 103.206 137.947C106.417 133.695 110.653 130.115 115.968 128.944C120.855 127.868 125.937 128.87 129.707 132.23C130.775 133.181 130.58 135.036 129.612 135.954C128.519 136.991 126.949 136.805 125.887 135.859C122.985 133.274 118.391 133.305 114.968 134.742C110.212 136.739 107.015 141.154 104.613 145.534C102.902 148.654 101.473 151.933 100.333 155.307C103.58 155.755 106.639 157.118 108.99 159.602C112.199 162.993 113.858 168.235 111.942 172.681C110.229 176.657 105.986 179.261 101.67 179.166C96.1531 179.046 92.9421 174.283 92.5337 169.176C92.3262 166.583 92.6123 163.896 93.1612 161.246C90.8205 162.091 88.6611 163.439 86.4822 164.815C82.4101 167.385 77.8875 168.858 73.1853 167.095C69.2617 165.625 66.0852 162.799 63.1191 159.924C60.6749 157.555 64.5146 153.944 66.9396 156.295ZM106.721 165.456C105.173 162.352 102.193 160.664 98.8409 160.406C98.4108 162.122 98.0527 163.863 97.8642 165.615C97.651 167.596 97.536 169.881 98.4808 171.708C99.8979 174.45 102.791 174.388 105.193 172.876C106.145 172.277 107.008 171.239 107.326 169.968C107.706 168.454 107.409 166.836 106.721 165.456Z" fill="#F2D8EF"/>
<path id="Vector_9" d="M31.7583 136.832C21.9791 131.612 12.3884 126.044 3.03176 120.1C-1.26124 117.372 -5.74546 114.73 -9.68511 111.498C-12.3094 109.346 -15.2236 106.394 -15.1498 102.749C-15.0936 99.9679 -13.2852 97.4845 -11.8117 95.2575C-10.0008 92.5205 -8.18877 89.7843 -6.3773 87.0476C-5.59262 85.8622 -5.60358 84.2918 -6.78378 83.3447C-7.81527 82.517 -9.69906 82.5595 -10.4878 83.7511C-12.2039 86.3436 -13.9201 88.9362 -15.6362 91.5288C-17.2569 93.9774 -18.9769 96.4302 -19.8287 99.2704C-21.3114 104.214 -19.508 109.004 -16.0935 112.676C-12.5986 116.434 -8.16144 119.111 -3.88855 121.883C1.25937 125.223 6.47741 128.456 11.7542 131.589C17.634 135.079 23.5954 138.431 29.628 141.651C30.8832 142.32 32.5599 141.538 33.1034 140.306C33.7142 138.921 33.0181 137.504 31.7583 136.832Z" fill="#E2BBDF"/>
<path id="Vector_10" d="M15.2747 281.862C9.06621 282.479 2.82533 282.64 -3.40295 282.246C-5.57023 282.11 -9.00596 282.37 -10.7305 280.761C-12.114 279.47 -12.245 277.123 -12.3637 275.359C-13.2047 262.841 -12.7557 250.102 -11.9374 237.597C-11.4669 230.406 -10.7748 223.232 -9.87785 216.083C-9.41966 212.431 -15.0848 211.578 -15.5447 215.243C-17.2779 229.059 -18.2006 242.956 -18.358 256.878C-18.4321 263.438 -18.581 270.129 -18.0034 276.67C-17.7723 279.286 -17.126 282.107 -15.3743 284.151C-13.3514 286.513 -10.4724 287.365 -7.47279 287.663C0.297222 288.436 8.20772 288.319 15.9713 287.548C19.6377 287.183 18.9502 281.496 15.2747 281.862Z" fill="#CACAE8"/>
<path id="Vector_11" d="M30.5784 338.864C19.1376 332.83 8.23862 325.822 -1.999 317.918C-3.77945 316.543 -3.59691 314.039 -1.62195 312.951C1.94926 310.983 5.66927 309.291 9.4929 307.881C9.91775 307.375 10.5188 306.998 11.2004 306.803C13.7145 306.083 16.2287 305.364 18.7427 304.644C20.8117 304.052 22.9152 303.289 25.0665 303.059C27.1858 302.831 29.3606 303.089 31.1286 304.376C33.3267 305.976 34.1321 308.623 34.789 311.13C37.0443 319.736 36.954 328.795 34.8857 337.422C34.4117 339.399 32.0484 339.64 30.5784 338.864ZM27.7876 309.017C27.507 309.171 27.1807 309.285 26.8007 309.342C19.1964 310.475 11.8736 312.721 4.96626 316.01C12.9921 321.942 21.4044 327.333 30.1461 332.15C31.1204 326.127 30.9184 319.923 29.5903 313.967C29.2856 312.6 29.033 310.119 27.9303 309.129C27.8848 309.088 27.8365 309.052 27.7876 309.017Z" fill="#BDBFE1"/>
<path id="Vector_12" d="M87.8325 263.626C86.5304 253.499 82.0093 243.559 73.636 237.376C69.0351 233.979 63.4981 231.763 57.7436 231.619C56.1973 231.58 54.7369 232.367 54.4903 234.031C54.2848 235.418 55.3467 237.245 56.9037 237.284C65.8335 237.508 73.6759 243.126 77.9199 250.827C82.5453 259.221 83.2105 269.176 82.0103 278.514C81.2101 284.741 79.6498 290.836 77.9252 296.862C77.499 298.351 78.9515 299.908 80.3387 300.114C82.0367 300.366 83.1646 299.195 83.592 297.701C86.7496 286.668 89.3151 275.158 87.8325 263.626Z" fill="#FFCCD7"/>
<path id="Vector_13" d="M56.6524 277.362C52.5399 280.352 46.7548 279.801 43.0637 276.37C41.4455 274.866 40.3384 272.917 39.8746 270.875C39.7596 270.617 39.6769 270.326 39.6377 269.999C38.954 264.292 43.0096 258.719 48.6968 257.723C53.546 256.874 58.6015 259.962 60.5193 264.386C62.4955 268.945 60.5888 274.5 56.6524 277.362ZM55.5311 269.047C55.9766 266.134 53.2947 263.414 50.5086 263.303C49.1792 263.251 47.9992 263.788 47.0986 264.637C47.0557 265.472 46.6387 266.284 45.9637 266.875C45.6551 267.145 45.4661 267.499 45.3638 267.89C45.2858 268.361 45.2696 268.837 45.3254 269.302C45.3278 269.323 45.3276 269.343 45.3297 269.364C45.4234 269.912 45.6149 270.438 45.8459 270.849C46.573 272.139 47.942 273.123 49.373 273.494C52.2215 274.231 55.0867 271.954 55.5311 269.047Z" fill="#E2BBDF"/>
<path id="Vector_14" d="M24.3646 236.746C20.4594 236.991 16.7576 234.453 14.8693 231.139C12.7639 227.445 12.7844 222.742 13.9839 218.76C15.4068 214.036 18.7268 209.901 19.0892 204.852C19.4136 200.332 17.7595 195.74 13.509 193.637C10.197 191.999 7.89651 197.246 11.1927 198.877C14.6453 200.585 13.3396 205.829 12.1542 208.613C10.1054 213.425 7.68607 217.817 7.49567 223.185C7.32029 228.133 8.65158 233.174 12.0329 236.903C15.3903 240.606 20.03 242.748 25.0613 242.432C28.7387 242.2 28.0399 236.515 24.3646 236.746Z" fill="#AEABDA"/>
<path id="Vector_15" d="M48.7711 161.795C48.3915 160.381 46.7281 159.264 45.2597 159.774C39.6461 161.721 34.4942 164.848 30.8183 169.586C26.9944 174.515 25.3342 180.877 26.6386 187.008C27.4051 190.612 32.9382 189.122 32.1718 185.519C30.1143 175.848 38.4221 168.194 46.7492 165.305C48.2101 164.799 49.1924 163.365 48.7711 161.795Z" fill="#E2E2F2"/>
<path id="Vector_16" d="M118.81 225.17C118.274 215.156 116.553 205.262 113.847 195.611C113.463 194.241 111.638 193.658 110.42 194.148C108.982 194.725 108.571 196.199 108.957 197.574C111.314 205.982 112.794 214.64 113.424 223.349C113.556 225.171 113.991 227.405 113.458 229.198C113.025 230.656 111.302 230.938 110.026 231.339C105.799 232.667 101.525 233.832 97.2102 234.839C95.8256 235.162 94.7299 236.253 94.915 237.774C95.0727 239.07 96.4575 240.394 97.8509 240.069C102.766 238.921 107.66 237.624 112.466 236.078C114.699 235.359 116.742 234.299 117.902 232.163C119.059 230.033 118.935 227.511 118.81 225.17Z" fill="#BDBFE1"/>
<path id="Vector_17" d="M68.495 218.31C66.8518 218.44 65.4318 217.581 63.9946 216.897C57.9762 214.033 51.9578 211.169 45.9394 208.305C44.4159 207.58 42.8345 206.909 42.4091 205.094C41.9899 203.305 43.2338 202.035 44.4801 200.99C47.0298 198.853 49.5966 196.736 52.18 194.639C57.2807 190.5 62.4479 186.443 67.6747 182.464C68.74 181.653 70.1191 181.42 71.1898 182.317C72.5651 182.235 74.0361 183.083 74.0859 184.855C74.2863 191.985 74.0524 199.124 73.3561 206.224C73.1961 207.856 73.0122 209.485 72.8044 211.111C72.6308 212.471 72.5756 213.949 72.1083 215.248C71.5238 216.872 70.2883 218.169 68.495 218.31ZM67.3268 212.67C67.3899 212.282 67.4319 211.89 67.4834 211.502C68.5123 203.761 68.9537 195.942 68.8781 188.133C65.5759 190.672 62.2969 193.24 59.0457 195.843C56.9813 197.496 54.9274 199.162 52.8842 200.841C51.9614 201.599 51.0409 202.36 50.1224 203.124C49.7713 203.416 49.421 203.708 49.0705 204.001C49.247 204.074 49.4109 204.145 49.5506 204.211C50.6593 204.739 51.768 205.266 52.8766 205.794C55.0147 206.811 57.1528 207.829 59.291 208.846C61.4291 209.863 63.5672 210.881 65.7053 211.898C66.2458 212.155 66.7863 212.413 67.3268 212.67Z" fill="#7B6EB9"/>
<path id="Vector_18" d="M6.23051 152.023C10.6713 153.674 13.8783 157.675 13.9205 162.464C13.933 163.895 12.4101 164.986 11.086 164.881C9.57767 164.762 8.68059 163.47 8.66811 162.048C8.64963 159.947 6.90839 158.153 5.12955 157.265C2.61018 156.009 -0.395885 156.392 -2.99718 157.158C-7.7448 158.555 -12.2222 161.507 -15.7822 165.011C-10.0918 171.383 -9.62938 181.619 -12.3698 189.539C-14.1259 194.614 -17.3904 199.105 -22.0256 201.888C-26.4702 204.557 -32.0569 205.279 -36.9597 203.524C-40.1537 202.381 -38.3582 197.428 -35.1618 198.572C-30.7722 200.142 -25.8763 198.749 -22.4423 195.731C-18.7689 192.503 -16.7841 187.627 -16.1866 182.854C-15.6407 178.495 -16.0759 173.729 -18.5889 169.995C-18.8045 169.674 -19.0383 169.36 -19.2868 169.055C-21.6515 172.184 -23.8662 175.541 -27.493 177.257C-31.2213 179.022 -36.6093 178.451 -39.0949 174.872C-42.3804 170.141 -38.844 164.193 -34.5954 161.539C-30.1857 158.785 -24.752 159.017 -20.2761 161.45C-20.1357 161.526 -20.0031 161.609 -19.8661 161.689C-16.6225 158.377 -12.7266 155.64 -8.52711 153.685C-4.02283 151.588 1.39046 150.223 6.23051 152.023ZM-24.5907 167.362C-24.1852 166.817 -23.7762 166.278 -23.3614 165.744C-24.8299 165.016 -26.4459 164.635 -28.0995 164.788C-29.9337 164.958 -31.6785 165.686 -33.0574 166.908C-34.2193 167.938 -35.3919 169.7 -35.0487 171.322C-34.9601 171.741 -34.7835 171.977 -34.3101 172.309C-33.9557 172.557 -33.1844 172.83 -32.8382 172.885C-31.3496 173.119 -30.1887 172.886 -28.8923 172.005C-27.1292 170.807 -25.8464 169.049 -24.5907 167.362Z" fill="#938CCB"/>
<g id="Group">
<path id="Vector_19" d="M463.917 84.1974C463.618 81.3071 463.342 78.4393 462.236 75.7265C460.397 71.2136 456.747 67.4988 452.372 65.4399C447.878 63.3246 442.769 62.7509 438.052 64.409C435.327 65.3667 432.799 66.8963 429.96 67.5178C428.004 67.9462 425.923 67.8782 423.975 67.4051C419.149 66.2327 415.183 62.9803 413.259 58.3401C412.666 56.9103 410.584 56.5861 409.383 57.2833C407.919 58.1336 407.763 59.7567 408.358 61.1908C412.164 70.3736 423.445 75.6751 432.815 72.6753C435.696 71.7528 438.322 70.1075 441.28 69.4214C443.223 68.9712 445.279 69.0697 447.205 69.5774C451.345 70.6689 455.062 73.5262 456.871 77.4938C458.021 80.0178 458.094 82.8956 458.409 85.6056C458.83 89.2329 459.606 92.4403 461.855 95.3839C462.792 96.6112 464.882 96.3902 465.864 95.4007C467.057 94.1987 466.8 92.5854 465.858 91.3532C464.361 89.3929 464.162 86.56 463.917 84.1974Z" fill="#938CCB"/>
<path id="Vector_20" d="M460.281 114.642C460.104 113.189 458.614 111.849 457.089 112.147C451.257 113.286 445.717 115.657 441.411 119.832C436.932 124.175 434.393 130.24 434.822 136.494C435.074 140.169 440.762 139.472 440.51 135.797C439.833 125.933 449.135 119.523 457.786 117.833C459.303 117.537 460.478 116.256 460.281 114.642Z" fill="#938CCB"/>
</g>
<path id="Vector_21" d="M535.338 33.4508C533.909 34.2393 533.552 35.9365 534.214 37.3413C537.87 45.1016 539.186 53.972 537.952 62.4635C536.662 71.3478 532.345 79.288 525.561 85.1613C520.934 89.1669 515.503 92.13 510.007 94.7602C506.68 96.3526 509.458 101.362 512.774 99.7749C522.931 94.9147 532.809 88.5098 538.474 78.4699C543.274 69.9631 544.835 60.0144 543.761 50.3762C543.149 44.8871 541.583 39.5689 539.23 34.575C538.57 33.1743 536.632 32.7376 535.338 33.4508Z" fill="#7B6EB9"/>
<path id="Vector_22" d="M456.337 258.496C457.575 257.431 457.576 255.697 456.64 254.457C451.472 247.61 448.366 239.198 447.833 230.634C447.276 221.673 449.874 213.018 455.311 205.879C459.019 201.011 463.727 196.999 468.568 193.299C471.499 191.059 467.753 186.724 464.832 188.957C455.887 195.794 447.53 204.086 444.043 215.073C441.088 224.383 441.598 234.44 444.625 243.654C446.348 248.902 448.971 253.786 452.297 258.192C453.23 259.428 455.217 259.459 456.337 258.496Z" fill="#CACAE8"/>
<path id="Vector_23" d="M627.792 64.5336C622.815 60.4262 617.427 56.2997 611.149 54.4493C604.744 52.5612 598.407 53.732 593.026 57.6678C587.974 61.3622 583.813 66.495 579.809 71.2536C575.528 76.3408 571.508 81.6462 567.765 87.1413C563.447 93.4821 559.494 100.076 555.916 106.862C555.195 108.23 556.039 110.047 557.384 110.638C558.886 111.298 560.437 110.544 561.161 109.171C566.928 98.2313 573.738 87.8724 581.486 78.2327C585.184 73.632 589.02 68.9716 593.307 64.901C597.187 61.2165 601.755 58.5093 607.282 59.3941C613.764 60.4316 619.302 64.9542 624.213 69.0063C627.064 71.3586 630.635 66.8792 627.792 64.5336Z" fill="#F2D8EF"/>
<path id="Vector_24" d="M502.442 -19.6526C502.469 -21.1165 501.18 -22.6499 499.628 -22.5671C493.695 -22.2504 487.878 -20.6726 483.033 -17.1372C477.993 -13.4596 474.636 -7.80615 474.19 -1.55389C473.929 2.12084 479.658 2.22167 479.92 -1.45261C480.622 -11.3152 490.725 -16.3697 499.527 -16.8394C501.071 -16.9218 502.412 -18.0274 502.442 -19.6526Z" fill="#E1A3D8"/>
<path id="Vector_25" d="M590.277 172.007C587.219 176.855 580.794 179.33 575.243 178.127C569.001 176.773 564.167 172.35 560.275 167.508C559.554 166.611 558.845 165.675 558.157 164.708C553.726 168.218 550.003 172.429 544.905 175.074C539.968 177.635 534.302 178.66 528.774 178.297C517.761 177.575 507.97 170.308 503.454 160.356C501.925 156.987 507.254 154.877 508.771 158.222C514.006 169.759 527.529 175.505 539.46 171.204C545.364 169.076 549.381 164.554 554.089 160.643C554.412 160.375 554.74 160.114 555.072 159.859C550.221 151.241 547.826 141.027 553.139 132.035C553.929 130.698 555.362 129.887 556.918 130.573C558.215 131.145 559.167 133.019 558.38 134.351C555.05 139.987 555.389 146.655 557.784 152.581C558.361 154.009 559.04 155.431 559.803 156.827C563.318 154.981 567.16 153.793 571.158 153.414C576.774 152.882 582.913 153.783 587.431 157.406C591.9 160.989 593.411 167.039 590.277 172.007ZM585.348 163.452C582.901 159.979 577.968 158.938 573.97 158.984C570.091 159.028 566.298 159.956 562.868 161.67C564.474 163.885 566.271 165.947 568.18 167.747C571.572 170.946 576.333 173.936 581.132 172.178C584.729 170.86 587.896 167.067 585.348 163.452Z" fill="#CACAE8"/>
<path id="Vector_26" d="M562.033 -49.4037C558.998 -50.9328 556.884 -46.1054 559.903 -44.5846C564.618 -42.2089 566.377 -36.0891 564.962 -31.2404C563.276 -25.4614 558.059 -21.4178 552.606 -19.4386C546.014 -17.046 539.097 -17.5115 532.22 -17.4487C525.637 -17.3886 519.258 -15.8188 514.848 -10.6194C510.552 -5.5546 509.075 1.55547 511.153 7.8632C512.214 11.0834 517.102 9.11444 516.043 5.90017C514.431 1.00624 516.15 -4.66408 519.79 -8.23027C524.536 -12.8811 531.733 -12.2333 537.846 -12.167C544.916 -12.0903 552.251 -12.8893 558.544 -16.353C564.37 -19.5599 569.18 -24.9333 570.437 -31.6106C571.752 -38.5886 568.443 -46.1742 562.033 -49.4037Z" fill="#F2D8EF"/>
<path id="Vector_27" d="M490.487 182.524C490.429 182.064 490.262 181.648 489.987 181.275C489.547 180.731 488.964 180.343 488.258 180.239L487.631 180.146C487.274 180.079 486.928 180.104 486.593 180.221C486.255 180.278 485.949 180.417 485.675 180.636C485.386 180.834 485.165 181.087 485.012 181.394C484.803 181.681 484.678 182.004 484.639 182.365C484.635 182.6 484.632 182.836 484.629 183.071C484.687 183.531 484.854 183.947 485.129 184.32C485.569 184.864 486.152 185.251 486.858 185.356L487.485 185.449C487.842 185.516 488.188 185.491 488.523 185.373C488.861 185.316 489.167 185.178 489.441 184.959C489.73 184.761 489.951 184.508 490.104 184.2C490.313 183.914 490.438 183.591 490.478 183.23C490.481 182.994 490.484 182.759 490.487 182.524Z" fill="#E2BBDF"/>
<path id="Vector_28" d="M504.602 65.5211C502.652 69.8382 498.441 72.7651 493.659 72.4817C492.23 72.3971 491.244 70.8039 491.439 69.4904C491.661 67.9941 493.011 67.1871 494.431 67.2713C496.529 67.3956 498.438 65.7808 499.444 64.0668C500.87 61.6394 500.691 58.615 500.104 55.9685C499.032 51.1383 496.391 46.4719 493.136 42.6831C486.389 47.9259 476.142 47.6916 468.425 44.4202C463.48 42.3239 459.22 38.7627 456.757 33.9504C454.396 29.336 454.055 23.7148 456.139 18.9439C457.496 15.8358 462.318 17.9632 460.959 21.0736C459.094 25.3451 460.152 30.323 462.93 33.9531C465.902 37.8363 470.634 40.1473 475.356 41.0675C479.669 41.9081 484.455 41.7978 488.352 39.5451C488.687 39.3518 489.016 39.1399 489.338 38.9129C486.376 36.3417 483.176 33.9047 481.709 30.1706C480.202 26.3321 481.138 20.9969 484.878 18.7609C489.823 15.8054 495.518 19.7366 497.878 24.1546C500.327 28.74 499.727 34.1438 496.995 38.4428C496.909 38.5776 496.817 38.7042 496.728 38.8355C499.813 42.2957 502.28 46.3674 503.945 50.6889C505.732 55.3239 506.726 60.8159 504.602 65.5211ZM491.387 33.7377C491.903 34.1792 492.414 34.6237 492.918 35.0737C493.745 33.6585 494.235 32.0726 494.195 30.4129C494.15 28.5719 493.541 26.7821 492.416 25.3239C491.467 24.095 489.789 22.8057 488.146 23.0378C487.722 23.0977 487.475 23.2578 487.111 23.7074C486.839 24.044 486.514 24.7947 486.436 25.1363C486.101 26.6052 486.255 27.7789 487.046 29.1318C488.122 30.9717 489.789 32.3707 491.387 33.7377Z" fill="#AEABDA"/>
<path id="Vector_29" d="M527.916 205.105C526.826 209.814 522.488 213.556 517.643 213.909C512.511 214.283 507.725 210.935 505.83 206.229C503.846 201.304 505.194 195.386 509.484 192.147C513.544 189.082 519.636 189.143 522.98 193.181C526.753 195.719 528.955 200.614 527.916 205.105ZM518.545 196.828C517.852 196.58 517.374 195.991 517.146 195.311C514.831 194.63 511.916 196.377 510.86 198.489C509.119 201.971 510.834 206.516 514.336 208.125C517.439 209.55 521.34 207.904 522.561 204.703C523.795 201.467 521.635 197.936 518.545 196.828Z" fill="#7B6EB9"/>
<path id="Vector_30" d="M544.571 246.779C540.949 242.604 535.706 240.044 530.201 239.649C525.08 239.282 520.329 241.243 515.628 242.972C510.966 244.688 506.419 245.875 501.578 244.091C496.98 242.396 492.94 238.674 490.334 234.575C487.586 230.254 486.014 225.036 487.3 219.955C488.129 216.678 483.083 215.158 482.25 218.452C479.543 229.152 485.702 240.128 494.381 246.174C499.25 249.566 505.01 251.033 510.864 249.896C515.857 248.925 520.372 246.376 525.333 245.286C531.054 244.029 536.882 245.952 540.724 250.379C542.952 252.947 546.788 249.335 544.571 246.779Z" fill="#E1A3D8"/>
<path id="Vector_31" d="M566.816 223.12C565.401 224.839 562.436 225.309 560.408 225.898C556.279 227.098 552.074 227.998 547.817 228.577C546.372 230.351 542.73 229.354 543.142 226.526C543.939 221.052 545.572 215.58 548.154 210.674C549.987 207.191 553.731 203.313 558.024 205.423C560.064 206.426 561.286 208.416 562.477 210.261C563.766 212.258 564.963 214.313 566.091 216.405C567.208 218.476 568.597 220.954 566.816 223.12ZM561.69 219.993C561.807 219.953 561.942 219.891 562.082 219.828C561.696 218.994 561.089 218.148 560.721 217.49C559.941 216.101 559.11 214.738 558.245 213.399C557.629 212.445 556.87 210.731 555.811 210.188C555.442 209.999 554.978 210.274 554.548 210.661C552.606 212.408 551.637 215.459 550.747 217.827C550.102 219.541 549.582 221.287 549.162 223.059C551.158 222.742 553.142 222.355 555.111 221.89C556.545 221.551 557.966 221.161 559.376 220.733C560.151 220.498 560.923 220.251 561.69 219.993Z" fill="#AEABDA"/>
<path id="Vector_32" d="M460.071 156.257C460.672 154.114 463.196 152.488 464.814 151.131C468.109 148.369 471.593 145.851 475.256 143.604C475.862 141.399 479.597 140.842 480.361 143.597C481.84 148.927 482.553 154.593 482.169 160.123C481.896 164.049 480.035 169.108 475.255 168.907C472.983 168.812 471.062 167.483 469.228 166.275C467.243 164.968 465.319 163.569 463.443 162.11C461.586 160.664 459.315 158.957 460.071 156.257ZM466.023 157.053C465.932 157.136 465.833 157.247 465.731 157.361C466.42 157.969 467.317 158.499 467.919 158.951C469.193 159.909 470.504 160.821 471.835 161.697C472.783 162.322 474.17 163.585 475.357 163.654C475.772 163.678 476.085 163.24 476.323 162.712C477.396 160.331 477.051 157.148 476.911 154.623C476.809 152.794 476.581 150.986 476.25 149.196C474.552 150.291 472.892 151.445 471.278 152.664C470.103 153.552 468.96 154.482 467.842 155.442C467.228 155.97 466.621 156.507 466.023 157.053Z" fill="#B9D5EA"/>
<path id="Vector_33" d="M522.882 130.634C517.815 132.756 512.748 134.878 507.682 137C505.277 138.007 502.753 139.206 500.055 138.016C497.871 137.053 496.888 134.966 496.403 132.973C495.912 130.956 495.688 128.9 495.184 126.881C494.65 124.742 493.963 122.638 493.145 120.565C491.537 116.487 489.451 112.553 486.878 108.87C486.019 107.64 486.072 106.075 487.424 105.186C488.611 104.406 490.695 104.571 491.552 105.798C496.49 112.865 499.931 120.632 501.568 128.773C501.863 130.236 502.245 131.86 502.544 133.219C502.687 133.103 503.229 132.969 503.37 132.913C504.487 132.47 505.585 131.988 506.69 131.525L520.602 125.699C524.004 124.274 526.253 129.223 522.882 130.634ZM502.668 133.355C502.625 133.346 502.595 133.336 502.571 133.326C502.715 133.871 502.832 133.39 502.668 133.355Z" fill="#FFCCD7"/>
<path id="Vector_34" d="M567.179 339.46C562.123 341.831 555.612 340.465 551.733 336.539C547.749 332.508 546.612 325.911 549.278 320.841C551.631 316.366 556.53 313.567 561.53 313.741C562.053 313.343 562.749 313.143 563.601 313.291C569.72 314.355 574.992 319.676 575.27 326.03C575.517 331.667 572.3 337.059 567.179 339.46ZM569.382 325.096C568.762 322.542 566.81 320.416 564.403 319.433C563.931 319.674 563.349 319.765 562.67 319.632C558.968 318.903 554.943 320.941 553.86 324.695C552.932 327.913 554.115 331.515 556.877 333.427C559.511 335.25 563.309 335.467 565.967 333.592C568.6 331.733 570.157 328.292 569.382 325.096Z" fill="#E1A3D8"/>
<path id="Vector_35" d="M457.071 286.402C457.098 284.938 455.809 283.405 454.257 283.488C448.324 283.804 442.507 285.382 437.662 288.918C432.622 292.595 429.264 298.249 428.819 304.501C428.558 308.176 434.287 308.276 434.549 304.602C435.251 294.739 445.354 289.685 454.156 289.215C455.7 289.133 457.041 288.027 457.071 286.402Z" fill="#E1A3D8"/>
<path id="Vector_36" d="M516.662 256.651C513.627 255.122 511.513 259.949 514.532 261.47C519.247 263.846 521.006 269.966 519.591 274.814C517.905 280.593 512.688 284.637 507.234 286.616C500.642 289.009 493.726 288.543 486.849 288.606C480.266 288.666 473.887 290.236 469.477 295.435C465.181 300.5 463.704 307.61 465.782 313.918C466.843 317.138 471.731 315.169 470.672 311.955C469.06 307.061 470.779 301.391 474.419 297.824C479.165 293.174 486.362 293.821 492.475 293.888C499.545 293.964 506.88 293.165 513.173 289.702C518.999 286.495 523.809 281.121 525.066 274.444C526.381 267.466 523.072 259.88 516.662 256.651Z" fill="#F2D8EF"/>
<path id="Vector_37" d="M552.87 270.729C549.517 270.232 548.739 275.441 552.098 275.939C555.452 276.436 556.23 271.226 552.87 270.729Z" fill="#AEABDA"/>
<path id="Vector_38" d="M537.384 309.167C534.341 301.636 523.743 300.104 516.722 300.401C515.3 300.462 514.265 302.005 514.427 303.337C514.61 304.842 515.936 305.692 517.363 305.631C520.788 305.486 524.407 305.926 527.608 307.199C529.604 307.993 532.12 309.35 532.673 311.63C533.023 313.073 532.46 314.551 531.898 315.86C531.126 317.66 530.238 319.415 529.399 321.184C527.67 324.829 525.941 328.475 524.212 332.12C522.756 335.19 527.581 337.309 529.032 334.25C531.062 329.971 533.092 325.691 535.121 321.412C536.933 317.592 539.109 313.434 537.384 309.167Z" fill="#BDBFE1"/>
<g id="Group_2">
<path id="Vector_39" d="M157.937 38.8615C157.638 35.9712 157.362 33.1034 156.256 30.3906C154.416 25.8777 150.766 22.1629 146.392 20.1039C141.897 17.9886 136.788 17.4149 132.071 19.0731C129.347 20.0307 126.818 21.5603 123.98 22.1818C122.023 22.6103 119.942 22.5423 117.994 22.0691C113.168 20.8967 109.202 17.6444 107.279 13.0042C106.686 11.5744 104.604 11.2502 103.403 11.9474C101.938 12.7977 101.783 14.4207 102.377 15.8549C106.184 25.0377 117.464 30.3392 126.834 27.3394C129.716 26.4169 132.341 24.7715 135.3 24.0855C137.242 23.6352 139.298 23.7337 141.225 24.2414C145.365 25.333 149.082 28.1902 150.89 32.1578C152.041 34.6819 152.113 37.5596 152.428 40.2697C152.849 43.8969 153.626 47.1044 155.874 50.0479C156.812 51.2752 158.901 51.0542 159.883 50.0648C161.076 48.8628 160.819 47.2494 159.878 46.0173C158.38 44.057 158.181 41.224 157.937 38.8615Z" fill="#938CCB"/>
<path id="Vector_40" d="M154.301 69.3062C154.124 67.8528 152.634 66.5136 151.109 66.8114C145.277 67.9501 139.736 70.3215 135.43 74.4963C130.951 78.8389 128.413 84.9044 128.842 91.1578C129.094 94.8331 134.782 94.1363 134.53 90.4613C133.853 80.5969 143.154 74.1866 151.805 72.4975C153.323 72.2012 154.497 70.9198 154.301 69.3062Z" fill="#938CCB"/>
</g>
<path id="Vector_41" d="M229.356 -11.8812C227.926 -11.0927 227.57 -9.39554 228.232 -7.99072C231.887 -0.230448 233.204 8.64 231.97 17.1315C230.679 26.0158 226.363 33.9559 219.579 39.8293C214.952 43.8349 209.521 46.798 204.025 49.4282C200.697 51.0206 203.475 56.03 206.792 54.4429C216.948 49.5827 226.827 43.1777 232.492 33.1379C237.291 24.6311 238.853 14.6824 237.779 5.04416C237.167 -0.444976 235.6 -5.76312 233.248 -10.757C232.588 -12.1577 230.649 -12.5944 229.356 -11.8812Z" fill="#7B6EB9"/>
<path id="Vector_42" d="M150.354 213.164C151.592 212.099 151.593 210.365 150.658 209.125C145.489 202.278 142.383 193.866 141.851 185.302C141.294 176.341 143.892 167.686 149.329 160.547C153.037 155.679 157.745 151.667 162.586 147.967C165.517 145.727 161.771 141.392 158.85 143.625C149.905 150.462 141.548 158.754 138.061 169.741C135.106 179.051 135.616 189.108 138.642 198.322C140.366 203.569 142.989 208.454 146.315 212.86C147.248 214.096 149.235 214.127 150.354 213.164Z" fill="#CACAE8"/>
<path id="Vector_43" d="M366.628 21.1429C360.42 21.7599 354.179 21.921 347.951 21.5277C345.783 21.3909 342.348 21.6515 340.623 20.0424C339.24 18.7516 339.108 16.404 338.99 14.6399C338.149 2.1227 338.598 -10.617 339.416 -23.1221C339.887 -30.3124 340.579 -37.4863 341.476 -44.6359C341.934 -48.2879 336.269 -49.1405 335.809 -45.4755C334.076 -31.6599 333.153 -17.7631 332.996 -3.84075C332.921 2.71901 332.773 9.41031 333.35 15.951C333.581 18.5677 334.227 21.3879 335.979 23.4327C338.002 25.7942 340.881 26.6457 343.881 26.9442C351.651 27.7173 359.561 27.6006 367.325 26.829C370.991 26.4646 370.304 20.7775 366.628 21.1429Z" fill="#CACAE8"/>
<path id="Vector_44" d="M321.812 19.2016C316.834 15.0942 311.447 10.9677 305.169 9.11724C298.764 7.22922 292.427 8.39997 287.045 12.3358C281.994 16.0302 277.833 21.163 273.829 25.9216C269.548 31.0087 265.527 36.3142 261.785 41.8093C257.466 48.1501 253.513 54.7441 249.936 61.53C249.215 62.8982 250.059 64.7149 251.404 65.3057C252.906 65.9656 254.456 65.2117 255.18 63.8386C260.947 52.8993 267.757 42.5404 275.505 32.9007C279.203 28.3 283.04 23.6395 287.326 19.569C291.206 15.8845 295.775 13.1772 301.302 14.0621C307.783 15.0996 313.322 19.6221 318.233 23.6742C321.083 26.0265 324.655 21.5472 321.812 19.2016Z" fill="#F2D8EF"/>
<path id="Vector_45" d="M381.93 78.1457C370.489 72.1115 359.59 65.1037 349.353 57.1992C347.572 55.8246 347.755 53.3203 349.73 52.2319C353.301 50.2638 357.021 48.5721 360.844 47.162C361.269 46.6561 361.87 46.2793 362.552 46.0842C365.066 45.3647 367.58 44.645 370.094 43.9255C372.163 43.3334 374.267 42.5707 376.418 42.3398C378.537 42.1121 380.712 42.37 382.48 43.657C384.678 45.2569 385.484 47.9047 386.141 50.4116C388.396 59.0175 388.306 68.0767 386.237 76.703C385.763 78.6799 383.4 78.921 381.93 78.1457ZM379.139 48.2984C378.859 48.4523 378.532 48.5663 378.152 48.623C370.548 49.7568 363.225 52.0023 356.318 55.2912C364.344 61.2237 372.756 66.6145 381.498 71.4318C382.472 65.4079 382.27 59.2039 380.942 53.2478C380.637 51.8812 380.385 49.4001 379.282 48.4103C379.236 48.3692 379.188 48.3333 379.139 48.2984Z" fill="#BDBFE1"/>
<path id="Vector_46" d="M320.504 86.2957C315.94 89.3556 309.917 88.876 305.436 85.9195C300.702 82.7963 298.957 77.0581 300.701 71.7502C302.349 66.7337 307.138 62.5957 312.517 62.4009C313.218 62.3755 313.896 62.5487 314.448 62.8963C319.641 62.6563 324.308 67.2045 325.507 72.4608C326.645 77.4553 324.872 83.3673 320.504 86.2957ZM319.893 73.4895C319.622 72.2825 318.866 70.8351 317.963 70.002C317.01 69.1242 315.047 67.9791 313.727 68.7386C312.643 69.3625 311.36 69.4782 310.374 68.7875C308.129 69.8348 306.397 71.9406 305.886 74.3452C305.25 77.3354 306.576 80.0621 309.119 81.4994C311.778 83.0026 315.08 83.2204 317.509 81.3952C319.836 79.647 320.535 76.3487 319.893 73.4895Z" fill="#AEABDA"/>
<path id="Vector_47" d="M439.186 2.90773C437.884 -7.21963 433.363 -17.1594 424.99 -23.3423C420.389 -26.7396 414.852 -28.9555 409.097 -29.1002C407.551 -29.139 406.09 -28.3513 405.844 -26.6874C405.638 -25.3011 406.7 -23.4742 408.257 -23.435C417.187 -23.2104 425.029 -17.5929 429.273 -9.89162C433.899 -1.49786 434.564 8.4574 433.364 17.7955C432.564 24.0218 431.003 30.1168 429.279 36.1428C428.852 37.6323 430.305 39.1897 431.692 39.3952C433.39 39.6468 434.518 38.4763 434.946 36.9824C438.103 25.949 440.669 14.4391 439.186 2.90773Z" fill="#E1A3D8"/>
<path id="Vector_48" d="M408.004 16.6433C403.891 19.6337 398.106 19.0824 394.415 15.6512C392.797 14.1469 391.69 12.1984 391.226 10.1563C391.111 9.89781 391.028 9.60695 390.989 9.28014C390.306 3.57364 394.361 -2.00001 400.048 -2.99589C404.898 -3.84513 409.953 -0.757037 411.871 3.66705C413.847 8.22576 411.94 13.781 408.004 16.6433ZM406.883 8.32837C407.328 5.41545 404.646 2.69489 401.86 2.58471C400.531 2.53208 399.351 3.06893 398.45 3.9187C398.407 4.75296 397.99 5.56513 397.315 6.15619C397.007 6.42637 396.818 6.78029 396.715 7.17136C396.637 7.64196 396.621 8.11803 396.677 8.58369C396.679 8.60471 396.679 8.62416 396.681 8.64497C396.775 9.19288 396.966 9.71964 397.198 10.1299C397.925 11.4207 399.294 12.4042 400.725 12.7748C403.573 13.5128 406.438 11.2354 406.883 8.32837Z" fill="#E2BBDF"/>
<path id="Vector_49" d="M414.355 138.494C414.099 135.957 413.704 133.435 413.197 130.937C412.147 125.767 410.658 120.689 408.926 115.71C407.013 110.208 404.808 104.815 402.598 99.4273C401.201 96.02 395.878 98.1402 397.281 101.562C400.844 110.249 404.494 119.007 406.729 128.151C407.86 132.777 408.732 137.558 408.9 142.328C408.98 144.575 408.476 146.445 407.006 148.16C405.572 149.832 403.782 151.224 402.07 152.599C397.91 155.941 393.443 158.91 388.723 161.402C387.357 162.123 386.513 163.586 387.132 165.127C387.663 166.448 389.483 167.444 390.858 166.718C395.483 164.275 399.92 161.505 404.066 158.314C408.029 155.265 412.754 151.839 414.135 146.789C414.87 144.103 414.63 141.234 414.355 138.494Z" fill="#CACAE8"/>
<path id="Vector_50" d="M380.473 101.163C376.024 97.5334 370.193 96.1807 364.612 97.5819C359.816 98.7863 355.932 102.137 352.621 105.653C349.419 109.054 346.559 112.935 342.749 115.699C339.296 118.204 335.091 119.36 330.831 118.935C326.125 118.465 321.48 116.348 318.507 112.596C317.547 111.385 315.913 110.872 314.54 111.773C313.335 112.563 312.752 114.521 313.716 115.739C319.889 123.529 330.847 126.754 340.272 123.444C345.002 121.783 348.753 118.413 352.095 114.785C355.253 111.356 358.152 107.469 362.112 104.908C366.61 101.998 372.415 101.975 376.651 105.432C379.503 107.759 383.332 103.497 380.473 101.163Z" fill="#E1A3D8"/>
<path id="Vector_51" d="M442.002 153.251C438.355 152.711 437.509 158.375 441.162 158.916C444.808 159.457 445.654 153.792 442.002 153.251Z" fill="#CACAE8"/>
<path id="Vector_52" d="M284.295 126.671C281.237 131.519 274.811 133.994 269.26 132.791C263.019 131.437 258.184 127.014 254.293 122.172C253.572 121.275 252.862 120.34 252.174 119.372C247.744 122.882 244.02 127.093 238.922 129.738C233.985 132.299 228.32 133.324 222.791 132.961C211.778 132.239 201.987 124.972 197.472 115.02C195.943 111.651 201.271 109.541 202.789 112.886C208.024 124.423 221.546 130.17 233.478 125.868C239.381 123.74 243.398 119.218 248.107 115.307C248.429 115.039 248.757 114.778 249.089 114.523C244.239 105.905 241.843 95.6913 247.157 86.6991C247.947 85.3621 249.38 84.5515 250.936 85.2371C252.232 85.8089 253.185 87.6827 252.398 89.0148C249.067 94.6513 249.406 101.319 251.801 107.245C252.378 108.673 253.058 110.095 253.821 111.491C257.335 109.645 261.177 108.457 265.175 108.078C270.792 107.547 276.931 108.447 281.448 112.07C285.917 115.653 287.428 121.703 284.295 126.671ZM279.366 118.116C276.919 114.643 271.986 113.602 267.988 113.648C264.108 113.693 260.316 114.62 256.886 116.334C258.492 118.549 260.289 120.611 262.197 122.411C265.59 125.61 270.351 128.601 275.149 126.842C278.747 125.524 281.913 121.731 279.366 118.116Z" fill="#CACAE8"/>
<path id="Vector_53" d="M367.387 157.6C364.689 162.511 358.599 164.954 353.181 163.731C347.743 162.504 343.841 158.021 342.957 152.563C342.088 147.202 344.726 142.005 349.658 139.711C354.149 137.622 359.427 138.4 363.03 141.673C363.203 141.747 363.373 141.833 363.536 141.933C368.618 145.045 370.203 152.474 367.387 157.6ZM360.365 146.128C360.018 145.948 359.694 145.702 359.41 145.405C357.329 143.226 353.207 143.363 350.694 145.149C348.163 146.949 347.48 150.269 348.521 153.238C349.642 156.435 352.276 158.616 355.7 158.767C358.894 158.909 362.302 157.113 363.241 153.94C364.083 151.093 362.985 147.815 360.365 146.128Z" fill="#E2E2F2"/>
<path id="Vector_54" d="M282.274 83.1642C282.216 82.7045 282.049 82.2882 281.774 81.9153C281.334 81.3718 280.751 80.9838 280.045 80.8792L279.418 80.7863C279.061 80.7196 278.715 80.7448 278.381 80.8619C278.042 80.9191 277.736 81.0573 277.462 81.2763C277.173 81.4747 276.952 81.7275 276.799 82.0349C276.59 82.3213 276.465 82.6447 276.426 83.0054L276.416 83.7118C276.474 84.1715 276.641 84.5878 276.916 84.9607C277.356 85.5041 277.939 85.8921 278.645 85.9967L279.272 86.0897C279.629 86.1563 279.975 86.1311 280.31 86.014C280.648 85.9568 280.955 85.8187 281.228 85.5996C281.517 85.4013 281.738 85.1484 281.891 84.841C282.101 84.5547 282.225 84.2312 282.265 83.8705C282.268 83.6351 282.271 83.3996 282.274 83.1642Z" fill="#B9D5EA"/>
<path id="Vector_55" d="M260.788 7.56263C260.73 7.10292 260.563 6.68662 260.288 6.31372C259.848 5.77025 259.265 5.38227 258.559 5.27765L257.931 5.18474C257.575 5.11805 257.229 5.14325 256.894 5.26035C256.556 5.31755 256.249 5.45568 255.976 5.67477C255.687 5.87311 255.466 6.12597 255.313 6.43336C255.103 6.71965 254.979 7.04316 254.939 7.40387C254.936 7.6393 254.933 7.87476 254.93 8.11023C254.988 8.56989 255.155 8.98618 255.429 9.35911C255.87 9.90258 256.453 10.2906 257.159 10.3952L257.786 10.4881C258.143 10.5548 258.489 10.5296 258.823 10.4125C259.162 10.3553 259.468 10.2171 259.742 9.99806C260.031 9.79975 260.252 9.54689 260.405 9.23947C260.614 8.95317 260.739 8.62967 260.778 8.26899C260.782 8.03353 260.785 7.79807 260.788 7.56263Z" fill="#B9D5EA"/>
<path id="Vector_56" d="M184.505 137.192C184.446 136.732 184.28 136.316 184.005 135.943C183.564 135.399 182.981 135.011 182.275 134.907L181.648 134.814C181.291 134.747 180.946 134.772 180.611 134.889C180.272 134.946 179.966 135.085 179.692 135.304C179.403 135.502 179.182 135.755 179.029 136.062C178.82 136.349 178.696 136.672 178.656 137.033C178.653 137.268 178.65 137.504 178.646 137.739C178.705 138.199 178.871 138.615 179.146 138.988C179.587 139.531 180.17 139.919 180.876 140.024L181.503 140.117C181.86 140.184 182.206 140.158 182.54 140.041C182.879 139.984 183.185 139.846 183.459 139.627C183.748 139.429 183.969 139.176 184.122 138.868C184.331 138.582 184.455 138.259 184.495 137.898C184.498 137.662 184.502 137.427 184.505 137.192Z" fill="#E2BBDF"/>
<path id="Vector_57" d="M372.92 201.627C375.96 204.573 380.03 208.613 384.679 207.911C387.865 207.43 390.511 205.032 393.218 203.466C395.516 202.137 398.098 201.141 400.731 200.722C401.003 199.885 401.284 199.062 401.57 198.259C403.427 193.029 405.827 187.727 409.186 183.279C412.398 179.027 416.633 175.447 421.949 174.276C426.836 173.2 431.917 174.202 435.688 177.562C436.755 178.513 436.56 180.369 435.593 181.286C434.499 182.323 432.929 182.137 431.868 181.191C428.966 178.606 424.372 178.637 420.948 180.074C416.192 182.071 412.995 186.486 410.594 190.866C408.882 193.986 407.454 197.265 406.313 200.639C409.561 201.087 412.62 202.45 414.97 204.934C418.179 208.325 419.838 213.567 417.923 218.013C416.21 221.989 411.967 224.593 407.65 224.498C402.134 224.378 398.923 219.615 398.514 214.508C398.307 211.915 398.593 209.228 399.142 206.578C396.801 207.423 394.642 208.771 392.463 210.147C388.391 212.717 383.868 214.19 379.166 212.428C375.242 210.957 372.066 208.131 369.1 205.256C366.655 202.887 370.495 199.276 372.92 201.627ZM412.701 210.788C411.154 207.684 408.174 205.996 404.821 205.738C404.391 207.454 404.033 209.195 403.845 210.947C403.632 212.928 403.517 215.213 404.461 217.041C405.878 219.782 408.771 219.721 411.173 218.209C412.125 217.609 412.988 216.571 413.307 215.3C413.686 213.786 413.389 212.168 412.701 210.788Z" fill="#F2D8EF"/>
<path id="Vector_58" d="M198.621 20.1852C196.672 24.5023 192.46 27.4292 187.678 27.1458C186.25 27.0611 185.264 25.468 185.459 24.1545C185.68 22.6582 187.03 21.8512 188.451 21.9353C190.549 22.0597 192.457 20.4448 193.464 18.7309C194.889 16.3034 194.711 13.2791 194.124 10.6326C193.052 5.80235 190.41 1.13601 187.155 -2.65281C180.409 2.58991 170.162 2.35564 162.445 -0.915758C157.499 -3.01207 153.239 -6.57329 150.777 -11.3855C148.415 -15.9999 148.075 -21.6211 150.158 -26.3921C151.516 -29.5001 156.337 -27.3727 154.979 -24.2623C153.113 -19.9908 154.171 -15.013 156.949 -11.3828C159.921 -7.49961 164.653 -5.18869 169.375 -4.26844C173.688 -3.42787 178.474 -3.53815 182.372 -5.79083C182.706 -5.98412 183.035 -6.196 183.357 -6.42306C180.396 -8.99426 177.196 -11.4313 175.729 -15.1653C174.221 -19.0038 175.157 -24.339 178.898 -26.575C183.842 -29.5306 189.538 -25.5993 191.897 -21.1813C194.347 -16.596 193.746 -11.1922 191.014 -6.89316C190.928 -6.7583 190.836 -6.63169 190.748 -6.50048C193.832 -3.04022 196.299 1.03148 197.965 5.35292C199.751 9.98794 200.746 15.4799 198.621 20.1852ZM185.407 -11.5982C185.923 -11.1567 186.433 -10.7122 186.938 -10.2622C187.765 -11.6774 188.255 -13.2633 188.214 -14.923C188.169 -16.764 187.561 -18.5538 186.435 -20.0121C185.486 -21.241 183.808 -22.5302 182.166 -22.2982C181.741 -22.2382 181.494 -22.0781 181.131 -21.6285C180.858 -21.2919 180.533 -20.5412 180.456 -20.1996C180.121 -18.7307 180.275 -17.557 181.066 -16.2041C182.142 -14.3642 183.809 -12.9652 185.407 -11.5982Z" fill="#AEABDA"/>
<path id="Vector_59" d="M221.936 159.773C220.846 164.482 216.508 168.224 211.663 168.577C206.53 168.951 201.745 165.603 199.849 160.897C197.866 155.972 199.214 150.054 203.503 146.815C207.563 143.75 213.655 143.811 217 147.849C220.773 150.387 222.975 155.282 221.936 159.773ZM212.565 151.496C211.871 151.248 211.393 150.659 211.165 149.979C208.85 149.298 205.936 151.045 204.879 153.157C203.139 156.639 204.854 161.184 208.356 162.793C211.458 164.218 215.36 162.572 216.58 159.371C217.815 156.135 215.655 152.604 212.565 151.496Z" fill="#7B6EB9"/>
<path id="Vector_60" d="M238.59 201.443C234.968 197.268 229.725 194.708 224.22 194.313C219.1 193.946 214.349 195.907 209.648 197.637C204.985 199.352 200.439 200.539 195.598 198.755C191 197.06 186.96 193.338 184.354 189.239C181.606 184.918 180.034 179.701 181.319 174.619C182.148 171.342 177.103 169.822 176.27 173.116C173.563 183.816 179.721 194.792 188.4 200.838C193.269 204.23 199.03 205.697 204.883 204.56C209.876 203.589 214.392 201.041 219.353 199.95C225.074 198.693 230.902 200.616 234.743 205.043C236.971 207.611 240.808 203.999 238.59 201.443Z" fill="#FFCCD7"/>
<path id="Vector_61" d="M260.835 177.784C259.421 179.503 256.455 179.973 254.427 180.562C250.298 181.762 246.094 182.662 241.836 183.241C240.392 185.015 236.749 184.018 237.161 181.19C237.958 175.716 239.592 170.244 242.174 165.338C244.006 161.856 247.751 157.977 252.044 160.087C254.084 161.09 255.306 163.08 256.497 164.925C257.786 166.922 258.982 168.977 260.11 171.069C261.227 173.14 262.617 175.618 260.835 177.784ZM255.71 174.657C255.827 174.617 255.962 174.555 256.102 174.492C255.716 173.658 255.109 172.812 254.74 172.154C253.961 170.765 253.13 169.402 252.265 168.063C251.649 167.109 250.89 165.395 249.831 164.853C249.462 164.663 248.998 164.938 248.567 165.325C246.625 167.072 245.657 170.123 244.766 172.491C244.122 174.205 243.601 175.951 243.182 177.723C245.178 177.406 247.162 177.019 249.13 176.554C250.565 176.215 251.985 175.825 253.396 175.397C254.171 175.162 254.942 174.915 255.71 174.657Z" fill="#AEABDA"/>
<path id="Vector_62" d="M154.089 110.922C154.69 108.778 157.214 107.152 158.832 105.795C162.126 103.033 165.611 100.515 169.273 98.2678C169.88 96.0628 173.615 95.5062 174.379 98.2607C175.857 103.591 176.57 109.257 176.186 114.787C175.914 118.713 174.052 123.772 169.272 123.571C167.001 123.476 165.08 122.147 163.246 120.939C161.261 119.632 159.337 118.233 157.461 116.774C155.603 115.329 153.332 113.621 154.089 110.922ZM160.04 111.717C159.95 111.8 159.851 111.911 159.748 112.025C160.438 112.633 161.335 113.163 161.937 113.615C163.211 114.573 164.521 115.485 165.852 116.361C166.801 116.986 168.187 118.249 169.375 118.318C169.789 118.342 170.103 117.904 170.341 117.376C171.413 114.995 171.069 111.813 170.928 109.287C170.827 107.458 170.599 105.65 170.268 103.86C168.569 104.955 166.91 106.109 165.296 107.328C164.12 108.216 162.978 109.146 161.86 110.106C161.245 110.634 160.639 111.171 160.04 111.717Z" fill="#B9D5EA"/>
<path id="Vector_63" d="M216.9 85.3022C211.833 87.4241 206.766 89.5459 201.699 91.6678C199.295 92.6746 196.771 93.8738 194.072 92.684C191.888 91.7209 190.905 89.6339 190.42 87.6407C189.93 85.6239 189.705 83.5681 189.201 81.5486C188.668 79.4098 187.98 77.3064 187.163 75.2331C185.555 71.1549 183.469 67.2212 180.896 63.5384C180.037 62.3083 180.09 60.7431 181.442 59.8541C182.629 59.0739 184.713 59.2386 185.57 60.4657C190.507 67.533 193.948 75.2998 195.586 83.4408C195.88 84.9039 196.263 86.5284 196.562 87.8865C196.705 87.7708 197.246 87.6369 197.388 87.5806C198.505 87.1378 199.602 86.6558 200.708 86.1927L214.62 80.3666C218.022 78.942 220.27 83.8906 216.9 85.3022ZM196.685 88.0232C196.643 88.0143 196.613 88.0044 196.588 87.9941C196.733 88.5388 196.85 88.0578 196.685 88.0232Z" fill="#E1A3D8"/>
<path id="Vector_64" d="M337.739 182.164C327.96 176.944 318.369 171.376 309.012 165.432C304.719 162.705 300.235 160.062 296.295 156.83C293.671 154.678 290.757 151.726 290.831 148.081C290.887 145.3 292.695 142.817 294.169 140.59C295.98 137.853 297.792 135.116 299.603 132.38C300.388 131.194 300.377 129.624 299.197 128.677C298.165 127.849 296.281 127.892 295.493 129.083C293.777 131.676 292.06 134.268 290.344 136.861C288.724 139.309 287.004 141.762 286.152 144.602C284.669 149.546 286.472 154.336 289.887 158.008C293.382 161.766 297.819 164.443 302.092 167.215C307.24 170.555 312.458 173.788 317.735 176.921C323.614 180.411 329.576 183.763 335.608 186.983C336.864 187.652 338.54 186.87 339.084 185.638C339.695 184.253 338.999 182.836 337.739 182.164Z" fill="#E2BBDF"/>
<path id="Vector_65" d="M183.985 294.17C182.555 294.958 182.199 296.655 182.86 298.06C186.516 305.82 187.833 314.691 186.599 323.182C185.308 332.067 180.992 340.007 174.208 345.88C169.581 349.886 164.15 352.849 158.654 355.479C155.326 357.071 158.104 362.081 161.421 360.494C171.577 355.633 181.456 349.229 187.12 339.189C191.92 330.682 193.482 320.733 192.408 311.095C191.796 305.606 190.229 300.288 187.877 295.294C187.217 293.893 185.278 293.456 183.985 294.17Z" fill="#7B6EB9"/>
<path id="Vector_66" d="M261.199 294.124C256.142 296.496 249.632 295.129 245.752 291.203C241.769 287.173 240.631 280.575 243.297 275.505C245.65 271.03 250.55 268.232 255.55 268.405C256.073 268.007 256.769 267.807 257.621 267.955C263.739 269.019 269.012 274.34 269.29 280.694C269.537 286.331 266.32 291.723 261.199 294.124ZM263.401 279.76C262.782 277.206 260.83 275.081 258.423 274.097C257.951 274.338 257.369 274.429 256.689 274.296C252.988 273.567 248.963 275.605 247.88 279.359C246.952 282.577 248.135 286.179 250.896 288.091C253.53 289.914 257.329 290.131 259.987 288.256C262.62 286.397 264.176 282.956 263.401 279.76Z" fill="#E1A3D8"/>
<path id="Vector_67" d="M321.257 327.198C315.049 327.815 308.808 327.976 302.579 327.582C300.412 327.446 296.976 327.706 295.252 326.097C293.868 324.806 293.737 322.459 293.619 320.695C292.778 308.177 293.227 295.438 294.045 282.933C294.515 275.742 295.208 268.568 296.105 261.419C296.563 257.767 290.898 256.914 290.438 260.579C288.705 274.395 287.782 288.292 287.624 302.214C287.55 308.774 287.401 315.465 287.979 322.006C288.21 324.622 288.856 327.443 290.608 329.487C292.631 331.849 295.51 332.7 298.51 332.999C306.28 333.772 314.19 333.655 321.954 332.884C325.62 332.519 324.933 326.832 321.257 327.198Z" fill="#CACAE8"/>
<path id="Vector_68" d="M276.441 325.256C271.463 321.149 266.075 317.022 259.798 315.172C253.393 313.284 247.056 314.455 241.674 318.39C236.623 322.085 232.462 327.218 228.457 331.976C224.177 337.063 220.156 342.369 216.414 347.864C212.095 354.205 208.142 360.799 204.565 367.585C203.844 368.953 204.687 370.77 206.032 371.36C207.535 372.02 209.085 371.266 209.809 369.893C215.576 358.954 222.386 348.595 230.134 338.955C233.832 334.355 237.669 329.694 241.955 325.624C245.835 321.939 250.403 319.232 255.931 320.117C262.412 321.154 267.951 325.677 272.862 329.729C275.712 332.081 279.284 327.602 276.441 325.256Z" fill="#F2D8EF"/>
<path id="Vector_69" d="M393.813 308.962C392.511 298.835 387.99 288.895 379.617 282.712C375.016 279.315 369.479 277.099 363.724 276.954C362.178 276.916 360.717 277.703 360.471 279.367C360.265 280.754 361.327 282.581 362.884 282.62C371.814 282.844 379.656 288.462 383.9 296.163C388.526 304.557 389.191 314.512 387.991 323.85C387.191 330.076 385.63 336.171 383.906 342.198C383.479 343.687 384.932 345.244 386.319 345.45C388.017 345.702 389.145 344.531 389.573 343.037C392.73 332.004 395.296 320.494 393.813 308.962Z" fill="#E1A3D8"/>
<path id="Vector_70" d="M362.633 322.698C358.52 325.688 352.735 325.137 349.044 321.706C347.426 320.202 346.319 318.253 345.855 316.211C345.74 315.952 345.657 315.662 345.618 315.335C344.934 309.628 348.99 304.055 354.677 303.059C359.526 302.21 364.582 305.298 366.5 309.722C368.476 314.28 366.569 319.836 362.633 322.698ZM361.512 314.383C361.957 311.47 359.275 308.75 356.489 308.639C355.16 308.587 353.98 309.124 353.079 309.973C353.036 310.808 352.619 311.62 351.944 312.211C351.636 312.481 351.447 312.835 351.344 313.226C351.266 313.697 351.25 314.173 351.306 314.638C351.308 314.659 351.308 314.679 351.31 314.7C351.404 315.248 351.595 315.774 351.826 316.185C352.553 317.475 353.922 318.459 355.353 318.829C358.202 319.567 361.067 317.29 361.512 314.383Z" fill="#E2BBDF"/>
<path id="Vector_71" d="M330.347 282.082C326.442 282.327 322.74 279.789 320.852 276.475C318.746 272.78 318.767 268.078 319.966 264.096C321.389 259.371 324.709 255.237 325.072 250.188C325.396 245.668 323.742 241.076 319.491 238.973C316.179 237.335 313.879 242.582 317.175 244.213C320.628 245.921 319.322 251.165 318.137 253.949C316.088 258.761 313.668 263.153 313.478 268.521C313.303 273.469 314.634 278.51 318.015 282.239C321.373 285.942 326.012 288.084 331.044 287.768C334.721 287.536 334.022 281.851 330.347 282.082Z" fill="#AEABDA"/>
<path id="Vector_72" d="M151.091 241.066C151.118 239.602 149.829 238.069 148.277 238.152C142.343 238.468 136.527 240.046 131.682 243.582C126.642 247.259 123.284 252.913 122.839 259.165C122.577 262.84 128.306 262.94 128.568 259.266C129.27 249.404 139.374 244.349 148.175 243.879C149.719 243.797 151.06 242.691 151.091 241.066Z" fill="#FFCCD7"/>
<path id="Vector_73" d="M354.752 207.131C354.372 205.717 352.709 204.6 351.24 205.11C345.627 207.057 340.475 210.183 336.799 214.922C332.975 219.851 331.315 226.213 332.619 232.344C333.386 235.948 338.919 234.458 338.152 230.855C336.095 221.184 344.403 213.53 352.73 210.641C354.191 210.135 355.173 208.701 354.752 207.131Z" fill="#E2E2F2"/>
<path id="Vector_74" d="M210.68 211.315C207.645 209.786 205.531 214.613 208.549 216.134C213.265 218.51 215.023 224.63 213.609 229.478C211.922 235.257 206.705 239.301 201.252 241.28C194.66 243.673 187.744 243.207 180.867 243.27C174.284 243.33 167.905 244.9 163.495 250.099C159.199 255.164 157.721 262.274 159.799 268.582C160.86 271.802 165.748 269.833 164.689 266.619C163.077 261.725 164.797 256.055 168.436 252.488C173.182 247.838 180.379 248.485 186.493 248.552C193.563 248.628 200.898 247.829 207.191 244.366C213.017 241.159 217.826 235.785 219.084 229.108C220.398 222.13 217.09 214.545 210.68 211.315Z" fill="#F2D8EF"/>
<path id="Vector_75" d="M424.79 270.502C424.254 260.488 422.533 250.594 419.827 240.943C419.443 239.573 417.618 238.99 416.4 239.48C414.963 240.057 414.552 241.531 414.937 242.906C417.295 251.314 418.775 259.972 419.404 268.681C419.536 270.503 419.971 272.737 419.438 274.53C419.005 275.988 417.282 276.27 416.007 276.671C411.78 277.999 407.505 279.164 403.191 280.171C401.806 280.495 400.71 281.585 400.895 283.106C401.053 284.402 402.438 285.726 403.831 285.401C408.747 284.253 413.64 282.956 418.446 281.41C420.68 280.691 422.722 279.631 423.883 277.495C425.04 275.365 424.916 272.843 424.79 270.502Z" fill="#BDBFE1"/>
<path id="Vector_76" d="M374.477 263.642C372.834 263.772 371.414 262.913 369.977 262.229C363.959 259.365 357.94 256.501 351.922 253.637C350.398 252.912 348.817 252.241 348.392 250.426C347.972 248.637 349.216 247.367 350.463 246.322C353.012 244.185 355.579 242.068 358.162 239.971C363.263 235.832 368.43 231.775 373.657 227.796C374.722 226.985 376.101 226.752 377.172 227.649C378.548 227.567 380.019 228.415 380.068 230.187C380.269 237.318 380.035 244.456 379.339 251.556C379.179 253.188 378.995 254.817 378.787 256.443C378.613 257.803 378.558 259.281 378.091 260.58C377.506 262.204 376.271 263.501 374.477 263.642ZM373.309 258.002C373.372 257.614 373.414 257.222 373.466 256.834C374.495 249.093 374.936 241.274 374.86 233.465C371.558 236.004 368.279 238.572 365.028 241.175C362.964 242.828 360.91 244.494 358.867 246.173C357.944 246.931 357.023 247.692 356.105 248.456C355.754 248.748 355.403 249.04 355.053 249.333C355.229 249.406 355.393 249.477 355.533 249.543C356.642 250.071 357.75 250.598 358.859 251.126C360.997 252.143 363.135 253.161 365.273 254.178C367.411 255.195 369.55 256.213 371.688 257.23C372.228 257.487 372.769 257.745 373.309 258.002Z" fill="#7B6EB9"/>
<path id="Vector_77" d="M246.888 225.393C243.534 224.896 242.756 230.105 246.116 230.603C249.469 231.1 250.247 225.89 246.888 225.393Z" fill="#AEABDA"/>
<path id="Vector_78" d="M231.404 263.831C228.36 256.3 217.762 254.768 210.742 255.066C209.319 255.126 208.284 256.669 208.446 258.001C208.63 259.506 209.956 260.356 211.382 260.295C214.808 260.15 218.427 260.59 221.628 261.863C223.623 262.657 226.14 264.014 226.693 266.294C227.043 267.737 226.48 269.215 225.918 270.524C225.145 272.324 224.258 274.079 223.418 275.848C221.689 279.493 219.96 283.139 218.231 286.784C216.775 289.854 221.601 291.973 223.052 288.914C225.081 284.635 227.111 280.355 229.141 276.076C230.952 272.256 233.128 268.098 231.404 263.831Z" fill="#BDBFE1"/>
<path id="Vector_79" d="M215.417 313.613C215.358 313.154 215.192 312.737 214.917 312.364C214.477 311.821 213.894 311.433 213.187 311.328L212.56 311.236C212.204 311.169 211.858 311.194 211.523 311.311C211.184 311.368 210.878 311.506 210.605 311.726C210.315 311.924 210.094 312.177 209.941 312.484C209.732 312.77 209.608 313.094 209.568 313.455C209.565 313.69 209.562 313.926 209.559 314.161C209.617 314.621 209.784 315.037 210.058 315.41C210.499 315.953 211.082 316.341 211.788 316.446L212.415 316.539C212.772 316.606 213.118 316.58 213.452 316.463C213.791 316.406 214.097 316.268 214.371 316.049C214.66 315.851 214.881 315.598 215.034 315.29C215.243 315.004 215.368 314.68 215.407 314.32C215.41 314.084 215.414 313.849 215.417 313.613Z" fill="#B9D5EA"/>
<path id="Vector_80" d="M312.213 197.359C316.654 199.01 319.861 203.011 319.903 207.8C319.915 209.231 318.392 210.322 317.068 210.217C315.56 210.098 314.663 208.806 314.651 207.384C314.632 205.283 312.891 203.489 311.112 202.601C308.593 201.345 305.587 201.728 302.985 202.494C298.238 203.891 293.76 206.843 290.2 210.346C295.891 216.719 296.353 226.955 293.613 234.875C291.857 239.95 288.592 244.441 283.957 247.224C279.512 249.893 273.926 250.615 269.023 248.86C265.829 247.717 267.624 242.764 270.821 243.908C275.21 245.478 280.106 244.085 283.54 241.067C287.214 237.839 289.198 232.963 289.796 228.19C290.342 223.831 289.906 219.065 287.394 215.331C287.178 215.01 286.944 214.696 286.696 214.391C284.331 217.519 282.116 220.877 278.489 222.593C274.761 224.358 269.373 223.787 266.888 220.208C263.602 215.477 267.138 209.529 271.387 206.875C275.797 204.121 281.23 204.353 285.706 206.786C285.847 206.862 285.979 206.945 286.116 207.025C289.36 203.713 293.256 200.976 297.455 199.021C301.96 196.924 307.373 195.559 312.213 197.359ZM281.392 212.698C281.797 212.153 282.206 211.614 282.621 211.08C281.152 210.352 279.537 209.971 277.883 210.124C276.049 210.294 274.304 211.022 272.925 212.244C271.763 213.274 270.591 215.035 270.934 216.658C271.022 217.077 271.199 217.313 271.672 217.645C272.027 217.893 272.798 218.166 273.144 218.221C274.633 218.455 275.794 218.222 277.09 217.341C278.853 216.143 280.136 214.385 281.392 212.698Z" fill="#938CCB"/>
<path id="Vector_81" d="M153.25 326.24C151.301 330.557 147.089 333.484 142.307 333.2C140.879 333.116 139.893 331.523 140.087 330.209C140.309 328.713 141.659 327.906 143.08 327.99C145.178 328.114 147.086 326.5 148.093 324.786C149.518 322.358 149.34 319.334 148.752 316.687C147.681 311.857 145.039 307.191 141.784 303.402C135.038 308.645 124.791 308.41 117.073 305.139C112.128 303.043 107.868 299.481 105.406 294.669C103.044 290.055 102.703 284.434 104.787 279.663C106.145 276.555 110.966 278.682 109.608 281.792C107.742 286.064 108.8 291.042 111.578 294.672C114.55 298.555 119.282 300.866 124.004 301.786C128.317 302.627 133.103 302.517 137.001 300.264C137.335 300.071 137.664 299.859 137.986 299.632C135.024 297.06 131.824 294.623 130.358 290.889C128.85 287.051 129.786 281.716 133.527 279.48C138.471 276.524 144.167 280.455 146.526 284.873C148.975 289.459 148.375 294.863 145.643 299.162C145.557 299.296 145.465 299.423 145.377 299.554C148.461 303.014 150.928 307.086 152.594 311.408C154.38 316.043 155.375 321.535 153.25 326.24ZM140.036 294.456C140.552 294.898 141.062 295.343 141.567 295.792C142.394 294.377 142.884 292.791 142.843 291.132C142.798 289.291 142.19 287.501 141.064 286.043C140.115 284.814 138.437 283.524 136.795 283.757C136.37 283.816 136.123 283.977 135.759 284.426C135.487 284.763 135.162 285.513 135.084 285.855C134.75 287.324 134.904 288.498 135.695 289.851C136.771 291.69 138.438 293.089 140.036 294.456Z" fill="#AEABDA"/>
</g>
</g>
</g>
</g>
<g id="video-cover-container">
<rect id="Rectangle 7" y="40" width="558" height="235" fill="#938CCB"/>
<text id="video-title" transform="translate(25 57)" fill="white" xml:space="preserve" style="white-space: pre" font-family="Playpen Sans" font-size="20" font-weight="bold" letter-spacing="0em"><tspan x="0" y="64.3">Per&#xed;odo dos 4 anos - </tspan><tspan x="0" y="92.3">Demonstrando os </tspan><tspan x="0" y="120.3">principais marcos e sinais </tspan><tspan x="0" y="148.3">de alerta</tspan></text>
<path id="Polygon 13" d="M311.121 162.33C314.454 160.406 314.454 155.594 311.121 153.67L265.499 127.33C262.166 125.406 257.999 127.811 257.999 131.66L257.999 184.34C257.999 188.189 262.166 190.594 265.499 188.67L311.121 162.33Z" fill="#594C8B"/>
<g id="silhueta">
<g id="Group 581">
<g id="Group 577">
<path id="Vector_82" d="M411.18 206.291C410.825 206.291 410.501 206.199 410.216 206.017C410.017 205.889 409.753 205.661 409.572 205.279C409.36 205.313 409.116 205.343 408.851 205.343C408.628 205.343 408.411 205.321 408.205 205.277C407.156 205.057 406.474 204.316 406.066 203.873L400.176 197.474C399.74 197.001 399.221 196.437 398.827 195.732C398.325 195.434 397.895 194.998 397.595 194.469C397.372 194.076 397.229 193.647 397.171 193.213C396.765 192.757 396.524 192.137 396.542 191.465C396.552 191.124 396.625 190.813 396.723 190.537C396.561 190.103 396.507 189.62 396.58 189.131C396.636 188.76 396.761 188.414 396.941 188.108C396.816 187.589 396.82 187.063 396.963 186.574C397.334 185.297 398.542 184.471 400.04 184.471C400.633 184.471 401.218 184.604 401.732 184.855C402.476 185.219 403.037 185.732 403.532 186.184C403.796 186.425 404.044 186.653 404.284 186.823C405.004 187.334 405.898 187.495 406.931 187.683C407.749 187.83 408.594 187.983 409.461 188.325C410.095 188.575 410.71 188.871 411.301 189.209C411.433 189.153 411.571 189.109 411.714 189.077C411.903 189.036 412.101 189.015 412.303 189.015C412.68 189.015 413.011 189.088 413.253 189.142C414.837 189.49 416.507 189.556 418.154 189.573C418.44 189.132 418.785 188.773 419.16 188.467C418.87 187.703 418.638 186.85 418.64 185.928C418.641 185.353 418.735 184.813 418.826 184.36C418.997 183.522 419.222 182.684 419.496 181.868C420.206 179.76 421.608 179.532 422.178 179.532C422.192 179.532 422.227 179.533 422.241 179.534C423.022 179.556 423.602 179.962 423.793 180.096C424.755 180.767 425.493 181.754 425.869 182.873L425.91 183.002C425.952 183.017 425.994 183.033 426.032 183.046C426.195 183.106 426.386 183.176 426.589 183.273C426.613 183.272 426.637 183.272 426.662 183.272C427.811 183.272 428.758 183.851 429.519 184.315C429.637 184.388 429.753 184.459 429.868 184.526C430.382 184.826 431.036 184.972 431.866 184.972C432.367 184.972 432.934 184.919 433.602 184.808C433.917 184.756 434.233 184.698 434.549 184.64C435.603 184.444 436.692 184.243 437.84 184.243C438.229 184.243 438.608 184.267 438.969 184.314C439.118 184.333 439.267 184.357 439.416 184.381C439.658 184.421 439.885 184.458 440.056 184.458C440.365 184.444 440.716 184.307 441.082 184.155L441.454 184C442.382 183.612 443.342 183.21 444.427 183.002C444.601 182.969 444.778 182.942 444.954 182.914C445.291 182.862 445.608 182.812 445.809 182.723C445.954 182.658 446.142 182.527 446.34 182.389C446.533 182.255 446.727 182.122 446.928 182.002C447.65 181.575 448.398 181.352 449.059 181.154C450.483 180.729 451.944 180.292 453.48 180.066C451.885 179.692 450.395 179.061 449.153 177.951C448.994 178.457 448.761 178.925 448.452 179.348C447.968 180.012 447.352 180.449 446.668 180.612C446.468 180.66 446.261 180.684 446.054 180.684C444.949 180.684 443.871 179.981 443.307 178.893C442.978 178.257 442.86 177.63 442.757 177.077C442.73 176.932 442.703 176.788 442.672 176.645C442.452 175.66 441.959 174.733 441.37 173.813C441.259 173.825 441.144 173.832 441.025 173.832C440.526 173.832 440.072 173.707 439.675 173.459C438.994 173.034 438.588 172.315 438.563 171.488C438.555 171.227 438.585 170.964 438.649 170.706L438.401 170.709C437.955 170.709 437.352 170.655 436.778 170.399C435.881 169.998 435.347 169.212 435.347 168.298C435.348 168.098 435.377 167.794 435.512 167.461C435.431 167.387 435.353 167.308 435.28 167.22C434.865 166.726 434.692 166.102 434.793 165.464C434.909 164.726 435.346 164.147 436.094 163.738C436.045 163.334 436.094 162.809 436.431 162.228C436.263 162.385 436.078 162.533 435.871 162.667C435.326 163.021 434.678 163.216 434.046 163.216C433.394 163.216 432.79 163.014 432.3 162.633C431.343 161.892 430.96 160.577 431.275 159.117C431.679 157.25 432.774 155.759 433.74 154.445C434.276 153.715 434.791 153.015 435.162 152.301C434.062 151.153 433.378 149.893 433.138 148.575C431.998 148.18 430.938 147.378 430.519 146.209C430.157 145.199 430.325 144.007 430.97 143.023C431.759 141.818 433.146 141.069 434.589 141.069L434.72 141.072C435.083 141.083 435.44 141.145 435.777 141.253C435.994 141.056 436.22 140.876 436.452 140.714C436.901 140.401 437.391 140.148 437.909 139.961C437.954 139.734 438.025 139.513 438.122 139.296C438.557 138.319 439.457 137.558 440.59 137.207C440.992 137.082 441.392 137.019 441.778 137.019C442.118 137.019 442.447 137.069 442.757 137.166C443.568 137.421 444.272 138.024 444.688 138.819C445.013 139.44 445.166 140.175 445.13 140.945C445.119 141.194 445.088 141.436 445.038 141.668C445.77 142.444 446.279 143.379 446.532 144.427C446.746 145.314 446.603 146.183 446.476 146.951C446.427 147.251 446.356 147.676 446.357 147.918C446.359 147.918 446.361 147.919 446.363 147.919C446.669 148.006 447.085 148.013 447.525 148.019L447.674 148.021C449.08 148.046 450.496 148.159 451.881 148.357C452.411 148.432 453.653 148.608 454.41 149.639C454.839 150.223 455.01 150.958 454.891 151.709C454.757 152.556 454.256 153.363 453.552 153.868C452.998 154.265 452.398 154.471 451.832 154.589C452.019 154.818 452.201 155.094 452.373 155.426L454.272 159.086C455.123 160.727 455.864 161.312 456.272 161.312C456.303 161.312 456.334 161.309 456.365 161.304C456.661 161.259 457.016 160.893 457.229 160.415C457.461 159.892 457.576 159.247 457.698 158.564C457.735 158.359 457.771 158.153 457.811 157.948C458.408 154.891 459.74 151.978 461.662 149.526C461.848 149.288 462.044 149.084 462.225 148.908C460.747 148.058 459.225 147.073 457.951 145.774C455.905 143.688 454.873 141.089 455.119 138.644C455.178 138.052 455.306 137.508 455.429 136.983C455.592 136.282 455.734 135.677 455.665 135.168C455.606 134.734 455.379 134.259 455.117 133.709C454.926 133.309 454.728 132.895 454.565 132.432C454.346 131.813 454.265 131.199 454.265 130.598C452.784 130.558 451.318 130.326 449.9 129.908C447.359 129.158 445.685 127.724 445.188 125.87C444.873 124.693 445.038 123.384 445.664 122.086C447.317 118.663 450.998 117.179 453.956 115.985C457.886 114.402 462.214 112.782 467.578 110.889C469.608 110.172 471.868 109.809 474.296 109.809C477.16 109.809 480.31 110.327 483.405 111.309C484.676 111.712 486.154 112.252 487.48 113.201C488.797 114.144 489.779 115.358 490.566 116.422C492.221 118.66 493.616 121.092 494.711 123.653C496.24 127.227 496.407 130.087 495.221 132.395C494.674 133.459 493.88 134.289 493.178 135.022C492.888 135.325 492.614 135.612 492.365 135.903C492.045 136.279 491.743 136.691 491.424 137.127C491 137.707 490.562 138.305 490.037 138.875C489.354 139.617 488.63 140.029 487.992 140.392C487.818 140.492 487.64 140.592 487.458 140.704C487.391 140.745 487.372 140.768 487.372 140.768C487.326 140.831 487.247 141.144 487.196 141.351L487.107 141.699C487.035 141.973 486.942 142.244 486.829 142.507C486.973 142.531 487.114 142.568 487.251 142.619C487.777 142.815 488.105 143.166 488.281 143.355C488.717 143.82 489.145 144.295 489.564 144.776C492.503 148.155 493.502 152.343 494.467 156.393C495.001 158.63 495.553 160.942 496.427 163.038C497.869 166.493 498.525 169.502 498.555 172.792C498.588 176.414 497.795 179.914 497.029 183.297L493.136 200.487C493.018 201.005 492.858 201.714 492.354 202.354C491.693 203.192 490.766 203.519 490.031 203.71C488.564 204.092 487.107 204.186 485.698 204.277C476.679 204.857 467.352 205.456 458.152 205.823C457.245 205.859 456.356 205.891 455.456 205.891C453.578 205.891 452.057 205.742 450.67 205.423C450.131 205.298 449.612 205.148 449.11 205.003C448.371 204.789 447.674 204.586 446.991 204.488C446.624 204.435 446.247 204.41 445.838 204.41C444.502 204.41 443.124 204.688 441.666 204.983C441.069 205.104 440.473 205.224 439.878 205.326C437.864 205.671 435.647 205.839 433.1 205.839C432.321 205.839 431.5 205.824 430.591 205.793C429.228 205.747 427.852 205.671 426.522 205.598C424.613 205.493 422.64 205.384 420.714 205.365L420.148 205.363C418.613 205.363 417.253 205.425 415.991 205.553C415.417 205.611 414.81 205.737 414.167 205.871C413.223 206.068 412.246 206.272 411.222 206.291C411.212 206.291 411.189 206.291 411.18 206.291Z" fill="#E1A3D8"/>
<path id="Vector_83" d="M474.296 111.43C477.237 111.43 480.215 111.998 482.916 112.854C484.187 113.258 485.452 113.743 486.538 114.52C487.615 115.291 488.477 116.322 489.265 117.388C490.846 119.524 492.177 121.846 493.223 124.291C494.224 126.631 494.944 129.39 493.781 131.654C493.146 132.888 492.035 133.794 491.134 134.85C490.331 135.792 489.686 136.865 488.847 137.775C488.171 138.509 487.43 138.82 486.613 139.321C485.829 139.802 485.777 140.396 485.542 141.283C485.393 141.845 485.13 142.377 484.774 142.837C484.649 142.998 484.509 143.16 484.473 143.36C484.403 143.76 484.768 144.089 485.094 144.33C485.166 144.384 485.243 144.439 485.332 144.452C485.345 144.454 485.359 144.455 485.373 144.455C485.453 144.455 485.531 144.424 485.605 144.391C485.879 144.267 486.171 144.097 486.457 144.097C486.533 144.097 486.609 144.109 486.683 144.137C486.849 144.199 486.977 144.333 487.099 144.462C487.521 144.914 487.936 145.374 488.342 145.841C492.596 150.731 492.436 157.679 494.933 163.663C496.192 166.681 496.906 169.525 496.935 172.806C496.966 176.236 496.203 179.612 495.45 182.939C494.152 188.669 492.854 194.398 491.557 200.128C491.459 200.558 491.355 201.003 491.082 201.35C490.733 201.792 490.168 201.999 489.623 202.141C488.311 202.483 486.948 202.572 485.594 202.659C476.43 203.248 467.264 203.837 458.088 204.202C457.213 204.237 456.334 204.27 455.457 204.27C453.967 204.27 452.481 204.176 451.032 203.843C449.755 203.548 448.519 203.07 447.221 202.883C446.76 202.817 446.299 202.788 445.838 202.788C443.757 202.788 441.676 203.373 439.605 203.728C437.455 204.096 435.275 204.217 433.096 204.217C432.279 204.217 431.461 204.2 430.645 204.173C427.339 204.061 424.039 203.776 420.729 203.744C420.534 203.742 420.338 203.741 420.143 203.741C418.702 203.741 417.261 203.794 415.828 203.94C414.295 204.095 412.72 204.642 411.192 204.67C411.187 204.67 411.182 204.67 411.177 204.67C411.145 204.67 411.113 204.667 411.087 204.65C411.059 204.632 411.042 204.602 411.029 204.571C410.95 204.379 410.99 204.158 410.941 203.955C410.864 203.639 410.488 203.57 410.175 203.57C410.096 203.57 410.021 203.575 409.956 203.581C409.587 203.614 409.217 203.721 408.852 203.721C408.746 203.721 408.642 203.712 408.537 203.69C408.015 203.581 407.619 203.167 407.257 202.774C405.294 200.641 403.33 198.508 401.367 196.376C400.844 195.807 400.309 195.221 400.032 194.5C399.152 194.259 398.572 193.237 398.816 192.357C398.421 192.34 398.149 191.907 398.161 191.511C398.172 191.115 398.384 190.757 398.59 190.419C397.902 189.976 398.092 188.711 398.879 188.491C398.574 188.069 398.372 187.527 398.517 187.027C398.701 186.392 399.358 186.092 400.04 186.092C400.379 186.092 400.725 186.167 401.021 186.312C401.911 186.747 402.541 187.573 403.349 188.146C405.03 189.338 407.058 189.12 408.868 189.834C409.805 190.203 410.698 190.686 411.52 191.269C411.501 190.973 411.774 190.724 412.063 190.661C412.142 190.643 412.222 190.636 412.303 190.636C412.515 190.636 412.73 190.687 412.94 190.733C414.977 191.18 417.081 191.191 419.166 191.201C419.496 190.155 420.225 189.603 421.183 189.071C420.724 188.071 420.257 187.031 420.259 185.931C420.26 185.511 420.33 185.094 420.414 184.682C420.571 183.905 420.777 183.137 421.03 182.386C421.222 181.816 421.582 181.154 422.177 181.154C422.184 181.154 422.191 181.154 422.198 181.154C422.441 181.161 422.665 181.285 422.864 181.424C423.546 181.9 424.069 182.6 424.334 183.389C424.41 183.618 424.469 183.86 424.613 184.053C424.985 184.553 425.759 184.54 426.228 184.95C426.373 184.911 426.517 184.893 426.661 184.893C427.492 184.893 428.302 185.488 429.052 185.926C429.902 186.422 430.875 186.593 431.867 186.593C432.535 186.593 433.212 186.516 433.865 186.408C435.185 186.19 436.514 185.864 437.841 185.864C438.147 185.864 438.453 185.881 438.759 185.921C439.191 185.978 439.621 186.079 440.056 186.079C440.1 186.079 440.144 186.078 440.188 186.076C440.713 186.049 441.214 185.854 441.7 185.653C442.691 185.244 443.677 184.796 444.73 184.595C445.315 184.483 445.925 184.446 446.469 184.204C446.931 183.997 447.317 183.655 447.753 183.397C448.299 183.074 448.914 182.889 449.522 182.708C451.357 182.159 453.215 181.607 455.129 181.536C455.951 181.505 456.818 181.555 457.547 181.172C458.277 180.79 458.753 179.641 458.233 179.001C455.261 178.85 451.987 178.568 449.91 176.434C449.864 176.388 449.821 176.337 449.777 176.289C448.987 176.1 448.46 175.321 448.096 174.492C447.873 174.32 447.631 174.181 447.365 174.084C447.888 175.54 448.033 177.175 447.145 178.391C446.93 178.685 446.646 178.95 446.293 179.035C446.213 179.054 446.133 179.063 446.054 179.063C445.514 179.063 445.002 178.643 444.745 178.146C444.449 177.576 444.391 176.918 444.252 176.291C443.896 174.696 443.015 173.32 442.08 171.96C441.953 172.002 441.829 172.05 441.701 172.089C441.484 172.154 441.249 172.211 441.025 172.211C440.85 172.211 440.681 172.176 440.531 172.083C439.886 171.681 440.217 170.621 440.837 170.18C440.845 170.175 440.854 170.171 440.862 170.166C440.665 169.86 440.474 169.552 440.297 169.237C440.266 169.183 440.243 169.125 440.213 169.07C439.604 169.076 438.996 169.082 438.387 169.087C438.378 169.087 438.369 169.087 438.36 169.087C437.757 169.087 436.966 168.897 436.967 168.299C436.967 167.802 437.546 167.543 438.025 167.409C438.45 167.29 438.874 167.171 439.299 167.052C439.249 166.918 439.188 166.787 439.141 166.651C438.696 166.644 438.25 166.636 437.805 166.629C437.165 166.618 436.292 166.35 436.392 165.718C436.455 165.321 436.892 165.119 437.271 164.985C437.693 164.836 438.116 164.686 438.538 164.537C438.51 164.418 438.479 164.301 438.453 164.182C437.891 164.038 437.463 163.665 437.839 163.029C437.92 162.892 438.033 162.779 438.158 162.681C438.069 162.154 437.989 161.625 437.92 161.094C437.819 160.321 437.915 159.443 437.701 158.707C437.669 158.597 437.611 158.471 437.498 158.454C437.49 158.453 437.482 158.452 437.474 158.452C437.405 158.452 437.341 158.494 437.285 158.536C436.803 158.901 436.481 159.432 436.161 159.944C435.84 160.456 435.496 160.978 434.989 161.307C434.712 161.487 434.374 161.594 434.046 161.594C433.774 161.594 433.509 161.52 433.292 161.352C432.752 160.934 432.713 160.128 432.858 159.46C433.48 156.584 436.219 154.645 437.088 151.883C435.681 150.708 434.552 149.151 434.668 147.233C433.593 147.202 432.362 146.551 432.043 145.661C431.836 145.085 431.989 144.424 432.324 143.912C432.814 143.163 433.696 142.69 434.589 142.69C434.615 142.69 434.642 142.691 434.668 142.691C435.201 142.708 435.736 142.911 436.105 143.29C436.466 142.815 436.884 142.387 437.377 142.044C438.045 141.579 438.794 141.315 439.556 141.226C439.446 140.809 439.408 140.388 439.6 139.957C439.866 139.362 440.46 138.944 441.068 138.756C441.297 138.685 441.539 138.64 441.778 138.64C441.945 138.64 442.111 138.662 442.271 138.712C442.697 138.846 443.047 139.176 443.254 139.571C443.461 139.967 443.533 140.424 443.513 140.871C443.493 141.297 443.387 141.731 443.135 142.076C443.123 142.093 443.104 142.104 443.092 142.12C443.986 142.744 444.68 143.657 444.958 144.809C445.351 146.431 443.717 148.851 445.92 149.478C446.477 149.637 447.066 149.633 447.645 149.643C448.986 149.666 450.326 149.772 451.653 149.961C452.192 150.038 452.783 150.161 453.106 150.599C453.548 151.201 453.216 152.115 452.61 152.55C452.003 152.984 451.221 153.068 450.479 153.137C449.99 153.183 449.502 153.229 449.014 153.275C447.794 153.389 448.344 153.935 448.742 154.581C448.915 154.862 449.066 155.163 449.207 155.472C449.315 155.318 449.459 155.201 449.658 155.162C449.706 155.152 449.752 155.148 449.798 155.148C450.303 155.148 450.688 155.697 450.936 156.173C451.569 157.393 452.202 158.613 452.835 159.834C453.583 161.275 454.727 162.933 456.273 162.933C456.383 162.933 456.496 162.924 456.611 162.907C457.568 162.759 458.314 161.959 458.708 161.074C459.101 160.189 459.215 159.21 459.4 158.259C459.948 155.451 461.171 152.777 462.936 150.527C463.567 149.722 464.494 149.316 464.451 148.294C462.552 147.25 460.624 146.184 459.106 144.638C457.588 143.091 456.513 140.964 456.73 138.807C456.86 137.508 457.445 136.241 457.269 134.948C457.121 133.862 456.456 132.924 456.091 131.891C455.749 130.923 455.886 129.928 456.091 128.922C455.638 128.962 455.183 128.982 454.727 128.982C453.251 128.982 451.774 128.77 450.357 128.352C448.81 127.895 447.171 127.009 446.752 125.449C446.515 124.567 446.725 123.614 447.122 122.792C448.48 119.98 451.668 118.656 454.561 117.489C459.049 115.68 463.578 114.019 468.116 112.418C470.08 111.724 472.179 111.43 474.296 111.43ZM474.297 108.188C474.297 108.188 474.296 108.188 474.297 108.188C471.685 108.187 469.243 108.582 467.039 109.36C461.65 111.262 457.301 112.889 453.352 114.482C450.305 115.71 446.132 117.392 444.206 121.38C443.408 123.035 443.207 124.733 443.625 126.291C444.274 128.71 446.34 130.547 449.442 131.462C450.538 131.786 451.662 132.008 452.798 132.126C452.858 132.404 452.937 132.686 453.038 132.973C453.23 133.517 453.457 133.991 453.656 134.409C453.825 134.764 454.036 135.204 454.06 135.386C454.089 135.599 453.958 136.161 453.852 136.613C453.723 137.162 453.578 137.784 453.508 138.482C453.214 141.408 454.412 144.48 456.796 146.91C457.726 147.858 458.752 148.64 459.793 149.322C458.033 151.799 456.804 154.654 456.222 157.637C456.181 157.851 456.142 158.065 456.104 158.279C456.068 158.478 456.034 158.674 455.997 158.859C455.908 158.709 455.811 158.537 455.709 158.339L454.181 155.395C454.286 155.33 454.391 155.261 454.495 155.186C455.559 154.423 456.286 153.248 456.49 151.963C456.678 150.78 456.402 149.613 455.714 148.677C454.554 147.099 452.777 146.846 452.109 146.751C450.816 146.567 449.502 146.453 448.194 146.412C448.279 145.715 448.312 144.898 448.106 144.046C447.854 143.003 447.385 142.029 446.738 141.179C446.742 141.125 446.745 141.071 446.748 141.017C446.796 139.962 446.58 138.942 446.123 138.068C445.509 136.894 444.459 136.001 443.242 135.619C442.775 135.472 442.282 135.398 441.778 135.398C441.231 135.397 440.67 135.485 440.112 135.658C438.533 136.147 437.269 137.231 436.643 138.634C436.625 138.676 436.607 138.718 436.589 138.761C436.219 138.94 435.864 139.148 435.528 139.382C435.472 139.421 435.416 139.461 435.361 139.501C435.166 139.474 434.969 139.457 434.771 139.451C434.709 139.449 434.649 139.448 434.589 139.448C432.607 139.448 430.701 140.477 429.616 142.133C428.694 143.541 428.462 145.269 428.995 146.757C429.496 148.154 430.556 149.142 431.756 149.746C432.018 150.609 432.46 151.53 433.168 152.463C432.942 152.795 432.692 153.135 432.436 153.484C431.374 154.929 430.17 156.568 429.693 158.773C429.242 160.859 429.846 162.781 431.309 163.916C431.888 164.365 432.562 164.657 433.288 164.776C433.244 164.933 433.214 165.079 433.193 165.21C433.046 166.142 433.249 167.089 433.753 167.873C433.736 168.016 433.728 168.157 433.728 168.295C433.727 169.32 434.126 170.286 434.852 171.014C435.51 171.674 436.303 172.011 437.014 172.177C437.221 173.277 437.868 174.242 438.82 174.836C439.309 175.14 439.862 175.336 440.444 175.415C440.743 175.95 440.975 176.478 441.091 176.998C441.119 177.122 441.142 177.248 441.165 177.375C441.277 177.972 441.43 178.79 441.87 179.639C442.275 180.422 442.868 181.071 443.565 181.532C442.547 181.785 441.644 182.163 440.832 182.503L440.464 182.656C440.368 182.696 440.134 182.793 440.005 182.832C439.925 182.822 439.786 182.799 439.679 182.782C439.512 182.754 439.345 182.728 439.178 182.706C438.748 182.65 438.299 182.621 437.841 182.621C436.544 182.621 435.327 182.846 434.254 183.045C433.948 183.102 433.643 183.158 433.338 183.209C432.759 183.304 432.277 183.351 431.867 183.351C431.338 183.351 430.94 183.275 430.684 183.125C430.578 183.064 430.471 182.998 430.363 182.931C429.611 182.473 428.514 181.802 427.134 181.673C426.604 180.511 425.764 179.495 424.716 178.764C423.928 178.214 423.133 177.935 422.284 177.913C422.256 177.912 422.206 177.911 422.177 177.911C421.46 177.911 419.036 178.159 417.962 181.35C417.667 182.225 417.424 183.129 417.24 184.037C417.132 184.567 417.022 185.206 417.021 185.924C417.019 186.642 417.127 187.316 417.289 187.937C416.01 187.905 414.787 187.818 413.633 187.565L413.596 187.557C413.3 187.492 412.854 187.393 412.303 187.393C412.028 187.393 411.756 187.418 411.492 187.468C411.024 187.227 410.544 187.01 410.054 186.817C409.039 186.416 408.072 186.241 407.219 186.087C406.34 185.928 405.646 185.802 405.22 185.5C405.062 185.388 404.85 185.194 404.624 184.988C404.077 184.487 403.397 183.865 402.443 183.398C401.709 183.04 400.878 182.85 400.04 182.85C397.838 182.85 395.976 184.164 395.407 186.121C395.243 186.688 395.195 187.278 395.258 187.868C395.127 188.191 395.032 188.533 394.979 188.89C394.895 189.45 394.918 190.007 395.037 190.534C394.975 190.806 394.933 191.101 394.924 191.417C394.898 192.333 395.171 193.191 395.651 193.888C395.76 194.367 395.94 194.834 396.187 195.27C396.55 195.91 397.045 196.458 397.625 196.879C398.069 197.577 398.577 198.129 398.986 198.573L401.595 201.407L404.876 204.972C405.343 205.48 406.316 206.537 407.872 206.864C408.176 206.928 408.493 206.961 408.814 206.964C408.999 207.143 409.184 207.281 409.345 207.384C409.727 207.627 410.35 207.912 411.177 207.912C411.199 207.912 411.236 207.912 411.258 207.911C412.427 207.89 413.527 207.661 414.497 207.458C415.097 207.333 415.664 207.215 416.154 207.166C417.363 207.043 418.668 206.984 420.143 206.984C420.328 206.984 420.513 206.985 420.698 206.986C422.588 207.004 424.457 207.107 426.435 207.217C427.773 207.29 429.157 207.367 430.536 207.413C431.462 207.445 432.3 207.46 433.096 207.46C435.737 207.46 438.045 207.284 440.151 206.924C440.779 206.816 441.394 206.692 441.988 206.572C443.364 206.294 444.664 206.031 445.838 206.031C446.169 206.031 446.471 206.051 446.761 206.093C447.332 206.175 447.976 206.362 448.659 206.56C449.182 206.711 449.723 206.868 450.306 207.003C451.816 207.35 453.453 207.512 455.457 207.512C456.388 207.512 457.294 207.479 458.217 207.442C467.434 207.075 476.772 206.475 485.802 205.895C487.218 205.804 488.823 205.701 490.439 205.279C491.343 205.044 492.656 204.588 493.625 203.357C494.356 202.429 494.581 201.438 494.715 200.846L497.184 189.942L498.608 183.656C499.395 180.182 500.208 176.59 500.174 172.776C500.142 169.267 499.447 166.071 497.921 162.413C497.097 160.438 496.585 158.29 496.042 156.016C495.031 151.776 493.985 147.391 490.784 143.711C490.354 143.216 489.909 142.723 489.462 142.246C489.352 142.128 489.172 141.936 488.917 141.731C489.598 141.341 490.422 140.848 491.227 139.975C491.814 139.338 492.3 138.673 492.729 138.086C493.03 137.675 493.315 137.286 493.596 136.956C493.815 136.7 494.074 136.429 494.348 136.143C495.125 135.331 496.006 134.41 496.66 133.137C498.081 130.372 497.93 127.06 496.2 123.014C495.055 120.339 493.598 117.796 491.868 115.458C491.056 114.361 489.931 112.963 488.421 111.882C486.912 110.802 485.286 110.205 483.893 109.763C480.643 108.732 477.324 108.188 474.297 108.188Z" fill="white"/>
</g>
</g>
</g>
</g>
</g>
<defs>
<clipPath id="clip0_2096_3346">
<rect width="558" height="315" rx="12" fill="white"/>
</clipPath>
<clipPath id="clip1_2096_3346">
<rect width="771" height="488" fill="white" transform="translate(-115 -24)"/>
</clipPath>
</defs>
</svg>
