<svg width="558" height="315" viewBox="0 0 558 315" fill="none" xmlns="http://www.w3.org/2000/svg">
<g id="video-cover">
<g id="Background">
<g clip-path="url(#clip0_2096_1223)">
<rect id="Rectangle 173" x="-7" y="-11" width="599" height="346" fill="#E2E2F2"/>
<g id="Frame 609" clip-path="url(#clip1_2096_1223)">
<g id="Group 722">
<path id="Vector" d="M15.8315 -26.1344C10.8539 -30.2418 5.46603 -34.3683 -0.811516 -36.2187C-7.21647 -38.1067 -13.5535 -36.936 -18.9352 -33.0002C-23.9866 -29.3058 -28.1475 -24.173 -32.1519 -19.4144C-36.4328 -14.3272 -40.4533 -9.02176 -44.1958 -3.52668C-48.5143 2.81414 -52.467 9.40821 -56.0445 16.194C-56.7657 17.5623 -55.9219 19.379 -54.5769 19.9697C-53.0744 20.6297 -51.5241 19.8758 -50.8002 18.5027C-45.0332 7.56335 -38.2233 -2.79553 -30.4751 -12.4353C-26.7773 -17.036 -22.9405 -21.6964 -18.6541 -25.767C-14.7743 -29.4515 -10.2059 -32.1587 -4.67878 -31.2739C1.80279 -30.2364 7.3413 -25.7138 12.2522 -21.6617C15.1028 -19.3094 18.6742 -23.7887 15.8315 -26.1344Z" fill="#F2D8EF"/>
<path id="Vector_2" d="M75.9476 32.8112C64.5067 26.777 53.6078 19.7693 43.3701 11.8647C41.5897 10.4901 41.7722 7.98587 43.7472 6.89744C47.3184 4.92934 51.0384 3.23766 54.862 1.82752C55.2869 1.32161 55.888 0.944814 56.5696 0.749743C59.0836 0.0301816 61.5978 -0.689436 64.1119 -1.40897C66.1808 -2.00111 68.2843 -2.76376 70.4357 -2.99472C72.5549 -3.22233 74.7297 -2.96443 76.4977 -1.67746C78.6959 -0.0776126 79.5012 2.57027 80.1581 5.07714C82.4135 13.683 82.3232 22.7422 80.2549 31.3685C79.7809 33.3454 77.4176 33.5865 75.9476 32.8112ZM73.1568 2.96398C72.8761 3.1178 72.5498 3.2318 72.1699 3.28849C64.5656 4.42229 57.2428 6.66781 50.3354 9.95674C58.3612 15.8893 66.7735 21.28 75.5152 26.0973C76.4896 20.0734 76.2875 13.8694 74.9594 7.91334C74.6548 6.54675 74.4021 4.06562 73.2995 3.0758C73.2539 3.03477 73.2057 2.99878 73.1568 2.96398Z" fill="#BDBFE1"/>
<path id="Vector_3" d="M14.524 40.9603C9.95995 44.0202 3.9364 43.5406 -0.544489 40.584C-5.27825 37.4608 -7.0237 31.7226 -5.27955 26.4147C-3.63113 21.3983 1.15717 17.2603 6.53638 17.0654C7.23796 17.0401 7.91555 17.2132 8.4674 17.5609C13.6603 17.3209 18.3278 21.869 19.5261 27.1254C20.6647 32.1199 18.8917 38.0318 14.524 40.9603ZM13.9126 28.1541C13.6416 26.9471 12.886 25.4997 11.9822 24.6665C11.0299 23.7887 9.06654 22.6436 7.74664 23.4032C6.66251 24.0271 5.38001 24.1428 4.39398 23.4521C2.14823 24.4993 0.416072 26.6052 -0.094779 29.0097C-0.730018 32 0.595229 34.7266 3.13834 36.1639C5.79778 37.6671 9.09949 37.8849 11.5287 36.0597C13.8556 34.3116 14.5547 31.0133 13.9126 28.1541Z" fill="#E2E2F2"/>
<path id="Vector_4" d="M108.372 93.16C108.117 90.6231 107.722 88.1014 107.214 85.6029C106.165 80.4338 104.675 75.3553 102.944 70.3759C101.031 64.8743 98.8253 59.481 96.6157 54.0936C95.2182 50.6863 89.8953 52.8064 91.2987 56.2279C94.8616 64.915 98.5118 73.6733 100.746 82.8171C101.877 87.4437 102.75 92.2247 102.918 96.9938C102.997 99.241 102.493 101.111 101.023 102.826C99.5893 104.499 97.7999 105.891 96.0881 107.266C91.9278 110.607 87.4605 113.576 82.7409 116.068C81.3751 116.79 80.5305 118.252 81.1499 119.793C81.6807 121.114 83.5003 122.11 84.8759 121.384C89.5006 118.942 93.9371 116.171 98.0839 112.98C102.046 109.931 106.772 106.505 108.153 101.455C108.887 98.7689 108.648 95.9 108.372 93.16Z" fill="#CACAE8"/>
<path id="Vector_5" d="M74.4904 55.8304C70.0417 52.2004 64.2101 50.8476 58.6299 52.2489C53.8341 53.4533 49.9492 56.8038 46.6383 60.3204C43.4364 63.7214 40.5769 67.6023 36.7662 70.3664C33.3132 72.8709 29.1083 74.027 24.8488 73.6018C20.1429 73.1321 15.4971 71.0151 12.5242 67.2632C11.5642 66.0517 9.93104 65.5393 8.55726 66.4401C7.35226 67.2302 6.76908 69.1883 7.7339 70.4059C13.9068 78.1963 24.865 81.421 34.2898 78.1113C39.02 76.4501 42.7701 73.0805 46.1126 69.4518C49.2707 66.0234 52.17 62.1358 56.1291 59.5747C60.6277 56.6646 66.4329 56.6425 70.6689 60.0989C73.5208 62.4257 77.3501 58.1635 74.4904 55.8304Z" fill="#E1A3D8"/>
<path id="Vector_6" d="M136.021 107.918C132.375 107.377 131.529 113.042 135.181 113.583C138.828 114.123 139.674 108.459 136.021 107.918Z" fill="#E1A3D8"/>
<path id="Vector_7" d="M61.4062 112.264C58.7083 117.175 52.619 119.617 47.2009 118.395C41.7627 117.167 37.8609 112.685 36.9764 107.227C36.1074 101.865 38.7451 96.669 43.6775 94.3747C48.1688 92.2857 53.4463 93.0634 57.0495 96.3363C57.2224 96.4101 57.392 96.4966 57.5557 96.5969C62.638 99.7082 64.2221 107.138 61.4062 112.264ZM54.3848 100.792C54.0377 100.611 53.713 100.366 53.4294 100.069C51.3488 97.8893 47.2261 98.0264 44.7133 99.8128C42.1823 101.612 41.4999 104.933 42.5406 107.901C43.6613 111.099 46.2958 113.279 49.7192 113.431C52.914 113.572 56.3218 111.777 57.2606 108.603C58.1029 105.756 57.0049 102.479 54.3848 100.792Z" fill="#E2E2F2"/>
<path id="Vector_8" d="M66.9396 156.294C69.9791 159.24 74.0498 163.28 78.6985 162.578C81.8841 162.096 84.5302 159.699 87.237 158.133C89.5351 156.804 92.1177 155.808 94.7504 155.388C95.0224 154.552 95.3039 153.728 95.5891 152.926C97.4467 147.696 99.8468 142.394 103.206 137.946C106.417 133.694 110.653 130.113 115.968 128.943C120.855 127.867 125.937 128.869 129.707 132.228C130.775 133.179 130.58 135.035 129.612 135.953C128.519 136.99 126.949 136.803 125.887 135.858C122.985 133.273 118.391 133.304 114.968 134.741C110.212 136.737 107.015 141.153 104.613 145.533C102.902 148.653 101.473 151.932 100.333 155.305C103.58 155.754 106.639 157.117 108.99 159.601C112.199 162.992 113.858 168.233 111.942 172.68C110.229 176.655 105.986 179.26 101.67 179.165C96.1531 179.044 92.9421 174.281 92.5337 169.175C92.3262 166.581 92.6123 163.895 93.1612 161.245C90.8205 162.09 88.6611 163.438 86.4822 164.814C82.4101 167.384 77.8875 168.857 73.1853 167.094C69.2617 165.624 66.0852 162.798 63.1191 159.923C60.6749 157.554 64.5146 153.943 66.9396 156.294ZM106.721 165.455C105.173 162.351 102.193 160.663 98.8409 160.405C98.4108 162.12 98.0527 163.861 97.8642 165.614C97.651 167.594 97.536 169.88 98.4808 171.707C99.8979 174.448 102.791 174.387 105.193 172.875C106.145 172.276 107.008 171.238 107.326 169.966C107.706 168.453 107.409 166.835 106.721 165.455Z" fill="#F2D8EF"/>
<path id="Vector_9" d="M31.7583 136.83C21.9791 131.611 12.3884 126.042 3.03176 120.098C-1.26124 117.371 -5.74546 114.728 -9.68511 111.497C-12.3094 109.344 -15.2236 106.392 -15.1498 102.747C-15.0936 99.9664 -13.2852 97.4831 -11.8117 95.256C-10.0008 92.5191 -8.18877 89.7828 -6.3773 87.0462C-5.59262 85.8607 -5.60358 84.2903 -6.78378 83.3432C-7.81527 82.5155 -9.69906 82.558 -10.4878 83.7496C-12.2039 86.3422 -13.9201 88.9347 -15.6362 91.5273C-17.2569 93.9759 -18.9769 96.4288 -19.8287 99.2689C-21.3114 104.213 -19.508 109.002 -16.0935 112.674C-12.5986 116.433 -8.16144 119.109 -3.88855 121.882C1.25937 125.222 6.47741 128.454 11.7542 131.587C17.634 135.078 23.5954 138.429 29.628 141.649C30.8832 142.319 32.5599 141.537 33.1034 140.304C33.7142 138.92 33.0181 137.502 31.7583 136.83Z" fill="#E2BBDF"/>
<path id="Vector_10" d="M15.2747 281.861C9.06621 282.478 2.82533 282.639 -3.40295 282.245C-5.57023 282.109 -9.00596 282.369 -10.7305 280.76C-12.114 279.469 -12.245 277.122 -12.3637 275.358C-13.2047 262.84 -12.7557 250.101 -11.9374 237.596C-11.4669 230.405 -10.7748 223.231 -9.87785 216.082C-9.41966 212.43 -15.0848 211.577 -15.5447 215.242C-17.2779 229.058 -18.2006 242.955 -18.358 256.877C-18.4321 263.437 -18.581 270.128 -18.0034 276.669C-17.7723 279.285 -17.126 282.106 -15.3743 284.151C-13.3514 286.512 -10.4724 287.364 -7.47279 287.662C0.297222 288.435 8.20772 288.318 15.9713 287.547C19.6377 287.182 18.9502 281.495 15.2747 281.861Z" fill="#CACAE8"/>
<path id="Vector_11" d="M30.5784 338.865C19.1376 332.831 8.23862 325.823 -1.999 317.918C-3.77945 316.544 -3.59691 314.04 -1.62195 312.951C1.94926 310.983 5.66927 309.291 9.4929 307.881C9.91775 307.375 10.5188 306.999 11.2004 306.803C13.7145 306.084 16.2287 305.364 18.7427 304.645C20.8117 304.053 22.9152 303.29 25.0665 303.059C27.1858 302.831 29.3606 303.089 31.1286 304.376C33.3267 305.976 34.1321 308.624 34.789 311.131C37.0443 319.737 36.954 328.796 34.8857 337.422C34.4117 339.399 32.0484 339.64 30.5784 338.865ZM27.7876 309.018C27.507 309.171 27.1807 309.285 26.8007 309.342C19.1964 310.476 11.8736 312.722 4.96626 316.01C12.9921 321.943 21.4044 327.334 30.1461 332.151C31.1204 326.127 30.9184 319.923 29.5903 313.967C29.2856 312.6 29.033 310.119 27.9303 309.13C27.8848 309.088 27.8365 309.052 27.7876 309.018Z" fill="#BDBFE1"/>
<path id="Vector_12" d="M87.8325 263.626C86.5304 253.499 82.0093 243.559 73.636 237.376C69.0351 233.979 63.4981 231.763 57.7436 231.618C56.1973 231.579 54.7369 232.367 54.4903 234.031C54.2848 235.417 55.3467 237.244 56.9037 237.283C65.8335 237.508 73.6759 243.125 77.9199 250.827C82.5453 259.22 83.2105 269.176 82.0103 278.514C81.2101 284.74 79.6498 290.835 77.9252 296.861C77.499 298.351 78.9515 299.908 80.3387 300.114C82.0367 300.365 83.1646 299.195 83.592 297.701C86.7496 286.667 89.3151 275.157 87.8325 263.626Z" fill="#FFCCD7"/>
<path id="Vector_13" d="M56.6524 277.363C52.5399 280.354 46.7548 279.803 43.0637 276.371C41.4455 274.867 40.3384 272.919 39.8746 270.876C39.7596 270.618 39.6769 270.327 39.6377 270C38.954 264.294 43.0096 258.72 48.6968 257.724C53.546 256.875 58.6015 259.963 60.5193 264.387C62.4955 268.946 60.5888 274.501 56.6524 277.363ZM55.5311 269.049C55.9766 266.136 53.2947 263.415 50.5086 263.305C49.1792 263.252 47.9992 263.789 47.0986 264.639C47.0557 265.473 46.6387 266.285 45.9637 266.876C45.6551 267.147 45.4661 267.501 45.3638 267.892C45.2858 268.362 45.2696 268.838 45.3254 269.304C45.3278 269.325 45.3276 269.344 45.3297 269.365C45.4234 269.913 45.6149 270.44 45.8459 270.85C46.573 272.141 47.942 273.124 49.373 273.495C52.2215 274.233 55.0867 271.956 55.5311 269.049Z" fill="#E2BBDF"/>
<path id="Vector_14" d="M24.3646 236.745C20.4594 236.991 16.7576 234.453 14.8693 231.139C12.7639 227.444 12.7844 222.742 13.9839 218.76C15.4068 214.035 18.7268 209.901 19.0892 204.852C19.4136 200.332 17.7595 195.74 13.509 193.637C10.197 191.999 7.89651 197.246 11.1927 198.877C14.6453 200.585 13.3396 205.829 12.1542 208.613C10.1054 213.424 7.68607 217.817 7.49567 223.185C7.32029 228.132 8.65158 233.174 12.0329 236.903C15.3903 240.606 20.03 242.748 25.0613 242.432C28.7387 242.2 28.0399 236.514 24.3646 236.745Z" fill="#AEABDA"/>
<path id="Vector_15" d="M48.7711 161.795C48.3915 160.381 46.7281 159.265 45.2597 159.774C39.6461 161.721 34.4942 164.848 30.8183 169.586C26.9944 174.516 25.3342 180.878 26.6386 187.008C27.4051 190.612 32.9382 189.122 32.1718 185.519C30.1143 175.848 38.4221 168.194 46.7492 165.306C48.2101 164.799 49.1924 163.365 48.7711 161.795Z" fill="#E2E2F2"/>
<path id="Vector_16" d="M118.81 225.168C118.274 215.154 116.553 205.26 113.847 195.609C113.463 194.239 111.638 193.657 110.42 194.146C108.982 194.724 108.571 196.197 108.957 197.572C111.314 205.98 112.794 214.638 113.424 223.347C113.556 225.169 113.991 227.403 113.458 229.196C113.025 230.654 111.302 230.936 110.026 231.337C105.799 232.666 101.525 233.83 97.2102 234.838C95.8256 235.161 94.7299 236.252 94.915 237.773C95.0727 239.068 96.4575 240.392 97.8509 240.067C102.766 238.92 107.66 237.623 112.466 236.076C114.699 235.357 116.742 234.297 117.902 232.161C119.059 230.031 118.935 227.509 118.81 225.168Z" fill="#BDBFE1"/>
<path id="Vector_17" d="M68.495 218.309C66.8518 218.438 65.4318 217.579 63.9946 216.895C57.9762 214.031 51.9578 211.167 45.9394 208.304C44.4159 207.579 42.8345 206.907 42.4091 205.092C41.9899 203.304 43.2338 202.033 44.4801 200.989C47.0298 198.851 49.5966 196.734 52.18 194.638C57.2807 190.498 62.4479 186.442 67.6747 182.463C68.74 181.652 70.1191 181.418 71.1898 182.315C72.5651 182.233 74.0361 183.081 74.0859 184.853C74.2863 191.984 74.0524 199.122 73.3561 206.222C73.1961 207.854 73.0122 209.484 72.8044 211.11C72.6308 212.47 72.5756 213.948 72.1083 215.246C71.5238 216.87 70.2883 218.167 68.495 218.309ZM67.3268 212.668C67.3899 212.281 67.4319 211.888 67.4834 211.5C68.5123 203.76 68.9537 195.94 68.8781 188.132C65.5759 190.67 62.2969 193.238 59.0457 195.842C56.9813 197.495 54.9274 199.161 52.8842 200.84C51.9614 201.598 51.0409 202.359 50.1224 203.122C49.7713 203.414 49.421 203.707 49.0705 204C49.247 204.073 49.4109 204.143 49.5506 204.21C50.6593 204.737 51.768 205.265 52.8766 205.792C55.0147 206.81 57.1528 207.827 59.291 208.845C61.4291 209.862 63.5672 210.879 65.7053 211.897C66.2458 212.154 66.7863 212.411 67.3268 212.668Z" fill="#7B6EB9"/>
<path id="Vector_18" d="M6.23051 152.022C10.6713 153.673 13.8783 157.675 13.9205 162.464C13.933 163.894 12.4101 164.986 11.086 164.881C9.57767 164.761 8.68059 163.47 8.66811 162.047C8.64963 159.946 6.90839 158.152 5.12955 157.265C2.61018 156.008 -0.395885 156.392 -2.99718 157.157C-7.7448 158.554 -12.2222 161.506 -15.7822 165.01C-10.0918 171.383 -9.62938 181.619 -12.3698 189.539C-14.1259 194.614 -17.3904 199.104 -22.0256 201.887C-26.4702 204.556 -32.0569 205.278 -36.9597 203.524C-40.1537 202.381 -38.3582 197.427 -35.1618 198.571C-30.7722 200.142 -25.8763 198.748 -22.4423 195.731C-18.7689 192.503 -16.7841 187.626 -16.1866 182.854C-15.6407 178.495 -16.0759 173.729 -18.5889 169.994C-18.8045 169.674 -19.0383 169.36 -19.2868 169.054C-21.6515 172.183 -23.8662 175.54 -27.493 177.257C-31.2213 179.022 -36.6093 178.45 -39.0949 174.871C-42.3804 170.14 -38.844 164.193 -34.5954 161.539C-30.1857 158.785 -24.752 159.016 -20.2761 161.449C-20.1357 161.526 -20.0031 161.609 -19.8661 161.688C-16.6225 158.377 -12.7266 155.64 -8.52711 153.685C-4.02283 151.588 1.39046 150.223 6.23051 152.022ZM-24.5907 167.362C-24.1852 166.817 -23.7762 166.277 -23.3614 165.744C-24.8299 165.015 -26.4459 164.634 -28.0995 164.787C-29.9337 164.957 -31.6785 165.686 -33.0574 166.908C-34.2193 167.937 -35.3919 169.699 -35.0487 171.321C-34.9601 171.74 -34.7835 171.976 -34.3101 172.308C-33.9557 172.557 -33.1844 172.83 -32.8382 172.884C-31.3496 173.119 -30.1887 172.885 -28.8923 172.004C-27.1292 170.806 -25.8464 169.048 -24.5907 167.362Z" fill="#938CCB"/>
<g id="Group">
<path id="Vector_19" d="M463.917 84.1974C463.618 81.3071 463.342 78.4393 462.236 75.7265C460.397 71.2136 456.747 67.4988 452.372 65.4399C447.878 63.3246 442.769 62.7509 438.052 64.409C435.327 65.3667 432.799 66.8963 429.96 67.5178C428.004 67.9462 425.923 67.8782 423.975 67.4051C419.149 66.2327 415.183 62.9803 413.259 58.3401C412.666 56.9103 410.584 56.5861 409.383 57.2833C407.919 58.1336 407.763 59.7567 408.358 61.1908C412.164 70.3736 423.445 75.6751 432.815 72.6753C435.696 71.7528 438.322 70.1075 441.28 69.4214C443.223 68.9712 445.279 69.0697 447.205 69.5774C451.345 70.6689 455.062 73.5262 456.871 77.4938C458.021 80.0178 458.094 82.8956 458.409 85.6056C458.83 89.2329 459.606 92.4403 461.855 95.3839C462.792 96.6112 464.882 96.3902 465.864 95.4007C467.057 94.1987 466.8 92.5854 465.858 91.3532C464.361 89.3929 464.162 86.56 463.917 84.1974Z" fill="#938CCB"/>
<path id="Vector_20" d="M460.281 114.641C460.104 113.188 458.614 111.849 457.089 112.146C451.257 113.285 445.717 115.656 441.411 119.831C436.932 124.174 434.393 130.239 434.822 136.493C435.074 140.168 440.762 139.471 440.51 135.796C439.833 125.932 449.135 119.522 457.786 117.832C459.303 117.536 460.478 116.255 460.281 114.641Z" fill="#938CCB"/>
</g>
<path id="Vector_21" d="M535.338 33.4518C533.909 34.2403 533.552 35.9375 534.214 37.3423C537.87 45.1026 539.186 53.973 537.952 62.4645C536.662 71.3488 532.345 79.2889 525.561 85.1623C520.934 89.1679 515.503 92.131 510.007 94.7612C506.68 96.3536 509.458 101.363 512.774 99.7759C522.931 94.9157 532.809 88.5107 538.474 78.4709C543.274 69.9641 544.835 60.0154 543.761 50.3772C543.149 44.888 541.583 39.5699 539.23 34.576C538.57 33.1753 536.632 32.7386 535.338 33.4518Z" fill="#7B6EB9"/>
<path id="Vector_22" d="M456.337 258.498C457.575 257.433 457.576 255.699 456.64 254.459C451.472 247.612 448.366 239.2 447.833 230.636C447.276 221.675 449.874 213.02 455.311 205.881C459.019 201.013 463.727 197.001 468.568 193.301C471.499 191.061 467.753 186.726 464.832 188.959C455.887 195.796 447.53 204.088 444.043 215.075C441.088 224.385 441.598 234.442 444.625 243.656C446.348 248.903 448.971 253.788 452.297 258.194C453.23 259.43 455.217 259.461 456.337 258.498Z" fill="#CACAE8"/>
<path id="Vector_23" d="M627.792 64.5355C622.815 60.4281 617.427 56.3016 611.149 54.4512C604.744 52.5632 598.407 53.734 593.026 57.6698C587.974 61.3641 583.813 66.4969 579.809 71.2556C575.528 76.3427 571.508 81.6482 567.765 87.1432C563.447 93.4841 559.494 100.078 555.916 106.864C555.195 108.232 556.039 110.049 557.384 110.64C558.886 111.3 560.437 110.546 561.161 109.173C566.928 98.2333 573.738 87.8744 581.486 78.2346C585.184 73.634 589.02 68.9735 593.307 64.903C597.187 61.2185 601.755 58.5112 607.282 59.3961C613.764 60.4336 619.302 64.9561 624.213 69.0082C627.064 71.3605 630.635 66.8812 627.792 64.5355Z" fill="#F2D8EF"/>
<path id="Vector_24" d="M502.442 -19.6511C502.469 -21.115 501.18 -22.6484 499.628 -22.5656C493.695 -22.2489 487.878 -20.6711 483.033 -17.1357C477.993 -13.4581 474.636 -7.80469 474.19 -1.55242C473.929 2.1223 479.658 2.22314 479.92 -1.45115C480.622 -11.3138 490.725 -16.3682 499.527 -16.838C501.071 -16.9203 502.412 -18.0259 502.442 -19.6511Z" fill="#E1A3D8"/>
<path id="Vector_25" d="M590.277 172.006C587.219 176.854 580.794 179.329 575.243 178.126C569.001 176.772 564.167 172.349 560.275 167.507C559.554 166.61 558.845 165.674 558.157 164.707C553.726 168.217 550.003 172.428 544.905 175.073C539.968 177.634 534.302 178.659 528.774 178.296C517.761 177.574 507.97 170.307 503.454 160.355C501.925 156.986 507.254 154.876 508.771 158.221C514.006 169.758 527.529 175.504 539.46 171.203C545.364 169.075 549.381 164.553 554.089 160.642C554.412 160.374 554.74 160.113 555.072 159.858C550.221 151.24 547.826 141.026 553.139 132.034C553.929 130.697 555.362 129.886 556.918 130.572C558.215 131.144 559.167 133.018 558.38 134.35C555.05 139.986 555.389 146.654 557.784 152.58C558.361 154.008 559.04 155.43 559.803 156.826C563.318 154.98 567.16 153.792 571.158 153.413C576.774 152.882 582.913 153.782 587.431 157.405C591.9 160.988 593.411 167.038 590.277 172.006ZM585.348 163.451C582.901 159.978 577.968 158.937 573.97 158.983C570.091 159.028 566.298 159.955 562.868 161.669C564.474 163.884 566.271 165.946 568.18 167.746C571.572 170.945 576.333 173.936 581.132 172.177C584.729 170.859 587.896 167.066 585.348 163.451Z" fill="#CACAE8"/>
<path id="Vector_26" d="M562.033 -49.4027C558.998 -50.9318 556.884 -46.1045 559.903 -44.5837C564.618 -42.2079 566.377 -36.0882 564.962 -31.2394C563.276 -25.4604 558.059 -21.4168 552.606 -19.4376C546.014 -17.045 539.097 -17.5105 532.22 -17.4477C525.637 -17.3876 519.258 -15.8179 514.848 -10.6185C510.552 -5.55362 509.075 1.55645 511.153 7.86417C512.214 11.0844 517.102 9.11542 516.043 5.90115C514.431 1.00722 516.15 -4.66311 519.79 -8.22929C524.536 -12.8801 531.733 -12.2324 537.846 -12.166C544.916 -12.0893 552.251 -12.8884 558.544 -16.352C564.37 -19.5589 569.18 -24.9323 570.437 -31.6096C571.752 -38.5877 568.443 -46.1732 562.033 -49.4027Z" fill="#F2D8EF"/>
<path id="Vector_27" d="M490.487 182.525C490.429 182.065 490.262 181.649 489.987 181.276C489.547 180.732 488.964 180.344 488.258 180.24L487.631 180.147C487.274 180.08 486.928 180.105 486.593 180.223C486.255 180.28 485.949 180.418 485.675 180.637C485.386 180.835 485.165 181.088 485.012 181.396C484.803 181.682 484.678 182.005 484.639 182.366C484.635 182.601 484.632 182.837 484.629 183.072C484.687 183.532 484.854 183.948 485.129 184.321C485.569 184.865 486.152 185.253 486.858 185.357L487.485 185.45C487.842 185.517 488.188 185.492 488.523 185.375C488.861 185.317 489.167 185.179 489.441 184.96C489.73 184.762 489.951 184.509 490.104 184.202C490.313 183.915 490.438 183.592 490.478 183.231C490.481 182.996 490.484 182.76 490.487 182.525Z" fill="#E2BBDF"/>
<path id="Vector_28" d="M504.602 65.5202C502.652 69.8373 498.441 72.7641 493.659 72.4807C492.23 72.3961 491.244 70.8029 491.439 69.4894C491.661 67.9931 493.011 67.1861 494.431 67.2703C496.529 67.3946 498.438 65.7798 499.444 64.0659C500.87 61.6384 500.691 58.6141 500.104 55.9675C499.032 51.1373 496.391 46.471 493.136 42.6822C486.389 47.9249 476.142 47.6906 468.425 44.4192C463.48 42.3229 459.22 38.7617 456.757 33.9494C454.396 29.335 454.055 23.7138 456.139 18.9429C457.496 15.8349 462.318 17.9622 460.959 21.0726C459.094 25.3441 460.152 30.322 462.93 33.9521C465.902 37.8353 470.634 40.1463 475.356 41.0665C479.669 41.9071 484.455 41.7968 488.352 39.5441C488.687 39.3508 489.016 39.139 489.338 38.9119C486.376 36.3407 483.176 33.9037 481.709 30.1696C480.202 26.3311 481.138 20.9959 484.878 18.76C489.823 15.8044 495.518 19.7357 497.878 24.1536C500.327 28.739 499.727 34.1428 496.995 38.4418C496.909 38.5767 496.817 38.7033 496.728 38.8345C499.813 42.2947 502.28 46.3664 503.945 50.6879C505.732 55.3229 506.726 60.8149 504.602 65.5202ZM491.387 33.7367C491.903 34.1782 492.414 34.6228 492.918 35.0727C493.745 33.6575 494.235 32.0717 494.195 30.4119C494.15 28.571 493.541 26.7812 492.416 25.3229C491.467 24.094 489.789 22.8047 488.146 23.0368C487.722 23.0967 487.475 23.2568 487.111 23.7065C486.839 24.043 486.514 24.7937 486.436 25.1354C486.101 26.6042 486.255 27.7779 487.046 29.1308C488.122 30.9707 489.789 32.3697 491.387 33.7367Z" fill="#AEABDA"/>
<path id="Vector_29" d="M527.916 205.106C526.826 209.815 522.488 213.557 517.643 213.91C512.511 214.284 507.725 210.936 505.83 206.23C503.846 201.305 505.194 195.387 509.484 192.148C513.544 189.083 519.636 189.144 522.98 193.182C526.753 195.72 528.955 200.615 527.916 205.106ZM518.545 196.829C517.852 196.581 517.374 195.992 517.146 195.312C514.831 194.631 511.916 196.378 510.86 198.49C509.119 201.972 510.834 206.517 514.336 208.126C517.439 209.551 521.34 207.905 522.561 204.704C523.795 201.468 521.635 197.937 518.545 196.829Z" fill="#7B6EB9"/>
<path id="Vector_30" d="M544.571 246.777C540.949 242.603 535.706 240.043 530.201 239.648C525.08 239.28 520.329 241.241 515.628 242.971C510.966 244.687 506.419 245.874 501.578 244.089C496.98 242.394 492.94 238.672 490.334 234.574C487.586 230.253 486.014 225.035 487.3 219.954C488.129 216.677 483.083 215.156 482.25 218.451C479.543 229.151 485.702 240.127 494.381 246.173C499.25 249.565 505.01 251.032 510.864 249.894C515.857 248.924 520.372 246.375 525.333 245.285C531.054 244.027 536.882 245.95 540.724 250.377C542.952 252.946 546.788 249.333 544.571 246.777Z" fill="#E1A3D8"/>
<path id="Vector_31" d="M566.816 223.12C565.401 224.839 562.436 225.31 560.408 225.899C556.279 227.098 552.074 227.998 547.817 228.578C546.372 230.351 542.73 229.355 543.142 226.526C543.939 221.052 545.572 215.58 548.154 210.674C549.987 207.192 553.731 203.313 558.024 205.424C560.064 206.426 561.286 208.416 562.477 210.261C563.766 212.258 564.963 214.314 566.091 216.405C567.208 218.477 568.597 220.955 566.816 223.12ZM561.69 219.993C561.807 219.954 561.942 219.891 562.082 219.829C561.696 218.994 561.089 218.148 560.721 217.491C559.941 216.101 559.11 214.738 558.245 213.4C557.629 212.446 556.87 210.731 555.811 210.189C555.442 210 554.978 210.274 554.548 210.662C552.606 212.408 551.637 215.459 550.747 217.827C550.102 219.541 549.582 221.288 549.162 223.059C551.158 222.743 553.142 222.356 555.111 221.89C556.545 221.552 557.966 221.161 559.376 220.733C560.151 220.498 560.923 220.251 561.69 219.993Z" fill="#AEABDA"/>
<path id="Vector_32" d="M460.071 156.256C460.672 154.113 463.196 152.487 464.814 151.13C468.109 148.368 471.593 145.85 475.256 143.603C475.862 141.398 479.597 140.841 480.361 143.596C481.84 148.926 482.553 154.592 482.169 160.122C481.896 164.048 480.035 169.107 475.255 168.906C472.983 168.811 471.062 167.482 469.228 166.274C467.243 164.967 465.319 163.568 463.443 162.109C461.586 160.664 459.315 158.956 460.071 156.256ZM466.023 157.052C465.932 157.135 465.833 157.246 465.731 157.36C466.42 157.968 467.317 158.498 467.919 158.95C469.193 159.908 470.504 160.82 471.835 161.696C472.783 162.321 474.17 163.584 475.357 163.653C475.772 163.677 476.085 163.239 476.323 162.711C477.396 160.33 477.051 157.148 476.911 154.622C476.809 152.793 476.581 150.985 476.25 149.195C474.552 150.29 472.892 151.444 471.278 152.663C470.103 153.551 468.96 154.481 467.842 155.441C467.228 155.969 466.621 156.506 466.023 157.052Z" fill="#B9D5EA"/>
<path id="Vector_33" d="M522.882 130.635C517.815 132.757 512.748 134.879 507.682 137.001C505.277 138.008 502.753 139.207 500.055 138.017C497.871 137.054 496.888 134.967 496.403 132.974C495.912 130.957 495.688 128.901 495.184 126.882C494.65 124.743 493.963 122.639 493.145 120.566C491.537 116.488 489.451 112.554 486.878 108.871C486.019 107.641 486.072 106.076 487.424 105.187C488.611 104.407 490.695 104.572 491.552 105.799C496.49 112.866 499.931 120.633 501.568 128.774C501.863 130.237 502.245 131.861 502.544 133.22C502.687 133.104 503.229 132.97 503.37 132.914C504.487 132.471 505.585 131.989 506.69 131.526L520.602 125.7C524.004 124.275 526.253 129.224 522.882 130.635ZM502.668 133.356C502.625 133.347 502.595 133.337 502.571 133.327C502.715 133.872 502.832 133.391 502.668 133.356Z" fill="#FFCCD7"/>
<path id="Vector_34" d="M567.179 339.459C562.123 341.83 555.612 340.464 551.733 336.538C547.749 332.507 546.612 325.91 549.278 320.84C551.631 316.364 556.53 313.566 561.53 313.74C562.053 313.342 562.749 313.141 563.601 313.289C569.72 314.354 574.992 319.675 575.27 326.028C575.517 331.666 572.3 337.057 567.179 339.459ZM569.382 325.095C568.762 322.541 566.81 320.415 564.403 319.431C563.931 319.673 563.349 319.764 562.67 319.63C558.968 318.901 554.943 320.939 553.86 324.694C552.932 327.911 554.115 331.514 556.877 333.425C559.511 335.248 563.309 335.466 565.967 333.59C568.6 331.732 570.157 328.29 569.382 325.095Z" fill="#E1A3D8"/>
<path id="Vector_35" d="M457.071 286.403C457.098 284.939 455.809 283.405 454.257 283.488C448.324 283.805 442.507 285.383 437.662 288.918C432.622 292.596 429.264 298.249 428.819 304.501C428.558 308.176 434.287 308.277 434.549 304.603C435.251 294.74 445.354 289.686 454.156 289.216C455.7 289.133 457.041 288.028 457.071 286.403Z" fill="#E1A3D8"/>
<path id="Vector_36" d="M516.662 256.651C513.627 255.122 511.513 259.949 514.532 261.47C519.247 263.846 521.006 269.966 519.591 274.814C517.905 280.593 512.688 284.637 507.234 286.616C500.642 289.009 493.726 288.543 486.849 288.606C480.266 288.666 473.887 290.236 469.477 295.435C465.181 300.5 463.704 307.61 465.782 313.918C466.843 317.138 471.731 315.169 470.672 311.955C469.06 307.061 470.779 301.391 474.419 297.824C479.165 293.174 486.362 293.821 492.475 293.888C499.545 293.964 506.88 293.165 513.173 289.702C518.999 286.495 523.809 281.121 525.066 274.444C526.381 267.466 523.072 259.88 516.662 256.651Z" fill="#F2D8EF"/>
<path id="Vector_37" d="M552.87 270.729C549.517 270.232 548.739 275.442 552.098 275.939C555.452 276.436 556.23 271.227 552.87 270.729Z" fill="#AEABDA"/>
<path id="Vector_38" d="M537.384 309.167C534.341 301.637 523.743 300.105 516.722 300.402C515.3 300.462 514.265 302.006 514.427 303.337C514.61 304.843 515.936 305.692 517.363 305.632C520.788 305.487 524.407 305.927 527.608 307.2C529.604 307.993 532.12 309.351 532.673 311.63C533.023 313.073 532.46 314.552 531.898 315.86C531.126 317.66 530.238 319.415 529.399 321.184C527.67 324.83 525.941 328.475 524.212 332.121C522.756 335.19 527.581 337.31 529.032 334.25C531.062 329.971 533.092 325.692 535.121 321.412C536.933 317.593 539.109 313.435 537.384 309.167Z" fill="#BDBFE1"/>
<g id="Group_2">
<path id="Vector_39" d="M157.937 38.8625C157.638 35.9721 157.362 33.1043 156.256 30.3915C154.416 25.8787 150.766 22.1638 146.392 20.1049C141.897 17.9896 136.788 17.4159 132.071 19.0741C129.347 20.0317 126.818 21.5613 123.98 22.1828C122.023 22.6113 119.942 22.5433 117.994 22.0701C113.168 20.8977 109.202 17.6454 107.279 13.0052C106.686 11.5754 104.604 11.2512 103.403 11.9484C101.938 12.7987 101.783 14.4217 102.377 15.8559C106.184 25.0387 117.464 30.3402 126.834 27.3404C129.716 26.4179 132.341 24.7725 135.3 24.0865C137.242 23.6362 139.298 23.7347 141.225 24.2424C145.365 25.3339 149.082 28.1912 150.89 32.1588C152.041 34.6829 152.113 37.5606 152.428 40.2706C152.849 43.8979 153.626 47.1054 155.874 50.0489C156.812 51.2762 158.901 51.0552 159.883 50.0657C161.076 48.8638 160.819 47.2504 159.878 46.0183C158.38 44.0579 158.181 41.225 157.937 38.8625Z" fill="#938CCB"/>
<path id="Vector_40" d="M154.301 69.3062C154.124 67.8528 152.634 66.5136 151.109 66.8114C145.277 67.9501 139.736 70.3215 135.43 74.4963C130.951 78.8389 128.413 84.9044 128.842 91.1578C129.094 94.8331 134.782 94.1363 134.53 90.4613C133.853 80.5969 143.154 74.1866 151.805 72.4975C153.323 72.2012 154.497 70.9198 154.301 69.3062Z" fill="#938CCB"/>
</g>
<path id="Vector_41" d="M229.356 -11.8832C227.926 -11.0947 227.57 -9.39749 228.232 -7.99268C231.887 -0.232401 233.204 8.63804 231.97 17.1295C230.679 26.0138 226.363 33.954 219.579 39.8273C214.952 43.8329 209.521 46.796 204.025 49.4262C200.697 51.0186 203.475 56.028 206.792 54.441C216.948 49.5807 226.827 43.1758 232.492 33.1359C237.291 24.6291 238.853 14.6804 237.779 5.04221C237.167 -0.446929 235.6 -5.76508 233.248 -10.759C232.588 -12.1597 230.649 -12.5964 229.356 -11.8832Z" fill="#7B6EB9"/>
<path id="Vector_42" d="M150.354 213.163C151.592 212.098 151.593 210.364 150.658 209.124C145.489 202.277 142.383 193.865 141.851 185.301C141.294 176.34 143.892 167.685 149.329 160.546C153.037 155.678 157.745 151.666 162.586 147.966C165.517 145.726 161.771 141.391 158.85 143.624C149.905 150.461 141.548 158.753 138.061 169.74C135.106 179.05 135.616 189.107 138.642 198.321C140.366 203.568 142.989 208.453 146.315 212.859C147.248 214.095 149.235 214.126 150.354 213.163Z" fill="#CACAE8"/>
<path id="Vector_43" d="M366.628 21.142C360.42 21.759 354.179 21.92 347.951 21.5267C345.783 21.3899 342.348 21.6505 340.623 20.0415C339.24 18.7506 339.108 16.4031 338.99 14.639C338.149 2.12173 338.598 -10.618 339.416 -23.1231C339.887 -30.3134 340.579 -37.4873 341.476 -44.6369C341.934 -48.2888 336.269 -49.1415 335.809 -45.4765C334.076 -31.6609 333.153 -17.764 332.996 -3.84172C332.921 2.71803 332.773 9.40933 333.35 15.95C333.581 18.5667 334.227 21.387 335.979 23.4317C338.002 25.7932 340.881 26.6448 343.881 26.9432C351.651 27.7163 359.561 27.5997 367.325 26.828C370.991 26.4636 370.304 20.7765 366.628 21.142Z" fill="#CACAE8"/>
<path id="Vector_44" d="M321.812 19.2006C316.834 15.0932 311.447 10.9667 305.169 9.11627C298.764 7.22824 292.427 8.399 287.045 12.3348C281.994 16.0292 277.833 21.162 273.829 25.9206C269.548 31.0078 265.527 36.3132 261.785 41.8083C257.466 48.1491 253.513 54.7432 249.936 61.529C249.215 62.8972 250.059 64.714 251.404 65.3047C252.906 65.9646 254.456 65.2107 255.18 63.8376C260.947 52.8983 267.757 42.5394 275.505 32.8997C279.203 28.299 283.04 23.6386 287.326 19.568C291.206 15.8835 295.775 13.1763 301.302 14.0611C307.783 15.0986 313.322 19.6212 318.233 23.6733C321.083 26.0256 324.655 21.5462 321.812 19.2006Z" fill="#F2D8EF"/>
<path id="Vector_45" d="M381.93 78.1462C370.489 72.112 359.59 65.1042 349.353 57.1997C347.572 55.8251 347.755 53.3208 349.73 52.2324C353.301 50.2643 357.021 48.5726 360.844 47.1625C361.269 46.6566 361.87 46.2798 362.552 46.0847C365.066 45.3651 367.58 44.6455 370.094 43.926C372.163 43.3339 374.267 42.5712 376.418 42.3402C378.537 42.1126 380.712 42.3705 382.48 43.6575C384.678 45.2574 385.484 47.9052 386.141 50.4121C388.396 59.018 388.306 68.0772 386.237 76.7035C385.763 78.6803 383.4 78.9215 381.93 78.1462ZM379.139 48.2989C378.859 48.4528 378.532 48.5668 378.152 48.6234C370.548 49.7572 363.225 52.0028 356.318 55.2917C364.344 61.2242 372.756 66.615 381.498 71.4323C382.472 65.4084 382.27 59.2044 380.942 53.2483C380.637 51.8817 380.385 49.4006 379.282 48.4108C379.236 48.3697 379.188 48.3337 379.139 48.2989Z" fill="#BDBFE1"/>
<path id="Vector_46" d="M320.504 86.2952C315.94 89.3552 309.917 88.8756 305.436 85.919C300.702 82.7958 298.957 77.0576 300.701 71.7497C302.349 66.7332 307.138 62.5952 312.517 62.4004C313.218 62.375 313.896 62.5482 314.448 62.8958C319.641 62.6558 324.308 67.204 325.507 72.4603C326.645 77.4548 324.872 83.3668 320.504 86.2952ZM319.893 73.4891C319.622 72.2821 318.866 70.8346 317.963 70.0015C317.01 69.1237 315.047 67.9786 313.727 68.7381C312.643 69.362 311.36 69.4777 310.374 68.787C308.129 69.8343 306.397 71.9401 305.886 74.3447C305.25 77.3349 306.576 80.0616 309.119 81.4989C311.778 83.0021 315.08 83.2199 317.509 81.3947C319.836 79.6465 320.535 76.3483 319.893 73.4891Z" fill="#AEABDA"/>
<path id="Vector_47" d="M439.186 2.90699C437.884 -7.22036 433.363 -17.1602 424.99 -23.343C420.389 -26.7403 414.852 -28.9562 409.097 -29.1009C407.551 -29.1398 406.09 -28.352 405.844 -26.6881C405.638 -25.3018 406.7 -23.4749 408.257 -23.4357C417.187 -23.2111 425.029 -17.5937 429.273 -9.89235C433.899 -1.49859 434.564 8.45667 433.364 17.7947C432.564 24.021 431.003 30.1161 429.279 36.1421C428.852 37.6315 430.305 39.189 431.692 39.3945C433.39 39.6461 434.518 38.4756 434.946 36.9817C438.103 25.9483 440.669 14.4384 439.186 2.90699Z" fill="#E1A3D8"/>
<path id="Vector_48" d="M408.004 16.6447C403.891 19.6352 398.106 19.0839 394.415 15.6526C392.797 14.1484 391.69 12.1998 391.226 10.1577C391.111 9.89928 391.028 9.60842 390.989 9.2816C390.306 3.57511 394.361 -1.99855 400.048 -2.99442C404.898 -3.84366 409.953 -0.755572 411.871 3.66852C413.847 8.22723 411.94 13.7824 408.004 16.6447ZM406.883 8.32983C407.328 5.41691 404.646 2.69635 401.86 2.58618C400.531 2.53354 399.351 3.0704 398.45 3.92017C398.407 4.75443 397.99 5.5666 397.315 6.15765C397.007 6.42784 396.818 6.78176 396.715 7.17282C396.637 7.64343 396.621 8.11949 396.677 8.58515C396.679 8.60617 396.679 8.62562 396.681 8.64643C396.775 9.19435 396.966 9.72111 397.198 10.1313C397.925 11.4221 399.294 12.4056 400.725 12.7763C403.573 13.5142 406.438 11.2369 406.883 8.32983Z" fill="#E2BBDF"/>
<path id="Vector_49" d="M414.355 138.495C414.099 135.958 413.704 133.436 413.197 130.938C412.147 125.769 410.658 120.69 408.926 115.711C407.013 110.209 404.808 104.816 402.598 99.4285C401.201 96.0212 395.878 98.1414 397.281 101.563C400.844 110.25 404.494 119.008 406.729 128.152C407.86 132.779 408.732 137.56 408.9 142.329C408.98 144.576 408.476 146.446 407.006 148.161C405.572 149.834 403.782 151.226 402.07 152.601C397.91 155.942 393.443 158.911 388.723 161.403C387.357 162.125 386.513 163.587 387.132 165.128C387.663 166.449 389.483 167.445 390.858 166.719C395.483 164.277 399.92 161.506 404.066 158.315C408.029 155.266 412.754 151.84 414.135 146.79C414.87 144.104 414.63 141.235 414.355 138.495Z" fill="#CACAE8"/>
<path id="Vector_50" d="M380.473 101.165C376.024 97.5353 370.193 96.1826 364.612 97.5839C359.816 98.7883 355.932 102.139 352.621 105.655C349.419 109.056 346.559 112.937 342.749 115.701C339.296 118.206 335.091 119.362 330.831 118.937C326.125 118.467 321.48 116.35 318.507 112.598C317.547 111.387 315.913 110.874 314.54 111.775C313.335 112.565 312.752 114.523 313.716 115.741C319.889 123.531 330.847 126.756 340.272 123.446C345.002 121.785 348.753 118.415 352.095 114.787C355.253 111.358 358.152 107.471 362.112 104.91C366.61 102 372.415 101.977 376.651 105.434C379.503 107.761 383.332 103.499 380.473 101.165Z" fill="#E1A3D8"/>
<path id="Vector_51" d="M442.002 153.253C438.355 152.712 437.509 158.377 441.162 158.918C444.808 159.458 445.654 153.794 442.002 153.253Z" fill="#CACAE8"/>
<path id="Vector_52" d="M284.295 126.671C281.237 131.519 274.811 133.995 269.26 132.791C263.019 131.437 258.184 127.014 254.293 122.172C253.572 121.275 252.862 120.34 252.174 119.372C247.744 122.882 244.02 127.093 238.922 129.738C233.985 132.299 228.32 133.324 222.791 132.962C211.778 132.239 201.987 124.973 197.472 115.021C195.943 111.651 201.271 109.541 202.789 112.886C208.024 124.424 221.546 130.17 233.478 125.868C239.381 123.74 243.398 119.218 248.107 115.307C248.429 115.039 248.757 114.779 249.089 114.523C244.239 105.905 241.843 95.6916 247.157 86.6993C247.947 85.3623 249.38 84.5517 250.936 85.2374C252.232 85.8092 253.185 87.683 252.398 89.015C249.067 94.6516 249.406 101.319 251.801 107.245C252.378 108.673 253.058 110.095 253.821 111.491C257.335 109.646 261.177 108.457 265.175 108.079C270.792 107.547 276.931 108.448 281.448 112.07C285.917 115.653 287.428 121.703 284.295 126.671ZM279.366 118.116C276.919 114.643 271.986 113.602 267.988 113.648C264.108 113.693 260.316 114.62 256.886 116.335C258.492 118.55 260.289 120.611 262.197 122.411C265.59 125.61 270.351 128.601 275.149 126.843C278.747 125.524 281.913 121.731 279.366 118.116Z" fill="#CACAE8"/>
<path id="Vector_53" d="M367.387 157.599C364.689 162.51 358.599 164.952 353.181 163.73C347.743 162.502 343.841 158.02 342.957 152.562C342.088 147.2 344.726 142.004 349.658 139.71C354.149 137.621 359.427 138.398 363.03 141.671C363.203 141.745 363.373 141.832 363.536 141.932C368.618 145.043 370.203 152.473 367.387 157.599ZM360.365 146.126C360.018 145.946 359.694 145.701 359.41 145.404C357.329 143.224 353.207 143.361 350.694 145.148C348.163 146.947 347.48 150.267 348.521 153.236C349.642 156.434 352.276 158.614 355.7 158.766C358.894 158.907 362.302 157.112 363.241 153.938C364.083 151.091 362.985 147.814 360.365 146.126Z" fill="#E2E2F2"/>
<path id="Vector_54" d="M282.274 83.1627C282.216 82.703 282.049 82.2867 281.774 81.9138C281.334 81.3704 280.751 80.9824 280.045 80.8777L279.418 80.7848C279.061 80.7181 278.715 80.7433 278.381 80.8604C278.042 80.9176 277.736 81.0558 277.462 81.2749C277.173 81.4732 276.952 81.726 276.799 82.0335C276.59 82.3198 276.465 82.6433 276.426 83.0039L276.416 83.7103C276.474 84.17 276.641 84.5863 276.916 84.9592C277.356 85.5027 277.939 85.8907 278.645 85.9953L279.272 86.0882C279.629 86.1549 279.975 86.1297 280.31 86.0126C280.648 85.9554 280.955 85.8172 281.228 85.5982C281.517 85.3998 281.738 85.147 281.891 84.8396C282.101 84.5533 282.225 84.2298 282.265 83.8691C282.268 83.6336 282.271 83.3982 282.274 83.1627Z" fill="#B9D5EA"/>
<path id="Vector_55" d="M260.788 7.56092C260.73 7.10121 260.563 6.68491 260.288 6.31201C259.848 5.76854 259.265 5.38056 258.559 5.27594L257.931 5.18303C257.575 5.11634 257.229 5.14154 256.894 5.25864C256.556 5.31584 256.249 5.45397 255.976 5.67306C255.687 5.8714 255.466 6.12426 255.313 6.43165C255.103 6.71795 254.979 7.04145 254.939 7.40216C254.936 7.6376 254.933 7.87305 254.93 8.10852C254.988 8.56818 255.155 8.98447 255.429 9.3574C255.87 9.90087 256.453 10.2889 257.159 10.3935L257.786 10.4864C258.143 10.5531 258.489 10.5279 258.823 10.4108C259.162 10.3536 259.468 10.2154 259.742 9.99635C260.031 9.79804 260.252 9.54518 260.405 9.23776C260.614 8.95146 260.739 8.62796 260.778 8.26728C260.782 8.03182 260.785 7.79636 260.788 7.56092Z" fill="#B9D5EA"/>
<path id="Vector_56" d="M184.505 137.19C184.446 136.73 184.28 136.314 184.005 135.941C183.564 135.397 182.981 135.009 182.275 134.905L181.648 134.812C181.291 134.745 180.946 134.77 180.611 134.888C180.272 134.945 179.966 135.083 179.692 135.302C179.403 135.5 179.182 135.753 179.029 136.061C178.82 136.347 178.696 136.67 178.656 137.031C178.653 137.267 178.65 137.502 178.646 137.737C178.705 138.197 178.871 138.613 179.146 138.986C179.587 139.53 180.17 139.918 180.876 140.022L181.503 140.115C181.86 140.182 182.206 140.157 182.54 140.04C182.879 139.982 183.185 139.844 183.459 139.625C183.748 139.427 183.969 139.174 184.122 138.867C184.331 138.58 184.455 138.257 184.495 137.896C184.498 137.661 184.502 137.425 184.505 137.19Z" fill="#E2BBDF"/>
<path id="Vector_57" d="M372.92 201.628C375.96 204.575 380.03 208.615 384.679 207.913C387.865 207.431 390.511 205.034 393.218 203.468C395.516 202.139 398.098 201.143 400.731 200.723C401.003 199.887 401.284 199.063 401.57 198.261C403.427 193.03 405.827 187.729 409.186 183.281C412.398 179.029 416.633 175.448 421.949 174.278C426.836 173.202 431.917 174.204 435.688 177.563C436.755 178.514 436.56 180.37 435.593 181.288C434.499 182.325 432.929 182.138 431.868 181.193C428.966 178.608 424.372 178.639 420.948 180.076C416.192 182.072 412.995 186.488 410.594 190.868C408.882 193.988 407.454 197.267 406.313 200.64C409.561 201.089 412.62 202.451 414.97 204.936C418.179 208.327 419.838 213.568 417.923 218.015C416.21 221.99 411.967 224.595 407.65 224.5C402.134 224.379 398.923 219.616 398.514 214.51C398.307 211.916 398.593 209.23 399.142 206.58C396.801 207.424 394.642 208.773 392.463 210.149C388.391 212.719 383.868 214.192 379.166 212.429C375.242 210.959 372.066 208.133 369.1 205.258C366.655 202.889 370.495 199.278 372.92 201.628ZM412.701 210.79C411.154 207.686 408.174 205.998 404.821 205.74C404.391 207.455 404.033 209.196 403.845 210.949C403.632 212.929 403.517 215.215 404.461 217.042C405.878 219.783 408.771 219.722 411.173 218.21C412.125 217.611 412.988 216.573 413.307 215.301C413.686 213.788 413.389 212.17 412.701 210.79Z" fill="#F2D8EF"/>
<path id="Vector_58" d="M198.621 20.1852C196.672 24.5023 192.46 27.4292 187.678 27.1458C186.25 27.0611 185.264 25.468 185.459 24.1545C185.68 22.6582 187.03 21.8512 188.451 21.9353C190.549 22.0597 192.457 20.4448 193.464 18.7309C194.889 16.3034 194.711 13.2791 194.124 10.6326C193.052 5.80235 190.41 1.13601 187.155 -2.65281C180.409 2.58991 170.162 2.35564 162.445 -0.915758C157.499 -3.01207 153.239 -6.57329 150.777 -11.3855C148.415 -15.9999 148.075 -21.6211 150.158 -26.3921C151.516 -29.5001 156.337 -27.3727 154.979 -24.2623C153.113 -19.9908 154.171 -15.013 156.949 -11.3828C159.921 -7.49961 164.653 -5.18869 169.375 -4.26844C173.688 -3.42787 178.474 -3.53815 182.372 -5.79083C182.706 -5.98412 183.035 -6.196 183.357 -6.42306C180.396 -8.99426 177.196 -11.4313 175.729 -15.1653C174.221 -19.0038 175.157 -24.339 178.898 -26.575C183.842 -29.5306 189.538 -25.5993 191.897 -21.1813C194.347 -16.596 193.746 -11.1922 191.014 -6.89316C190.928 -6.7583 190.836 -6.63169 190.748 -6.50048C193.832 -3.04022 196.299 1.03148 197.965 5.35292C199.751 9.98794 200.746 15.4799 198.621 20.1852ZM185.407 -11.5982C185.923 -11.1567 186.433 -10.7122 186.938 -10.2622C187.765 -11.6774 188.255 -13.2633 188.214 -14.923C188.169 -16.764 187.561 -18.5538 186.435 -20.0121C185.486 -21.241 183.808 -22.5302 182.166 -22.2982C181.741 -22.2382 181.494 -22.0781 181.131 -21.6285C180.858 -21.2919 180.533 -20.5412 180.456 -20.1996C180.121 -18.7307 180.275 -17.557 181.066 -16.2041C182.142 -14.3642 183.809 -12.9652 185.407 -11.5982Z" fill="#AEABDA"/>
<path id="Vector_59" d="M221.936 159.771C220.846 164.48 216.508 168.222 211.663 168.575C206.53 168.949 201.745 165.601 199.849 160.895C197.866 155.971 199.214 150.052 203.503 146.813C207.563 143.748 213.655 143.809 217 147.847C220.773 150.385 222.975 155.28 221.936 159.771ZM212.565 151.494C211.871 151.246 211.393 150.657 211.165 149.977C208.85 149.296 205.936 151.043 204.879 153.155C203.139 156.637 204.854 161.182 208.356 162.791C211.458 164.216 215.36 162.57 216.58 159.369C217.815 156.133 215.655 152.602 212.565 151.494Z" fill="#7B6EB9"/>
<path id="Vector_60" d="M238.59 201.442C234.968 197.268 229.725 194.708 224.22 194.313C219.1 193.946 214.349 195.906 209.648 197.636C204.985 199.352 200.439 200.539 195.598 198.754C191 197.059 186.96 193.337 184.354 189.239C181.606 184.918 180.034 179.7 181.319 174.619C182.148 171.342 177.103 169.821 176.27 173.116C173.563 183.816 179.721 194.792 188.4 200.838C193.269 204.23 199.03 205.697 204.883 204.559C209.876 203.589 214.392 201.04 219.353 199.95C225.074 198.693 230.902 200.615 234.743 205.043C236.971 207.611 240.808 203.998 238.59 201.442Z" fill="#FFCCD7"/>
<path id="Vector_61" d="M260.835 177.785C259.421 179.505 256.455 179.975 254.427 180.564C250.298 181.763 246.094 182.663 241.836 183.243C240.392 185.016 236.749 184.02 237.161 181.191C237.958 175.717 239.592 170.245 242.174 165.339C244.006 161.857 247.751 157.978 252.044 160.089C254.084 161.091 255.306 163.081 256.497 164.926C257.786 166.923 258.982 168.979 260.11 171.071C261.227 173.142 262.617 175.62 260.835 177.785ZM255.71 174.658C255.827 174.619 255.962 174.557 256.102 174.494C255.716 173.659 255.109 172.813 254.74 172.156C253.961 170.766 253.13 169.403 252.265 168.065C251.649 167.111 250.89 165.396 249.831 164.854C249.462 164.665 248.998 164.939 248.567 165.327C246.625 167.073 245.657 170.124 244.766 172.492C244.122 174.206 243.601 175.953 243.182 177.725C245.178 177.408 247.162 177.021 249.13 176.555C250.565 176.217 251.985 175.826 253.396 175.398C254.171 175.163 254.942 174.916 255.71 174.658Z" fill="#AEABDA"/>
<path id="Vector_62" d="M154.089 110.922C154.69 108.778 157.214 107.152 158.832 105.796C162.126 103.034 165.611 100.515 169.273 98.2682C169.88 96.0633 173.615 95.5067 174.379 98.2611C175.857 103.592 176.57 109.257 176.186 114.788C175.914 118.713 174.052 123.772 169.272 123.572C167.001 123.476 165.08 122.148 163.246 120.94C161.261 119.632 159.337 118.233 157.461 116.774C155.603 115.329 153.332 113.621 154.089 110.922ZM160.04 111.717C159.95 111.8 159.851 111.912 159.748 112.025C160.438 112.633 161.335 113.163 161.937 113.616C163.211 114.573 164.521 115.486 165.852 116.362C166.801 116.987 168.187 118.249 169.375 118.319C169.789 118.343 170.103 117.905 170.341 117.377C171.413 114.995 171.069 111.813 170.928 109.287C170.827 107.459 170.599 105.651 170.268 103.86C168.569 104.955 166.91 106.109 165.296 107.328C164.12 108.217 162.978 109.147 161.86 110.107C161.245 110.634 160.639 111.171 160.04 111.717Z" fill="#B9D5EA"/>
<path id="Vector_63" d="M216.9 85.3005C211.833 87.4223 206.766 89.5442 201.699 91.666C199.295 92.6729 196.771 93.8721 194.072 92.6823C191.888 91.7192 190.905 89.6322 190.42 87.639C189.93 85.6222 189.705 83.5664 189.201 81.5469C188.668 79.4081 187.98 77.3047 187.163 75.2314C185.555 71.1532 183.469 67.2195 180.896 63.5367C180.037 62.3066 180.09 60.7413 181.442 59.8524C182.629 59.0722 184.713 59.2369 185.57 60.464C190.507 67.5313 193.948 75.2981 195.586 83.4391C195.88 84.9022 196.263 86.5267 196.562 87.8848C196.705 87.7691 197.246 87.6352 197.388 87.5789C198.505 87.1361 199.602 86.6541 200.708 86.191L214.62 80.3649C218.022 78.9403 220.27 83.8889 216.9 85.3005ZM196.685 88.0215C196.643 88.0126 196.613 88.0027 196.588 87.9924C196.733 88.5371 196.85 88.0561 196.685 88.0215Z" fill="#E1A3D8"/>
<path id="Vector_64" d="M337.739 182.165C327.96 176.945 318.369 171.377 309.012 165.433C304.719 162.706 300.235 160.063 296.295 156.832C293.671 154.679 290.757 151.727 290.831 148.082C290.887 145.301 292.695 142.818 294.169 140.591C295.98 137.854 297.792 135.118 299.603 132.381C300.388 131.195 300.377 129.625 299.197 128.678C298.165 127.85 296.281 127.893 295.493 129.084C293.777 131.677 292.06 134.269 290.344 136.862C288.724 139.311 287.004 141.763 286.152 144.604C284.669 149.547 286.472 154.337 289.887 158.009C293.382 161.767 297.819 164.444 302.092 167.216C307.24 170.557 312.458 173.789 317.735 176.922C323.614 180.413 329.576 183.764 335.608 186.984C336.864 187.654 338.54 186.871 339.084 185.639C339.695 184.254 338.999 182.837 337.739 182.165Z" fill="#E2BBDF"/>
<path id="Vector_65" d="M183.985 294.171C182.555 294.959 182.199 296.656 182.86 298.061C186.516 305.822 187.833 314.692 186.599 323.183C185.308 332.068 180.992 340.008 174.208 345.881C169.581 349.887 164.15 352.85 158.654 355.48C155.326 357.073 158.104 362.082 161.421 360.495C171.577 355.635 181.456 349.23 187.12 339.19C191.92 330.683 193.482 320.734 192.408 311.096C191.796 305.607 190.229 300.289 187.877 295.295C187.217 293.894 185.278 293.458 183.985 294.171Z" fill="#7B6EB9"/>
<path id="Vector_66" d="M261.199 294.124C256.142 296.495 249.632 295.129 245.752 291.203C241.769 287.172 240.631 280.575 243.297 275.505C245.65 271.029 250.55 268.231 255.55 268.405C256.073 268.007 256.769 267.807 257.621 267.955C263.739 269.019 269.012 274.34 269.29 280.694C269.537 286.331 266.32 291.722 261.199 294.124ZM263.401 279.76C262.782 277.206 260.83 275.08 258.423 274.097C257.951 274.338 257.369 274.429 256.689 274.295C252.988 273.566 248.963 275.604 247.88 279.359C246.952 282.577 248.135 286.179 250.896 288.091C253.53 289.914 257.329 290.131 259.987 288.256C262.62 286.397 264.176 282.956 263.401 279.76Z" fill="#E1A3D8"/>
<path id="Vector_67" d="M321.257 327.196C315.049 327.813 308.808 327.974 302.579 327.58C300.412 327.444 296.976 327.704 295.252 326.095C293.868 324.804 293.737 322.457 293.619 320.693C292.778 308.175 293.227 295.436 294.045 282.931C294.515 275.74 295.208 268.566 296.105 261.417C296.563 257.765 290.898 256.912 290.438 260.577C288.705 274.393 287.782 288.29 287.624 302.212C287.55 308.772 287.401 315.463 287.979 322.004C288.21 324.62 288.856 327.441 290.608 329.485C292.631 331.847 295.51 332.698 298.51 332.997C306.28 333.77 314.19 333.653 321.954 332.882C325.62 332.517 324.933 326.83 321.257 327.196Z" fill="#CACAE8"/>
<path id="Vector_68" d="M276.441 325.254C271.463 321.147 266.075 317.02 259.798 315.17C253.393 313.282 247.056 314.453 241.674 318.389C236.623 322.083 232.462 327.216 228.457 331.974C224.177 337.061 220.156 342.367 216.414 347.862C212.095 354.203 208.142 360.797 204.565 367.583C203.844 368.951 204.687 370.768 206.032 371.358C207.535 372.018 209.085 371.264 209.809 369.891C215.576 358.952 222.386 348.593 230.134 338.953C233.832 334.353 237.669 329.692 241.955 325.622C245.835 321.937 250.403 319.23 255.931 320.115C262.412 321.152 267.951 325.675 272.862 329.727C275.712 332.079 279.284 327.6 276.441 325.254Z" fill="#F2D8EF"/>
<path id="Vector_69" d="M393.813 308.961C392.511 298.834 387.99 288.894 379.617 282.711C375.016 279.314 369.479 277.098 363.724 276.953C362.178 276.914 360.717 277.702 360.471 279.366C360.265 280.752 361.327 282.579 362.884 282.618C371.814 282.843 379.656 288.46 383.9 296.162C388.526 304.555 389.191 314.511 387.991 323.849C387.191 330.075 385.63 336.17 383.906 342.196C383.479 343.685 384.932 345.243 386.319 345.448C388.017 345.7 389.145 344.53 389.573 343.036C392.73 332.002 395.296 320.492 393.813 308.961Z" fill="#E1A3D8"/>
<path id="Vector_70" d="M362.633 322.698C358.52 325.689 352.735 325.138 349.044 321.706C347.426 320.202 346.319 318.254 345.855 316.211C345.74 315.953 345.657 315.662 345.618 315.335C344.934 309.629 348.99 304.055 354.677 303.059C359.526 302.21 364.582 305.298 366.5 309.722C368.476 314.281 366.569 319.836 362.633 322.698ZM361.512 314.384C361.957 311.471 359.275 308.75 356.489 308.64C355.16 308.587 353.98 309.124 353.079 309.974C353.036 310.808 352.619 311.62 351.944 312.211C351.636 312.482 351.447 312.835 351.344 313.227C351.266 313.697 351.25 314.173 351.306 314.639C351.308 314.66 351.308 314.679 351.31 314.7C351.404 315.248 351.595 315.775 351.826 316.185C352.553 317.476 353.922 318.459 355.353 318.83C358.202 319.568 361.067 317.291 361.512 314.384Z" fill="#E2BBDF"/>
<path id="Vector_71" d="M330.347 282.08C326.442 282.326 322.74 279.788 320.852 276.474C318.746 272.779 318.767 268.077 319.966 264.094C321.389 259.37 324.709 255.236 325.072 250.187C325.396 245.666 323.742 241.074 319.491 238.972C316.179 237.334 313.879 242.581 317.175 244.212C320.628 245.92 319.322 251.164 318.137 253.948C316.088 258.759 313.668 263.152 313.478 268.52C313.303 273.467 314.634 278.509 318.015 282.238C321.373 285.941 326.012 288.083 331.044 287.766C334.721 287.535 334.022 281.849 330.347 282.08Z" fill="#AEABDA"/>
<path id="Vector_72" d="M151.091 241.068C151.118 239.604 149.829 238.07 148.277 238.153C142.343 238.47 136.527 240.048 131.682 243.583C126.642 247.261 123.284 252.914 122.839 259.166C122.577 262.841 128.306 262.942 128.568 259.268C129.27 249.405 139.374 244.351 148.175 243.881C149.719 243.798 151.06 242.693 151.091 241.068Z" fill="#FFCCD7"/>
<path id="Vector_73" d="M354.752 207.13C354.372 205.716 352.709 204.599 351.24 205.109C345.627 207.056 340.475 210.182 336.799 214.921C332.975 219.85 331.315 226.212 332.619 232.343C333.386 235.947 338.919 234.457 338.152 230.854C336.095 221.183 344.403 213.529 352.73 210.64C354.191 210.134 355.173 208.7 354.752 207.13Z" fill="#E2E2F2"/>
<path id="Vector_74" d="M210.68 211.316C207.645 209.787 205.531 214.615 208.549 216.135C213.265 218.511 215.023 224.631 213.609 229.48C211.922 235.259 206.705 239.302 201.252 241.281C194.66 243.674 187.744 243.208 180.867 243.271C174.284 243.331 167.905 244.901 163.495 250.101C159.199 255.165 157.721 262.275 159.799 268.583C160.86 271.803 165.748 269.834 164.689 266.62C163.077 261.726 164.797 256.056 168.436 252.49C173.182 247.839 180.379 248.487 186.493 248.553C193.563 248.63 200.898 247.831 207.191 244.367C213.017 241.16 217.826 235.787 219.084 229.109C220.398 222.131 217.09 214.546 210.68 211.316Z" fill="#F2D8EF"/>
<path id="Vector_75" d="M424.79 270.503C424.254 260.489 422.533 250.595 419.827 240.944C419.443 239.574 417.618 238.991 416.4 239.481C414.963 240.058 414.552 241.532 414.937 242.907C417.295 251.315 418.775 259.973 419.404 268.682C419.536 270.504 419.971 272.738 419.438 274.531C419.005 275.989 417.282 276.271 416.007 276.672C411.78 278 407.505 279.165 403.191 280.172C401.806 280.495 400.71 281.586 400.895 283.107C401.053 284.403 402.438 285.727 403.831 285.402C408.747 284.254 413.64 282.957 418.446 281.411C420.68 280.692 422.722 279.632 423.883 277.496C425.04 275.366 424.916 272.844 424.79 270.503Z" fill="#BDBFE1"/>
<path id="Vector_76" d="M374.477 263.643C372.834 263.773 371.414 262.914 369.977 262.23C363.959 259.366 357.94 256.502 351.922 253.638C350.398 252.913 348.817 252.242 348.392 250.427C347.972 248.639 349.216 247.368 350.463 246.323C353.012 244.186 355.579 242.069 358.162 239.972C363.263 235.833 368.43 231.776 373.657 227.798C374.722 226.987 376.101 226.753 377.172 227.65C378.548 227.568 380.019 228.416 380.068 230.188C380.269 237.319 380.035 244.457 379.339 251.557C379.179 253.189 378.995 254.818 378.787 256.445C378.613 257.804 378.558 259.283 378.091 260.581C377.506 262.205 376.271 263.502 374.477 263.643ZM373.309 258.003C373.372 257.616 373.414 257.223 373.466 256.835C374.495 249.095 374.936 241.275 374.86 233.467C371.558 236.005 368.279 238.573 365.028 241.176C362.964 242.829 360.91 244.495 358.867 246.174C357.944 246.933 357.023 247.693 356.105 248.457C355.754 248.749 355.403 249.042 355.053 249.334C355.229 249.408 355.393 249.478 355.533 249.544C356.642 250.072 357.75 250.599 358.859 251.127C360.997 252.144 363.135 253.162 365.273 254.179C367.411 255.197 369.55 256.214 371.688 257.232C372.228 257.489 372.769 257.746 373.309 258.003Z" fill="#7B6EB9"/>
<path id="Vector_77" d="M246.888 225.394C243.534 224.897 242.756 230.107 246.116 230.605C249.469 231.102 250.247 225.892 246.888 225.394Z" fill="#AEABDA"/>
<path id="Vector_78" d="M231.404 263.832C228.36 256.302 217.762 254.77 210.742 255.067C209.319 255.127 208.284 256.671 208.446 258.002C208.63 259.508 209.956 260.357 211.382 260.297C214.808 260.152 218.427 260.592 221.628 261.865C223.623 262.658 226.14 264.016 226.693 266.295C227.043 267.739 226.48 269.217 225.918 270.526C225.145 272.325 224.258 274.08 223.418 275.85C221.689 279.495 219.96 283.141 218.231 286.786C216.775 289.856 221.601 291.975 223.052 288.916C225.081 284.636 227.111 280.357 229.141 276.078C230.952 272.258 233.128 268.1 231.404 263.832Z" fill="#BDBFE1"/>
<path id="Vector_79" d="M215.417 313.615C215.358 313.155 215.192 312.739 214.917 312.366C214.477 311.822 213.894 311.434 213.187 311.33L212.56 311.237C212.204 311.17 211.858 311.195 211.523 311.312C211.184 311.37 210.878 311.508 210.605 311.727C210.315 311.925 210.094 312.178 209.941 312.485C209.732 312.772 209.608 313.095 209.568 313.456C209.565 313.691 209.562 313.927 209.559 314.162C209.617 314.622 209.784 315.038 210.058 315.411C210.499 315.955 211.082 316.343 211.788 316.447L212.415 316.54C212.772 316.607 213.118 316.582 213.452 316.464C213.791 316.407 214.097 316.269 214.371 316.05C214.66 315.852 214.881 315.599 215.034 315.291C215.243 315.005 215.368 314.682 215.407 314.321C215.41 314.086 215.414 313.85 215.417 313.615Z" fill="#B9D5EA"/>
<path id="Vector_80" d="M312.213 197.357C316.654 199.008 319.861 203.01 319.903 207.799C319.915 209.229 318.392 210.321 317.068 210.216C315.56 210.096 314.663 208.805 314.651 207.382C314.632 205.281 312.891 203.487 311.112 202.6C308.593 201.343 305.587 201.727 302.985 202.492C298.238 203.889 293.76 206.841 290.2 210.345C295.891 216.718 296.353 226.954 293.613 234.874C291.857 239.948 288.592 244.439 283.957 247.222C279.512 249.891 273.926 250.613 269.023 248.859C265.829 247.716 267.624 242.762 270.821 243.906C275.21 245.477 280.106 244.083 283.54 241.066C287.214 237.838 289.198 232.961 289.796 228.189C290.342 223.83 289.906 219.064 287.394 215.329C287.178 215.009 286.944 214.695 286.696 214.389C284.331 217.518 282.116 220.875 278.489 222.592C274.761 224.357 269.373 223.785 266.888 220.206C263.602 215.475 267.138 209.528 271.387 206.874C275.797 204.12 281.23 204.351 285.706 206.784C285.847 206.86 285.979 206.944 286.116 207.023C289.36 203.712 293.256 200.975 297.455 199.02C301.96 196.923 307.373 195.558 312.213 197.357ZM281.392 212.697C281.797 212.152 282.206 211.612 282.621 211.079C281.152 210.35 279.537 209.969 277.883 210.122C276.049 210.292 274.304 211.021 272.925 212.243C271.763 213.272 270.591 215.034 270.934 216.656C271.022 217.075 271.199 217.311 271.672 217.643C272.027 217.892 272.798 218.165 273.144 218.219C274.633 218.454 275.794 218.22 277.09 217.339C278.853 216.141 280.136 214.383 281.392 212.697Z" fill="#938CCB"/>
<path id="Vector_81" d="M153.25 326.239C151.301 330.556 147.089 333.483 142.307 333.2C140.879 333.115 139.893 331.522 140.087 330.208C140.309 328.712 141.659 327.905 143.08 327.989C145.178 328.113 147.086 326.499 148.093 324.785C149.518 322.357 149.34 319.333 148.752 316.686C147.681 311.856 145.039 307.19 141.784 303.401C135.038 308.644 124.791 308.409 117.073 305.138C112.128 303.042 107.868 299.48 105.406 294.668C103.044 290.054 102.703 284.433 104.787 279.662C106.145 276.554 110.966 278.681 109.608 281.791C107.742 286.063 108.8 291.041 111.578 294.671C114.55 298.554 119.282 300.865 124.004 301.785C128.317 302.626 133.103 302.516 137.001 300.263C137.335 300.07 137.664 299.858 137.986 299.631C135.024 297.059 131.824 294.622 130.358 290.888C128.85 287.05 129.786 281.715 133.527 279.479C138.471 276.523 144.167 280.454 146.526 284.872C148.975 289.458 148.375 294.862 145.643 299.161C145.557 299.295 145.465 299.422 145.377 299.553C148.461 303.014 150.928 307.085 152.594 311.407C154.38 316.042 155.375 321.534 153.25 326.239ZM140.036 294.456C140.552 294.897 141.062 295.342 141.567 295.791C142.394 294.376 142.884 292.79 142.843 291.131C142.798 289.29 142.19 287.5 141.064 286.042C140.115 284.813 138.437 283.523 136.795 283.756C136.37 283.815 136.123 283.976 135.759 284.425C135.487 284.762 135.162 285.513 135.084 285.854C134.75 287.323 134.904 288.497 135.695 289.85C136.771 291.689 138.438 293.088 140.036 294.456Z" fill="#AEABDA"/>
</g>
</g>
</g>
</g>
<g id="video-cover-container">
<rect id="Rectangle 7" y="40" width="558" height="235" fill="#938CCB"/>
<text id="video-title" fill="white" xml:space="preserve" style="white-space: pre" font-family="Playpen Sans" font-size="20" font-weight="bold" letter-spacing="0em"><tspan x="25" y="135.3">Reflexos primitivos:&#x2028;</tspan><tspan x="25" y="163.3">avalia&#xe7;&#xe3;o e &#x2028;</tspan><tspan x="25" y="191.3">integra&#xe7;&#xe3;o</tspan></text>
<path id="Polygon 13" d="M311.121 162.33C314.454 160.406 314.454 155.594 311.121 153.67L265.499 127.33C262.166 125.406 257.999 127.811 257.999 131.66L257.999 184.34C257.999 188.189 262.166 190.594 265.499 188.67L311.121 162.33Z" fill="#594C8B"/>
<g id="silhueta">
<g id="Group 581">
<g id="Group 577">
<path id="Vector_82" d="M411.18 206.292C410.825 206.292 410.501 206.2 410.216 206.018C410.017 205.89 409.753 205.662 409.572 205.28C409.36 205.314 409.116 205.344 408.851 205.344C408.628 205.344 408.411 205.322 408.205 205.278C407.156 205.058 406.474 204.317 406.066 203.874L400.176 197.475C399.74 197.002 399.221 196.438 398.827 195.733C398.325 195.435 397.895 194.999 397.595 194.47C397.372 194.077 397.229 193.648 397.171 193.214C396.765 192.758 396.524 192.138 396.542 191.466C396.552 191.125 396.625 190.814 396.723 190.538C396.561 190.104 396.507 189.621 396.58 189.132C396.636 188.761 396.761 188.415 396.941 188.109C396.816 187.59 396.82 187.064 396.963 186.575C397.334 185.298 398.542 184.472 400.04 184.472C400.633 184.472 401.218 184.605 401.732 184.856C402.476 185.22 403.037 185.733 403.532 186.185C403.796 186.426 404.044 186.654 404.284 186.824C405.004 187.335 405.898 187.496 406.931 187.684C407.749 187.831 408.594 187.984 409.461 188.326C410.095 188.576 410.71 188.872 411.301 189.21C411.433 189.154 411.571 189.11 411.714 189.078C411.903 189.037 412.101 189.016 412.303 189.016C412.68 189.016 413.011 189.089 413.253 189.143C414.837 189.491 416.507 189.557 418.154 189.574C418.44 189.133 418.785 188.774 419.16 188.468C418.87 187.704 418.638 186.851 418.64 185.929C418.641 185.353 418.735 184.814 418.826 184.361C418.997 183.523 419.222 182.685 419.496 181.869C420.206 179.761 421.608 179.533 422.178 179.533C422.192 179.533 422.227 179.534 422.241 179.535C423.022 179.557 423.602 179.963 423.793 180.097C424.755 180.768 425.493 181.755 425.869 182.874L425.91 183.003C425.952 183.018 425.994 183.033 426.032 183.047C426.195 183.107 426.386 183.177 426.589 183.274C426.613 183.273 426.637 183.273 426.662 183.273C427.811 183.273 428.758 183.852 429.519 184.316C429.637 184.389 429.753 184.46 429.868 184.527C430.382 184.827 431.036 184.973 431.866 184.973C432.367 184.973 432.934 184.92 433.602 184.809C433.917 184.757 434.233 184.699 434.549 184.641C435.603 184.445 436.692 184.244 437.84 184.244C438.229 184.244 438.608 184.268 438.969 184.315C439.118 184.334 439.267 184.358 439.416 184.382C439.658 184.422 439.885 184.459 440.056 184.459C440.365 184.445 440.716 184.308 441.082 184.156L441.454 184.001C442.382 183.613 443.342 183.211 444.427 183.003C444.601 182.97 444.778 182.943 444.954 182.915C445.291 182.863 445.608 182.813 445.809 182.724C445.954 182.659 446.142 182.528 446.34 182.39C446.533 182.256 446.727 182.123 446.928 182.003C447.65 181.576 448.398 181.353 449.059 181.155C450.483 180.73 451.944 180.293 453.48 180.066C451.885 179.693 450.395 179.062 449.153 177.952C448.994 178.458 448.761 178.926 448.452 179.349C447.968 180.013 447.352 180.45 446.668 180.613C446.468 180.661 446.261 180.685 446.054 180.685C444.949 180.685 443.871 179.982 443.307 178.894C442.978 178.258 442.86 177.631 442.757 177.078C442.73 176.933 442.703 176.789 442.672 176.646C442.452 175.661 441.959 174.734 441.37 173.814C441.259 173.826 441.144 173.833 441.025 173.833C440.526 173.833 440.072 173.708 439.675 173.46C438.994 173.035 438.588 172.316 438.563 171.489C438.555 171.228 438.585 170.965 438.649 170.707L438.401 170.71C437.955 170.71 437.352 170.656 436.778 170.4C435.881 169.999 435.347 169.213 435.347 168.299C435.348 168.099 435.377 167.795 435.512 167.462C435.431 167.388 435.353 167.309 435.28 167.221C434.865 166.727 434.692 166.103 434.793 165.465C434.909 164.727 435.346 164.148 436.094 163.739C436.045 163.335 436.094 162.81 436.431 162.228C436.263 162.386 436.078 162.534 435.871 162.668C435.326 163.022 434.678 163.217 434.046 163.217C433.394 163.217 432.79 163.015 432.3 162.634C431.343 161.893 430.96 160.578 431.275 159.118C431.679 157.251 432.774 155.76 433.74 154.446C434.276 153.716 434.791 153.016 435.162 152.302C434.062 151.154 433.378 149.894 433.138 148.576C431.998 148.181 430.938 147.379 430.519 146.21C430.157 145.2 430.325 144.008 430.97 143.024C431.759 141.819 433.146 141.07 434.589 141.07L434.72 141.073C435.083 141.084 435.44 141.146 435.777 141.254C435.994 141.057 436.22 140.877 436.452 140.715C436.901 140.402 437.391 140.149 437.909 139.962C437.954 139.735 438.025 139.514 438.122 139.297C438.557 138.32 439.457 137.559 440.59 137.208C440.992 137.083 441.392 137.02 441.778 137.02C442.118 137.02 442.447 137.07 442.757 137.167C443.568 137.422 444.272 138.025 444.688 138.82C445.013 139.441 445.166 140.176 445.13 140.946C445.119 141.195 445.088 141.437 445.038 141.669C445.77 142.445 446.279 143.38 446.532 144.428C446.746 145.315 446.603 146.184 446.476 146.952C446.427 147.252 446.356 147.677 446.357 147.919C446.359 147.919 446.361 147.92 446.363 147.92C446.669 148.007 447.085 148.013 447.525 148.02L447.674 148.022C449.08 148.047 450.496 148.16 451.881 148.358C452.411 148.433 453.653 148.609 454.41 149.64C454.839 150.224 455.01 150.959 454.891 151.71C454.757 152.557 454.256 153.364 453.552 153.869C452.998 154.266 452.398 154.472 451.832 154.59C452.019 154.819 452.201 155.095 452.373 155.427L454.272 159.087C455.123 160.728 455.864 161.313 456.272 161.313C456.303 161.313 456.334 161.31 456.365 161.305C456.661 161.26 457.016 160.894 457.229 160.416C457.461 159.893 457.576 159.248 457.698 158.565C457.735 158.36 457.771 158.154 457.811 157.949C458.408 154.892 459.74 151.979 461.662 149.527C461.848 149.289 462.044 149.085 462.225 148.909C460.747 148.059 459.225 147.074 457.951 145.775C455.905 143.689 454.873 141.09 455.119 138.645C455.178 138.053 455.306 137.509 455.429 136.984C455.592 136.283 455.734 135.678 455.665 135.169C455.606 134.735 455.379 134.26 455.117 133.71C454.926 133.31 454.728 132.896 454.565 132.433C454.346 131.814 454.265 131.2 454.265 130.599C452.784 130.559 451.318 130.327 449.9 129.909C447.359 129.159 445.685 127.725 445.188 125.871C444.873 124.694 445.038 123.385 445.664 122.087C447.317 118.664 450.998 117.18 453.956 115.986C457.886 114.403 462.214 112.783 467.578 110.89C469.608 110.173 471.868 109.81 474.296 109.81C477.16 109.81 480.31 110.328 483.405 111.31C484.676 111.713 486.154 112.253 487.48 113.202C488.797 114.145 489.779 115.359 490.566 116.423C492.221 118.66 493.616 121.093 494.711 123.654C496.24 127.228 496.407 130.088 495.221 132.396C494.674 133.46 493.88 134.29 493.178 135.023C492.888 135.326 492.614 135.613 492.365 135.904C492.045 136.28 491.743 136.692 491.424 137.128C491 137.708 490.562 138.306 490.037 138.876C489.354 139.618 488.63 140.03 487.992 140.393C487.818 140.493 487.64 140.593 487.458 140.705C487.391 140.746 487.372 140.769 487.372 140.769C487.326 140.832 487.247 141.145 487.196 141.352L487.107 141.7C487.035 141.974 486.942 142.245 486.829 142.508C486.973 142.532 487.114 142.569 487.251 142.62C487.777 142.816 488.105 143.167 488.281 143.356C488.717 143.821 489.145 144.295 489.564 144.777C492.503 148.156 493.502 152.344 494.467 156.394C495.001 158.631 495.553 160.943 496.427 163.039C497.869 166.494 498.525 169.502 498.555 172.792C498.588 176.415 497.795 179.914 497.029 183.298L493.136 200.488C493.018 201.006 492.858 201.715 492.354 202.354C491.693 203.193 490.766 203.52 490.031 203.711C488.564 204.093 487.107 204.187 485.698 204.278C476.679 204.858 467.352 205.457 458.152 205.824C457.245 205.86 456.356 205.892 455.456 205.892C453.578 205.892 452.057 205.743 450.67 205.424C450.131 205.299 449.612 205.149 449.11 205.004C448.371 204.79 447.674 204.587 446.991 204.489C446.624 204.436 446.247 204.411 445.838 204.411C444.502 204.411 443.124 204.689 441.666 204.984C441.069 205.105 440.473 205.225 439.878 205.327C437.864 205.672 435.647 205.84 433.1 205.84C432.321 205.84 431.5 205.825 430.591 205.794C429.228 205.748 427.852 205.672 426.522 205.599C424.613 205.494 422.64 205.385 420.714 205.366L420.148 205.364C418.613 205.364 417.253 205.426 415.991 205.554C415.417 205.612 414.81 205.738 414.167 205.872C413.223 206.069 412.246 206.273 411.222 206.292C411.212 206.292 411.189 206.292 411.18 206.292Z" fill="#E1A3D8"/>
<path id="Vector_83" d="M474.296 111.431C477.237 111.431 480.215 111.999 482.916 112.856C484.187 113.259 485.452 113.744 486.538 114.521C487.615 115.292 488.477 116.323 489.265 117.389C490.846 119.526 492.177 121.848 493.223 124.292C494.224 126.632 494.944 129.391 493.781 131.655C493.146 132.89 492.035 133.795 491.134 134.851C490.331 135.793 489.686 136.866 488.847 137.776C488.171 138.51 487.43 138.821 486.613 139.322C485.829 139.803 485.777 140.397 485.542 141.284C485.393 141.846 485.13 142.378 484.774 142.838C484.649 142.999 484.509 143.161 484.473 143.361C484.403 143.761 484.768 144.091 485.094 144.332C485.166 144.385 485.243 144.44 485.332 144.453C485.345 144.455 485.359 144.456 485.373 144.456C485.453 144.456 485.531 144.425 485.605 144.392C485.879 144.268 486.171 144.099 486.457 144.099C486.533 144.099 486.609 144.111 486.683 144.139C486.849 144.201 486.977 144.334 487.099 144.463C487.521 144.915 487.936 145.375 488.342 145.842C492.596 150.732 492.436 157.68 494.933 163.664C496.192 166.682 496.906 169.526 496.935 172.807C496.966 176.237 496.203 179.614 495.45 182.94C494.152 188.67 492.854 194.4 491.557 200.13C491.459 200.559 491.355 201.005 491.082 201.351C490.733 201.794 490.168 202 489.623 202.142C488.311 202.485 486.948 202.573 485.594 202.66C476.43 203.249 467.264 203.838 458.088 204.204C457.213 204.239 456.334 204.271 455.457 204.271C453.967 204.271 452.481 204.177 451.032 203.844C449.755 203.549 448.519 203.071 447.221 202.884C446.76 202.818 446.299 202.79 445.838 202.79C443.757 202.79 441.676 203.374 439.605 203.729C437.455 204.097 435.275 204.219 433.096 204.219C432.279 204.219 431.461 204.201 430.645 204.174C427.339 204.062 424.039 203.777 420.729 203.745C420.534 203.743 420.338 203.742 420.143 203.742C418.702 203.742 417.261 203.796 415.828 203.941C414.295 204.096 412.72 204.643 411.192 204.671C411.187 204.671 411.182 204.671 411.177 204.671C411.145 204.671 411.113 204.668 411.087 204.651C411.059 204.634 411.042 204.603 411.029 204.572C410.95 204.38 410.99 204.159 410.941 203.957C410.864 203.64 410.488 203.572 410.175 203.572C410.096 203.572 410.021 203.576 409.956 203.582C409.587 203.616 409.217 203.722 408.852 203.722C408.746 203.722 408.642 203.714 408.537 203.692C408.015 203.582 407.619 203.168 407.257 202.776C405.294 200.643 403.33 198.51 401.367 196.377C400.844 195.809 400.309 195.222 400.032 194.501C399.152 194.261 398.572 193.238 398.816 192.358C398.421 192.341 398.149 191.908 398.161 191.512C398.172 191.116 398.384 190.758 398.59 190.42C397.902 189.977 398.092 188.713 398.879 188.492C398.574 188.07 398.372 187.528 398.517 187.028C398.701 186.393 399.358 186.094 400.04 186.094C400.379 186.094 400.725 186.168 401.021 186.313C401.911 186.748 402.541 187.575 403.349 188.148C405.03 189.34 407.058 189.122 408.868 189.835C409.805 190.204 410.698 190.687 411.52 191.27C411.501 190.974 411.774 190.726 412.063 190.662C412.142 190.644 412.222 190.637 412.303 190.637C412.515 190.637 412.73 190.688 412.94 190.734C414.977 191.181 417.081 191.193 419.166 191.202C419.496 190.157 420.225 189.604 421.183 189.073C420.724 188.073 420.257 187.032 420.259 185.932C420.26 185.512 420.33 185.095 420.414 184.683C420.571 183.906 420.777 183.139 421.03 182.387C421.222 181.817 421.582 181.155 422.177 181.155C422.184 181.155 422.191 181.155 422.198 181.156C422.441 181.162 422.665 181.286 422.864 181.425C423.546 181.901 424.069 182.601 424.334 183.39C424.41 183.619 424.469 183.861 424.613 184.054C424.985 184.555 425.759 184.541 426.228 184.951C426.373 184.912 426.517 184.894 426.661 184.894C427.492 184.894 428.302 185.489 429.052 185.927C429.902 186.424 430.875 186.594 431.867 186.594C432.535 186.594 433.212 186.517 433.865 186.409C435.185 186.191 436.514 185.865 437.841 185.865C438.147 185.865 438.453 185.882 438.759 185.922C439.191 185.979 439.621 186.081 440.056 186.081C440.1 186.081 440.144 186.08 440.188 186.077C440.713 186.051 441.214 185.856 441.7 185.655C442.691 185.245 443.677 184.797 444.73 184.596C445.315 184.484 445.925 184.448 446.469 184.205C446.931 183.999 447.317 183.656 447.753 183.398C448.299 183.075 448.914 182.891 449.522 182.709C451.357 182.161 453.215 181.608 455.129 181.537C455.951 181.506 456.818 181.556 457.547 181.174C458.277 180.791 458.753 179.642 458.233 179.003C455.261 178.851 451.987 178.57 449.91 176.435C449.864 176.389 449.821 176.338 449.777 176.29C448.987 176.101 448.46 175.322 448.096 174.494C447.873 174.321 447.631 174.182 447.365 174.085C447.888 175.541 448.033 177.176 447.145 178.393C446.93 178.686 446.646 178.951 446.293 179.036C446.213 179.055 446.133 179.064 446.054 179.064C445.514 179.064 445.002 178.645 444.745 178.147C444.449 177.578 444.391 176.919 444.252 176.293C443.896 174.697 443.015 173.321 442.08 171.962C441.953 172.004 441.829 172.052 441.701 172.09C441.484 172.155 441.249 172.212 441.025 172.212C440.85 172.212 440.681 172.177 440.531 172.084C439.886 171.682 440.217 170.622 440.837 170.181C440.845 170.176 440.854 170.172 440.862 170.167C440.665 169.861 440.474 169.553 440.297 169.238C440.266 169.184 440.243 169.126 440.213 169.071C439.604 169.077 438.996 169.083 438.387 169.089C438.378 169.089 438.369 169.089 438.36 169.089C437.757 169.089 436.966 168.898 436.967 168.3C436.967 167.803 437.546 167.544 438.025 167.41C438.45 167.291 438.874 167.173 439.299 167.054C439.249 166.919 439.188 166.788 439.141 166.652C438.696 166.645 438.25 166.637 437.805 166.63C437.165 166.619 436.292 166.352 436.392 165.719C436.455 165.322 436.892 165.12 437.271 164.986C437.693 164.837 438.116 164.687 438.538 164.538C438.51 164.42 438.479 164.302 438.453 164.184C437.891 164.039 437.463 163.666 437.839 163.03C437.92 162.893 438.033 162.78 438.158 162.682C438.069 162.155 437.989 161.626 437.92 161.096C437.819 160.322 437.915 159.445 437.701 158.709C437.669 158.599 437.611 158.472 437.498 158.455C437.49 158.454 437.482 158.453 437.474 158.453C437.405 158.453 437.341 158.495 437.285 158.537C436.803 158.902 436.481 159.433 436.161 159.945C435.84 160.458 435.496 160.979 434.989 161.308C434.712 161.488 434.374 161.596 434.046 161.596C433.774 161.596 433.509 161.522 433.292 161.353C432.752 160.935 432.713 160.129 432.858 159.461C433.48 156.585 436.219 154.646 437.088 151.885C435.681 150.709 434.552 149.152 434.668 147.234C433.593 147.203 432.362 146.552 432.043 145.662C431.836 145.086 431.989 144.425 432.324 143.913C432.814 143.165 433.696 142.691 434.589 142.691C434.615 142.691 434.642 142.692 434.668 142.693C435.201 142.71 435.736 142.912 436.105 143.291C436.466 142.816 436.884 142.389 437.377 142.045C438.045 141.58 438.794 141.316 439.556 141.227C439.446 140.81 439.408 140.389 439.6 139.958C439.866 139.363 440.46 138.945 441.068 138.757C441.297 138.686 441.539 138.641 441.778 138.641C441.945 138.641 442.111 138.663 442.271 138.713C442.697 138.847 443.047 139.177 443.254 139.573C443.461 139.968 443.533 140.425 443.513 140.872C443.493 141.299 443.387 141.732 443.135 142.077C443.123 142.094 443.104 142.105 443.092 142.121C443.986 142.745 444.68 143.659 444.958 144.81C445.351 146.432 443.717 148.852 445.92 149.48C446.477 149.638 447.066 149.634 447.645 149.644C448.986 149.667 450.326 149.773 451.653 149.963C452.192 150.039 452.783 150.162 453.106 150.601C453.548 151.202 453.216 152.116 452.61 152.551C452.003 152.985 451.221 153.069 450.479 153.139C449.99 153.184 449.502 153.23 449.014 153.276C447.794 153.39 448.344 153.936 448.742 154.582C448.915 154.863 449.066 155.164 449.207 155.473C449.315 155.319 449.459 155.202 449.658 155.163C449.706 155.154 449.752 155.149 449.798 155.149C450.303 155.149 450.688 155.698 450.936 156.174C451.569 157.394 452.202 158.615 452.835 159.835C453.583 161.276 454.727 162.934 456.273 162.934C456.383 162.934 456.496 162.926 456.611 162.908C457.568 162.76 458.314 161.96 458.708 161.075C459.101 160.19 459.215 159.211 459.4 158.26C459.948 155.452 461.171 152.778 462.936 150.528C463.567 149.723 464.494 149.317 464.451 148.295C462.552 147.251 460.624 146.186 459.106 144.639C457.588 143.092 456.513 140.966 456.73 138.808C456.86 137.51 457.445 136.242 457.269 134.949C457.121 133.863 456.456 132.925 456.091 131.892C455.749 130.924 455.886 129.929 456.091 128.923C455.638 128.964 455.183 128.984 454.727 128.984C453.251 128.984 451.774 128.772 450.357 128.353C448.81 127.897 447.171 127.01 446.752 125.45C446.515 124.568 446.725 123.615 447.122 122.793C448.48 119.981 451.668 118.657 454.561 117.491C459.049 115.681 463.578 114.021 468.116 112.419C470.08 111.726 472.179 111.431 474.296 111.431ZM474.297 108.189C474.297 108.189 474.296 108.189 474.297 108.189C471.685 108.189 469.243 108.583 467.039 109.361C461.65 111.263 457.301 112.891 453.352 114.483C450.305 115.711 446.132 117.394 444.206 121.382C443.408 123.036 443.207 124.734 443.625 126.292C444.274 128.711 446.34 130.548 449.442 131.464C450.538 131.787 451.662 132.009 452.798 132.127C452.858 132.405 452.937 132.688 453.038 132.974C453.23 133.518 453.457 133.992 453.656 134.41C453.825 134.765 454.036 135.206 454.06 135.387C454.089 135.6 453.958 136.162 453.852 136.614C453.723 137.163 453.578 137.785 453.508 138.484C453.214 141.409 454.412 144.481 456.796 146.911C457.726 147.859 458.752 148.642 459.793 149.323C458.033 151.8 456.804 154.655 456.222 157.639C456.181 157.852 456.142 158.066 456.104 158.28C456.068 158.479 456.034 158.675 455.997 158.86C455.908 158.71 455.811 158.538 455.709 158.34L454.181 155.396C454.286 155.331 454.391 155.262 454.495 155.187C455.559 154.424 456.286 153.249 456.49 151.964C456.678 150.781 456.402 149.615 455.714 148.678C454.554 147.1 452.777 146.847 452.109 146.752C450.816 146.568 449.502 146.454 448.194 146.414C448.279 145.716 448.312 144.899 448.106 144.047C447.854 143.004 447.385 142.03 446.738 141.18C446.742 141.127 446.745 141.073 446.748 141.018C446.796 139.963 446.58 138.943 446.123 138.069C445.509 136.895 444.459 136.003 443.242 135.62C442.775 135.473 442.282 135.399 441.778 135.399C441.231 135.399 440.67 135.486 440.112 135.659C438.533 136.148 437.269 137.233 436.643 138.636C436.625 138.677 436.607 138.72 436.589 138.762C436.219 138.941 435.864 139.149 435.528 139.383C435.472 139.422 435.416 139.462 435.361 139.503C435.166 139.475 434.969 139.458 434.771 139.452C434.709 139.45 434.649 139.449 434.589 139.449C432.607 139.449 430.701 140.478 429.616 142.135C428.694 143.542 428.462 145.271 428.995 146.758C429.496 148.155 430.556 149.143 431.756 149.748C432.018 150.61 432.46 151.531 433.168 152.464C432.942 152.796 432.692 153.137 432.436 153.485C431.374 154.931 430.17 156.569 429.693 158.774C429.242 160.86 429.846 162.782 431.309 163.917C431.888 164.366 432.562 164.658 433.288 164.777C433.244 164.934 433.214 165.08 433.193 165.211C433.046 166.144 433.249 167.09 433.753 167.874C433.736 168.017 433.728 168.158 433.728 168.296C433.727 169.321 434.126 170.287 434.852 171.016C435.51 171.676 436.303 172.012 437.014 172.178C437.221 173.278 437.868 174.244 438.82 174.837C439.309 175.141 439.862 175.338 440.444 175.416C440.743 175.951 440.975 176.479 441.091 176.999C441.119 177.123 441.142 177.249 441.165 177.376C441.277 177.973 441.43 178.791 441.87 179.641C442.275 180.423 442.868 181.072 443.565 181.534C442.547 181.786 441.644 182.165 440.832 182.504L440.464 182.657C440.368 182.697 440.134 182.794 440.005 182.833C439.925 182.823 439.786 182.8 439.679 182.783C439.512 182.756 439.345 182.729 439.178 182.707C438.748 182.651 438.299 182.622 437.841 182.622C436.544 182.622 435.327 182.848 434.254 183.046C433.948 183.103 433.643 183.159 433.338 183.21C432.759 183.305 432.277 183.352 431.867 183.352C431.338 183.352 430.94 183.276 430.684 183.127C430.578 183.065 430.471 182.999 430.363 182.933C429.611 182.474 428.514 181.804 427.134 181.674C426.604 180.512 425.764 179.496 424.716 178.765C423.928 178.215 423.133 177.937 422.284 177.914C422.256 177.913 422.206 177.913 422.177 177.913C421.46 177.913 419.036 178.161 417.962 181.351C417.667 182.227 417.424 183.131 417.24 184.038C417.132 184.568 417.022 185.208 417.021 185.925C417.019 186.643 417.127 187.317 417.289 187.938C416.01 187.906 414.787 187.82 413.633 187.567L413.596 187.558C413.3 187.493 412.854 187.395 412.303 187.395C412.028 187.395 411.756 187.42 411.492 187.469C411.024 187.229 410.544 187.011 410.054 186.818C409.039 186.418 408.072 186.243 407.219 186.088C406.34 185.929 405.646 185.803 405.22 185.501C405.062 185.39 404.85 185.195 404.624 184.989C404.077 184.489 403.397 183.866 402.443 183.399C401.709 183.041 400.878 182.851 400.04 182.851C397.838 182.851 395.976 184.166 395.407 186.123C395.243 186.689 395.195 187.28 395.258 187.869C395.127 188.192 395.032 188.535 394.979 188.891C394.895 189.451 394.918 190.008 395.037 190.535C394.975 190.807 394.933 191.102 394.924 191.418C394.898 192.334 395.171 193.192 395.651 193.889C395.76 194.368 395.94 194.835 396.187 195.271C396.55 195.911 397.045 196.46 397.625 196.88C398.069 197.578 398.577 198.131 398.986 198.575L401.595 201.409L404.876 204.973C405.343 205.481 406.316 206.538 407.872 206.865C408.176 206.929 408.493 206.962 408.814 206.965C408.999 207.144 409.184 207.282 409.345 207.385C409.727 207.628 410.35 207.913 411.177 207.913C411.199 207.913 411.236 207.913 411.258 207.913C412.427 207.891 413.527 207.662 414.497 207.46C415.097 207.335 415.664 207.216 416.154 207.167C417.363 207.044 418.668 206.985 420.143 206.985C420.328 206.985 420.513 206.986 420.698 206.988C422.588 207.006 424.457 207.109 426.435 207.218C427.773 207.292 429.157 207.368 430.536 207.415C431.462 207.446 432.3 207.461 433.096 207.461C435.737 207.461 438.045 207.286 440.151 206.925C440.779 206.817 441.394 206.693 441.988 206.573C443.364 206.295 444.664 206.032 445.838 206.032C446.169 206.032 446.471 206.052 446.761 206.094C447.332 206.176 447.976 206.363 448.659 206.561C449.182 206.713 449.723 206.869 450.306 207.004C451.816 207.351 453.453 207.513 455.457 207.513C456.388 207.513 457.294 207.48 458.217 207.444C467.434 207.076 476.772 206.476 485.802 205.896C487.218 205.805 488.823 205.702 490.439 205.28C491.343 205.045 492.656 204.589 493.625 203.358C494.356 202.43 494.581 201.439 494.715 200.847L497.184 189.943L498.608 183.657C499.395 180.183 500.208 176.591 500.174 172.778C500.142 169.269 499.447 166.072 497.921 162.414C497.097 160.439 496.585 158.291 496.042 156.017C495.031 151.777 493.985 147.392 490.784 143.712C490.354 143.217 489.909 142.724 489.462 142.247C489.352 142.129 489.172 141.937 488.917 141.732C489.598 141.342 490.422 140.849 491.227 139.976C491.814 139.339 492.3 138.674 492.729 138.087C493.03 137.676 493.315 137.287 493.596 136.957C493.815 136.701 494.074 136.431 494.348 136.144C495.125 135.332 496.006 134.411 496.66 133.138C498.081 130.373 497.93 127.062 496.2 123.015C495.055 120.34 493.598 117.797 491.868 115.459C491.056 114.362 489.931 112.964 488.421 111.883C486.912 110.803 485.286 110.206 483.893 109.764C480.643 108.734 477.324 108.189 474.297 108.189Z" fill="white"/>
</g>
</g>
</g>
</g>
</g>
<defs>
<clipPath id="clip0_2096_1223">
<rect width="558" height="315" rx="12" fill="white"/>
</clipPath>
<clipPath id="clip1_2096_1223">
<rect width="771" height="488" fill="white" transform="translate(-115 -24)"/>
</clipPath>
</defs>
</svg>
