<svg width="558" height="315" viewBox="0 0 558 315" fill="none" xmlns="http://www.w3.org/2000/svg">
<g clip-path="url(#clip0_2266_799)">
<rect x="-7" y="-11" width="599" height="346" fill="#E2E2F2"/>
<g clip-path="url(#clip1_2266_799)">
<path d="M15.8314 -26.1344C10.8537 -30.2418 5.46591 -34.3683 -0.811639 -36.2187C-7.2166 -38.1067 -13.5537 -36.936 -18.9353 -33.0002C-23.9868 -29.3058 -28.1476 -24.173 -32.152 -19.4144C-36.433 -14.3272 -40.4534 -9.02176 -44.1959 -3.52668C-48.5144 2.81414 -52.4671 9.40821 -56.0446 16.194C-56.7658 17.5623 -55.9221 19.379 -54.577 19.9697C-53.0745 20.6297 -51.5242 19.8758 -50.8003 18.5027C-45.0333 7.56335 -38.2235 -2.79553 -30.4753 -12.4353C-26.7774 -17.036 -22.9407 -21.6964 -18.6542 -25.767C-14.7744 -29.4515 -10.206 -32.1587 -4.6789 -31.2739C1.80267 -30.2364 7.34118 -25.7138 12.252 -21.6617C15.1027 -19.3094 18.6741 -23.7887 15.8314 -26.1344Z" fill="#F2D8EF"/>
<path d="M75.9484 32.8112C64.5076 26.777 53.6086 19.7693 43.371 11.8647C41.5905 10.4901 41.7731 7.98587 43.748 6.89744C47.3193 4.92934 51.0393 3.23766 54.8629 1.82752C55.2877 1.32161 55.8888 0.944814 56.5704 0.749743C59.0845 0.0301818 61.5987 -0.689436 64.1127 -1.40897C66.1817 -2.00111 68.2852 -2.76376 70.4365 -2.99472C72.5558 -3.22233 74.7306 -2.96443 76.4986 -1.67746C78.6967 -0.0776126 79.5021 2.57027 80.159 5.07714C82.4143 13.683 82.324 22.7422 80.2557 31.3685C79.7817 33.3454 77.4184 33.5865 75.9484 32.8112ZM73.1576 2.96398C72.877 3.1178 72.5507 3.2318 72.1707 3.28849C64.5664 4.42229 57.2436 6.66781 50.3363 9.95674C58.3621 15.8893 66.7744 21.28 75.5161 26.0973C76.4904 20.0734 76.2884 13.8694 74.9603 7.91334C74.6556 6.54675 74.403 4.06562 73.3003 3.0758C73.2548 3.03477 73.2065 2.99878 73.1576 2.96398Z" fill="#BDBFE1"/>
<path d="M14.524 40.9603C9.95995 44.0202 3.9364 43.5406 -0.544489 40.584C-5.27825 37.4608 -7.0237 31.7226 -5.27955 26.4147C-3.63113 21.3983 1.15717 17.2603 6.53638 17.0654C7.23796 17.0401 7.91555 17.2132 8.4674 17.5609C13.6603 17.3209 18.3278 21.869 19.5261 27.1254C20.6647 32.1199 18.8917 38.0318 14.524 40.9603ZM13.9126 28.1541C13.6416 26.9471 12.886 25.4997 11.9822 24.6665C11.0299 23.7887 9.06654 22.6436 7.74664 23.4032C6.66251 24.0271 5.38001 24.1428 4.39398 23.4521C2.14823 24.4993 0.416072 26.6052 -0.0947789 29.0097C-0.730017 32 0.595229 34.7266 3.13834 36.164C5.79778 37.6671 9.09949 37.8849 11.5287 36.0597C13.8556 34.3116 14.5547 31.0133 13.9126 28.1541Z" fill="#E2E2F2"/>
<path d="M108.372 93.1603C108.117 90.6234 107.721 88.1017 107.214 85.6031C106.165 80.434 104.675 75.3555 102.943 70.3761C101.031 64.8745 98.825 59.4812 96.6154 54.0938C95.2179 50.6865 89.8951 52.8067 91.2984 56.2282C94.8614 64.9153 98.5115 73.6735 100.746 82.8173C101.877 87.444 102.75 92.225 102.918 96.9941C102.997 99.2413 102.493 101.112 101.023 102.826C99.5891 104.499 97.7997 105.891 96.0878 107.266C91.9276 110.608 87.4602 113.576 82.7407 116.069C81.3748 116.79 80.5303 118.253 81.1496 119.794C81.6805 121.114 83.5001 122.111 84.8756 121.384C89.5004 118.942 93.9369 116.171 98.0837 112.98C102.046 109.931 106.771 106.505 108.152 101.455C108.887 98.7692 108.648 95.9002 108.372 93.1603Z" fill="#CACAE8"/>
<path d="M74.4913 55.8304C70.0425 52.2004 64.211 50.8476 58.6308 52.2489C53.8349 53.4533 49.9501 56.8038 46.6392 60.3204C43.4373 63.7214 40.5777 67.6023 36.7671 70.3664C33.3141 72.8709 29.1091 74.027 24.8496 73.6018C20.1438 73.1321 15.4979 71.0151 12.525 67.2632C11.565 66.0517 9.9319 65.5393 8.55812 66.4401C7.35311 67.2302 6.76993 69.1883 7.73475 70.4059C13.9077 78.1963 24.8658 81.421 34.2907 78.1113C39.0209 76.4501 42.7709 73.0805 46.1135 69.4518C49.2715 66.0234 52.1708 62.1358 56.13 59.5747C60.6285 56.6646 66.4338 56.6425 70.6698 60.0989C73.5217 62.4257 77.3509 58.1635 74.4913 55.8304Z" fill="#E1A3D8"/>
<path d="M136.021 107.918C132.375 107.377 131.529 113.042 135.181 113.583C138.828 114.123 139.673 108.459 136.021 107.918Z" fill="#E1A3D8"/>
<path d="M61.4061 112.264C58.7082 117.175 52.6188 119.617 47.2008 118.395C41.7625 117.167 37.8608 112.685 36.9763 107.227C36.1073 101.865 38.7449 96.669 43.6774 94.3747C48.1687 92.2857 53.4462 93.0634 57.0494 96.3363C57.2223 96.4101 57.3919 96.4966 57.5556 96.5969C62.6378 99.7082 64.222 107.138 61.4061 112.264ZM54.3846 100.792C54.0375 100.611 53.7129 100.366 53.4292 100.069C51.3487 97.8893 47.226 98.0264 44.7132 99.8128C42.1822 101.612 41.4998 104.933 42.5404 107.901C43.6612 111.099 46.2957 113.279 49.7191 113.431C52.9139 113.572 56.3217 111.777 57.2605 108.603C58.1027 105.756 57.0048 102.479 54.3846 100.792Z" fill="#E2E2F2"/>
<path d="M66.9394 156.294C69.979 159.24 74.0497 163.28 78.6984 162.578C81.884 162.097 84.5301 159.699 87.2369 158.133C89.5349 156.804 92.1175 155.808 94.7503 155.389C95.0223 154.552 95.3038 153.729 95.589 152.926C97.4466 147.696 99.8467 142.394 103.206 137.946C106.417 133.694 110.653 130.114 115.968 128.943C120.855 127.867 125.937 128.869 129.707 132.229C130.775 133.18 130.58 135.036 129.612 135.953C128.519 136.99 126.949 136.804 125.887 135.858C122.985 133.273 118.391 133.304 114.968 134.741C110.212 136.738 107.015 141.153 104.613 145.533C102.902 148.653 101.473 151.932 100.333 155.306C103.58 155.754 106.639 157.117 108.989 159.601C112.199 162.992 113.857 168.234 111.942 172.68C110.229 176.656 105.986 179.26 101.669 179.165C96.153 179.045 92.942 174.282 92.5335 169.175C92.3261 166.582 92.6122 163.895 93.1611 161.245C90.8204 162.09 88.661 163.438 86.482 164.814C82.41 167.384 77.8874 168.857 73.1851 167.095C69.2616 165.624 66.085 162.798 63.119 159.923C60.6748 157.554 64.5145 153.943 66.9394 156.294ZM106.72 165.455C105.173 162.351 102.193 160.663 98.8408 160.405C98.4107 162.121 98.0526 163.862 97.864 165.614C97.6509 167.595 97.5359 169.88 98.4807 171.708C99.8978 174.449 102.791 174.387 105.192 172.876C106.144 172.276 107.008 171.238 107.326 169.967C107.706 168.453 107.408 166.835 106.72 165.455Z" fill="#F2D8EF"/>
<path d="M31.7574 136.83C21.9782 131.611 12.3874 126.042 3.03079 120.098C-1.26221 117.371 -5.74644 114.728 -9.68609 111.497C-12.3103 109.344 -15.2246 106.392 -15.1508 102.747C-15.0945 99.9664 -13.2862 97.4831 -11.8127 95.256C-10.0017 92.5191 -8.18975 89.7828 -6.37827 87.0462C-5.5936 85.8607 -5.60456 84.2903 -6.78476 83.3432C-7.81624 82.5155 -9.70004 82.558 -10.4888 83.7496C-12.2049 86.3422 -13.921 88.9347 -15.6371 91.5273C-17.2579 93.9759 -18.9778 96.4288 -19.8297 99.2689C-21.3124 104.213 -19.509 109.002 -16.0945 112.674C-12.5995 116.433 -8.16241 119.109 -3.88953 121.882C1.25839 125.222 6.47643 128.454 11.7532 131.587C17.6331 135.078 23.5944 138.429 29.627 141.649C30.8822 142.319 32.5589 141.537 33.1024 140.304C33.7132 138.92 33.0171 137.502 31.7574 136.83Z" fill="#E2BBDF"/>
<path d="M15.2745 281.861C9.06608 282.478 2.82521 282.639 -3.40307 282.245C-5.57035 282.109 -9.00608 282.369 -10.7306 280.76C-12.1141 279.469 -12.2452 277.122 -12.3638 275.358C-13.2048 262.84 -12.7558 250.101 -11.9375 237.596C-11.4671 230.405 -10.7749 223.231 -9.87797 216.082C-9.41978 212.43 -15.085 211.577 -15.5448 215.242C-17.278 229.058 -18.2007 242.955 -18.3581 256.877C-18.4323 263.437 -18.5811 270.128 -18.0035 276.669C-17.7724 279.285 -17.1261 282.106 -15.3744 284.151C-13.3515 286.512 -10.4726 287.364 -7.47291 287.662C0.297099 288.435 8.2076 288.318 15.9712 287.547C19.6376 287.182 18.9501 281.495 15.2745 281.861Z" fill="#CACAE8"/>
<path d="M30.5773 338.865C19.1365 332.831 8.23752 325.823 -2.0001 317.918C-3.78055 316.544 -3.59801 314.04 -1.62305 312.951C1.94816 310.983 5.66817 309.291 9.4918 307.881C9.91665 307.375 10.5177 306.999 11.1993 306.803C13.7134 306.084 16.2276 305.364 18.7416 304.645C20.8106 304.053 22.9141 303.29 25.0654 303.059C27.1847 302.831 29.3595 303.089 31.1275 304.376C33.3256 305.976 34.131 308.624 34.7879 311.131C37.0432 319.737 36.9529 328.796 34.8846 337.422C34.4106 339.399 32.0473 339.64 30.5773 338.865ZM27.7865 309.018C27.5059 309.171 27.1796 309.285 26.7996 309.342C19.1953 310.476 11.8725 312.722 4.96516 316.01C12.991 321.943 21.4033 327.334 30.145 332.151C31.1193 326.127 30.9173 319.923 29.5892 313.967C29.2845 312.6 29.0319 310.119 27.9292 309.13C27.8837 309.088 27.8354 309.052 27.7865 309.018Z" fill="#BDBFE1"/>
<path d="M87.8333 263.626C86.5312 253.499 82.0101 243.559 73.6369 237.376C69.036 233.979 63.499 231.763 57.7444 231.618C56.1982 231.579 54.7378 232.367 54.4911 234.031C54.2856 235.417 55.3476 237.244 56.9046 237.283C65.8343 237.508 73.6768 243.125 77.9207 250.827C82.5461 259.22 83.2113 269.176 82.0112 278.514C81.2109 284.74 79.6506 290.835 77.9261 296.861C77.4998 298.351 78.9523 299.908 80.3396 300.114C82.0376 300.365 83.1654 299.195 83.5929 297.701C86.7505 286.667 89.3159 275.157 87.8333 263.626Z" fill="#FFCCD7"/>
<path d="M56.6513 277.363C52.5388 280.354 46.7537 279.803 43.0626 276.371C41.4444 274.867 40.3373 272.919 39.8735 270.876C39.7585 270.618 39.6758 270.327 39.6366 270C38.9529 264.294 43.0085 258.72 48.6957 257.724C53.5449 256.875 58.6005 259.963 60.5182 264.387C62.4944 268.946 60.5877 274.501 56.6513 277.363ZM55.53 269.049C55.9755 266.136 53.2936 263.415 50.5075 263.305C49.1781 263.252 47.9981 263.789 47.0975 264.639C47.0546 265.473 46.6376 266.285 45.9626 266.876C45.654 267.147 45.465 267.501 45.3627 267.892C45.2847 268.362 45.2685 268.838 45.3243 269.304C45.3267 269.325 45.3265 269.344 45.3286 269.365C45.4223 269.913 45.6138 270.44 45.8448 270.85C46.5719 272.141 47.9409 273.124 49.3719 273.495C52.2204 274.233 55.0856 271.956 55.53 269.049Z" fill="#E2BBDF"/>
<path d="M24.3646 236.746C20.4594 236.991 16.7576 234.453 14.8693 231.139C12.7639 227.445 12.7844 222.742 13.9839 218.76C15.4068 214.036 18.7268 209.901 19.0892 204.852C19.4136 200.332 17.7595 195.74 13.509 193.637C10.197 191.999 7.89651 197.246 11.1927 198.877C14.6453 200.585 13.3396 205.829 12.1542 208.613C10.1054 213.425 7.68607 217.817 7.49567 223.185C7.32029 228.133 8.65158 233.174 12.0329 236.903C15.3903 240.606 20.03 242.748 25.0613 242.432C28.7387 242.2 28.0399 236.515 24.3646 236.746Z" fill="#AEABDA"/>
<path d="M48.77 161.795C48.3904 160.381 46.727 159.264 45.2586 159.774C39.645 161.721 34.4931 164.848 30.8172 169.586C26.9933 174.515 25.3331 180.877 26.6375 187.008C27.404 190.612 32.9371 189.122 32.1707 185.519C30.1132 175.848 38.421 168.194 46.7481 165.305C48.209 164.799 49.1913 163.365 48.77 161.795Z" fill="#E2E2F2"/>
<path d="M118.81 225.168C118.274 215.154 116.553 205.26 113.847 195.609C113.463 194.239 111.638 193.656 110.42 194.146C108.982 194.723 108.571 196.197 108.957 197.572C111.314 205.98 112.794 214.638 113.424 223.347C113.556 225.169 113.991 227.403 113.458 229.196C113.025 230.654 111.301 230.936 110.026 231.337C105.799 232.665 101.524 233.83 97.2101 234.837C95.8254 235.161 94.7298 236.251 94.9149 237.772C95.0725 239.068 96.4574 240.392 97.8508 240.067C102.766 238.919 107.66 237.622 112.466 236.076C114.699 235.357 116.742 234.297 117.902 232.161C119.059 230.031 118.935 227.509 118.81 225.168Z" fill="#BDBFE1"/>
<path d="M68.4958 218.309C66.8527 218.438 65.4326 217.579 63.9954 216.895C57.9771 214.031 51.9586 211.167 45.9403 208.304C44.4167 207.579 42.8354 206.907 42.41 205.092C41.9907 203.304 43.2346 202.033 44.4809 200.989C47.0306 198.851 49.5974 196.734 52.1808 194.638C57.2816 190.498 62.4487 186.442 67.6756 182.463C68.7408 181.652 70.1199 181.418 71.1907 182.315C72.566 182.233 74.037 183.081 74.0868 184.853C74.2871 191.984 74.0533 199.122 73.3569 206.222C73.1969 207.854 73.013 209.484 72.8053 211.11C72.6316 212.47 72.5764 213.948 72.1091 215.246C71.5247 216.87 70.2892 218.167 68.4958 218.309ZM67.3277 212.668C67.3908 212.281 67.4327 211.888 67.4843 211.5C68.5131 203.76 68.9545 195.94 68.8789 188.132C65.5768 190.67 62.2978 193.238 59.0466 195.842C56.9822 197.495 54.9283 199.161 52.885 200.84C51.9623 201.598 51.0417 202.359 50.1233 203.122C49.7722 203.414 49.4219 203.707 49.0713 204C49.2479 204.073 49.4118 204.143 49.5515 204.21C50.6602 204.737 51.7688 205.265 52.8775 205.792C55.0156 206.81 57.1537 207.827 59.2918 208.845C61.4299 209.862 63.568 210.879 65.7061 211.897C66.2466 212.154 66.7871 212.411 67.3277 212.668Z" fill="#7B6EB9"/>
<path d="M6.23112 152.022C10.6719 153.673 13.879 157.675 13.9211 162.464C13.9336 163.894 12.4107 164.986 11.0866 164.881C9.57828 164.761 8.6812 163.47 8.66872 162.047C8.65024 159.946 6.909 158.152 5.13017 157.265C2.61079 156.008 -0.395274 156.392 -2.99657 157.157C-7.74419 158.554 -12.2216 161.506 -15.7816 165.01C-10.0911 171.383 -9.62876 181.619 -12.3692 189.539C-14.1253 194.614 -17.3898 199.104 -22.025 201.887C-26.4696 204.556 -32.0562 205.278 -36.9591 203.524C-40.1531 202.381 -38.3576 197.427 -35.1612 198.571C-30.7716 200.142 -25.8757 198.748 -22.4417 195.731C-18.7683 192.503 -16.7835 187.626 -16.186 182.854C-15.6401 178.495 -16.0753 173.729 -18.5883 169.994C-18.8039 169.674 -19.0377 169.36 -19.2861 169.054C-21.6509 172.183 -23.8656 175.54 -27.4924 177.257C-31.2207 179.022 -36.6087 178.45 -39.0943 174.871C-42.3798 170.14 -38.8434 164.193 -34.5948 161.539C-30.1851 158.785 -24.7514 159.016 -20.2755 161.449C-20.1351 161.526 -20.0025 161.609 -19.8655 161.688C-16.6219 158.377 -12.726 155.64 -8.5265 153.685C-4.02222 151.588 1.39107 150.223 6.23112 152.022ZM-24.5901 167.362C-24.1846 166.817 -23.7756 166.277 -23.3608 165.744C-24.8293 165.015 -26.4453 164.634 -28.0988 164.787C-29.933 164.957 -31.6779 165.686 -33.0567 166.908C-34.2186 167.937 -35.3913 169.699 -35.0481 171.321C-34.9595 171.74 -34.7829 171.976 -34.3095 172.308C-33.9551 172.557 -33.1838 172.83 -32.8376 172.884C-31.349 173.119 -30.1881 172.885 -28.8917 172.004C-27.1286 170.806 -25.8458 169.048 -24.5901 167.362Z" fill="#938CCB"/>
<path d="M463.917 84.1974C463.618 81.3071 463.342 78.4393 462.236 75.7265C460.397 71.2136 456.747 67.4988 452.372 65.4399C447.878 63.3246 442.769 62.7509 438.052 64.409C435.327 65.3667 432.798 66.8963 429.96 67.5178C428.003 67.9462 425.923 67.8782 423.975 67.4051C419.149 66.2327 415.182 62.9803 413.259 58.3401C412.666 56.9103 410.584 56.5861 409.383 57.2833C407.919 58.1336 407.763 59.7567 408.358 61.1908C412.164 70.3736 423.445 75.6751 432.815 72.6753C435.696 71.7528 438.322 70.1075 441.28 69.4215C443.222 68.9712 445.279 69.0697 447.205 69.5774C451.345 70.6689 455.062 73.5262 456.87 77.4938C458.021 80.0178 458.094 82.8956 458.408 85.6056C458.83 89.2329 459.606 92.4403 461.855 95.3839C462.792 96.6112 464.881 96.3902 465.864 95.4007C467.057 94.1988 466.799 92.5854 465.858 91.3532C464.36 89.3929 464.161 86.56 463.917 84.1974Z" fill="#938CCB"/>
<path d="M460.281 114.641C460.104 113.188 458.614 111.849 457.089 112.146C451.257 113.285 445.717 115.656 441.411 119.831C436.931 124.174 434.393 130.239 434.822 136.493C435.074 140.168 440.762 139.471 440.51 135.796C439.833 125.932 449.135 119.522 457.785 117.832C459.303 117.536 460.477 116.255 460.281 114.641Z" fill="#938CCB"/>
<path d="M535.338 33.4518C533.908 34.2403 533.552 35.9375 534.214 37.3423C537.869 45.1026 539.186 53.973 537.952 62.4645C536.661 71.3488 532.345 79.2889 525.561 85.1623C520.934 89.1679 515.503 92.131 510.007 94.7612C506.679 96.3536 509.457 101.363 512.774 99.7759C522.93 94.9157 532.809 88.5107 538.474 78.4709C543.273 69.9641 544.835 60.0154 543.761 50.3772C543.149 44.888 541.582 39.5699 539.23 34.576C538.57 33.1753 536.632 32.7386 535.338 33.4518Z" fill="#7B6EB9"/>
<path d="M456.336 258.498C457.574 257.433 457.575 255.699 456.639 254.459C451.471 247.612 448.365 239.2 447.832 230.636C447.275 221.675 449.873 213.02 455.31 205.881C459.018 201.013 463.726 197.001 468.567 193.301C471.498 191.061 467.752 186.726 464.831 188.959C455.886 195.796 447.529 204.088 444.042 215.075C441.087 224.385 441.597 234.442 444.624 243.656C446.347 248.903 448.97 253.788 452.296 258.194C453.229 259.43 455.216 259.461 456.336 258.498Z" fill="#CACAE8"/>
<path d="M627.793 64.5355C622.816 60.4281 617.428 56.3016 611.15 54.4512C604.745 52.5632 598.408 53.734 593.027 57.6698C587.975 61.3641 583.814 66.4969 579.81 71.2556C575.529 76.3427 571.508 81.6482 567.766 87.1432C563.447 93.4841 559.495 100.078 555.917 106.864C555.196 108.232 556.04 110.049 557.385 110.64C558.887 111.3 560.438 110.546 561.162 109.173C566.929 98.2333 573.738 87.8744 581.487 78.2346C585.185 73.634 589.021 68.9735 593.308 64.903C597.187 61.2185 601.756 58.5112 607.283 59.3961C613.765 60.4336 619.303 64.9561 624.214 69.0082C627.065 71.3605 630.636 66.8812 627.793 64.5355Z" fill="#F2D8EF"/>
<path d="M502.442 -19.6511C502.469 -21.115 501.18 -22.6484 499.628 -22.5656C493.695 -22.2489 487.878 -20.6711 483.033 -17.1357C477.993 -13.4581 474.636 -7.80469 474.19 -1.55242C473.929 2.1223 479.658 2.22314 479.92 -1.45114C480.622 -11.3138 490.725 -16.3682 499.527 -16.838C501.071 -16.9203 502.412 -18.0259 502.442 -19.6511Z" fill="#E1A3D8"/>
<path d="M590.277 172.006C587.219 176.854 580.794 179.329 575.243 178.126C569.001 176.772 564.166 172.349 560.275 167.507C559.554 166.61 558.845 165.674 558.157 164.707C553.726 168.217 550.002 172.428 544.905 175.073C539.967 177.634 534.302 178.659 528.773 178.296C517.761 177.574 507.97 170.307 503.454 160.355C501.925 156.986 507.253 154.876 508.771 158.221C514.006 169.758 527.528 175.504 539.46 171.203C545.363 169.075 549.381 164.553 554.089 160.642C554.412 160.374 554.74 160.113 555.072 159.858C550.221 151.24 547.825 141.026 553.139 132.034C553.929 130.697 555.362 129.886 556.918 130.572C558.215 131.144 559.167 133.018 558.38 134.35C555.049 139.986 555.388 146.654 557.783 152.58C558.361 154.008 559.04 155.43 559.803 156.826C563.318 154.98 567.159 153.792 571.158 153.413C576.774 152.882 582.913 153.782 587.431 157.405C591.9 160.988 593.411 167.038 590.277 172.006ZM585.348 163.451C582.901 159.978 577.968 158.937 573.97 158.983C570.09 159.028 566.298 159.955 562.868 161.669C564.474 163.884 566.271 165.946 568.18 167.746C571.572 170.945 576.333 173.936 581.131 172.177C584.729 170.859 587.896 167.066 585.348 163.451Z" fill="#CACAE8"/>
<path d="M562.032 -49.4027C558.997 -50.9318 556.883 -46.1045 559.902 -44.5837C564.617 -42.2079 566.376 -36.0882 564.961 -31.2394C563.275 -25.4604 558.058 -21.4168 552.605 -19.4376C546.013 -17.045 539.096 -17.5105 532.219 -17.4477C525.636 -17.3876 519.257 -15.8179 514.847 -10.6185C510.551 -5.55362 509.074 1.55644 511.152 7.86417C512.213 11.0844 517.101 9.11542 516.042 5.90115C514.43 1.00722 516.149 -4.6631 519.789 -8.22929C524.535 -12.8801 531.732 -12.2324 537.845 -12.166C544.915 -12.0893 552.25 -12.8884 558.543 -16.352C564.369 -19.5589 569.179 -24.9323 570.436 -31.6096C571.751 -38.5877 568.442 -46.1732 562.032 -49.4027Z" fill="#F2D8EF"/>
<path d="M490.486 182.525C490.428 182.065 490.261 181.649 489.986 181.276C489.546 180.732 488.963 180.344 488.257 180.24L487.63 180.147C487.273 180.08 486.927 180.105 486.592 180.222C486.254 180.279 485.947 180.418 485.674 180.637C485.385 180.835 485.164 181.088 485.011 181.395C484.801 181.682 484.677 182.005 484.637 182.366C484.634 182.601 484.631 182.837 484.628 183.072C484.686 183.532 484.853 183.948 485.128 184.321C485.568 184.864 486.151 185.252 486.857 185.357L487.484 185.45C487.841 185.517 488.187 185.491 488.522 185.374C488.86 185.317 489.166 185.179 489.44 184.96C489.729 184.762 489.95 184.509 490.103 184.201C490.312 183.915 490.437 183.592 490.476 183.231C490.48 182.995 490.483 182.76 490.486 182.525Z" fill="#E2BBDF"/>
<path d="M504.602 65.5202C502.653 69.8373 498.442 72.7641 493.66 72.4807C492.231 72.3961 491.245 70.8029 491.44 69.4894C491.662 67.9931 493.012 67.1861 494.432 67.2703C496.53 67.3946 498.439 65.7798 499.445 64.0659C500.871 61.6384 500.692 58.6141 500.105 55.9675C499.033 51.1373 496.391 46.471 493.137 42.6822C486.39 47.9249 476.143 47.6906 468.426 44.4192C463.481 42.3229 459.221 38.7617 456.758 33.9494C454.397 29.335 454.056 23.7138 456.14 18.9429C457.497 15.8349 462.319 17.9622 460.96 21.0726C459.094 25.3441 460.152 30.322 462.931 33.9521C465.902 37.8353 470.634 40.1463 475.357 41.0665C479.67 41.9071 484.455 41.7968 488.353 39.5441C488.688 39.3508 489.017 39.139 489.339 38.9119C486.377 36.3407 483.177 33.9037 481.71 30.1696C480.202 26.3311 481.139 20.9959 484.879 18.76C489.824 15.8044 495.519 19.7357 497.879 24.1536C500.328 28.739 499.728 34.1428 496.995 38.4418C496.91 38.5767 496.818 38.7033 496.729 38.8345C499.814 42.2947 502.28 46.3664 503.946 50.6879C505.733 55.3229 506.727 60.8149 504.602 65.5202ZM491.388 33.7367C491.904 34.1782 492.415 34.6228 492.919 35.0727C493.746 33.6575 494.236 32.0717 494.196 30.4119C494.151 28.571 493.542 26.7812 492.416 25.3229C491.468 24.094 489.789 22.8047 488.147 23.0368C487.723 23.0967 487.475 23.2568 487.112 23.7065C486.84 24.043 486.515 24.7937 486.437 25.1354C486.102 26.6042 486.256 27.7779 487.047 29.1308C488.123 30.9707 489.79 32.3697 491.388 33.7367Z" fill="#AEABDA"/>
<path d="M527.917 205.106C526.827 209.815 522.489 213.557 517.644 213.91C512.511 214.284 507.726 210.936 505.831 206.23C503.847 201.305 505.195 195.387 509.484 192.148C513.544 189.083 519.636 189.144 522.981 193.182C526.754 195.72 528.956 200.615 527.917 205.106ZM518.546 196.829C517.853 196.581 517.375 195.992 517.146 195.312C514.831 194.631 511.917 196.378 510.86 198.49C509.12 201.972 510.835 206.517 514.337 208.126C517.439 209.551 521.341 207.905 522.562 204.704C523.796 201.468 521.636 197.937 518.546 196.829Z" fill="#7B6EB9"/>
<path d="M544.57 246.777C540.948 242.603 535.705 240.043 530.2 239.648C525.08 239.28 520.329 241.241 515.628 242.971C510.966 244.687 506.419 245.874 501.578 244.089C496.98 242.394 492.94 238.672 490.334 234.574C487.586 230.253 486.014 225.035 487.299 219.954C488.128 216.677 483.083 215.156 482.25 218.451C479.543 229.151 485.701 240.127 494.381 246.173C499.25 249.565 505.01 251.032 510.864 249.894C515.857 248.924 520.372 246.375 525.333 245.285C531.054 244.027 536.882 245.95 540.723 250.377C542.952 252.946 546.788 249.333 544.57 246.777Z" fill="#E1A3D8"/>
<path d="M566.817 223.12C565.402 224.839 562.437 225.31 560.409 225.899C556.28 227.098 552.075 227.998 547.817 228.578C546.373 230.351 542.731 229.355 543.142 226.526C543.94 221.052 545.573 215.58 548.155 210.674C549.988 207.192 553.732 203.313 558.025 205.424C560.065 206.426 561.287 208.416 562.478 210.261C563.767 212.258 564.964 214.314 566.092 216.405C567.208 218.477 568.598 220.955 566.817 223.12ZM561.691 219.993C561.808 219.954 561.943 219.891 562.083 219.829C561.697 218.994 561.09 218.148 560.722 217.491C559.942 216.101 559.111 214.738 558.246 213.4C557.63 212.446 556.871 210.731 555.812 210.189C555.443 210 554.979 210.274 554.549 210.662C552.606 212.408 551.638 215.459 550.748 217.827C550.103 219.541 549.582 221.288 549.163 223.059C551.159 222.743 553.143 222.356 555.112 221.89C556.546 221.552 557.967 221.161 559.377 220.733C560.152 220.498 560.924 220.251 561.691 219.993Z" fill="#AEABDA"/>
<path d="M460.07 156.256C460.671 154.113 463.195 152.487 464.813 151.13C468.108 148.368 471.592 145.85 475.255 143.603C475.861 141.398 479.596 140.841 480.36 143.596C481.839 148.926 482.551 154.592 482.168 160.122C481.895 164.048 480.033 169.107 475.254 168.906C472.982 168.811 471.061 167.482 469.227 166.274C467.242 164.967 465.318 163.568 463.442 162.109C461.585 160.664 459.313 158.956 460.07 156.256ZM466.022 157.052C465.931 157.135 465.832 157.246 465.73 157.36C466.419 157.968 467.316 158.498 467.918 158.95C469.192 159.908 470.503 160.82 471.834 161.696C472.782 162.321 474.168 163.584 475.356 163.653C475.771 163.677 476.084 163.239 476.322 162.711C477.395 160.33 477.05 157.148 476.91 154.622C476.808 152.793 476.58 150.985 476.249 149.195C474.551 150.29 472.891 151.444 471.277 152.663C470.101 153.551 468.959 154.481 467.841 155.441C467.227 155.969 466.62 156.506 466.022 157.052Z" fill="#B9D5EA"/>
<path d="M522.881 130.635C517.814 132.757 512.747 134.879 507.681 137.001C505.276 138.008 502.752 139.207 500.054 138.017C497.87 137.054 496.887 134.967 496.402 132.974C495.911 130.957 495.687 128.901 495.183 126.882C494.649 124.743 493.962 122.639 493.144 120.566C491.536 116.488 489.45 112.554 486.877 108.871C486.018 107.641 486.071 106.076 487.423 105.187C488.61 104.407 490.694 104.572 491.551 105.799C496.489 112.866 499.93 120.633 501.567 128.774C501.862 130.237 502.244 131.861 502.544 133.22C502.686 133.104 503.228 132.97 503.369 132.914C504.486 132.471 505.584 131.989 506.689 131.526L520.601 125.7C524.003 124.275 526.252 129.224 522.881 130.635ZM502.667 133.356C502.624 133.347 502.594 133.337 502.57 133.327C502.714 133.872 502.831 133.391 502.667 133.356Z" fill="#FFCCD7"/>
<path d="M567.18 339.459C562.124 341.83 555.613 340.464 551.733 336.538C547.75 332.507 546.612 325.91 549.278 320.84C551.631 316.364 556.531 313.566 561.531 313.74C562.054 313.342 562.75 313.141 563.602 313.289C569.72 314.354 574.993 319.675 575.271 326.028C575.518 331.666 572.301 337.057 567.18 339.459ZM569.382 325.095C568.763 322.541 566.811 320.415 564.404 319.431C563.932 319.673 563.35 319.764 562.67 319.63C558.969 318.901 554.944 320.939 553.861 324.694C552.933 327.911 554.116 331.514 556.877 333.425C559.512 335.248 563.31 335.466 565.968 333.59C568.601 331.732 570.157 328.29 569.382 325.095Z" fill="#E1A3D8"/>
<path d="M457.071 286.403C457.098 284.939 455.809 283.405 454.257 283.488C448.323 283.805 442.507 285.383 437.662 288.918C432.622 292.596 429.264 298.249 428.819 304.501C428.557 308.176 434.287 308.277 434.548 304.603C435.251 294.74 445.354 289.686 454.156 289.216C455.7 289.133 457.041 288.028 457.071 286.403Z" fill="#E1A3D8"/>
<path d="M516.661 256.651C513.626 255.122 511.512 259.949 514.531 261.47C519.246 263.846 521.005 269.966 519.59 274.814C517.904 280.593 512.686 284.637 507.233 286.616C500.641 289.009 493.725 288.543 486.848 288.606C480.265 288.666 473.886 290.236 469.476 295.435C465.18 300.5 463.703 307.61 465.781 313.918C466.841 317.138 471.73 315.169 470.671 311.955C469.059 307.061 470.778 301.391 474.417 297.824C479.164 293.174 486.361 293.821 492.474 293.888C499.544 293.964 506.879 293.165 513.172 289.702C518.998 286.495 523.807 281.121 525.065 274.444C526.379 267.466 523.071 259.88 516.661 256.651Z" fill="#F2D8EF"/>
<path d="M552.869 270.729C549.516 270.232 548.738 275.441 552.097 275.939C555.451 276.436 556.228 271.226 552.869 270.729Z" fill="#AEABDA"/>
<path d="M537.385 309.167C534.341 301.637 523.743 300.105 516.723 300.402C515.3 300.462 514.266 302.006 514.428 303.337C514.611 304.843 515.937 305.692 517.363 305.632C520.789 305.487 524.408 305.927 527.609 307.2C529.604 307.993 532.121 309.351 532.674 311.63C533.024 313.073 532.461 314.552 531.899 315.86C531.126 317.66 530.239 319.415 529.4 321.184C527.671 324.83 525.942 328.475 524.213 332.121C522.757 335.19 527.582 337.31 529.033 334.25C531.063 329.971 533.092 325.692 535.122 321.412C536.934 317.593 539.109 313.435 537.385 309.167Z" fill="#BDBFE1"/>
<path d="M157.936 38.8625C157.637 35.9721 157.361 33.1043 156.255 30.3915C154.415 25.8787 150.765 22.1638 146.391 20.1049C141.896 17.9896 136.787 17.4159 132.07 19.0741C129.346 20.0317 126.817 21.5613 123.979 22.1828C122.022 22.6113 119.941 22.5433 117.993 22.0701C113.167 20.8977 109.201 17.6454 107.278 13.0052C106.685 11.5754 104.602 11.2512 103.402 11.9484C101.937 12.7987 101.782 14.4217 102.376 15.8559C106.183 25.0387 117.463 30.3402 126.833 27.3404C129.715 26.4179 132.34 24.7725 135.299 24.0865C137.241 23.6362 139.297 23.7347 141.224 24.2424C145.364 25.3339 149.081 28.1912 150.889 32.1588C152.039 34.6829 152.112 37.5606 152.427 40.2706C152.848 43.8979 153.625 47.1054 155.873 50.0489C156.811 51.2762 158.9 51.0552 159.882 50.0657C161.075 48.8638 160.818 47.2504 159.877 46.0183C158.379 44.0579 158.18 41.225 157.936 38.8625Z" fill="#938CCB"/>
<path d="M154.3 69.3062C154.123 67.8528 152.633 66.5136 151.107 66.8114C145.276 67.9501 139.735 70.3215 135.429 74.4963C130.95 78.8389 128.412 84.9044 128.841 91.1578C129.093 94.8331 134.781 94.1363 134.528 90.4613C133.852 80.5969 143.153 74.1866 151.804 72.4975C153.322 72.2012 154.496 70.9198 154.3 69.3062Z" fill="#938CCB"/>
<path d="M229.357 -11.8832C227.927 -11.0947 227.571 -9.39749 228.232 -7.99268C231.888 -0.232401 233.205 8.63804 231.971 17.1295C230.68 26.0138 226.364 33.954 219.58 39.8273C214.953 43.8329 209.522 46.796 204.026 49.4262C200.698 51.0186 203.476 56.028 206.793 54.441C216.949 49.5807 226.828 43.1758 232.492 33.1359C237.292 24.6291 238.854 14.6804 237.779 5.04221C237.168 -0.446929 235.601 -5.76508 233.249 -10.759C232.589 -12.1597 230.65 -12.5964 229.357 -11.8832Z" fill="#7B6EB9"/>
<path d="M150.354 213.163C151.592 212.098 151.593 210.364 150.658 209.124C145.489 202.277 142.383 193.865 141.851 185.301C141.294 176.34 143.892 167.685 149.328 160.546C153.036 155.678 157.745 151.666 162.586 147.966C165.516 145.726 161.771 141.391 158.85 143.624C149.905 150.461 141.548 158.753 138.06 169.74C135.106 179.05 135.616 189.107 138.642 198.321C140.366 203.568 142.989 208.453 146.315 212.859C147.248 214.095 149.234 214.126 150.354 213.163Z" fill="#CACAE8"/>
<path d="M366.628 21.1419C360.42 21.759 354.179 21.92 347.95 21.5267C345.783 21.3899 342.347 21.6505 340.623 20.0414C339.239 18.7506 339.108 16.403 338.99 14.639C338.149 2.12173 338.598 -10.618 339.416 -23.1231C339.886 -30.3134 340.579 -37.4873 341.476 -44.6369C341.934 -48.2888 336.269 -49.1415 335.809 -45.4765C334.075 -31.6609 333.153 -17.764 332.995 -3.84173C332.921 2.71803 332.772 9.40933 333.35 15.95C333.581 18.5667 334.227 21.387 335.979 23.4318C338.002 25.7932 340.881 26.6448 343.881 26.9432C351.651 27.7163 359.561 27.5997 367.325 26.828C370.991 26.4636 370.304 20.7765 366.628 21.1419Z" fill="#CACAE8"/>
<path d="M321.812 19.2006C316.834 15.0932 311.446 10.9667 305.169 9.11627C298.764 7.22824 292.427 8.399 287.045 12.3348C281.994 16.0292 277.833 21.162 273.828 25.9206C269.548 31.0078 265.527 36.3132 261.785 41.8083C257.466 48.1491 253.513 54.7432 249.936 61.529C249.215 62.8972 250.058 64.714 251.403 65.3047C252.906 65.9646 254.456 65.2107 255.18 63.8376C260.947 52.8983 267.757 42.5394 275.505 32.8997C279.203 28.299 283.04 23.6386 287.326 19.568C291.206 15.8835 295.774 13.1763 301.302 14.0611C307.783 15.0986 313.322 19.6212 318.233 23.6733C321.083 26.0256 324.655 21.5462 321.812 19.2006Z" fill="#F2D8EF"/>
<path d="M381.93 78.1462C370.489 72.112 359.59 65.1042 349.352 57.1997C347.572 55.8251 347.754 53.3208 349.729 52.2324C353.301 50.2643 357.021 48.5726 360.844 47.1625C361.269 46.6566 361.87 46.2798 362.552 46.0847C365.066 45.3651 367.58 44.6455 370.094 43.926C372.163 43.3339 374.267 42.5712 376.418 42.3402C378.537 42.1126 380.712 42.3705 382.48 43.6575C384.678 45.2574 385.483 47.9052 386.14 50.4121C388.396 59.018 388.305 68.0772 386.237 76.7035C385.763 78.6803 383.4 78.9215 381.93 78.1462ZM379.139 48.2989C378.858 48.4528 378.532 48.5668 378.152 48.6234C370.548 49.7572 363.225 52.0028 356.318 55.2917C364.343 61.2242 372.756 66.615 381.497 71.4323C382.472 65.4084 382.27 59.2044 380.942 53.2483C380.637 51.8817 380.384 49.4006 379.282 48.4108C379.236 48.3697 379.188 48.3337 379.139 48.2989Z" fill="#BDBFE1"/>
<path d="M320.505 86.2952C315.941 89.3552 309.918 88.8756 305.437 85.919C300.703 82.7958 298.957 77.0576 300.702 71.7497C302.35 66.7332 307.138 62.5952 312.518 62.4004C313.219 62.375 313.897 62.5482 314.449 62.8958C319.641 62.6558 324.309 67.204 325.507 72.4603C326.646 77.4548 324.873 83.3668 320.505 86.2952ZM319.894 73.4891C319.623 72.2821 318.867 70.8346 317.963 70.0015C317.011 69.1237 315.048 67.9786 313.728 68.7381C312.644 69.362 311.361 69.4777 310.375 68.787C308.129 69.8343 306.397 71.9401 305.886 74.3447C305.251 77.3349 306.576 80.0616 309.12 81.4989C311.779 83.0021 315.081 83.2199 317.51 81.3947C319.837 79.6465 320.536 76.3483 319.894 73.4891Z" fill="#AEABDA"/>
<path d="M439.186 2.90675C437.884 -7.22061 433.363 -17.1604 424.989 -23.3433C420.388 -26.7405 414.851 -28.9565 409.097 -29.1012C407.551 -29.14 406.09 -28.3522 405.844 -26.6884C405.638 -25.3021 406.7 -23.4751 408.257 -23.436C417.187 -23.2113 425.029 -17.5939 429.273 -9.8926C433.899 -1.49883 434.564 8.45643 433.364 17.7945C432.563 24.0208 431.003 30.1158 429.279 36.1418C428.852 37.6313 430.305 39.1887 431.692 39.3943C433.39 39.6458 434.518 38.4754 434.945 36.9815C438.103 25.948 440.668 14.4382 439.186 2.90675Z" fill="#E1A3D8"/>
<path d="M408.004 16.6447C403.891 19.6352 398.106 19.0839 394.415 15.6526C392.797 14.1484 391.69 12.1998 391.226 10.1577C391.111 9.89928 391.028 9.60842 390.989 9.2816C390.305 3.57511 394.361 -1.99855 400.048 -2.99442C404.897 -3.84366 409.953 -0.755572 411.871 3.66852C413.847 8.22723 411.94 13.7824 408.004 16.6447ZM406.883 8.32983C407.328 5.41691 404.646 2.69635 401.86 2.58618C400.531 2.53354 399.351 3.0704 398.45 3.92017C398.407 4.75443 397.99 5.5666 397.315 6.15765C397.007 6.42784 396.818 6.78176 396.715 7.17283C396.637 7.64343 396.621 8.11949 396.677 8.58515C396.679 8.60617 396.679 8.62562 396.681 8.64643C396.775 9.19435 396.966 9.72111 397.197 10.1313C397.924 11.4221 399.293 12.4056 400.724 12.7763C403.573 13.5142 406.438 11.2369 406.883 8.32983Z" fill="#E2BBDF"/>
<path d="M414.354 138.495C414.098 135.958 413.703 133.436 413.196 130.938C412.146 125.768 410.656 120.69 408.925 115.711C407.012 110.209 404.807 104.816 402.597 99.4283C401.2 96.021 395.877 98.1412 397.28 101.563C400.843 110.25 404.493 119.008 406.728 128.152C407.858 132.778 408.731 137.559 408.899 142.329C408.979 144.576 408.474 146.446 407.005 148.161C405.571 149.833 403.781 151.225 402.069 152.6C397.909 155.942 393.442 158.911 388.722 161.403C387.356 162.124 386.512 163.587 387.131 165.128C387.662 166.449 389.482 167.445 390.857 166.719C395.482 164.276 399.918 161.506 404.065 158.315C408.028 155.266 412.753 151.84 414.134 146.79C414.869 144.104 414.629 141.235 414.354 138.495Z" fill="#CACAE8"/>
<path d="M380.473 101.165C376.024 97.5353 370.193 96.1826 364.612 97.5839C359.816 98.7883 355.932 102.139 352.621 105.655C349.419 109.056 346.559 112.937 342.749 115.701C339.296 118.206 335.091 119.362 330.831 118.937C326.125 118.467 321.48 116.35 318.507 112.598C317.547 111.387 315.913 110.874 314.54 111.775C313.335 112.565 312.752 114.523 313.716 115.741C319.889 123.531 330.847 126.756 340.272 123.446C345.002 121.785 348.753 118.415 352.095 114.787C355.253 111.358 358.152 107.471 362.112 104.91C366.61 102 372.415 101.977 376.651 105.434C379.503 107.761 383.332 103.499 380.473 101.165Z" fill="#E1A3D8"/>
<path d="M442.002 153.253C438.355 152.712 437.509 158.377 441.162 158.918C444.808 159.458 445.654 153.794 442.002 153.253Z" fill="#CACAE8"/>
<path d="M284.295 126.671C281.237 131.519 274.812 133.994 269.261 132.791C263.02 131.437 258.185 127.014 254.294 122.172C253.573 121.275 252.863 120.34 252.175 119.372C247.745 122.882 244.021 127.093 238.923 129.738C233.986 132.299 228.321 133.324 222.792 132.961C211.779 132.239 201.988 124.972 197.473 115.02C195.944 111.651 201.272 109.541 202.79 112.886C208.025 124.423 221.547 130.17 233.479 125.868C239.382 123.74 243.399 119.218 248.107 115.307C248.43 115.039 248.758 114.778 249.09 114.523C244.239 105.905 241.844 95.6913 247.158 86.6991C247.948 85.3621 249.381 84.5515 250.936 85.2371C252.233 85.8089 253.186 87.6827 252.399 89.0148C249.068 94.6513 249.407 101.319 251.802 107.245C252.379 108.673 253.059 110.095 253.822 111.491C257.336 109.645 261.178 108.457 265.176 108.078C270.793 107.547 276.931 108.447 281.449 112.07C285.918 115.653 287.429 121.703 284.295 126.671ZM279.366 118.116C276.919 114.643 271.987 113.602 267.988 113.648C264.109 113.693 260.317 114.62 256.887 116.334C258.492 118.549 260.289 120.611 262.198 122.411C265.59 125.61 270.352 128.601 275.15 126.842C278.748 125.524 281.914 121.731 279.366 118.116Z" fill="#CACAE8"/>
<path d="M367.387 157.599C364.689 162.51 358.599 164.952 353.181 163.73C347.743 162.502 343.841 158.02 342.957 152.562C342.088 147.2 344.725 142.004 349.658 139.71C354.149 137.621 359.427 138.398 363.03 141.671C363.203 141.745 363.372 141.832 363.536 141.932C368.618 145.043 370.202 152.473 367.387 157.599ZM360.365 146.126C360.018 145.946 359.693 145.701 359.41 145.404C357.329 143.224 353.207 143.361 350.694 145.148C348.163 146.947 347.48 150.267 348.521 153.236C349.642 156.434 352.276 158.614 355.7 158.766C358.894 158.907 362.302 157.112 363.241 153.938C364.083 151.091 362.985 147.814 360.365 146.126Z" fill="#E2E2F2"/>
<path d="M282.274 83.1627C282.215 82.703 282.049 82.2867 281.774 81.9138C281.334 81.3704 280.751 80.9824 280.045 80.8777L279.417 80.7848C279.061 80.7181 278.715 80.7433 278.38 80.8604C278.041 80.9176 277.735 81.0558 277.462 81.2749C277.173 81.4732 276.951 81.726 276.798 82.0335C276.589 82.3198 276.465 82.6433 276.425 83.0039L276.416 83.7103C276.474 84.17 276.641 84.5863 276.915 84.9592C277.356 85.5027 277.939 85.8907 278.645 85.9953L279.272 86.0882C279.629 86.1549 279.975 86.1297 280.309 86.0126C280.648 85.9554 280.954 85.8172 281.228 85.5982C281.517 85.3998 281.738 85.147 281.891 84.8396C282.1 84.5533 282.225 84.2298 282.264 83.8691C282.267 83.6336 282.271 83.3982 282.274 83.1627Z" fill="#B9D5EA"/>
<path d="M260.788 7.56068C260.729 7.10097 260.563 6.68467 260.288 6.31177C259.847 5.7683 259.264 5.38032 258.558 5.2757L257.931 5.18279C257.574 5.11609 257.229 5.1413 256.894 5.25839C256.555 5.3156 256.249 5.45373 255.975 5.67282C255.686 5.87116 255.465 6.12401 255.312 6.4314C255.103 6.7177 254.979 7.04121 254.939 7.40191C254.936 7.63735 254.933 7.87281 254.929 8.10827C254.988 8.56794 255.154 8.98423 255.429 9.35716C255.87 9.90062 256.453 10.2886 257.159 10.3932L257.786 10.4861C258.143 10.5528 258.488 10.5276 258.823 10.4105C259.162 10.3533 259.468 10.2152 259.742 9.99611C260.031 9.79779 260.252 9.54493 260.405 9.23751C260.614 8.95122 260.738 8.62772 260.778 8.26704C260.781 8.03158 260.784 7.79611 260.788 7.56068Z" fill="#B9D5EA"/>
<path d="M184.504 137.19C184.446 136.73 184.28 136.314 184.005 135.941C183.564 135.398 182.981 135.01 182.275 134.905L181.648 134.812C181.291 134.745 180.945 134.771 180.611 134.888C180.272 134.945 179.966 135.083 179.692 135.302C179.403 135.501 179.182 135.753 179.029 136.061C178.82 136.347 178.695 136.671 178.656 137.031C178.653 137.267 178.649 137.502 178.646 137.738C178.705 138.197 178.871 138.614 179.146 138.987C179.587 139.53 180.169 139.918 180.876 140.023L181.503 140.116C181.859 140.182 182.205 140.157 182.54 140.04C182.879 139.983 183.185 139.845 183.459 139.626C183.748 139.427 183.969 139.174 184.122 138.867C184.331 138.581 184.455 138.257 184.495 137.896C184.498 137.661 184.501 137.426 184.504 137.19Z" fill="#E2BBDF"/>
<path d="M372.921 201.629C375.96 204.575 380.031 208.615 384.68 207.913C387.865 207.432 390.512 205.034 393.218 203.468C395.516 202.139 398.099 201.143 400.732 200.724C401.004 199.887 401.285 199.064 401.57 198.261C403.428 193.031 405.828 187.729 409.187 183.281C412.399 179.029 416.634 175.449 421.95 174.278C426.837 173.202 431.918 174.204 435.689 177.564C436.756 178.515 436.561 180.37 435.594 181.288C434.5 182.325 432.93 182.139 431.868 181.193C428.967 178.608 424.372 178.639 420.949 180.076C416.193 182.073 412.996 186.488 410.594 190.868C408.883 193.988 407.455 197.267 406.314 200.64C409.562 201.089 412.62 202.452 414.971 204.936C418.18 208.327 419.839 213.569 417.924 218.015C416.211 221.991 411.968 224.595 407.651 224.5C402.134 224.38 398.923 219.617 398.515 214.51C398.308 211.917 398.594 209.23 399.143 206.58C396.802 207.425 394.642 208.773 392.464 210.149C388.391 212.719 383.869 214.192 379.167 212.429C375.243 210.959 372.066 208.133 369.1 205.258C366.656 202.889 370.496 199.278 372.921 201.629ZM412.702 210.79C411.155 207.686 408.174 205.998 404.822 205.74C404.392 207.456 404.034 209.197 403.845 210.949C403.632 212.93 403.517 215.215 404.462 217.042C405.879 219.784 408.772 219.722 411.174 218.21C412.126 217.611 412.989 216.573 413.308 215.302C413.687 213.788 413.39 212.17 412.702 210.79Z" fill="#F2D8EF"/>
<path d="M198.621 20.1852C196.671 24.5023 192.46 27.4292 187.678 27.1458C186.249 27.0611 185.264 25.468 185.458 24.1545C185.68 22.6582 187.03 21.8512 188.45 21.9353C190.548 22.0597 192.457 20.4448 193.463 18.7309C194.889 16.3034 194.71 13.2791 194.123 10.6326C193.052 5.80235 190.41 1.13601 187.155 -2.65281C180.409 2.58991 170.162 2.35564 162.444 -0.915757C157.499 -3.01207 153.239 -6.57329 150.776 -11.3855C148.415 -15.9999 148.074 -21.6211 150.158 -26.3921C151.516 -29.5001 156.337 -27.3727 154.979 -24.2623C153.113 -19.9908 154.171 -15.013 156.949 -11.3828C159.921 -7.49961 164.653 -5.18869 169.375 -4.26844C173.688 -3.42787 178.474 -3.53815 182.372 -5.79083C182.706 -5.98412 183.035 -6.196 183.357 -6.42306C180.395 -8.99426 177.195 -11.4313 175.728 -15.1653C174.221 -19.0038 175.157 -24.339 178.898 -26.575C183.842 -29.5306 189.537 -25.5993 191.897 -21.1813C194.346 -16.596 193.746 -11.1922 191.014 -6.89316C190.928 -6.7583 190.836 -6.63169 190.747 -6.50048C193.832 -3.04022 196.299 1.03148 197.964 5.35292C199.751 9.98794 200.745 15.4799 198.621 20.1852ZM185.407 -11.5982C185.923 -11.1567 186.433 -10.7122 186.938 -10.2622C187.764 -11.6774 188.255 -13.2633 188.214 -14.923C188.169 -16.764 187.56 -18.5538 186.435 -20.0121C185.486 -21.241 183.808 -22.5302 182.165 -22.2982C181.741 -22.2382 181.494 -22.0781 181.13 -21.6285C180.858 -21.2919 180.533 -20.5412 180.455 -20.1996C180.12 -18.7307 180.274 -17.557 181.065 -16.2041C182.141 -14.3642 183.808 -12.9652 185.407 -11.5982Z" fill="#AEABDA"/>
<path d="M221.936 159.771C220.846 164.48 216.508 168.222 211.663 168.575C206.53 168.949 201.745 165.601 199.849 160.895C197.866 155.971 199.214 150.052 203.503 146.813C207.563 143.748 213.655 143.809 217 147.847C220.773 150.385 222.975 155.28 221.936 159.771ZM212.565 151.494C211.871 151.246 211.393 150.657 211.165 149.977C208.85 149.296 205.936 151.043 204.879 153.155C203.139 156.637 204.854 161.182 208.356 162.791C211.458 164.216 215.36 162.57 216.58 159.369C217.815 156.133 215.655 152.602 212.565 151.494Z" fill="#7B6EB9"/>
<path d="M238.589 201.442C234.967 197.268 229.724 194.708 224.219 194.313C219.099 193.946 214.348 195.906 209.647 197.636C204.984 199.352 200.438 200.539 195.597 198.754C190.999 197.059 186.959 193.337 184.353 189.239C181.605 184.918 180.033 179.7 181.318 174.619C182.147 171.342 177.102 169.821 176.269 173.116C173.562 183.816 179.72 194.792 188.399 200.838C193.268 204.23 199.029 205.697 204.882 204.559C209.875 203.589 214.391 201.04 219.352 199.95C225.073 198.693 230.901 200.615 234.742 205.043C236.97 207.611 240.807 203.998 238.589 201.442Z" fill="#FFCCD7"/>
<path d="M260.835 177.785C259.421 179.505 256.455 179.975 254.427 180.564C250.298 181.763 246.094 182.663 241.836 183.243C240.392 185.016 236.749 184.02 237.161 181.191C237.958 175.717 239.591 170.245 242.174 165.339C244.006 161.857 247.751 157.978 252.044 160.089C254.084 161.091 255.306 163.081 256.497 164.926C257.786 166.923 258.982 168.979 260.11 171.071C261.227 173.142 262.617 175.62 260.835 177.785ZM255.71 174.658C255.826 174.619 255.962 174.557 256.101 174.494C255.716 173.659 255.109 172.813 254.74 172.156C253.961 170.766 253.129 169.403 252.265 168.065C251.649 167.111 250.89 165.396 249.831 164.854C249.461 164.665 248.998 164.939 248.567 165.327C246.625 167.073 245.657 170.124 244.766 172.492C244.122 174.206 243.601 175.953 243.182 177.725C245.178 177.408 247.162 177.021 249.13 176.555C250.565 176.217 251.985 175.826 253.395 175.398C254.17 175.163 254.942 174.916 255.71 174.658Z" fill="#AEABDA"/>
<path d="M154.089 110.922C154.69 108.778 157.214 107.152 158.832 105.796C162.126 103.034 165.611 100.515 169.273 98.2682C169.88 96.0633 173.615 95.5067 174.379 98.2611C175.857 103.592 176.57 109.257 176.186 114.788C175.914 118.713 174.052 123.772 169.272 123.572C167.001 123.476 165.08 122.148 163.246 120.94C161.261 119.632 159.337 118.233 157.461 116.774C155.603 115.329 153.332 113.621 154.089 110.922ZM160.04 111.717C159.949 111.8 159.851 111.912 159.748 112.025C160.438 112.633 161.334 113.163 161.937 113.616C163.211 114.573 164.521 115.486 165.852 116.362C166.801 116.987 168.187 118.249 169.375 118.319C169.789 118.343 170.103 117.905 170.341 117.377C171.413 114.995 171.069 111.813 170.928 109.287C170.827 107.459 170.599 105.651 170.268 103.86C168.569 104.955 166.909 106.109 165.296 107.328C164.12 108.217 162.977 109.147 161.86 110.107C161.245 110.634 160.639 111.171 160.04 111.717Z" fill="#B9D5EA"/>
<path d="M216.899 85.3002C211.833 87.4221 206.766 89.544 201.699 91.6658C199.295 92.6727 196.77 93.8718 194.072 92.6821C191.888 91.719 190.905 89.632 190.42 87.6388C189.93 85.622 189.705 83.5661 189.201 81.5466C188.667 79.4078 187.98 77.3045 187.163 75.2311C185.554 71.1529 183.469 67.2192 180.896 63.5365C180.036 62.3064 180.09 60.7411 181.442 59.8521C182.629 59.0719 184.713 59.2367 185.57 60.4637C190.507 67.5311 193.948 75.2979 195.586 83.4388C195.88 84.902 196.263 86.5265 196.562 87.8846C196.705 87.7689 197.246 87.6349 197.388 87.5787C198.504 87.1358 199.602 86.6538 200.708 86.1907L214.62 80.3646C218.022 78.94 220.27 83.8886 216.899 85.3002ZM196.685 88.0212C196.643 88.0123 196.613 88.0025 196.588 87.9921C196.732 88.5368 196.85 88.0559 196.685 88.0212Z" fill="#E1A3D8"/>
<path d="M337.739 182.165C327.959 176.946 318.369 171.377 309.012 165.433C304.719 162.706 300.235 160.063 296.295 156.832C293.671 154.679 290.757 151.727 290.83 148.082C290.887 145.301 292.695 142.818 294.169 140.591C295.979 137.854 297.791 135.118 299.603 132.381C300.388 131.196 300.377 129.625 299.196 128.678C298.165 127.85 296.281 127.893 295.492 129.085C293.776 131.677 292.06 134.27 290.344 136.862C288.723 139.311 287.003 141.764 286.152 144.604C284.669 149.548 286.472 154.337 289.887 158.009C293.382 161.768 297.819 164.444 302.092 167.217C307.24 170.557 312.458 173.789 317.734 176.922C323.614 180.413 329.576 183.764 335.608 186.984C336.863 187.654 338.54 186.872 339.084 185.639C339.694 184.255 338.998 182.837 337.739 182.165Z" fill="#E2BBDF"/>
<path d="M183.986 294.171C182.556 294.959 182.199 296.656 182.861 298.061C186.517 305.821 187.833 314.692 186.6 323.183C185.309 332.068 180.992 340.008 174.208 345.881C169.581 349.887 164.151 352.85 158.655 355.48C155.327 357.072 158.105 362.082 161.422 360.495C171.578 355.634 181.457 349.229 187.121 339.19C191.921 330.683 193.483 320.734 192.408 311.096C191.796 305.607 190.23 300.289 187.877 295.295C187.218 293.894 185.279 293.457 183.986 294.171Z" fill="#7B6EB9"/>
<path d="M261.199 294.124C256.142 296.496 249.632 295.129 245.752 291.203C241.769 287.173 240.631 280.575 243.297 275.505C245.65 271.03 250.55 268.232 255.549 268.405C256.072 268.007 256.768 267.807 257.62 267.955C263.739 269.019 269.011 274.34 269.29 280.694C269.536 286.331 266.319 291.723 261.199 294.124ZM263.401 279.76C262.781 277.206 260.829 275.081 258.422 274.097C257.95 274.338 257.369 274.429 256.689 274.296C252.988 273.567 248.963 275.605 247.88 279.359C246.952 282.577 248.134 286.179 250.896 288.091C253.53 289.914 257.329 290.131 259.986 288.256C262.619 286.397 264.176 282.956 263.401 279.76Z" fill="#E1A3D8"/>
<path d="M321.256 327.196C315.048 327.813 308.807 327.974 302.578 327.58C300.411 327.444 296.975 327.704 295.251 326.095C293.867 324.804 293.736 322.457 293.618 320.693C292.777 308.175 293.226 295.436 294.044 282.931C294.514 275.74 295.207 268.566 296.103 261.417C296.562 257.765 290.896 256.912 290.437 260.577C288.703 274.393 287.781 288.29 287.623 302.212C287.549 308.772 287.4 315.463 287.978 322.004C288.209 324.62 288.855 327.441 290.607 329.485C292.63 331.847 295.509 332.698 298.509 332.997C306.279 333.77 314.189 333.653 321.953 332.882C325.619 332.517 324.932 326.83 321.256 327.196Z" fill="#CACAE8"/>
<path d="M276.441 325.254C271.463 321.147 266.075 317.02 259.798 315.17C253.393 313.282 247.056 314.453 241.674 318.389C236.623 322.083 232.462 327.216 228.457 331.974C224.176 337.061 220.156 342.367 216.413 347.862C212.095 354.203 208.142 360.797 204.565 367.583C203.844 368.951 204.687 370.768 206.032 371.358C207.535 372.018 209.085 371.264 209.809 369.891C215.576 358.952 222.386 348.593 230.134 338.953C233.832 334.353 237.669 329.692 241.955 325.622C245.835 321.937 250.403 319.23 255.93 320.115C262.412 321.152 267.951 325.675 272.861 329.727C275.712 332.079 279.284 327.6 276.441 325.254Z" fill="#F2D8EF"/>
<path d="M393.814 308.961C392.512 298.834 387.991 288.894 379.617 282.711C375.016 279.314 369.479 277.098 363.725 276.953C362.179 276.914 360.718 277.702 360.472 279.366C360.266 280.752 361.328 282.579 362.885 282.618C371.815 282.843 379.657 288.46 383.901 296.162C388.527 304.555 389.192 314.511 387.992 323.849C387.191 330.075 385.631 336.17 383.907 342.196C383.48 343.685 384.933 345.243 386.32 345.448C388.018 345.7 389.146 344.53 389.573 343.036C392.731 332.002 395.296 320.492 393.814 308.961Z" fill="#E1A3D8"/>
<path d="M362.633 322.698C358.52 325.689 352.735 325.138 349.044 321.706C347.426 320.202 346.319 318.254 345.855 316.211C345.74 315.953 345.657 315.662 345.618 315.335C344.934 309.629 348.99 304.055 354.677 303.059C359.526 302.21 364.582 305.298 366.5 309.722C368.476 314.281 366.569 319.836 362.633 322.698ZM361.512 314.384C361.957 311.471 359.275 308.75 356.489 308.64C355.16 308.587 353.98 309.124 353.079 309.974C353.036 310.808 352.619 311.62 351.944 312.211C351.636 312.482 351.447 312.835 351.344 313.227C351.266 313.697 351.25 314.173 351.306 314.639C351.308 314.66 351.308 314.679 351.31 314.7C351.404 315.248 351.595 315.775 351.826 316.185C352.553 317.476 353.922 318.459 355.353 318.83C358.202 319.568 361.067 317.291 361.512 314.384Z" fill="#E2BBDF"/>
<path d="M330.346 282.081C326.441 282.326 322.739 279.788 320.851 276.474C318.745 272.779 318.766 268.077 319.965 264.095C321.388 259.37 324.708 255.236 325.071 250.187C325.395 245.667 323.741 241.075 319.49 238.972C316.178 237.334 313.878 242.581 317.174 244.212C320.627 245.92 319.321 251.164 318.136 253.948C316.087 258.76 313.668 263.152 313.477 268.52C313.302 273.468 314.633 278.509 318.014 282.238C321.372 285.941 326.011 288.083 331.043 287.767C334.72 287.535 334.021 281.85 330.346 282.081Z" fill="#AEABDA"/>
<path d="M151.09 241.068C151.117 239.604 149.828 238.07 148.276 238.153C142.342 238.47 136.526 240.048 131.681 243.583C126.641 247.261 123.283 252.914 122.838 259.166C122.576 262.841 128.305 262.942 128.567 259.268C129.269 249.405 139.373 244.351 148.174 243.881C149.718 243.798 151.06 242.693 151.09 241.068Z" fill="#FFCCD7"/>
<path d="M354.75 207.13C354.371 205.716 352.708 204.599 351.239 205.109C345.625 207.056 340.474 210.182 336.798 214.921C332.974 219.85 331.314 226.212 332.618 232.343C333.385 235.947 338.918 234.457 338.151 230.854C336.094 221.183 344.401 213.529 352.729 210.64C354.189 210.134 355.172 208.7 354.75 207.13Z" fill="#E2E2F2"/>
<path d="M210.68 211.316C207.645 209.787 205.531 214.614 208.549 216.135C213.265 218.511 215.023 224.631 213.609 229.479C211.922 235.258 206.705 239.302 201.252 241.281C194.66 243.674 187.744 243.208 180.867 243.271C174.284 243.331 167.905 244.901 163.495 250.1C159.199 255.165 157.721 262.275 159.799 268.583C160.86 271.803 165.748 269.834 164.689 266.62C163.077 261.726 164.797 256.056 168.436 252.489C173.182 247.839 180.379 248.486 186.493 248.553C193.563 248.629 200.898 247.83 207.191 244.367C213.017 241.16 217.826 235.786 219.084 229.109C220.398 222.131 217.089 214.546 210.68 211.316Z" fill="#F2D8EF"/>
<path d="M424.791 270.503C424.255 260.489 422.534 250.595 419.828 240.944C419.444 239.574 417.619 238.991 416.401 239.481C414.964 240.058 414.552 241.532 414.938 242.907C417.296 251.315 418.776 259.973 419.405 268.682C419.537 270.504 419.972 272.738 419.439 274.531C419.006 275.989 417.283 276.271 416.008 276.672C411.781 278 407.506 279.165 403.192 280.172C401.807 280.495 400.711 281.586 400.896 283.107C401.054 284.403 402.439 285.727 403.832 285.402C408.748 284.254 413.641 282.957 418.447 281.411C420.681 280.692 422.723 279.632 423.883 277.496C425.041 275.366 424.917 272.844 424.791 270.503Z" fill="#BDBFE1"/>
<path d="M374.477 263.643C372.834 263.773 371.414 262.914 369.977 262.23C363.958 259.366 357.94 256.502 351.922 253.638C350.398 252.913 348.817 252.242 348.391 250.427C347.972 248.638 349.216 247.368 350.462 246.323C353.012 244.186 355.579 242.069 358.162 239.972C363.263 235.833 368.43 231.776 373.657 227.797C374.722 226.986 376.101 226.753 377.172 227.65C378.547 227.568 380.018 228.416 380.068 230.188C380.268 237.318 380.035 244.457 379.338 251.557C379.178 253.189 378.994 254.818 378.787 256.444C378.613 257.804 378.558 259.282 378.09 260.581C377.506 262.205 376.27 263.502 374.477 263.643ZM373.309 258.003C373.372 257.615 373.414 257.223 373.466 256.835C374.494 249.094 374.936 241.275 374.86 233.466C371.558 236.005 368.279 238.573 365.028 241.176C362.964 242.829 360.91 244.495 358.866 246.174C357.944 246.932 357.023 247.693 356.105 248.457C355.753 248.749 355.403 249.041 355.053 249.334C355.229 249.407 355.393 249.478 355.533 249.544C356.641 250.072 357.75 250.599 358.859 251.127C360.997 252.144 363.135 253.162 365.273 254.179C367.411 255.196 369.549 256.214 371.687 257.231C372.228 257.488 372.768 257.746 373.309 258.003Z" fill="#7B6EB9"/>
<path d="M246.888 225.394C243.534 224.897 242.756 230.107 246.115 230.605C249.469 231.102 250.247 225.892 246.888 225.394Z" fill="#AEABDA"/>
<path d="M231.404 263.833C228.36 256.302 217.762 254.77 210.742 255.067C209.319 255.128 208.284 256.671 208.446 258.003C208.63 259.508 209.956 260.358 211.382 260.297C214.808 260.152 218.427 260.592 221.628 261.865C223.623 262.659 226.14 264.016 226.693 266.296C227.043 267.739 226.48 269.217 225.918 270.526C225.145 272.326 224.258 274.081 223.418 275.85C221.689 279.495 219.96 283.141 218.231 286.786C216.775 289.856 221.601 291.975 223.052 288.916C225.081 284.637 227.111 280.357 229.141 276.078C230.952 272.258 233.128 268.1 231.404 263.833Z" fill="#BDBFE1"/>
<path d="M215.417 313.614C215.358 313.155 215.192 312.738 214.917 312.365C214.476 311.822 213.893 311.434 213.187 311.329L212.56 311.237C212.203 311.17 211.858 311.195 211.523 311.312C211.184 311.369 210.878 311.507 210.604 311.727C210.315 311.925 210.094 312.178 209.941 312.485C209.732 312.771 209.608 313.095 209.568 313.456C209.565 313.691 209.562 313.927 209.558 314.162C209.617 314.622 209.783 315.038 210.058 315.411C210.499 315.954 211.082 316.342 211.788 316.447L212.415 316.54C212.772 316.607 213.117 316.581 213.452 316.464C213.791 316.407 214.097 316.269 214.371 316.05C214.66 315.852 214.881 315.599 215.034 315.291C215.243 315.005 215.367 314.681 215.407 314.321C215.41 314.085 215.413 313.85 215.417 313.614Z" fill="#B9D5EA"/>
<path d="M312.213 197.357C316.654 199.008 319.861 203.01 319.903 207.799C319.915 209.229 318.392 210.321 317.068 210.216C315.56 210.096 314.663 208.805 314.65 207.382C314.632 205.281 312.891 203.487 311.112 202.6C308.592 201.343 305.586 201.727 302.985 202.492C298.237 203.889 293.76 206.841 290.2 210.345C295.891 216.718 296.353 226.954 293.613 234.874C291.856 239.948 288.592 244.439 283.957 247.222C279.512 249.891 273.925 250.613 269.023 248.859C265.829 247.716 267.624 242.762 270.821 243.906C275.21 245.477 280.106 244.083 283.54 241.066C287.213 237.838 289.198 232.961 289.796 228.189C290.342 223.83 289.906 219.064 287.393 215.329C287.178 215.009 286.944 214.695 286.696 214.389C284.331 217.518 282.116 220.875 278.489 222.592C274.761 224.357 269.373 223.785 266.887 220.206C263.602 215.475 267.138 209.528 271.387 206.874C275.797 204.12 281.23 204.351 285.706 206.784C285.847 206.86 285.979 206.944 286.116 207.023C289.36 203.712 293.256 200.975 297.455 199.02C301.959 196.923 307.373 195.558 312.213 197.357ZM281.392 212.697C281.797 212.152 282.206 211.612 282.621 211.079C281.152 210.35 279.536 209.969 277.883 210.122C276.049 210.292 274.304 211.021 272.925 212.243C271.763 213.272 270.59 215.034 270.934 216.656C271.022 217.075 271.199 217.311 271.672 217.643C272.027 217.892 272.798 218.165 273.144 218.219C274.633 218.454 275.794 218.22 277.09 217.339C278.853 216.141 280.136 214.383 281.392 212.697Z" fill="#938CCB"/>
<path d="M153.25 326.239C151.301 330.556 147.089 333.483 142.307 333.2C140.879 333.115 139.893 331.522 140.087 330.208C140.309 328.712 141.659 327.905 143.08 327.989C145.178 328.113 147.086 326.499 148.093 324.785C149.518 322.357 149.339 319.333 148.752 316.686C147.681 311.856 145.039 307.19 141.784 303.401C135.038 308.644 124.791 308.409 117.073 305.138C112.128 303.042 107.868 299.48 105.406 294.668C103.044 290.054 102.703 284.433 104.787 279.662C106.145 276.554 110.966 278.681 109.608 281.791C107.742 286.063 108.8 291.041 111.578 294.671C114.55 298.554 119.282 300.865 124.004 301.785C128.317 302.626 133.103 302.516 137.001 300.263C137.335 300.07 137.664 299.858 137.986 299.631C135.024 297.059 131.824 294.622 130.358 290.888C128.85 287.05 129.786 281.715 133.527 279.479C138.471 276.523 144.167 280.454 146.526 284.872C148.975 289.458 148.375 294.862 145.643 299.161C145.557 299.295 145.465 299.422 145.376 299.553C148.461 303.014 150.928 307.085 152.594 311.407C154.38 316.042 155.375 321.534 153.25 326.239ZM140.036 294.456C140.552 294.897 141.062 295.342 141.567 295.791C142.393 294.376 142.884 292.79 142.843 291.131C142.798 289.29 142.19 287.5 141.064 286.042C140.115 284.813 138.437 283.523 136.795 283.756C136.37 283.815 136.123 283.976 135.759 284.425C135.487 284.762 135.162 285.513 135.084 285.854C134.749 287.323 134.903 288.497 135.695 289.85C136.771 291.689 138.438 293.088 140.036 294.456Z" fill="#AEABDA"/>
</g>
</g>
<defs>
<clipPath id="clip0_2266_799">
<rect width="558" height="315" rx="12" fill="white"/>
</clipPath>
<clipPath id="clip1_2266_799">
<rect width="771" height="488" fill="white" transform="translate(-115 -24)"/>
</clipPath>
</defs>
</svg>
