<svg width="558" height="315" viewBox="0 0 558 315" fill="none" xmlns="http://www.w3.org/2000/svg">
<g id="video-cover">
<g id="video-cover-bg">
<rect id="video-solid-bg" width="558" height="315" rx="15" fill="#F1F1F4"/>
<g id="video-detail-bg">
<g id="Clip path group">
<mask id="mask0_103_3636" style="mask-type:luminance" maskUnits="userSpaceOnUse" x="0" y="0" width="558" height="315">
<g id="uuid-ff3c9172-4dcc-4978-a104-d75da5691b3f">
<path id="Vector" d="M543 0H15C6.71573 0 0 6.71573 0 15V300C0 308.284 6.71572 315 15 315H543C551.284 315 558 308.284 558 300V15C558 6.71573 551.284 0 543 0Z" fill="white"/>
</g>
</mask>
<g mask="url(#mask0_103_3636)">
<g id="Group">
<g id="Group_2">
<g id="Group_3">
<g id="Group_4">
<path id="Vector_2" d="M39.1285 -29.9039C37.4702 -28.9837 37.0566 -27.0032 37.8242 -25.3639C42.0645 -16.3082 43.5914 -5.95707 42.1604 3.95186C40.6632 14.3192 35.6566 23.5848 27.7879 30.4386C22.4211 35.1128 16.1221 38.5705 9.7472 41.6398C5.88751 43.498 9.10978 49.3437 12.9567 47.4916C24.7369 41.8201 36.195 34.346 42.7653 22.6302C48.3324 12.7034 50.1437 1.09395 48.8976 -10.1532C48.1879 -16.5586 46.371 -22.7645 43.6423 -28.592C42.8769 -30.2265 40.6286 -30.7361 39.1285 -29.9039Z" fill="#ED5E7E"/>
<path id="Vector_3" d="M198.346 8.63387C191.145 9.3539 183.907 9.54181 176.682 9.08286C174.169 8.92324 170.184 9.22736 168.183 7.34968C166.579 5.84338 166.427 3.10392 166.289 1.04536C165.314 -13.5614 165.834 -28.4276 166.784 -43.0203C167.329 -51.4108 168.132 -59.7823 169.172 -68.1253C169.704 -72.3869 163.133 -73.3819 162.6 -69.105C160.589 -52.9832 159.519 -36.7666 159.336 -20.5203C159.25 -12.8655 159.078 -5.05724 159.748 2.57529C160.016 5.62878 160.765 8.91979 162.797 11.3059C165.143 14.0615 168.483 15.0553 171.962 15.4035C180.974 16.3057 190.149 16.1696 199.154 15.2691C203.407 14.8439 202.61 8.20744 198.346 8.63387Z" fill="#FFE58F"/>
<path id="Vector_4" d="M146.365 6.3686C140.592 1.57556 134.343 -3.23977 127.061 -5.39908C119.632 -7.60227 112.282 -6.23608 106.04 -1.64329C100.181 2.66781 95.355 8.6574 90.7103 14.2104C85.7449 20.1467 81.0817 26.3378 76.7408 32.7502C71.7319 40.1494 67.1472 47.8442 62.9978 55.7628C62.1612 57.3594 63.1399 59.4794 64.6999 60.1688C66.4427 60.9389 68.2409 60.0591 69.0805 58.4568C75.7696 45.6914 83.6682 33.6034 92.6551 22.3545C96.9443 16.9858 101.394 11.5474 106.366 6.79734C110.866 2.49779 116.165 -0.661358 122.576 0.371185C130.094 1.58188 136.518 6.85939 142.214 11.5879C145.52 14.3328 149.663 9.10578 146.365 6.3686Z" fill="#AFE2DB"/>
<path id="Vector_5" d="M216.095 75.1536C202.825 68.1122 190.183 59.9346 178.309 50.7106C176.243 49.1065 176.455 46.1842 178.746 44.9141C182.888 42.6175 187.203 40.6434 191.638 38.9979C192.131 38.4075 192.828 37.9678 193.618 37.7402C196.534 36.9005 199.451 36.0608 202.367 35.2211C204.766 34.5302 207.206 33.6402 209.701 33.3707C212.159 33.1051 214.682 33.406 216.733 34.9078C219.282 36.7747 220.216 39.8646 220.978 42.79C223.594 52.8324 223.489 63.4038 221.091 73.4701C220.541 75.777 217.8 76.0584 216.095 75.1536ZM212.858 40.3241C212.532 40.5036 212.154 40.6366 211.713 40.7027C202.893 42.0258 194.399 44.6462 186.387 48.4841C195.696 55.4069 205.454 61.6976 215.593 67.319C216.723 60.2896 216.489 53.0499 214.948 46.0996C214.595 44.5049 214.302 41.6096 213.023 40.4545C212.97 40.4067 212.914 40.3647 212.858 40.3241Z" fill="#BDBFE1"/>
<path id="Vector_6" d="M144.85 84.6633C139.556 88.234 132.569 87.6743 127.372 84.2242C121.881 80.5796 119.857 73.8836 121.88 67.6897C123.792 61.8358 129.346 57.0071 135.585 56.7797C136.399 56.7501 137.185 56.9522 137.825 57.3578C143.848 57.0778 149.262 62.3852 150.652 68.5189C151.972 74.3471 149.916 81.246 144.85 84.6633ZM144.141 69.7194C143.826 68.3109 142.95 66.6219 141.902 65.6496C140.797 64.6253 138.52 63.2891 136.989 64.1754C135.731 64.9034 134.244 65.0384 133.1 64.2324C130.495 65.4545 128.486 67.9119 127.894 70.7178C127.157 74.2072 128.694 77.3891 131.644 79.0663C134.728 80.8204 138.558 81.0746 141.376 78.9447C144.075 76.9047 144.885 73.0559 144.141 69.7194Z" fill="#F9BA7A"/>
<path id="Vector_7" d="M282.505 -12.6449C280.995 -24.4628 275.751 -36.0618 266.039 -43.2768C260.703 -47.2412 254.28 -49.827 247.606 -49.9958C245.812 -50.0412 244.118 -49.1219 243.832 -47.1803C243.594 -45.5626 244.826 -43.4307 246.632 -43.3849C256.989 -43.1228 266.085 -36.5677 271.008 -27.5808C276.373 -17.7859 277.144 -6.16882 275.752 4.72804C274.824 11.9937 273.014 19.1061 271.014 26.1381C270.52 27.8761 272.204 29.6936 273.813 29.9334C275.783 30.227 277.091 28.8611 277.587 27.1178C281.249 14.2426 284.225 0.81142 282.505 -12.6449Z" fill="#FFCCD7"/>
<path id="Vector_8" d="M253.702 145.576C253.406 142.616 252.947 139.673 252.359 136.758C251.142 130.726 249.414 124.8 247.406 118.989C245.187 112.569 242.629 106.275 240.066 99.9887C238.445 96.0127 232.271 98.4867 233.899 102.479C238.031 112.617 242.265 122.837 244.857 133.507C246.168 138.906 247.181 144.485 247.376 150.05C247.468 152.673 246.883 154.855 245.178 156.856C243.515 158.808 241.439 160.432 239.454 162.037C234.628 165.936 229.447 169.401 223.973 172.309C222.388 173.151 221.409 174.858 222.127 176.656C222.743 178.197 224.853 179.359 226.449 178.512C231.813 175.662 236.959 172.428 241.769 168.705C246.365 165.147 251.846 161.149 253.447 155.256C254.299 152.122 254.022 148.774 253.702 145.576Z" fill="#FCD861"/>
<path id="Vector_9" d="M214.405 102.016C209.245 97.7797 202.481 96.2012 196.009 97.8364C190.446 99.2418 185.94 103.152 182.1 107.255C178.386 111.224 175.069 115.753 170.649 118.978C166.644 121.901 161.767 123.25 156.827 122.754C151.368 122.206 145.98 119.735 142.531 115.357C141.418 113.943 139.524 113.345 137.93 114.396C136.533 115.318 135.856 117.603 136.975 119.024C144.135 128.115 156.845 131.878 167.777 128.016C173.264 126.077 177.613 122.145 181.49 117.911C185.153 113.91 188.516 109.374 193.108 106.385C198.326 102.989 205.059 102.963 209.972 106.997C213.28 109.712 217.722 104.738 214.405 102.016Z" fill="#FFCCD7"/>
<path id="Vector_10" d="M285.772 162.797C281.543 162.167 280.562 168.777 284.798 169.408C289.027 170.039 290.008 163.429 285.772 162.797Z" fill="#FCD861"/>
<path id="Vector_11" d="M102.85 131.779C99.3034 137.436 91.8509 140.325 85.4124 138.92C78.1729 137.341 72.5654 132.179 68.0522 126.529C67.2156 125.482 66.3927 124.391 65.5947 123.262C60.4557 127.357 56.1368 132.271 50.2239 135.358C44.4973 138.347 37.9265 139.543 31.5137 139.119C18.74 138.276 7.38388 129.797 2.14652 118.184C0.373088 114.251 6.55303 111.789 8.31359 115.693C14.3853 129.156 30.0697 135.862 43.9089 130.842C50.7561 128.358 55.4156 123.082 60.8766 118.518C61.2508 118.205 61.6314 117.901 62.0164 117.603C56.3901 107.546 53.6118 95.628 59.775 85.1347C60.6913 83.5745 62.3534 82.6286 64.1578 83.4287C65.6621 84.0959 66.767 86.2825 65.8541 87.837C61.9908 94.4144 62.3839 102.195 65.1618 109.11C65.8312 110.776 66.6195 112.436 67.5047 114.065C71.5808 111.911 76.0369 110.525 80.6742 110.083C87.1887 109.462 94.3091 110.513 99.549 114.74C104.733 118.922 106.485 125.982 102.85 131.779ZM97.1333 121.796C94.2951 117.743 88.5739 116.528 83.9361 116.582C79.4365 116.634 75.0381 117.717 71.0593 119.717C72.922 122.302 75.0062 124.707 77.2202 126.808C81.1548 130.541 86.6772 134.031 92.2427 131.979C96.4155 130.441 100.088 126.014 97.1333 121.796Z" fill="#FCD861"/>
<path id="Vector_12" d="M199.227 167.869C196.098 173.6 189.035 176.45 182.75 175.023C176.443 173.591 171.917 168.36 170.891 161.991C169.883 155.735 172.943 149.671 178.664 146.994C183.873 144.556 189.994 145.463 194.174 149.283C194.374 149.369 194.571 149.47 194.761 149.587C200.656 153.217 202.493 161.888 199.227 167.869ZM191.083 154.482C190.68 154.272 190.304 153.985 189.975 153.638C187.562 151.095 182.78 151.255 179.865 153.34C176.93 155.439 176.138 159.314 177.345 162.778C178.645 166.51 181.701 169.054 185.671 169.231C189.377 169.396 193.33 167.3 194.419 163.597C195.395 160.275 194.122 156.451 191.083 154.482Z" fill="#FFE0C2"/>
<path id="Vector_13" d="M100.506 81.0078C100.438 80.4714 100.245 79.9856 99.9261 79.5505C99.4152 78.9163 98.739 78.4635 97.92 78.3415L97.1926 78.233C96.7788 78.1552 96.3777 78.1846 95.9895 78.3213C95.5967 78.388 95.2416 78.5492 94.9241 78.8049C94.5888 79.0363 94.3324 79.3314 94.155 79.6901C93.9123 80.0242 93.768 80.4017 93.7221 80.8226L93.7109 81.6469C93.7787 82.1833 93.9719 82.6691 94.2906 83.1042C94.8015 83.7384 95.4777 84.1912 96.2967 84.3132L97.0241 84.4217C97.4379 84.4995 97.8389 84.4701 98.2272 84.3334C98.62 84.2667 98.9751 84.1055 99.2926 83.8498C99.6279 83.6184 99.8843 83.3233 100.062 82.9646C100.304 82.6305 100.449 82.253 100.495 81.8321C100.498 81.5574 100.502 81.2826 100.506 81.0078Z" fill="#B9D5EA"/>
<path id="Vector_14" d="M205.645 219.249C209.171 222.687 213.892 227.402 219.284 226.582C222.979 226.02 226.048 223.223 229.188 221.396C231.853 219.844 234.849 218.683 237.903 218.193C238.218 217.217 238.545 216.255 238.875 215.319C241.03 209.216 243.814 203.029 247.71 197.839C251.435 192.876 256.347 188.699 262.513 187.333C268.181 186.077 274.075 187.246 278.449 191.167C279.687 192.276 279.46 194.442 278.338 195.513C277.07 196.723 275.249 196.505 274.017 195.402C270.652 192.385 265.323 192.421 261.352 194.098C255.836 196.428 252.128 201.581 249.342 206.692C247.357 210.333 245.7 214.159 244.378 218.096C248.144 218.619 251.692 220.209 254.418 223.108C258.141 227.065 260.065 233.182 257.843 238.37C255.856 243.01 250.935 246.049 245.928 245.938C239.53 245.797 235.805 240.239 235.331 234.281C235.091 231.254 235.423 228.119 236.059 225.026C233.344 226.012 230.84 227.586 228.312 229.191C223.589 232.191 218.344 233.909 212.89 231.853C208.339 230.137 204.654 226.839 201.214 223.484C198.379 220.719 202.833 216.506 205.645 219.249ZM251.787 229.939C249.992 226.317 246.535 224.347 242.647 224.047C242.148 226.048 241.733 228.08 241.514 230.125C241.267 232.436 241.134 235.103 242.229 237.236C243.873 240.434 247.229 240.363 250.014 238.599C251.119 237.899 252.12 236.687 252.489 235.204C252.929 233.438 252.585 231.55 251.787 229.939Z" fill="#AFE2DB"/>
<path id="Vector_15" d="M3.47825 7.51755C1.2172 12.5553 -3.66753 15.9707 -9.21408 15.64C-10.871 15.5413 -12.0146 13.6821 -11.7887 12.1494C-11.5314 10.4033 -9.96553 9.4616 -8.31815 9.55983C-5.88477 9.7049 -3.67103 7.8205 -2.50365 5.82049C-0.850224 2.98781 -1.05737 -0.541374 -1.73835 -3.6297C-2.98127 -9.26621 -6.0456 -14.7115 -9.82082 -19.1328C-17.6457 -13.0149 -29.5309 -13.2883 -38.4823 -17.1058C-44.2183 -19.552 -49.1592 -23.7077 -52.0156 -29.3232C-54.7545 -34.7079 -55.1498 -41.2674 -52.7327 -46.8348C-51.1581 -50.4616 -45.5658 -47.9791 -47.1416 -44.3495C-49.3056 -39.365 -48.0786 -33.5562 -44.8562 -29.3201C-41.4093 -24.7886 -35.9207 -22.092 -30.4435 -21.0181C-25.4407 -20.0372 -19.89 -20.1659 -15.369 -22.7946C-14.981 -23.0202 -14.5994 -23.2674 -14.226 -23.5324C-17.6612 -26.5328 -21.3729 -29.3766 -23.0741 -33.734C-24.823 -38.2133 -23.7369 -44.439 -19.3983 -47.0483C-13.6634 -50.4972 -7.05726 -45.9097 -4.32037 -40.7542C-1.47972 -35.4034 -2.17584 -29.0976 -5.34494 -24.081C-5.44432 -23.9236 -5.55135 -23.7758 -5.65409 -23.6227C-2.07619 -19.5849 0.785004 -14.8335 2.71697 -9.79066C4.78912 -4.38192 5.94257 2.02685 3.47825 7.51755ZM-11.8487 -29.5714C-11.2501 -29.0563 -10.6579 -28.5375 -10.0728 -28.0124C-9.11399 -29.6639 -8.54535 -31.5145 -8.59243 -33.4512C-8.64466 -35.5995 -9.35034 -37.6881 -10.6561 -39.3898C-11.7564 -40.8238 -13.7032 -42.3283 -15.6081 -42.0575C-16.1002 -41.9875 -16.387 -41.8007 -16.8087 -41.276C-17.1244 -40.8833 -17.5013 -40.0073 -17.5917 -39.6086C-17.9801 -37.8945 -17.8015 -36.5249 -16.8838 -34.9462C-15.6357 -32.7992 -13.7023 -31.1666 -11.8487 -29.5714Z" fill="#F9BA7A"/>
<path id="Vector_16" d="M30.5201 170.404C29.2565 175.899 24.2245 180.266 18.6048 180.678C12.6518 181.115 7.10126 177.207 4.90283 171.716C2.60227 165.969 4.16566 159.062 9.1409 155.283C13.8498 151.706 20.9159 151.777 24.7953 156.49C29.1713 159.452 31.7254 165.164 30.5201 170.404ZM19.6511 160.746C18.8469 160.456 18.2925 159.769 18.0278 158.976C15.3427 158.181 11.962 160.219 10.7368 162.684C8.71805 166.747 10.707 172.051 14.769 173.928C18.3677 175.591 22.8931 173.671 24.3089 169.936C25.7404 166.159 23.2355 162.038 19.6511 160.746Z" fill="#ED5E7E"/>
<path id="Vector_17" d="M49.8368 219.031C45.6358 214.16 39.5545 211.173 33.1692 210.712C27.2303 210.284 21.7195 212.572 16.2672 214.59C10.8592 216.592 5.58582 217.978 -0.0292873 215.895C-5.36212 213.917 -10.0486 209.574 -13.0713 204.791C-16.258 199.749 -18.0815 193.66 -16.5906 187.731C-15.6291 183.907 -21.4812 182.132 -22.4478 185.977C-25.5874 198.463 -18.4442 211.271 -8.37737 218.326C-2.72995 222.284 3.9512 223.997 10.7409 222.669C16.5322 221.537 21.7697 218.562 27.5234 217.29C34.1595 215.823 40.9195 218.067 45.3747 223.233C47.9593 226.23 52.4093 222.014 49.8368 219.031Z" fill="#FFCCD7"/>
<path id="Vector_18" d="M75.6393 191.425C73.9985 193.432 70.5589 193.98 68.2066 194.668C63.4177 196.067 58.541 197.118 53.6023 197.794C51.9272 199.863 47.7022 198.7 48.18 195.4C49.1047 189.012 50.999 182.627 53.9939 176.902C56.1197 172.838 60.4625 168.312 65.442 170.775C67.8082 171.945 69.2255 174.267 70.6068 176.42C72.102 178.75 73.49 181.149 74.7983 183.59C76.0937 186.007 77.7054 188.899 75.6393 191.425ZM69.6944 187.776C69.8296 187.73 69.9864 187.658 70.1486 187.585C69.7012 186.611 68.9973 185.623 68.5697 184.856C67.6655 183.235 66.7014 181.644 65.6987 180.082C64.9841 178.969 64.1037 176.968 62.8753 176.336C62.447 176.115 61.9089 176.435 61.4096 176.887C59.1571 178.925 58.0338 182.486 57.001 185.249C56.2534 187.249 55.6496 189.287 55.163 191.354C57.4782 190.985 59.7798 190.533 62.063 189.99C63.7265 189.595 65.3743 189.139 67.0099 188.64C67.9089 188.365 68.8039 188.077 69.6944 187.776Z" fill="#F9BA7A"/>
<path id="Vector_19" d="M24.6799 83.5022C18.8031 85.9783 12.9263 88.4543 7.04943 90.9304C4.26077 92.1053 1.3326 93.5046 -1.79706 92.1162C-4.33037 90.9924 -5.47043 88.557 -6.03269 86.2311C-6.60159 83.8776 -6.86217 81.4786 -7.44678 79.122C-8.06591 76.6262 -8.86305 74.1717 -9.81136 71.7523C-11.6766 66.9933 -14.096 62.403 -17.0801 58.1054C-18.0769 56.67 -18.0152 54.8435 -16.4466 53.8061C-15.0702 52.8957 -12.6529 53.0879 -11.6587 54.5198C-5.93197 62.7669 -1.94081 71.8302 -0.0413189 81.3301C0.300055 83.0374 0.743856 84.9331 1.09083 86.5179C1.25659 86.3829 1.88431 86.2266 2.04882 86.161C3.34391 85.6442 4.617 85.0817 5.89959 84.5413L22.0359 77.7427C25.9817 76.0803 28.5896 81.8549 24.6799 83.5022ZM1.23366 86.6774C1.18447 86.667 1.14966 86.6555 1.12118 86.6435C1.28847 87.2791 1.42479 86.7178 1.23366 86.6774Z" fill="#FFCCD7"/>
<path id="Vector_20" d="M164.839 196.536C153.496 190.446 142.372 183.947 131.519 177.011C126.54 173.829 121.339 170.745 116.769 166.974C113.725 164.462 110.345 161.017 110.431 156.764C110.496 153.519 112.594 150.621 114.303 148.022C116.403 144.828 118.505 141.635 120.606 138.442C121.516 137.059 121.503 135.226 120.134 134.121C118.938 133.155 116.753 133.205 115.838 134.595C113.848 137.62 111.857 140.646 109.867 143.671C107.987 146.528 105.992 149.391 105.004 152.705C103.284 158.474 105.376 164.063 109.336 168.348C113.39 172.734 118.537 175.857 123.493 179.092C129.464 182.99 135.516 186.762 141.636 190.418C148.456 194.491 155.371 198.403 162.368 202.16C163.824 202.941 165.768 202.028 166.399 200.59C167.107 198.974 166.3 197.321 164.839 196.536Z" fill="#E2BBDF"/>
</g>
<g id="Group_5">
<path id="Vector_21" d="M76.0608 327.184C70.1958 329.952 62.6445 328.357 58.1444 323.776C53.5243 319.072 52.2047 311.374 55.2969 305.457C58.0261 300.235 63.709 296.969 69.5083 297.172C70.115 296.708 70.9222 296.474 71.9103 296.647C79.0071 297.888 85.1225 304.098 85.4452 311.512C85.7316 318.091 82 324.382 76.0608 327.184ZM78.6151 310.423C77.8966 307.442 75.6325 304.962 72.8406 303.814C72.293 304.095 71.6185 304.202 70.8299 304.046C66.5371 303.195 61.8685 305.573 60.6123 309.955C59.5357 313.709 60.9076 317.913 64.1108 320.144C67.1662 322.271 71.572 322.525 74.6545 320.336C77.7086 318.168 79.5141 314.152 78.6151 310.423Z" fill="#FFCCD7"/>
<path id="Vector_22" d="M145.72 365.777C138.519 366.497 131.281 366.685 124.056 366.226C121.543 366.066 117.558 366.37 115.557 364.493C113.953 362.986 113.801 360.247 113.663 358.188C112.688 343.582 113.208 328.715 114.158 314.123C114.703 305.732 115.506 297.361 116.546 289.018C117.078 284.756 110.507 283.761 109.974 288.038C107.963 304.16 106.893 320.376 106.71 336.623C106.624 344.277 106.452 352.086 107.122 359.718C107.39 362.772 108.139 366.063 110.171 368.449C112.517 371.204 115.857 372.198 119.336 372.546C128.348 373.449 137.523 373.313 146.528 372.412C150.781 371.987 149.984 365.35 145.72 365.777Z" fill="#FFE58F"/>
<path id="Vector_23" d="M229.879 344.498C228.369 332.68 223.125 321.081 213.413 313.866C208.077 309.902 201.654 307.316 194.98 307.147C193.186 307.102 191.492 308.021 191.206 309.962C190.968 311.58 192.2 313.712 194.006 313.758C204.363 314.02 213.459 320.575 218.382 329.562C223.747 339.357 224.518 350.974 223.126 361.871C222.198 369.136 220.388 376.249 218.388 383.281C217.894 385.019 219.578 386.836 221.187 387.076C223.157 387.37 224.465 386.004 224.961 384.261C228.623 371.385 231.599 357.954 229.879 344.498Z" fill="#FFCCD7"/>
<path id="Vector_24" d="M156.263 313.13C151.734 313.417 147.44 310.455 145.25 306.588C142.808 302.277 142.832 296.789 144.223 292.142C145.873 286.629 149.724 281.805 150.144 275.913C150.521 270.638 148.602 265.279 143.672 262.826C139.831 260.914 137.162 267.037 140.985 268.94C144.99 270.933 143.476 277.053 142.101 280.301C139.724 285.916 136.918 291.042 136.697 297.306C136.494 303.08 138.038 308.963 141.96 313.315C145.854 317.635 151.236 320.135 157.071 319.766C161.337 319.496 160.526 312.861 156.263 313.13Z" fill="#F9BA7A"/>
<path id="Vector_25" d="M184.57 225.669C184.13 224.019 182.201 222.716 180.498 223.31C173.986 225.582 168.011 229.231 163.747 234.76C159.312 240.512 157.386 247.936 158.899 255.091C159.788 259.296 166.206 257.558 165.317 253.353C162.931 242.067 172.567 233.136 182.225 229.765C183.92 229.174 185.059 227.501 184.57 225.669Z" fill="#FDD4AA"/>
<path id="Vector_26" d="M17.465 230.554C13.9449 228.769 11.4929 234.402 14.9941 236.177C20.4634 238.949 22.5034 246.091 20.8623 251.749C18.9063 258.493 12.8551 263.211 6.53018 265.521C-1.11574 268.313 -9.13794 267.77 -17.1142 267.843C-24.7498 267.913 -32.1487 269.745 -37.2638 275.812C-42.2464 281.722 -43.9603 290.019 -41.5501 297.38C-40.3196 301.138 -34.6498 298.84 -35.878 295.089C-37.748 289.378 -35.7535 282.762 -31.5323 278.6C-26.0272 273.173 -17.6797 273.929 -10.5891 274.006C-2.3887 274.096 6.11906 273.163 13.4182 269.121C20.1761 265.379 25.7542 259.109 27.2129 251.317C28.7374 243.174 24.8998 234.322 17.465 230.554Z" fill="#AFE2DB"/>
<path id="Vector_27" d="M265.808 299.62C265.186 287.935 263.191 276.389 260.052 265.127C259.606 263.528 257.49 262.849 256.077 263.42C254.409 264.094 253.933 265.813 254.38 267.417C257.114 277.23 258.831 287.332 259.561 297.495C259.714 299.621 260.219 302.228 259.601 304.321C259.098 306.022 257.1 306.351 255.62 306.819C250.718 308.369 245.759 309.728 240.755 310.904C239.149 311.281 237.878 312.554 238.093 314.329C238.276 315.841 239.882 317.386 241.498 317.006C247.2 315.667 252.875 314.154 258.45 312.349C261.041 311.51 263.41 310.273 264.755 307.781C266.098 305.295 265.954 302.352 265.808 299.62Z" fill="#BDBFE1"/>
<path id="Vector_28" d="M207.45 291.616C205.544 291.767 203.897 290.764 202.23 289.966C195.25 286.624 188.269 283.283 181.289 279.941C179.521 279.095 177.687 278.311 177.194 276.193C176.708 274.106 178.15 272.624 179.596 271.404C182.553 268.91 185.53 266.44 188.527 263.993C194.443 259.163 200.436 254.429 206.499 249.786C207.735 248.84 209.334 248.567 210.576 249.614C212.171 249.518 213.877 250.508 213.935 252.576C214.168 260.897 213.896 269.226 213.089 277.512C212.903 279.416 212.69 281.317 212.449 283.215C212.247 284.802 212.183 286.527 211.641 288.042C210.963 289.937 209.53 291.451 207.45 291.616ZM206.095 285.034C206.169 284.582 206.217 284.123 206.277 283.671C207.47 274.638 207.982 265.513 207.895 256.402C204.065 259.364 200.261 262.361 196.49 265.398C194.096 267.327 191.714 269.271 189.344 271.231C188.273 272.115 187.206 273.003 186.14 273.894C185.733 274.235 185.327 274.577 184.92 274.918C185.125 275.004 185.315 275.086 185.477 275.163C186.763 275.779 188.049 276.394 189.335 277.01C191.815 278.197 194.295 279.385 196.775 280.572C199.255 281.759 201.735 282.946 204.215 284.134C204.842 284.434 205.468 284.734 206.095 285.034Z" fill="#ED5E7E"/>
<path id="Vector_29" d="M59.462 246.981C55.5722 246.402 54.6698 252.481 58.5661 253.062C62.4559 253.641 63.3583 247.562 59.462 246.981Z" fill="#F9BA7A"/>
<path id="Vector_30" d="M41.5015 291.836C37.9715 283.049 25.679 281.261 17.536 281.608C15.8863 281.678 14.6859 283.479 14.8739 285.033C15.0864 286.79 16.6247 287.781 18.2792 287.711C22.2522 287.541 26.4497 288.055 30.163 289.541C32.4771 290.466 35.3963 292.05 36.0374 294.711C36.4433 296.395 35.7903 298.12 35.1386 299.647C34.2425 301.747 33.2131 303.795 32.2396 305.86C30.2341 310.114 28.2287 314.368 26.2232 318.622C24.5344 322.204 30.1313 324.677 31.8143 321.107C34.1685 316.113 36.5228 311.119 38.8771 306.126C40.9783 301.669 43.5019 296.816 41.5015 291.836Z" fill="#BDBFE1"/>
<path id="Vector_31" d="M135.23 214.264C140.381 216.191 144.101 220.861 144.15 226.449C144.164 228.118 142.398 229.392 140.862 229.27C139.113 229.13 138.072 227.623 138.058 225.963C138.036 223.511 136.017 221.418 133.953 220.382C131.031 218.916 127.544 219.363 124.527 220.257C119.021 221.887 113.827 225.332 109.698 229.42C116.298 236.857 116.835 248.802 113.656 258.043C111.619 263.965 107.833 269.206 102.457 272.454C97.3013 275.568 90.8215 276.41 85.1348 274.363C81.4302 273.029 83.5127 267.249 87.2201 268.584C92.3115 270.417 97.9902 268.791 101.973 265.269C106.234 261.502 108.536 255.812 109.229 250.242C109.862 245.156 109.357 239.595 106.443 235.236C106.193 234.863 105.922 234.496 105.633 234.14C102.89 237.791 100.322 241.708 96.115 243.712C91.7906 245.771 85.5412 245.104 82.6582 240.928C78.8475 235.407 82.9492 228.466 87.8771 225.37C92.9919 222.156 99.2942 222.426 104.486 225.265C104.649 225.354 104.802 225.451 104.961 225.544C108.724 221.68 113.242 218.486 118.113 216.204C123.338 213.757 129.616 212.165 135.23 214.264ZM99.4814 232.164C99.9517 231.529 100.426 230.899 100.907 230.276C99.2039 229.426 97.3296 228.982 95.4116 229.16C93.2842 229.359 91.2603 230.209 89.661 231.635C88.3134 232.836 86.9533 234.892 87.3513 236.785C87.4541 237.274 87.6589 237.549 88.208 237.937C88.6191 238.227 89.5136 238.546 89.9152 238.609C91.6419 238.882 92.9883 238.61 94.492 237.582C96.5369 236.184 98.0249 234.133 99.4814 232.164Z" fill="#B9D5EA"/>
</g>
</g>
<g id="Group_6">
</g>
<g id="Group_7">
<g id="Group_8">
<g id="Group_9">
<path id="Vector_32" d="M311.19 82.2152C310.843 78.8425 310.523 75.4959 309.24 72.3303C307.107 67.0641 302.873 62.7292 297.799 60.3265C292.586 57.8581 286.66 57.1887 281.189 59.1236C278.029 60.2411 275.096 62.0261 271.804 62.7513C269.534 63.2513 267.121 63.1719 264.862 62.6198C259.264 61.2517 254.664 57.4564 252.433 52.0416C251.745 50.3732 249.33 49.9949 247.937 50.8084C246.238 51.8007 246.058 53.6946 246.748 55.3682C251.163 66.0839 264.247 72.2703 275.115 68.7698C278.457 67.6933 281.502 65.7733 284.934 64.9727C287.187 64.4473 289.572 64.5623 291.806 65.1547C296.608 66.4284 300.919 69.7627 303.017 74.3926C304.351 77.338 304.435 80.6961 304.801 83.8585C305.289 88.0913 306.19 91.8341 308.798 95.269C309.885 96.7012 312.308 96.4433 313.448 95.2887C314.832 93.8861 314.533 92.0034 313.441 90.5656C311.704 88.278 311.473 84.9722 311.19 82.2152Z" fill="#AFE2DB"/>
<path id="Vector_33" d="M306.972 117.741C306.767 116.045 305.039 114.482 303.27 114.83C296.506 116.159 290.079 118.926 285.085 123.798C279.89 128.865 276.945 135.943 277.443 143.24C277.736 147.529 284.333 146.716 284.04 142.428C283.255 130.917 294.044 123.436 304.078 121.465C305.838 121.119 307.2 119.624 306.972 117.741Z" fill="#ED5E7E"/>
</g>
<g id="Group_10">
<path id="Vector_34" d="M394.03 22.9987C392.372 23.9188 391.958 25.8993 392.726 27.5387C396.966 36.5943 398.493 46.9455 397.062 56.8544C395.565 67.2218 390.558 76.4874 382.689 83.3412C377.323 88.0154 371.024 91.4731 364.649 94.5424C360.789 96.4006 364.011 102.246 367.858 100.394C379.638 94.7227 391.096 87.2485 397.667 75.5328C403.234 65.6059 405.045 53.9965 403.799 42.7494C403.089 36.344 401.272 30.1381 398.544 24.3106C397.778 22.676 395.53 22.1665 394.03 22.9987Z" fill="#ED5E7E"/>
<path id="Vector_35" d="M302.397 285.611C303.832 284.369 303.834 282.345 302.749 280.899C296.754 272.909 293.151 263.092 292.534 253.098C291.888 242.642 294.901 232.541 301.207 224.212C305.508 218.531 310.969 213.849 316.584 209.531C319.983 206.917 315.638 201.859 312.25 204.465C301.875 212.443 292.182 222.119 288.137 234.94C284.71 245.804 285.302 257.54 288.812 268.292C290.811 274.415 293.854 280.115 297.711 285.257C298.793 286.699 301.098 286.735 302.397 285.611Z" fill="#FFE58F"/>
<path id="Vector_36" d="M483.588 22.9439C477.723 25.7113 470.172 24.1167 465.672 19.5355C461.052 14.832 459.732 7.13366 462.824 1.21686C465.553 -4.00566 471.236 -7.2708 477.036 -7.06809C477.642 -7.53237 478.45 -7.76634 479.438 -7.59349C486.534 -6.35185 492.65 -0.142135 492.973 7.27172C493.259 13.8503 489.527 20.1416 483.588 22.9439ZM486.142 6.18236C485.424 3.20194 483.16 0.721498 480.368 -0.426212C479.82 -0.144791 479.146 -0.0383449 478.357 -0.19447C474.064 -1.04519 469.396 1.33315 468.14 5.71433C467.063 9.46914 468.435 13.673 471.638 15.9037C474.694 18.031 479.099 18.2848 482.182 16.0961C485.236 13.9274 487.041 9.9113 486.142 6.18236Z" fill="#FFCCD7"/>
<path id="Vector_37" d="M553.248 61.5365C546.047 62.2565 538.808 62.4444 531.584 61.9854C529.07 61.8258 525.085 62.1299 523.085 60.2523C521.48 58.746 521.328 56.0065 521.19 53.948C520.215 39.3412 520.736 24.4749 521.685 9.88231C522.231 1.49179 523.033 -6.87968 524.074 -15.2227C524.605 -19.4843 518.034 -20.4793 517.501 -16.2025C515.491 -0.0806179 514.42 16.136 514.238 32.3823C514.152 40.0371 513.979 47.8453 514.649 55.4779C514.917 58.5314 515.667 61.8224 517.699 64.2085C520.045 66.9641 523.384 67.9579 526.863 68.3061C535.876 69.2083 545.051 69.0721 554.056 68.1717C558.308 67.7465 557.511 61.11 553.248 61.5365Z" fill="#FFE58F"/>
<path id="Vector_38" d="M501.268 59.2711C495.494 54.478 489.245 49.6627 481.964 47.5034C474.535 45.3002 467.185 46.6664 460.942 51.2592C455.083 55.5703 450.257 61.5599 445.613 67.1128C440.647 73.0492 435.984 79.2403 431.643 85.6526C426.634 93.0519 422.05 100.747 417.9 108.665C417.064 110.262 418.042 112.382 419.602 113.071C421.345 113.841 423.143 112.962 423.983 111.359C430.672 98.5939 438.571 86.5058 447.557 75.2569C451.847 69.8883 456.297 64.4499 461.268 59.6998C465.769 55.4003 471.067 52.2411 477.478 53.2737C484.996 54.4843 491.42 59.7619 497.116 64.4904C500.423 67.2353 504.565 62.0083 501.268 59.2711Z" fill="#AFE2DB"/>
<path id="Vector_39" d="M570.997 128.056C557.727 121.015 545.085 112.837 533.211 103.613C531.146 102.009 531.358 99.0868 533.648 97.8167C537.79 95.5201 542.105 93.546 546.54 91.9005C547.033 91.3101 547.73 90.8704 548.521 90.6428C551.437 89.8031 554.353 88.9634 557.269 88.1237C559.669 87.4327 562.108 86.5428 564.604 86.2733C567.062 86.0077 569.584 86.3086 571.635 87.8104C574.185 89.6773 575.119 92.7672 575.881 95.6925C578.497 105.735 578.392 116.306 575.993 126.373C575.443 128.68 572.702 128.961 570.997 128.056ZM567.76 93.2266C567.434 93.4061 567.056 93.5392 566.615 93.6053C557.795 94.9284 549.302 97.5488 541.29 101.387C550.599 108.31 560.356 114.6 570.495 120.222C571.626 113.192 571.391 105.953 569.851 99.0022C569.497 97.4075 569.204 94.5122 567.925 93.3571C567.873 93.3093 567.817 93.2673 567.76 93.2266Z" fill="#BDBFE1"/>
<path id="Vector_40" d="M499.751 137.566C494.457 141.136 487.471 140.577 482.273 137.127C476.783 133.482 474.758 126.786 476.781 120.592C478.693 114.738 484.247 109.91 490.486 109.682C491.3 109.653 492.086 109.855 492.726 110.26C498.749 109.98 504.163 115.288 505.553 121.421C506.874 127.25 504.817 134.148 499.751 137.566ZM499.042 122.622C498.728 121.213 497.851 119.524 496.803 118.552C495.698 117.528 493.421 116.192 491.89 117.078C490.633 117.806 489.145 117.941 488.001 117.135C485.397 118.357 483.388 120.814 482.795 123.62C482.058 127.11 483.595 130.292 486.545 131.969C489.63 133.723 493.459 133.977 496.277 131.847C498.976 129.807 499.787 125.958 499.042 122.622Z" fill="#F9BA7A"/>
<path id="Vector_41" d="M563.791 8.8902C559.261 9.17697 554.967 6.21503 552.777 2.34803C550.335 -1.96358 550.359 -7.45103 551.75 -12.0981C553.401 -17.6109 557.251 -22.4351 557.672 -28.327C558.048 -33.6023 556.129 -38.9608 551.199 -41.4142C547.358 -43.3262 544.69 -37.2027 548.513 -35.2999C552.517 -33.3069 551.003 -27.1873 549.628 -23.9388C547.252 -18.3238 544.445 -13.1983 544.225 -6.93387C544.021 -1.16063 545.565 4.72281 549.487 9.07427C553.382 13.3948 558.763 15.8948 564.599 15.5254C568.864 15.2556 568.053 8.62059 563.791 8.8902Z" fill="#F9BA7A"/>
<path id="Vector_42" d="M569.306 154.918C564.146 150.682 557.382 149.104 550.91 150.739C545.347 152.144 540.841 156.054 537.001 160.158C533.287 164.126 529.971 168.655 525.551 171.88C521.546 174.803 516.668 176.152 511.728 175.656C506.27 175.108 500.881 172.638 497.433 168.259C496.319 166.846 494.425 166.248 492.832 167.299C491.434 168.221 490.758 170.506 491.877 171.927C499.037 181.017 511.747 184.78 522.678 180.918C528.165 178.98 532.515 175.048 536.391 170.813C540.054 166.813 543.417 162.276 548.009 159.287C553.227 155.891 559.961 155.866 564.874 159.899C568.182 162.614 572.623 157.641 569.306 154.918Z" fill="#FFCCD7"/>
<path id="Vector_43" d="M457.752 184.681C454.205 190.339 446.752 193.227 440.314 191.823C433.074 190.243 427.467 185.082 422.954 179.432C422.117 178.384 421.294 177.293 420.496 176.164C415.357 180.26 411.038 185.174 405.125 188.26C399.399 191.249 392.828 192.445 386.415 192.022C373.641 191.179 362.285 182.7 357.048 171.086C355.274 167.154 361.454 164.692 363.215 168.596C369.287 182.059 384.971 188.764 398.81 183.745C405.657 181.261 410.317 175.985 415.778 171.421C416.152 171.108 416.533 170.804 416.918 170.506C411.291 160.449 408.513 148.531 414.676 138.037C415.593 136.477 417.255 135.531 419.059 136.331C420.563 136.999 421.668 139.185 420.755 140.74C416.892 147.317 417.285 155.098 420.063 162.012C420.733 163.679 421.521 165.339 422.406 166.968C426.482 164.814 430.938 163.427 435.576 162.985C442.09 162.365 449.21 163.416 454.45 167.643C459.634 171.825 461.387 178.884 457.752 184.681ZM452.035 174.698C449.196 170.646 443.475 169.431 438.837 169.485C434.338 169.537 429.939 170.619 425.961 172.619C427.823 175.204 429.908 177.61 432.122 179.71C436.056 183.444 441.579 186.933 447.144 184.882C451.317 183.343 454.99 178.917 452.035 174.698Z" fill="#FCD861"/>
<path id="Vector_44" d="M449.029 -12.4039C445.499 -21.1915 433.206 -22.9793 425.063 -22.6322C423.414 -22.5619 422.213 -20.761 422.401 -19.2072C422.614 -17.45 424.152 -16.4591 425.807 -16.5296C429.78 -16.699 433.977 -16.1854 437.69 -14.6998C440.004 -13.7739 442.924 -12.1899 443.565 -9.52973C443.971 -7.84561 443.318 -6.12052 442.666 -4.59337C441.77 -2.49317 440.74 -0.445354 439.767 1.61946C437.761 5.87339 435.756 10.1273 433.751 14.3812C432.062 17.9633 437.659 20.4365 439.342 16.8665C441.696 11.8728 444.05 6.87904 446.404 1.88531C448.506 -2.57164 451.029 -7.42409 449.029 -12.4039Z" fill="#BDBFE1"/>
<path id="Vector_45" d="M554.128 220.772C550.999 226.502 543.936 229.353 537.652 227.926C531.344 226.494 526.819 221.263 525.793 214.894C524.785 208.637 527.844 202.574 533.565 199.896C538.775 197.459 544.896 198.366 549.075 202.185C549.276 202.271 549.472 202.372 549.662 202.489C555.557 206.12 557.394 214.79 554.128 220.772ZM545.984 207.384C545.582 207.174 545.205 206.887 544.876 206.541C542.463 203.998 537.681 204.158 534.767 206.242C531.831 208.342 531.039 212.216 532.246 215.681C533.546 219.412 536.602 221.957 540.573 222.134C544.278 222.299 548.231 220.203 549.32 216.5C550.297 213.178 549.023 209.353 545.984 207.384Z" fill="#FFE0C2"/>
<path id="Vector_46" d="M455.407 133.91C455.339 133.374 455.146 132.888 454.827 132.453C454.317 131.819 453.64 131.366 452.821 131.244L452.094 131.136C451.68 131.058 451.279 131.087 450.891 131.224C450.498 131.291 450.143 131.452 449.825 131.707C449.49 131.939 449.234 132.234 449.056 132.593C448.814 132.927 448.669 133.304 448.623 133.725L448.612 134.549C448.68 135.086 448.873 135.572 449.192 136.007C449.703 136.641 450.379 137.094 451.198 137.216L451.925 137.324C452.339 137.402 452.74 137.373 453.129 137.236C453.521 137.169 453.876 137.008 454.194 136.752C454.529 136.521 454.786 136.226 454.963 135.867C455.206 135.533 455.35 135.156 455.396 134.735C455.4 134.46 455.403 134.185 455.407 133.91Z" fill="#B9D5EA"/>
<path id="Vector_47" d="M430.486 45.6883C430.419 45.1518 430.225 44.666 429.907 44.2309C429.396 43.5967 428.719 43.144 427.9 43.0219L427.173 42.9135C426.759 42.8356 426.358 42.865 425.97 43.0017C425.577 43.0684 425.222 43.2296 424.905 43.4853C424.569 43.7167 424.313 44.0118 424.135 44.3705C423.893 44.7046 423.749 45.0821 423.703 45.503C423.699 45.7778 423.695 46.0525 423.691 46.3273C423.759 46.8637 423.952 47.3495 424.271 47.7846C424.782 48.4188 425.458 48.8716 426.277 48.9937L427.005 49.1021C427.418 49.1799 427.819 49.1505 428.208 49.0139C428.6 48.9471 428.956 48.7859 429.273 48.5303C429.608 48.2988 429.865 48.0038 430.042 47.645C430.285 47.3109 430.429 46.9334 430.475 46.5126C430.479 46.2378 430.483 45.963 430.486 45.6883Z" fill="#B9D5EA"/>
<path id="Vector_48" d="M342.007 196.956C341.939 196.42 341.746 195.934 341.427 195.499C340.916 194.865 340.24 194.412 339.421 194.29L338.694 194.181C338.28 194.104 337.879 194.133 337.49 194.27C337.098 194.336 336.743 194.498 336.425 194.753C336.09 194.985 335.833 195.28 335.656 195.638C335.413 195.973 335.269 196.35 335.223 196.771C335.219 197.046 335.216 197.32 335.212 197.595C335.28 198.132 335.473 198.617 335.792 199.053C336.303 199.687 336.979 200.14 337.798 200.262L338.525 200.37C338.939 200.448 339.34 200.418 339.728 200.282C340.121 200.215 340.476 200.054 340.794 199.798C341.129 199.567 341.385 199.272 341.563 198.913C341.805 198.579 341.95 198.201 341.996 197.781C341.999 197.506 342.003 197.231 342.007 196.956Z" fill="#E2BBDF"/>
<path id="Vector_49" d="M560.547 272.151C564.072 275.59 568.794 280.304 574.186 279.485C577.881 278.923 580.95 276.125 584.089 274.298C586.755 272.747 589.75 271.585 592.804 271.095C593.119 270.119 593.446 269.158 593.777 268.221C595.931 262.118 598.715 255.932 602.611 250.741C606.336 245.779 611.249 241.601 617.414 240.236C623.082 238.98 628.977 240.149 633.35 244.069C634.588 245.179 634.362 247.345 633.24 248.415C631.971 249.626 630.15 249.408 628.919 248.304C625.553 245.288 620.224 245.324 616.254 247.001C610.737 249.331 607.029 254.484 604.244 259.594C602.258 263.236 600.602 267.062 599.279 270.998C603.046 271.522 606.593 273.112 609.32 276.01C613.042 279.968 614.966 286.084 612.744 291.273C610.758 295.912 605.836 298.951 600.829 298.841C594.431 298.7 590.707 293.142 590.233 287.183C589.992 284.157 590.324 281.022 590.961 277.929C588.246 278.915 585.741 280.489 583.214 282.094C578.491 285.093 573.245 286.812 567.791 284.755C563.24 283.039 559.556 279.742 556.115 276.387C553.28 273.622 557.734 269.409 560.547 272.151ZM606.688 282.842C604.893 279.22 601.437 277.25 597.548 276.949C597.05 278.951 596.634 280.983 596.416 283.028C596.168 285.339 596.035 288.006 597.131 290.138C598.774 293.337 602.13 293.266 604.916 291.501C606.02 290.802 607.021 289.59 607.391 288.107C607.831 286.34 607.486 284.453 606.688 282.842Z" fill="#AFE2DB"/>
<path id="Vector_50" d="M358.38 60.4201C356.119 65.4579 351.234 68.8733 345.687 68.5426C344.03 68.4438 342.887 66.5847 343.113 65.052C343.37 63.3059 344.936 62.3642 346.583 62.4624C349.017 62.6075 351.23 60.7231 352.398 58.7231C354.051 55.8904 353.844 52.3612 353.163 49.2729C351.92 43.6364 348.856 38.1911 345.081 33.7698C337.256 39.8877 325.37 39.6143 316.419 35.7968C310.683 33.3506 305.742 29.1949 302.886 23.5794C300.147 18.1947 299.752 11.6352 302.169 6.06782C303.743 2.44096 309.336 4.92345 307.76 8.55308C305.596 13.5376 306.823 19.3464 310.045 23.5825C313.492 28.1139 318.981 30.8106 324.458 31.8845C329.461 32.8654 335.011 32.7367 339.532 30.108C339.92 29.8824 340.302 29.6352 340.675 29.3702C337.24 26.3698 333.529 23.526 331.827 19.1686C330.078 14.6893 331.164 8.46357 335.503 5.85433C341.238 2.40541 347.844 6.99292 350.581 12.1483C353.422 17.4991 352.726 23.805 349.556 28.8216C349.457 28.979 349.35 29.1267 349.247 29.2799C352.825 33.3177 355.686 38.0691 357.618 43.1119C359.69 48.5207 360.844 54.9294 358.38 60.4201ZM343.053 23.3312C343.651 23.8463 344.243 24.3651 344.829 24.8902C345.787 23.2387 346.356 21.3881 346.309 19.4514C346.257 17.3031 345.551 15.2145 344.245 13.5128C343.145 12.0788 341.198 10.5743 339.293 10.8451C338.801 10.915 338.514 11.1019 338.093 11.6266C337.777 12.0193 337.4 12.8953 337.31 13.294C336.921 15.0081 337.1 16.3777 338.018 17.9564C339.266 20.1034 341.199 21.7359 343.053 23.3312Z" fill="#F9BA7A"/>
<path id="Vector_51" d="M385.422 223.307C384.159 228.801 379.127 233.169 373.507 233.581C367.554 234.017 362.004 230.11 359.805 224.618C357.505 218.872 359.068 211.965 364.043 208.186C368.752 204.609 375.818 204.68 379.698 209.393C384.074 212.354 386.628 218.067 385.422 223.307ZM374.553 213.649C373.749 213.359 373.195 212.672 372.93 211.878C370.245 211.083 366.864 213.121 365.639 215.587C363.62 219.649 365.609 224.953 369.671 226.831C373.27 228.494 377.795 226.573 379.211 222.838C380.643 219.061 378.138 214.941 374.553 213.649Z" fill="#ED5E7E"/>
<path id="Vector_52" d="M404.738 271.934C400.537 267.063 394.456 264.076 388.071 263.615C382.132 263.186 376.621 265.474 371.169 267.493C365.761 269.495 360.487 270.88 354.872 268.797C349.539 266.819 344.853 262.476 341.83 257.693C338.643 252.651 336.82 246.563 338.311 240.633C339.272 236.809 333.42 235.035 332.454 238.879C329.314 251.365 336.457 264.173 346.524 271.229C352.171 275.187 358.853 276.899 365.642 275.572C371.434 274.439 376.671 271.465 382.425 270.193C389.061 268.725 395.821 270.969 400.276 276.135C402.861 279.132 407.311 274.917 404.738 271.934Z" fill="#FFCCD7"/>
<path id="Vector_53" d="M430.542 244.328C428.901 246.334 425.461 246.883 423.109 247.57C418.32 248.97 413.443 250.02 408.505 250.697C406.83 252.766 402.605 251.603 403.082 248.302C404.007 241.915 405.901 235.529 408.896 229.804C411.022 225.741 415.365 221.214 420.344 223.677C422.711 224.847 424.128 227.17 425.509 229.323C427.004 231.653 428.392 234.051 429.701 236.492C430.996 238.909 432.608 241.801 430.542 244.328ZM424.597 240.679C424.732 240.633 424.889 240.56 425.051 240.487C424.604 239.513 423.9 238.526 423.472 237.759C422.568 236.137 421.604 234.547 420.601 232.985C419.886 231.871 419.006 229.871 417.778 229.238C417.349 229.017 416.811 229.338 416.312 229.79C414.059 231.828 412.936 235.388 411.903 238.151C411.156 240.152 410.552 242.189 410.065 244.257C412.381 243.887 414.682 243.436 416.965 242.893C418.629 242.497 420.277 242.042 421.912 241.542C422.811 241.268 423.706 240.98 424.597 240.679Z" fill="#F9BA7A"/>
<path id="Vector_54" d="M306.728 166.303C307.425 163.802 310.352 161.904 312.229 160.321C316.051 157.098 320.092 154.159 324.34 151.537C325.043 148.964 329.376 148.315 330.262 151.529C331.977 157.749 332.804 164.36 332.358 170.814C332.042 175.395 329.883 181.298 324.339 181.064C321.704 180.953 319.476 179.403 317.349 177.993C315.047 176.467 312.815 174.835 310.639 173.132C308.485 171.446 305.85 169.453 306.728 166.303ZM313.631 167.231C313.526 167.328 313.411 167.458 313.292 167.591C314.092 168.3 315.132 168.918 315.831 169.447C317.309 170.564 318.828 171.628 320.372 172.651C321.473 173.38 323.08 174.853 324.458 174.934C324.938 174.963 325.302 174.451 325.578 173.835C326.822 171.056 326.423 167.343 326.26 164.395C326.142 162.262 325.878 160.152 325.494 158.063C323.524 159.34 321.598 160.687 319.727 162.11C318.363 163.146 317.038 164.231 315.741 165.352C315.029 165.968 314.325 166.594 313.631 167.231Z" fill="#B9D5EA"/>
<path id="Vector_55" d="M379.581 136.405C373.704 138.881 367.828 141.357 361.951 143.833C359.162 145.008 356.234 146.407 353.104 145.019C350.571 143.895 349.431 141.46 348.869 139.134C348.3 136.78 348.039 134.381 347.455 132.025C346.835 129.529 346.038 127.074 345.09 124.655C343.225 119.896 340.805 115.306 337.821 111.008C336.825 109.573 336.886 107.746 338.455 106.709C339.831 105.798 342.248 105.991 343.243 107.422C348.969 115.67 352.961 124.733 354.86 134.233C355.201 135.94 355.645 137.836 355.992 139.421C356.158 139.286 356.786 139.129 356.95 139.064C358.245 138.547 359.518 137.984 360.801 137.444L376.937 130.645C380.883 128.983 383.491 134.758 379.581 136.405ZM356.135 139.58C356.086 139.57 356.051 139.558 356.023 139.546C356.19 140.182 356.326 139.621 356.135 139.58Z" fill="#FFCCD7"/>
<path id="Vector_56" d="M519.74 249.439C508.397 243.348 497.273 236.85 486.421 229.914C481.441 226.731 476.24 223.647 471.671 219.877C468.627 217.365 465.247 213.92 465.332 209.666C465.397 206.422 467.495 203.524 469.204 200.925C471.305 197.731 473.406 194.538 475.507 191.345C476.417 189.961 476.405 188.129 475.036 187.023C473.839 186.058 471.654 186.107 470.74 187.498C468.749 190.523 466.759 193.548 464.768 196.574C462.888 199.431 460.893 202.293 459.905 205.608C458.186 211.376 460.277 216.966 464.238 221.25C468.291 225.636 473.438 228.76 478.394 231.995C484.365 235.893 490.417 239.665 496.538 243.321C503.358 247.394 510.272 251.305 517.269 255.062C518.725 255.844 520.67 254.931 521.3 253.493C522.009 251.877 521.201 250.223 519.74 249.439Z" fill="#E2BBDF"/>
</g>
</g>
<g id="Group_11">
<g id="Group_12">
<path id="Vector_57" d="M511.166 366.033C506.636 366.32 502.342 363.358 500.152 359.491C497.71 355.179 497.734 349.692 499.125 345.044C500.776 339.532 504.626 334.708 505.047 328.816C505.423 323.54 503.504 318.182 498.574 315.728C494.733 313.816 492.065 319.94 495.888 321.843C499.892 323.836 498.378 329.955 497.003 333.204C494.627 338.819 491.82 343.944 491.6 350.209C491.396 355.982 492.94 361.865 496.862 366.217C500.757 370.537 506.138 373.037 511.974 372.668C516.239 372.398 515.428 365.763 511.166 366.033Z" fill="#F9BA7A"/>
<path id="Vector_58" d="M303.25 318.174C303.281 316.466 301.786 314.676 299.986 314.773C293.103 315.143 286.357 316.984 280.737 321.109C274.892 325.401 270.997 331.998 270.481 339.294C270.177 343.582 276.823 343.7 277.126 339.412C277.941 327.903 289.659 322.005 299.868 321.457C301.659 321.361 303.215 320.071 303.25 318.174Z" fill="#FFCCD7"/>
<path id="Vector_59" d="M539.473 278.571C539.032 276.921 537.103 275.618 535.4 276.213C528.889 278.485 522.913 282.133 518.65 287.663C514.214 293.415 512.289 300.839 513.802 307.993C514.691 312.198 521.108 310.46 520.219 306.256C517.833 294.97 527.469 286.038 537.128 282.668C538.822 282.076 539.961 280.403 539.473 278.571Z" fill="#FDD4AA"/>
<path id="Vector_60" d="M372.367 283.456C368.847 281.672 366.395 287.305 369.896 289.08C375.366 291.852 377.406 298.993 375.765 304.651C373.809 311.395 367.757 316.114 361.433 318.423C353.787 321.215 345.764 320.672 337.788 320.745C330.153 320.816 322.754 322.647 317.639 328.715C312.656 334.625 310.942 342.922 313.352 350.283C314.583 354.04 320.253 351.743 319.024 347.992C317.154 342.281 319.149 335.664 323.37 331.503C328.875 326.075 337.223 326.831 344.313 326.909C352.514 326.998 361.021 326.066 368.321 322.024C375.078 318.282 380.657 312.011 382.115 304.219C383.64 296.077 379.802 287.225 372.367 283.456Z" fill="#AFE2DB"/>
<path id="Vector_61" d="M562.352 344.518C560.446 344.669 558.799 343.667 557.132 342.869C550.151 339.527 543.171 336.185 536.19 332.843C534.423 331.997 532.589 331.214 532.095 329.096C531.609 327.009 533.052 325.526 534.497 324.307C537.455 321.813 540.432 319.342 543.428 316.896C549.345 312.066 555.338 307.332 561.4 302.689C562.636 301.742 564.235 301.47 565.477 302.517C567.073 302.421 568.779 303.41 568.837 305.478C569.069 313.799 568.798 322.129 567.99 330.414C567.804 332.318 567.591 334.22 567.35 336.118C567.149 337.704 567.085 339.429 566.543 340.945C565.865 342.839 564.432 344.353 562.352 344.518ZM560.997 337.936C561.07 337.484 561.119 337.026 561.178 336.573C562.372 327.541 562.884 318.416 562.796 309.304C558.966 312.266 555.163 315.263 551.392 318.301C548.997 320.23 546.615 322.174 544.245 324.133C543.175 325.018 542.107 325.906 541.042 326.797C540.634 327.137 540.228 327.479 539.822 327.821C540.026 327.906 540.217 327.988 540.379 328.065C541.664 328.681 542.95 329.297 544.236 329.912C546.716 331.1 549.196 332.287 551.676 333.474C554.156 334.661 556.636 335.849 559.116 337.036C559.743 337.336 560.37 337.636 560.997 337.936Z" fill="#ED5E7E"/>
<path id="Vector_62" d="M414.364 299.884C410.475 299.304 409.572 305.383 413.468 305.964C417.358 306.544 418.261 300.465 414.364 299.884Z" fill="#F9BA7A"/>
<path id="Vector_63" d="M490.133 267.167C495.283 269.094 499.003 273.763 499.052 279.352C499.067 281.021 497.3 282.295 495.764 282.172C494.015 282.033 492.974 280.525 492.96 278.866C492.939 276.414 490.919 274.321 488.856 273.285C485.933 271.818 482.447 272.266 479.43 273.159C473.923 274.789 468.73 278.234 464.601 282.323C471.201 289.759 471.737 301.704 468.559 310.946C466.522 316.868 462.735 322.108 457.359 325.356C452.204 328.47 445.724 329.313 440.037 327.266C436.332 325.932 438.415 320.152 442.122 321.486C447.214 323.319 452.893 321.693 456.876 318.172C461.136 314.405 463.438 308.714 464.132 303.145C464.765 298.058 464.26 292.497 461.345 288.139C461.095 287.765 460.824 287.399 460.536 287.042C457.793 290.693 455.224 294.611 451.017 296.614C446.693 298.673 440.444 298.007 437.561 293.83C433.75 288.31 437.852 281.369 442.779 278.272C447.894 275.058 454.197 275.328 459.388 278.168C459.551 278.257 459.705 278.354 459.864 278.447C463.626 274.582 468.145 271.388 473.016 269.107C478.24 266.66 484.519 265.067 490.133 267.167ZM454.384 285.067C454.854 284.431 455.328 283.802 455.809 283.179C454.106 282.329 452.232 281.884 450.314 282.063C448.187 282.261 446.163 283.111 444.563 284.537C443.216 285.739 441.856 287.795 442.254 289.688C442.356 290.177 442.561 290.452 443.11 290.839C443.521 291.13 444.416 291.448 444.818 291.512C446.544 291.785 447.891 291.513 449.394 290.485C451.439 289.086 452.927 287.035 454.384 285.067Z" fill="#B9D5EA"/>
</g>
</g>
</g>
</g>
</g>
</g>
</g>
</g>
</g>
<g id="video-cover-container">
<rect id="Rectangle 7" y="40" width="558" height="235" fill="#A3A6D6"/>
<text id="video-title" fill="white" xml:space="preserve" style="white-space: pre" font-family="Playpen Sans" font-size="20" font-weight="bold" letter-spacing="0em"><tspan x="25" y="121.3">Instrumento de avalia&#xe7;&#xe3;o </tspan><tspan x="25" y="149.3">de desenvolvimento integral </tspan><tspan x="25" y="177.3">das crian&#xe7;as contido na </tspan><tspan x="25" y="205.3">Caderneta da Crian&#xe7;a</tspan></text>
<path id="Polygon 13" d="M311.122 162.33C314.455 160.406 314.455 155.594 311.122 153.67L265.5 127.33C262.167 125.406 258 127.811 258 131.66L258 184.34C258 188.189 262.167 190.594 265.5 188.67L311.122 162.33Z" fill="#5A5D8C"/>
<g id="silhueta">
<g id="Group 582">
<g id="Group 578">
<path id="Vector_64" d="M467.641 196.777C467.398 196.777 467.141 196.754 466.853 196.706C466.174 196.593 465.706 196.426 465.293 196.28C464.873 196.13 464.542 196.012 463.932 195.928C463.465 195.864 462.93 195.825 462.413 195.788C460.99 195.684 460.131 195.621 459.497 195.084C458.964 194.632 458.613 193.853 458.512 193.061C458.119 192.798 457.695 192.449 457.387 192.026L457.335 191.955C456.863 191.305 455.756 189.784 454.844 188.13C454.626 187.733 454.361 187.305 454.089 186.889C453.876 187.174 453.632 187.439 453.356 187.66C452.609 188.259 450.56 189.656 447.695 189.696L447.59 189.697C445.983 189.697 444.648 189.195 443.357 188.711C442.77 188.49 442.215 188.282 441.646 188.125C441.206 188.004 440.745 187.871 440.284 187.738C439.154 187.413 437.446 186.922 436.977 186.922C436.203 186.947 435.804 187.047 435.457 187.304C435.231 187.473 435.092 187.615 434.931 187.781C434.651 188.069 434.302 188.428 433.681 188.725C433.245 188.934 432.111 189.419 430.987 189.422C430.473 190.224 429.629 191.095 428.339 191.253C427.215 191.391 424.489 191.526 422.834 191.526C422.089 191.526 421.774 191.498 421.601 191.478C420.304 191.325 418.351 190.445 417.128 188.877C417.066 188.797 417.008 188.724 416.955 188.657C416.527 189.198 415.984 189.505 415.331 189.575C414.685 189.644 412.945 189.669 411.932 189.669C411.155 189.669 410.628 189.657 410.367 189.633C410.095 189.608 409.789 189.564 409.493 189.453C408.838 189.403 408.258 189.129 407.843 188.67C407.613 188.415 407.364 188.025 407.258 187.466C406.734 186.892 406.381 186.082 406.501 185.15C406.635 184.114 407.014 183.483 407.454 182.753C407.548 182.595 407.654 182.419 407.77 182.22C407.97 181.873 408.486 180.838 409.031 179.743C410.729 176.333 411.409 175.035 411.841 174.54C411.918 174.452 412.009 174.332 412.113 174.194C412.84 173.243 414.192 171.474 416.212 171.474C416.273 171.474 416.333 171.476 416.393 171.479V170.354C415.699 169.373 414.535 167.31 415.451 165.513C415.989 164.457 416.586 163.939 416.968 163.626C416.969 163.616 416.971 163.606 416.972 163.597C417.017 163.216 417.089 162.618 417.499 162.086C417.52 161.977 417.542 161.83 417.558 161.721C417.625 161.28 417.693 160.824 417.891 160.404C418.028 160.112 419.119 157.962 419.908 157.023C419.997 156.917 420.23 156.566 420.436 156.256C421.352 154.878 422.735 152.794 424.459 151.668C426.51 150.329 431.31 148.238 435.047 147.758C435.756 147.593 440.835 146.403 442.437 145.97C443.51 145.68 444.795 145.228 446.257 144.625C446.366 144.562 446.641 144.378 446.845 144.241C448.222 143.317 449.273 142.662 450.262 142.662C450.299 142.662 450.377 142.665 450.414 142.668C450.731 142.69 450.976 142.733 451.155 142.764C451.156 142.765 451.158 142.765 451.159 142.765C451.25 142.649 451.382 142.455 451.484 142.304C451.993 141.55 452.691 140.519 453.928 140.051C454.15 139.967 454.359 139.892 454.554 139.826C454.214 138.486 453.95 137.131 454.04 136.408C454.052 136.312 454.056 136.195 454.063 136.064C454.109 135.162 454.235 132.685 456.462 131.81C456.783 129.919 457.672 126.292 459.947 124.184C462.742 121.594 466.006 120.125 466.144 120.064C466.229 120.026 466.317 119.995 466.408 119.973L466.446 119.961C467.816 119.555 468.929 119.357 469.849 119.357C469.961 119.357 470.071 119.36 470.178 119.366C470.322 119.375 470.493 119.38 470.686 119.387C472.376 119.444 475.52 119.55 477.844 121.395L478.405 121.839C480.491 123.48 482.461 125.029 483.365 127.622C484.488 130.842 483.863 134.668 483.727 135.402C483.539 136.413 483.193 137.067 482.915 137.593C482.681 138.035 482.552 138.279 482.519 138.703C482.45 139.594 482.273 140.519 482.127 141.175C482.334 141.582 482.417 142.075 482.301 142.617C482.154 143.303 481.632 144 481.2 144.481C480.851 145.72 480.19 147.916 479.687 148.69C479.433 149.081 478.389 150.623 477.077 151.663C477.61 153.108 477.541 153.59 477.508 153.824C477.426 154.401 477.105 155.169 476.726 156.041C476.666 156.179 476.616 156.292 476.587 156.366C476.503 156.576 476.38 156.793 476.224 157.069C476.127 157.239 475.952 157.55 475.852 157.763C476.316 159.711 476.239 160.295 476.21 160.522C476.206 160.549 476.21 160.576 476.245 160.731C476.286 160.912 476.341 161.156 476.348 161.455L476.354 161.487C476.422 161.827 476.581 162.625 475.909 163.541C475.725 163.79 475.485 164.067 475.269 164.305C475.314 164.671 475.381 165.134 475.475 165.58L475.624 166.306C475.775 167.053 476.13 168.803 476.28 169.179L476.32 169.248C476.692 169.932 477.468 171.355 477.496 175.26C477.518 178.29 477.489 181.645 477.475 183.257C477.471 183.699 477.468 184.003 477.468 184.125C477.468 184.309 477.475 184.513 477.484 184.702C477.824 184.841 478.129 184.991 478.504 185.198C478.762 185.34 478.923 185.45 479.056 185.543L479.1 185.572C479.128 185.581 479.161 185.588 479.201 185.597C479.446 185.653 480.153 185.687 480.67 185.712C481.108 185.733 481.544 185.755 481.904 185.788C483.208 185.91 485.175 186.723 485.823 187.026C486.815 187.489 487.517 187.901 487.948 188.517C488.406 189.173 488.475 189.992 488.13 190.654C487.993 190.918 487.618 191.466 486.816 191.666C486.469 191.874 485.983 192.049 485.335 192.049C484.792 192.049 484.166 191.942 483.71 191.863C483.707 191.862 483.704 191.862 483.701 191.861C483.33 192.094 482.867 192.238 482.323 192.238C482.175 192.238 482.011 192.227 481.832 192.201C481.282 192.123 480.678 192.082 480.137 192.056C480.679 192.43 480.974 192.946 481.018 193.598C481.06 194.226 480.833 194.856 480.395 195.326C479.896 195.861 479.16 196.156 478.325 196.156C478.185 196.156 478.034 196.148 477.876 196.129C477.59 196.097 477.311 196.066 477.061 196.04C476.768 196.272 476.408 196.425 476.005 196.486C475.801 196.517 475.575 196.531 475.314 196.531C474.571 196.531 473.561 196.406 472.543 196.188C471.621 195.99 470.48 195.8 469.736 195.712C469.65 195.854 469.556 195.971 469.467 196.066C469.162 196.391 468.597 196.777 467.641 196.777ZM467.379 186.572C467.482 186.611 467.598 186.656 467.724 186.709C467.433 186.112 467.152 185.424 467.009 184.888C466.8 184.103 465.615 179.851 465.019 178.002C464.517 176.449 464.39 174.725 464.298 173.466C464.268 173.061 464.242 172.696 464.205 172.391C464.13 171.759 463.977 171.336 463.829 170.927C463.73 170.655 463.628 170.374 463.56 170.062C463.517 169.866 463.496 169.627 463.493 169.326C463.066 169.479 462.559 169.633 461.953 169.796L461.63 169.881C461.575 169.916 461.51 169.967 461.42 170.035C461.159 170.233 460.865 170.409 460.592 170.554L460.55 170.953C460.758 171.224 461.088 171.634 461.579 172.189C463.056 173.862 463.64 177.004 463.526 178.149C463.501 178.515 463.811 179.65 464.021 179.961C464.317 180.361 464.759 181.239 465.696 183.147C466.147 184.065 466.613 185.014 466.846 185.421C467.119 185.899 467.279 186.283 467.379 186.572Z" fill="#92D3CA"/>
<path id="Vector_65" d="M469.85 120.978C469.93 120.978 470.008 120.98 470.085 120.985C471.391 121.059 474.674 120.947 476.838 122.666C479.002 124.384 481.016 125.804 481.837 128.157C482.658 130.51 482.434 133.499 482.135 135.105C481.837 136.711 481.016 137.122 480.904 138.579C480.792 140.036 480.345 141.642 480.345 141.642C480.345 141.642 480.83 141.754 480.718 142.277C480.606 142.8 479.748 143.659 479.748 143.659C479.748 143.659 478.815 147.059 478.33 147.806C477.845 148.553 476.315 150.607 475.047 150.981C475.047 150.981 475.98 153.073 475.905 153.596C475.83 154.119 475.233 155.389 475.084 155.762C474.935 156.136 474.086 157.369 474.198 157.817C474.31 158.265 474.674 159.778 474.604 160.31C474.534 160.843 474.73 161.151 474.73 161.515C474.73 161.879 474.954 162.104 474.604 162.58C474.254 163.056 473.583 163.729 473.583 163.729C473.583 163.729 473.667 164.849 473.89 165.914C474.114 166.978 474.562 169.36 474.814 169.864C475.066 170.368 475.849 171.405 475.877 175.271C475.905 179.138 475.849 183.564 475.849 184.124C475.849 184.685 475.905 185.413 475.905 185.497C475.905 185.581 475.653 185.777 476.241 185.974C476.828 186.17 477.164 186.31 477.724 186.618C478.283 186.926 478.227 187.038 478.843 187.178C479.459 187.318 480.858 187.318 481.753 187.402C482.648 187.486 484.299 188.103 485.139 188.495C485.978 188.887 486.426 189.167 486.622 189.448C486.818 189.728 486.79 190.12 486.174 190.12C486.174 190.12 485.95 190.428 485.335 190.428C484.719 190.428 483.74 190.204 483.572 190.204C483.404 190.204 483.124 190.092 483.124 190.092C483.124 190.092 483.056 190.616 482.324 190.616C482.244 190.616 482.157 190.61 482.061 190.596C481.081 190.456 480.018 190.428 479.291 190.4C478.563 190.372 476.856 190.288 476.101 190.204C475.49 190.136 474.824 190.013 474.295 190.013C474.17 190.013 474.053 190.02 473.946 190.036C473.387 190.12 473.331 190.58 472.995 190.616C472.883 190.628 472.787 190.632 472.708 190.632C472.55 190.632 472.463 190.616 472.463 190.616C472.463 190.616 473.723 191.072 474.674 191.297C475.625 191.521 476.493 191.997 477.052 192.417C477.612 192.838 478.088 193.006 478.423 193.09C478.759 193.174 479.375 193.286 479.403 193.706C479.428 194.086 479.11 194.534 478.326 194.534C478.242 194.534 478.154 194.529 478.06 194.519C477.08 194.406 476.185 194.322 476.185 194.322C476.185 194.322 476.325 194.799 475.765 194.883C475.641 194.901 475.489 194.91 475.313 194.91C474.696 194.91 473.798 194.799 472.883 194.603C471.754 194.36 469.851 194.041 469.107 194.041C469.077 194.041 469.048 194.041 469.022 194.042C468.946 194.045 468.879 194.046 468.82 194.046C468.716 194.046 468.638 194.043 468.58 194.043C468.383 194.043 468.415 194.08 468.434 194.406C468.457 194.801 468.346 195.156 467.642 195.156C467.495 195.156 467.322 195.141 467.119 195.107C465.944 194.911 465.58 194.519 464.153 194.322C462.726 194.126 460.907 194.154 460.544 193.846C460.18 193.538 459.984 192.585 460.18 192.137C460.18 192.137 459.145 191.689 458.697 191.072C458.249 190.456 457.158 188.971 456.262 187.346C455.367 185.721 453.8 183.676 453.8 183.676C453.8 183.676 453.324 185.609 452.345 186.394C451.366 187.178 449.687 188.047 447.672 188.075C447.645 188.075 447.618 188.075 447.59 188.075C445.613 188.075 443.98 187.087 442.076 186.562C440.18 186.039 437.88 185.3 436.976 185.3C436.96 185.3 436.943 185.301 436.928 185.301C436.06 185.329 435.249 185.441 434.493 186.002C433.738 186.562 433.626 186.954 432.982 187.262C432.543 187.473 431.7 187.8 430.978 187.8C430.642 187.8 430.332 187.729 430.1 187.542C430.1 187.542 429.513 189.476 428.142 189.644C427.08 189.774 424.423 189.904 422.837 189.904C422.376 189.904 422.005 189.893 421.79 189.868C420.839 189.756 419.3 189.027 418.404 187.879C417.509 186.73 417.117 186.422 416.67 186.366C416.511 186.346 416.416 186.337 416.356 186.337C416.248 186.337 416.258 186.368 416.222 186.422C416.166 186.506 415.942 187.879 415.159 187.963C414.653 188.017 413.119 188.048 411.931 188.048C411.28 188.048 410.732 188.039 410.514 188.019C409.898 187.963 409.926 187.823 409.926 187.823C409.926 187.823 409.84 187.84 409.716 187.84C409.371 187.84 408.732 187.704 408.835 186.674C408.835 186.674 407.996 186.226 408.108 185.357C408.219 184.489 408.555 184.096 409.171 183.032C409.786 181.967 412.472 176.28 413.06 175.607C413.6 174.99 414.73 173.095 416.212 173.095C416.343 173.095 416.477 173.11 416.614 173.142C417.663 173.387 417.947 173.578 418.013 173.686V169.808C418.013 169.808 416.194 167.623 416.894 166.25C417.593 164.877 418.348 164.821 418.488 164.317C418.628 163.812 418.544 163.28 418.852 163C419.16 162.72 419.132 161.571 419.356 161.095C419.58 160.619 420.559 158.766 421.147 158.067C421.734 157.369 423.413 154.287 425.344 153.026C427.274 151.765 431.891 149.776 435.333 149.356C435.333 149.356 441.097 148.011 442.86 147.535C444.622 147.059 446.441 146.302 446.917 146.106C447.385 145.913 449.423 144.284 450.262 144.284C450.276 144.284 450.289 144.284 450.303 144.285C450.762 144.317 451.024 144.411 451.291 144.411C451.497 144.411 451.706 144.356 452.009 144.173C452.709 143.753 453.241 142.044 454.5 141.568C455.759 141.091 456.542 140.951 456.542 140.951C456.542 140.951 455.535 137.505 455.647 136.609C455.759 135.712 455.479 133.331 457.913 133.135C457.913 133.135 458.417 127.811 461.047 125.374C463.677 122.937 466.802 121.545 466.802 121.545C466.942 121.51 468.57 120.978 469.85 120.978ZM469.785 189.345C469.792 189.345 469.799 189.345 469.805 189.345C470.178 189.326 470.141 188.728 470.029 188.392C469.917 188.056 469.898 187.16 469.675 186.879C469.451 186.599 468.798 185.31 468.574 184.47C468.35 183.629 467.156 179.352 466.559 177.503C465.963 175.654 465.963 173.45 465.813 172.199C465.664 170.947 465.272 170.312 465.142 169.715C465.011 169.117 465.347 166.409 465.328 166.278C465.327 166.266 465.319 166.261 465.306 166.261C465.174 166.261 464.499 166.824 464.041 167.249C463.538 167.716 461.84 168.146 461.43 168.258C461.019 168.37 460.982 168.333 460.441 168.743C459.9 169.154 459.079 169.472 459.079 169.472L458.874 171.396C458.874 171.396 459.228 171.975 460.366 173.263C461.504 174.552 461.989 177.242 461.915 177.989C461.84 178.736 462.288 180.342 462.717 180.921C463.146 181.5 464.843 185.18 465.44 186.226C466.037 187.272 465.907 187.626 466.13 187.795C466.354 187.963 466.858 188.056 467.623 188.448C468.374 188.834 469.396 189.345 469.785 189.345ZM469.85 117.736C468.773 117.736 467.51 117.955 465.988 118.405L465.946 118.418C465.789 118.461 465.635 118.516 465.486 118.582C465.338 118.648 461.837 120.224 458.848 122.994C456.537 125.135 455.483 128.536 455.021 130.74C454.211 131.249 453.564 131.974 453.121 132.887C452.543 134.079 452.482 135.271 452.446 135.982C452.441 136.072 452.438 136.154 452.431 136.224C452.396 136.508 452.317 137.138 452.667 138.853C451.576 139.458 450.867 140.353 450.384 141.043C450.344 141.042 450.303 141.041 450.262 141.041C448.815 141.041 447.56 141.809 445.943 142.894C445.806 142.986 445.63 143.105 445.52 143.175C444.174 143.727 442.995 144.14 442.016 144.404C440.488 144.817 435.695 145.941 434.758 146.161C430.618 146.714 425.659 148.949 423.575 150.31C421.571 151.618 420.017 153.96 419.088 155.359C418.937 155.586 418.731 155.895 418.654 155.997C417.65 157.201 416.437 159.69 416.426 159.714C416.128 160.348 416.033 160.975 415.958 161.478C415.957 161.479 415.957 161.479 415.957 161.48C415.68 161.949 415.538 162.416 415.458 162.798C415.028 163.211 414.488 163.836 414.009 164.776C413.006 166.745 413.622 168.765 414.385 170.19C412.62 170.862 411.462 172.378 410.827 173.209C410.748 173.313 410.679 173.406 410.62 173.476C410.061 174.115 409.438 175.294 407.583 179.017C407.096 179.995 406.544 181.103 406.368 181.407C406.258 181.598 406.157 181.765 406.066 181.917C405.578 182.729 405.073 183.569 404.896 184.942C404.73 186.224 405.13 187.353 405.778 188.213C406.001 188.945 406.371 189.457 406.643 189.757C407.291 190.475 408.165 190.922 409.144 191.047C409.608 191.192 410.01 191.229 410.22 191.248C410.349 191.26 410.687 191.29 411.931 191.29C412.037 191.29 414.548 191.289 415.504 191.187C415.85 191.15 416.287 191.056 416.747 190.842C418.201 192.178 420.04 192.926 421.412 193.088C421.755 193.129 422.195 193.147 422.837 193.147C424.574 193.147 427.343 193.008 428.535 192.862C429.945 192.689 431.05 191.93 431.85 190.979C432.914 190.827 433.853 190.44 434.38 190.187C435.262 189.765 435.781 189.23 436.092 188.911C436.23 188.769 436.3 188.697 436.421 188.607C436.436 188.6 436.543 188.563 436.941 188.545C437.451 188.61 438.941 189.039 439.842 189.298C440.307 189.432 440.773 189.566 441.216 189.688C441.715 189.826 442.237 190.021 442.79 190.229C444.149 190.739 445.69 191.318 447.59 191.318L447.717 191.317C450.446 191.279 452.543 190.194 453.708 189.409C454.6 190.948 455.581 192.296 456.024 192.905L456.078 192.98C456.361 193.369 456.697 193.705 457.042 193.989C457.287 194.903 457.771 195.745 458.452 196.321C459.488 197.199 460.726 197.29 462.294 197.404C462.787 197.44 463.296 197.477 463.713 197.535C464.157 197.596 464.368 197.671 464.752 197.807C465.18 197.96 465.767 198.168 466.587 198.305C466.964 198.368 467.309 198.399 467.642 198.399C468.94 198.399 469.818 197.922 470.375 197.438C470.952 197.528 471.624 197.648 472.205 197.773C473.346 198.018 474.45 198.153 475.313 198.153C475.656 198.153 475.961 198.132 476.246 198.089C476.675 198.025 477.077 197.897 477.443 197.712C477.525 197.721 477.608 197.73 477.692 197.74C477.905 197.764 478.119 197.777 478.326 197.777C479.613 197.777 480.768 197.3 481.577 196.434C482.238 195.727 482.615 194.801 482.641 193.848C483.125 193.816 483.567 193.71 483.964 193.548C484.382 193.612 484.871 193.671 485.335 193.671C486.097 193.671 486.823 193.493 487.447 193.169C488.368 192.876 489.121 192.26 489.567 191.402C490.191 190.201 490.08 188.739 489.275 187.588C488.638 186.678 487.708 186.118 486.508 185.557C486.482 185.545 483.903 184.348 482.055 184.174C481.643 184.135 481.186 184.113 480.745 184.092C480.447 184.078 479.993 184.056 479.712 184.031C479.597 183.957 479.455 183.871 479.284 183.777C479.218 183.74 479.154 183.705 479.091 183.672C479.092 183.555 479.093 183.421 479.094 183.271C479.108 181.654 479.137 178.291 479.115 175.248C479.088 171.502 478.425 169.74 477.77 168.524C477.622 168.015 477.338 166.615 477.212 165.992C477.155 165.71 477.103 165.453 477.059 165.246C477.029 165.1 477.001 164.952 476.977 164.806C477.059 164.704 477.139 164.601 477.213 164.501C478.241 163.102 478.062 161.797 477.961 161.265C477.942 160.931 477.887 160.657 477.844 160.461C477.873 160.067 477.858 159.375 477.563 157.991C477.589 157.946 477.613 157.904 477.633 157.868C477.812 157.552 477.966 157.279 478.091 156.966C478.117 156.901 478.161 156.802 478.213 156.683C478.654 155.668 479 154.831 479.111 154.054C479.16 153.713 479.229 153.226 478.944 152.174C479.915 151.221 480.655 150.173 481.045 149.573C481.22 149.303 481.728 148.521 482.659 145.273C483.312 144.486 483.723 143.709 483.884 142.957C484.026 142.293 483.992 141.638 483.812 141.039C483.942 140.392 484.073 139.606 484.133 138.828C484.138 138.759 484.14 138.74 484.346 138.352C484.64 137.795 485.086 136.953 485.319 135.698C485.529 134.567 486.12 130.602 484.894 127.088C483.834 124.048 481.584 122.277 479.408 120.565C479.223 120.42 479.037 120.274 478.85 120.125C476.109 117.949 472.485 117.826 470.743 117.766C470.564 117.76 470.405 117.755 470.27 117.748C470.133 117.74 469.993 117.736 469.85 117.736Z" fill="white"/>
</g>
</g>
</g>
</g>
</g>
</svg>
