<svg width="1161" height="862" viewBox="0 0 1161 862" fill="none" xmlns="http://www.w3.org/2000/svg">
<g id="cognitivo-sensorial">
<g id="Rectangle 190" filter="url(#filter0_d_2096_1456)">
<rect x="4" y="42" width="563" height="232" rx="15" fill="#F8EBF6"/>
</g>
<g id="Rectangle 192" filter="url(#filter1_d_2096_1456)">
<rect x="583" y="42" width="563" height="232" rx="15" fill="#F8EBF6"/>
</g>
<circle id="Ellipse 12" cx="48.5" cy="44.5" r="41.5" fill="white"/>
<g id="Rectangle 191" filter="url(#filter2_d_2096_1456)">
<rect x="7" y="330" width="563" height="232" rx="15" fill="#F8EBF6"/>
</g>
<g id="Rectangle 193" filter="url(#filter3_d_2096_1456)">
<rect x="586" y="330" width="563" height="232" rx="15" fill="#F8EBF6"/>
</g>
<g id="Rectangle 194" filter="url(#filter4_d_2096_1456)">
<rect x="301" y="618" width="563" height="232" rx="15" fill="#F8EBF6"/>
</g>
<circle id="Ellipse 13" cx="627.5" cy="44.5" r="41.5" fill="white"/>
<path id="Ellipse 14" d="M671.5 332.5C671.5 355.42 652.92 374 630 374C607.08 374 588.5 355.42 588.5 332.5C588.5 309.58 607.08 291 630 291C652.92 291 671.5 309.58 671.5 332.5Z" fill="white"/>
<path id="Ellipse 16" d="M386.894 620.5C386.894 643.42 368.313 662 345.394 662C322.474 662 303.894 643.42 303.894 620.5C303.894 597.58 322.474 579 345.394 579C368.313 579 386.894 597.58 386.894 620.5Z" fill="white"/>
<g id="Group">
<g id="Group_2">
<path id="Vector" d="M36.9554 35.5051C36.9554 35.5051 35.2212 38.2181 35.4577 44.606C35.6942 50.994 37.349 54.4068 40.7381 57.2072C44.1271 60.0075 53.5051 60.3579 57.4449 57.5575C61.3855 54.7572 62.5672 49.4195 62.9617 45.1311C63.3562 40.8437 61.9371 35.6798 60.9919 34.8926C60.0466 34.1053 50.6686 32.7047 46.4129 33.1425C42.1563 33.5793 36.9554 35.5051 36.9554 35.5051Z" fill="#409DC6"/>
<path id="Vector_2" d="M23.3806 43.5786C23.3806 43.5786 23.0912 47.7266 23.5254 50.3381C23.9596 52.9496 23.9596 54.3326 23.9596 54.3326C23.9596 54.3326 20.5768 52.8543 19.4736 50.6452C18.3704 48.4371 18.8946 46.9579 19.6183 46.4972C20.3411 46.0365 23.3806 43.5786 23.3806 43.5786Z" fill="#EAA0BE"/>
<path id="Vector_3" d="M18.676 46.9972C20.0678 45.1412 21.3537 44.654 25.695 41.1212C30.0363 37.5874 37.7066 33.5938 45.955 32.6716C54.2042 31.7502 61.8737 34.0545 66.3606 36.9731C70.8466 39.8918 75.4774 46.1906 76.3458 47.8807C77.2143 49.5708 77.6485 51.7215 77.6485 51.7215C77.6485 51.7215 77.4596 53.3111 77.1419 52.4126C76.4906 50.5689 75.5277 48.8338 74.8985 47.5735C73.5958 44.9621 67.6624 38.049 61.0061 35.7446C54.349 33.4403 49.4287 33.2867 42.3374 34.6697C35.246 36.0526 26.4187 41.7363 24.8266 42.9657C23.2344 44.1951 19.3265 47.0396 19.0379 47.8816C18.8931 48.3043 18.7484 49.6096 18.7484 49.6096C18.7484 49.6096 17.6681 48.3405 18.676 46.9972Z" fill="#2F2F2E"/>
<path id="Vector_4" d="M19.037 47.8806C19.037 47.8806 18.9823 49.4172 20.8639 51.26C22.7455 53.1036 27.1415 57.482 36.1136 60.247C45.0856 63.0121 56.5907 62.5514 64.6952 60.0935C72.7997 57.6356 77.6476 51.7207 77.6476 51.7207C77.6476 51.7207 77.6476 52.1813 77.3581 52.95C77.0686 53.7179 71.5694 59.1721 64.7676 61.0149C57.9657 62.8585 51.4533 63.396 45.9541 63.0889C40.4549 62.7817 34.232 60.9381 31.1933 59.4015C28.1538 57.865 21.9318 54.1786 20.4844 52.1813C19.037 50.1841 18.6937 49.7614 18.368 48.4367C18.1226 47.4403 19.037 47.8806 19.037 47.8806Z" fill="#2F2F2E"/>
<path id="Vector_5" d="M24.3366 43.252C24.3366 43.252 23.6597 46.2473 23.9607 49.4166C24.2616 52.585 24.8997 55.2159 24.8997 55.2159L23.9607 54.1983C23.9607 54.1983 23.3588 50.684 23.2087 49.1289C23.0578 47.5738 23.4594 43.5794 23.4594 43.5794L24.3366 43.252Z" fill="#2F2F2E"/>
<path id="Vector_6" d="M36.3652 37.61C36.3652 37.61 35.4359 41.6335 35.9363 46.1125C36.4367 50.5915 37.4384 53.7043 39.9405 55.9813C42.4434 58.2583 44.6542 58.7622 48.4501 59.2458C52.0254 59.7012 57.1715 57.5963 58.6895 56.0995C60.5888 54.2276 61.8941 51.1228 62.5375 47.935C63.1809 44.7463 62.8234 39.5842 62.0371 37.535C62.0371 37.535 62.18 37.1554 62.466 37.459C62.7519 37.7626 63.3953 39.8128 63.6107 43.6837C63.8251 47.5555 62.5375 51.2755 61.8226 53.0212C61.1077 54.7669 59.7177 57.0562 57.1433 58.3465C54.5689 59.6368 50.7386 60.3093 47.8782 60.0807C45.0178 59.853 41.5159 58.4666 39.0826 56.4367C36.0793 53.9311 35.2929 48.4654 35.1491 46.8715C35.0061 45.2776 34.8632 40.1914 35.721 37.6859C35.721 37.6859 36.0793 37.1546 36.3652 37.61Z" fill="#2F2F2E"/>
<path id="Vector_7" d="M49.8809 37.155C51.1985 37.1276 52.7413 37.2309 55.1012 39.5079C57.4612 41.7849 57.4612 46.7192 56.4595 48.8453C55.4587 50.9705 53.4561 52.9448 49.88 53.0966C46.3048 53.2484 43.6589 50.8946 42.5857 47.3273C41.5125 43.7591 43.0146 40.6473 45.0886 38.9766C47.1635 37.3068 48.5668 37.1823 49.8809 37.155Z" fill="#2F2F2E"/>
<path id="Vector_8" d="M46.0908 36.0921C46.0908 36.0921 48.2363 36.0162 47.7359 38.2932C47.2355 40.5711 43.6594 42.6963 42.0866 41.1024C40.5139 39.5085 42.9445 36.3198 46.0908 36.0921Z" fill="white"/>
<path id="Vector_9" d="M19.8339 38.4857C19.8339 38.4857 28.3638 29.7863 37.8495 26.0239C47.3352 22.2607 58.3187 23.3083 64.8769 25.8271C71.4352 28.3459 78.4357 37.4248 80.019 40.9656C80.019 40.9656 80.1381 41.5393 80.5723 41.5305C81.0065 41.5216 80.763 40.0283 79.8681 38.5483C78.9732 37.0682 73.2648 27.3875 65.0702 24.4406C56.8757 21.4938 47.097 20.9986 39.0119 24.1564C30.9267 27.3151 27.1962 31.1931 24.6217 32.9732C22.0482 34.7533 17.7811 38.9878 18.0088 39.5597C18.2347 40.1316 19.8339 38.4857 19.8339 38.4857Z" fill="#2F2F2E"/>
<path id="Vector_10" d="M74.2109 45.6136C74.2109 45.6136 75.7042 45.9208 78.0642 45.4406C80.6148 44.9226 82.026 44.3463 81.8089 44.807C81.5918 45.2677 76.0564 47.8024 75.7307 47.572C75.4042 47.3426 74.2109 45.6136 74.2109 45.6136Z" fill="#2F2F2E"/>
<path id="Vector_11" d="M70.6289 41.3511C70.6289 41.3511 73.4504 40.7174 74.8616 40.2567C76.2729 39.796 77.6832 38.9894 77.6832 39.5657C77.6832 40.142 72.1478 42.6193 71.605 42.2734C71.0631 41.9274 70.6289 41.3511 70.6289 41.3511Z" fill="#2F2F2E"/>
<path id="Vector_12" d="M65.6367 37.088C65.6367 37.088 69.8694 35.4747 71.6063 33.8623C71.6063 33.8623 72.3115 33.113 72.3115 33.5746C72.3115 34.0353 69.7609 37.3192 67.1556 38.0103L65.6367 37.088Z" fill="#2F2F2E"/>
<path id="Vector_13" d="M59.3418 34.4956C59.3418 34.4956 62.8147 32.9405 64.3892 31.6723C65.9628 30.4049 66.5055 29.8286 66.5055 30.059C66.5055 30.2893 65.6918 31.614 64.3344 32.8814C62.9779 34.1487 61.1325 34.9554 61.1325 34.9554L59.3418 34.4956Z" fill="#2F2F2E"/>
<path id="Vector_14" d="M52.124 33.055C52.124 33.055 55.7054 31.154 57.1714 29.6563C58.6364 28.1586 59.1253 27.5822 59.2339 27.6396C59.3425 27.697 58.7458 29.1373 57.6603 30.4629C56.5747 31.7876 55.1097 33.1132 55.1097 33.1132L52.124 33.055Z" fill="#2F2F2E"/>
<path id="Vector_15" d="M44.8516 33.5161C44.8516 33.5161 47.0227 31.4421 48.2706 29.8288C49.5185 28.2155 50.3331 26.7752 50.4955 26.8908C50.6588 27.0064 50.2246 28.3311 49.6818 29.5411C49.139 30.7511 47.6193 33.1702 47.3483 33.2858C47.0765 33.4014 44.8516 33.5161 44.8516 33.5161Z" fill="#2F2F2E"/>
<path id="Vector_16" d="M39.3711 34.7258C39.3711 34.7258 40.8362 32.8248 41.4875 31.3271C42.1388 29.8294 42.4098 28.2734 42.2474 28.2734C42.085 28.2734 40.6191 31.0959 39.6421 32.4215C38.6651 33.7462 37.3086 35.0135 37.3086 35.0135L39.3711 34.7258Z" fill="#2F2F2E"/>
<path id="Vector_17" d="M32.7858 37.3567C32.7858 37.3567 33.5818 36.3577 34.3055 34.8988C35.0292 33.439 35.174 32.2105 34.8121 32.3641C34.6382 32.4382 33.8528 33.9747 32.9305 35.2827C31.9297 36.7027 30.7779 37.9154 30.3252 38.3549L32.7858 37.3567Z" fill="#2F2F2E"/>
</g>
<path id="Vector_18" d="M224.967 44.5161C224.967 52.4591 221.751 59.6421 216.551 64.8421C211.351 70.0511 204.159 73.2671 196.216 73.2671H85.4692C84.4962 73.2671 83.5412 73.2211 82.5962 73.1281C81.9192 73.0541 81.2432 72.9701 80.5752 72.8501C87.2672 65.2871 91.3262 55.3701 91.3262 44.5171C91.3262 33.6641 87.2672 23.7471 80.5752 16.1841C81.2422 16.0631 81.9192 15.9801 82.5962 15.9061C83.5412 15.8131 84.4962 15.7671 85.4692 15.7671H196.216C212.102 15.7661 224.967 28.6401 224.967 44.5161Z" fill="#AEABDA"/>
<g id="Group_3">
<path id="Vector_19" d="M82.596 15.905C74.421 6.192 62.178 0 48.507 0C23.964 0 4 19.973 4 44.516C4 69.059 23.964 89.032 48.507 89.032C62.178 89.032 74.421 82.841 82.596 73.128C89.093 65.38 93.023 55.398 93.023 44.517C93.023 33.635 89.093 23.653 82.596 15.905ZM80.575 72.85C72.734 81.72 61.26 87.327 48.507 87.327C24.9 87.327 5.69702 68.123 5.69702 44.517C5.69702 20.911 24.901 1.707 48.507 1.707C61.26 1.707 72.734 7.31402 80.575 16.184C87.267 23.747 91.326 33.664 91.326 44.517C91.326 55.37 87.267 65.286 80.575 72.85Z" fill="#AEABDA"/>
</g>
</g>
<text id="&#195;&#137; menos desenvolvida ao nascimento, sendo que o beb&#195;&#170; fixa o olhar e movimenta ativamente a cabe&#195;&#167;a, acompanhando objetos, tanto na horizontal quanto na vertical, apresentando reflexo de piscamento. Os objetos em movimento chamam mais aten&#195;&#167;&#195;&#163;o do que os est&#195;&#161;ticos. N&#195;&#163;o apresenta simetria entre os movimentos oculares e o piscar." fill="black" xml:space="preserve" style="white-space: pre" font-family="Open Sans" font-size="18" letter-spacing="0em"><tspan x="35" y="119.483">&#xc9; menos desenvolvida ao nascimento, sendo que o beb&#xea; fixa </tspan><tspan x="35" y="144.483">o olhar e movimenta ativamente a cabe&#xe7;a, acompanhando </tspan><tspan x="35" y="169.483">objetos, tanto na horizontal quanto na vertical, </tspan><tspan x="35" y="194.483">apresentando reflexo de piscamento. Os objetos em </tspan><tspan x="35" y="219.483">movimento chamam mais aten&#xe7;&#xe3;o do que os est&#xe1;ticos. N&#xe3;o </tspan><tspan x="35" y="244.483">apresenta simetria entre os movimentos oculares e o piscar.</tspan></text>
<text id="Vis&#195;&#163;o" fill="#434556" xml:space="preserve" style="white-space: pre" font-family="Open Sans" font-size="20" font-weight="600" letter-spacing="0em"><tspan x="114" y="51.7588">Vis&#xe3;o</tspan></text>
<g id="Group_4">
<path id="Vector_20" d="M803.967 44.5161C803.967 52.4591 800.751 59.6421 795.551 64.8421C790.351 70.0511 783.159 73.2671 775.216 73.2671H664.469C663.496 73.2671 662.541 73.2211 661.596 73.1281C660.919 73.0541 660.243 72.9701 659.575 72.8501C666.267 65.2871 670.326 55.3701 670.326 44.5171C670.326 33.6641 666.267 23.7471 659.575 16.1841C660.242 16.0631 660.919 15.9801 661.596 15.9061C662.541 15.8131 663.496 15.7671 664.469 15.7671H775.216C791.102 15.7661 803.967 28.6401 803.967 44.5161Z" fill="#AEABDA"/>
<g id="Group_5">
<path id="Vector_21" d="M661.596 15.905C653.421 6.192 641.178 0 627.507 0C602.964 0 583 19.973 583 44.516C583 69.059 602.964 89.032 627.507 89.032C641.178 89.032 653.421 82.841 661.596 73.128C668.093 65.38 672.023 55.398 672.023 44.517C672.023 33.635 668.093 23.653 661.596 15.905ZM659.575 72.85C651.734 81.72 640.26 87.327 627.507 87.327C603.9 87.327 584.697 68.123 584.697 44.517C584.697 20.911 603.901 1.707 627.507 1.707C640.26 1.707 651.734 7.31402 659.575 16.184C666.267 23.747 670.326 33.664 670.326 44.517C670.326 55.37 666.267 65.286 659.575 72.85Z" fill="#AEABDA"/>
</g>
</g>
<g id="Group_6">
<path id="Vector_22" d="M806.967 332.516C806.967 340.459 803.751 347.642 798.551 352.842C793.351 358.051 786.159 361.267 778.216 361.267H667.469C666.496 361.267 665.541 361.221 664.596 361.128C663.919 361.054 663.243 360.97 662.575 360.85C669.267 353.287 673.326 343.37 673.326 332.517C673.326 321.664 669.267 311.747 662.575 304.184C663.242 304.063 663.919 303.98 664.596 303.906C665.541 303.813 666.496 303.767 667.469 303.767H778.216C794.102 303.766 806.967 316.64 806.967 332.516Z" fill="#AEABDA"/>
<g id="Group_7">
<path id="Vector_23" d="M664.596 303.905C656.421 294.192 644.178 288 630.507 288C605.964 288 586 307.973 586 332.516C586 357.059 605.964 377.032 630.507 377.032C644.178 377.032 656.421 370.841 664.596 361.128C671.093 353.38 675.023 343.398 675.023 332.517C675.023 321.635 671.093 311.653 664.596 303.905ZM662.575 360.85C654.734 369.72 643.26 375.327 630.507 375.327C606.9 375.327 587.697 356.123 587.697 332.517C587.697 308.911 606.901 289.707 630.507 289.707C643.26 289.707 654.734 295.314 662.575 304.184C669.267 311.747 673.326 321.664 673.326 332.517C673.326 343.37 669.267 353.286 662.575 360.85Z" fill="#AEABDA"/>
</g>
</g>
<text id="Inicia-se na vida intrauterina em contato do l&#195;&#173;quido amni&#195;&#179;tico com os l&#195;&#161;bios e a pele. Ap&#195;&#179;s o nascimento, deve-se estimular pelo contato pele a pele, recomendado nos primeiros momentos de vida, colocando no colo, abra&#195;&#167;ando, ninando e o amamentando." fill="black" xml:space="preserve" style="white-space: pre" font-family="Open Sans" font-size="18" letter-spacing="0em"><tspan x="38" y="407.483">Inicia-se na vida intrauterina em contato do l&#xed;quido </tspan><tspan x="38" y="432.483">amni&#xf3;tico com os l&#xe1;bios e a pele. Ap&#xf3;s o nascimento, deve-</tspan><tspan x="38" y="457.483">se estimular pelo contato pele a pele, recomendado nos </tspan><tspan x="38" y="482.483">primeiros momentos de vida, colocando no colo, abra&#xe7;ando, </tspan><tspan x="38" y="507.483">ninando e o amamentando.</tspan></text>
<g id="Group_8">
<path id="Vector_24" d="M521.967 620.516C521.967 628.459 518.751 635.642 513.551 640.842C508.351 646.051 501.159 649.267 493.216 649.267H382.469C381.496 649.267 380.541 649.221 379.596 649.128C378.919 649.054 378.243 648.97 377.575 648.85C384.267 641.287 388.326 631.37 388.326 620.517C388.326 609.664 384.267 599.747 377.575 592.184C378.242 592.063 378.919 591.98 379.596 591.906C380.541 591.813 381.496 591.767 382.469 591.767H493.216C509.102 591.766 521.967 604.64 521.967 620.516Z" fill="#AEABDA"/>
<g id="Group_9">
<path id="Vector_25" d="M379.596 591.905C371.421 582.192 359.178 576 345.507 576C320.964 576 301 595.973 301 620.516C301 645.059 320.964 665.032 345.507 665.032C359.178 665.032 371.421 658.841 379.596 649.128C386.093 641.38 390.023 631.398 390.023 620.517C390.023 609.635 386.093 599.653 379.596 591.905ZM377.575 648.85C369.734 657.72 358.26 663.327 345.507 663.327C321.9 663.327 302.697 644.123 302.697 620.517C302.697 596.911 321.901 577.707 345.507 577.707C358.26 577.707 369.734 583.314 377.575 592.184C384.267 599.747 388.326 609.664 388.326 620.517C388.326 631.37 384.267 641.286 377.575 648.85Z" fill="#AEABDA"/>
</g>
</g>
<text id="Olfato" fill="#434556" xml:space="preserve" style="white-space: pre" font-family="Open Sans" font-size="20" font-weight="600" letter-spacing="0em"><tspan x="693" y="340.759">Olfato</tspan></text>
<text id="Geralmente, inicia-se entre o primeiro e o segundo ano de vida. Neste per&#195;&#173;odo, a crian&#195;&#167;a come&#195;&#167;a a compreender melhor sabores e consist&#195;&#170;ncias, sendo capaz de definir o que gosta e o que n&#195;&#163;o gosta de comer." fill="black" xml:space="preserve" style="white-space: pre" font-family="Open Sans" font-size="18" letter-spacing="0em"><tspan x="332" y="695.483">Geralmente, inicia-se entre o primeiro e o segundo ano de </tspan><tspan x="332" y="720.483">vida. Neste per&#xed;odo, a crian&#xe7;a come&#xe7;a a compreender </tspan><tspan x="332" y="745.483">melhor sabores e consist&#xea;ncias, sendo capaz de definir o </tspan><tspan x="332" y="770.483">que gosta e o que n&#xe3;o gosta de comer.</tspan></text>
<text id="Inicia-se na vida intrauterina por volta de 28 semanas de gesta&#195;&#167;&#195;&#163;o. Logo ap&#195;&#179;s o nascimento, o beb&#195;&#170; passa a reconhecer os cheiros da m&#195;&#163;e, do pai e do ambiente." fill="black" xml:space="preserve" style="white-space: pre" font-family="Open Sans" font-size="18" letter-spacing="0em"><tspan x="617" y="407.483">Inicia-se na vida intrauterina por volta de 28 semanas de </tspan><tspan x="617" y="432.483">gesta&#xe7;&#xe3;o. Logo ap&#xf3;s o nascimento, o beb&#xea; passa a </tspan><tspan x="617" y="457.483">reconhecer os cheiros da m&#xe3;e, do pai e do ambiente.</tspan></text>
<text id="Paladar" fill="#434556" xml:space="preserve" style="white-space: pre" font-family="Open Sans" font-size="20" font-weight="600" letter-spacing="0em"><tspan x="410" y="628.759">Paladar</tspan></text>
<text id="&#195;&#137; o sentido mais desenvolvido do beb&#195;&#170;, sendo capaz de, aos 3 dias de vida, dirigir os olhos e a cabe&#195;&#167;a em dire&#195;&#167;&#195;&#163;o &#195;&#160; fonte de um som (Legarda, 2009). A audi&#195;&#167;&#195;&#163;o &#195;&#169; uma via important&#195;&#173;ssima para o desenvolvimento da linguagem oral, considerada um dos pr&#195;&#169;-requisitos para a aquisi&#195;&#167;&#195;&#163;o da fala." fill="black" xml:space="preserve" style="white-space: pre" font-family="Open Sans" font-size="18" letter-spacing="0em"><tspan x="614" y="119.483">&#xc9; o sentido mais desenvolvido do beb&#xea;, sendo capaz de, aos </tspan><tspan x="614" y="144.483">3 dias de vida, dirigir os olhos e a cabe&#xe7;a em dire&#xe7;&#xe3;o &#xe0; fonte </tspan><tspan x="614" y="169.483">de um som (Legarda, 2009). A audi&#xe7;&#xe3;o &#xe9; uma via </tspan><tspan x="614" y="194.483">important&#xed;ssima para o desenvolvimento da linguagem oral, </tspan><tspan x="614" y="219.483">considerada um dos pr&#xe9;-requisitos para a aquisi&#xe7;&#xe3;o da fala.</tspan></text>
<text id="Audi&#195;&#167;&#195;&#163;o" fill="#434556" xml:space="preserve" style="white-space: pre" font-family="Open Sans" font-size="20" font-weight="600" letter-spacing="0em"><tspan x="693" y="52.7588">Audi&#xe7;&#xe3;o</tspan></text>
<g id="Group_10">
<path id="Vector_26" d="M630.448 25.3518C630.956 26.6 630.434 28.1754 629.009 28.1273C627.58 28.0784 625.125 26.9513 624.34 26.9092C623.551 26.8663 624.639 27.6832 626.609 28.1394C628.579 28.5955 631.158 29.1891 631.47 27.1437C631.783 25.0941 629.128 21.3727 629.128 21.3727C628.248 21.0299 629.934 24.1036 630.448 25.3518Z" fill="#2F2F2E"/>
<path id="Vector_27" d="M633.291 37.5064C634.648 39.8155 636.045 43.3745 635.088 45.3211C634.13 47.2677 630.851 47.2858 628.626 47.7084C626.4 48.1353 621.643 50.6713 622.572 50.7546C623.501 50.8388 624.825 50.021 627.91 48.7393C630.991 47.4524 633.118 48.1122 634.977 46.5616C636.836 45.0102 636.367 41.5302 634.505 37.9248C632.642 34.3237 623.212 28.0088 623.212 28.0088C622.38 28.5569 625.201 30.2157 625.201 30.2157C625.201 30.2157 631.94 35.1973 633.291 37.5064Z" fill="#2F2F2E"/>
<path id="Vector_28" d="M622.873 33.1093C622.558 32.5904 621.633 31.9779 621.152 30.4866C620.671 28.9953 620.844 25.798 622.046 24.0936C623.253 22.3893 628.198 18.3432 632.596 19.9616C634.274 20.5776 635.738 21.1703 636.99 22.5997C639.021 24.9106 640.44 28.3313 640.887 29.57C641.602 31.5682 642.373 37.3521 641.834 40.8862C641.292 44.4255 640.326 48.6863 638.791 51.5203C637.256 54.3543 634.858 57.6874 634.624 58.2003C634.385 58.7174 634.315 59.1778 635.441 58.0095C636.56 56.8455 639.963 51.0685 640.968 48.0756C641.98 45.0792 642.714 39.7635 642.437 34.3704C642.158 28.9773 638.706 20.6574 632.448 19.386C626.189 18.1147 620.447 22.7475 620.114 27.498C619.783 32.2442 622.372 33.8197 622.372 33.8197C622.9 33.9821 623.186 33.6324 622.873 33.1093Z" fill="#2F2F2E"/>
<path id="Vector_29" d="M612.8 31.992C612.8 31.992 612.838 32.0272 612.91 32.101C612.944 31.0822 613.053 30.0789 613.313 29.0798C613.313 29.0798 614.912 18.6184 623.423 15.0928C631.938 11.5682 643.221 16.0206 645.251 27.4536C647.282 38.8866 645.505 46.3792 642.783 51.8376C640.06 57.3011 636.803 63.518 632.956 66.7077C629.109 69.8973 619.308 73.6436 614.335 69.1061C610.474 65.584 610.384 61.3756 611.048 58.2727C610.565 59.301 609.997 60.6754 610 61.7638C610.001 63.5068 610.621 67.3597 613.526 69.4154C616.436 71.4719 618.192 72.2786 623.527 71.6137C628.862 70.953 632.152 68.7702 634.971 66.1183C637.794 63.4622 640.894 57.2212 642.363 54.6295C643.833 52.0335 646.341 45.3037 646.797 40.5429C647.258 35.782 646.685 28.9801 646.238 26.6298C645.791 24.2795 643.033 16.8814 635.909 14.3171C628.78 11.7468 624.508 13.3764 620.695 15.4785C616.883 17.5806 614.358 22.7005 613.403 26.3128C612.446 29.9225 612.8 31.992 612.8 31.992Z" fill="#2F2F2E"/>
<path id="Vector_30" d="M613.312 29.079C613.312 29.079 614.91 18.621 623.423 15.0946C631.937 11.5691 643.218 16.0207 645.249 27.4528C647.28 38.8859 645.505 46.3784 642.783 51.8385C640.06 57.2986 636.801 63.5164 632.956 66.706C629.111 69.8956 619.305 73.6436 614.332 69.107C609.359 64.5696 610.647 58.8904 611.732 55.9087C612.817 52.9269 611.594 46.7109 612.6 41.981C613.605 37.2511 612.276 33.1174 613.312 29.079Z" fill="#EAA0BE"/>
<path id="Vector_31" d="M619.167 42.1633C619.167 42.1633 618.851 39.5964 621.383 39.5114C623.914 39.4263 625.398 44.1382 624.661 46.3863C623.924 48.6344 622.785 50.4281 620.821 50.9152C618.858 51.4023 618.064 50.4152 618.205 49.4926C618.346 48.57 619.362 47.0727 619.562 45.7652C619.761 44.4569 619.186 43.5824 619.167 42.1633Z" fill="#2F2F2E"/>
<path id="Vector_32" d="M622.372 33.8205C622.372 33.8205 619.779 32.2442 620.111 27.4945C620.444 22.7449 626.187 18.1137 632.446 19.3851C638.705 20.6565 642.156 28.9747 642.434 34.3677C642.711 39.7617 641.978 45.0792 640.969 48.0729C639.961 51.0667 636.56 56.8429 635.438 58.0086C634.315 59.1752 634.385 58.7139 634.622 58.1985C634.858 57.6839 637.255 54.3517 638.791 51.5168C640.326 48.682 641.291 44.4229 641.832 40.8853C642.372 37.3478 641.603 31.5647 640.886 29.5657C640.442 28.3304 639.023 24.9079 636.993 22.5962C635.738 21.1694 634.274 20.5741 632.595 19.9573C628.199 18.3414 623.253 22.3858 622.048 24.0901C620.843 25.7945 620.669 28.9944 621.149 30.4849C621.629 31.9753 622.559 32.5887 622.873 33.1092C623.188 33.6298 622.898 33.9795 622.372 33.8205Z" fill="#2F2F2E"/>
<path id="Vector_33" d="M623.211 28.0063C623.211 28.0063 632.641 34.322 634.503 37.9266C636.366 41.5303 636.835 45.0094 634.976 46.5608C633.118 48.1123 630.991 47.4525 627.907 48.7368C624.823 50.0219 623.5 50.8398 622.571 50.7564C621.642 50.6731 626.4 48.1329 628.625 47.7077C630.85 47.2833 634.132 47.2661 635.088 45.3213C636.044 43.3764 634.646 39.8139 633.292 37.5048C631.937 35.1957 625.2 30.2158 625.2 30.2158C625.2 30.2158 622.381 28.5561 623.211 28.0063Z" fill="#2F2F2E"/>
<path id="Vector_34" d="M629.127 21.3738C629.127 21.3738 631.781 25.0943 631.468 27.1406C631.156 29.1877 628.579 28.5923 626.608 28.1379C624.637 27.6835 623.548 26.8665 624.337 26.9078C625.126 26.9482 627.579 28.0795 629.006 28.1267C630.432 28.1731 630.955 26.5985 630.444 25.3512C629.934 24.103 628.248 21.0302 629.127 21.3738Z" fill="#2F2F2E"/>
<g id="Group_11">
<path id="Vector_35" d="M630.448 25.3523C630.956 26.6004 630.434 28.1759 629.009 28.1278C627.58 28.0789 625.125 26.9518 624.34 26.9097C623.551 26.8667 624.639 27.6837 626.609 28.1399C628.579 28.596 631.158 29.1896 631.47 27.1442C631.783 25.0945 629.128 21.3732 629.128 21.3732C628.248 21.0304 629.934 24.1041 630.448 25.3523Z" fill="#EAA0BE"/>
<path id="Vector_36" d="M633.291 37.5069C634.648 39.816 636.045 43.375 635.088 45.3216C634.13 47.2682 630.851 47.2862 628.626 47.7089C626.4 48.1358 621.643 50.6718 622.572 50.7551C623.501 50.8393 624.825 50.0215 627.91 48.7398C630.991 47.4529 633.118 48.1126 634.977 46.5621C636.836 45.0106 636.367 41.5307 634.505 37.9253C632.642 34.3241 623.212 28.0093 623.212 28.0093C622.38 28.5573 625.201 30.2162 625.201 30.2162C625.201 30.2162 631.94 35.1978 633.291 37.5069Z" fill="#EAA0BE"/>
<path id="Vector_37" d="M620.114 27.4972C619.783 32.2434 622.372 33.8189 622.372 33.8189C622.9 33.9821 623.187 33.6325 622.874 33.1093C622.559 32.5905 621.634 31.9779 621.153 30.4866C620.672 28.9953 620.844 25.798 622.047 24.0937C623.254 22.3893 628.199 18.3432 632.597 19.9616C634.275 20.5776 635.739 21.1703 636.991 22.5998C639.022 24.9106 640.441 28.3313 640.888 29.5701C641.602 31.5682 642.374 37.3521 641.834 40.8863C641.293 44.4255 640.327 48.6864 638.792 51.5204C637.257 54.3544 634.859 57.6874 634.625 58.2003C634.386 58.7174 634.316 59.1779 635.441 58.0096C636.561 56.8456 639.963 51.0685 640.969 48.0756C641.98 45.0792 642.715 39.7635 642.437 34.3704C642.159 28.9773 638.707 20.6575 632.448 19.3861C626.189 18.113 620.447 22.7458 620.114 27.4972Z" fill="#EAA0BE"/>
<path id="Vector_38" d="M620.114 27.4972C619.783 32.2434 622.372 33.8189 622.372 33.8189C622.9 33.9821 623.187 33.6325 622.874 33.1093C622.559 32.5905 621.634 31.9779 621.153 30.4866C620.672 28.9953 620.844 25.798 622.047 24.0937C623.254 22.3893 628.199 18.3432 632.597 19.9616C634.275 20.5776 635.739 21.1703 636.991 22.5998C639.022 24.9106 640.441 28.3313 640.888 29.5701C641.602 31.5682 642.374 37.3521 641.834 40.8863C641.293 44.4255 640.327 48.6864 638.792 51.5204C637.257 54.3544 634.859 57.6874 634.625 58.2003C634.386 58.7174 634.316 59.1779 635.441 58.0096C636.561 56.8456 639.963 51.0685 640.969 48.0756C641.98 45.0792 642.715 39.7635 642.437 34.3704C642.159 28.9773 638.707 20.6575 632.448 19.3861C626.189 18.113 620.447 22.7458 620.114 27.4972Z" fill="#2F2F2E"/>
<path id="Vector_39" d="M625.2 30.2162C625.2 30.2162 631.94 35.1978 633.291 37.5069C634.648 39.816 636.045 43.375 635.088 45.3216C634.13 47.2682 630.851 47.2862 628.626 47.7089C626.4 48.1358 621.643 50.6718 622.572 50.7551C623.501 50.8393 624.825 50.0215 627.91 48.7398C630.991 47.4529 633.118 48.1126 634.977 46.5621C636.836 45.0106 636.367 41.5307 634.505 37.9253C632.642 34.3241 623.212 28.0093 623.212 28.0093C622.38 28.5573 625.2 30.2162 625.2 30.2162Z" fill="#2F2F2E"/>
<path id="Vector_40" d="M626.609 28.14C628.579 28.5961 631.159 29.1897 631.471 27.1444C631.783 25.0947 629.129 21.3733 629.129 21.3733C628.249 21.0297 629.935 24.1033 630.448 25.3524C630.957 26.6006 630.435 28.1761 629.009 28.1279C627.58 28.079 625.126 26.9519 624.34 26.9098C623.55 26.8669 624.639 27.6838 626.609 28.14Z" fill="#2F2F2E"/>
</g>
</g>
<g id="Group_12">
<path id="Vector_41" d="M624.222 311.42C624.222 311.42 626.28 306.435 630.395 305.47C634.511 304.506 636.381 305.149 638.439 306.275C640.497 307.4 641.807 309.271 642.368 310.547C642.929 311.823 645.735 342.86 645.735 342.86C645.735 342.86 649.008 343.342 650.786 345.432C652.563 347.523 653.124 349.372 653.124 351.785C653.124 354.197 651.627 356.127 650.505 356.609C649.383 357.091 646.95 357.976 644.331 358.056C641.713 358.136 638.065 358.377 637.129 358.86C636.193 359.343 634.042 360.71 629.833 360.227C625.624 359.744 624.969 359.101 624.081 358.74C623.193 358.378 617.862 358.458 615.055 357.413C612.249 356.367 610.005 354.599 609.256 352.589C608.508 350.579 609.537 347.523 610.566 346.156C611.595 344.789 615.414 342.914 617.487 342.753L622.257 318.336L624.222 311.42Z" fill="#EAA0BE"/>
<path id="Vector_42" d="M622.872 354.546C622.872 354.546 622.622 353.259 620.502 352.509C618.381 351.759 615.888 350.043 614.765 351.329C613.643 352.616 615.264 353.259 616.511 353.581C617.757 353.902 619.878 354.867 620.876 355.189C621.874 355.511 623.121 355.083 622.872 354.546Z" fill="#2F2F2E"/>
<path id="Vector_43" d="M637.836 354.009C637.836 354.009 638.584 352.401 641.452 351.544C644.321 350.686 645.942 350.901 646.815 352.187C647.688 353.473 644.944 353.473 643.198 353.902C641.452 354.331 637.836 356.261 637.836 354.009Z" fill="#2F2F2E"/>
<path id="Vector_44" d="M637.712 354.974C637.712 354.974 635.218 356.689 631.85 357.011C628.483 357.332 624.243 355.724 623.744 355.402C623.245 355.081 623.229 355.415 623.604 355.845C623.979 356.274 627.064 357.895 632.599 357.654C635.35 357.534 638.709 355.617 637.712 354.974Z" fill="#2F2F2E"/>
<path id="Vector_45" d="M615.514 355.19C615.514 355.19 610.525 353.796 609.154 350.901C607.781 348.007 608.156 345.756 609.653 343.825C611.15 341.895 612.896 340.824 614.517 340.287C616.138 339.751 618.508 339.724 618.274 339.966C618.04 340.207 616.684 340.167 615.094 340.649C613.504 341.132 610.885 343.062 610.043 344.429C609.202 345.796 608.827 347.283 609.248 348.891C609.669 350.5 610.324 351.304 611.306 352.348C612.288 353.394 613.597 354.037 614.298 354.238C614.999 354.439 616.449 355.216 615.514 355.19Z" fill="#2F2F2E"/>
<path id="Vector_46" d="M644.269 339.446C644.269 339.446 647.064 339.958 648.576 340.904C650.088 341.849 652.012 343.621 652.7 346.024C653.387 348.426 652.791 351.065 651.967 352.247C651.142 353.429 649.218 354.335 647.569 354.728C645.92 355.122 645.644 355.161 645.599 354.965C645.553 354.768 647.706 354.335 649.127 353.665C650.547 352.996 651.279 352.404 651.875 351.183C652.471 349.963 652.563 347.363 651.875 345.709C651.188 344.055 649.905 342.44 648.851 341.653C647.797 340.865 645.553 340.235 644.819 340.038C644.086 339.842 643.766 339.802 643.72 339.605C643.674 339.407 644.04 339.446 644.269 339.446Z" fill="#2F2F2E"/>
<path id="Vector_47" d="M645.569 339.91C645.569 339.91 644.759 331.622 644.384 327.785C644.01 323.948 643.262 317.052 643.075 313.937C642.888 310.822 642.389 307.819 641.89 307.653C641.391 307.486 642.143 309.301 642.202 311.157C642.265 313.103 643.012 321.724 643.262 323.393C643.511 325.061 643.886 331.012 644.135 333.014C644.384 335.016 644.884 339.965 644.884 339.965L645.569 339.91Z" fill="#2F2F2E"/>
<path id="Vector_48" d="M617.355 340.049C617.355 340.049 618.972 330.705 619.721 326.248C620.47 321.79 622.341 312.765 623.12 310.452C623.899 308.139 624.084 308.03 623.648 308.034C623.211 308.039 622.492 310.191 622.077 311.696C621.661 313.202 619.731 322.495 619.322 324.483C618.913 326.471 616.946 337.588 616.829 338.178C616.713 338.769 616.42 340.166 616.42 340.166L617.355 340.049Z" fill="#2F2F2E"/>
</g>
<circle id="Ellipse 15" cx="51.5" cy="332.5" r="41.5" fill="white"/>
<g id="Group_13">
<path id="Vector_49" d="M227.967 332.516C227.967 340.459 224.751 347.642 219.551 352.842C214.351 358.051 207.159 361.267 199.216 361.267H88.4692C87.4962 361.267 86.5412 361.221 85.5962 361.128C84.9192 361.054 84.2432 360.97 83.5752 360.85C90.2672 353.287 94.3262 343.37 94.3262 332.517C94.3262 321.664 90.2672 311.747 83.5752 304.184C84.2422 304.063 84.9192 303.98 85.5962 303.906C86.5412 303.813 87.4962 303.767 88.4692 303.767H199.216C215.102 303.766 227.967 316.64 227.967 332.516Z" fill="#AEABDA"/>
<g id="Group_14">
<path id="Vector_50" d="M85.596 303.905C77.421 294.192 65.178 288 51.507 288C26.964 288 7 307.973 7 332.516C7 357.059 26.964 377.032 51.507 377.032C65.178 377.032 77.421 370.841 85.596 361.128C92.093 353.38 96.023 343.398 96.023 332.517C96.023 321.635 92.093 311.653 85.596 303.905ZM83.575 360.85C75.734 369.72 64.26 375.327 51.507 375.327C27.9 375.327 8.69702 356.123 8.69702 332.517C8.69702 308.911 27.901 289.707 51.507 289.707C64.26 289.707 75.734 295.314 83.575 304.184C90.267 311.747 94.326 321.664 94.326 332.517C94.326 343.37 90.267 353.286 83.575 360.85Z" fill="#AEABDA"/>
</g>
</g>
<text id="Tato" fill="#434556" xml:space="preserve" style="white-space: pre" font-family="Open Sans" font-size="20" font-weight="600" letter-spacing="0em"><tspan x="118" y="340.759">Tato</tspan></text>
<g id="Group_15">
<path id="Vector_51" d="M32.357 344.448C32.357 344.448 30.9275 325.323 31.7014 322.891C32.4753 320.459 33.5834 318.951 35.1732 319.052C36.763 319.152 37.6903 320.191 38.0597 320.59C38.4291 320.988 39.1832 323.217 39.1832 323.217C39.1832 323.217 39.6126 316.684 39.6392 316.07C39.6658 315.457 39.0821 307.32 41.9454 305.896C44.8079 304.473 45.7678 305.858 45.7678 305.858L47.0645 307.296C47.0645 307.296 47.6155 303.346 49.9569 302.585C52.2992 301.825 53.1331 302.758 53.7818 303.477C54.4306 304.196 54.9131 307.634 54.9131 307.634C54.9131 307.634 55.5644 304.778 58.1192 304.519C60.6732 304.26 61.5902 306.086 61.5902 306.086L62.2998 308.368C62.2998 308.368 64.3695 306.763 65.8428 308.009C67.5045 309.414 67.957 312.3 68.0633 312.55C68.1696 312.801 68.8081 335.377 68.5184 338.545C68.2279 341.714 66.854 352.233 64.0601 355.306C61.2662 358.38 57.8553 359.708 52.4911 360.164C47.1279 360.62 41.247 359.675 39.3889 358.469C37.5309 357.262 35.0147 355.083 33.4155 350.362C32.5164 347.716 32.357 344.448 32.357 344.448Z" fill="#EAA0BE"/>
<path id="Vector_52" d="M42.4103 338.227C42.4103 338.227 47.8148 339.327 50.6361 342.233C53.4574 345.139 53.9331 351.371 53.6691 351.706C53.4051 352.042 52.7769 347.64 51.8556 345.465C51.0852 343.647 49.0506 341.677 47.7702 340.978C45.703 339.85 41.8738 338.796 42.4103 338.227Z" fill="#2F2F2E"/>
<path id="Vector_53" d="M39.7237 324.522C40.0648 327.277 40.9081 334.601 40.9081 334.601C40.765 334.878 40.3673 335.177 40.3116 334.574C40.2551 333.971 39.3732 325.192 39.2009 324.254C39.0278 323.312 37.9 319.038 34.705 319.36C31.5057 319.686 31.5708 325.433 31.6051 326.738C31.6394 328.043 32.0156 340.733 32.3576 344.45C32.6987 348.162 34.2636 352.241 36.0539 354.851C36.815 355.957 37.5692 357.18 39.1427 358.085L40.6107 359.161C40.07 358.943 39.5215 358.685 38.9635 358.386C34.5841 356.043 32.2804 348.814 31.8477 344.15C31.42 339.486 30.8184 327.426 31.0523 324.439C31.2854 321.448 32.3276 318.901 35.1206 318.797C37.912 318.688 39.3861 321.761 39.7237 324.522Z" fill="#2F2F2E"/>
<path id="Vector_54" d="M68.9508 337.429C68.7862 345.813 66.4174 352.331 64.8482 354.67C64.2731 355.531 62.9499 356.558 61.5752 357.478L63.4795 355.699C64.0289 355.151 64.4034 354.42 64.7625 353.75C66.9368 349.694 67.7544 344.554 68.104 341.903C68.4545 339.251 68.5968 333.133 68.5925 330.346C68.5925 327.553 68.0389 312.525 67.6678 311.256C67.2958 309.987 66.7122 308.36 64.9742 307.925C63.2361 307.49 62.5231 308.378 62.4579 309.516C62.3928 310.658 62.2505 323.719 62.2463 324.594C62.242 325.464 62.0774 326.438 61.81 326.294C61.5375 326.149 61.8229 310.771 61.948 309.366C62.0731 307.956 63.4092 306.773 65.3333 307.367C67.253 307.957 67.8623 309.026 68.368 312.638C68.8693 316.25 69.111 329.04 68.9508 337.429Z" fill="#2F2F2E"/>
<path id="Vector_55" d="M39.1826 323.217C39.1826 323.217 39.0531 311.19 39.9256 308.301C40.798 305.413 43.4934 304.681 45.2409 305.187C46.9883 305.693 47.32 307.228 47.5188 309.212C47.7168 311.197 47.9439 326.88 47.6791 326.909C47.4143 326.938 47.3586 326.71 47.3157 326.279C47.2729 325.847 47.1752 310.221 47.0629 309.099C46.9506 307.977 46.1065 305.428 43.8011 305.593C41.4957 305.759 40.5632 307.533 40.3387 308.867C40.2393 309.461 39.8125 312.747 39.6865 316.298C39.5288 320.724 39.6796 325.519 39.6796 325.519L39.1826 323.217Z" fill="#2F2F2E"/>
<path id="Vector_56" d="M47.064 307.297C47.064 307.297 46.8952 304.523 48.9135 302.924C50.9318 301.325 53.3374 302.04 54.1431 303.266C54.9495 304.492 55.0686 305.788 55.1672 308.742C55.2658 311.697 55.2383 326.435 54.9881 326.547C54.7387 326.659 54.6333 324.578 54.5459 323.627C54.4584 322.677 54.8158 308.661 54.5544 306.77C54.2939 304.878 53.9425 302.53 51.4434 302.493C49.2623 302.46 48.1919 304.456 47.8653 305.181C47.508 305.972 47.4111 310.139 47.4111 310.139L47.064 307.297Z" fill="#2F2F2E"/>
<path id="Vector_57" d="M61.9476 309.364C61.9476 309.364 61.7676 305.924 60.2181 305.035C58.6686 304.145 57.0677 304.628 56.1695 306.026C55.2713 307.425 55.1874 309.7 55.1874 309.7L54.9482 307.109C54.9482 307.109 56.1335 304.257 58.2495 304.13C60.3655 304.003 60.9526 304.582 61.4685 305.402C61.9844 306.222 62.5141 308.29 62.5141 308.29L61.9476 309.364Z" fill="#2F2F2E"/>
</g>
<g id="Group_16">
<path id="Vector_58" d="M363.366 622.154C363.366 622.154 358.266 621.417 353.852 621.102C349.439 620.786 345.809 622.575 345.809 622.575C345.809 622.575 342.768 620.892 337.669 621.102C332.569 621.312 327.566 622.785 327.566 622.785C327.566 622.785 332.569 629.416 342.573 630.257C352.577 631.099 360.914 626.785 363.366 622.154Z" fill="#EAA0BE"/>
<path id="Vector_59" d="M377.095 614.089C377.095 614.089 376.31 614.435 375.266 615.627C374.221 616.819 371.67 621.524 370.886 623.415C370.102 625.311 368.141 630.082 366.179 632.746C364.218 635.412 361.011 639.133 357.61 640.676C354.209 642.221 348.718 643.062 342.505 642.221C336.297 641.375 333.224 640.534 330.474 638.781C327.728 637.028 324.461 633.379 322.237 629.377C320.014 625.382 317.269 619.139 316.09 616.892C314.912 614.65 313.801 613.523 313.801 613.523L315.762 613.457C315.762 613.457 316.131 613.648 316.715 614.056C316.397 614.039 316.08 613.978 315.741 613.803L314.922 613.611C314.922 613.611 316.878 616.623 318.102 619.123C319.327 621.623 323.906 634.165 331.696 638.325C339.492 642.485 350.417 642.265 356.107 640.359C361.793 638.457 367.519 629.824 369.962 623.982C372.221 618.591 375.125 614.71 375.837 614.233C375.632 614.261 375.238 614.294 374.782 614.327C374.803 614.31 374.807 614.299 374.807 614.299L375.899 614.2L375.986 614.189L377.095 614.089Z" fill="#2F2F2E"/>
<path id="Vector_60" d="M377.095 614.088L375.579 614.077C374.119 613.654 368.956 612.115 366.37 610.373C363.338 608.328 359.378 605.246 356.095 604.47C352.812 603.695 349.733 604.179 347.834 604.844C345.939 605.514 344.955 606.377 344.955 606.377C344.955 606.377 342.005 603.91 336.658 604.437C331.306 604.965 328.831 608.807 325.41 610.664C322.608 612.186 317.671 613.252 315.724 613.538L313.804 613.521C313.804 613.521 316.242 612.658 317.661 612.329C319.085 611.999 322.864 610.735 324.53 609.807C326.358 608.779 330.477 605.685 332.049 604.806C333.616 603.932 336.233 603.053 339.374 603.343C342.508 603.634 344.865 605.465 344.865 605.465C344.865 605.465 345.388 604.953 346.432 604.443C347.482 603.931 348.593 603.492 350.75 603.124C352.906 602.761 355.718 603.195 358.464 604.443C361.21 605.684 365.394 608.691 368.012 610.224C370.626 611.763 377.095 614.088 377.095 614.088Z" fill="#2F2F2E"/>
<path id="Vector_61" d="M369.201 614.683C369.201 614.683 365.768 617.209 363.414 618.261C361.06 619.313 351.448 620.366 342.818 620.155C334.187 619.945 330.655 619.208 327.713 618.577C324.77 617.946 321.338 614.894 321.338 614.894C321.338 614.894 334.089 611.842 347.427 611.737C360.767 611.631 369.201 614.683 369.201 614.683Z" fill="white"/>
<path id="Vector_62" d="M375.974 614.179C375.974 614.179 369.404 612.416 366.371 610.371C363.338 608.326 359.378 605.247 356.095 604.471C352.811 603.695 349.732 604.177 347.836 604.846C345.94 605.516 344.956 606.377 344.956 606.377C344.956 606.377 342.006 603.909 336.657 604.437C331.307 604.965 328.83 608.804 325.411 610.661C321.992 612.518 315.381 613.703 314.926 613.607C314.47 613.511 316.122 614.53 318.401 615.011C327.062 616.838 333.572 615.465 337.478 615.052C339.925 614.792 341.595 616.759 346.67 616.131C349.392 615.795 351.638 614.559 353.09 614.424C354.112 614.33 361.321 615.831 368.175 615.681C371.05 615.618 373.459 614.759 375.974 614.179Z" fill="#EAA0BE"/>
<path id="Vector_63" d="M372.163 614.466C372.163 614.466 369.73 614.271 367.584 616.208C365.437 618.145 359.374 625.984 354.042 627.563C348.71 629.144 341.709 628.757 335.309 626.358C328.909 623.96 324.852 617.565 321.633 615.314C318.415 613.062 317.302 614.613 315.744 613.802L314.924 613.608C314.924 613.608 316.884 616.621 318.108 619.124C319.332 621.625 323.909 634.165 331.702 638.325C339.495 642.485 350.419 642.264 356.108 640.361C361.798 638.459 367.525 629.822 369.967 623.984C372.41 618.147 375.609 614.083 375.974 614.181C376.338 614.278 372.163 614.466 372.163 614.466Z" fill="#EAA0BE"/>
<path id="Vector_64" d="M375.84 614.231C375.866 614.214 375.886 614.203 375.901 614.198C375.932 614.181 375.958 614.176 375.974 614.181C375.984 614.181 375.984 614.186 375.989 614.186C376.014 614.204 375.958 614.214 375.84 614.231Z" fill="#EAA0BE"/>
<path id="Vector_65" d="M314.57 613.524C314.57 613.524 318.935 615.313 322.466 615.524C325.996 615.734 329.527 615.682 331.783 615.471C334.039 615.261 336.932 614.628 338.502 614.786C340.071 614.944 342.425 615.681 345.171 615.839C347.918 615.997 350.762 614.313 353.067 614.207C355.372 614.102 363.169 615.576 367.485 615.576C371.8 615.576 375.969 613.892 375.969 613.892L377.096 614.085C377.096 614.085 375.969 614.628 373.075 615.313C370.182 615.997 366.504 616.102 364.591 616.049C362.679 615.996 354.931 614.523 353.263 614.786C351.596 615.05 348.801 616.418 345.416 616.523C342.032 616.628 340.365 615.576 337.815 615.418C335.265 615.26 331.931 616.102 329.135 616.26C326.34 616.418 321.975 616.26 319.523 615.681C317.071 615.102 314.619 614.102 314.619 614.102L314.57 613.524Z" fill="#2F2F2E"/>
<path id="Vector_66" d="M368.368 615.839C368.368 615.839 364.445 620.365 362.14 622.575C359.835 624.784 357.923 627.1 353.117 628.205C348.311 629.31 342.671 628.994 338.993 627.941C335.315 626.889 331.833 625.258 329.381 623.311C326.929 621.364 322.368 615.891 322.368 615.891L322.957 615.838C322.957 615.838 327.616 621.416 330.313 623.258C333.01 625.1 336.934 627.362 341.984 627.994C347.035 628.625 352.483 627.899 355.814 626.625C360.08 624.994 367.535 615.838 367.535 615.838L368.368 615.839Z" fill="#2F2F2E"/>
<path id="Vector_67" d="M365.572 616.788C365.572 616.788 362.679 618.682 357.138 619.313C351.597 619.945 340.317 620.05 336.492 619.63C332.667 619.208 327.272 618.419 324.82 617.157C324.82 617.157 326.291 618.314 329.234 619.156C332.176 619.999 344.632 620.577 348.261 620.472C351.891 620.367 357.53 620.367 360.914 619.314C364.298 618.26 365.572 616.788 365.572 616.788Z" fill="#2F2F2E"/>
</g>
</g>
<defs>
<filter id="filter0_d_2096_1456" x="0" y="38" width="579" height="248" filterUnits="userSpaceOnUse" color-interpolation-filters="sRGB">
<feFlood flood-opacity="0" result="BackgroundImageFix"/>
<feColorMatrix in="SourceAlpha" type="matrix" values="0 0 0 0 0 0 0 0 0 0 0 0 0 0 0 0 0 0 127 0" result="hardAlpha"/>
<feOffset dx="4" dy="4"/>
<feGaussianBlur stdDeviation="4"/>
<feComposite in2="hardAlpha" operator="out"/>
<feColorMatrix type="matrix" values="0 0 0 0 0 0 0 0 0 0 0 0 0 0 0 0 0 0 0.25 0"/>
<feBlend mode="normal" in2="BackgroundImageFix" result="effect1_dropShadow_2096_1456"/>
<feBlend mode="normal" in="SourceGraphic" in2="effect1_dropShadow_2096_1456" result="shape"/>
</filter>
<filter id="filter1_d_2096_1456" x="579" y="38" width="579" height="248" filterUnits="userSpaceOnUse" color-interpolation-filters="sRGB">
<feFlood flood-opacity="0" result="BackgroundImageFix"/>
<feColorMatrix in="SourceAlpha" type="matrix" values="0 0 0 0 0 0 0 0 0 0 0 0 0 0 0 0 0 0 127 0" result="hardAlpha"/>
<feOffset dx="4" dy="4"/>
<feGaussianBlur stdDeviation="4"/>
<feComposite in2="hardAlpha" operator="out"/>
<feColorMatrix type="matrix" values="0 0 0 0 0 0 0 0 0 0 0 0 0 0 0 0 0 0 0.25 0"/>
<feBlend mode="normal" in2="BackgroundImageFix" result="effect1_dropShadow_2096_1456"/>
<feBlend mode="normal" in="SourceGraphic" in2="effect1_dropShadow_2096_1456" result="shape"/>
</filter>
<filter id="filter2_d_2096_1456" x="3" y="326" width="579" height="248" filterUnits="userSpaceOnUse" color-interpolation-filters="sRGB">
<feFlood flood-opacity="0" result="BackgroundImageFix"/>
<feColorMatrix in="SourceAlpha" type="matrix" values="0 0 0 0 0 0 0 0 0 0 0 0 0 0 0 0 0 0 127 0" result="hardAlpha"/>
<feOffset dx="4" dy="4"/>
<feGaussianBlur stdDeviation="4"/>
<feComposite in2="hardAlpha" operator="out"/>
<feColorMatrix type="matrix" values="0 0 0 0 0 0 0 0 0 0 0 0 0 0 0 0 0 0 0.25 0"/>
<feBlend mode="normal" in2="BackgroundImageFix" result="effect1_dropShadow_2096_1456"/>
<feBlend mode="normal" in="SourceGraphic" in2="effect1_dropShadow_2096_1456" result="shape"/>
</filter>
<filter id="filter3_d_2096_1456" x="582" y="326" width="579" height="248" filterUnits="userSpaceOnUse" color-interpolation-filters="sRGB">
<feFlood flood-opacity="0" result="BackgroundImageFix"/>
<feColorMatrix in="SourceAlpha" type="matrix" values="0 0 0 0 0 0 0 0 0 0 0 0 0 0 0 0 0 0 127 0" result="hardAlpha"/>
<feOffset dx="4" dy="4"/>
<feGaussianBlur stdDeviation="4"/>
<feComposite in2="hardAlpha" operator="out"/>
<feColorMatrix type="matrix" values="0 0 0 0 0 0 0 0 0 0 0 0 0 0 0 0 0 0 0.25 0"/>
<feBlend mode="normal" in2="BackgroundImageFix" result="effect1_dropShadow_2096_1456"/>
<feBlend mode="normal" in="SourceGraphic" in2="effect1_dropShadow_2096_1456" result="shape"/>
</filter>
<filter id="filter4_d_2096_1456" x="297" y="614" width="579" height="248" filterUnits="userSpaceOnUse" color-interpolation-filters="sRGB">
<feFlood flood-opacity="0" result="BackgroundImageFix"/>
<feColorMatrix in="SourceAlpha" type="matrix" values="0 0 0 0 0 0 0 0 0 0 0 0 0 0 0 0 0 0 127 0" result="hardAlpha"/>
<feOffset dx="4" dy="4"/>
<feGaussianBlur stdDeviation="4"/>
<feComposite in2="hardAlpha" operator="out"/>
<feColorMatrix type="matrix" values="0 0 0 0 0 0 0 0 0 0 0 0 0 0 0 0 0 0 0.25 0"/>
<feBlend mode="normal" in2="BackgroundImageFix" result="effect1_dropShadow_2096_1456"/>
<feBlend mode="normal" in="SourceGraphic" in2="effect1_dropShadow_2096_1456" result="shape"/>
</filter>
</defs>
</svg>
