<svg width="168" height="192" viewBox="0 0 168 192" fill="none" xmlns="http://www.w3.org/2000/svg">
<g filter="url(#filter0_d_2096_6669)">
<path d="M112.814 128.861C115.748 132.056 118.601 135.402 120.539 139.278C122.477 143.153 123.446 147.657 122.45 151.883C120.674 159.401 113.29 164.21 106.023 166.811C89.0847 172.849 70.5669 172.033 52.8932 168.74C39.5701 166.255 28.7415 162.909 23.8967 150.895C22.2818 146.885 22.623 141.843 25.6731 138.783C29.4499 134.997 35.6049 135.446 40.9072 136.146C51.8435 137.599 70.8995 140.444 81.9166 139.833C92.9336 139.223 104.05 136.469 112.814 128.861Z" fill="white"/>
<path d="M52.6496 91.4141C49.4736 92.7781 47.0243 95.4965 45.1219 98.4207C43.2196 101.354 41.7758 104.566 39.9273 107.536C39.0842 108.9 38.1239 110.246 36.8051 111.143C34.7326 112.551 32.0142 112.669 29.6004 112.04C27.1867 111.412 25.0066 110.102 22.8629 108.81C22.2439 105.616 20.9337 102.342 18.9333 99.5963C18.395 98.861 17.5693 98.0804 16.7176 98.3669C16.2331 98.5284 15.9015 99.0215 15.7842 99.5329C15.6679 100.044 15.7304 100.574 15.8025 101.094C16.0361 102.817 16.3946 104.53 16.8253 106.297C14.3846 105.212 11.8642 104.306 9.29761 103.579C8.49015 103.355 7.58368 103.148 6.85697 103.57C5.89667 104.117 5.73518 105.544 6.24657 106.54C6.75796 107.535 7.73556 108.173 8.70451 108.693C9.67346 109.213 10.7049 109.68 11.4681 110.496C9.5658 110.308 7.62791 110.568 5.84284 111.258C5.25936 111.482 4.61338 111.869 4.55955 112.496C4.50572 113.151 5.12477 113.645 5.69864 113.95C7.278 114.784 9.04481 115.242 10.8212 115.277C9.43027 116.292 7.1069 115.789 6.20043 117.269C5.43815 118.534 6.54168 120.275 7.94128 120.679C9.34087 121.082 10.8299 120.589 12.2026 120.095C11.3326 120.454 10.4444 120.822 9.78882 121.513C9.1342 122.204 8.80161 123.29 9.25052 124.124C9.834 125.219 11.323 125.326 12.5428 125.209C15.0373 124.976 17.5039 124.429 19.7475 124.151C24.4125 129.211 30.504 132.898 37.0983 134.656C41.1173 135.724 45.6487 136.02 49.2102 133.831C54.0636 130.852 55.4901 124.446 56.2437 118.723C57.503 109.187 58.1134 99.1926 52.6496 91.4141Z" fill="white"/>
<path d="M17.1838 108.838C16.8252 111.134 17.1569 113.539 18.1172 115.656C16.906 115.037 16.0091 113.853 15.7486 112.525C15.4881 111.188 15.8649 109.753 17.1838 108.838Z" fill="white"/>
<path d="M50.9998 133.689C51.2959 135.51 51.6371 137.367 52.0139 139.26C61.8919 145.585 72.7022 149.227 84.4018 147.658C96.0917 146.078 109.549 140.804 116.637 133.725C113.963 126.602 111.819 119.497 109.137 112.552C107.235 107.582 105.037 102.701 102.175 97.9912C100.82 95.7659 99.3129 93.5684 97.6258 91.4152C83.3607 88.7775 65.6514 88.5622 51.1709 91.0653C50.5249 94.9325 50.0405 98.6016 49.7261 102.181C48.7389 112.901 49.1782 122.69 50.9998 133.689Z" fill="white"/>
<path d="M49.7256 102.18C50.9819 102.88 52.2912 103.481 53.6014 103.965C69.4545 110.066 88.2232 107.554 102.183 97.9815C100.828 95.7561 99.3209 93.5587 97.6339 91.4055C83.3688 88.7678 65.6595 88.5524 51.179 91.0556C50.5244 94.9314 50.0486 98.6005 49.7256 102.18Z" fill="white"/>
<path d="M50.9998 133.691C51.2959 135.513 51.6371 137.37 52.0139 139.262C61.8919 145.587 72.7022 149.23 84.4018 147.66C96.0917 146.081 109.549 140.806 116.637 133.727C113.963 126.604 111.819 119.499 109.137 112.555C102.793 134.103 73.8413 145.91 50.9998 133.691Z" fill="white"/>
<path d="M88.502 95.1821C86.3035 98.4841 84.0523 101.848 80.957 104.324C77.8617 106.809 73.7254 108.316 69.8765 107.33C66.8534 106.558 64.332 104.324 62.7622 101.624C61.1829 98.932 60.4744 95.8098 60.3129 93.0645C70.263 93.3874 80.2034 93.7104 88.502 95.1821Z" fill="white"/>
<path d="M130.318 19.9986C130.848 25.4442 132.507 29.1767 135.297 31.6616C136.365 34.6223 137.674 37.6724 140.133 39.6372C142.591 41.6107 146.557 42.0413 148.755 39.7804C149.984 43.8629 155.062 46.2853 159.01 44.679C162.966 43.0824 164.913 37.8069 162.958 34.0119C163.81 32.0826 164.115 30.1543 163.962 28.3779C163.693 25.2558 162.042 22.5911 159.539 21.2011C160.885 19.3796 160.446 16.6342 158.92 14.9568C157.395 13.2698 155.036 12.5527 152.775 12.5344C150.505 12.5258 148.289 13.1179 146.1 13.7187C144.18 10.9378 139.883 10.7763 136.94 12.4537C135.989 12.992 135.155 13.6735 134.383 14.4454C132.794 16.0517 131.52 18.052 130.318 19.9986Z" fill="white"/>
<path d="M134.391 14.4454C138.85 12.893 144.896 14.6963 145.596 19.5497C147.193 17.6301 150.199 17.0283 152.423 18.1953C154.639 19.3613 155.85 22.1605 155.177 24.5829C158.488 24.2955 161.816 25.8565 163.969 28.3779C163.7 25.2558 162.049 22.5911 159.546 21.2011C160.892 19.3796 160.452 16.6342 158.927 14.9568C157.401 13.2698 155.042 12.5527 152.782 12.5344C150.512 12.5258 148.295 13.1179 146.107 13.7187C144.187 10.9378 139.889 10.7763 136.947 12.4537C135.997 12.992 135.154 13.6735 134.391 14.4454Z" fill="white"/>
<path d="M131.752 38.2143C127.575 38.2143 124.189 34.8282 124.189 30.6511C124.189 26.4741 127.575 23.0879 131.752 23.0879C135.929 23.0879 139.315 26.4741 139.315 30.6511C139.315 34.8282 135.929 38.2143 131.752 38.2143Z" fill="white"/>
<path d="M116.848 22.9398C115.888 18.8747 118.405 14.8011 122.47 13.8412C126.535 12.8813 130.609 15.3986 131.569 19.4637C132.529 23.5288 130.011 27.6024 125.946 28.5622C121.881 29.5221 117.807 27.0049 116.848 22.9398Z" fill="white"/>
<path d="M105.825 141.6L104.794 135.554C104.794 135.554 110.876 134.774 118.269 137.51C118.269 137.51 119.983 154.134 116.053 157.31C112.122 160.485 105.825 141.6 105.825 141.6Z" fill="white"/>
<path d="M41.0864 56.8389C34.8017 54.0955 28.0517 55.6642 26.01 60.3417C23.9683 65.0192 27.4086 71.0348 33.6934 73.7773C39.9781 76.5207 46.7281 74.952 48.7698 70.2744C50.8115 65.5969 47.3712 59.5814 41.0864 56.8389Z" fill="white"/>
<path d="M111.827 88.8012C94.6015 103.371 63.9815 99.6481 45.904 91.7619C41.6514 89.9048 37.5785 87.1508 35.2013 83.1577C32.8241 79.1656 32.7434 73.4951 36.0982 70.2921C30.3114 51.1198 38.1082 29.4356 54.1487 18.6512C70.1903 7.8668 92.7175 9.47307 108.293 20.9304C140.51 44.6159 121.876 80.296 111.827 88.8012Z" fill="white"/>
<path d="M115.074 72.8688C114.652 63.4667 113.37 54.1002 111.126 45.0297C106.443 44.3924 103.59 41.9613 101.473 38.0586C99.3202 38.6421 96.8257 37.1521 95.4895 35.7977C91.3801 38.3816 87.1813 37.0272 84.5715 35.2777C81.4407 35.6728 78.1839 34.9009 75.5549 33.1514C72.9354 31.4019 70.9706 28.6834 70.6476 25.8756C67.2832 26.6561 63.5775 25.7227 61.3984 23.6503C57.7648 27.75 52.0318 29.8677 47.0525 29.3198C41.7319 37.43 37.6417 46.3389 34.9319 55.6516C35.6942 49.165 36.5469 42.6515 38.5655 36.4437C40.5842 30.2359 43.8592 24.2962 49.0894 20.1243C57.7475 16.7148 66.9064 14.5711 76.4075 13.7637C89.1923 17.7116 101.591 22.8793 114.33 29.4822C117.004 35.9506 118.96 42.7246 120.144 49.6235C120.529 51.8844 120.835 54.1809 120.745 56.4687C120.52 62.0661 117.954 67.2704 115.074 72.8688Z" fill="white"/>
<path d="M34.4834 65.0275C34.4651 52.234 40.0904 35.5196 46.5857 26.5751C49.2147 27.0144 51.664 26.8894 54.5795 25.3101C58.0603 23.4442 59.11 22.5195 60.4288 19.8558C63.4616 22.7271 68.638 23.3183 72.3071 21.0584C71.8227 23.7586 73.0521 27.0874 75.2227 29.357C77.3845 31.6265 80.3635 32.9819 83.4049 33.8066C81.2603 31.8236 80.1751 28.7917 80.5432 25.9118C81.2882 28.6033 82.9656 31.3487 85.388 33.0799C87.819 34.8025 90.9595 35.5023 93.8836 34.964C92.1697 34.2373 90.4202 33.4654 89.1014 32.1379C87.7912 30.8277 86.9933 28.8186 87.6297 27.0595C90.2674 30.8546 95.2919 33.2587 100.1 32.7118C101.993 36.9288 106.937 40.4095 112.042 40.3471C114.572 46.6452 115.469 53.4183 115.442 60.0933C115.424 66.777 114.508 73.4251 113.585 80.0376C116.922 79.1763 120.761 78.9792 124.539 79.3561C127.814 74.4844 129.68 68.6803 129.842 62.8214C131.08 61.4573 132.417 59.9501 133.502 58.2813C134.516 56.7202 135.314 55.0063 135.575 53.1222C136.041 49.8116 134.659 46.2857 132.049 44.1959C133.763 40.0423 134.086 35.4033 132.39 31.5823C130.703 27.7786 127.061 24.8986 122.952 24.1363C122.719 21.9293 122.145 19.7491 121.275 17.7218C120.117 15.039 118.413 12.6348 116.215 10.7959C112.348 7.57474 107.028 6.19343 102.084 7.0999C98.7822 3.152 93.8212 0.478711 88.6265 0.0663295C86.1685 -0.130729 83.6558 0.192266 81.3055 0.954547C78.7034 1.78027 76.2906 3.17025 74.2893 5.01011C71.1854 1.75335 64.9766 0.900719 60.9844 2.47142C54.7045 4.92937 52.1562 8.49181 52.3629 12.7348C49.0436 10.5547 44.7997 12.2503 42.5215 14.7534C41.4449 15.9291 40.5211 17.346 40.0635 19.0599C39.5521 20.9796 39.606 23.2673 40.6826 25.9858C36.5924 33.8691 30.8325 54.4776 34.4834 65.0275Z" fill="white"/>
<path d="M40.0903 19.0665C41.0775 18.2052 42.1628 17.4699 43.3384 16.8777C46.9633 15.0561 51.3409 14.7696 55.1725 16.0789C56.5808 11.0101 60.1874 8.06676 64.1892 7.61016C68.1813 7.16125 72.3532 9.252 74.4074 12.7058C78.7494 8.50702 83.7912 6.81138 88.5822 7.43908C93.3731 8.05813 97.8141 10.9832 100.29 15.1282C104.372 12.6251 109.576 12.2752 114.25 13.7469C116.834 14.563 119.247 15.9357 121.292 17.7121C120.135 15.0292 118.43 12.6251 116.232 10.7862C112.366 7.565 107.045 6.18367 102.101 7.09014C98.7994 3.14223 93.8383 0.468945 88.6437 0.0565639C86.1857 -0.140495 83.673 0.1825 81.3227 0.944781C78.7206 1.77051 76.3078 3.16048 74.3065 5.00034C71.2025 1.74358 64.9937 0.890953 61.0016 2.46166C54.7217 4.9196 52.1734 8.48204 52.3801 12.7251C49.0608 10.5449 44.8169 12.2406 42.5387 14.7437C41.4726 15.9347 40.5575 17.3526 40.0903 19.0665Z" fill="white"/>
<path d="M132.442 77.4244C130.938 72.547 124.407 70.2313 117.854 72.2518C111.301 74.2724 107.207 79.8631 108.711 84.7406C110.214 89.618 116.745 91.9337 123.299 89.9131C129.852 87.8926 133.946 82.3019 132.442 77.4244Z" fill="white"/>
<path d="M101.062 49.9187C100.111 46.958 97.3741 43.0908 94.5567 41.7902C91.7392 40.4896 87.7384 40.2022 85.6477 43.7012C90.6636 43.0553 95.3286 44.7423 101.062 49.9187Z" fill="white"/>
<path d="M39.8471 44.1755C41.9282 40.8024 43.7585 39.5547 46.3875 38.9087C49.0069 38.2627 52.578 39.4826 53.8613 42.426C49.3213 40.9995 44.1266 41.7887 39.8471 44.1755Z" fill="white"/>
<path d="M89.1911 58.1167C87.5253 57.8975 85.9517 59.4211 85.6768 61.5186C85.4009 63.6161 86.5275 65.4943 88.1934 65.7135C89.8592 65.9327 91.4328 64.4091 91.7077 62.3116C91.9826 60.2141 90.856 58.3358 89.1911 58.1167Z" fill="white"/>
<path d="M46.8629 54.2148C45.1836 54.2148 43.8214 55.9297 43.8214 58.0455C43.8214 60.1612 45.1836 61.8761 46.8629 61.8761C48.5422 61.8761 49.9043 60.1612 49.9043 58.0455C49.9043 55.9297 48.5422 54.2148 46.8629 54.2148Z" fill="white"/>
<path d="M62.4834 58.5215C61.326 60.5219 61.0213 63.0077 61.6577 65.2321Z" fill="white"/>
<path d="M62.4834 58.5215C61.326 60.5219 61.0213 63.0077 61.6577 65.2321" stroke="#7D1D2D" stroke-width="0.9333" stroke-miterlimit="10" stroke-linecap="round"/>
<path d="M51.1708 75.5769C51.1439 77.6311 51.9783 79.6412 53.1895 81.3186C53.1895 81.3272 53.1981 81.3272 53.1981 81.3368C55.881 85.0511 60.4653 87.312 65.0313 87.1678C69.6069 87.0333 74.0479 84.4946 76.4876 80.637C77.0259 79.7757 77.4835 78.8337 77.7613 77.8647C78.0487 76.9313 78.1736 75.9451 78.1025 74.9665C77.941 72.9662 76.775 71.0013 74.9352 70.2112C72.5128 69.1797 69.7857 70.3457 67.2287 70.9917C63.0299 72.0501 58.8667 69.4575 54.5516 69.7988C51.7091 70.0141 51.1891 73.5044 51.1708 75.5769Z" fill="white"/>
<path d="M53.1899 81.3181C53.1899 81.3267 53.1986 81.3267 53.1986 81.3363C55.8815 85.0506 60.4657 87.3115 65.0317 87.1673C69.6073 87.0328 74.0484 84.4941 76.488 80.6365C77.0263 79.7752 77.4839 78.8332 77.7617 77.8642C73.7331 76.2849 69.418 75.4419 65.1298 75.8369C60.681 76.2493 56.2669 78.1151 53.1899 81.3181Z" fill="white"/>
<path d="M27.4402 182.754C28.3197 183.382 29.4857 183.338 30.5623 183.274C37.1479 182.835 43.7143 182.054 50.1471 180.574C52.2465 180.09 54.5699 179.345 55.5119 177.425C55.9156 176.582 55.9964 175.603 55.8166 174.68C55.7176 174.15 55.5475 173.63 55.3235 173.137C54.6958 171.8 53.6903 170.688 52.704 169.584C47.7603 170.176 42.979 169.727 38.3313 170.526C35.1197 171.064 31.8629 172.356 29.4944 174.51C28.4264 175.478 27.5382 176.609 26.9192 177.936C26.1838 179.524 26.0223 181.723 27.4402 182.754Z" fill="white"/>
<path d="M29.4942 174.51C38.1253 176.483 47.1775 176.546 55.8164 174.68C55.7174 174.15 55.5473 173.63 55.3233 173.137C54.6956 171.8 53.6901 170.688 52.7038 169.584C47.7601 170.176 42.9787 169.727 38.331 170.526C35.1195 171.064 31.8627 172.348 29.4942 174.51Z" fill="white"/>
<path d="M47.1597 145.327C45.1593 141.971 42.4581 138.751 38.5468 137.153C34.6354 135.556 29.6378 135.745 26.3637 138.221C22.5235 141.119 21.941 146.134 22.3716 150.565C23.1522 158.684 24.2739 166.616 29.5763 173.299C39.6964 173.299 49.0178 172.985 54.9209 170.922C53.7184 166.087 52.4707 154.236 47.1597 145.327Z" fill="white"/>
<path d="M66.9056 175.983C69.9471 179.294 74.6034 181.223 79.0358 180.442C81.0448 180.092 82.9568 179.123 84.49 177.768C86.3385 176.162 87.666 174 88.0342 171.694C85.881 166.921 83.423 162.283 79.9509 158.488C78.8291 159.233 77.5737 159.718 76.2904 160.085C74.8822 160.489 73.4019 160.766 71.9753 161.116C69.2386 161.789 66.3587 162.901 64.8697 165.307C62.8145 168.608 64.2775 173.112 66.9056 175.983Z" fill="white"/>
<path d="M76.2818 160.095C77.5382 166.536 80.3999 172.655 84.491 177.778C86.3395 176.172 87.667 174.01 88.0352 171.704C85.8819 166.931 83.424 162.293 79.9519 158.498C78.8292 159.243 77.5737 159.718 76.2818 160.095Z" fill="white"/>
<path d="M117.632 147.452C118.439 142.733 115.066 137.951 110.696 136.327C106.327 134.704 101.348 135.797 97.3291 138.193C89.8467 142.661 83.8541 150.421 77.5108 158.227C80.7944 164.713 83.8272 169.603 88.5105 175.084C94.4492 171.917 101.331 169.396 106.606 165.028C111.872 160.667 116.295 155.266 117.632 147.452Z" fill="white"/>
<path d="M141.846 138.855C141.846 138.855 135.664 115.708 109.073 98.5455C106.104 96.6259 102.362 95.3512 98.9797 96.3923C95.3375 97.5045 92.3854 101.605 91.9903 105.391C90.3302 121.414 96.9514 122.563 111.881 130.062C118.492 133.382 125.383 137.616 128.039 145.593C127.384 146.284 126.711 146.984 126.28 147.835C125.841 148.688 125.661 149.711 126.02 150.599C126.379 151.487 127.374 152.133 128.299 151.899C129.421 151.622 129.986 150.284 131.305 150.132C132.31 152.177 133.396 154.178 134.562 156.134C134.84 156.6 135.145 157.084 135.593 157.39C136.042 157.695 136.697 157.785 137.127 157.453C137.567 157.111 137.639 156.475 137.647 155.918C137.683 154.312 137.548 152.707 137.262 151.128C138.168 152.689 139.38 154.061 140.815 155.156C141.371 155.578 142.152 155.964 142.726 155.56C143.138 155.272 143.219 154.699 143.21 154.196C143.192 152.599 142.636 151.011 141.641 149.763C142.951 150.58 144.332 151.271 145.777 151.827C146.199 151.989 146.683 152.142 147.087 151.935C147.472 151.738 147.644 151.244 147.59 150.813C147.536 150.383 147.302 149.987 147.06 149.629C146.207 148.355 145.14 147.233 143.83 146.435C144.53 146.238 145.275 146.345 145.992 146.443C146.71 146.542 147.464 146.632 148.145 146.408C148.837 146.174 149.437 145.528 149.365 144.801C149.311 144.29 148.953 143.868 148.585 143.501C147.319 142.228 141.846 138.855 141.846 138.855Z" fill="white"/>
</g>
<path d="M111.392 126.092C114.18 129.127 116.891 132.306 118.732 135.989C120.574 139.672 121.494 143.951 120.548 147.966C118.86 155.109 111.845 159.679 104.939 162.151C88.8451 167.887 71.25 167.112 54.4569 163.984C41.7976 161.623 31.5086 158.443 26.9052 147.028C25.3707 143.217 25.695 138.427 28.5931 135.52C32.1817 131.922 38.03 132.348 43.0681 133.013C53.4595 134.394 71.566 137.097 82.0341 136.517C92.5022 135.937 103.064 133.32 111.392 126.092Z" fill="#AF87CE"/>
<path d="M54.2259 90.5117C51.2081 91.8078 48.8808 94.3908 47.0733 97.1692C45.2657 99.9568 43.8939 103.008 42.1375 105.831C41.3364 107.127 40.424 108.405 39.1708 109.258C37.2016 110.596 34.6186 110.707 32.3252 110.11C30.0317 109.513 27.9602 108.268 25.9234 107.041C25.3352 104.006 24.0903 100.895 22.1896 98.2863C21.6781 97.5876 20.8935 96.8459 20.0843 97.1181C19.6239 97.2715 19.3088 97.7401 19.1974 98.226C19.0869 98.7119 19.1462 99.2152 19.2147 99.7093C19.4367 101.346 19.7774 102.975 20.1866 104.653C17.8675 103.622 15.4727 102.761 13.034 102.07C12.2668 101.858 11.4055 101.661 10.7149 102.062C9.8025 102.582 9.64906 103.937 10.135 104.884C10.6209 105.83 11.5498 106.435 12.4704 106.929C13.3911 107.424 14.3711 107.867 15.0964 108.643C13.2888 108.464 11.4475 108.711 9.75135 109.367C9.19694 109.58 8.58315 109.947 8.532 110.544C8.48086 111.166 9.06906 111.635 9.61434 111.925C11.115 112.717 12.7938 113.152 14.4817 113.186C13.16 114.15 10.9524 113.672 10.0911 115.078C9.36682 116.28 10.4154 117.935 11.7452 118.318C13.0751 118.702 14.4899 118.233 15.7942 117.764C14.9676 118.104 14.1236 118.454 13.5007 119.111C12.8787 119.768 12.5627 120.799 12.9892 121.592C13.5436 122.632 14.9585 122.734 16.1175 122.623C18.4877 122.401 20.8314 121.881 22.9632 121.617C27.3957 126.425 33.1837 129.929 39.4494 131.599C43.2682 132.614 47.5738 132.896 50.9578 130.815C55.5694 127.984 56.9248 121.898 57.6409 116.46C58.8374 107.399 59.4174 97.9027 54.2259 90.5117Z" fill="#AF87CE"/>
<path d="M20.5282 107.066C20.1875 109.248 20.5026 111.534 21.415 113.545C20.2642 112.957 19.412 111.831 19.1645 110.57C18.917 109.3 19.275 107.936 20.5282 107.066Z" fill="#AF87CE"/>
<path d="M52.657 130.678C52.9383 132.409 53.2626 134.174 53.6206 135.972C63.0064 141.982 73.2781 145.443 84.3946 143.951C95.5021 142.451 108.289 137.439 115.023 130.713C112.483 123.945 110.446 117.193 107.897 110.595C106.09 105.872 104.002 101.235 101.282 96.7597C99.9949 94.6452 98.5628 92.5573 96.9598 90.5113C83.4055 88.005 66.5785 87.8005 52.8196 90.1789C52.2058 93.8533 51.7455 97.3397 51.4468 100.741C50.5088 110.927 50.9262 120.228 52.657 130.678Z" fill="#AF87CE"/>
<path d="M51.4458 100.739C52.6396 101.404 53.8836 101.975 55.1285 102.436C70.1917 108.233 88.0252 105.845 101.289 96.7499C100.002 94.6355 98.57 92.5475 96.967 90.5016C83.4127 87.9953 66.5857 87.7907 52.8268 90.1691C52.2048 93.8518 51.7527 97.3381 51.4458 100.739Z" fill="#AF87CE"/>
<path d="M52.657 130.679C52.9383 132.41 53.2626 134.174 53.6206 135.973C63.0064 141.983 73.2781 145.443 84.3946 143.952C95.5021 142.451 108.289 137.44 115.023 130.713C112.483 123.945 110.446 117.194 107.897 110.596C101.869 131.071 74.3604 142.289 52.657 130.679Z" fill="#AF87CE"/>
<path d="M88.29 94.0903C86.2012 97.2277 84.0621 100.424 81.121 102.776C78.18 105.137 74.2498 106.57 70.5927 105.632C67.7201 104.899 65.3244 102.776 63.8329 100.211C62.3322 97.6533 61.659 94.6867 61.5056 92.0781C70.9598 92.385 80.405 92.6919 88.29 94.0903Z" fill="#AF87CE"/>
<path d="M128.023 22.6547C128.526 27.8289 130.102 31.3755 132.754 33.7365C133.769 36.5497 135.013 39.4478 137.349 41.3147C139.684 43.1899 143.452 43.599 145.541 41.4508C146.709 45.3299 151.534 47.6316 155.285 46.1053C159.044 44.5882 160.894 39.5757 159.036 35.9697C159.846 34.1366 160.136 32.3044 159.99 30.6165C159.735 27.6499 158.166 25.118 155.788 23.7973C157.067 22.0665 156.649 19.4579 155.2 17.8641C153.75 16.2611 151.509 15.5797 149.361 15.5624C147.204 15.5542 145.098 16.1168 143.018 16.6876C141.194 14.0453 137.111 13.8918 134.315 15.4857C133.411 15.9971 132.619 16.6447 131.885 17.3782C130.375 18.9044 129.165 20.8051 128.023 22.6547Z" fill="#AF87CE"/>
<path d="M131.893 17.3782C136.13 15.9031 141.875 17.6166 142.54 22.2281C144.057 20.4041 146.913 19.8324 149.027 20.9412C151.132 22.0491 152.283 24.7088 151.643 27.0105C154.789 26.7374 157.952 28.2207 159.997 30.6165C159.741 27.6499 158.173 25.118 155.795 23.7973C157.073 22.0665 156.656 19.4579 155.206 17.8641C153.757 16.2611 151.516 15.5797 149.367 15.5624C147.211 15.5542 145.105 16.1168 143.025 16.6876C141.201 14.0453 137.117 13.8918 134.321 15.4857C133.419 15.9971 132.618 16.6447 131.893 17.3782Z" fill="#AF87CE"/>
<path d="M129.386 39.9606C125.417 39.9606 122.2 36.7432 122.2 32.7743C122.2 28.8053 125.417 25.5879 129.386 25.5879C133.355 25.5879 136.572 28.8053 136.572 32.7743C136.572 36.7432 133.355 39.9606 129.386 39.9606Z" fill="#AF87CE"/>
<path d="M115.224 25.4497C114.312 21.5872 116.704 17.7166 120.567 16.8045C124.429 15.8925 128.3 18.2843 129.212 22.1469C130.124 26.0094 127.732 29.88 123.87 30.792C120.007 31.7041 116.136 29.3123 115.224 25.4497Z" fill="#AF87CE"/>
<path d="M104.752 138.196L103.772 132.451C103.772 132.451 109.551 131.71 116.575 134.31C116.575 134.31 118.204 150.106 114.47 153.124C110.735 156.14 104.752 138.196 104.752 138.196Z" fill="#AF87CE"/>
<path d="M43.2369 57.6583C37.2653 55.0516 30.8517 56.5422 28.9117 60.9866C26.9717 65.431 30.2406 71.1469 36.2122 73.7527C42.1838 76.3595 48.5974 74.8689 50.5374 70.4244C52.4774 65.98 49.2085 60.2641 43.2369 57.6583Z" fill="#AF87CE"/>
<path d="M110.453 88.0279C94.0854 101.872 64.991 98.3343 47.8143 90.8411C43.7735 89.0764 39.9036 86.4597 37.6449 82.6655C35.3861 78.8723 35.3094 73.4844 38.497 70.441C32.9986 52.224 40.4069 31.6203 55.6482 21.3732C70.8904 11.1262 92.2952 12.6524 107.094 23.5388C137.707 46.0441 120.001 79.9464 110.453 88.0279Z" fill="#AF87CE"/>
<path d="M113.539 72.8886C113.138 63.955 111.92 55.0552 109.788 46.4366C105.338 45.8311 102.627 43.5212 100.616 39.8129C98.5701 40.3673 96.1999 38.9516 94.9304 37.6647C91.0257 40.1198 87.0361 38.8329 84.5564 37.1706C81.5815 37.546 78.487 36.8125 75.989 35.1502C73.5001 33.4879 71.6332 30.9049 71.3263 28.2369C68.1295 28.9786 64.6084 28.0917 62.5378 26.1225C59.0853 30.018 53.638 32.0301 48.9068 31.5095C43.8513 39.2156 39.9649 47.6806 37.3902 56.5293C38.1145 50.3659 38.9246 44.177 40.8427 38.2785C42.7608 32.3799 45.8726 26.7363 50.8422 22.7723C59.0689 19.5326 67.7714 17.4957 76.7991 16.7285C88.9469 20.4797 100.727 25.39 112.832 31.6639C115.372 37.8099 117.231 44.2464 118.356 50.8016C118.723 52.9498 119.013 55.1319 118.927 57.3057C118.713 62.6242 116.276 67.5692 113.539 72.8886Z" fill="#AF87CE"/>
<path d="M36.9624 65.4382C36.9451 53.2823 42.2901 37.4006 48.4617 28.9018C50.9597 29.3192 53.287 29.2005 56.0572 27.6998C59.3645 25.927 60.3619 25.0483 61.6151 22.5174C64.4967 25.2456 69.4152 25.8073 72.9015 23.66C72.4412 26.2256 73.6094 29.3886 75.6718 31.5451C77.7259 33.7015 80.5564 34.9894 83.4463 35.773C81.4086 33.8888 80.3774 31.008 80.7272 28.2716C81.4351 30.829 83.0289 33.4375 85.3306 35.0825C87.6405 36.7193 90.6245 37.3842 93.4029 36.8727C91.7744 36.1822 90.1121 35.4488 88.8589 34.1874C87.614 32.9425 86.8559 31.0336 87.4606 29.3621C89.9668 32.9681 94.741 35.2524 99.3097 34.7327C101.108 38.7396 105.806 42.0469 110.656 41.9876C113.06 47.9719 113.913 54.4075 113.887 60.7499C113.87 67.1006 113 73.4174 112.122 79.7004C115.294 78.8821 118.942 78.6948 122.531 79.0529C125.643 74.4239 127.416 68.909 127.569 63.3421C128.746 62.046 130.016 60.6138 131.047 59.0282C132.011 57.5449 132.769 55.9164 133.017 54.1262C133.459 50.9806 132.147 47.6303 129.666 45.6447C131.295 41.698 131.602 37.2901 129.991 33.6595C128.388 30.0453 124.927 27.3089 121.023 26.5846C120.801 24.4875 120.256 22.416 119.429 20.4897C118.33 17.9405 116.71 15.6561 114.621 13.9089C110.947 10.8482 105.892 9.53571 101.195 10.397C98.0574 6.64582 93.3436 4.10574 88.4077 3.7139C86.0723 3.52666 83.6847 3.83356 81.4515 4.55786C78.9791 5.34244 76.6865 6.66316 74.7849 8.41135C71.8356 5.31686 65.9362 4.50672 62.143 5.99916C56.176 8.33463 53.7546 11.7196 53.951 15.7512C50.7972 13.6796 46.7647 15.2908 44.6 17.6692C43.577 18.7863 42.6993 20.1326 42.2645 21.7611C41.7786 23.5851 41.8298 25.7589 42.8527 28.3419C38.9664 35.8324 33.4935 55.4141 36.9624 65.4382Z" fill="#AF87CE"/>
<path d="M42.2897 21.7669C43.2277 20.9485 44.2589 20.2498 45.3759 19.6871C48.8202 17.9563 52.9797 17.6841 56.6204 18.9281C57.9585 14.1119 61.3854 11.3152 65.1877 10.8814C68.981 10.4548 72.945 12.4414 74.8968 15.7231C79.0225 11.7335 83.8131 10.1224 88.3653 10.7188C92.9175 11.307 97.1373 14.0864 99.4901 18.0248C103.368 15.6464 108.313 15.3139 112.754 16.7123C115.209 17.4877 117.503 18.792 119.445 20.4799C118.346 17.9307 116.726 15.6464 114.637 13.8991C110.964 10.8384 105.908 9.52594 101.211 10.3872C98.0735 6.63605 93.3596 4.09597 88.4238 3.70414C86.0883 3.5169 83.7008 3.8238 81.4676 4.5481C78.9951 5.33268 76.7025 6.6534 74.8009 8.40158C71.8517 5.3071 65.9522 4.49695 62.159 5.98939C56.192 8.32486 53.7707 11.7098 53.9671 15.7414C50.8132 13.6699 46.7807 15.2811 44.616 17.6595C43.6031 18.7911 42.7336 20.1383 42.2897 21.7669Z" fill="#AF87CE"/>
<path d="M130.04 77.2162C128.612 72.5818 122.406 70.3815 116.179 72.3014C109.953 74.2213 106.063 79.5334 107.492 84.1678C108.92 88.8023 115.126 91.0026 121.353 89.0827C127.58 87.1628 131.47 81.8506 130.04 77.2162Z" fill="#AF87CE"/>
<path d="M100.225 51.0841C99.3213 48.271 96.7209 44.5965 94.0439 43.3607C91.3668 42.125 87.5654 41.8519 85.5788 45.1765C90.3447 44.5627 94.7773 46.1657 100.225 51.0841Z" fill="#AF87CE"/>
<path d="M42.061 45.6273C44.0384 42.4223 45.7775 41.2368 48.2755 40.623C50.7644 40.0092 54.1576 41.1682 55.377 43.965C51.0631 42.6095 46.1273 43.3594 42.061 45.6273Z" fill="#AF87CE"/>
<path d="M88.9446 58.8754C87.3617 58.6671 85.8665 60.1148 85.6053 62.1078C85.3432 64.1008 86.4136 65.8855 87.9965 66.0937C89.5794 66.302 91.0745 64.8543 91.3358 62.8613C91.597 60.8683 90.5265 59.0836 88.9446 58.8754Z" fill="#AF87CE"/>
<path d="M48.7263 55.166C47.1307 55.166 45.8364 56.7954 45.8364 58.8058C45.8364 60.8161 47.1307 62.4455 48.7263 62.4455C50.322 62.4455 51.6162 60.8161 51.6162 58.8058C51.6162 56.7954 50.322 55.166 48.7263 55.166Z" fill="#AF87CE"/>
<path d="M63.5693 59.2578C62.4696 61.1585 62.1801 63.5205 62.7848 65.634Z" fill="#AF87CE"/>
<path d="M63.5693 59.2578C62.4696 61.1585 62.1801 63.5205 62.7848 65.634" stroke="#7D1D2D" stroke-width="0.9333" stroke-miterlimit="10" stroke-linecap="round"/>
<path d="M52.8204 75.4632C52.7948 77.4151 53.5876 79.325 54.7384 80.9188C54.7384 80.927 54.7467 80.927 54.7467 80.9361C57.2959 84.4654 61.6517 86.6136 65.9902 86.4766C70.3378 86.3487 74.5575 83.9365 76.8757 80.2712C77.3872 79.4528 77.8219 78.5577 78.0859 77.6371C78.359 76.7502 78.4777 75.8131 78.4101 74.8833C78.2567 72.9826 77.1488 71.1156 75.4006 70.3648C73.0989 69.3848 70.5077 70.4927 68.0781 71.1065C64.0886 72.1121 60.1328 69.6488 56.0327 69.973C53.3319 70.1776 52.8377 73.494 52.8204 75.4632Z" fill="#AF87CE"/>
<path d="M54.7385 80.9171C54.7385 80.9253 54.7467 80.9253 54.7467 80.9344C57.2959 84.4637 61.6517 86.6119 65.9902 86.4749C70.3378 86.347 74.5576 83.9348 76.8757 80.2695C77.3872 79.4511 77.822 78.556 78.0859 77.6354C74.258 76.1347 70.1579 75.3337 66.0834 75.7091C61.8563 76.1009 57.6622 77.8738 54.7385 80.9171Z" fill="#AF87CE"/>
<path d="M30.2726 177.299C31.1084 177.896 32.2163 177.854 33.2393 177.793C39.4967 177.376 45.7359 176.634 51.8482 175.228C53.8429 174.767 56.0506 174.059 56.9457 172.235C57.3293 171.434 57.406 170.505 57.2352 169.627C57.1411 169.124 56.9795 168.63 56.7666 168.161C56.1702 166.89 55.2148 165.834 54.2777 164.785C49.5803 165.348 45.0372 164.921 40.6211 165.68C37.5695 166.192 34.475 167.419 32.2245 169.465C31.2098 170.386 30.3658 171.46 29.7776 172.721C29.0789 174.23 28.9254 176.319 30.2726 177.299Z" fill="#AF87CE"/>
<path d="M32.2237 169.465C40.4248 171.34 49.026 171.401 57.2344 169.627C57.1403 169.124 56.9786 168.63 56.7658 168.161C56.1694 166.89 55.214 165.834 54.2769 164.785C49.5795 165.348 45.0364 164.921 40.6203 165.68C37.5687 166.192 34.4742 167.411 32.2237 169.465Z" fill="#AF87CE"/>
<path d="M49.0093 141.735C47.1086 138.547 44.542 135.487 40.8255 133.969C37.109 132.452 32.3605 132.631 29.2495 134.984C25.6006 137.737 25.0471 142.502 25.4563 146.713C26.198 154.427 27.2639 161.963 32.302 168.314C41.9179 168.314 50.7748 168.015 56.3838 166.055C55.2412 161.461 54.0556 150.2 49.0093 141.735Z" fill="#AF87CE"/>
<path d="M67.7709 170.863C70.6608 174.009 75.0851 175.842 79.2967 175.1C81.2056 174.767 83.0223 173.847 84.4791 172.56C86.2355 171.033 87.4969 168.979 87.8467 166.788C85.8007 162.253 83.4653 157.846 80.1662 154.24C79.1003 154.948 77.9074 155.408 76.6881 155.757C75.35 156.141 73.9434 156.405 72.588 156.737C69.9877 157.377 67.2512 158.433 65.8364 160.719C63.8836 163.856 65.2738 168.135 67.7709 170.863Z" fill="#AF87CE"/>
<path d="M76.6799 155.767C77.8737 161.888 80.5928 167.701 84.4801 172.569C86.2365 171.043 87.4978 168.989 87.8477 166.798C85.8017 162.263 83.4662 157.856 80.1672 154.25C79.1004 154.958 77.9075 155.409 76.6799 155.767Z" fill="#AF87CE"/>
<path d="M115.969 143.754C116.736 139.27 113.531 134.726 109.379 133.183C105.228 131.641 100.497 132.68 96.6778 134.956C89.5682 139.201 83.8742 146.575 77.8469 153.992C80.967 160.155 83.8487 164.801 88.2986 170.009C93.9413 167 100.48 164.605 105.493 160.454C110.496 156.311 114.698 151.178 115.969 143.754Z" fill="#AF87CE"/>
<path d="M138.977 135.588C138.977 135.588 133.103 113.594 107.837 97.2868C105.015 95.4628 101.461 94.2517 98.2464 95.2409C94.7857 96.2977 91.9807 100.194 91.6053 103.791C90.0279 119.016 96.3192 120.107 110.505 127.233C116.787 130.387 123.334 134.411 125.857 141.99C125.235 142.646 124.596 143.311 124.187 144.121C123.769 144.931 123.599 145.903 123.939 146.746C124.28 147.59 125.226 148.204 126.105 147.982C127.171 147.718 127.708 146.448 128.961 146.303C129.916 148.246 130.948 150.147 132.056 152.006C132.319 152.449 132.61 152.909 133.036 153.199C133.462 153.489 134.084 153.575 134.493 153.259C134.911 152.935 134.979 152.33 134.987 151.801C135.021 150.275 134.893 148.749 134.621 147.249C135.482 148.732 136.633 150.036 137.997 151.077C138.526 151.478 139.267 151.844 139.813 151.46C140.205 151.187 140.281 150.642 140.273 150.164C140.256 148.647 139.728 147.138 138.782 145.953C140.026 146.728 141.339 147.385 142.712 147.914C143.113 148.067 143.573 148.212 143.957 148.016C144.323 147.829 144.486 147.359 144.434 146.95C144.383 146.541 144.161 146.166 143.931 145.825C143.121 144.615 142.107 143.549 140.862 142.79C141.527 142.603 142.235 142.705 142.916 142.798C143.599 142.892 144.315 142.977 144.962 142.764C145.619 142.542 146.19 141.928 146.121 141.238C146.07 140.752 145.73 140.351 145.38 140.002C144.177 138.793 138.977 135.588 138.977 135.588Z" fill="#AF87CE"/>
<defs>
<filter id="filter0_d_2096_6669" x="0.556641" y="0" width="167.443" height="191.309" filterUnits="userSpaceOnUse" color-interpolation-filters="sRGB">
<feFlood flood-opacity="0" result="BackgroundImageFix"/>
<feColorMatrix in="SourceAlpha" type="matrix" values="0 0 0 0 0 0 0 0 0 0 0 0 0 0 0 0 0 0 127 0" result="hardAlpha"/>
<feOffset dy="4"/>
<feGaussianBlur stdDeviation="2"/>
<feComposite in2="hardAlpha" operator="out"/>
<feColorMatrix type="matrix" values="0 0 0 0 0 0 0 0 0 0 0 0 0 0 0 0 0 0 0.25 0"/>
<feBlend mode="normal" in2="BackgroundImageFix" result="effect1_dropShadow_2096_6669"/>
<feBlend mode="normal" in="SourceGraphic" in2="effect1_dropShadow_2096_6669" result="shape"/>
</filter>
</defs>
</svg>
