<svg width="1139" height="666" viewBox="0 0 1139 666" fill="none" xmlns="http://www.w3.org/2000/svg">
<rect x="196" y="10" width="943" height="208" rx="12" fill="#F2D8EF"/>
<text fill="black" xml:space="preserve" style="white-space: pre" font-family="Open Sans" font-size="18" letter-spacing="0em"><tspan x="220" y="83.4829">Aos </tspan><tspan x="257.257" y="83.4829">6 </tspan><tspan x="274.019" y="83.4829">anos </tspan><tspan x="320.927" y="83.4829">desenvolve </tspan><tspan x="421.729" y="83.4829">o </tspan><tspan x="439.018" y="83.4829">conceito </tspan><tspan x="516.511" y="83.4829">de </tspan><tspan x="544.101" y="83.4829">n&#xfa;meros, </tspan><tspan x="630.841" y="83.4829">conta </tspan><tspan x="684.217" y="83.4829">13 </tspan><tspan x="711.28" y="83.4829">moedas, </tspan><tspan x="789.599" y="83.4829">reconhece </tspan><tspan x="883.916" y="83.4829">quando </tspan><tspan x="955.327" y="83.4829">&#xe9; </tspan><tspan x="971.895" y="83.4829">manh&#xe3; </tspan><tspan x="1037.1" y="83.4829">ou </tspan><tspan x="1065.43" y="83.4829">tarde, </tspan><tspan x="220" y="108.483">define </tspan><tspan x="277.791" y="108.483">objetos </tspan><tspan x="345.04" y="108.483">comuns </tspan><tspan x="416.735" y="108.483">do </tspan><tspan x="443.501" y="108.483">uso </tspan><tspan x="478.863" y="108.483">di&#xe1;rio, </tspan><tspan x="536.759" y="108.483">obedece </tspan><tspan x="613.5" y="108.483">a </tspan><tspan x="628.418" y="108.483">comandos </tspan><tspan x="720.926" y="108.483">triplos </tspan><tspan x="779.157" y="108.483">em </tspan><tspan x="810.845" y="108.483">sucess&#xe3;o, </tspan><tspan x="896.761" y="108.483">consegue </tspan><tspan x="981.781" y="108.483">diferenciar </tspan><tspan x="1077.51" y="108.483">m&#xe3;o </tspan><tspan x="220" y="133.483">esquerda </tspan><tspan x="307.135" y="133.483">da </tspan><tspan x="336.052" y="133.483">direita, </tspan><tspan x="402.621" y="133.483">expressa </tspan><tspan x="485.696" y="133.483">o </tspan><tspan x="504.417" y="133.483">que </tspan><tspan x="544.478" y="133.483">&#xe9; </tspan><tspan x="562.479" y="133.483">bonito </tspan><tspan x="625.057" y="133.483">ou </tspan><tspan x="654.818" y="133.483">feio </tspan><tspan x="694.264" y="133.483">no </tspan><tspan x="724.024" y="133.483">desenho </tspan><tspan x="804.638" y="133.483">de </tspan><tspan x="833.66" y="133.483">faces, </tspan><tspan x="889.594" y="133.483">descreve </tspan><tspan x="972.405" y="133.483">objetos </tspan><tspan x="1042.63" y="133.483">em </tspan><tspan x="1077.29" y="133.483">uma </tspan><tspan x="220" y="158.483">figura.</tspan></text>
<rect y="164" width="183" height="54" rx="12" fill="#E1A3D8"/>
<text fill="#F6F6FC" xml:space="preserve" style="white-space: pre" font-family="Open Sans" font-size="24" font-weight="bold" letter-spacing="0em"><tspan x="52.9805" y="200.311">6 anos</tspan></text>
<g filter="url(#filter0_d_2096_4097)">
<circle cx="92" cy="92" r="82" fill="white"/>
<circle cx="92" cy="92" r="80" stroke="#D4D5DD" stroke-width="4"/>
</g>
<path fill-rule="evenodd" clip-rule="evenodd" d="M102.068 70.9799C95.512 72.6692 74.2056 74.7285 69.8213 62.6745C62.4812 62.3429 57.0837 46.0287 68.96 43.0298C60.4816 30.1431 80.6187 18.9813 88.1532 32.2336C90.1787 19.7047 115.328 24.0276 108.426 40.7506C115.286 36.0489 129.202 48.9909 118.622 54.5456C118.622 54.5456 123.604 62.0605 116.287 68.0585L102.068 70.9799Z" fill="#E1A3D8"/>
<path fill-rule="evenodd" clip-rule="evenodd" d="M78.2266 139.406V154.401C80.9106 156.128 82.8411 158.385 85.9038 154.821L86.3237 139.526L78.2266 139.406Z" fill="#E1A3D8"/>
<mask id="mask0_2096_4097" style="mask-type:luminance" maskUnits="userSpaceOnUse" x="78" y="139" width="9" height="18">
<path d="M78.2266 139.41V154.405C80.9106 156.132 82.8411 158.389 85.9038 154.825L86.3237 139.53L78.2266 139.41Z" fill="white"/>
</mask>
<g mask="url(#mask0_2096_4097)">
<path fill-rule="evenodd" clip-rule="evenodd" d="M77.8154 147.234C77.8154 147.234 81.1861 148.402 86.0984 147.678L86.6922 151.673L86.5327 155.952L77.2959 154.951L77.8154 147.234Z" fill="#E1A3D8"/>
</g>
<path fill-rule="evenodd" clip-rule="evenodd" d="M87.685 140.966C87.685 140.966 81.8071 143.065 77.3086 140.666L77.7285 119.434L88.9445 120.873L87.685 140.966Z" fill="#E1A3D8"/>
<mask id="mask1_2096_4097" style="mask-type:luminance" maskUnits="userSpaceOnUse" x="77" y="119" width="12" height="23">
<path d="M87.686 140.966C87.686 140.966 81.8081 143.065 77.3096 140.666L77.7295 119.434L88.9455 120.873L87.686 140.966Z" fill="white"/>
</mask>
<g mask="url(#mask1_2096_4097)">
<path fill-rule="evenodd" clip-rule="evenodd" d="M89.3816 128.615L83.3838 127.535C84.0436 129.874 87.0425 130.594 87.0425 130.594C87.0425 130.594 87.1853 133.126 88.164 133.329L89.3816 128.615Z" fill="#E1A3D8"/>
</g>
<path fill-rule="evenodd" clip-rule="evenodd" d="M102.546 139.406V154.401C99.8619 156.128 97.9313 158.385 94.8686 154.821L94.4487 139.526L102.546 139.406Z" fill="#E1A3D8"/>
<mask id="mask2_2096_4097" style="mask-type:luminance" maskUnits="userSpaceOnUse" x="94" y="139" width="9" height="18">
<path d="M102.55 139.41V154.405C99.8658 156.132 97.9352 158.389 94.8725 154.825L94.4526 139.53L102.55 139.41Z" fill="white"/>
</mask>
<g mask="url(#mask2_2096_4097)">
<path fill-rule="evenodd" clip-rule="evenodd" d="M102.96 147.234C102.96 147.234 99.5892 148.402 94.6771 147.678L94.0833 151.673L94.2429 155.952L103.479 154.951L102.96 147.234Z" fill="#E1A3D8"/>
</g>
<path fill-rule="evenodd" clip-rule="evenodd" d="M92.7204 141.027C92.7204 141.027 98.8382 143.607 103.337 140.308L103.097 119.195L80.1523 119.747C80.1523 119.747 80.1848 124.414 81.1444 126.273C82.104 128.132 87.4421 130.112 92.1205 129.872L92.7204 141.027Z" fill="#E1A3D8"/>
<path fill-rule="evenodd" clip-rule="evenodd" d="M85.904 154.815C84.8939 153.508 80.2859 154.322 79.2164 152.506C79.3363 150.507 79.0557 149.468 77.5765 150.067C76.0974 150.667 77.4962 152.386 77.4962 152.386C76.9176 152.656 70.405 154.416 70.4186 156.504C70.2987 157.544 70.1391 158.384 70.6585 158.624C71.1791 158.864 82.4946 158.984 82.4946 158.984C82.4946 158.984 85.1073 159.081 85.5331 158.744C86.493 157.985 85.904 154.815 85.904 154.815Z" fill="#E1A3D8"/>
<path fill-rule="evenodd" clip-rule="evenodd" d="M94.8674 154.815C95.8775 153.508 100.486 154.322 101.555 152.506C101.435 150.507 101.716 149.468 103.195 150.067C104.674 150.667 103.275 152.386 103.275 152.386C103.854 152.656 110.366 154.416 110.353 156.504C110.473 157.544 110.632 158.384 110.113 158.624C109.592 158.864 98.2768 158.984 98.2768 158.984C98.2768 158.984 95.6642 159.081 95.2383 158.744C94.2784 157.985 94.8674 154.815 94.8674 154.815Z" fill="#E1A3D8"/>
<path fill-rule="evenodd" clip-rule="evenodd" d="M76.3298 102.32C76.3298 102.32 74.4177 107.732 74.8976 109.811C77.4563 109.051 80.6555 107.571 80.6555 107.571L82.0542 104.013L76.3298 102.32Z" fill="#E1A3D8"/>
<path fill-rule="evenodd" clip-rule="evenodd" d="M78.8069 95.0807L75.1387 101.808L82.5761 104.967C84.751 100.264 86.3737 94.1201 78.8069 95.0807Z" fill="#E1A3D8"/>
<path fill-rule="evenodd" clip-rule="evenodd" d="M77.0664 119.847C83.0747 124.051 99.0043 123.773 103.997 120.087C103.997 120.087 104.417 101.794 103.637 98.4947C100.308 89.4938 84.2614 88.2059 78.8058 95.0765C78.8058 95.0759 77.0664 119.847 77.0664 119.847Z" fill="#E1A3D8"/>
<mask id="mask3_2096_4097" style="mask-type:luminance" maskUnits="userSpaceOnUse" x="77" y="90" width="28" height="33">
<path d="M77.0654 119.843C83.0737 124.047 99.0034 123.769 103.996 120.083C103.996 120.083 104.416 101.79 103.636 98.4908C100.307 89.4899 84.2604 88.2019 78.8048 95.0726C78.8048 95.072 77.0654 119.843 77.0654 119.843Z" fill="white"/>
</mask>
<g mask="url(#mask3_2096_4097)">
<path d="M88.8209 94.6819C85.1864 94.7079 84.0969 91.7998 84.1101 91.7747C83.8995 91.5409 84.1651 87.2402 84.1388 86.8649C84.1627 86.0328 84.8328 85.3459 85.6641 85.3014C86.5523 85.4523 95.3853 84.2561 95.8426 85.2854C96.8159 85.9388 95.9806 90.2621 96.114 91.2033C96.075 92.7059 92.6475 94.3809 88.8209 94.6819ZM85.6998 85.9663C85.2118 85.9923 84.8184 86.3956 84.8043 86.8842C84.8034 86.9788 84.6149 91.6645 84.7384 91.5548C86.3433 95.9141 93.32 93.2743 95.0318 91.9186C95.7975 91.6766 95.488 87.0496 95.6536 86.4727C95.6895 85.9315 95.1976 85.4448 94.6568 85.4863C94.6568 85.4865 85.6998 85.9663 85.6998 85.9663Z" fill="#E1A3D8"/>
</g>
<path d="M78.0711 105.85C77.268 106.222 78.4406 98.0025 78.2747 97.8554C78.2974 97.4261 78.976 97.4697 78.9391 97.902C78.7682 98.0703 78.7319 106.18 78.0711 105.85Z" fill="#E1A3D8"/>
<path fill-rule="evenodd" clip-rule="evenodd" d="M74.8984 109.808C74.8984 109.808 76.0572 107.009 76.897 105.61C77.7366 104.21 79.9367 101.611 79.9367 101.611C79.9367 101.611 78.8967 96.6527 80.8555 95.2933C82.5514 90.2595 84.5723 98.5266 84.1794 100.431C83.8952 102.091 83.8544 105.33 83.8544 105.33C83.8544 105.33 82.2541 110.745 80.5364 111.567C77.2232 113.153 75.2032 110.942 74.8984 109.808Z" fill="#E1A3D8"/>
<mask id="mask4_2096_4097" style="mask-type:luminance" maskUnits="userSpaceOnUse" x="74" y="93" width="11" height="20">
<path d="M74.8994 109.804C74.8994 109.804 76.0581 107.005 76.8979 105.606C77.7376 104.206 79.9376 101.607 79.9376 101.607C79.9376 101.607 78.8977 96.6488 80.8565 95.2894C82.5523 90.2556 84.5733 98.5226 84.1804 100.428C83.8961 102.087 83.8554 105.326 83.8554 105.326C83.8554 105.326 82.2551 110.741 80.5374 111.563C77.2242 113.149 75.2041 110.938 74.8994 109.804Z" fill="white"/>
</mask>
<g mask="url(#mask4_2096_4097)">
<path fill-rule="evenodd" clip-rule="evenodd" d="M78.5459 98.7854L79.9362 101.612C80.3141 103.118 81.3073 103.763 82.0546 104.011C82.7132 105.068 83.2231 106.867 83.8228 106.717C84.4226 106.567 86.042 103.898 86.042 103.898L83.463 92.9219L80.5564 93.4537L78.5459 98.7854Z" fill="#E1A3D8"/>
</g>
<path d="M76.4336 106.785C75.1569 106.717 78.6169 102.892 78.5022 102.839C78.7568 102.492 79.2996 102.899 79.0336 103.24C78.4795 103.975 76.9872 106.006 76.7396 106.584C76.6855 106.71 76.5627 106.785 76.4336 106.785Z" fill="#E1A3D8"/>
<path fill-rule="evenodd" clip-rule="evenodd" d="M91.8517 105.524L87.2933 100.686C88.2133 99.2467 88.2133 98.6069 87.9734 97.4473C87.7335 96.2877 86.973 96.6875 86.973 96.6875C86.9753 96.0673 87.0819 93.8993 85.5742 94.0884C85.182 92.9734 84.1792 92.9373 83.9344 93.6484C83.5025 93.1654 82.4865 93.3587 82.4146 94.728C80.4618 95.3461 80.6074 101.49 82.5753 103.125C84.5631 108.022 87.9746 115.601 94.3708 113.281C96.3573 112.394 100.728 106.644 100.728 106.644L94.6503 101.685L91.8517 105.524Z" fill="#E1A3D8"/>
<path d="M94.145 108.027C94.1615 108.256 91.6494 105.771 91.6229 105.77C91.4891 105.644 91.4833 105.433 91.6095 105.3C91.7354 105.166 91.9466 105.16 92.0799 105.286L94.3736 107.452C94.5945 107.647 94.4344 108.038 94.145 108.027Z" fill="#E1A3D8"/>
<path d="M86.887 98.514C86.6967 98.515 86.5427 98.3524 86.5543 98.1622C86.652 97.8654 86.4126 96.2751 86.991 96.3544C87.1744 96.3649 87.315 96.5222 87.3044 96.7058C87.2067 96.9963 87.4421 98.567 86.887 98.514Z" fill="#E1A3D8"/>
<path d="M85.8084 97.2914C85.6201 97.2921 85.4679 97.1339 85.4755 96.9457C85.5077 96.1095 85.4328 95.196 85.2465 94.1532C85.2141 93.9722 85.3346 93.7994 85.5157 93.7669C85.6989 93.7347 85.8697 93.8552 85.9019 94.0361C85.9613 94.8374 86.5547 97.1713 85.8084 97.2914Z" fill="#E1A3D8"/>
<path d="M84.5465 97.5851C84.3668 97.5851 84.2187 97.442 84.214 97.2614C84.1739 95.8072 83.9757 94.634 83.6244 93.7746C83.4553 93.3784 84.0828 93.1199 84.2406 93.5227C84.3421 93.6594 85.4351 97.4902 84.5465 97.5851Z" fill="#E1A3D8"/>
<path d="M83.2898 98.6391C83.1165 98.6391 82.9704 98.5051 82.958 98.3298C82.7662 95.6174 82.1881 94.9761 82.1823 94.9698C81.8904 94.6773 82.3335 94.2007 82.6398 94.4864C82.7178 94.5574 83.409 95.268 83.6223 98.2829C83.6365 98.4744 83.482 98.6402 83.2898 98.6391Z" fill="#E1A3D8"/>
<path fill-rule="evenodd" clip-rule="evenodd" d="M93.3691 102.13C95.5716 104.494 98.0559 106.658 101.006 108.488C101.006 108.488 103.813 104.92 104.008 102.926C104.584 98.9403 102.14 94.9847 98.1264 97.492C96.8874 98.4516 93.3691 102.13 93.3691 102.13Z" fill="#E1A3D8"/>
<path d="M101.006 108.823C99.4964 108.044 93.3477 103.607 93.129 101.903C92.9406 102.313 97.2938 97.0773 97.8154 97.7467C97.9382 97.8838 97.9266 98.0943 97.7894 98.217C96.5597 99.318 94.5003 101.439 93.8293 102.135C96.0726 104.509 98.3995 106.448 100.926 108.047C101.317 107.527 102.256 106.233 102.931 104.947C103.125 104.563 103.727 104.876 103.521 105.256C102.397 107.186 101.494 108.67 101.006 108.823Z" fill="#E1A3D8"/>
<path fill-rule="evenodd" clip-rule="evenodd" d="M85.7519 86.9212L85.626 91.2336C87.0343 94.869 93.5318 92.0189 94.504 91.1431L94.7079 86.4414L85.7519 86.9212Z" fill="#E1A3D8"/>
<mask id="mask5_2096_4097" style="mask-type:luminance" maskUnits="userSpaceOnUse" x="85" y="86" width="10" height="8">
<path d="M85.7558 86.9251L85.6299 91.2375C87.0382 94.8729 93.5357 92.0228 94.5079 91.147L94.7118 86.4453L85.7558 86.9251Z" fill="white"/>
</mask>
<g mask="url(#mask5_2096_4097)">
<path fill-rule="evenodd" clip-rule="evenodd" d="M84.7475 89.8168C87.6444 90.9818 93.3053 90.9718 96.0451 89.39C97.7534 86.9786 94.1076 85.658 92.1754 85.8943C89.4137 86.1999 86.5126 86.7183 83.9678 87.8686" fill="#E1A3D8"/>
</g>
<path fill-rule="evenodd" clip-rule="evenodd" d="M75.3178 70.196C74.58 59.2578 62.0281 61.2057 64.804 71.4331C66.156 78.5145 75.9129 78.3586 75.3178 70.196Z" fill="#E1A3D8"/>
<path fill-rule="evenodd" clip-rule="evenodd" d="M73.3608 70.5608C73.4661 73.0587 72.9362 74.1795 70.6301 74.4197C67.4052 75.0895 65.6509 69.5252 66.8152 67.0198C67.7585 65.2454 70.2611 64.4825 71.6865 66.4436C72.6611 67.5473 73.3333 69.135 73.3608 70.5608Z" fill="#E1A3D8"/>
<path fill-rule="evenodd" clip-rule="evenodd" d="M72.2659 68.0352C74.3315 68.0444 74.3313 71.1851 72.2658 71.1942C70.2004 71.1848 70.2005 68.0441 72.2659 68.0352Z" fill="#E1A3D8"/>
<path fill-rule="evenodd" clip-rule="evenodd" d="M87.5147 88.5838C110.392 89.1814 110.924 73.9658 110.866 55.5553C110.467 50.5973 101.59 43.5598 91.4332 43.08C78.4847 42.9339 71.3955 51.4891 71.3598 59.7135C71.5202 62.833 72.4665 67.2177 72.4001 69.1508C72.32 71.4698 70.5606 73.5492 70.6407 76.4282C70.7208 79.3071 73.8396 88.9835 87.5147 88.5838Z" fill="#E1A3D8"/>
<mask id="mask6_2096_4097" style="mask-type:luminance" maskUnits="userSpaceOnUse" x="70" y="43" width="41" height="46">
<path d="M87.5128 88.5838C110.39 89.1814 110.922 73.9658 110.864 55.5553C110.465 50.5973 101.588 43.5598 91.4313 43.08C78.4827 42.9339 71.3935 51.4891 71.3578 59.7135C71.5183 62.833 72.4646 67.2177 72.3981 69.1508C72.318 71.4698 70.5587 73.5492 70.6387 76.4282C70.7188 79.3071 73.8377 88.9835 87.5128 88.5838Z" fill="white"/>
</mask>
<g mask="url(#mask6_2096_4097)">
<path fill-rule="evenodd" clip-rule="evenodd" d="M100.61 73.375C95.9278 73.4549 95.9286 80.4203 100.611 80.4994C105.293 80.4195 105.292 73.4543 100.61 73.375Z" fill="#E1A3D8"/>
<path fill-rule="evenodd" clip-rule="evenodd" d="M73.0176 72.8984C68.3351 72.9784 68.3358 79.9437 73.0178 80.0229C77.7002 79.943 77.6995 72.9778 73.0176 72.8984Z" fill="#E1A3D8"/>
</g>
<path fill-rule="evenodd" clip-rule="evenodd" d="M111.926 68.9509C109.604 66.9579 108.965 62.2397 109.604 60.1605C105.766 58.8809 105.925 53.2828 105.925 53.2828C105.925 53.2828 98.7279 54.8824 98.1689 48.5646C95.2623 50.7166 87.5672 50.9424 85.2135 46.8052C85.2135 46.8052 80.895 49.4442 78.4958 48.4846C77.7761 51.3636 75.2654 54.6801 72.4811 53.9416C71.2983 48.5647 82.4939 40.4076 90.2515 40.8874C98.008 41.3672 109.364 45.6857 112.324 52.3234C115.282 58.9608 114.248 70.9441 111.926 68.9509Z" fill="#E1A3D8"/>
<path d="M84.8802 80.2512C83.1062 80.3701 79.7886 77.6814 81.6844 77.9941C81.7004 78.0093 83.2954 79.5097 84.7511 79.5824C86.2453 79.6577 88.7183 78.43 88.7434 78.4176C90.6953 78.6186 86.5592 80.2764 84.8802 80.2512Z" fill="#E1A3D8"/>
<path fill-rule="evenodd" clip-rule="evenodd" d="M94.3122 66.1914C92.0161 66.1919 92.0163 71.0696 94.3124 71.0696C96.6083 71.069 96.608 66.1914 94.3122 66.1914Z" fill="#E1A3D8"/>
<path fill-rule="evenodd" clip-rule="evenodd" d="M78.0767 65.3125C75.7807 65.3129 75.7808 70.1907 78.0769 70.1907C80.373 70.1901 80.3727 65.3125 78.0767 65.3125Z" fill="#E1A3D8"/>
<path d="M83.3241 72.6691C78.5655 72.6807 81.0232 65.6555 84.6061 68.1566L84.9436 64.2072C84.9592 64.0243 85.1159 63.8855 85.3038 63.904C85.4868 63.9197 85.6227 64.0809 85.6072 64.264L85.2072 68.9424C84.6601 69.9858 84.4885 68.0739 82.8757 68.3248C81.6981 68.4777 81.1203 69.8712 81.4389 70.9902C81.7656 72.1612 84.147 72.2987 84.6784 71.4884C84.7802 71.3356 84.9871 71.294 85.1401 71.3961C85.7219 72.1954 83.9966 72.7127 83.3241 72.6691Z" fill="#E1A3D8"/>
<path fill-rule="evenodd" clip-rule="evenodd" d="M78.0159 60.168C75.3768 60.168 74.0166 59.848 74.0166 58.2486C74.0166 56.6492 74.6571 56.0094 76.4961 55.7695C78.3351 55.5296 81.3748 56.2493 82.254 57.0491C83.1333 57.8489 83.1333 59.4483 82.1737 59.848C81.2139 60.248 80.655 60.168 78.0159 60.168Z" fill="#E1A3D8"/>
<path fill-rule="evenodd" clip-rule="evenodd" d="M96.1283 60.9872C99.0788 61.3317 100.637 61.1914 100.822 59.6028C101.008 58.0142 100.366 57.2952 98.3377 56.8167C96.3096 56.3382 92.8277 56.6564 91.752 57.336C90.6763 58.0156 90.4908 59.6042 91.5172 60.1265C92.5437 60.6492 93.1779 60.6427 96.1283 60.9872Z" fill="#E1A3D8"/>
<path fill-rule="evenodd" clip-rule="evenodd" d="M107.748 72.0296C109.393 61.6455 123.95 63.7483 119.744 74.1892C117.631 80.9373 106.297 80.3271 107.748 72.0296Z" fill="#E1A3D8"/>
<path fill-rule="evenodd" clip-rule="evenodd" d="M109.969 72.5634C109.541 75.2105 110.292 76.2454 112.724 76.6481C114.875 77.1205 116.622 75.7689 117.514 73.5648C118.072 72.185 118.419 70.7962 117.877 69.6135C116.924 67.6724 114.068 66.847 112.32 68.6099C111.083 69.6235 110.146 71.1456 109.969 72.5634Z" fill="#E1A3D8"/>
<path fill-rule="evenodd" clip-rule="evenodd" d="M111.288 69.9531C109.222 69.9625 109.222 73.103 111.288 73.1121C113.353 73.1028 113.353 69.9621 111.288 69.9531Z" fill="#E1A3D8"/>
<rect x="196" y="234" width="943" height="208" rx="12" fill="#F2D8EF"/>
<text fill="black" xml:space="preserve" style="white-space: pre" font-family="Open Sans" font-size="18" letter-spacing="0em"><tspan x="220" y="332.483">Aos </tspan><tspan x="258.074" y="332.483">7 </tspan><tspan x="275.651" y="332.483">anos </tspan><tspan x="323.376" y="332.483">observa </tspan><tspan x="397.555" y="332.483">as </tspan><tspan x="423.412" y="332.483">partes </tspan><tspan x="484.179" y="332.483">que </tspan><tspan x="523.624" y="332.483">est&#xe3;o </tspan><tspan x="576.832" y="332.483">faltando, </tspan><tspan x="658.693" y="332.483">copia </tspan><tspan x="711.005" y="332.483">um </tspan><tspan x="745.985" y="332.483">losango, </tspan><tspan x="823.522" y="332.483">repete </tspan><tspan x="885.924" y="332.483">tr&#xea;s </tspan><tspan x="925.667" y="332.483">n&#xfa;meros </tspan><tspan x="1008.57" y="332.483">de </tspan><tspan x="1036.97" y="332.483">tr&#xe1;s </tspan><tspan x="1076.61" y="332.483">para </tspan><tspan x="220" y="357.483">frente, </tspan><tspan x="280.434" y="357.483">adquire </tspan><tspan x="350.219" y="357.483">conceito </tspan><tspan x="425.928" y="357.483">de </tspan><tspan x="451.732" y="357.483">tempo, </tspan><tspan x="516.104" y="357.483">consegue </tspan><tspan x="600.883" y="357.483">ler </tspan><tspan x="627.584" y="357.483">o </tspan><tspan x="643.088" y="357.483">rel&#xf3;gio </tspan><tspan x="705.771" y="357.483">comum, </tspan><tspan x="778.932" y="357.483">usa </tspan><tspan x="813.227" y="357.483">o </tspan><tspan x="828.73" y="357.483">rel&#xf3;gio </tspan><tspan x="891.414" y="357.483">de </tspan><tspan x="917.219" y="357.483">forma </tspan><tspan x="972.818" y="357.483">pr&#xe1;tica.</tspan></text>
<rect y="388" width="183" height="54" rx="12" fill="#E1A3D8"/>
<text fill="#F6F6FC" xml:space="preserve" style="white-space: pre" font-family="Open Sans" font-size="24" font-weight="bold" letter-spacing="0em"><tspan x="52.9805" y="424.311">7 anos</tspan></text>
<g filter="url(#filter1_d_2096_4097)">
<circle cx="92" cy="316" r="82" fill="white"/>
<circle cx="92" cy="316" r="80" stroke="#D4D5DD" stroke-width="4"/>
</g>
<path fill-rule="evenodd" clip-rule="evenodd" d="M74.9556 289.582C74.195 278.304 61.2538 280.313 64.1158 290.857C65.5098 298.158 75.5691 297.997 74.9556 289.582Z" fill="#E1A3D8"/>
<path fill-rule="evenodd" clip-rule="evenodd" d="M72.9361 289.943C73.0445 292.519 72.4982 293.674 70.1208 293.922C66.7958 294.612 64.9871 288.875 66.1876 286.292C67.1601 284.463 69.7403 283.676 71.2099 285.698C72.2148 286.836 72.9077 288.473 72.9361 289.943Z" fill="#E1A3D8"/>
<path fill-rule="evenodd" clip-rule="evenodd" d="M71.8081 287.348C73.9378 287.357 73.9376 290.595 71.808 290.605C69.6785 290.595 69.6786 287.357 71.8081 287.348Z" fill="#E1A3D8"/>
<path fill-rule="evenodd" clip-rule="evenodd" d="M76.1329 362.031L74.4014 374.708L78.1116 377.8L81.8838 376.007L83.5534 363.701L76.1329 362.031Z" fill="#E1A3D8"/>
<mask id="mask7_2096_4097" style="mask-type:luminance" maskUnits="userSpaceOnUse" x="74" y="362" width="10" height="16">
<path d="M76.1308 362.035L74.3994 374.712L78.1097 377.804L81.8819 376.011L83.5515 363.705L76.1308 362.035Z" fill="white"/>
</mask>
<g mask="url(#mask7_2096_4097)">
<path fill-rule="evenodd" clip-rule="evenodd" d="M74.9958 370.348C74.9958 370.348 80.1296 371.379 82.5587 371.027C83.0917 373.106 82.0652 376.927 82.0652 376.927L77.4409 377.249L74.083 373.722L74.9958 370.348Z" fill="#E1A3D8"/>
</g>
<path fill-rule="evenodd" clip-rule="evenodd" d="M74.5381 362.859C74.5381 362.859 79.4036 366.322 85.0099 365.168L88.1426 349.502L88.3083 339.113L77.672 339.278C77.6819 343.73 75.2666 358.255 74.5381 362.859Z" fill="#E1A3D8"/>
<mask id="mask8_2096_4097" style="mask-type:luminance" maskUnits="userSpaceOnUse" x="74" y="339" width="15" height="27">
<path d="M74.5381 362.859C74.5381 362.859 79.4036 366.322 85.0099 365.168L88.1426 349.502L88.3083 339.113L77.672 339.278C77.6819 343.73 75.2666 358.255 74.5381 362.859Z" fill="white"/>
</mask>
<g mask="url(#mask8_2096_4097)">
<path fill-rule="evenodd" clip-rule="evenodd" d="M88.8424 348.719L82.8516 349.494C83.4835 351.11 86.6163 351.769 86.6163 351.769C86.6163 351.769 86.4395 353.152 86.9812 355.305C88.8424 352.099 88.8424 348.719 88.8424 348.719Z" fill="#E1A3D8"/>
</g>
<path fill-rule="evenodd" clip-rule="evenodd" d="M103.203 362.035L104.935 374.712L101.224 377.804L97.4521 376.011L95.7825 363.705L103.203 362.035Z" fill="#E1A3D8"/>
<mask id="mask9_2096_4097" style="mask-type:luminance" maskUnits="userSpaceOnUse" x="95" y="362" width="10" height="16">
<path d="M103.204 362.035L104.936 374.712L101.225 377.804L97.4531 376.011L95.7833 363.705L103.204 362.035Z" fill="white"/>
</mask>
<g mask="url(#mask9_2096_4097)">
<path fill-rule="evenodd" clip-rule="evenodd" d="M104.339 370.348C104.339 370.348 99.2055 371.379 96.7765 371.027C96.2434 373.106 97.2699 376.927 97.2699 376.927L101.894 377.249L105.252 373.722L104.339 370.348Z" fill="#E1A3D8"/>
</g>
<path fill-rule="evenodd" clip-rule="evenodd" d="M80.3516 340.059C81.3639 350.751 81.5929 349.75 91.6482 351.602L94.0389 364.959C94.0389 364.959 101.129 365.784 105.005 363.558L103.026 347.15C103.026 347.15 104.428 342.038 103.274 339.811C95.8533 339.564 80.3516 340.059 80.3516 340.059Z" fill="#E1A3D8"/>
<path fill-rule="evenodd" clip-rule="evenodd" d="M75.5176 326.195C75.5176 326.195 69.5192 330.339 67.9732 330.957C67.1075 327.494 68.2206 321.929 68.2206 321.929L72.7348 318.898L75.5176 326.195Z" fill="#E1A3D8"/>
<path fill-rule="evenodd" clip-rule="evenodd" d="M78.4545 314.578L71.1885 318.773L74.9607 327.801C74.9607 327.801 77.5579 326.255 79.8459 324.771C82.1338 323.287 82.6904 314.959 78.4545 314.578Z" fill="#E1A3D8"/>
<path fill-rule="evenodd" clip-rule="evenodd" d="M67.9741 330.96C59.0343 333.343 66.5923 315.262 66.6767 314.202C66.6767 314.202 65.9964 309.255 67.9753 307.832C69.9542 306.41 72.1803 307.709 73.4789 308.451C74.7775 309.193 75.4577 309.626 75.4577 310.986C75.4577 312.346 75.6433 315.315 73.7881 314.264C73.4171 315.5 71.8712 316.366 71.8712 316.366L71.7475 324.591C71.7475 324.591 69.7674 330.156 67.9741 330.96Z" fill="#E1A3D8"/>
<path d="M73.7871 314.601C73.5918 314.602 73.4346 314.437 73.4441 314.243C73.4705 313.658 73.4856 312.022 73.2421 311.475C73.0545 311.072 73.6946 310.786 73.8689 311.196C74.1498 312.017 74.4235 314.713 73.7871 314.601Z" fill="#E1A3D8"/>
<path d="M71.7469 324.931C71.5457 324.932 71.3843 324.755 71.4051 324.555C71.529 323.287 71.4686 320.302 71.468 320.271C71.4539 319.83 72.1432 319.807 72.1539 320.257C72.0335 320.069 72.528 325.002 71.7469 324.931Z" fill="#E1A3D8"/>
<path fill-rule="evenodd" clip-rule="evenodd" d="M76.5596 341.048C76.5596 341.048 84.8868 345.088 104.511 341.212L103.521 315.653C103.521 315.653 95.3585 310.623 93.2968 310.128C88.7185 309.262 81.4143 313.007 78.4556 314.581C77.5873 323.403 76.9876 332.226 76.5596 341.048Z" fill="#E1A3D8"/>
<mask id="mask10_2096_4097" style="mask-type:luminance" maskUnits="userSpaceOnUse" x="76" y="310" width="29" height="33">
<path d="M76.5596 341.052C76.5596 341.052 84.8868 345.092 104.511 341.216L103.521 315.657C103.521 315.657 95.3585 310.627 93.2968 310.132C88.7185 309.266 81.4143 313.011 78.4556 314.585C77.5873 323.407 76.9876 332.229 76.5596 341.052Z" fill="white"/>
</mask>
<g mask="url(#mask10_2096_4097)">
<path fill-rule="evenodd" clip-rule="evenodd" d="M78.2059 317.198L83.8333 314.359C87.0471 317.276 91.7321 316.972 94.9024 314.421L100.175 316.534L105.786 325.676L106.033 342.063C98.8771 343.939 83.9073 345.227 75.5469 341.321L78.2059 317.198Z" fill="#E1A3D8"/>
</g>
<path d="M77.2672 329.248C76.4965 329.263 77.3054 325.722 77.3736 322.845C77.4004 322.404 78.1007 322.455 78.058 322.9C77.6617 325.831 77.9738 329.162 77.2672 329.248Z" fill="#E1A3D8"/>
<path fill-rule="evenodd" clip-rule="evenodd" d="M84.7607 306.689L84.8461 311.523C87.4747 316.037 92.4306 312.898 95.1002 310.867L95.1349 306.652L84.7607 306.689Z" fill="#E1A3D8"/>
<mask id="mask11_2096_4097" style="mask-type:luminance" maskUnits="userSpaceOnUse" x="84" y="306" width="12" height="8">
<path d="M84.7607 306.685L84.8461 311.519C87.4747 316.033 92.4306 312.894 95.1002 310.863L95.1349 306.648L84.7607 306.685Z" fill="white"/>
</mask>
<g mask="url(#mask11_2096_4097)">
<path fill-rule="evenodd" clip-rule="evenodd" d="M83.8954 309.715C87.0503 312.219 99.5619 310.4 95.9368 305.968C92.5766 304.354 86.0657 305.39 82.9307 307.326" fill="#E1A3D8"/>
</g>
<path fill-rule="evenodd" clip-rule="evenodd" d="M106.622 326.754L103.608 331.809C103.608 331.809 102.866 330.603 102.062 330.047C101.258 329.49 100.299 329.923 100.516 330.541C100.732 331.16 101.103 332.582 101.103 332.582C101.103 332.582 99.9284 333.139 98.0424 333.355C96.1564 333.571 96.0325 334.654 96.8674 334.994C96.1254 335.643 97.2694 336.725 97.2694 336.725C96.9404 337.013 97.2261 338.282 98.568 338.147C98.568 338.147 98.939 339.044 99.9593 339.075C104.793 338.949 110.768 332.911 113.471 329.459C114.77 327.789 114.244 323.894 113.038 322.378C111.832 320.863 109.359 319.781 109.359 319.781L106.715 322.425L106.622 326.754Z" fill="#E1A3D8"/>
<path d="M97.5181 335.379C97.1545 335.348 96.4996 335.466 96.5283 334.945C96.5549 334.758 96.7254 334.625 96.9165 334.654C98.438 334.871 101.017 334.1 101.043 334.092C101.467 333.957 101.671 334.626 101.242 334.749C101.145 334.778 99.1387 335.379 97.5181 335.379Z" fill="#E1A3D8"/>
<path d="M97.667 337.103C96.9234 337.241 96.584 336.422 97.3523 336.391C98.0317 336.558 100.702 335.938 101.143 335.769C101.554 335.603 101.809 336.255 101.389 336.41C101.08 336.529 98.8732 337.103 97.667 337.103Z" fill="#E1A3D8"/>
<path d="M98.6654 338.49C98.1585 338.586 98.0652 337.794 98.5842 337.802C99.4697 337.837 101.457 337.2 101.886 336.986C102.279 336.781 102.595 337.407 102.193 337.6C101.743 337.825 99.7753 338.49 98.6654 338.49Z" fill="#E1A3D8"/>
<path d="M108.97 328.008C108.928 328.008 108.886 328 108.845 327.984L106.498 327.073C106.081 326.919 106.333 326.266 106.746 326.434L109.094 327.345C109.445 327.468 109.335 328.021 108.97 328.008Z" fill="#E1A3D8"/>
<path fill-rule="evenodd" clip-rule="evenodd" d="M106.622 326.756C106.622 326.756 109.993 321.561 109.993 319.088L103.521 315.656C103.521 315.656 100.47 315.192 99.542 317.48C98.6144 319.768 99.0473 322.613 100.099 323.788L106.622 326.756Z" fill="#E1A3D8"/>
<path fill-rule="evenodd" clip-rule="evenodd" d="M81.8836 376.009C78.9731 377.102 76.2611 374.493 74.5706 373.469C74.5706 373.469 70.0822 375.772 68.4337 376.637C66.785 377.503 66.6193 378.04 66.5377 379.07C66.4548 380.1 66.5785 380.637 67.0324 380.885C67.485 381.132 80.4328 380.92 81.6671 380.842C82.9868 380.761 81.8836 376.009 81.8836 376.009Z" fill="#E1A3D8"/>
<path fill-rule="evenodd" clip-rule="evenodd" d="M97.4533 376.009C100.364 377.102 103.076 374.493 104.766 373.469C104.766 373.469 109.255 375.772 110.903 376.637C112.552 377.503 112.718 378.04 112.799 379.07C112.882 380.1 112.758 380.637 112.305 380.885C111.852 381.132 98.9041 380.92 97.6699 380.842C96.35 380.761 97.4533 376.009 97.4533 376.009Z" fill="#E1A3D8"/>
<path fill-rule="evenodd" clip-rule="evenodd" d="M69.1542 282.889C67.0109 279.509 65.857 271.923 67.5055 269.038C64.5373 269.203 63.9598 267.801 65.6095 264.42C67.2582 261.04 76.1629 256.01 76.1629 256.01C70.4014 252.79 87.5965 246.955 95.8684 255.268C95.8684 255.268 95.1264 253.537 96.3631 252.877C102.583 250.611 111.544 259.32 112.688 264.833C120.427 267.265 115.972 282.879 114.731 284.332C114.732 284.332 112.112 289.816 105.845 289.898C99.5788 289.98 71.2987 286.27 69.1542 282.889Z" fill="#E1A3D8"/>
<path fill-rule="evenodd" clip-rule="evenodd" d="M87.5297 308.535C111.116 309.152 111.665 293.464 111.605 274.483C108.319 260.337 80.4293 257.289 72.9362 269.372C68.939 274.566 71.8416 283.329 71.9465 288.5C71.864 290.891 70.0499 293.034 70.1324 296.003C70.215 298.971 73.4306 308.948 87.5297 308.535Z" fill="#E1A3D8"/>
<mask id="mask12_2096_4097" style="mask-type:luminance" maskUnits="userSpaceOnUse" x="70" y="261" width="42" height="48">
<path d="M87.5297 308.539C111.116 309.155 111.665 293.468 111.605 274.486C108.319 260.341 80.4293 257.293 72.9362 269.376C68.939 274.57 71.8416 283.333 71.9465 288.503C71.864 290.894 70.0499 293.038 70.1324 296.007C70.215 298.975 73.4306 308.952 87.5297 308.539Z" fill="white"/>
</mask>
<g mask="url(#mask12_2096_4097)">
<path fill-rule="evenodd" clip-rule="evenodd" d="M101.031 292.859C96.203 292.942 96.2038 300.123 101.031 300.205C105.859 300.122 105.858 292.941 101.031 292.859Z" fill="#E1A3D8"/>
<path fill-rule="evenodd" clip-rule="evenodd" d="M72.5855 292.359C67.7577 292.442 67.7585 299.623 72.5857 299.705C77.4133 299.622 77.4125 292.441 72.5855 292.359Z" fill="#E1A3D8"/>
</g>
<path fill-rule="evenodd" clip-rule="evenodd" d="M112.546 286.169C108.102 289.663 108.56 276.037 108.546 276.234C108.546 276.234 103.023 274.255 103.311 266.134C103.311 266.134 101.209 268.401 97.251 269.514C93.2932 270.627 86.7792 270.999 89.0475 265.804C70.7378 277.972 71.7466 260.489 89.3972 259.723C102.969 259.719 114.603 267.835 113.391 278.523C112.896 280.748 113.659 285.304 112.546 286.169Z" fill="#E1A3D8"/>
<path fill-rule="evenodd" clip-rule="evenodd" d="M95.7456 279.668C93.7655 279.618 92.159 280.348 91.0459 279.853C89.9328 279.359 89.7472 277.565 90.3656 276.328C90.984 275.092 93.1483 274.535 94.7561 274.535C96.364 274.535 100.012 275.71 100.631 276.514C101.249 277.318 102.053 279.73 100.816 280.163C99.5797 280.595 98.2192 279.729 95.7456 279.668Z" fill="#E1A3D8"/>
<path fill-rule="evenodd" clip-rule="evenodd" d="M77.3388 279.484C79.0943 279.435 80.5186 280.164 81.5055 279.67C82.4924 279.175 82.6568 277.382 82.1086 276.145C81.5604 274.908 79.6415 274.352 78.2161 274.352C76.7907 274.352 73.5561 275.527 73.0077 276.33C72.4595 277.134 71.7468 279.546 72.8432 279.979C73.9396 280.412 75.1458 279.546 77.3388 279.484Z" fill="#E1A3D8"/>
<path d="M79.7305 287.146C77.9703 285.97 76.3421 285.639 74.5753 286.965C74.4204 287.075 74.2066 287.04 74.0965 286.886C73.9859 286.732 74.0217 286.517 74.1757 286.407C76.0948 285.033 78.0339 285.074 79.9392 286.53C80.2009 286.716 80.0458 287.158 79.7305 287.146Z" fill="#E1A3D8"/>
<path d="M83.9086 291.603C79.013 291.568 80.9771 285.511 85.0013 287.067L85.3875 283.095C85.4057 282.907 85.5714 282.77 85.7622 282.787C85.9509 282.805 86.0889 282.973 86.0705 283.161L85.6375 287.614C85.621 287.86 85.3208 288.008 85.1154 287.872C84.4425 287.316 81.7179 287.279 81.7119 289.272C81.684 289.815 81.8716 290.261 82.0691 290.377C83.9435 291.48 85.3521 290.553 85.4114 290.513C85.7722 290.257 86.1694 290.833 85.8006 291.078C85.7538 291.111 85.023 291.603 83.9086 291.603Z" fill="#E1A3D8"/>
<path d="M84.0347 299.945C80.7302 300.23 77.7823 296.477 79.7309 297.172C80.5303 298.306 81.6626 298.986 83.0957 299.192C85.2583 299.504 87.7071 298.626 89.0081 297.596C89.1564 297.478 89.3725 297.503 89.49 297.652C89.766 298.827 85.5763 300.016 84.0347 299.945Z" fill="#E1A3D8"/>
<path d="M96.6338 287.888C94.873 286.713 93.2452 286.381 91.4786 287.707C91.324 287.817 91.1102 287.782 90.9998 287.628C90.8893 287.474 90.9249 287.26 91.0789 287.149C92.9977 285.775 94.9372 285.816 96.8425 287.272C97.1041 287.458 96.949 287.9 96.6338 287.888Z" fill="#E1A3D8"/>
<path fill-rule="evenodd" clip-rule="evenodd" d="M108.39 291.463C110.086 280.757 125.094 282.925 120.758 293.69C118.579 300.648 106.893 300.018 108.39 291.463Z" fill="#E1A3D8"/>
<path fill-rule="evenodd" clip-rule="evenodd" d="M110.68 292.009C110.239 294.738 111.013 295.805 113.52 296.22C115.738 296.707 117.539 295.314 118.459 293.041C119.035 291.619 119.392 290.187 118.834 288.968C117.851 286.966 114.906 286.115 113.104 287.933C111.829 288.978 110.863 290.547 110.68 292.009Z" fill="#E1A3D8"/>
<path fill-rule="evenodd" clip-rule="evenodd" d="M112.038 289.324C109.909 289.334 109.909 292.572 112.039 292.581C114.168 292.572 114.168 289.333 112.038 289.324Z" fill="#E1A3D8"/>
<rect x="196" y="458" width="943" height="208" rx="12" fill="#F2D8EF"/>
<text fill="black" xml:space="preserve" style="white-space: pre" font-family="Open Sans" font-size="18" letter-spacing="0em"><tspan x="220" y="506.483">Dos </tspan><tspan x="257.298" y="506.483">8 </tspan><tspan x="272.43" y="506.483">aos </tspan><tspan x="306.67" y="506.483">10 </tspan><tspan x="332.103" y="506.483">anos </tspan><tspan x="377.382" y="506.483">consegue </tspan><tspan x="462.317" y="506.483">mostrar </tspan><tspan x="534.367" y="506.483">as </tspan><tspan x="557.779" y="506.483">semelhan&#xe7;as </tspan><tspan x="671.911" y="506.483">e </tspan><tspan x="686.85" y="506.483">diferen&#xe7;as </tspan><tspan x="779.15" y="506.483">entre </tspan><tspan x="829.017" y="506.483">duas </tspan><tspan x="874.489" y="506.483">coisas </tspan><tspan x="930.49" y="506.483">de </tspan><tspan x="956.45" y="506.483">mem&#xf3;ria, </tspan><tspan x="1042.12" y="506.483">conta </tspan><tspan x="1093.87" y="506.483">de </tspan><tspan x="220" y="531.483">tr&#xe1;s </tspan><tspan x="257.532" y="531.483">para </tspan><tspan x="301.094" y="531.483">frente </tspan><tspan x="357.364" y="531.483">de </tspan><tspan x="383.664" y="531.483">20 </tspan><tspan x="409.437" y="531.483">a </tspan><tspan x="424.61" y="531.483">1, </tspan><tspan x="444.74" y="531.483">j&#xe1; </tspan><tspan x="464.465" y="531.483">entende </tspan><tspan x="539.474" y="531.483">o </tspan><tspan x="555.473" y="531.483">conceito </tspan><tspan x="631.677" y="531.483">de </tspan><tspan x="657.977" y="531.483">reversibilidade, </tspan><tspan x="791.714" y="531.483">fala </tspan><tspan x="827.507" y="531.483">os </tspan><tspan x="852.084" y="531.483">dias </tspan><tspan x="891.409" y="531.483">da </tspan><tspan x="917.603" y="531.483">semana </tspan><tspan x="989.167" y="531.483">e </tspan><tspan x="1004.45" y="531.483">os </tspan><tspan x="1029.02" y="531.483">meses </tspan><tspan x="1088.23" y="531.483">em </tspan><tspan x="220" y="556.483">ordem, </tspan><tspan x="286.735" y="556.483">sabe </tspan><tspan x="332.535" y="556.483">datas </tspan><tspan x="384.646" y="556.483">e </tspan><tspan x="400.844" y="556.483">meses </tspan><tspan x="460.97" y="556.483">do </tspan><tspan x="488.911" y="556.483">ano, </tspan><tspan x="531.529" y="556.483">descreve </tspan><tspan x="612.538" y="556.483">com </tspan><tspan x="654.752" y="556.483">detalhes </tspan><tspan x="732.667" y="556.483">os&#xa0; </tspan><tspan x="762.84" y="556.483">objetos, </tspan><tspan x="835.921" y="556.483">t&#xea;m </tspan><tspan x="875.199" y="556.483">maior </tspan><tspan x="930.702" y="556.483">consci&#xea;ncia </tspan><tspan x="1033.38" y="556.483">temporal, </tspan><tspan x="220" y="581.483">pode </tspan><tspan x="267.885" y="581.483">aprender </tspan><tspan x="350.821" y="581.483">conceitos </tspan><tspan x="435.338" y="581.483">como </tspan><tspan x="487.196" y="581.483">fra&#xe7;&#xf5;es, </tspan><tspan x="558.337" y="581.483">compreende </tspan><tspan x="670.136" y="581.483">conceitos </tspan><tspan x="754.653" y="581.483">de </tspan><tspan x="780.689" y="581.483">espa&#xe7;o, </tspan><tspan x="849.421" y="581.483">causa </tspan><tspan x="902.58" y="581.483">e </tspan><tspan x="917.593" y="581.483">efeito, </tspan><tspan x="975.234" y="581.483">quebra-cabe&#xe7;a </tspan><tspan x="1104.89" y="581.483">e </tspan><tspan x="220" y="606.483">conserva&#xe7;&#xe3;o </tspan><tspan x="331.946" y="606.483">(perman&#xea;ncia, </tspan><tspan x="459.379" y="606.483">massa </tspan><tspan x="520.138" y="606.483">e </tspan><tspan x="537.18" y="606.483">volume), </tspan><tspan x="616.273" y="606.483">faz </tspan><tspan x="647.711" y="606.483">classifica&#xe7;&#xe3;o </tspan><tspan x="758.234" y="606.483">de </tspan><tspan x="786.297" y="606.483">objetos </tspan><tspan x="855.564" y="606.483">e </tspan><tspan x="872.606" y="606.483">pode </tspan><tspan x="922.519" y="606.483">fazer </tspan><tspan x="971.431" y="606.483">cole&#xe7;&#xf5;es, </tspan><tspan x="1055.29" y="606.483">produz </tspan><tspan x="220" y="631.483">desenhos </tspan><tspan x="305.975" y="631.483">simples </tspan><tspan x="374.705" y="631.483">e </tspan><tspan x="389.488" y="631.483">pinturas.</tspan></text>
<rect y="612" width="183" height="54" rx="12" fill="#E1A3D8"/>
<text fill="#F6F6FC" xml:space="preserve" style="white-space: pre" font-family="Open Sans" font-size="24" font-weight="bold" letter-spacing="0em"><tspan x="25.7578" y="648.311">8 a 10 anos</tspan></text>
<g filter="url(#filter2_d_2096_4097)">
<circle cx="92" cy="540" r="82" fill="white"/>
<circle cx="92" cy="540" r="80" stroke="#D4D5DD" stroke-width="4"/>
</g>
<path fill-rule="evenodd" clip-rule="evenodd" d="M102.446 599.238L102.106 604.847C99.571 606.623 97.1053 605.938 94.7982 604.592L95.2226 599.579L102.446 599.238Z" fill="#E1A3D8"/>
<path fill-rule="evenodd" clip-rule="evenodd" d="M102.24 602.633C102.24 602.633 108.733 605.949 109.329 606.884C109.924 607.818 109.838 609.943 109.159 610.623C108.478 611.303 99.896 610.708 99.896 610.708L98.8763 609.348L97.6017 610.538C97.6017 610.538 94.7974 610.453 94.0327 609.858C93.2679 609.264 94.8777 603.64 94.8777 603.64C94.8777 603.64 100.164 605.349 102.24 602.633Z" fill="#E1A3D8"/>
<path fill-rule="evenodd" clip-rule="evenodd" d="M103.466 600.763C103.466 600.763 101.257 602.378 98.7922 602.463C96.3282 602.548 94.7131 602.803 94.0338 601.443C93.3544 600.084 94.7131 590.311 94.7985 588.527C94.8839 586.742 90.3791 577.989 90.3791 577.989V572.296L100.577 571.531C104.569 583.418 106.1 588.577 103.466 600.763Z" fill="#E1A3D8"/>
<mask id="mask13_2096_4097" style="mask-type:luminance" maskUnits="userSpaceOnUse" x="90" y="571" width="15" height="32">
<path d="M103.467 600.759C103.467 600.759 101.258 602.375 98.7932 602.459C96.3292 602.544 94.7141 602.799 94.0347 601.439C93.3554 600.08 94.7141 590.307 94.7995 588.523C94.8849 586.738 90.3801 577.985 90.3801 577.985V572.292L100.578 571.527C104.57 583.414 106.101 588.574 103.467 600.759Z" fill="white"/>
</mask>
<g mask="url(#mask13_2096_4097)">
<path fill-rule="evenodd" clip-rule="evenodd" d="M90.3814 577.992L94.8008 578.333C94.2947 580.243 92.574 580.689 92.574 580.689C92.574 580.689 93.5376 582.415 92.9781 583.37L90.152 580.753L90.3814 577.992Z" fill="#E1A3D8"/>
</g>
<path fill-rule="evenodd" clip-rule="evenodd" d="M82.3223 598.797L80.9017 604.233C78.0708 605.484 75.7846 604.334 73.7818 602.567L75.1695 597.731L82.3223 598.797Z" fill="#E1A3D8"/>
<path fill-rule="evenodd" clip-rule="evenodd" d="M81.464 602.089C81.464 602.089 87.1916 606.6 87.5945 607.633C87.9975 608.664 87.502 610.733 86.7039 611.267C85.9043 611.803 77.5998 609.557 77.5998 609.557L76.8629 608.025L75.3818 608.946C75.3818 608.946 72.6472 608.319 72.0123 607.586C71.3771 606.856 74.046 601.65 74.046 601.65C74.046 601.65 78.9006 604.351 81.464 602.089Z" fill="#E1A3D8"/>
<path fill-rule="evenodd" clip-rule="evenodd" d="M74.829 570.516L98.5381 570.6C96.3452 579.761 92.9193 579.565 86.3012 580.458C86.3012 580.458 86.0463 586.151 86.2171 588.021C86.3866 589.891 83.8372 599.493 83.242 600.427C82.648 601.363 79.2484 601.447 77.3785 601.108C75.5098 600.768 73.8948 600.343 73.7253 598.983C73.5545 597.623 76.1039 588.7 76.3588 587.766C76.6136 586.832 73.4702 581.581 74.829 570.516Z" fill="#E1A3D8"/>
<path fill-rule="evenodd" clip-rule="evenodd" d="M74.3187 568.882L101.087 568.117C103.198 573.256 100.009 574.145 92.8451 574.661C88.3376 574.379 70.3434 576.097 74.3187 568.882Z" fill="#E1A3D8"/>
<path fill-rule="evenodd" clip-rule="evenodd" d="M99.2798 557.169L98.622 541.855C102.03 544.558 103.329 550.885 103.582 554.684C103.328 559.435 102.169 562.146 99.2798 557.169Z" fill="#E1A3D8"/>
<path fill-rule="evenodd" clip-rule="evenodd" d="M101.086 568.12C96.5443 571.439 78.8278 571.11 74.3179 568.885C71.4573 567.706 76.4454 541.036 78.9916 539.907C84.6565 537.697 94.4299 538.356 98.6221 541.862C99.4724 542.797 100.066 550.105 100.407 553.419C100.719 556.467 102.361 566.59 101.086 568.12Z" fill="#E1A3D8"/>
<path d="M100.822 557.135C101.033 557.136 101.202 556.947 101.174 556.737C100.766 553.79 100.581 551.448 100.268 548.509C100.225 548.055 99.508 548.128 99.565 548.586C99.7515 550.288 99.8959 551.89 100.054 553.45C100.111 554.008 100.213 554.804 100.331 555.726C100.437 556.005 100.298 557.181 100.822 557.135Z" fill="#E1A3D8"/>
<path d="M91.7946 559.569C92.7493 560.152 91.1835 542.41 90.1078 544.089C89.9932 545.038 91.7986 557.295 91.4435 559.168C91.4135 559.378 91.5827 559.57 91.7946 559.569Z" fill="#E1A3D8"/>
<path fill-rule="evenodd" clip-rule="evenodd" d="M90.2558 540.242C90.4674 541.304 90.2979 542.154 91.0206 542.027C98.3715 540.874 99.0384 537.772 88.5131 537.224C84.3488 537.17 79.718 536.97 79.0385 539.264C78.4266 541.3 87.6725 542.228 88.5552 542.027C89.0231 541.686 89.0652 540.157 89.0652 540.157C89.0652 540.157 90.043 539.179 90.2558 540.242Z" fill="#E1A3D8"/>
<path fill-rule="evenodd" clip-rule="evenodd" d="M92.9335 535.06L93.0176 539.862C89.9931 542.683 84.7276 540.598 83.3734 539.352L83.4155 534.168L92.9335 535.06Z" fill="#E1A3D8"/>
<mask id="mask14_2096_4097" style="mask-type:luminance" maskUnits="userSpaceOnUse" x="83" y="534" width="11" height="8">
<path d="M92.9335 535.064L93.0176 539.866C89.9931 542.687 84.7276 540.602 83.3734 539.356L83.4155 534.172L92.9335 535.064Z" fill="white"/>
</mask>
<g mask="url(#mask14_2096_4097)">
<path fill-rule="evenodd" clip-rule="evenodd" d="M95.65 537.904C92.5446 539.461 80.7879 539.396 81.7343 533.968C82.8122 529.81 97.1138 532.375 96.1981 536.876" fill="#E1A3D8"/>
</g>
<path fill-rule="evenodd" clip-rule="evenodd" d="M66.1431 509.095C65.3783 504.42 63.5937 495.328 68.9474 486.66C78.2864 472.765 107.881 474.298 113.816 488.445C118.499 498.566 116.087 523.917 99.3481 521.156C99.3484 521.157 66.9078 513.768 66.1431 509.095Z" fill="#E1A3D8"/>
<path fill-rule="evenodd" clip-rule="evenodd" d="M107.479 515.856C108.061 513.531 110.662 508.952 115.151 510.894C119.639 512.837 119.121 518.425 117.375 520.946C114.562 525.008 110.251 524.917 108.279 523.801C106.308 522.686 106.63 519.249 107.479 515.856Z" fill="#E1A3D8"/>
<path fill-rule="evenodd" clip-rule="evenodd" d="M109.428 516.873C109.06 518.632 108.539 520.275 109.037 521.794C110.427 522.582 113.422 522.478 115.405 519.614C116.454 518.099 116.888 514.711 114.192 513.544C111.347 512.314 109.796 515.4 109.428 516.873Z" fill="#E1A3D8"/>
<path fill-rule="evenodd" clip-rule="evenodd" d="M111.144 515.229C113.345 515.738 112.587 519.088 110.381 518.599C108.18 518.091 108.938 514.74 111.144 515.229Z" fill="#E1A3D8"/>
<path fill-rule="evenodd" clip-rule="evenodd" d="M74.558 530.028C82.7282 538.327 106.971 541.268 110.504 525.608C111.354 521.615 110.164 520.51 110.759 516.602C112.858 507.432 115.973 503.689 107.615 492.297C95.7535 483.088 72.1674 486.84 69.2044 502.468C68.822 506.031 68.7799 508.078 68.6945 510.797C67.7258 517.916 68.2026 524.287 74.558 530.028Z" fill="#E1A3D8"/>
<mask id="mask15_2096_4097" style="mask-type:luminance" maskUnits="userSpaceOnUse" x="68" y="487" width="46" height="50">
<path d="M74.558 530.032C82.7282 538.331 106.971 541.272 110.504 525.612C111.354 521.619 110.164 520.514 110.759 516.605C112.858 507.436 115.973 503.693 107.615 492.301C95.7535 483.092 72.1674 486.844 69.2044 502.472C68.822 506.034 68.7799 508.082 68.6945 510.801C67.7258 517.92 68.2026 524.291 74.558 530.032Z" fill="white"/>
</mask>
<g mask="url(#mask15_2096_4097)">
<path fill-rule="evenodd" clip-rule="evenodd" d="M78.2609 517.891C83.2367 517.976 83.2359 525.377 78.2608 525.461C73.285 525.376 73.2858 517.975 78.2609 517.891Z" fill="#E1A3D8"/>
<path fill-rule="evenodd" clip-rule="evenodd" d="M109.534 520.109C114.51 520.194 114.509 527.596 109.534 527.68C104.559 527.595 104.559 520.194 109.534 520.109Z" fill="#E1A3D8"/>
</g>
<path fill-rule="evenodd" clip-rule="evenodd" d="M79.6988 515.095C78.3566 513.926 74.6766 514.328 75.5561 515.988C76.5086 517.786 79.6988 515.095 79.6988 515.095Z" fill="#E1A3D8"/>
<path fill-rule="evenodd" clip-rule="evenodd" d="M109.455 518.158C110.798 516.989 114.478 517.391 113.598 519.05C112.646 520.849 109.455 518.158 109.455 518.158Z" fill="#E1A3D8"/>
<path fill-rule="evenodd" clip-rule="evenodd" d="M99.5546 528.99C101.021 527.206 101.021 524.593 101.021 524.593C99.4616 525.797 92.1079 525.412 90.1221 523.637C90.1221 523.637 89.6759 528.353 92.0978 529.564C94.5197 530.775 98.0887 530.775 99.5546 528.99Z" fill="#E1A3D8"/>
<path d="M85.215 515.814C86.2685 515.445 88.5652 515.332 88.5928 515.368C89.031 515.382 89.2925 514.819 88.9975 514.493C88.9201 514.402 87.0809 512.253 85.3388 511.835C84.6714 511.664 84.4188 512.716 85.0912 512.868C85.8526 513.05 86.7393 513.744 87.3931 514.357C86.6761 514.52 84.4988 514.361 84.7167 515.467C84.7958 515.681 84.9991 515.814 85.215 515.814Z" fill="#E1A3D8"/>
<path d="M105.978 517.289C107.67 516.679 104.928 515.431 104.287 515.102C105.121 514.77 106.2 514.445 106.973 514.554C107.265 514.595 107.532 514.391 107.572 514.101C107.305 512.305 102.481 514.762 102.743 514.644C102.351 514.839 102.387 515.459 102.801 515.606C102.82 515.613 104.743 516.372 105.625 517.155C105.726 517.245 105.852 517.289 105.978 517.289Z" fill="#E1A3D8"/>
<path d="M98.1265 520.172C102.92 519.922 101.2 512.984 96.9119 514.468L97.0795 510.556C97.088 510.361 96.9365 510.196 96.7413 510.188C96.547 510.189 96.3813 510.331 96.3729 510.526L96.1816 514.987C96.1621 515.253 96.4729 515.448 96.7035 515.313C96.7159 515.307 98.0741 514.597 99.2168 515.303C100.263 515.892 100.761 517.821 99.854 518.704C98.1967 520.361 96.2676 518.811 96.1864 518.745C96.0357 518.621 95.813 518.642 95.6887 518.793C95.3113 519.579 97.2511 520.155 98.1265 520.172Z" fill="#E1A3D8"/>
<path fill-rule="evenodd" clip-rule="evenodd" d="M85.6997 506.588C87.6002 506.647 89.5237 507.735 90.6072 507.034C91.6907 506.333 91.882 503.337 90.7347 502.764C89.5875 502.19 86.0821 501.935 83.6602 503.082C81.2383 504.229 80.9834 504.994 81.1746 505.887C81.3657 506.779 83.6602 506.524 85.6997 506.588Z" fill="#E1A3D8"/>
<path fill-rule="evenodd" clip-rule="evenodd" d="M105.504 508.183C103.611 508.003 101.629 509.032 100.642 508.201C99.6551 507.369 99.8414 504.373 101.051 503.948C102.261 503.523 105.164 503.509 107.457 504.897C109.205 505.957 109.235 507.066 108.933 507.927C108.631 508.788 107.535 508.376 105.504 508.183Z" fill="#E1A3D8"/>
<path fill-rule="evenodd" clip-rule="evenodd" d="M68.5658 495.359C67.2912 499.522 66.938 510.911 66.938 510.911C69.755 511.827 71.7945 509.108 72.4752 505.114C77.4885 504.178 77.2336 497.396 77.4885 495.341C84.6495 490.742 106.395 491.581 111.719 499.059C111.542 478.059 74.2399 481.583 68.5658 495.359Z" fill="#E1A3D8"/>
<path fill-rule="evenodd" clip-rule="evenodd" d="M71.3616 513.894C69.8373 503.413 54.7278 506.896 59.5412 517.231C62.1786 521.748 67.0489 522.405 69.4176 521.639C71.7862 520.873 71.8734 517.407 71.3616 513.894Z" fill="#E1A3D8"/>
<path fill-rule="evenodd" clip-rule="evenodd" d="M69.0301 514.566C69.2136 516.37 69.5849 518.101 68.8252 519.518C67.1547 520.058 63.7938 519.436 61.9341 516.251C58.9277 509.608 68.2997 508.021 69.0301 514.566Z" fill="#E1A3D8"/>
<path fill-rule="evenodd" clip-rule="evenodd" d="M68.7395 513.19C70.9409 513.699 70.1825 517.049 67.9769 516.56C65.7757 516.052 66.534 512.701 68.7395 513.19Z" fill="#E1A3D8"/>
<path fill-rule="evenodd" clip-rule="evenodd" d="M78.9922 539.902C78.9922 539.902 75.1682 543.302 73.3836 545.766C71.177 549.14 67.4942 557.363 69.6446 560.722C70.6647 562.167 76.5282 564.376 77.5479 563.442C78.5676 562.506 78.8227 559.957 78.9067 558.513C78.9921 557.068 76.8671 556.133 76.8671 556.133C80.1179 553.889 81.4437 541.442 78.9922 539.902Z" fill="#E1A3D8"/>
<path d="M76.6746 564.015C78.8224 563.894 78.921 561.604 79.2607 558.534C79.3334 557.3 78.124 556.426 77.4476 556.036C78.1619 555.214 79.7789 552.951 80.3627 548.789C80.3899 548.596 80.2551 548.417 80.0615 548.39C79.8635 548.365 79.6889 548.498 79.662 548.691C78.9553 553.731 76.6545 555.85 76.6312 555.87C76.4419 556.031 76.494 556.363 76.7248 556.457C77.2532 556.691 78.612 557.513 78.554 558.492C78.3739 561.59 77.7778 562.752 77.3096 563.181C77.0251 563.442 75.6689 563.34 73.7161 562.641C73.5315 562.576 73.3296 562.671 73.2638 562.855C73.0307 563.599 75.8889 563.961 76.6746 564.015Z" fill="#E1A3D8"/>
<path d="M76.8675 556.486C78.258 555.789 75.2259 555.189 74.6155 555.17C74.1624 555.122 74.0918 555.84 74.552 555.875C75.4342 555.925 76.1504 556.224 76.8675 556.486Z" fill="#E1A3D8"/>
<path fill-rule="evenodd" clip-rule="evenodd" d="M77.1858 559.934C77.5669 558.181 78.1214 557.215 78.8009 557.088C79.4804 556.96 81.7747 557.767 81.8601 558.745C81.9455 559.721 81.5198 564.013 81.01 564.523C80.5001 565.033 79.7073 564.952 78.6314 564.65C77.2712 564.268 77.2712 563.588 77.1438 562.738C77.0162 561.888 76.9741 560.912 77.1858 559.934Z" fill="#E1A3D8"/>
<path fill-rule="evenodd" clip-rule="evenodd" d="M80.0758 561.458C80.3307 559.971 80.4161 559.036 81.0534 558.654C81.6907 558.272 83.6869 558.017 84.4517 558.23C85.2164 558.441 85.6677 560.04 85.6677 560.04C86.3287 560.245 89.572 560.132 88.2757 562.096C88.2757 562.096 89.6777 562.52 88.5739 563.583C89.6652 564.372 89.0528 565.41 87.9787 565.579C88.2744 568.133 81.4522 565.613 80.6518 564.764C80.0758 564.177 79.8207 562.946 80.0758 561.458Z" fill="#E1A3D8"/>
<path d="M85.6683 560.396C86.0894 560.406 86.1462 559.75 85.7231 559.693L83.4619 559.336C83.2683 559.308 83.0878 559.437 83.0574 559.63C83.0269 559.823 83.1588 560.004 83.3518 560.035C83.4053 560.039 85.6188 560.401 85.6683 560.396Z" fill="#E1A3D8"/>
<path d="M87.7877 562.532C88.7604 562.676 88.9313 561.586 88.0913 561.797C87.811 561.919 86.5796 561.74 84.4288 561.266C84.1751 561.21 83.98 561.167 83.8773 561.149C83.4267 561.058 83.2983 561.77 83.751 561.844C85.2501 562.184 87.2662 562.574 87.7877 562.532Z" fill="#E1A3D8"/>
<path d="M88.0785 563.997C88.6353 564.014 89.1114 563.859 88.8541 563.366C88.741 563.221 88.5375 563.188 88.3853 563.284C88.0047 563.399 85.8606 563.047 84.0699 562.651C83.6255 562.546 83.4664 563.25 83.9175 563.342C85.8902 563.778 87.2822 563.997 88.0785 563.997Z" fill="#E1A3D8"/>
<path d="M87.8563 565.94C88.4411 566.041 88.4844 565.131 87.8943 565.232C87.5644 565.302 85.7377 564.81 84.2296 564.315C84.0447 564.253 83.8441 564.356 83.7833 564.541C83.4068 565.204 87.349 565.906 87.8563 565.94Z" fill="#E1A3D8"/>
<path fill-rule="evenodd" clip-rule="evenodd" d="M100.773 556.381C105.067 555.23 105.43 564.012 102.82 564.633C101.864 565.143 100.908 565.845 100.207 563.805C99.5055 561.765 97.8344 557.114 100.773 556.381Z" fill="#E1A3D8"/>
<path fill-rule="evenodd" clip-rule="evenodd" d="M102.781 560.953C102.729 558.898 101.746 557.64 100.905 557.427C100.062 557.214 98.2777 558.234 97.6404 558.744C97.0031 559.254 97.4708 560.146 97.4708 560.146C97.4708 560.146 96.7226 560.427 95.7283 560.74C94.7672 561.045 95.388 562.058 95.6862 562.142C94.9215 562.695 94.9215 564.225 95.8137 564.182C95.2185 565.159 95.8137 565.924 96.5351 565.797C97.2578 565.669 98.2356 565.278 98.2356 565.278C95.4523 567.183 103.007 566.942 102.781 560.953Z" fill="#E1A3D8"/>
<path d="M98.2362 565.629C98.6752 565.501 100.104 565.038 99.8748 564.563C99.683 564.085 99.0725 564.52 98.8317 564.638C98.6301 564.748 98.456 564.844 98.1386 564.935C97.7498 565.035 97.8414 565.642 98.2362 565.629Z" fill="#E1A3D8"/>
<path d="M97.4718 560.495C97.5597 560.527 99.1643 559.755 99.7723 559.536C99.9548 559.466 100.046 559.262 99.9767 559.079C99.907 558.897 99.7023 558.805 99.5202 558.875C98.9818 559.08 97.3947 559.788 97.3274 559.818C96.981 559.959 97.1048 560.508 97.4718 560.495Z" fill="#E1A3D8"/>
<path d="M95.8023 562.503C96.5105 562.545 98.9075 561.595 99.2066 561.504C99.3902 561.437 99.4848 561.234 99.418 561.051C99.2944 560.402 97.3106 561.564 96.425 561.695C95.6428 561.954 95.6294 561.532 95.3342 562.055C95.2801 562.338 95.5123 562.525 95.8023 562.503Z" fill="#E1A3D8"/>
<path d="M95.8136 564.531C96.4383 564.514 97.8298 563.937 99.1744 563.355C99.5972 563.178 99.3121 562.517 98.8931 562.705C98.1951 563.007 96.391 563.795 95.7999 563.824C95.3504 563.834 95.3637 564.539 95.8136 564.531Z" fill="#E1A3D8"/>
<defs>
<filter id="filter0_d_2096_4097" x="6" y="10" width="172" height="172" filterUnits="userSpaceOnUse" color-interpolation-filters="sRGB">
<feFlood flood-opacity="0" result="BackgroundImageFix"/>
<feColorMatrix in="SourceAlpha" type="matrix" values="0 0 0 0 0 0 0 0 0 0 0 0 0 0 0 0 0 0 127 0" result="hardAlpha"/>
<feOffset dy="4"/>
<feGaussianBlur stdDeviation="2"/>
<feComposite in2="hardAlpha" operator="out"/>
<feColorMatrix type="matrix" values="0 0 0 0 0 0 0 0 0 0 0 0 0 0 0 0 0 0 0.25 0"/>
<feBlend mode="normal" in2="BackgroundImageFix" result="effect1_dropShadow_2096_4097"/>
<feBlend mode="normal" in="SourceGraphic" in2="effect1_dropShadow_2096_4097" result="shape"/>
</filter>
<filter id="filter1_d_2096_4097" x="6" y="234" width="172" height="172" filterUnits="userSpaceOnUse" color-interpolation-filters="sRGB">
<feFlood flood-opacity="0" result="BackgroundImageFix"/>
<feColorMatrix in="SourceAlpha" type="matrix" values="0 0 0 0 0 0 0 0 0 0 0 0 0 0 0 0 0 0 127 0" result="hardAlpha"/>
<feOffset dy="4"/>
<feGaussianBlur stdDeviation="2"/>
<feComposite in2="hardAlpha" operator="out"/>
<feColorMatrix type="matrix" values="0 0 0 0 0 0 0 0 0 0 0 0 0 0 0 0 0 0 0.25 0"/>
<feBlend mode="normal" in2="BackgroundImageFix" result="effect1_dropShadow_2096_4097"/>
<feBlend mode="normal" in="SourceGraphic" in2="effect1_dropShadow_2096_4097" result="shape"/>
</filter>
<filter id="filter2_d_2096_4097" x="6" y="458" width="172" height="172" filterUnits="userSpaceOnUse" color-interpolation-filters="sRGB">
<feFlood flood-opacity="0" result="BackgroundImageFix"/>
<feColorMatrix in="SourceAlpha" type="matrix" values="0 0 0 0 0 0 0 0 0 0 0 0 0 0 0 0 0 0 127 0" result="hardAlpha"/>
<feOffset dy="4"/>
<feGaussianBlur stdDeviation="2"/>
<feComposite in2="hardAlpha" operator="out"/>
<feColorMatrix type="matrix" values="0 0 0 0 0 0 0 0 0 0 0 0 0 0 0 0 0 0 0.25 0"/>
<feBlend mode="normal" in2="BackgroundImageFix" result="effect1_dropShadow_2096_4097"/>
<feBlend mode="normal" in="SourceGraphic" in2="effect1_dropShadow_2096_4097" result="shape"/>
</filter>
</defs>
</svg>
