<svg width="1136" height="48" viewBox="0 0 1136 48" fill="none" xmlns="http://www.w3.org/2000/svg">
<g id="desenvolvimento-motor-6-7-8-a-10">
<g id="Botao_primario">
<rect width="362.667" height="48" rx="12" fill="#7B6EB9"/>
<path id="Avan&#195;&#167;ar" d="M150.751 25.916C150.751 25.0762 150.81 24.2493 150.927 23.4355C151.05 22.6217 151.259 21.86 151.552 21.1504C151.845 20.4408 152.248 19.8158 152.763 19.2754C153.284 18.735 153.938 18.3118 154.726 18.0059C155.513 17.6934 156.461 17.5371 157.567 17.5371C157.854 17.5371 158.176 17.5501 158.534 17.5762C158.892 17.6022 159.188 17.6445 159.423 17.7031V19.6074C159.169 19.5358 158.889 19.4805 158.583 19.4414C158.284 19.4023 157.984 19.3828 157.685 19.3828C156.487 19.3828 155.552 19.6107 154.882 20.0664C154.211 20.5156 153.733 21.1341 153.446 21.9219C153.16 22.7031 152.994 23.5983 152.948 24.6074H153.065C153.261 24.2819 153.505 23.9922 153.798 23.7383C154.091 23.4844 154.449 23.2826 154.872 23.1328C155.295 22.9766 155.787 22.8984 156.347 22.8984C157.18 22.8984 157.906 23.0742 158.524 23.4258C159.143 23.7708 159.618 24.2721 159.95 24.9297C160.289 25.5872 160.458 26.3848 160.458 27.3223C160.458 28.3314 160.266 29.2005 159.882 29.9297C159.504 30.6589 158.964 31.2188 158.261 31.6094C157.564 32 156.734 32.1953 155.771 32.1953C155.061 32.1953 154.4 32.0651 153.788 31.8047C153.183 31.5443 152.652 31.1536 152.196 30.6328C151.741 30.112 151.386 29.4609 151.132 28.6797C150.878 27.8919 150.751 26.9707 150.751 25.916ZM155.731 30.3008C156.474 30.3008 157.069 30.0599 157.519 29.5781C157.974 29.0898 158.202 28.3444 158.202 27.3418C158.202 26.528 158 25.8835 157.597 25.4082C157.2 24.9329 156.601 24.6953 155.8 24.6953C155.253 24.6953 154.774 24.8125 154.364 25.0469C153.954 25.2812 153.635 25.5775 153.407 25.9355C153.186 26.2936 153.075 26.6582 153.075 27.0293C153.075 27.4069 153.131 27.7878 153.241 28.1719C153.352 28.556 153.518 28.9108 153.739 29.2363C153.961 29.5553 154.237 29.8125 154.569 30.0078C154.901 30.2031 155.289 30.3008 155.731 30.3008ZM172.353 20.9844C173.72 20.9844 174.752 21.2871 175.448 21.8926C176.151 22.498 176.503 23.4421 176.503 24.7246V32H174.872L174.433 30.4668H174.354C174.049 30.8574 173.733 31.1797 173.407 31.4336C173.082 31.6875 172.704 31.8763 172.274 32C171.851 32.1302 171.334 32.1953 170.722 32.1953C170.077 32.1953 169.501 32.0781 168.993 31.8438C168.485 31.6029 168.085 31.2383 167.792 30.75C167.499 30.2617 167.353 29.6432 167.353 28.8945C167.353 27.7812 167.766 26.9447 168.593 26.3848C169.426 25.8249 170.683 25.5156 172.362 25.457L174.237 25.3887V24.8223C174.237 24.0736 174.062 23.5397 173.71 23.2207C173.365 22.9017 172.877 22.7422 172.245 22.7422C171.705 22.7422 171.181 22.8203 170.673 22.9766C170.165 23.1328 169.67 23.3249 169.188 23.5527L168.446 21.9316C168.974 21.6517 169.573 21.4238 170.243 21.248C170.92 21.0723 171.623 20.9844 172.353 20.9844ZM174.228 26.834L172.831 26.8828C171.685 26.9219 170.881 27.1172 170.419 27.4688C169.957 27.8203 169.726 28.3021 169.726 28.9141C169.726 29.4479 169.885 29.8385 170.204 30.0859C170.523 30.3268 170.943 30.4473 171.464 30.4473C172.258 30.4473 172.916 30.2227 173.437 29.7734C173.964 29.3177 174.228 28.6504 174.228 27.7715V26.834ZM185.351 20.9844C186.568 20.9844 187.515 21.3001 188.192 21.9316C188.876 22.5566 189.218 23.5625 189.218 24.9492V32H186.923V25.3789C186.923 24.5391 186.75 23.9108 186.405 23.4941C186.06 23.071 185.526 22.8594 184.804 22.8594C183.756 22.8594 183.026 23.1816 182.616 23.8262C182.213 24.4707 182.011 25.4049 182.011 26.6289V32H179.716V21.1895H181.503L181.825 22.6543H181.952C182.187 22.2767 182.476 21.9674 182.821 21.7266C183.173 21.4792 183.563 21.2936 183.993 21.1699C184.429 21.0462 184.882 20.9844 185.351 20.9844ZM202.001 26.5703C202.001 27.4688 201.884 28.2663 201.649 28.9629C201.415 29.6595 201.073 30.2487 200.624 30.7305C200.175 31.2057 199.634 31.5703 199.003 31.8242C198.371 32.0716 197.659 32.1953 196.864 32.1953C196.122 32.1953 195.442 32.0716 194.823 31.8242C194.205 31.5703 193.668 31.2057 193.212 30.7305C192.763 30.2487 192.414 29.6595 192.167 28.9629C191.92 28.2663 191.796 27.4688 191.796 26.5703C191.796 25.3789 192.001 24.3698 192.411 23.543C192.828 22.7096 193.42 22.0749 194.188 21.6387C194.957 21.2025 195.871 20.9844 196.933 20.9844C197.929 20.9844 198.808 21.2025 199.569 21.6387C200.331 22.0749 200.927 22.7096 201.356 23.543C201.786 24.3763 202.001 25.3854 202.001 26.5703ZM194.159 26.5703C194.159 27.3581 194.254 28.0319 194.442 28.5918C194.638 29.1517 194.937 29.5814 195.341 29.8809C195.744 30.1738 196.265 30.3203 196.903 30.3203C197.541 30.3203 198.062 30.1738 198.466 29.8809C198.869 29.5814 199.166 29.1517 199.354 28.5918C199.543 28.0319 199.638 27.3581 199.638 26.5703C199.638 25.7826 199.543 25.1152 199.354 24.5684C199.166 24.015 198.869 23.5951 198.466 23.3086C198.062 23.0156 197.538 22.8691 196.894 22.8691C195.943 22.8691 195.25 23.1882 194.813 23.8262C194.377 24.4642 194.159 25.3789 194.159 26.5703ZM211.903 28.9141C211.903 29.6237 211.731 30.2227 211.386 30.7109C211.041 31.1992 210.536 31.5703 209.872 31.8242C209.215 32.0716 208.407 32.1953 207.45 32.1953C206.695 32.1953 206.044 32.14 205.497 32.0293C204.957 31.9251 204.446 31.7624 203.964 31.541V29.5586C204.478 29.7995 205.054 30.0078 205.692 30.1836C206.337 30.3594 206.946 30.4473 207.519 30.4473C208.274 30.4473 208.817 30.3301 209.149 30.0957C209.481 29.8548 209.647 29.5358 209.647 29.1387C209.647 28.9043 209.579 28.696 209.442 28.5137C209.312 28.3249 209.065 28.1328 208.7 27.9375C208.342 27.7357 207.815 27.4948 207.118 27.2148C206.435 26.9414 205.858 26.668 205.39 26.3945C204.921 26.1211 204.566 25.7923 204.325 25.4082C204.084 25.0176 203.964 24.5195 203.964 23.9141C203.964 22.957 204.341 22.2311 205.097 21.7363C205.858 21.235 206.864 20.9844 208.114 20.9844C208.778 20.9844 209.403 21.0527 209.989 21.1895C210.582 21.3197 211.161 21.5117 211.728 21.7656L211.005 23.4941C210.517 23.2793 210.025 23.1035 209.53 22.9668C209.042 22.8236 208.544 22.752 208.036 22.752C207.444 22.752 206.991 22.8431 206.679 23.0254C206.373 23.2077 206.22 23.4681 206.22 23.8066C206.22 24.0605 206.295 24.2754 206.444 24.4512C206.594 24.627 206.851 24.8027 207.216 24.9785C207.587 25.1543 208.101 25.3724 208.759 25.6328C209.403 25.8802 209.96 26.1406 210.429 26.4141C210.904 26.681 211.269 27.0098 211.522 27.4004C211.776 27.791 211.903 28.2956 211.903 28.9141Z" fill="white"/>
</g>
<g id="Botao_primario_2">
<rect x="386.667" width="362.667" height="48" rx="12" fill="#7B6EB9"/>
<path id="Avan&#195;&#167;ar_2" d="M539.029 32L544.635 19.7344H537.223V17.7227H547.105V19.2949L541.5 32H539.029ZM559.02 20.9844C560.387 20.9844 561.419 21.2871 562.115 21.8926C562.818 22.498 563.17 23.4421 563.17 24.7246V32H561.539L561.1 30.4668H561.021C560.715 30.8574 560.4 31.1797 560.074 31.4336C559.749 31.6875 559.371 31.8763 558.941 32C558.518 32.1302 558.001 32.1953 557.389 32.1953C556.744 32.1953 556.168 32.0781 555.66 31.8438C555.152 31.6029 554.752 31.2383 554.459 30.75C554.166 30.2617 554.02 29.6432 554.02 28.8945C554.02 27.7812 554.433 26.9447 555.26 26.3848C556.093 25.8249 557.35 25.5156 559.029 25.457L560.904 25.3887V24.8223C560.904 24.0736 560.729 23.5397 560.377 23.2207C560.032 22.9017 559.544 22.7422 558.912 22.7422C558.372 22.7422 557.848 22.8203 557.34 22.9766C556.832 23.1328 556.337 23.3249 555.855 23.5527L555.113 21.9316C555.641 21.6517 556.24 21.4238 556.91 21.248C557.587 21.0723 558.29 20.9844 559.02 20.9844ZM560.895 26.834L559.498 26.8828C558.352 26.9219 557.548 27.1172 557.086 27.4688C556.624 27.8203 556.393 28.3021 556.393 28.9141C556.393 29.4479 556.552 29.8385 556.871 30.0859C557.19 30.3268 557.61 30.4473 558.131 30.4473C558.925 30.4473 559.583 30.2227 560.104 29.7734C560.631 29.3177 560.895 28.6504 560.895 27.7715V26.834ZM572.018 20.9844C573.235 20.9844 574.182 21.3001 574.859 21.9316C575.543 22.5566 575.885 23.5625 575.885 24.9492V32H573.59V25.3789C573.59 24.5391 573.417 23.9108 573.072 23.4941C572.727 23.071 572.193 22.8594 571.471 22.8594C570.423 22.8594 569.693 23.1816 569.283 23.8262C568.88 24.4707 568.678 25.4049 568.678 26.6289V32H566.383V21.1895H568.17L568.492 22.6543H568.619C568.854 22.2767 569.143 21.9674 569.488 21.7266C569.84 21.4792 570.23 21.2936 570.66 21.1699C571.096 21.0462 571.549 20.9844 572.018 20.9844ZM588.668 26.5703C588.668 27.4688 588.551 28.2663 588.316 28.9629C588.082 29.6595 587.74 30.2487 587.291 30.7305C586.842 31.2057 586.301 31.5703 585.67 31.8242C585.038 32.0716 584.326 32.1953 583.531 32.1953C582.789 32.1953 582.109 32.0716 581.49 31.8242C580.872 31.5703 580.335 31.2057 579.879 30.7305C579.43 30.2487 579.081 29.6595 578.834 28.9629C578.587 28.2663 578.463 27.4688 578.463 26.5703C578.463 25.3789 578.668 24.3698 579.078 23.543C579.495 22.7096 580.087 22.0749 580.855 21.6387C581.624 21.2025 582.538 20.9844 583.6 20.9844C584.596 20.9844 585.475 21.2025 586.236 21.6387C586.998 22.0749 587.594 22.7096 588.023 23.543C588.453 24.3763 588.668 25.3854 588.668 26.5703ZM580.826 26.5703C580.826 27.3581 580.921 28.0319 581.109 28.5918C581.305 29.1517 581.604 29.5814 582.008 29.8809C582.411 30.1738 582.932 30.3203 583.57 30.3203C584.208 30.3203 584.729 30.1738 585.133 29.8809C585.536 29.5814 585.833 29.1517 586.021 28.5918C586.21 28.0319 586.305 27.3581 586.305 26.5703C586.305 25.7826 586.21 25.1152 586.021 24.5684C585.833 24.015 585.536 23.5951 585.133 23.3086C584.729 23.0156 584.205 22.8691 583.561 22.8691C582.61 22.8691 581.917 23.1882 581.48 23.8262C581.044 24.4642 580.826 25.3789 580.826 26.5703ZM598.57 28.9141C598.57 29.6237 598.398 30.2227 598.053 30.7109C597.708 31.1992 597.203 31.5703 596.539 31.8242C595.882 32.0716 595.074 32.1953 594.117 32.1953C593.362 32.1953 592.711 32.14 592.164 32.0293C591.624 31.9251 591.113 31.7624 590.631 31.541V29.5586C591.145 29.7995 591.721 30.0078 592.359 30.1836C593.004 30.3594 593.613 30.4473 594.186 30.4473C594.941 30.4473 595.484 30.3301 595.816 30.0957C596.148 29.8548 596.314 29.5358 596.314 29.1387C596.314 28.9043 596.246 28.696 596.109 28.5137C595.979 28.3249 595.732 28.1328 595.367 27.9375C595.009 27.7357 594.482 27.4948 593.785 27.2148C593.102 26.9414 592.525 26.668 592.057 26.3945C591.588 26.1211 591.233 25.7923 590.992 25.4082C590.751 25.0176 590.631 24.5195 590.631 23.9141C590.631 22.957 591.008 22.2311 591.764 21.7363C592.525 21.235 593.531 20.9844 594.781 20.9844C595.445 20.9844 596.07 21.0527 596.656 21.1895C597.249 21.3197 597.828 21.5117 598.395 21.7656L597.672 23.4941C597.184 23.2793 596.692 23.1035 596.197 22.9668C595.709 22.8236 595.211 22.752 594.703 22.752C594.111 22.752 593.658 22.8431 593.346 23.0254C593.04 23.2077 592.887 23.4681 592.887 23.8066C592.887 24.0605 592.962 24.2754 593.111 24.4512C593.261 24.627 593.518 24.8027 593.883 24.9785C594.254 25.1543 594.768 25.3724 595.426 25.6328C596.07 25.8802 596.627 26.1406 597.096 26.4141C597.571 26.681 597.936 27.0098 598.189 27.4004C598.443 27.791 598.57 28.2956 598.57 28.9141Z" fill="white"/>
</g>
<g id="Botao_primario_3">
<rect x="773.333" width="362.667" height="48" rx="12" fill="#7B6EB9"/>
<path id="Avan&#195;&#167;ar_3" d="M906.379 17.5273C907.206 17.5273 907.951 17.6576 908.615 17.918C909.279 18.1719 909.807 18.5527 910.197 19.0605C910.588 19.5684 910.783 20.1966 910.783 20.9453C910.783 21.5247 910.663 22.0293 910.422 22.459C910.188 22.8887 909.868 23.2663 909.465 23.5918C909.061 23.9108 908.609 24.194 908.107 24.4414C908.667 24.7148 909.182 25.0306 909.65 25.3887C910.126 25.7402 910.507 26.1536 910.793 26.6289C911.086 27.1042 911.232 27.6608 911.232 28.2988C911.232 29.0996 911.027 29.793 910.617 30.3789C910.214 30.9583 909.65 31.4076 908.928 31.7266C908.205 32.0391 907.362 32.1953 906.398 32.1953C905.363 32.1953 904.481 32.0423 903.752 31.7363C903.023 31.4303 902.469 30.9941 902.092 30.4277C901.714 29.8548 901.525 29.1712 901.525 28.377C901.525 27.7194 901.656 27.1497 901.916 26.668C902.176 26.1862 902.525 25.7695 902.961 25.418C903.404 25.0664 903.889 24.7702 904.416 24.5293C903.967 24.2624 903.557 23.9629 903.186 23.6309C902.814 23.2923 902.518 22.9049 902.297 22.4688C902.082 22.026 901.975 21.515 901.975 20.9355C901.975 20.1934 902.173 19.5716 902.57 19.0703C902.967 18.5625 903.498 18.1784 904.162 17.918C904.833 17.6576 905.572 17.5273 906.379 17.5273ZM903.713 28.2891C903.713 28.9141 903.934 29.4284 904.377 29.832C904.82 30.2357 905.48 30.4375 906.359 30.4375C907.232 30.4375 907.896 30.2389 908.352 29.8418C908.807 29.4447 909.035 28.9206 909.035 28.2695C909.035 27.8529 908.918 27.485 908.684 27.166C908.456 26.847 908.146 26.5638 907.756 26.3164C907.372 26.0625 906.945 25.8281 906.477 25.6133L906.164 25.4863C905.656 25.7012 905.22 25.9453 904.855 26.2188C904.491 26.4857 904.208 26.7884 904.006 27.127C903.811 27.4655 903.713 27.8529 903.713 28.2891ZM906.359 19.2949C905.728 19.2949 905.207 19.4512 904.797 19.7637C904.393 20.0697 904.191 20.5124 904.191 21.0918C904.191 21.502 904.289 21.8535 904.484 22.1465C904.686 22.4395 904.956 22.6934 905.295 22.9082C905.633 23.1165 906.008 23.3118 906.418 23.4941C906.815 23.3184 907.173 23.1263 907.492 22.918C907.818 22.7031 908.075 22.4492 908.264 22.1562C908.459 21.8568 908.557 21.4987 908.557 21.082C908.557 20.5091 908.352 20.0697 907.941 19.7637C907.538 19.4512 907.01 19.2949 906.359 19.2949ZM923.186 20.9844C924.553 20.9844 925.585 21.2871 926.281 21.8926C926.984 22.498 927.336 23.4421 927.336 24.7246V32H925.705L925.266 30.4668H925.188C924.882 30.8574 924.566 31.1797 924.24 31.4336C923.915 31.6875 923.537 31.8763 923.107 32C922.684 32.1302 922.167 32.1953 921.555 32.1953C920.91 32.1953 920.334 32.0781 919.826 31.8438C919.318 31.6029 918.918 31.2383 918.625 30.75C918.332 30.2617 918.186 29.6432 918.186 28.8945C918.186 27.7812 918.599 26.9447 919.426 26.3848C920.259 25.8249 921.516 25.5156 923.195 25.457L925.07 25.3887V24.8223C925.07 24.0736 924.895 23.5397 924.543 23.2207C924.198 22.9017 923.71 22.7422 923.078 22.7422C922.538 22.7422 922.014 22.8203 921.506 22.9766C920.998 23.1328 920.503 23.3249 920.021 23.5527L919.279 21.9316C919.807 21.6517 920.406 21.4238 921.076 21.248C921.753 21.0723 922.456 20.9844 923.186 20.9844ZM925.061 26.834L923.664 26.8828C922.518 26.9219 921.714 27.1172 921.252 27.4688C920.79 27.8203 920.559 28.3021 920.559 28.9141C920.559 29.4479 920.718 29.8385 921.037 30.0859C921.356 30.3268 921.776 30.4473 922.297 30.4473C923.091 30.4473 923.749 30.2227 924.27 29.7734C924.797 29.3177 925.061 28.6504 925.061 27.7715V26.834ZM941.75 32H939.445V22.8105C939.445 22.5046 939.449 22.1986 939.455 21.8926C939.462 21.5866 939.468 21.2871 939.475 20.9941C939.488 20.7012 939.504 20.4212 939.523 20.1543C939.387 20.304 939.217 20.4668 939.016 20.6426C938.82 20.8184 938.612 21.0007 938.391 21.1895L936.75 22.498L935.598 21.043L939.836 17.7227H941.75V32ZM956.115 24.8516C956.115 26.0039 956.024 27.0358 955.842 27.9473C955.666 28.8522 955.386 29.6204 955.002 30.252C954.618 30.8835 954.117 31.3652 953.498 31.6973C952.88 32.0293 952.131 32.1953 951.252 32.1953C950.152 32.1953 949.243 31.9056 948.527 31.3262C947.811 30.7402 947.281 29.9004 946.936 28.8066C946.59 27.7064 946.418 26.388 946.418 24.8516C946.418 23.3151 946.574 22 946.887 20.9062C947.206 19.806 947.72 18.9629 948.43 18.377C949.139 17.791 950.08 17.498 951.252 17.498C952.359 17.498 953.27 17.791 953.986 18.377C954.709 18.9564 955.243 19.7962 955.588 20.8965C955.939 21.9902 956.115 23.3086 956.115 24.8516ZM948.732 24.8516C948.732 26.056 948.811 27.0618 948.967 27.8691C949.13 28.6764 949.396 29.2819 949.768 29.6855C950.139 30.0827 950.633 30.2812 951.252 30.2812C951.87 30.2812 952.365 30.0827 952.736 29.6855C953.107 29.2884 953.374 28.6862 953.537 27.8789C953.706 27.0716 953.791 26.0625 953.791 24.8516C953.791 23.6536 953.71 22.651 953.547 21.8438C953.384 21.0365 953.117 20.431 952.746 20.0273C952.375 19.6172 951.877 19.4121 951.252 19.4121C950.627 19.4121 950.129 19.6172 949.758 20.0273C949.393 20.431 949.13 21.0365 948.967 21.8438C948.811 22.651 948.732 23.6536 948.732 24.8516ZM968.068 20.9844C969.436 20.9844 970.467 21.2871 971.164 21.8926C971.867 22.498 972.219 23.4421 972.219 24.7246V32H970.588L970.148 30.4668H970.07C969.764 30.8574 969.449 31.1797 969.123 31.4336C968.798 31.6875 968.42 31.8763 967.99 32C967.567 32.1302 967.049 32.1953 966.438 32.1953C965.793 32.1953 965.217 32.0781 964.709 31.8438C964.201 31.6029 963.801 31.2383 963.508 30.75C963.215 30.2617 963.068 29.6432 963.068 28.8945C963.068 27.7812 963.482 26.9447 964.309 26.3848C965.142 25.8249 966.398 25.5156 968.078 25.457L969.953 25.3887V24.8223C969.953 24.0736 969.777 23.5397 969.426 23.2207C969.081 22.9017 968.592 22.7422 967.961 22.7422C967.421 22.7422 966.896 22.8203 966.389 22.9766C965.881 23.1328 965.386 23.3249 964.904 23.5527L964.162 21.9316C964.689 21.6517 965.288 21.4238 965.959 21.248C966.636 21.0723 967.339 20.9844 968.068 20.9844ZM969.943 26.834L968.547 26.8828C967.401 26.9219 966.597 27.1172 966.135 27.4688C965.673 27.8203 965.441 28.3021 965.441 28.9141C965.441 29.4479 965.601 29.8385 965.92 30.0859C966.239 30.3268 966.659 30.4473 967.18 30.4473C967.974 30.4473 968.632 30.2227 969.152 29.7734C969.68 29.3177 969.943 28.6504 969.943 27.7715V26.834ZM981.066 20.9844C982.284 20.9844 983.231 21.3001 983.908 21.9316C984.592 22.5566 984.934 23.5625 984.934 24.9492V32H982.639V25.3789C982.639 24.5391 982.466 23.9108 982.121 23.4941C981.776 23.071 981.242 22.8594 980.52 22.8594C979.471 22.8594 978.742 23.1816 978.332 23.8262C977.928 24.4707 977.727 25.4049 977.727 26.6289V32H975.432V21.1895H977.219L977.541 22.6543H977.668C977.902 22.2767 978.192 21.9674 978.537 21.7266C978.889 21.4792 979.279 21.2936 979.709 21.1699C980.145 21.0462 980.598 20.9844 981.066 20.9844ZM997.717 26.5703C997.717 27.4688 997.6 28.2663 997.365 28.9629C997.131 29.6595 996.789 30.2487 996.34 30.7305C995.891 31.2057 995.35 31.5703 994.719 31.8242C994.087 32.0716 993.374 32.1953 992.58 32.1953C991.838 32.1953 991.158 32.0716 990.539 31.8242C989.921 31.5703 989.383 31.2057 988.928 30.7305C988.479 30.2487 988.13 29.6595 987.883 28.9629C987.635 28.2663 987.512 27.4688 987.512 26.5703C987.512 25.3789 987.717 24.3698 988.127 23.543C988.544 22.7096 989.136 22.0749 989.904 21.6387C990.673 21.2025 991.587 20.9844 992.648 20.9844C993.645 20.9844 994.523 21.2025 995.285 21.6387C996.047 22.0749 996.643 22.7096 997.072 23.543C997.502 24.3763 997.717 25.3854 997.717 26.5703ZM989.875 26.5703C989.875 27.3581 989.969 28.0319 990.158 28.5918C990.354 29.1517 990.653 29.5814 991.057 29.8809C991.46 30.1738 991.981 30.3203 992.619 30.3203C993.257 30.3203 993.778 30.1738 994.182 29.8809C994.585 29.5814 994.882 29.1517 995.07 28.5918C995.259 28.0319 995.354 27.3581 995.354 26.5703C995.354 25.7826 995.259 25.1152 995.07 24.5684C994.882 24.015 994.585 23.5951 994.182 23.3086C993.778 23.0156 993.254 22.8691 992.609 22.8691C991.659 22.8691 990.965 23.1882 990.529 23.8262C990.093 24.4642 989.875 25.3789 989.875 26.5703ZM1007.62 28.9141C1007.62 29.6237 1007.45 30.2227 1007.1 30.7109C1006.76 31.1992 1006.25 31.5703 1005.59 31.8242C1004.93 32.0716 1004.12 32.1953 1003.17 32.1953C1002.41 32.1953 1001.76 32.14 1001.21 32.0293C1000.67 31.9251 1000.16 31.7624 999.68 31.541V29.5586C1000.19 29.7995 1000.77 30.0078 1001.41 30.1836C1002.05 30.3594 1002.66 30.4473 1003.23 30.4473C1003.99 30.4473 1004.53 30.3301 1004.87 30.0957C1005.2 29.8548 1005.36 29.5358 1005.36 29.1387C1005.36 28.9043 1005.29 28.696 1005.16 28.5137C1005.03 28.3249 1004.78 28.1328 1004.42 27.9375C1004.06 27.7357 1003.53 27.4948 1002.83 27.2148C1002.15 26.9414 1001.57 26.668 1001.11 26.3945C1000.64 26.1211 1000.28 25.7923 1000.04 25.4082C999.8 25.0176 999.68 24.5195 999.68 23.9141C999.68 22.957 1000.06 22.2311 1000.81 21.7363C1001.57 21.235 1002.58 20.9844 1003.83 20.9844C1004.49 20.9844 1005.12 21.0527 1005.71 21.1895C1006.3 21.3197 1006.88 21.5117 1007.44 21.7656L1006.72 23.4941C1006.23 23.2793 1005.74 23.1035 1005.25 22.9668C1004.76 22.8236 1004.26 22.752 1003.75 22.752C1003.16 22.752 1002.71 22.8431 1002.39 23.0254C1002.09 23.2077 1001.94 23.4681 1001.94 23.8066C1001.94 24.0605 1002.01 24.2754 1002.16 24.4512C1002.31 24.627 1002.57 24.8027 1002.93 24.9785C1003.3 25.1543 1003.82 25.3724 1004.47 25.6328C1005.12 25.8802 1005.68 26.1406 1006.14 26.4141C1006.62 26.681 1006.98 27.0098 1007.24 27.4004C1007.49 27.791 1007.62 28.2956 1007.62 28.9141Z" fill="white"/>
</g>
</g>
</svg>
