<svg width="809" height="826" viewBox="0 0 809 826" fill="none" xmlns="http://www.w3.org/2000/svg">
<g filter="url(#filter0_d_2096_3106)">
<rect x="4.5" width="800" height="818" rx="12" fill="#E8D6EC"/>
<rect x="28.5" y="22" width="364" height="254" rx="12" fill="#F1F1F4"/>
<rect x="416.5" y="22" width="364" height="254" rx="12" fill="#F1F1F4"/>
<path opacity="0.5" d="M147.695 250.665C147.695 254.579 128.817 257.752 105.53 257.752C82.2432 257.752 63.3652 254.579 63.3652 250.665C63.3652 246.751 82.2432 243.578 105.53 243.578C128.817 243.578 147.695 246.751 147.695 250.665Z" fill="#AA61B7"/>
<path d="M73.516 146.576C73.516 146.576 68.5389 138.885 66.5649 136.335C66.5649 136.335 66.97 134.908 66.894 132.674C66.834 130.912 66.128 129.56 65.506 129.469C64.727 129.356 63.971 130.778 63.531 132.037C63.531 132.037 62.6979 131.521 62.3489 131.271C62.3489 131.271 60.529 127.685 59.3 128.324C58.071 128.963 59.9229 132.602 59.9229 132.602C59.9229 132.602 57.6119 128.541 56.3579 129.265C55.1039 129.989 57.4139 134.05 57.4139 134.05C57.4139 134.05 55.028 130.366 53.86 131.11C52.692 131.854 55.072 135.535 55.072 135.535C55.072 135.535 52.884 132.31 51.801 133.068C50.718 133.826 52.906 137.052 52.906 137.052C54.775 140.372 56.5299 141.433 56.5299 141.433C57.3389 151.716 64.535 165.92 73.501 165.92C77.916 165.92 82.267 163.603 85.372 161.445C80.663 155.795 78.001 148.554 76.735 144.269C74.833 145.602 73.516 146.576 73.516 146.576Z" fill="#AA61B7"/>
<path opacity="0.5" d="M82.2145 159.981C81.8875 161.224 81.5806 162.533 81.2876 163.87C82.7886 163.132 84.1736 162.28 85.3716 161.447C80.6626 155.797 78.0006 148.556 76.7346 144.271C76.3726 144.524 76.0406 144.759 75.7266 144.982C76.4746 147.704 78.5595 154.436 82.2145 159.981Z" fill="#AA61B7"/>
<path opacity="0.5" d="M75.0236 145.482C74.0926 146.149 73.5156 146.576 73.5156 146.576C73.5156 146.576 75.8336 150.524 76.3276 153.897C76.3276 153.897 76.3246 149.45 75.0236 145.482Z" fill="#AA61B7"/>
<path d="M63.1869 133.004C63.1869 133.004 61.1099 134.608 61.4179 138.063L63.1869 133.004Z" fill="#AA61B7"/>
<path d="M137.543 146.576C137.543 146.576 142.52 138.885 144.494 136.335C144.494 136.335 144.09 134.908 144.165 132.674C144.225 130.912 144.931 129.56 145.553 129.469C146.332 129.356 147.088 130.778 147.528 132.037C147.528 132.037 148.361 131.521 148.71 131.271C148.71 131.271 150.53 127.685 151.759 128.324C152.988 128.963 151.136 132.602 151.136 132.602C151.136 132.602 153.447 128.541 154.701 129.265C155.955 129.989 153.645 134.05 153.645 134.05C153.645 134.05 156.031 130.366 157.199 131.11C158.367 131.854 155.987 135.535 155.987 135.535C155.987 135.535 158.175 132.31 159.258 133.068C160.341 133.826 158.153 137.052 158.153 137.052C156.284 140.372 154.529 141.433 154.529 141.433C153.72 151.716 146.524 165.92 137.558 165.92C133.143 165.92 128.792 163.603 125.687 161.445C130.396 155.795 133.058 148.554 134.324 144.269C136.225 145.602 137.543 146.576 137.543 146.576Z" fill="#AA61B7"/>
<path opacity="0.5" d="M128.844 159.981C129.171 161.224 129.478 162.533 129.771 163.87C128.271 163.132 126.885 162.28 125.687 161.447C130.396 155.797 133.058 148.556 134.324 144.271C134.686 144.524 135.018 144.759 135.332 144.982C134.584 147.704 132.498 154.436 128.844 159.981Z" fill="#AA61B7"/>
<path opacity="0.5" d="M136.034 145.482C136.965 146.149 137.542 146.576 137.542 146.576C137.542 146.576 135.224 150.524 134.73 153.897C134.73 153.897 134.733 149.45 136.034 145.482Z" fill="#AA61B7"/>
<path d="M147.87 133.004C147.87 133.004 149.947 134.608 149.639 138.063L147.87 133.004Z" fill="#AA61B7"/>
<path d="M121.218 136.723C123.902 137.2 130.79 141.431 134.73 144.19C133.464 148.475 130 156.652 125.686 161.446C122.981 159.566 121.217 157.805 121.217 157.805V136.723H121.218Z" fill="#AA61B7"/>
<path opacity="0.5" d="M124.38 146.748C124.38 146.748 126.413 151.375 128.302 158.003C127.476 159.255 126.602 160.43 125.687 161.447C122.982 159.567 121.218 157.806 121.218 157.806V146.748H124.38Z" fill="#AA61B7"/>
<path opacity="0.5" d="M121.236 139.28C121.231 139.285 121.224 139.288 121.219 139.293V136.723C121.494 136.772 121.822 136.869 122.177 136.991C122.163 137.595 122.017 138.58 121.236 139.28Z" fill="#AA61B7"/>
<path d="M89.8401 136.723C87.1561 137.2 80.2681 141.431 76.3281 144.19C77.5941 148.475 81.0581 156.652 85.3721 161.446C88.0771 159.566 89.8411 157.805 89.8411 157.805V136.723H89.8401Z" fill="#AA61B7"/>
<path opacity="0.5" d="M86.6779 146.748C86.6779 146.748 84.6449 151.375 82.7559 158.003C83.5819 159.255 84.4558 160.43 85.3708 161.447C88.0758 159.567 89.8398 157.806 89.8398 157.806V146.748H86.6779Z" fill="#AA61B7"/>
<path opacity="0.5" d="M89.8228 139.28C89.8278 139.285 89.8348 139.288 89.8398 139.293V136.723C89.5648 136.772 89.2368 136.869 88.8818 136.991C88.8958 137.595 89.0408 138.58 89.8228 139.28Z" fill="#AA61B7"/>
<path d="M86.989 245.505C83.816 245.368 81.566 244.914 80.262 244.572C80.304 244.672 80.347 244.779 80.388 244.877C80.388 244.877 78.321 245.833 76.469 248.302C76.469 248.302 75.062 248.799 74.853 249.511C74.559 250.509 76.36 251.995 78.214 250.992C78.214 250.992 80.06 251.763 83.716 251.113C88.311 250.296 90.036 252.126 92.923 250.715C95.699 249.358 94.994 245.505 94.994 245.505C95.031 245.327 95.055 245.158 95.09 244.981C93.524 245.29 90.747 245.667 86.989 245.505Z" fill="#AA61B7"/>
<path opacity="0.5" d="M76.0703 251.148C76.6783 251.383 77.4363 251.413 78.2143 250.992C78.2143 250.992 78.7203 251.196 79.7053 251.305C78.6443 250.948 78.1013 250.26 78.1013 250.26C77.6783 250.878 76.7833 251.083 76.0703 251.148Z" fill="#AA61B7"/>
<path opacity="0.5" d="M87.5668 250.493C86.3608 250.261 85.7648 250.435 83.9828 251.068C83.9618 251.075 83.9468 251.08 83.9268 251.088C86.7768 250.625 88.5168 251.162 90.1428 251.249C89.2508 251.112 88.7458 250.72 87.5668 250.493Z" fill="#AA61B7"/>
<path opacity="0.5" d="M95.0903 244.981C93.5243 245.29 90.7473 245.667 86.9893 245.505C83.8163 245.368 81.5663 244.914 80.2623 244.572C80.3043 244.671 80.3473 244.779 80.3883 244.877C80.3883 244.877 79.8043 245.154 78.9863 245.771C80.9603 246.407 86.6043 247.904 93.9673 247.071C93.9673 247.071 94.7063 248.27 94.2913 249.515C95.4143 247.84 94.9943 245.506 94.9943 245.506C95.0313 245.327 95.0553 245.158 95.0903 244.981Z" fill="#AA61B7"/>
<path d="M105.527 139.276C113.083 139.276 115.247 137.242 115.847 135.836L112.906 135.037V122.387H105.527H98.149V135.037L95.2061 135.836C95.8081 137.243 97.971 139.276 105.527 139.276Z" fill="#AA61B7"/>
<path opacity="0.5" d="M105.527 122.387H98.1494V134.923C100.538 135.143 103.008 135.247 105.527 135.247C108.047 135.247 110.516 135.142 112.905 134.923V122.387H105.527Z" fill="#AA61B7"/>
<path opacity="0.5" d="M96.069 135.602L95.207 135.836C95.359 136.193 95.615 136.591 96.032 136.985C96.118 136.528 96.125 136.058 96.069 135.602Z" fill="#AA61B7"/>
<path opacity="0.5" d="M115.024 136.985C115.44 136.591 115.695 136.194 115.847 135.837L114.987 135.604C114.932 136.058 114.939 136.528 115.024 136.985Z" fill="#AA61B7"/>
<path d="M82.3369 166.332C85.1579 149.659 89.7169 136.722 89.7169 136.722L95.2089 135.623C95.8099 137.029 97.9729 139.063 105.529 139.063C113.085 139.063 115.248 137.029 115.849 135.623L121.339 136.721C121.339 136.721 125.897 149.658 128.718 166.331C133.053 182.973 130.843 200.124 110.796 200.124H100.26C80.2139 200.125 78.0019 182.974 82.3369 166.332Z" fill="#AA61B7"/>
<path opacity="0.5" d="M118.302 139.906C118.61 139.957 118.902 139.982 119.178 139.982C120.023 139.982 120.712 139.747 121.235 139.28C121.549 138.999 121.736 138.668 121.879 138.333C121.544 137.305 121.34 136.723 121.34 136.723L115.85 135.625C115.694 135.99 115.429 136.397 114.995 136.8C115.193 138.223 116.121 139.553 118.302 139.906Z" fill="#AA61B7"/>
<path opacity="0.5" d="M91.8797 139.981C92.1557 139.981 92.4477 139.956 92.7557 139.905C94.9347 139.553 95.8627 138.22 96.0607 136.796C95.6287 136.394 95.3647 135.988 95.2087 135.623L89.7167 136.722C89.7167 136.722 89.5127 137.305 89.1777 138.332C89.3207 138.667 89.5077 138.998 89.8217 139.279C90.3457 139.746 91.0337 139.981 91.8797 139.981Z" fill="#AA61B7"/>
<path d="M121.184 136.481C121.277 136.5 121.348 136.576 121.353 136.671C121.384 137.296 121.296 139.53 118.425 139.064C115.629 138.611 115.713 136.347 115.812 135.631C115.829 135.509 115.943 135.432 116.063 135.456L121.184 136.481Z" fill="#AA61B7"/>
<path d="M89.8731 136.481C89.7801 136.5 89.709 136.576 89.704 136.671C89.673 137.296 89.7611 139.53 92.6321 139.064C95.4281 138.611 95.344 136.347 95.245 135.631C95.228 135.509 95.1151 135.432 94.9941 135.456L89.8731 136.481Z" fill="#AA61B7"/>
<path d="M100.26 183.098H80.6606C77.8686 191.432 75.7776 198.305 74.6096 206.373C74.2486 208.869 73.9696 211.469 73.7936 214.274C73.4756 219.361 74.1506 224.76 75.2806 229.845C76.5476 235.546 78.3876 240.851 80.0686 244.858C81.3726 245.2 83.8146 245.654 86.9876 245.791C90.7466 245.953 93.7196 245.576 95.2856 245.267C98.4116 229.404 94.5466 217.893 94.5466 217.893C98.0016 211.148 100.259 200.125 100.259 200.125V183.098H100.26Z" fill="#AA61B7"/>
<path d="M87.0347 241.665C83.2747 241.528 80.3077 241.047 78.4137 240.648C78.0927 240.58 77.8257 240.897 77.9367 241.206C78.4187 242.557 78.9097 243.89 79.4047 245.174C79.4807 245.371 79.6377 245.512 79.8447 245.559C80.8217 245.782 83.8887 246.43 86.9567 246.535C91.5547 246.693 94.4867 246.204 95.5117 245.992C95.7607 245.941 95.9527 245.739 96.0027 245.489C96.2547 244.208 96.4567 242.956 96.6227 241.731C96.6607 241.454 96.4237 241.222 96.1467 241.258C94.2357 241.51 90.9867 241.81 87.0347 241.665Z" fill="#AA61B7"/>
<path opacity="0.5" d="M80.6607 183.098C80.3657 183.979 80.0827 184.836 79.8037 185.688C80.1607 186.567 80.5567 187.471 80.8927 188.057H82.3937V183.098H80.6607Z" fill="#AA61B7"/>
<path opacity="0.5" d="M96.3145 200.631C96.3145 200.631 98.0825 201.31 99.3165 201.577C99.3165 201.577 98.7875 206.133 98.4035 207.515C99.5795 203.426 100.258 200.125 100.258 200.125V183.098H96.3145V200.631Z" fill="#AA61B7"/>
<path opacity="0.5" d="M93.8985 218.935C93.8985 218.935 95.5655 222.408 95.9445 224.555C95.3655 220.363 94.5475 217.894 94.5475 217.894C94.5475 217.894 92.1405 217.393 89.3955 217.393C89.3955 217.393 92.3875 218.164 93.8985 218.935Z" fill="#AA61B7"/>
<path d="M124.316 245.505C127.489 245.368 129.739 244.914 131.043 244.572C131.001 244.672 130.958 244.779 130.917 244.877C130.917 244.877 132.984 245.833 134.836 248.302C134.836 248.302 136.243 248.799 136.452 249.511C136.746 250.509 134.945 251.995 133.091 250.992C133.091 250.992 131.245 251.763 127.589 251.113C122.994 250.296 121.269 252.126 118.382 250.715C115.606 249.358 116.31 245.505 116.31 245.505C116.274 245.327 116.249 245.158 116.215 244.981C117.781 245.29 120.557 245.667 124.316 245.505Z" fill="#AA61B7"/>
<path opacity="0.5" d="M135.235 251.148C134.627 251.383 133.869 251.413 133.091 250.992C133.091 250.992 132.585 251.196 131.6 251.305C132.662 250.948 133.204 250.26 133.204 250.26C133.627 250.878 134.522 251.083 135.235 251.148Z" fill="#AA61B7"/>
<path opacity="0.5" d="M123.737 250.493C124.943 250.261 125.539 250.435 127.321 251.068C127.342 251.075 127.357 251.08 127.377 251.088C124.527 250.625 122.787 251.162 121.161 251.249C122.053 251.112 122.559 250.72 123.737 250.493Z" fill="#AA61B7"/>
<path opacity="0.5" d="M116.215 244.981C117.781 245.29 120.558 245.667 124.316 245.505C127.489 245.368 129.739 244.914 131.043 244.572C131.001 244.671 130.958 244.779 130.917 244.877C130.917 244.877 131.501 245.154 132.319 245.771C130.345 246.407 124.701 247.904 117.338 247.071C117.338 247.071 116.599 248.27 117.014 249.515C115.891 247.84 116.311 245.506 116.311 245.506C116.274 245.327 116.25 245.158 116.215 244.981Z" fill="#AA61B7"/>
<path d="M111.045 183.098H130.644C133.436 191.432 135.527 198.305 136.695 206.373C137.056 208.869 137.335 211.469 137.511 214.274C137.829 219.361 137.154 224.76 136.024 229.845C134.757 235.546 132.918 240.851 131.236 244.858C129.932 245.2 127.49 245.654 124.317 245.791C120.558 245.953 117.585 245.576 116.019 245.267C112.893 229.404 116.758 217.893 116.758 217.893C113.303 211.148 111.046 200.125 111.046 200.125V183.098H111.045Z" fill="#AA61B7"/>
<path d="M124.269 241.665C128.029 241.528 130.996 241.047 132.89 240.648C133.211 240.58 133.477 240.897 133.367 241.206C132.885 242.557 132.394 243.89 131.899 245.174C131.823 245.371 131.666 245.512 131.459 245.559C130.482 245.782 127.414 246.43 124.347 246.535C119.749 246.693 116.817 246.204 115.792 245.992C115.543 245.941 115.351 245.739 115.301 245.489C115.048 244.208 114.847 242.956 114.681 241.731C114.643 241.454 114.88 241.222 115.157 241.258C117.069 241.51 120.318 241.81 124.269 241.665Z" fill="#AA61B7"/>
<path opacity="0.5" d="M130.644 183.098C130.939 183.979 131.222 184.836 131.501 185.688C131.144 186.567 130.748 187.471 130.412 188.057H128.911V183.098H130.644Z" fill="#AA61B7"/>
<path opacity="0.5" d="M114.989 200.631C114.989 200.631 113.221 201.31 111.987 201.577C111.987 201.577 112.516 206.133 112.9 207.515C111.723 203.426 111.045 200.125 111.045 200.125V183.098H114.989V200.631Z" fill="#AA61B7"/>
<path opacity="0.5" d="M117.406 218.935C117.406 218.935 115.739 222.408 115.36 224.555C115.939 220.363 116.757 217.894 116.757 217.894C116.757 217.894 119.164 217.393 121.909 217.393C121.909 217.393 118.917 218.164 117.406 218.935Z" fill="#AA61B7"/>
<path d="M105.527 179.595C94.4948 179.595 85.6078 177.899 80.5908 176.664C80.2038 176.569 79.8268 176.856 79.8048 177.254C79.4278 184.285 80.8088 190.091 83.9138 194.108C87.3828 198.597 92.8828 200.872 100.261 200.872H110.797C118.175 200.872 123.675 198.597 127.142 194.108C130.25 190.087 131.632 184.274 131.254 177.252C131.233 176.854 130.855 176.567 130.468 176.663C125.452 177.898 116.563 179.595 105.527 179.595Z" fill="#AA61B7"/>
<path d="M137.342 120.569C141.18 121.087 143.582 118.708 144.566 115.086C147.507 112.742 150.139 115.333 153.47 111.919C156.131 109.192 155.814 104.721 152.894 101.213C153.552 97.8894 158.076 96.9074 155.794 90.1044C153.748 84.0054 145.573 83.0464 145.573 83.0464C145.573 83.0464 143.97 74.0354 135.23 65.0784C127.34 56.9934 116.167 55.7014 105.652 58.0444C95.1373 55.7014 83.9633 56.9934 76.0743 65.0784C67.3343 74.0344 65.7313 83.0464 65.7313 83.0464C65.7313 83.0464 57.5573 84.0044 55.5103 90.1044C53.2273 96.9074 57.7523 97.8884 58.4103 101.213C55.4903 104.722 55.1733 109.192 57.8343 111.919C61.1663 115.333 63.7983 112.742 66.7383 115.086C67.7213 118.709 70.1233 121.087 73.9623 120.569H137.342Z" fill="#AA61B7"/>
<path opacity="0.5" d="M153.47 111.92C154.995 110.357 155.511 108.218 155.15 106.018C155.453 110.459 149.256 110.702 149.256 110.702C150.027 107.802 150.305 103.761 146.88 101.386C143.456 99.0114 140.38 100.492 140.38 100.492C140.481 98.8574 140.38 96.4844 140.38 96.4844H70.921C70.921 96.4844 70.82 98.8574 70.921 100.492C70.921 100.492 67.845 99.0114 64.421 101.386C60.997 103.761 61.275 107.802 62.046 110.702C62.046 110.702 55.674 110.457 56.184 105.818C55.755 108.088 56.262 110.309 57.834 111.92C61.165 115.334 63.798 112.742 66.738 115.087C67.721 118.71 70.123 121.088 73.962 120.57H137.342C141.18 121.087 143.582 118.71 144.565 115.087C147.506 112.742 150.139 115.333 153.47 111.92Z" fill="#AA61B7"/>
<path opacity="0.5" d="M57.537 86.8633C56.677 87.7393 55.949 88.7973 55.51 90.1043C53.228 96.9073 57.752 97.8883 58.41 101.213C58.41 101.213 59.543 99.5313 58.355 96.4833C57.173 93.4513 55.407 89.9443 57.537 86.8633Z" fill="#AA61B7"/>
<path opacity="0.5" d="M153.864 86.959C155.891 90.016 154.116 93.482 152.947 96.482C151.759 99.53 152.895 101.212 152.895 101.212C153.553 97.888 158.077 96.906 155.795 90.103C155.372 88.846 154.682 87.817 153.864 86.959Z" fill="#AA61B7"/>
<path d="M136.458 104.633C136.458 104.633 137.644 102.072 140.369 101.351C144.661 100.217 149.091 104.083 147.26 110.418C145.901 115.119 141.221 117.034 138.383 115.995C136.055 115.142 135.509 112.691 135.509 112.691L136.458 104.633Z" fill="#AA61B7"/>
<path d="M145.576 108.515C145.92 106.288 143.861 103.441 141.277 104.12C137.374 105.145 136.615 109.995 136.615 109.995" fill="#AA61B7"/>
<path opacity="0.5" d="M140.369 101.35C142.286 100.843 144.226 101.34 145.628 102.603C143.903 102.534 141.126 103.071 140.166 107.005C140.166 107.005 140.161 112.054 139.214 116.177C138.929 116.131 138.641 116.088 138.382 115.993C136.054 115.14 135.508 112.689 135.508 112.689L136.457 104.632C136.457 104.632 137.644 102.071 140.369 101.35Z" fill="#AA61B7"/>
<path d="M74.8473 104.633C74.8473 104.633 73.6613 102.072 70.9363 101.351C66.6453 100.217 62.2143 104.083 64.0453 110.418C65.4043 115.119 70.0843 117.034 72.9223 115.995C75.2503 115.142 75.7963 112.691 75.7963 112.691L74.8473 104.633Z" fill="#AA61B7"/>
<path d="M65.7291 108.515C65.3851 106.288 67.4441 103.441 70.0281 104.12C73.9311 105.145 74.6901 109.995 74.6901 109.995" fill="#AA61B7"/>
<path opacity="0.5" d="M70.9367 101.35C69.0197 100.843 67.0787 101.34 65.6777 102.603C67.4027 102.534 70.1797 103.071 71.1397 107.005C71.1397 107.005 71.1447 112.054 72.0917 116.177C72.3767 116.131 72.6647 116.088 72.9237 115.993C75.2517 115.14 75.7977 112.689 75.7977 112.689L74.8488 104.632C74.8468 104.632 73.6617 102.071 70.9367 101.35Z" fill="#AA61B7"/>
<path d="M105.652 133.983C123.553 133.983 139.074 128.936 139.074 111.753C139.074 93.6405 141.272 84.0145 134.873 74.4125C128.817 65.3235 120.437 61.7285 105.651 61.7285C90.8647 61.7285 82.4877 65.3235 76.4317 74.4125C70.0327 84.0155 72.2307 93.6415 72.2307 111.753C72.2307 128.936 87.7497 133.983 105.652 133.983Z" fill="#AA61B7"/>
<path opacity="0.5" d="M139.177 104.556C139.526 90.9286 140.365 82.6536 134.873 74.4106C128.817 65.3216 120.437 61.7266 105.651 61.7266C90.8637 61.7266 82.4877 65.3216 76.4317 74.4106C70.9407 82.6506 71.7787 90.9256 72.1277 104.548L72.1297 104.556C81.7197 101.37 75.1627 95.3006 81.7597 88.1826C86.1297 83.4676 89.6067 84.7796 98.2727 83.1756C104.879 81.9526 105.654 75.4396 105.654 75.4396C105.654 75.4396 106.429 81.9526 113.035 83.1756C121.701 84.7796 125.178 83.4676 129.548 88.1826C136.145 95.3006 129.589 101.37 139.177 104.556Z" fill="#AA61B7"/>
<path d="M95.6891 103.235C94.5861 101.33 92.5271 100.049 90.1681 100.049C87.1981 100.049 84.7021 102.08 83.9941 104.829" fill="#AA61B7"/>
<path d="M90.1682 109.789C92.6132 109.789 94.5952 107.608 94.5952 104.919C94.5952 102.229 92.6132 100.049 90.1682 100.049C87.7232 100.049 85.7412 102.229 85.7412 104.919C85.7412 107.608 87.7232 109.789 90.1682 109.789Z" fill="#AA61B7"/>
<path d="M95.5334 96.2484C94.3964 94.5474 92.2734 93.4023 89.8414 93.4023C87.4094 93.4023 85.2864 94.5474 84.1494 96.2484" fill="#AA61B7"/>
<path d="M84.6482 103.235C84.6482 103.235 83.3282 102.61 82.4072 101.146L84.6482 103.235Z" fill="#AA61B7"/>
<path opacity="0.5" d="M78.8162 118.558C81.8726 118.558 84.3502 116.081 84.3502 113.024C84.3502 109.968 81.8726 107.49 78.8162 107.49C75.7599 107.49 73.2822 109.968 73.2822 113.024C73.2822 116.081 75.7599 118.558 78.8162 118.558Z" fill="#AA61B7"/>
<path d="M115.616 103.235C116.719 101.33 118.778 100.049 121.137 100.049C124.107 100.049 126.603 102.08 127.311 104.829" fill="#AA61B7"/>
<path d="M125.564 104.919C125.564 107.609 123.582 109.789 121.137 109.789C118.692 109.789 116.71 107.609 116.71 104.919C116.71 102.229 118.692 100.049 121.137 100.049C123.582 100.049 125.564 102.229 125.564 104.919Z" fill="#AA61B7"/>
<path d="M115.772 96.2484C116.909 94.5474 119.032 93.4023 121.464 93.4023C123.896 93.4023 126.019 94.5474 127.156 96.2484" fill="#AA61B7"/>
<path d="M126.657 103.235C126.657 103.235 127.977 102.61 128.898 101.146L126.657 103.235Z" fill="#AA61B7"/>
<path opacity="0.5" d="M132.489 118.558C135.545 118.558 138.023 116.081 138.023 113.024C138.023 109.968 135.545 107.49 132.489 107.49C129.433 107.49 126.955 109.968 126.955 113.024C126.955 116.081 129.433 118.558 132.489 118.558Z" fill="#AA61B7"/>
<path d="M111.897 118.864C112.109 118.593 111.876 118.204 111.538 118.266C110.492 118.459 108.347 118.782 105.652 118.782C102.958 118.782 100.814 118.46 99.7682 118.267C99.4302 118.204 99.1972 118.593 99.4092 118.865C99.9792 119.597 101.516 120.608 105.653 120.608C109.79 120.607 111.326 119.596 111.897 118.864Z" fill="#AA61B7"/>
<path d="M105.654 75.4418C105.654 75.4418 106.429 80.9008 113.035 82.1228C121.701 83.7268 125.178 82.4148 129.548 87.1298C136.145 94.2478 129.589 101.372 139.178 104.557C139.178 104.557 144.291 84.2828 134.987 70.5688C127.158 59.0288 113.525 59.1348 105.654 59.1348C97.7833 59.1348 84.1503 59.0288 76.3213 70.5688C67.0173 84.2828 72.1303 104.557 72.1303 104.557C81.7203 101.371 75.1633 94.2478 81.7603 87.1298C86.1303 82.4148 89.6073 83.7268 98.2733 82.1228C104.879 80.9008 105.654 75.4418 105.654 75.4418Z" fill="#AA61B7"/>
<g opacity="0.5">
<path d="M101.867 70.998C93.8059 79.489 84.0859 75.9501 79.0509 81.3501C72.0829 88.8221 73.5829 97.2231 70.9219 99.3011" fill="#AA61B7"/>
<path d="M101.867 65.3887C101.867 65.3887 101.127 68.3527 93.5588 72.1747C86.9298 75.5227 81.3368 78.4447 79.0508 81.3497" fill="#AA61B7"/>
<path d="M92.489 61.3574C85.89 61.7284 80.22 65.3884 76.031 70.5704C72.792 74.5774 69.418 84.0904 69.418 84.0904" fill="#AA61B7"/>
<path d="M81.1414 70.6953C75.5054 76.2473 73.7734 82.4613 71.5754 86.2643C69.8764 89.2043 63.5754 85.9153 59.9154 90.8073C56.6034 95.2343 59.9974 98.2693 61.1494 100.049" fill="#AA61B7"/>
<path d="M71.5761 89.6816C65.2411 93.0886 62.6051 95.2027 64.1921 99.2997C66.2281 104.558 60.1201 103.235 60.1201 107.895C60.1201 110.548 63.0811 111.901 63.0811 111.901" fill="#AA61B7"/>
<path d="M109.442 70.998C117.503 79.489 127.223 75.9501 132.258 81.3501C139.226 88.8221 137.726 97.2231 140.387 99.3011" fill="#AA61B7"/>
<path d="M109.442 65.3887C109.442 65.3887 110.182 68.3527 117.75 72.1747C124.379 75.5227 129.972 78.4447 132.258 81.3497" fill="#AA61B7"/>
<path d="M118.819 61.3574C125.418 61.7284 131.088 65.3884 135.277 70.5704C138.517 74.5774 141.89 84.0904 141.89 84.0904" fill="#AA61B7"/>
<path d="M130.166 70.6953C135.802 76.2473 137.534 82.4613 139.732 86.2643C141.431 89.2043 147.732 85.9153 151.392 90.8073C154.704 95.2343 151.31 98.2693 150.158 100.049" fill="#AA61B7"/>
<path d="M139.732 89.6816C146.067 93.0886 148.703 95.2027 147.116 99.2997C145.08 104.558 151.188 103.235 151.188 107.895C151.188 110.548 148.227 111.901 148.227 111.901" fill="#AA61B7"/>
</g>
<path d="M77.0346 79.4882C77.0346 79.4882 73.2716 76.7952 69.7876 76.7852C66.3036 76.7752 62.9806 78.7242 62.7886 80.8212C62.6136 82.7272 66.7186 85.2492 69.3796 84.8662C69.3796 84.8662 70.8446 86.4612 72.8746 85.7152C75.3216 84.8162 77.0346 79.4882 77.0346 79.4882Z" fill="#AA61B7"/>
<path opacity="0.5" d="M77.0344 79.4877C77.0344 79.4877 74.8214 78.2127 72.0754 78.3457C69.3294 78.4787 67.6064 79.8967 67.6064 80.6287C67.6064 81.1707 69.9364 82.5267 71.6514 81.8437C71.6514 81.8437 72.6004 82.7587 74.0634 82.4587C75.5454 82.1537 77.0344 79.4877 77.0344 79.4877Z" fill="#AA61B7"/>
<path d="M77.0346 79.4883C77.0346 79.4883 79.4576 82.7273 80.2826 85.7853C81.1786 89.1083 79.2696 89.9003 77.3106 89.6343C74.6596 89.2753 73.2276 87.8553 74.1546 85.0453C74.9916 82.5083 77.0346 79.4883 77.0346 79.4883Z" fill="#AA61B7"/>
<path opacity="0.5" d="M77.0345 79.4883C77.0345 79.4883 76.0446 82.2153 75.7226 84.3563C75.4726 86.0193 75.9065 87.0823 77.2375 87.2503C78.7165 87.4373 79.1256 86.1493 78.6916 84.3533C77.9296 81.1983 77.0345 79.4883 77.0345 79.4883Z" fill="#AA61B7"/>
<path d="M78.3994 78.1225C78.3994 78.1225 75.7064 74.3595 75.6954 70.8755C75.6844 67.3905 77.6344 64.0685 79.7314 63.8765C81.6374 63.7015 84.1594 67.8065 83.7764 70.4675C83.7764 70.4675 85.3714 71.9325 84.6254 73.9625C83.7274 76.4095 78.3994 78.1225 78.3994 78.1225Z" fill="#AA61B7"/>
<path opacity="0.5" d="M78.3998 78.1233C78.3998 78.1233 77.1248 75.9103 77.2578 73.1643C77.3908 70.4183 78.8088 68.6953 79.5408 68.6953C80.0828 68.6953 81.4378 71.0253 80.7558 72.7403C80.7558 72.7403 81.6708 73.6893 81.3698 75.1523C81.0658 76.6343 78.3998 78.1233 78.3998 78.1233Z" fill="#AA61B7"/>
<path d="M78.3994 78.1235C78.3994 78.1235 81.6384 80.5465 84.6964 81.3715C88.0194 82.2675 88.8114 80.3585 88.5454 78.3995C88.1864 75.7485 86.7664 74.3165 83.9564 75.2435C81.4194 76.0805 78.3994 78.1235 78.3994 78.1235Z" fill="#AA61B7"/>
<path opacity="0.5" d="M78.3994 78.1234C78.3994 78.1234 81.1264 77.1333 83.2674 76.8113C84.9304 76.5613 85.9924 76.9963 86.1614 78.3263C86.3484 79.8053 85.0604 80.2144 83.2644 79.7804C80.1094 79.0184 78.3994 78.1234 78.3994 78.1234Z" fill="#AA61B7"/>
<path d="M82.8364 83.9253C83.5464 83.2153 81.9194 80.8723 78.8994 77.6243C77.8944 76.5433 77.1274 75.8523 75.8744 75.1583C74.3784 73.3263 73.0454 73.2393 72.5984 73.6873C72.1504 74.1353 72.2374 75.4673 74.0694 76.9633C74.7634 78.2163 75.4534 78.9833 76.5354 79.9883C79.7834 83.0083 82.1264 84.6343 82.8364 83.9253Z" fill="#AA61B7"/>
<text fill="#AA61B7" xml:space="preserve" style="white-space: pre" font-family="Open Sans" font-size="20" font-weight="600" letter-spacing="0em"><tspan x="199.559" y="153.134">Motor grosso e </tspan><tspan x="199.559" y="177.134">Motora fina</tspan></text>
<rect x="31.5" y="292" width="749" height="503" rx="12" fill="#F1F1F4"/>
<text fill="black" xml:space="preserve" style="white-space: pre" font-family="Open Sans" font-size="18" letter-spacing="0em"><tspan x="127.5" y="345.983">pular e saltitar em um p&#xe9; s&#xf3;;&#10;</tspan><tspan x="127.5" y="394.983">pega a bola com confian&#xe7;a e consegue arremess&#xe1;-la para cima;&#10;</tspan><tspan x="127.5" y="443.983">alterna os p&#xe9;s aos subir as escadas;&#10;</tspan><tspan x="127.5" y="492.983">utiliza adequadamente a tesoura para cortar figuras seguindo o </tspan><tspan x="127.5" y="517.983">contorno;&#10;</tspan><tspan x="127.5" y="566.983">cal&#xe7;a o t&#xea;nis e, inicialmente, aos 4 anos, pode ainda n&#xe3;o ser capaz </tspan><tspan x="127.5" y="591.983">de fazer um la&#xe7;o ou amarrar o cadar&#xe7;o;&#10;</tspan><tspan x="127.5" y="640.983">copia um quadrado, faz uma cruz e um losango e agrupa partes </tspan><tspan x="127.5" y="665.983">para fazer uma figura;&#xa0;&#10;</tspan><tspan x="127.5" y="714.983">aos 5 anos ir&#xe1; conseguir copiar algumas letras, n&#xfa;meros ou </tspan><tspan x="127.5" y="739.983">palavras como as do pr&#xf3;prio nome.</tspan></text>
<text fill="#434556" xml:space="preserve" style="white-space: pre" font-family="Open Sans" font-size="18" letter-spacing="0em"><tspan x="460.5" y="115.483">Sob o ponto de vista motor </tspan><tspan x="460.5" y="140.483">grosso e motora fina, a crian&#xe7;a </tspan><tspan x="460.5" y="165.483">de 3 anos e meio a 5 anos j&#xe1; </tspan><tspan x="460.5" y="190.483">consegue realizar habilidades </tspan><tspan x="460.5" y="215.483">como:</tspan></text>
<path d="M98.0748 346.566C95.0488 348.769 90.7922 348.363 88.0762 345.836C86.8855 344.728 86.0709 343.293 85.7297 341.789C85.645 341.599 85.5842 341.385 85.5553 341.144C85.0522 336.942 88.0364 332.837 92.2211 332.104C95.7891 331.478 99.5091 333.752 100.92 337.01C102.374 340.368 100.971 344.459 98.0748 346.566ZM97.2498 340.443C97.5776 338.298 95.6042 336.295 93.5542 336.213C92.5761 336.175 91.7078 336.57 91.0451 337.196C91.0135 337.81 90.7067 338.408 90.21 338.843C89.983 339.042 89.8439 339.303 89.7686 339.591C89.7112 339.938 89.6993 340.288 89.7404 340.631C89.7422 340.647 89.742 340.661 89.7435 340.676C89.8125 341.08 89.9534 341.468 90.1234 341.77C90.6584 342.72 91.6656 343.445 92.7186 343.718C94.8146 344.261 96.9228 342.584 97.2498 340.443Z" fill="#AF87CE"/>
<path d="M98.0748 395.566C95.0488 397.769 90.7922 397.363 88.0762 394.836C86.8855 393.728 86.0709 392.293 85.7297 390.789C85.645 390.599 85.5842 390.385 85.5553 390.144C85.0522 385.942 88.0364 381.837 92.2211 381.104C95.7891 380.478 99.5091 382.752 100.92 386.01C102.374 389.368 100.971 393.459 98.0748 395.566ZM97.2498 389.443C97.5776 387.298 95.6042 385.295 93.5542 385.213C92.5761 385.175 91.7078 385.57 91.0451 386.196C91.0135 386.81 90.7067 387.408 90.21 387.843C89.983 388.042 89.8439 388.303 89.7686 388.591C89.7112 388.938 89.6993 389.288 89.7404 389.631C89.7422 389.647 89.742 389.661 89.7435 389.676C89.8125 390.08 89.9534 390.468 90.1234 390.77C90.6584 391.72 91.6656 392.445 92.7186 392.718C94.8146 393.261 96.9228 391.584 97.2498 389.443Z" fill="#AF87CE"/>
<path d="M98.0748 444.566C95.0488 446.769 90.7922 446.363 88.0762 443.836C86.8855 442.728 86.0709 441.293 85.7297 439.789C85.645 439.599 85.5842 439.385 85.5553 439.144C85.0522 434.942 88.0364 430.837 92.2211 430.104C95.7891 429.478 99.5091 431.752 100.92 435.01C102.374 438.368 100.971 442.459 98.0748 444.566ZM97.2498 438.443C97.5776 436.298 95.6042 434.295 93.5542 434.213C92.5761 434.175 91.7078 434.57 91.0451 435.196C91.0135 435.81 90.7067 436.408 90.21 436.843C89.983 437.042 89.8439 437.303 89.7686 437.591C89.7112 437.938 89.6993 438.288 89.7404 438.631C89.7422 438.647 89.742 438.661 89.7435 438.676C89.8125 439.08 89.9534 439.468 90.1234 439.77C90.6584 440.72 91.6656 441.445 92.7186 441.718C94.8146 442.261 96.9228 440.584 97.2498 438.443Z" fill="#AF87CE"/>
<path d="M98.0748 493.566C95.0488 495.769 90.7922 495.363 88.0762 492.836C86.8855 491.728 86.0709 490.293 85.7297 488.789C85.645 488.599 85.5842 488.385 85.5553 488.144C85.0522 483.942 88.0364 479.837 92.2211 479.104C95.7891 478.478 99.5091 480.752 100.92 484.01C102.374 487.368 100.971 491.459 98.0748 493.566ZM97.2498 487.443C97.5776 485.298 95.6042 483.295 93.5542 483.213C92.5761 483.175 91.7078 483.57 91.0451 484.196C91.0135 484.81 90.7067 485.408 90.21 485.843C89.983 486.042 89.8439 486.303 89.7686 486.591C89.7112 486.938 89.6993 487.288 89.7404 487.631C89.7422 487.647 89.742 487.661 89.7435 487.676C89.8125 488.08 89.9534 488.468 90.1234 488.77C90.6584 489.72 91.6656 490.445 92.7186 490.718C94.8146 491.261 96.9228 489.584 97.2498 487.443Z" fill="#AF87CE"/>
<path d="M98.0748 568.566C95.0488 570.769 90.7922 570.363 88.0762 567.836C86.8855 566.728 86.0709 565.293 85.7297 563.789C85.645 563.599 85.5842 563.385 85.5553 563.144C85.0522 558.942 88.0364 554.837 92.2211 554.104C95.7891 553.478 99.5091 555.752 100.92 559.01C102.374 562.368 100.971 566.459 98.0748 568.566ZM97.2498 562.443C97.5776 560.298 95.6042 558.295 93.5542 558.213C92.5761 558.175 91.7078 558.57 91.0451 559.196C91.0135 559.81 90.7067 560.408 90.21 560.843C89.983 561.042 89.8439 561.303 89.7686 561.591C89.7112 561.938 89.6993 562.288 89.7404 562.631C89.7422 562.647 89.742 562.661 89.7435 562.676C89.8125 563.08 89.9534 563.468 90.1234 563.77C90.6584 564.72 91.6656 565.445 92.7186 565.718C94.8146 566.261 96.9228 564.584 97.2498 562.443Z" fill="#AF87CE"/>
<path d="M98.0748 642.566C95.0488 644.769 90.7922 644.363 88.0762 641.836C86.8855 640.728 86.0709 639.293 85.7297 637.789C85.645 637.599 85.5842 637.385 85.5553 637.144C85.0522 632.942 88.0364 628.837 92.2211 628.104C95.7891 627.478 99.5091 629.752 100.92 633.01C102.374 636.368 100.971 640.459 98.0748 642.566ZM97.2498 636.443C97.5776 634.298 95.6042 632.295 93.5542 632.213C92.5761 632.175 91.7078 632.57 91.0451 633.196C91.0135 633.81 90.7067 634.408 90.21 634.843C89.983 635.042 89.8439 635.303 89.7686 635.591C89.7112 635.938 89.6993 636.288 89.7404 636.631C89.7422 636.647 89.742 636.661 89.7435 636.676C89.8125 637.08 89.9534 637.468 90.1234 637.77C90.6584 638.72 91.6656 639.445 92.7186 639.718C94.8146 640.261 96.9228 638.584 97.2498 636.443Z" fill="#AF87CE"/>
<path d="M98.0748 716.566C95.0488 718.769 90.7922 718.363 88.0762 715.836C86.8855 714.728 86.0709 713.293 85.7297 711.789C85.645 711.599 85.5842 711.385 85.5553 711.144C85.0522 706.942 88.0364 702.837 92.2211 702.104C95.7891 701.478 99.5091 703.752 100.92 707.01C102.374 710.368 100.971 714.459 98.0748 716.566ZM97.2498 710.443C97.5776 708.298 95.6042 706.295 93.5542 706.213C92.5761 706.175 91.7078 706.57 91.0451 707.196C91.0135 707.81 90.7067 708.408 90.21 708.843C89.983 709.042 89.8439 709.303 89.7686 709.591C89.7112 709.938 89.6993 710.288 89.7404 710.631C89.7422 710.647 89.742 710.661 89.7435 710.676C89.8125 711.08 89.9534 711.468 90.1234 711.77C90.6584 712.72 91.6656 713.445 92.7186 713.718C94.8146 714.261 96.9228 712.584 97.2498 710.443Z" fill="#AF87CE"/>
</g>
<defs>
<filter id="filter0_d_2096_3106" x="0.5" y="0" width="808" height="826" filterUnits="userSpaceOnUse" color-interpolation-filters="sRGB">
<feFlood flood-opacity="0" result="BackgroundImageFix"/>
<feColorMatrix in="SourceAlpha" type="matrix" values="0 0 0 0 0 0 0 0 0 0 0 0 0 0 0 0 0 0 127 0" result="hardAlpha"/>
<feOffset dy="4"/>
<feGaussianBlur stdDeviation="2"/>
<feComposite in2="hardAlpha" operator="out"/>
<feColorMatrix type="matrix" values="0 0 0 0 0 0 0 0 0 0 0 0 0 0 0 0 0 0 0.25 0"/>
<feBlend mode="normal" in2="BackgroundImageFix" result="effect1_dropShadow_2096_3106"/>
<feBlend mode="normal" in="SourceGraphic" in2="effect1_dropShadow_2096_3106" result="shape"/>
</filter>
</defs>
</svg>
