<svg width="1139" height="666" viewBox="0 0 1139 666" fill="none" xmlns="http://www.w3.org/2000/svg">
<rect x="196" y="10" width="943" height="208" rx="12" fill="#DECAE8"/>
<text fill="black" xml:space="preserve" style="white-space: pre" font-family="Open Sans" font-size="18" letter-spacing="0em"><tspan x="220" y="58.4829">Aos </tspan><tspan x="255.532" y="58.4829">6 </tspan><tspan x="270.568" y="58.4829">anos </tspan><tspan x="315.751" y="58.4829">realiza </tspan><tspan x="375.506" y="58.4829">sozinha </tspan><tspan x="444.717" y="58.4829">as </tspan><tspan x="468.033" y="58.4829">atividades </tspan><tspan x="558.022" y="58.4829">de </tspan><tspan x="583.886" y="58.4829">dormir, </tspan><tspan x="651.077" y="58.4829">gosta </tspan><tspan x="701.41" y="58.4829">de </tspan><tspan x="727.274" y="58.4829">jogos </tspan><tspan x="776.57" y="58.4829">de </tspan><tspan x="802.434" y="58.4829">tabuleiro, </tspan><tspan x="887.712" y="58.4829">tem </tspan><tspan x="925.635" y="58.4829">dificuldade </tspan><tspan x="1022.92" y="58.4829">em </tspan><tspan x="1054.43" y="58.4829">admitir </tspan><tspan x="220" y="83.4829">os </tspan><tspan x="248.803" y="83.4829">pr&#xf3;prios </tspan><tspan x="329.759" y="83.4829">erros, </tspan><tspan x="388.058" y="83.4829">experimenta </tspan><tspan x="504.259" y="83.4829">suas </tspan><tspan x="551.853" y="83.4829">habilidades, </tspan><tspan x="662.358" y="83.4829">consegue </tspan><tspan x="751.858" y="83.4829">compartilhar </tspan><tspan x="869.694" y="83.4829">e </tspan><tspan x="889.198" y="83.4829">cooperar </tspan><tspan x="974.742" y="83.4829">melhor, </tspan><tspan x="1049.35" y="83.4829">sente </tspan><tspan x="1105" y="83.4829">a </tspan><tspan x="220" y="108.483">necessidade </tspan><tspan x="331.127" y="108.483">de </tspan><tspan x="359.637" y="108.483">estar </tspan><tspan x="409.487" y="108.483">pr&#xf3;xima </tspan><tspan x="486.724" y="108.483">&#xe0;s </tspan><tspan x="512.685" y="108.483">crian&#xe7;as </tspan><tspan x="588.867" y="108.483">da </tspan><tspan x="617.271" y="108.483">mesma </tspan><tspan x="686.668" y="108.483">idade, </tspan><tspan x="745.412" y="108.483">&#xe0;s </tspan><tspan x="771.374" y="108.483">vezes </tspan><tspan x="824.985" y="108.483">trapaceia </tspan><tspan x="910.466" y="108.483">para </tspan><tspan x="956.238" y="108.483">ganhar,&#xa0; </tspan><tspan x="1032.17" y="108.483">por </tspan><tspan x="1068.77" y="108.483">vezes </tspan><tspan x="220" y="133.483">engaja-se </tspan><tspan x="306.082" y="133.483">em </tspan><tspan x="338.972" y="133.483">brincadeiras </tspan><tspan x="449.329" y="133.483">rudes, </tspan><tspan x="508.217" y="133.483">sente </tspan><tspan x="560.584" y="133.483">ci&#xfa;me </tspan><tspan x="617.697" y="133.483">do </tspan><tspan x="645.666" y="133.483">irm&#xe3;o </tspan><tspan x="701.196" y="133.483">ou </tspan><tspan x="729.182" y="133.483">irm&#xe3; </tspan><tspan x="773.885" y="133.483">mais </tspan><tspan x="819.801" y="133.483">nova, </tspan><tspan x="871.447" y="133.483">imita </tspan><tspan x="919.753" y="133.483">o </tspan><tspan x="936.7" y="133.483">que </tspan><tspan x="974.987" y="133.483">os </tspan><tspan x="1000.51" y="133.483">adultos </tspan><tspan x="1069.07" y="133.483">est&#xe3;o </tspan><tspan x="220" y="158.483">fazendo, </tspan><tspan x="297.927" y="158.483">tem </tspan><tspan x="336.883" y="158.483">acesso </tspan><tspan x="399.377" y="158.483">de </tspan><tspan x="426.275" y="158.483">raiva </tspan><tspan x="472.965" y="158.483">ocasionais, </tspan><tspan x="570.984" y="158.483">&#xe9; </tspan><tspan x="586.86" y="158.483">mais </tspan><tspan x="632.426" y="158.483">independente, </tspan><tspan x="760.433" y="158.483">expressa </tspan><tspan x="841.384" y="158.483">sua </tspan><tspan x="876.772" y="158.483">pr&#xf3;pria </tspan><tspan x="944.697" y="158.483">maneira </tspan><tspan x="1020.2" y="158.483">de </tspan><tspan x="1047.1" y="158.483">resolver </tspan><tspan x="220" y="183.483">as </tspan><tspan x="243.256" y="183.483">coisas.</tspan></text>
<rect y="164" width="183" height="54" rx="12" fill="#C69FDC"/>
<text fill="#F6F6FC" xml:space="preserve" style="white-space: pre" font-family="Open Sans" font-size="24" font-weight="bold" letter-spacing="0em"><tspan x="52.9805" y="200.311">6 anos</tspan></text>
<g filter="url(#filter0_d_2096_4543)">
<circle cx="92" cy="92" r="82" fill="white"/>
<circle cx="92" cy="92" r="80" stroke="#D4D5DD" stroke-width="4"/>
</g>
<rect x="196" y="234" width="943" height="208" rx="12" fill="#DECAE8"/>
<text fill="black" xml:space="preserve" style="white-space: pre" font-family="Open Sans" font-size="18" letter-spacing="0em"><tspan x="220" y="307.483">Aos </tspan><tspan x="255.729" y="307.483">7 </tspan><tspan x="270.962" y="307.483">anos </tspan><tspan x="316.341" y="307.483">escova </tspan><tspan x="378.42" y="307.483">os </tspan><tspan x="402.758" y="307.483">dentes </tspan><tspan x="464.959" y="307.483">e </tspan><tspan x="479.999" y="307.483">penteia </tspan><tspan x="548.177" y="307.483">o </tspan><tspan x="563.937" y="307.483">cabelo </tspan><tspan x="624.012" y="307.483">sem </tspan><tspan x="664.293" y="307.483">ajuda, </tspan><tspan x="720.501" y="307.483">gosta </tspan><tspan x="771.03" y="307.483">de </tspan><tspan x="797.091" y="307.483">ajudar </tspan><tspan x="856.006" y="307.483">e </tspan><tspan x="871.045" y="307.483">ter </tspan><tspan x="899.866" y="307.483">uma </tspan><tspan x="942.503" y="307.483">segunda </tspan><tspan x="1019" y="307.483">op&#xe7;&#xe3;o, </tspan><tspan x="1079.9" y="307.483">est&#xe1; </tspan><tspan x="220" y="332.483">menos </tspan><tspan x="288.054" y="332.483">resistente </tspan><tspan x="382.16" y="332.483">e </tspan><tspan x="403.105" y="332.483">birrenta, </tspan><tspan x="486.47" y="332.483">consegue </tspan><tspan x="577.411" y="332.483">se </tspan><tspan x="606.934" y="332.483">sentir </tspan><tspan x="665.83" y="332.483">parte </tspan><tspan x="721.58" y="332.483">como </tspan><tspan x="779.369" y="332.483">membro </tspan><tspan x="862.857" y="332.483">real </tspan><tspan x="905.722" y="332.483">da </tspan><tspan x="937.583" y="332.483">fam&#xed;lia, </tspan><tspan x="1009.47" y="332.483">participa </tspan><tspan x="1093.87" y="332.483">de </tspan><tspan x="220" y="357.483">brincadeiras </tspan><tspan x="330.092" y="357.483">em </tspan><tspan x="362.718" y="357.483">grupo, </tspan><tspan x="423.258" y="357.483">&#xe0;s </tspan><tspan x="447.692" y="357.483">vezes </tspan><tspan x="499.777" y="357.483">passa </tspan><tspan x="553.812" y="357.483">muito </tspan><tspan x="609.167" y="357.483">tempo </tspan><tspan x="670.058" y="357.483">s&#xf3; </tspan><tspan x="695.318" y="357.483">sem </tspan><tspan x="736.522" y="357.483">exigir </tspan><tspan x="788.15" y="357.483">companhia, </tspan><tspan x="892.441" y="357.483">por </tspan><tspan x="927.51" y="357.483">vezes </tspan><tspan x="979.595" y="357.483">tem </tspan><tspan x="1018.64" y="357.483">prefer&#xea;ncia </tspan><tspan x="220" y="382.483">de </tspan><tspan x="245.805" y="382.483">brincar </tspan><tspan x="310.457" y="382.483">com </tspan><tspan x="351.256" y="382.483">outras </tspan><tspan x="410.16" y="382.483">crian&#xe7;as </tspan><tspan x="483.637" y="382.483">do </tspan><tspan x="510.162" y="382.483">mesmo </tspan><tspan x="577.68" y="382.483">sexo.</tspan></text>
<rect y="388" width="183" height="54" rx="12" fill="#C69FDC"/>
<text fill="#F6F6FC" xml:space="preserve" style="white-space: pre" font-family="Open Sans" font-size="24" font-weight="bold" letter-spacing="0em"><tspan x="52.9805" y="424.311">7 anos</tspan></text>
<g filter="url(#filter1_d_2096_4543)">
<circle cx="92" cy="316" r="82" fill="white"/>
<circle cx="92" cy="316" r="80" stroke="#D4D5DD" stroke-width="4"/>
</g>
<rect x="196" y="458" width="943" height="208" rx="12" fill="#DECAE8"/>
<text fill="black" xml:space="preserve" style="white-space: pre" font-family="Open Sans" font-size="18" letter-spacing="0em"><tspan x="220" y="493.983">Dos </tspan><tspan x="259.841" y="493.983">8 </tspan><tspan x="277.516" y="493.983">aos </tspan><tspan x="314.298" y="493.983">10 </tspan><tspan x="342.274" y="493.983">anos </tspan><tspan x="390.095" y="493.983">ajuda </tspan><tspan x="444.086" y="493.983">nas </tspan><tspan x="481.08" y="493.983">tarefas </tspan><tspan x="546.989" y="493.983">da </tspan><tspan x="575.386" y="493.983">casa </tspan><tspan x="619.973" y="493.983">de </tspan><tspan x="648.476" y="493.983">rotina, </tspan><tspan x="710.712" y="493.983">assume </tspan><tspan x="783.055" y="493.983">responsabilidades, </tspan><tspan x="948.017" y="493.983">compartilha </tspan><tspan x="1056.46" y="493.983">tarefas </tspan><tspan x="220" y="518.983">dom&#xe9;sticas, </tspan><tspan x="328.501" y="518.983">cuida </tspan><tspan x="382.211" y="518.983">das </tspan><tspan x="420.277" y="518.983">pr&#xf3;prias </tspan><tspan x="499.475" y="518.983">necessidades </tspan><tspan x="620.263" y="518.983">na </tspan><tspan x="649.768" y="518.983">mesa, </tspan><tspan x="708.242" y="518.983">consegue </tspan><tspan x="796.809" y="518.983">exercer </tspan><tspan x="868.379" y="518.983">a </tspan><tspan x="886.844" y="518.983">escolha </tspan><tspan x="959.047" y="518.983">em </tspan><tspan x="994.282" y="518.983">momentos </tspan><tspan x="1093.87" y="518.983">de </tspan><tspan x="220" y="543.983">compras, </tspan><tspan x="303.46" y="543.983">na </tspan><tspan x="330.214" y="543.983">escola </tspan><tspan x="388.626" y="543.983">por </tspan><tspan x="423.553" y="543.983">vezes </tspan><tspan x="475.496" y="543.983">quer </tspan><tspan x="520.741" y="543.983">perguntar </tspan><tspan x="610.583" y="543.983">o </tspan><tspan x="627.123" y="543.983">que </tspan><tspan x="665.004" y="543.983">desconhece, </tspan><tspan x="775.464" y="543.983">tem </tspan><tspan x="814.364" y="543.983">medo </tspan><tspan x="868.698" y="543.983">de </tspan><tspan x="895.539" y="543.983">ser </tspan><tspan x="927.302" y="543.983">reprovada </tspan><tspan x="1019.73" y="543.983">na </tspan><tspan x="1046.48" y="543.983">escola </tspan><tspan x="1104.89" y="543.983">e </tspan><tspan x="220" y="568.983">de </tspan><tspan x="247.228" y="568.983">ter </tspan><tspan x="277.216" y="568.983">notas </tspan><tspan x="330.178" y="568.983">ruins, </tspan><tspan x="383.51" y="568.983">exerce </tspan><tspan x="445.349" y="568.983">a </tspan><tspan x="461.45" y="568.983">autocr&#xed;tica, </tspan><tspan x="560.643" y="568.983">consegue </tspan><tspan x="646.846" y="568.983">fazer </tspan><tspan x="694.921" y="568.983">atividades </tspan><tspan x="786.274" y="568.983">de </tspan><tspan x="813.502" y="568.983">m&#xfa;sica </tspan><tspan x="879.068" y="568.983">e </tspan><tspan x="895.275" y="568.983">esporte, </tspan><tspan x="970.456" y="568.983">gosta </tspan><tspan x="1022.15" y="568.983">do </tspan><tspan x="1050.1" y="568.983">sistema </tspan><tspan x="220" y="593.983">de </tspan><tspan x="249.826" y="593.983">recompensas, </tspan><tspan x="376.103" y="593.983">dramatiza, </tspan><tspan x="473.921" y="593.983">transita </tspan><tspan x="546.99" y="593.983">entre </tspan><tspan x="600.722" y="593.983">a </tspan><tspan x="619.421" y="593.983">casa </tspan><tspan x="665.331" y="593.983">e </tspan><tspan x="684.136" y="593.983">a </tspan><tspan x="702.835" y="593.983">comunidade </tspan><tspan x="816.438" y="593.983">sozinho </tspan><tspan x="890.438" y="593.983">ou </tspan><tspan x="921.002" y="593.983">com </tspan><tspan x="965.823" y="593.983">amigos, </tspan><tspan x="1039.58" y="593.983">gosta </tspan><tspan x="1093.87" y="593.983">de </tspan><tspan x="220" y="618.983">competir </tspan><tspan x="304.885" y="618.983">e </tspan><tspan x="324.292" y="618.983">jogar, </tspan><tspan x="380.771" y="618.983">prefere </tspan><tspan x="452.21" y="618.983">amigos </tspan><tspan x="521.908" y="618.983">e </tspan><tspan x="541.314" y="618.983">grupos, </tspan><tspan x="613.878" y="618.983">come&#xe7;a </tspan><tspan x="688.04" y="618.983">a </tspan><tspan x="707.342" y="618.983">misturar-se </tspan><tspan x="813.11" y="618.983">com </tspan><tspan x="858.533" y="618.983">grupos </tspan><tspan x="926.438" y="618.983">de </tspan><tspan x="956.866" y="618.983">todos </tspan><tspan x="1013.84" y="618.983">os </tspan><tspan x="1042.54" y="618.983">g&#xea;neros, </tspan><tspan x="220" y="643.983">desenvolve </tspan><tspan x="319.018" y="643.983">a </tspan><tspan x="333.695" y="643.983">compara&#xe7;&#xe3;o </tspan><tspan x="442.346" y="643.983">com </tspan><tspan x="483.145" y="643.983">os </tspan><tspan x="507.227" y="643.983">outros, </tspan><tspan x="571.615" y="643.983">diverte-se </tspan><tspan x="659.348" y="643.983">em </tspan><tspan x="690.795" y="643.983">grupos </tspan><tspan x="754.076" y="643.983">de </tspan><tspan x="779.881" y="643.983">esporte.</tspan></text>
<rect y="612" width="183" height="54" rx="12" fill="#C69FDC"/>
<text fill="#F6F6FC" xml:space="preserve" style="white-space: pre" font-family="Open Sans" font-size="24" font-weight="bold" letter-spacing="0em"><tspan x="25.7578" y="648.311">8 a 10 anos</tspan></text>
<g filter="url(#filter2_d_2096_4543)">
<circle cx="92" cy="540" r="82" fill="white"/>
<circle cx="92" cy="540" r="80" stroke="#D4D5DD" stroke-width="4"/>
</g>
<path fill-rule="evenodd" clip-rule="evenodd" d="M94.8253 600.456L94.1348 593.841L102.14 592.848L102.81 598.628L100.03 602.094C100.03 602.094 95.7641 602.542 94.8253 600.456Z" fill="#C69FDC"/>
<path fill-rule="evenodd" clip-rule="evenodd" d="M94.8245 600.457C96.8839 601.946 101.71 599.06 102.809 598.629C102.809 598.629 109.401 601.351 110.269 602.406C111.138 603.461 109.835 605.943 109.835 605.943C109.835 605.943 98.555 605.851 95.3477 605.825C93.6663 605.846 94.2507 601.614 94.8245 600.457Z" fill="#C69FDC"/>
<path fill-rule="evenodd" clip-rule="evenodd" d="M93.318 596.89C93.318 596.89 101.675 597.221 103.33 596.062C102.365 585.03 101.074 572.928 99.9375 565.777L89.7598 567.184L93.318 596.89Z" fill="#C69FDC"/>
<mask id="mask0_2096_4543" style="mask-type:luminance" maskUnits="userSpaceOnUse" x="89" y="565" width="15" height="32">
<path d="M93.3171 596.89C93.3171 596.89 101.674 597.221 103.329 596.062C102.364 585.03 101.073 572.928 99.9365 565.777L89.7588 567.184L93.3171 596.89Z" fill="white"/>
</mask>
<g mask="url(#mask0_2096_4543)">
<path fill-rule="evenodd" clip-rule="evenodd" d="M95.083 573.768C95.083 573.768 93.9546 575.311 92.0929 575.807C92.0929 575.807 92.4413 577.282 91.1501 578.81C90.2932 575.87 89.9209 573.449 89.9209 573.449L95.083 573.768Z" fill="#C69FDC"/>
</g>
<path fill-rule="evenodd" clip-rule="evenodd" d="M71.5454 594.895L70.8008 601.1L74.6484 603.148L78.434 600.231L79.3649 595.205L71.5454 594.895Z" fill="#C69FDC"/>
<path fill-rule="evenodd" clip-rule="evenodd" d="M70.871 600.519C72.7201 601.931 77.8274 598.985 78.7314 598.629C78.7314 598.629 85.3227 601.351 86.1917 602.406C87.0604 603.461 85.7572 605.943 85.7572 605.943H70.6654C70.3784 605.943 70.1056 605.817 69.9193 605.598C69.2815 604.652 70.3816 601.656 70.871 600.519Z" fill="#C69FDC"/>
<path fill-rule="evenodd" clip-rule="evenodd" d="M70.1182 596.822C70.1182 596.822 77.9376 598.187 80.3579 597.38L85.6328 575.783C85.6328 575.783 91.9628 575.473 95.9347 573.363L96.4933 565.171L74.152 564.551C73.8151 569.309 70.7862 591.644 70.1182 596.822Z" fill="#C69FDC"/>
<path fill-rule="evenodd" clip-rule="evenodd" d="M117.294 539.881C117.723 537.883 120.205 536.777 122.342 536.834C123.334 536.917 124.286 537.951 123.045 538.572C124.948 538.323 126.148 538.323 126.975 538.489C127.803 538.654 128.299 539.606 127.554 540.061C128.547 540.516 129.044 541.757 127.927 542.212C128.547 542.833 127.968 543.867 127.265 543.784C127.72 544.529 127.306 544.902 126.437 545.026C124.954 545.341 118.825 545.909 118.084 544.857L117.294 539.881Z" fill="#C69FDC"/>
<path d="M121.931 539.074C121.516 539.084 121.468 538.436 121.884 538.388L122.997 538.235C123.438 538.167 123.535 538.863 123.091 538.918C123.039 538.921 121.981 539.076 121.931 539.074Z" fill="#C69FDC"/>
<path d="M123.271 540.439C122.867 540.449 122.803 539.821 123.208 539.756C124.977 539.427 127.487 539.711 127.593 539.723C128.036 539.767 127.957 540.469 127.514 540.407C127.502 540.398 124.9 540.129 123.271 540.439Z" fill="#C69FDC"/>
<path d="M127.926 542.564C127.449 542.463 127.077 541.907 123.433 542.006C122.988 542.027 122.961 541.326 123.409 541.317C127.139 541.177 129.135 541.962 127.926 542.564Z" fill="#C69FDC"/>
<path d="M127.265 544.134C126.728 543.997 126.638 543.573 123.355 543.617C122.9 543.631 122.897 542.933 123.34 542.928C126.733 542.851 128.381 543.499 127.265 544.134Z" fill="#C69FDC"/>
<path fill-rule="evenodd" clip-rule="evenodd" d="M98.614 538.555L106.64 542.857L116.901 539.382C116.901 539.382 119.383 541.782 117.563 546.746C108.901 551.306 107.858 552.723 98.2002 548.319L98.614 538.555Z" fill="#C69FDC"/>
<path fill-rule="evenodd" clip-rule="evenodd" d="M73.0459 566.106C77.7941 569.792 94.1454 569.896 101.097 567.181L98.6142 538.551C98.6142 538.551 91.4153 534.332 88.2709 534.497C85.1266 534.662 77.2658 538.055 75.4454 540.289C73.625 542.523 73.0459 566.106 73.0459 566.106Z" fill="#C69FDC"/>
<mask id="mask1_2096_4543" style="mask-type:luminance" maskUnits="userSpaceOnUse" x="73" y="534" width="29" height="36">
<path d="M73.0459 566.106C77.7941 569.792 94.1454 569.896 101.097 567.181L98.6142 538.551C98.6142 538.551 91.4153 534.332 88.2709 534.497C85.1266 534.662 77.2658 538.055 75.4454 540.289C73.625 542.523 73.0459 566.106 73.0459 566.106Z" fill="white"/>
</mask>
<g mask="url(#mask1_2096_4543)">
<path fill-rule="evenodd" clip-rule="evenodd" d="M83.4122 528.454C82.274 528.441 81.2805 529.457 81.3205 530.595L81.3983 535.768C80.9539 537.558 88.5347 542.212 92.7956 539.379C94.6412 537.756 95.3251 537.167 95.4071 535.757L95.1361 530.375C95.0792 529.245 94.1417 528.361 93.0106 528.371L83.4122 528.454Z" fill="#C69FDC"/>
<path fill-rule="evenodd" clip-rule="evenodd" d="M90.6152 545.574C98.6417 545.597 98.6409 560.323 90.6148 560.344C82.5888 560.322 82.5897 545.595 90.6152 545.574Z" fill="#C69FDC"/>
<path fill-rule="evenodd" clip-rule="evenodd" d="M99.0744 543.862C99.0744 543.862 98.5339 539.033 96.6602 537.479L99.3877 536.078L100.629 538.974L100.712 543.029L99.0744 543.862Z" fill="#C69FDC"/>
</g>
<path fill-rule="evenodd" clip-rule="evenodd" d="M97.1465 548.879C97.1465 548.879 98.1242 547.512 99.7944 546.728C101.822 545.776 103.228 545.776 102.401 547.555C102.401 547.555 104.708 547.09 105.793 546.728C107.407 546.19 107.986 547.431 106.869 548.341C108.173 547.883 108.129 549.525 107.159 549.955C108.248 550.397 107.424 551.621 106.133 551.957C106.893 552.022 107.433 552.759 106.125 553.554C104.982 554.552 98.9633 554.464 98.2738 554.26L97.1465 548.879Z" fill="#C69FDC"/>
<path d="M103.264 553.026C102.831 553.034 102.809 552.355 103.245 552.338C104.874 552.245 105.955 551.662 105.965 551.657C106.352 551.436 106.692 552.05 106.298 552.26C106.266 552.283 105.035 552.937 103.264 553.026Z" fill="#C69FDC"/>
<path d="M103.215 551.635C102.808 551.645 102.749 551.01 103.158 550.951C105.137 550.617 106.98 549.659 106.998 549.649C107.39 549.436 107.718 550.057 107.319 550.259C107.271 550.288 105.257 551.326 103.215 551.635Z" fill="#C69FDC"/>
<path d="M103.165 550.092C102.754 550.102 102.7 549.46 103.115 549.407C104.249 549.237 106.258 548.381 106.655 548.067C106.804 547.948 107.02 547.974 107.139 548.123C107.651 548.924 104.208 549.896 103.165 550.092Z" fill="#C69FDC"/>
<path fill-rule="evenodd" clip-rule="evenodd" d="M79.9753 538.821C86.4555 547.13 87.1736 546.926 97.145 548.875C97.145 548.875 99.6688 551.895 97.6829 555.867C97.6829 555.867 88.2084 555.826 84.816 555.122C81.4234 554.419 75.7554 546.393 75.7554 546.393C73.4809 543.532 74.8718 537.627 79.9753 538.821Z" fill="#C69FDC"/>
<path fill-rule="evenodd" clip-rule="evenodd" d="M83.4307 530.571L83.5084 535.743C84.5356 536.654 90.7073 540.583 93.2999 535.87L93.0291 530.488L83.4307 530.571Z" fill="#C69FDC"/>
<mask id="mask2_2096_4543" style="mask-type:luminance" maskUnits="userSpaceOnUse" x="83" y="530" width="11" height="9">
<path d="M83.4316 530.567L83.5094 535.739C84.5366 536.65 90.7083 540.579 93.3009 535.866L93.0301 530.484L83.4316 530.567Z" fill="white"/>
</mask>
<g mask="url(#mask2_2096_4543)">
<path fill-rule="evenodd" clip-rule="evenodd" d="M82.6979 534.003C83.5699 534.455 84.6956 534.478 85.6372 534.807C87.3185 535.576 99.2295 535.343 95.8616 531.731C92.5686 530.245 85.1797 530.544 81.9918 532.293" fill="#C69FDC"/>
</g>
<path fill-rule="evenodd" clip-rule="evenodd" d="M88.8091 516.586C79.4842 518.303 71.2693 516.248 64.1509 510.463C60.3447 505.912 58.607 494.576 65.4748 491.018C63.5 483.498 76.153 470.922 77.6383 480.674C79.3427 474.73 101.584 471.918 96.1733 480.012C100.783 477.296 117.412 482.799 108.585 490.769C112.983 495.94 110.51 504.395 108.301 508.601C103.261 514.624 96.7184 517.182 88.8091 516.586Z" fill="#C69FDC"/>
<path fill-rule="evenodd" clip-rule="evenodd" d="M102.751 513.696C103.515 502.379 116.502 504.394 113.63 514.976C112.231 522.303 102.136 522.142 102.751 513.696Z" fill="#C69FDC"/>
<path fill-rule="evenodd" clip-rule="evenodd" d="M104.776 514.063C104.667 516.647 105.215 517.807 107.601 518.056C109.56 518.373 110.992 516.842 111.585 514.5C111.957 513.034 112.138 511.576 111.548 510.399C110.572 508.563 107.983 507.774 106.508 509.803C105.5 510.945 104.804 512.588 104.776 514.063Z" fill="#C69FDC"/>
<path fill-rule="evenodd" clip-rule="evenodd" d="M105.909 511.457C103.772 511.467 103.772 514.716 105.909 514.726C108.046 514.716 108.046 511.466 105.909 511.457Z" fill="#C69FDC"/>
<path fill-rule="evenodd" clip-rule="evenodd" d="M90.1323 532.721C66.462 533.339 65.9108 517.596 65.9709 498.547C66.3844 493.417 75.5691 486.135 86.0779 485.639C99.4755 485.487 106.811 494.339 106.848 502.849C106.682 506.077 105.702 510.614 105.771 512.614C105.854 515.013 107.674 517.165 107.592 520.144C107.509 523.122 104.282 533.134 90.1323 532.721Z" fill="#C69FDC"/>
<mask id="mask3_2096_4543" style="mask-type:luminance" maskUnits="userSpaceOnUse" x="65" y="485" width="43" height="48">
<path d="M90.1333 532.717C66.4629 533.335 65.9118 517.592 65.9719 498.543C66.3854 493.413 75.57 486.131 86.0788 485.635C99.4765 485.484 106.812 494.335 106.849 502.845C106.683 506.073 105.703 510.61 105.772 512.61C105.855 515.009 107.675 517.161 107.593 520.14C107.51 523.118 104.283 533.131 90.1333 532.717Z" fill="white"/>
</mask>
<g mask="url(#mask3_2096_4543)">
<path fill-rule="evenodd" clip-rule="evenodd" d="M76.5843 516.985C81.4287 517.069 81.4281 524.273 76.5842 524.356C71.7397 524.272 71.7406 517.068 76.5843 516.985ZM105.131 516.488C109.976 516.573 109.975 523.776 105.131 523.86C100.287 523.775 100.288 516.572 105.131 516.488Z" fill="#C69FDC"/>
</g>
<path fill-rule="evenodd" clip-rule="evenodd" d="M67.8043 512.056C67.8043 512.056 68.9493 509.224 68.2046 505.831C75.238 502.77 72.1763 495.074 72.1763 495.074C76.6988 488.781 95.4851 484.02 103.368 493.298L103.951 488.206C103.951 488.206 94.6003 481.338 85.3329 482.58C76.0654 483.821 65.9705 489.779 64.481 495.405C62.9915 501.032 65.3141 511.37 65.3141 511.37L67.8043 512.056Z" fill="#C69FDC"/>
<path fill-rule="evenodd" clip-rule="evenodd" d="M83.0992 509.559C85.4749 509.559 85.4748 514.606 83.099 514.606C80.7233 514.606 80.7236 509.559 83.0992 509.559Z" fill="#C69FDC"/>
<path fill-rule="evenodd" clip-rule="evenodd" d="M99.8971 508.645C102.273 508.645 102.273 513.692 99.8969 513.692C97.5212 513.691 97.5215 508.645 99.8971 508.645Z" fill="#C69FDC"/>
<path d="M94.4683 516.256C93.7748 516.306 91.9859 515.761 92.5893 514.939C92.7481 514.834 92.9615 514.877 93.0672 515.035C93.6172 515.874 96.0807 515.731 96.419 514.519C96.749 513.362 96.1509 511.919 94.9325 511.761C93.2388 511.514 93.0924 513.481 92.5201 512.4L92.1065 507.56C92.0623 507.117 92.7618 507.054 92.7929 507.501L93.1421 511.587C96.8516 508.999 99.3897 516.27 94.4683 516.256Z" fill="#C69FDC"/>
<path fill-rule="evenodd" clip-rule="evenodd" d="M77.4065 504.652C77.6155 505.153 78.1804 505.403 78.6918 505.22C80.0495 504.728 82.6815 503.861 84.8127 503.628C85.12 503.612 85.4054 503.465 85.5963 503.224C86.271 502.152 85.102 499.725 83.9847 499.952C81.3597 500.13 79.3546 501.583 77.6116 503.581C77.3374 503.865 77.2583 504.285 77.4102 504.65C77.4065 504.651 77.4065 504.652 77.4065 504.652Z" fill="#C69FDC"/>
<path fill-rule="evenodd" clip-rule="evenodd" d="M103.757 503.938C103.631 504.426 103.237 504.758 102.769 504.62C101.528 504.248 99.301 503.597 97.3783 503.494C97.1019 503.494 96.7647 503.369 96.5821 503.163C95.9636 502.246 96.7217 500.03 97.7704 500.192C99.6993 500.526 103.512 501.48 103.757 503.938Z" fill="#C69FDC"/>
<path fill-rule="evenodd" clip-rule="evenodd" d="M86.1494 520.392C86.1494 520.392 91.7762 521.799 96.3272 520.227C97.1851 524.974 93.3616 529.163 87.9697 525.605C86.6442 524.581 86.1494 520.392 86.1494 520.392Z" fill="#C69FDC"/>
<path fill-rule="evenodd" clip-rule="evenodd" d="M69.198 515.59C67.4964 504.846 52.434 507.021 56.7859 517.825C58.9728 524.807 70.6997 524.176 69.198 515.59Z" fill="#C69FDC"/>
<path fill-rule="evenodd" clip-rule="evenodd" d="M66.8995 516.14C67.3429 518.879 66.5656 519.95 64.0496 520.367C61.8234 520.856 60.0162 519.457 59.0932 517.177C58.5153 515.749 58.157 514.312 58.7171 513.088C59.7032 511.08 62.6588 510.226 64.4675 512.05C65.7466 513.098 66.7162 514.673 66.8995 516.14Z" fill="#C69FDC"/>
<path fill-rule="evenodd" clip-rule="evenodd" d="M65.5364 513.434C67.6738 513.443 67.6735 516.693 65.5363 516.702C63.3993 516.693 63.3994 513.443 65.5364 513.434Z" fill="#C69FDC"/>
<path fill-rule="evenodd" clip-rule="evenodd" d="M86.8052 374.98L85.0781 382.493C87.8548 387.085 91.6342 383.448 93.3682 381.112L94.4909 375.154L86.8052 374.98Z" fill="#C69FDC"/>
<path fill-rule="evenodd" clip-rule="evenodd" d="M88.7882 382.896C87.5278 383.111 85.0775 382.486 85.0775 382.486C84.557 383.543 83.8229 387.688 84.2545 387.947C84.6863 388.206 89.8244 388.164 92.5446 388.164C95.2648 388.164 100.058 388.077 100.748 388.077C101.439 388.077 101.828 385.573 100.964 384.494C100.101 383.414 93.3676 381.105 93.3676 381.105C93.3676 381.105 90.5585 382.594 88.7882 382.896Z" fill="#C69FDC"/>
<path fill-rule="evenodd" clip-rule="evenodd" d="M85.3789 377.679C85.3789 377.679 89.8694 378.585 95.0939 377.722C97.2805 367.842 98.9161 357.082 99.9514 345.36L89.5024 344.324C89.7755 349.383 86.6798 372.772 85.3789 377.679Z" fill="#C69FDC"/>
<path fill-rule="evenodd" clip-rule="evenodd" d="M92.8492 355.114C92.8492 355.114 91.8669 356.378 90.1829 356.831C90.1829 356.831 89.77 359.11 88.4447 359.332L88.3047 354.176L92.8492 355.114Z" fill="#C69FDC"/>
<path fill-rule="evenodd" clip-rule="evenodd" d="M75.5342 359L72.2959 363.793C72.6371 368.357 77.7789 366.983 79.7224 365.693L82.1403 361.807L75.5342 359Z" fill="#C69FDC"/>
<path fill-rule="evenodd" clip-rule="evenodd" d="M72.2947 363.797C72.2947 363.797 69.5745 366.474 69.6177 367.424C71.1997 370.454 78.6069 374.05 81.4913 375.455C82.4846 375.671 83.7367 373.123 83.7367 372.131C83.7367 371.137 79.7213 365.697 79.7213 365.697C78.0081 364.532 74.1851 365.851 72.2947 363.797Z" fill="#C69FDC"/>
<path fill-rule="evenodd" clip-rule="evenodd" d="M92.8496 355.115C90.6354 355.061 76.5484 358.404 74.1107 353.518C72.6425 351.186 72.8153 343.883 73.0311 341.73L93.5835 345.838L92.8496 355.115Z" fill="#C69FDC"/>
<path fill-rule="evenodd" clip-rule="evenodd" d="M73.5908 359.259C73.5908 359.259 77.52 362.584 82.4855 363.189C83.3899 361.143 91.9073 350.641 84.7306 348.595C82.6152 348.119 77.2609 347.73 77.2609 347.73C77.2609 347.73 76.1384 351.098 77.6495 352.956L73.5908 359.259Z" fill="#C69FDC"/>
<path d="M86.6473 356.187C86.3892 356.191 86.2054 355.902 86.3244 355.67C87.9534 352.841 87.6063 349.832 84.6507 348.95C82.5849 348.486 77.2868 348.098 77.2336 348.094C76.7713 348.069 76.8194 347.334 77.2859 347.377C80.133 347.928 88.5763 346.731 88.0242 353.114C87.9885 353.662 87.6438 354.601 86.9709 355.984C86.9088 356.113 86.7807 356.187 86.6473 356.187ZM76.1127 355.705C75.8383 355.712 75.6532 355.381 75.8109 355.151L77.3462 352.766C77.4535 352.599 77.6762 352.551 77.843 352.658C78.0098 352.766 78.058 352.988 77.9506 353.155C77.782 353.297 76.4118 355.855 76.1127 355.705Z" fill="#C69FDC"/>
<path fill-rule="evenodd" clip-rule="evenodd" d="M107.647 315.218L110.238 315.088L113.541 306.992C113.541 306.992 112.246 305.891 113.736 301.941C114.339 300.34 115.743 301.034 115.743 301.034C115.743 301.034 117.427 297.925 117.945 297.083C118.464 296.241 119.5 296.241 119.694 297.019C120.536 295.982 121.248 296.5 121.508 297.148C122.35 296.695 123.321 297.148 122.803 298.702C125.357 300.565 120.516 306.684 119.176 308.094C118.787 310.684 117.362 317.679 116.585 320.205C115.808 322.731 115.161 322.796 113.477 323.184C111.793 323.573 108.036 323.702 108.036 323.702L107.647 315.218Z" fill="#C69FDC"/>
<path d="M115.105 303.193C114.865 303.197 114.683 302.948 114.763 302.72C114.957 302.139 115.387 300.96 115.405 300.91C115.559 300.47 116.247 300.72 116.081 301.157C116.077 301.169 115.636 302.376 115.446 302.947C115.395 303.098 115.255 303.193 115.105 303.193Z" fill="#C69FDC"/>
<path d="M117.953 301.314C116.741 301.281 119.623 296.577 119.376 296.846C119.591 296.434 120.237 296.779 120.009 297.187C119.996 297.211 118.704 299.618 118.299 301.052C118.254 301.21 118.11 301.314 117.953 301.314Z" fill="#C69FDC"/>
<path d="M119.54 301.446C119.296 301.45 119.113 301.191 119.203 300.962C119.215 300.929 120.496 297.564 121.268 296.879C121.417 296.748 121.644 296.762 121.775 296.91C121.907 297.058 121.894 297.286 121.745 297.417C121.261 297.847 120.199 300.336 119.877 301.21C119.824 301.356 119.686 301.446 119.54 301.446Z" fill="#C69FDC"/>
<path d="M121.127 302.285C119.969 302.28 122.386 298.193 122.61 298.396C122.999 298.142 123.392 298.76 122.993 299.004C122.118 299.455 121.694 302.303 121.127 302.285Z" fill="#C69FDC"/>
<path fill-rule="evenodd" clip-rule="evenodd" d="M99.6494 314.945L107.648 315.216C107.648 315.216 110.239 318.908 108.684 324.737L101.888 326.875C98.0471 323.486 98.619 318.689 99.6494 314.945Z" fill="#C69FDC"/>
<path fill-rule="evenodd" clip-rule="evenodd" d="M71.8418 341.977C78.2739 346.406 92.2539 347.766 100.684 346.294C101.215 339.977 102.989 320.437 99.6482 314.947C72.4239 312.127 74.4599 321.519 71.8418 341.977Z" fill="#C69FDC"/>
<path d="M101.809 329.99C101.6 329.991 101.432 329.809 101.451 329.601C101.673 326.935 101.464 323.946 100.829 320.715C101.958 317.835 102.845 330.653 101.809 329.99Z" fill="#C69FDC"/>
<path fill-rule="evenodd" clip-rule="evenodd" d="M87.1221 309.247L87.6402 315.464C88.4593 315.708 95.2844 318.262 96.5779 315.723L96.6427 309.117L87.1221 309.247Z" fill="#C69FDC"/>
<path fill-rule="evenodd" clip-rule="evenodd" d="M64.8972 286.97C59.2586 277.934 60.4126 268.831 65.848 265.331C65.848 265.331 64.9843 261.789 66.3661 261.099C67.7478 260.409 68.7841 261.963 68.7841 261.963C68.7841 261.963 68.5251 255.572 71.1157 255.918C73.7064 256.263 72.4973 259.804 72.4973 259.804C75.9845 252.047 102.086 249.309 108.853 260.323C115.407 266.874 116.132 275.939 110.061 281.047C110.062 281.047 76.1242 292.273 76.1242 292.273L66.5335 290.394C66.5335 290.394 68.1015 292.105 64.8972 286.97Z" fill="#C69FDC"/>
<path fill-rule="evenodd" clip-rule="evenodd" d="M107.61 288.823C108.39 277.58 122.048 282.352 118.424 291.933C116.456 296.535 112.172 297.299 109.996 296.579C107.821 295.858 107.451 292.371 107.61 288.823Z" fill="#C69FDC"/>
<path fill-rule="evenodd" clip-rule="evenodd" d="M109.742 289.443C109.731 291.268 109.545 293.008 110.343 294.423C111.877 294.932 114.819 294.234 116.207 290.989C116.941 289.272 116.691 285.811 113.788 285.183C110.727 284.521 109.811 287.902 109.742 289.443Z" fill="#C69FDC"/>
<path fill-rule="evenodd" clip-rule="evenodd" d="M110.822 288.098C113.118 288.108 113.118 291.599 110.822 291.609C108.526 291.599 108.527 288.108 110.822 288.098Z" fill="#C69FDC"/>
<path fill-rule="evenodd" clip-rule="evenodd" d="M94.2359 312.217C87.2593 312.728 81.7097 310.291 77.3104 307.9C69.2195 302.389 68.759 294.941 67.2924 284.239C67.034 278.539 67.2068 270.249 72.0426 266.535C85.7061 255.975 116.145 261.265 110.988 283.03C110.125 285.534 109.953 288.988 110.902 291.664C113.746 302.978 111.025 309.881 94.2359 312.217Z" fill="#C69FDC"/>
<mask id="mask4_2096_4543" style="mask-type:luminance" maskUnits="userSpaceOnUse" x="67" y="261" width="45" height="52">
<path d="M94.2359 312.213C87.2593 312.724 81.7097 310.287 77.3104 307.896C69.2195 302.385 68.759 294.937 67.2924 284.235C67.034 278.535 67.2068 270.245 72.0426 266.531C85.7061 255.971 116.145 261.261 110.988 283.027C110.125 285.53 109.953 288.984 110.902 291.661C113.746 302.974 111.025 309.877 94.2359 312.213Z" fill="white"/>
</mask>
<g mask="url(#mask4_2096_4543)">
<path fill-rule="evenodd" clip-rule="evenodd" d="M79.7647 297.047C74.7084 297.133 74.7092 304.655 79.7648 304.74C84.821 304.654 84.8202 297.133 79.7647 297.047Z" fill="#C69FDC"/>
<path fill-rule="evenodd" clip-rule="evenodd" d="M111.543 295.672C106.487 295.758 106.487 303.28 111.543 303.365C116.599 303.279 116.599 295.758 111.543 295.672Z" fill="#C69FDC"/>
</g>
<path fill-rule="evenodd" clip-rule="evenodd" d="M66.1075 284.588C66.7121 287.524 68.1306 290.708 68.1306 290.708C69.5618 287.352 69.9071 284.243 69.6481 280.443C72.6705 276.039 73.0159 273.017 72.5842 270.685C76.6429 268.354 80.3562 266.627 80.3562 266.627C80.3562 266.627 76.2113 271.981 77.593 272.93C78.9745 273.881 87.0056 271.204 88.56 268.354C87.6966 270.34 86.7465 271.808 87.7829 272.24C88.8191 272.671 98.2318 272.499 101.254 266.799C101.254 266.799 100.045 270.167 100.995 270.772C101.945 271.376 106.504 269.922 107.42 267.799C102.198 257.146 77.7111 257.551 69.6486 266.368C66.0212 271.117 65.5029 281.653 66.1075 284.588Z" fill="#C69FDC"/>
<path d="M98.7638 294.819C97.5198 294.819 96.4623 294.171 96.3986 294.131C96.0005 293.888 96.3873 293.271 96.7791 293.521C96.7981 293.533 98.6765 294.676 100.1 293.702C102.454 291.504 99.4054 288.684 97.2369 290.313C97.0286 290.48 96.6899 290.337 96.6644 290.071L96.0918 285.593C96.0666 285.396 96.2058 285.216 96.4028 285.191C96.6001 285.163 96.7796 285.305 96.8049 285.502L97.3096 289.449C101.56 287.429 103.738 294.523 98.7638 294.819Z" fill="#C69FDC"/>
<path fill-rule="evenodd" clip-rule="evenodd" d="M89.3361 298.317C92.0734 299.177 98.2019 300.416 101.253 297.367C104.97 308.005 87.8818 307.237 89.3361 298.317Z" fill="#C69FDC"/>
<path d="M84.7483 292.177C84.1666 292.197 84.0019 291.313 84.566 291.13C84.6402 291.103 85.8955 290.654 87.0968 290.321C85.8743 289.789 84.8478 289.782 84.8338 289.782C84.1348 289.793 84.1331 288.693 84.8334 288.703C84.9262 288.703 86.9537 288.72 88.8829 290.098C89.0618 290.226 89.1452 290.449 89.0941 290.663C89.0426 290.876 88.8668 291.038 88.6494 291.07C87.2689 291.273 84.931 292.191 84.7483 292.177Z" fill="#C69FDC"/>
<path fill-rule="evenodd" clip-rule="evenodd" d="M79.2446 292.739C77.8807 291.551 74.1411 291.959 75.0348 293.646C76.0028 295.473 79.2446 292.739 79.2446 292.739Z" fill="#C69FDC"/>
<path d="M106.684 290.291C106.513 290.285 104.109 289.825 102.742 289.84C102.264 289.866 102.01 289.241 102.35 288.92C104.026 287.238 106.027 286.886 106.112 286.872C106.8 286.747 106.983 287.828 106.291 287.936C106.271 287.939 105.259 288.125 104.151 288.844C105.39 288.972 106.701 289.206 106.778 289.22C107.415 289.319 107.319 290.308 106.684 290.291Z" fill="#C69FDC"/>
<path fill-rule="evenodd" clip-rule="evenodd" d="M84.7478 281.342C83.2582 281.666 81.2504 283.415 80.0846 283.415C78.9188 283.415 78.3359 282.443 78.5949 281.213C78.854 279.982 80.9265 277.262 83.1286 276.808C85.3307 276.355 88.4395 276.744 88.8929 278.169C89.5047 281.392 87.1062 280.688 84.7478 281.342Z" fill="#C69FDC"/>
<path fill-rule="evenodd" clip-rule="evenodd" d="M103.483 279.508C104.857 279.779 106.823 280.807 107.888 280.766C108.953 280.724 109.124 279.669 108.84 278.449C108.555 277.228 106.816 275.295 104.787 274.92C102.758 274.545 99.9333 275.043 99.5743 276.483C99.2153 277.923 99.9679 278.996 100.801 279.093C101.634 279.19 102.11 279.237 103.483 279.508Z" fill="#C69FDC"/>
<path fill-rule="evenodd" clip-rule="evenodd" d="M70.9206 292.006C67.0594 281.96 52.8648 288.801 59.9534 297.965C63.5804 301.851 68.5548 301.409 70.7307 300.119C72.9067 298.829 72.2158 295.374 70.9206 292.006Z" fill="#C69FDC"/>
<path fill-rule="evenodd" clip-rule="evenodd" d="M68.7606 293.193C69.3469 294.939 70.1031 296.572 69.6678 298.146C68.1333 299.057 64.6627 299.194 62.1053 296.454C57.6356 290.544 66.5689 286.869 68.7606 293.193Z" fill="#C69FDC"/>
<path fill-rule="evenodd" clip-rule="evenodd" d="M68.1642 291.898C70.46 291.909 70.4598 295.399 68.164 295.409C65.8684 295.399 65.8686 291.908 68.1642 291.898Z" fill="#C69FDC"/>
<path fill-rule="evenodd" clip-rule="evenodd" d="M109.159 290.087C110.523 288.899 114.262 289.307 113.368 290.993C112.401 292.821 109.159 290.087 109.159 290.087Z" fill="#C69FDC"/>
<path fill-rule="evenodd" clip-rule="evenodd" d="M87.4115 312.707L94.3773 316.895L92.0781 319.929C89.0987 318.798 86.3003 317.059 84.9473 315.194C85.3239 313.556 86.4016 312.692 87.4115 312.707Z" fill="#C69FDC"/>
<path fill-rule="evenodd" clip-rule="evenodd" d="M94.377 316.889L97.2159 318.67C97.7446 318.022 99.3749 314.507 96.6042 313.145C96.0932 314.655 94.377 316.889 94.377 316.889Z" fill="#C69FDC"/>
<path fill-rule="evenodd" clip-rule="evenodd" d="M86.6427 326.718L87.5041 327.714C87.5041 327.714 93.6569 325.771 98.5143 325.383C98.5143 325.383 101.931 321.868 103.777 321.642C105.966 321.552 109.944 322.654 109.541 324.427C111.063 325.042 110.933 325.916 110.674 326.24C111.581 326.791 110.577 328.021 109.832 327.859C110.496 329.845 106.027 329.033 105.655 328.928C105.43 330.741 101.778 332.044 100.312 331.454C96.0187 333.022 84.8495 340.052 80.8818 333.073L86.6427 326.718Z" fill="#C69FDC"/>
<path d="M109.541 324.787C109.501 324.787 109.461 324.781 109.421 324.767C109.398 324.759 107.028 323.928 105.878 323.879C105.413 323.864 105.443 323.141 105.909 323.161C107.225 323.29 111.162 324.156 109.541 324.787Z" fill="#C69FDC"/>
<path d="M110.675 326.604C109.311 326.14 107.875 325.784 106.48 325.791C106.282 325.788 106.122 325.626 106.125 325.427C105.861 324.417 112.743 325.874 110.675 326.604Z" fill="#C69FDC"/>
<path d="M109.832 328.218C109.366 328.121 109.165 327.662 106.775 327.477C106.312 327.453 106.358 326.717 106.825 326.76C109.285 326.93 111 327.703 109.832 328.218Z" fill="#C69FDC"/>
<path fill-rule="evenodd" clip-rule="evenodd" d="M82.5182 321.303L86.8575 326.095C86.8575 326.095 84.9145 332.701 79.8628 334.385L75.7826 328.168C75.7826 328.168 75.2643 320.461 82.5182 321.303Z" fill="#C69FDC"/>
<path d="M79.8615 334.75C79.743 334.75 79.6288 334.691 79.561 334.588L75.4807 328.37C75.372 328.204 75.4182 327.981 75.5841 327.872C76.0475 327.163 79.7604 333.898 80.0073 333.957C84.1694 332.389 86.0953 327.241 86.4505 326.187C86.4405 325.942 81.4747 321.276 82.2756 321.041C82.557 320.229 86.9041 325.855 87.1228 325.859C87.4146 326.423 85.1285 333.003 79.8615 334.75Z" fill="#C69FDC"/>
<path d="M72.7621 62.2937C69.5528 61.9617 65.7897 57.9781 68.1138 55.2104C63.0226 51.8902 64.9045 47.3534 68.5568 46.9099C64.1296 42.1513 68.7088 38.2919 71.697 38.4015C68.6258 33.2551 75.2523 29.2563 77.7703 31.1116C76.3453 25.7847 85.3789 23.2261 87.2602 26.9886C89.0312 23.2261 96.2248 22.6723 97.2208 27.3206C99.877 24.5542 105.078 25.8823 105.078 29.6447C108.399 27.6526 113.601 30.4203 111.609 35.2891C115.814 35.2891 119.577 39.2734 115.925 43.9217C120.683 45.0286 121.458 51.4479 117.253 52.3331C121.347 55.3213 118.249 60.7445 112.937 60.3016C112.715 66.61 75.9721 74.358 72.7621 62.2937Z" fill="#C69FDC"/>
<path d="M102.662 136.715C103.697 144.202 102.242 156.568 102.581 159.37C102.919 162.172 105.791 163.107 107.062 164.626C108.332 166.144 107.086 167.13 104.454 166.111C101.822 165.091 99.2345 164.295 98.52 163.595C98.267 163.347 97.9848 162.851 97.5638 160.06C97.1428 157.268 95.2808 145.235 94.3564 137.899C94.4919 135.264 102.662 136.715 102.662 136.715Z" fill="#C69FDC"/>
<path d="M102.939 148.426C103.089 144.409 103.126 140.072 102.662 136.715C102.662 136.715 94.4926 135.264 94.3564 137.899C94.7675 141.156 95.3631 145.341 95.9349 149.23C97.3546 149.161 100.612 148.796 102.939 148.426Z" fill="#C69FDC"/>
<path d="M100.008 161.132C100.656 160.704 101.607 159.799 102.666 159.833C102.767 160.258 102.932 160.633 103.137 160.977C102.097 161.002 101.009 161.622 101.013 162.07C101.018 162.52 102.951 163.674 104.599 162.582C105.485 163.309 106.456 163.903 107.064 164.628C108.334 166.147 107.088 167.133 104.456 166.113C101.824 165.094 99.2367 164.297 98.5222 163.597C98.3051 163.385 98.066 162.986 97.7373 161.119C98.2606 160.989 99.3682 161.555 100.008 161.132Z" fill="#C69FDC"/>
<path d="M84.0646 137.093C84.3136 144.647 86.7208 156.6 86.7208 159.422C86.7208 162.244 83.9816 163.517 82.9025 165.177C81.8235 166.837 83.1794 167.667 85.6696 166.339C88.1598 165.011 90.634 163.909 91.2588 163.13C91.48 162.853 91.7011 162.327 91.7841 159.505C91.8671 156.683 92.8632 145.394 92.5312 138.006C91.9501 135.433 84.0646 137.093 84.0646 137.093Z" fill="#C69FDC"/>
<path d="M84.0645 137.093C84.174 140.418 84.7013 144.592 85.2577 148.466C87.72 148.624 91.0442 148.671 92.4095 148.533C92.5742 144.95 92.6718 141.13 92.5317 138.006C91.95 135.433 84.0645 137.093 84.0645 137.093Z" fill="#C69FDC"/>
<path d="M77.1473 110.227C74.3803 103.697 76.3724 94.7334 90.3724 93.2944C106.42 92.6855 108.8 99.8797 108.8 99.8797C107.693 100.544 104.704 102.205 104.704 102.205C105.313 105.193 104.981 110.449 105.092 110.837C105.202 111.224 111.206 131.865 111.87 138.007C109.85 139.501 109.601 137.426 106.696 138.339C103.791 139.252 102.906 139.335 100.913 138.339C98.9213 137.343 97.2612 137.675 94.688 138.671C92.1148 139.667 90.0397 138.588 88.5456 138.505C87.0515 138.422 85.0594 139.335 82.4032 139.418C79.7471 139.501 78.668 138.505 77.0909 138.588C77.1739 136.596 80.4941 115.679 82.1542 111.528C82.2372 108.872 83.6211 107.018 83.6211 107.018C83.6211 107.018 79.4715 108.899 77.1473 110.227Z" fill="#C69FDC"/>
<path d="M88.1125 88.5391C88.0136 90.6142 88.0607 92.356 88.1125 94.1004C88.2447 98.5555 97.621 98.1677 97.621 94.1004C97.621 90.0332 97.3241 88.6221 97.3241 88.6221L88.1125 88.5391Z" fill="#C69FDC"/>
<path d="M74.837 76.0166C72.2917 73.3605 68.5837 73.4156 67.3665 75.9057C66.2875 78.1137 68.1415 82.6013 71.6828 83.4871C75.2241 84.3723 77.2721 81.7712 77.2721 81.7712L74.837 76.0166Z" fill="#C69FDC"/>
<path d="M111.416 75.6846C113.961 73.0284 117.669 73.0835 118.886 75.5737C119.965 77.7816 118.111 82.2692 114.57 83.1551C111.028 84.0402 108.98 81.4392 108.98 81.4392L111.416 75.6846Z" fill="#C69FDC"/>
<path d="M92.6554 44.1468C80.1402 44.4098 69.8881 55.8818 71.849 68.1626C74.5191 84.8885 78.0465 87.6416 83.9126 89.9658C89.7788 92.2899 106.151 92.2653 110.377 83.6427C114.528 75.1762 116.672 65.1737 113.573 57.4277C110.474 49.6796 103.169 43.925 92.6554 44.1468Z" fill="#C69FDC"/>
<path d="M80.8 71.9564C79.5549 73.0774 78.683 75.0276 79.6379 77.0198C80.5928 79.0119 82.3771 79.3087 83.9542 79.2609C86.2225 79.1905 88.8097 76.3411 86.1123 72.2739C84.4934 70.3236 81.5059 71.4166 80.8 71.9564Z" fill="#C69FDC"/>
<path d="M92.5316 79.0028C92.3284 78.8155 92.0986 78.6023 91.9977 78.3374C91.9359 78.176 91.9585 78.0844 92.0488 77.9908C92.3264 77.6986 92.8848 77.6833 93.2587 77.6886C93.6916 77.6953 94.2242 77.777 94.5722 78.0585C94.9454 78.36 94.7149 78.7511 94.442 79.0592C94.1591 79.378 94.6266 79.8494 94.9115 79.5287C95.3889 78.9908 95.6698 78.2856 95.1392 77.682C94.6977 77.1793 93.8889 77.0445 93.2587 77.0253C92.6444 77.0067 91.8708 77.1249 91.4744 77.6468C90.9903 78.2863 91.5939 79.042 92.0621 79.4729C92.3762 79.7618 92.847 79.2936 92.5316 79.0028Z" fill="#C69FDC"/>
<path d="M79.6927 65.1255C82.1138 65.1926 83.8709 63.9953 85.2919 62.1386C85.5522 61.7987 84.9752 61.4686 84.7189 61.804C83.4439 63.4694 81.8668 64.5219 79.6934 64.4615C79.2644 64.4495 79.2657 65.1135 79.6927 65.1255Z" fill="#C69FDC"/>
<path d="M102.049 60.4727C104.003 60.5052 105.667 61.3851 106.156 63.3832C106.258 63.7989 106.898 63.6223 106.796 63.2066C106.238 60.9249 104.295 59.8458 102.049 59.8087C101.621 59.8013 101.622 60.4654 102.049 60.4727Z" fill="#C69FDC"/>
<path d="M82.6942 70.9844C80.0308 71.6153 79.795 76.5053 83.3324 77.1421C88.5458 78.0811 88.1706 69.6862 82.6942 70.9844Z" fill="#C69FDC"/>
<path d="M72.9543 75.4105C75.2373 78.0666 74.6144 72.8652 73.8674 69.545C73.5354 67.7188 75.2625 68.0183 75.9425 65.4498C76.3164 64.0387 75.4027 62.0048 76.5654 60.9257C78.8484 60.8008 79.7614 57.2316 80.1765 56.7621C82.0856 58.4355 85.0326 54.5343 85.5718 54.3683C88.6018 55.0741 91.3822 53.6624 92.3782 52.6663C93.2501 53.2474 95.2423 55.0602 99.4337 53.4413C100.513 55.2674 102.505 56.8863 105.078 56.0144C106.074 59.0445 107.07 59.6255 109.311 59.9987C110.39 60.7046 108.522 63.7758 111.635 64.6888C111.594 65.1039 110.598 67.6358 111.843 68.5071C113.089 69.3783 113.047 69.545 112.756 70.5822C112.466 71.6194 111.677 75.6044 112.922 75.6044C114.167 75.6044 114.832 71.9933 115.371 68.5071C115.911 65.0208 116.063 54.2713 106.269 47.686C96.4741 41.1007 85.3513 43.4248 77.6597 49.6781C69.9681 55.9314 70.4243 62.0632 70.7012 66.9572C70.9476 71.3571 72.3733 74.609 72.9543 75.4105Z" fill="#C69FDC"/>
<path d="M72.7189 75.6449C73.5443 76.5413 74.6672 76.8455 74.8332 75.2989C74.9541 74.176 74.8054 73.0485 74.65 71.9355C74.4348 70.3963 73.7429 69.0297 74.9694 67.7992C75.6766 67.0907 76.2882 66.072 76.3459 65.0501C76.4263 63.6244 75.7895 61.7943 77.3759 61.0778C79.202 60.2537 79.4158 58.399 80.461 56.9288C80.3096 56.9693 80.1582 57.0085 80.0068 57.0484C81.7599 58.3386 83.7035 56.5078 84.9519 55.3298C85.363 54.9427 85.4732 54.6864 86.0463 54.7959C86.794 54.9394 87.6287 54.9327 88.3784 54.8072C89.7078 54.5834 91.0857 54.1445 92.1561 53.2892C92.522 52.9977 92.3759 53.0774 92.8354 53.3875C93.2359 53.6578 93.6662 53.8609 94.1104 54.0456C95.2984 54.5396 96.6158 54.4745 97.8543 54.2587C98.6857 54.1146 99.0934 53.673 99.6757 54.3902C100.164 54.9925 100.695 55.4852 101.337 55.9175C102.486 56.6904 103.882 56.6938 105.164 56.3352C105.028 56.2575 104.892 56.1804 104.756 56.1027C105.519 58.32 106.49 59.763 108.859 60.2544C109.677 60.4243 109.355 62.528 109.535 63.2193C109.79 64.1961 110.665 64.6968 111.546 65.0089C111.468 64.8728 111.391 64.7366 111.314 64.6005C111.106 65.6902 110.773 66.6491 110.978 67.7726C111.052 68.181 111.347 68.5562 111.674 68.7933C112.797 69.6094 112.437 70.3584 112.208 71.476C112.077 72.1161 111.32 76.8415 113.29 75.858C114.29 75.3587 114.589 73.9635 114.856 72.9894C115.317 71.306 115.599 69.5304 115.793 67.7959C116.048 65.5122 115.866 63.1828 115.437 60.933C114.074 53.8012 109.005 47.9051 102.309 45.1666C94.4929 41.9699 85.9613 43.462 79.0997 48.1761C74.4116 51.3967 70.9393 55.9461 70.3377 61.692C69.8855 66.007 70.1737 71.8864 72.6665 75.5771C72.9042 75.9297 73.4806 75.5984 73.2395 75.2425C71.2819 72.3426 71.0568 68.3065 70.9293 64.9358C70.7919 61.3128 71.4294 57.9089 73.3704 54.8006C78.3082 46.8912 89.0351 42.7555 98.011 44.5146C106.436 46.1654 113.07 52.7653 114.796 61.1083C115.276 63.4298 115.392 65.9014 115.073 68.2547C114.807 70.2143 114.481 72.2277 113.816 74.0963C113.795 74.1554 112.984 76.0473 112.634 74.8135C112.532 74.4569 112.571 74.0259 112.583 73.6581C112.609 72.7935 112.781 71.9295 112.969 71.0875C113.111 70.4534 113.519 69.61 112.988 69.0376C112.259 68.2507 111.508 67.8178 111.567 66.6106C111.597 65.9811 111.837 65.3887 111.953 64.7765C111.989 64.5886 111.903 64.4319 111.721 64.3681C110.219 63.8355 110.02 62.8182 110.031 61.4151C110.035 60.9642 110.071 60.2245 109.685 59.8871C109.163 59.4303 108.247 59.4721 107.605 59.1859C106.334 58.6208 105.812 57.1334 105.396 55.9261C105.338 55.7555 105.171 55.6432 104.988 55.6937C102.681 56.3398 100.918 55.1771 99.7182 53.2733C99.6432 53.1537 99.4852 53.0694 99.3437 53.1205C96.7945 54.0303 94.7386 53.8875 92.5439 52.3795C92.4184 52.2931 92.2458 52.3356 92.1415 52.4313C91.1787 53.3184 89.9635 53.7906 88.7038 54.0814C87.6964 54.3151 86.6612 54.2395 85.6578 54.0469C85.4792 54.013 85.3484 54.1007 85.2089 54.2023C83.9227 55.1412 82.139 57.7967 80.3415 56.474C80.1868 56.3597 79.9836 56.4587 79.8873 56.5935C78.8819 58.0066 78.68 60.3141 76.5631 60.5924C75.0212 60.7956 75.7762 64.5002 75.6201 65.3602C75.316 67.0322 73.1472 67.8125 73.545 69.632C73.808 70.8339 74.0205 72.0404 74.1486 73.2643C74.2369 74.1056 74.4753 76.5732 73.1864 75.1747C72.8982 74.8593 72.4294 75.3301 72.7189 75.6449Z" fill="#C69FDC"/>
<path d="M82.4369 111.708C84.2909 111.359 86.1336 111.791 87.9896 111.919C89.7374 112.039 91.4991 112.004 93.2502 112.039C95.1115 112.076 96.9137 111.841 98.7597 111.651C100.829 111.438 102.958 111.509 105.037 111.5C105.465 111.498 105.465 110.834 105.037 110.836C103.153 110.845 101.255 110.833 99.374 110.936C97.3154 111.048 95.3207 111.399 93.2502 111.375C91.3105 111.353 89.3662 111.35 87.4305 111.216C85.6734 111.096 84.016 110.736 82.2609 111.068C81.8399 111.148 82.0185 111.788 82.4369 111.708Z" fill="#C69FDC"/>
<path d="M86.6222 111.805C85.6188 115.357 85.0418 118.988 85.061 122.684C85.063 123.112 85.727 123.113 85.7251 122.684C85.7058 119.047 86.2749 115.477 87.2623 111.982C87.3792 111.569 86.7384 111.393 86.6222 111.805Z" fill="#C69FDC"/>
<path d="M89.1555 111.836C89.0771 113.65 88.7876 115.445 88.4483 117.226C88.3686 117.644 89.008 117.822 89.0884 117.403C89.439 115.564 89.7385 113.708 89.8195 111.836C89.8381 111.408 89.1741 111.409 89.1555 111.836Z" fill="#C69FDC"/>
<path d="M96.2297 111.955C97.091 113.386 97.3759 115.157 97.7776 116.762C98.273 118.737 98.5081 120.77 98.619 122.8C98.6422 123.226 99.3062 123.227 99.283 122.8C99.1681 120.699 98.8866 118.636 98.4177 116.586C98.0366 114.918 97.6939 113.1 96.8028 111.62C96.5823 111.253 96.0079 111.587 96.2297 111.955Z" fill="#C69FDC"/>
<path d="M100.322 111.724C101.074 113.434 101.722 115.261 101.771 117.146C101.783 117.573 102.447 117.575 102.435 117.146C102.382 115.135 101.698 113.212 100.896 111.389C100.724 110.997 100.152 111.336 100.322 111.724Z" fill="#C69FDC"/>
<path d="M103.921 99.4385C104.781 101.409 104.551 103.651 104.54 105.746C104.537 106.174 105.201 106.174 105.204 105.746C105.217 103.509 105.411 101.202 104.494 99.1038C104.323 98.712 103.751 99.0507 103.921 99.4385Z" fill="#C69FDC"/>
<path d="M89.4872 160.864C88.7919 160.517 87.7401 159.732 86.6922 159.893C86.6431 160.326 86.5242 160.719 86.3622 161.084C87.3974 160.986 88.5522 161.47 88.602 161.915C88.6518 162.363 86.8709 163.74 85.1038 162.853C84.311 163.682 83.4178 164.387 82.9025 165.18C81.8235 166.84 83.1794 167.67 85.6696 166.342C88.1598 165.014 90.634 163.913 91.2588 163.133C91.4488 162.896 91.638 162.47 91.7403 160.578C91.2051 160.511 90.1738 161.207 89.4872 160.864Z" fill="#C69FDC"/>
<path d="M79.6247 74.0729C80.1194 72.1963 81.8599 71.4194 83.6767 71.3829C84.1043 71.3742 84.105 70.7102 83.6767 70.7188C81.5657 70.762 79.5556 71.7288 78.9852 73.8963C78.8757 74.3106 79.5158 74.4866 79.6247 74.0729Z" fill="#C69FDC"/>
<path d="M105.839 71.9564C107.084 73.0774 107.956 75.0276 107.001 77.0198C106.046 79.0119 104.261 79.3087 102.685 79.2609C100.416 79.1905 97.8287 76.3411 100.527 72.2739C102.145 70.3236 105.134 71.4166 105.839 71.9564Z" fill="#C69FDC"/>
<path d="M104.968 71.2204C107.567 72.0803 108.154 76.3262 104.635 77.06C99.9699 78.0341 99.2826 69.3398 104.968 71.2204Z" fill="#C69FDC"/>
<path d="M107.655 73.8963C107.085 71.7282 105.074 70.7613 102.964 70.7188C102.535 70.7102 102.536 71.3742 102.964 71.3829C104.78 71.4194 106.521 72.1963 107.016 74.0729C107.124 74.4866 107.765 74.3106 107.655 73.8963Z" fill="#C69FDC"/>
<path d="M77.7552 72.3021C78.394 72.5949 79.0169 72.9063 79.7161 73.0272C80.1345 73.0989 80.3138 72.4594 79.8928 72.3864C79.248 72.2755 78.6796 71.9993 78.0906 71.729C77.7041 71.5517 77.3667 72.1234 77.7552 72.3021Z" fill="#C69FDC"/>
<path d="M106.839 72.9257C107.559 72.7723 108.181 72.3274 108.8 71.9515C109.165 71.7298 108.832 71.156 108.465 71.3785C107.894 71.7244 107.326 72.1434 106.663 72.2849C106.244 72.3745 106.421 73.0147 106.839 72.9257Z" fill="#C69FDC"/>
<path d="M83.1934 85.4663C85.004 85.4663 86.4718 84.407 86.4718 83.1004C86.4718 81.7937 85.004 80.7344 83.1934 80.7344C81.3828 80.7344 79.915 81.7937 79.915 83.1004C79.915 84.407 81.3828 85.4663 83.1934 85.4663Z" fill="#C69FDC"/>
<path d="M103.445 85.3882C105.256 85.3882 106.724 84.3289 106.724 83.0222C106.724 81.7155 105.256 80.6562 103.445 80.6562C101.634 80.6562 100.166 81.7155 100.166 83.0222C100.166 84.3289 101.634 85.3882 103.445 85.3882Z" fill="#C69FDC"/>
<path d="M69.4423 77.6595C69.6083 76.9157 70.2724 76.9138 70.8859 77.1229C71.8654 77.4583 72.546 78.4371 72.9863 79.3156C73.1782 79.6988 73.7506 79.3621 73.5594 78.9809C72.977 77.8162 72.0633 76.7451 70.7644 76.3918C69.8779 76.1501 69.0067 76.5665 68.8022 77.4835C68.7092 77.8999 69.3493 78.0778 69.4423 77.6595Z" fill="#C69FDC"/>
<path d="M117.835 76.9953C117.577 76.1539 116.573 76.1659 115.849 76.2648C114.55 76.4428 113.692 77.7078 113.078 78.7417C112.858 79.1109 113.432 79.4443 113.651 79.0764C114.013 78.4681 114.406 77.901 114.932 77.4229C115.234 77.148 116.95 76.375 117.195 77.1712C117.319 77.5803 117.961 77.4057 117.835 76.9953Z" fill="#C69FDC"/>
<path d="M76.3051 52.0948C75.3289 54.247 75.2784 57.1714 76.0228 59.4059C76.1576 59.8097 76.7991 59.637 76.663 59.2293C75.9837 57.1874 75.9837 54.403 76.8788 52.4295C77.0534 52.043 76.481 51.705 76.3051 52.0948Z" fill="#C69FDC"/>
<path d="M80.757 48.5251C79.9695 50.7942 79.8393 53.119 79.832 55.5029C79.8307 55.9312 80.4947 55.9312 80.4961 55.5029C80.5027 53.1814 80.6302 50.913 81.3972 48.7018C81.5386 48.296 80.8972 48.1234 80.757 48.5251Z" fill="#C69FDC"/>
<path d="M86.1009 46.3733C85.5066 47.724 85.5564 49.0726 85.4388 50.5096C85.3811 51.2188 85.0198 52.5728 85.5723 53.1671C85.8645 53.4819 86.3333 53.0111 86.0418 52.6977C85.735 52.3676 86.0663 50.9273 86.1029 50.5096C86.2171 49.2081 86.1334 47.9391 86.6746 46.708C86.8446 46.3202 86.2729 45.9815 86.1009 46.3733Z" fill="#C69FDC"/>
<path d="M91.8652 45.461C92.1095 47.4459 92.1879 49.4393 92.1142 51.4374C92.0983 51.8664 92.7623 51.8644 92.7782 51.4374C92.8519 49.4393 92.7736 47.4459 92.5292 45.461C92.4781 45.0414 91.8134 45.0367 91.8652 45.461Z" fill="#C69FDC"/>
<path d="M98.0199 45.8886C98.8898 47.977 98.7643 50.2248 98.755 52.4407C98.753 52.869 99.4171 52.869 99.4191 52.4407C99.429 50.167 99.5519 47.8535 98.6601 45.712C98.498 45.3228 97.8552 45.4935 98.0199 45.8886Z" fill="#C69FDC"/>
<path d="M103.45 47.4541C104.467 49.7763 104.716 52.2465 104.733 54.7572C104.736 55.1855 105.4 55.1862 105.397 54.7572C105.379 52.1157 105.092 49.5591 104.024 47.1194C103.852 46.7276 103.28 47.0663 103.45 47.4541Z" fill="#C69FDC"/>
<path d="M108.396 51.1025C108.941 53.5203 109.254 55.9294 108.965 58.4017C108.915 58.8266 109.58 58.822 109.629 58.4017C109.925 55.8683 109.593 53.3988 109.036 50.9259C108.943 50.5082 108.302 50.6855 108.396 51.1025Z" fill="#C69FDC"/>
<path d="M111.717 55.0929C112.186 57.8042 112.864 60.9664 111.997 63.6936C112.199 63.667 112.401 63.6405 112.604 63.6146C112.593 63.594 112.583 63.5727 112.573 63.5528C112.379 63.1703 111.807 63.507 112 63.8875C112.01 63.9081 112.02 63.9293 112.031 63.9493C112.168 64.2195 112.555 64.1279 112.638 63.8703C113.543 61.0228 112.849 57.7557 112.357 54.917C112.284 54.4946 111.644 54.6739 111.717 55.0929Z" fill="#C69FDC"/>
<path d="M72.5388 57.487C72.1948 59.6007 72.2007 61.7163 72.3043 63.8506C72.3588 64.9788 72.4292 66.4609 72.7805 67.5539C72.898 67.9205 73.4047 67.8375 73.4326 67.4656C73.4345 67.4337 73.4372 67.4012 73.4399 67.3693C73.4717 66.9417 72.807 66.945 72.7758 67.3693C72.7738 67.4012 72.7712 67.4337 72.7685 67.4656C72.9857 67.4364 73.2035 67.4072 73.4206 67.3773C73.0912 66.352 73.0959 64.9018 72.9684 63.8506C72.7247 61.8432 72.8555 59.6512 73.1789 57.6637C73.2473 57.2447 72.6078 57.0647 72.5388 57.487Z" fill="#C69FDC"/>
<path d="M114.444 61.7275C114.442 64.3133 114.469 67.0471 113.161 69.3626C113.363 69.4476 113.565 69.5333 113.768 69.6183C113.796 69.5353 113.823 69.4523 113.851 69.3693C113.987 68.9622 113.345 68.7889 113.211 69.1927C113.183 69.2757 113.156 69.3587 113.128 69.4417C113.007 69.8029 113.551 70.0214 113.735 69.6973C115.103 67.2756 115.107 64.4341 115.108 61.7275C115.109 61.2992 114.444 61.2992 114.444 61.7275Z" fill="#C69FDC"/>
<path d="M78.752 109.249C80.246 108.336 84.5623 105.583 84.5623 105.583C85.4754 106.759 87.3294 108.959 87.3294 108.959C90.1516 107.077 100.25 104.102 103.405 104.268C104.456 107.257 105.272 108.294 105.272 108.294C101.122 109.346 89.5433 117.812 84.9501 116.041C80.3569 114.27 78.752 109.249 78.752 109.249Z" fill="#C69FDC"/>
<path d="M100.001 93.3508C100.057 97.1139 101.44 109.951 104.484 112.552C107.527 115.153 110.239 110.838 109.242 105.636C108.246 100.434 104.262 91.8567 104.262 91.8567C107.527 90.6946 108.689 89.6435 108.468 88.3705C108.246 87.0975 106.766 83.2653 104.981 84.5934C103.943 83.5974 102.74 83.9705 102.532 84.7594C101.743 83.6385 98.8801 86.3784 101.494 87.7064C98.4239 88.4535 96.7226 90.9025 100.001 93.3508Z" fill="#C69FDC"/>
<path d="M101.916 84.9547C102.536 84.8259 103.222 85.5225 103.602 85.9329C104.114 86.4834 104.429 87.3812 104.247 88.1156C104.143 88.5313 104.784 88.7079 104.887 88.2922C105.14 87.2729 104.713 86.2509 104.072 85.4634C103.546 84.8173 102.606 84.134 101.739 84.3146C101.32 84.4016 101.498 85.0417 101.916 84.9547Z" fill="#C69FDC"/>
<path d="M104.499 84.5818C105.468 85.3488 106.239 86.3143 106.352 87.5846C106.39 88.0076 107.055 88.0116 107.016 87.5846C106.886 86.135 106.089 84.9995 104.968 84.113C104.636 83.85 104.163 84.3162 104.499 84.5818Z" fill="#C69FDC"/>
<path d="M101.41 88.0272C102.666 88.4914 102.702 86.6858 102.064 86.061C101.758 85.7615 101.289 86.2303 101.595 86.5305C101.757 86.6892 101.818 86.9475 101.831 87.1673C101.845 87.4203 101.812 87.4701 101.586 87.3864C101.183 87.2383 101.011 87.8805 101.41 88.0272Z" fill="#C69FDC"/>
<path d="M101.792 88.1114C102.124 88.0457 102.436 87.9388 102.778 87.9866C103.196 88.045 103.377 87.4049 102.954 87.3458C102.477 87.2794 102.081 87.379 101.616 87.4706C101.196 87.5543 101.374 88.1931 101.792 88.1114Z" fill="#C69FDC"/>
<path d="M83.6187 100.7C83.8863 101.646 84.2091 102.554 84.6248 103.445C84.7523 103.718 84.895 103.986 85.0305 104.256C85.2224 104.636 85.146 105.064 85.488 104.856C84.6845 105.342 83.8817 105.828 83.0789 106.314C81.096 107.514 79.1139 108.712 77.131 109.912C76.7651 110.133 77.0992 110.708 77.4664 110.485C80.256 108.797 83.0463 107.11 85.836 105.422C85.9761 105.337 86.0093 105.2 85.988 105.048C85.7802 103.51 84.6845 102.029 84.2589 100.523C84.1427 100.112 83.5019 100.287 83.6187 100.7Z" fill="#C69FDC"/>
<path d="M91.2691 84.5399C92.8044 83.0093 94.3549 82.6873 96.5124 82.7696C96.9407 82.7856 96.9394 82.1215 96.5124 82.1056C94.177 82.0159 92.4611 82.4137 90.799 84.0705C90.4962 84.3739 90.9656 84.8434 91.2691 84.5399Z" fill="#C69FDC"/>
<path d="M86.1264 110.234C87.0288 109.475 88.0787 108.804 89.1757 108.369C89.5688 108.213 89.3981 107.57 88.999 107.728C87.7872 108.209 86.6536 108.927 85.6569 109.764C85.3289 110.04 85.801 110.508 86.1264 110.234Z" fill="#C69FDC"/>
<defs>
<filter id="filter0_d_2096_4543" x="6" y="10" width="172" height="172" filterUnits="userSpaceOnUse" color-interpolation-filters="sRGB">
<feFlood flood-opacity="0" result="BackgroundImageFix"/>
<feColorMatrix in="SourceAlpha" type="matrix" values="0 0 0 0 0 0 0 0 0 0 0 0 0 0 0 0 0 0 127 0" result="hardAlpha"/>
<feOffset dy="4"/>
<feGaussianBlur stdDeviation="2"/>
<feComposite in2="hardAlpha" operator="out"/>
<feColorMatrix type="matrix" values="0 0 0 0 0 0 0 0 0 0 0 0 0 0 0 0 0 0 0.25 0"/>
<feBlend mode="normal" in2="BackgroundImageFix" result="effect1_dropShadow_2096_4543"/>
<feBlend mode="normal" in="SourceGraphic" in2="effect1_dropShadow_2096_4543" result="shape"/>
</filter>
<filter id="filter1_d_2096_4543" x="6" y="234" width="172" height="172" filterUnits="userSpaceOnUse" color-interpolation-filters="sRGB">
<feFlood flood-opacity="0" result="BackgroundImageFix"/>
<feColorMatrix in="SourceAlpha" type="matrix" values="0 0 0 0 0 0 0 0 0 0 0 0 0 0 0 0 0 0 127 0" result="hardAlpha"/>
<feOffset dy="4"/>
<feGaussianBlur stdDeviation="2"/>
<feComposite in2="hardAlpha" operator="out"/>
<feColorMatrix type="matrix" values="0 0 0 0 0 0 0 0 0 0 0 0 0 0 0 0 0 0 0.25 0"/>
<feBlend mode="normal" in2="BackgroundImageFix" result="effect1_dropShadow_2096_4543"/>
<feBlend mode="normal" in="SourceGraphic" in2="effect1_dropShadow_2096_4543" result="shape"/>
</filter>
<filter id="filter2_d_2096_4543" x="6" y="458" width="172" height="172" filterUnits="userSpaceOnUse" color-interpolation-filters="sRGB">
<feFlood flood-opacity="0" result="BackgroundImageFix"/>
<feColorMatrix in="SourceAlpha" type="matrix" values="0 0 0 0 0 0 0 0 0 0 0 0 0 0 0 0 0 0 127 0" result="hardAlpha"/>
<feOffset dy="4"/>
<feGaussianBlur stdDeviation="2"/>
<feComposite in2="hardAlpha" operator="out"/>
<feColorMatrix type="matrix" values="0 0 0 0 0 0 0 0 0 0 0 0 0 0 0 0 0 0 0.25 0"/>
<feBlend mode="normal" in2="BackgroundImageFix" result="effect1_dropShadow_2096_4543"/>
<feBlend mode="normal" in="SourceGraphic" in2="effect1_dropShadow_2096_4543" result="shape"/>
</filter>
</defs>
</svg>
