<svg width="1240" height="263" viewBox="0 0 1240 263" fill="none" xmlns="http://www.w3.org/2000/svg">
<path d="M1157.61 129.479C1154.76 129.479 1152 129.88 1149.39 130.614C1153.42 125.462 1155.83 118.981 1155.83 111.933C1155.83 95.1683 1142.23 81.5777 1125.44 81.5777C1117.63 81.5777 1110.51 84.5256 1105.13 89.3656C1105.22 88.3752 1105.28 87.3716 1105.28 86.3557C1105.28 69.5906 1091.67 56 1074.89 56C1058.11 56 1044.5 69.5906 1044.5 86.3557C1044.5 87.4133 1044.56 88.4582 1044.66 89.4879C1039.83 86.2552 1034.02 84.3674 1027.77 84.3674C1010.99 84.3674 997.387 97.9581 997.387 114.723C997.387 118.797 998.196 122.68 999.653 126.229C998.904 126.174 998.15 126.137 997.387 126.137C980.605 126.137 967 139.727 967 156.492C967 173.257 980.605 186.848 997.387 186.848C1005.96 186.848 1013.69 183.298 1019.22 177.596C1024.57 186.239 1034.15 192 1045.07 192C1053.02 192 1060.25 188.95 1065.66 183.962C1070.32 186.874 1075.83 188.562 1081.74 188.562C1087.3 188.562 1092.51 187.061 1097 184.452C1102.35 189.147 1109.36 192 1117.04 192C1125.33 192 1132.85 188.676 1138.33 183.294C1143.58 187.603 1150.29 190.19 1157.61 190.19C1174.4 190.19 1188 176.6 1188 159.835C1188 143.07 1174.4 129.479 1157.61 129.479Z" fill="#AA61B7"/>
<path d="M393.463 141.294C390.972 141.294 388.565 141.645 386.279 142.288C389.801 137.78 391.907 132.108 391.907 125.942C391.907 111.272 380.026 99.3805 365.37 99.3805C358.547 99.3805 352.328 101.96 347.626 106.195C347.711 105.328 347.757 104.45 347.757 103.561C347.757 88.8918 335.876 77 321.22 77C306.564 77 294.683 88.8918 294.683 103.561C294.683 104.487 294.731 105.401 294.824 106.302C290.605 103.473 285.533 101.822 280.074 101.822C265.418 101.822 253.537 113.713 253.537 128.383C253.537 131.947 254.243 135.345 255.516 138.451C254.861 138.402 254.203 138.369 253.537 138.369C238.881 138.369 227 150.261 227 164.931C227 179.6 238.881 191.492 253.537 191.492C261.021 191.492 267.777 188.385 272.602 183.396C277.279 190.959 285.639 196 295.178 196C302.117 196 308.432 193.331 313.16 188.967C317.233 191.514 322.043 192.992 327.2 192.992C332.059 192.992 336.609 191.678 340.527 189.396C345.199 193.504 351.321 196 358.028 196C365.272 196 371.834 193.092 376.623 188.382C381.204 192.152 387.069 194.417 393.463 194.417C408.119 194.417 420 182.525 420 167.855C420 153.186 408.119 141.294 393.463 141.294Z" fill="#AA61B7"/>
<path d="M531.463 163.294C528.972 163.294 526.565 163.645 524.279 164.288C527.801 159.78 529.907 154.108 529.907 147.942C529.907 133.272 518.026 121.38 503.37 121.38C496.547 121.38 490.328 123.96 485.626 128.195C485.711 127.328 485.757 126.45 485.757 125.561C485.757 110.892 473.876 99 459.22 99C444.564 99 432.683 110.892 432.683 125.561C432.683 126.487 432.731 127.401 432.824 128.302C428.605 125.473 423.533 123.822 418.074 123.822C403.418 123.822 391.537 135.713 391.537 150.383C391.537 153.947 392.243 157.345 393.516 160.451C392.861 160.402 392.203 160.369 391.537 160.369C376.881 160.369 365 172.261 365 186.931C365 201.6 376.881 213.492 391.537 213.492C399.021 213.492 405.777 210.385 410.602 205.396C415.279 212.959 423.639 218 433.178 218C440.117 218 446.432 215.331 451.16 210.967C455.233 213.514 460.043 214.992 465.2 214.992C470.059 214.992 474.609 213.678 478.527 211.396C483.199 215.504 489.321 218 496.028 218C503.272 218 509.834 215.092 514.623 210.382C519.204 214.152 525.069 216.417 531.463 216.417C546.119 216.417 558 204.525 558 189.855C558 175.186 546.119 163.294 531.463 163.294Z" fill="#AA61B7"/>
<path d="M232.831 114.164C230.44 114.865 228.229 115.88 226.216 117.14C228.328 111.822 228.751 105.788 227.015 99.8701C222.886 85.7941 208.137 77.7279 194.074 81.8538C187.527 83.7746 182.285 88.0006 178.967 93.3879C178.804 92.5323 178.601 91.6769 178.35 90.8238C174.221 76.7477 159.473 68.6815 145.41 72.8075C131.346 76.9333 123.294 91.6889 127.423 105.765C127.684 106.653 127.987 107.517 128.33 108.355C123.485 106.829 118.153 106.672 112.915 108.209C98.8516 112.334 90.799 127.09 94.9286 141.166C95.9321 144.586 97.5665 147.648 99.6617 150.27C99.0204 150.407 98.3795 150.561 97.7401 150.749C83.6769 154.875 75.6243 169.63 79.7539 183.706C83.8836 197.782 98.6318 205.849 112.695 201.723C119.877 199.616 125.485 194.733 128.71 188.588C135.327 194.528 144.768 197.011 153.921 194.326C160.58 192.372 165.888 188.034 169.196 182.515C173.822 183.813 178.853 183.876 183.801 182.425C188.464 181.057 192.46 178.515 195.577 175.222C201.217 177.849 207.793 178.521 214.23 176.633C221.18 174.593 226.659 169.955 229.928 164.088C235.385 166.416 241.65 166.938 247.786 165.138C261.849 161.012 269.901 146.256 265.772 132.18C261.642 118.104 246.894 110.038 232.831 114.164Z" fill="#AA61B7"/>
<path d="M1057.64 143.929C1054.04 143.929 1050.56 144.437 1047.25 145.365C1052.34 138.85 1055.39 130.653 1055.39 121.739C1055.39 100.536 1038.21 83.3483 1017.03 83.3483C1007.16 83.3483 998.173 87.0765 991.377 93.1977C991.5 91.9451 991.566 90.6759 991.566 89.391C991.566 68.1882 974.391 51 953.204 51C932.018 51 914.843 68.1882 914.843 89.391C914.843 90.7286 914.912 92.05 915.046 93.3524C908.947 89.2639 901.614 86.8765 893.723 86.8765C872.536 86.8765 855.361 104.065 855.361 125.267C855.361 130.419 856.383 135.33 858.222 139.819C857.276 139.749 856.325 139.702 855.361 139.702C834.175 139.702 817 156.89 817 178.093C817 199.296 834.175 216.484 855.361 216.484C866.181 216.484 875.947 211.994 882.922 204.783C889.683 215.714 901.768 223 915.558 223C925.589 223 934.717 219.143 941.553 212.835C947.441 216.517 954.394 218.652 961.849 218.652C968.873 218.652 975.451 216.753 981.114 213.454C987.868 219.392 996.717 223 1006.41 223C1016.89 223 1026.37 218.797 1033.29 211.99C1039.92 217.439 1048.4 220.711 1057.64 220.711C1078.82 220.711 1096 203.523 1096 182.32C1096 161.118 1078.82 143.929 1057.64 143.929Z" fill="#AA61B7"/>
<path d="M811.151 136.133C808.724 136.133 806.379 136.472 804.152 137.093C807.584 132.737 809.635 127.256 809.635 121.296C809.635 107.12 798.062 95.6282 783.785 95.6282C777.139 95.6282 771.081 98.1209 766.501 102.214C766.584 101.376 766.629 100.527 766.629 99.6684C766.629 85.4921 755.055 74 740.779 74C726.503 74 714.93 85.4921 714.93 99.6684C714.93 100.563 714.977 101.446 715.067 102.317C710.957 99.5834 706.016 97.9872 700.699 97.9872C686.422 97.9872 674.849 109.479 674.849 123.655C674.849 127.1 675.537 130.384 676.777 133.385C676.14 133.338 675.498 133.307 674.849 133.307C660.573 133.307 649 144.799 649 158.975C649 173.151 660.573 184.643 674.849 184.643C682.14 184.643 688.721 181.641 693.42 176.82C697.976 184.129 706.12 189 715.412 189C722.171 189 728.322 186.421 732.928 182.203C736.896 184.665 741.581 186.093 746.604 186.093C751.338 186.093 755.77 184.823 759.586 182.618C764.137 186.588 770.1 189 776.634 189C783.69 189 790.082 186.19 794.747 181.638C799.209 185.282 804.922 187.47 811.151 187.47C825.427 187.47 837 175.978 837 161.801C837 147.625 825.427 136.133 811.151 136.133Z" fill="#AA61B7"/>
<path fill-rule="evenodd" clip-rule="evenodd" d="M1081.55 252H70C62.5027 252 55.9689 247.875 52.5447 241.77C48.1581 243.521 43.3727 244.484 38.3615 244.484C17.175 244.484 0 227.296 0 206.093C0 184.89 17.175 167.702 38.3615 167.702C39.3247 167.702 40.2764 167.749 41.222 167.819C39.3827 163.33 38.3615 158.419 38.3615 153.267C38.3615 132.065 55.5365 114.876 76.7229 114.876C84.6144 114.876 91.9474 117.264 98.0456 121.352C97.912 120.05 97.8429 118.729 97.8429 117.391C97.8429 96.1882 115.018 79 136.204 79C157.391 79 174.566 96.1882 174.566 117.391C174.566 118.676 174.5 119.945 174.377 121.198C181.173 115.077 190.164 111.348 200.027 111.348C207.521 111.348 214.512 113.498 220.42 117.216C224.492 106.397 234.945 98.6988 247.198 98.6988C253.082 98.6988 258.549 100.475 263.095 103.518C262.995 102.549 262.944 101.566 262.944 100.57C262.944 84.7912 275.748 72 291.543 72C307.338 72 320.142 84.7912 320.142 100.57C320.142 101.526 320.093 102.471 320.001 103.403C325.068 98.8477 331.771 96.0731 339.124 96.0731C354.919 96.0731 367.724 108.864 367.724 124.643C367.724 127.24 367.376 129.756 366.724 132.147C369.403 131.395 372.229 130.993 375.148 130.993C381.541 130.993 387.481 132.923 392.42 136.227C392.312 135.174 392.256 134.106 392.256 133.025C392.256 115.89 406.169 102 423.33 102C440.492 102 454.405 115.89 454.405 133.025C454.405 134.064 454.351 135.089 454.251 136.102C459.757 131.155 467.04 128.142 475.029 128.142C484.009 128.142 492.1 131.945 497.773 138.026C499.84 133.125 503.495 128.454 508.506 124.826C520.562 116.098 535.902 116.713 542.77 126.199C543.186 126.774 543.56 127.368 543.895 127.98C545.78 122.441 549.689 117.069 555.301 113.006C567.357 104.278 582.698 104.893 589.565 114.379C592.452 118.366 593.375 123.288 592.587 128.301C594.167 126.524 595.983 124.863 598.032 123.38C609.545 115.045 624.052 115.23 631.317 123.523C632.892 122.208 634.631 121.006 636.52 119.951C649.511 112.688 664.675 115.087 670.39 125.309C670.736 125.928 671.038 126.563 671.3 127.209C673.817 121.928 678.326 117.048 684.374 113.667C697.365 106.404 712.529 108.803 718.244 119.025C720.646 123.322 720.989 128.318 719.622 133.205C721.398 131.624 723.396 130.186 725.604 128.952C738.261 121.876 752.98 123.971 759.014 133.537C763.102 121.682 774.434 113.159 787.773 113.159C794.024 113.159 799.833 115.033 804.663 118.242C804.558 117.22 804.503 116.182 804.503 115.132C804.503 98.4907 818.107 85 834.889 85C851.672 85 865.276 98.4907 865.276 115.132C865.276 116.141 865.224 117.137 865.126 118.12C870.51 113.316 877.632 110.39 885.445 110.39C892.223 110.39 898.484 112.591 903.538 116.312C906.076 98.932 921.131 85.5821 939.323 85.5821C946.762 85.5821 953.674 87.8168 959.423 91.6438C959.297 90.4248 959.232 89.1879 959.232 87.9357C959.232 68.0889 975.422 52 995.393 52C1015.36 52 1031.55 68.0889 1031.55 87.9357C1031.55 89.1385 1031.49 90.3266 1031.38 91.499C1037.78 85.7693 1046.26 82.2795 1055.56 82.2795C1073.22 82.2795 1087.93 94.867 1091.09 111.509C1097.16 105.625 1105.46 102 1114.61 102C1133.21 102 1148.29 116.99 1148.29 135.48C1148.29 136.601 1148.23 137.708 1148.13 138.8C1154.09 133.462 1161.99 130.211 1170.65 130.211C1189.26 130.211 1204.34 145.2 1204.34 163.691C1204.34 171.464 1201.66 178.613 1197.19 184.295C1200.09 183.486 1203.15 183.043 1206.31 183.043C1224.92 183.043 1240 198.033 1240 216.524C1240 235.014 1224.92 250.004 1206.31 250.004C1198.85 250.004 1191.95 247.589 1186.36 243.502C1182.74 248.642 1176.76 252 1170 252H1161.33H1081.55Z" fill="#EFE3F1"/>
<path d="M82.5469 184L77.0469 166.078H76.9062C76.9271 166.505 76.9583 167.151 77 168.016C77.0521 168.87 77.099 169.781 77.1406 170.75C77.1823 171.719 77.2031 172.594 77.2031 173.375V184H72.875V161.156H79.4688L84.875 178.625H84.9688L90.7031 161.156H97.2969V184H92.7812V173.188C92.7812 172.469 92.7917 171.641 92.8125 170.703C92.8438 169.766 92.8802 168.875 92.9219 168.031C92.9635 167.177 92.9948 166.536 93.0156 166.109H92.875L86.9844 184H82.5469ZM109.844 166.172C112.188 166.172 113.984 166.682 115.234 167.703C116.484 168.724 117.109 170.276 117.109 172.359V184H113.781L112.859 181.625H112.734C112.234 182.25 111.724 182.76 111.203 183.156C110.682 183.552 110.083 183.844 109.406 184.031C108.729 184.219 107.906 184.312 106.938 184.312C105.906 184.312 104.979 184.115 104.156 183.719C103.344 183.323 102.703 182.719 102.234 181.906C101.766 181.083 101.531 180.042 101.531 178.781C101.531 176.927 102.182 175.562 103.484 174.688C104.786 173.802 106.74 173.312 109.344 173.219L112.375 173.125V172.359C112.375 171.443 112.135 170.771 111.656 170.344C111.177 169.917 110.51 169.703 109.656 169.703C108.812 169.703 107.984 169.823 107.172 170.062C106.359 170.302 105.547 170.604 104.734 170.969L103.156 167.75C104.083 167.26 105.12 166.875 106.266 166.594C107.422 166.312 108.615 166.172 109.844 166.172ZM112.375 175.906L110.531 175.969C108.99 176.01 107.917 176.286 107.312 176.797C106.719 177.307 106.422 177.979 106.422 178.812C106.422 179.542 106.635 180.062 107.062 180.375C107.49 180.677 108.047 180.828 108.734 180.828C109.755 180.828 110.615 180.526 111.312 179.922C112.021 179.318 112.375 178.458 112.375 177.344V175.906ZM131.781 166.203C132.021 166.203 132.297 166.219 132.609 166.25C132.932 166.271 133.193 166.302 133.391 166.344L133.031 170.812C132.875 170.76 132.651 170.724 132.359 170.703C132.078 170.672 131.833 170.656 131.625 170.656C131.01 170.656 130.411 170.734 129.828 170.891C129.255 171.047 128.74 171.302 128.281 171.656C127.823 172 127.458 172.458 127.188 173.031C126.927 173.594 126.797 174.286 126.797 175.109V184H122.031V166.531H125.641L126.344 169.469H126.578C126.922 168.875 127.349 168.333 127.859 167.844C128.38 167.344 128.969 166.948 129.625 166.656C130.292 166.354 131.01 166.203 131.781 166.203ZM143.656 184.312C141.927 184.312 140.453 184 139.234 183.375C138.016 182.74 137.089 181.76 136.453 180.438C135.818 179.115 135.5 177.422 135.5 175.359C135.5 173.224 135.859 171.484 136.578 170.141C137.307 168.786 138.312 167.792 139.594 167.156C140.885 166.521 142.38 166.203 144.078 166.203C145.286 166.203 146.328 166.323 147.203 166.562C148.089 166.792 148.859 167.068 149.516 167.391L148.109 171.078C147.359 170.776 146.661 170.531 146.016 170.344C145.37 170.146 144.724 170.047 144.078 170.047C143.245 170.047 142.552 170.245 142 170.641C141.448 171.026 141.036 171.609 140.766 172.391C140.495 173.172 140.359 174.151 140.359 175.328C140.359 176.484 140.505 177.443 140.797 178.203C141.089 178.964 141.51 179.531 142.062 179.906C142.615 180.271 143.286 180.453 144.078 180.453C145.068 180.453 145.948 180.323 146.719 180.062C147.49 179.792 148.24 179.417 148.969 178.938V183.016C148.24 183.474 147.474 183.802 146.672 184C145.88 184.208 144.875 184.312 143.656 184.312ZM168.906 175.234C168.906 176.693 168.708 177.984 168.312 179.109C167.927 180.234 167.359 181.188 166.609 181.969C165.87 182.74 164.974 183.323 163.922 183.719C162.88 184.115 161.703 184.312 160.391 184.312C159.161 184.312 158.031 184.115 157 183.719C155.979 183.323 155.089 182.74 154.328 181.969C153.578 181.188 152.995 180.234 152.578 179.109C152.172 177.984 151.969 176.693 151.969 175.234C151.969 173.297 152.312 171.656 153 170.312C153.688 168.969 154.667 167.948 155.938 167.25C157.208 166.552 158.724 166.203 160.484 166.203C162.12 166.203 163.568 166.552 164.828 167.25C166.099 167.948 167.094 168.969 167.812 170.312C168.542 171.656 168.906 173.297 168.906 175.234ZM156.828 175.234C156.828 176.38 156.953 177.344 157.203 178.125C157.453 178.906 157.844 179.495 158.375 179.891C158.906 180.286 159.599 180.484 160.453 180.484C161.297 180.484 161.979 180.286 162.5 179.891C163.031 179.495 163.417 178.906 163.656 178.125C163.906 177.344 164.031 176.38 164.031 175.234C164.031 174.078 163.906 173.12 163.656 172.359C163.417 171.589 163.031 171.01 162.5 170.625C161.969 170.24 161.276 170.047 160.422 170.047C159.161 170.047 158.245 170.479 157.672 171.344C157.109 172.208 156.828 173.505 156.828 175.234ZM185.031 178.812C185.031 180 184.75 181.005 184.188 181.828C183.635 182.641 182.807 183.26 181.703 183.688C180.599 184.104 179.224 184.312 177.578 184.312C176.359 184.312 175.312 184.234 174.438 184.078C173.573 183.922 172.698 183.661 171.812 183.297V179.359C172.76 179.786 173.776 180.141 174.859 180.422C175.953 180.693 176.911 180.828 177.734 180.828C178.661 180.828 179.323 180.693 179.719 180.422C180.125 180.141 180.328 179.776 180.328 179.328C180.328 179.036 180.245 178.776 180.078 178.547C179.922 178.307 179.578 178.042 179.047 177.75C178.516 177.448 177.682 177.057 176.547 176.578C175.453 176.12 174.552 175.656 173.844 175.188C173.146 174.719 172.625 174.167 172.281 173.531C171.948 172.885 171.781 172.068 171.781 171.078C171.781 169.464 172.406 168.25 173.656 167.438C174.917 166.615 176.599 166.203 178.703 166.203C179.786 166.203 180.818 166.312 181.797 166.531C182.786 166.75 183.802 167.099 184.844 167.578L183.406 171.016C182.542 170.641 181.724 170.333 180.953 170.094C180.193 169.854 179.417 169.734 178.625 169.734C177.927 169.734 177.401 169.828 177.047 170.016C176.693 170.203 176.516 170.49 176.516 170.875C176.516 171.156 176.604 171.406 176.781 171.625C176.969 171.844 177.323 172.089 177.844 172.359C178.375 172.62 179.151 172.958 180.172 173.375C181.161 173.781 182.021 174.208 182.75 174.656C183.479 175.094 184.042 175.641 184.438 176.297C184.833 176.943 185.031 177.781 185.031 178.812ZM202.594 184.312C200.646 184.312 199.057 183.552 197.828 182.031C196.609 180.5 196 178.255 196 175.297C196 172.307 196.62 170.047 197.859 168.516C199.099 166.974 200.719 166.203 202.719 166.203C203.552 166.203 204.286 166.318 204.922 166.547C205.557 166.776 206.104 167.083 206.562 167.469C207.031 167.854 207.427 168.286 207.75 168.766H207.906C207.844 168.432 207.766 167.943 207.672 167.297C207.589 166.641 207.547 165.969 207.547 165.281V159.688H212.328V184H208.672L207.75 181.734H207.547C207.245 182.214 206.865 182.651 206.406 183.047C205.958 183.432 205.422 183.74 204.797 183.969C204.172 184.198 203.438 184.312 202.594 184.312ZM204.266 180.516C205.568 180.516 206.484 180.13 207.016 179.359C207.557 178.578 207.844 177.406 207.875 175.844V175.328C207.875 173.63 207.615 172.333 207.094 171.438C206.573 170.531 205.604 170.078 204.188 170.078C203.135 170.078 202.312 170.531 201.719 171.438C201.125 172.344 200.828 173.651 200.828 175.359C200.828 177.068 201.125 178.354 201.719 179.219C202.323 180.083 203.172 180.516 204.266 180.516ZM233.188 175.234C233.188 176.693 232.99 177.984 232.594 179.109C232.208 180.234 231.641 181.188 230.891 181.969C230.151 182.74 229.255 183.323 228.203 183.719C227.161 184.115 225.984 184.312 224.672 184.312C223.443 184.312 222.312 184.115 221.281 183.719C220.26 183.323 219.37 182.74 218.609 181.969C217.859 181.188 217.276 180.234 216.859 179.109C216.453 177.984 216.25 176.693 216.25 175.234C216.25 173.297 216.594 171.656 217.281 170.312C217.969 168.969 218.948 167.948 220.219 167.25C221.49 166.552 223.005 166.203 224.766 166.203C226.401 166.203 227.849 166.552 229.109 167.25C230.38 167.948 231.375 168.969 232.094 170.312C232.823 171.656 233.188 173.297 233.188 175.234ZM221.109 175.234C221.109 176.38 221.234 177.344 221.484 178.125C221.734 178.906 222.125 179.495 222.656 179.891C223.188 180.286 223.88 180.484 224.734 180.484C225.578 180.484 226.26 180.286 226.781 179.891C227.312 179.495 227.698 178.906 227.938 178.125C228.188 177.344 228.312 176.38 228.312 175.234C228.312 174.078 228.188 173.12 227.938 172.359C227.698 171.589 227.312 171.01 226.781 170.625C226.25 170.24 225.557 170.047 224.703 170.047C223.443 170.047 222.526 170.479 221.953 171.344C221.391 172.208 221.109 173.505 221.109 175.234ZM250.969 184.312C249.021 184.312 247.432 183.552 246.203 182.031C244.984 180.5 244.375 178.255 244.375 175.297C244.375 172.307 244.995 170.047 246.234 168.516C247.474 166.974 249.094 166.203 251.094 166.203C251.927 166.203 252.661 166.318 253.297 166.547C253.932 166.776 254.479 167.083 254.938 167.469C255.406 167.854 255.802 168.286 256.125 168.766H256.281C256.219 168.432 256.141 167.943 256.047 167.297C255.964 166.641 255.922 165.969 255.922 165.281V159.688H260.703V184H257.047L256.125 181.734H255.922C255.62 182.214 255.24 182.651 254.781 183.047C254.333 183.432 253.797 183.74 253.172 183.969C252.547 184.198 251.812 184.312 250.969 184.312ZM252.641 180.516C253.943 180.516 254.859 180.13 255.391 179.359C255.932 178.578 256.219 177.406 256.25 175.844V175.328C256.25 173.63 255.99 172.333 255.469 171.438C254.948 170.531 253.979 170.078 252.562 170.078C251.51 170.078 250.688 170.531 250.094 171.438C249.5 172.344 249.203 173.651 249.203 175.359C249.203 177.068 249.5 178.354 250.094 179.219C250.698 180.083 251.547 180.516 252.641 180.516ZM272.891 166.203C274.505 166.203 275.896 166.516 277.062 167.141C278.229 167.755 279.13 168.651 279.766 169.828C280.401 171.005 280.719 172.443 280.719 174.141V176.453H269.453C269.505 177.797 269.906 178.854 270.656 179.625C271.417 180.385 272.469 180.766 273.812 180.766C274.927 180.766 275.948 180.651 276.875 180.422C277.802 180.193 278.755 179.849 279.734 179.391V183.078C278.87 183.505 277.964 183.818 277.016 184.016C276.078 184.214 274.938 184.312 273.594 184.312C271.844 184.312 270.292 183.99 268.938 183.344C267.594 182.698 266.536 181.714 265.766 180.391C265.005 179.068 264.625 177.401 264.625 175.391C264.625 173.349 264.969 171.651 265.656 170.297C266.354 168.932 267.323 167.911 268.562 167.234C269.802 166.547 271.245 166.203 272.891 166.203ZM272.922 169.594C271.995 169.594 271.224 169.891 270.609 170.484C270.005 171.078 269.656 172.01 269.562 173.281H276.25C276.24 172.573 276.109 171.943 275.859 171.391C275.62 170.839 275.255 170.401 274.766 170.078C274.286 169.755 273.672 169.594 272.922 169.594ZM296.781 178.812C296.781 180 296.5 181.005 295.938 181.828C295.385 182.641 294.557 183.26 293.453 183.688C292.349 184.104 290.974 184.312 289.328 184.312C288.109 184.312 287.062 184.234 286.188 184.078C285.323 183.922 284.448 183.661 283.562 183.297V179.359C284.51 179.786 285.526 180.141 286.609 180.422C287.703 180.693 288.661 180.828 289.484 180.828C290.411 180.828 291.073 180.693 291.469 180.422C291.875 180.141 292.078 179.776 292.078 179.328C292.078 179.036 291.995 178.776 291.828 178.547C291.672 178.307 291.328 178.042 290.797 177.75C290.266 177.448 289.432 177.057 288.297 176.578C287.203 176.12 286.302 175.656 285.594 175.188C284.896 174.719 284.375 174.167 284.031 173.531C283.698 172.885 283.531 172.068 283.531 171.078C283.531 169.464 284.156 168.25 285.406 167.438C286.667 166.615 288.349 166.203 290.453 166.203C291.536 166.203 292.568 166.312 293.547 166.531C294.536 166.75 295.552 167.099 296.594 167.578L295.156 171.016C294.292 170.641 293.474 170.333 292.703 170.094C291.943 169.854 291.167 169.734 290.375 169.734C289.677 169.734 289.151 169.828 288.797 170.016C288.443 170.203 288.266 170.49 288.266 170.875C288.266 171.156 288.354 171.406 288.531 171.625C288.719 171.844 289.073 172.089 289.594 172.359C290.125 172.62 290.901 172.958 291.922 173.375C292.911 173.781 293.771 174.208 294.5 174.656C295.229 175.094 295.792 175.641 296.188 176.297C296.583 176.943 296.781 177.781 296.781 178.812ZM307.703 166.203C309.318 166.203 310.708 166.516 311.875 167.141C313.042 167.755 313.943 168.651 314.578 169.828C315.214 171.005 315.531 172.443 315.531 174.141V176.453H304.266C304.318 177.797 304.719 178.854 305.469 179.625C306.229 180.385 307.281 180.766 308.625 180.766C309.74 180.766 310.76 180.651 311.688 180.422C312.615 180.193 313.568 179.849 314.547 179.391V183.078C313.682 183.505 312.776 183.818 311.828 184.016C310.891 184.214 309.75 184.312 308.406 184.312C306.656 184.312 305.104 183.99 303.75 183.344C302.406 182.698 301.349 181.714 300.578 180.391C299.818 179.068 299.438 177.401 299.438 175.391C299.438 173.349 299.781 171.651 300.469 170.297C301.167 168.932 302.135 167.911 303.375 167.234C304.615 166.547 306.057 166.203 307.703 166.203ZM307.734 169.594C306.807 169.594 306.036 169.891 305.422 170.484C304.818 171.078 304.469 172.01 304.375 173.281H311.062C311.052 172.573 310.922 171.943 310.672 171.391C310.432 170.839 310.068 170.401 309.578 170.078C309.099 169.755 308.484 169.594 307.734 169.594ZM329.328 166.203C331.193 166.203 332.693 166.714 333.828 167.734C334.964 168.745 335.531 170.37 335.531 172.609V184H330.766V173.797C330.766 172.547 330.536 171.604 330.078 170.969C329.63 170.333 328.922 170.016 327.953 170.016C326.495 170.016 325.5 170.51 324.969 171.5C324.438 172.49 324.172 173.917 324.172 175.781V184H319.406V166.531H323.047L323.688 168.766H323.953C324.328 168.161 324.792 167.672 325.344 167.297C325.906 166.922 326.526 166.646 327.203 166.469C327.891 166.292 328.599 166.203 329.328 166.203ZM344.594 184L337.938 166.531H342.922L346.297 176.484C346.484 177.068 346.63 177.682 346.734 178.328C346.849 178.974 346.927 179.552 346.969 180.062H347.094C347.125 179.51 347.198 178.922 347.312 178.297C347.438 177.672 347.599 177.068 347.797 176.484L351.156 166.531H356.141L349.484 184H344.594ZM374.531 175.234C374.531 176.693 374.333 177.984 373.938 179.109C373.552 180.234 372.984 181.188 372.234 181.969C371.495 182.74 370.599 183.323 369.547 183.719C368.505 184.115 367.328 184.312 366.016 184.312C364.786 184.312 363.656 184.115 362.625 183.719C361.604 183.323 360.714 182.74 359.953 181.969C359.203 181.188 358.62 180.234 358.203 179.109C357.797 177.984 357.594 176.693 357.594 175.234C357.594 173.297 357.938 171.656 358.625 170.312C359.312 168.969 360.292 167.948 361.562 167.25C362.833 166.552 364.349 166.203 366.109 166.203C367.745 166.203 369.193 166.552 370.453 167.25C371.724 167.948 372.719 168.969 373.438 170.312C374.167 171.656 374.531 173.297 374.531 175.234ZM362.453 175.234C362.453 176.38 362.578 177.344 362.828 178.125C363.078 178.906 363.469 179.495 364 179.891C364.531 180.286 365.224 180.484 366.078 180.484C366.922 180.484 367.604 180.286 368.125 179.891C368.656 179.495 369.042 178.906 369.281 178.125C369.531 177.344 369.656 176.38 369.656 175.234C369.656 174.078 369.531 173.12 369.281 172.359C369.042 171.589 368.656 171.01 368.125 170.625C367.594 170.24 366.901 170.047 366.047 170.047C364.786 170.047 363.87 170.479 363.297 171.344C362.734 172.208 362.453 173.505 362.453 175.234ZM383.234 184H378.469V159.688H383.234V184ZM392.406 184L385.75 166.531H390.734L394.109 176.484C394.297 177.068 394.443 177.682 394.547 178.328C394.661 178.974 394.74 179.552 394.781 180.062H394.906C394.938 179.51 395.01 178.922 395.125 178.297C395.25 177.672 395.411 177.068 395.609 176.484L398.969 166.531H403.953L397.297 184H392.406ZM411.234 166.531V184H406.469V166.531H411.234ZM408.859 159.688C409.568 159.688 410.177 159.854 410.688 160.188C411.198 160.51 411.453 161.12 411.453 162.016C411.453 162.901 411.198 163.516 410.688 163.859C410.177 164.193 409.568 164.359 408.859 164.359C408.141 164.359 407.526 164.193 407.016 163.859C406.516 163.516 406.266 162.901 406.266 162.016C406.266 161.12 406.516 160.51 407.016 160.188C407.526 159.854 408.141 159.688 408.859 159.688ZM436.766 166.203C438.745 166.203 440.24 166.714 441.25 167.734C442.271 168.745 442.781 170.37 442.781 172.609V184H438V173.797C438 172.547 437.786 171.604 437.359 170.969C436.932 170.333 436.271 170.016 435.375 170.016C434.115 170.016 433.219 170.469 432.688 171.375C432.156 172.271 431.891 173.557 431.891 175.234V184H427.125V173.797C427.125 172.964 427.031 172.266 426.844 171.703C426.656 171.141 426.37 170.719 425.984 170.438C425.599 170.156 425.104 170.016 424.5 170.016C423.615 170.016 422.917 170.24 422.406 170.688C421.906 171.125 421.547 171.776 421.328 172.641C421.12 173.495 421.016 174.542 421.016 175.781V184H416.25V166.531H419.891L420.531 168.766H420.797C421.151 168.161 421.594 167.672 422.125 167.297C422.667 166.922 423.26 166.646 423.906 166.469C424.552 166.292 425.208 166.203 425.875 166.203C427.156 166.203 428.24 166.411 429.125 166.828C430.021 167.245 430.708 167.891 431.188 168.766H431.609C432.13 167.87 432.865 167.219 433.812 166.812C434.771 166.406 435.755 166.203 436.766 166.203ZM454.891 166.203C456.505 166.203 457.896 166.516 459.062 167.141C460.229 167.755 461.13 168.651 461.766 169.828C462.401 171.005 462.719 172.443 462.719 174.141V176.453H451.453C451.505 177.797 451.906 178.854 452.656 179.625C453.417 180.385 454.469 180.766 455.812 180.766C456.927 180.766 457.948 180.651 458.875 180.422C459.802 180.193 460.755 179.849 461.734 179.391V183.078C460.87 183.505 459.964 183.818 459.016 184.016C458.078 184.214 456.938 184.312 455.594 184.312C453.844 184.312 452.292 183.99 450.938 183.344C449.594 182.698 448.536 181.714 447.766 180.391C447.005 179.068 446.625 177.401 446.625 175.391C446.625 173.349 446.969 171.651 447.656 170.297C448.354 168.932 449.323 167.911 450.562 167.234C451.802 166.547 453.245 166.203 454.891 166.203ZM454.922 169.594C453.995 169.594 453.224 169.891 452.609 170.484C452.005 171.078 451.656 172.01 451.562 173.281H458.25C458.24 172.573 458.109 171.943 457.859 171.391C457.62 170.839 457.255 170.401 456.766 170.078C456.286 169.755 455.672 169.594 454.922 169.594ZM476.516 166.203C478.38 166.203 479.88 166.714 481.016 167.734C482.151 168.745 482.719 170.37 482.719 172.609V184H477.953V173.797C477.953 172.547 477.724 171.604 477.266 170.969C476.818 170.333 476.109 170.016 475.141 170.016C473.682 170.016 472.688 170.51 472.156 171.5C471.625 172.49 471.359 173.917 471.359 175.781V184H466.594V166.531H470.234L470.875 168.766H471.141C471.516 168.161 471.979 167.672 472.531 167.297C473.094 166.922 473.714 166.646 474.391 166.469C475.078 166.292 475.786 166.203 476.516 166.203ZM494.984 180.516C495.505 180.516 496.01 180.464 496.5 180.359C497 180.255 497.495 180.125 497.984 179.969V183.516C497.474 183.745 496.839 183.932 496.078 184.078C495.328 184.234 494.505 184.312 493.609 184.312C492.568 184.312 491.63 184.146 490.797 183.812C489.974 183.469 489.323 182.88 488.844 182.047C488.375 181.203 488.141 180.031 488.141 178.531V170.109H485.859V168.094L488.484 166.5L489.859 162.812H492.906V166.531H497.797V170.109H492.906V178.531C492.906 179.198 493.094 179.698 493.469 180.031C493.854 180.354 494.359 180.516 494.984 180.516ZM517.406 175.234C517.406 176.693 517.208 177.984 516.812 179.109C516.427 180.234 515.859 181.188 515.109 181.969C514.37 182.74 513.474 183.323 512.422 183.719C511.38 184.115 510.203 184.312 508.891 184.312C507.661 184.312 506.531 184.115 505.5 183.719C504.479 183.323 503.589 182.74 502.828 181.969C502.078 181.188 501.495 180.234 501.078 179.109C500.672 177.984 500.469 176.693 500.469 175.234C500.469 173.297 500.812 171.656 501.5 170.312C502.188 168.969 503.167 167.948 504.438 167.25C505.708 166.552 507.224 166.203 508.984 166.203C510.62 166.203 512.068 166.552 513.328 167.25C514.599 167.948 515.594 168.969 516.312 170.312C517.042 171.656 517.406 173.297 517.406 175.234ZM505.328 175.234C505.328 176.38 505.453 177.344 505.703 178.125C505.953 178.906 506.344 179.495 506.875 179.891C507.406 180.286 508.099 180.484 508.953 180.484C509.797 180.484 510.479 180.286 511 179.891C511.531 179.495 511.917 178.906 512.156 178.125C512.406 177.344 512.531 176.38 512.531 175.234C512.531 174.078 512.406 173.12 512.156 172.359C511.917 171.589 511.531 171.01 511 170.625C510.469 170.24 509.776 170.047 508.922 170.047C507.661 170.047 506.745 170.479 506.172 171.344C505.609 172.208 505.328 173.505 505.328 175.234ZM520.672 181.766C520.672 180.786 520.938 180.099 521.469 179.703C522.01 179.307 522.661 179.109 523.422 179.109C524.161 179.109 524.797 179.307 525.328 179.703C525.87 180.099 526.141 180.786 526.141 181.766C526.141 182.703 525.87 183.38 525.328 183.797C524.797 184.214 524.161 184.422 523.422 184.422C522.661 184.422 522.01 184.214 521.469 183.797C520.938 183.38 520.672 182.703 520.672 181.766ZM520.672 168.859C520.672 167.88 520.938 167.193 521.469 166.797C522.01 166.401 522.661 166.203 523.422 166.203C524.161 166.203 524.797 166.401 525.328 166.797C525.87 167.193 526.141 167.88 526.141 168.859C526.141 169.807 525.87 170.49 525.328 170.906C524.797 171.312 524.161 171.516 523.422 171.516C522.661 171.516 522.01 171.312 521.469 170.906C520.938 170.49 520.672 169.807 520.672 168.859Z" fill="#70728F"/>
<path d="M77.0312 227.312C75.0833 227.312 73.4948 226.552 72.2656 225.031C71.0469 223.5 70.4375 221.255 70.4375 218.297C70.4375 215.307 71.0573 213.047 72.2969 211.516C73.5365 209.974 75.1562 209.203 77.1562 209.203C77.9896 209.203 78.724 209.318 79.3594 209.547C79.9948 209.776 80.5417 210.083 81 210.469C81.4688 210.854 81.8646 211.286 82.1875 211.766H82.3438C82.2812 211.432 82.2031 210.943 82.1094 210.297C82.026 209.641 81.9844 208.969 81.9844 208.281V202.688H86.7656V227H83.1094L82.1875 224.734H81.9844C81.6823 225.214 81.3021 225.651 80.8438 226.047C80.3958 226.432 79.8594 226.74 79.2344 226.969C78.6094 227.198 77.875 227.312 77.0312 227.312ZM78.7031 223.516C80.0052 223.516 80.9219 223.13 81.4531 222.359C81.9948 221.578 82.2812 220.406 82.3125 218.844V218.328C82.3125 216.63 82.0521 215.333 81.5312 214.438C81.0104 213.531 80.0417 213.078 78.625 213.078C77.5729 213.078 76.75 213.531 76.1562 214.438C75.5625 215.344 75.2656 216.651 75.2656 218.359C75.2656 220.068 75.5625 221.354 76.1562 222.219C76.7604 223.083 77.6094 223.516 78.7031 223.516ZM98.9531 209.203C100.568 209.203 101.958 209.516 103.125 210.141C104.292 210.755 105.193 211.651 105.828 212.828C106.464 214.005 106.781 215.443 106.781 217.141V219.453H95.5156C95.5677 220.797 95.9688 221.854 96.7188 222.625C97.4792 223.385 98.5312 223.766 99.875 223.766C100.99 223.766 102.01 223.651 102.938 223.422C103.865 223.193 104.818 222.849 105.797 222.391V226.078C104.932 226.505 104.026 226.818 103.078 227.016C102.141 227.214 101 227.312 99.6562 227.312C97.9062 227.312 96.3542 226.99 95 226.344C93.6562 225.698 92.599 224.714 91.8281 223.391C91.0677 222.068 90.6875 220.401 90.6875 218.391C90.6875 216.349 91.0312 214.651 91.7188 213.297C92.4167 211.932 93.3854 210.911 94.625 210.234C95.8646 209.547 97.3073 209.203 98.9531 209.203ZM98.9844 212.594C98.0573 212.594 97.2865 212.891 96.6719 213.484C96.0677 214.078 95.7188 215.01 95.625 216.281H102.312C102.302 215.573 102.172 214.943 101.922 214.391C101.682 213.839 101.318 213.401 100.828 213.078C100.349 212.755 99.7344 212.594 98.9844 212.594ZM132.828 209.266C132.828 210.318 132.609 211.229 132.172 212C131.734 212.771 131.141 213.401 130.391 213.891C129.651 214.38 128.818 214.74 127.891 214.969V215.062C129.724 215.292 131.115 215.854 132.062 216.75C133.021 217.646 133.5 218.844 133.5 220.344C133.5 221.677 133.172 222.87 132.516 223.922C131.87 224.974 130.87 225.802 129.516 226.406C128.161 227.01 126.417 227.312 124.281 227.312C123.021 227.312 121.844 227.208 120.75 227C119.667 226.802 118.646 226.495 117.688 226.078V221.969C118.667 222.469 119.693 222.849 120.766 223.109C121.839 223.359 122.839 223.484 123.766 223.484C125.495 223.484 126.703 223.188 127.391 222.594C128.089 221.99 128.438 221.146 128.438 220.062C128.438 219.427 128.276 218.891 127.953 218.453C127.63 218.016 127.068 217.682 126.266 217.453C125.474 217.224 124.365 217.109 122.938 217.109H121.203V213.406H122.969C124.375 213.406 125.443 213.276 126.172 213.016C126.911 212.745 127.411 212.38 127.672 211.922C127.943 211.453 128.078 210.922 128.078 210.328C128.078 209.516 127.828 208.88 127.328 208.422C126.828 207.964 125.995 207.734 124.828 207.734C124.099 207.734 123.432 207.828 122.828 208.016C122.234 208.193 121.698 208.411 121.219 208.672C120.74 208.922 120.318 209.167 119.953 209.406L117.719 206.078C118.615 205.432 119.661 204.896 120.859 204.469C122.068 204.042 123.505 203.828 125.172 203.828C127.526 203.828 129.391 204.302 130.766 205.25C132.141 206.198 132.828 207.536 132.828 209.266ZM152.75 209.172C155.094 209.172 156.891 209.682 158.141 210.703C159.391 211.724 160.016 213.276 160.016 215.359V227H156.688L155.766 224.625H155.641C155.141 225.25 154.63 225.76 154.109 226.156C153.589 226.552 152.99 226.844 152.312 227.031C151.635 227.219 150.812 227.312 149.844 227.312C148.812 227.312 147.885 227.115 147.062 226.719C146.25 226.323 145.609 225.719 145.141 224.906C144.672 224.083 144.438 223.042 144.438 221.781C144.438 219.927 145.089 218.562 146.391 217.688C147.693 216.802 149.646 216.312 152.25 216.219L155.281 216.125V215.359C155.281 214.443 155.042 213.771 154.562 213.344C154.083 212.917 153.417 212.703 152.562 212.703C151.719 212.703 150.891 212.823 150.078 213.062C149.266 213.302 148.453 213.604 147.641 213.969L146.062 210.75C146.99 210.26 148.026 209.875 149.172 209.594C150.328 209.312 151.521 209.172 152.75 209.172ZM155.281 218.906L153.438 218.969C151.896 219.01 150.823 219.286 150.219 219.797C149.625 220.307 149.328 220.979 149.328 221.812C149.328 222.542 149.542 223.062 149.969 223.375C150.396 223.677 150.953 223.828 151.641 223.828C152.661 223.828 153.521 223.526 154.219 222.922C154.927 222.318 155.281 221.458 155.281 220.344V218.906ZM174.859 209.203C176.724 209.203 178.224 209.714 179.359 210.734C180.495 211.745 181.062 213.37 181.062 215.609V227H176.297V216.797C176.297 215.547 176.068 214.604 175.609 213.969C175.161 213.333 174.453 213.016 173.484 213.016C172.026 213.016 171.031 213.51 170.5 214.5C169.969 215.49 169.703 216.917 169.703 218.781V227H164.938V209.531H168.578L169.219 211.766H169.484C169.859 211.161 170.323 210.672 170.875 210.297C171.438 209.922 172.057 209.646 172.734 209.469C173.422 209.292 174.13 209.203 174.859 209.203ZM201.844 218.234C201.844 219.693 201.646 220.984 201.25 222.109C200.865 223.234 200.297 224.188 199.547 224.969C198.807 225.74 197.911 226.323 196.859 226.719C195.818 227.115 194.641 227.312 193.328 227.312C192.099 227.312 190.969 227.115 189.938 226.719C188.917 226.323 188.026 225.74 187.266 224.969C186.516 224.188 185.932 223.234 185.516 222.109C185.109 220.984 184.906 219.693 184.906 218.234C184.906 216.297 185.25 214.656 185.938 213.312C186.625 211.969 187.604 210.948 188.875 210.25C190.146 209.552 191.661 209.203 193.422 209.203C195.057 209.203 196.505 209.552 197.766 210.25C199.036 210.948 200.031 211.969 200.75 213.312C201.479 214.656 201.844 216.297 201.844 218.234ZM189.766 218.234C189.766 219.38 189.891 220.344 190.141 221.125C190.391 221.906 190.781 222.495 191.312 222.891C191.844 223.286 192.536 223.484 193.391 223.484C194.234 223.484 194.917 223.286 195.438 222.891C195.969 222.495 196.354 221.906 196.594 221.125C196.844 220.344 196.969 219.38 196.969 218.234C196.969 217.078 196.844 216.12 196.594 215.359C196.354 214.589 195.969 214.01 195.438 213.625C194.906 213.24 194.214 213.047 193.359 213.047C192.099 213.047 191.182 213.479 190.609 214.344C190.047 215.208 189.766 216.505 189.766 218.234ZM217.969 221.812C217.969 223 217.688 224.005 217.125 224.828C216.573 225.641 215.745 226.26 214.641 226.688C213.536 227.104 212.161 227.312 210.516 227.312C209.297 227.312 208.25 227.234 207.375 227.078C206.51 226.922 205.635 226.661 204.75 226.297V222.359C205.698 222.786 206.714 223.141 207.797 223.422C208.891 223.693 209.849 223.828 210.672 223.828C211.599 223.828 212.26 223.693 212.656 223.422C213.062 223.141 213.266 222.776 213.266 222.328C213.266 222.036 213.182 221.776 213.016 221.547C212.859 221.307 212.516 221.042 211.984 220.75C211.453 220.448 210.62 220.057 209.484 219.578C208.391 219.12 207.49 218.656 206.781 218.188C206.083 217.719 205.562 217.167 205.219 216.531C204.885 215.885 204.719 215.068 204.719 214.078C204.719 212.464 205.344 211.25 206.594 210.438C207.854 209.615 209.536 209.203 211.641 209.203C212.724 209.203 213.755 209.312 214.734 209.531C215.724 209.75 216.74 210.099 217.781 210.578L216.344 214.016C215.479 213.641 214.661 213.333 213.891 213.094C213.13 212.854 212.354 212.734 211.562 212.734C210.865 212.734 210.339 212.828 209.984 213.016C209.63 213.203 209.453 213.49 209.453 213.875C209.453 214.156 209.542 214.406 209.719 214.625C209.906 214.844 210.26 215.089 210.781 215.359C211.312 215.62 212.089 215.958 213.109 216.375C214.099 216.781 214.958 217.208 215.688 217.656C216.417 218.094 216.979 218.641 217.375 219.297C217.771 219.943 217.969 220.781 217.969 221.812ZM237.156 209.172C239.5 209.172 241.297 209.682 242.547 210.703C243.797 211.724 244.422 213.276 244.422 215.359V227H241.094L240.172 224.625H240.047C239.547 225.25 239.036 225.76 238.516 226.156C237.995 226.552 237.396 226.844 236.719 227.031C236.042 227.219 235.219 227.312 234.25 227.312C233.219 227.312 232.292 227.115 231.469 226.719C230.656 226.323 230.016 225.719 229.547 224.906C229.078 224.083 228.844 223.042 228.844 221.781C228.844 219.927 229.495 218.562 230.797 217.688C232.099 216.802 234.052 216.312 236.656 216.219L239.688 216.125V215.359C239.688 214.443 239.448 213.771 238.969 213.344C238.49 212.917 237.823 212.703 236.969 212.703C236.125 212.703 235.297 212.823 234.484 213.062C233.672 213.302 232.859 213.604 232.047 213.969L230.469 210.75C231.396 210.26 232.432 209.875 233.578 209.594C234.734 209.312 235.927 209.172 237.156 209.172ZM239.688 218.906L237.844 218.969C236.302 219.01 235.229 219.286 234.625 219.797C234.031 220.307 233.734 220.979 233.734 221.812C233.734 222.542 233.948 223.062 234.375 223.375C234.802 223.677 235.359 223.828 236.047 223.828C237.068 223.828 237.927 223.526 238.625 222.922C239.333 222.318 239.688 221.458 239.688 220.344V218.906ZM264.75 212.406C266.146 212.406 267.385 212.672 268.469 213.203C269.562 213.734 270.422 214.516 271.047 215.547C271.672 216.578 271.984 217.849 271.984 219.359C271.984 221.005 271.641 222.427 270.953 223.625C270.276 224.812 269.26 225.724 267.906 226.359C266.562 226.995 264.885 227.312 262.875 227.312C261.677 227.312 260.547 227.208 259.484 227C258.432 226.802 257.51 226.495 256.719 226.078V221.906C257.51 222.323 258.458 222.677 259.562 222.969C260.677 223.25 261.724 223.391 262.703 223.391C263.661 223.391 264.469 223.266 265.125 223.016C265.781 222.755 266.276 222.359 266.609 221.828C266.953 221.286 267.125 220.599 267.125 219.766C267.125 218.651 266.75 217.797 266 217.203C265.25 216.609 264.099 216.312 262.547 216.312C261.953 216.312 261.333 216.37 260.688 216.484C260.052 216.599 259.521 216.714 259.094 216.828L257.172 215.797L258.031 204.156H270.422V208.25H262.266L261.844 212.734C262.198 212.661 262.583 212.589 263 212.516C263.417 212.443 264 212.406 264.75 212.406ZM291.438 209.172C293.781 209.172 295.578 209.682 296.828 210.703C298.078 211.724 298.703 213.276 298.703 215.359V227H295.375L294.453 224.625H294.328C293.828 225.25 293.318 225.76 292.797 226.156C292.276 226.552 291.677 226.844 291 227.031C290.323 227.219 289.5 227.312 288.531 227.312C287.5 227.312 286.573 227.115 285.75 226.719C284.938 226.323 284.297 225.719 283.828 224.906C283.359 224.083 283.125 223.042 283.125 221.781C283.125 219.927 283.776 218.562 285.078 217.688C286.38 216.802 288.333 216.312 290.938 216.219L293.969 216.125V215.359C293.969 214.443 293.729 213.771 293.25 213.344C292.771 212.917 292.104 212.703 291.25 212.703C290.406 212.703 289.578 212.823 288.766 213.062C287.953 213.302 287.141 213.604 286.328 213.969L284.75 210.75C285.677 210.26 286.714 209.875 287.859 209.594C289.016 209.312 290.208 209.172 291.438 209.172ZM293.969 218.906L292.125 218.969C290.583 219.01 289.51 219.286 288.906 219.797C288.312 220.307 288.016 220.979 288.016 221.812C288.016 222.542 288.229 223.062 288.656 223.375C289.083 223.677 289.641 223.828 290.328 223.828C291.349 223.828 292.208 223.526 292.906 222.922C293.615 222.318 293.969 221.458 293.969 220.344V218.906ZM313.547 209.203C315.411 209.203 316.911 209.714 318.047 210.734C319.182 211.745 319.75 213.37 319.75 215.609V227H314.984V216.797C314.984 215.547 314.755 214.604 314.297 213.969C313.849 213.333 313.141 213.016 312.172 213.016C310.714 213.016 309.719 213.51 309.188 214.5C308.656 215.49 308.391 216.917 308.391 218.781V227H303.625V209.531H307.266L307.906 211.766H308.172C308.547 211.161 309.01 210.672 309.562 210.297C310.125 209.922 310.745 209.646 311.422 209.469C312.109 209.292 312.818 209.203 313.547 209.203ZM340.531 218.234C340.531 219.693 340.333 220.984 339.938 222.109C339.552 223.234 338.984 224.188 338.234 224.969C337.495 225.74 336.599 226.323 335.547 226.719C334.505 227.115 333.328 227.312 332.016 227.312C330.786 227.312 329.656 227.115 328.625 226.719C327.604 226.323 326.714 225.74 325.953 224.969C325.203 224.188 324.62 223.234 324.203 222.109C323.797 220.984 323.594 219.693 323.594 218.234C323.594 216.297 323.938 214.656 324.625 213.312C325.312 211.969 326.292 210.948 327.562 210.25C328.833 209.552 330.349 209.203 332.109 209.203C333.745 209.203 335.193 209.552 336.453 210.25C337.724 210.948 338.719 211.969 339.438 213.312C340.167 214.656 340.531 216.297 340.531 218.234ZM328.453 218.234C328.453 219.38 328.578 220.344 328.828 221.125C329.078 221.906 329.469 222.495 330 222.891C330.531 223.286 331.224 223.484 332.078 223.484C332.922 223.484 333.604 223.286 334.125 222.891C334.656 222.495 335.042 221.906 335.281 221.125C335.531 220.344 335.656 219.38 335.656 218.234C335.656 217.078 335.531 216.12 335.281 215.359C335.042 214.589 334.656 214.01 334.125 213.625C333.594 213.24 332.901 213.047 332.047 213.047C330.786 213.047 329.87 213.479 329.297 214.344C328.734 215.208 328.453 216.505 328.453 218.234ZM356.656 221.812C356.656 223 356.375 224.005 355.812 224.828C355.26 225.641 354.432 226.26 353.328 226.688C352.224 227.104 350.849 227.312 349.203 227.312C347.984 227.312 346.938 227.234 346.062 227.078C345.198 226.922 344.323 226.661 343.438 226.297V222.359C344.385 222.786 345.401 223.141 346.484 223.422C347.578 223.693 348.536 223.828 349.359 223.828C350.286 223.828 350.948 223.693 351.344 223.422C351.75 223.141 351.953 222.776 351.953 222.328C351.953 222.036 351.87 221.776 351.703 221.547C351.547 221.307 351.203 221.042 350.672 220.75C350.141 220.448 349.307 220.057 348.172 219.578C347.078 219.12 346.177 218.656 345.469 218.188C344.771 217.719 344.25 217.167 343.906 216.531C343.573 215.885 343.406 215.068 343.406 214.078C343.406 212.464 344.031 211.25 345.281 210.438C346.542 209.615 348.224 209.203 350.328 209.203C351.411 209.203 352.443 209.312 353.422 209.531C354.411 209.75 355.427 210.099 356.469 210.578L355.031 214.016C354.167 213.641 353.349 213.333 352.578 213.094C351.818 212.854 351.042 212.734 350.25 212.734C349.552 212.734 349.026 212.828 348.672 213.016C348.318 213.203 348.141 213.49 348.141 213.875C348.141 214.156 348.229 214.406 348.406 214.625C348.594 214.844 348.948 215.089 349.469 215.359C350 215.62 350.776 215.958 351.797 216.375C352.786 216.781 353.646 217.208 354.375 217.656C355.104 218.094 355.667 218.641 356.062 219.297C356.458 219.943 356.656 220.781 356.656 221.812Z" fill="#AA61B7"/>
<g filter="url(#filter0_d_2096_7213)">
<path fill-rule="evenodd" clip-rule="evenodd" d="M659.258 252.001H648.202C632.757 249.377 621 235.985 621 219.859C621 201.851 635.663 187.252 653.75 187.252C661.641 187.252 668.879 190.032 674.533 194.66C680.442 188.879 688.541 185.309 697.481 185.309C705.759 185.309 713.313 188.373 719.079 193.416C723.914 190.614 729.529 189.002 735.526 189.002C741.891 189.002 747.826 190.815 752.853 193.942C758.689 188.585 766.481 185.309 775.045 185.309C786.818 185.309 797.135 191.497 802.907 200.781C808.861 194.656 817.199 190.843 826.436 190.843C844.523 190.843 859.185 205.442 859.185 223.45C859.185 235.741 852.355 246.444 842.268 252.001H662.042C662.23 251.747 662.421 251.495 662.616 251.247C661.519 251.554 660.399 251.807 659.258 252.001Z" fill="#DCEDFA"/>
</g>
<path fill-rule="evenodd" clip-rule="evenodd" d="M659.258 195.999H648.202C632.757 198.623 621 212.015 621 228.141C621 246.149 635.663 260.748 653.75 260.748C661.641 260.748 668.879 257.968 674.533 253.34C680.442 259.121 688.541 262.691 697.481 262.691C705.759 262.691 713.313 259.627 719.079 254.584C723.914 257.386 729.529 258.998 735.526 258.998C741.891 258.998 747.826 257.185 752.853 254.058C758.689 259.415 766.481 262.691 775.045 262.691C786.818 262.691 797.135 256.503 802.907 247.219C808.861 253.344 817.199 257.157 826.436 257.157C844.523 257.157 859.185 242.558 859.185 224.55C859.185 212.259 852.355 201.556 842.268 195.999H662.042C662.23 196.253 662.421 196.505 662.616 196.753C661.519 196.446 660.399 196.193 659.258 195.999Z" fill="#F8EBF6"/>
<g filter="url(#filter1_d_2096_7213)">
<path d="M1131.28 167.882C1128.2 167.882 1125.24 168.313 1122.42 169.101C1126.76 163.57 1129.36 156.612 1129.36 149.046C1129.36 131.048 1114.71 116.458 1096.63 116.458C1088.22 116.458 1080.55 119.623 1074.75 124.819C1074.86 123.756 1074.91 122.678 1074.91 121.588C1074.91 103.59 1060.26 89 1042.19 89C1024.12 89 1009.46 103.59 1009.46 121.588C1009.46 122.723 1009.52 123.845 1009.64 124.95C1004.44 121.48 998.18 119.453 991.448 119.453C973.375 119.453 958.724 134.043 958.724 152.041C958.724 156.414 959.595 160.583 961.164 164.393C960.358 164.334 959.546 164.294 958.724 164.294C940.651 164.294 926 178.884 926 196.881C926 214.879 940.651 229.469 958.724 229.469C967.954 229.469 976.285 225.658 982.234 219.537C988.002 228.816 998.311 235 1010.07 235C1018.63 235 1026.42 231.726 1032.25 226.371C1037.27 229.497 1043.2 231.309 1049.56 231.309C1055.56 231.309 1061.17 229.698 1066 226.897C1071.76 231.937 1079.31 235 1087.58 235C1096.51 235 1104.6 231.432 1110.51 225.654C1116.16 230.279 1123.39 233.057 1131.28 233.057C1149.35 233.057 1164 218.467 1164 200.47C1164 182.472 1149.35 167.882 1131.28 167.882Z" fill="#F8EBF6"/>
</g>
<g filter="url(#filter2_d_2096_7213)">
<rect x="56" y="33" width="98" height="95" rx="47.5" fill="#AA61B7" shape-rendering="crispEdges"/>
<rect x="56" y="33" width="98" height="95" rx="47.5" stroke="white" stroke-width="6" shape-rendering="crispEdges"/>
<path d="M99.375 93H83.4062V89.6406L89.1406 83.8438C90.2969 82.6562 91.224 81.6667 91.9219 80.875C92.6302 80.0729 93.1406 79.3438 93.4531 78.6875C93.776 78.0312 93.9375 77.3281 93.9375 76.5781C93.9375 75.6719 93.6823 74.9948 93.1719 74.5469C92.6719 74.0885 92 73.8594 91.1562 73.8594C90.2708 73.8594 89.4115 74.0625 88.5781 74.4688C87.7448 74.875 86.875 75.4531 85.9688 76.2031L83.3438 73.0938C84 72.5312 84.6927 72 85.4219 71.5C86.1615 71 87.0156 70.599 87.9844 70.2969C88.9635 69.9844 90.1354 69.8281 91.5 69.8281C93 69.8281 94.2865 70.099 95.3594 70.6406C96.4427 71.1823 97.276 71.9219 97.8594 72.8594C98.4427 73.7865 98.7344 74.8385 98.7344 76.0156C98.7344 77.276 98.4844 78.4271 97.9844 79.4688C97.4844 80.5104 96.7552 81.5417 95.7969 82.5625C94.849 83.5833 93.7031 84.7135 92.3594 85.9531L89.4219 88.7188V88.9375H99.375V93ZM102.266 90.7656C102.266 89.7865 102.531 89.099 103.062 88.7031C103.604 88.3073 104.255 88.1094 105.016 88.1094C105.755 88.1094 106.391 88.3073 106.922 88.7031C107.464 89.099 107.734 89.7865 107.734 90.7656C107.734 91.7031 107.464 92.3802 106.922 92.7969C106.391 93.2135 105.755 93.4219 105.016 93.4219C104.255 93.4219 103.604 93.2135 103.062 92.7969C102.531 92.3802 102.266 91.7031 102.266 90.7656ZM119.156 78.4062C120.552 78.4062 121.792 78.6719 122.875 79.2031C123.969 79.7344 124.828 80.5156 125.453 81.5469C126.078 82.5781 126.391 83.849 126.391 85.3594C126.391 87.0052 126.047 88.4271 125.359 89.625C124.682 90.8125 123.667 91.724 122.312 92.3594C120.969 92.9948 119.292 93.3125 117.281 93.3125C116.083 93.3125 114.953 93.2083 113.891 93C112.839 92.8021 111.917 92.4948 111.125 92.0781V87.9062C111.917 88.3229 112.865 88.6771 113.969 88.9688C115.083 89.25 116.13 89.3906 117.109 89.3906C118.068 89.3906 118.875 89.2656 119.531 89.0156C120.188 88.7552 120.682 88.3594 121.016 87.8281C121.359 87.2865 121.531 86.599 121.531 85.7656C121.531 84.651 121.156 83.7969 120.406 83.2031C119.656 82.6094 118.505 82.3125 116.953 82.3125C116.359 82.3125 115.74 82.3698 115.094 82.4844C114.458 82.599 113.927 82.7135 113.5 82.8281L111.578 81.7969L112.438 70.1562H124.828V74.25H116.672L116.25 78.7344C116.604 78.6615 116.99 78.5885 117.406 78.5156C117.823 78.4427 118.406 78.4062 119.156 78.4062Z" fill="white"/>
</g>
<path d="M768.674 126.649C772.095 129.989 774.677 134.075 777.225 138.121C777.687 137.474 778.948 137.928 778.891 138.721C781.022 136.366 783.153 134.011 785.283 131.656C785.859 131.02 786.447 130.364 786.757 129.565C787.099 128.683 787.107 127.63 787.751 126.938C788.64 125.981 790.206 126.241 791.431 126.694C794.481 127.823 798.16 129.584 799.337 132.871C799.622 133.67 799.58 134.642 799.009 135.27C798.668 135.647 798.154 135.89 797.965 136.362C797.875 136.587 797.872 136.834 797.847 137.074C797.765 137.864 797.439 138.604 797.118 139.33C796.829 139.981 796.541 140.632 796.252 141.283C794.041 146.271 790.966 151.557 786.592 154.953C782.292 158.291 776.644 158.52 771.818 156.144C767.911 154.221 764.447 151.506 761.193 148.612C758.865 146.543 756.601 144.339 754.982 141.677C752.967 138.363 752.773 134.87 752.716 131.119C752.673 128.299 752.851 125.464 753.281 122.675C753.725 119.803 753.649 119.265 756.271 119.823C760.777 120.782 765.399 123.451 768.674 126.649Z" fill="white"/>
<path d="M768.674 126.649C772.095 129.989 774.677 134.075 777.225 138.121C777.687 137.474 778.948 137.928 778.891 138.721C781.022 136.366 783.153 134.011 785.283 131.656C785.859 131.02 786.447 130.364 786.757 129.565C787.099 128.683 787.107 127.63 787.751 126.938C788.64 125.981 790.206 126.241 791.431 126.694C794.481 127.823 798.16 129.584 799.337 132.871C799.622 133.67 799.58 134.642 799.009 135.27C798.668 135.647 798.154 135.89 797.965 136.362C797.875 136.587 797.872 136.834 797.847 137.074C797.765 137.864 797.439 138.604 797.118 139.33C796.829 139.981 796.541 140.632 796.252 141.283C794.041 146.271 790.966 151.557 786.592 154.953C782.292 158.291 776.644 158.52 771.818 156.144C767.911 154.221 764.447 151.506 761.193 148.612C758.865 146.543 756.601 144.339 754.982 141.677C752.967 138.363 752.773 134.87 752.716 131.119C752.673 128.299 752.851 125.464 753.281 122.675C753.725 119.803 753.649 119.265 756.271 119.823C760.777 120.782 765.399 123.451 768.674 126.649Z" fill="white" stroke="black" stroke-width="0.4" stroke-miterlimit="10"/>
<path d="M779.465 138.166C777.669 139.898 776.326 142.096 775.604 144.484" stroke="black" stroke-width="0.4" stroke-linecap="round" stroke-linejoin="round"/>
<path d="M776.104 138.477C774.358 139.315 772.993 140.912 772.438 142.768" stroke="black" stroke-width="0.4" stroke-linecap="round" stroke-linejoin="round"/>
<path d="M808.814 120.358C808.934 119.756 808.838 119.077 808.417 118.631C808.675 118.001 808.935 117.36 808.99 116.682C809.046 116.005 808.866 115.273 808.363 114.817C808.255 114.72 808.132 114.632 808.07 114.501C808.018 114.389 808.018 114.26 807.992 114.139C807.897 113.702 807.454 113.408 807.011 113.351C806.567 113.295 806.122 113.427 805.701 113.576C805.208 112.333 803.133 113.71 802.671 114.293C802.096 115.017 801.767 115.902 801.321 116.712C801.04 117.222 800.663 117.872 800.216 118.256C799.648 118.745 797.475 120.17 797.476 118.26C797.476 117.681 797.874 117.192 798.205 116.716C798.535 116.24 798.821 115.628 798.581 115.101C798.353 114.6 797.713 114.397 797.174 114.506C796.634 114.614 796.178 114.963 795.759 115.319C792.863 117.781 791.208 120.541 790.311 124.16C790.088 125.063 789.852 125.991 789.299 126.739C789.106 126.999 788.865 127.265 788.869 127.589C788.871 127.759 788.942 127.918 789.016 128.071C790.296 130.718 792.867 132.703 795.753 133.27C795.993 133.317 796.241 133.355 796.481 133.307C796.788 133.245 797.049 133.05 797.302 132.865C799.479 131.285 801.869 130.429 803.73 128.402C804.836 127.198 805.837 125.995 806.65 124.558C807.612 122.857 807.123 123.741 808.085 122.04C808.388 121.506 808.694 120.96 808.814 120.358Z" fill="#FFDBCA" stroke="black" stroke-width="0.4" stroke-miterlimit="10"/>
<path d="M808.297 118.621C807.372 118.925 806.834 119.861 806.366 120.715C805.364 122.544 805.737 121.762 804.361 123.33" stroke="black" stroke-width="0.4" stroke-linecap="round" stroke-linejoin="round"/>
<path d="M807.793 114.461C806.45 115.189 805.719 116.657 805.006 118.007C803.914 120.075 804.128 119.481 802.758 121.375" stroke="black" stroke-width="0.4" stroke-linecap="round" stroke-linejoin="round"/>
<path d="M805.412 113.777C804.503 114.515 803.996 115.622 803.451 116.658C802.439 118.585 802.651 117.808 801.22 119.448" stroke="black" stroke-width="0.4" stroke-linecap="round" stroke-linejoin="round"/>
<path d="M711.213 243.076C711.931 239.835 718.122 238.445 720.348 236.787C722.184 235.42 723.919 234.306 724.794 232.066C725.535 230.171 725.655 228.099 725.733 226.067C725.759 225.364 725.758 224.2 725.736 222.713H736.484C736.185 224.833 735.875 227.112 735.564 229.622C735.191 232.619 736.515 242.247 736.477 243.035C736.334 246.049 730.471 245.578 728.48 245.807C723.675 246.358 718.465 248.596 713.712 246.628C712.399 246.084 711.081 244.983 711.148 243.563C711.156 243.396 711.178 243.234 711.213 243.076Z" fill="#EFDCCE" stroke="black" stroke-width="0.4" stroke-miterlimit="10"/>
<path d="M779.815 244.111C779.097 240.871 772.907 239.48 770.68 237.822C768.845 236.455 767.109 235.341 766.234 233.101C765.494 231.206 765.373 229.134 765.296 227.102C765.269 226.399 765.27 225.235 765.293 223.748H754.544C754.843 225.868 755.153 228.147 755.465 230.657C755.837 233.655 754.514 243.283 754.551 244.071C754.694 247.084 760.557 246.613 762.548 246.842C767.353 247.393 772.564 249.631 777.316 247.663C778.629 247.119 779.947 246.018 779.88 244.599C779.872 244.431 779.85 244.269 779.815 244.111Z" fill="#EFDCCE" stroke="black" stroke-width="0.4" stroke-miterlimit="10"/>
<path d="M721.269 232.448C724.669 235.695 729.809 237.049 734.402 237.157C736.133 237.198 739.377 237.354 740.873 236.296C744.367 233.822 740.502 233.711 740.836 230.884C740.907 230.285 741.399 229.84 741.735 229.338C743.299 227.001 741.712 222.916 741.769 220.263C741.864 215.842 742.714 209.863 743.518 205.518C743.667 204.71 743.495 201.713 744.249 201.369C746.34 206.421 748.131 216.149 749.981 221.427C750.249 222.192 750.518 223.033 750.242 223.795C750.015 224.424 749.441 224.909 749.331 225.569C749.12 226.839 750.631 227.637 751.862 228.016C750.174 230.687 751.909 234.478 754.694 235.971C757.479 237.464 760.857 237.226 763.964 236.651C765.838 236.303 767.804 235.786 769.112 234.4C770.42 233.014 770.69 230.499 769.191 229.323C770.673 228.971 770.578 226.857 770.236 225.373C768.313 217.055 768.732 206.317 768.265 197.81C767.76 188.604 767.255 179.397 766.75 170.19C766.6 167.448 741.235 166.179 738.196 166.144C732.39 166.076 718.697 164.371 716.832 171.613C716.021 174.765 717.315 179.464 717.592 182.661C718.053 187.973 718.562 193.281 719.118 198.584C719.574 202.928 719.912 207.283 720.43 211.641C720.641 213.418 720.934 216.865 720.652 218.649C720.437 220.003 719.086 221.505 719.2 222.861C719.3 224.035 720.731 224.657 720.8 225.407C721.001 227.611 718.35 228.844 720.555 231.662C720.775 231.943 721.014 232.205 721.269 232.448Z" fill="#AF87CE" stroke="black" stroke-width="0.4" stroke-miterlimit="10"/>
<path d="M744.026 201.222C748.513 199.284 753.186 197.778 757.96 196.734" stroke="black" stroke-width="0.4" stroke-linecap="round" stroke-linejoin="round"/>
<path d="M745.941 201.309C751.012 201.94 756.082 202.571 761.153 203.203" stroke="black" stroke-width="0.4" stroke-linecap="round" stroke-linejoin="round"/>
<path d="M722.653 227.916C726.917 230.831 732.549 231.642 737.461 230.048" stroke="black" stroke-width="0.4" stroke-linecap="round" stroke-linejoin="round"/>
<path d="M725.474 224.469C729.817 225.209 734.344 224.849 738.516 223.432" stroke="black" stroke-width="0.4" stroke-linecap="round" stroke-linejoin="round"/>
<path d="M753.733 228.787C757.247 230.141 761.247 230.189 764.792 228.918" stroke="black" stroke-width="0.4" stroke-linecap="round" stroke-linejoin="round"/>
<path d="M720.181 136.833C720.017 138.201 719.891 139.563 719.765 140.894C719.22 146.645 718.569 152.387 717.811 158.114C717.206 162.688 717.305 167.82 715.481 172.105C714.85 173.586 713.99 175.04 713.952 176.649C713.898 178.938 715.917 179.947 717.698 180.665C717.953 178.564 718.379 176.538 719.307 174.615C719.177 176.915 719.133 179.477 720.655 181.207C721.084 181.694 721.614 182.081 722.139 182.464C728.497 187.097 735.176 194.088 743.016 195.982C747.361 197.032 752.103 196.327 755.955 194.058C761.578 190.745 768.458 183.523 768.162 176.769C767.77 167.794 767.377 158.819 766.985 149.845C766.659 142.393 767.593 133.209 764.594 126.237C762.832 122.14 758.291 120.421 754.214 119.577C750.208 118.748 746.104 118.398 742.016 118.538C737.433 118.694 728.76 119.155 725.625 122.502C721.942 126.432 720.797 131.671 720.181 136.833Z" fill="white"/>
<path d="M718.268 154.553C718.12 155.74 717.968 156.927 717.811 158.113C717.206 162.687 717.305 167.818 715.481 172.104C714.85 173.585 713.99 175.039 713.952 176.648C713.898 178.937 715.917 179.946 717.698 180.664C717.953 178.563 718.379 176.537 719.307 174.613C719.177 176.914 719.133 179.475 720.655 181.205C721.084 181.693 721.614 182.08 722.139 182.462C728.497 187.096 735.176 194.087 743.016 195.981C747.361 197.031 752.103 196.325 755.955 194.057C761.578 190.744 768.458 183.522 768.162 176.767C767.815 168.836 767.469 160.906 767.122 152.975" stroke="black" stroke-width="0.4" stroke-miterlimit="10"/>
<path d="M767.104 152.975C767.142 148.532 767.18 144.089 767.219 139.646" stroke="black" stroke-width="0.4" stroke-linecap="round" stroke-linejoin="round"/>
<path d="M724.818 168.885C728.544 175.277 732.43 181.851 738.379 186.25C744.328 190.648 752.941 192.328 759.119 188.257" stroke="black" stroke-width="0.4" stroke-linecap="round" stroke-linejoin="round"/>
<path d="M734.891 179.012C739.179 183.7 746.615 185.163 752.36 182.448" stroke="black" stroke-width="0.4" stroke-linecap="round" stroke-linejoin="round"/>
<path d="M757.156 139.086C757.838 139.487 759.642 146.724 759.642 146.724L763.387 147.506C763.387 147.506 761.696 156.491 750.254 157.121C738.811 157.75 735.447 147.515 735.447 147.515L739.809 146.945C739.809 146.945 739.709 139.594 740.901 139.493C742.093 139.392 744.424 142.703 744.424 142.703L753.876 142.723C753.876 142.723 756.475 138.686 757.156 139.086Z" fill="#AEABDA"/>
<path d="M706.884 141.287C706.606 141.611 706.313 141.923 706.001 142.218C705.163 143.012 704.205 143.671 703.357 144.456C700.676 146.941 699.451 150.127 696.032 151.711C695.414 151.997 694.716 152.205 694.292 152.737C694.049 153.041 693.922 153.423 693.692 153.738C692.95 154.757 691.169 154.292 690.338 155.408C690.034 155.817 689.915 156.335 689.873 156.843C689.728 158.592 690.416 160.33 691.448 161.748C692.481 163.167 693.841 164.309 695.209 165.407C696.582 166.51 698.078 167.625 699.829 167.808C700.359 167.864 700.922 167.823 701.379 167.546C701.746 167.324 702.011 166.971 702.288 166.643C704.954 163.482 709.575 161.581 712.885 159.102C716.634 156.294 719.335 153.787 722.085 149.981C724.993 145.957 727.703 141.484 729.568 136.879C730.663 134.177 731.308 131.279 731.526 128.374C731.584 127.604 733.231 119.376 732.461 119.479C726.519 120.273 722.374 120.971 718.08 125.292C714.667 128.727 712.045 133.054 709.686 137.093C708.837 138.546 707.975 140.016 706.884 141.287Z" fill="white"/>
<path d="M735.265 118.982C729.323 119.776 722.374 120.97 718.08 125.291C714.667 128.726 712.045 133.054 709.686 137.092C708.837 138.545 707.975 140.015 706.884 141.286C706.606 141.611 706.313 141.922 706.001 142.217C705.163 143.011 704.205 143.67 703.357 144.456C700.676 146.94 699.451 150.126 696.032 151.71C695.414 151.996 694.716 152.204 694.292 152.736C694.049 153.041 693.922 153.423 693.692 153.738C692.95 154.757 691.169 154.291 690.338 155.407C690.034 155.816 689.915 156.335 689.873 156.842C689.728 158.591 690.416 160.329 691.448 161.748C692.481 163.166 693.841 164.308 695.209 165.407C696.582 166.509 698.078 167.624 699.829 167.807C700.359 167.863 700.922 167.822 701.379 167.546C701.746 167.323 702.011 166.97 702.288 166.642C704.954 163.482 709.575 161.58 712.885 159.102C714.923 157.575 716.652 156.137 718.247 154.531" stroke="black" stroke-width="0.4" stroke-miterlimit="10"/>
<path d="M681.362 161.601C679.93 162.819 680.27 162.825 678.837 164.043C678.387 164.426 677.929 164.818 677.621 165.322C677.314 165.826 677.176 166.471 677.408 167.014C676.967 167.497 676.519 167.991 676.245 168.585C675.97 169.179 675.891 169.9 676.195 170.479C676.259 170.602 676.342 170.722 676.354 170.861C676.365 170.979 676.322 171.096 676.305 171.214C676.246 171.64 676.549 172.052 676.931 172.251C677.313 172.449 677.759 172.476 678.189 172.481C678.198 172.839 678.535 173.112 678.881 173.205C679.352 173.331 679.861 173.218 680.294 172.996C680.728 172.774 681.099 172.45 681.467 172.13C682.181 171.507 682.963 170.509 683.593 170.121C684.897 169.318 686.208 168.421 687.822 168.702C688.395 168.801 689.035 169.144 689.073 169.724C689.116 170.362 688.436 170.771 687.882 171.089C687.103 171.535 686.391 172.096 685.775 172.749C685.352 173.197 684.953 173.83 685.206 174.392C685.5 175.047 686.41 175.073 687.119 174.96C688.479 174.744 690.235 174.499 691.391 173.744C692.722 172.875 693.935 171.676 695.052 170.554C696.891 168.707 698.057 166.314 699.408 164.107C698.671 161.233 696.481 158.771 693.712 157.704C693.566 157.648 693.412 157.595 693.256 157.613C693.092 157.633 692.949 157.73 692.813 157.824C689.382 160.201 684.695 158.767 681.362 161.601Z" fill="#FFDBCA" stroke="black" stroke-width="0.4" stroke-miterlimit="10"/>
<path d="M678.343 172.303C680.092 169.986 680.385 169.122 682.693 167.361" stroke="black" stroke-width="0.4" stroke-linecap="round" stroke-linejoin="round"/>
<path d="M676.563 170.612C678.665 168.178 679.296 167.22 681.929 165.375" stroke="black" stroke-width="0.4" stroke-linecap="round" stroke-linejoin="round"/>
<path d="M677.79 166.891C679.529 165.106 679.646 164.681 681.659 163.213" stroke="black" stroke-width="0.4" stroke-linecap="round" stroke-linejoin="round"/>
<path d="M718.006 154.554C721.625 150.501 725.245 146.449 728.865 142.396" stroke="black" stroke-width="0.4" stroke-linecap="round" stroke-linejoin="round"/>
<path d="M759.651 53.9202C761.301 53.317 762.554 51.7435 762.773 50C758.703 52.4251 753.636 52.2484 748.925 51.746C744.214 51.2435 739.326 50.5072 734.835 52.0169C732.438 52.8228 730.228 54.5272 728.864 56.6341C726.066 56.2238 723.412 58.4509 721.625 60.7481C719.726 63.1882 717.935 66.0726 714.98 66.9826C716.655 68.2446 718.979 68.5897 720.948 67.8685C712.07 75.1459 710.254 89.6037 717.058 98.8504C719.272 101.86 722.266 104.384 723.662 107.85C724.348 109.553 723.684 112.373 721.906 111.913C724.121 113.041 726.999 112.701 728.889 111.088C728.302 115.546 732.942 118.994 737.322 120.012C739.552 120.531 741.984 120.686 744.054 119.708C746.124 118.73 747.654 116.347 747.044 114.141C751.24 115.483 756.102 114.49 759.435 111.609C762.768 108.729 764.455 104.061 763.733 99.7153C772.095 97.0429 777.724 87.6891 776.17 79.0495C776.984 80.8604 778.923 82.105 780.909 82.0908C781.564 69.332 772.1 56.7902 759.651 53.9202Z" fill="#F9BC9A" stroke="black" stroke-width="0.4" stroke-miterlimit="10"/>
<path d="M756.736 123.066C755.929 122.288 755.286 121.401 754.909 120.374C753.406 116.279 755.993 113.463 755.993 113.463L741.938 106.488C741.938 106.488 742.643 116.256 740.384 119.899C740.384 119.899 743.078 125.003 749.33 126.047C755.582 127.09 757.8 124.093 756.736 123.066Z" fill="#FFDBCA"/>
<mask id="mask0_2096_7213" style="mask-type:luminance" maskUnits="userSpaceOnUse" x="740" y="106" width="17" height="21">
<path d="M756.737 123.066C755.93 122.288 755.287 121.401 754.91 120.374C753.407 116.279 755.994 113.463 755.994 113.463L741.939 106.488C741.939 106.488 742.644 116.256 740.385 119.899C740.385 119.899 743.079 125.003 749.331 126.047C755.583 127.09 757.801 124.093 756.737 123.066Z" fill="white"/>
</mask>
<g mask="url(#mask0_2096_7213)">
<g style="mix-blend-mode:multiply" opacity="0.7">
<path d="M757.065 104.211C761.177 109.011 761.488 116.178 757.759 120.219C754.031 124.261 747.676 123.646 743.564 118.847C739.452 114.047 739.141 106.88 742.869 102.839C746.598 98.7974 752.953 99.4119 757.065 104.211Z" fill="#FFDBCA"/>
</g>
</g>
<path d="M756.736 123.066C755.929 122.288 755.286 121.401 754.909 120.374C753.406 116.279 755.993 113.463 755.993 113.463L741.938 106.488C741.938 106.488 742.643 116.256 740.384 119.899C740.384 119.899 743.078 125.003 749.33 126.047C755.582 127.09 757.8 124.093 756.736 123.066Z" stroke="black" stroke-width="0.4" stroke-miterlimit="10"/>
<path d="M736.545 62.9745C731.564 66.2521 728.167 71.208 726.511 77.1302C726.424 77.441 726.342 77.7532 726.264 78.0664C724.316 85.8996 725.205 94.3823 728.606 101.691C729.926 104.528 731.12 107.137 733.415 109.33C738.45 114.139 744.977 118.428 751.998 119.169C761.905 120.216 768.035 113.934 769.845 111.177C772.442 107.22 771.903 103.197 771.58 98.7576C771.12 92.4099 773.616 86.141 773.286 79.7851C772.972 73.7421 769.962 67.889 765.229 64.1188C763.819 62.996 762.245 62.0896 760.596 61.3689C754.26 58.6007 746.392 58.2511 740.016 61.0826C738.785 61.6289 737.628 62.2621 736.545 62.9745Z" fill="#FFDBCA"/>
<path d="M736.545 62.9745C731.564 66.2521 728.167 71.208 726.511 77.1302C726.424 77.441 726.342 77.7532 726.264 78.0664C724.316 85.8996 725.205 94.3823 728.606 101.691C729.926 104.528 731.12 107.137 733.415 109.33C738.45 114.139 744.977 118.428 751.998 119.169C761.905 120.216 768.035 113.934 769.845 111.177C772.442 107.22 771.903 103.197 771.58 98.7576C771.12 92.4099 773.616 86.141 773.286 79.7851C772.972 73.7421 769.962 67.889 765.229 64.1188C763.819 62.996 762.245 62.0896 760.596 61.3689C754.26 58.6007 746.392 58.2511 740.016 61.0826C738.785 61.6289 737.628 62.2621 736.545 62.9745Z" stroke="black" stroke-width="0.4" stroke-miterlimit="10"/>
<path d="M759.959 92.8281C758.992 95.1845 759.636 98.1088 761.503 99.8416C761.986 100.29 762.56 100.689 762.819 101.296C763.098 101.951 762.938 102.731 762.56 103.334C762.182 103.938 761.611 104.394 761.029 104.804" stroke="black" stroke-width="0.4" stroke-linecap="round" stroke-linejoin="round"/>
<path d="M752.221 110.766C753.478 111.789 755.164 112.267 756.771 112.055" stroke="black" stroke-width="0.4" stroke-linecap="round" stroke-linejoin="round"/>
<path d="M749.474 104.957C749.474 104.957 749.864 108.943 753.962 110.335C758.06 111.726 761.262 108.374 761.262 108.374C761.262 108.374 755.858 107.756 749.474 104.957Z" fill="black"/>
<mask id="mask1_2096_7213" style="mask-type:luminance" maskUnits="userSpaceOnUse" x="749" y="104" width="13" height="7">
<path d="M749.475 104.957C749.475 104.957 749.865 108.943 753.963 110.335C758.061 111.726 761.263 108.374 761.263 108.374C761.263 108.374 755.859 107.756 749.475 104.957Z" fill="white"/>
</mask>
<g mask="url(#mask1_2096_7213)">
<path d="M754.758 106.918C756.831 109.267 757.278 112.261 755.756 113.606C754.233 114.95 751.317 114.136 749.244 111.787C747.17 109.438 746.723 106.444 748.246 105.099C749.768 103.755 752.684 104.569 754.758 106.918Z" fill="#F0644B"/>
<path d="M748.5 104.311C748.5 104.311 750.657 106.88 755.985 108.133C761.313 109.385 759.791 104.805 759.791 104.805L749.741 102.393L748.5 104.311Z" fill="white"/>
</g>
<path d="M733.338 89.6883C734.506 86.5714 735.049 83.1487 736.97 80.4306C736.926 82.8664 736.345 85.2911 735.282 87.4829C741.668 83.3405 748.42 78.7658 751.259 71.7034C751.744 74.1022 750.607 76.7453 748.533 78.0436C753.968 79.1153 759.935 76.6118 762.979 71.9828C762.973 74.6762 761.394 77.3094 759.022 78.5843C762.221 79.3203 765.842 79.808 768.567 77.9752C771.354 76.1002 772.256 72.1887 771.308 68.9662C770.359 65.7437 767.902 63.1603 765.155 61.2271C755.106 54.1548 740.128 55.2343 731.197 63.6746C725.661 68.9066 722.823 76.625 723.003 84.1789C723.066 86.8319 723.377 93.3601 725.687 95.1838C729.062 97.8485 732.286 92.4996 733.338 89.6883Z" fill="#F9BC9A"/>
<path d="M725.687 95.1835C729.062 97.8482 732.285 92.4993 733.338 89.688C734.505 86.5711 735.049 83.1484 736.97 80.4303C736.925 82.8661 736.345 85.2908 735.282 87.4826C741.667 83.3402 748.42 78.7655 751.258 71.7031C751.743 74.1019 750.607 76.745 748.532 78.0433C753.967 79.115 759.935 76.6115 762.978 71.9825C762.972 74.6759 761.394 77.3091 759.021 78.584C762.221 79.32 765.842 79.8077 768.566 77.9749C770.352 76.7735 771.364 74.7361 771.611 72.5796" stroke="black" stroke-width="0.4" stroke-miterlimit="10"/>
<path d="M729.723 94.3152C731.994 97.8473 732.571 101.369 730.065 102.98C727.56 104.591 722.92 103.681 720.649 100.149C718.379 96.6167 718.569 92.4476 721.075 90.8366C723.58 89.2258 727.452 90.7832 729.723 94.3152Z" fill="#FFDBCA"/>
<path d="M729.357 103.289C726.768 104.446 722.622 103.426 720.515 100.149C718.244 96.6167 718.434 92.4476 720.94 90.8366C723.446 89.2258 727.318 90.7832 729.588 94.3152C729.712 94.5075 729.831 94.6997 729.944 94.8916" stroke="black" stroke-width="0.4" stroke-miterlimit="10"/>
<path d="M719.455 92.8769C719.455 92.8769 724.42 92.5561 729.704 100.188" stroke="black" stroke-width="0.4" stroke-linecap="round" stroke-linejoin="round"/>
<path d="M731.047 58.5352C733.526 60.2151 735.525 62.5946 736.753 65.3259" stroke="black" stroke-width="0.4" stroke-linecap="round" stroke-linejoin="round"/>
<path d="M734.929 59.4415C735.528 58.0188 736.62 56.8093 737.974 56.0684" stroke="black" stroke-width="0.4" stroke-linecap="round" stroke-linejoin="round"/>
<path d="M737.123 60.6537C738.152 59.362 739.98 58.7671 741.572 59.2053" stroke="black" stroke-width="0.4" stroke-linecap="round" stroke-linejoin="round"/>
<path d="M731.777 62.3897C730.104 62.0903 728.304 62.6126 727.052 63.7609" stroke="black" stroke-width="0.4" stroke-linecap="round" stroke-linejoin="round"/>
<path d="M769.278 84.8442C768.097 84.4823 766.838 84.4453 765.638 84.7398C765.541 84.7631 765.483 84.8603 765.506 84.9564C765.526 85.0348 765.594 85.0883 765.671 85.0922C765.688 85.0931 765.706 85.0916 765.723 85.0873C766.86 84.8085 768.053 84.8426 769.173 85.1867C769.266 85.2136 769.368 85.1621 769.397 85.068C769.426 84.9733 769.373 84.8733 769.278 84.8442Z" fill="black"/>
<path d="M749.406 84.5977C749.399 84.4994 749.314 84.4234 749.215 84.4324C748.12 84.5122 747.066 84.8859 746.166 85.5142C746.085 85.5709 746.065 85.6822 746.122 85.7632C746.155 85.8104 746.207 85.8369 746.26 85.8397C746.298 85.8417 746.337 85.8316 746.371 85.8077C747.218 85.2166 748.211 84.8645 749.241 84.7894C749.34 84.7822 749.414 84.6964 749.406 84.5977Z" fill="black"/>
<path d="M766.867 92.61C766.5 92.7968 766.27 93.1811 766.15 93.575C766.01 94.035 765.998 94.5455 766.187 94.9876C766.376 95.4297 766.785 95.7889 767.262 95.8512C767.738 95.9138 768.257 95.6363 768.412 95.1811C768.618 94.5772 768.836 93.8682 768.544 93.2667C768.251 92.6654 767.463 92.3065 766.867 92.61Z" fill="black"/>
<path d="M749.464 92.2604C749.097 92.4473 748.868 92.8314 748.748 93.2255C748.608 93.6854 748.596 94.196 748.785 94.638C748.974 95.08 749.382 95.4392 749.859 95.5018C750.336 95.5642 750.855 95.2868 751.01 94.8317C751.215 94.2276 751.434 93.5187 751.141 92.9172C750.849 92.3157 750.06 91.9569 749.464 92.2604Z" fill="black"/>
<path d="M748.418 102.936C747.513 106.093 744.22 107.919 741.062 107.013C737.905 106.108 736.08 102.814 736.985 99.6571C737.89 96.4999 741.184 94.6743 744.341 95.5795C747.498 96.4848 749.324 99.7782 748.418 102.936Z" fill="#F9A478"/>
<path d="M771.073 108.31C770.936 108.281 770.936 108.276 770.799 108.236C767.642 107.331 765.816 104.038 766.721 100.88C767.381 98.5791 769.147 97.0067 771.367 96.6621C771.367 96.6621 771.456 100.339 771.684 102.827C771.939 105.61 771.073 108.31 771.073 108.31Z" fill="#F9A478"/>
<path d="M1062.68 29.4765C1063.13 37.0528 1059.89 44.42 1055.84 51.0455C1054.05 53.9834 1052.07 56.8641 1050.91 60.0581C1049.75 63.2522 1049.5 66.8788 1051.13 69.8927C1048.57 71.1345 1045.35 71.1627 1042.76 69.9659C1043.21 71.4852 1044.3 72.8398 1045.75 73.6875C1043.04 75.1294 1039.62 74.6887 1036.6 73.9036C1023.33 70.4501 1012.17 60.8512 1007.6 48.9619C1007.28 48.117 1006.92 47.1918 1006.09 46.7236C1005.4 46.3358 1004.53 46.3559 1003.72 46.3401C997.432 46.2176 991.266 42.9426 988.268 37.8931C985.27 32.8436 985.693 26.1964 989.517 21.6362C987.23 22.2344 984.64 21.7665 982.774 20.418C989.824 16.3454 996.268 11.4329 1003.42 7.50694C1010.57 3.58098 1018.7 0.622204 1027.03 1.03922C1031.49 1.26241 1035.95 2.60418 1039.61 4.94783C1042.19 6.60209 1044.28 9.3441 1046.03 11.7069C1056.12 12.0671 1062.19 21.0036 1062.68 29.4765Z" fill="#F9BC9A" stroke="black" stroke-width="0.4" stroke-miterlimit="10"/>
<path d="M971.443 148.923C970.84 150.126 970.289 151.359 969.774 152.599C969.176 154.043 968.548 155.477 968.054 156.961C967.578 158.388 967.058 159.869 967.004 161.386C966.973 162.265 967.083 163.663 967.963 164.134C968.101 164.208 968.408 164.201 968.491 164.347C968.587 164.519 968.409 165.126 968.464 165.386C968.613 166.088 969.145 166.729 969.853 166.912C969.759 167.367 969.737 167.89 970.04 168.242C970.353 168.606 970.922 168.651 971.37 168.478C971.836 168.298 972.164 167.788 972.661 167.718C973.3 167.629 973.742 168.027 974.384 167.596C974.906 167.244 975.221 166.666 975.516 166.111C977.536 162.305 979.805 158.555 982.582 155.234C984.519 152.917 986.868 150.683 987.647 147.711C988.328 145.112 988.202 139.953 988.202 139.953L980.867 136.049C980.867 136.049 977.585 141.18 976.168 142.402C974.109 144.176 972.648 146.513 971.443 148.923Z" fill="#FFDBCA" stroke="black" stroke-width="0.4" stroke-miterlimit="10"/>
<path d="M977.289 159.128C976.536 158.675 975.806 158.182 975.105 157.652" stroke="#333333" stroke-width="0.4" stroke-linecap="round" stroke-linejoin="round"/>
<path d="M976.438 158.756C974.548 161.451 973.061 164.426 972.039 167.555" stroke="#333333" stroke-width="0.4" stroke-linecap="round" stroke-linejoin="round"/>
<path d="M973.606 159.018C972.115 161.392 970.903 163.942 970.004 166.598" stroke="#333333" stroke-width="0.4" stroke-linecap="round" stroke-linejoin="round"/>
<path d="M971.484 158.186C970.405 160.074 969.477 162.05 968.714 164.088" stroke="#333333" stroke-width="0.4" stroke-linecap="round" stroke-linejoin="round"/>
<path d="M973.31 148.355C972.998 149.629 972.828 150.95 972.689 152.224C972.489 154.069 971.577 155.77 971.461 157.619C971.418 158.301 971.617 159.131 972.268 159.337C972.653 159.458 973.071 159.312 973.427 159.121C975.21 158.161 976.014 156.296 976.656 154.485C977.106 153.218 977.596 152.326 978.564 151.372C980.162 149.797 981.463 148.351 981.704 146.016" stroke="#333333" stroke-width="0.4" stroke-linecap="round" stroke-linejoin="round"/>
<path d="M996.078 90.4285C995.43 90.9547 994.832 91.5326 994.312 92.1739C989.479 98.1354 989.237 107.311 988.03 114.542C987.949 115.03 987.856 115.544 987.542 115.926C987.252 116.279 986.803 116.48 986.534 116.849C986.015 117.562 986.353 118.565 986.189 119.431C986.081 120.002 985.754 120.504 985.434 120.989C983.369 124.12 981.158 127.151 979.111 130.294C978.09 131.861 977.107 133.454 976.211 135.096C976.056 135.38 974.124 139.035 974.201 139.113C977.822 142.712 982.286 145.458 987.131 147.067C987.43 147.166 987.749 147.262 988.055 147.187C988.388 147.105 988.639 146.836 988.862 146.575C990.04 145.19 991 143.635 991.95 142.084C994.486 137.943 996.986 133.78 999.449 129.595C1000.61 127.626 1001.76 125.642 1002.6 123.515C1003.48 121.263 1004 118.883 1004.43 116.504C1005.08 113.03 1005.54 109.537 1005.92 106.025C1006.21 103.26 1007.15 100.54 1007.52 97.7245C1008.11 93.1996 1008.22 88.7458 1007.92 84.1855C1005.56 85.5068 1003.01 86.4738 1000.58 87.6715C999.039 88.4328 997.448 89.3149 996.078 90.4285Z" fill="white" stroke="black" stroke-width="0.4" stroke-miterlimit="10"/>
<path d="M988.687 115.951C990.558 118.576 994.85 118.98 997.177 116.749" stroke="black" stroke-width="0.4" stroke-linecap="round" stroke-linejoin="round"/>
<path d="M991.695 141.958C990.36 142.155 989.052 141.529 987.87 140.878C984.089 138.796 980.554 136.268 977.361 133.363" stroke="black" stroke-width="0.4" stroke-linecap="round" stroke-linejoin="round"/>
<path d="M1051.92 232.204C1051.82 231.836 1050.72 229.081 1049.83 226.881L1059.09 224.572C1060.09 227.372 1061.66 229.829 1062.92 232.485C1064.2 235.162 1065.17 238.055 1066.13 240.888C1066.31 241.428 1066.49 241.967 1066.68 242.501C1066.94 243.254 1067.19 244.048 1067.06 244.833C1067.06 244.84 1067.06 244.848 1067.05 244.855C1065.13 241.814 1061 240.386 1057.4 241.128C1055.08 241.606 1053 242.81 1051.24 244.408C1051.25 243.708 1051.3 242.994 1051.39 242.285C1051.81 238.781 1052.83 235.591 1051.92 232.204Z" fill="#EFDCCE" stroke="black" stroke-width="0.4" stroke-miterlimit="10"/>
<path d="M1067.05 244.854C1066.69 246.846 1063.66 249.181 1062.05 250.193C1059.7 251.683 1057.1 251.832 1054.56 250.67C1051.87 249.44 1051.2 247.023 1051.24 244.407C1053 242.809 1055.08 241.604 1057.4 241.126C1060.99 240.385 1065.13 241.813 1067.05 244.854Z" fill="#AA61B7" stroke="black" stroke-width="0.4" stroke-miterlimit="10"/>
<path d="M985.728 244.021C986.525 243.176 989.204 241.954 991.873 240.721C994.385 242.66 995.946 246.083 995.863 249.359C995.721 249.377 995.58 249.4 995.438 249.417C992.464 249.759 988.398 249.704 985.715 248.181C984.024 247.222 984.559 245.26 985.728 244.021Z" fill="#AA61B7" stroke="black" stroke-width="0.4" stroke-miterlimit="10"/>
<path d="M1014.05 240.33C1014.25 242.635 1014.44 244.488 1014.42 244.825C1014.23 247.737 1009.08 247.509 1006.54 247.598C1007.63 245.771 1008.25 243.548 1009.76 242.026C1010.88 240.895 1012.46 240.33 1014.05 240.33Z" fill="#AA61B7" stroke="black" stroke-width="0.4" stroke-miterlimit="10"/>
<path d="M991.872 240.722C994.04 239.72 996.201 238.71 997.343 237.889C999.322 236.465 1001.19 235.308 1002.16 232.937C1002.78 231.417 1003.03 229.782 1003.16 228.137L1013.72 230.243C1013.7 230.337 1013.69 230.426 1013.68 230.52C1013.41 232.43 1013.75 236.885 1014.05 240.331C1012.46 240.331 1010.88 240.896 1009.76 242.027C1008.25 243.549 1007.63 245.772 1006.54 247.599C1006.29 247.608 1006.05 247.619 1005.85 247.639C1002.48 247.97 999.215 248.926 995.863 249.36C995.946 246.084 994.385 242.661 991.872 240.722Z" fill="#EFDCCE" stroke="black" stroke-width="0.4" stroke-miterlimit="10"/>
<path d="M996.466 131.996C996.994 129.673 997.594 127.04 998.232 124.037L998.991 120.46L1038.87 119.16L1039.93 122.533C1040.78 125.195 1041.7 127.391 1042.67 129.714C1043.93 132.716 1045.24 135.821 1046.27 139.805C1046.84 142.01 1047.32 143.648 1047.74 145.094C1049.11 149.752 1049.72 152.113 1049.82 159.283C1049.88 163.87 1050.09 180.232 1050.15 184.669C1051.32 186.918 1054 192.107 1054.92 194.423C1059.04 204.774 1061.39 215.311 1063.76 226.159C1063.85 226.55 1063.93 226.948 1063.9 227.347C1063.86 227.938 1063.57 228.481 1063.24 228.973C1060.25 233.444 1053.99 234.722 1048.77 233.442C1048.26 233.317 1047.73 233.159 1047.36 232.786C1047.11 232.53 1046.95 232.195 1046.8 231.868C1044.06 225.865 1041.16 219.854 1038.7 213.709C1037.69 211.381 1036.64 208.973 1035.55 206.64C1034.1 203.526 1032.72 200.881 1031.38 198.322C1028.1 192.042 1025.26 186.62 1023.29 177.859C1023.02 176.662 1022.41 174.149 1021.69 171.211C1021.45 173.225 1021.2 175.35 1020.94 177.665C1020.23 183.965 1020.32 190.327 1021.23 196.576C1022.86 207.885 1019.86 220.668 1017.37 231.725C1017.22 232.404 1017.05 233.109 1016.61 233.646C1016.21 234.127 1015.63 234.42 1015.06 234.667C1010.36 236.692 1004.74 236.434 1000.25 233.989C999.76 233.722 999.26 233.407 999.005 232.912C998.795 232.505 998.778 232.029 998.765 231.572C998.55 223.636 997.972 215.682 997.972 207.719C997.93 206.043 997.881 205.466 997.859 205.28C997.583 204.348 997.422 203.417 997.256 200.713C996.853 194.151 996.09 188.496 995.352 183.028C994.479 176.553 993.576 169.858 993.293 161.799C992.811 148.056 994.186 142.01 996.466 131.996Z" fill="#AA61B7" stroke="black" stroke-width="0.4" stroke-miterlimit="10"/>
<path d="M1021 170.658C1017.01 169.72 1013.02 168.782 1009.02 167.844" stroke="black" stroke-width="0.4" stroke-linecap="round" stroke-linejoin="round"/>
<path d="M1018.84 169.787C1017.59 164.115 1017.24 158.248 1017.8 152.469" stroke="black" stroke-width="0.4" stroke-linecap="round" stroke-linejoin="round"/>
<path d="M1014.29 168.919C1012.6 163.322 1012.14 157.357 1012.95 151.566" stroke="black" stroke-width="0.4" stroke-linecap="round" stroke-linejoin="round"/>
<path d="M1019.29 171.975C1016.2 172.781 1013.11 173.587 1010.01 174.394" stroke="black" stroke-width="0.4" stroke-linecap="round" stroke-linejoin="round"/>
<path d="M1048.9 186.266C1047.44 188.962 1045.63 191.464 1043.52 193.687" stroke="black" stroke-width="0.4" stroke-linecap="round" stroke-linejoin="round"/>
<path d="M1017.87 190.035C1016.58 192.36 1015.29 194.685 1014.01 197.009" stroke="black" stroke-width="0.4" stroke-linecap="round" stroke-linejoin="round"/>
<path d="M1014.19 90.722C1006.09 91.2594 1008.45 83.9783 1008.45 83.9783C1011.36 82.4039 1014.14 80.3046 1015.37 76.9679C1017.49 71.2306 1014.84 66.9071 1014.84 66.9071L1031.49 58.3398C1031.49 58.3398 1028.89 74.6444 1031.45 79.5228C1031.45 79.5228 1022.29 90.1845 1014.19 90.722Z" fill="#FFDBCA" stroke="black" stroke-width="0.4" stroke-miterlimit="10"/>
<path d="M995.265 113.056C996.184 98.3635 998.451 88.8895 1002.52 86.8633C1004.23 86.0156 1006.39 85.1528 1008.49 84.0199C1008.49 84.0199 1006.13 91.301 1014.23 90.7636C1022.33 90.2261 1031.49 79.5645 1031.49 79.5645C1032.22 80.9541 1033.83 81.9108 1035.79 82.6181C1037.95 83.4012 1040.55 83.8782 1042.88 84.2942C1045.82 84.8212 1048.32 85.2521 1048.94 86.0874C1055.89 95.5249 1043.69 108.621 1046.85 118.54C1047.37 120.181 1048.24 121.723 1048.5 123.426C1048.76 125.129 1048.19 127.148 1046.61 127.843C1047.99 128.446 1048.65 130.283 1047.98 131.625C1047.69 132.225 1047.17 132.715 1046.97 133.355C1046.69 134.275 1047.12 135.243 1047.44 136.15C1049.42 141.666 1047.58 147.748 1045.6 153.266C1043.67 158.666 1041.62 164.022 1039.45 169.328C1031.2 167.212 1023.3 163.739 1016.17 159.09C1015.57 158.699 1014.9 158.281 1014.19 158.39C1013.63 158.476 1013.18 158.876 1012.76 159.26C1007.71 163.878 1002.67 168.496 997.622 173.114C992.872 153.285 994.007 133.174 995.265 113.056Z" fill="white"/>
<path d="M1001.77 86.9765C1003.47 86.1287 1006.39 85.1528 1008.49 84.0199C1008.49 84.0199 1006.13 91.301 1014.23 90.7636C1022.33 90.2261 1031.49 79.5645 1031.49 79.5645C1032.22 80.9541 1033.83 81.9108 1035.79 82.6181C1037.95 83.4012 1040.55 83.8782 1042.88 84.2942C1045.82 84.8212 1048.32 85.2521 1048.94 86.0874C1055.89 95.5249 1043.69 108.621 1046.85 118.54C1047.37 120.181 1048.24 121.723 1048.5 123.426C1048.76 125.129 1048.19 127.148 1046.61 127.843C1047.99 128.446 1048.65 130.283 1047.98 131.625C1047.69 132.225 1047.17 132.715 1046.97 133.355C1046.69 134.275 1047.12 135.243 1047.44 136.15C1049.42 141.666 1047.58 147.748 1045.6 153.266C1043.67 158.666 1041.62 164.022 1039.45 169.328C1031.2 167.212 1023.3 163.739 1016.17 159.09C1015.57 158.698 1014.9 158.281 1014.19 158.39C1013.63 158.476 1013.18 158.876 1012.76 159.26C1007.71 163.878 1002.67 168.496 997.622 173.114C992.872 153.285 994.007 133.174 995.265 113.056C995.394 111 995.549 109.046 995.731 107.2" stroke="black" stroke-width="0.4" stroke-miterlimit="10"/>
<g style="mix-blend-mode:multiply" opacity="0.7">
<path d="M1017.67 77.6215C1016.72 77.6681 1015.92 77.5141 1015.26 77.2159C1015.3 77.1315 1015.34 77.0539 1015.37 76.9679C1017.49 71.2305 1014.84 66.9071 1014.84 66.9071L1031.49 58.3398C1031.49 58.3398 1030.87 62.2822 1030.53 66.8689C1028.48 70.1452 1023.35 77.3437 1017.67 77.6215Z" fill="#FFB27C"/>
</g>
<path d="M1035.04 15.485C1040.25 19.3251 1043.64 24.8938 1045.1 31.4097C1045.18 31.7517 1045.25 32.0949 1045.31 32.439C1046.97 41.0436 1045.52 50.1891 1041.42 57.9176C1039.82 60.9172 1038.38 63.6774 1035.76 65.9222C1030.03 70.8466 1026.65 73.3827 1019.29 75.1102C1014.66 76.1989 1008.06 75.9505 1003.63 73.4332C1000.52 71.6646 997.962 68.9217 996.159 65.8283C993.571 61.389 994.387 57.0592 994.992 52.2642C995.856 45.4087 993.511 38.4685 994.235 31.5965C994.923 25.0629 998.523 18.8904 1003.87 15.0751C1005.46 13.939 1007.22 13.0468 1009.05 12.3604C1016.08 9.72374 1024.63 9.79742 1031.38 13.2342C1032.68 13.8975 1033.9 14.6505 1035.04 15.485Z" fill="#FFDBCA"/>
<path d="M1035.04 15.485C1040.25 19.3251 1043.64 24.8938 1045.1 31.4097C1045.18 31.7517 1045.25 32.0949 1045.31 32.439C1046.97 41.0436 1045.52 50.1891 1041.42 57.9176C1039.82 60.9172 1038.38 63.6774 1035.76 65.9222C1030.03 70.8466 1026.65 73.3827 1019.29 75.1102C1014.66 76.1989 1008.06 75.9505 1003.63 73.4332C1000.52 71.6646 997.962 68.9217 996.159 65.8283C993.571 61.389 994.387 57.0592 994.992 52.2642C995.856 45.4087 993.511 38.4685 994.235 31.5965C994.923 25.0629 998.523 18.8904 1003.87 15.0751C1005.46 13.939 1007.22 13.0468 1009.05 12.3604C1016.08 9.72374 1024.63 9.79742 1031.38 13.2342C1032.68 13.8975 1033.9 14.6505 1035.04 15.485Z" stroke="black" stroke-width="0.4" stroke-miterlimit="10"/>
<path d="M1007.93 46.5039C1008.85 49.1141 1007.98 52.2477 1005.86 54.0189C1005.31 54.4775 1004.66 54.8771 1004.35 55.52C1004.01 56.2143 1004.13 57.0687 1004.51 57.7447C1004.88 58.4208 1005.48 58.9481 1006.08 59.4259" stroke="black" stroke-width="0.4" stroke-linecap="round" stroke-linejoin="round"/>
<path d="M1013.69 65.9609C1012.13 66.7755 1010.23 66.9163 1008.57 66.341" stroke="black" stroke-width="0.4" stroke-linecap="round" stroke-linejoin="round"/>
<path d="M1016.38 62.3574C1012.87 64.6905 1009.18 64.5313 1006.05 63.5973" stroke="black" stroke-width="0.4" stroke-linecap="round" stroke-linejoin="round"/>
<path d="M1035.27 45.8604C1032.69 41.9328 1030.77 37.5694 1029.62 33.0109C1029.23 35.4996 1029.79 38.1235 1031.16 40.2364C1025.05 36.9342 1020.96 30.1818 1020.87 23.2354C1017.67 27.0749 1013 29.6643 1008.05 30.3518C1009.65 28.9969 1010.87 27.2027 1011.54 25.22C1006.84 29.5912 1000.11 31.6839 993.767 30.7482C993.261 30.6735 992.712 30.5554 992.389 30.1578C991.985 29.66 992.093 28.9341 992.244 28.3109C994.89 17.3405 1004.61 8.43201 1015.77 6.74839C1026.93 5.06477 1038.84 10.7093 1044.61 20.4106C1048.34 26.692 1049.35 34.436 1047.74 41.5302C1047.18 44.0382 1045.98 49.4944 1043.42 50.7417C1040.21 52.2972 1036.79 48.169 1035.27 45.8604Z" fill="#F9BC9A"/>
<path d="M1043.42 50.7427C1040.21 52.2981 1036.79 48.1699 1035.27 45.8613C1032.69 41.9337 1030.77 37.5704 1029.62 33.0119C1029.23 35.5005 1029.79 38.1245 1031.16 40.2374C1025.05 36.9352 1020.96 30.1827 1020.87 23.2363C1017.67 27.0759 1013 29.6653 1008.05 30.3528C1009.65 28.9979 1010.87 27.2036 1011.54 25.221C1006.84 29.5922 1000.11 31.6849 993.767 30.7492" stroke="black" stroke-width="0.4" stroke-miterlimit="10"/>
<path d="M1040.63 49.8554C1037.97 53.5541 1037.14 57.3393 1039.76 59.23C1042.38 61.1206 1047.47 60.4007 1050.13 56.702C1052.8 53.0034 1052.83 48.4723 1050.21 46.5817C1047.58 44.691 1043.3 46.1568 1040.63 49.8554Z" fill="#FFDBCA"/>
<path d="M1039.76 59.23C1042.38 61.1206 1047.47 60.4007 1050.13 56.702C1052.8 53.0034 1052.83 48.4723 1050.21 46.5817C1047.58 44.691 1043.3 46.1568 1040.63 49.8554" stroke="black" stroke-width="0.4" stroke-miterlimit="10"/>
<path d="M1051.84 48.8889C1051.84 48.8889 1046.48 48.2553 1040.31 56.2252" stroke="black" stroke-width="0.4" stroke-linecap="round" stroke-linejoin="round"/>
<path d="M1044.23 11.832C1042.55 13.3027 1040.97 14.893 1039.51 16.5871" stroke="black" stroke-width="0.4" stroke-linecap="round" stroke-linejoin="round"/>
<path d="M1040.74 10.3239C1039.79 8.70283 1038.19 7.48112 1036.37 7.00391" stroke="black" stroke-width="0.4" stroke-linecap="round" stroke-linejoin="round"/>
<path d="M1039.44 12.5396C1037.82 10.9707 1035.64 10.0014 1033.39 9.85742" stroke="black" stroke-width="0.4" stroke-linecap="round" stroke-linejoin="round"/>
<path d="M1046.14 15.3305C1047.37 15.1295 1048.69 15.4479 1049.69 16.1932" stroke="black" stroke-width="0.4" stroke-linecap="round" stroke-linejoin="round"/>
<path d="M994.126 139.306C994.15 130.559 994.675 121.787 995.224 113.014C995.352 110.972 995.505 109.03 995.687 107.195" stroke="#333333" stroke-width="0.4" stroke-linecap="round" stroke-linejoin="round"/>
<path d="M1013.16 90.8223C1012.75 93.712 1012.71 96.6548 1013.04 99.5554" stroke="black" stroke-width="0.4" stroke-linecap="round" stroke-linejoin="round"/>
<path d="M1076.75 152.2C1077.33 154.16 1077.91 156.119 1078.49 158.08C1078.67 158.695 1078.85 159.324 1078.83 159.966C1078.82 160.608 1078.56 161.277 1078.02 161.632C1078.14 162.334 1078.25 163.05 1078.15 163.753C1078.05 164.457 1077.69 165.16 1077.07 165.507C1076.94 165.58 1076.79 165.641 1076.7 165.76C1076.62 165.861 1076.59 165.993 1076.53 166.11C1076.33 166.533 1075.81 166.729 1075.35 166.682C1074.88 166.635 1074.46 166.395 1074.07 166.144C1073.84 166.465 1073.38 166.513 1073.01 166.392C1072.5 166.228 1072.11 165.822 1071.84 165.363C1071.58 164.903 1071.44 164.388 1071.29 163.878C1071.01 162.887 1070.73 161.896 1070.45 160.906C1070.22 160.133 1070 159.357 1069.66 158.63C1068.99 157.224 1067.92 156.071 1066.77 155.047C1066.23 154.568 1065.65 154.133 1065.16 153.614C1064.86 153.302 1064.46 152.863 1063.96 153.014C1063.39 153.187 1063.27 153.946 1063.32 154.544C1063.55 156.967 1064.93 159.178 1065.1 161.606C1065.12 161.982 1065.1 162.412 1064.81 162.654C1064.31 163.07 1063.59 162.594 1063.13 162.139C1061.49 160.52 1059.83 158.856 1058.84 156.779C1057.15 153.216 1056.58 148.957 1056.13 145.079C1055.87 142.939 1055.77 140.852 1055.37 138.799L1064.49 135.027C1066.23 138.107 1068.9 140.39 1071.21 143.035C1072.47 144.477 1073.73 145.93 1074.68 147.594C1075.52 149.082 1076.26 150.543 1076.75 152.2Z" fill="#FFDBCA" stroke="black" stroke-width="0.4" stroke-miterlimit="10"/>
<path d="M1074.03 165.893C1073.81 162.745 1073.17 159.628 1072.11 156.654" stroke="#333333" stroke-width="0.4" stroke-linecap="round" stroke-linejoin="round"/>
<path d="M1076.65 165.411C1076.19 161.949 1075.29 158.544 1073.99 155.301" stroke="#333333" stroke-width="0.4" stroke-linecap="round" stroke-linejoin="round"/>
<path d="M1077.75 161.295C1077.23 158.637 1076.48 156.024 1075.52 153.492" stroke="#333333" stroke-width="0.4" stroke-linecap="round" stroke-linejoin="round"/>
<path d="M1034.53 82.7832C1036.3 83.0809 1038.09 83.3623 1039.86 83.7004C1041.62 84.0382 1043.43 84.1158 1045.2 84.425C1047.23 84.7784 1049.29 85.4886 1050.69 86.9986C1051.32 87.6738 1051.71 88.5347 1052.32 89.2074C1052.92 89.858 1053.56 90.4702 1054.12 91.1582C1055.29 92.5759 1056.34 94.0861 1057.31 95.6443C1061.36 102.13 1064.47 109.191 1066.57 116.537C1068.79 124.287 1069.46 132.039 1070.19 140.036C1070.22 140.386 1070.25 140.749 1070.13 141.081C1070.01 141.414 1069.76 141.679 1069.51 141.924C1065.82 145.486 1060.34 147.091 1055.32 146.082C1055.01 146.02 1054.69 145.941 1054.47 145.721C1053.72 144.988 1053.88 142.851 1053.76 141.888C1053.52 140.048 1053.28 138.207 1053.04 136.367C1052.56 132.686 1052.08 129.005 1051.6 125.324C1051.54 124.928 1051.48 124.513 1051.24 124.195C1050.96 123.819 1050.47 123.652 1050.14 123.312C1049.42 122.568 1049.7 121.363 1049.64 120.328C1049.44 116.747 1044.96 114.221 1042.48 112.243C1033.97 105.456 1030.59 92.9304 1034.53 82.7832Z" fill="white"/>
<path d="M1037.21 83.0723C1038.97 83.4101 1043.43 84.1138 1045.2 84.423C1047.23 84.7765 1049.29 85.4866 1050.69 86.9967C1051.32 87.6718 1051.71 88.5328 1052.32 89.2055C1052.92 89.856 1053.56 90.4682 1054.12 91.1563C1055.29 92.5739 1056.34 94.0841 1057.31 95.6423C1061.36 102.128 1064.47 109.189 1066.57 116.535C1068.79 124.285 1069.46 132.037 1070.19 140.034C1070.22 140.384 1070.25 140.747 1070.13 141.079C1070.01 141.412 1069.76 141.677 1069.51 141.922C1065.82 145.484 1060.34 147.089 1055.32 146.08C1055.01 146.019 1054.69 145.939 1054.47 145.719C1053.72 144.986 1053.88 142.849 1053.76 141.886C1053.52 140.046 1053.28 138.205 1053.04 136.365C1052.56 132.684 1052.08 129.003 1051.6 125.322C1051.54 124.926 1051.48 124.511 1051.24 124.193C1050.96 123.817 1050.47 123.65 1050.14 123.31C1049.42 122.566 1049.7 121.361 1049.64 120.326C1049.53 118.298 1048.04 116.608 1046.32 115.164" stroke="black" stroke-width="0.4" stroke-miterlimit="10"/>
<path d="M1050.63 118.696C1051.23 119.07 1052.02 118.832 1052.65 118.506C1054.1 117.749 1055.33 116.557 1056.13 115.123" stroke="black" stroke-width="0.4" stroke-linecap="round" stroke-linejoin="round"/>
<path d="M1069.66 135.471C1067.99 137.806 1065.38 139.369 1062.6 140.078C1059.82 140.787 1056.89 140.69 1054.07 140.154" stroke="black" stroke-width="0.4" stroke-linecap="round" stroke-linejoin="round"/>
<path d="M1046.25 115.124C1045.07 113.478 1043.54 112.078 1041.81 111.037" stroke="black" stroke-width="0.4" stroke-linecap="round" stroke-linejoin="round"/>
<path d="M1045.5 85.9844C1042.64 87.5323 1040.22 89.8653 1038.56 92.6593" stroke="black" stroke-width="0.4" stroke-linecap="round" stroke-linejoin="round"/>
<path d="M998.293 38.8807C999.533 38.5007 1000.86 38.4619 1002.12 38.7711C1002.22 38.7956 1002.28 38.8976 1002.25 38.9986C1002.23 39.0808 1002.16 39.137 1002.08 39.1412C1002.06 39.1421 1002.04 39.1406 1002.03 39.136C1000.83 38.8433 999.579 38.8791 998.403 39.2404C998.306 39.2687 998.199 39.2146 998.168 39.1158C998.138 39.0163 998.194 38.9113 998.293 38.8807Z" fill="black"/>
<path d="M1019.16 38.6217C1019.17 38.5185 1019.26 38.4386 1019.36 38.448C1020.51 38.5318 1021.62 38.9243 1022.56 39.584C1022.65 39.6435 1022.67 39.7604 1022.61 39.8455C1022.57 39.895 1022.52 39.9228 1022.46 39.9258C1022.42 39.9278 1022.38 39.9172 1022.35 39.8922C1021.46 39.2715 1020.41 38.9018 1019.33 38.8229C1019.23 38.8154 1019.15 38.7253 1019.16 38.6217Z" fill="black"/>
<path d="M1000.82 47.0355C1001.21 47.2315 1001.45 47.6351 1001.58 48.0487C1001.72 48.5317 1001.74 49.0677 1001.54 49.532C1001.34 49.9962 1000.91 50.3734 1000.41 50.4388C999.908 50.5045 999.363 50.2131 999.201 49.7351C998.985 49.1011 998.756 48.3565 999.063 47.725C999.37 47.0936 1000.2 46.7167 1000.82 47.0355Z" fill="black"/>
<path d="M1019.1 46.6662C1019.48 46.8625 1019.72 47.2659 1019.85 47.6797C1020 48.1625 1020.01 48.6988 1019.81 49.1628C1019.61 49.627 1019.18 50.0042 1018.68 50.0698C1018.18 50.1354 1017.64 49.8441 1017.47 49.3662C1017.26 48.7319 1017.03 47.9875 1017.34 47.356C1017.64 46.7244 1018.47 46.3476 1019.1 46.6662Z" fill="black"/>
<path d="M1019.24 59.0514C1020.19 62.3668 1023.65 64.2837 1026.97 63.333C1030.28 62.3825 1032.2 58.9243 1031.25 55.609C1030.3 52.2938 1026.84 50.3769 1023.53 51.3275C1020.21 52.278 1018.29 55.7362 1019.24 59.0514Z" fill="#F9A478"/>
<path d="M999.954 55.6084C1000.9 58.9237 998.987 62.3819 995.672 63.3324C995.531 63.3728 995.39 63.3788 995.249 63.4089C994.049 59.7959 994.682 56.186 995.177 52.2651C995.219 51.929 995.248 51.5924 995.276 51.2559C997.445 51.7316 999.299 53.3239 999.954 55.6084Z" fill="#F9A478"/>
<defs>
<filter id="filter0_d_2096_7213" x="621" y="181.309" width="242.186" height="70.6914" filterUnits="userSpaceOnUse" color-interpolation-filters="sRGB">
<feFlood flood-opacity="0" result="BackgroundImageFix"/>
<feColorMatrix in="SourceAlpha" type="matrix" values="0 0 0 0 0 0 0 0 0 0 0 0 0 0 0 0 0 0 127 0" result="hardAlpha"/>
<feOffset dx="2" dy="-2"/>
<feGaussianBlur stdDeviation="1"/>
<feComposite in2="hardAlpha" operator="out"/>
<feColorMatrix type="matrix" values="0 0 0 0 0 0 0 0 0 0 0 0 0 0 0 0 0 0 0.25 0"/>
<feBlend mode="normal" in2="BackgroundImageFix" result="effect1_dropShadow_2096_7213"/>
<feBlend mode="normal" in="SourceGraphic" in2="effect1_dropShadow_2096_7213" result="shape"/>
</filter>
<filter id="filter1_d_2096_7213" x="926" y="85" width="242" height="150" filterUnits="userSpaceOnUse" color-interpolation-filters="sRGB">
<feFlood flood-opacity="0" result="BackgroundImageFix"/>
<feColorMatrix in="SourceAlpha" type="matrix" values="0 0 0 0 0 0 0 0 0 0 0 0 0 0 0 0 0 0 127 0" result="hardAlpha"/>
<feOffset dx="2" dy="-2"/>
<feGaussianBlur stdDeviation="1"/>
<feComposite in2="hardAlpha" operator="out"/>
<feColorMatrix type="matrix" values="0 0 0 0 0 0 0 0 0 0 0 0 0 0 0 0 0 0 0.25 0"/>
<feBlend mode="normal" in2="BackgroundImageFix" result="effect1_dropShadow_2096_7213"/>
<feBlend mode="normal" in="SourceGraphic" in2="effect1_dropShadow_2096_7213" result="shape"/>
</filter>
<filter id="filter2_d_2096_7213" x="49" y="30" width="112" height="109" filterUnits="userSpaceOnUse" color-interpolation-filters="sRGB">
<feFlood flood-opacity="0" result="BackgroundImageFix"/>
<feColorMatrix in="SourceAlpha" type="matrix" values="0 0 0 0 0 0 0 0 0 0 0 0 0 0 0 0 0 0 127 0" result="hardAlpha"/>
<feOffset dy="4"/>
<feGaussianBlur stdDeviation="2"/>
<feComposite in2="hardAlpha" operator="out"/>
<feColorMatrix type="matrix" values="0 0 0 0 0 0 0 0 0 0 0 0 0 0 0 0 0 0 0.25 0"/>
<feBlend mode="normal" in2="BackgroundImageFix" result="effect1_dropShadow_2096_7213"/>
<feBlend mode="normal" in="SourceGraphic" in2="effect1_dropShadow_2096_7213" result="shape"/>
</filter>
</defs>
</svg>
