<svg width="1240" height="290" viewBox="0 0 1240 290" fill="none" xmlns="http://www.w3.org/2000/svg">
<path d="M1157.61 151.846C1154.76 151.846 1152 152.247 1149.39 152.981C1153.42 147.829 1155.83 141.348 1155.83 134.3C1155.83 117.535 1142.23 103.944 1125.44 103.944C1117.63 103.944 1110.51 106.892 1105.13 111.732C1105.22 110.742 1105.28 109.738 1105.28 108.722C1105.28 91.9573 1091.67 78.3667 1074.89 78.3667C1058.11 78.3667 1044.5 91.9573 1044.5 108.722C1044.5 109.78 1044.56 110.825 1044.66 111.855C1039.83 108.622 1034.02 106.734 1027.77 106.734C1010.99 106.734 997.387 120.325 997.387 137.09C997.387 141.163 998.196 145.047 999.653 148.596C998.904 148.541 998.15 148.503 997.387 148.503C980.605 148.503 967 162.094 967 178.859C967 195.624 980.605 209.214 997.387 209.214C1005.96 209.214 1013.69 205.664 1019.22 199.963C1024.57 208.606 1034.15 214.367 1045.07 214.367C1053.02 214.367 1060.25 211.317 1065.66 206.329C1070.32 209.24 1075.83 210.929 1081.74 210.929C1087.3 210.929 1092.51 209.427 1097 206.819C1102.35 211.514 1109.36 214.367 1117.04 214.367C1125.33 214.367 1132.85 211.043 1138.33 205.661C1143.58 209.969 1150.29 212.557 1157.61 212.557C1174.4 212.557 1188 198.966 1188 182.201C1188 165.436 1174.4 151.846 1157.61 151.846Z" fill="#83BEB7"/>
<path d="M393.463 163.661C390.972 163.661 388.565 164.012 386.279 164.654C389.801 160.146 391.907 154.475 391.907 148.308C391.907 133.639 380.026 121.747 365.37 121.747C358.547 121.747 352.328 124.327 347.626 128.562C347.711 127.695 347.757 126.817 347.757 125.928C347.757 111.259 335.876 99.3667 321.22 99.3667C306.564 99.3667 294.683 111.259 294.683 125.928C294.683 126.853 294.731 127.768 294.824 128.669C290.605 125.84 285.533 124.188 280.074 124.188C265.418 124.188 253.537 136.08 253.537 150.749C253.537 154.314 254.243 157.712 255.516 160.817C254.861 160.769 254.203 160.736 253.537 160.736C238.881 160.736 227 172.628 227 187.297C227 201.967 238.881 213.858 253.537 213.858C261.021 213.858 267.777 210.752 272.602 205.763C277.279 213.326 285.639 218.367 295.178 218.367C302.117 218.367 308.432 215.698 313.16 211.334C317.233 213.881 322.043 215.358 327.2 215.358C332.059 215.358 336.609 214.045 340.527 211.763C345.199 215.871 351.321 218.367 358.028 218.367C365.272 218.367 371.834 215.459 376.623 210.749C381.204 214.519 387.069 216.783 393.463 216.783C408.119 216.783 420 204.891 420 190.222C420 175.553 408.119 163.661 393.463 163.661Z" fill="#83BEB7"/>
<path d="M531.463 185.661C528.972 185.661 526.565 186.012 524.279 186.654C527.801 182.146 529.907 176.475 529.907 170.308C529.907 155.639 518.026 143.747 503.37 143.747C496.547 143.747 490.328 146.327 485.626 150.562C485.711 149.695 485.757 148.817 485.757 147.928C485.757 133.259 473.876 121.367 459.22 121.367C444.564 121.367 432.683 133.259 432.683 147.928C432.683 148.853 432.731 149.768 432.824 150.669C428.605 147.84 423.533 146.188 418.074 146.188C403.418 146.188 391.537 158.08 391.537 172.749C391.537 176.314 392.243 179.712 393.516 182.817C392.861 182.769 392.203 182.736 391.537 182.736C376.881 182.736 365 194.628 365 209.297C365 223.967 376.881 235.858 391.537 235.858C399.021 235.858 405.777 232.752 410.602 227.763C415.279 235.326 423.639 240.367 433.178 240.367C440.117 240.367 446.432 237.698 451.16 233.334C455.233 235.881 460.043 237.358 465.2 237.358C470.059 237.358 474.609 236.045 478.527 233.763C483.199 237.871 489.321 240.367 496.028 240.367C503.272 240.367 509.834 237.459 514.623 232.749C519.204 236.519 525.069 238.783 531.463 238.783C546.119 238.783 558 226.891 558 212.222C558 197.553 546.119 185.661 531.463 185.661Z" fill="#CDEFEB"/>
<path d="M232.831 136.531C230.44 137.233 228.229 138.247 226.216 139.507C228.328 134.19 228.751 128.155 227.015 122.238C222.886 108.162 208.137 100.096 194.074 104.221C187.527 106.142 182.285 110.368 178.967 115.756C178.804 114.9 178.601 114.045 178.35 113.192C174.221 99.1154 159.473 91.0492 145.41 95.1751C131.346 99.301 123.294 114.057 127.423 128.133C127.684 129.021 127.987 129.884 128.33 130.723C123.485 129.196 118.153 129.039 112.915 130.576C98.8516 134.702 90.799 149.458 94.9286 163.534C95.9321 166.954 97.5665 170.015 99.6617 172.637C99.0204 172.775 98.3795 172.929 97.7401 173.117C83.6769 177.242 75.6243 191.998 79.7539 206.074C83.8836 220.15 98.6318 228.216 112.695 224.09C119.877 221.983 125.485 217.101 128.71 210.955C135.327 216.896 144.768 219.379 153.921 216.694C160.58 214.74 165.888 210.402 169.196 204.883C173.822 206.181 178.853 206.244 183.801 204.792C188.464 203.424 192.46 200.883 195.577 197.59C201.217 200.217 207.793 200.888 214.23 199C221.18 196.961 226.659 192.323 229.928 186.456C235.385 188.784 241.65 189.305 247.786 187.505C261.849 183.379 269.901 168.624 265.772 154.548C261.642 140.472 246.894 132.406 232.831 136.531Z" fill="#CDEFEB"/>
<path d="M1057.64 166.296C1054.04 166.296 1050.56 166.804 1047.25 167.732C1052.34 161.216 1055.39 153.019 1055.39 144.106C1055.39 122.903 1038.21 105.715 1017.03 105.715C1007.16 105.715 998.173 109.443 991.377 115.564C991.5 114.312 991.566 113.043 991.566 111.758C991.566 90.5549 974.391 73.3667 953.204 73.3667C932.018 73.3667 914.843 90.5549 914.843 111.758C914.843 113.095 914.912 114.417 915.046 115.719C908.947 111.631 901.614 109.243 893.723 109.243C872.536 109.243 855.361 126.431 855.361 147.634C855.361 152.786 856.383 157.697 858.222 162.186C857.276 162.116 856.325 162.069 855.361 162.069C834.175 162.069 817 179.257 817 200.46C817 221.662 834.175 238.851 855.361 238.851C866.181 238.851 875.947 234.361 882.922 227.15C889.683 238.081 901.768 245.367 915.558 245.367C925.589 245.367 934.717 241.51 941.553 235.201C947.441 238.883 954.394 241.019 961.849 241.019C968.873 241.019 975.451 239.12 981.114 235.821C987.868 241.759 996.717 245.367 1006.41 245.367C1016.89 245.367 1026.37 241.163 1033.29 234.356C1039.92 239.805 1048.4 243.078 1057.64 243.078C1078.82 243.078 1096 225.89 1096 204.687C1096 183.484 1078.82 166.296 1057.64 166.296Z" fill="#CDEFEB"/>
<path d="M811.151 158.5C808.724 158.5 806.379 158.839 804.152 159.46C807.584 155.103 809.635 149.623 809.635 143.663C809.635 129.487 798.062 117.995 783.785 117.995C777.139 117.995 771.081 120.488 766.501 124.58C766.584 123.743 766.629 122.894 766.629 122.035C766.629 107.859 755.055 96.3667 740.779 96.3667C726.503 96.3667 714.93 107.859 714.93 122.035C714.93 122.929 714.977 123.813 715.067 124.684C710.957 121.95 706.016 120.354 700.699 120.354C686.422 120.354 674.849 131.846 674.849 146.022C674.849 149.467 675.537 152.75 676.777 155.752C676.14 155.705 675.498 155.673 674.849 155.673C660.573 155.673 649 167.165 649 181.342C649 195.518 660.573 207.01 674.849 207.01C682.14 207.01 688.721 204.008 693.42 199.187C697.976 206.496 706.12 211.367 715.412 211.367C722.171 211.367 728.322 208.788 732.928 204.57C736.896 207.032 741.581 208.459 746.604 208.459C751.338 208.459 755.77 207.19 759.586 204.985C764.137 208.954 770.1 211.367 776.634 211.367C783.69 211.367 790.082 208.556 794.747 204.005C799.209 207.648 804.922 209.836 811.151 209.836C825.427 209.836 837 198.344 837 184.168C837 169.992 825.427 158.5 811.151 158.5Z" fill="#83BEB7"/>
<path fill-rule="evenodd" clip-rule="evenodd" d="M1081.55 274.367H70C62.5027 274.367 55.9689 270.241 52.5447 264.137C48.1581 265.887 43.3727 266.851 38.3615 266.851C17.175 266.851 0 249.662 0 228.46C0 207.257 17.175 190.069 38.3615 190.069C39.3247 190.069 40.2764 190.116 41.222 190.186C39.3827 185.697 38.3615 180.786 38.3615 175.634C38.3615 154.431 55.5365 137.243 76.7229 137.243C84.6144 137.243 91.9474 139.631 98.0456 143.719C97.912 142.417 97.8429 141.095 97.8429 139.758C97.8429 118.555 115.018 101.367 136.204 101.367C157.391 101.367 174.566 118.555 174.566 139.758C174.566 141.043 174.5 142.312 174.377 143.564C181.173 137.443 190.164 133.715 200.027 133.715C207.521 133.715 214.512 135.865 220.42 139.583C224.492 128.764 234.945 121.065 247.198 121.065C253.082 121.065 258.549 122.842 263.095 125.885C262.995 124.916 262.944 123.932 262.944 122.937C262.944 107.158 275.748 94.3667 291.543 94.3667C307.338 94.3667 320.142 107.158 320.142 122.937C320.142 123.893 320.093 124.838 320.001 125.77C325.068 121.214 331.771 118.44 339.124 118.44C354.919 118.44 367.724 131.231 367.724 147.01C367.724 149.607 367.376 152.123 366.724 154.513C369.403 153.762 372.229 153.36 375.148 153.36C381.541 153.36 387.481 155.289 392.42 158.593C392.312 157.541 392.256 156.473 392.256 155.392C392.256 138.257 406.169 124.367 423.33 124.367C440.492 124.367 454.405 138.257 454.405 155.392C454.405 156.43 454.351 157.456 454.251 158.468C459.757 153.522 467.04 150.509 475.029 150.509C484.009 150.509 492.1 154.312 497.773 160.393C499.84 155.491 503.495 150.82 508.506 147.192C520.562 138.465 535.902 139.079 542.77 148.565C543.186 149.14 543.56 149.735 543.895 150.346C545.78 144.808 549.689 139.436 555.301 135.372C567.357 126.645 582.698 127.259 589.565 136.745C592.452 140.733 593.375 145.654 592.587 150.667C594.167 148.89 595.983 147.229 598.032 145.746C609.545 137.411 624.052 137.596 631.317 145.89C632.892 144.575 634.631 143.373 636.52 142.317C649.511 135.054 664.675 137.453 670.39 147.675C670.736 148.295 671.038 148.929 671.3 149.575C673.817 144.295 678.326 139.415 684.374 136.034C697.365 128.771 712.529 131.17 718.244 141.392C720.646 145.689 720.989 150.684 719.622 155.571C721.398 153.991 723.396 152.553 725.604 151.319C738.261 144.243 752.98 146.338 759.014 155.903C763.102 144.049 774.434 135.526 787.773 135.526C794.024 135.526 799.833 137.399 804.663 140.608C804.558 139.586 804.503 138.549 804.503 137.499C804.503 120.857 818.107 107.367 834.889 107.367C851.672 107.367 865.276 120.857 865.276 137.499C865.276 138.508 865.224 139.504 865.126 140.487C870.51 135.683 877.632 132.756 885.445 132.756C892.223 132.756 898.484 134.957 903.538 138.678C906.076 121.299 921.131 107.949 939.323 107.949C946.762 107.949 953.674 110.183 959.423 114.011C959.297 112.791 959.232 111.555 959.232 110.302C959.232 90.4556 975.422 74.3667 995.393 74.3667C1015.36 74.3667 1031.55 90.4556 1031.55 110.302C1031.55 111.505 1031.49 112.693 1031.38 113.866C1037.78 108.136 1046.26 104.646 1055.56 104.646C1073.22 104.646 1087.93 117.234 1091.09 133.875C1097.16 127.992 1105.46 124.367 1114.61 124.367C1133.21 124.367 1148.29 139.356 1148.29 157.847C1148.29 158.968 1148.23 160.075 1148.13 161.167C1154.09 155.829 1161.99 152.577 1170.65 152.577C1189.26 152.577 1204.34 167.567 1204.34 186.058C1204.34 193.831 1201.66 200.98 1197.19 206.662C1200.09 205.852 1203.15 205.41 1206.31 205.41C1224.92 205.41 1240 220.4 1240 238.89C1240 257.381 1224.92 272.371 1206.31 272.371C1198.85 272.371 1191.95 269.955 1186.36 265.869C1182.74 271.009 1176.76 274.367 1170 274.367H1161.33H1081.55Z" fill="#92D3CA"/>
<path d="M82.5469 209.868L77.0469 191.946H76.9062C76.9271 192.373 76.9583 193.019 77 193.884C77.0521 194.738 77.099 195.649 77.1406 196.618C77.1823 197.587 77.2031 198.462 77.2031 199.243V209.868H72.875V187.024H79.4688L84.875 204.493H84.9688L90.7031 187.024H97.2969V209.868H92.7812V199.056C92.7812 198.337 92.7917 197.509 92.8125 196.571C92.8438 195.634 92.8802 194.743 92.9219 193.899C92.9635 193.045 92.9948 192.405 93.0156 191.978H92.875L86.9844 209.868H82.5469ZM109.844 192.04C112.188 192.04 113.984 192.55 115.234 193.571C116.484 194.592 117.109 196.144 117.109 198.228V209.868H113.781L112.859 207.493H112.734C112.234 208.118 111.724 208.629 111.203 209.024C110.682 209.42 110.083 209.712 109.406 209.899C108.729 210.087 107.906 210.181 106.938 210.181C105.906 210.181 104.979 209.983 104.156 209.587C103.344 209.191 102.703 208.587 102.234 207.774C101.766 206.951 101.531 205.91 101.531 204.649C101.531 202.795 102.182 201.431 103.484 200.556C104.786 199.67 106.74 199.181 109.344 199.087L112.375 198.993V198.228C112.375 197.311 112.135 196.639 111.656 196.212C111.177 195.785 110.51 195.571 109.656 195.571C108.812 195.571 107.984 195.691 107.172 195.931C106.359 196.17 105.547 196.472 104.734 196.837L103.156 193.618C104.083 193.129 105.12 192.743 106.266 192.462C107.422 192.181 108.615 192.04 109.844 192.04ZM112.375 201.774L110.531 201.837C108.99 201.879 107.917 202.155 107.312 202.665C106.719 203.175 106.422 203.847 106.422 204.681C106.422 205.41 106.635 205.931 107.062 206.243C107.49 206.545 108.047 206.696 108.734 206.696C109.755 206.696 110.615 206.394 111.312 205.79C112.021 205.186 112.375 204.326 112.375 203.212V201.774ZM131.781 192.071C132.021 192.071 132.297 192.087 132.609 192.118C132.932 192.139 133.193 192.17 133.391 192.212L133.031 196.681C132.875 196.629 132.651 196.592 132.359 196.571C132.078 196.54 131.833 196.524 131.625 196.524C131.01 196.524 130.411 196.603 129.828 196.759C129.255 196.915 128.74 197.17 128.281 197.524C127.823 197.868 127.458 198.326 127.188 198.899C126.927 199.462 126.797 200.155 126.797 200.978V209.868H122.031V192.399H125.641L126.344 195.337H126.578C126.922 194.743 127.349 194.201 127.859 193.712C128.38 193.212 128.969 192.816 129.625 192.524C130.292 192.222 131.01 192.071 131.781 192.071ZM143.656 210.181C141.927 210.181 140.453 209.868 139.234 209.243C138.016 208.608 137.089 207.629 136.453 206.306C135.818 204.983 135.5 203.29 135.5 201.228C135.5 199.092 135.859 197.353 136.578 196.009C137.307 194.655 138.312 193.66 139.594 193.024C140.885 192.389 142.38 192.071 144.078 192.071C145.286 192.071 146.328 192.191 147.203 192.431C148.089 192.66 148.859 192.936 149.516 193.259L148.109 196.946C147.359 196.644 146.661 196.399 146.016 196.212C145.37 196.014 144.724 195.915 144.078 195.915C143.245 195.915 142.552 196.113 142 196.509C141.448 196.894 141.036 197.478 140.766 198.259C140.495 199.04 140.359 200.019 140.359 201.196C140.359 202.353 140.505 203.311 140.797 204.071C141.089 204.832 141.51 205.399 142.062 205.774C142.615 206.139 143.286 206.321 144.078 206.321C145.068 206.321 145.948 206.191 146.719 205.931C147.49 205.66 148.24 205.285 148.969 204.806V208.884C148.24 209.342 147.474 209.67 146.672 209.868C145.88 210.076 144.875 210.181 143.656 210.181ZM168.906 201.103C168.906 202.561 168.708 203.853 168.312 204.978C167.927 206.103 167.359 207.056 166.609 207.837C165.87 208.608 164.974 209.191 163.922 209.587C162.88 209.983 161.703 210.181 160.391 210.181C159.161 210.181 158.031 209.983 157 209.587C155.979 209.191 155.089 208.608 154.328 207.837C153.578 207.056 152.995 206.103 152.578 204.978C152.172 203.853 151.969 202.561 151.969 201.103C151.969 199.165 152.312 197.524 153 196.181C153.688 194.837 154.667 193.816 155.938 193.118C157.208 192.42 158.724 192.071 160.484 192.071C162.12 192.071 163.568 192.42 164.828 193.118C166.099 193.816 167.094 194.837 167.812 196.181C168.542 197.524 168.906 199.165 168.906 201.103ZM156.828 201.103C156.828 202.248 156.953 203.212 157.203 203.993C157.453 204.774 157.844 205.363 158.375 205.759C158.906 206.155 159.599 206.353 160.453 206.353C161.297 206.353 161.979 206.155 162.5 205.759C163.031 205.363 163.417 204.774 163.656 203.993C163.906 203.212 164.031 202.248 164.031 201.103C164.031 199.946 163.906 198.988 163.656 198.228C163.417 197.457 163.031 196.879 162.5 196.493C161.969 196.108 161.276 195.915 160.422 195.915C159.161 195.915 158.245 196.347 157.672 197.212C157.109 198.076 156.828 199.373 156.828 201.103ZM185.031 204.681C185.031 205.868 184.75 206.873 184.188 207.696C183.635 208.509 182.807 209.129 181.703 209.556C180.599 209.972 179.224 210.181 177.578 210.181C176.359 210.181 175.312 210.103 174.438 209.946C173.573 209.79 172.698 209.53 171.812 209.165V205.228C172.76 205.655 173.776 206.009 174.859 206.29C175.953 206.561 176.911 206.696 177.734 206.696C178.661 206.696 179.323 206.561 179.719 206.29C180.125 206.009 180.328 205.644 180.328 205.196C180.328 204.905 180.245 204.644 180.078 204.415C179.922 204.175 179.578 203.91 179.047 203.618C178.516 203.316 177.682 202.925 176.547 202.446C175.453 201.988 174.552 201.524 173.844 201.056C173.146 200.587 172.625 200.035 172.281 199.399C171.948 198.754 171.781 197.936 171.781 196.946C171.781 195.332 172.406 194.118 173.656 193.306C174.917 192.483 176.599 192.071 178.703 192.071C179.786 192.071 180.818 192.181 181.797 192.399C182.786 192.618 183.802 192.967 184.844 193.446L183.406 196.884C182.542 196.509 181.724 196.201 180.953 195.962C180.193 195.722 179.417 195.603 178.625 195.603C177.927 195.603 177.401 195.696 177.047 195.884C176.693 196.071 176.516 196.358 176.516 196.743C176.516 197.024 176.604 197.274 176.781 197.493C176.969 197.712 177.323 197.957 177.844 198.228C178.375 198.488 179.151 198.826 180.172 199.243C181.161 199.649 182.021 200.076 182.75 200.524C183.479 200.962 184.042 201.509 184.438 202.165C184.833 202.811 185.031 203.649 185.031 204.681ZM202.594 210.181C200.646 210.181 199.057 209.42 197.828 207.899C196.609 206.368 196 204.123 196 201.165C196 198.175 196.62 195.915 197.859 194.384C199.099 192.842 200.719 192.071 202.719 192.071C203.552 192.071 204.286 192.186 204.922 192.415C205.557 192.644 206.104 192.951 206.562 193.337C207.031 193.722 207.427 194.155 207.75 194.634H207.906C207.844 194.3 207.766 193.811 207.672 193.165C207.589 192.509 207.547 191.837 207.547 191.149V185.556H212.328V209.868H208.672L207.75 207.603H207.547C207.245 208.082 206.865 208.519 206.406 208.915C205.958 209.3 205.422 209.608 204.797 209.837C204.172 210.066 203.438 210.181 202.594 210.181ZM204.266 206.384C205.568 206.384 206.484 205.998 207.016 205.228C207.557 204.446 207.844 203.274 207.875 201.712V201.196C207.875 199.498 207.615 198.201 207.094 197.306C206.573 196.399 205.604 195.946 204.188 195.946C203.135 195.946 202.312 196.399 201.719 197.306C201.125 198.212 200.828 199.519 200.828 201.228C200.828 202.936 201.125 204.222 201.719 205.087C202.323 205.951 203.172 206.384 204.266 206.384ZM233.188 201.103C233.188 202.561 232.99 203.853 232.594 204.978C232.208 206.103 231.641 207.056 230.891 207.837C230.151 208.608 229.255 209.191 228.203 209.587C227.161 209.983 225.984 210.181 224.672 210.181C223.443 210.181 222.312 209.983 221.281 209.587C220.26 209.191 219.37 208.608 218.609 207.837C217.859 207.056 217.276 206.103 216.859 204.978C216.453 203.853 216.25 202.561 216.25 201.103C216.25 199.165 216.594 197.524 217.281 196.181C217.969 194.837 218.948 193.816 220.219 193.118C221.49 192.42 223.005 192.071 224.766 192.071C226.401 192.071 227.849 192.42 229.109 193.118C230.38 193.816 231.375 194.837 232.094 196.181C232.823 197.524 233.188 199.165 233.188 201.103ZM221.109 201.103C221.109 202.248 221.234 203.212 221.484 203.993C221.734 204.774 222.125 205.363 222.656 205.759C223.188 206.155 223.88 206.353 224.734 206.353C225.578 206.353 226.26 206.155 226.781 205.759C227.312 205.363 227.698 204.774 227.938 203.993C228.188 203.212 228.312 202.248 228.312 201.103C228.312 199.946 228.188 198.988 227.938 198.228C227.698 197.457 227.312 196.879 226.781 196.493C226.25 196.108 225.557 195.915 224.703 195.915C223.443 195.915 222.526 196.347 221.953 197.212C221.391 198.076 221.109 199.373 221.109 201.103ZM250.969 210.181C249.021 210.181 247.432 209.42 246.203 207.899C244.984 206.368 244.375 204.123 244.375 201.165C244.375 198.175 244.995 195.915 246.234 194.384C247.474 192.842 249.094 192.071 251.094 192.071C251.927 192.071 252.661 192.186 253.297 192.415C253.932 192.644 254.479 192.951 254.938 193.337C255.406 193.722 255.802 194.155 256.125 194.634H256.281C256.219 194.3 256.141 193.811 256.047 193.165C255.964 192.509 255.922 191.837 255.922 191.149V185.556H260.703V209.868H257.047L256.125 207.603H255.922C255.62 208.082 255.24 208.519 254.781 208.915C254.333 209.3 253.797 209.608 253.172 209.837C252.547 210.066 251.812 210.181 250.969 210.181ZM252.641 206.384C253.943 206.384 254.859 205.998 255.391 205.228C255.932 204.446 256.219 203.274 256.25 201.712V201.196C256.25 199.498 255.99 198.201 255.469 197.306C254.948 196.399 253.979 195.946 252.562 195.946C251.51 195.946 250.688 196.399 250.094 197.306C249.5 198.212 249.203 199.519 249.203 201.228C249.203 202.936 249.5 204.222 250.094 205.087C250.698 205.951 251.547 206.384 252.641 206.384ZM272.891 192.071C274.505 192.071 275.896 192.384 277.062 193.009C278.229 193.623 279.13 194.519 279.766 195.696C280.401 196.873 280.719 198.311 280.719 200.009V202.321H269.453C269.505 203.665 269.906 204.722 270.656 205.493C271.417 206.254 272.469 206.634 273.812 206.634C274.927 206.634 275.948 206.519 276.875 206.29C277.802 206.061 278.755 205.717 279.734 205.259V208.946C278.87 209.373 277.964 209.686 277.016 209.884C276.078 210.082 274.938 210.181 273.594 210.181C271.844 210.181 270.292 209.858 268.938 209.212C267.594 208.566 266.536 207.582 265.766 206.259C265.005 204.936 264.625 203.269 264.625 201.259C264.625 199.217 264.969 197.519 265.656 196.165C266.354 194.8 267.323 193.78 268.562 193.103C269.802 192.415 271.245 192.071 272.891 192.071ZM272.922 195.462C271.995 195.462 271.224 195.759 270.609 196.353C270.005 196.946 269.656 197.879 269.562 199.149H276.25C276.24 198.441 276.109 197.811 275.859 197.259C275.62 196.707 275.255 196.269 274.766 195.946C274.286 195.623 273.672 195.462 272.922 195.462ZM296.781 204.681C296.781 205.868 296.5 206.873 295.938 207.696C295.385 208.509 294.557 209.129 293.453 209.556C292.349 209.972 290.974 210.181 289.328 210.181C288.109 210.181 287.062 210.103 286.188 209.946C285.323 209.79 284.448 209.53 283.562 209.165V205.228C284.51 205.655 285.526 206.009 286.609 206.29C287.703 206.561 288.661 206.696 289.484 206.696C290.411 206.696 291.073 206.561 291.469 206.29C291.875 206.009 292.078 205.644 292.078 205.196C292.078 204.905 291.995 204.644 291.828 204.415C291.672 204.175 291.328 203.91 290.797 203.618C290.266 203.316 289.432 202.925 288.297 202.446C287.203 201.988 286.302 201.524 285.594 201.056C284.896 200.587 284.375 200.035 284.031 199.399C283.698 198.754 283.531 197.936 283.531 196.946C283.531 195.332 284.156 194.118 285.406 193.306C286.667 192.483 288.349 192.071 290.453 192.071C291.536 192.071 292.568 192.181 293.547 192.399C294.536 192.618 295.552 192.967 296.594 193.446L295.156 196.884C294.292 196.509 293.474 196.201 292.703 195.962C291.943 195.722 291.167 195.603 290.375 195.603C289.677 195.603 289.151 195.696 288.797 195.884C288.443 196.071 288.266 196.358 288.266 196.743C288.266 197.024 288.354 197.274 288.531 197.493C288.719 197.712 289.073 197.957 289.594 198.228C290.125 198.488 290.901 198.826 291.922 199.243C292.911 199.649 293.771 200.076 294.5 200.524C295.229 200.962 295.792 201.509 296.188 202.165C296.583 202.811 296.781 203.649 296.781 204.681ZM307.703 192.071C309.318 192.071 310.708 192.384 311.875 193.009C313.042 193.623 313.943 194.519 314.578 195.696C315.214 196.873 315.531 198.311 315.531 200.009V202.321H304.266C304.318 203.665 304.719 204.722 305.469 205.493C306.229 206.254 307.281 206.634 308.625 206.634C309.74 206.634 310.76 206.519 311.688 206.29C312.615 206.061 313.568 205.717 314.547 205.259V208.946C313.682 209.373 312.776 209.686 311.828 209.884C310.891 210.082 309.75 210.181 308.406 210.181C306.656 210.181 305.104 209.858 303.75 209.212C302.406 208.566 301.349 207.582 300.578 206.259C299.818 204.936 299.438 203.269 299.438 201.259C299.438 199.217 299.781 197.519 300.469 196.165C301.167 194.8 302.135 193.78 303.375 193.103C304.615 192.415 306.057 192.071 307.703 192.071ZM307.734 195.462C306.807 195.462 306.036 195.759 305.422 196.353C304.818 196.946 304.469 197.879 304.375 199.149H311.062C311.052 198.441 310.922 197.811 310.672 197.259C310.432 196.707 310.068 196.269 309.578 195.946C309.099 195.623 308.484 195.462 307.734 195.462ZM329.328 192.071C331.193 192.071 332.693 192.582 333.828 193.603C334.964 194.613 335.531 196.238 335.531 198.478V209.868H330.766V199.665C330.766 198.415 330.536 197.472 330.078 196.837C329.63 196.201 328.922 195.884 327.953 195.884C326.495 195.884 325.5 196.379 324.969 197.368C324.438 198.358 324.172 199.785 324.172 201.649V209.868H319.406V192.399H323.047L323.688 194.634H323.953C324.328 194.03 324.792 193.54 325.344 193.165C325.906 192.79 326.526 192.514 327.203 192.337C327.891 192.16 328.599 192.071 329.328 192.071ZM344.594 209.868L337.938 192.399H342.922L346.297 202.353C346.484 202.936 346.63 203.55 346.734 204.196C346.849 204.842 346.927 205.42 346.969 205.931H347.094C347.125 205.379 347.198 204.79 347.312 204.165C347.438 203.54 347.599 202.936 347.797 202.353L351.156 192.399H356.141L349.484 209.868H344.594ZM374.531 201.103C374.531 202.561 374.333 203.853 373.938 204.978C373.552 206.103 372.984 207.056 372.234 207.837C371.495 208.608 370.599 209.191 369.547 209.587C368.505 209.983 367.328 210.181 366.016 210.181C364.786 210.181 363.656 209.983 362.625 209.587C361.604 209.191 360.714 208.608 359.953 207.837C359.203 207.056 358.62 206.103 358.203 204.978C357.797 203.853 357.594 202.561 357.594 201.103C357.594 199.165 357.938 197.524 358.625 196.181C359.312 194.837 360.292 193.816 361.562 193.118C362.833 192.42 364.349 192.071 366.109 192.071C367.745 192.071 369.193 192.42 370.453 193.118C371.724 193.816 372.719 194.837 373.438 196.181C374.167 197.524 374.531 199.165 374.531 201.103ZM362.453 201.103C362.453 202.248 362.578 203.212 362.828 203.993C363.078 204.774 363.469 205.363 364 205.759C364.531 206.155 365.224 206.353 366.078 206.353C366.922 206.353 367.604 206.155 368.125 205.759C368.656 205.363 369.042 204.774 369.281 203.993C369.531 203.212 369.656 202.248 369.656 201.103C369.656 199.946 369.531 198.988 369.281 198.228C369.042 197.457 368.656 196.879 368.125 196.493C367.594 196.108 366.901 195.915 366.047 195.915C364.786 195.915 363.87 196.347 363.297 197.212C362.734 198.076 362.453 199.373 362.453 201.103ZM383.234 209.868H378.469V185.556H383.234V209.868ZM392.406 209.868L385.75 192.399H390.734L394.109 202.353C394.297 202.936 394.443 203.55 394.547 204.196C394.661 204.842 394.74 205.42 394.781 205.931H394.906C394.938 205.379 395.01 204.79 395.125 204.165C395.25 203.54 395.411 202.936 395.609 202.353L398.969 192.399H403.953L397.297 209.868H392.406ZM411.234 192.399V209.868H406.469V192.399H411.234ZM408.859 185.556C409.568 185.556 410.177 185.722 410.688 186.056C411.198 186.379 411.453 186.988 411.453 187.884C411.453 188.769 411.198 189.384 410.688 189.728C410.177 190.061 409.568 190.228 408.859 190.228C408.141 190.228 407.526 190.061 407.016 189.728C406.516 189.384 406.266 188.769 406.266 187.884C406.266 186.988 406.516 186.379 407.016 186.056C407.526 185.722 408.141 185.556 408.859 185.556ZM436.766 192.071C438.745 192.071 440.24 192.582 441.25 193.603C442.271 194.613 442.781 196.238 442.781 198.478V209.868H438V199.665C438 198.415 437.786 197.472 437.359 196.837C436.932 196.201 436.271 195.884 435.375 195.884C434.115 195.884 433.219 196.337 432.688 197.243C432.156 198.139 431.891 199.425 431.891 201.103V209.868H427.125V199.665C427.125 198.832 427.031 198.134 426.844 197.571C426.656 197.009 426.37 196.587 425.984 196.306C425.599 196.024 425.104 195.884 424.5 195.884C423.615 195.884 422.917 196.108 422.406 196.556C421.906 196.993 421.547 197.644 421.328 198.509C421.12 199.363 421.016 200.41 421.016 201.649V209.868H416.25V192.399H419.891L420.531 194.634H420.797C421.151 194.03 421.594 193.54 422.125 193.165C422.667 192.79 423.26 192.514 423.906 192.337C424.552 192.16 425.208 192.071 425.875 192.071C427.156 192.071 428.24 192.28 429.125 192.696C430.021 193.113 430.708 193.759 431.188 194.634H431.609C432.13 193.738 432.865 193.087 433.812 192.681C434.771 192.274 435.755 192.071 436.766 192.071ZM454.891 192.071C456.505 192.071 457.896 192.384 459.062 193.009C460.229 193.623 461.13 194.519 461.766 195.696C462.401 196.873 462.719 198.311 462.719 200.009V202.321H451.453C451.505 203.665 451.906 204.722 452.656 205.493C453.417 206.254 454.469 206.634 455.812 206.634C456.927 206.634 457.948 206.519 458.875 206.29C459.802 206.061 460.755 205.717 461.734 205.259V208.946C460.87 209.373 459.964 209.686 459.016 209.884C458.078 210.082 456.938 210.181 455.594 210.181C453.844 210.181 452.292 209.858 450.938 209.212C449.594 208.566 448.536 207.582 447.766 206.259C447.005 204.936 446.625 203.269 446.625 201.259C446.625 199.217 446.969 197.519 447.656 196.165C448.354 194.8 449.323 193.78 450.562 193.103C451.802 192.415 453.245 192.071 454.891 192.071ZM454.922 195.462C453.995 195.462 453.224 195.759 452.609 196.353C452.005 196.946 451.656 197.879 451.562 199.149H458.25C458.24 198.441 458.109 197.811 457.859 197.259C457.62 196.707 457.255 196.269 456.766 195.946C456.286 195.623 455.672 195.462 454.922 195.462ZM476.516 192.071C478.38 192.071 479.88 192.582 481.016 193.603C482.151 194.613 482.719 196.238 482.719 198.478V209.868H477.953V199.665C477.953 198.415 477.724 197.472 477.266 196.837C476.818 196.201 476.109 195.884 475.141 195.884C473.682 195.884 472.688 196.379 472.156 197.368C471.625 198.358 471.359 199.785 471.359 201.649V209.868H466.594V192.399H470.234L470.875 194.634H471.141C471.516 194.03 471.979 193.54 472.531 193.165C473.094 192.79 473.714 192.514 474.391 192.337C475.078 192.16 475.786 192.071 476.516 192.071ZM494.984 206.384C495.505 206.384 496.01 206.332 496.5 206.228C497 206.123 497.495 205.993 497.984 205.837V209.384C497.474 209.613 496.839 209.8 496.078 209.946C495.328 210.103 494.505 210.181 493.609 210.181C492.568 210.181 491.63 210.014 490.797 209.681C489.974 209.337 489.323 208.748 488.844 207.915C488.375 207.071 488.141 205.899 488.141 204.399V195.978H485.859V193.962L488.484 192.368L489.859 188.681H492.906V192.399H497.797V195.978H492.906V204.399C492.906 205.066 493.094 205.566 493.469 205.899C493.854 206.222 494.359 206.384 494.984 206.384ZM517.406 201.103C517.406 202.561 517.208 203.853 516.812 204.978C516.427 206.103 515.859 207.056 515.109 207.837C514.37 208.608 513.474 209.191 512.422 209.587C511.38 209.983 510.203 210.181 508.891 210.181C507.661 210.181 506.531 209.983 505.5 209.587C504.479 209.191 503.589 208.608 502.828 207.837C502.078 207.056 501.495 206.103 501.078 204.978C500.672 203.853 500.469 202.561 500.469 201.103C500.469 199.165 500.812 197.524 501.5 196.181C502.188 194.837 503.167 193.816 504.438 193.118C505.708 192.42 507.224 192.071 508.984 192.071C510.62 192.071 512.068 192.42 513.328 193.118C514.599 193.816 515.594 194.837 516.312 196.181C517.042 197.524 517.406 199.165 517.406 201.103ZM505.328 201.103C505.328 202.248 505.453 203.212 505.703 203.993C505.953 204.774 506.344 205.363 506.875 205.759C507.406 206.155 508.099 206.353 508.953 206.353C509.797 206.353 510.479 206.155 511 205.759C511.531 205.363 511.917 204.774 512.156 203.993C512.406 203.212 512.531 202.248 512.531 201.103C512.531 199.946 512.406 198.988 512.156 198.228C511.917 197.457 511.531 196.879 511 196.493C510.469 196.108 509.776 195.915 508.922 195.915C507.661 195.915 506.745 196.347 506.172 197.212C505.609 198.076 505.328 199.373 505.328 201.103ZM78.0312 250.181C76.0833 250.181 74.4948 249.42 73.2656 247.899C72.0469 246.368 71.4375 244.123 71.4375 241.165C71.4375 238.175 72.0573 235.915 73.2969 234.384C74.5365 232.842 76.1562 232.071 78.1562 232.071C78.9896 232.071 79.724 232.186 80.3594 232.415C80.9948 232.644 81.5417 232.951 82 233.337C82.4688 233.722 82.8646 234.155 83.1875 234.634H83.3438C83.2812 234.3 83.2031 233.811 83.1094 233.165C83.026 232.509 82.9844 231.837 82.9844 231.149V225.556H87.7656V249.868H84.1094L83.1875 247.603H82.9844C82.6823 248.082 82.3021 248.519 81.8438 248.915C81.3958 249.3 80.8594 249.608 80.2344 249.837C79.6094 250.066 78.875 250.181 78.0312 250.181ZM79.7031 246.384C81.0052 246.384 81.9219 245.998 82.4531 245.228C82.9948 244.446 83.2812 243.274 83.3125 241.712V241.196C83.3125 239.498 83.0521 238.201 82.5312 237.306C82.0104 236.399 81.0417 235.946 79.625 235.946C78.5729 235.946 77.75 236.399 77.1562 237.306C76.5625 238.212 76.2656 239.519 76.2656 241.228C76.2656 242.936 76.5625 244.222 77.1562 245.087C77.7604 245.951 78.6094 246.384 79.7031 246.384ZM99.9531 232.071C101.568 232.071 102.958 232.384 104.125 233.009C105.292 233.623 106.193 234.519 106.828 235.696C107.464 236.873 107.781 238.311 107.781 240.009V242.321H96.5156C96.5677 243.665 96.9688 244.722 97.7188 245.493C98.4792 246.254 99.5312 246.634 100.875 246.634C101.99 246.634 103.01 246.519 103.938 246.29C104.865 246.061 105.818 245.717 106.797 245.259V248.946C105.932 249.373 105.026 249.686 104.078 249.884C103.141 250.082 102 250.181 100.656 250.181C98.9062 250.181 97.3542 249.858 96 249.212C94.6562 248.566 93.599 247.582 92.8281 246.259C92.0677 244.936 91.6875 243.269 91.6875 241.259C91.6875 239.217 92.0312 237.519 92.7188 236.165C93.4167 234.8 94.3854 233.78 95.625 233.103C96.8646 232.415 98.3073 232.071 99.9531 232.071ZM99.9844 235.462C99.0573 235.462 98.2865 235.759 97.6719 236.353C97.0677 236.946 96.7188 237.879 96.625 239.149H103.312C103.302 238.441 103.172 237.811 102.922 237.259C102.682 236.707 102.318 236.269 101.828 235.946C101.349 235.623 100.734 235.462 99.9844 235.462ZM133.828 232.134C133.828 233.186 133.609 234.097 133.172 234.868C132.734 235.639 132.141 236.269 131.391 236.759C130.651 237.248 129.818 237.608 128.891 237.837V237.931C130.724 238.16 132.115 238.722 133.062 239.618C134.021 240.514 134.5 241.712 134.5 243.212C134.5 244.545 134.172 245.738 133.516 246.79C132.87 247.842 131.87 248.67 130.516 249.274C129.161 249.879 127.417 250.181 125.281 250.181C124.021 250.181 122.844 250.076 121.75 249.868C120.667 249.67 119.646 249.363 118.688 248.946V244.837C119.667 245.337 120.693 245.717 121.766 245.978C122.839 246.228 123.839 246.353 124.766 246.353C126.495 246.353 127.703 246.056 128.391 245.462C129.089 244.858 129.438 244.014 129.438 242.931C129.438 242.295 129.276 241.759 128.953 241.321C128.63 240.884 128.068 240.55 127.266 240.321C126.474 240.092 125.365 239.978 123.938 239.978H122.203V236.274H123.969C125.375 236.274 126.443 236.144 127.172 235.884C127.911 235.613 128.411 235.248 128.672 234.79C128.943 234.321 129.078 233.79 129.078 233.196C129.078 232.384 128.828 231.748 128.328 231.29C127.828 230.832 126.995 230.603 125.828 230.603C125.099 230.603 124.432 230.696 123.828 230.884C123.234 231.061 122.698 231.28 122.219 231.54C121.74 231.79 121.318 232.035 120.953 232.274L118.719 228.946C119.615 228.3 120.661 227.764 121.859 227.337C123.068 226.91 124.505 226.696 126.172 226.696C128.526 226.696 130.391 227.17 131.766 228.118C133.141 229.066 133.828 230.405 133.828 232.134ZM153.75 232.04C156.094 232.04 157.891 232.55 159.141 233.571C160.391 234.592 161.016 236.144 161.016 238.228V249.868H157.688L156.766 247.493H156.641C156.141 248.118 155.63 248.629 155.109 249.024C154.589 249.42 153.99 249.712 153.312 249.899C152.635 250.087 151.812 250.181 150.844 250.181C149.812 250.181 148.885 249.983 148.062 249.587C147.25 249.191 146.609 248.587 146.141 247.774C145.672 246.951 145.438 245.91 145.438 244.649C145.438 242.795 146.089 241.431 147.391 240.556C148.693 239.67 150.646 239.181 153.25 239.087L156.281 238.993V238.228C156.281 237.311 156.042 236.639 155.562 236.212C155.083 235.785 154.417 235.571 153.562 235.571C152.719 235.571 151.891 235.691 151.078 235.931C150.266 236.17 149.453 236.472 148.641 236.837L147.062 233.618C147.99 233.129 149.026 232.743 150.172 232.462C151.328 232.181 152.521 232.04 153.75 232.04ZM156.281 241.774L154.438 241.837C152.896 241.879 151.823 242.155 151.219 242.665C150.625 243.175 150.328 243.847 150.328 244.681C150.328 245.41 150.542 245.931 150.969 246.243C151.396 246.545 151.953 246.696 152.641 246.696C153.661 246.696 154.521 246.394 155.219 245.79C155.927 245.186 156.281 244.326 156.281 243.212V241.774ZM175.859 232.071C177.724 232.071 179.224 232.582 180.359 233.603C181.495 234.613 182.062 236.238 182.062 238.478V249.868H177.297V239.665C177.297 238.415 177.068 237.472 176.609 236.837C176.161 236.201 175.453 235.884 174.484 235.884C173.026 235.884 172.031 236.379 171.5 237.368C170.969 238.358 170.703 239.785 170.703 241.649V249.868H165.938V232.399H169.578L170.219 234.634H170.484C170.859 234.03 171.323 233.54 171.875 233.165C172.438 232.79 173.057 232.514 173.734 232.337C174.422 232.16 175.13 232.071 175.859 232.071ZM202.844 241.103C202.844 242.561 202.646 243.853 202.25 244.978C201.865 246.103 201.297 247.056 200.547 247.837C199.807 248.608 198.911 249.191 197.859 249.587C196.818 249.983 195.641 250.181 194.328 250.181C193.099 250.181 191.969 249.983 190.938 249.587C189.917 249.191 189.026 248.608 188.266 247.837C187.516 247.056 186.932 246.103 186.516 244.978C186.109 243.853 185.906 242.561 185.906 241.103C185.906 239.165 186.25 237.524 186.938 236.181C187.625 234.837 188.604 233.816 189.875 233.118C191.146 232.42 192.661 232.071 194.422 232.071C196.057 232.071 197.505 232.42 198.766 233.118C200.036 233.816 201.031 234.837 201.75 236.181C202.479 237.524 202.844 239.165 202.844 241.103ZM190.766 241.103C190.766 242.248 190.891 243.212 191.141 243.993C191.391 244.774 191.781 245.363 192.312 245.759C192.844 246.155 193.536 246.353 194.391 246.353C195.234 246.353 195.917 246.155 196.438 245.759C196.969 245.363 197.354 244.774 197.594 243.993C197.844 243.212 197.969 242.248 197.969 241.103C197.969 239.946 197.844 238.988 197.594 238.228C197.354 237.457 196.969 236.879 196.438 236.493C195.906 236.108 195.214 235.915 194.359 235.915C193.099 235.915 192.182 236.347 191.609 237.212C191.047 238.076 190.766 239.373 190.766 241.103ZM218.969 244.681C218.969 245.868 218.688 246.873 218.125 247.696C217.573 248.509 216.745 249.129 215.641 249.556C214.536 249.972 213.161 250.181 211.516 250.181C210.297 250.181 209.25 250.103 208.375 249.946C207.51 249.79 206.635 249.53 205.75 249.165V245.228C206.698 245.655 207.714 246.009 208.797 246.29C209.891 246.561 210.849 246.696 211.672 246.696C212.599 246.696 213.26 246.561 213.656 246.29C214.062 246.009 214.266 245.644 214.266 245.196C214.266 244.905 214.182 244.644 214.016 244.415C213.859 244.175 213.516 243.91 212.984 243.618C212.453 243.316 211.62 242.925 210.484 242.446C209.391 241.988 208.49 241.524 207.781 241.056C207.083 240.587 206.562 240.035 206.219 239.399C205.885 238.754 205.719 237.936 205.719 236.946C205.719 235.332 206.344 234.118 207.594 233.306C208.854 232.483 210.536 232.071 212.641 232.071C213.724 232.071 214.755 232.181 215.734 232.399C216.724 232.618 217.74 232.967 218.781 233.446L217.344 236.884C216.479 236.509 215.661 236.201 214.891 235.962C214.13 235.722 213.354 235.603 212.562 235.603C211.865 235.603 211.339 235.696 210.984 235.884C210.63 236.071 210.453 236.358 210.453 236.743C210.453 237.024 210.542 237.274 210.719 237.493C210.906 237.712 211.26 237.957 211.781 238.228C212.312 238.488 213.089 238.826 214.109 239.243C215.099 239.649 215.958 240.076 216.688 240.524C217.417 240.962 217.979 241.509 218.375 242.165C218.771 242.811 218.969 243.649 218.969 244.681ZM238.156 232.04C240.5 232.04 242.297 232.55 243.547 233.571C244.797 234.592 245.422 236.144 245.422 238.228V249.868H242.094L241.172 247.493H241.047C240.547 248.118 240.036 248.629 239.516 249.024C238.995 249.42 238.396 249.712 237.719 249.899C237.042 250.087 236.219 250.181 235.25 250.181C234.219 250.181 233.292 249.983 232.469 249.587C231.656 249.191 231.016 248.587 230.547 247.774C230.078 246.951 229.844 245.91 229.844 244.649C229.844 242.795 230.495 241.431 231.797 240.556C233.099 239.67 235.052 239.181 237.656 239.087L240.688 238.993V238.228C240.688 237.311 240.448 236.639 239.969 236.212C239.49 235.785 238.823 235.571 237.969 235.571C237.125 235.571 236.297 235.691 235.484 235.931C234.672 236.17 233.859 236.472 233.047 236.837L231.469 233.618C232.396 233.129 233.432 232.743 234.578 232.462C235.734 232.181 236.927 232.04 238.156 232.04ZM240.688 241.774L238.844 241.837C237.302 241.879 236.229 242.155 235.625 242.665C235.031 243.175 234.734 243.847 234.734 244.681C234.734 245.41 234.948 245.931 235.375 246.243C235.802 246.545 236.359 246.696 237.047 246.696C238.068 246.696 238.927 246.394 239.625 245.79C240.333 245.186 240.688 244.326 240.688 243.212V241.774ZM265.75 235.274C267.146 235.274 268.385 235.54 269.469 236.071C270.562 236.603 271.422 237.384 272.047 238.415C272.672 239.446 272.984 240.717 272.984 242.228C272.984 243.873 272.641 245.295 271.953 246.493C271.276 247.681 270.26 248.592 268.906 249.228C267.562 249.863 265.885 250.181 263.875 250.181C262.677 250.181 261.547 250.076 260.484 249.868C259.432 249.67 258.51 249.363 257.719 248.946V244.774C258.51 245.191 259.458 245.545 260.562 245.837C261.677 246.118 262.724 246.259 263.703 246.259C264.661 246.259 265.469 246.134 266.125 245.884C266.781 245.623 267.276 245.228 267.609 244.696C267.953 244.155 268.125 243.467 268.125 242.634C268.125 241.519 267.75 240.665 267 240.071C266.25 239.478 265.099 239.181 263.547 239.181C262.953 239.181 262.333 239.238 261.688 239.353C261.052 239.467 260.521 239.582 260.094 239.696L258.172 238.665L259.031 227.024H271.422V231.118H263.266L262.844 235.603C263.198 235.53 263.583 235.457 264 235.384C264.417 235.311 265 235.274 265.75 235.274ZM292.438 232.04C294.781 232.04 296.578 232.55 297.828 233.571C299.078 234.592 299.703 236.144 299.703 238.228V249.868H296.375L295.453 247.493H295.328C294.828 248.118 294.318 248.629 293.797 249.024C293.276 249.42 292.677 249.712 292 249.899C291.323 250.087 290.5 250.181 289.531 250.181C288.5 250.181 287.573 249.983 286.75 249.587C285.938 249.191 285.297 248.587 284.828 247.774C284.359 246.951 284.125 245.91 284.125 244.649C284.125 242.795 284.776 241.431 286.078 240.556C287.38 239.67 289.333 239.181 291.938 239.087L294.969 238.993V238.228C294.969 237.311 294.729 236.639 294.25 236.212C293.771 235.785 293.104 235.571 292.25 235.571C291.406 235.571 290.578 235.691 289.766 235.931C288.953 236.17 288.141 236.472 287.328 236.837L285.75 233.618C286.677 233.129 287.714 232.743 288.859 232.462C290.016 232.181 291.208 232.04 292.438 232.04ZM294.969 241.774L293.125 241.837C291.583 241.879 290.51 242.155 289.906 242.665C289.312 243.175 289.016 243.847 289.016 244.681C289.016 245.41 289.229 245.931 289.656 246.243C290.083 246.545 290.641 246.696 291.328 246.696C292.349 246.696 293.208 246.394 293.906 245.79C294.615 245.186 294.969 244.326 294.969 243.212V241.774ZM314.547 232.071C316.411 232.071 317.911 232.582 319.047 233.603C320.182 234.613 320.75 236.238 320.75 238.478V249.868H315.984V239.665C315.984 238.415 315.755 237.472 315.297 236.837C314.849 236.201 314.141 235.884 313.172 235.884C311.714 235.884 310.719 236.379 310.188 237.368C309.656 238.358 309.391 239.785 309.391 241.649V249.868H304.625V232.399H308.266L308.906 234.634H309.172C309.547 234.03 310.01 233.54 310.562 233.165C311.125 232.79 311.745 232.514 312.422 232.337C313.109 232.16 313.818 232.071 314.547 232.071ZM341.531 241.103C341.531 242.561 341.333 243.853 340.938 244.978C340.552 246.103 339.984 247.056 339.234 247.837C338.495 248.608 337.599 249.191 336.547 249.587C335.505 249.983 334.328 250.181 333.016 250.181C331.786 250.181 330.656 249.983 329.625 249.587C328.604 249.191 327.714 248.608 326.953 247.837C326.203 247.056 325.62 246.103 325.203 244.978C324.797 243.853 324.594 242.561 324.594 241.103C324.594 239.165 324.938 237.524 325.625 236.181C326.312 234.837 327.292 233.816 328.562 233.118C329.833 232.42 331.349 232.071 333.109 232.071C334.745 232.071 336.193 232.42 337.453 233.118C338.724 233.816 339.719 234.837 340.438 236.181C341.167 237.524 341.531 239.165 341.531 241.103ZM329.453 241.103C329.453 242.248 329.578 243.212 329.828 243.993C330.078 244.774 330.469 245.363 331 245.759C331.531 246.155 332.224 246.353 333.078 246.353C333.922 246.353 334.604 246.155 335.125 245.759C335.656 245.363 336.042 244.774 336.281 243.993C336.531 243.212 336.656 242.248 336.656 241.103C336.656 239.946 336.531 238.988 336.281 238.228C336.042 237.457 335.656 236.879 335.125 236.493C334.594 236.108 333.901 235.915 333.047 235.915C331.786 235.915 330.87 236.347 330.297 237.212C329.734 238.076 329.453 239.373 329.453 241.103ZM357.656 244.681C357.656 245.868 357.375 246.873 356.812 247.696C356.26 248.509 355.432 249.129 354.328 249.556C353.224 249.972 351.849 250.181 350.203 250.181C348.984 250.181 347.938 250.103 347.062 249.946C346.198 249.79 345.323 249.53 344.438 249.165V245.228C345.385 245.655 346.401 246.009 347.484 246.29C348.578 246.561 349.536 246.696 350.359 246.696C351.286 246.696 351.948 246.561 352.344 246.29C352.75 246.009 352.953 245.644 352.953 245.196C352.953 244.905 352.87 244.644 352.703 244.415C352.547 244.175 352.203 243.91 351.672 243.618C351.141 243.316 350.307 242.925 349.172 242.446C348.078 241.988 347.177 241.524 346.469 241.056C345.771 240.587 345.25 240.035 344.906 239.399C344.573 238.754 344.406 237.936 344.406 236.946C344.406 235.332 345.031 234.118 346.281 233.306C347.542 232.483 349.224 232.071 351.328 232.071C352.411 232.071 353.443 232.181 354.422 232.399C355.411 232.618 356.427 232.967 357.469 233.446L356.031 236.884C355.167 236.509 354.349 236.201 353.578 235.962C352.818 235.722 352.042 235.603 351.25 235.603C350.552 235.603 350.026 235.696 349.672 235.884C349.318 236.071 349.141 236.358 349.141 236.743C349.141 237.024 349.229 237.274 349.406 237.493C349.594 237.712 349.948 237.957 350.469 238.228C351 238.488 351.776 238.826 352.797 239.243C353.786 239.649 354.646 240.076 355.375 240.524C356.104 240.962 356.667 241.509 357.062 242.165C357.458 242.811 357.656 243.649 357.656 244.681Z" fill="white"/>
<g filter="url(#filter0_d_492_3047)">
<path fill-rule="evenodd" clip-rule="evenodd" d="M659.26 272.56H648.201C632.757 269.936 621 256.544 621 240.419C621 222.411 635.663 207.812 653.75 207.812C661.641 207.812 668.879 210.592 674.533 215.22C680.442 209.438 688.541 205.868 697.481 205.868C705.759 205.868 713.313 208.933 719.079 213.976C723.914 211.174 729.529 209.561 735.526 209.561C741.891 209.561 747.826 211.375 752.853 214.502C758.689 209.144 766.481 205.868 775.045 205.868C786.818 205.868 797.135 212.056 802.907 221.341C808.861 215.216 817.199 211.403 826.436 211.403C844.523 211.403 859.185 226.001 859.185 244.01C859.185 256.301 852.355 267.003 842.268 272.56H662.042C662.23 272.306 662.421 272.055 662.616 271.807C661.519 272.113 660.399 272.366 659.26 272.56Z" fill="#DCF4F2"/>
</g>
<path fill-rule="evenodd" clip-rule="evenodd" d="M660.128 217.529L649.073 217.249C633.567 219.483 621.476 232.573 621.069 248.693C620.614 266.696 634.903 281.66 652.984 282.117C660.872 282.316 668.178 279.72 673.947 275.237C679.709 281.165 687.715 284.939 696.652 285.165C704.927 285.374 712.557 282.501 718.449 277.606C723.211 280.529 728.784 282.282 734.779 282.434C741.141 282.595 747.121 280.932 752.225 277.932C757.923 283.436 765.631 286.908 774.192 287.124C785.961 287.421 796.431 281.496 802.436 272.36C808.233 278.633 816.472 282.656 825.706 282.889C843.787 283.346 858.814 269.123 859.269 251.12C859.579 238.833 853.021 227.961 843.078 222.151L662.909 217.599C663.091 217.858 663.276 218.114 663.464 218.367C662.375 218.032 661.262 217.752 660.128 217.529Z" fill="#DCF4F2"/>
<path d="M985 107.366C932.5 79.3665 860.5 99.3665 834 158.866C764.5 101.367 659 130.367 636.5 191.867C618 141.367 510.5 143.366 492 185.866C471.5 139.866 403 146.366 381.5 181.366C358.5 149.366 311 151.366 290 188.366C267.5 145.866 215.5 166.366 210 181.366C185 159.366 154.5 175.866 146 188.366C133.5 170.866 102 177.866 95 183.366" stroke="#FFCCD7" stroke-width="6" stroke-linecap="round" stroke-linejoin="round" stroke-dasharray="1 15"/>
<g filter="url(#filter1_d_492_3047)">
<path d="M1131.28 219.75C1128.2 219.75 1125.24 220.181 1122.42 220.969C1126.76 215.438 1129.36 208.48 1129.36 200.914C1129.36 182.917 1114.71 168.327 1096.63 168.327C1088.22 168.327 1080.55 171.491 1074.75 176.687C1074.86 175.624 1074.91 174.547 1074.91 173.456C1074.91 155.458 1060.26 140.868 1042.19 140.868C1024.12 140.868 1009.46 155.458 1009.46 173.456C1009.46 174.591 1009.52 175.713 1009.64 176.818C1004.44 173.348 998.18 171.321 991.448 171.321C973.375 171.321 958.724 185.911 958.724 203.909C958.724 208.282 959.595 212.451 961.164 216.261C960.358 216.202 959.546 216.162 958.724 216.162C940.651 216.162 926 230.752 926 248.749C926 266.747 940.651 281.337 958.724 281.337C967.954 281.337 976.285 277.526 982.234 271.405C988.002 280.684 998.311 286.868 1010.07 286.868C1018.63 286.868 1026.42 283.594 1032.25 278.24C1037.27 281.365 1043.2 283.177 1049.56 283.177C1055.56 283.177 1061.17 281.566 1066 278.766C1071.76 283.806 1079.31 286.868 1087.58 286.868C1096.51 286.868 1104.6 283.3 1110.51 277.522C1116.16 282.148 1123.39 284.925 1131.28 284.925C1149.35 284.925 1164 270.335 1164 252.338C1164 234.34 1149.35 219.75 1131.28 219.75Z" fill="#DCF4F2"/>
</g>
<path d="M696.101 267.028C693.859 265.791 691.321 265.014 688.762 264.78C688.673 264.772 688.596 264.834 688.591 264.919C688.586 264.991 688.635 265.056 688.704 265.079C688.716 265.083 688.729 265.086 688.743 265.087C691.255 265.317 693.746 266.081 695.946 267.294C696.025 267.337 696.123 267.313 696.166 267.239C696.208 267.166 696.179 267.071 696.101 267.028Z" fill="black"/>
<path d="M695.661 264.843L695.661 264.843C695.742 264.87 695.829 264.833 695.86 264.758C695.893 264.68 695.851 264.589 695.768 264.556L692.978 263.435C692.894 263.401 692.8 263.438 692.768 263.516C692.736 263.595 692.777 263.685 692.861 263.719L695.651 264.84C695.654 264.841 695.658 264.842 695.661 264.843Z" fill="black"/>
<path d="M777.12 262.017C779.361 260.781 781.899 260.004 784.458 259.77C784.548 259.761 784.625 259.824 784.63 259.908C784.635 259.981 784.586 260.046 784.516 260.069C784.504 260.073 784.491 260.076 784.478 260.077C781.965 260.307 779.475 261.07 777.275 262.283C777.196 262.327 777.098 262.303 777.055 262.229C777.012 262.156 777.041 262.061 777.12 262.017Z" fill="black"/>
<path d="M777.559 259.833L777.559 259.833C777.479 259.86 777.391 259.823 777.36 259.748C777.328 259.67 777.369 259.579 777.453 259.545L780.243 258.425C780.326 258.39 780.42 258.428 780.453 258.506C780.485 258.584 780.443 258.675 780.36 258.709L777.57 259.829C777.566 259.831 777.563 259.832 777.559 259.833Z" fill="black"/>
<path d="M709.905 133.402C705.841 137.37 702.774 142.224 699.747 147.03C699.198 146.261 697.7 146.801 697.768 147.743C695.236 144.945 692.705 142.148 690.174 139.35C689.49 138.594 688.792 137.816 688.424 136.866C688.017 135.819 688.007 134.568 687.243 133.745C686.186 132.608 684.327 132.917 682.87 133.456C679.247 134.796 674.877 136.889 673.479 140.794C673.14 141.742 673.191 142.898 673.868 143.644C674.274 144.091 674.884 144.381 675.109 144.941C675.216 145.208 675.219 145.502 675.249 145.787C675.346 146.725 675.733 147.605 676.115 148.466C676.458 149.24 676.801 150.013 677.144 150.786C679.77 156.713 683.423 162.992 688.62 167.027C693.728 170.992 700.438 171.264 706.17 168.442C710.812 166.157 714.927 162.931 718.793 159.494C721.559 157.035 724.248 154.417 726.171 151.255C728.565 147.318 728.795 143.168 728.863 138.713C728.914 135.362 728.703 131.994 728.192 128.681C727.665 125.269 727.755 124.63 724.64 125.293C719.287 126.433 713.796 129.603 709.905 133.402Z" fill="white"/>
<path d="M709.905 133.402C705.841 137.37 702.774 142.224 699.747 147.03C699.198 146.261 697.7 146.801 697.768 147.743C695.236 144.945 692.705 142.148 690.174 139.35C689.49 138.594 688.792 137.816 688.424 136.866C688.017 135.819 688.007 134.568 687.243 133.745C686.186 132.608 684.327 132.917 682.87 133.456C679.247 134.796 674.877 136.889 673.479 140.794C673.14 141.742 673.191 142.898 673.868 143.644C674.274 144.091 674.884 144.381 675.109 144.941C675.216 145.208 675.219 145.502 675.249 145.787C675.346 146.725 675.733 147.605 676.115 148.466C676.458 149.24 676.801 150.013 677.144 150.786C679.77 156.713 683.423 162.992 688.62 167.027C693.728 170.992 700.438 171.264 706.17 168.442C710.812 166.157 714.927 162.931 718.793 159.494C721.559 157.035 724.248 154.417 726.171 151.255C728.565 147.318 728.795 143.168 728.863 138.713C728.914 135.362 728.703 131.994 728.192 128.681C727.665 125.269 727.755 124.63 724.64 125.293C719.287 126.433 713.796 129.603 709.905 133.402Z" fill="white" stroke="black" stroke-width="0.4" stroke-miterlimit="10"/>
<path d="M697.087 147.082C699.22 149.14 700.815 151.751 701.673 154.588" stroke="black" stroke-width="0.4" stroke-linecap="round" stroke-linejoin="round"/>
<path d="M701.079 147.452C703.153 148.448 704.774 150.345 705.435 152.549" stroke="black" stroke-width="0.4" stroke-linecap="round" stroke-linejoin="round"/>
<path d="M662.221 125.929C662.079 125.213 662.192 124.407 662.693 123.877C662.387 123.129 662.078 122.367 662.011 121.562C661.945 120.757 662.159 119.888 662.757 119.346C662.885 119.23 663.031 119.126 663.104 118.971C663.167 118.838 663.167 118.684 663.198 118.541C663.311 118.022 663.836 117.672 664.363 117.605C664.891 117.538 665.419 117.695 665.92 117.872C666.505 116.395 668.97 118.031 669.519 118.723C670.202 119.584 670.592 120.635 671.123 121.598C671.456 122.203 671.904 122.975 672.435 123.432C673.111 124.013 675.691 125.706 675.691 123.437C675.691 122.748 675.217 122.167 674.825 121.602C674.432 121.037 674.092 120.31 674.377 119.683C674.648 119.089 675.409 118.847 676.05 118.976C676.69 119.106 677.232 119.52 677.73 119.943C681.17 122.867 683.136 126.146 684.202 130.446C684.468 131.518 684.748 132.621 685.405 133.509C685.634 133.818 685.92 134.134 685.915 134.519C685.912 134.72 685.828 134.91 685.741 135.091C684.22 138.236 681.165 140.594 677.737 141.268C677.452 141.324 677.157 141.369 676.872 141.312C676.507 141.238 676.198 141.006 675.897 140.787C673.31 138.909 670.472 137.893 668.261 135.485C666.947 134.054 665.758 132.625 664.792 130.918C663.649 128.897 664.23 129.948 663.087 127.927C662.728 127.293 662.364 126.644 662.221 125.929Z" fill="#FFDBCA" stroke="black" stroke-width="0.4" stroke-miterlimit="10"/>
<path d="M662.834 123.865C663.933 124.226 664.572 125.338 665.128 126.353C666.318 128.525 665.876 127.597 667.51 129.459" stroke="black" stroke-width="0.4" stroke-linecap="round" stroke-linejoin="round"/>
<path d="M663.434 118.921C665.029 119.786 665.898 121.53 666.745 123.135C668.043 125.59 667.789 124.885 669.416 127.135" stroke="black" stroke-width="0.4" stroke-linecap="round" stroke-linejoin="round"/>
<path d="M666.262 118.11C667.342 118.986 667.945 120.302 668.591 121.532C669.794 123.821 669.542 122.898 671.242 124.847" stroke="black" stroke-width="0.4" stroke-linecap="round" stroke-linejoin="round"/>
<path d="M778.168 271.712C777.315 267.863 769.961 266.21 767.316 264.241C765.135 262.617 763.074 261.294 762.034 258.633C761.154 256.382 761.011 253.92 760.919 251.506C760.888 250.671 760.889 249.288 760.916 247.521H748.146C748.502 250.04 748.87 252.747 749.24 255.729C749.682 259.29 748.111 270.728 748.155 271.664C748.325 275.244 755.29 274.685 757.655 274.956C763.363 275.611 769.553 278.27 775.199 275.932C776.759 275.286 778.325 273.978 778.245 272.291C778.236 272.093 778.21 271.9 778.168 271.712Z" fill="#EFDCCE" stroke="black" stroke-width="0.4" stroke-miterlimit="10"/>
<path d="M696.669 272.943C697.522 269.093 704.877 267.441 707.522 265.471C709.702 263.848 711.764 262.525 712.804 259.863C713.683 257.612 713.826 255.151 713.918 252.736C713.95 251.902 713.948 250.518 713.922 248.752H726.691C726.335 251.27 725.967 253.978 725.597 256.959C725.155 260.521 726.727 271.958 726.682 272.895C726.513 276.475 719.547 275.915 717.182 276.187C711.474 276.842 705.284 279.501 699.638 277.162C698.078 276.516 696.512 275.208 696.592 273.522C696.601 273.323 696.628 273.13 696.669 272.943Z" fill="#EFDCCE" stroke="black" stroke-width="0.4" stroke-miterlimit="10"/>
<path d="M766.221 259.087C762.182 262.944 756.076 264.552 750.62 264.681C748.564 264.729 744.709 264.915 742.932 263.658C738.782 260.719 743.373 260.587 742.976 257.228C742.891 256.517 742.307 255.988 741.908 255.393C740.05 252.616 741.935 247.764 741.867 244.611C741.755 239.36 740.745 232.257 739.791 227.095C739.613 226.134 739.817 222.574 738.921 222.166C736.438 228.167 734.31 239.724 732.113 245.994C731.794 246.903 731.475 247.902 731.802 248.807C732.072 249.554 732.754 250.131 732.884 250.914C733.135 252.424 731.34 253.372 729.878 253.822C731.883 256.995 729.821 261.499 726.513 263.272C723.204 265.045 719.192 264.763 715.501 264.079C713.275 263.667 710.939 263.052 709.385 261.405C707.832 259.759 707.51 256.771 709.291 255.374C707.531 254.956 707.643 252.444 708.05 250.682C710.334 240.801 709.837 228.044 710.391 217.938C710.991 207.001 711.591 196.063 712.191 185.126C712.369 181.868 742.502 180.361 746.112 180.319C753.01 180.238 769.276 178.213 771.492 186.817C772.456 190.561 770.918 196.143 770.589 199.941C770.042 206.252 769.437 212.558 768.776 218.857C768.234 224.018 767.834 229.192 767.218 234.369C766.967 236.48 766.619 240.575 766.954 242.694C767.209 244.303 768.815 246.087 768.679 247.697C768.561 249.092 766.86 249.831 766.779 250.723C766.539 253.34 769.689 254.805 767.07 258.153C766.808 258.487 766.524 258.797 766.221 259.087Z" fill="#009CA4" stroke="black" stroke-width="0.4" stroke-miterlimit="10"/>
<path d="M739.187 221.991C733.857 219.688 728.305 217.899 722.633 216.659" stroke="black" stroke-width="0.4" stroke-linecap="round" stroke-linejoin="round"/>
<path d="M736.91 222.094C730.887 222.844 724.863 223.594 718.84 224.344" stroke="black" stroke-width="0.4" stroke-linecap="round" stroke-linejoin="round"/>
<path d="M764.577 253.701C759.512 257.163 752.821 258.127 746.985 256.233" stroke="black" stroke-width="0.4" stroke-linecap="round" stroke-linejoin="round"/>
<path d="M761.226 249.607C756.066 250.487 750.689 250.059 745.733 248.375" stroke="black" stroke-width="0.4" stroke-linecap="round" stroke-linejoin="round"/>
<path d="M727.656 254.738C723.482 256.347 718.73 256.403 714.519 254.894" stroke="black" stroke-width="0.4" stroke-linecap="round" stroke-linejoin="round"/>
<path d="M767.513 145.499C767.707 147.123 767.857 148.741 768.007 150.323C768.654 157.155 769.428 163.976 770.328 170.78C771.047 176.213 770.929 182.309 773.097 187.401C773.846 189.16 774.867 190.887 774.913 192.799C774.977 195.518 772.578 196.717 770.463 197.569C770.16 195.073 769.653 192.667 768.552 190.382C768.705 193.115 768.758 196.158 766.95 198.213C766.44 198.792 765.811 199.252 765.187 199.706C757.633 205.211 749.7 213.516 740.386 215.766C735.224 217.013 729.59 216.175 725.015 213.48C718.334 209.545 710.162 200.965 710.513 192.941C710.979 182.279 711.445 171.617 711.911 160.956C712.299 152.103 711.188 141.193 714.751 132.911C716.845 128.044 722.239 126.002 727.083 124.999C731.841 124.014 736.717 123.598 741.574 123.764C747.018 123.95 757.322 124.498 761.046 128.473C765.421 133.142 766.782 139.366 767.513 145.499Z" fill="white"/>
<path d="M769.785 166.551C769.961 167.962 770.142 169.371 770.328 170.78C771.047 176.213 770.929 182.31 773.097 187.401C773.846 189.16 774.867 190.887 774.913 192.799C774.977 195.518 772.578 196.717 770.463 197.57C770.16 195.073 769.653 192.667 768.552 190.382C768.705 193.115 768.758 196.158 766.95 198.213C766.44 198.792 765.811 199.252 765.187 199.706C757.633 205.211 749.7 213.516 740.386 215.766C735.224 217.013 729.59 216.175 725.015 213.48C718.334 209.545 710.162 200.965 710.513 192.941C710.925 183.519 711.337 174.097 711.749 164.676" stroke="black" stroke-width="0.4" stroke-miterlimit="10"/>
<path d="M711.772 164.677C711.726 159.399 711.68 154.121 711.635 148.843" stroke="black" stroke-width="0.4" stroke-linecap="round" stroke-linejoin="round"/>
<path d="M762.004 183.576C757.578 191.169 752.962 198.98 745.894 204.205C738.827 209.43 728.595 211.426 721.256 206.59" stroke="black" stroke-width="0.4" stroke-linecap="round" stroke-linejoin="round"/>
<path d="M750.039 195.606C744.944 201.176 736.111 202.913 729.286 199.689" stroke="black" stroke-width="0.4" stroke-linecap="round" stroke-linejoin="round"/>
<path d="M723.589 148.177C722.78 148.652 720.636 157.25 720.636 157.25L716.187 158.178C716.187 158.178 718.196 168.853 731.789 169.601C745.382 170.348 749.379 158.19 749.379 158.19L744.198 157.513C744.198 157.513 744.316 148.78 742.9 148.66C741.484 148.54 738.714 152.474 738.714 152.474L727.486 152.496C727.486 152.496 724.399 147.701 723.589 148.177Z" fill="#BACC6E"/>
<path d="M783.311 150.791C783.642 151.176 783.99 151.546 784.36 151.896C785.357 152.839 786.495 153.623 787.501 154.556C790.686 157.507 792.142 161.292 796.204 163.174C796.938 163.513 797.767 163.761 798.271 164.393C798.56 164.754 798.71 165.208 798.983 165.582C799.865 166.793 801.981 166.24 802.968 167.566C803.329 168.052 803.471 168.668 803.521 169.271C803.693 171.348 802.875 173.413 801.649 175.098C800.422 176.783 798.806 178.14 797.181 179.445C795.55 180.755 793.773 182.079 791.693 182.297C791.063 182.363 790.394 182.314 789.852 181.986C789.416 181.722 789.101 181.303 788.772 180.913C785.604 177.158 780.115 174.899 776.183 171.955C771.729 168.619 768.52 165.64 765.253 161.119C761.799 156.339 758.579 151.025 756.364 145.555C755.063 142.344 754.297 138.901 754.037 135.45C753.969 134.536 752.012 124.762 752.927 124.884C759.986 125.827 764.91 126.656 770.011 131.789C774.066 135.87 777.181 141.011 779.983 145.808C780.991 147.534 782.015 149.28 783.311 150.791Z" fill="white"/>
<path d="M749.596 124.294C756.655 125.238 764.91 126.656 770.011 131.789C774.066 135.87 777.181 141.011 779.983 145.808C780.991 147.534 782.015 149.28 783.311 150.791C783.642 151.176 783.99 151.546 784.36 151.896C785.357 152.839 786.495 153.623 787.501 154.556C790.686 157.507 792.142 161.292 796.204 163.174C796.938 163.514 797.767 163.761 798.271 164.393C798.56 164.754 798.71 165.209 798.983 165.583C799.865 166.793 801.981 166.24 802.968 167.566C803.329 168.052 803.471 168.668 803.521 169.271C803.693 171.348 802.875 173.413 801.649 175.098C800.422 176.783 798.806 178.14 797.181 179.445C795.55 180.755 793.773 182.08 791.693 182.297C791.063 182.363 790.394 182.314 789.852 181.986C789.416 181.722 789.101 181.303 788.772 180.913C785.604 177.158 780.115 174.9 776.183 171.955C773.761 170.141 771.708 168.433 769.812 166.525" stroke="black" stroke-width="0.4" stroke-miterlimit="10"/>
<path d="M813.63 174.923C815.331 176.37 814.928 176.376 816.629 177.824C817.164 178.278 817.708 178.744 818.074 179.343C818.44 179.942 818.603 180.708 818.327 181.353C818.851 181.927 819.383 182.514 819.709 183.219C820.036 183.925 820.13 184.781 819.769 185.469C819.692 185.616 819.594 185.758 819.58 185.923C819.567 186.064 819.618 186.202 819.637 186.342C819.707 186.849 819.348 187.338 818.894 187.574C818.44 187.809 817.911 187.841 817.399 187.848C817.388 188.273 816.988 188.597 816.577 188.708C816.018 188.858 815.414 188.723 814.899 188.459C814.383 188.195 813.942 187.811 813.506 187.43C812.658 186.691 811.728 185.505 810.979 185.044C809.43 184.09 807.873 183.025 805.956 183.358C805.275 183.476 804.515 183.883 804.469 184.573C804.419 185.331 805.226 185.816 805.885 186.194C806.81 186.724 807.656 187.391 808.387 188.166C808.89 188.699 809.364 189.451 809.064 190.118C808.714 190.896 807.633 190.927 806.791 190.793C805.176 190.536 803.089 190.245 801.715 189.348C800.135 188.316 798.694 186.891 797.367 185.558C795.182 183.364 793.797 180.522 792.193 177.9C793.068 174.486 795.669 171.561 798.958 170.294C799.132 170.227 799.315 170.163 799.5 170.185C799.695 170.208 799.865 170.324 800.027 170.436C804.103 173.259 809.671 171.555 813.63 174.923Z" fill="#FFDBCA" stroke="black" stroke-width="0.4" stroke-miterlimit="10"/>
<path d="M817.216 187.637C815.139 184.885 814.79 183.859 812.048 181.767" stroke="black" stroke-width="0.4" stroke-linecap="round" stroke-linejoin="round"/>
<path d="M819.331 185.629C816.835 182.738 816.085 181.599 812.957 179.407" stroke="black" stroke-width="0.4" stroke-linecap="round" stroke-linejoin="round"/>
<path d="M817.874 181.208C815.808 179.088 815.669 178.583 813.277 176.839" stroke="black" stroke-width="0.4" stroke-linecap="round" stroke-linejoin="round"/>
<path d="M770.097 166.551C765.797 161.737 761.497 156.923 757.197 152.108" stroke="black" stroke-width="0.4" stroke-linecap="round" stroke-linejoin="round"/>
<path d="M720.625 47.0014C718.664 46.2847 717.176 44.4154 716.916 42.3442C721.751 45.2252 727.771 45.0152 733.367 44.4184C738.964 43.8214 744.77 42.9468 750.105 44.7403C752.953 45.6976 755.579 47.7224 757.199 50.2253C760.522 49.738 763.676 52.3836 765.799 55.1126C768.054 58.0115 770.183 61.438 773.693 62.5191C771.703 64.0183 768.942 64.4283 766.602 63.5715C777.15 72.2168 779.307 89.3922 771.224 100.377C768.593 103.952 765.037 106.951 763.379 111.068C762.564 113.091 763.353 116.441 765.464 115.895C762.834 117.235 759.415 116.831 757.169 114.915C757.867 120.211 752.354 124.308 747.151 125.517C744.501 126.133 741.613 126.317 739.154 125.155C736.694 123.994 734.877 121.163 735.601 118.541C730.617 120.136 724.84 118.956 720.881 115.534C716.922 112.112 714.918 106.567 715.775 101.404C705.841 98.2298 699.154 87.1178 701 76.8542C700.033 79.0055 697.73 80.484 695.371 80.4671C694.593 65.3101 705.836 50.4108 720.625 47.0014Z" fill="#F9BC9A" stroke="black" stroke-width="0.4" stroke-miterlimit="10"/>
<path d="M724.089 129.146C725.047 128.221 725.811 127.168 726.258 125.948C728.044 121.082 724.971 117.737 724.971 117.737L741.668 109.452C741.668 109.452 740.83 121.055 743.514 125.383C743.514 125.383 740.314 131.447 732.887 132.686C725.459 133.926 722.825 130.366 724.089 129.146Z" fill="#FFDBCA"/>
<mask id="mask0_492_3047" style="mask-type:luminance" maskUnits="userSpaceOnUse" x="723" y="109" width="21" height="24">
<path d="M724.089 129.146C725.047 128.221 725.811 127.168 726.258 125.948C728.044 121.082 724.971 117.737 724.971 117.737L741.668 109.452C741.668 109.452 740.83 121.055 743.514 125.383C743.514 125.383 740.314 131.447 732.887 132.686C725.459 133.926 722.825 130.366 724.089 129.146Z" fill="white"/>
</mask>
<g mask="url(#mask0_492_3047)">
<g style="mix-blend-mode:multiply" opacity="0.7">
<path d="M723.698 106.747C718.813 112.449 718.444 120.963 722.873 125.764C727.302 130.565 734.852 129.835 739.737 124.134C744.621 118.432 744.991 109.918 740.562 105.117C736.133 100.316 728.582 101.046 723.698 106.747Z" fill="#FFDBCA"/>
</g>
</g>
<path d="M724.089 129.146C725.047 128.221 725.811 127.168 726.258 125.948C728.044 121.082 724.971 117.737 724.971 117.737L741.668 109.452C741.668 109.452 740.83 121.055 743.514 125.383C743.514 125.383 740.314 131.447 732.887 132.686C725.459 133.926 722.825 130.366 724.089 129.146Z" stroke="black" stroke-width="0.4" stroke-miterlimit="10"/>
<path d="M748.073 57.7578C753.991 61.6515 758.026 67.539 759.993 74.5743C760.097 74.9436 760.195 75.3144 760.287 75.6865C762.602 84.9921 761.545 95.0693 757.505 103.752C755.937 107.122 754.518 110.222 751.792 112.826C745.811 118.539 738.057 123.635 729.716 124.516C717.947 125.759 710.664 118.296 708.514 115.02C705.429 110.32 706.07 105.542 706.452 100.267C706.999 92.7261 704.035 85.2789 704.427 77.7283C704.799 70.5494 708.375 63.5961 713.998 59.1171C715.673 57.7833 717.543 56.7066 719.502 55.8504C727.028 52.5619 736.375 52.1466 743.95 55.5103C745.412 56.1593 746.787 56.9115 748.073 57.7578Z" fill="#FFDBCA"/>
<path d="M748.073 57.7578C753.991 61.6515 758.026 67.539 759.993 74.5743C760.097 74.9436 760.195 75.3144 760.287 75.6865C762.602 84.9921 761.545 95.0693 757.505 103.752C755.937 107.122 754.518 110.222 751.792 112.826C745.811 118.539 738.057 123.635 729.716 124.516C717.947 125.759 710.664 118.296 708.514 115.02C705.429 110.32 706.07 105.541 706.452 100.267C706.999 92.7261 704.035 85.2789 704.427 77.7283C704.799 70.5494 708.375 63.5961 713.998 59.1171C715.673 57.7833 717.543 56.7066 719.502 55.8504C727.028 52.5619 736.375 52.1466 743.95 55.5103C745.412 56.1593 746.787 56.9115 748.073 57.7578Z" stroke="black" stroke-width="0.4" stroke-miterlimit="10"/>
<path d="M720.259 93.2217C721.407 96.021 720.643 99.495 718.425 101.554C717.851 102.087 717.169 102.561 716.862 103.281C716.53 104.06 716.72 104.986 717.169 105.703C717.619 106.42 718.296 106.961 718.988 107.448" stroke="black" stroke-width="0.4" stroke-linecap="round" stroke-linejoin="round"/>
<path d="M729.451 114.532C727.958 115.747 725.954 116.315 724.045 116.063" stroke="black" stroke-width="0.4" stroke-linecap="round" stroke-linejoin="round"/>
<path d="M732.716 107.631C732.716 107.631 732.252 112.366 727.384 114.019C722.515 115.673 718.712 111.69 718.712 111.69C718.712 111.69 725.131 110.956 732.716 107.631Z" fill="black"/>
<mask id="mask1_492_3047" style="mask-type:luminance" maskUnits="userSpaceOnUse" x="718" y="107" width="15" height="8">
<path d="M732.716 107.631C732.716 107.631 732.252 112.366 727.384 114.019C722.515 115.673 718.712 111.69 718.712 111.69C718.712 111.69 725.131 110.956 732.716 107.631Z" fill="white"/>
</mask>
<g mask="url(#mask1_492_3047)">
<path d="M726.441 109.959C723.977 112.75 723.446 116.307 725.255 117.904C727.064 119.501 730.528 118.533 732.991 115.743C735.455 112.952 735.986 109.395 734.177 107.798C732.368 106.201 728.904 107.169 726.441 109.959Z" fill="#F0644B"/>
<path d="M733.874 106.862C733.874 106.862 731.311 109.915 724.982 111.403C718.652 112.891 720.46 107.449 720.46 107.449L732.4 104.583L733.874 106.862Z" fill="white"/>
</g>
<path d="M751.884 89.4928C750.498 85.7901 749.851 81.724 747.57 78.495C747.622 81.3886 748.312 84.2691 749.575 86.8729C741.989 81.9518 733.968 76.5172 730.595 68.1273C730.019 70.9771 731.369 74.1169 733.834 75.6592C727.377 76.9325 720.288 73.9584 716.672 68.4592C716.679 71.659 718.555 74.7871 721.373 76.3016C717.572 77.176 713.27 77.7553 710.034 75.578C706.723 73.3505 705.651 68.7038 706.778 64.8756C707.904 61.0474 710.823 57.9784 714.087 55.6817C726.024 47.2801 743.819 48.5626 754.428 58.5893C761.005 64.8048 764.376 73.9741 764.162 82.9478C764.087 86.0995 763.718 93.8548 760.974 96.0214C756.964 99.187 753.135 92.8326 751.884 89.4928Z" fill="#F9BC9A"/>
<path d="M760.974 96.021C756.965 99.1866 753.135 92.8322 751.884 89.4924C750.498 85.7897 749.852 81.7236 747.57 78.4946C747.623 81.3883 748.312 84.2687 749.575 86.8725C741.989 81.9514 733.968 76.5169 730.595 68.127C730.019 70.9767 731.37 74.1165 733.834 75.6588C727.377 76.9321 720.288 73.958 716.673 68.4588C716.68 71.6586 718.555 74.7867 721.374 76.3012C717.572 77.1756 713.271 77.7549 710.034 75.5776C707.913 74.1504 706.711 71.7301 706.417 69.1682" stroke="black" stroke-width="0.4" stroke-miterlimit="10"/>
<path d="M756.18 94.9885C753.482 99.1845 752.797 103.368 755.773 105.282C758.75 107.196 764.261 106.114 766.959 101.918C769.657 97.7225 769.43 92.7698 766.454 90.8559C763.477 88.9423 758.877 90.7925 756.18 94.9885Z" fill="#FFDBCA"/>
<path d="M756.614 105.649C759.689 107.024 764.615 105.812 767.118 101.918C769.816 97.7225 769.59 92.7698 766.613 90.8559C763.637 88.9423 759.037 90.7925 756.339 94.9885C756.192 95.2168 756.051 95.4452 755.917 95.6731" stroke="black" stroke-width="0.4" stroke-miterlimit="10"/>
<path d="M768.377 93.2811C768.377 93.2811 762.478 92.9 756.201 101.966" stroke="black" stroke-width="0.4" stroke-linecap="round" stroke-linejoin="round"/>
<path d="M754.607 52.4829C751.662 54.4786 749.287 57.3054 747.829 60.5501" stroke="black" stroke-width="0.4" stroke-linecap="round" stroke-linejoin="round"/>
<path d="M749.995 53.5604C749.283 51.8703 747.986 50.4335 746.377 49.5532" stroke="black" stroke-width="0.4" stroke-linecap="round" stroke-linejoin="round"/>
<path d="M747.389 55.0001C746.166 53.4656 743.996 52.759 742.104 53.2794" stroke="black" stroke-width="0.4" stroke-linecap="round" stroke-linejoin="round"/>
<path d="M753.739 57.062C755.726 56.7064 757.865 57.3269 759.353 58.6909" stroke="black" stroke-width="0.4" stroke-linecap="round" stroke-linejoin="round"/>
<path d="M709.187 83.7377C710.59 83.3078 712.086 83.2638 713.512 83.6137C713.626 83.6414 713.696 83.7568 713.668 83.871C713.645 83.9641 713.564 84.0277 713.472 84.0324C713.452 84.0334 713.431 84.0317 713.411 84.0265C712.06 83.6954 710.642 83.7359 709.312 84.1447C709.202 84.1766 709.081 84.1154 709.046 84.0037C709.012 83.8911 709.075 83.7723 709.187 83.7377Z" fill="black"/>
<path d="M732.795 83.4439C732.803 83.3271 732.904 83.2368 733.022 83.2474C734.323 83.3423 735.575 83.7863 736.644 84.5326C736.74 84.6 736.764 84.7322 736.696 84.8285C736.657 84.8846 736.596 84.916 736.533 84.9193C736.487 84.9217 736.441 84.9096 736.4 84.8813C735.394 84.1791 734.215 83.7608 732.992 83.6716C732.874 83.663 732.786 83.5611 732.795 83.4439Z" fill="black"/>
<path d="M712.051 92.9618C712.487 93.1836 712.76 93.6402 712.902 94.1081C713.069 94.6546 713.083 95.2611 712.858 95.7863C712.634 96.3115 712.149 96.7382 711.582 96.8122C711.016 96.8865 710.399 96.5569 710.215 96.0161C709.971 95.2988 709.711 94.4564 710.059 93.7419C710.406 93.0275 711.343 92.6011 712.051 92.9618Z" fill="black"/>
<path d="M732.726 92.5467C733.162 92.7687 733.434 93.2251 733.577 93.6932C733.743 94.2395 733.758 94.8462 733.533 95.3712C733.309 95.8963 732.823 96.3231 732.256 96.3974C731.69 96.4716 731.073 96.142 730.889 95.6013C730.645 94.8837 730.386 94.0415 730.733 93.327C731.08 92.6124 732.018 92.1862 732.726 92.5467Z" fill="black"/>
<path d="M733.97 105.23C735.045 108.981 738.958 111.15 742.709 110.075C746.46 108.999 748.628 105.087 747.553 101.336C746.477 97.5851 742.565 95.4164 738.814 96.4918C735.063 97.5672 732.894 101.48 733.97 105.23Z" fill="#F9A478"/>
<path d="M707.056 111.615C707.219 111.581 707.219 111.575 707.382 111.528C711.133 110.453 713.301 106.54 712.226 102.789C711.442 100.056 709.344 98.1877 706.707 97.7783C706.707 97.7783 706.601 102.147 706.331 105.103C706.028 108.408 707.056 111.615 707.056 111.615Z" fill="#F9A478"/>
<path d="M1004.55 260.632C1002.31 259.395 999.772 258.618 997.213 258.384C997.123 258.376 997.046 258.438 997.041 258.523C997.036 258.595 997.085 258.66 997.155 258.683C997.167 258.687 997.18 258.69 997.193 258.691C999.705 258.921 1002.2 259.685 1004.4 260.898C1004.48 260.941 1004.57 260.917 1004.62 260.843C1004.66 260.77 1004.63 260.675 1004.55 260.632Z" fill="black"/>
<path d="M1004.11 258.447L1004.11 258.447C1004.19 258.474 1004.28 258.437 1004.31 258.362C1004.34 258.284 1004.3 258.193 1004.22 258.16L1001.43 257.039C1001.34 257.005 1001.25 257.042 1001.22 257.12C1001.19 257.199 1001.23 257.289 1001.31 257.323L1004.1 258.444C1004.1 258.445 1004.11 258.446 1004.11 258.447Z" fill="black"/>
<path d="M1097.89 264.621C1100.13 263.385 1102.67 262.608 1105.23 262.374C1105.31 262.365 1105.39 262.428 1105.4 262.512C1105.4 262.585 1105.35 262.65 1105.28 262.673C1105.27 262.677 1105.26 262.68 1105.24 262.681C1102.73 262.911 1100.24 263.674 1098.04 264.887C1097.96 264.931 1097.86 264.907 1097.82 264.833C1097.78 264.76 1097.81 264.665 1097.89 264.621Z" fill="black"/>
<path d="M1098.33 262.437L1098.33 262.437C1098.25 262.464 1098.16 262.427 1098.13 262.352C1098.09 262.274 1098.14 262.183 1098.22 262.149L1101.01 261.029C1101.09 260.994 1101.19 261.032 1101.22 261.11C1101.25 261.188 1101.21 261.279 1101.13 261.313L1098.34 262.433C1098.33 262.435 1098.33 262.436 1098.33 262.437Z" fill="black"/>
<path d="M1010.76 32.3192C1010.28 40.6517 1013.84 48.7543 1018.29 56.0413C1020.26 59.2724 1022.44 62.4406 1023.71 65.9535C1024.99 69.4664 1025.27 73.4551 1023.47 76.7698C1026.28 78.1356 1029.83 78.1666 1032.67 76.8504C1032.18 78.5213 1030.99 80.0112 1029.39 80.9435C1032.37 82.5293 1036.13 82.0446 1039.45 81.1811C1054.05 77.3829 1066.32 66.8258 1071.35 53.7496C1071.7 52.8204 1072.09 51.8029 1073.01 51.2879C1073.77 50.8614 1074.72 50.8835 1075.61 50.8662C1082.53 50.7314 1089.31 47.1295 1092.61 41.5759C1095.91 36.0224 1095.44 28.7117 1091.24 23.6962C1093.75 24.3541 1096.6 23.8395 1098.65 22.3564C1090.9 17.8772 1083.81 12.4744 1075.95 8.15649C1068.09 3.83863 1059.14 0.584491 1049.98 1.04314C1045.08 1.28861 1040.17 2.76432 1036.14 5.34192C1033.3 7.16132 1031 10.177 1029.08 12.7757C1017.99 13.1719 1011.31 23.0004 1010.76 32.3192Z" fill="#F9BC9A" stroke="black" stroke-width="0.4" stroke-miterlimit="10"/>
<path d="M1111.11 163.689C1111.78 165.013 1112.38 166.368 1112.95 167.733C1113.61 169.321 1114.3 170.898 1114.84 172.53C1115.36 174.099 1115.94 175.729 1116 177.397C1116.03 178.364 1115.91 179.901 1114.94 180.419C1114.79 180.5 1114.45 180.493 1114.36 180.654C1114.25 180.843 1114.45 181.51 1114.39 181.796C1114.23 182.568 1113.64 183.273 1112.86 183.475C1112.97 183.974 1112.99 184.55 1112.66 184.937C1112.31 185.338 1111.69 185.387 1111.19 185.197C1110.68 184.999 1110.32 184.437 1109.77 184.361C1109.07 184.263 1108.58 184.701 1107.88 184.226C1107.3 183.84 1106.96 183.204 1106.63 182.593C1104.41 178.408 1101.92 174.283 1098.86 170.631C1096.73 168.082 1094.15 165.625 1093.29 162.357C1092.54 159.498 1092.68 153.824 1092.68 153.824L1100.75 149.53C1100.75 149.53 1104.36 155.174 1105.92 156.517C1108.18 158.469 1109.79 161.039 1111.11 163.689Z" fill="#FFDBCA" stroke="black" stroke-width="0.4" stroke-miterlimit="10"/>
<path d="M1104.68 174.914C1105.51 174.416 1106.31 173.874 1107.09 173.291" stroke="#333333" stroke-width="0.4" stroke-linecap="round" stroke-linejoin="round"/>
<path d="M1105.62 174.504C1107.7 177.468 1109.33 180.74 1110.46 184.182" stroke="#333333" stroke-width="0.4" stroke-linecap="round" stroke-linejoin="round"/>
<path d="M1108.73 174.792C1110.37 177.404 1111.71 180.208 1112.7 183.129" stroke="#333333" stroke-width="0.4" stroke-linecap="round" stroke-linejoin="round"/>
<path d="M1111.07 173.877C1112.26 175.955 1113.28 178.128 1114.12 180.369" stroke="#333333" stroke-width="0.4" stroke-linecap="round" stroke-linejoin="round"/>
<path d="M1109.06 163.065C1109.4 164.466 1109.59 165.919 1109.74 167.32C1109.96 169.349 1110.97 171.22 1111.09 173.254C1111.14 174.004 1110.92 174.916 1110.21 175.143C1109.78 175.276 1109.32 175.115 1108.93 174.905C1106.97 173.849 1106.09 171.799 1105.38 169.807C1104.89 168.413 1104.35 167.432 1103.28 166.383C1101.52 164.65 1100.09 163.06 1099.83 160.492" stroke="#333333" stroke-width="0.4" stroke-linecap="round" stroke-linejoin="round"/>
<path d="M1084.02 99.3564C1084.73 99.9352 1085.39 100.571 1085.96 101.276C1091.28 107.833 1091.54 117.925 1092.87 125.877C1092.96 126.414 1093.06 126.979 1093.41 127.4C1093.73 127.788 1094.22 128.008 1094.52 128.415C1095.09 129.199 1094.72 130.301 1094.9 131.254C1095.02 131.882 1095.37 132.434 1095.73 132.968C1098 136.411 1100.43 139.745 1102.68 143.201C1103.8 144.925 1104.88 146.677 1105.87 148.483C1106.04 148.795 1108.17 152.815 1108.08 152.901C1104.1 156.859 1099.19 159.879 1093.86 161.648C1093.53 161.757 1093.18 161.863 1092.84 161.78C1092.48 161.69 1092.2 161.395 1091.96 161.108C1090.66 159.584 1089.61 157.874 1088.56 156.169C1085.77 151.614 1083.02 147.035 1080.31 142.432C1079.04 140.267 1077.77 138.085 1076.85 135.746C1075.88 133.269 1075.31 130.652 1074.83 128.035C1074.12 124.214 1073.61 120.372 1073.2 116.51C1072.87 113.469 1071.84 110.477 1071.44 107.381C1070.78 102.404 1070.66 97.5057 1071 92.4902C1073.6 93.9434 1076.39 95.0069 1079.06 96.3241C1080.76 97.1615 1082.51 98.1316 1084.02 99.3564Z" fill="white" stroke="black" stroke-width="0.4" stroke-miterlimit="10"/>
<path d="M1092.15 127.425C1090.09 130.313 1085.37 130.756 1082.81 128.302" stroke="black" stroke-width="0.4" stroke-linecap="round" stroke-linejoin="round"/>
<path d="M1088.84 156.028C1090.31 156.245 1091.75 155.557 1093.05 154.841C1097.2 152.55 1101.09 149.77 1104.6 146.576" stroke="black" stroke-width="0.4" stroke-linecap="round" stroke-linejoin="round"/>
<path d="M1022.61 255.284C1022.72 254.878 1023.93 251.849 1024.91 249.429L1014.71 246.89C1013.61 249.969 1011.89 252.672 1010.5 255.593C1009.1 258.537 1008.03 261.718 1006.98 264.834C1006.78 265.429 1006.58 266.021 1006.37 266.608C1006.09 267.437 1005.8 268.31 1005.95 269.174C1005.95 269.182 1005.96 269.19 1005.96 269.198C1008.07 265.853 1012.62 264.283 1016.58 265.098C1019.13 265.624 1021.41 266.949 1023.35 268.706C1023.34 267.936 1023.28 267.151 1023.19 266.371C1022.73 262.517 1021.6 259.009 1022.61 255.284Z" fill="#EFDCCE" stroke="black" stroke-width="0.4" stroke-miterlimit="10"/>
<path d="M1005.96 269.198C1006.35 271.389 1009.69 273.956 1011.46 275.069C1014.05 276.708 1016.91 276.872 1019.7 275.594C1022.65 274.241 1023.39 271.583 1023.35 268.706C1021.41 266.948 1019.13 265.624 1016.58 265.098C1012.62 264.283 1008.07 265.853 1005.96 269.198Z" fill="#BACC6E" stroke="black" stroke-width="0.4" stroke-miterlimit="10"/>
<path d="M1095.4 268.281C1094.53 267.351 1091.58 266.008 1088.65 264.651C1085.88 266.785 1084.16 270.549 1084.26 274.152C1084.41 274.172 1084.57 274.197 1084.72 274.215C1088 274.592 1092.47 274.531 1095.42 272.857C1097.28 271.802 1096.69 269.644 1095.4 268.281Z" fill="#BACC6E" stroke="black" stroke-width="0.4" stroke-miterlimit="10"/>
<path d="M1064.25 264.222C1064.03 266.756 1063.83 268.795 1063.85 269.165C1064.05 272.368 1069.72 272.117 1072.51 272.215C1071.31 270.206 1070.63 267.761 1068.98 266.087C1067.74 264.843 1066 264.222 1064.25 264.222Z" fill="#BACC6E" stroke="black" stroke-width="0.4" stroke-miterlimit="10"/>
<path d="M1088.64 264.651C1086.26 263.55 1083.88 262.439 1082.63 261.535C1080.45 259.969 1078.4 258.697 1077.33 256.089C1076.64 254.417 1076.37 252.619 1076.23 250.81L1064.62 253.127C1064.63 253.23 1064.65 253.328 1064.66 253.431C1064.96 255.532 1064.59 260.432 1064.25 264.222C1066 264.222 1067.74 264.843 1068.98 266.087C1070.63 267.761 1071.31 270.205 1072.51 272.215C1072.79 272.225 1073.06 272.238 1073.27 272.259C1076.98 272.623 1080.57 273.675 1084.26 274.152C1084.16 270.549 1085.88 266.785 1088.64 264.651Z" fill="#EFDCCE" stroke="black" stroke-width="0.4" stroke-miterlimit="10"/>
<path d="M1083.59 145.071C1083.01 142.517 1082.35 139.621 1081.65 136.319L1080.82 132.384L1036.96 130.955L1035.79 134.664C1034.86 137.592 1033.85 140.007 1032.77 142.562C1031.39 145.864 1029.95 149.278 1028.82 153.66C1028.19 156.085 1027.66 157.887 1027.2 159.478C1025.69 164.601 1025.03 167.197 1024.91 175.083C1024.84 180.128 1024.61 198.122 1024.55 203.003C1023.26 205.477 1020.32 211.183 1019.3 213.73C1014.77 225.114 1012.19 236.703 1009.58 248.634C1009.49 249.065 1009.39 249.502 1009.42 249.941C1009.47 250.591 1009.79 251.188 1010.15 251.729C1013.44 256.646 1020.32 258.052 1026.07 256.644C1026.63 256.507 1027.21 256.333 1027.62 255.923C1027.89 255.642 1028.06 255.274 1028.23 254.913C1031.25 248.311 1034.44 241.7 1037.14 234.942C1038.25 232.381 1039.41 229.733 1040.6 227.167C1042.2 223.743 1043.72 220.833 1045.19 218.018C1048.81 211.112 1051.92 205.148 1054.09 195.513C1054.39 194.196 1055.05 191.433 1055.86 188.201C1056.12 190.416 1056.39 192.753 1056.67 195.299C1057.46 202.228 1057.36 209.226 1056.36 216.098C1054.56 228.536 1057.87 242.595 1060.6 254.756C1060.76 255.503 1060.95 256.279 1061.44 256.868C1061.88 257.398 1062.51 257.72 1063.14 257.992C1068.31 260.219 1074.49 259.935 1079.43 257.246C1079.97 256.953 1080.52 256.606 1080.8 256.061C1081.03 255.614 1081.05 255.091 1081.06 254.587C1081.3 245.859 1081.94 237.112 1081.94 228.354C1081.98 226.511 1082.04 225.876 1082.06 225.672C1082.36 224.646 1082.54 223.622 1082.72 220.648C1083.17 213.431 1084.01 207.212 1084.82 201.198C1085.78 194.077 1086.77 186.713 1087.08 177.85C1087.61 162.734 1086.1 156.085 1083.59 145.071Z" fill="#009CA4" stroke="black" stroke-width="0.4" stroke-miterlimit="10"/>
<path d="M1056.61 187.594C1061 186.563 1065.39 185.531 1069.78 184.499" stroke="black" stroke-width="0.4" stroke-linecap="round" stroke-linejoin="round"/>
<path d="M1058.99 186.638C1060.36 180.399 1060.74 173.947 1060.12 167.59" stroke="black" stroke-width="0.4" stroke-linecap="round" stroke-linejoin="round"/>
<path d="M1063.99 185.681C1065.84 179.526 1066.35 172.966 1065.47 166.597" stroke="black" stroke-width="0.4" stroke-linecap="round" stroke-linejoin="round"/>
<path d="M1058.49 189.043C1061.89 189.93 1065.29 190.817 1068.69 191.704" stroke="black" stroke-width="0.4" stroke-linecap="round" stroke-linejoin="round"/>
<path d="M1025.92 204.759C1027.53 207.724 1029.52 210.476 1031.84 212.921" stroke="black" stroke-width="0.4" stroke-linecap="round" stroke-linejoin="round"/>
<path d="M1060.06 208.906C1061.47 211.463 1062.88 214.019 1064.3 216.576" stroke="black" stroke-width="0.4" stroke-linecap="round" stroke-linejoin="round"/>
<path d="M1064.1 99.6777C1073.01 100.269 1070.42 92.2608 1070.42 92.2608C1067.21 90.5292 1064.15 88.2203 1062.8 84.5506C1060.47 78.2406 1063.39 73.4855 1063.39 73.4855L1045.07 64.063C1045.07 64.063 1047.93 81.9951 1045.11 87.3605C1045.11 87.3605 1055.19 99.0865 1064.1 99.6777Z" fill="#FFDBCA" stroke="black" stroke-width="0.4" stroke-miterlimit="10"/>
<path d="M1084.91 124.24C1083.9 108.081 1081.41 97.6616 1076.93 95.4332C1075.06 94.5008 1072.68 93.552 1070.37 92.306C1070.37 92.306 1072.96 100.314 1064.05 99.7229C1055.14 99.1317 1045.07 87.4058 1045.07 87.4058C1044.27 88.9341 1042.5 89.9864 1040.35 90.7642C1037.96 91.6255 1035.11 92.1501 1032.55 92.6076C1029.31 93.1872 1026.56 93.6612 1025.88 94.5799C1018.23 104.959 1031.66 119.363 1028.18 130.272C1027.6 132.076 1026.65 133.773 1026.36 135.646C1026.08 137.518 1026.71 139.74 1028.44 140.503C1026.93 141.166 1026.2 143.187 1026.93 144.663C1027.26 145.323 1027.83 145.862 1028.04 146.566C1028.36 147.578 1027.88 148.642 1027.53 149.639C1025.35 155.706 1027.38 162.396 1029.55 168.465C1031.67 174.404 1033.93 180.294 1036.32 186.13C1045.39 183.803 1054.08 179.983 1061.92 174.87C1062.58 174.439 1063.32 173.98 1064.1 174.1C1064.72 174.194 1065.22 174.635 1065.68 175.057C1071.22 180.136 1076.77 185.215 1082.32 190.294C1087.55 168.485 1086.3 146.366 1084.91 124.24Z" fill="white"/>
<path d="M1077.76 95.5577C1075.89 94.6253 1072.68 93.552 1070.37 92.306C1070.37 92.306 1072.96 100.314 1064.05 99.7229C1055.14 99.1317 1045.07 87.4058 1045.07 87.4058C1044.27 88.9341 1042.5 89.9864 1040.35 90.7642C1037.96 91.6255 1035.11 92.1501 1032.55 92.6076C1029.31 93.1872 1026.56 93.6612 1025.88 94.5799C1018.23 104.959 1031.66 119.363 1028.18 130.272C1027.6 132.076 1026.65 133.773 1026.36 135.646C1026.08 137.518 1026.71 139.74 1028.44 140.503C1026.93 141.166 1026.2 143.187 1026.93 144.663C1027.26 145.323 1027.83 145.862 1028.04 146.566C1028.36 147.578 1027.88 148.642 1027.53 149.639C1025.35 155.706 1027.38 162.396 1029.55 168.465C1031.67 174.404 1033.93 180.294 1036.32 186.13C1045.39 183.803 1054.08 179.983 1061.92 174.87C1062.58 174.439 1063.32 173.98 1064.1 174.1C1064.72 174.194 1065.22 174.635 1065.68 175.057C1071.22 180.136 1076.77 185.215 1082.32 190.294C1087.55 168.485 1086.3 146.366 1084.91 124.24C1084.77 121.979 1084.6 119.83 1084.4 117.8" stroke="black" stroke-width="0.4" stroke-miterlimit="10"/>
<g style="mix-blend-mode:multiply" opacity="0.7">
<path d="M1060.27 85.2694C1061.32 85.3206 1062.19 85.1513 1062.92 84.8233C1062.88 84.7305 1062.83 84.6452 1062.8 84.5506C1060.47 78.2405 1063.39 73.4855 1063.39 73.4855L1045.07 64.063C1045.07 64.063 1045.76 68.3989 1046.13 73.4434C1048.38 77.0468 1054.02 84.9638 1060.27 85.2694Z" fill="#FFB27C"/>
</g>
<path d="M1041.17 16.9318C1035.44 21.1552 1031.7 27.2797 1030.1 34.4461C1030.02 34.8223 1029.94 35.1997 1029.87 35.5781C1028.04 45.0417 1029.64 55.1002 1034.16 63.6002C1035.91 66.8992 1037.5 69.9349 1040.37 72.4038C1046.68 77.8197 1050.39 80.609 1058.49 82.509C1063.59 83.7064 1070.84 83.4331 1075.71 80.6646C1079.14 78.7194 1081.95 75.7027 1083.93 72.3005C1086.78 67.4181 1085.88 62.656 1085.21 57.3824C1084.26 49.8425 1086.84 42.2096 1086.05 34.6516C1085.29 27.4658 1081.33 20.6771 1075.45 16.4809C1073.7 15.2314 1071.76 14.2502 1069.75 13.4952C1062.02 10.5954 1052.62 10.6764 1045.19 14.4562C1043.76 15.1857 1042.42 16.014 1041.17 16.9318Z" fill="#FFDBCA"/>
<path d="M1041.17 16.9318C1035.44 21.1552 1031.7 27.2797 1030.1 34.4461C1030.02 34.8223 1029.94 35.1997 1029.87 35.5781C1028.04 45.0417 1029.64 55.1002 1034.16 63.6002C1035.91 66.8992 1037.5 69.9349 1040.37 72.4038C1046.68 77.8197 1050.39 80.609 1058.49 82.509C1063.59 83.7064 1070.84 83.4331 1075.71 80.6646C1079.14 78.7194 1081.95 75.7027 1083.93 72.3005C1086.78 67.4181 1085.88 62.656 1085.21 57.3824C1084.26 49.8425 1086.84 42.2096 1086.05 34.6516C1085.29 27.4658 1081.33 20.6771 1075.45 16.4809C1073.7 15.2314 1071.76 14.2502 1069.75 13.4952C1062.02 10.5954 1052.62 10.6764 1045.19 14.4562C1043.76 15.1857 1042.42 16.014 1041.17 16.9318Z" stroke="black" stroke-width="0.4" stroke-miterlimit="10"/>
<path d="M1070.98 51.0469C1069.98 53.9176 1070.93 57.364 1073.26 59.312C1073.87 59.8165 1074.58 60.2559 1074.93 60.963C1075.3 61.7266 1075.16 62.6663 1074.75 63.4098C1074.33 64.1533 1073.68 64.7333 1073.01 65.2587" stroke="black" stroke-width="0.4" stroke-linecap="round" stroke-linejoin="round"/>
<path d="M1064.65 72.4453C1066.36 73.3412 1068.45 73.496 1070.28 72.8633" stroke="black" stroke-width="0.4" stroke-linecap="round" stroke-linejoin="round"/>
<path d="M1061.69 68.4829C1065.55 71.0488 1069.6 70.8738 1073.06 69.8466" stroke="black" stroke-width="0.4" stroke-linecap="round" stroke-linejoin="round"/>
<path d="M1040.91 50.3386C1043.76 46.0189 1045.87 41.22 1047.13 36.2065C1047.56 38.9436 1046.94 41.8294 1045.43 44.1532C1052.15 40.5214 1056.65 33.0949 1056.76 25.4551C1060.28 29.6779 1065.4 32.5258 1070.85 33.2819C1069.1 31.7918 1067.76 29.8184 1067.02 27.6379C1072.18 32.4454 1079.58 34.747 1086.56 33.7179C1087.12 33.6358 1087.72 33.5058 1088.08 33.0685C1088.52 32.521 1088.4 31.7227 1088.24 31.0373C1085.33 18.9718 1074.64 9.17399 1062.37 7.3223C1050.09 5.47061 1036.99 11.6786 1030.65 22.3484C1026.54 29.2568 1025.43 37.7738 1027.2 45.5762C1027.82 48.3345 1029.13 54.3354 1031.96 55.7072C1035.48 57.4179 1039.24 52.8777 1040.91 50.3386Z" fill="#F9BC9A"/>
<path d="M1031.96 55.7073C1035.48 57.4179 1039.24 52.8777 1040.91 50.3386C1043.76 46.0189 1045.87 41.22 1047.13 36.2065C1047.56 38.9436 1046.94 41.8294 1045.43 44.1532C1052.15 40.5214 1056.65 33.0949 1056.76 25.4551C1060.28 29.6779 1065.4 32.5258 1070.85 33.2819C1069.1 31.7918 1067.76 29.8184 1067.02 27.6379C1072.18 32.4454 1079.58 34.747 1086.56 33.7179" stroke="black" stroke-width="0.4" stroke-miterlimit="10"/>
<path d="M1035.02 54.7333C1037.95 58.8013 1038.86 62.9644 1035.98 65.0437C1033.09 67.1231 1027.5 66.3313 1024.57 62.2635C1021.64 58.1956 1021.6 53.2122 1024.49 51.1329C1027.37 49.0535 1032.09 50.6655 1035.02 54.7333Z" fill="#FFDBCA"/>
<path d="M1035.98 65.0437C1033.09 67.1231 1027.5 66.3313 1024.57 62.2635C1021.64 58.1956 1021.6 53.2122 1024.49 51.1329C1027.37 49.0535 1032.09 50.6655 1035.02 54.7333" stroke="black" stroke-width="0.4" stroke-miterlimit="10"/>
<path d="M1022.69 53.6694C1022.69 53.6694 1028.59 52.9726 1035.37 61.738" stroke="black" stroke-width="0.4" stroke-linecap="round" stroke-linejoin="round"/>
<path d="M1031.06 12.9131C1032.91 14.5305 1034.65 16.2796 1036.25 18.1428" stroke="black" stroke-width="0.4" stroke-linecap="round" stroke-linejoin="round"/>
<path d="M1034.9 11.2549C1035.94 9.47203 1037.71 8.12837 1039.7 7.60352" stroke="black" stroke-width="0.4" stroke-linecap="round" stroke-linejoin="round"/>
<path d="M1036.33 13.6906C1038.11 11.9651 1040.51 10.8991 1042.98 10.7407" stroke="black" stroke-width="0.4" stroke-linecap="round" stroke-linejoin="round"/>
<path d="M1028.97 16.7598C1027.61 16.5386 1026.16 16.8888 1025.05 17.7085" stroke="black" stroke-width="0.4" stroke-linecap="round" stroke-linejoin="round"/>
<path d="M1086.17 153.112C1086.14 143.491 1085.56 133.844 1084.96 124.195C1084.82 121.949 1084.65 119.813 1084.45 117.795" stroke="#333333" stroke-width="0.4" stroke-linecap="round" stroke-linejoin="round"/>
<path d="M1065.23 99.7881C1065.68 102.966 1065.73 106.203 1065.37 109.393" stroke="black" stroke-width="0.4" stroke-linecap="round" stroke-linejoin="round"/>
<path d="M995.297 167.292C994.659 169.448 994.021 171.603 993.383 173.759C993.183 174.436 992.98 175.127 993.002 175.833C993.023 176.54 993.306 177.275 993.894 177.667C993.768 178.439 993.642 179.225 993.755 179.999C993.868 180.773 994.26 181.547 994.942 181.928C995.087 182.009 995.249 182.075 995.351 182.206C995.439 182.318 995.472 182.462 995.533 182.591C995.753 183.056 996.325 183.272 996.837 183.22C997.349 183.169 997.812 182.905 998.247 182.629C998.49 182.981 999.005 183.034 999.412 182.902C999.966 182.721 1000.4 182.275 1000.69 181.769C1000.98 181.264 1001.14 180.697 1001.3 180.136C1001.61 179.047 1001.92 177.957 1002.23 176.868C1002.47 176.018 1002.72 175.164 1003.1 174.364C1003.83 172.818 1005.01 171.55 1006.27 170.424C1006.86 169.897 1007.5 169.419 1008.04 168.848C1008.37 168.505 1008.81 168.022 1009.36 168.188C1009.99 168.378 1010.12 169.213 1010.06 169.871C1009.81 172.536 1008.29 174.967 1008.11 177.638C1008.08 178.051 1008.11 178.524 1008.43 178.79C1008.97 179.248 1009.77 178.724 1010.28 178.223C1012.07 176.443 1013.9 174.613 1014.99 172.329C1016.85 168.41 1017.47 163.726 1017.98 159.461C1018.25 157.107 1018.37 154.811 1018.8 152.554L1008.78 148.406C1006.86 151.793 1003.93 154.304 1001.39 157.213C1000.01 158.798 998.612 160.397 997.575 162.227C996.647 163.864 995.837 165.471 995.297 167.292Z" fill="#FFDBCA" stroke="black" stroke-width="0.4" stroke-miterlimit="10"/>
<path d="M998.285 182.351C998.522 178.89 999.234 175.461 1000.39 172.191" stroke="#333333" stroke-width="0.4" stroke-linecap="round" stroke-linejoin="round"/>
<path d="M995.399 181.823C995.912 178.014 996.9 174.269 998.33 170.703" stroke="#333333" stroke-width="0.4" stroke-linecap="round" stroke-linejoin="round"/>
<path d="M994.195 177.295C994.77 174.373 995.591 171.499 996.647 168.714" stroke="#333333" stroke-width="0.4" stroke-linecap="round" stroke-linejoin="round"/>
<path d="M1041.73 90.9463C1039.78 91.2737 1037.82 91.5832 1035.87 91.955C1033.93 92.3266 1031.94 92.4119 1029.99 92.7519C1027.76 93.1407 1025.49 93.9218 1023.95 95.5825C1023.27 96.3251 1022.84 97.272 1022.16 98.0118C1021.51 98.7273 1020.8 99.4006 1020.18 100.157C1018.9 101.717 1017.74 103.377 1016.67 105.091C1012.23 112.225 1008.8 119.99 1006.49 128.07C1004.05 136.594 1003.31 145.118 1002.51 153.914C1002.48 154.299 1002.45 154.698 1002.57 155.063C1002.7 155.429 1002.98 155.721 1003.26 155.991C1007.31 159.908 1013.34 161.673 1018.86 160.564C1019.2 160.496 1019.56 160.408 1019.8 160.166C1020.62 159.36 1020.44 157.011 1020.58 155.951C1020.85 153.927 1021.11 151.903 1021.38 149.879C1021.9 145.83 1022.43 141.782 1022.96 137.733C1023.02 137.298 1023.08 136.841 1023.35 136.492C1023.66 136.078 1024.2 135.894 1024.56 135.521C1025.35 134.702 1025.04 133.377 1025.11 132.239C1025.33 128.301 1030.26 125.522 1032.99 123.347C1042.35 115.882 1046.07 102.106 1041.73 90.9463Z" fill="white"/>
<path d="M1038.79 91.2661C1036.84 91.6377 1031.94 92.4116 1029.99 92.7517C1027.76 93.1404 1025.49 93.9215 1023.95 95.5823C1023.27 96.3248 1022.84 97.2717 1022.16 98.0115C1021.51 98.7271 1020.8 99.4003 1020.18 100.157C1018.9 101.716 1017.74 103.377 1016.67 105.091C1012.23 112.225 1008.8 119.99 1006.49 128.07C1004.05 136.593 1003.31 145.118 1002.51 153.914C1002.48 154.299 1002.45 154.698 1002.57 155.063C1002.7 155.429 1002.98 155.721 1003.26 155.991C1007.31 159.908 1013.34 161.673 1018.86 160.564C1019.2 160.496 1019.56 160.408 1019.8 160.166C1020.62 159.36 1020.44 157.011 1020.58 155.951C1020.85 153.927 1021.11 151.903 1021.38 149.878C1021.9 145.83 1022.43 141.782 1022.96 137.733C1023.02 137.298 1023.08 136.841 1023.35 136.492C1023.66 136.078 1024.2 135.894 1024.56 135.521C1025.35 134.702 1025.04 133.377 1025.11 132.239C1025.23 130.008 1026.87 128.149 1028.76 126.562" stroke="black" stroke-width="0.4" stroke-miterlimit="10"/>
<path d="M1024.02 130.445C1023.36 130.856 1022.49 130.594 1021.8 130.236C1020.2 129.403 1018.85 128.092 1017.97 126.515" stroke="black" stroke-width="0.4" stroke-linecap="round" stroke-linejoin="round"/>
<path d="M1003.09 148.894C1004.93 151.461 1007.8 153.181 1010.85 153.961C1013.91 154.74 1017.14 154.633 1020.24 154.045" stroke="black" stroke-width="0.4" stroke-linecap="round" stroke-linejoin="round"/>
<path d="M1028.83 126.515C1030.14 124.706 1031.81 123.166 1033.73 122.021" stroke="black" stroke-width="0.4" stroke-linecap="round" stroke-linejoin="round"/>
<path d="M1029.66 94.4688C1032.81 96.1712 1035.48 98.737 1037.3 101.81" stroke="black" stroke-width="0.4" stroke-linecap="round" stroke-linejoin="round"/>
<path d="M1081.58 42.6628C1080.22 42.2449 1078.77 42.2021 1077.38 42.5422C1077.27 42.5692 1077.2 42.6814 1077.23 42.7924C1077.25 42.8829 1077.33 42.9447 1077.42 42.9493C1077.44 42.9503 1077.46 42.9486 1077.48 42.9435C1078.79 42.6216 1080.17 42.661 1081.46 43.0584C1081.57 43.0895 1081.69 43.0299 1081.72 42.9213C1081.75 42.8119 1081.69 42.6964 1081.58 42.6628Z" fill="black"/>
<path d="M1058.63 42.3774C1058.63 42.2638 1058.53 42.176 1058.41 42.1864C1057.15 42.2786 1055.93 42.7102 1054.89 43.4357C1054.8 43.5012 1054.78 43.6298 1054.84 43.7233C1054.88 43.7778 1054.94 43.8084 1055 43.8116C1055.04 43.8139 1055.09 43.8022 1055.13 43.7747C1056.11 43.0921 1057.25 42.6855 1058.44 42.5987C1058.56 42.5904 1058.64 42.4913 1058.63 42.3774Z" fill="black"/>
<path d="M1078.8 51.6295C1078.38 51.8451 1078.11 52.289 1077.97 52.7439C1077.81 53.2752 1077.8 53.8647 1078.01 54.3753C1078.23 54.8858 1078.7 55.3006 1079.26 55.3726C1079.81 55.4448 1080.41 55.1244 1080.58 54.5987C1080.82 53.9013 1081.07 53.0825 1080.74 52.3879C1080.4 51.6934 1079.49 51.2789 1078.8 51.6295Z" fill="black"/>
<path d="M1058.7 51.2261C1058.28 51.442 1058.01 51.8856 1057.87 52.3407C1057.71 52.8718 1057.7 53.4615 1057.92 53.9719C1058.14 54.4824 1058.61 54.8972 1059.16 54.9694C1059.71 55.0416 1060.31 54.7212 1060.49 54.1955C1060.72 53.498 1060.98 52.6793 1060.64 51.9847C1060.3 51.29 1059.39 50.8757 1058.7 51.2261Z" fill="black"/>
<path d="M1058.54 64.8458C1057.5 68.4921 1053.69 70.6004 1050.05 69.5548C1046.4 68.5094 1044.29 64.706 1045.34 61.0597C1046.38 57.4136 1050.19 55.3054 1053.83 56.3508C1057.48 57.3963 1059.59 61.1996 1058.54 64.8458Z" fill="#F9A478"/>
<path d="M1079.76 61.06C1078.71 64.7062 1080.82 68.5096 1084.46 69.555C1084.62 69.5995 1084.77 69.606 1084.93 69.6392C1086.25 65.6655 1085.55 61.6952 1085.01 57.383C1084.96 57.0132 1084.93 56.6431 1084.9 56.2729C1082.51 56.7962 1080.48 58.5475 1079.76 61.06Z" fill="#F9A478"/>
<defs>
<filter id="filter0_d_492_3047" x="621" y="201.868" width="242.185" height="70.6919" filterUnits="userSpaceOnUse" color-interpolation-filters="sRGB">
<feFlood flood-opacity="0" result="BackgroundImageFix"/>
<feColorMatrix in="SourceAlpha" type="matrix" values="0 0 0 0 0 0 0 0 0 0 0 0 0 0 0 0 0 0 127 0" result="hardAlpha"/>
<feOffset dx="2" dy="-2"/>
<feGaussianBlur stdDeviation="1"/>
<feComposite in2="hardAlpha" operator="out"/>
<feColorMatrix type="matrix" values="0 0 0 0 0 0 0 0 0 0 0 0 0 0 0 0 0 0 0.25 0"/>
<feBlend mode="normal" in2="BackgroundImageFix" result="effect1_dropShadow_492_3047"/>
<feBlend mode="normal" in="SourceGraphic" in2="effect1_dropShadow_492_3047" result="shape"/>
</filter>
<filter id="filter1_d_492_3047" x="926" y="136.868" width="242" height="150" filterUnits="userSpaceOnUse" color-interpolation-filters="sRGB">
<feFlood flood-opacity="0" result="BackgroundImageFix"/>
<feColorMatrix in="SourceAlpha" type="matrix" values="0 0 0 0 0 0 0 0 0 0 0 0 0 0 0 0 0 0 127 0" result="hardAlpha"/>
<feOffset dx="2" dy="-2"/>
<feGaussianBlur stdDeviation="1"/>
<feComposite in2="hardAlpha" operator="out"/>
<feColorMatrix type="matrix" values="0 0 0 0 0 0 0 0 0 0 0 0 0 0 0 0 0 0 0.25 0"/>
<feBlend mode="normal" in2="BackgroundImageFix" result="effect1_dropShadow_492_3047"/>
<feBlend mode="normal" in="SourceGraphic" in2="effect1_dropShadow_492_3047" result="shape"/>
</filter>
</defs>
</svg>
