<svg width="1240" height="234" viewBox="0 0 1240 234" fill="none" xmlns="http://www.w3.org/2000/svg">
<path d="M1157.61 95.8458C1154.76 95.8458 1152 96.247 1149.39 96.9811C1153.42 91.8291 1155.83 85.3478 1155.83 78.2999C1155.83 61.535 1142.23 47.9444 1125.44 47.9444C1117.63 47.9444 1110.51 50.8923 1105.13 55.7323C1105.22 54.7419 1105.28 53.7383 1105.28 52.7223C1105.28 35.9573 1091.67 22.3667 1074.89 22.3667C1058.11 22.3667 1044.5 35.9573 1044.5 52.7223C1044.5 53.78 1044.56 54.8249 1044.66 55.8546C1039.83 52.6219 1034.02 50.7341 1027.77 50.7341C1010.99 50.7341 997.387 64.3248 997.387 81.0897C997.387 85.1633 998.196 89.0466 999.653 92.596C998.904 92.5407 998.15 92.5032 997.387 92.5032C980.605 92.5032 967 106.094 967 122.859C967 139.624 980.605 153.214 997.387 153.214C1005.96 153.214 1013.69 149.664 1019.22 143.963C1024.57 152.606 1034.15 158.367 1045.07 158.367C1053.02 158.367 1060.25 155.317 1065.66 150.329C1070.32 153.24 1075.83 154.929 1081.74 154.929C1087.3 154.929 1092.51 153.427 1097 150.819C1102.35 155.514 1109.36 158.367 1117.04 158.367C1125.33 158.367 1132.85 155.043 1138.33 149.661C1143.58 153.969 1150.29 156.557 1157.61 156.557C1174.4 156.557 1188 142.966 1188 126.201C1188 109.436 1174.4 95.8458 1157.61 95.8458Z" fill="#83BEB7"/>
<path d="M393.463 107.661C390.972 107.661 388.565 108.012 386.279 108.654C389.801 104.146 391.907 98.4752 391.907 92.3083C391.907 77.639 380.026 65.7472 365.37 65.7472C358.547 65.7472 352.328 68.3266 347.626 72.5616C347.711 71.695 347.757 70.8169 347.757 69.9279C347.757 55.2585 335.876 43.3667 321.22 43.3667C306.564 43.3667 294.683 55.2585 294.683 69.9279C294.683 70.8534 294.731 71.7676 294.824 72.6686C290.605 69.84 285.533 68.1882 280.074 68.1882C265.418 68.1882 253.537 80.08 253.537 94.7493C253.537 98.3137 254.243 101.712 255.516 104.817C254.861 104.769 254.203 104.736 253.537 104.736C238.881 104.736 227 116.628 227 131.297C227 145.967 238.881 157.858 253.537 157.858C261.021 157.858 267.777 154.752 272.602 149.763C277.279 157.326 285.639 162.367 295.178 162.367C302.117 162.367 308.432 159.698 313.16 155.334C317.233 157.881 322.043 159.358 327.2 159.358C332.059 159.358 336.609 158.045 340.527 155.763C345.199 159.871 351.321 162.367 358.028 162.367C365.272 162.367 371.834 159.459 376.623 154.749C381.204 158.519 387.069 160.783 393.463 160.783C408.119 160.783 420 148.891 420 134.222C420 119.553 408.119 107.661 393.463 107.661Z" fill="#83BEB7"/>
<path d="M531.463 129.661C528.972 129.661 526.565 130.012 524.279 130.654C527.801 126.146 529.907 120.475 529.907 114.308C529.907 99.639 518.026 87.7472 503.37 87.7472C496.547 87.7472 490.328 90.3266 485.626 94.5616C485.711 93.695 485.757 92.8169 485.757 91.9279C485.757 77.2585 473.876 65.3667 459.22 65.3667C444.564 65.3667 432.683 77.2585 432.683 91.9279C432.683 92.8534 432.731 93.7676 432.824 94.6686C428.605 91.84 423.533 90.1882 418.074 90.1882C403.418 90.1882 391.537 102.08 391.537 116.749C391.537 120.314 392.243 123.712 393.516 126.817C392.861 126.769 392.203 126.736 391.537 126.736C376.881 126.736 365 138.628 365 153.297C365 167.967 376.881 179.858 391.537 179.858C399.021 179.858 405.777 176.752 410.602 171.763C415.279 179.326 423.639 184.367 433.178 184.367C440.117 184.367 446.432 181.698 451.16 177.334C455.233 179.881 460.043 181.358 465.2 181.358C470.059 181.358 474.609 180.045 478.527 177.763C483.199 181.871 489.321 184.367 496.028 184.367C503.272 184.367 509.834 181.459 514.623 176.749C519.204 180.519 525.069 182.783 531.463 182.783C546.119 182.783 558 170.891 558 156.222C558 141.553 546.119 129.661 531.463 129.661Z" fill="#CDEFEB"/>
<path d="M232.831 80.5314C230.44 81.2327 228.229 82.2473 226.216 83.5072C228.328 78.1898 228.751 72.1553 227.015 66.2378C222.886 52.1618 208.137 44.0956 194.074 48.2215C187.527 50.1423 182.285 54.3683 178.967 59.7555C178.804 58.9 178.601 58.0446 178.35 57.1915C174.221 43.1154 159.473 35.0492 145.41 39.1751C131.346 43.301 123.294 58.0565 127.423 72.1326C127.684 73.0207 127.987 73.8845 128.33 74.7231C123.485 73.1963 118.153 73.0394 112.915 74.5762C98.8516 78.7021 90.799 93.4576 94.9286 107.534C95.9321 110.954 97.5665 114.015 99.6617 116.637C99.0204 116.775 98.3795 116.929 97.7401 117.117C83.6769 121.242 75.6243 135.998 79.7539 150.074C83.8836 164.15 98.6318 172.216 112.695 168.09C119.877 165.983 125.485 161.101 128.71 154.955C135.327 160.896 144.768 163.379 153.921 160.694C160.58 158.74 165.888 154.402 169.196 148.883C173.822 150.181 178.853 150.244 183.801 148.792C188.464 147.424 192.46 144.883 195.577 141.59C201.217 144.217 207.793 144.888 214.23 143C221.18 140.961 226.659 136.323 229.928 130.456C235.385 132.784 241.65 133.305 247.786 131.505C261.849 127.379 269.901 112.624 265.772 98.5478C261.642 84.4717 246.894 76.4056 232.831 80.5314Z" fill="#CDEFEB"/>
<path d="M1057.64 110.296C1054.04 110.296 1050.56 110.804 1047.25 111.732C1052.34 105.216 1055.39 97.0193 1055.39 88.1058C1055.39 66.9031 1038.21 49.715 1017.03 49.715C1007.16 49.715 998.173 53.4432 991.377 59.5644C991.5 58.3118 991.566 57.0426 991.566 55.7577C991.566 34.5549 974.391 17.3667 953.204 17.3667C932.018 17.3667 914.843 34.5549 914.843 55.7577C914.843 57.0953 914.912 58.4167 915.046 59.7191C908.947 55.6306 901.614 53.2432 893.723 53.2432C872.536 53.2432 855.361 70.4313 855.361 91.634C855.361 96.7859 856.383 101.697 858.222 106.186C857.276 106.116 856.325 106.069 855.361 106.069C834.175 106.069 817 123.257 817 144.46C817 165.662 834.175 182.851 855.361 182.851C866.181 182.851 875.947 178.361 882.922 171.15C889.683 182.081 901.768 189.367 915.558 189.367C925.589 189.367 934.717 185.51 941.553 179.201C947.441 182.883 954.394 185.019 961.849 185.019C968.873 185.019 975.451 183.12 981.114 179.821C987.868 185.759 996.717 189.367 1006.41 189.367C1016.89 189.367 1026.37 185.163 1033.29 178.356C1039.92 183.805 1048.4 187.078 1057.64 187.078C1078.82 187.078 1096 169.89 1096 148.687C1096 127.484 1078.82 110.296 1057.64 110.296Z" fill="#CDEFEB"/>
<path d="M811.151 102.5C808.724 102.5 806.379 102.839 804.152 103.46C807.584 99.1033 809.635 93.6228 809.635 87.6632C809.635 73.487 798.062 61.9949 783.785 61.9949C777.139 61.9949 771.081 64.4876 766.501 68.5803C766.584 67.7428 766.629 66.8942 766.629 66.0351C766.629 51.8588 755.055 40.3667 740.779 40.3667C726.503 40.3667 714.93 51.8588 714.93 66.0351C714.93 66.9295 714.977 67.813 715.067 68.6837C710.957 65.9501 706.016 64.3539 700.699 64.3539C686.422 64.3539 674.849 75.846 674.849 90.0222C674.849 93.4668 675.537 96.7504 676.777 99.7518C676.14 99.705 675.498 99.6733 674.849 99.6733C660.573 99.6733 649 111.165 649 125.342C649 139.518 660.573 151.01 674.849 151.01C682.14 151.01 688.721 148.008 693.42 143.187C697.976 150.496 706.12 155.367 715.412 155.367C722.171 155.367 728.322 152.788 732.928 148.57C736.896 151.032 741.581 152.459 746.604 152.459C751.338 152.459 755.77 151.19 759.586 148.985C764.137 152.954 770.1 155.367 776.634 155.367C783.69 155.367 790.082 152.556 794.747 148.005C799.209 151.648 804.922 153.836 811.151 153.836C825.427 153.836 837 142.344 837 128.168C837 113.992 825.427 102.5 811.151 102.5Z" fill="#83BEB7"/>
<path fill-rule="evenodd" clip-rule="evenodd" d="M1081.55 218.367H70C62.5027 218.367 55.9689 214.241 52.5447 208.137C48.1581 209.887 43.3727 210.851 38.3615 210.851C17.175 210.851 0 193.662 0 172.46C0 151.257 17.175 134.069 38.3615 134.069C39.3247 134.069 40.2764 134.116 41.222 134.186C39.3827 129.697 38.3615 124.786 38.3615 119.634C38.3615 98.4314 55.5365 81.2432 76.7229 81.2432C84.6144 81.2432 91.9474 83.6306 98.0456 87.7191C97.912 86.4167 97.8429 85.0954 97.8429 83.7577C97.8429 62.5549 115.018 45.3667 136.204 45.3667C157.391 45.3667 174.566 62.5549 174.566 83.7577C174.566 85.0426 174.5 86.3119 174.377 87.5644C181.173 81.4432 190.164 77.715 200.027 77.715C207.521 77.715 214.512 79.8652 220.42 83.5827C224.492 72.7636 234.945 65.0655 247.198 65.0655C253.082 65.0655 258.549 66.8421 263.095 69.8848C262.995 68.9156 262.944 67.9322 262.944 66.9367C262.944 51.1579 275.748 38.3667 291.543 38.3667C307.338 38.3667 320.142 51.1579 320.142 66.9367C320.142 67.8929 320.093 68.8375 320.001 69.7697C325.068 65.2144 331.771 62.4398 339.124 62.4398C354.919 62.4398 367.724 75.231 367.724 91.0098C367.724 93.6071 367.376 96.1227 366.724 98.5135C369.403 97.7619 372.229 97.3599 375.148 97.3599C381.541 97.3599 387.481 99.2893 392.42 102.593C392.312 101.541 392.256 100.473 392.256 99.392C392.256 82.2571 406.169 68.3667 423.33 68.3667C440.492 68.3667 454.405 82.2571 454.405 99.392C454.405 100.43 454.351 101.456 454.251 102.468C459.757 97.5216 467.04 94.5086 475.029 94.5086C484.009 94.5086 492.1 98.3118 497.773 104.393C499.84 99.4914 503.495 94.8204 508.506 91.1925C520.562 82.4645 535.902 83.079 542.77 92.565C543.186 93.1399 543.56 93.7348 543.895 94.346C545.78 88.8076 549.689 83.4357 555.301 79.3725C567.357 70.6446 582.698 71.259 589.565 80.7449C592.452 84.7327 593.375 89.6539 592.587 94.6669C594.167 92.8902 595.983 91.2294 598.032 89.7459C609.545 81.4115 624.052 81.5961 631.317 89.8898C632.892 88.5751 634.631 87.3731 636.52 86.3172C649.511 79.0544 664.675 81.4534 670.39 91.6753C670.736 92.2948 671.038 92.9292 671.3 93.5753C673.817 88.2945 678.326 83.415 684.374 80.0339C697.365 72.7711 712.529 75.17 718.244 85.3919C720.646 89.6891 720.989 94.6843 719.622 99.5713C721.398 97.9909 723.396 96.5532 725.604 95.3187C738.261 88.2429 752.98 90.3378 759.014 99.9032C763.102 88.049 774.434 79.5256 787.773 79.5256C794.024 79.5256 799.833 81.3994 804.663 84.6084C804.558 83.5862 804.503 82.5491 804.503 81.4991C804.503 64.8574 818.107 51.3667 834.889 51.3667C851.672 51.3667 865.276 64.8574 865.276 81.4991C865.276 82.5077 865.224 83.5039 865.126 84.487C870.51 79.6826 877.632 76.7563 885.445 76.7563C892.223 76.7563 898.484 78.9574 903.538 82.6782C906.076 65.2987 921.131 51.9488 939.323 51.9488C946.762 51.9488 953.674 54.1835 959.423 58.0105C959.297 56.7915 959.232 55.5546 959.232 54.3024C959.232 34.4556 975.422 18.3667 995.393 18.3667C1015.36 18.3667 1031.55 34.4556 1031.55 54.3024C1031.55 55.5052 1031.49 56.6933 1031.38 57.8657C1037.78 52.136 1046.26 48.6462 1055.56 48.6462C1073.22 48.6462 1087.93 61.2337 1091.09 77.8753C1097.16 71.9916 1105.46 68.3667 1114.61 68.3667C1133.21 68.3667 1148.29 83.3564 1148.29 101.847C1148.29 102.968 1148.23 104.075 1148.13 105.167C1154.09 99.8288 1161.99 96.5774 1170.65 96.5774C1189.26 96.5774 1204.34 111.567 1204.34 130.058C1204.34 137.831 1201.66 144.98 1197.19 150.662C1200.09 149.852 1203.15 149.41 1206.31 149.41C1224.92 149.41 1240 164.4 1240 182.89C1240 201.381 1224.92 216.371 1206.31 216.371C1198.85 216.371 1191.95 213.955 1186.36 209.869C1182.74 215.009 1176.76 218.367 1170 218.367H1161.33H1081.55Z" fill="#92D3CA"/>
<path d="M82.5469 153.868L77.0469 135.946H76.9062C76.9271 136.373 76.9583 137.019 77 137.884C77.0521 138.738 77.099 139.649 77.1406 140.618C77.1823 141.587 77.2031 142.462 77.2031 143.243V153.868H72.875V131.024H79.4688L84.875 148.493H84.9688L90.7031 131.024H97.2969V153.868H92.7812V143.056C92.7812 142.337 92.7917 141.509 92.8125 140.571C92.8438 139.634 92.8802 138.743 92.9219 137.899C92.9635 137.045 92.9948 136.405 93.0156 135.978H92.875L86.9844 153.868H82.5469ZM109.844 136.04C112.188 136.04 113.984 136.55 115.234 137.571C116.484 138.592 117.109 140.144 117.109 142.228V153.868H113.781L112.859 151.493H112.734C112.234 152.118 111.724 152.629 111.203 153.024C110.682 153.42 110.083 153.712 109.406 153.899C108.729 154.087 107.906 154.181 106.938 154.181C105.906 154.181 104.979 153.983 104.156 153.587C103.344 153.191 102.703 152.587 102.234 151.774C101.766 150.951 101.531 149.91 101.531 148.649C101.531 146.795 102.182 145.431 103.484 144.556C104.786 143.67 106.74 143.181 109.344 143.087L112.375 142.993V142.228C112.375 141.311 112.135 140.639 111.656 140.212C111.177 139.785 110.51 139.571 109.656 139.571C108.812 139.571 107.984 139.691 107.172 139.931C106.359 140.17 105.547 140.472 104.734 140.837L103.156 137.618C104.083 137.129 105.12 136.743 106.266 136.462C107.422 136.181 108.615 136.04 109.844 136.04ZM112.375 145.774L110.531 145.837C108.99 145.879 107.917 146.155 107.312 146.665C106.719 147.175 106.422 147.847 106.422 148.681C106.422 149.41 106.635 149.931 107.062 150.243C107.49 150.545 108.047 150.696 108.734 150.696C109.755 150.696 110.615 150.394 111.312 149.79C112.021 149.186 112.375 148.326 112.375 147.212V145.774ZM131.781 136.071C132.021 136.071 132.297 136.087 132.609 136.118C132.932 136.139 133.193 136.17 133.391 136.212L133.031 140.681C132.875 140.629 132.651 140.592 132.359 140.571C132.078 140.54 131.833 140.524 131.625 140.524C131.01 140.524 130.411 140.603 129.828 140.759C129.255 140.915 128.74 141.17 128.281 141.524C127.823 141.868 127.458 142.326 127.188 142.899C126.927 143.462 126.797 144.155 126.797 144.978V153.868H122.031V136.399H125.641L126.344 139.337H126.578C126.922 138.743 127.349 138.201 127.859 137.712C128.38 137.212 128.969 136.816 129.625 136.524C130.292 136.222 131.01 136.071 131.781 136.071ZM143.656 154.181C141.927 154.181 140.453 153.868 139.234 153.243C138.016 152.608 137.089 151.629 136.453 150.306C135.818 148.983 135.5 147.29 135.5 145.228C135.5 143.092 135.859 141.353 136.578 140.009C137.307 138.655 138.312 137.66 139.594 137.024C140.885 136.389 142.38 136.071 144.078 136.071C145.286 136.071 146.328 136.191 147.203 136.431C148.089 136.66 148.859 136.936 149.516 137.259L148.109 140.946C147.359 140.644 146.661 140.399 146.016 140.212C145.37 140.014 144.724 139.915 144.078 139.915C143.245 139.915 142.552 140.113 142 140.509C141.448 140.894 141.036 141.478 140.766 142.259C140.495 143.04 140.359 144.019 140.359 145.196C140.359 146.353 140.505 147.311 140.797 148.071C141.089 148.832 141.51 149.399 142.062 149.774C142.615 150.139 143.286 150.321 144.078 150.321C145.068 150.321 145.948 150.191 146.719 149.931C147.49 149.66 148.24 149.285 148.969 148.806V152.884C148.24 153.342 147.474 153.67 146.672 153.868C145.88 154.076 144.875 154.181 143.656 154.181ZM168.906 145.103C168.906 146.561 168.708 147.853 168.312 148.978C167.927 150.103 167.359 151.056 166.609 151.837C165.87 152.608 164.974 153.191 163.922 153.587C162.88 153.983 161.703 154.181 160.391 154.181C159.161 154.181 158.031 153.983 157 153.587C155.979 153.191 155.089 152.608 154.328 151.837C153.578 151.056 152.995 150.103 152.578 148.978C152.172 147.853 151.969 146.561 151.969 145.103C151.969 143.165 152.312 141.524 153 140.181C153.688 138.837 154.667 137.816 155.938 137.118C157.208 136.42 158.724 136.071 160.484 136.071C162.12 136.071 163.568 136.42 164.828 137.118C166.099 137.816 167.094 138.837 167.812 140.181C168.542 141.524 168.906 143.165 168.906 145.103ZM156.828 145.103C156.828 146.248 156.953 147.212 157.203 147.993C157.453 148.774 157.844 149.363 158.375 149.759C158.906 150.155 159.599 150.353 160.453 150.353C161.297 150.353 161.979 150.155 162.5 149.759C163.031 149.363 163.417 148.774 163.656 147.993C163.906 147.212 164.031 146.248 164.031 145.103C164.031 143.946 163.906 142.988 163.656 142.228C163.417 141.457 163.031 140.879 162.5 140.493C161.969 140.108 161.276 139.915 160.422 139.915C159.161 139.915 158.245 140.347 157.672 141.212C157.109 142.076 156.828 143.373 156.828 145.103ZM185.031 148.681C185.031 149.868 184.75 150.873 184.188 151.696C183.635 152.509 182.807 153.129 181.703 153.556C180.599 153.972 179.224 154.181 177.578 154.181C176.359 154.181 175.312 154.103 174.438 153.946C173.573 153.79 172.698 153.53 171.812 153.165V149.228C172.76 149.655 173.776 150.009 174.859 150.29C175.953 150.561 176.911 150.696 177.734 150.696C178.661 150.696 179.323 150.561 179.719 150.29C180.125 150.009 180.328 149.644 180.328 149.196C180.328 148.905 180.245 148.644 180.078 148.415C179.922 148.175 179.578 147.91 179.047 147.618C178.516 147.316 177.682 146.925 176.547 146.446C175.453 145.988 174.552 145.524 173.844 145.056C173.146 144.587 172.625 144.035 172.281 143.399C171.948 142.754 171.781 141.936 171.781 140.946C171.781 139.332 172.406 138.118 173.656 137.306C174.917 136.483 176.599 136.071 178.703 136.071C179.786 136.071 180.818 136.181 181.797 136.399C182.786 136.618 183.802 136.967 184.844 137.446L183.406 140.884C182.542 140.509 181.724 140.201 180.953 139.962C180.193 139.722 179.417 139.603 178.625 139.603C177.927 139.603 177.401 139.696 177.047 139.884C176.693 140.071 176.516 140.358 176.516 140.743C176.516 141.024 176.604 141.274 176.781 141.493C176.969 141.712 177.323 141.957 177.844 142.228C178.375 142.488 179.151 142.826 180.172 143.243C181.161 143.649 182.021 144.076 182.75 144.524C183.479 144.962 184.042 145.509 184.438 146.165C184.833 146.811 185.031 147.649 185.031 148.681ZM202.594 154.181C200.646 154.181 199.057 153.42 197.828 151.899C196.609 150.368 196 148.123 196 145.165C196 142.175 196.62 139.915 197.859 138.384C199.099 136.842 200.719 136.071 202.719 136.071C203.552 136.071 204.286 136.186 204.922 136.415C205.557 136.644 206.104 136.951 206.562 137.337C207.031 137.722 207.427 138.155 207.75 138.634H207.906C207.844 138.3 207.766 137.811 207.672 137.165C207.589 136.509 207.547 135.837 207.547 135.149V129.556H212.328V153.868H208.672L207.75 151.603H207.547C207.245 152.082 206.865 152.519 206.406 152.915C205.958 153.3 205.422 153.608 204.797 153.837C204.172 154.066 203.438 154.181 202.594 154.181ZM204.266 150.384C205.568 150.384 206.484 149.998 207.016 149.228C207.557 148.446 207.844 147.274 207.875 145.712V145.196C207.875 143.498 207.615 142.201 207.094 141.306C206.573 140.399 205.604 139.946 204.188 139.946C203.135 139.946 202.312 140.399 201.719 141.306C201.125 142.212 200.828 143.519 200.828 145.228C200.828 146.936 201.125 148.222 201.719 149.087C202.323 149.951 203.172 150.384 204.266 150.384ZM233.188 145.103C233.188 146.561 232.99 147.853 232.594 148.978C232.208 150.103 231.641 151.056 230.891 151.837C230.151 152.608 229.255 153.191 228.203 153.587C227.161 153.983 225.984 154.181 224.672 154.181C223.443 154.181 222.312 153.983 221.281 153.587C220.26 153.191 219.37 152.608 218.609 151.837C217.859 151.056 217.276 150.103 216.859 148.978C216.453 147.853 216.25 146.561 216.25 145.103C216.25 143.165 216.594 141.524 217.281 140.181C217.969 138.837 218.948 137.816 220.219 137.118C221.49 136.42 223.005 136.071 224.766 136.071C226.401 136.071 227.849 136.42 229.109 137.118C230.38 137.816 231.375 138.837 232.094 140.181C232.823 141.524 233.188 143.165 233.188 145.103ZM221.109 145.103C221.109 146.248 221.234 147.212 221.484 147.993C221.734 148.774 222.125 149.363 222.656 149.759C223.188 150.155 223.88 150.353 224.734 150.353C225.578 150.353 226.26 150.155 226.781 149.759C227.312 149.363 227.698 148.774 227.938 147.993C228.188 147.212 228.312 146.248 228.312 145.103C228.312 143.946 228.188 142.988 227.938 142.228C227.698 141.457 227.312 140.879 226.781 140.493C226.25 140.108 225.557 139.915 224.703 139.915C223.443 139.915 222.526 140.347 221.953 141.212C221.391 142.076 221.109 143.373 221.109 145.103ZM250.969 154.181C249.021 154.181 247.432 153.42 246.203 151.899C244.984 150.368 244.375 148.123 244.375 145.165C244.375 142.175 244.995 139.915 246.234 138.384C247.474 136.842 249.094 136.071 251.094 136.071C251.927 136.071 252.661 136.186 253.297 136.415C253.932 136.644 254.479 136.951 254.938 137.337C255.406 137.722 255.802 138.155 256.125 138.634H256.281C256.219 138.3 256.141 137.811 256.047 137.165C255.964 136.509 255.922 135.837 255.922 135.149V129.556H260.703V153.868H257.047L256.125 151.603H255.922C255.62 152.082 255.24 152.519 254.781 152.915C254.333 153.3 253.797 153.608 253.172 153.837C252.547 154.066 251.812 154.181 250.969 154.181ZM252.641 150.384C253.943 150.384 254.859 149.998 255.391 149.228C255.932 148.446 256.219 147.274 256.25 145.712V145.196C256.25 143.498 255.99 142.201 255.469 141.306C254.948 140.399 253.979 139.946 252.562 139.946C251.51 139.946 250.688 140.399 250.094 141.306C249.5 142.212 249.203 143.519 249.203 145.228C249.203 146.936 249.5 148.222 250.094 149.087C250.698 149.951 251.547 150.384 252.641 150.384ZM272.891 136.071C274.505 136.071 275.896 136.384 277.062 137.009C278.229 137.623 279.13 138.519 279.766 139.696C280.401 140.873 280.719 142.311 280.719 144.009V146.321H269.453C269.505 147.665 269.906 148.722 270.656 149.493C271.417 150.254 272.469 150.634 273.812 150.634C274.927 150.634 275.948 150.519 276.875 150.29C277.802 150.061 278.755 149.717 279.734 149.259V152.946C278.87 153.373 277.964 153.686 277.016 153.884C276.078 154.082 274.938 154.181 273.594 154.181C271.844 154.181 270.292 153.858 268.938 153.212C267.594 152.566 266.536 151.582 265.766 150.259C265.005 148.936 264.625 147.269 264.625 145.259C264.625 143.217 264.969 141.519 265.656 140.165C266.354 138.8 267.323 137.78 268.562 137.103C269.802 136.415 271.245 136.071 272.891 136.071ZM272.922 139.462C271.995 139.462 271.224 139.759 270.609 140.353C270.005 140.946 269.656 141.879 269.562 143.149H276.25C276.24 142.441 276.109 141.811 275.859 141.259C275.62 140.707 275.255 140.269 274.766 139.946C274.286 139.623 273.672 139.462 272.922 139.462ZM296.781 148.681C296.781 149.868 296.5 150.873 295.938 151.696C295.385 152.509 294.557 153.129 293.453 153.556C292.349 153.972 290.974 154.181 289.328 154.181C288.109 154.181 287.062 154.103 286.188 153.946C285.323 153.79 284.448 153.53 283.562 153.165V149.228C284.51 149.655 285.526 150.009 286.609 150.29C287.703 150.561 288.661 150.696 289.484 150.696C290.411 150.696 291.073 150.561 291.469 150.29C291.875 150.009 292.078 149.644 292.078 149.196C292.078 148.905 291.995 148.644 291.828 148.415C291.672 148.175 291.328 147.91 290.797 147.618C290.266 147.316 289.432 146.925 288.297 146.446C287.203 145.988 286.302 145.524 285.594 145.056C284.896 144.587 284.375 144.035 284.031 143.399C283.698 142.754 283.531 141.936 283.531 140.946C283.531 139.332 284.156 138.118 285.406 137.306C286.667 136.483 288.349 136.071 290.453 136.071C291.536 136.071 292.568 136.181 293.547 136.399C294.536 136.618 295.552 136.967 296.594 137.446L295.156 140.884C294.292 140.509 293.474 140.201 292.703 139.962C291.943 139.722 291.167 139.603 290.375 139.603C289.677 139.603 289.151 139.696 288.797 139.884C288.443 140.071 288.266 140.358 288.266 140.743C288.266 141.024 288.354 141.274 288.531 141.493C288.719 141.712 289.073 141.957 289.594 142.228C290.125 142.488 290.901 142.826 291.922 143.243C292.911 143.649 293.771 144.076 294.5 144.524C295.229 144.962 295.792 145.509 296.188 146.165C296.583 146.811 296.781 147.649 296.781 148.681ZM307.703 136.071C309.318 136.071 310.708 136.384 311.875 137.009C313.042 137.623 313.943 138.519 314.578 139.696C315.214 140.873 315.531 142.311 315.531 144.009V146.321H304.266C304.318 147.665 304.719 148.722 305.469 149.493C306.229 150.254 307.281 150.634 308.625 150.634C309.74 150.634 310.76 150.519 311.688 150.29C312.615 150.061 313.568 149.717 314.547 149.259V152.946C313.682 153.373 312.776 153.686 311.828 153.884C310.891 154.082 309.75 154.181 308.406 154.181C306.656 154.181 305.104 153.858 303.75 153.212C302.406 152.566 301.349 151.582 300.578 150.259C299.818 148.936 299.438 147.269 299.438 145.259C299.438 143.217 299.781 141.519 300.469 140.165C301.167 138.8 302.135 137.78 303.375 137.103C304.615 136.415 306.057 136.071 307.703 136.071ZM307.734 139.462C306.807 139.462 306.036 139.759 305.422 140.353C304.818 140.946 304.469 141.879 304.375 143.149H311.062C311.052 142.441 310.922 141.811 310.672 141.259C310.432 140.707 310.068 140.269 309.578 139.946C309.099 139.623 308.484 139.462 307.734 139.462ZM329.328 136.071C331.193 136.071 332.693 136.582 333.828 137.603C334.964 138.613 335.531 140.238 335.531 142.478V153.868H330.766V143.665C330.766 142.415 330.536 141.472 330.078 140.837C329.63 140.201 328.922 139.884 327.953 139.884C326.495 139.884 325.5 140.379 324.969 141.368C324.438 142.358 324.172 143.785 324.172 145.649V153.868H319.406V136.399H323.047L323.688 138.634H323.953C324.328 138.03 324.792 137.54 325.344 137.165C325.906 136.79 326.526 136.514 327.203 136.337C327.891 136.16 328.599 136.071 329.328 136.071ZM344.594 153.868L337.938 136.399H342.922L346.297 146.353C346.484 146.936 346.63 147.55 346.734 148.196C346.849 148.842 346.927 149.42 346.969 149.931H347.094C347.125 149.379 347.198 148.79 347.312 148.165C347.438 147.54 347.599 146.936 347.797 146.353L351.156 136.399H356.141L349.484 153.868H344.594ZM374.531 145.103C374.531 146.561 374.333 147.853 373.938 148.978C373.552 150.103 372.984 151.056 372.234 151.837C371.495 152.608 370.599 153.191 369.547 153.587C368.505 153.983 367.328 154.181 366.016 154.181C364.786 154.181 363.656 153.983 362.625 153.587C361.604 153.191 360.714 152.608 359.953 151.837C359.203 151.056 358.62 150.103 358.203 148.978C357.797 147.853 357.594 146.561 357.594 145.103C357.594 143.165 357.938 141.524 358.625 140.181C359.312 138.837 360.292 137.816 361.562 137.118C362.833 136.42 364.349 136.071 366.109 136.071C367.745 136.071 369.193 136.42 370.453 137.118C371.724 137.816 372.719 138.837 373.438 140.181C374.167 141.524 374.531 143.165 374.531 145.103ZM362.453 145.103C362.453 146.248 362.578 147.212 362.828 147.993C363.078 148.774 363.469 149.363 364 149.759C364.531 150.155 365.224 150.353 366.078 150.353C366.922 150.353 367.604 150.155 368.125 149.759C368.656 149.363 369.042 148.774 369.281 147.993C369.531 147.212 369.656 146.248 369.656 145.103C369.656 143.946 369.531 142.988 369.281 142.228C369.042 141.457 368.656 140.879 368.125 140.493C367.594 140.108 366.901 139.915 366.047 139.915C364.786 139.915 363.87 140.347 363.297 141.212C362.734 142.076 362.453 143.373 362.453 145.103ZM383.234 153.868H378.469V129.556H383.234V153.868ZM392.406 153.868L385.75 136.399H390.734L394.109 146.353C394.297 146.936 394.443 147.55 394.547 148.196C394.661 148.842 394.74 149.42 394.781 149.931H394.906C394.938 149.379 395.01 148.79 395.125 148.165C395.25 147.54 395.411 146.936 395.609 146.353L398.969 136.399H403.953L397.297 153.868H392.406ZM411.234 136.399V153.868H406.469V136.399H411.234ZM408.859 129.556C409.568 129.556 410.177 129.722 410.688 130.056C411.198 130.379 411.453 130.988 411.453 131.884C411.453 132.769 411.198 133.384 410.688 133.728C410.177 134.061 409.568 134.228 408.859 134.228C408.141 134.228 407.526 134.061 407.016 133.728C406.516 133.384 406.266 132.769 406.266 131.884C406.266 130.988 406.516 130.379 407.016 130.056C407.526 129.722 408.141 129.556 408.859 129.556ZM436.766 136.071C438.745 136.071 440.24 136.582 441.25 137.603C442.271 138.613 442.781 140.238 442.781 142.478V153.868H438V143.665C438 142.415 437.786 141.472 437.359 140.837C436.932 140.201 436.271 139.884 435.375 139.884C434.115 139.884 433.219 140.337 432.688 141.243C432.156 142.139 431.891 143.425 431.891 145.103V153.868H427.125V143.665C427.125 142.832 427.031 142.134 426.844 141.571C426.656 141.009 426.37 140.587 425.984 140.306C425.599 140.024 425.104 139.884 424.5 139.884C423.615 139.884 422.917 140.108 422.406 140.556C421.906 140.993 421.547 141.644 421.328 142.509C421.12 143.363 421.016 144.41 421.016 145.649V153.868H416.25V136.399H419.891L420.531 138.634H420.797C421.151 138.03 421.594 137.54 422.125 137.165C422.667 136.79 423.26 136.514 423.906 136.337C424.552 136.16 425.208 136.071 425.875 136.071C427.156 136.071 428.24 136.28 429.125 136.696C430.021 137.113 430.708 137.759 431.188 138.634H431.609C432.13 137.738 432.865 137.087 433.812 136.681C434.771 136.274 435.755 136.071 436.766 136.071ZM454.891 136.071C456.505 136.071 457.896 136.384 459.062 137.009C460.229 137.623 461.13 138.519 461.766 139.696C462.401 140.873 462.719 142.311 462.719 144.009V146.321H451.453C451.505 147.665 451.906 148.722 452.656 149.493C453.417 150.254 454.469 150.634 455.812 150.634C456.927 150.634 457.948 150.519 458.875 150.29C459.802 150.061 460.755 149.717 461.734 149.259V152.946C460.87 153.373 459.964 153.686 459.016 153.884C458.078 154.082 456.938 154.181 455.594 154.181C453.844 154.181 452.292 153.858 450.938 153.212C449.594 152.566 448.536 151.582 447.766 150.259C447.005 148.936 446.625 147.269 446.625 145.259C446.625 143.217 446.969 141.519 447.656 140.165C448.354 138.8 449.323 137.78 450.562 137.103C451.802 136.415 453.245 136.071 454.891 136.071ZM454.922 139.462C453.995 139.462 453.224 139.759 452.609 140.353C452.005 140.946 451.656 141.879 451.562 143.149H458.25C458.24 142.441 458.109 141.811 457.859 141.259C457.62 140.707 457.255 140.269 456.766 139.946C456.286 139.623 455.672 139.462 454.922 139.462ZM476.516 136.071C478.38 136.071 479.88 136.582 481.016 137.603C482.151 138.613 482.719 140.238 482.719 142.478V153.868H477.953V143.665C477.953 142.415 477.724 141.472 477.266 140.837C476.818 140.201 476.109 139.884 475.141 139.884C473.682 139.884 472.688 140.379 472.156 141.368C471.625 142.358 471.359 143.785 471.359 145.649V153.868H466.594V136.399H470.234L470.875 138.634H471.141C471.516 138.03 471.979 137.54 472.531 137.165C473.094 136.79 473.714 136.514 474.391 136.337C475.078 136.16 475.786 136.071 476.516 136.071ZM494.984 150.384C495.505 150.384 496.01 150.332 496.5 150.228C497 150.123 497.495 149.993 497.984 149.837V153.384C497.474 153.613 496.839 153.8 496.078 153.946C495.328 154.103 494.505 154.181 493.609 154.181C492.568 154.181 491.63 154.014 490.797 153.681C489.974 153.337 489.323 152.748 488.844 151.915C488.375 151.071 488.141 149.899 488.141 148.399V139.978H485.859V137.962L488.484 136.368L489.859 132.681H492.906V136.399H497.797V139.978H492.906V148.399C492.906 149.066 493.094 149.566 493.469 149.899C493.854 150.222 494.359 150.384 494.984 150.384ZM517.406 145.103C517.406 146.561 517.208 147.853 516.812 148.978C516.427 150.103 515.859 151.056 515.109 151.837C514.37 152.608 513.474 153.191 512.422 153.587C511.38 153.983 510.203 154.181 508.891 154.181C507.661 154.181 506.531 153.983 505.5 153.587C504.479 153.191 503.589 152.608 502.828 151.837C502.078 151.056 501.495 150.103 501.078 148.978C500.672 147.853 500.469 146.561 500.469 145.103C500.469 143.165 500.812 141.524 501.5 140.181C502.188 138.837 503.167 137.816 504.438 137.118C505.708 136.42 507.224 136.071 508.984 136.071C510.62 136.071 512.068 136.42 513.328 137.118C514.599 137.816 515.594 138.837 516.312 140.181C517.042 141.524 517.406 143.165 517.406 145.103ZM505.328 145.103C505.328 146.248 505.453 147.212 505.703 147.993C505.953 148.774 506.344 149.363 506.875 149.759C507.406 150.155 508.099 150.353 508.953 150.353C509.797 150.353 510.479 150.155 511 149.759C511.531 149.363 511.917 148.774 512.156 147.993C512.406 147.212 512.531 146.248 512.531 145.103C512.531 143.946 512.406 142.988 512.156 142.228C511.917 141.457 511.531 140.879 511 140.493C510.469 140.108 509.776 139.915 508.922 139.915C507.661 139.915 506.745 140.347 506.172 141.212C505.609 142.076 505.328 143.373 505.328 145.103ZM78.0312 194.181C76.0833 194.181 74.4948 193.42 73.2656 191.899C72.0469 190.368 71.4375 188.123 71.4375 185.165C71.4375 182.175 72.0573 179.915 73.2969 178.384C74.5365 176.842 76.1562 176.071 78.1562 176.071C78.9896 176.071 79.724 176.186 80.3594 176.415C80.9948 176.644 81.5417 176.951 82 177.337C82.4688 177.722 82.8646 178.155 83.1875 178.634H83.3438C83.2812 178.3 83.2031 177.811 83.1094 177.165C83.026 176.509 82.9844 175.837 82.9844 175.149V169.556H87.7656V193.868H84.1094L83.1875 191.603H82.9844C82.6823 192.082 82.3021 192.519 81.8438 192.915C81.3958 193.3 80.8594 193.608 80.2344 193.837C79.6094 194.066 78.875 194.181 78.0312 194.181ZM79.7031 190.384C81.0052 190.384 81.9219 189.998 82.4531 189.228C82.9948 188.446 83.2812 187.274 83.3125 185.712V185.196C83.3125 183.498 83.0521 182.201 82.5312 181.306C82.0104 180.399 81.0417 179.946 79.625 179.946C78.5729 179.946 77.75 180.399 77.1562 181.306C76.5625 182.212 76.2656 183.519 76.2656 185.228C76.2656 186.936 76.5625 188.222 77.1562 189.087C77.7604 189.951 78.6094 190.384 79.7031 190.384ZM99.9531 176.071C101.568 176.071 102.958 176.384 104.125 177.009C105.292 177.623 106.193 178.519 106.828 179.696C107.464 180.873 107.781 182.311 107.781 184.009V186.321H96.5156C96.5677 187.665 96.9688 188.722 97.7188 189.493C98.4792 190.254 99.5312 190.634 100.875 190.634C101.99 190.634 103.01 190.519 103.938 190.29C104.865 190.061 105.818 189.717 106.797 189.259V192.946C105.932 193.373 105.026 193.686 104.078 193.884C103.141 194.082 102 194.181 100.656 194.181C98.9062 194.181 97.3542 193.858 96 193.212C94.6562 192.566 93.599 191.582 92.8281 190.259C92.0677 188.936 91.6875 187.269 91.6875 185.259C91.6875 183.217 92.0312 181.519 92.7188 180.165C93.4167 178.8 94.3854 177.78 95.625 177.103C96.8646 176.415 98.3073 176.071 99.9531 176.071ZM99.9844 179.462C99.0573 179.462 98.2865 179.759 97.6719 180.353C97.0677 180.946 96.7188 181.879 96.625 183.149H103.312C103.302 182.441 103.172 181.811 102.922 181.259C102.682 180.707 102.318 180.269 101.828 179.946C101.349 179.623 100.734 179.462 99.9844 179.462ZM118.594 184.165C118.594 182.853 118.688 181.556 118.875 180.274C119.073 178.983 119.411 177.769 119.891 176.634C120.37 175.488 121.042 174.478 121.906 173.603C122.771 172.717 123.87 172.024 125.203 171.524C126.536 171.014 128.151 170.759 130.047 170.759C130.495 170.759 131.016 170.78 131.609 170.821C132.214 170.853 132.714 170.91 133.109 170.993V174.853C132.693 174.759 132.245 174.686 131.766 174.634C131.297 174.571 130.828 174.54 130.359 174.54C128.464 174.54 126.995 174.842 125.953 175.446C124.922 176.05 124.193 176.889 123.766 177.962C123.349 179.024 123.104 180.264 123.031 181.681H123.234C123.526 181.17 123.891 180.717 124.328 180.321C124.776 179.925 125.318 179.613 125.953 179.384C126.589 179.144 127.333 179.024 128.188 179.024C129.521 179.024 130.677 179.311 131.656 179.884C132.635 180.446 133.391 181.264 133.922 182.337C134.453 183.41 134.719 184.717 134.719 186.259C134.719 187.905 134.401 189.321 133.766 190.509C133.13 191.696 132.229 192.608 131.062 193.243C129.906 193.868 128.531 194.181 126.938 194.181C125.771 194.181 124.682 193.983 123.672 193.587C122.661 193.181 121.776 192.566 121.016 191.743C120.255 190.92 119.661 189.884 119.234 188.634C118.807 187.373 118.594 185.884 118.594 184.165ZM126.844 190.321C127.792 190.321 128.562 189.998 129.156 189.353C129.75 188.707 130.047 187.696 130.047 186.321C130.047 185.207 129.786 184.332 129.266 183.696C128.755 183.05 127.979 182.728 126.938 182.728C126.229 182.728 125.604 182.889 125.062 183.212C124.531 183.524 124.12 183.925 123.828 184.415C123.536 184.894 123.391 185.389 123.391 185.899C123.391 186.431 123.464 186.957 123.609 187.478C123.755 187.998 123.974 188.472 124.266 188.899C124.557 189.326 124.917 189.67 125.344 189.931C125.781 190.191 126.281 190.321 126.844 190.321ZM153.75 176.04C156.094 176.04 157.891 176.55 159.141 177.571C160.391 178.592 161.016 180.144 161.016 182.228V193.868H157.688L156.766 191.493H156.641C156.141 192.118 155.63 192.629 155.109 193.024C154.589 193.42 153.99 193.712 153.312 193.899C152.635 194.087 151.812 194.181 150.844 194.181C149.812 194.181 148.885 193.983 148.062 193.587C147.25 193.191 146.609 192.587 146.141 191.774C145.672 190.951 145.438 189.91 145.438 188.649C145.438 186.795 146.089 185.431 147.391 184.556C148.693 183.67 150.646 183.181 153.25 183.087L156.281 182.993V182.228C156.281 181.311 156.042 180.639 155.562 180.212C155.083 179.785 154.417 179.571 153.562 179.571C152.719 179.571 151.891 179.691 151.078 179.931C150.266 180.17 149.453 180.472 148.641 180.837L147.062 177.618C147.99 177.129 149.026 176.743 150.172 176.462C151.328 176.181 152.521 176.04 153.75 176.04ZM156.281 185.774L154.438 185.837C152.896 185.879 151.823 186.155 151.219 186.665C150.625 187.175 150.328 187.847 150.328 188.681C150.328 189.41 150.542 189.931 150.969 190.243C151.396 190.545 151.953 190.696 152.641 190.696C153.661 190.696 154.521 190.394 155.219 189.79C155.927 189.186 156.281 188.326 156.281 187.212V185.774ZM184.969 193.868H180.141V180.649C180.141 180.285 180.146 179.837 180.156 179.306C180.167 178.764 180.182 178.212 180.203 177.649C180.224 177.076 180.245 176.561 180.266 176.103C180.151 176.238 179.917 176.472 179.562 176.806C179.219 177.129 178.896 177.42 178.594 177.681L175.969 179.79L173.641 176.884L181 171.024H184.969V193.868ZM207.188 182.446C207.188 184.29 207.042 185.936 206.75 187.384C206.469 188.832 206.01 190.061 205.375 191.071C204.75 192.082 203.927 192.853 202.906 193.384C201.885 193.915 200.646 194.181 199.188 194.181C197.354 194.181 195.849 193.717 194.672 192.79C193.495 191.853 192.625 190.509 192.062 188.759C191.5 186.998 191.219 184.894 191.219 182.446C191.219 179.978 191.474 177.868 191.984 176.118C192.505 174.358 193.349 173.009 194.516 172.071C195.682 171.134 197.24 170.665 199.188 170.665C201.01 170.665 202.51 171.134 203.688 172.071C204.875 172.998 205.755 174.342 206.328 176.103C206.901 177.853 207.188 179.967 207.188 182.446ZM196.016 182.446C196.016 184.186 196.109 185.639 196.297 186.806C196.495 187.962 196.823 188.832 197.281 189.415C197.74 189.998 198.375 190.29 199.188 190.29C199.99 190.29 200.62 190.004 201.078 189.431C201.547 188.847 201.88 187.978 202.078 186.821C202.276 185.655 202.375 184.196 202.375 182.446C202.375 180.707 202.276 179.254 202.078 178.087C201.88 176.92 201.547 176.045 201.078 175.462C200.62 174.868 199.99 174.571 199.188 174.571C198.375 174.571 197.74 174.868 197.281 175.462C196.823 176.045 196.495 176.92 196.297 178.087C196.109 179.254 196.016 180.707 196.016 182.446ZM226.344 176.04C228.688 176.04 230.484 176.55 231.734 177.571C232.984 178.592 233.609 180.144 233.609 182.228V193.868H230.281L229.359 191.493H229.234C228.734 192.118 228.224 192.629 227.703 193.024C227.182 193.42 226.583 193.712 225.906 193.899C225.229 194.087 224.406 194.181 223.438 194.181C222.406 194.181 221.479 193.983 220.656 193.587C219.844 193.191 219.203 192.587 218.734 191.774C218.266 190.951 218.031 189.91 218.031 188.649C218.031 186.795 218.682 185.431 219.984 184.556C221.286 183.67 223.24 183.181 225.844 183.087L228.875 182.993V182.228C228.875 181.311 228.635 180.639 228.156 180.212C227.677 179.785 227.01 179.571 226.156 179.571C225.312 179.571 224.484 179.691 223.672 179.931C222.859 180.17 222.047 180.472 221.234 180.837L219.656 177.618C220.583 177.129 221.62 176.743 222.766 176.462C223.922 176.181 225.115 176.04 226.344 176.04ZM228.875 185.774L227.031 185.837C225.49 185.879 224.417 186.155 223.812 186.665C223.219 187.175 222.922 187.847 222.922 188.681C222.922 189.41 223.135 189.931 223.562 190.243C223.99 190.545 224.547 190.696 225.234 190.696C226.255 190.696 227.115 190.394 227.812 189.79C228.521 189.186 228.875 188.326 228.875 187.212V185.774ZM248.453 176.071C250.318 176.071 251.818 176.582 252.953 177.603C254.089 178.613 254.656 180.238 254.656 182.478V193.868H249.891V183.665C249.891 182.415 249.661 181.472 249.203 180.837C248.755 180.201 248.047 179.884 247.078 179.884C245.62 179.884 244.625 180.379 244.094 181.368C243.562 182.358 243.297 183.785 243.297 185.649V193.868H238.531V176.399H242.172L242.812 178.634H243.078C243.453 178.03 243.917 177.54 244.469 177.165C245.031 176.79 245.651 176.514 246.328 176.337C247.016 176.16 247.724 176.071 248.453 176.071ZM275.438 185.103C275.438 186.561 275.24 187.853 274.844 188.978C274.458 190.103 273.891 191.056 273.141 191.837C272.401 192.608 271.505 193.191 270.453 193.587C269.411 193.983 268.234 194.181 266.922 194.181C265.693 194.181 264.562 193.983 263.531 193.587C262.51 193.191 261.62 192.608 260.859 191.837C260.109 191.056 259.526 190.103 259.109 188.978C258.703 187.853 258.5 186.561 258.5 185.103C258.5 183.165 258.844 181.524 259.531 180.181C260.219 178.837 261.198 177.816 262.469 177.118C263.74 176.42 265.255 176.071 267.016 176.071C268.651 176.071 270.099 176.42 271.359 177.118C272.63 177.816 273.625 178.837 274.344 180.181C275.073 181.524 275.438 183.165 275.438 185.103ZM263.359 185.103C263.359 186.248 263.484 187.212 263.734 187.993C263.984 188.774 264.375 189.363 264.906 189.759C265.438 190.155 266.13 190.353 266.984 190.353C267.828 190.353 268.51 190.155 269.031 189.759C269.562 189.363 269.948 188.774 270.188 187.993C270.438 187.212 270.562 186.248 270.562 185.103C270.562 183.946 270.438 182.988 270.188 182.228C269.948 181.457 269.562 180.879 269.031 180.493C268.5 180.108 267.807 179.915 266.953 179.915C265.693 179.915 264.776 180.347 264.203 181.212C263.641 182.076 263.359 183.373 263.359 185.103ZM291.562 188.681C291.562 189.868 291.281 190.873 290.719 191.696C290.167 192.509 289.339 193.129 288.234 193.556C287.13 193.972 285.755 194.181 284.109 194.181C282.891 194.181 281.844 194.103 280.969 193.946C280.104 193.79 279.229 193.53 278.344 193.165V189.228C279.292 189.655 280.307 190.009 281.391 190.29C282.484 190.561 283.443 190.696 284.266 190.696C285.193 190.696 285.854 190.561 286.25 190.29C286.656 190.009 286.859 189.644 286.859 189.196C286.859 188.905 286.776 188.644 286.609 188.415C286.453 188.175 286.109 187.91 285.578 187.618C285.047 187.316 284.214 186.925 283.078 186.446C281.984 185.988 281.083 185.524 280.375 185.056C279.677 184.587 279.156 184.035 278.812 183.399C278.479 182.754 278.312 181.936 278.312 180.946C278.312 179.332 278.938 178.118 280.188 177.306C281.448 176.483 283.13 176.071 285.234 176.071C286.318 176.071 287.349 176.181 288.328 176.399C289.318 176.618 290.333 176.967 291.375 177.446L289.938 180.884C289.073 180.509 288.255 180.201 287.484 179.962C286.724 179.722 285.948 179.603 285.156 179.603C284.458 179.603 283.932 179.696 283.578 179.884C283.224 180.071 283.047 180.358 283.047 180.743C283.047 181.024 283.135 181.274 283.312 181.493C283.5 181.712 283.854 181.957 284.375 182.228C284.906 182.488 285.682 182.826 286.703 183.243C287.693 183.649 288.552 184.076 289.281 184.524C290.01 184.962 290.573 185.509 290.969 186.165C291.365 186.811 291.562 187.649 291.562 188.681Z" fill="white"/>
<g filter="url(#filter0_d_492_3048)">
<path fill-rule="evenodd" clip-rule="evenodd" d="M659.26 216.56H648.201C632.757 213.936 621 200.544 621 184.419C621 166.411 635.663 151.812 653.75 151.812C661.641 151.812 668.879 154.592 674.533 159.22C680.442 153.438 688.541 149.868 697.481 149.868C705.759 149.868 713.313 152.933 719.079 157.976C723.914 155.174 729.529 153.561 735.526 153.561C741.891 153.561 747.826 155.375 752.853 158.502C758.689 153.144 766.481 149.868 775.045 149.868C786.818 149.868 797.135 156.056 802.907 165.341C808.861 159.216 817.199 155.403 826.436 155.403C844.523 155.403 859.185 170.001 859.185 188.01C859.185 200.301 852.355 211.003 842.268 216.56H662.042C662.23 216.306 662.421 216.055 662.616 215.807C661.519 216.113 660.399 216.366 659.26 216.56Z" fill="#DCF4F2"/>
</g>
<path fill-rule="evenodd" clip-rule="evenodd" d="M660.128 161.529L649.073 161.249C633.567 163.483 621.476 176.573 621.069 192.693C620.614 210.696 634.903 225.66 652.984 226.117C660.872 226.316 668.178 223.72 673.947 219.237C679.709 225.165 687.715 228.939 696.652 229.165C704.927 229.374 712.557 226.501 718.449 221.606C723.211 224.529 728.784 226.282 734.779 226.434C741.141 226.595 747.121 224.932 752.225 221.932C757.923 227.436 765.631 230.908 774.192 231.124C785.961 231.421 796.431 225.496 802.436 216.36C808.233 222.633 816.472 226.656 825.706 226.889C843.787 227.346 858.814 213.123 859.269 195.12C859.579 182.833 853.021 171.961 843.078 166.151L662.909 161.599C663.091 161.858 663.276 162.114 663.464 162.367C662.375 162.032 661.262 161.752 660.128 161.529Z" fill="#DCF4F2"/>
<path d="M985 51.3665C932.5 23.3665 860.5 43.3665 834 102.866C764.5 45.3665 659 74.3665 636.5 135.867C618 85.3665 510.5 87.3663 492 129.866C471.5 83.866 403 90.366 381.5 125.366C358.5 93.366 311 95.3665 290 132.366C267.5 89.866 215.5 110.366 210 125.366C185 103.366 154.5 119.866 146 132.366C133.5 114.866 102 121.866 95 127.366" stroke="#FFCCD7" stroke-width="6" stroke-linecap="round" stroke-linejoin="round" stroke-dasharray="1 15"/>
<g filter="url(#filter1_d_492_3048)">
<path d="M1131.28 163.75C1128.2 163.75 1125.24 164.181 1122.42 164.969C1126.76 159.438 1129.36 152.48 1129.36 144.914C1129.36 126.917 1114.71 112.327 1096.63 112.327C1088.22 112.327 1080.55 115.491 1074.75 120.687C1074.86 119.624 1074.91 118.547 1074.91 117.456C1074.91 99.4581 1060.26 84.8682 1042.19 84.8682C1024.12 84.8682 1009.46 99.4581 1009.46 117.456C1009.46 118.591 1009.52 119.713 1009.64 120.818C1004.44 117.348 998.18 115.321 991.448 115.321C973.375 115.321 958.724 129.911 958.724 147.909C958.724 152.282 959.595 156.451 961.164 160.261C960.358 160.202 959.546 160.162 958.724 160.162C940.651 160.162 926 174.752 926 192.749C926 210.747 940.651 225.337 958.724 225.337C967.954 225.337 976.285 221.526 982.234 215.405C988.002 224.684 998.311 230.868 1010.07 230.868C1018.63 230.868 1026.42 227.594 1032.25 222.24C1037.27 225.365 1043.2 227.177 1049.56 227.177C1055.56 227.177 1061.17 225.566 1066 222.766C1071.76 227.806 1079.31 230.868 1087.58 230.868C1096.51 230.868 1104.6 227.3 1110.51 221.522C1116.16 226.148 1123.39 228.925 1131.28 228.925C1149.35 228.925 1164 214.335 1164 196.338C1164 178.34 1149.35 163.75 1131.28 163.75Z" fill="#DCF4F2"/>
</g>
<path d="M780.501 206.469C782.482 205.376 784.725 204.689 786.987 204.482C787.066 204.475 787.134 204.53 787.139 204.605C787.143 204.669 787.1 204.726 787.038 204.746C787.027 204.75 787.016 204.752 787.004 204.754C784.784 204.957 782.583 205.631 780.638 206.704C780.568 206.742 780.481 206.721 780.444 206.655C780.406 206.591 780.432 206.507 780.501 206.469Z" fill="black"/>
<path d="M780.899 204.535L780.89 204.538C780.818 204.561 780.741 204.529 780.714 204.463C780.685 204.394 780.722 204.313 780.796 204.284L783.261 203.293C783.335 203.263 783.418 203.296 783.447 203.365C783.475 203.434 783.439 203.514 783.365 203.544L780.899 204.535Z" fill="black"/>
<path d="M698.009 209.994C696.028 208.901 693.785 208.215 691.523 208.008C691.444 208 691.376 208.056 691.371 208.13C691.367 208.194 691.41 208.252 691.471 208.272C691.482 208.276 691.494 208.278 691.505 208.279C693.726 208.483 695.927 209.157 697.872 210.229C697.942 210.268 698.028 210.246 698.066 210.181C698.104 210.116 698.078 210.033 698.009 209.994Z" fill="black"/>
<path d="M697.611 208.06L697.62 208.064C697.692 208.087 697.769 208.055 697.796 207.989C697.825 207.92 697.788 207.839 697.714 207.81L695.248 206.819C695.175 206.789 695.092 206.822 695.063 206.891C695.035 206.96 695.071 207.04 695.145 207.07L697.611 208.06Z" fill="black"/>
<path d="M765.84 25.9516C766.23 32.5901 763.392 39.0454 759.845 44.8508C758.272 47.425 756.537 49.9491 755.523 52.7478C754.509 55.5465 754.285 58.7242 755.719 61.365C753.475 62.4531 750.652 62.4779 748.385 61.4292C748.776 62.7604 749.728 63.9474 750.999 64.6901C748.625 65.9535 745.629 65.5674 742.986 64.8794C731.359 61.8534 721.579 53.4427 717.575 43.0251C717.291 42.2848 716.982 41.4741 716.25 41.0638C715.643 40.724 714.886 40.7417 714.175 40.7278C708.665 40.6205 703.262 37.7509 700.635 33.3264C698.009 28.9019 698.379 23.0776 701.73 19.0818C699.725 19.6059 697.456 19.1959 695.821 18.0144C701.999 14.4459 707.645 10.1415 713.909 6.7015C720.173 3.2615 727.3 0.668968 734.598 1.03437C738.504 1.22993 742.411 2.40561 745.621 4.45916C747.887 5.90866 749.718 8.31125 751.248 10.3816C760.087 10.6972 765.405 18.5275 765.84 25.9516Z" fill="#F9BC9A" stroke="black" stroke-width="0.4" stroke-miterlimit="10"/>
<path d="M685.893 130.613C685.365 131.668 684.882 132.747 684.431 133.834C683.907 135.1 683.357 136.356 682.924 137.656C682.507 138.907 682.051 140.205 682.004 141.534C681.976 142.304 682.073 143.528 682.844 143.941C682.965 144.006 683.234 144 683.306 144.128C683.391 144.279 683.235 144.81 683.283 145.038C683.414 145.653 683.88 146.215 684.5 146.376C684.418 146.774 684.399 147.233 684.664 147.541C684.939 147.86 685.437 147.9 685.829 147.748C686.237 147.59 686.525 147.143 686.96 147.082C687.521 147.003 687.908 147.352 688.47 146.974C688.928 146.667 689.204 146.16 689.462 145.673C691.232 142.339 693.221 139.053 695.653 136.143C697.35 134.112 699.409 132.155 700.092 129.551C700.688 127.274 700.578 122.753 700.578 122.753L694.151 119.333C694.151 119.333 691.275 123.829 690.034 124.899C688.229 126.454 686.949 128.502 685.893 130.613Z" fill="#FFDBCA" stroke="black" stroke-width="0.4" stroke-miterlimit="10"/>
<path d="M691.016 139.556C690.355 139.159 689.717 138.727 689.102 138.263" stroke="#333333" stroke-width="0.4" stroke-linecap="round" stroke-linejoin="round"/>
<path d="M690.271 139.229C688.614 141.59 687.311 144.197 686.416 146.939" stroke="#333333" stroke-width="0.4" stroke-linecap="round" stroke-linejoin="round"/>
<path d="M687.789 139.458C686.482 141.539 685.42 143.773 684.632 146.1" stroke="#333333" stroke-width="0.4" stroke-linecap="round" stroke-linejoin="round"/>
<path d="M685.929 138.729C684.983 140.385 684.17 142.116 683.501 143.901" stroke="#333333" stroke-width="0.4" stroke-linecap="round" stroke-linejoin="round"/>
<path d="M687.529 130.115C687.255 131.231 687.106 132.389 686.985 133.505C686.809 135.122 686.01 136.613 685.909 138.233C685.871 138.83 686.045 139.557 686.616 139.738C686.953 139.844 687.319 139.716 687.631 139.548C689.194 138.707 689.898 137.073 690.461 135.487C690.855 134.376 691.284 133.595 692.133 132.759C693.533 131.378 694.672 130.111 694.884 128.065" stroke="#333333" stroke-width="0.4" stroke-linecap="round" stroke-linejoin="round"/>
<path d="M707.478 79.3598C706.911 79.8209 706.387 80.3273 705.931 80.8892C701.696 86.1127 701.484 94.1529 700.427 100.488C700.355 100.916 700.274 101.366 699.999 101.702C699.744 102.011 699.351 102.187 699.115 102.51C698.66 103.135 698.957 104.013 698.813 104.773C698.718 105.273 698.432 105.713 698.152 106.138C696.343 108.881 694.405 111.537 692.612 114.29C691.717 115.664 690.855 117.06 690.07 118.499C689.935 118.747 688.241 121.95 688.31 122.018C691.482 125.172 695.393 127.578 699.639 128.987C699.901 129.074 700.18 129.158 700.448 129.092C700.74 129.021 700.96 128.786 701.155 128.556C702.187 127.342 703.028 125.98 703.861 124.622C706.083 120.993 708.274 117.345 710.432 113.678C711.448 111.953 712.46 110.215 713.192 108.351C713.967 106.378 714.415 104.292 714.801 102.207C715.363 99.1637 715.77 96.1026 716.1 93.0259C716.359 90.6033 717.178 88.2195 717.503 85.7527C718.025 81.7879 718.12 77.8854 717.855 73.8896C715.783 75.0474 713.554 75.8946 711.426 76.9441C710.073 77.6112 708.678 78.3841 707.478 79.3598Z" fill="white" stroke="black" stroke-width="0.4" stroke-miterlimit="10"/>
<path d="M701.003 101.722C702.642 104.022 706.402 104.375 708.441 102.42" stroke="black" stroke-width="0.4" stroke-linecap="round" stroke-linejoin="round"/>
<path d="M703.638 124.509C702.469 124.682 701.323 124.134 700.287 123.563C696.974 121.738 693.876 119.523 691.078 116.979" stroke="black" stroke-width="0.4" stroke-linecap="round" stroke-linejoin="round"/>
<path d="M756.406 203.585C756.319 203.262 755.354 200.849 754.573 198.921L762.694 196.898C763.571 199.351 764.94 201.504 766.049 203.831C767.165 206.177 768.018 208.711 768.858 211.194C769.018 211.667 769.177 212.139 769.338 212.607C769.565 213.267 769.791 213.963 769.674 214.651C769.673 214.657 769.67 214.664 769.669 214.67C767.985 212.006 764.361 210.755 761.209 211.404C759.176 211.823 757.357 212.878 755.812 214.278C755.82 213.665 755.869 213.04 755.943 212.418C756.309 209.348 757.209 206.553 756.406 203.585Z" fill="#EFDCCE" stroke="black" stroke-width="0.4" stroke-miterlimit="10"/>
<path d="M769.669 214.67C769.355 216.416 766.692 218.461 765.29 219.348C763.226 220.654 760.946 220.784 758.722 219.766C756.367 218.688 755.782 216.571 755.811 214.278C757.357 212.878 759.175 211.823 761.209 211.404C764.361 210.754 767.985 212.005 769.669 214.67Z" fill="#BACC6E" stroke="black" stroke-width="0.4" stroke-miterlimit="10"/>
<path d="M698.41 213.94C699.108 213.199 701.455 212.129 703.793 211.048C705.995 212.748 707.363 215.747 707.29 218.617C707.166 218.633 707.042 218.654 706.918 218.668C704.311 218.968 700.749 218.919 698.398 217.585C696.916 216.745 697.385 215.026 698.41 213.94Z" fill="#BACC6E" stroke="black" stroke-width="0.4" stroke-miterlimit="10"/>
<path d="M723.225 210.706C723.403 212.725 723.566 214.35 723.547 214.644C723.385 217.196 718.874 216.996 716.649 217.075C717.602 215.473 718.144 213.526 719.464 212.192C720.445 211.201 721.835 210.706 723.225 210.706Z" fill="#BACC6E" stroke="black" stroke-width="0.4" stroke-miterlimit="10"/>
<path d="M703.793 211.048C705.693 210.17 707.587 209.286 708.587 208.566C710.321 207.318 711.958 206.305 712.809 204.227C713.355 202.895 713.569 201.462 713.686 200.021L722.933 201.867C722.922 201.949 722.91 202.027 722.899 202.109C722.663 203.783 722.96 207.686 723.225 210.706C721.835 210.706 720.445 211.201 719.464 212.192C718.144 213.525 717.602 215.473 716.649 217.074C716.423 217.082 716.212 217.092 716.041 217.109C713.089 217.399 710.227 218.237 707.29 218.617C707.363 215.747 705.995 212.748 703.793 211.048Z" fill="#EFDCCE" stroke="black" stroke-width="0.4" stroke-miterlimit="10"/>
<path d="M707.818 115.78C708.282 113.745 708.807 111.438 709.366 108.807L710.031 105.673L744.97 104.534L745.906 107.489C746.644 109.822 747.451 111.745 748.306 113.781C749.411 116.412 750.553 119.132 751.457 122.623C751.957 124.555 752.378 125.991 752.75 127.258C753.945 131.339 754.478 133.408 754.567 139.69C754.625 143.71 754.808 158.046 754.858 161.934C755.886 163.905 758.228 168.451 759.036 170.48C762.647 179.55 764.703 188.782 766.784 198.288C766.859 198.631 766.935 198.979 766.909 199.329C766.871 199.847 766.616 200.322 766.328 200.753C763.707 204.671 758.225 205.791 753.647 204.67C753.201 204.56 752.738 204.421 752.415 204.095C752.193 203.871 752.058 203.577 751.926 203.29C749.52 198.031 746.982 192.763 744.828 187.379C743.939 185.339 743.02 183.229 742.068 181.185C740.798 178.457 739.585 176.139 738.412 173.896C735.533 168.394 733.048 163.643 731.322 155.967C731.086 154.918 730.555 152.716 729.916 150.141C729.708 151.906 729.494 153.768 729.264 155.797C728.638 161.317 728.722 166.891 729.513 172.367C730.945 182.276 728.314 193.477 726.139 203.165C726.006 203.76 725.857 204.378 725.469 204.848C725.12 205.27 724.613 205.526 724.111 205.743C719.995 207.517 715.07 207.291 711.134 205.149C710.705 204.915 710.267 204.639 710.043 204.205C709.859 203.848 709.844 203.432 709.833 203.031C709.645 196.077 709.138 189.108 709.138 182.131C709.101 180.662 709.059 180.157 709.039 179.994C708.797 179.177 708.656 178.361 708.511 175.992C708.158 170.242 707.489 165.287 706.843 160.496C706.078 154.822 705.286 148.956 705.039 141.895C704.616 129.852 705.821 124.555 707.818 115.78Z" fill="#009CA4" stroke="black" stroke-width="0.4" stroke-miterlimit="10"/>
<path d="M729.317 149.658C725.818 148.836 722.32 148.014 718.821 147.192" stroke="black" stroke-width="0.4" stroke-linecap="round" stroke-linejoin="round"/>
<path d="M727.42 148.896C726.331 143.926 726.025 138.785 726.516 133.721" stroke="black" stroke-width="0.4" stroke-linecap="round" stroke-linejoin="round"/>
<path d="M723.439 148.134C721.958 143.23 721.552 138.003 722.259 132.929" stroke="black" stroke-width="0.4" stroke-linecap="round" stroke-linejoin="round"/>
<path d="M727.817 150.812C725.108 151.519 722.399 152.225 719.689 152.932" stroke="black" stroke-width="0.4" stroke-linecap="round" stroke-linejoin="round"/>
<path d="M753.764 163.333C752.486 165.695 750.896 167.888 749.046 169.835" stroke="black" stroke-width="0.4" stroke-linecap="round" stroke-linejoin="round"/>
<path d="M726.57 166.637C725.443 168.674 724.317 170.711 723.19 172.748" stroke="black" stroke-width="0.4" stroke-linecap="round" stroke-linejoin="round"/>
<path d="M723.349 79.6155C716.25 80.0864 718.316 73.7066 718.316 73.7066C720.868 72.3271 723.306 70.4876 724.385 67.564C726.24 62.5368 723.915 58.7485 723.915 58.7485L738.51 51.2417C738.51 51.2417 736.232 65.5281 738.474 69.8026C738.474 69.8026 730.449 79.1446 723.349 79.6155Z" fill="#FFDBCA" stroke="black" stroke-width="0.4" stroke-miterlimit="10"/>
<path d="M706.766 99.184C707.572 86.3104 709.558 78.0091 713.127 76.2338C714.62 75.491 716.515 74.735 718.352 73.7424C718.352 73.7424 716.286 80.1222 723.385 79.6513C730.485 79.1803 738.51 69.8384 738.51 69.8384C739.148 71.056 740.556 71.8943 742.271 72.514C744.171 73.2002 746.447 73.6181 748.484 73.9827C751.063 74.4444 753.255 74.822 753.794 75.5539C759.891 83.8232 749.194 95.2985 751.967 103.989C752.426 105.427 753.186 106.778 753.413 108.271C753.64 109.763 753.14 111.532 751.759 112.141C752.962 112.669 753.545 114.278 752.96 115.455C752.698 115.98 752.248 116.41 752.074 116.971C751.825 117.777 752.202 118.625 752.487 119.419C754.219 124.253 752.601 129.582 750.874 134.417C749.184 139.149 747.385 143.842 745.48 148.491C738.254 146.637 731.334 143.593 725.083 139.52C724.557 139.177 723.97 138.811 723.349 138.906C722.857 138.982 722.46 139.333 722.093 139.669C717.672 143.715 713.252 147.762 708.831 151.808C704.669 134.433 705.664 116.812 706.766 99.184Z" fill="white"/>
<path d="M712.466 76.3329C713.959 75.5901 716.515 74.735 718.352 73.7424C718.352 73.7424 716.286 80.1222 723.385 79.6513C730.485 79.1803 738.51 69.8384 738.51 69.8384C739.148 71.056 740.556 71.8943 742.271 72.514C744.171 73.2002 746.447 73.6181 748.484 73.9827C751.063 74.4444 753.255 74.822 753.794 75.5539C759.891 83.8232 749.194 95.2985 751.967 103.989C752.426 105.427 753.186 106.778 753.413 108.271C753.64 109.763 753.14 111.532 751.759 112.141C752.962 112.669 753.545 114.278 752.96 115.455C752.698 115.98 752.248 116.41 752.074 116.971C751.825 117.777 752.202 118.625 752.487 119.419C754.219 124.253 752.601 129.582 750.874 134.417C749.184 139.149 747.385 143.842 745.48 148.491C738.254 146.637 731.334 143.593 725.083 139.52C724.557 139.177 723.97 138.811 723.349 138.906C722.857 138.982 722.46 139.333 722.093 139.669C717.672 143.715 713.252 147.762 708.831 151.808C704.669 134.433 705.664 116.812 706.766 99.184C706.879 97.3825 707.015 95.6705 707.175 94.0534" stroke="black" stroke-width="0.4" stroke-miterlimit="10"/>
<g style="mix-blend-mode:multiply" opacity="0.7">
<path d="M726.397 68.1367C725.562 68.1774 724.869 68.0426 724.29 67.7812C724.32 67.7073 724.357 67.6393 724.385 67.564C726.24 62.5368 723.915 58.7485 723.915 58.7485L738.51 51.2417C738.51 51.2417 737.96 54.6961 737.666 58.715C735.872 61.5858 731.377 67.8932 726.397 68.1367Z" fill="#FFB27C"/>
</g>
<path d="M741.614 13.6924C746.181 17.0572 749.158 21.9365 750.433 27.6459C750.499 27.9456 750.562 28.2463 750.62 28.5478C752.076 36.0873 750.804 44.1008 747.204 50.8726C745.807 53.5009 744.541 55.9194 742.251 57.8864C737.225 62.2012 734.269 64.4234 727.821 65.9371C723.757 66.891 717.978 66.6734 714.095 64.4677C711.367 62.918 709.13 60.5146 707.55 57.8041C705.283 53.9143 705.998 50.1204 706.527 45.919C707.285 39.9121 705.23 33.831 705.864 27.8096C706.467 22.0848 709.622 16.6763 714.308 13.3332C715.704 12.3378 717.245 11.556 718.848 10.9546C725.006 8.64428 732.498 8.70884 738.412 11.7202C739.554 12.3014 740.622 12.9612 741.614 13.6924Z" fill="#FFDBCA"/>
<path d="M741.614 13.6924C746.181 17.0572 749.158 21.9365 750.433 27.6459C750.499 27.9456 750.562 28.2463 750.62 28.5478C752.076 36.0873 750.804 44.1008 747.204 50.8726C745.807 53.5009 744.541 55.9194 742.251 57.8864C737.225 62.2012 734.269 64.4234 727.821 65.9371C723.757 66.891 717.978 66.6734 714.095 64.4677C711.367 62.918 709.13 60.5146 707.55 57.8041C705.283 53.9143 705.998 50.1204 706.527 45.919C707.285 39.9121 705.23 33.831 705.864 27.8096C706.467 22.0848 709.622 16.6763 714.308 13.3332C715.704 12.3378 717.245 11.556 718.848 10.9546C725.006 8.64428 732.498 8.70884 738.412 11.7202C739.554 12.3014 740.622 12.9612 741.614 13.6924Z" stroke="black" stroke-width="0.4" stroke-miterlimit="10"/>
<path d="M717.867 40.8716C718.667 43.1587 717.907 45.9044 716.047 47.4564C715.565 47.8582 715 48.2083 714.723 48.7717C714.425 49.38 714.538 50.1287 714.867 50.721C715.195 51.3133 715.714 51.7754 716.247 52.194" stroke="black" stroke-width="0.4" stroke-linecap="round" stroke-linejoin="round"/>
<path d="M722.912 57.9199C721.545 58.6336 719.882 58.757 718.425 58.2529" stroke="black" stroke-width="0.4" stroke-linecap="round" stroke-linejoin="round"/>
<path d="M725.265 54.7632C722.195 56.8074 718.963 56.668 716.213 55.8496" stroke="black" stroke-width="0.4" stroke-linecap="round" stroke-linejoin="round"/>
<path d="M741.819 40.3077C739.556 36.8662 737.874 33.043 736.867 29.0488C736.529 31.2294 737.02 33.5285 738.221 35.3798C732.866 32.4864 729.282 26.5698 729.199 20.4832C726.395 23.8475 722.309 26.1164 717.971 26.7188C719.368 25.5316 720.436 23.9595 721.024 22.2222C716.909 26.0524 711.015 27.886 705.453 27.0661C705.01 27.0007 704.529 26.8971 704.246 26.5488C703.892 26.1126 703.987 25.4765 704.118 24.9305C706.437 15.318 714.953 7.51226 724.73 6.03704C734.508 4.56182 744.947 9.50766 749.999 18.0081C753.269 23.512 754.152 30.2974 752.748 36.5135C752.251 38.711 751.207 43.4919 748.956 44.5848C746.15 45.9477 743.15 42.3305 741.819 40.3077Z" fill="#F9BC9A"/>
<path d="M748.957 44.5845C746.15 45.9474 743.15 42.3302 741.82 40.3073C739.556 36.8659 737.874 33.0426 736.867 29.0485C736.529 31.229 737.021 33.5282 738.221 35.3795C732.866 32.4861 729.282 26.5695 729.199 20.4829C726.395 23.8472 722.309 26.1161 717.971 26.7185C719.369 25.5313 720.436 23.9591 721.024 22.2219C716.909 26.052 711.015 27.8857 705.454 27.0658" stroke="black" stroke-width="0.4" stroke-miterlimit="10"/>
<path d="M746.516 43.8088C744.181 47.0498 743.455 50.3665 745.754 52.023C748.053 53.6796 752.507 53.0488 754.842 49.808C757.177 46.5672 757.207 42.597 754.908 40.9404C752.608 39.2838 748.852 40.5681 746.516 43.8088Z" fill="#FFDBCA"/>
<path d="M745.754 52.023C748.053 53.6796 752.507 53.0488 754.842 49.808C757.177 46.5672 757.207 42.597 754.908 40.9404C752.608 39.2838 748.852 40.5681 746.516 43.8088" stroke="black" stroke-width="0.4" stroke-miterlimit="10"/>
<path d="M756.342 42.9611C756.342 42.9611 751.642 42.406 746.237 49.3893" stroke="black" stroke-width="0.4" stroke-linecap="round" stroke-linejoin="round"/>
<path d="M749.669 10.4912C748.194 11.7798 746.81 13.1733 745.532 14.6577" stroke="black" stroke-width="0.4" stroke-linecap="round" stroke-linejoin="round"/>
<path d="M746.612 9.17024C745.784 7.74985 744.375 6.67938 742.785 6.26123" stroke="black" stroke-width="0.4" stroke-linecap="round" stroke-linejoin="round"/>
<path d="M745.471 11.1104C744.057 9.73569 742.144 8.88643 740.177 8.76025" stroke="black" stroke-width="0.4" stroke-linecap="round" stroke-linejoin="round"/>
<path d="M751.339 13.5557C752.423 13.3795 753.574 13.6585 754.458 14.3115" stroke="black" stroke-width="0.4" stroke-linecap="round" stroke-linejoin="round"/>
<path d="M705.768 122.186C705.789 114.521 706.25 106.835 706.73 99.1482C706.842 97.3586 706.977 95.6574 707.136 94.0498" stroke="#333333" stroke-width="0.4" stroke-linecap="round" stroke-linejoin="round"/>
<path d="M722.449 79.7031C722.086 82.2352 722.049 84.8137 722.337 87.3553" stroke="black" stroke-width="0.4" stroke-linecap="round" stroke-linejoin="round"/>
<path d="M778.163 133.484C778.671 135.201 779.179 136.918 779.687 138.636C779.847 139.175 780.009 139.726 779.992 140.288C779.975 140.851 779.749 141.437 779.281 141.749C779.381 142.364 779.481 142.991 779.391 143.607C779.301 144.224 778.989 144.84 778.446 145.144C778.33 145.208 778.202 145.261 778.12 145.366C778.05 145.454 778.023 145.57 777.975 145.672C777.8 146.043 777.344 146.214 776.936 146.174C776.528 146.132 776.159 145.922 775.813 145.702C775.619 145.983 775.208 146.025 774.884 145.919C774.443 145.775 774.096 145.42 773.866 145.017C773.636 144.615 773.508 144.163 773.382 143.717C773.136 142.848 772.89 141.98 772.641 141.113C772.446 140.435 772.25 139.755 771.949 139.118C771.368 137.886 770.427 136.876 769.419 135.979C768.948 135.559 768.439 135.178 768.008 134.723C767.749 134.45 767.399 134.065 766.961 134.197C766.457 134.349 766.351 135.014 766.401 135.538C766.602 137.661 767.809 139.598 767.955 141.726C767.977 142.055 767.954 142.432 767.701 142.644C767.267 143.008 766.631 142.591 766.228 142.192C764.798 140.774 763.339 139.316 762.475 137.496C760.992 134.374 760.495 130.642 760.094 127.244C759.873 125.369 759.782 123.54 759.435 121.742L767.421 118.437C768.947 121.135 771.288 123.136 773.31 125.454C774.412 126.717 775.522 127.99 776.348 129.448C777.087 130.752 777.733 132.032 778.163 133.484Z" fill="#FFDBCA" stroke="black" stroke-width="0.4" stroke-miterlimit="10"/>
<path d="M775.782 145.481C775.593 142.723 775.026 139.991 774.103 137.386" stroke="#333333" stroke-width="0.4" stroke-linecap="round" stroke-linejoin="round"/>
<path d="M778.082 145.059C777.673 142.025 776.886 139.042 775.746 136.2" stroke="#333333" stroke-width="0.4" stroke-linecap="round" stroke-linejoin="round"/>
<path d="M779.041 141.453C778.583 139.125 777.928 136.835 777.087 134.616" stroke="#333333" stroke-width="0.4" stroke-linecap="round" stroke-linejoin="round"/>
<path d="M741.169 72.6592C742.726 72.92 744.287 73.1666 745.837 73.4628C747.387 73.7588 748.969 73.8268 750.523 74.0977C752.299 74.4074 754.107 75.0297 755.331 76.3528C755.879 76.9444 756.221 77.6988 756.759 78.2882C757.28 78.8582 757.841 79.3946 758.338 79.9975C759.361 81.2397 760.284 82.563 761.135 83.9283C764.676 89.6116 767.403 95.7978 769.244 102.235C771.186 109.026 771.776 115.818 772.413 122.825C772.44 123.132 772.467 123.45 772.365 123.74C772.262 124.032 772.04 124.265 771.818 124.479C768.589 127.6 763.79 129.007 759.387 128.123C759.118 128.069 758.835 127.999 758.639 127.806C757.986 127.164 758.128 125.292 758.018 124.448C757.807 122.835 757.597 121.223 757.387 119.61C756.966 116.385 756.545 113.159 756.124 109.934C756.079 109.587 756.027 109.223 755.816 108.945C755.565 108.615 755.139 108.469 754.851 108.171C754.219 107.519 754.464 106.463 754.413 105.556C754.235 102.419 750.306 100.205 748.134 98.4724C740.676 92.5253 737.715 81.5504 741.169 72.6592Z" fill="white"/>
<path d="M743.515 72.9141C745.065 73.2101 748.969 73.8267 750.523 74.0976C752.299 74.4073 754.107 75.0296 755.331 76.3527C755.879 76.9443 756.221 77.6987 756.759 78.2881C757.28 78.8581 757.841 79.3945 758.338 79.9974C759.361 81.2396 760.284 82.5628 761.135 83.9282C764.676 89.6115 767.403 95.7977 769.244 102.235C771.186 109.026 771.776 115.817 772.413 122.825C772.44 123.132 772.467 123.45 772.365 123.74C772.262 124.032 772.04 124.264 771.818 124.479C768.589 127.6 763.79 129.007 759.387 128.123C759.118 128.069 758.835 127.999 758.639 127.806C757.986 127.164 758.128 125.292 758.018 124.448C757.807 122.835 757.597 121.222 757.387 119.61C756.966 116.384 756.545 113.159 756.124 109.934C756.079 109.587 756.027 109.223 755.816 108.945C755.565 108.615 755.139 108.469 754.851 108.171C754.219 107.519 754.464 106.463 754.413 105.556C754.312 103.779 753.008 102.298 751.501 101.034" stroke="black" stroke-width="0.4" stroke-miterlimit="10"/>
<path d="M755.282 104.128C755.807 104.455 756.496 104.246 757.045 103.961C758.323 103.297 759.399 102.253 760.101 100.997" stroke="black" stroke-width="0.4" stroke-linecap="round" stroke-linejoin="round"/>
<path d="M771.95 118.825C770.492 120.871 768.203 122.241 765.769 122.862C763.335 123.483 760.761 123.398 758.293 122.929" stroke="black" stroke-width="0.4" stroke-linecap="round" stroke-linejoin="round"/>
<path d="M751.444 100.997C750.406 99.5549 749.071 98.3283 747.546 97.416" stroke="black" stroke-width="0.4" stroke-linecap="round" stroke-linejoin="round"/>
<path d="M750.784 75.4658C748.28 76.8221 746.153 78.8663 744.698 81.3145" stroke="black" stroke-width="0.4" stroke-linecap="round" stroke-linejoin="round"/>
<path d="M709.419 34.1921C710.506 33.8592 711.664 33.8252 712.768 34.0961C712.857 34.1176 712.911 34.207 712.889 34.2954C712.871 34.3675 712.808 34.4167 712.738 34.4204C712.722 34.4212 712.706 34.4199 712.69 34.4158C711.644 34.1594 710.546 34.1907 709.516 34.5073C709.43 34.5321 709.337 34.4847 709.31 34.3981C709.283 34.311 709.332 34.2189 709.419 34.1921Z" fill="black"/>
<path d="M727.703 33.9648C727.709 33.8744 727.788 33.8044 727.879 33.8127C728.886 33.8861 729.856 34.23 730.684 34.808C730.758 34.8602 730.776 34.9626 730.724 35.0371C730.694 35.0806 730.647 35.1049 730.598 35.1075C730.562 35.1093 730.526 35.1 730.495 35.0781C729.716 34.5342 728.803 34.2103 727.855 34.1411C727.764 34.1345 727.696 34.0556 727.703 33.9648Z" fill="black"/>
<path d="M711.637 41.3361C711.975 41.5079 712.186 41.8615 712.297 42.2239C712.425 42.6472 712.437 43.1168 712.263 43.5236C712.089 43.9303 711.713 44.2608 711.274 44.3182C710.835 44.3757 710.358 44.1204 710.215 43.7016C710.026 43.146 709.825 42.4937 710.094 41.9403C710.363 41.387 711.089 41.0568 711.637 41.3361Z" fill="black"/>
<path d="M727.649 41.0147C727.986 41.1867 728.198 41.5402 728.308 41.9027C728.437 42.3258 728.448 42.7957 728.274 43.2023C728.1 43.609 727.724 43.9395 727.285 43.997C726.847 44.0545 726.369 43.7993 726.227 43.3805C726.037 42.8247 725.836 42.1724 726.105 41.6191C726.374 41.0657 727.1 40.7356 727.649 41.0147Z" fill="black"/>
<path d="M727.777 51.8655C728.61 54.7705 731.64 56.4501 734.545 55.6171C737.45 54.7843 739.13 51.7541 738.297 48.8492C737.464 45.9444 734.434 44.2648 731.529 45.0976C728.624 45.9305 726.944 48.9606 727.777 51.8655Z" fill="#F9A478"/>
<path d="M710.876 48.8494C711.708 51.7543 710.029 54.7845 707.124 55.6173C707 55.6528 706.877 55.658 706.753 55.6844C705.702 52.5186 706.257 49.3555 706.69 45.92C706.727 45.6254 706.752 45.3305 706.777 45.0356C708.677 45.4525 710.301 46.8477 710.876 48.8494Z" fill="#F9A478"/>
<defs>
<filter id="filter0_d_492_3048" x="621" y="145.868" width="242.185" height="70.6919" filterUnits="userSpaceOnUse" color-interpolation-filters="sRGB">
<feFlood flood-opacity="0" result="BackgroundImageFix"/>
<feColorMatrix in="SourceAlpha" type="matrix" values="0 0 0 0 0 0 0 0 0 0 0 0 0 0 0 0 0 0 127 0" result="hardAlpha"/>
<feOffset dx="2" dy="-2"/>
<feGaussianBlur stdDeviation="1"/>
<feComposite in2="hardAlpha" operator="out"/>
<feColorMatrix type="matrix" values="0 0 0 0 0 0 0 0 0 0 0 0 0 0 0 0 0 0 0.25 0"/>
<feBlend mode="normal" in2="BackgroundImageFix" result="effect1_dropShadow_492_3048"/>
<feBlend mode="normal" in="SourceGraphic" in2="effect1_dropShadow_492_3048" result="shape"/>
</filter>
<filter id="filter1_d_492_3048" x="926" y="80.8682" width="242" height="150" filterUnits="userSpaceOnUse" color-interpolation-filters="sRGB">
<feFlood flood-opacity="0" result="BackgroundImageFix"/>
<feColorMatrix in="SourceAlpha" type="matrix" values="0 0 0 0 0 0 0 0 0 0 0 0 0 0 0 0 0 0 127 0" result="hardAlpha"/>
<feOffset dx="2" dy="-2"/>
<feGaussianBlur stdDeviation="1"/>
<feComposite in2="hardAlpha" operator="out"/>
<feColorMatrix type="matrix" values="0 0 0 0 0 0 0 0 0 0 0 0 0 0 0 0 0 0 0.25 0"/>
<feBlend mode="normal" in2="BackgroundImageFix" result="effect1_dropShadow_492_3048"/>
<feBlend mode="normal" in="SourceGraphic" in2="effect1_dropShadow_492_3048" result="shape"/>
</filter>
</defs>
</svg>
