<svg width="1240" height="267" viewBox="0 0 1240 267" fill="none" xmlns="http://www.w3.org/2000/svg">
<path d="M1157.61 132.835C1154.76 132.835 1152 133.236 1149.39 133.97C1153.42 128.818 1155.83 122.337 1155.83 115.289C1155.83 98.5238 1142.23 84.9332 1125.44 84.9332C1117.63 84.9332 1110.51 87.8811 1105.13 92.7211C1105.22 91.7307 1105.28 90.7271 1105.28 89.7111C1105.28 72.9461 1091.67 59.3555 1074.89 59.3555C1058.11 59.3555 1044.5 72.9461 1044.5 89.7111C1044.5 90.7688 1044.56 91.8136 1044.66 92.8434C1039.83 89.6106 1034.02 87.7229 1027.77 87.7229C1010.99 87.7229 997.387 101.314 997.387 118.078C997.387 122.152 998.196 126.035 999.653 129.585C998.904 129.529 998.15 129.492 997.387 129.492C980.605 129.492 967 143.083 967 159.847C967 176.613 980.605 190.203 997.387 190.203C1005.96 190.203 1013.69 186.653 1019.22 180.951C1024.57 189.595 1034.15 195.355 1045.07 195.355C1053.02 195.355 1060.25 192.306 1065.66 187.318C1070.32 190.229 1075.83 191.917 1081.74 191.917C1087.3 191.917 1092.51 190.416 1097 187.808C1102.35 192.503 1109.36 195.355 1117.04 195.355C1125.33 195.355 1132.85 192.032 1138.33 186.65C1143.58 190.958 1150.29 193.546 1157.61 193.546C1174.4 193.546 1188 179.955 1188 163.19C1188 146.425 1174.4 132.835 1157.61 132.835Z" fill="#7B6EB9"/>
<path d="M393.463 144.65C390.972 144.65 388.565 145.001 386.279 145.643C389.801 141.135 391.907 135.464 391.907 129.297C391.907 114.628 380.026 102.736 365.37 102.736C358.547 102.736 352.328 105.315 347.626 109.55C347.711 108.684 347.757 107.806 347.757 106.917C347.757 92.2473 335.876 80.3555 321.22 80.3555C306.564 80.3555 294.683 92.2473 294.683 106.917C294.683 107.842 294.731 108.756 294.824 109.657C290.605 106.829 285.533 105.177 280.074 105.177C265.418 105.177 253.537 117.069 253.537 131.738C253.537 135.302 254.243 138.7 255.516 141.806C254.861 141.758 254.203 141.725 253.537 141.725C238.881 141.725 227 153.617 227 168.286C227 182.955 238.881 194.847 253.537 194.847C261.021 194.847 267.777 191.741 272.602 186.752C277.279 194.315 285.639 199.355 295.178 199.355C302.117 199.355 308.432 196.687 313.16 192.323C317.233 194.87 322.043 196.347 327.2 196.347C332.059 196.347 336.609 195.034 340.527 192.751C345.199 196.859 351.321 199.355 358.028 199.355C365.272 199.355 371.834 196.447 376.623 191.738C381.204 195.508 387.069 197.772 393.463 197.772C408.119 197.772 420 185.88 420 171.211C420 156.542 408.119 144.65 393.463 144.65Z" fill="#7B6EB9"/>
<path d="M531.463 166.65C528.972 166.65 526.565 167.001 524.279 167.643C527.801 163.135 529.907 157.464 529.907 151.297C529.907 136.628 518.026 124.736 503.37 124.736C496.547 124.736 490.328 127.315 485.626 131.55C485.711 130.684 485.757 129.806 485.757 128.917C485.757 114.247 473.876 102.355 459.22 102.355C444.564 102.355 432.683 114.247 432.683 128.917C432.683 129.842 432.731 130.756 432.824 131.657C428.605 128.829 423.533 127.177 418.074 127.177C403.418 127.177 391.537 139.069 391.537 153.738C391.537 157.302 392.243 160.7 393.516 163.806C392.861 163.758 392.203 163.725 391.537 163.725C376.881 163.725 365 175.617 365 190.286C365 204.955 376.881 216.847 391.537 216.847C399.021 216.847 405.777 213.741 410.602 208.752C415.279 216.315 423.639 221.355 433.178 221.355C440.117 221.355 446.432 218.687 451.16 214.323C455.233 216.87 460.043 218.347 465.2 218.347C470.059 218.347 474.609 217.034 478.527 214.751C483.199 218.859 489.321 221.355 496.028 221.355C503.272 221.355 509.834 218.447 514.623 213.738C519.204 217.508 525.069 219.772 531.463 219.772C546.119 219.772 558 207.88 558 193.211C558 178.542 546.119 166.65 531.463 166.65Z" fill="#7B6EB9"/>
<path d="M232.831 117.519C230.44 118.22 228.229 119.235 226.216 120.495C228.328 115.178 228.751 109.143 227.015 103.226C222.886 89.1496 208.137 81.0834 194.074 85.2093C187.527 87.1301 182.285 91.3561 178.967 96.7433C178.804 95.8878 178.601 95.0323 178.35 94.1793C174.221 80.1032 159.473 72.037 145.41 76.1629C131.346 80.2888 123.294 95.0443 127.423 109.12C127.684 110.008 127.987 110.872 128.33 111.711C123.485 110.184 118.153 110.027 112.915 111.564C98.8516 115.69 90.799 130.445 94.9286 144.521C95.9321 147.942 97.5665 151.003 99.6617 153.625C99.0204 153.763 98.3795 153.917 97.7401 154.104C83.6769 158.23 75.6243 172.986 79.7539 187.062C83.8836 201.138 98.6318 209.204 112.695 205.078C119.877 202.971 125.485 198.089 128.71 191.943C135.327 197.884 144.768 200.367 153.921 197.681C160.58 195.728 165.888 191.39 169.196 185.871C173.822 187.168 178.853 187.232 183.801 185.78C188.464 184.412 192.46 181.871 195.577 178.578C201.217 181.204 207.793 181.876 214.23 179.988C221.18 177.949 226.659 173.311 229.928 167.444C235.385 169.772 241.65 170.293 247.786 168.493C261.849 164.367 269.901 149.612 265.772 135.536C261.642 121.46 246.894 113.393 232.831 117.519Z" fill="#7B6EB9"/>
<path d="M1057.64 147.285C1054.04 147.285 1050.56 147.792 1047.25 148.721C1052.34 142.205 1055.39 134.008 1055.39 125.095C1055.39 103.892 1038.21 86.7037 1017.03 86.7037C1007.16 86.7037 998.173 90.432 991.377 96.5532C991.5 95.3006 991.566 94.0314 991.566 92.7464C991.566 71.5436 974.391 54.3555 953.204 54.3555C932.018 54.3555 914.843 71.5436 914.843 92.7464C914.843 94.0841 914.912 95.4055 915.046 96.7079C908.947 92.6194 901.614 90.232 893.723 90.232C872.536 90.232 855.361 107.42 855.361 128.623C855.361 133.775 856.383 138.686 858.222 143.175C857.276 143.105 856.325 143.058 855.361 143.058C834.175 143.058 817 160.246 817 181.448C817 202.651 834.175 219.839 855.361 219.839C866.181 219.839 875.947 215.35 882.922 208.139C889.683 219.07 901.768 226.355 915.558 226.355C925.589 226.355 934.717 222.498 941.553 216.19C947.441 219.872 954.394 222.007 961.849 222.007C968.873 222.007 975.451 220.109 981.114 216.81C987.868 222.748 996.717 226.355 1006.41 226.355C1016.89 226.355 1026.37 222.152 1033.29 215.345C1039.92 220.794 1048.4 224.067 1057.64 224.067C1078.82 224.067 1096 206.879 1096 185.676C1096 164.473 1078.82 147.285 1057.64 147.285Z" fill="#7B6EB9"/>
<path d="M811.151 139.489C808.724 139.489 806.379 139.828 804.152 140.449C807.584 136.092 809.635 130.612 809.635 124.652C809.635 110.476 798.062 98.9837 783.785 98.9837C777.139 98.9837 771.081 101.476 766.501 105.569C766.584 104.732 766.629 103.883 766.629 103.024C766.629 88.8476 755.055 77.3555 740.779 77.3555C726.503 77.3555 714.93 88.8476 714.93 103.024C714.93 103.918 714.977 104.802 715.067 105.672C710.957 102.939 706.016 101.343 700.699 101.343C686.422 101.343 674.849 112.835 674.849 127.011C674.849 130.456 675.537 133.739 676.777 136.741C676.14 136.694 675.498 136.662 674.849 136.662C660.573 136.662 649 148.154 649 162.33C649 176.507 660.573 187.999 674.849 187.999C682.14 187.999 688.721 184.997 693.42 180.176C697.976 187.484 706.12 192.355 715.412 192.355C722.171 192.355 728.322 189.777 732.928 185.559C736.896 188.021 741.581 189.448 746.604 189.448C751.338 189.448 755.77 188.179 759.586 185.973C764.137 189.943 770.1 192.355 776.634 192.355C783.69 192.355 790.082 189.545 794.747 184.994C799.209 188.637 804.922 190.825 811.151 190.825C825.427 190.825 837 179.333 837 165.157C837 150.981 825.427 139.489 811.151 139.489Z" fill="#7B6EB9"/>
<path fill-rule="evenodd" clip-rule="evenodd" d="M1081.55 255.355H70C62.5027 255.355 55.9689 251.23 52.5447 245.126C48.1581 246.876 43.3727 247.839 38.3615 247.839C17.175 247.839 0 230.651 0 209.448C0 188.246 17.175 171.058 38.3615 171.058C39.3247 171.058 40.2764 171.105 41.222 171.175C39.3827 166.686 38.3615 161.775 38.3615 156.623C38.3615 135.42 55.5365 118.232 76.7229 118.232C84.6144 118.232 91.9474 120.619 98.0456 124.708C97.912 123.406 97.8429 122.084 97.8429 120.746C97.8429 99.5436 115.018 82.3555 136.204 82.3555C157.391 82.3555 174.566 99.5436 174.566 120.746C174.566 122.031 174.5 123.301 174.377 124.553C181.173 118.432 190.164 114.704 200.027 114.704C207.521 114.704 214.512 116.854 220.42 120.572C224.492 109.752 234.945 102.054 247.198 102.054C253.082 102.054 258.549 103.831 263.095 106.874C262.995 105.904 262.944 104.921 262.944 103.925C262.944 88.1467 275.748 75.3555 291.543 75.3555C307.338 75.3555 320.142 88.1467 320.142 103.925C320.142 104.882 320.093 105.826 320.001 106.758C325.068 102.203 331.771 99.4286 339.124 99.4286C354.919 99.4286 367.724 112.22 367.724 127.999C367.724 130.596 367.376 133.111 366.724 135.502C369.403 134.751 372.229 134.349 375.148 134.349C381.541 134.349 387.481 136.278 392.42 139.582C392.312 138.53 392.256 137.462 392.256 136.381C392.256 119.246 406.169 105.355 423.33 105.355C440.492 105.355 454.405 119.246 454.405 136.381C454.405 137.419 454.351 138.445 454.251 139.457C459.757 134.51 467.04 131.497 475.029 131.497C484.009 131.497 492.1 135.301 497.773 141.382C499.84 136.48 503.495 131.809 508.506 128.182C520.562 119.454 535.902 120.068 542.77 129.554C543.186 130.129 543.56 130.724 543.895 131.335C545.78 125.797 549.689 120.425 555.301 116.362C567.357 107.634 582.698 108.248 589.565 117.734C592.452 121.722 593.375 126.643 592.587 131.656C594.167 129.879 595.983 128.219 598.032 126.735C609.545 118.401 624.052 118.585 631.317 126.879C632.892 125.564 634.631 124.362 636.52 123.306C649.511 116.043 664.675 118.442 670.39 128.664C670.736 129.284 671.038 129.918 671.3 130.564C673.817 125.283 678.326 120.404 684.374 117.023C697.365 109.76 712.529 112.159 718.244 122.381C720.646 126.678 720.989 131.673 719.622 136.56C721.398 134.98 723.396 133.542 725.604 132.308C738.261 125.232 752.98 127.327 759.014 136.892C763.102 125.038 774.434 116.514 787.773 116.514C794.024 116.514 799.833 118.388 804.663 121.597C804.558 120.575 804.503 119.538 804.503 118.488C804.503 101.846 818.107 88.3555 834.889 88.3555C851.672 88.3555 865.276 101.846 865.276 118.488C865.276 119.496 865.224 120.493 865.126 121.476C870.51 116.671 877.632 113.745 885.445 113.745C892.223 113.745 898.484 115.946 903.538 119.667C906.076 102.287 921.131 88.9375 939.323 88.9375C946.762 88.9375 953.674 91.1722 959.423 94.9993C959.297 93.7802 959.232 92.5433 959.232 91.2912C959.232 71.4444 975.422 55.3555 995.393 55.3555C1015.36 55.3555 1031.55 71.4444 1031.55 91.2912C1031.55 92.4939 1031.49 93.682 1031.38 94.8545C1037.78 89.1248 1046.26 85.635 1055.56 85.635C1073.22 85.635 1087.93 98.2224 1091.09 114.864C1097.16 108.98 1105.46 105.355 1114.61 105.355C1133.21 105.355 1148.29 120.345 1148.29 138.836C1148.29 139.957 1148.23 141.063 1148.13 142.156C1154.09 136.818 1161.99 133.566 1170.65 133.566C1189.26 133.566 1204.34 148.556 1204.34 167.047C1204.34 174.82 1201.66 181.968 1197.19 187.651C1200.09 186.841 1203.15 186.399 1206.31 186.399C1224.92 186.399 1240 201.388 1240 219.879C1240 238.37 1224.92 253.36 1206.31 253.36C1198.85 253.36 1191.95 250.944 1186.36 246.858C1182.74 251.998 1176.76 255.355 1170 255.355H1161.33H1081.55Z" fill="#ECEBF4"/>
<path d="M82.5469 187.355L77.0469 169.434H76.9062C76.9271 169.861 76.9583 170.507 77 171.371C77.0521 172.225 77.099 173.137 77.1406 174.105C77.1823 175.074 77.2031 175.949 77.2031 176.73V187.355H72.875V164.512H79.4688L84.875 181.98H84.9688L90.7031 164.512H97.2969V187.355H92.7812V176.543C92.7812 175.824 92.7917 174.996 92.8125 174.059C92.8438 173.121 92.8802 172.23 92.9219 171.387C92.9635 170.533 92.9948 169.892 93.0156 169.465H92.875L86.9844 187.355H82.5469ZM109.844 169.527C112.188 169.527 113.984 170.038 115.234 171.059C116.484 172.079 117.109 173.632 117.109 175.715V187.355H113.781L112.859 184.98H112.734C112.234 185.605 111.724 186.116 111.203 186.512C110.682 186.908 110.083 187.199 109.406 187.387C108.729 187.574 107.906 187.668 106.938 187.668C105.906 187.668 104.979 187.47 104.156 187.074C103.344 186.678 102.703 186.074 102.234 185.262C101.766 184.439 101.531 183.397 101.531 182.137C101.531 180.283 102.182 178.918 103.484 178.043C104.786 177.158 106.74 176.668 109.344 176.574L112.375 176.48V175.715C112.375 174.798 112.135 174.126 111.656 173.699C111.177 173.272 110.51 173.059 109.656 173.059C108.812 173.059 107.984 173.178 107.172 173.418C106.359 173.658 105.547 173.96 104.734 174.324L103.156 171.105C104.083 170.616 105.12 170.23 106.266 169.949C107.422 169.668 108.615 169.527 109.844 169.527ZM112.375 179.262L110.531 179.324C108.99 179.366 107.917 179.642 107.312 180.152C106.719 180.663 106.422 181.335 106.422 182.168C106.422 182.897 106.635 183.418 107.062 183.73C107.49 184.033 108.047 184.184 108.734 184.184C109.755 184.184 110.615 183.882 111.312 183.277C112.021 182.673 112.375 181.814 112.375 180.699V179.262ZM131.781 169.559C132.021 169.559 132.297 169.574 132.609 169.605C132.932 169.626 133.193 169.658 133.391 169.699L133.031 174.168C132.875 174.116 132.651 174.079 132.359 174.059C132.078 174.027 131.833 174.012 131.625 174.012C131.01 174.012 130.411 174.09 129.828 174.246C129.255 174.402 128.74 174.658 128.281 175.012C127.823 175.355 127.458 175.814 127.188 176.387C126.927 176.949 126.797 177.642 126.797 178.465V187.355H122.031V169.887H125.641L126.344 172.824H126.578C126.922 172.23 127.349 171.689 127.859 171.199C128.38 170.699 128.969 170.303 129.625 170.012C130.292 169.71 131.01 169.559 131.781 169.559ZM143.656 187.668C141.927 187.668 140.453 187.355 139.234 186.73C138.016 186.095 137.089 185.116 136.453 183.793C135.818 182.47 135.5 180.777 135.5 178.715C135.5 176.579 135.859 174.84 136.578 173.496C137.307 172.142 138.312 171.147 139.594 170.512C140.885 169.876 142.38 169.559 144.078 169.559C145.286 169.559 146.328 169.678 147.203 169.918C148.089 170.147 148.859 170.423 149.516 170.746L148.109 174.434C147.359 174.132 146.661 173.887 146.016 173.699C145.37 173.501 144.724 173.402 144.078 173.402C143.245 173.402 142.552 173.6 142 173.996C141.448 174.382 141.036 174.965 140.766 175.746C140.495 176.527 140.359 177.507 140.359 178.684C140.359 179.84 140.505 180.798 140.797 181.559C141.089 182.319 141.51 182.887 142.062 183.262C142.615 183.626 143.286 183.809 144.078 183.809C145.068 183.809 145.948 183.678 146.719 183.418C147.49 183.147 148.24 182.772 148.969 182.293V186.371C148.24 186.829 147.474 187.158 146.672 187.355C145.88 187.564 144.875 187.668 143.656 187.668ZM168.906 178.59C168.906 180.048 168.708 181.34 168.312 182.465C167.927 183.59 167.359 184.543 166.609 185.324C165.87 186.095 164.974 186.678 163.922 187.074C162.88 187.47 161.703 187.668 160.391 187.668C159.161 187.668 158.031 187.47 157 187.074C155.979 186.678 155.089 186.095 154.328 185.324C153.578 184.543 152.995 183.59 152.578 182.465C152.172 181.34 151.969 180.048 151.969 178.59C151.969 176.652 152.312 175.012 153 173.668C153.688 172.324 154.667 171.303 155.938 170.605C157.208 169.908 158.724 169.559 160.484 169.559C162.12 169.559 163.568 169.908 164.828 170.605C166.099 171.303 167.094 172.324 167.812 173.668C168.542 175.012 168.906 176.652 168.906 178.59ZM156.828 178.59C156.828 179.736 156.953 180.699 157.203 181.48C157.453 182.262 157.844 182.85 158.375 183.246C158.906 183.642 159.599 183.84 160.453 183.84C161.297 183.84 161.979 183.642 162.5 183.246C163.031 182.85 163.417 182.262 163.656 181.48C163.906 180.699 164.031 179.736 164.031 178.59C164.031 177.434 163.906 176.475 163.656 175.715C163.417 174.944 163.031 174.366 162.5 173.98C161.969 173.595 161.276 173.402 160.422 173.402C159.161 173.402 158.245 173.835 157.672 174.699C157.109 175.564 156.828 176.861 156.828 178.59ZM185.031 182.168C185.031 183.355 184.75 184.361 184.188 185.184C183.635 185.996 182.807 186.616 181.703 187.043C180.599 187.46 179.224 187.668 177.578 187.668C176.359 187.668 175.312 187.59 174.438 187.434C173.573 187.277 172.698 187.017 171.812 186.652V182.715C172.76 183.142 173.776 183.496 174.859 183.777C175.953 184.048 176.911 184.184 177.734 184.184C178.661 184.184 179.323 184.048 179.719 183.777C180.125 183.496 180.328 183.132 180.328 182.684C180.328 182.392 180.245 182.132 180.078 181.902C179.922 181.663 179.578 181.397 179.047 181.105C178.516 180.803 177.682 180.413 176.547 179.934C175.453 179.475 174.552 179.012 173.844 178.543C173.146 178.074 172.625 177.522 172.281 176.887C171.948 176.241 171.781 175.423 171.781 174.434C171.781 172.819 172.406 171.605 173.656 170.793C174.917 169.97 176.599 169.559 178.703 169.559C179.786 169.559 180.818 169.668 181.797 169.887C182.786 170.105 183.802 170.454 184.844 170.934L183.406 174.371C182.542 173.996 181.724 173.689 180.953 173.449C180.193 173.21 179.417 173.09 178.625 173.09C177.927 173.09 177.401 173.184 177.047 173.371C176.693 173.559 176.516 173.845 176.516 174.23C176.516 174.512 176.604 174.762 176.781 174.98C176.969 175.199 177.323 175.444 177.844 175.715C178.375 175.975 179.151 176.314 180.172 176.73C181.161 177.137 182.021 177.564 182.75 178.012C183.479 178.449 184.042 178.996 184.438 179.652C184.833 180.298 185.031 181.137 185.031 182.168ZM202.594 187.668C200.646 187.668 199.057 186.908 197.828 185.387C196.609 183.855 196 181.611 196 178.652C196 175.663 196.62 173.402 197.859 171.871C199.099 170.329 200.719 169.559 202.719 169.559C203.552 169.559 204.286 169.673 204.922 169.902C205.557 170.132 206.104 170.439 206.562 170.824C207.031 171.21 207.427 171.642 207.75 172.121H207.906C207.844 171.788 207.766 171.298 207.672 170.652C207.589 169.996 207.547 169.324 207.547 168.637V163.043H212.328V187.355H208.672L207.75 185.09H207.547C207.245 185.569 206.865 186.007 206.406 186.402C205.958 186.788 205.422 187.095 204.797 187.324C204.172 187.553 203.438 187.668 202.594 187.668ZM204.266 183.871C205.568 183.871 206.484 183.486 207.016 182.715C207.557 181.934 207.844 180.762 207.875 179.199V178.684C207.875 176.986 207.615 175.689 207.094 174.793C206.573 173.887 205.604 173.434 204.188 173.434C203.135 173.434 202.312 173.887 201.719 174.793C201.125 175.699 200.828 177.007 200.828 178.715C200.828 180.423 201.125 181.71 201.719 182.574C202.323 183.439 203.172 183.871 204.266 183.871ZM233.188 178.59C233.188 180.048 232.99 181.34 232.594 182.465C232.208 183.59 231.641 184.543 230.891 185.324C230.151 186.095 229.255 186.678 228.203 187.074C227.161 187.47 225.984 187.668 224.672 187.668C223.443 187.668 222.312 187.47 221.281 187.074C220.26 186.678 219.37 186.095 218.609 185.324C217.859 184.543 217.276 183.59 216.859 182.465C216.453 181.34 216.25 180.048 216.25 178.59C216.25 176.652 216.594 175.012 217.281 173.668C217.969 172.324 218.948 171.303 220.219 170.605C221.49 169.908 223.005 169.559 224.766 169.559C226.401 169.559 227.849 169.908 229.109 170.605C230.38 171.303 231.375 172.324 232.094 173.668C232.823 175.012 233.188 176.652 233.188 178.59ZM221.109 178.59C221.109 179.736 221.234 180.699 221.484 181.48C221.734 182.262 222.125 182.85 222.656 183.246C223.188 183.642 223.88 183.84 224.734 183.84C225.578 183.84 226.26 183.642 226.781 183.246C227.312 182.85 227.698 182.262 227.938 181.48C228.188 180.699 228.312 179.736 228.312 178.59C228.312 177.434 228.188 176.475 227.938 175.715C227.698 174.944 227.312 174.366 226.781 173.98C226.25 173.595 225.557 173.402 224.703 173.402C223.443 173.402 222.526 173.835 221.953 174.699C221.391 175.564 221.109 176.861 221.109 178.59ZM250.969 187.668C249.021 187.668 247.432 186.908 246.203 185.387C244.984 183.855 244.375 181.611 244.375 178.652C244.375 175.663 244.995 173.402 246.234 171.871C247.474 170.329 249.094 169.559 251.094 169.559C251.927 169.559 252.661 169.673 253.297 169.902C253.932 170.132 254.479 170.439 254.938 170.824C255.406 171.21 255.802 171.642 256.125 172.121H256.281C256.219 171.788 256.141 171.298 256.047 170.652C255.964 169.996 255.922 169.324 255.922 168.637V163.043H260.703V187.355H257.047L256.125 185.09H255.922C255.62 185.569 255.24 186.007 254.781 186.402C254.333 186.788 253.797 187.095 253.172 187.324C252.547 187.553 251.812 187.668 250.969 187.668ZM252.641 183.871C253.943 183.871 254.859 183.486 255.391 182.715C255.932 181.934 256.219 180.762 256.25 179.199V178.684C256.25 176.986 255.99 175.689 255.469 174.793C254.948 173.887 253.979 173.434 252.562 173.434C251.51 173.434 250.688 173.887 250.094 174.793C249.5 175.699 249.203 177.007 249.203 178.715C249.203 180.423 249.5 181.71 250.094 182.574C250.698 183.439 251.547 183.871 252.641 183.871ZM272.891 169.559C274.505 169.559 275.896 169.871 277.062 170.496C278.229 171.111 279.13 172.007 279.766 173.184C280.401 174.361 280.719 175.798 280.719 177.496V179.809H269.453C269.505 181.152 269.906 182.21 270.656 182.98C271.417 183.741 272.469 184.121 273.812 184.121C274.927 184.121 275.948 184.007 276.875 183.777C277.802 183.548 278.755 183.204 279.734 182.746V186.434C278.87 186.861 277.964 187.173 277.016 187.371C276.078 187.569 274.938 187.668 273.594 187.668C271.844 187.668 270.292 187.345 268.938 186.699C267.594 186.053 266.536 185.069 265.766 183.746C265.005 182.423 264.625 180.757 264.625 178.746C264.625 176.704 264.969 175.007 265.656 173.652C266.354 172.288 267.323 171.267 268.562 170.59C269.802 169.902 271.245 169.559 272.891 169.559ZM272.922 172.949C271.995 172.949 271.224 173.246 270.609 173.84C270.005 174.434 269.656 175.366 269.562 176.637H276.25C276.24 175.928 276.109 175.298 275.859 174.746C275.62 174.194 275.255 173.757 274.766 173.434C274.286 173.111 273.672 172.949 272.922 172.949ZM296.781 182.168C296.781 183.355 296.5 184.361 295.938 185.184C295.385 185.996 294.557 186.616 293.453 187.043C292.349 187.46 290.974 187.668 289.328 187.668C288.109 187.668 287.062 187.59 286.188 187.434C285.323 187.277 284.448 187.017 283.562 186.652V182.715C284.51 183.142 285.526 183.496 286.609 183.777C287.703 184.048 288.661 184.184 289.484 184.184C290.411 184.184 291.073 184.048 291.469 183.777C291.875 183.496 292.078 183.132 292.078 182.684C292.078 182.392 291.995 182.132 291.828 181.902C291.672 181.663 291.328 181.397 290.797 181.105C290.266 180.803 289.432 180.413 288.297 179.934C287.203 179.475 286.302 179.012 285.594 178.543C284.896 178.074 284.375 177.522 284.031 176.887C283.698 176.241 283.531 175.423 283.531 174.434C283.531 172.819 284.156 171.605 285.406 170.793C286.667 169.97 288.349 169.559 290.453 169.559C291.536 169.559 292.568 169.668 293.547 169.887C294.536 170.105 295.552 170.454 296.594 170.934L295.156 174.371C294.292 173.996 293.474 173.689 292.703 173.449C291.943 173.21 291.167 173.09 290.375 173.09C289.677 173.09 289.151 173.184 288.797 173.371C288.443 173.559 288.266 173.845 288.266 174.23C288.266 174.512 288.354 174.762 288.531 174.98C288.719 175.199 289.073 175.444 289.594 175.715C290.125 175.975 290.901 176.314 291.922 176.73C292.911 177.137 293.771 177.564 294.5 178.012C295.229 178.449 295.792 178.996 296.188 179.652C296.583 180.298 296.781 181.137 296.781 182.168ZM307.703 169.559C309.318 169.559 310.708 169.871 311.875 170.496C313.042 171.111 313.943 172.007 314.578 173.184C315.214 174.361 315.531 175.798 315.531 177.496V179.809H304.266C304.318 181.152 304.719 182.21 305.469 182.98C306.229 183.741 307.281 184.121 308.625 184.121C309.74 184.121 310.76 184.007 311.688 183.777C312.615 183.548 313.568 183.204 314.547 182.746V186.434C313.682 186.861 312.776 187.173 311.828 187.371C310.891 187.569 309.75 187.668 308.406 187.668C306.656 187.668 305.104 187.345 303.75 186.699C302.406 186.053 301.349 185.069 300.578 183.746C299.818 182.423 299.438 180.757 299.438 178.746C299.438 176.704 299.781 175.007 300.469 173.652C301.167 172.288 302.135 171.267 303.375 170.59C304.615 169.902 306.057 169.559 307.703 169.559ZM307.734 172.949C306.807 172.949 306.036 173.246 305.422 173.84C304.818 174.434 304.469 175.366 304.375 176.637H311.062C311.052 175.928 310.922 175.298 310.672 174.746C310.432 174.194 310.068 173.757 309.578 173.434C309.099 173.111 308.484 172.949 307.734 172.949ZM329.328 169.559C331.193 169.559 332.693 170.069 333.828 171.09C334.964 172.1 335.531 173.725 335.531 175.965V187.355H330.766V177.152C330.766 175.902 330.536 174.96 330.078 174.324C329.63 173.689 328.922 173.371 327.953 173.371C326.495 173.371 325.5 173.866 324.969 174.855C324.438 175.845 324.172 177.272 324.172 179.137V187.355H319.406V169.887H323.047L323.688 172.121H323.953C324.328 171.517 324.792 171.027 325.344 170.652C325.906 170.277 326.526 170.001 327.203 169.824C327.891 169.647 328.599 169.559 329.328 169.559ZM344.594 187.355L337.938 169.887H342.922L346.297 179.84C346.484 180.423 346.63 181.038 346.734 181.684C346.849 182.329 346.927 182.908 346.969 183.418H347.094C347.125 182.866 347.198 182.277 347.312 181.652C347.438 181.027 347.599 180.423 347.797 179.84L351.156 169.887H356.141L349.484 187.355H344.594ZM374.531 178.59C374.531 180.048 374.333 181.34 373.938 182.465C373.552 183.59 372.984 184.543 372.234 185.324C371.495 186.095 370.599 186.678 369.547 187.074C368.505 187.47 367.328 187.668 366.016 187.668C364.786 187.668 363.656 187.47 362.625 187.074C361.604 186.678 360.714 186.095 359.953 185.324C359.203 184.543 358.62 183.59 358.203 182.465C357.797 181.34 357.594 180.048 357.594 178.59C357.594 176.652 357.938 175.012 358.625 173.668C359.312 172.324 360.292 171.303 361.562 170.605C362.833 169.908 364.349 169.559 366.109 169.559C367.745 169.559 369.193 169.908 370.453 170.605C371.724 171.303 372.719 172.324 373.438 173.668C374.167 175.012 374.531 176.652 374.531 178.59ZM362.453 178.59C362.453 179.736 362.578 180.699 362.828 181.48C363.078 182.262 363.469 182.85 364 183.246C364.531 183.642 365.224 183.84 366.078 183.84C366.922 183.84 367.604 183.642 368.125 183.246C368.656 182.85 369.042 182.262 369.281 181.48C369.531 180.699 369.656 179.736 369.656 178.59C369.656 177.434 369.531 176.475 369.281 175.715C369.042 174.944 368.656 174.366 368.125 173.98C367.594 173.595 366.901 173.402 366.047 173.402C364.786 173.402 363.87 173.835 363.297 174.699C362.734 175.564 362.453 176.861 362.453 178.59ZM383.234 187.355H378.469V163.043H383.234V187.355ZM392.406 187.355L385.75 169.887H390.734L394.109 179.84C394.297 180.423 394.443 181.038 394.547 181.684C394.661 182.329 394.74 182.908 394.781 183.418H394.906C394.938 182.866 395.01 182.277 395.125 181.652C395.25 181.027 395.411 180.423 395.609 179.84L398.969 169.887H403.953L397.297 187.355H392.406ZM411.234 169.887V187.355H406.469V169.887H411.234ZM408.859 163.043C409.568 163.043 410.177 163.21 410.688 163.543C411.198 163.866 411.453 164.475 411.453 165.371C411.453 166.257 411.198 166.871 410.688 167.215C410.177 167.548 409.568 167.715 408.859 167.715C408.141 167.715 407.526 167.548 407.016 167.215C406.516 166.871 406.266 166.257 406.266 165.371C406.266 164.475 406.516 163.866 407.016 163.543C407.526 163.21 408.141 163.043 408.859 163.043ZM436.766 169.559C438.745 169.559 440.24 170.069 441.25 171.09C442.271 172.1 442.781 173.725 442.781 175.965V187.355H438V177.152C438 175.902 437.786 174.96 437.359 174.324C436.932 173.689 436.271 173.371 435.375 173.371C434.115 173.371 433.219 173.824 432.688 174.73C432.156 175.626 431.891 176.913 431.891 178.59V187.355H427.125V177.152C427.125 176.319 427.031 175.621 426.844 175.059C426.656 174.496 426.37 174.074 425.984 173.793C425.599 173.512 425.104 173.371 424.5 173.371C423.615 173.371 422.917 173.595 422.406 174.043C421.906 174.48 421.547 175.132 421.328 175.996C421.12 176.85 421.016 177.897 421.016 179.137V187.355H416.25V169.887H419.891L420.531 172.121H420.797C421.151 171.517 421.594 171.027 422.125 170.652C422.667 170.277 423.26 170.001 423.906 169.824C424.552 169.647 425.208 169.559 425.875 169.559C427.156 169.559 428.24 169.767 429.125 170.184C430.021 170.6 430.708 171.246 431.188 172.121H431.609C432.13 171.225 432.865 170.574 433.812 170.168C434.771 169.762 435.755 169.559 436.766 169.559ZM454.891 169.559C456.505 169.559 457.896 169.871 459.062 170.496C460.229 171.111 461.13 172.007 461.766 173.184C462.401 174.361 462.719 175.798 462.719 177.496V179.809H451.453C451.505 181.152 451.906 182.21 452.656 182.98C453.417 183.741 454.469 184.121 455.812 184.121C456.927 184.121 457.948 184.007 458.875 183.777C459.802 183.548 460.755 183.204 461.734 182.746V186.434C460.87 186.861 459.964 187.173 459.016 187.371C458.078 187.569 456.938 187.668 455.594 187.668C453.844 187.668 452.292 187.345 450.938 186.699C449.594 186.053 448.536 185.069 447.766 183.746C447.005 182.423 446.625 180.757 446.625 178.746C446.625 176.704 446.969 175.007 447.656 173.652C448.354 172.288 449.323 171.267 450.562 170.59C451.802 169.902 453.245 169.559 454.891 169.559ZM454.922 172.949C453.995 172.949 453.224 173.246 452.609 173.84C452.005 174.434 451.656 175.366 451.562 176.637H458.25C458.24 175.928 458.109 175.298 457.859 174.746C457.62 174.194 457.255 173.757 456.766 173.434C456.286 173.111 455.672 172.949 454.922 172.949ZM476.516 169.559C478.38 169.559 479.88 170.069 481.016 171.09C482.151 172.1 482.719 173.725 482.719 175.965V187.355H477.953V177.152C477.953 175.902 477.724 174.96 477.266 174.324C476.818 173.689 476.109 173.371 475.141 173.371C473.682 173.371 472.688 173.866 472.156 174.855C471.625 175.845 471.359 177.272 471.359 179.137V187.355H466.594V169.887H470.234L470.875 172.121H471.141C471.516 171.517 471.979 171.027 472.531 170.652C473.094 170.277 473.714 170.001 474.391 169.824C475.078 169.647 475.786 169.559 476.516 169.559ZM494.984 183.871C495.505 183.871 496.01 183.819 496.5 183.715C497 183.611 497.495 183.48 497.984 183.324V186.871C497.474 187.1 496.839 187.288 496.078 187.434C495.328 187.59 494.505 187.668 493.609 187.668C492.568 187.668 491.63 187.501 490.797 187.168C489.974 186.824 489.323 186.236 488.844 185.402C488.375 184.559 488.141 183.387 488.141 181.887V173.465H485.859V171.449L488.484 169.855L489.859 166.168H492.906V169.887H497.797V173.465H492.906V181.887C492.906 182.553 493.094 183.053 493.469 183.387C493.854 183.71 494.359 183.871 494.984 183.871ZM517.406 178.59C517.406 180.048 517.208 181.34 516.812 182.465C516.427 183.59 515.859 184.543 515.109 185.324C514.37 186.095 513.474 186.678 512.422 187.074C511.38 187.47 510.203 187.668 508.891 187.668C507.661 187.668 506.531 187.47 505.5 187.074C504.479 186.678 503.589 186.095 502.828 185.324C502.078 184.543 501.495 183.59 501.078 182.465C500.672 181.34 500.469 180.048 500.469 178.59C500.469 176.652 500.812 175.012 501.5 173.668C502.188 172.324 503.167 171.303 504.438 170.605C505.708 169.908 507.224 169.559 508.984 169.559C510.62 169.559 512.068 169.908 513.328 170.605C514.599 171.303 515.594 172.324 516.312 173.668C517.042 175.012 517.406 176.652 517.406 178.59ZM505.328 178.59C505.328 179.736 505.453 180.699 505.703 181.48C505.953 182.262 506.344 182.85 506.875 183.246C507.406 183.642 508.099 183.84 508.953 183.84C509.797 183.84 510.479 183.642 511 183.246C511.531 182.85 511.917 182.262 512.156 181.48C512.406 180.699 512.531 179.736 512.531 178.59C512.531 177.434 512.406 176.475 512.156 175.715C511.917 174.944 511.531 174.366 511 173.98C510.469 173.595 509.776 173.402 508.922 173.402C507.661 173.402 506.745 173.835 506.172 174.699C505.609 175.564 505.328 176.861 505.328 178.59ZM520.672 185.121C520.672 184.142 520.938 183.454 521.469 183.059C522.01 182.663 522.661 182.465 523.422 182.465C524.161 182.465 524.797 182.663 525.328 183.059C525.87 183.454 526.141 184.142 526.141 185.121C526.141 186.059 525.87 186.736 525.328 187.152C524.797 187.569 524.161 187.777 523.422 187.777C522.661 187.777 522.01 187.569 521.469 187.152C520.938 186.736 520.672 186.059 520.672 185.121ZM520.672 172.215C520.672 171.236 520.938 170.548 521.469 170.152C522.01 169.757 522.661 169.559 523.422 169.559C524.161 169.559 524.797 169.757 525.328 170.152C525.87 170.548 526.141 171.236 526.141 172.215C526.141 173.163 525.87 173.845 525.328 174.262C524.797 174.668 524.161 174.871 523.422 174.871C522.661 174.871 522.01 174.668 521.469 174.262C520.938 173.845 520.672 173.163 520.672 172.215Z" fill="#70728F"/>
<path d="M77.0312 230.668C75.0833 230.668 73.4948 229.908 72.2656 228.387C71.0469 226.855 70.4375 224.611 70.4375 221.652C70.4375 218.663 71.0573 216.402 72.2969 214.871C73.5365 213.329 75.1562 212.559 77.1562 212.559C77.9896 212.559 78.724 212.673 79.3594 212.902C79.9948 213.132 80.5417 213.439 81 213.824C81.4688 214.21 81.8646 214.642 82.1875 215.121H82.3438C82.2812 214.788 82.2031 214.298 82.1094 213.652C82.026 212.996 81.9844 212.324 81.9844 211.637V206.043H86.7656V230.355H83.1094L82.1875 228.09H81.9844C81.6823 228.569 81.3021 229.007 80.8438 229.402C80.3958 229.788 79.8594 230.095 79.2344 230.324C78.6094 230.553 77.875 230.668 77.0312 230.668ZM78.7031 226.871C80.0052 226.871 80.9219 226.486 81.4531 225.715C81.9948 224.934 82.2812 223.762 82.3125 222.199V221.684C82.3125 219.986 82.0521 218.689 81.5312 217.793C81.0104 216.887 80.0417 216.434 78.625 216.434C77.5729 216.434 76.75 216.887 76.1562 217.793C75.5625 218.699 75.2656 220.007 75.2656 221.715C75.2656 223.423 75.5625 224.71 76.1562 225.574C76.7604 226.439 77.6094 226.871 78.7031 226.871ZM98.9531 212.559C100.568 212.559 101.958 212.871 103.125 213.496C104.292 214.111 105.193 215.007 105.828 216.184C106.464 217.361 106.781 218.798 106.781 220.496V222.809H95.5156C95.5677 224.152 95.9688 225.21 96.7188 225.98C97.4792 226.741 98.5312 227.121 99.875 227.121C100.99 227.121 102.01 227.007 102.938 226.777C103.865 226.548 104.818 226.204 105.797 225.746V229.434C104.932 229.861 104.026 230.173 103.078 230.371C102.141 230.569 101 230.668 99.6562 230.668C97.9062 230.668 96.3542 230.345 95 229.699C93.6562 229.053 92.599 228.069 91.8281 226.746C91.0677 225.423 90.6875 223.757 90.6875 221.746C90.6875 219.704 91.0312 218.007 91.7188 216.652C92.4167 215.288 93.3854 214.267 94.625 213.59C95.8646 212.902 97.3073 212.559 98.9531 212.559ZM98.9844 215.949C98.0573 215.949 97.2865 216.246 96.6719 216.84C96.0677 217.434 95.7188 218.366 95.625 219.637H102.312C102.302 218.928 102.172 218.298 101.922 217.746C101.682 217.194 101.318 216.757 100.828 216.434C100.349 216.111 99.7344 215.949 98.9844 215.949ZM117.594 220.652C117.594 219.34 117.688 218.043 117.875 216.762C118.073 215.47 118.411 214.257 118.891 213.121C119.37 211.975 120.042 210.965 120.906 210.09C121.771 209.204 122.87 208.512 124.203 208.012C125.536 207.501 127.151 207.246 129.047 207.246C129.495 207.246 130.016 207.267 130.609 207.309C131.214 207.34 131.714 207.397 132.109 207.48V211.34C131.693 211.246 131.245 211.173 130.766 211.121C130.297 211.059 129.828 211.027 129.359 211.027C127.464 211.027 125.995 211.329 124.953 211.934C123.922 212.538 123.193 213.376 122.766 214.449C122.349 215.512 122.104 216.751 122.031 218.168H122.234C122.526 217.658 122.891 217.204 123.328 216.809C123.776 216.413 124.318 216.1 124.953 215.871C125.589 215.632 126.333 215.512 127.188 215.512C128.521 215.512 129.677 215.798 130.656 216.371C131.635 216.934 132.391 217.751 132.922 218.824C133.453 219.897 133.719 221.204 133.719 222.746C133.719 224.392 133.401 225.809 132.766 226.996C132.13 228.184 131.229 229.095 130.062 229.73C128.906 230.355 127.531 230.668 125.938 230.668C124.771 230.668 123.682 230.47 122.672 230.074C121.661 229.668 120.776 229.053 120.016 228.23C119.255 227.408 118.661 226.371 118.234 225.121C117.807 223.861 117.594 222.371 117.594 220.652ZM125.844 226.809C126.792 226.809 127.562 226.486 128.156 225.84C128.75 225.194 129.047 224.184 129.047 222.809C129.047 221.694 128.786 220.819 128.266 220.184C127.755 219.538 126.979 219.215 125.938 219.215C125.229 219.215 124.604 219.376 124.062 219.699C123.531 220.012 123.12 220.413 122.828 220.902C122.536 221.382 122.391 221.876 122.391 222.387C122.391 222.918 122.464 223.444 122.609 223.965C122.755 224.486 122.974 224.96 123.266 225.387C123.557 225.814 123.917 226.158 124.344 226.418C124.781 226.678 125.281 226.809 125.844 226.809ZM152.75 212.527C155.094 212.527 156.891 213.038 158.141 214.059C159.391 215.079 160.016 216.632 160.016 218.715V230.355H156.688L155.766 227.98H155.641C155.141 228.605 154.63 229.116 154.109 229.512C153.589 229.908 152.99 230.199 152.312 230.387C151.635 230.574 150.812 230.668 149.844 230.668C148.812 230.668 147.885 230.47 147.062 230.074C146.25 229.678 145.609 229.074 145.141 228.262C144.672 227.439 144.438 226.397 144.438 225.137C144.438 223.283 145.089 221.918 146.391 221.043C147.693 220.158 149.646 219.668 152.25 219.574L155.281 219.48V218.715C155.281 217.798 155.042 217.126 154.562 216.699C154.083 216.272 153.417 216.059 152.562 216.059C151.719 216.059 150.891 216.178 150.078 216.418C149.266 216.658 148.453 216.96 147.641 217.324L146.062 214.105C146.99 213.616 148.026 213.23 149.172 212.949C150.328 212.668 151.521 212.527 152.75 212.527ZM155.281 222.262L153.438 222.324C151.896 222.366 150.823 222.642 150.219 223.152C149.625 223.663 149.328 224.335 149.328 225.168C149.328 225.897 149.542 226.418 149.969 226.73C150.396 227.033 150.953 227.184 151.641 227.184C152.661 227.184 153.521 226.882 154.219 226.277C154.927 225.673 155.281 224.814 155.281 223.699V222.262ZM174.859 212.559C176.724 212.559 178.224 213.069 179.359 214.09C180.495 215.1 181.062 216.725 181.062 218.965V230.355H176.297V220.152C176.297 218.902 176.068 217.96 175.609 217.324C175.161 216.689 174.453 216.371 173.484 216.371C172.026 216.371 171.031 216.866 170.5 217.855C169.969 218.845 169.703 220.272 169.703 222.137V230.355H164.938V212.887H168.578L169.219 215.121H169.484C169.859 214.517 170.323 214.027 170.875 213.652C171.438 213.277 172.057 213.001 172.734 212.824C173.422 212.647 174.13 212.559 174.859 212.559ZM201.844 221.59C201.844 223.048 201.646 224.34 201.25 225.465C200.865 226.59 200.297 227.543 199.547 228.324C198.807 229.095 197.911 229.678 196.859 230.074C195.818 230.47 194.641 230.668 193.328 230.668C192.099 230.668 190.969 230.47 189.938 230.074C188.917 229.678 188.026 229.095 187.266 228.324C186.516 227.543 185.932 226.59 185.516 225.465C185.109 224.34 184.906 223.048 184.906 221.59C184.906 219.652 185.25 218.012 185.938 216.668C186.625 215.324 187.604 214.303 188.875 213.605C190.146 212.908 191.661 212.559 193.422 212.559C195.057 212.559 196.505 212.908 197.766 213.605C199.036 214.303 200.031 215.324 200.75 216.668C201.479 218.012 201.844 219.652 201.844 221.59ZM189.766 221.59C189.766 222.736 189.891 223.699 190.141 224.48C190.391 225.262 190.781 225.85 191.312 226.246C191.844 226.642 192.536 226.84 193.391 226.84C194.234 226.84 194.917 226.642 195.438 226.246C195.969 225.85 196.354 225.262 196.594 224.48C196.844 223.699 196.969 222.736 196.969 221.59C196.969 220.434 196.844 219.475 196.594 218.715C196.354 217.944 195.969 217.366 195.438 216.98C194.906 216.595 194.214 216.402 193.359 216.402C192.099 216.402 191.182 216.835 190.609 217.699C190.047 218.564 189.766 219.861 189.766 221.59ZM217.969 225.168C217.969 226.355 217.688 227.361 217.125 228.184C216.573 228.996 215.745 229.616 214.641 230.043C213.536 230.46 212.161 230.668 210.516 230.668C209.297 230.668 208.25 230.59 207.375 230.434C206.51 230.277 205.635 230.017 204.75 229.652V225.715C205.698 226.142 206.714 226.496 207.797 226.777C208.891 227.048 209.849 227.184 210.672 227.184C211.599 227.184 212.26 227.048 212.656 226.777C213.062 226.496 213.266 226.132 213.266 225.684C213.266 225.392 213.182 225.132 213.016 224.902C212.859 224.663 212.516 224.397 211.984 224.105C211.453 223.803 210.62 223.413 209.484 222.934C208.391 222.475 207.49 222.012 206.781 221.543C206.083 221.074 205.562 220.522 205.219 219.887C204.885 219.241 204.719 218.423 204.719 217.434C204.719 215.819 205.344 214.605 206.594 213.793C207.854 212.97 209.536 212.559 211.641 212.559C212.724 212.559 213.755 212.668 214.734 212.887C215.724 213.105 216.74 213.454 217.781 213.934L216.344 217.371C215.479 216.996 214.661 216.689 213.891 216.449C213.13 216.21 212.354 216.09 211.562 216.09C210.865 216.09 210.339 216.184 209.984 216.371C209.63 216.559 209.453 216.845 209.453 217.23C209.453 217.512 209.542 217.762 209.719 217.98C209.906 218.199 210.26 218.444 210.781 218.715C211.312 218.975 212.089 219.314 213.109 219.73C214.099 220.137 214.958 220.564 215.688 221.012C216.417 221.449 216.979 221.996 217.375 222.652C217.771 223.298 217.969 224.137 217.969 225.168ZM237.156 212.527C239.5 212.527 241.297 213.038 242.547 214.059C243.797 215.079 244.422 216.632 244.422 218.715V230.355H241.094L240.172 227.98H240.047C239.547 228.605 239.036 229.116 238.516 229.512C237.995 229.908 237.396 230.199 236.719 230.387C236.042 230.574 235.219 230.668 234.25 230.668C233.219 230.668 232.292 230.47 231.469 230.074C230.656 229.678 230.016 229.074 229.547 228.262C229.078 227.439 228.844 226.397 228.844 225.137C228.844 223.283 229.495 221.918 230.797 221.043C232.099 220.158 234.052 219.668 236.656 219.574L239.688 219.48V218.715C239.688 217.798 239.448 217.126 238.969 216.699C238.49 216.272 237.823 216.059 236.969 216.059C236.125 216.059 235.297 216.178 234.484 216.418C233.672 216.658 232.859 216.96 232.047 217.324L230.469 214.105C231.396 213.616 232.432 213.23 233.578 212.949C234.734 212.668 235.927 212.527 237.156 212.527ZM239.688 222.262L237.844 222.324C236.302 222.366 235.229 222.642 234.625 223.152C234.031 223.663 233.734 224.335 233.734 225.168C233.734 225.897 233.948 226.418 234.375 226.73C234.802 227.033 235.359 227.184 236.047 227.184C237.068 227.184 237.927 226.882 238.625 226.277C239.333 225.673 239.688 224.814 239.688 223.699V222.262ZM268.375 230.355H263.547V217.137C263.547 216.772 263.552 216.324 263.562 215.793C263.573 215.251 263.589 214.699 263.609 214.137C263.63 213.564 263.651 213.048 263.672 212.59C263.557 212.725 263.323 212.96 262.969 213.293C262.625 213.616 262.302 213.908 262 214.168L259.375 216.277L257.047 213.371L264.406 207.512H268.375V230.355ZM290.594 218.934C290.594 220.777 290.448 222.423 290.156 223.871C289.875 225.319 289.417 226.548 288.781 227.559C288.156 228.569 287.333 229.34 286.312 229.871C285.292 230.402 284.052 230.668 282.594 230.668C280.76 230.668 279.255 230.204 278.078 229.277C276.901 228.34 276.031 226.996 275.469 225.246C274.906 223.486 274.625 221.382 274.625 218.934C274.625 216.465 274.88 214.355 275.391 212.605C275.911 210.845 276.755 209.496 277.922 208.559C279.089 207.621 280.646 207.152 282.594 207.152C284.417 207.152 285.917 207.621 287.094 208.559C288.281 209.486 289.161 210.829 289.734 212.59C290.307 214.34 290.594 216.454 290.594 218.934ZM279.422 218.934C279.422 220.673 279.516 222.126 279.703 223.293C279.901 224.449 280.229 225.319 280.688 225.902C281.146 226.486 281.781 226.777 282.594 226.777C283.396 226.777 284.026 226.491 284.484 225.918C284.953 225.335 285.286 224.465 285.484 223.309C285.682 222.142 285.781 220.684 285.781 218.934C285.781 217.194 285.682 215.741 285.484 214.574C285.286 213.408 284.953 212.533 284.484 211.949C284.026 211.355 283.396 211.059 282.594 211.059C281.781 211.059 281.146 211.355 280.688 211.949C280.229 212.533 279.901 213.408 279.703 214.574C279.516 215.741 279.422 217.194 279.422 218.934ZM309.75 212.527C312.094 212.527 313.891 213.038 315.141 214.059C316.391 215.079 317.016 216.632 317.016 218.715V230.355H313.688L312.766 227.98H312.641C312.141 228.605 311.63 229.116 311.109 229.512C310.589 229.908 309.99 230.199 309.312 230.387C308.635 230.574 307.812 230.668 306.844 230.668C305.812 230.668 304.885 230.47 304.062 230.074C303.25 229.678 302.609 229.074 302.141 228.262C301.672 227.439 301.438 226.397 301.438 225.137C301.438 223.283 302.089 221.918 303.391 221.043C304.693 220.158 306.646 219.668 309.25 219.574L312.281 219.48V218.715C312.281 217.798 312.042 217.126 311.562 216.699C311.083 216.272 310.417 216.059 309.562 216.059C308.719 216.059 307.891 216.178 307.078 216.418C306.266 216.658 305.453 216.96 304.641 217.324L303.062 214.105C303.99 213.616 305.026 213.23 306.172 212.949C307.328 212.668 308.521 212.527 309.75 212.527ZM312.281 222.262L310.438 222.324C308.896 222.366 307.823 222.642 307.219 223.152C306.625 223.663 306.328 224.335 306.328 225.168C306.328 225.897 306.542 226.418 306.969 226.73C307.396 227.033 307.953 227.184 308.641 227.184C309.661 227.184 310.521 226.882 311.219 226.277C311.927 225.673 312.281 224.814 312.281 223.699V222.262ZM331.859 212.559C333.724 212.559 335.224 213.069 336.359 214.09C337.495 215.1 338.062 216.725 338.062 218.965V230.355H333.297V220.152C333.297 218.902 333.068 217.96 332.609 217.324C332.161 216.689 331.453 216.371 330.484 216.371C329.026 216.371 328.031 216.866 327.5 217.855C326.969 218.845 326.703 220.272 326.703 222.137V230.355H321.938V212.887H325.578L326.219 215.121H326.484C326.859 214.517 327.323 214.027 327.875 213.652C328.438 213.277 329.057 213.001 329.734 212.824C330.422 212.647 331.13 212.559 331.859 212.559ZM358.844 221.59C358.844 223.048 358.646 224.34 358.25 225.465C357.865 226.59 357.297 227.543 356.547 228.324C355.807 229.095 354.911 229.678 353.859 230.074C352.818 230.47 351.641 230.668 350.328 230.668C349.099 230.668 347.969 230.47 346.938 230.074C345.917 229.678 345.026 229.095 344.266 228.324C343.516 227.543 342.932 226.59 342.516 225.465C342.109 224.34 341.906 223.048 341.906 221.59C341.906 219.652 342.25 218.012 342.938 216.668C343.625 215.324 344.604 214.303 345.875 213.605C347.146 212.908 348.661 212.559 350.422 212.559C352.057 212.559 353.505 212.908 354.766 213.605C356.036 214.303 357.031 215.324 357.75 216.668C358.479 218.012 358.844 219.652 358.844 221.59ZM346.766 221.59C346.766 222.736 346.891 223.699 347.141 224.48C347.391 225.262 347.781 225.85 348.312 226.246C348.844 226.642 349.536 226.84 350.391 226.84C351.234 226.84 351.917 226.642 352.438 226.246C352.969 225.85 353.354 225.262 353.594 224.48C353.844 223.699 353.969 222.736 353.969 221.59C353.969 220.434 353.844 219.475 353.594 218.715C353.354 217.944 352.969 217.366 352.438 216.98C351.906 216.595 351.214 216.402 350.359 216.402C349.099 216.402 348.182 216.835 347.609 217.699C347.047 218.564 346.766 219.861 346.766 221.59ZM374.969 225.168C374.969 226.355 374.688 227.361 374.125 228.184C373.573 228.996 372.745 229.616 371.641 230.043C370.536 230.46 369.161 230.668 367.516 230.668C366.297 230.668 365.25 230.59 364.375 230.434C363.51 230.277 362.635 230.017 361.75 229.652V225.715C362.698 226.142 363.714 226.496 364.797 226.777C365.891 227.048 366.849 227.184 367.672 227.184C368.599 227.184 369.26 227.048 369.656 226.777C370.062 226.496 370.266 226.132 370.266 225.684C370.266 225.392 370.182 225.132 370.016 224.902C369.859 224.663 369.516 224.397 368.984 224.105C368.453 223.803 367.62 223.413 366.484 222.934C365.391 222.475 364.49 222.012 363.781 221.543C363.083 221.074 362.562 220.522 362.219 219.887C361.885 219.241 361.719 218.423 361.719 217.434C361.719 215.819 362.344 214.605 363.594 213.793C364.854 212.97 366.536 212.559 368.641 212.559C369.724 212.559 370.755 212.668 371.734 212.887C372.724 213.105 373.74 213.454 374.781 213.934L373.344 217.371C372.479 216.996 371.661 216.689 370.891 216.449C370.13 216.21 369.354 216.09 368.562 216.09C367.865 216.09 367.339 216.184 366.984 216.371C366.63 216.559 366.453 216.845 366.453 217.23C366.453 217.512 366.542 217.762 366.719 217.98C366.906 218.199 367.26 218.444 367.781 218.715C368.312 218.975 369.089 219.314 370.109 219.73C371.099 220.137 371.958 220.564 372.688 221.012C373.417 221.449 373.979 221.996 374.375 222.652C374.771 223.298 374.969 224.137 374.969 225.168Z" fill="#7B6EB9"/>
<g filter="url(#filter0_d_2096_7393)">
<path fill-rule="evenodd" clip-rule="evenodd" d="M659.258 255.356H648.202C632.757 252.732 621 239.341 621 223.215C621 205.207 635.663 190.608 653.75 190.608C661.641 190.608 668.879 193.388 674.533 198.016C680.442 192.234 688.541 188.664 697.481 188.664C705.759 188.664 713.313 191.728 719.079 196.771C723.914 193.97 729.529 192.357 735.526 192.357C741.891 192.357 747.826 194.171 752.853 197.298C758.689 191.94 766.481 188.664 775.045 188.664C786.818 188.664 797.135 194.852 802.907 204.136C808.861 198.012 817.199 194.199 826.436 194.199C844.523 194.199 859.185 208.797 859.185 226.806C859.185 239.097 852.355 249.799 842.268 255.356H662.042C662.23 255.102 662.421 254.851 662.616 254.603C661.519 254.909 660.399 255.162 659.258 255.356Z" fill="#DCEDFA"/>
</g>
<path fill-rule="evenodd" clip-rule="evenodd" d="M659.258 199.355H648.202C632.757 201.978 621 215.37 621 231.496C621 249.504 635.663 264.103 653.75 264.103C661.641 264.103 668.879 261.323 674.533 256.695C680.442 262.477 688.541 266.047 697.481 266.047C705.759 266.047 713.313 262.983 719.079 257.939C723.914 260.741 729.529 262.354 735.526 262.354C741.891 262.354 747.826 260.54 752.853 257.413C758.689 262.771 766.481 266.047 775.045 266.047C786.818 266.047 797.135 259.859 802.907 250.574C808.861 256.699 817.199 260.512 826.436 260.512C844.523 260.512 859.185 245.914 859.185 227.905C859.185 215.614 852.355 204.912 842.268 199.355H662.042C662.23 199.609 662.421 199.86 662.616 200.108C661.519 199.802 660.399 199.549 659.258 199.355Z" fill="#F8EBF6"/>
<g filter="url(#filter1_d_2096_7393)">
<path d="M1131.28 171.237C1128.2 171.237 1125.24 171.668 1122.42 172.456C1126.76 166.925 1129.36 159.968 1129.36 152.401C1129.36 134.404 1114.71 119.814 1096.63 119.814C1088.22 119.814 1080.55 122.979 1074.75 128.174C1074.86 127.111 1074.91 126.034 1074.91 124.943C1074.91 106.945 1060.26 92.3555 1042.19 92.3555C1024.12 92.3555 1009.46 106.945 1009.46 124.943C1009.46 126.079 1009.52 127.2 1009.64 128.306C1004.44 124.835 998.18 122.809 991.448 122.809C973.375 122.809 958.724 137.399 958.724 155.396C958.724 159.769 959.595 163.938 961.164 167.749C960.358 167.689 959.546 167.649 958.724 167.649C940.651 167.649 926 182.239 926 200.237C926 218.234 940.651 232.824 958.724 232.824C967.954 232.824 976.285 229.013 982.234 222.892C988.002 232.171 998.311 238.355 1010.07 238.355C1018.63 238.355 1026.42 235.081 1032.25 229.727C1037.27 232.852 1043.2 234.665 1049.56 234.665C1055.56 234.665 1061.17 233.053 1066 230.253C1071.76 235.293 1079.31 238.355 1087.58 238.355C1096.51 238.355 1104.6 234.788 1110.51 229.01C1116.16 233.635 1123.39 236.413 1131.28 236.413C1149.35 236.413 1164 221.823 1164 203.825C1164 185.827 1149.35 171.237 1131.28 171.237Z" fill="#F8EBF6"/>
</g>
<g filter="url(#filter2_d_2096_7393)">
<rect x="56" y="36.3555" width="98" height="95" rx="47.5" fill="#7B6EB9" shape-rendering="crispEdges"/>
<rect x="56" y="36.3555" width="98" height="95" rx="47.5" stroke="white" stroke-width="6" shape-rendering="crispEdges"/>
<path d="M99.375 96.3555H83.4062V92.9961L89.1406 87.1992C90.2969 86.0117 91.224 85.0221 91.9219 84.2305C92.6302 83.4284 93.1406 82.6992 93.4531 82.043C93.776 81.3867 93.9375 80.6836 93.9375 79.9336C93.9375 79.0273 93.6823 78.3503 93.1719 77.9023C92.6719 77.444 92 77.2148 91.1562 77.2148C90.2708 77.2148 89.4115 77.418 88.5781 77.8242C87.7448 78.2305 86.875 78.8086 85.9688 79.5586L83.3438 76.4492C84 75.8867 84.6927 75.3555 85.4219 74.8555C86.1615 74.3555 87.0156 73.9544 87.9844 73.6523C88.9635 73.3398 90.1354 73.1836 91.5 73.1836C93 73.1836 94.2865 73.4544 95.3594 73.9961C96.4427 74.5378 97.276 75.2773 97.8594 76.2148C98.4427 77.1419 98.7344 78.194 98.7344 79.3711C98.7344 80.6315 98.4844 81.7826 97.9844 82.8242C97.4844 83.8659 96.7552 84.8971 95.7969 85.918C94.849 86.9388 93.7031 88.069 92.3594 89.3086L89.4219 92.0742V92.293H99.375V96.3555ZM102.266 94.1211C102.266 93.1419 102.531 92.4544 103.062 92.0586C103.604 91.6628 104.255 91.4648 105.016 91.4648C105.755 91.4648 106.391 91.6628 106.922 92.0586C107.464 92.4544 107.734 93.1419 107.734 94.1211C107.734 95.0586 107.464 95.7357 106.922 96.1523C106.391 96.569 105.755 96.7773 105.016 96.7773C104.255 96.7773 103.604 96.569 103.062 96.1523C102.531 95.7357 102.266 95.0586 102.266 94.1211ZM110.688 86.6523C110.688 85.3398 110.781 84.043 110.969 82.7617C111.167 81.4701 111.505 80.2565 111.984 79.1211C112.464 77.9753 113.135 76.9648 114 76.0898C114.865 75.2044 115.964 74.5117 117.297 74.0117C118.63 73.5013 120.245 73.2461 122.141 73.2461C122.589 73.2461 123.109 73.2669 123.703 73.3086C124.307 73.3398 124.807 73.3971 125.203 73.4805V77.3398C124.786 77.2461 124.339 77.1732 123.859 77.1211C123.391 77.0586 122.922 77.0273 122.453 77.0273C120.557 77.0273 119.089 77.3294 118.047 77.9336C117.016 78.5378 116.286 79.3763 115.859 80.4492C115.443 81.5117 115.198 82.7513 115.125 84.168H115.328C115.62 83.6576 115.984 83.2044 116.422 82.8086C116.87 82.4128 117.411 82.1003 118.047 81.8711C118.682 81.6315 119.427 81.5117 120.281 81.5117C121.615 81.5117 122.771 81.7982 123.75 82.3711C124.729 82.9336 125.484 83.7513 126.016 84.8242C126.547 85.8971 126.812 87.2044 126.812 88.7461C126.812 90.3919 126.495 91.8086 125.859 92.9961C125.224 94.1836 124.323 95.0951 123.156 95.7305C122 96.3555 120.625 96.668 119.031 96.668C117.865 96.668 116.776 96.4701 115.766 96.0742C114.755 95.668 113.87 95.0534 113.109 94.2305C112.349 93.4076 111.755 92.3711 111.328 91.1211C110.901 89.8607 110.688 88.3711 110.688 86.6523ZM118.938 92.8086C119.885 92.8086 120.656 92.4857 121.25 91.8398C121.844 91.194 122.141 90.1836 122.141 88.8086C122.141 87.694 121.88 86.819 121.359 86.1836C120.849 85.5378 120.073 85.2148 119.031 85.2148C118.323 85.2148 117.698 85.3763 117.156 85.6992C116.625 86.0117 116.214 86.4128 115.922 86.9023C115.63 87.3815 115.484 87.8763 115.484 88.3867C115.484 88.918 115.557 89.444 115.703 89.9648C115.849 90.4857 116.068 90.9596 116.359 91.3867C116.651 91.8138 117.01 92.1576 117.438 92.418C117.875 92.6784 118.375 92.8086 118.938 92.8086Z" fill="white"/>
</g>
<path d="M712.863 79.033C712.509 85.0664 715.088 90.9334 718.312 96.2097C719.741 98.5493 721.318 100.843 722.24 103.387C723.161 105.931 723.365 108.819 722.061 111.219C724.101 112.208 726.667 112.23 728.727 111.277C728.372 112.487 727.507 113.566 726.351 114.241C728.509 115.389 731.232 115.038 733.634 114.413C744.202 111.663 753.09 104.019 756.729 94.5504C756.988 93.8775 757.268 93.1408 757.933 92.7679C758.485 92.459 759.173 92.4751 759.819 92.4625C764.827 92.3649 769.738 89.7569 772.125 85.7356C774.512 81.7144 774.176 76.4209 771.13 72.7893C772.952 73.2657 775.014 72.893 776.5 71.8192C770.886 68.5759 765.754 64.6638 760.061 61.5373C754.368 58.4109 747.891 56.0546 741.257 56.3867C737.708 56.5644 734.156 57.633 731.239 59.4994C729.18 60.8167 727.516 63.0004 726.126 64.882C718.092 65.1689 713.258 72.2855 712.863 79.033Z" fill="#F9BC9A" stroke="black" stroke-width="0.4" stroke-miterlimit="10"/>
<path d="M785.524 174.155C786.003 175.113 786.442 176.094 786.852 177.083C787.329 178.232 787.828 179.374 788.222 180.556C788.601 181.692 789.016 182.872 789.058 184.08C789.083 184.78 788.995 185.893 788.295 186.268C788.184 186.327 787.94 186.322 787.874 186.438C787.798 186.575 787.939 187.058 787.895 187.265C787.777 187.824 787.353 188.335 786.789 188.481C786.864 188.843 786.881 189.26 786.641 189.54C786.391 189.83 785.938 189.866 785.581 189.728C785.211 189.584 784.949 189.178 784.553 189.123C784.044 189.051 783.692 189.369 783.181 189.025C782.765 188.745 782.515 188.285 782.28 187.842C780.671 184.812 778.864 181.826 776.653 179.181C775.11 177.335 773.239 175.556 772.619 173.19C772.077 171.12 772.177 167.011 772.177 167.011L778.018 163.902C778.018 163.902 780.632 167.989 781.76 168.961C783.4 170.374 784.563 172.236 785.524 174.155Z" fill="#FFDBCA" stroke="black" stroke-width="0.4" stroke-miterlimit="10"/>
<path d="M780.868 182.285C781.468 181.924 782.049 181.531 782.607 181.109" stroke="#333333" stroke-width="0.4" stroke-linecap="round" stroke-linejoin="round"/>
<path d="M781.545 181.988C783.05 184.134 784.235 186.504 785.048 188.996" stroke="#333333" stroke-width="0.4" stroke-linecap="round" stroke-linejoin="round"/>
<path d="M783.802 182.195C784.989 184.087 785.954 186.117 786.67 188.232" stroke="#333333" stroke-width="0.4" stroke-linecap="round" stroke-linejoin="round"/>
<path d="M785.491 181.535C786.351 183.039 787.09 184.613 787.698 186.235" stroke="#333333" stroke-width="0.4" stroke-linecap="round" stroke-linejoin="round"/>
<path d="M784.037 173.703C784.286 174.717 784.421 175.77 784.531 176.784C784.691 178.254 785.417 179.608 785.51 181.081C785.544 181.623 785.385 182.284 784.867 182.448C784.56 182.545 784.228 182.428 783.944 182.276C782.524 181.512 781.884 180.027 781.372 178.585C781.014 177.575 780.624 176.865 779.853 176.105C778.581 174.851 777.545 173.699 777.353 171.84" stroke="#333333" stroke-width="0.4" stroke-linecap="round" stroke-linejoin="round"/>
<path d="M765.905 127.573C766.421 127.992 766.897 128.452 767.311 128.963C771.16 133.711 771.353 141.018 772.314 146.776C772.379 147.165 772.452 147.574 772.703 147.879C772.934 148.16 773.291 148.32 773.505 148.614C773.919 149.181 773.65 149.98 773.78 150.67C773.866 151.125 774.127 151.524 774.381 151.91C776.025 154.403 777.787 156.818 779.417 159.32C780.229 160.568 781.013 161.837 781.726 163.145C781.849 163.37 783.388 166.282 783.326 166.344C780.443 169.21 776.888 171.396 773.03 172.678C772.792 172.756 772.538 172.833 772.294 172.773C772.029 172.708 771.829 172.494 771.652 172.286C770.714 171.183 769.949 169.945 769.193 168.71C767.172 165.412 765.181 162.096 763.22 158.764C762.297 157.195 761.377 155.616 760.712 153.922C760.008 152.129 759.6 150.233 759.25 148.338C758.739 145.572 758.369 142.79 758.069 139.994C757.833 137.792 757.089 135.625 756.794 133.383C756.319 129.78 756.233 126.233 756.474 122.602C758.357 123.654 760.382 124.424 762.317 125.378C763.547 125.984 764.814 126.686 765.905 127.573Z" fill="white" stroke="black" stroke-width="0.4" stroke-miterlimit="10"/>
<path d="M771.79 147.898C770.3 149.989 766.882 150.31 765.029 148.533" stroke="black" stroke-width="0.4" stroke-linecap="round" stroke-linejoin="round"/>
<path d="M769.396 168.61C770.459 168.767 771.5 168.269 772.442 167.75C775.453 166.092 778.268 164.079 780.811 161.766" stroke="black" stroke-width="0.4" stroke-linecap="round" stroke-linejoin="round"/>
<path d="M721.437 240.476C721.516 240.183 722.393 237.989 723.103 236.237L715.723 234.398C714.925 236.628 713.681 238.585 712.674 240.7C711.659 242.831 710.884 245.135 710.121 247.391C709.975 247.822 709.83 248.251 709.684 248.676C709.478 249.276 709.272 249.908 709.379 250.533C709.38 250.539 709.382 250.545 709.383 250.551C710.914 248.129 714.207 246.992 717.072 247.582C718.92 247.963 720.573 248.922 721.978 250.195C721.971 249.637 721.926 249.069 721.858 248.504C721.526 245.714 720.708 243.173 721.437 240.476Z" fill="#EFDCCE" stroke="black" stroke-width="0.4" stroke-miterlimit="10"/>
<path d="M709.384 250.552C709.669 252.138 712.089 253.997 713.364 254.804C715.24 255.99 717.312 256.109 719.333 255.184C721.473 254.204 722.005 252.279 721.978 250.196C720.574 248.923 718.921 247.964 717.073 247.583C714.208 246.993 710.915 248.13 709.384 250.552Z" fill="#AA61B7" stroke="black" stroke-width="0.4" stroke-miterlimit="10"/>
<path d="M774.147 249.89C773.512 249.217 771.379 248.244 769.254 247.262C767.252 248.806 766.009 251.532 766.076 254.141C766.189 254.155 766.301 254.174 766.414 254.187C768.783 254.459 772.021 254.415 774.157 253.203C775.504 252.439 775.078 250.877 774.147 249.89Z" fill="#AA61B7" stroke="black" stroke-width="0.4" stroke-miterlimit="10"/>
<path d="M751.594 246.949C751.433 248.784 751.284 250.261 751.301 250.528C751.449 252.848 755.549 252.666 757.571 252.737C756.704 251.282 756.212 249.512 755.012 248.3C754.121 247.399 752.857 246.949 751.594 246.949Z" fill="#AA61B7" stroke="black" stroke-width="0.4" stroke-miterlimit="10"/>
<path d="M769.254 247.26C767.528 246.463 765.807 245.659 764.897 245.004C763.321 243.87 761.834 242.949 761.06 241.061C760.564 239.85 760.369 238.548 760.263 237.238L751.859 238.916C751.869 238.991 751.88 239.061 751.89 239.136C752.104 240.657 751.835 244.205 751.594 246.949C752.857 246.949 754.121 247.399 755.012 248.3C756.212 249.512 756.704 251.282 757.571 252.737C757.776 252.745 757.967 252.753 758.123 252.769C760.806 253.032 763.407 253.794 766.077 254.14C766.01 251.531 767.253 248.805 769.254 247.26Z" fill="#EFDCCE" stroke="black" stroke-width="0.4" stroke-miterlimit="10"/>
<path d="M765.597 160.675C765.176 158.825 764.698 156.728 764.19 154.337L763.585 151.488L731.831 150.453L730.98 153.139C730.31 155.259 729.576 157.007 728.799 158.858C727.795 161.249 726.757 163.721 725.935 166.894C725.48 168.65 725.098 169.955 724.76 171.106C723.674 174.815 723.19 176.696 723.108 182.405C723.056 186.059 722.889 199.088 722.844 202.622C721.91 204.413 719.781 208.545 719.047 210.389C715.765 218.632 713.896 227.023 712.005 235.662C711.937 235.974 711.868 236.291 711.891 236.609C711.926 237.079 712.158 237.512 712.42 237.903C714.802 241.464 719.784 242.482 723.944 241.462C724.35 241.363 724.771 241.237 725.064 240.94C725.266 240.736 725.389 240.47 725.509 240.209C727.696 235.429 730.003 230.642 731.96 225.748C732.768 223.894 733.604 221.977 734.469 220.118C735.623 217.639 736.725 215.532 737.792 213.494C740.408 208.493 742.666 204.175 744.235 197.199C744.45 196.245 744.933 194.244 745.513 191.904C745.702 193.508 745.897 195.2 746.105 197.044C746.674 202.061 746.598 207.128 745.879 212.104C744.578 221.11 746.969 231.29 748.946 240.095C749.067 240.636 749.202 241.198 749.555 241.625C749.872 242.008 750.332 242.241 750.789 242.438C754.53 244.05 759.006 243.845 762.583 241.898C762.973 241.686 763.371 241.435 763.575 241.04C763.742 240.716 763.755 240.338 763.765 239.973C763.937 233.653 764.397 227.319 764.397 220.978C764.431 219.643 764.469 219.184 764.487 219.036C764.707 218.293 764.836 217.552 764.967 215.398C765.288 210.172 765.896 205.669 766.483 201.315C767.179 196.159 767.898 190.827 768.123 184.409C768.507 173.464 767.412 168.65 765.597 160.675Z" fill="#AA61B7" stroke="black" stroke-width="0.4" stroke-miterlimit="10"/>
<path d="M746.057 191.464C749.236 190.717 752.416 189.97 755.596 189.223" stroke="black" stroke-width="0.4" stroke-linecap="round" stroke-linejoin="round"/>
<path d="M747.78 190.772C748.77 186.255 749.048 181.583 748.602 176.98" stroke="black" stroke-width="0.4" stroke-linecap="round" stroke-linejoin="round"/>
<path d="M751.399 190.081C752.746 185.623 753.114 180.873 752.472 176.262" stroke="black" stroke-width="0.4" stroke-linecap="round" stroke-linejoin="round"/>
<path d="M747.421 192.512C749.883 193.154 752.345 193.796 754.808 194.438" stroke="black" stroke-width="0.4" stroke-linecap="round" stroke-linejoin="round"/>
<path d="M723.84 203.895C725.001 206.042 726.447 208.035 728.128 209.804" stroke="black" stroke-width="0.4" stroke-linecap="round" stroke-linejoin="round"/>
<path d="M748.555 206.895C749.579 208.746 750.603 210.597 751.627 212.449" stroke="black" stroke-width="0.4" stroke-linecap="round" stroke-linejoin="round"/>
<path d="M751.48 127.807C757.933 128.235 756.055 122.437 756.055 122.437C753.735 121.183 751.52 119.511 750.539 116.854C748.853 112.285 750.966 108.842 750.966 108.842L737.701 102.02C737.701 102.02 739.772 115.004 737.734 118.889C737.734 118.889 745.027 127.379 751.48 127.807Z" fill="#FFDBCA" stroke="black" stroke-width="0.4" stroke-miterlimit="10"/>
<path d="M766.552 145.593C765.82 133.893 764.015 126.348 760.771 124.734C759.414 124.059 757.691 123.372 756.022 122.47C756.022 122.47 757.9 128.268 751.447 127.84C744.995 127.412 737.701 118.922 737.701 118.922C737.121 120.029 735.842 120.79 734.283 121.354C732.556 121.977 730.487 122.357 728.636 122.688C726.292 123.108 724.3 123.451 723.81 124.117C718.269 131.632 727.991 142.062 725.471 149.96C725.054 151.267 724.363 152.495 724.157 153.851C723.95 155.207 724.404 156.816 725.66 157.369C724.567 157.849 724.037 159.312 724.569 160.381C724.806 160.858 725.216 161.249 725.373 161.758C725.6 162.491 725.257 163.262 724.998 163.984C723.424 168.377 724.894 173.221 726.464 177.615C728 181.915 729.635 186.18 731.366 190.406C737.934 188.721 744.224 185.955 749.904 182.253C750.382 181.941 750.916 181.608 751.48 181.695C751.927 181.764 752.289 182.083 752.622 182.388C756.64 186.066 760.657 189.743 764.675 193.421C768.458 177.63 767.554 161.614 766.552 145.593Z" fill="white"/>
<path d="M761.372 124.825C760.015 124.149 757.691 123.372 756.022 122.47C756.022 122.47 757.9 128.268 751.447 127.84C744.995 127.412 737.701 118.922 737.701 118.922C737.121 120.029 735.842 120.79 734.283 121.354C732.556 121.977 730.487 122.357 728.636 122.688C726.292 123.108 724.3 123.451 723.81 124.117C718.269 131.632 727.991 142.062 725.471 149.96C725.054 151.267 724.363 152.495 724.157 153.851C723.95 155.207 724.404 156.816 725.66 157.369C724.567 157.849 724.037 159.312 724.569 160.381C724.806 160.858 725.216 161.249 725.373 161.758C725.6 162.491 725.257 163.262 724.998 163.984C723.424 168.377 724.894 173.221 726.464 177.615C728 181.915 729.635 186.18 731.366 190.406C737.934 188.721 744.224 185.955 749.904 182.253C750.382 181.941 750.916 181.608 751.48 181.695C751.927 181.764 752.289 182.083 752.622 182.388C756.64 186.066 760.657 189.743 764.675 193.421C768.458 177.63 767.554 161.614 766.552 145.593C766.449 143.956 766.326 142.4 766.18 140.93" stroke="black" stroke-width="0.4" stroke-miterlimit="10"/>
<g style="mix-blend-mode:multiply" opacity="0.7">
<path d="M748.71 117.375C749.469 117.412 750.099 117.289 750.625 117.052C750.598 116.984 750.564 116.923 750.539 116.854C748.853 112.285 750.966 108.842 750.966 108.842L737.701 102.02C737.701 102.02 738.201 105.159 738.468 108.812C740.099 111.421 744.184 117.153 748.71 117.375Z" fill="#FFB27C"/>
</g>
<path d="M734.881 67.891C730.731 70.9491 728.025 75.3837 726.866 80.5727C726.806 80.8451 726.749 81.1184 726.696 81.3924C725.373 88.2448 726.529 95.5279 729.8 101.683C731.07 104.071 732.221 106.269 734.303 108.057C738.87 111.979 741.557 113.998 747.417 115.374C751.11 116.241 756.363 116.043 759.892 114.039C762.371 112.63 764.404 110.446 765.841 107.982C767.901 104.447 767.252 100.999 766.77 97.1804C766.081 91.721 767.949 86.1941 767.373 80.7215C766.825 75.5184 763.958 70.6029 759.699 67.5645C758.43 66.6598 757.029 65.9493 755.572 65.4027C749.976 63.3029 743.167 63.3616 737.791 66.0985C736.753 66.6267 735.783 67.2264 734.881 67.891Z" fill="#FFDBCA"/>
<path d="M734.881 67.891C730.731 70.9491 728.025 75.3837 726.866 80.5727C726.806 80.8451 726.749 81.1184 726.696 81.3924C725.373 88.2448 726.529 95.5279 729.8 101.683C731.07 104.071 732.221 106.269 734.303 108.057C738.87 111.979 741.557 113.998 747.417 115.374C751.11 116.241 756.363 116.043 759.892 114.039C762.371 112.63 764.404 110.446 765.841 107.982C767.901 104.447 767.252 100.999 766.77 97.1804C766.081 91.721 767.949 86.1941 767.373 80.7215C766.825 75.5184 763.958 70.6029 759.699 67.5645C758.43 66.6598 757.029 65.9493 755.572 65.4027C749.976 63.3029 743.167 63.3616 737.791 66.0985C736.753 66.6267 735.783 67.2264 734.881 67.891Z" stroke="black" stroke-width="0.4" stroke-miterlimit="10"/>
<path d="M756.465 92.5938C755.738 94.6724 756.428 97.1679 758.119 98.5784C758.557 98.9436 759.071 99.2618 759.322 99.7738C759.593 100.327 759.491 101.007 759.192 101.545C758.893 102.084 758.421 102.504 757.937 102.884" stroke="black" stroke-width="0.4" stroke-linecap="round" stroke-linejoin="round"/>
<path d="M751.879 108.086C753.121 108.735 754.633 108.847 755.957 108.389" stroke="black" stroke-width="0.4" stroke-linecap="round" stroke-linejoin="round"/>
<path d="M749.74 105.219C752.531 107.077 755.468 106.95 757.967 106.206" stroke="black" stroke-width="0.4" stroke-linecap="round" stroke-linejoin="round"/>
<path d="M734.693 92.0815C736.751 88.9537 738.279 85.4789 739.194 81.8488C739.502 83.8306 739.055 85.9202 737.964 87.6028C742.831 84.9731 746.088 79.5957 746.163 74.0639C748.712 77.1215 752.425 79.1837 756.368 79.7312C755.098 78.6522 754.128 77.2233 753.594 75.6444C757.334 79.1255 762.69 80.792 767.745 80.0468C768.148 79.9874 768.585 79.8933 768.842 79.5766C769.164 79.1802 769.078 78.6021 768.958 78.1059C766.851 69.3695 759.112 62.2751 750.225 60.9344C741.339 59.5936 731.851 64.0887 727.26 71.8144C724.287 76.8166 723.485 82.9837 724.761 88.6332C725.212 90.6304 726.162 94.9755 728.207 95.9689C730.757 97.2075 733.484 93.92 734.693 92.0815Z" fill="#F9BC9A"/>
<path d="M728.209 95.9675C730.759 97.2061 733.486 93.9186 734.695 92.0801C736.753 88.9523 738.281 85.4775 739.196 81.8474C739.504 83.8292 739.057 85.9188 737.966 87.6014C742.833 84.9717 746.09 79.5943 746.166 74.0625C748.714 77.1201 752.428 79.1823 756.371 79.7298C755.1 78.6508 754.13 77.2219 753.596 75.643C757.336 79.1241 762.692 80.7906 767.747 80.0454" stroke="black" stroke-width="0.4" stroke-miterlimit="10"/>
<path d="M730.424 95.2608C732.547 98.2063 733.206 101.221 731.117 102.726C729.027 104.232 724.98 103.659 722.857 100.713C720.735 97.7677 720.708 94.1594 722.798 92.6538C724.887 91.1481 728.302 92.3154 730.424 95.2608Z" fill="#FFDBCA"/>
<path d="M731.117 102.726C729.027 104.232 724.98 103.659 722.857 100.713C720.735 97.7677 720.708 94.1594 722.798 92.6538C724.887 91.1481 728.302 92.3154 730.424 95.2608" stroke="black" stroke-width="0.4" stroke-miterlimit="10"/>
<path d="M721.494 94.4939C721.494 94.4939 725.766 93.9893 730.678 100.336" stroke="black" stroke-width="0.4" stroke-linecap="round" stroke-linejoin="round"/>
<path d="M727.56 64.9805C728.9 66.1516 730.158 67.4181 731.319 68.7672" stroke="black" stroke-width="0.4" stroke-linecap="round" stroke-linejoin="round"/>
<path d="M730.338 63.7806C731.091 62.4897 732.371 61.5168 733.816 61.1367" stroke="black" stroke-width="0.4" stroke-linecap="round" stroke-linejoin="round"/>
<path d="M731.375 65.5461C732.659 64.2967 734.398 63.5248 736.186 63.4102" stroke="black" stroke-width="0.4" stroke-linecap="round" stroke-linejoin="round"/>
<path d="M726.042 67.7658C725.057 67.6057 724.011 67.8592 723.208 68.4528" stroke="black" stroke-width="0.4" stroke-linecap="round" stroke-linejoin="round"/>
<path d="M767.459 166.498C767.44 159.531 767.021 152.546 766.584 145.559C766.482 143.933 766.36 142.387 766.216 140.926" stroke="#333333" stroke-width="0.4" stroke-linecap="round" stroke-linejoin="round"/>
<path d="M752.299 127.887C752.629 130.188 752.663 132.532 752.401 134.841" stroke="black" stroke-width="0.4" stroke-linecap="round" stroke-linejoin="round"/>
<path d="M701.663 176.765C701.201 178.326 700.74 179.887 700.278 181.448C700.132 181.938 699.986 182.438 700.001 182.95C700.017 183.461 700.222 183.994 700.647 184.277C700.556 184.836 700.465 185.406 700.547 185.966C700.629 186.526 700.912 187.086 701.406 187.363C701.511 187.421 701.628 187.469 701.702 187.564C701.766 187.645 701.79 187.75 701.834 187.843C701.993 188.18 702.407 188.335 702.778 188.298C703.149 188.261 703.485 188.07 703.799 187.87C703.975 188.125 704.348 188.164 704.643 188.068C705.044 187.937 705.359 187.614 705.568 187.248C705.778 186.882 705.894 186.471 706.008 186.065C706.232 185.276 706.456 184.487 706.682 183.699C706.859 183.083 707.038 182.465 707.311 181.886C707.839 180.766 708.694 179.848 709.61 179.033C710.038 178.651 710.501 178.305 710.892 177.892C711.128 177.643 711.446 177.294 711.844 177.413C712.302 177.552 712.399 178.156 712.354 178.632C712.17 180.562 711.073 182.322 710.941 184.256C710.921 184.555 710.942 184.898 711.172 185.091C711.566 185.422 712.144 185.043 712.51 184.68C713.81 183.391 715.136 182.066 715.922 180.412C717.269 177.574 717.721 174.183 718.085 171.095C718.286 169.39 718.369 167.728 718.685 166.094L711.426 163.09C710.039 165.542 707.912 167.36 706.074 169.467C705.072 170.615 704.064 171.773 703.313 173.098C702.641 174.282 702.054 175.446 701.663 176.765Z" fill="#FFDBCA" stroke="black" stroke-width="0.4" stroke-miterlimit="10"/>
<path d="M703.827 187.67C703.999 185.163 704.514 182.68 705.354 180.312" stroke="#333333" stroke-width="0.4" stroke-linecap="round" stroke-linejoin="round"/>
<path d="M701.736 187.286C702.108 184.528 702.823 181.817 703.859 179.234" stroke="#333333" stroke-width="0.4" stroke-linecap="round" stroke-linejoin="round"/>
<path d="M700.865 184.007C701.281 181.89 701.876 179.809 702.641 177.793" stroke="#333333" stroke-width="0.4" stroke-linecap="round" stroke-linejoin="round"/>
<path d="M735.284 121.484C733.869 121.721 732.451 121.946 731.042 122.215C729.633 122.484 728.195 122.546 726.783 122.792C725.169 123.073 723.525 123.639 722.413 124.841C721.915 125.379 721.604 126.065 721.115 126.6C720.641 127.118 720.132 127.606 719.68 128.154C718.75 129.283 717.911 130.486 717.138 131.726C713.919 136.892 711.441 142.514 709.768 148.365C708.003 154.537 707.466 160.709 706.888 167.078C706.863 167.357 706.839 167.646 706.932 167.91C707.025 168.175 707.226 168.386 707.429 168.582C710.363 171.418 714.725 172.696 718.726 171.893C718.971 171.844 719.228 171.78 719.406 171.605C720 171.022 719.871 169.32 719.971 168.553C720.162 167.087 720.353 165.622 720.545 164.156C720.927 161.225 721.309 158.293 721.692 155.362C721.733 155.047 721.78 154.716 721.972 154.463C722.2 154.164 722.588 154.03 722.849 153.76C723.423 153.167 723.201 152.208 723.247 151.383C723.409 148.532 726.98 146.52 728.954 144.945C735.732 139.54 738.423 129.565 735.284 121.484Z" fill="white"/>
<path d="M733.152 121.715C731.743 121.984 728.195 122.544 726.783 122.791C725.169 123.072 723.525 123.638 722.413 124.84C721.915 125.378 721.604 126.063 721.115 126.599C720.641 127.117 720.132 127.605 719.68 128.153C718.75 129.282 717.911 130.484 717.138 131.725C713.919 136.89 711.441 142.513 709.768 148.363C708.003 154.535 707.466 160.708 706.888 167.077C706.863 167.356 706.839 167.645 706.932 167.909C707.025 168.174 707.226 168.385 707.429 168.58C710.363 171.417 714.725 172.695 718.726 171.892C718.971 171.843 719.228 171.779 719.406 171.604C720 171.02 719.871 169.319 719.971 168.552C720.162 167.086 720.353 165.62 720.545 164.155C720.927 161.223 721.309 158.292 721.692 155.361C721.733 155.046 721.78 154.715 721.972 154.462C722.2 154.162 722.588 154.029 722.849 153.759C723.423 153.166 723.201 152.206 723.247 151.382C723.339 149.767 724.524 148.421 725.894 147.272" stroke="black" stroke-width="0.4" stroke-miterlimit="10"/>
<path d="M722.46 150.084C721.983 150.382 721.356 150.192 720.857 149.932C719.696 149.329 718.718 148.38 718.08 147.238" stroke="black" stroke-width="0.4" stroke-linecap="round" stroke-linejoin="round"/>
<path d="M707.311 163.441C708.636 165.301 710.716 166.546 712.928 167.11C715.141 167.675 717.48 167.598 719.723 167.171" stroke="black" stroke-width="0.4" stroke-linecap="round" stroke-linejoin="round"/>
<path d="M725.947 147.239C726.891 145.928 728.105 144.813 729.49 143.984" stroke="black" stroke-width="0.4" stroke-linecap="round" stroke-linejoin="round"/>
<path d="M726.546 124.035C728.822 125.268 730.755 127.126 732.077 129.351" stroke="black" stroke-width="0.4" stroke-linecap="round" stroke-linejoin="round"/>
<path d="M764.142 86.5214C763.154 86.2188 762.101 86.1878 761.098 86.4341C761.017 86.4536 760.968 86.5349 760.988 86.6152C761.004 86.6808 761.061 86.7255 761.126 86.7288C761.14 86.7296 761.154 86.7283 761.169 86.7247C762.12 86.4916 763.118 86.5201 764.054 86.8078C764.132 86.8303 764.217 86.7872 764.241 86.7086C764.265 86.6294 764.221 86.5457 764.142 86.5214Z" fill="black"/>
<path d="M747.524 86.3147C747.518 86.2325 747.447 86.1689 747.364 86.1764C746.449 86.2431 745.567 86.5557 744.815 87.081C744.747 87.1284 744.731 87.2215 744.778 87.2893C744.805 87.3287 744.849 87.3509 744.893 87.3532C744.925 87.3548 744.958 87.3464 744.986 87.3265C745.695 86.8322 746.524 86.5378 747.386 86.4749C747.468 86.4689 747.53 86.3972 747.524 86.3147Z" fill="black"/>
<path d="M762.125 93.0139C761.819 93.17 761.627 93.4914 761.526 93.8208C761.409 94.2055 761.399 94.6323 761.557 95.002C761.715 95.3717 762.057 95.6721 762.456 95.7242C762.854 95.7764 763.288 95.5444 763.418 95.1638C763.59 94.6589 763.773 94.0659 763.528 93.563C763.284 93.0602 762.624 92.76 762.125 93.0139Z" fill="black"/>
<path d="M747.574 92.7209C747.267 92.8772 747.075 93.1984 746.975 93.5279C746.858 93.9124 746.847 94.3395 747.006 94.709C747.163 95.0787 747.505 95.379 747.904 95.4313C748.303 95.4835 748.737 95.2516 748.866 94.871C749.038 94.3659 749.221 93.773 748.976 93.2701C748.732 92.7671 748.072 92.4671 747.574 92.7209Z" fill="black"/>
<path d="M747.456 102.583C746.699 105.223 743.945 106.75 741.305 105.993C738.665 105.236 737.138 102.482 737.895 99.8418C738.652 97.2018 741.406 95.6752 744.046 96.4322C746.686 97.1892 748.213 99.9431 747.456 102.583Z" fill="#F9A478"/>
<path d="M762.819 99.8451C762.062 102.485 763.588 105.239 766.229 105.996C766.341 106.028 766.453 106.033 766.566 106.057C767.521 103.18 767.017 100.305 766.623 97.1826C766.589 96.9149 766.566 96.6469 766.544 96.3789C764.817 96.7578 763.341 98.0258 762.819 99.8451Z" fill="#F9A478"/>
<path d="M1003.67 236.367C1003.67 236.367 999.796 244.199 998.02 248.478C996.89 250.413 995.598 252.028 998.586 254.209C1001.81 254.776 1009.98 254.792 1016.67 254.209C1019.09 252.028 1017.88 250.576 1017.07 248.963C1015.62 243.794 1015.54 236.367 1015.54 236.367H1003.67Z" fill="#EFDCCE" stroke="black" stroke-width="0.4" stroke-miterlimit="10"/>
<path d="M1010.28 249.906C1005.57 248.742 1001.13 252.654 996.759 251.658C996.82 252.451 997.31 253.277 998.587 254.208C1001.82 254.775 1009.98 254.791 1016.67 254.208C1017.54 253.425 1017.94 252.733 1018.06 252.098C1015.52 251.852 1012.86 250.546 1010.28 249.906Z" fill="#BACC6E" stroke="black" stroke-width="0.4" stroke-miterlimit="10"/>
<path d="M1011.52 239.954C1009.46 238.828 1006.19 239.122 1004.48 240.726C1004.39 240.809 1004.49 240.93 1004.59 240.915C1006.56 240.639 1009.09 239.891 1011 240.848C1011.59 241.143 1012.11 240.275 1011.52 239.954Z" fill="#C97739" stroke="black" stroke-width="0.4" stroke-miterlimit="10"/>
<path d="M1009.88 242.073C1007.82 241.826 1005.68 241.804 1003.91 243.005C1003.81 243.078 1003.8 243.276 1003.95 243.304C1005.13 243.526 1006.41 243.041 1007.63 243.055C1008.52 243.063 1009.42 243.167 1010.3 243.303C1010.84 243.385 1011.21 243.794 1011.72 243.937C1011.98 244.013 1012.22 243.808 1012.23 243.552C1012.28 242.435 1010.73 242.175 1009.88 242.073Z" fill="#C97739" stroke="black" stroke-width="0.4" stroke-miterlimit="10"/>
<path d="M1012.52 246.013C1011.39 245.028 1008.86 245.294 1007.47 245.249C1006.08 245.202 1003.82 245.129 1002.78 246.218C1002.73 246.283 1002.75 246.382 1002.84 246.409C1004.03 246.765 1005.49 246.236 1006.74 246.223C1008.59 246.203 1010.41 246.722 1012.23 246.704C1012.56 246.698 1012.79 246.253 1012.52 246.013Z" fill="#C97739" stroke="black" stroke-width="0.4" stroke-miterlimit="10"/>
<path d="M1030.84 233.933C1029.48 245.47 1026.44 246.939 1030.39 253.641C1033.48 255.233 1040.07 254.456 1043.5 254.409C1051.86 254.286 1057.26 255.027 1059.36 252.523C1060.41 251.311 1061.96 247.809 1059.82 247.354C1055.7 246.47 1054.67 246.998 1051.57 244.997C1047.01 242.042 1040.83 236.413 1040.83 236.413C1040.83 236.413 1036.95 237.727 1035.29 237.317C1033.78 236.951 1031.01 232.522 1030.84 233.933Z" fill="#EFDCCE" stroke="black" stroke-width="0.4" stroke-miterlimit="10"/>
<path d="M1050.56 252.17C1043.22 252.209 1036 250.387 1028.7 249.776C1028.98 250.916 1029.51 252.151 1030.4 253.641C1033.49 255.232 1040.07 254.455 1043.51 254.408C1051.86 254.286 1057.26 255.027 1059.36 252.523C1059.98 251.808 1060.77 250.302 1060.88 249.09C1058.54 251.727 1053.7 252.153 1050.56 252.17Z" fill="#BACC6E" stroke="black" stroke-width="0.4" stroke-miterlimit="10"/>
<path d="M1046.25 239.434C1045 239.432 1043.9 239.581 1042.77 240.169C1041.83 240.661 1040.58 241.453 1040.49 242.649C1040.49 242.74 1040.59 242.822 1040.68 242.793C1041.61 242.462 1042.25 241.573 1043.19 241.18C1044.2 240.754 1045.15 240.57 1046.25 240.565C1046.96 240.561 1046.96 239.44 1046.25 239.434Z" fill="#C97739" stroke="black" stroke-width="0.4" stroke-miterlimit="10"/>
<path d="M1049.76 242.286C1048.15 241.874 1046.58 242.349 1045.21 243.282C1045.02 243.41 1043.34 244.945 1043.82 245.221C1044.31 245.508 1044.96 244.737 1045.29 244.456C1046.46 243.463 1048 242.944 1049.5 243.244C1050.1 243.364 1050.36 242.443 1049.76 242.286Z" fill="#C97739" stroke="black" stroke-width="0.4" stroke-miterlimit="10"/>
<path d="M1052.89 244.887C1051.85 244.828 1050.81 244.984 1049.85 245.401C1048.82 245.846 1048.14 246.434 1047.39 247.223C1047.3 247.306 1047.41 247.417 1047.5 247.372C1048.28 247.039 1049.07 246.667 1049.87 246.386C1050.85 246.041 1051.87 246.011 1052.89 245.933C1053.55 245.883 1053.55 244.924 1052.89 244.887Z" fill="#C97739" stroke="black" stroke-width="0.4" stroke-miterlimit="10"/>
<path d="M1043.81 154.006L1043.88 154.002C1043.88 154.002 1043.97 135.881 1041.9 127.989C1041.9 127.989 1006.35 127.303 1004.84 129.189C1003.34 131.082 1002.6 156.24 1002.6 156.24L1002.67 156.237C1001.67 161.519 1001.84 182.791 1001.73 184.841C1001.7 185.366 1001.73 185.852 1001.79 186.316L1002.23 239.449C1002.23 239.449 1015.95 242.719 1016.74 238.53C1018.8 227.609 1018.84 194.32 1018.83 188.22C1018.96 187.871 1019.05 187.504 1019.07 187.118C1019.4 181.484 1021.29 162.407 1021.88 155.195L1022.4 155.167C1021.9 160.091 1025.71 184.836 1026 186.92C1026.04 187.201 1026.1 187.47 1026.17 187.729L1028.81 238.312C1028.81 238.312 1040.12 240.065 1042.94 236.855C1045.09 219.357 1044.75 188.915 1044.68 184.175C1045.47 176.105 1044.4 161.216 1043.81 154.006Z" fill="#7B6EB9" stroke="black" stroke-width="0.4" stroke-miterlimit="10"/>
<path d="M987.167 99.6088C989.139 86.306 997.762 66.3482 1007.12 63.3943C1017.08 60.2505 1037.75 63.5703 1042.51 69.8547C1048.23 77.4325 1049.69 110.095 1047.74 119.928C1045.79 129.766 1020.92 131.36 1004.87 128.553C995.018 126.828 985.035 114.001 987.167 99.6088Z" fill="#BB2A3C" stroke="black" stroke-width="0.4" stroke-linecap="round" stroke-linejoin="round"/>
<path d="M1018.85 58.3359L1018.67 69.1156L1030.49 69.2379L1029.7 58.9534L1018.85 58.3359Z" fill="#FFDBCA" stroke="black" stroke-width="0.4" stroke-miterlimit="10"/>
<g style="mix-blend-mode:multiply" opacity="0.7">
<path d="M1030.03 63.2057L1029.69 58.9534L1018.85 58.3359L1018.77 63.0637C1022.37 64.0749 1026.3 63.863 1030.03 63.2057Z" fill="#FFDBCA"/>
</g>
<path d="M996.857 33.3978C999.01 31.5568 1001.66 32.8524 1003.18 34.7428C1005.69 36.2033 1007.95 39.4466 1006.57 41.9112C1004.91 44.867 1000.19 43.4284 998.071 41.8242C995.513 39.8801 994.04 35.8047 996.857 33.3978Z" fill="#FFDBCA" stroke="black" stroke-width="0.4" stroke-miterlimit="10"/>
<path d="M1048.19 32.2824C1046.25 30.4187 1043.99 31.672 1042.73 33.5309C1040.6 34.948 1038.75 38.1451 1040.04 40.6141C1041.58 43.5826 1045.64 42.2182 1047.43 40.6517C1049.59 38.7542 1050.73 34.7169 1048.19 32.2824Z" fill="#FFDBCA" stroke="black" stroke-width="0.4" stroke-miterlimit="10"/>
<path d="M1042.03 16.0898C1042.54 18.5068 1043.59 28.7459 1044.15 38.1478C1044.58 45.3511 1043.66 53.5197 1038.48 57.6331C1030.69 63.8169 1017.08 61.9523 1011.7 57.1563C1003.41 49.7581 1001.14 39.8498 1002.99 19.8034C1004.17 18.6677 1042.03 16.0898 1042.03 16.0898Z" fill="#FFDBCA" stroke="black" stroke-width="0.4" stroke-miterlimit="10"/>
<path d="M1008.46 23.0854C1004.88 20.7654 1000.27 17.7842 1000.14 18.7014C999.201 25.5928 1001.72 35.9381 1001.72 35.9381L1003.11 38.6116C1002.82 35.1926 1006.1 25.446 1008.46 23.0854Z" fill="#F9BC9A" stroke="black" stroke-width="0.4" stroke-linecap="round" stroke-linejoin="round"/>
<path d="M1044.84 20.8144C1044.84 20.8144 1044.73 30.6257 1044.14 35.3098C1043.16 34.6993 1039.95 22.8666 1034.89 21.171C1038.45 19.9181 1044.84 20.8144 1044.84 20.8144Z" fill="#F9BC9A" stroke="black" stroke-width="0.4" stroke-miterlimit="10"/>
<path d="M1054.48 14.7066C1054.48 14.7066 1049.64 13.8065 1045.45 11.3921C1041.36 9.03798 1039.43 9.03279 1039.23 9.0489C1039.51 9.0004 1041.92 9.30763 1042.14 8.93274C1039.5 4.98841 1035.64 3.07007 1031.44 2.06325C1023.77 0.225728 1017.94 0.346726 1010.53 5.85275C1002.36 4.98232 997.656 9.03405 998.522 16.4965C999.418 24.2238 1003.63 26.303 1010.06 28.4605C1028.23 34.5604 1032.95 28.6921 1032.95 28.6921C1032.95 28.6921 1026.4 28.0592 1024.99 26.3603C1030.81 28.0103 1036.19 26.9454 1040.83 27.4659C1040.29 24.4926 1038.4 22.8827 1036.69 21.9375C1048.62 23.4535 1054.48 14.7066 1054.48 14.7066Z" fill="#F9BC9A" stroke="black" stroke-width="0.4" stroke-linecap="round" stroke-linejoin="round"/>
<path d="M1044.03 129.576C1044.02 129.209 1044.02 128.83 1044.02 128.438C1044.02 128.391 1044.02 128.344 1044.02 128.297C1044.02 127.423 1044.02 126.491 1044.02 125.508C1044.03 125.418 1044.03 125.325 1044.03 125.235C1044.03 124.85 1044.03 124.457 1044.04 124.057C1044.04 123.926 1044.04 123.794 1044.04 123.662C1044.18 108.986 1044.98 85.0467 1044.04 72.6266C1038.03 67.6912 1032.74 66.019 1026.26 65.7079C1021.75 65.4913 1015.93 65.6179 1011.93 67.0878C1011.93 67.0876 1011.93 67.088 1011.93 67.0878C1011.93 67.0894 1011.92 67.0909 1011.92 67.0925C1011.19 67.361 1010.47 67.6527 1009.77 67.9684C1009.74 67.9842 1009.7 68.0006 1009.67 68.0164C1008.99 68.3243 1008.33 68.6517 1007.68 69.0012C1007.63 69.0305 1007.58 69.0615 1007.52 69.0911C1006.89 69.4375 1006.28 69.8002 1005.68 70.1842C1005.63 70.2156 1005.58 70.2489 1005.53 70.2806C1004.93 70.6763 1004.33 71.0879 1003.76 71.5201C1000.33 74.1237 1002.76 113.031 1004.26 132.493C1004.43 134.805 1014.06 140.069 1023.6 140.008C1033.87 139.943 1044.11 134.342 1044.04 130.891C1044.04 130.521 1044.03 130.131 1044.03 129.728C1044.03 129.678 1044.03 129.626 1044.03 129.576Z" fill="white"/>
<path d="M1011.93 67.0878C1015.93 65.6179 1021.75 65.4913 1026.26 65.7079C1032.74 66.019 1038.03 67.6912 1044.04 72.6266C1044.98 85.0467 1044.18 108.986 1044.04 123.662C1044.04 123.794 1044.04 123.926 1044.04 124.057C1044.03 124.457 1044.03 124.85 1044.03 125.235C1044.03 125.325 1044.03 125.418 1044.02 125.508C1044.02 126.491 1044.02 127.423 1044.02 128.297C1044.02 128.344 1044.02 128.391 1044.02 128.438C1044.02 128.83 1044.02 129.209 1044.03 129.576C1044.03 129.626 1044.03 129.678 1044.03 129.728C1044.03 130.131 1044.04 130.521 1044.04 130.891C1044.11 134.342 1033.87 139.943 1023.6 140.008C1014.06 140.069 1004.43 134.805 1004.26 132.493C1002.76 113.031 1000.33 74.1237 1003.76 71.5201C1004.33 71.0879 1004.93 70.6763 1005.53 70.2806C1005.58 70.2489 1005.63 70.2156 1005.68 70.1842C1006.28 69.8002 1006.89 69.4375 1007.52 69.0911C1007.58 69.0615 1007.63 69.0305 1007.68 69.0012C1008.33 68.6517 1008.99 68.3243 1009.67 68.0164C1009.7 68.0006 1009.74 67.9842 1009.77 67.9684C1010.47 67.6527 1011.19 67.361 1011.92 67.0925C1011.92 67.0909 1011.93 67.0894 1011.93 67.0878ZM1011.93 67.0878C1011.93 67.0876 1011.93 67.088 1011.93 67.0878Z" stroke="black" stroke-width="0.4" stroke-miterlimit="10"/>
<path d="M1026.37 73.977C1031.05 73.7804 1032.67 70.4028 1034.42 66.9532C1027.68 64.4436 1020.69 64.4322 1014.47 66.1597C1017.32 70.1113 1021.01 74.2024 1026.37 73.977Z" fill="#FFDBCA"/>
<path d="M1018.67 65.4062C1017.29 65.6091 1015.93 65.8982 1014.61 66.2661C1017.45 70.2178 1021.15 74.3089 1026.5 74.0835C1031.19 73.8869 1032.81 70.5093 1034.56 67.0597C1033.1 66.515 1031.62 66.088 1030.14 65.7709" stroke="black" stroke-width="0.4" stroke-linecap="round" stroke-linejoin="round"/>
<path d="M1045.71 69.6702C1043.33 67.7592 1037.03 77.6776 1039.12 83.8357C1041.42 90.6027 1050.59 104.252 1052.74 111.312C1049.22 116.436 1043.67 128.185 1043.12 136.188C1042.99 138.086 1047.09 142.981 1048.39 141.454C1049.65 139.963 1064.24 122.06 1063.86 110.901C1065.61 101.123 1050.84 73.7845 1045.71 69.6702Z" fill="white" stroke="black" stroke-width="0.4" stroke-miterlimit="10"/>
<path d="M980.847 130.38L1007.79 122.863C1007.79 122.863 1015.29 147.317 1014.75 156.502C1014.68 157.613 988.553 159.445 988.553 159.445L980.847 130.38Z" fill="#FFB681" stroke="black" stroke-width="0.4" stroke-linecap="round" stroke-linejoin="round"/>
<path d="M982.012 134.181L1005.96 129.695C1005.96 129.695 1011.49 148.277 1013.1 154.998C1013.35 156.116 1012.39 158.078 1011.39 158.382C1008.45 159.281 998.91 160.203 998.91 160.203L982.024 134.527L982.012 134.181Z" fill="#B24442" stroke="black" stroke-width="0.4" stroke-linecap="round" stroke-linejoin="round"/>
<path d="M980.777 137.296L1004.93 131.875L1011.66 155.312L1009.12 157.56L989.155 160.652L980.777 137.296Z" fill="#F0DBBE" stroke="black" stroke-width="0.4" stroke-linecap="round" stroke-linejoin="round"/>
<path d="M978 136.637C978 136.637 994.966 132.971 1000.9 132.09C1003.72 140.951 1008.56 157.627 1011.39 158.383C1006.02 159.655 987.893 162.066 987.893 162.066L978 136.637Z" fill="#D74442" stroke="black" stroke-width="0.4" stroke-linecap="round" stroke-linejoin="round"/>
<path d="M999.363 71.6157C990.678 83.0593 987.37 109.017 987.525 116.891C984.379 124.146 986.86 151.22 987.313 153.725C987.773 156.257 992.095 154.023 993.758 152.475C995.421 150.927 998.945 122.506 998.748 117.649C998.74 117.447 998.695 117.266 998.657 117.081C1001.17 110.815 1004.8 91.2665 1007.47 83.6906C1009.55 77.7668 1002.54 67.4306 999.363 71.6157Z" fill="white" stroke="black" stroke-width="0.4" stroke-miterlimit="10"/>
<path d="M1042.29 133.328C1042.29 133.328 1038.27 136.266 1037.79 137.799C1036.86 140.794 1040.17 145.892 1043.55 147.896C1045.4 145.185 1047.28 140.165 1047.28 140.165L1042.29 133.328Z" fill="#FFDBCA" stroke="black" stroke-width="0.4" stroke-linecap="round" stroke-linejoin="round"/>
<path d="M1043.4 131.48C1044.57 135.421 1048.23 138.655 1050.08 139.765C1049.65 141.241 1047.65 142.092 1047.09 141.919C1045.08 141.291 1041.51 137.167 1041.09 133.882C1041.01 133.27 1042.23 132.159 1043.4 131.48Z" fill="white" stroke="black" stroke-width="0.4" stroke-linecap="round" stroke-linejoin="round"/>
<path d="M996.657 118.864C996.592 118.805 996.525 118.726 996.462 118.648C996.359 118.7 996.377 118.772 996.657 118.864Z" fill="#6DA97B"/>
<path d="M1001.58 157.095C1002.78 157.69 1004.21 156.997 1003.78 156.577C1001.75 154.609 999.035 150.727 997.236 149.837C996.386 149.417 994.065 149.238 994.065 149.238L986.987 152.942C986.987 152.942 988.873 161.935 990.596 164.466C990.868 164.861 992.263 164.88 992.529 164.48C992.696 164.23 992.546 163.488 992.546 163.488C992.546 163.488 992.859 164.251 993.152 164.333C993.781 164.508 995.128 163.95 995.365 163.342C995.5 162.993 995.04 162.086 995.04 162.086C995.04 162.086 995.841 163.554 996.241 163.655C996.781 163.784 998.115 163.184 998.42 162.716C998.67 162.323 998.082 160.618 998.082 160.618C998.082 160.618 998.415 161.949 998.8 162.078C999.488 162.306 1001.41 160.851 1001.07 160.209C1000.33 158.783 998.996 155.651 998.996 155.651C998.996 155.651 1000.99 156.806 1001.58 157.095Z" fill="#FFDBCA" stroke="black" stroke-width="0.4" stroke-linecap="round" stroke-linejoin="round"/>
<path d="M1002.67 69.6214C1004.33 66.2339 1009.89 65.8629 1011.72 67.9468C1013.54 70.0344 1009.69 93.5811 1006.83 96.3787C1003.97 99.172 1001.19 99.6518 1000.31 94.9672C999.435 90.2784 1001.67 71.6758 1002.67 69.6214Z" fill="#E3343C" stroke="black" stroke-width="0.4" stroke-linecap="round" stroke-linejoin="round"/>
<path d="M1036.19 68.8424C1038.04 64.2221 1043.95 66.5317 1045.06 70.0433C1046.17 73.5545 1049.77 86.1188 1046.63 95.1723C1045.35 98.8623 1040.72 95.5412 1039.79 92.0304C1039.29 90.1269 1035.27 71.1441 1036.19 68.8424Z" fill="#E3343C" stroke="black" stroke-width="0.4" stroke-linecap="round" stroke-linejoin="round"/>
<path d="M1005.61 66.2243C1005.61 66.2243 998.961 93.2014 1002.41 105.52C1005.24 93.571 1009.48 68.7173 1010.54 65.8555C1009.49 65.8555 1005.61 66.2243 1005.61 66.2243Z" fill="#9A2A3C" stroke="black" stroke-width="0.4" stroke-linecap="round" stroke-linejoin="round"/>
<path d="M1042.19 65.8562C1042.19 65.8562 1048.84 92.8333 1045.39 105.151C1042.56 93.2022 1038.33 68.3475 1037.26 65.4844C1038.32 65.4844 1042.19 65.8562 1042.19 65.8562Z" fill="#9A2A3C" stroke="black" stroke-width="0.4" stroke-linecap="round" stroke-linejoin="round"/>
<path d="M987.69 155.036C986.361 154.934 986.211 150.048 986.211 150.048C986.211 150.048 991.385 150.048 996.437 147.461C996.717 149.413 997.077 150.549 997.077 150.549C997.077 150.549 990.093 155.222 987.69 155.036Z" fill="white" stroke="black" stroke-width="0.4" stroke-linecap="round" stroke-linejoin="round"/>
<path d="M996.717 35.2383C996.717 35.2383 1000.1 35.3632 1003.15 40.8891" stroke="black" stroke-width="0.4" stroke-linecap="round" stroke-linejoin="round"/>
<path d="M1047.53 33.25C1047.53 33.25 1044.87 34.4515 1044.24 39.8538" stroke="black" stroke-width="0.4" stroke-linecap="round" stroke-linejoin="round"/>
<path d="M1011.75 7.23828C1012.61 8.13571 1013.41 9.09431 1014.13 10.1044" stroke="black" stroke-width="0.4" stroke-linecap="round" stroke-linejoin="round"/>
<path d="M1013.76 6.57677C1014.36 5.72552 1015.31 5.12804 1016.34 4.95312" stroke="black" stroke-width="0.4" stroke-linecap="round" stroke-linejoin="round"/>
<path d="M1014.37 7.86526C1015.34 7.07576 1016.6 6.64649 1017.85 6.67734" stroke="black" stroke-width="0.4" stroke-linecap="round" stroke-linejoin="round"/>
<path d="M1010.52 9.08326C1009.85 8.91095 1009.1 9.0226 1008.51 9.38573" stroke="black" stroke-width="0.4" stroke-linecap="round" stroke-linejoin="round"/>
<path d="M1034.76 33.3868C1033.71 33.0676 1032.6 33.0349 1031.54 33.2947C1031.46 33.3154 1031.41 33.4011 1031.43 33.4859C1031.45 33.555 1031.51 33.6022 1031.57 33.6057C1031.59 33.6065 1031.6 33.6052 1031.62 33.6013C1032.62 33.3554 1033.68 33.3855 1034.66 33.6891C1034.75 33.7128 1034.84 33.6674 1034.86 33.5844C1034.89 33.5008 1034.84 33.4125 1034.76 33.3868Z" fill="black"/>
<path d="M1017.22 33.17C1017.22 33.0833 1017.14 33.0162 1017.05 33.0241C1016.09 33.0945 1015.16 33.4243 1014.36 33.9786C1014.29 34.0286 1014.28 34.1269 1014.33 34.1984C1014.35 34.24 1014.4 34.2634 1014.45 34.2658C1014.48 34.2676 1014.52 34.2586 1014.55 34.2376C1015.29 33.7161 1016.17 33.4054 1017.08 33.3391C1017.16 33.3327 1017.23 33.2571 1017.22 33.17Z" fill="black"/>
<path d="M1032.63 40.2377C1032.31 40.4025 1032.1 40.7416 1032 41.0892C1031.87 41.495 1031.86 41.9454 1032.03 42.3356C1032.2 42.7256 1032.56 43.0426 1032.98 43.0975C1033.4 43.1527 1033.86 42.9079 1033.99 42.5063C1034.17 41.9735 1034.37 41.3478 1034.11 40.8172C1033.85 40.2865 1033.16 39.9699 1032.63 40.2377Z" fill="black"/>
<path d="M1017.27 39.9291C1016.95 40.094 1016.75 40.433 1016.64 40.7806C1016.52 41.1864 1016.51 41.637 1016.67 42.0269C1016.84 42.417 1017.2 42.7339 1017.62 42.7891C1018.04 42.8442 1018.5 42.5994 1018.64 42.1978C1018.82 41.6649 1019.01 41.0393 1018.75 40.5086C1018.5 39.9779 1017.8 39.6613 1017.27 39.9291Z" fill="black"/>
<path d="M1025.01 39.1719C1024.24 41.3652 1024.97 43.9984 1026.75 45.4867C1027.22 45.8721 1027.76 46.2079 1028.02 46.7482C1028.31 47.3315 1028.2 48.0495 1027.89 48.6175C1027.57 49.1856 1027.07 49.6287 1026.56 50.0302" stroke="black" stroke-width="0.4" stroke-linecap="round" stroke-linejoin="round"/>
<path d="M1023.92 55.5539C1025.31 56.0601 1026.9 55.9677 1028.22 55.3047" stroke="black" stroke-width="0.4" stroke-linecap="round" stroke-linejoin="round"/>
<path d="M1021.28 52.8508C1024.46 54.4071 1027.51 53.867 1030.02 52.7422" stroke="black" stroke-width="0.4" stroke-linecap="round" stroke-linejoin="round"/>
<path d="M1012.94 54.0459C1015.61 54.0459 1017.78 51.8775 1017.78 49.2026C1017.78 46.5278 1015.61 44.3594 1012.94 44.3594C1010.26 44.3594 1008.1 46.5278 1008.1 49.2026C1008.1 51.8775 1010.26 54.0459 1012.94 54.0459Z" fill="#F9A478"/>
<path d="M1037.93 53.2803C1040.6 53.2803 1042.77 51.1119 1042.77 48.437C1042.77 45.7622 1040.6 43.5938 1037.93 43.5938C1035.25 43.5938 1033.08 45.7622 1033.08 48.437C1033.08 51.1119 1035.25 53.2803 1037.93 53.2803Z" fill="#F9A478"/>
<path d="M998.752 116.515C998.732 115.922 998.198 115.484 997.677 115.199C996.467 114.536 995.06 114.235 993.685 114.347" stroke="black" stroke-width="0.4" stroke-linecap="round" stroke-linejoin="round"/>
<path d="M999.033 116.062C999.014 115.469 998.142 114.063 997.677 113.695C996.217 112.541 994.697 111.813 992.292 111.066" stroke="black" stroke-width="0.4" stroke-linecap="round" stroke-linejoin="round"/>
<path d="M1052.58 111.492C1052.6 110.899 1053.14 110.461 1053.66 110.176C1054.87 109.512 1056.28 109.212 1057.65 109.324" stroke="black" stroke-width="0.4" stroke-linecap="round" stroke-linejoin="round"/>
<path d="M1052.3 111.042C1052.32 110.449 1053.19 109.043 1053.66 108.675C1055.12 107.522 1056.64 106.794 1059.04 106.047" stroke="black" stroke-width="0.4" stroke-linecap="round" stroke-linejoin="round"/>
<path d="M1021.11 154.708C1024.18 153.986 1027.25 153.265 1030.32 152.543" stroke="black" stroke-width="0.4" stroke-linecap="round" stroke-linejoin="round"/>
<path d="M1022.78 154.037C1023.73 149.673 1024 145.161 1023.57 140.715" stroke="black" stroke-width="0.4" stroke-linecap="round" stroke-linejoin="round"/>
<path d="M1026.27 153.371C1027.57 149.066 1027.93 144.478 1027.3 140.023" stroke="black" stroke-width="0.4" stroke-linecap="round" stroke-linejoin="round"/>
<defs>
<filter id="filter0_d_2096_7393" x="621" y="184.664" width="242.186" height="70.6914" filterUnits="userSpaceOnUse" color-interpolation-filters="sRGB">
<feFlood flood-opacity="0" result="BackgroundImageFix"/>
<feColorMatrix in="SourceAlpha" type="matrix" values="0 0 0 0 0 0 0 0 0 0 0 0 0 0 0 0 0 0 127 0" result="hardAlpha"/>
<feOffset dx="2" dy="-2"/>
<feGaussianBlur stdDeviation="1"/>
<feComposite in2="hardAlpha" operator="out"/>
<feColorMatrix type="matrix" values="0 0 0 0 0 0 0 0 0 0 0 0 0 0 0 0 0 0 0.25 0"/>
<feBlend mode="normal" in2="BackgroundImageFix" result="effect1_dropShadow_2096_7393"/>
<feBlend mode="normal" in="SourceGraphic" in2="effect1_dropShadow_2096_7393" result="shape"/>
</filter>
<filter id="filter1_d_2096_7393" x="926" y="88.3555" width="242" height="150" filterUnits="userSpaceOnUse" color-interpolation-filters="sRGB">
<feFlood flood-opacity="0" result="BackgroundImageFix"/>
<feColorMatrix in="SourceAlpha" type="matrix" values="0 0 0 0 0 0 0 0 0 0 0 0 0 0 0 0 0 0 127 0" result="hardAlpha"/>
<feOffset dx="2" dy="-2"/>
<feGaussianBlur stdDeviation="1"/>
<feComposite in2="hardAlpha" operator="out"/>
<feColorMatrix type="matrix" values="0 0 0 0 0 0 0 0 0 0 0 0 0 0 0 0 0 0 0.25 0"/>
<feBlend mode="normal" in2="BackgroundImageFix" result="effect1_dropShadow_2096_7393"/>
<feBlend mode="normal" in="SourceGraphic" in2="effect1_dropShadow_2096_7393" result="shape"/>
</filter>
<filter id="filter2_d_2096_7393" x="49" y="33.3555" width="112" height="109" filterUnits="userSpaceOnUse" color-interpolation-filters="sRGB">
<feFlood flood-opacity="0" result="BackgroundImageFix"/>
<feColorMatrix in="SourceAlpha" type="matrix" values="0 0 0 0 0 0 0 0 0 0 0 0 0 0 0 0 0 0 127 0" result="hardAlpha"/>
<feOffset dy="4"/>
<feGaussianBlur stdDeviation="2"/>
<feComposite in2="hardAlpha" operator="out"/>
<feColorMatrix type="matrix" values="0 0 0 0 0 0 0 0 0 0 0 0 0 0 0 0 0 0 0.25 0"/>
<feBlend mode="normal" in2="BackgroundImageFix" result="effect1_dropShadow_2096_7393"/>
<feBlend mode="normal" in="SourceGraphic" in2="effect1_dropShadow_2096_7393" result="shape"/>
</filter>
</defs>
</svg>
