<svg width="1240" height="304" viewBox="0 0 1240 304" fill="none" xmlns="http://www.w3.org/2000/svg">
<path d="M1157.61 132.479C1154.76 132.479 1152 132.88 1149.39 133.614C1153.42 128.462 1155.83 121.981 1155.83 114.933C1155.83 98.1683 1142.23 84.5777 1125.44 84.5777C1117.63 84.5777 1110.51 87.5256 1105.13 92.3656C1105.22 91.3752 1105.28 90.3716 1105.28 89.3557C1105.28 72.5906 1091.67 59 1074.89 59C1058.11 59 1044.5 72.5906 1044.5 89.3557C1044.5 90.4133 1044.56 91.4582 1044.66 92.4879C1039.83 89.2552 1034.02 87.3674 1027.77 87.3674C1010.99 87.3674 997.387 100.958 997.387 117.723C997.387 121.797 998.196 125.68 999.653 129.229C998.904 129.174 998.15 129.137 997.387 129.137C980.605 129.137 967 142.727 967 159.492C967 176.257 980.605 189.848 997.387 189.848C1005.96 189.848 1013.69 186.298 1019.22 180.596C1024.57 189.239 1034.15 195 1045.07 195C1053.02 195 1060.25 191.95 1065.66 186.962C1070.32 189.874 1075.83 191.562 1081.74 191.562C1087.3 191.562 1092.51 190.061 1097 187.452C1102.35 192.147 1109.36 195 1117.04 195C1125.33 195 1132.85 191.676 1138.33 186.294C1143.58 190.603 1150.29 193.19 1157.61 193.19C1174.4 193.19 1188 179.6 1188 162.835C1188 146.07 1174.4 132.479 1157.61 132.479Z" fill="#7B6EB9"/>
<path d="M393.463 144.294C390.972 144.294 388.565 144.645 386.279 145.288C389.801 140.78 391.907 135.108 391.907 128.942C391.907 114.272 380.026 102.38 365.37 102.38C358.547 102.38 352.328 104.96 347.626 109.195C347.711 108.328 347.757 107.45 347.757 106.561C347.757 91.8918 335.876 80 321.22 80C306.564 80 294.683 91.8918 294.683 106.561C294.683 107.487 294.731 108.401 294.824 109.302C290.605 106.473 285.533 104.822 280.074 104.822C265.418 104.822 253.537 116.713 253.537 131.383C253.537 134.947 254.243 138.345 255.516 141.451C254.861 141.402 254.203 141.369 253.537 141.369C238.881 141.369 227 153.261 227 167.931C227 182.6 238.881 194.492 253.537 194.492C261.021 194.492 267.777 191.385 272.602 186.396C277.279 193.959 285.639 199 295.178 199C302.117 199 308.432 196.331 313.16 191.967C317.233 194.514 322.043 195.992 327.2 195.992C332.059 195.992 336.609 194.678 340.527 192.396C345.199 196.504 351.321 199 358.028 199C365.272 199 371.834 196.092 376.623 191.382C381.204 195.152 387.069 197.417 393.463 197.417C408.119 197.417 420 185.525 420 170.855C420 156.186 408.119 144.294 393.463 144.294Z" fill="#7B6EB9"/>
<path d="M531.463 166.294C528.972 166.294 526.565 166.645 524.279 167.288C527.801 162.78 529.907 157.108 529.907 150.942C529.907 136.272 518.026 124.38 503.37 124.38C496.547 124.38 490.328 126.96 485.626 131.195C485.711 130.328 485.757 129.45 485.757 128.561C485.757 113.892 473.876 102 459.22 102C444.564 102 432.683 113.892 432.683 128.561C432.683 129.487 432.731 130.401 432.824 131.302C428.605 128.473 423.533 126.822 418.074 126.822C403.418 126.822 391.537 138.713 391.537 153.383C391.537 156.947 392.243 160.345 393.516 163.451C392.861 163.402 392.203 163.369 391.537 163.369C376.881 163.369 365 175.261 365 189.931C365 204.6 376.881 216.492 391.537 216.492C399.021 216.492 405.777 213.385 410.602 208.396C415.279 215.959 423.639 221 433.178 221C440.117 221 446.432 218.331 451.16 213.967C455.233 216.514 460.043 217.992 465.2 217.992C470.059 217.992 474.609 216.678 478.527 214.396C483.199 218.504 489.321 221 496.028 221C503.272 221 509.834 218.092 514.623 213.382C519.204 217.152 525.069 219.417 531.463 219.417C546.119 219.417 558 207.525 558 192.855C558 178.186 546.119 166.294 531.463 166.294Z" fill="#7B6EB9"/>
<path d="M232.831 117.165C230.44 117.866 228.229 118.881 226.216 120.14C228.328 114.823 228.751 108.789 227.015 102.871C222.886 88.7951 208.137 80.7289 194.074 84.8548C187.527 86.7756 182.285 91.0016 178.967 96.3888C178.804 95.5333 178.601 94.6779 178.35 93.8248C174.221 79.7487 159.473 71.6825 145.41 75.8084C131.346 79.9343 123.294 94.6898 127.423 108.766C127.684 109.654 127.987 110.518 128.33 111.356C123.485 109.83 118.153 109.673 112.915 111.21C98.8516 115.335 90.799 130.091 94.9286 144.167C95.9321 147.587 97.5665 150.649 99.6617 153.271C99.0204 153.408 98.3795 153.562 97.7401 153.75C83.6769 157.876 75.6243 172.631 79.7539 186.707C83.8836 200.783 98.6318 208.85 112.695 204.724C119.877 202.617 125.485 197.734 128.71 191.589C135.327 197.529 144.768 200.012 153.921 197.327C160.58 195.373 165.888 191.035 169.196 185.516C173.822 186.814 178.853 186.877 183.801 185.426C188.464 184.058 192.46 181.516 195.577 178.223C201.217 180.85 207.793 181.522 214.23 179.633C221.18 177.594 226.659 172.956 229.928 167.089C235.385 169.417 241.65 169.939 247.786 168.139C261.849 164.013 269.901 149.257 265.772 135.181C261.642 121.105 246.894 113.039 232.831 117.165Z" fill="#7B6EB9"/>
<path d="M1057.64 146.929C1054.04 146.929 1050.56 147.437 1047.25 148.365C1052.34 141.85 1055.39 133.653 1055.39 124.739C1055.39 103.536 1038.21 86.3483 1017.03 86.3483C1007.16 86.3483 998.173 90.0765 991.377 96.1977C991.5 94.9451 991.566 93.6759 991.566 92.391C991.566 71.1882 974.391 54 953.204 54C932.018 54 914.843 71.1882 914.843 92.391C914.843 93.7286 914.912 95.05 915.046 96.3524C908.947 92.2639 901.614 89.8765 893.723 89.8765C872.536 89.8765 855.361 107.065 855.361 128.267C855.361 133.419 856.383 138.33 858.222 142.819C857.276 142.749 856.325 142.702 855.361 142.702C834.175 142.702 817 159.89 817 181.093C817 202.296 834.175 219.484 855.361 219.484C866.181 219.484 875.947 214.994 882.922 207.783C889.683 218.714 901.768 226 915.558 226C925.589 226 934.717 222.143 941.553 215.835C947.441 219.517 954.394 221.652 961.849 221.652C968.873 221.652 975.451 219.753 981.114 216.454C987.868 222.392 996.717 226 1006.41 226C1016.89 226 1026.37 221.797 1033.29 214.99C1039.92 220.439 1048.4 223.711 1057.64 223.711C1078.82 223.711 1096 206.523 1096 185.32C1096 164.118 1078.82 146.929 1057.64 146.929Z" fill="#7B6EB9"/>
<path d="M811.151 139.133C808.724 139.133 806.379 139.472 804.152 140.093C807.584 135.737 809.635 130.256 809.635 124.296C809.635 110.12 798.062 98.6282 783.785 98.6282C777.139 98.6282 771.081 101.121 766.501 105.214C766.584 104.376 766.629 103.527 766.629 102.668C766.629 88.4921 755.055 77 740.779 77C726.503 77 714.93 88.4921 714.93 102.668C714.93 103.563 714.977 104.446 715.067 105.317C710.957 102.583 706.016 100.987 700.699 100.987C686.422 100.987 674.849 112.479 674.849 126.655C674.849 130.1 675.537 133.384 676.777 136.385C676.14 136.338 675.498 136.307 674.849 136.307C660.573 136.307 649 147.799 649 161.975C649 176.151 660.573 187.643 674.849 187.643C682.14 187.643 688.721 184.641 693.42 179.82C697.976 187.129 706.12 192 715.412 192C722.171 192 728.322 189.421 732.928 185.203C736.896 187.665 741.581 189.093 746.604 189.093C751.338 189.093 755.77 187.823 759.586 185.618C764.137 189.588 770.1 192 776.634 192C783.69 192 790.082 189.19 794.747 184.638C799.209 188.282 804.922 190.47 811.151 190.47C825.427 190.47 837 178.978 837 164.801C837 150.625 825.427 139.133 811.151 139.133Z" fill="#7B6EB9"/>
<path fill-rule="evenodd" clip-rule="evenodd" d="M1081.55 255H70C62.5027 255 55.9689 250.875 52.5447 244.77C48.1581 246.521 43.3727 247.484 38.3615 247.484C17.175 247.484 0 230.296 0 209.093C0 187.89 17.175 170.702 38.3615 170.702C39.3247 170.702 40.2764 170.749 41.222 170.819C39.3827 166.33 38.3615 161.419 38.3615 156.267C38.3615 135.065 55.5365 117.876 76.7229 117.876C84.6144 117.876 91.9474 120.264 98.0456 124.352C97.912 123.05 97.8429 121.729 97.8429 120.391C97.8429 99.1882 115.018 82 136.204 82C157.391 82 174.566 99.1882 174.566 120.391C174.566 121.676 174.5 122.945 174.377 124.198C181.173 118.077 190.164 114.348 200.027 114.348C207.521 114.348 214.512 116.498 220.42 120.216C224.492 109.397 234.945 101.699 247.198 101.699C253.082 101.699 258.549 103.475 263.095 106.518C262.995 105.549 262.944 104.566 262.944 103.57C262.944 87.7912 275.748 75 291.543 75C307.338 75 320.142 87.7912 320.142 103.57C320.142 104.526 320.093 105.471 320.001 106.403C325.068 101.848 331.771 99.0731 339.124 99.0731C354.919 99.0731 367.724 111.864 367.724 127.643C367.724 130.24 367.376 132.756 366.724 135.147C369.403 134.395 372.229 133.993 375.148 133.993C381.541 133.993 387.481 135.923 392.42 139.227C392.312 138.174 392.256 137.106 392.256 136.025C392.256 118.89 406.169 105 423.33 105C440.492 105 454.405 118.89 454.405 136.025C454.405 137.064 454.351 138.089 454.251 139.102C459.757 134.155 467.04 131.142 475.029 131.142C484.009 131.142 492.1 134.945 497.773 141.026C499.84 136.125 503.495 131.454 508.506 127.826C520.562 119.098 535.902 119.713 542.77 129.199C543.186 129.774 543.56 130.368 543.895 130.98C545.78 125.441 549.689 120.069 555.301 116.006C567.357 107.278 582.698 107.893 589.565 117.379C592.452 121.366 593.375 126.288 592.587 131.301C594.167 129.524 595.983 127.863 598.032 126.38C609.545 118.045 624.052 118.23 631.317 126.523C632.892 125.208 634.631 124.006 636.52 122.951C649.511 115.688 664.675 118.087 670.39 128.309C670.736 128.928 671.038 129.563 671.3 130.209C673.817 124.928 678.326 120.048 684.374 116.667C697.365 109.404 712.529 111.803 718.244 122.025C720.646 126.322 720.989 131.318 719.622 136.205C721.398 134.624 723.396 133.186 725.604 131.952C738.261 124.876 752.98 126.971 759.014 136.537C763.102 124.682 774.434 116.159 787.773 116.159C794.024 116.159 799.833 118.033 804.663 121.242C804.558 120.22 804.503 119.182 804.503 118.132C804.503 101.491 818.107 88 834.889 88C851.672 88 865.276 101.491 865.276 118.132C865.276 119.141 865.224 120.137 865.126 121.12C870.51 116.316 877.632 113.39 885.445 113.39C892.223 113.39 898.484 115.591 903.538 119.312C906.076 101.932 921.131 88.5821 939.323 88.5821C946.762 88.5821 953.674 90.8168 959.423 94.6438C959.297 93.4248 959.232 92.1879 959.232 90.9357C959.232 71.0889 975.422 55 995.393 55C1015.36 55 1031.55 71.0889 1031.55 90.9357C1031.55 92.1385 1031.49 93.3266 1031.38 94.499C1037.78 88.7693 1046.26 85.2795 1055.56 85.2795C1073.22 85.2795 1087.93 97.867 1091.09 114.509C1097.16 108.625 1105.46 105 1114.61 105C1133.21 105 1148.29 119.99 1148.29 138.48C1148.29 139.601 1148.23 140.708 1148.13 141.8C1154.09 136.462 1161.99 133.211 1170.65 133.211C1189.26 133.211 1204.34 148.2 1204.34 166.691C1204.34 174.464 1201.66 181.613 1197.19 187.295C1200.09 186.486 1203.15 186.043 1206.31 186.043C1224.92 186.043 1240 201.033 1240 219.524C1240 238.014 1224.92 253.004 1206.31 253.004C1198.85 253.004 1191.95 250.589 1186.36 246.502C1182.74 251.642 1176.76 255 1170 255H1161.33H1081.55Z" fill="#ECEBF4"/>
<path d="M82.5469 187L77.0469 169.078H76.9062C76.9271 169.505 76.9583 170.151 77 171.016C77.0521 171.87 77.099 172.781 77.1406 173.75C77.1823 174.719 77.2031 175.594 77.2031 176.375V187H72.875V164.156H79.4688L84.875 181.625H84.9688L90.7031 164.156H97.2969V187H92.7812V176.188C92.7812 175.469 92.7917 174.641 92.8125 173.703C92.8438 172.766 92.8802 171.875 92.9219 171.031C92.9635 170.177 92.9948 169.536 93.0156 169.109H92.875L86.9844 187H82.5469ZM109.844 169.172C112.188 169.172 113.984 169.682 115.234 170.703C116.484 171.724 117.109 173.276 117.109 175.359V187H113.781L112.859 184.625H112.734C112.234 185.25 111.724 185.76 111.203 186.156C110.682 186.552 110.083 186.844 109.406 187.031C108.729 187.219 107.906 187.312 106.938 187.312C105.906 187.312 104.979 187.115 104.156 186.719C103.344 186.323 102.703 185.719 102.234 184.906C101.766 184.083 101.531 183.042 101.531 181.781C101.531 179.927 102.182 178.562 103.484 177.688C104.786 176.802 106.74 176.312 109.344 176.219L112.375 176.125V175.359C112.375 174.443 112.135 173.771 111.656 173.344C111.177 172.917 110.51 172.703 109.656 172.703C108.812 172.703 107.984 172.823 107.172 173.062C106.359 173.302 105.547 173.604 104.734 173.969L103.156 170.75C104.083 170.26 105.12 169.875 106.266 169.594C107.422 169.312 108.615 169.172 109.844 169.172ZM112.375 178.906L110.531 178.969C108.99 179.01 107.917 179.286 107.312 179.797C106.719 180.307 106.422 180.979 106.422 181.812C106.422 182.542 106.635 183.062 107.062 183.375C107.49 183.677 108.047 183.828 108.734 183.828C109.755 183.828 110.615 183.526 111.312 182.922C112.021 182.318 112.375 181.458 112.375 180.344V178.906ZM131.781 169.203C132.021 169.203 132.297 169.219 132.609 169.25C132.932 169.271 133.193 169.302 133.391 169.344L133.031 173.812C132.875 173.76 132.651 173.724 132.359 173.703C132.078 173.672 131.833 173.656 131.625 173.656C131.01 173.656 130.411 173.734 129.828 173.891C129.255 174.047 128.74 174.302 128.281 174.656C127.823 175 127.458 175.458 127.188 176.031C126.927 176.594 126.797 177.286 126.797 178.109V187H122.031V169.531H125.641L126.344 172.469H126.578C126.922 171.875 127.349 171.333 127.859 170.844C128.38 170.344 128.969 169.948 129.625 169.656C130.292 169.354 131.01 169.203 131.781 169.203ZM143.656 187.312C141.927 187.312 140.453 187 139.234 186.375C138.016 185.74 137.089 184.76 136.453 183.438C135.818 182.115 135.5 180.422 135.5 178.359C135.5 176.224 135.859 174.484 136.578 173.141C137.307 171.786 138.312 170.792 139.594 170.156C140.885 169.521 142.38 169.203 144.078 169.203C145.286 169.203 146.328 169.323 147.203 169.562C148.089 169.792 148.859 170.068 149.516 170.391L148.109 174.078C147.359 173.776 146.661 173.531 146.016 173.344C145.37 173.146 144.724 173.047 144.078 173.047C143.245 173.047 142.552 173.245 142 173.641C141.448 174.026 141.036 174.609 140.766 175.391C140.495 176.172 140.359 177.151 140.359 178.328C140.359 179.484 140.505 180.443 140.797 181.203C141.089 181.964 141.51 182.531 142.062 182.906C142.615 183.271 143.286 183.453 144.078 183.453C145.068 183.453 145.948 183.323 146.719 183.062C147.49 182.792 148.24 182.417 148.969 181.938V186.016C148.24 186.474 147.474 186.802 146.672 187C145.88 187.208 144.875 187.312 143.656 187.312ZM168.906 178.234C168.906 179.693 168.708 180.984 168.312 182.109C167.927 183.234 167.359 184.188 166.609 184.969C165.87 185.74 164.974 186.323 163.922 186.719C162.88 187.115 161.703 187.312 160.391 187.312C159.161 187.312 158.031 187.115 157 186.719C155.979 186.323 155.089 185.74 154.328 184.969C153.578 184.188 152.995 183.234 152.578 182.109C152.172 180.984 151.969 179.693 151.969 178.234C151.969 176.297 152.312 174.656 153 173.312C153.688 171.969 154.667 170.948 155.938 170.25C157.208 169.552 158.724 169.203 160.484 169.203C162.12 169.203 163.568 169.552 164.828 170.25C166.099 170.948 167.094 171.969 167.812 173.312C168.542 174.656 168.906 176.297 168.906 178.234ZM156.828 178.234C156.828 179.38 156.953 180.344 157.203 181.125C157.453 181.906 157.844 182.495 158.375 182.891C158.906 183.286 159.599 183.484 160.453 183.484C161.297 183.484 161.979 183.286 162.5 182.891C163.031 182.495 163.417 181.906 163.656 181.125C163.906 180.344 164.031 179.38 164.031 178.234C164.031 177.078 163.906 176.12 163.656 175.359C163.417 174.589 163.031 174.01 162.5 173.625C161.969 173.24 161.276 173.047 160.422 173.047C159.161 173.047 158.245 173.479 157.672 174.344C157.109 175.208 156.828 176.505 156.828 178.234ZM185.031 181.812C185.031 183 184.75 184.005 184.188 184.828C183.635 185.641 182.807 186.26 181.703 186.688C180.599 187.104 179.224 187.312 177.578 187.312C176.359 187.312 175.312 187.234 174.438 187.078C173.573 186.922 172.698 186.661 171.812 186.297V182.359C172.76 182.786 173.776 183.141 174.859 183.422C175.953 183.693 176.911 183.828 177.734 183.828C178.661 183.828 179.323 183.693 179.719 183.422C180.125 183.141 180.328 182.776 180.328 182.328C180.328 182.036 180.245 181.776 180.078 181.547C179.922 181.307 179.578 181.042 179.047 180.75C178.516 180.448 177.682 180.057 176.547 179.578C175.453 179.12 174.552 178.656 173.844 178.188C173.146 177.719 172.625 177.167 172.281 176.531C171.948 175.885 171.781 175.068 171.781 174.078C171.781 172.464 172.406 171.25 173.656 170.438C174.917 169.615 176.599 169.203 178.703 169.203C179.786 169.203 180.818 169.312 181.797 169.531C182.786 169.75 183.802 170.099 184.844 170.578L183.406 174.016C182.542 173.641 181.724 173.333 180.953 173.094C180.193 172.854 179.417 172.734 178.625 172.734C177.927 172.734 177.401 172.828 177.047 173.016C176.693 173.203 176.516 173.49 176.516 173.875C176.516 174.156 176.604 174.406 176.781 174.625C176.969 174.844 177.323 175.089 177.844 175.359C178.375 175.62 179.151 175.958 180.172 176.375C181.161 176.781 182.021 177.208 182.75 177.656C183.479 178.094 184.042 178.641 184.438 179.297C184.833 179.943 185.031 180.781 185.031 181.812ZM202.594 187.312C200.646 187.312 199.057 186.552 197.828 185.031C196.609 183.5 196 181.255 196 178.297C196 175.307 196.62 173.047 197.859 171.516C199.099 169.974 200.719 169.203 202.719 169.203C203.552 169.203 204.286 169.318 204.922 169.547C205.557 169.776 206.104 170.083 206.562 170.469C207.031 170.854 207.427 171.286 207.75 171.766H207.906C207.844 171.432 207.766 170.943 207.672 170.297C207.589 169.641 207.547 168.969 207.547 168.281V162.688H212.328V187H208.672L207.75 184.734H207.547C207.245 185.214 206.865 185.651 206.406 186.047C205.958 186.432 205.422 186.74 204.797 186.969C204.172 187.198 203.438 187.312 202.594 187.312ZM204.266 183.516C205.568 183.516 206.484 183.13 207.016 182.359C207.557 181.578 207.844 180.406 207.875 178.844V178.328C207.875 176.63 207.615 175.333 207.094 174.438C206.573 173.531 205.604 173.078 204.188 173.078C203.135 173.078 202.312 173.531 201.719 174.438C201.125 175.344 200.828 176.651 200.828 178.359C200.828 180.068 201.125 181.354 201.719 182.219C202.323 183.083 203.172 183.516 204.266 183.516ZM233.188 178.234C233.188 179.693 232.99 180.984 232.594 182.109C232.208 183.234 231.641 184.188 230.891 184.969C230.151 185.74 229.255 186.323 228.203 186.719C227.161 187.115 225.984 187.312 224.672 187.312C223.443 187.312 222.312 187.115 221.281 186.719C220.26 186.323 219.37 185.74 218.609 184.969C217.859 184.188 217.276 183.234 216.859 182.109C216.453 180.984 216.25 179.693 216.25 178.234C216.25 176.297 216.594 174.656 217.281 173.312C217.969 171.969 218.948 170.948 220.219 170.25C221.49 169.552 223.005 169.203 224.766 169.203C226.401 169.203 227.849 169.552 229.109 170.25C230.38 170.948 231.375 171.969 232.094 173.312C232.823 174.656 233.188 176.297 233.188 178.234ZM221.109 178.234C221.109 179.38 221.234 180.344 221.484 181.125C221.734 181.906 222.125 182.495 222.656 182.891C223.188 183.286 223.88 183.484 224.734 183.484C225.578 183.484 226.26 183.286 226.781 182.891C227.312 182.495 227.698 181.906 227.938 181.125C228.188 180.344 228.312 179.38 228.312 178.234C228.312 177.078 228.188 176.12 227.938 175.359C227.698 174.589 227.312 174.01 226.781 173.625C226.25 173.24 225.557 173.047 224.703 173.047C223.443 173.047 222.526 173.479 221.953 174.344C221.391 175.208 221.109 176.505 221.109 178.234ZM250.969 187.312C249.021 187.312 247.432 186.552 246.203 185.031C244.984 183.5 244.375 181.255 244.375 178.297C244.375 175.307 244.995 173.047 246.234 171.516C247.474 169.974 249.094 169.203 251.094 169.203C251.927 169.203 252.661 169.318 253.297 169.547C253.932 169.776 254.479 170.083 254.938 170.469C255.406 170.854 255.802 171.286 256.125 171.766H256.281C256.219 171.432 256.141 170.943 256.047 170.297C255.964 169.641 255.922 168.969 255.922 168.281V162.688H260.703V187H257.047L256.125 184.734H255.922C255.62 185.214 255.24 185.651 254.781 186.047C254.333 186.432 253.797 186.74 253.172 186.969C252.547 187.198 251.812 187.312 250.969 187.312ZM252.641 183.516C253.943 183.516 254.859 183.13 255.391 182.359C255.932 181.578 256.219 180.406 256.25 178.844V178.328C256.25 176.63 255.99 175.333 255.469 174.438C254.948 173.531 253.979 173.078 252.562 173.078C251.51 173.078 250.688 173.531 250.094 174.438C249.5 175.344 249.203 176.651 249.203 178.359C249.203 180.068 249.5 181.354 250.094 182.219C250.698 183.083 251.547 183.516 252.641 183.516ZM272.891 169.203C274.505 169.203 275.896 169.516 277.062 170.141C278.229 170.755 279.13 171.651 279.766 172.828C280.401 174.005 280.719 175.443 280.719 177.141V179.453H269.453C269.505 180.797 269.906 181.854 270.656 182.625C271.417 183.385 272.469 183.766 273.812 183.766C274.927 183.766 275.948 183.651 276.875 183.422C277.802 183.193 278.755 182.849 279.734 182.391V186.078C278.87 186.505 277.964 186.818 277.016 187.016C276.078 187.214 274.938 187.312 273.594 187.312C271.844 187.312 270.292 186.99 268.938 186.344C267.594 185.698 266.536 184.714 265.766 183.391C265.005 182.068 264.625 180.401 264.625 178.391C264.625 176.349 264.969 174.651 265.656 173.297C266.354 171.932 267.323 170.911 268.562 170.234C269.802 169.547 271.245 169.203 272.891 169.203ZM272.922 172.594C271.995 172.594 271.224 172.891 270.609 173.484C270.005 174.078 269.656 175.01 269.562 176.281H276.25C276.24 175.573 276.109 174.943 275.859 174.391C275.62 173.839 275.255 173.401 274.766 173.078C274.286 172.755 273.672 172.594 272.922 172.594ZM296.781 181.812C296.781 183 296.5 184.005 295.938 184.828C295.385 185.641 294.557 186.26 293.453 186.688C292.349 187.104 290.974 187.312 289.328 187.312C288.109 187.312 287.062 187.234 286.188 187.078C285.323 186.922 284.448 186.661 283.562 186.297V182.359C284.51 182.786 285.526 183.141 286.609 183.422C287.703 183.693 288.661 183.828 289.484 183.828C290.411 183.828 291.073 183.693 291.469 183.422C291.875 183.141 292.078 182.776 292.078 182.328C292.078 182.036 291.995 181.776 291.828 181.547C291.672 181.307 291.328 181.042 290.797 180.75C290.266 180.448 289.432 180.057 288.297 179.578C287.203 179.12 286.302 178.656 285.594 178.188C284.896 177.719 284.375 177.167 284.031 176.531C283.698 175.885 283.531 175.068 283.531 174.078C283.531 172.464 284.156 171.25 285.406 170.438C286.667 169.615 288.349 169.203 290.453 169.203C291.536 169.203 292.568 169.312 293.547 169.531C294.536 169.75 295.552 170.099 296.594 170.578L295.156 174.016C294.292 173.641 293.474 173.333 292.703 173.094C291.943 172.854 291.167 172.734 290.375 172.734C289.677 172.734 289.151 172.828 288.797 173.016C288.443 173.203 288.266 173.49 288.266 173.875C288.266 174.156 288.354 174.406 288.531 174.625C288.719 174.844 289.073 175.089 289.594 175.359C290.125 175.62 290.901 175.958 291.922 176.375C292.911 176.781 293.771 177.208 294.5 177.656C295.229 178.094 295.792 178.641 296.188 179.297C296.583 179.943 296.781 180.781 296.781 181.812ZM307.703 169.203C309.318 169.203 310.708 169.516 311.875 170.141C313.042 170.755 313.943 171.651 314.578 172.828C315.214 174.005 315.531 175.443 315.531 177.141V179.453H304.266C304.318 180.797 304.719 181.854 305.469 182.625C306.229 183.385 307.281 183.766 308.625 183.766C309.74 183.766 310.76 183.651 311.688 183.422C312.615 183.193 313.568 182.849 314.547 182.391V186.078C313.682 186.505 312.776 186.818 311.828 187.016C310.891 187.214 309.75 187.312 308.406 187.312C306.656 187.312 305.104 186.99 303.75 186.344C302.406 185.698 301.349 184.714 300.578 183.391C299.818 182.068 299.438 180.401 299.438 178.391C299.438 176.349 299.781 174.651 300.469 173.297C301.167 171.932 302.135 170.911 303.375 170.234C304.615 169.547 306.057 169.203 307.703 169.203ZM307.734 172.594C306.807 172.594 306.036 172.891 305.422 173.484C304.818 174.078 304.469 175.01 304.375 176.281H311.062C311.052 175.573 310.922 174.943 310.672 174.391C310.432 173.839 310.068 173.401 309.578 173.078C309.099 172.755 308.484 172.594 307.734 172.594ZM329.328 169.203C331.193 169.203 332.693 169.714 333.828 170.734C334.964 171.745 335.531 173.37 335.531 175.609V187H330.766V176.797C330.766 175.547 330.536 174.604 330.078 173.969C329.63 173.333 328.922 173.016 327.953 173.016C326.495 173.016 325.5 173.51 324.969 174.5C324.438 175.49 324.172 176.917 324.172 178.781V187H319.406V169.531H323.047L323.688 171.766H323.953C324.328 171.161 324.792 170.672 325.344 170.297C325.906 169.922 326.526 169.646 327.203 169.469C327.891 169.292 328.599 169.203 329.328 169.203ZM344.594 187L337.938 169.531H342.922L346.297 179.484C346.484 180.068 346.63 180.682 346.734 181.328C346.849 181.974 346.927 182.552 346.969 183.062H347.094C347.125 182.51 347.198 181.922 347.312 181.297C347.438 180.672 347.599 180.068 347.797 179.484L351.156 169.531H356.141L349.484 187H344.594ZM374.531 178.234C374.531 179.693 374.333 180.984 373.938 182.109C373.552 183.234 372.984 184.188 372.234 184.969C371.495 185.74 370.599 186.323 369.547 186.719C368.505 187.115 367.328 187.312 366.016 187.312C364.786 187.312 363.656 187.115 362.625 186.719C361.604 186.323 360.714 185.74 359.953 184.969C359.203 184.188 358.62 183.234 358.203 182.109C357.797 180.984 357.594 179.693 357.594 178.234C357.594 176.297 357.938 174.656 358.625 173.312C359.312 171.969 360.292 170.948 361.562 170.25C362.833 169.552 364.349 169.203 366.109 169.203C367.745 169.203 369.193 169.552 370.453 170.25C371.724 170.948 372.719 171.969 373.438 173.312C374.167 174.656 374.531 176.297 374.531 178.234ZM362.453 178.234C362.453 179.38 362.578 180.344 362.828 181.125C363.078 181.906 363.469 182.495 364 182.891C364.531 183.286 365.224 183.484 366.078 183.484C366.922 183.484 367.604 183.286 368.125 182.891C368.656 182.495 369.042 181.906 369.281 181.125C369.531 180.344 369.656 179.38 369.656 178.234C369.656 177.078 369.531 176.12 369.281 175.359C369.042 174.589 368.656 174.01 368.125 173.625C367.594 173.24 366.901 173.047 366.047 173.047C364.786 173.047 363.87 173.479 363.297 174.344C362.734 175.208 362.453 176.505 362.453 178.234ZM383.234 187H378.469V162.688H383.234V187ZM392.406 187L385.75 169.531H390.734L394.109 179.484C394.297 180.068 394.443 180.682 394.547 181.328C394.661 181.974 394.74 182.552 394.781 183.062H394.906C394.938 182.51 395.01 181.922 395.125 181.297C395.25 180.672 395.411 180.068 395.609 179.484L398.969 169.531H403.953L397.297 187H392.406ZM411.234 169.531V187H406.469V169.531H411.234ZM408.859 162.688C409.568 162.688 410.177 162.854 410.688 163.188C411.198 163.51 411.453 164.12 411.453 165.016C411.453 165.901 411.198 166.516 410.688 166.859C410.177 167.193 409.568 167.359 408.859 167.359C408.141 167.359 407.526 167.193 407.016 166.859C406.516 166.516 406.266 165.901 406.266 165.016C406.266 164.12 406.516 163.51 407.016 163.188C407.526 162.854 408.141 162.688 408.859 162.688ZM436.766 169.203C438.745 169.203 440.24 169.714 441.25 170.734C442.271 171.745 442.781 173.37 442.781 175.609V187H438V176.797C438 175.547 437.786 174.604 437.359 173.969C436.932 173.333 436.271 173.016 435.375 173.016C434.115 173.016 433.219 173.469 432.688 174.375C432.156 175.271 431.891 176.557 431.891 178.234V187H427.125V176.797C427.125 175.964 427.031 175.266 426.844 174.703C426.656 174.141 426.37 173.719 425.984 173.438C425.599 173.156 425.104 173.016 424.5 173.016C423.615 173.016 422.917 173.24 422.406 173.688C421.906 174.125 421.547 174.776 421.328 175.641C421.12 176.495 421.016 177.542 421.016 178.781V187H416.25V169.531H419.891L420.531 171.766H420.797C421.151 171.161 421.594 170.672 422.125 170.297C422.667 169.922 423.26 169.646 423.906 169.469C424.552 169.292 425.208 169.203 425.875 169.203C427.156 169.203 428.24 169.411 429.125 169.828C430.021 170.245 430.708 170.891 431.188 171.766H431.609C432.13 170.87 432.865 170.219 433.812 169.812C434.771 169.406 435.755 169.203 436.766 169.203ZM454.891 169.203C456.505 169.203 457.896 169.516 459.062 170.141C460.229 170.755 461.13 171.651 461.766 172.828C462.401 174.005 462.719 175.443 462.719 177.141V179.453H451.453C451.505 180.797 451.906 181.854 452.656 182.625C453.417 183.385 454.469 183.766 455.812 183.766C456.927 183.766 457.948 183.651 458.875 183.422C459.802 183.193 460.755 182.849 461.734 182.391V186.078C460.87 186.505 459.964 186.818 459.016 187.016C458.078 187.214 456.938 187.312 455.594 187.312C453.844 187.312 452.292 186.99 450.938 186.344C449.594 185.698 448.536 184.714 447.766 183.391C447.005 182.068 446.625 180.401 446.625 178.391C446.625 176.349 446.969 174.651 447.656 173.297C448.354 171.932 449.323 170.911 450.562 170.234C451.802 169.547 453.245 169.203 454.891 169.203ZM454.922 172.594C453.995 172.594 453.224 172.891 452.609 173.484C452.005 174.078 451.656 175.01 451.562 176.281H458.25C458.24 175.573 458.109 174.943 457.859 174.391C457.62 173.839 457.255 173.401 456.766 173.078C456.286 172.755 455.672 172.594 454.922 172.594ZM476.516 169.203C478.38 169.203 479.88 169.714 481.016 170.734C482.151 171.745 482.719 173.37 482.719 175.609V187H477.953V176.797C477.953 175.547 477.724 174.604 477.266 173.969C476.818 173.333 476.109 173.016 475.141 173.016C473.682 173.016 472.688 173.51 472.156 174.5C471.625 175.49 471.359 176.917 471.359 178.781V187H466.594V169.531H470.234L470.875 171.766H471.141C471.516 171.161 471.979 170.672 472.531 170.297C473.094 169.922 473.714 169.646 474.391 169.469C475.078 169.292 475.786 169.203 476.516 169.203ZM494.984 183.516C495.505 183.516 496.01 183.464 496.5 183.359C497 183.255 497.495 183.125 497.984 182.969V186.516C497.474 186.745 496.839 186.932 496.078 187.078C495.328 187.234 494.505 187.312 493.609 187.312C492.568 187.312 491.63 187.146 490.797 186.812C489.974 186.469 489.323 185.88 488.844 185.047C488.375 184.203 488.141 183.031 488.141 181.531V173.109H485.859V171.094L488.484 169.5L489.859 165.812H492.906V169.531H497.797V173.109H492.906V181.531C492.906 182.198 493.094 182.698 493.469 183.031C493.854 183.354 494.359 183.516 494.984 183.516ZM517.406 178.234C517.406 179.693 517.208 180.984 516.812 182.109C516.427 183.234 515.859 184.188 515.109 184.969C514.37 185.74 513.474 186.323 512.422 186.719C511.38 187.115 510.203 187.312 508.891 187.312C507.661 187.312 506.531 187.115 505.5 186.719C504.479 186.323 503.589 185.74 502.828 184.969C502.078 184.188 501.495 183.234 501.078 182.109C500.672 180.984 500.469 179.693 500.469 178.234C500.469 176.297 500.812 174.656 501.5 173.312C502.188 171.969 503.167 170.948 504.438 170.25C505.708 169.552 507.224 169.203 508.984 169.203C510.62 169.203 512.068 169.552 513.328 170.25C514.599 170.948 515.594 171.969 516.312 173.312C517.042 174.656 517.406 176.297 517.406 178.234ZM505.328 178.234C505.328 179.38 505.453 180.344 505.703 181.125C505.953 181.906 506.344 182.495 506.875 182.891C507.406 183.286 508.099 183.484 508.953 183.484C509.797 183.484 510.479 183.286 511 182.891C511.531 182.495 511.917 181.906 512.156 181.125C512.406 180.344 512.531 179.38 512.531 178.234C512.531 177.078 512.406 176.12 512.156 175.359C511.917 174.589 511.531 174.01 511 173.625C510.469 173.24 509.776 173.047 508.922 173.047C507.661 173.047 506.745 173.479 506.172 174.344C505.609 175.208 505.328 176.505 505.328 178.234ZM520.672 184.766C520.672 183.786 520.938 183.099 521.469 182.703C522.01 182.307 522.661 182.109 523.422 182.109C524.161 182.109 524.797 182.307 525.328 182.703C525.87 183.099 526.141 183.786 526.141 184.766C526.141 185.703 525.87 186.38 525.328 186.797C524.797 187.214 524.161 187.422 523.422 187.422C522.661 187.422 522.01 187.214 521.469 186.797C520.938 186.38 520.672 185.703 520.672 184.766ZM520.672 171.859C520.672 170.88 520.938 170.193 521.469 169.797C522.01 169.401 522.661 169.203 523.422 169.203C524.161 169.203 524.797 169.401 525.328 169.797C525.87 170.193 526.141 170.88 526.141 171.859C526.141 172.807 525.87 173.49 525.328 173.906C524.797 174.312 524.161 174.516 523.422 174.516C522.661 174.516 522.01 174.312 521.469 173.906C520.938 173.49 520.672 172.807 520.672 171.859Z" fill="#70728F"/>
<path d="M77.0312 230.312C75.0833 230.312 73.4948 229.552 72.2656 228.031C71.0469 226.5 70.4375 224.255 70.4375 221.297C70.4375 218.307 71.0573 216.047 72.2969 214.516C73.5365 212.974 75.1562 212.203 77.1562 212.203C77.9896 212.203 78.724 212.318 79.3594 212.547C79.9948 212.776 80.5417 213.083 81 213.469C81.4688 213.854 81.8646 214.286 82.1875 214.766H82.3438C82.2812 214.432 82.2031 213.943 82.1094 213.297C82.026 212.641 81.9844 211.969 81.9844 211.281V205.688H86.7656V230H83.1094L82.1875 227.734H81.9844C81.6823 228.214 81.3021 228.651 80.8438 229.047C80.3958 229.432 79.8594 229.74 79.2344 229.969C78.6094 230.198 77.875 230.312 77.0312 230.312ZM78.7031 226.516C80.0052 226.516 80.9219 226.13 81.4531 225.359C81.9948 224.578 82.2812 223.406 82.3125 221.844V221.328C82.3125 219.63 82.0521 218.333 81.5312 217.438C81.0104 216.531 80.0417 216.078 78.625 216.078C77.5729 216.078 76.75 216.531 76.1562 217.438C75.5625 218.344 75.2656 219.651 75.2656 221.359C75.2656 223.068 75.5625 224.354 76.1562 225.219C76.7604 226.083 77.6094 226.516 78.7031 226.516ZM98.9531 212.203C100.568 212.203 101.958 212.516 103.125 213.141C104.292 213.755 105.193 214.651 105.828 215.828C106.464 217.005 106.781 218.443 106.781 220.141V222.453H95.5156C95.5677 223.797 95.9688 224.854 96.7188 225.625C97.4792 226.385 98.5312 226.766 99.875 226.766C100.99 226.766 102.01 226.651 102.938 226.422C103.865 226.193 104.818 225.849 105.797 225.391V229.078C104.932 229.505 104.026 229.818 103.078 230.016C102.141 230.214 101 230.312 99.6562 230.312C97.9062 230.312 96.3542 229.99 95 229.344C93.6562 228.698 92.599 227.714 91.8281 226.391C91.0677 225.068 90.6875 223.401 90.6875 221.391C90.6875 219.349 91.0312 217.651 91.7188 216.297C92.4167 214.932 93.3854 213.911 94.625 213.234C95.8646 212.547 97.3073 212.203 98.9531 212.203ZM98.9844 215.594C98.0573 215.594 97.2865 215.891 96.6719 216.484C96.0677 217.078 95.7188 218.01 95.625 219.281H102.312C102.302 218.573 102.172 217.943 101.922 217.391C101.682 216.839 101.318 216.401 100.828 216.078C100.349 215.755 99.7344 215.594 98.9844 215.594ZM117.594 220.297C117.594 218.984 117.688 217.688 117.875 216.406C118.073 215.115 118.411 213.901 118.891 212.766C119.37 211.62 120.042 210.609 120.906 209.734C121.771 208.849 122.87 208.156 124.203 207.656C125.536 207.146 127.151 206.891 129.047 206.891C129.495 206.891 130.016 206.911 130.609 206.953C131.214 206.984 131.714 207.042 132.109 207.125V210.984C131.693 210.891 131.245 210.818 130.766 210.766C130.297 210.703 129.828 210.672 129.359 210.672C127.464 210.672 125.995 210.974 124.953 211.578C123.922 212.182 123.193 213.021 122.766 214.094C122.349 215.156 122.104 216.396 122.031 217.812H122.234C122.526 217.302 122.891 216.849 123.328 216.453C123.776 216.057 124.318 215.745 124.953 215.516C125.589 215.276 126.333 215.156 127.188 215.156C128.521 215.156 129.677 215.443 130.656 216.016C131.635 216.578 132.391 217.396 132.922 218.469C133.453 219.542 133.719 220.849 133.719 222.391C133.719 224.036 133.401 225.453 132.766 226.641C132.13 227.828 131.229 228.74 130.062 229.375C128.906 230 127.531 230.312 125.938 230.312C124.771 230.312 123.682 230.115 122.672 229.719C121.661 229.312 120.776 228.698 120.016 227.875C119.255 227.052 118.661 226.016 118.234 224.766C117.807 223.505 117.594 222.016 117.594 220.297ZM125.844 226.453C126.792 226.453 127.562 226.13 128.156 225.484C128.75 224.839 129.047 223.828 129.047 222.453C129.047 221.339 128.786 220.464 128.266 219.828C127.755 219.182 126.979 218.859 125.938 218.859C125.229 218.859 124.604 219.021 124.062 219.344C123.531 219.656 123.12 220.057 122.828 220.547C122.536 221.026 122.391 221.521 122.391 222.031C122.391 222.562 122.464 223.089 122.609 223.609C122.755 224.13 122.974 224.604 123.266 225.031C123.557 225.458 123.917 225.802 124.344 226.062C124.781 226.323 125.281 226.453 125.844 226.453ZM152.75 212.172C155.094 212.172 156.891 212.682 158.141 213.703C159.391 214.724 160.016 216.276 160.016 218.359V230H156.688L155.766 227.625H155.641C155.141 228.25 154.63 228.76 154.109 229.156C153.589 229.552 152.99 229.844 152.312 230.031C151.635 230.219 150.812 230.312 149.844 230.312C148.812 230.312 147.885 230.115 147.062 229.719C146.25 229.323 145.609 228.719 145.141 227.906C144.672 227.083 144.438 226.042 144.438 224.781C144.438 222.927 145.089 221.562 146.391 220.688C147.693 219.802 149.646 219.312 152.25 219.219L155.281 219.125V218.359C155.281 217.443 155.042 216.771 154.562 216.344C154.083 215.917 153.417 215.703 152.562 215.703C151.719 215.703 150.891 215.823 150.078 216.062C149.266 216.302 148.453 216.604 147.641 216.969L146.062 213.75C146.99 213.26 148.026 212.875 149.172 212.594C150.328 212.312 151.521 212.172 152.75 212.172ZM155.281 221.906L153.438 221.969C151.896 222.01 150.823 222.286 150.219 222.797C149.625 223.307 149.328 223.979 149.328 224.812C149.328 225.542 149.542 226.062 149.969 226.375C150.396 226.677 150.953 226.828 151.641 226.828C152.661 226.828 153.521 226.526 154.219 225.922C154.927 225.318 155.281 224.458 155.281 223.344V221.906ZM174.859 212.203C176.724 212.203 178.224 212.714 179.359 213.734C180.495 214.745 181.062 216.37 181.062 218.609V230H176.297V219.797C176.297 218.547 176.068 217.604 175.609 216.969C175.161 216.333 174.453 216.016 173.484 216.016C172.026 216.016 171.031 216.51 170.5 217.5C169.969 218.49 169.703 219.917 169.703 221.781V230H164.938V212.531H168.578L169.219 214.766H169.484C169.859 214.161 170.323 213.672 170.875 213.297C171.438 212.922 172.057 212.646 172.734 212.469C173.422 212.292 174.13 212.203 174.859 212.203ZM201.844 221.234C201.844 222.693 201.646 223.984 201.25 225.109C200.865 226.234 200.297 227.188 199.547 227.969C198.807 228.74 197.911 229.323 196.859 229.719C195.818 230.115 194.641 230.312 193.328 230.312C192.099 230.312 190.969 230.115 189.938 229.719C188.917 229.323 188.026 228.74 187.266 227.969C186.516 227.188 185.932 226.234 185.516 225.109C185.109 223.984 184.906 222.693 184.906 221.234C184.906 219.297 185.25 217.656 185.938 216.312C186.625 214.969 187.604 213.948 188.875 213.25C190.146 212.552 191.661 212.203 193.422 212.203C195.057 212.203 196.505 212.552 197.766 213.25C199.036 213.948 200.031 214.969 200.75 216.312C201.479 217.656 201.844 219.297 201.844 221.234ZM189.766 221.234C189.766 222.38 189.891 223.344 190.141 224.125C190.391 224.906 190.781 225.495 191.312 225.891C191.844 226.286 192.536 226.484 193.391 226.484C194.234 226.484 194.917 226.286 195.438 225.891C195.969 225.495 196.354 224.906 196.594 224.125C196.844 223.344 196.969 222.38 196.969 221.234C196.969 220.078 196.844 219.12 196.594 218.359C196.354 217.589 195.969 217.01 195.438 216.625C194.906 216.24 194.214 216.047 193.359 216.047C192.099 216.047 191.182 216.479 190.609 217.344C190.047 218.208 189.766 219.505 189.766 221.234ZM217.969 224.812C217.969 226 217.688 227.005 217.125 227.828C216.573 228.641 215.745 229.26 214.641 229.688C213.536 230.104 212.161 230.312 210.516 230.312C209.297 230.312 208.25 230.234 207.375 230.078C206.51 229.922 205.635 229.661 204.75 229.297V225.359C205.698 225.786 206.714 226.141 207.797 226.422C208.891 226.693 209.849 226.828 210.672 226.828C211.599 226.828 212.26 226.693 212.656 226.422C213.062 226.141 213.266 225.776 213.266 225.328C213.266 225.036 213.182 224.776 213.016 224.547C212.859 224.307 212.516 224.042 211.984 223.75C211.453 223.448 210.62 223.057 209.484 222.578C208.391 222.12 207.49 221.656 206.781 221.188C206.083 220.719 205.562 220.167 205.219 219.531C204.885 218.885 204.719 218.068 204.719 217.078C204.719 215.464 205.344 214.25 206.594 213.438C207.854 212.615 209.536 212.203 211.641 212.203C212.724 212.203 213.755 212.312 214.734 212.531C215.724 212.75 216.74 213.099 217.781 213.578L216.344 217.016C215.479 216.641 214.661 216.333 213.891 216.094C213.13 215.854 212.354 215.734 211.562 215.734C210.865 215.734 210.339 215.828 209.984 216.016C209.63 216.203 209.453 216.49 209.453 216.875C209.453 217.156 209.542 217.406 209.719 217.625C209.906 217.844 210.26 218.089 210.781 218.359C211.312 218.62 212.089 218.958 213.109 219.375C214.099 219.781 214.958 220.208 215.688 220.656C216.417 221.094 216.979 221.641 217.375 222.297C217.771 222.943 217.969 223.781 217.969 224.812ZM237.156 212.172C239.5 212.172 241.297 212.682 242.547 213.703C243.797 214.724 244.422 216.276 244.422 218.359V230H241.094L240.172 227.625H240.047C239.547 228.25 239.036 228.76 238.516 229.156C237.995 229.552 237.396 229.844 236.719 230.031C236.042 230.219 235.219 230.312 234.25 230.312C233.219 230.312 232.292 230.115 231.469 229.719C230.656 229.323 230.016 228.719 229.547 227.906C229.078 227.083 228.844 226.042 228.844 224.781C228.844 222.927 229.495 221.562 230.797 220.688C232.099 219.802 234.052 219.312 236.656 219.219L239.688 219.125V218.359C239.688 217.443 239.448 216.771 238.969 216.344C238.49 215.917 237.823 215.703 236.969 215.703C236.125 215.703 235.297 215.823 234.484 216.062C233.672 216.302 232.859 216.604 232.047 216.969L230.469 213.75C231.396 213.26 232.432 212.875 233.578 212.594C234.734 212.312 235.927 212.172 237.156 212.172ZM239.688 221.906L237.844 221.969C236.302 222.01 235.229 222.286 234.625 222.797C234.031 223.307 233.734 223.979 233.734 224.812C233.734 225.542 233.948 226.062 234.375 226.375C234.802 226.677 235.359 226.828 236.047 226.828C237.068 226.828 237.927 226.526 238.625 225.922C239.333 225.318 239.688 224.458 239.688 223.344V221.906ZM268.375 230H263.547V216.781C263.547 216.417 263.552 215.969 263.562 215.438C263.573 214.896 263.589 214.344 263.609 213.781C263.63 213.208 263.651 212.693 263.672 212.234C263.557 212.37 263.323 212.604 262.969 212.938C262.625 213.26 262.302 213.552 262 213.812L259.375 215.922L257.047 213.016L264.406 207.156H268.375V230ZM290.594 218.578C290.594 220.422 290.448 222.068 290.156 223.516C289.875 224.964 289.417 226.193 288.781 227.203C288.156 228.214 287.333 228.984 286.312 229.516C285.292 230.047 284.052 230.312 282.594 230.312C280.76 230.312 279.255 229.849 278.078 228.922C276.901 227.984 276.031 226.641 275.469 224.891C274.906 223.13 274.625 221.026 274.625 218.578C274.625 216.109 274.88 214 275.391 212.25C275.911 210.49 276.755 209.141 277.922 208.203C279.089 207.266 280.646 206.797 282.594 206.797C284.417 206.797 285.917 207.266 287.094 208.203C288.281 209.13 289.161 210.474 289.734 212.234C290.307 213.984 290.594 216.099 290.594 218.578ZM279.422 218.578C279.422 220.318 279.516 221.771 279.703 222.938C279.901 224.094 280.229 224.964 280.688 225.547C281.146 226.13 281.781 226.422 282.594 226.422C283.396 226.422 284.026 226.135 284.484 225.562C284.953 224.979 285.286 224.109 285.484 222.953C285.682 221.786 285.781 220.328 285.781 218.578C285.781 216.839 285.682 215.385 285.484 214.219C285.286 213.052 284.953 212.177 284.484 211.594C284.026 211 283.396 210.703 282.594 210.703C281.781 210.703 281.146 211 280.688 211.594C280.229 212.177 279.901 213.052 279.703 214.219C279.516 215.385 279.422 216.839 279.422 218.578ZM309.75 212.172C312.094 212.172 313.891 212.682 315.141 213.703C316.391 214.724 317.016 216.276 317.016 218.359V230H313.688L312.766 227.625H312.641C312.141 228.25 311.63 228.76 311.109 229.156C310.589 229.552 309.99 229.844 309.312 230.031C308.635 230.219 307.812 230.312 306.844 230.312C305.812 230.312 304.885 230.115 304.062 229.719C303.25 229.323 302.609 228.719 302.141 227.906C301.672 227.083 301.438 226.042 301.438 224.781C301.438 222.927 302.089 221.562 303.391 220.688C304.693 219.802 306.646 219.312 309.25 219.219L312.281 219.125V218.359C312.281 217.443 312.042 216.771 311.562 216.344C311.083 215.917 310.417 215.703 309.562 215.703C308.719 215.703 307.891 215.823 307.078 216.062C306.266 216.302 305.453 216.604 304.641 216.969L303.062 213.75C303.99 213.26 305.026 212.875 306.172 212.594C307.328 212.312 308.521 212.172 309.75 212.172ZM312.281 221.906L310.438 221.969C308.896 222.01 307.823 222.286 307.219 222.797C306.625 223.307 306.328 223.979 306.328 224.812C306.328 225.542 306.542 226.062 306.969 226.375C307.396 226.677 307.953 226.828 308.641 226.828C309.661 226.828 310.521 226.526 311.219 225.922C311.927 225.318 312.281 224.458 312.281 223.344V221.906ZM331.859 212.203C333.724 212.203 335.224 212.714 336.359 213.734C337.495 214.745 338.062 216.37 338.062 218.609V230H333.297V219.797C333.297 218.547 333.068 217.604 332.609 216.969C332.161 216.333 331.453 216.016 330.484 216.016C329.026 216.016 328.031 216.51 327.5 217.5C326.969 218.49 326.703 219.917 326.703 221.781V230H321.938V212.531H325.578L326.219 214.766H326.484C326.859 214.161 327.323 213.672 327.875 213.297C328.438 212.922 329.057 212.646 329.734 212.469C330.422 212.292 331.13 212.203 331.859 212.203ZM358.844 221.234C358.844 222.693 358.646 223.984 358.25 225.109C357.865 226.234 357.297 227.188 356.547 227.969C355.807 228.74 354.911 229.323 353.859 229.719C352.818 230.115 351.641 230.312 350.328 230.312C349.099 230.312 347.969 230.115 346.938 229.719C345.917 229.323 345.026 228.74 344.266 227.969C343.516 227.188 342.932 226.234 342.516 225.109C342.109 223.984 341.906 222.693 341.906 221.234C341.906 219.297 342.25 217.656 342.938 216.312C343.625 214.969 344.604 213.948 345.875 213.25C347.146 212.552 348.661 212.203 350.422 212.203C352.057 212.203 353.505 212.552 354.766 213.25C356.036 213.948 357.031 214.969 357.75 216.312C358.479 217.656 358.844 219.297 358.844 221.234ZM346.766 221.234C346.766 222.38 346.891 223.344 347.141 224.125C347.391 224.906 347.781 225.495 348.312 225.891C348.844 226.286 349.536 226.484 350.391 226.484C351.234 226.484 351.917 226.286 352.438 225.891C352.969 225.495 353.354 224.906 353.594 224.125C353.844 223.344 353.969 222.38 353.969 221.234C353.969 220.078 353.844 219.12 353.594 218.359C353.354 217.589 352.969 217.01 352.438 216.625C351.906 216.24 351.214 216.047 350.359 216.047C349.099 216.047 348.182 216.479 347.609 217.344C347.047 218.208 346.766 219.505 346.766 221.234ZM374.969 224.812C374.969 226 374.688 227.005 374.125 227.828C373.573 228.641 372.745 229.26 371.641 229.688C370.536 230.104 369.161 230.312 367.516 230.312C366.297 230.312 365.25 230.234 364.375 230.078C363.51 229.922 362.635 229.661 361.75 229.297V225.359C362.698 225.786 363.714 226.141 364.797 226.422C365.891 226.693 366.849 226.828 367.672 226.828C368.599 226.828 369.26 226.693 369.656 226.422C370.062 226.141 370.266 225.776 370.266 225.328C370.266 225.036 370.182 224.776 370.016 224.547C369.859 224.307 369.516 224.042 368.984 223.75C368.453 223.448 367.62 223.057 366.484 222.578C365.391 222.12 364.49 221.656 363.781 221.188C363.083 220.719 362.562 220.167 362.219 219.531C361.885 218.885 361.719 218.068 361.719 217.078C361.719 215.464 362.344 214.25 363.594 213.438C364.854 212.615 366.536 212.203 368.641 212.203C369.724 212.203 370.755 212.312 371.734 212.531C372.724 212.75 373.74 213.099 374.781 213.578L373.344 217.016C372.479 216.641 371.661 216.333 370.891 216.094C370.13 215.854 369.354 215.734 368.562 215.734C367.865 215.734 367.339 215.828 366.984 216.016C366.63 216.203 366.453 216.49 366.453 216.875C366.453 217.156 366.542 217.406 366.719 217.625C366.906 217.844 367.26 218.089 367.781 218.359C368.312 218.62 369.089 218.958 370.109 219.375C371.099 219.781 371.958 220.208 372.688 220.656C373.417 221.094 373.979 221.641 374.375 222.297C374.771 222.943 374.969 223.781 374.969 224.812Z" fill="#7B6EB9"/>
<g filter="url(#filter0_d_2096_5964)">
<path fill-rule="evenodd" clip-rule="evenodd" d="M659.258 255.001H648.202C632.757 252.377 621 238.985 621 222.859C621 204.851 635.663 190.252 653.75 190.252C661.641 190.252 668.879 193.032 674.533 197.66C680.442 191.879 688.541 188.309 697.481 188.309C705.759 188.309 713.313 191.373 719.079 196.416C723.914 193.614 729.529 192.002 735.526 192.002C741.891 192.002 747.826 193.815 752.853 196.942C758.689 191.585 766.481 188.309 775.045 188.309C786.818 188.309 797.135 194.497 802.907 203.781C808.861 197.656 817.199 193.843 826.436 193.843C844.523 193.843 859.185 208.442 859.185 226.45C859.185 238.741 852.355 249.444 842.268 255.001H662.042C662.23 254.747 662.421 254.495 662.616 254.247C661.519 254.554 660.399 254.807 659.258 255.001Z" fill="#DCEDFA"/>
</g>
<path fill-rule="evenodd" clip-rule="evenodd" d="M659.258 198.999H648.202C632.757 201.623 621 215.015 621 231.141C621 249.149 635.663 263.748 653.75 263.748C661.641 263.748 668.879 260.968 674.533 256.34C680.442 262.121 688.541 265.691 697.481 265.691C705.759 265.691 713.313 262.627 719.079 257.584C723.914 260.386 729.529 261.998 735.526 261.998C741.891 261.998 747.826 260.185 752.853 257.058C758.689 262.415 766.481 265.691 775.045 265.691C786.818 265.691 797.135 259.503 802.907 250.219C808.861 256.344 817.199 260.157 826.436 260.157C844.523 260.157 859.185 245.558 859.185 227.55C859.185 215.259 852.355 204.556 842.268 198.999H662.042C662.23 199.253 662.421 199.505 662.616 199.753C661.519 199.446 660.399 199.193 659.258 198.999Z" fill="#F8EBF6"/>
<g filter="url(#filter1_d_2096_5964)">
<path d="M1131.28 170.882C1128.2 170.882 1125.24 171.313 1122.42 172.101C1126.76 166.57 1129.36 159.612 1129.36 152.046C1129.36 134.048 1114.71 119.458 1096.63 119.458C1088.22 119.458 1080.55 122.623 1074.75 127.819C1074.86 126.756 1074.91 125.678 1074.91 124.588C1074.91 106.59 1060.26 92 1042.19 92C1024.12 92 1009.46 106.59 1009.46 124.588C1009.46 125.723 1009.52 126.845 1009.64 127.95C1004.44 124.48 998.18 122.453 991.448 122.453C973.375 122.453 958.724 137.043 958.724 155.041C958.724 159.414 959.595 163.583 961.164 167.393C960.358 167.334 959.546 167.294 958.724 167.294C940.651 167.294 926 181.884 926 199.881C926 217.879 940.651 232.469 958.724 232.469C967.954 232.469 976.285 228.658 982.234 222.537C988.002 231.816 998.311 238 1010.07 238C1018.63 238 1026.42 234.726 1032.25 229.371C1037.27 232.497 1043.2 234.309 1049.56 234.309C1055.56 234.309 1061.17 232.698 1066 229.897C1071.76 234.937 1079.31 238 1087.58 238C1096.51 238 1104.6 234.432 1110.51 228.654C1116.16 233.279 1123.39 236.057 1131.28 236.057C1149.35 236.057 1164 221.467 1164 203.47C1164 185.472 1149.35 170.882 1131.28 170.882Z" fill="#F8EBF6"/>
</g>
<g filter="url(#filter2_d_2096_5964)">
<rect x="56" y="36" width="98" height="95" rx="47.5" fill="#7B6EB9" shape-rendering="crispEdges"/>
<rect x="56" y="36" width="98" height="95" rx="47.5" stroke="white" stroke-width="6" shape-rendering="crispEdges"/>
<path d="M99.375 96H83.4062V92.6406L89.1406 86.8438C90.2969 85.6562 91.224 84.6667 91.9219 83.875C92.6302 83.0729 93.1406 82.3438 93.4531 81.6875C93.776 81.0312 93.9375 80.3281 93.9375 79.5781C93.9375 78.6719 93.6823 77.9948 93.1719 77.5469C92.6719 77.0885 92 76.8594 91.1562 76.8594C90.2708 76.8594 89.4115 77.0625 88.5781 77.4688C87.7448 77.875 86.875 78.4531 85.9688 79.2031L83.3438 76.0938C84 75.5312 84.6927 75 85.4219 74.5C86.1615 74 87.0156 73.599 87.9844 73.2969C88.9635 72.9844 90.1354 72.8281 91.5 72.8281C93 72.8281 94.2865 73.099 95.3594 73.6406C96.4427 74.1823 97.276 74.9219 97.8594 75.8594C98.4427 76.7865 98.7344 77.8385 98.7344 79.0156C98.7344 80.276 98.4844 81.4271 97.9844 82.4688C97.4844 83.5104 96.7552 84.5417 95.7969 85.5625C94.849 86.5833 93.7031 87.7135 92.3594 88.9531L89.4219 91.7188V91.9375H99.375V96ZM102.266 93.7656C102.266 92.7865 102.531 92.099 103.062 91.7031C103.604 91.3073 104.255 91.1094 105.016 91.1094C105.755 91.1094 106.391 91.3073 106.922 91.7031C107.464 92.099 107.734 92.7865 107.734 93.7656C107.734 94.7031 107.464 95.3802 106.922 95.7969C106.391 96.2135 105.755 96.4219 105.016 96.4219C104.255 96.4219 103.604 96.2135 103.062 95.7969C102.531 95.3802 102.266 94.7031 102.266 93.7656ZM110.688 86.2969C110.688 84.9844 110.781 83.6875 110.969 82.4062C111.167 81.1146 111.505 79.901 111.984 78.7656C112.464 77.6198 113.135 76.6094 114 75.7344C114.865 74.849 115.964 74.1562 117.297 73.6562C118.63 73.1458 120.245 72.8906 122.141 72.8906C122.589 72.8906 123.109 72.9115 123.703 72.9531C124.307 72.9844 124.807 73.0417 125.203 73.125V76.9844C124.786 76.8906 124.339 76.8177 123.859 76.7656C123.391 76.7031 122.922 76.6719 122.453 76.6719C120.557 76.6719 119.089 76.974 118.047 77.5781C117.016 78.1823 116.286 79.0208 115.859 80.0938C115.443 81.1562 115.198 82.3958 115.125 83.8125H115.328C115.62 83.3021 115.984 82.849 116.422 82.4531C116.87 82.0573 117.411 81.7448 118.047 81.5156C118.682 81.276 119.427 81.1562 120.281 81.1562C121.615 81.1562 122.771 81.4427 123.75 82.0156C124.729 82.5781 125.484 83.3958 126.016 84.4688C126.547 85.5417 126.812 86.849 126.812 88.3906C126.812 90.0365 126.495 91.4531 125.859 92.6406C125.224 93.8281 124.323 94.7396 123.156 95.375C122 96 120.625 96.3125 119.031 96.3125C117.865 96.3125 116.776 96.1146 115.766 95.7188C114.755 95.3125 113.87 94.6979 113.109 93.875C112.349 93.0521 111.755 92.0156 111.328 90.7656C110.901 89.5052 110.688 88.0156 110.688 86.2969ZM118.938 92.4531C119.885 92.4531 120.656 92.1302 121.25 91.4844C121.844 90.8385 122.141 89.8281 122.141 88.4531C122.141 87.3385 121.88 86.4635 121.359 85.8281C120.849 85.1823 120.073 84.8594 119.031 84.8594C118.323 84.8594 117.698 85.0208 117.156 85.3438C116.625 85.6562 116.214 86.0573 115.922 86.5469C115.63 87.026 115.484 87.5208 115.484 88.0312C115.484 88.5625 115.557 89.0885 115.703 89.6094C115.849 90.1302 116.068 90.6042 116.359 91.0312C116.651 91.4583 117.01 91.8021 117.438 92.0625C117.875 92.3229 118.375 92.4531 118.938 92.4531Z" fill="white"/>
</g>
<path d="M625.676 299.854C624.075 301.944 620.925 301.944 619.324 299.854L599.28 273.682C597.265 271.05 599.141 267.25 602.456 267.25H642.544C645.859 267.25 647.735 271.05 645.72 273.682L625.676 299.854Z" fill="#7B6EB9"/>
<path d="M712.863 78.6775C712.509 84.711 715.088 90.5779 718.312 95.8542C719.741 98.1938 721.318 100.488 722.24 103.031C723.161 105.575 723.365 108.463 722.061 110.863C724.101 111.852 726.667 111.875 728.727 110.922C728.372 112.132 727.507 113.21 726.351 113.885C728.509 115.034 731.232 114.683 733.634 114.057C744.202 111.307 753.09 103.663 756.729 94.1949C756.988 93.5221 757.268 92.7853 757.933 92.4124C758.485 92.1035 759.173 92.1196 759.819 92.107C764.827 92.0094 769.738 89.4014 772.125 85.3801C774.512 81.3589 774.176 76.0654 771.13 72.4338C772.952 72.9102 775.014 72.5376 776.5 71.4637C770.886 68.2204 765.754 64.3083 760.061 61.1819C754.368 58.0554 747.891 55.6991 741.257 56.0312C737.708 56.209 734.156 57.2775 731.239 59.1439C729.18 60.4613 727.516 62.6449 726.126 64.5265C718.092 64.8134 713.258 71.93 712.863 78.6775Z" fill="#F9BC9A" stroke="black" stroke-width="0.4" stroke-miterlimit="10"/>
<path d="M785.524 173.799C786.003 174.758 786.442 175.739 786.852 176.727C787.329 177.877 787.828 179.019 788.222 180.201C788.601 181.337 789.016 182.517 789.058 183.725C789.083 184.425 788.995 185.537 788.295 185.913C788.184 185.971 787.94 185.966 787.874 186.083C787.798 186.219 787.939 186.703 787.895 186.91C787.777 187.469 787.353 187.98 786.789 188.125C786.864 188.487 786.881 188.904 786.641 189.184C786.391 189.474 785.938 189.51 785.581 189.372C785.211 189.229 784.949 188.822 784.553 188.767C784.044 188.696 783.692 189.013 783.181 188.669C782.765 188.39 782.515 187.929 782.28 187.487C780.671 184.457 778.864 181.47 776.653 178.825C775.11 176.98 773.239 175.201 772.619 172.834C772.077 170.764 772.177 166.656 772.177 166.656L778.018 163.547C778.018 163.547 780.632 167.633 781.76 168.606C783.4 170.019 784.563 171.88 785.524 173.799Z" fill="#FFDBCA" stroke="black" stroke-width="0.4" stroke-miterlimit="10"/>
<path d="M780.869 181.928C781.469 181.568 782.05 181.175 782.608 180.753" stroke="#333333" stroke-width="0.4" stroke-linecap="round" stroke-linejoin="round"/>
<path d="M781.545 181.631C783.05 183.777 784.235 186.146 785.048 188.638" stroke="#333333" stroke-width="0.4" stroke-linecap="round" stroke-linejoin="round"/>
<path d="M783.803 181.84C784.99 183.731 785.955 185.762 786.671 187.877" stroke="#333333" stroke-width="0.4" stroke-linecap="round" stroke-linejoin="round"/>
<path d="M785.492 181.178C786.352 182.682 787.091 184.255 787.699 185.878" stroke="#333333" stroke-width="0.4" stroke-linecap="round" stroke-linejoin="round"/>
<path d="M784.038 173.347C784.287 174.362 784.422 175.414 784.532 176.428C784.692 177.898 785.418 179.253 785.511 180.725C785.545 181.268 785.386 181.929 784.868 182.093C784.561 182.19 784.229 182.073 783.945 181.921C782.525 181.156 781.885 179.671 781.373 178.229C781.015 177.22 780.625 176.51 779.854 175.75C778.582 174.495 777.546 173.344 777.354 171.484" stroke="#333333" stroke-width="0.4" stroke-linecap="round" stroke-linejoin="round"/>
<path d="M765.905 127.218C766.421 127.637 766.897 128.097 767.311 128.608C771.16 133.355 771.353 140.663 772.314 146.42C772.379 146.81 772.452 147.218 772.703 147.523C772.934 147.804 773.291 147.964 773.505 148.258C773.919 148.826 773.65 149.624 773.78 150.314C773.866 150.769 774.127 151.169 774.381 151.555C776.025 154.048 777.787 156.462 779.417 158.965C780.229 160.213 781.013 161.482 781.726 162.789C781.849 163.015 783.388 165.926 783.326 165.988C780.443 168.854 776.888 171.041 773.03 172.322C772.792 172.401 772.538 172.477 772.294 172.418C772.029 172.352 771.829 172.139 771.652 171.93C770.714 170.827 769.949 169.589 769.193 168.354C767.172 165.057 765.181 161.741 763.22 158.408C762.297 156.84 761.377 155.26 760.712 153.567C760.008 151.773 759.6 149.878 759.25 147.983C758.739 145.217 758.369 142.435 758.069 139.638C757.833 137.436 757.089 135.27 756.794 133.028C756.319 129.425 756.233 125.878 756.474 122.246C758.357 123.298 760.382 124.068 762.317 125.022C763.547 125.628 764.814 126.331 765.905 127.218Z" fill="white" stroke="black" stroke-width="0.4" stroke-miterlimit="10"/>
<path d="M771.79 147.542C770.3 149.633 766.882 149.954 765.029 148.177" stroke="black" stroke-width="0.4" stroke-linecap="round" stroke-linejoin="round"/>
<path d="M769.395 168.253C770.458 168.411 771.499 167.912 772.441 167.394C775.452 165.735 778.267 163.722 780.81 161.409" stroke="black" stroke-width="0.4" stroke-linecap="round" stroke-linejoin="round"/>
<path d="M721.437 240.122C721.516 239.828 722.393 237.635 723.103 235.883L715.723 234.044C714.925 236.273 713.681 238.23 712.674 240.346C711.659 242.477 710.884 244.781 710.121 247.037C709.975 247.467 709.83 247.896 709.684 248.321C709.478 248.922 709.272 249.553 709.379 250.179C709.38 250.185 709.382 250.191 709.383 250.196C710.914 247.775 714.207 246.638 717.072 247.228C718.92 247.609 720.573 248.568 721.978 249.84C721.971 249.283 721.926 248.715 721.858 248.149C721.526 245.359 720.708 242.819 721.437 240.122Z" fill="#EFDCCE" stroke="black" stroke-width="0.4" stroke-miterlimit="10"/>
<path d="M709.383 250.196C709.668 251.783 712.088 253.642 713.363 254.448C715.239 255.635 717.311 255.753 719.332 254.828C721.473 253.848 722.004 251.924 721.977 249.84C720.573 248.568 718.92 247.609 717.072 247.228C714.207 246.637 710.914 247.775 709.383 250.196Z" fill="#AA61B7" stroke="black" stroke-width="0.4" stroke-miterlimit="10"/>
<path d="M774.146 249.532C773.511 248.859 771.378 247.886 769.253 246.904C767.251 248.449 766.008 251.175 766.075 253.783C766.188 253.798 766.3 253.816 766.413 253.829C768.782 254.102 772.02 254.058 774.156 252.846C775.503 252.082 775.077 250.519 774.146 249.532Z" fill="#AA61B7" stroke="black" stroke-width="0.4" stroke-miterlimit="10"/>
<path d="M751.595 246.594C751.434 248.429 751.285 249.905 751.302 250.173C751.45 252.492 755.55 252.311 757.572 252.382C756.705 250.927 756.213 249.156 755.013 247.944C754.122 247.044 752.858 246.594 751.595 246.594Z" fill="#AA61B7" stroke="black" stroke-width="0.4" stroke-miterlimit="10"/>
<path d="M769.254 246.905C767.528 246.107 765.807 245.303 764.897 244.649C763.321 243.515 761.834 242.594 761.06 240.705C760.564 239.495 760.369 238.193 760.263 236.883L751.859 238.561C751.869 238.635 751.88 238.706 751.89 238.781C752.104 240.302 751.835 243.85 751.594 246.594C752.857 246.594 754.121 247.044 755.012 247.944C756.212 249.156 756.704 250.927 757.571 252.382C757.776 252.389 757.967 252.398 758.123 252.413C760.806 252.677 763.407 253.439 766.077 253.784C766.01 251.176 767.253 248.45 769.254 246.905Z" fill="#EFDCCE" stroke="black" stroke-width="0.4" stroke-miterlimit="10"/>
<path d="M765.597 160.319C765.176 158.469 764.698 156.373 764.19 153.982L763.585 151.133L731.831 150.098L730.98 152.784C730.31 154.904 729.576 156.652 728.799 158.502C727.795 160.893 726.757 163.365 725.935 166.538C725.48 168.294 725.098 169.599 724.76 170.751C723.674 174.46 723.19 176.34 723.108 182.05C723.056 185.703 722.889 198.732 722.844 202.266C721.91 204.057 719.781 208.19 719.047 210.034C715.765 218.277 713.896 226.668 712.005 235.307C711.937 235.619 711.868 235.935 711.891 236.254C711.926 236.724 712.158 237.156 712.42 237.548C714.802 241.108 719.784 242.126 723.944 241.107C724.35 241.008 724.771 240.881 725.064 240.585C725.266 240.381 725.389 240.114 725.509 239.854C727.696 235.073 730.003 230.286 731.96 225.393C732.768 223.539 733.604 221.621 734.469 219.763C735.623 217.284 736.725 215.177 737.792 213.139C740.408 208.138 742.666 203.82 744.235 196.843C744.45 195.89 744.933 193.889 745.513 191.549C745.702 193.153 745.897 194.845 746.105 196.688C746.674 201.705 746.598 206.772 745.879 211.748C744.578 220.755 746.969 230.934 748.946 239.74C749.067 240.28 749.202 240.842 749.555 241.269C749.872 241.653 750.332 241.886 750.789 242.083C754.53 243.695 759.006 243.49 762.583 241.542C762.973 241.33 763.371 241.079 763.575 240.685C763.742 240.361 763.755 239.982 763.765 239.618C763.937 233.298 764.397 226.964 764.397 220.623C764.431 219.288 764.469 218.828 764.487 218.68C764.707 217.938 764.836 217.196 764.967 215.043C765.288 209.817 765.896 205.314 766.483 200.959C767.179 195.803 767.898 190.471 768.123 184.053C768.507 173.109 767.412 168.294 765.597 160.319Z" fill="#AA61B7" stroke="black" stroke-width="0.4" stroke-miterlimit="10"/>
<path d="M746.057 191.109C749.236 190.361 752.416 189.614 755.596 188.867" stroke="black" stroke-width="0.4" stroke-linecap="round" stroke-linejoin="round"/>
<path d="M747.779 190.416C748.769 185.899 749.047 181.227 748.601 176.624" stroke="black" stroke-width="0.4" stroke-linecap="round" stroke-linejoin="round"/>
<path d="M751.398 189.724C752.745 185.267 753.113 180.517 752.471 175.905" stroke="black" stroke-width="0.4" stroke-linecap="round" stroke-linejoin="round"/>
<path d="M747.42 192.158C749.882 192.8 752.344 193.443 754.807 194.085" stroke="black" stroke-width="0.4" stroke-linecap="round" stroke-linejoin="round"/>
<path d="M723.84 203.537C725.001 205.684 726.447 207.677 728.128 209.447" stroke="black" stroke-width="0.4" stroke-linecap="round" stroke-linejoin="round"/>
<path d="M748.555 206.541C749.579 208.392 750.603 210.244 751.627 212.095" stroke="black" stroke-width="0.4" stroke-linecap="round" stroke-linejoin="round"/>
<path d="M751.48 127.451C757.933 127.879 756.055 122.081 756.055 122.081C753.735 120.827 751.52 119.155 750.539 116.498C748.853 111.929 750.966 108.486 750.966 108.486L737.701 101.663C737.701 101.663 739.772 114.647 737.734 118.532C737.734 118.532 745.027 127.023 751.48 127.451Z" fill="#FFDBCA" stroke="black" stroke-width="0.4" stroke-miterlimit="10"/>
<path d="M766.552 145.235C765.82 133.535 764.015 125.991 760.771 124.377C759.414 123.702 757.691 123.015 756.022 122.113C756.022 122.113 757.9 127.911 751.447 127.483C744.995 127.055 737.701 118.564 737.701 118.564C737.121 119.671 735.842 120.433 734.283 120.996C732.556 121.62 730.487 122 728.636 122.331C726.292 122.751 724.3 123.094 723.81 123.759C718.269 131.275 727.991 141.704 725.471 149.603C725.054 150.91 724.363 152.138 724.157 153.494C723.95 154.85 724.404 156.458 725.66 157.011C724.567 157.491 724.037 158.954 724.569 160.023C724.806 160.501 725.216 160.891 725.373 161.401C725.6 162.134 725.257 162.905 724.998 163.627C723.424 168.019 724.894 172.863 726.464 177.258C728 181.558 729.635 185.823 731.366 190.048C737.934 188.363 744.224 185.597 749.904 181.895C750.382 181.584 750.916 181.251 751.48 181.338C751.927 181.406 752.289 181.725 752.622 182.031C756.64 185.708 760.657 189.386 764.675 193.064C768.458 177.272 767.554 161.257 766.552 145.235Z" fill="white"/>
<path d="M761.372 124.467C760.015 123.792 757.691 123.015 756.022 122.113C756.022 122.113 757.9 127.911 751.447 127.483C744.995 127.055 737.701 118.564 737.701 118.564C737.121 119.671 735.842 120.433 734.283 120.996C732.556 121.62 730.487 122 728.636 122.331C726.292 122.751 724.3 123.094 723.81 123.759C718.269 131.275 727.991 141.704 725.471 149.603C725.054 150.91 724.363 152.138 724.157 153.494C723.95 154.85 724.404 156.458 725.66 157.011C724.567 157.491 724.037 158.954 724.569 160.023C724.806 160.501 725.216 160.891 725.373 161.401C725.6 162.134 725.257 162.905 724.998 163.627C723.424 168.019 724.894 172.863 726.464 177.258C728 181.558 729.635 185.823 731.366 190.048C737.934 188.363 744.224 185.597 749.904 181.895C750.382 181.584 750.916 181.251 751.48 181.338C751.927 181.406 752.289 181.725 752.622 182.031C756.64 185.708 760.657 189.386 764.675 193.064C768.458 177.272 767.554 161.257 766.552 145.235C766.449 143.598 766.326 142.042 766.18 140.573" stroke="black" stroke-width="0.4" stroke-miterlimit="10"/>
<g style="mix-blend-mode:multiply" opacity="0.7">
<path d="M748.71 117.018C749.469 117.055 750.099 116.933 750.625 116.695C750.598 116.628 750.564 116.566 750.539 116.498C748.853 111.929 750.966 108.486 750.966 108.486L737.701 101.663C737.701 101.663 738.201 104.803 738.468 108.455C740.099 111.064 744.184 116.797 748.71 117.018Z" fill="#FFB27C"/>
</g>
<path d="M734.88 67.5355C730.73 70.5936 728.024 75.0283 726.865 80.2173C726.805 80.4896 726.748 80.7629 726.695 81.0369C725.372 87.8893 726.528 95.1725 729.799 101.327C731.069 103.716 732.22 105.914 734.302 107.702C738.869 111.623 741.556 113.643 747.416 115.019C751.109 115.886 756.362 115.688 759.891 113.683C762.37 112.275 764.403 110.09 765.84 107.627C767.9 104.092 767.251 100.643 766.769 96.825C766.08 91.3655 767.948 85.8386 767.372 80.3661C766.824 75.163 763.957 70.2475 759.698 67.2091C758.429 66.3043 757.028 65.5938 755.571 65.0472C749.975 62.9475 743.166 63.0061 737.79 65.743C736.752 66.2713 735.782 66.8709 734.88 67.5355Z" fill="#FFDBCA"/>
<path d="M734.88 67.5355C730.73 70.5936 728.024 75.0283 726.865 80.2173C726.805 80.4896 726.748 80.7629 726.695 81.0369C725.372 87.8893 726.528 95.1725 729.799 101.327C731.069 103.716 732.22 105.914 734.302 107.702C738.869 111.623 741.556 113.643 747.416 115.019C751.109 115.886 756.362 115.688 759.891 113.683C762.37 112.275 764.403 110.09 765.84 107.627C767.9 104.092 767.251 100.643 766.769 96.825C766.08 91.3655 767.948 85.8386 767.372 80.3661C766.824 75.163 763.957 70.2475 759.698 67.2091C758.429 66.3043 757.028 65.5938 755.571 65.0472C749.975 62.9475 743.166 63.0061 737.79 65.743C736.752 66.2713 735.782 66.8709 734.88 67.5355Z" stroke="black" stroke-width="0.4" stroke-miterlimit="10"/>
<path d="M756.465 92.2383C755.738 94.3169 756.428 96.8124 758.119 98.2229C758.557 98.5882 759.071 98.9064 759.322 99.4184C759.593 99.9712 759.491 100.652 759.192 101.19C758.893 101.728 758.421 102.148 757.937 102.529" stroke="black" stroke-width="0.4" stroke-linecap="round" stroke-linejoin="round"/>
<path d="M751.879 107.732C753.121 108.381 754.633 108.493 755.957 108.035" stroke="black" stroke-width="0.4" stroke-linecap="round" stroke-linejoin="round"/>
<path d="M749.74 104.863C752.531 106.721 755.468 106.595 757.967 105.851" stroke="black" stroke-width="0.4" stroke-linecap="round" stroke-linejoin="round"/>
<path d="M734.693 91.7251C736.751 88.5973 738.279 85.1225 739.194 81.4923C739.502 83.4742 739.055 85.5638 737.964 87.2464C742.831 84.6166 746.088 79.2393 746.163 73.7075C748.712 76.7651 752.425 78.8272 756.368 79.3747C755.098 78.2957 754.128 76.8669 753.594 75.288C757.334 78.769 762.69 80.4355 767.745 79.6904C768.148 79.6309 768.585 79.5368 768.842 79.2202C769.164 78.8238 769.078 78.2457 768.958 77.7494C766.851 69.013 759.112 61.9187 750.225 60.5779C741.339 59.2371 731.851 63.7322 727.26 71.458C724.287 76.4602 723.485 82.6272 724.761 88.2767C725.212 90.274 726.162 94.6191 728.207 95.6124C730.757 96.8511 733.484 93.5636 734.693 91.7251Z" fill="#F9BC9A"/>
<path d="M728.209 95.612C730.759 96.8507 733.486 93.5631 734.695 91.7247C736.753 88.5969 738.281 85.1221 739.196 81.4919C739.504 83.4738 739.057 85.5633 737.966 87.246C742.833 84.6162 746.09 79.2389 746.166 73.707C748.714 76.7647 752.428 78.8268 756.371 79.3743C755.1 78.2953 754.13 76.8664 753.596 75.2876C757.336 78.7686 762.692 80.4351 767.747 79.69" stroke="black" stroke-width="0.4" stroke-miterlimit="10"/>
<path d="M730.424 94.9072C732.547 97.8528 733.206 100.867 731.117 102.373C729.027 103.878 724.98 103.305 722.857 100.36C720.735 97.4142 720.708 93.8058 722.798 92.3002C724.887 90.7946 728.302 91.9619 730.424 94.9072Z" fill="#FFDBCA"/>
<path d="M731.117 102.373C729.027 103.878 724.98 103.305 722.857 100.36C720.735 97.4142 720.708 93.8058 722.798 92.3002C724.887 90.7946 728.302 91.9619 730.424 94.9072" stroke="black" stroke-width="0.4" stroke-miterlimit="10"/>
<path d="M721.494 94.1364C721.494 94.1364 725.766 93.6319 730.678 99.9788" stroke="black" stroke-width="0.4" stroke-linecap="round" stroke-linejoin="round"/>
<path d="M727.561 64.626C728.901 65.7971 730.159 67.0636 731.32 68.4127" stroke="black" stroke-width="0.4" stroke-linecap="round" stroke-linejoin="round"/>
<path d="M730.338 63.4251C731.091 62.1342 732.371 61.1613 733.816 60.7812" stroke="black" stroke-width="0.4" stroke-linecap="round" stroke-linejoin="round"/>
<path d="M731.375 65.1897C732.659 63.9402 734.398 63.1684 736.186 63.0537" stroke="black" stroke-width="0.4" stroke-linecap="round" stroke-linejoin="round"/>
<path d="M726.041 67.4113C725.056 67.2512 724.01 67.5047 723.207 68.0983" stroke="black" stroke-width="0.4" stroke-linecap="round" stroke-linejoin="round"/>
<path d="M767.46 166.141C767.44 159.175 767.022 152.19 766.585 145.203C766.483 143.577 766.361 142.03 766.217 140.569" stroke="#333333" stroke-width="0.4" stroke-linecap="round" stroke-linejoin="round"/>
<path d="M752.299 127.53C752.629 129.832 752.663 132.175 752.401 134.485" stroke="black" stroke-width="0.4" stroke-linecap="round" stroke-linejoin="round"/>
<path d="M701.663 176.41C701.201 177.971 700.74 179.531 700.278 181.092C700.132 181.582 699.986 182.083 700.001 182.594C700.017 183.105 700.222 183.638 700.647 183.922C700.556 184.481 700.465 185.05 700.547 185.61C700.629 186.171 700.912 186.731 701.406 187.007C701.511 187.066 701.628 187.114 701.702 187.209C701.766 187.289 701.79 187.394 701.834 187.487C701.993 187.824 702.407 187.98 702.778 187.943C703.149 187.906 703.485 187.714 703.799 187.515C703.975 187.77 704.348 187.808 704.643 187.712C705.044 187.581 705.359 187.258 705.568 186.892C705.778 186.526 705.894 186.116 706.008 185.71C706.232 184.921 706.456 184.132 706.682 183.343C706.859 182.728 707.038 182.109 707.311 181.53C707.839 180.411 708.694 179.493 709.61 178.677C710.038 178.295 710.501 177.95 710.892 177.536C711.128 177.288 711.446 176.938 711.844 177.058C712.302 177.196 712.399 177.801 712.354 178.277C712.17 180.206 711.073 181.967 710.941 183.901C710.921 184.2 710.942 184.542 711.172 184.735C711.566 185.066 712.144 184.687 712.51 184.325C713.81 183.035 715.136 181.711 715.922 180.056C717.269 177.219 717.721 173.827 718.085 170.739C718.286 169.035 718.369 167.373 718.685 165.738L711.426 162.734C710.039 165.187 707.912 167.005 706.074 169.112C705.072 170.259 704.064 171.417 703.313 172.742C702.641 173.927 702.054 175.091 701.663 176.41Z" fill="#FFDBCA" stroke="black" stroke-width="0.4" stroke-miterlimit="10"/>
<path d="M703.826 187.314C703.998 184.808 704.513 182.325 705.353 179.957" stroke="#333333" stroke-width="0.4" stroke-linecap="round" stroke-linejoin="round"/>
<path d="M701.736 186.93C702.108 184.172 702.823 181.461 703.859 178.878" stroke="#333333" stroke-width="0.4" stroke-linecap="round" stroke-linejoin="round"/>
<path d="M700.865 183.652C701.281 181.536 701.876 179.455 702.641 177.438" stroke="#333333" stroke-width="0.4" stroke-linecap="round" stroke-linejoin="round"/>
<path d="M735.284 121.128C733.869 121.365 732.451 121.589 731.042 121.858C729.633 122.127 728.195 122.189 726.783 122.435C725.169 122.717 723.525 123.282 722.413 124.485C721.915 125.023 721.604 125.708 721.115 126.244C720.641 126.762 720.132 127.25 719.68 127.797C718.75 128.926 717.911 130.129 717.138 131.37C713.919 136.535 711.441 142.158 709.768 148.008C708.003 154.18 707.466 160.353 706.888 166.722C706.863 167.001 706.839 167.29 706.932 167.554C707.025 167.819 707.226 168.03 707.429 168.225C710.363 171.062 714.725 172.34 718.726 171.537C718.971 171.488 719.228 171.424 719.406 171.249C720 170.665 719.871 168.964 719.971 168.197C720.162 166.731 720.353 165.265 720.545 163.8C720.927 160.868 721.309 157.937 721.692 155.005C721.733 154.69 721.78 154.359 721.972 154.106C722.2 153.807 722.588 153.674 722.849 153.404C723.423 152.811 723.201 151.851 723.247 151.027C723.409 148.176 726.98 146.163 728.954 144.589C735.732 139.183 738.423 129.209 735.284 121.128Z" fill="white"/>
<path d="M733.152 121.359C731.743 121.628 728.195 122.189 726.783 122.435C725.169 122.717 723.525 123.282 722.413 124.485C721.915 125.022 721.604 125.708 721.115 126.244C720.641 126.762 720.132 127.249 719.68 127.797C718.75 128.926 717.911 130.129 717.138 131.37C713.919 136.535 711.441 142.157 709.768 148.008C708.003 154.18 707.466 160.353 706.888 166.722C706.863 167 706.839 167.289 706.932 167.553C707.025 167.818 707.226 168.03 707.429 168.225C710.363 171.061 714.725 172.34 718.726 171.536C718.971 171.487 719.228 171.424 719.406 171.248C720 170.665 719.871 168.963 719.971 168.196C720.162 166.731 720.353 165.265 720.545 163.799C720.927 160.868 721.309 157.936 721.692 155.005C721.733 154.69 721.78 154.359 721.972 154.106C722.2 153.807 722.588 153.674 722.849 153.403C723.423 152.81 723.201 151.851 723.247 151.027C723.339 149.412 724.524 148.066 725.894 146.916" stroke="black" stroke-width="0.4" stroke-miterlimit="10"/>
<path d="M722.46 149.727C721.983 150.025 721.356 149.835 720.857 149.576C719.696 148.973 718.718 148.024 718.08 146.882" stroke="black" stroke-width="0.4" stroke-linecap="round" stroke-linejoin="round"/>
<path d="M707.311 163.086C708.636 164.945 710.716 166.19 712.928 166.755C715.141 167.32 717.48 167.242 719.723 166.816" stroke="black" stroke-width="0.4" stroke-linecap="round" stroke-linejoin="round"/>
<path d="M725.947 146.883C726.891 145.573 728.105 144.458 729.49 143.629" stroke="black" stroke-width="0.4" stroke-linecap="round" stroke-linejoin="round"/>
<path d="M726.545 123.679C728.821 124.911 730.754 126.769 732.076 128.994" stroke="black" stroke-width="0.4" stroke-linecap="round" stroke-linejoin="round"/>
<path d="M764.143 86.1669C763.155 85.8643 762.102 85.8333 761.099 86.0796C761.018 86.0991 760.969 86.1804 760.989 86.2607C761.005 86.3263 761.062 86.371 761.126 86.3743C761.141 86.3751 761.155 86.3738 761.17 86.3702C762.121 86.1371 763.119 86.1656 764.055 86.4534C764.132 86.4758 764.218 86.4328 764.242 86.3541C764.266 86.2749 764.222 86.1912 764.143 86.1669Z" fill="black"/>
<path d="M747.525 85.9602C747.519 85.878 747.448 85.8144 747.365 85.8219C746.45 85.8886 745.568 86.2012 744.816 86.7265C744.748 86.7739 744.732 86.867 744.779 86.9348C744.806 86.9742 744.85 86.9964 744.894 86.9987C744.926 87.0004 744.959 86.9919 744.987 86.972C745.695 86.4777 746.525 86.1833 747.387 86.1204C747.469 86.1144 747.531 86.0427 747.525 85.9602Z" fill="black"/>
<path d="M762.126 92.6594C761.82 92.8155 761.628 93.1369 761.527 93.4663C761.41 93.851 761.4 94.2778 761.558 94.6475C761.716 95.0172 762.058 95.3176 762.457 95.3697C762.855 95.422 763.289 95.1899 763.419 94.8093C763.591 94.3044 763.774 93.7115 763.529 93.2085C763.285 92.7057 762.625 92.4055 762.126 92.6594Z" fill="black"/>
<path d="M747.574 92.3673C747.267 92.5237 747.075 92.8449 746.975 93.1744C746.858 93.5589 746.847 93.986 747.006 94.3555C747.163 94.7251 747.505 95.0255 747.904 95.0778C748.303 95.13 748.737 94.8981 748.866 94.5174C749.038 94.0124 749.221 93.4195 748.976 92.9166C748.732 92.4136 748.072 92.1136 747.574 92.3673Z" fill="black"/>
<path d="M747.456 102.229C746.699 104.869 743.945 106.396 741.305 105.638C738.665 104.881 737.138 102.127 737.895 99.4873C738.652 96.8473 741.406 95.3207 744.046 96.0777C746.686 96.8347 748.213 99.5886 747.456 102.229Z" fill="#F9A478"/>
<path d="M762.819 99.4877C762.062 102.128 763.588 104.882 766.229 105.639C766.341 105.671 766.453 105.676 766.566 105.7C767.521 102.822 767.017 99.9476 766.623 96.8252C766.589 96.5575 766.566 96.2895 766.544 96.0215C764.817 96.4003 763.341 97.6684 762.819 99.4877Z" fill="#F9A478"/>
<path d="M1003.67 236.011C1003.67 236.011 999.797 243.842 998.021 248.121C996.891 250.056 995.599 251.672 998.587 253.852C1001.82 254.419 1009.98 254.435 1016.67 253.852C1019.1 251.672 1017.88 250.22 1017.07 248.607C1015.62 243.438 1015.54 236.011 1015.54 236.011H1003.67Z" fill="#EFDCCE" stroke="black" stroke-width="0.4" stroke-miterlimit="10"/>
<path d="M1010.28 249.551C1005.57 248.387 1001.13 252.298 996.758 251.302C996.819 252.096 997.309 252.922 998.586 253.852C1001.81 254.42 1009.98 254.435 1016.67 253.852C1017.54 253.069 1017.94 252.378 1018.06 251.743C1015.51 251.496 1012.86 250.19 1010.28 249.551Z" fill="#BACC6E" stroke="black" stroke-width="0.4" stroke-miterlimit="10"/>
<path d="M1011.52 239.6C1009.46 238.474 1006.19 238.769 1004.48 240.373C1004.39 240.456 1004.49 240.576 1004.59 240.561C1006.56 240.285 1009.09 239.537 1011 240.494C1011.59 240.79 1012.11 239.922 1011.52 239.6Z" fill="#C97739" stroke="black" stroke-width="0.4" stroke-miterlimit="10"/>
<path d="M1009.88 241.719C1007.82 241.472 1005.68 241.45 1003.91 242.651C1003.81 242.725 1003.8 242.923 1003.95 242.95C1005.13 243.172 1006.4 242.688 1007.63 242.702C1008.52 242.71 1009.42 242.814 1010.3 242.949C1010.84 243.031 1011.21 243.44 1011.72 243.584C1011.98 243.66 1012.22 243.454 1012.23 243.198C1012.28 242.081 1010.72 241.822 1009.88 241.719Z" fill="#C97739" stroke="black" stroke-width="0.4" stroke-miterlimit="10"/>
<path d="M1012.52 245.655C1011.39 244.67 1008.86 244.937 1007.47 244.891C1006.08 244.844 1003.82 244.772 1002.78 245.861C1002.72 245.925 1002.75 246.025 1002.83 246.051C1004.03 246.408 1005.48 245.878 1006.74 245.866C1008.59 245.846 1010.4 246.365 1012.23 246.347C1012.56 246.34 1012.79 245.896 1012.52 245.655Z" fill="#C97739" stroke="black" stroke-width="0.4" stroke-miterlimit="10"/>
<path d="M1030.84 233.576C1029.48 245.114 1026.44 246.582 1030.39 253.285C1033.48 254.876 1040.07 254.099 1043.5 254.052C1051.86 253.93 1057.26 254.671 1059.36 252.167C1060.41 250.955 1061.96 247.453 1059.82 246.997C1055.7 246.114 1054.67 246.642 1051.57 244.64C1047.01 241.685 1040.83 236.057 1040.83 236.057C1040.83 236.057 1036.95 237.37 1035.29 236.961C1033.78 236.594 1031.01 232.165 1030.84 233.576Z" fill="#EFDCCE" stroke="black" stroke-width="0.4" stroke-miterlimit="10"/>
<path d="M1050.56 251.814C1043.22 251.854 1036 250.031 1028.7 249.42C1028.98 250.561 1029.51 251.796 1030.4 253.285C1033.49 254.877 1040.07 254.1 1043.51 254.052C1051.86 253.93 1057.26 254.671 1059.36 252.167C1059.98 251.452 1060.77 249.947 1060.88 248.734C1058.54 251.371 1053.7 251.798 1050.56 251.814Z" fill="#BACC6E" stroke="black" stroke-width="0.4" stroke-miterlimit="10"/>
<path d="M1046.25 239.079C1045 239.077 1043.9 239.227 1042.77 239.814C1041.83 240.306 1040.58 241.099 1040.49 242.295C1040.49 242.385 1040.59 242.467 1040.68 242.439C1041.61 242.107 1042.25 241.219 1043.19 240.825C1044.2 240.4 1045.16 240.215 1046.25 240.21C1046.96 240.207 1046.96 239.085 1046.25 239.079Z" fill="#C97739" stroke="black" stroke-width="0.4" stroke-miterlimit="10"/>
<path d="M1049.76 241.93C1048.15 241.519 1046.58 241.993 1045.21 242.927C1045.03 243.054 1043.34 244.59 1043.82 244.865C1044.31 245.152 1044.96 244.381 1045.29 244.101C1046.46 243.108 1048 242.589 1049.5 242.888C1050.1 243.008 1050.37 242.088 1049.76 241.93Z" fill="#C97739" stroke="black" stroke-width="0.4" stroke-miterlimit="10"/>
<path d="M1052.89 244.531C1051.85 244.473 1050.81 244.628 1049.85 245.045C1048.82 245.491 1048.14 246.078 1047.39 246.868C1047.31 246.951 1047.41 247.062 1047.5 247.017C1048.28 246.683 1049.07 246.312 1049.87 246.03C1050.86 245.685 1051.87 245.655 1052.89 245.578C1053.55 245.528 1053.55 244.568 1052.89 244.531Z" fill="#C97739" stroke="black" stroke-width="0.4" stroke-miterlimit="10"/>
<path d="M1043.81 153.652L1043.88 153.648C1043.88 153.648 1043.97 135.527 1041.9 127.635C1041.9 127.635 1006.34 126.949 1004.84 128.835C1003.34 130.728 1002.6 155.887 1002.6 155.887L1002.66 155.883C1001.66 161.166 1001.84 182.437 1001.73 184.488C1001.7 185.012 1001.73 185.498 1001.79 185.963L1002.22 239.096C1002.22 239.096 1015.95 242.365 1016.74 238.176C1018.8 227.256 1018.84 193.967 1018.83 187.867C1018.96 187.517 1019.05 187.151 1019.07 186.764C1019.4 181.13 1021.29 162.054 1021.88 154.841L1022.4 154.813C1021.9 159.738 1025.71 184.483 1026 186.566C1026.04 186.848 1026.1 187.117 1026.17 187.376L1028.81 237.959C1028.81 237.959 1040.12 239.712 1042.94 236.502C1045.09 219.004 1044.75 188.562 1044.68 183.821C1045.47 175.751 1044.4 160.863 1043.81 153.652Z" fill="#7B6EB9" stroke="black" stroke-width="0.4" stroke-miterlimit="10"/>
<path d="M987.167 99.2543C989.139 85.9515 997.762 65.9937 1007.12 63.0398C1017.08 59.8961 1037.75 63.2158 1042.51 69.5002C1048.23 77.078 1049.69 109.74 1047.74 119.573C1045.79 129.412 1020.92 131.006 1004.87 128.199C995.018 126.474 985.035 113.647 987.167 99.2543Z" fill="#BB2A3C" stroke="black" stroke-width="0.4" stroke-linecap="round" stroke-linejoin="round"/>
<path d="M1018.85 57.9814L1018.67 68.7611L1030.49 68.8834L1029.7 58.5989L1018.85 57.9814Z" fill="#FFDBCA" stroke="black" stroke-width="0.4" stroke-miterlimit="10"/>
<g style="mix-blend-mode:multiply" opacity="0.7">
<path d="M1030.03 62.8513L1029.7 58.5989L1018.85 57.9814L1018.78 62.7092C1022.37 63.7204 1026.3 63.5085 1030.03 62.8513Z" fill="#FFDBCA"/>
</g>
<path d="M996.857 33.0423C999.01 31.2013 1001.66 32.4969 1003.18 34.3873C1005.69 35.8478 1007.95 39.0911 1006.57 41.5557C1004.91 44.5115 1000.19 43.0729 998.071 41.4687C995.513 39.5246 994.04 35.4493 996.857 33.0423Z" fill="#FFDBCA" stroke="black" stroke-width="0.4" stroke-miterlimit="10"/>
<path d="M1048.19 31.9269C1046.25 30.0632 1043.99 31.3165 1042.73 33.1754C1040.6 34.5926 1038.75 37.7896 1040.04 40.2586C1041.58 43.2271 1045.64 41.8627 1047.43 40.2962C1049.59 38.3987 1050.73 34.3614 1048.19 31.9269Z" fill="#FFDBCA" stroke="black" stroke-width="0.4" stroke-miterlimit="10"/>
<path d="M1042.03 15.7354C1042.54 18.1524 1043.59 28.3914 1044.15 37.7933C1044.58 44.9966 1043.66 53.1652 1038.48 57.2786C1030.69 63.4624 1017.08 61.5978 1011.7 56.8018C1003.41 49.4036 1001.14 39.4953 1002.99 19.4489C1004.17 18.3132 1042.03 15.7354 1042.03 15.7354Z" fill="#FFDBCA" stroke="black" stroke-width="0.4" stroke-miterlimit="10"/>
<path d="M1008.46 22.7289C1004.88 20.4089 1000.27 17.4277 1000.14 18.345C999.201 25.2363 1001.72 35.5816 1001.72 35.5816L1003.11 38.2551C1002.82 34.8361 1006.1 25.0895 1008.46 22.7289Z" fill="#F9BC9A" stroke="black" stroke-width="0.4" stroke-linecap="round" stroke-linejoin="round"/>
<path d="M1044.84 20.46C1044.84 20.46 1044.73 30.2712 1044.14 34.9553C1043.16 34.3448 1039.95 22.5121 1034.89 20.8165C1038.45 19.5637 1044.84 20.46 1044.84 20.46Z" fill="#F9BC9A" stroke="black" stroke-width="0.4" stroke-miterlimit="10"/>
<path d="M1054.48 14.3512C1054.48 14.3512 1049.64 13.451 1045.45 11.0366C1041.36 8.68251 1039.43 8.67732 1039.23 8.69343C1039.51 8.64493 1041.92 8.95216 1042.14 8.57727C1039.5 4.63294 1035.64 2.7146 1031.44 1.70778C1023.77 -0.129741 1017.94 -0.00874275 1010.53 5.49728C1002.36 4.62685 997.656 8.67858 998.522 16.1411C999.418 23.8684 1003.63 25.9475 1010.06 28.105C1028.23 34.2049 1032.95 28.3366 1032.95 28.3366C1032.95 28.3366 1026.4 27.7038 1024.99 26.0048C1030.81 27.6548 1036.19 26.5899 1040.83 27.1104C1040.29 24.1371 1038.4 22.5273 1036.69 21.582C1048.62 23.098 1054.48 14.3512 1054.48 14.3512Z" fill="#F9BC9A" stroke="black" stroke-width="0.4" stroke-linecap="round" stroke-linejoin="round"/>
<path d="M1044.03 129.221C1044.02 128.854 1044.02 128.476 1044.02 128.084C1044.02 128.036 1044.02 127.99 1044.02 127.942C1044.02 127.069 1044.02 126.137 1044.02 125.153C1044.03 125.063 1044.03 124.971 1044.03 124.88C1044.03 124.495 1044.03 124.102 1044.04 123.702C1044.04 123.571 1044.04 123.44 1044.04 123.307C1044.18 108.631 1044.98 84.6922 1044.04 72.2721C1038.03 67.3367 1032.74 65.6645 1026.26 65.3534C1021.75 65.1368 1015.93 65.2634 1011.93 66.7333C1011.93 66.7331 1011.93 66.7335 1011.93 66.7333C1011.93 66.7349 1011.92 66.7364 1011.92 66.738C1011.19 67.0065 1010.47 67.2982 1009.77 67.6139C1009.74 67.6297 1009.7 67.6461 1009.67 67.6619C1008.99 67.9698 1008.33 68.2972 1007.68 68.6467C1007.63 68.6761 1007.58 68.707 1007.52 68.7366C1006.89 69.083 1006.28 69.4457 1005.68 69.8297C1005.63 69.8611 1005.58 69.8944 1005.53 69.9261C1004.93 70.3218 1004.33 70.7334 1003.76 71.1656C1000.33 73.7692 1002.76 112.676 1004.26 132.139C1004.43 134.45 1014.06 139.714 1023.6 139.653C1033.87 139.589 1044.11 133.987 1044.04 130.537C1044.04 130.166 1044.03 129.777 1044.03 129.373C1044.03 129.323 1044.03 129.272 1044.03 129.221Z" fill="white"/>
<path d="M1011.93 66.7333C1015.93 65.2634 1021.75 65.1368 1026.26 65.3534C1032.74 65.6645 1038.03 67.3367 1044.04 72.2721C1044.98 84.6922 1044.18 108.631 1044.04 123.307C1044.04 123.44 1044.04 123.571 1044.04 123.702C1044.03 124.102 1044.03 124.495 1044.03 124.88C1044.03 124.971 1044.03 125.063 1044.02 125.153C1044.02 126.137 1044.02 127.069 1044.02 127.942C1044.02 127.99 1044.02 128.036 1044.02 128.084C1044.02 128.476 1044.02 128.854 1044.03 129.221C1044.03 129.272 1044.03 129.323 1044.03 129.373C1044.03 129.777 1044.04 130.166 1044.04 130.537C1044.11 133.987 1033.87 139.589 1023.6 139.653C1014.06 139.714 1004.43 134.45 1004.26 132.139C1002.76 112.676 1000.33 73.7692 1003.76 71.1656C1004.33 70.7334 1004.93 70.3218 1005.53 69.9261C1005.58 69.8944 1005.63 69.8611 1005.68 69.8297C1006.28 69.4457 1006.89 69.083 1007.52 68.7366C1007.58 68.707 1007.63 68.6761 1007.68 68.6467C1008.33 68.2972 1008.99 67.9698 1009.67 67.6619C1009.7 67.6461 1009.74 67.6297 1009.77 67.6139C1010.47 67.2982 1011.19 67.0065 1011.92 66.738C1011.92 66.7364 1011.93 66.7349 1011.93 66.7333ZM1011.93 66.7333C1011.93 66.7331 1011.93 66.7335 1011.93 66.7333Z" stroke="black" stroke-width="0.4" stroke-miterlimit="10"/>
<path d="M1026.37 73.6225C1031.05 73.4259 1032.67 70.0483 1034.42 66.5987C1027.68 64.0891 1020.69 64.0777 1014.47 65.8052C1017.32 69.7568 1021.01 73.8479 1026.37 73.6225Z" fill="#FFDBCA"/>
<path d="M1018.67 65.0527C1017.29 65.2556 1015.93 65.5446 1014.61 65.9126C1017.45 69.8643 1021.14 73.9554 1026.5 73.73C1031.18 73.5333 1032.81 70.1558 1034.56 66.7062C1033.09 66.1615 1031.62 65.7345 1030.14 65.4174" stroke="black" stroke-width="0.4" stroke-linecap="round" stroke-linejoin="round"/>
<path d="M1045.71 69.3157C1043.33 67.4048 1037.03 77.3231 1039.12 83.4812C1041.42 90.2482 1050.59 103.897 1052.74 110.958C1049.22 116.081 1043.67 127.831 1043.12 135.833C1042.99 137.732 1047.09 142.627 1048.39 141.1C1049.65 139.608 1064.23 121.705 1063.85 110.546C1065.61 100.768 1050.84 73.43 1045.71 69.3157Z" fill="white" stroke="black" stroke-width="0.4" stroke-miterlimit="10"/>
<path d="M980.846 130.026L1007.79 122.509C1007.79 122.509 1015.29 146.963 1014.75 156.147C1014.68 157.258 988.552 159.091 988.552 159.091L980.846 130.026Z" fill="#FFB681" stroke="black" stroke-width="0.4" stroke-linecap="round" stroke-linejoin="round"/>
<path d="M982.012 133.826L1005.96 129.341C1005.96 129.341 1011.49 147.922 1013.1 154.643C1013.35 155.761 1012.39 157.723 1011.39 158.027C1008.45 158.927 998.91 159.849 998.91 159.849L982.024 134.172L982.012 133.826Z" fill="#B24442" stroke="black" stroke-width="0.4" stroke-linecap="round" stroke-linejoin="round"/>
<path d="M980.777 136.941L1004.93 131.52L1011.66 154.957L1009.12 157.205L989.155 160.296L980.777 136.941Z" fill="#F0DBBE" stroke="black" stroke-width="0.4" stroke-linecap="round" stroke-linejoin="round"/>
<path d="M978 136.283C978 136.283 994.966 132.616 1000.9 131.735C1003.72 140.597 1008.56 157.272 1011.39 158.028C1006.02 159.301 987.893 161.712 987.893 161.712L978 136.283Z" fill="#D74442" stroke="black" stroke-width="0.4" stroke-linecap="round" stroke-linejoin="round"/>
<path d="M999.362 71.2593C990.677 82.7029 987.369 108.661 987.524 116.535C984.378 123.79 986.859 150.864 987.312 153.369C987.772 155.901 992.094 153.667 993.757 152.119C995.42 150.57 998.944 122.149 998.747 117.293C998.739 117.09 998.694 116.91 998.656 116.725C1001.17 110.458 1004.8 90.9101 1007.46 83.3342C1009.55 77.4104 1002.54 67.0742 999.362 71.2593Z" fill="white" stroke="black" stroke-width="0.4" stroke-miterlimit="10"/>
<path d="M1042.29 132.972C1042.29 132.972 1038.27 135.91 1037.79 137.442C1036.86 140.437 1040.17 145.536 1043.55 147.539C1045.4 144.829 1047.28 139.809 1047.28 139.809L1042.29 132.972Z" fill="#FFDBCA" stroke="black" stroke-width="0.4" stroke-linecap="round" stroke-linejoin="round"/>
<path d="M1043.4 131.124C1044.57 135.065 1048.23 138.299 1050.08 139.409C1049.65 140.885 1047.65 141.736 1047.09 141.563C1045.08 140.935 1041.51 136.811 1041.09 133.526C1041.01 132.914 1042.23 131.802 1043.4 131.124Z" fill="white" stroke="black" stroke-width="0.4" stroke-linecap="round" stroke-linejoin="round"/>
<path d="M996.657 118.507C996.592 118.447 996.525 118.369 996.462 118.291C996.359 118.343 996.377 118.415 996.657 118.507Z" fill="#6DA97B"/>
<path d="M1001.58 156.74C1002.78 157.334 1004.21 156.641 1003.78 156.222C1001.75 154.253 999.034 150.372 997.235 149.481C996.385 149.061 994.064 148.883 994.064 148.883L986.986 152.587C986.986 152.587 988.872 161.58 990.595 164.11C990.867 164.506 992.262 164.524 992.528 164.125C992.695 163.874 992.545 163.133 992.545 163.133C992.545 163.133 992.858 163.895 993.151 163.977C993.78 164.152 995.127 163.594 995.364 162.987C995.499 162.637 995.039 161.73 995.039 161.73C995.039 161.73 995.84 163.199 996.24 163.299C996.78 163.428 998.114 162.829 998.419 162.36C998.669 161.968 998.081 160.263 998.081 160.263C998.081 160.263 998.414 161.593 998.799 161.722C999.487 161.95 1001.41 160.495 1001.07 159.854C1000.33 158.427 998.995 155.295 998.995 155.295C998.995 155.295 1000.99 156.451 1001.58 156.74Z" fill="#FFDBCA" stroke="black" stroke-width="0.4" stroke-linecap="round" stroke-linejoin="round"/>
<path d="M1002.67 69.2669C1004.32 65.8794 1009.89 65.5084 1011.72 67.5924C1013.54 69.6799 1009.69 93.2266 1006.83 96.0242C1003.97 98.8175 1001.19 99.2973 1000.31 94.6127C999.434 89.9239 1001.67 71.3213 1002.67 69.2669Z" fill="#E3343C" stroke="black" stroke-width="0.4" stroke-linecap="round" stroke-linejoin="round"/>
<path d="M1036.19 68.485C1038.04 63.8647 1043.95 66.1742 1045.06 69.6859C1046.17 73.1971 1049.77 85.7614 1046.63 94.8149C1045.35 98.5049 1040.72 95.1837 1039.8 91.673C1039.3 89.7694 1035.27 70.7867 1036.19 68.485Z" fill="#E3343C" stroke="black" stroke-width="0.4" stroke-linecap="round" stroke-linejoin="round"/>
<path d="M1005.61 65.8678C1005.61 65.8678 998.961 92.845 1002.41 105.164C1005.24 93.2146 1009.48 68.3608 1010.54 65.499C1009.49 65.499 1005.61 65.8678 1005.61 65.8678Z" fill="#9A2A3C" stroke="black" stroke-width="0.4" stroke-linecap="round" stroke-linejoin="round"/>
<path d="M1042.19 65.4988C1042.19 65.4988 1048.84 92.4759 1045.39 104.794C1042.56 92.8448 1038.32 67.9901 1037.26 65.127C1038.32 65.127 1042.19 65.4988 1042.19 65.4988Z" fill="#9A2A3C" stroke="black" stroke-width="0.4" stroke-linecap="round" stroke-linejoin="round"/>
<path d="M987.69 154.681C986.361 154.58 986.211 149.693 986.211 149.693C986.211 149.693 991.385 149.693 996.437 147.106C996.717 149.058 997.077 150.194 997.077 150.194C997.077 150.194 990.093 154.867 987.69 154.681Z" fill="white" stroke="black" stroke-width="0.4" stroke-linecap="round" stroke-linejoin="round"/>
<path d="M996.717 34.884C996.717 34.884 1000.1 35.009 1003.15 40.5348" stroke="black" stroke-width="0.4" stroke-linecap="round" stroke-linejoin="round"/>
<path d="M1047.53 32.8926C1047.53 32.8926 1044.87 34.0941 1044.24 39.4964" stroke="black" stroke-width="0.4" stroke-linecap="round" stroke-linejoin="round"/>
<path d="M1011.75 6.88379C1012.61 7.78122 1013.41 8.73982 1014.13 9.74991" stroke="black" stroke-width="0.4" stroke-linecap="round" stroke-linejoin="round"/>
<path d="M1013.76 6.2213C1014.36 5.37005 1015.31 4.77257 1016.34 4.59766" stroke="black" stroke-width="0.4" stroke-linecap="round" stroke-linejoin="round"/>
<path d="M1014.37 7.51174C1015.34 6.72224 1016.59 6.29297 1017.85 6.32382" stroke="black" stroke-width="0.4" stroke-linecap="round" stroke-linejoin="round"/>
<path d="M1010.52 8.72779C1009.85 8.55548 1009.1 8.66713 1008.51 9.03026" stroke="black" stroke-width="0.4" stroke-linecap="round" stroke-linejoin="round"/>
<path d="M1034.76 33.0323C1033.71 32.7131 1032.6 32.6804 1031.54 32.9402C1031.46 32.9609 1031.41 33.0466 1031.43 33.1314C1031.45 33.2005 1031.51 33.2477 1031.57 33.2512C1031.59 33.252 1031.6 33.2507 1031.62 33.2468C1032.62 33.0009 1033.68 33.031 1034.66 33.3346C1034.75 33.3584 1034.84 33.3129 1034.86 33.2299C1034.89 33.1463 1034.84 33.058 1034.76 33.0323Z" fill="black"/>
<path d="M1017.22 32.8145C1017.22 32.7278 1017.14 32.6607 1017.05 32.6686C1016.09 32.739 1015.16 33.0688 1014.36 33.6232C1014.29 33.6732 1014.28 33.7714 1014.33 33.8429C1014.35 33.8845 1014.4 33.9079 1014.45 33.9103C1014.48 33.9121 1014.52 33.9032 1014.55 33.8821C1015.29 33.3606 1016.17 33.0499 1017.08 32.9836C1017.16 32.9773 1017.23 32.9016 1017.22 32.8145Z" fill="black"/>
<path d="M1032.63 39.8842C1032.31 40.0489 1032.1 40.3881 1032 40.7356C1031.87 41.1415 1031.86 41.5919 1032.03 41.982C1032.2 42.3721 1032.56 42.689 1032.98 42.744C1033.4 42.7992 1033.86 42.5544 1033.99 42.1527C1034.17 41.6199 1034.37 40.9943 1034.11 40.4636C1033.85 39.933 1033.16 39.6163 1032.63 39.8842Z" fill="black"/>
<path d="M1017.27 39.5746C1016.95 39.7395 1016.75 40.0785 1016.64 40.4261C1016.52 40.8319 1016.51 41.2825 1016.67 41.6724C1016.84 42.0625 1017.2 42.3794 1017.62 42.4346C1018.04 42.4897 1018.5 42.2449 1018.64 41.8433C1018.82 41.3104 1019.01 40.6848 1018.75 40.1541C1018.5 39.6234 1017.8 39.3068 1017.27 39.5746Z" fill="black"/>
<path d="M1025.01 38.8174C1024.24 41.0107 1024.97 43.6439 1026.76 45.1322C1027.22 45.5176 1027.76 45.8534 1028.02 46.3937C1028.31 46.977 1028.2 47.695 1027.89 48.263C1027.57 48.8311 1027.07 49.2742 1026.56 49.6757" stroke="black" stroke-width="0.4" stroke-linecap="round" stroke-linejoin="round"/>
<path d="M1023.92 55.2004C1025.31 55.7066 1026.9 55.6142 1028.22 54.9512" stroke="black" stroke-width="0.4" stroke-linecap="round" stroke-linejoin="round"/>
<path d="M1021.28 52.4954C1024.46 54.0516 1027.51 53.5116 1030.02 52.3867" stroke="black" stroke-width="0.4" stroke-linecap="round" stroke-linejoin="round"/>
<path d="M1012.94 53.6895C1015.61 53.6895 1017.78 51.5211 1017.78 48.8462C1017.78 46.1713 1015.61 44.0029 1012.94 44.0029C1010.26 44.0029 1008.1 46.1713 1008.1 48.8462C1008.1 51.5211 1010.26 53.6895 1012.94 53.6895Z" fill="#F9A478"/>
<path d="M1037.93 52.9238C1040.6 52.9238 1042.77 50.7554 1042.77 48.0806C1042.77 45.4057 1040.6 43.2373 1037.93 43.2373C1035.25 43.2373 1033.08 45.4057 1033.08 48.0806C1033.08 50.7554 1035.25 52.9238 1037.93 52.9238Z" fill="#F9A478"/>
<path d="M998.751 116.159C998.731 115.566 998.197 115.128 997.676 114.843C996.466 114.179 995.059 113.879 993.684 113.991" stroke="black" stroke-width="0.4" stroke-linecap="round" stroke-linejoin="round"/>
<path d="M999.032 115.706C999.013 115.113 998.141 113.707 997.676 113.339C996.216 112.186 994.696 111.458 992.291 110.711" stroke="black" stroke-width="0.4" stroke-linecap="round" stroke-linejoin="round"/>
<path d="M1052.58 111.137C1052.6 110.544 1053.14 110.106 1053.66 109.821C1054.87 109.158 1056.28 108.857 1057.65 108.969" stroke="black" stroke-width="0.4" stroke-linecap="round" stroke-linejoin="round"/>
<path d="M1052.3 110.687C1052.32 110.094 1053.19 108.688 1053.66 108.32C1055.12 107.166 1056.64 106.438 1059.04 105.691" stroke="black" stroke-width="0.4" stroke-linecap="round" stroke-linejoin="round"/>
<path d="M1021.11 154.352C1024.18 153.631 1027.25 152.909 1030.32 152.188" stroke="black" stroke-width="0.4" stroke-linecap="round" stroke-linejoin="round"/>
<path d="M1022.78 153.683C1023.73 149.32 1024 144.807 1023.57 140.361" stroke="black" stroke-width="0.4" stroke-linecap="round" stroke-linejoin="round"/>
<path d="M1026.27 153.015C1027.57 148.709 1027.92 144.121 1027.3 139.667" stroke="black" stroke-width="0.4" stroke-linecap="round" stroke-linejoin="round"/>
<defs>
<filter id="filter0_d_2096_5964" x="621" y="184.309" width="242.186" height="70.6919" filterUnits="userSpaceOnUse" color-interpolation-filters="sRGB">
<feFlood flood-opacity="0" result="BackgroundImageFix"/>
<feColorMatrix in="SourceAlpha" type="matrix" values="0 0 0 0 0 0 0 0 0 0 0 0 0 0 0 0 0 0 127 0" result="hardAlpha"/>
<feOffset dx="2" dy="-2"/>
<feGaussianBlur stdDeviation="1"/>
<feComposite in2="hardAlpha" operator="out"/>
<feColorMatrix type="matrix" values="0 0 0 0 0 0 0 0 0 0 0 0 0 0 0 0 0 0 0.25 0"/>
<feBlend mode="normal" in2="BackgroundImageFix" result="effect1_dropShadow_2096_5964"/>
<feBlend mode="normal" in="SourceGraphic" in2="effect1_dropShadow_2096_5964" result="shape"/>
</filter>
<filter id="filter1_d_2096_5964" x="926" y="88" width="242" height="150" filterUnits="userSpaceOnUse" color-interpolation-filters="sRGB">
<feFlood flood-opacity="0" result="BackgroundImageFix"/>
<feColorMatrix in="SourceAlpha" type="matrix" values="0 0 0 0 0 0 0 0 0 0 0 0 0 0 0 0 0 0 127 0" result="hardAlpha"/>
<feOffset dx="2" dy="-2"/>
<feGaussianBlur stdDeviation="1"/>
<feComposite in2="hardAlpha" operator="out"/>
<feColorMatrix type="matrix" values="0 0 0 0 0 0 0 0 0 0 0 0 0 0 0 0 0 0 0.25 0"/>
<feBlend mode="normal" in2="BackgroundImageFix" result="effect1_dropShadow_2096_5964"/>
<feBlend mode="normal" in="SourceGraphic" in2="effect1_dropShadow_2096_5964" result="shape"/>
</filter>
<filter id="filter2_d_2096_5964" x="49" y="33" width="112" height="109" filterUnits="userSpaceOnUse" color-interpolation-filters="sRGB">
<feFlood flood-opacity="0" result="BackgroundImageFix"/>
<feColorMatrix in="SourceAlpha" type="matrix" values="0 0 0 0 0 0 0 0 0 0 0 0 0 0 0 0 0 0 127 0" result="hardAlpha"/>
<feOffset dy="4"/>
<feGaussianBlur stdDeviation="2"/>
<feComposite in2="hardAlpha" operator="out"/>
<feColorMatrix type="matrix" values="0 0 0 0 0 0 0 0 0 0 0 0 0 0 0 0 0 0 0.25 0"/>
<feBlend mode="normal" in2="BackgroundImageFix" result="effect1_dropShadow_2096_5964"/>
<feBlend mode="normal" in="SourceGraphic" in2="effect1_dropShadow_2096_5964" result="shape"/>
</filter>
</defs>
</svg>
