<svg width="558" height="192" viewBox="0 0 558 192" fill="none" xmlns="http://www.w3.org/2000/svg">
<g id="sensorio-motor">
<g id="Frame 763">
<g id="button-19-24">
<rect width="357" height="48" rx="12" fill="#7B6EB9"/>
<path id="Avan&#195;&#167;ar" d="M118.646 32H116.342V22.8105C116.342 22.5046 116.345 22.1986 116.352 21.8926C116.358 21.5866 116.365 21.2871 116.371 20.9941C116.384 20.7012 116.4 20.4212 116.42 20.1543C116.283 20.304 116.114 20.4668 115.912 20.6426C115.717 20.8184 115.508 21.0007 115.287 21.1895L113.646 22.498L112.494 21.043L116.732 17.7227H118.646V32ZM132.992 23.8066C132.992 24.653 132.93 25.4831 132.807 26.2969C132.689 27.1107 132.481 27.8724 132.182 28.582C131.889 29.2917 131.482 29.9199 130.961 30.4668C130.447 31.0072 129.796 31.4303 129.008 31.7363C128.22 32.0423 127.27 32.1953 126.156 32.1953C125.876 32.1953 125.551 32.179 125.18 32.1465C124.815 32.1204 124.516 32.0814 124.281 32.0293V30.1152C124.529 30.1868 124.805 30.2454 125.111 30.291C125.424 30.3301 125.733 30.3496 126.039 30.3496C127.243 30.3496 128.181 30.125 128.852 29.6758C129.529 29.2266 130.007 28.6081 130.287 27.8203C130.574 27.0326 130.736 26.1374 130.775 25.1348H130.658C130.469 25.4473 130.232 25.7337 129.945 25.9941C129.659 26.248 129.304 26.4531 128.881 26.6094C128.458 26.7591 127.943 26.834 127.338 26.834C126.518 26.834 125.801 26.6615 125.189 26.3164C124.584 25.9714 124.112 25.4701 123.773 24.8125C123.441 24.1484 123.275 23.3509 123.275 22.4199C123.275 21.4108 123.467 20.5417 123.852 19.8125C124.236 19.0833 124.779 18.5234 125.482 18.1328C126.186 17.7357 127.012 17.5371 127.963 17.5371C128.679 17.5371 129.34 17.6673 129.945 17.9277C130.557 18.1816 131.091 18.5723 131.547 19.0996C132.003 19.6204 132.357 20.2747 132.611 21.0625C132.865 21.8438 132.992 22.7585 132.992 23.8066ZM127.992 19.4316C127.27 19.4316 126.68 19.6758 126.225 20.1641C125.769 20.6458 125.541 21.388 125.541 22.3906C125.541 23.2044 125.736 23.849 126.127 24.3242C126.518 24.7995 127.117 25.0371 127.924 25.0371C128.484 25.0371 128.965 24.9232 129.369 24.6953C129.779 24.4609 130.095 24.1647 130.316 23.8066C130.544 23.4486 130.658 23.084 130.658 22.7129C130.658 22.3288 130.603 21.9447 130.492 21.5605C130.388 21.1764 130.225 20.8249 130.004 20.5059C129.783 20.1868 129.503 19.9297 129.164 19.7344C128.832 19.5326 128.441 19.4316 127.992 19.4316ZM144.965 20.9844C146.332 20.9844 147.364 21.2871 148.061 21.8926C148.764 22.498 149.115 23.4421 149.115 24.7246V32H147.484L147.045 30.4668H146.967C146.661 30.8574 146.345 31.1797 146.02 31.4336C145.694 31.6875 145.316 31.8763 144.887 32C144.464 32.1302 143.946 32.1953 143.334 32.1953C142.689 32.1953 142.113 32.0781 141.605 31.8438C141.098 31.6029 140.697 31.2383 140.404 30.75C140.111 30.2617 139.965 29.6432 139.965 28.8945C139.965 27.7812 140.378 26.9447 141.205 26.3848C142.038 25.8249 143.295 25.5156 144.975 25.457L146.85 25.3887V24.8223C146.85 24.0736 146.674 23.5397 146.322 23.2207C145.977 22.9017 145.489 22.7422 144.857 22.7422C144.317 22.7422 143.793 22.8203 143.285 22.9766C142.777 23.1328 142.283 23.3249 141.801 23.5527L141.059 21.9316C141.586 21.6517 142.185 21.4238 142.855 21.248C143.533 21.0723 144.236 20.9844 144.965 20.9844ZM146.84 26.834L145.443 26.8828C144.298 26.9219 143.493 27.1172 143.031 27.4688C142.569 27.8203 142.338 28.3021 142.338 28.9141C142.338 29.4479 142.497 29.8385 142.816 30.0859C143.135 30.3268 143.555 30.4473 144.076 30.4473C144.87 30.4473 145.528 30.2227 146.049 29.7734C146.576 29.3177 146.84 28.6504 146.84 27.7715V26.834ZM166.449 32H156.781V30.2715L160.482 26.5215C161.199 25.7923 161.788 25.1641 162.25 24.6367C162.712 24.1029 163.054 23.5983 163.275 23.123C163.503 22.6478 163.617 22.1302 163.617 21.5703C163.617 20.8802 163.419 20.3594 163.021 20.0078C162.624 19.6497 162.1 19.4707 161.449 19.4707C160.831 19.4707 160.258 19.5944 159.73 19.8418C159.21 20.0827 158.669 20.4277 158.109 20.877L156.85 19.3633C157.247 19.0247 157.67 18.7155 158.119 18.4355C158.575 18.1556 159.083 17.9342 159.643 17.7715C160.202 17.6022 160.84 17.5176 161.557 17.5176C162.462 17.5176 163.243 17.6803 163.9 18.0059C164.558 18.3249 165.062 18.7708 165.414 19.3438C165.772 19.9167 165.951 20.584 165.951 21.3457C165.951 22.1139 165.798 22.8236 165.492 23.4746C165.186 24.1257 164.75 24.7702 164.184 25.4082C163.617 26.0397 162.943 26.7266 162.162 27.4688L159.691 29.8809V29.9883H166.449V32ZM178.412 28.8652H176.479V32H174.213V28.8652H167.719V27.127L174.242 17.6836H176.479V26.9609H178.412V28.8652ZM174.213 26.9609V23.416C174.213 23.123 174.216 22.8268 174.223 22.5273C174.236 22.2214 174.249 21.9284 174.262 21.6484C174.275 21.3685 174.288 21.1113 174.301 20.877C174.314 20.6361 174.324 20.4375 174.33 20.2812H174.252C174.128 20.5417 173.992 20.8086 173.842 21.082C173.692 21.349 173.533 21.6094 173.363 21.8633L169.848 26.9609H174.213ZM197.826 20.9844C199.037 20.9844 199.949 21.2969 200.561 21.9219C201.179 22.5469 201.488 23.5495 201.488 24.9297V32H199.193V25.3398C199.193 24.5195 199.034 23.901 198.715 23.4844C198.396 23.0677 197.911 22.8594 197.26 22.8594C196.348 22.8594 195.691 23.1523 195.287 23.7383C194.89 24.3177 194.691 25.1608 194.691 26.2676V32H192.396V25.3398C192.396 24.793 192.325 24.3372 192.182 23.9727C192.045 23.6016 191.833 23.3249 191.547 23.1426C191.26 22.9538 190.899 22.8594 190.463 22.8594C189.831 22.8594 189.327 23.0026 188.949 23.2891C188.578 23.5755 188.311 23.9987 188.148 24.5586C187.986 25.112 187.904 25.7923 187.904 26.5996V32H185.609V21.1895H187.396L187.719 22.6445H187.846C188.067 22.2669 188.34 21.9577 188.666 21.7168C188.998 21.4694 189.366 21.2871 189.77 21.1699C190.173 21.0462 190.593 20.9844 191.029 20.9844C191.837 20.9844 192.517 21.1276 193.07 21.4141C193.624 21.694 194.037 22.1237 194.311 22.7031H194.486C194.825 22.1172 195.297 21.6842 195.902 21.4043C196.508 21.1243 197.149 20.9844 197.826 20.9844ZM208.998 20.9844C209.962 20.9844 210.788 21.1829 211.479 21.5801C212.169 21.9772 212.699 22.5404 213.07 23.2695C213.441 23.9987 213.627 24.8711 213.627 25.8867V27.1172H206.41C206.436 28.1654 206.716 28.9727 207.25 29.5391C207.79 30.1055 208.546 30.3887 209.516 30.3887C210.206 30.3887 210.824 30.3236 211.371 30.1934C211.924 30.0566 212.494 29.8581 213.08 29.5977V31.4629C212.54 31.7168 211.99 31.9023 211.43 32.0195C210.87 32.1367 210.199 32.1953 209.418 32.1953C208.357 32.1953 207.423 31.9902 206.615 31.5801C205.814 31.1634 205.186 30.5449 204.73 29.7246C204.281 28.9043 204.057 27.8854 204.057 26.668C204.057 25.457 204.262 24.4284 204.672 23.582C205.082 22.7357 205.658 22.0911 206.4 21.6484C207.143 21.2057 208.008 20.9844 208.998 20.9844ZM208.998 22.7129C208.275 22.7129 207.689 22.9473 207.24 23.416C206.798 23.8848 206.537 24.5716 206.459 25.4766H211.381C211.374 24.9362 211.283 24.4577 211.107 24.041C210.938 23.6243 210.678 23.2988 210.326 23.0645C209.981 22.8301 209.538 22.7129 208.998 22.7129ZM223.48 28.9141C223.48 29.6237 223.308 30.2227 222.963 30.7109C222.618 31.1992 222.113 31.5703 221.449 31.8242C220.792 32.0716 219.984 32.1953 219.027 32.1953C218.272 32.1953 217.621 32.14 217.074 32.0293C216.534 31.9251 216.023 31.7624 215.541 31.541V29.5586C216.055 29.7995 216.632 30.0078 217.27 30.1836C217.914 30.3594 218.523 30.4473 219.096 30.4473C219.851 30.4473 220.395 30.3301 220.727 30.0957C221.059 29.8548 221.225 29.5358 221.225 29.1387C221.225 28.9043 221.156 28.696 221.02 28.5137C220.889 28.3249 220.642 28.1328 220.277 27.9375C219.919 27.7357 219.392 27.4948 218.695 27.2148C218.012 26.9414 217.436 26.668 216.967 26.3945C216.498 26.1211 216.143 25.7923 215.902 25.4082C215.661 25.0176 215.541 24.5195 215.541 23.9141C215.541 22.957 215.919 22.2311 216.674 21.7363C217.436 21.235 218.441 20.9844 219.691 20.9844C220.355 20.9844 220.98 21.0527 221.566 21.1895C222.159 21.3197 222.738 21.5117 223.305 21.7656L222.582 23.4941C222.094 23.2793 221.602 23.1035 221.107 22.9668C220.619 22.8236 220.121 22.752 219.613 22.752C219.021 22.752 218.568 22.8431 218.256 23.0254C217.95 23.2077 217.797 23.4681 217.797 23.8066C217.797 24.0605 217.872 24.2754 218.021 24.4512C218.171 24.627 218.428 24.8027 218.793 24.9785C219.164 25.1543 219.678 25.3724 220.336 25.6328C220.98 25.8802 221.537 26.1406 222.006 26.4141C222.481 26.681 222.846 27.0098 223.1 27.4004C223.354 27.791 223.48 28.2956 223.48 28.9141ZM230.268 20.9844C231.231 20.9844 232.058 21.1829 232.748 21.5801C233.438 21.9772 233.969 22.5404 234.34 23.2695C234.711 23.9987 234.896 24.8711 234.896 25.8867V27.1172H227.68C227.706 28.1654 227.986 28.9727 228.52 29.5391C229.06 30.1055 229.815 30.3887 230.785 30.3887C231.475 30.3887 232.094 30.3236 232.641 30.1934C233.194 30.0566 233.764 29.8581 234.35 29.5977V31.4629C233.809 31.7168 233.259 31.9023 232.699 32.0195C232.139 32.1367 231.469 32.1953 230.688 32.1953C229.626 32.1953 228.692 31.9902 227.885 31.5801C227.084 31.1634 226.456 30.5449 226 29.7246C225.551 28.9043 225.326 27.8854 225.326 26.668C225.326 25.457 225.531 24.4284 225.941 23.582C226.352 22.7357 226.928 22.0911 227.67 21.6484C228.412 21.2057 229.278 20.9844 230.268 20.9844ZM230.268 22.7129C229.545 22.7129 228.959 22.9473 228.51 23.416C228.067 23.8848 227.807 24.5716 227.729 25.4766H232.65C232.644 24.9362 232.553 24.4577 232.377 24.041C232.208 23.6243 231.947 23.2988 231.596 23.0645C231.251 22.8301 230.808 22.7129 230.268 22.7129ZM244.75 28.9141C244.75 29.6237 244.577 30.2227 244.232 30.7109C243.887 31.1992 243.383 31.5703 242.719 31.8242C242.061 32.0716 241.254 32.1953 240.297 32.1953C239.542 32.1953 238.891 32.14 238.344 32.0293C237.803 31.9251 237.292 31.7624 236.811 31.541V29.5586C237.325 29.7995 237.901 30.0078 238.539 30.1836C239.184 30.3594 239.792 30.4473 240.365 30.4473C241.12 30.4473 241.664 30.3301 241.996 30.0957C242.328 29.8548 242.494 29.5358 242.494 29.1387C242.494 28.9043 242.426 28.696 242.289 28.5137C242.159 28.3249 241.911 28.1328 241.547 27.9375C241.189 27.7357 240.661 27.4948 239.965 27.2148C239.281 26.9414 238.705 26.668 238.236 26.3945C237.768 26.1211 237.413 25.7923 237.172 25.4082C236.931 25.0176 236.811 24.5195 236.811 23.9141C236.811 22.957 237.188 22.2311 237.943 21.7363C238.705 21.235 239.711 20.9844 240.961 20.9844C241.625 20.9844 242.25 21.0527 242.836 21.1895C243.428 21.3197 244.008 21.5117 244.574 21.7656L243.852 23.4941C243.363 23.2793 242.872 23.1035 242.377 22.9668C241.889 22.8236 241.391 22.752 240.883 22.752C240.29 22.752 239.838 22.8431 239.525 23.0254C239.219 23.2077 239.066 23.4681 239.066 23.8066C239.066 24.0605 239.141 24.2754 239.291 24.4512C239.441 24.627 239.698 24.8027 240.062 24.9785C240.434 25.1543 240.948 25.3724 241.605 25.6328C242.25 25.8802 242.807 26.1406 243.275 26.4141C243.751 26.681 244.115 27.0098 244.369 27.4004C244.623 27.791 244.75 28.2956 244.75 28.9141Z" fill="white"/>
</g>
<g id="button-21-23">
<rect y="72" width="357" height="48" rx="12" fill="#7B6EB9"/>
<path id="Avan&#195;&#167;ar_2" d="M121.566 104H111.898V102.271L115.6 98.5215C116.316 97.7923 116.905 97.1641 117.367 96.6367C117.829 96.1029 118.171 95.5983 118.393 95.123C118.62 94.6478 118.734 94.1302 118.734 93.5703C118.734 92.8802 118.536 92.3594 118.139 92.0078C117.742 91.6497 117.217 91.4707 116.566 91.4707C115.948 91.4707 115.375 91.5944 114.848 91.8418C114.327 92.0827 113.786 92.4277 113.227 92.877L111.967 91.3633C112.364 91.0247 112.787 90.7155 113.236 90.4355C113.692 90.1556 114.2 89.9342 114.76 89.7715C115.32 89.6022 115.958 89.5176 116.674 89.5176C117.579 89.5176 118.36 89.6803 119.018 90.0059C119.675 90.3249 120.18 90.7708 120.531 91.3438C120.889 91.9167 121.068 92.584 121.068 93.3457C121.068 94.1139 120.915 94.8236 120.609 95.4746C120.303 96.1257 119.867 96.7702 119.301 97.4082C118.734 98.0397 118.061 98.7266 117.279 99.4688L114.809 101.881V101.988H121.566V104ZM130.092 104H127.787V94.8105C127.787 94.5046 127.79 94.1986 127.797 93.8926C127.803 93.5866 127.81 93.2871 127.816 92.9941C127.829 92.7012 127.846 92.4212 127.865 92.1543C127.729 92.304 127.559 92.4668 127.357 92.6426C127.162 92.8184 126.954 93.0007 126.732 93.1895L125.092 94.498L123.939 93.043L128.178 89.7227H130.092V104ZM144.965 92.9844C146.332 92.9844 147.364 93.2871 148.061 93.8926C148.764 94.498 149.115 95.4421 149.115 96.7246V104H147.484L147.045 102.467H146.967C146.661 102.857 146.345 103.18 146.02 103.434C145.694 103.688 145.316 103.876 144.887 104C144.464 104.13 143.946 104.195 143.334 104.195C142.689 104.195 142.113 104.078 141.605 103.844C141.098 103.603 140.697 103.238 140.404 102.75C140.111 102.262 139.965 101.643 139.965 100.895C139.965 99.7812 140.378 98.9447 141.205 98.3848C142.038 97.8249 143.295 97.5156 144.975 97.457L146.85 97.3887V96.8223C146.85 96.0736 146.674 95.5397 146.322 95.2207C145.977 94.9017 145.489 94.7422 144.857 94.7422C144.317 94.7422 143.793 94.8203 143.285 94.9766C142.777 95.1328 142.283 95.3249 141.801 95.5527L141.059 93.9316C141.586 93.6517 142.185 93.4238 142.855 93.248C143.533 93.0723 144.236 92.9844 144.965 92.9844ZM146.84 98.834L145.443 98.8828C144.298 98.9219 143.493 99.1172 143.031 99.4688C142.569 99.8203 142.338 100.302 142.338 100.914C142.338 101.448 142.497 101.839 142.816 102.086C143.135 102.327 143.555 102.447 144.076 102.447C144.87 102.447 145.528 102.223 146.049 101.773C146.576 101.318 146.84 100.65 146.84 99.7715V98.834ZM166.449 104H156.781V102.271L160.482 98.5215C161.199 97.7923 161.788 97.1641 162.25 96.6367C162.712 96.1029 163.054 95.5983 163.275 95.123C163.503 94.6478 163.617 94.1302 163.617 93.5703C163.617 92.8802 163.419 92.3594 163.021 92.0078C162.624 91.6497 162.1 91.4707 161.449 91.4707C160.831 91.4707 160.258 91.5944 159.73 91.8418C159.21 92.0827 158.669 92.4277 158.109 92.877L156.85 91.3633C157.247 91.0247 157.67 90.7155 158.119 90.4355C158.575 90.1556 159.083 89.9342 159.643 89.7715C160.202 89.6022 160.84 89.5176 161.557 89.5176C162.462 89.5176 163.243 89.6803 163.9 90.0059C164.558 90.3249 165.062 90.7708 165.414 91.3438C165.772 91.9167 165.951 92.584 165.951 93.3457C165.951 94.1139 165.798 94.8236 165.492 95.4746C165.186 96.1257 164.75 96.7702 164.184 97.4082C163.617 98.0397 162.943 98.7266 162.162 99.4688L159.691 101.881V101.988H166.449V104ZM177.348 92.9844C177.348 93.6289 177.217 94.1888 176.957 94.6641C176.697 95.1393 176.339 95.5299 175.883 95.8359C175.434 96.1354 174.913 96.3503 174.32 96.4805V96.5488C175.46 96.6921 176.319 97.0501 176.898 97.623C177.484 98.196 177.777 98.9544 177.777 99.8984C177.777 100.725 177.579 101.464 177.182 102.115C176.785 102.76 176.176 103.268 175.355 103.639C174.535 104.01 173.48 104.195 172.191 104.195C171.417 104.195 170.697 104.133 170.033 104.01C169.376 103.886 168.751 103.688 168.158 103.414V101.373C168.764 101.673 169.408 101.904 170.092 102.066C170.775 102.229 171.423 102.311 172.035 102.311C173.227 102.311 174.076 102.089 174.584 101.646C175.092 101.197 175.346 100.579 175.346 99.791C175.346 99.2832 175.212 98.8665 174.945 98.541C174.685 98.2155 174.278 97.9714 173.725 97.8086C173.178 97.6458 172.471 97.5645 171.605 97.5645H170.346V95.7188H171.615C172.442 95.7188 173.106 95.6211 173.607 95.4258C174.109 95.224 174.47 94.9473 174.691 94.5957C174.919 94.2441 175.033 93.834 175.033 93.3652C175.033 92.7533 174.835 92.278 174.438 91.9395C174.04 91.5944 173.451 91.4219 172.67 91.4219C172.188 91.4219 171.749 91.4772 171.352 91.5879C170.961 91.6986 170.6 91.8385 170.268 92.0078C169.936 92.1771 169.62 92.3594 169.32 92.5547L168.217 90.9629C168.757 90.5592 169.402 90.2174 170.15 89.9375C170.899 89.6576 171.771 89.5176 172.768 89.5176C174.232 89.5176 175.362 89.8333 176.156 90.4648C176.951 91.0898 177.348 91.9297 177.348 92.9844ZM197.826 92.9844C199.037 92.9844 199.949 93.2969 200.561 93.9219C201.179 94.5469 201.488 95.5495 201.488 96.9297V104H199.193V97.3398C199.193 96.5195 199.034 95.901 198.715 95.4844C198.396 95.0677 197.911 94.8594 197.26 94.8594C196.348 94.8594 195.691 95.1523 195.287 95.7383C194.89 96.3177 194.691 97.1608 194.691 98.2676V104H192.396V97.3398C192.396 96.793 192.325 96.3372 192.182 95.9727C192.045 95.6016 191.833 95.3249 191.547 95.1426C191.26 94.9538 190.899 94.8594 190.463 94.8594C189.831 94.8594 189.327 95.0026 188.949 95.2891C188.578 95.5755 188.311 95.9987 188.148 96.5586C187.986 97.112 187.904 97.7923 187.904 98.5996V104H185.609V93.1895H187.396L187.719 94.6445H187.846C188.067 94.2669 188.34 93.9577 188.666 93.7168C188.998 93.4694 189.366 93.2871 189.77 93.1699C190.173 93.0462 190.593 92.9844 191.029 92.9844C191.837 92.9844 192.517 93.1276 193.07 93.4141C193.624 93.694 194.037 94.1237 194.311 94.7031H194.486C194.825 94.1172 195.297 93.6842 195.902 93.4043C196.508 93.1243 197.149 92.9844 197.826 92.9844ZM208.998 92.9844C209.962 92.9844 210.788 93.1829 211.479 93.5801C212.169 93.9772 212.699 94.5404 213.07 95.2695C213.441 95.9987 213.627 96.8711 213.627 97.8867V99.1172H206.41C206.436 100.165 206.716 100.973 207.25 101.539C207.79 102.105 208.546 102.389 209.516 102.389C210.206 102.389 210.824 102.324 211.371 102.193C211.924 102.057 212.494 101.858 213.08 101.598V103.463C212.54 103.717 211.99 103.902 211.43 104.02C210.87 104.137 210.199 104.195 209.418 104.195C208.357 104.195 207.423 103.99 206.615 103.58C205.814 103.163 205.186 102.545 204.73 101.725C204.281 100.904 204.057 99.8854 204.057 98.668C204.057 97.457 204.262 96.4284 204.672 95.582C205.082 94.7357 205.658 94.0911 206.4 93.6484C207.143 93.2057 208.008 92.9844 208.998 92.9844ZM208.998 94.7129C208.275 94.7129 207.689 94.9473 207.24 95.416C206.798 95.8848 206.537 96.5716 206.459 97.4766H211.381C211.374 96.9362 211.283 96.4577 211.107 96.041C210.938 95.6243 210.678 95.2988 210.326 95.0645C209.981 94.8301 209.538 94.7129 208.998 94.7129ZM223.48 100.914C223.48 101.624 223.308 102.223 222.963 102.711C222.618 103.199 222.113 103.57 221.449 103.824C220.792 104.072 219.984 104.195 219.027 104.195C218.272 104.195 217.621 104.14 217.074 104.029C216.534 103.925 216.023 103.762 215.541 103.541V101.559C216.055 101.799 216.632 102.008 217.27 102.184C217.914 102.359 218.523 102.447 219.096 102.447C219.851 102.447 220.395 102.33 220.727 102.096C221.059 101.855 221.225 101.536 221.225 101.139C221.225 100.904 221.156 100.696 221.02 100.514C220.889 100.325 220.642 100.133 220.277 99.9375C219.919 99.7357 219.392 99.4948 218.695 99.2148C218.012 98.9414 217.436 98.668 216.967 98.3945C216.498 98.1211 216.143 97.7923 215.902 97.4082C215.661 97.0176 215.541 96.5195 215.541 95.9141C215.541 94.957 215.919 94.2311 216.674 93.7363C217.436 93.235 218.441 92.9844 219.691 92.9844C220.355 92.9844 220.98 93.0527 221.566 93.1895C222.159 93.3197 222.738 93.5117 223.305 93.7656L222.582 95.4941C222.094 95.2793 221.602 95.1035 221.107 94.9668C220.619 94.8236 220.121 94.752 219.613 94.752C219.021 94.752 218.568 94.8431 218.256 95.0254C217.95 95.2077 217.797 95.4681 217.797 95.8066C217.797 96.0605 217.872 96.2754 218.021 96.4512C218.171 96.627 218.428 96.8027 218.793 96.9785C219.164 97.1543 219.678 97.3724 220.336 97.6328C220.98 97.8802 221.537 98.1406 222.006 98.4141C222.481 98.681 222.846 99.0098 223.1 99.4004C223.354 99.791 223.48 100.296 223.48 100.914ZM230.268 92.9844C231.231 92.9844 232.058 93.1829 232.748 93.5801C233.438 93.9772 233.969 94.5404 234.34 95.2695C234.711 95.9987 234.896 96.8711 234.896 97.8867V99.1172H227.68C227.706 100.165 227.986 100.973 228.52 101.539C229.06 102.105 229.815 102.389 230.785 102.389C231.475 102.389 232.094 102.324 232.641 102.193C233.194 102.057 233.764 101.858 234.35 101.598V103.463C233.809 103.717 233.259 103.902 232.699 104.02C232.139 104.137 231.469 104.195 230.688 104.195C229.626 104.195 228.692 103.99 227.885 103.58C227.084 103.163 226.456 102.545 226 101.725C225.551 100.904 225.326 99.8854 225.326 98.668C225.326 97.457 225.531 96.4284 225.941 95.582C226.352 94.7357 226.928 94.0911 227.67 93.6484C228.412 93.2057 229.278 92.9844 230.268 92.9844ZM230.268 94.7129C229.545 94.7129 228.959 94.9473 228.51 95.416C228.067 95.8848 227.807 96.5716 227.729 97.4766H232.65C232.644 96.9362 232.553 96.4577 232.377 96.041C232.208 95.6243 231.947 95.2988 231.596 95.0645C231.251 94.8301 230.808 94.7129 230.268 94.7129ZM244.75 100.914C244.75 101.624 244.577 102.223 244.232 102.711C243.887 103.199 243.383 103.57 242.719 103.824C242.061 104.072 241.254 104.195 240.297 104.195C239.542 104.195 238.891 104.14 238.344 104.029C237.803 103.925 237.292 103.762 236.811 103.541V101.559C237.325 101.799 237.901 102.008 238.539 102.184C239.184 102.359 239.792 102.447 240.365 102.447C241.12 102.447 241.664 102.33 241.996 102.096C242.328 101.855 242.494 101.536 242.494 101.139C242.494 100.904 242.426 100.696 242.289 100.514C242.159 100.325 241.911 100.133 241.547 99.9375C241.189 99.7357 240.661 99.4948 239.965 99.2148C239.281 98.9414 238.705 98.668 238.236 98.3945C237.768 98.1211 237.413 97.7923 237.172 97.4082C236.931 97.0176 236.811 96.5195 236.811 95.9141C236.811 94.957 237.188 94.2311 237.943 93.7363C238.705 93.235 239.711 92.9844 240.961 92.9844C241.625 92.9844 242.25 93.0527 242.836 93.1895C243.428 93.3197 244.008 93.5117 244.574 93.7656L243.852 95.4941C243.363 95.2793 242.872 95.1035 242.377 94.9668C241.889 94.8236 241.391 94.752 240.883 94.752C240.29 94.752 239.838 94.8431 239.525 95.0254C239.219 95.2077 239.066 95.4681 239.066 95.8066C239.066 96.0605 239.141 96.2754 239.291 96.4512C239.441 96.627 239.698 96.8027 240.062 96.9785C240.434 97.1543 240.948 97.3724 241.605 97.6328C242.25 97.8802 242.807 98.1406 243.275 98.4141C243.751 98.681 244.115 99.0098 244.369 99.4004C244.623 99.791 244.75 100.296 244.75 100.914Z" fill="white"/>
</g>
<g id="button-24">
<rect y="144" width="357" height="48" rx="12" fill="#7B6EB9"/>
<path id="Avan&#195;&#167;ar_3" d="M144.066 176H134.398V174.271L138.1 170.521C138.816 169.792 139.405 169.164 139.867 168.637C140.329 168.103 140.671 167.598 140.893 167.123C141.12 166.648 141.234 166.13 141.234 165.57C141.234 164.88 141.036 164.359 140.639 164.008C140.242 163.65 139.717 163.471 139.066 163.471C138.448 163.471 137.875 163.594 137.348 163.842C136.827 164.083 136.286 164.428 135.727 164.877L134.467 163.363C134.864 163.025 135.287 162.715 135.736 162.436C136.192 162.156 136.7 161.934 137.26 161.771C137.82 161.602 138.458 161.518 139.174 161.518C140.079 161.518 140.86 161.68 141.518 162.006C142.175 162.325 142.68 162.771 143.031 163.344C143.389 163.917 143.568 164.584 143.568 165.346C143.568 166.114 143.415 166.824 143.109 167.475C142.803 168.126 142.367 168.77 141.801 169.408C141.234 170.04 140.561 170.727 139.779 171.469L137.309 173.881V173.988H144.066V176ZM156.029 172.865H154.096V176H151.83V172.865H145.336V171.127L151.859 161.684H154.096V170.961H156.029V172.865ZM151.83 170.961V167.416C151.83 167.123 151.833 166.827 151.84 166.527C151.853 166.221 151.866 165.928 151.879 165.648C151.892 165.368 151.905 165.111 151.918 164.877C151.931 164.636 151.941 164.438 151.947 164.281H151.869C151.745 164.542 151.609 164.809 151.459 165.082C151.309 165.349 151.15 165.609 150.98 165.863L147.465 170.961H151.83ZM175.443 164.984C176.654 164.984 177.566 165.297 178.178 165.922C178.796 166.547 179.105 167.549 179.105 168.93V176H176.811V169.34C176.811 168.52 176.651 167.901 176.332 167.484C176.013 167.068 175.528 166.859 174.877 166.859C173.965 166.859 173.308 167.152 172.904 167.738C172.507 168.318 172.309 169.161 172.309 170.268V176H170.014V169.34C170.014 168.793 169.942 168.337 169.799 167.973C169.662 167.602 169.451 167.325 169.164 167.143C168.878 166.954 168.516 166.859 168.08 166.859C167.449 166.859 166.944 167.003 166.566 167.289C166.195 167.576 165.928 167.999 165.766 168.559C165.603 169.112 165.521 169.792 165.521 170.6V176H163.227V165.189H165.014L165.336 166.645H165.463C165.684 166.267 165.958 165.958 166.283 165.717C166.615 165.469 166.983 165.287 167.387 165.17C167.79 165.046 168.21 164.984 168.646 164.984C169.454 164.984 170.134 165.128 170.688 165.414C171.241 165.694 171.654 166.124 171.928 166.703H172.104C172.442 166.117 172.914 165.684 173.52 165.404C174.125 165.124 174.766 164.984 175.443 164.984ZM186.615 164.984C187.579 164.984 188.406 165.183 189.096 165.58C189.786 165.977 190.316 166.54 190.688 167.27C191.059 167.999 191.244 168.871 191.244 169.887V171.117H184.027C184.053 172.165 184.333 172.973 184.867 173.539C185.408 174.105 186.163 174.389 187.133 174.389C187.823 174.389 188.441 174.324 188.988 174.193C189.542 174.057 190.111 173.858 190.697 173.598V175.463C190.157 175.717 189.607 175.902 189.047 176.02C188.487 176.137 187.816 176.195 187.035 176.195C185.974 176.195 185.04 175.99 184.232 175.58C183.432 175.163 182.803 174.545 182.348 173.725C181.898 172.904 181.674 171.885 181.674 170.668C181.674 169.457 181.879 168.428 182.289 167.582C182.699 166.736 183.275 166.091 184.018 165.648C184.76 165.206 185.626 164.984 186.615 164.984ZM186.615 166.713C185.893 166.713 185.307 166.947 184.857 167.416C184.415 167.885 184.154 168.572 184.076 169.477H188.998C188.992 168.936 188.9 168.458 188.725 168.041C188.555 167.624 188.295 167.299 187.943 167.064C187.598 166.83 187.156 166.713 186.615 166.713ZM201.098 172.914C201.098 173.624 200.925 174.223 200.58 174.711C200.235 175.199 199.73 175.57 199.066 175.824C198.409 176.072 197.602 176.195 196.645 176.195C195.889 176.195 195.238 176.14 194.691 176.029C194.151 175.925 193.64 175.762 193.158 175.541V173.559C193.673 173.799 194.249 174.008 194.887 174.184C195.531 174.359 196.14 174.447 196.713 174.447C197.468 174.447 198.012 174.33 198.344 174.096C198.676 173.855 198.842 173.536 198.842 173.139C198.842 172.904 198.773 172.696 198.637 172.514C198.507 172.325 198.259 172.133 197.895 171.938C197.536 171.736 197.009 171.495 196.312 171.215C195.629 170.941 195.053 170.668 194.584 170.395C194.115 170.121 193.76 169.792 193.52 169.408C193.279 169.018 193.158 168.52 193.158 167.914C193.158 166.957 193.536 166.231 194.291 165.736C195.053 165.235 196.059 164.984 197.309 164.984C197.973 164.984 198.598 165.053 199.184 165.189C199.776 165.32 200.355 165.512 200.922 165.766L200.199 167.494C199.711 167.279 199.219 167.104 198.725 166.967C198.236 166.824 197.738 166.752 197.23 166.752C196.638 166.752 196.186 166.843 195.873 167.025C195.567 167.208 195.414 167.468 195.414 167.807C195.414 168.061 195.489 168.275 195.639 168.451C195.788 168.627 196.046 168.803 196.41 168.979C196.781 169.154 197.296 169.372 197.953 169.633C198.598 169.88 199.154 170.141 199.623 170.414C200.098 170.681 200.463 171.01 200.717 171.4C200.971 171.791 201.098 172.296 201.098 172.914ZM207.885 164.984C208.848 164.984 209.675 165.183 210.365 165.58C211.055 165.977 211.586 166.54 211.957 167.27C212.328 167.999 212.514 168.871 212.514 169.887V171.117H205.297C205.323 172.165 205.603 172.973 206.137 173.539C206.677 174.105 207.432 174.389 208.402 174.389C209.092 174.389 209.711 174.324 210.258 174.193C210.811 174.057 211.381 173.858 211.967 173.598V175.463C211.426 175.717 210.876 175.902 210.316 176.02C209.757 176.137 209.086 176.195 208.305 176.195C207.243 176.195 206.309 175.99 205.502 175.58C204.701 175.163 204.073 174.545 203.617 173.725C203.168 172.904 202.943 171.885 202.943 170.668C202.943 169.457 203.148 168.428 203.559 167.582C203.969 166.736 204.545 166.091 205.287 165.648C206.029 165.206 206.895 164.984 207.885 164.984ZM207.885 166.713C207.162 166.713 206.576 166.947 206.127 167.416C205.684 167.885 205.424 168.572 205.346 169.477H210.268C210.261 168.936 210.17 168.458 209.994 168.041C209.825 167.624 209.564 167.299 209.213 167.064C208.868 166.83 208.425 166.713 207.885 166.713ZM222.367 172.914C222.367 173.624 222.195 174.223 221.85 174.711C221.505 175.199 221 175.57 220.336 175.824C219.678 176.072 218.871 176.195 217.914 176.195C217.159 176.195 216.508 176.14 215.961 176.029C215.421 175.925 214.91 175.762 214.428 175.541V173.559C214.942 173.799 215.518 174.008 216.156 174.184C216.801 174.359 217.41 174.447 217.982 174.447C218.738 174.447 219.281 174.33 219.613 174.096C219.945 173.855 220.111 173.536 220.111 173.139C220.111 172.904 220.043 172.696 219.906 172.514C219.776 172.325 219.529 172.133 219.164 171.938C218.806 171.736 218.279 171.495 217.582 171.215C216.898 170.941 216.322 170.668 215.854 170.395C215.385 170.121 215.03 169.792 214.789 169.408C214.548 169.018 214.428 168.52 214.428 167.914C214.428 166.957 214.805 166.231 215.561 165.736C216.322 165.235 217.328 164.984 218.578 164.984C219.242 164.984 219.867 165.053 220.453 165.189C221.046 165.32 221.625 165.512 222.191 165.766L221.469 167.494C220.98 167.279 220.489 167.104 219.994 166.967C219.506 166.824 219.008 166.752 218.5 166.752C217.908 166.752 217.455 166.843 217.143 167.025C216.837 167.208 216.684 167.468 216.684 167.807C216.684 168.061 216.758 168.275 216.908 168.451C217.058 168.627 217.315 168.803 217.68 168.979C218.051 169.154 218.565 169.372 219.223 169.633C219.867 169.88 220.424 170.141 220.893 170.414C221.368 170.681 221.732 171.01 221.986 171.4C222.24 171.791 222.367 172.296 222.367 172.914Z" fill="white"/>
</g>
</g>
<g id="Group 762">
<g id="Group" filter="url(#filter0_d_2096_6664)">
<g id="Group_2">
<path id="Vector" d="M502.814 128.861C505.748 132.056 508.601 135.402 510.539 139.278C512.477 143.153 513.446 147.657 512.45 151.883C510.674 159.401 503.29 164.21 496.023 166.811C479.085 172.849 460.567 172.033 442.893 168.74C429.57 166.255 418.741 162.909 413.897 150.895C412.282 146.885 412.623 141.843 415.673 138.783C419.45 134.997 425.605 135.446 430.907 136.146C441.843 137.599 460.9 140.444 471.917 139.833C482.934 139.223 494.05 136.469 502.814 128.861Z" fill="white"/>
<g id="Group_3">
<path id="Vector_2" d="M442.65 91.4141C439.474 92.7781 437.024 95.4965 435.122 98.4207C433.22 101.354 431.776 104.566 429.927 107.536C429.084 108.9 428.124 110.246 426.805 111.143C424.733 112.551 422.014 112.669 419.6 112.04C417.187 111.412 415.007 110.102 412.863 108.81C412.244 105.616 410.934 102.342 408.933 99.5963C408.395 98.861 407.569 98.0804 406.718 98.3669C406.233 98.5284 405.901 99.0215 405.784 99.5329C405.668 100.044 405.73 100.574 405.802 101.094C406.036 102.817 406.395 104.53 406.825 106.297C404.385 105.212 401.864 104.306 399.298 103.579C398.49 103.355 397.584 103.148 396.857 103.57C395.897 104.117 395.735 105.544 396.247 106.54C396.758 107.535 397.736 108.173 398.705 108.693C399.673 109.213 400.705 109.68 401.468 110.496C399.566 110.308 397.628 110.568 395.843 111.258C395.259 111.482 394.613 111.869 394.56 112.496C394.506 113.151 395.125 113.645 395.699 113.95C397.278 114.784 399.045 115.242 400.821 115.277C399.43 116.292 397.107 115.789 396.2 117.269C395.438 118.534 396.542 120.275 397.941 120.679C399.341 121.082 400.83 120.589 402.203 120.095C401.333 120.454 400.444 120.822 399.789 121.513C399.134 122.204 398.802 123.29 399.251 124.124C399.834 125.219 401.323 125.326 402.543 125.209C405.037 124.976 407.504 124.429 409.747 124.151C414.413 129.211 420.504 132.898 427.098 134.656C431.117 135.724 435.649 136.02 439.21 133.831C444.064 130.852 445.49 124.446 446.244 118.723C447.503 109.187 448.113 99.1926 442.65 91.4141Z" fill="white"/>
<path id="Vector_3" d="M407.184 108.838C406.825 111.134 407.157 113.539 408.117 115.656C406.906 115.037 406.009 113.853 405.749 112.525C405.488 111.188 405.865 109.753 407.184 108.838Z" fill="white"/>
</g>
<g id="Group_4">
<g id="Group_5">
<path id="Vector_4" d="M441 133.689C441.296 135.51 441.637 137.367 442.014 139.26C451.892 145.585 462.702 149.227 474.402 147.658C486.092 146.078 499.549 140.804 506.637 133.725C503.963 126.602 501.819 119.497 499.137 112.552C497.235 107.582 495.037 102.701 492.175 97.9912C490.82 95.7659 489.313 93.5684 487.626 91.4152C473.361 88.7775 455.651 88.5622 441.171 91.0653C440.525 94.9325 440.04 98.6016 439.726 102.181C438.739 112.901 439.178 122.69 441 133.689Z" fill="white"/>
<path id="Vector_5" d="M439.726 102.18C440.982 102.88 442.291 103.481 443.601 103.965C459.455 110.066 478.223 107.554 492.183 97.9815C490.828 95.7561 489.321 93.5587 487.634 91.4055C473.369 88.7678 455.659 88.5524 441.179 91.0556C440.524 94.9314 440.049 98.6005 439.726 102.18Z" fill="white"/>
<path id="Vector_6" d="M441 133.691C441.296 135.513 441.637 137.37 442.014 139.262C451.892 145.587 462.702 149.23 474.402 147.66C486.092 146.081 499.549 140.806 506.637 133.727C503.963 126.604 501.819 119.499 499.137 112.555C492.793 134.103 463.841 145.91 441 133.691Z" fill="white"/>
</g>
<path id="Vector_7" d="M478.502 95.1821C476.304 98.4841 474.052 101.848 470.957 104.324C467.862 106.809 463.725 108.316 459.877 107.33C456.853 106.558 454.332 104.324 452.762 101.624C451.183 98.932 450.474 95.8098 450.313 93.0645C460.263 93.3874 470.203 93.7104 478.502 95.1821Z" fill="white"/>
</g>
<g id="Group_6">
<g id="Group_7">
<path id="Vector_8" d="M520.318 19.9986C520.848 25.4442 522.507 29.1767 525.297 31.6616C526.365 34.6223 527.674 37.6724 530.133 39.6372C532.591 41.6107 536.557 42.0413 538.755 39.7804C539.984 43.8629 545.062 46.2853 549.01 44.679C552.966 43.0824 554.913 37.8069 552.958 34.0119C553.81 32.0826 554.115 30.1543 553.962 28.3779C553.693 25.2558 552.042 22.5911 549.539 21.2011C550.885 19.3796 550.446 16.6342 548.92 14.9568C547.395 13.2698 545.036 12.5527 542.775 12.5344C540.505 12.5258 538.289 13.1179 536.1 13.7187C534.18 10.9378 529.883 10.7763 526.94 12.4537C525.989 12.992 525.155 13.6735 524.383 14.4454C522.794 16.0517 521.52 18.052 520.318 19.9986Z" fill="white"/>
<path id="Vector_9" d="M524.391 14.4454C528.85 12.893 534.896 14.6963 535.596 19.5497C537.193 17.6301 540.199 17.0283 542.423 18.1953C544.639 19.3613 545.85 22.1605 545.177 24.5829C548.488 24.2955 551.816 25.8565 553.969 28.3779C553.7 25.2558 552.049 22.5911 549.546 21.2011C550.892 19.3796 550.452 16.6342 548.927 14.9568C547.401 13.2698 545.042 12.5527 542.782 12.5344C540.512 12.5258 538.295 13.1179 536.107 13.7187C534.187 10.9378 529.889 10.7763 526.947 12.4537C525.997 12.992 525.154 13.6735 524.391 14.4454Z" fill="white"/>
</g>
<g id="Group_8">
<path id="Vector_10" d="M521.752 38.2143C517.575 38.2143 514.189 34.8282 514.189 30.6511C514.189 26.4741 517.575 23.0879 521.752 23.0879C525.929 23.0879 529.315 26.4741 529.315 30.6511C529.315 34.8282 525.929 38.2143 521.752 38.2143Z" fill="white"/>
<path id="Vector_11" d="M506.848 22.9398C505.888 18.8747 508.405 14.8011 512.47 13.8412C516.535 12.8813 520.609 15.3986 521.569 19.4637C522.529 23.5288 520.011 27.6024 515.946 28.5622C511.881 29.5221 507.807 27.0049 506.848 22.9398Z" fill="white"/>
</g>
</g>
<path id="Vector_12" d="M495.825 141.6L494.794 135.554C494.794 135.554 500.876 134.774 508.269 137.51C508.269 137.51 509.983 154.134 506.053 157.31C502.122 160.485 495.825 141.6 495.825 141.6Z" fill="white"/>
<g id="Group_9">
<path id="Vector_13" d="M431.086 56.8389C424.802 54.0955 418.052 55.6642 416.01 60.3417C413.968 65.0192 417.409 71.0348 423.693 73.7773C429.978 76.5207 436.728 74.952 438.77 70.2744C440.812 65.5969 437.371 59.5814 431.086 56.8389Z" fill="white"/>
<g id="Group_10">
<path id="Vector_14" d="M501.827 88.8012C484.602 103.371 453.982 99.6481 435.904 91.7619C431.651 89.9048 427.579 87.1508 425.201 83.1577C422.824 79.1656 422.743 73.4951 426.098 70.2921C420.311 51.1198 428.108 29.4356 444.149 18.6512C460.19 7.8668 482.717 9.47307 498.293 20.9304C530.51 44.6159 511.876 80.296 501.827 88.8012Z" fill="white"/>
<path id="Vector_15" d="M505.074 72.8688C504.652 63.4667 503.37 54.1002 501.126 45.0297C496.443 44.3924 493.59 41.9613 491.473 38.0586C489.32 38.6421 486.826 37.1521 485.49 35.7977C481.38 38.3816 477.181 37.0272 474.572 35.2777C471.441 35.6728 468.184 34.9009 465.555 33.1514C462.935 31.4019 460.971 28.6834 460.648 25.8756C457.283 26.6561 453.578 25.7227 451.398 23.6503C447.765 27.75 442.032 29.8677 437.052 29.3198C431.732 37.43 427.642 46.3389 424.932 55.6516C425.694 49.165 426.547 42.6515 428.566 36.4437C430.584 30.2359 433.859 24.2962 439.089 20.1243C447.748 16.7148 456.906 14.5711 466.408 13.7637C479.192 17.7116 491.591 22.8793 504.33 29.4822C507.004 35.9506 508.96 42.7246 510.144 49.6236C510.529 51.8844 510.835 54.1809 510.745 56.4687C510.52 62.0661 507.954 67.2704 505.074 72.8688Z" fill="white"/>
</g>
<g id="Group_11">
<path id="Vector_16" d="M424.483 65.0275C424.465 52.234 430.09 35.5196 436.586 26.5751C439.215 27.0144 441.664 26.8894 444.58 25.3101C448.06 23.4442 449.11 22.5195 450.429 19.8558C453.462 22.7271 458.638 23.3183 462.307 21.0584C461.823 23.7586 463.052 27.0874 465.223 29.357C467.385 31.6265 470.363 32.9819 473.405 33.8066C471.26 31.8236 470.175 28.7917 470.543 25.9118C471.288 28.6033 472.966 31.3487 475.388 33.0799C477.819 34.8025 480.959 35.5023 483.884 34.964C482.17 34.2373 480.42 33.4654 479.101 32.1379C477.791 30.8277 476.993 28.8186 477.63 27.0595C480.267 30.8546 485.292 33.2587 490.1 32.7118C491.993 36.9288 496.937 40.4095 502.042 40.3471C504.572 46.6452 505.469 53.4183 505.442 60.0933C505.424 66.777 504.508 73.4251 503.585 80.0376C506.922 79.1763 510.761 78.9792 514.539 79.3561C517.814 74.4844 519.68 68.6803 519.842 62.8214C521.08 61.4573 522.417 59.9501 523.502 58.2813C524.516 56.7202 525.314 55.0063 525.575 53.1222C526.041 49.8116 524.659 46.2857 522.049 44.1959C523.763 40.0423 524.086 35.4033 522.39 31.5823C520.703 27.7786 517.061 24.8986 512.952 24.1363C512.719 21.9293 512.145 19.7491 511.275 17.7218C510.117 15.039 508.413 12.6348 506.215 10.7959C502.348 7.57474 497.028 6.19343 492.084 7.0999C488.782 3.152 483.821 0.478711 478.626 0.0663295C476.169 -0.130729 473.656 0.192266 471.306 0.954547C468.703 1.78027 466.291 3.17025 464.289 5.01011C461.185 1.75335 454.977 0.900719 450.984 2.47142C444.705 4.92937 442.156 8.49181 442.363 12.7348C439.044 10.5547 434.8 12.2503 432.521 14.7534C431.445 15.9291 430.521 17.346 430.064 19.0599C429.552 20.9796 429.606 23.2673 430.683 25.9858C426.592 33.8691 420.833 54.4776 424.483 65.0275Z" fill="white"/>
<path id="Vector_17" d="M430.09 19.0665C431.078 18.2052 432.163 17.4699 433.338 16.8777C436.963 15.0561 441.341 14.7696 445.173 16.0789C446.581 11.0101 450.187 8.06676 454.189 7.61016C458.181 7.16125 462.353 9.252 464.407 12.7058C468.749 8.50702 473.791 6.81138 478.582 7.43908C483.373 8.05813 487.814 10.9832 490.29 15.1282C494.372 12.6251 499.576 12.2752 504.25 13.7469C506.834 14.563 509.247 15.9357 511.292 17.7121C510.135 15.0292 508.43 12.6251 506.232 10.7862C502.366 7.565 497.045 6.18367 492.101 7.09014C488.799 3.14223 483.838 0.468945 478.644 0.0565639C476.186 -0.140495 473.673 0.1825 471.323 0.944781C468.721 1.77051 466.308 3.16048 464.306 5.00034C461.203 1.74358 454.994 0.890953 451.002 2.46166C444.722 4.9196 442.173 8.48204 442.38 12.7251C439.061 10.5449 434.817 12.2406 432.539 14.7437C431.473 15.9347 430.558 17.3526 430.09 19.0665Z" fill="white"/>
</g>
<path id="Vector_18" d="M522.442 77.4244C520.938 72.547 514.407 70.2313 507.854 72.2518C501.301 74.2724 497.207 79.8631 498.711 84.7406C500.214 89.618 506.745 91.9337 513.299 89.9131C519.852 87.8926 523.946 82.3019 522.442 77.4244Z" fill="white"/>
<g id="Group_12">
<g id="Group_13">
<path id="Vector_19" d="M491.062 49.9187C490.111 46.958 487.374 43.0908 484.557 41.7902C481.739 40.4896 477.738 40.2022 475.648 43.7012C480.664 43.0553 485.329 44.7423 491.062 49.9187Z" fill="white"/>
<path id="Vector_20" d="M429.847 44.1755C431.928 40.8024 433.758 39.5547 436.388 38.9087C439.007 38.2627 442.578 39.4826 443.861 42.426C439.321 40.9995 434.127 41.7887 429.847 44.1755Z" fill="white"/>
</g>
<g id="Group_14">
<path id="Vector_21" d="M479.191 58.1167C477.525 57.8975 475.952 59.4211 475.677 61.5186C475.401 63.6161 476.527 65.4943 478.193 65.7135C479.859 65.9327 481.433 64.4091 481.708 62.3116C481.983 60.2141 480.856 58.3358 479.191 58.1167Z" fill="white"/>
<path id="Vector_22" d="M436.863 54.2148C435.184 54.2148 433.821 55.9297 433.821 58.0455C433.821 60.1612 435.184 61.8761 436.863 61.8761C438.542 61.8761 439.904 60.1612 439.904 58.0455C439.904 55.9297 438.542 54.2148 436.863 54.2148Z" fill="white"/>
</g>
<g id="Group_15">
<g id="Vector_23">
<path d="M452.483 58.5215C451.326 60.5219 451.021 63.0077 451.658 65.2321L452.483 58.5215Z" fill="white"/>
<path d="M452.483 58.5215C451.326 60.5219 451.021 63.0077 451.658 65.2321" stroke="#7D1D2D" stroke-width="0.9333" stroke-miterlimit="10" stroke-linecap="round"/>
</g>
<g id="Group_16">
<path id="Vector_24" d="M441.171 75.5769C441.144 77.6311 441.978 79.6412 443.189 81.3186C443.189 81.3272 443.198 81.3272 443.198 81.3368C445.881 85.0511 450.465 87.312 455.031 87.1678C459.607 87.0333 464.048 84.4946 466.488 80.637C467.026 79.7757 467.483 78.8337 467.761 77.8647C468.049 76.9313 468.174 75.9451 468.103 74.9665C467.941 72.9662 466.775 71.0013 464.935 70.2112C462.513 69.1797 459.786 70.3457 457.229 70.9917C453.03 72.0501 448.867 69.4575 444.552 69.7988C441.709 70.0141 441.189 73.5044 441.171 75.5769Z" fill="white"/>
<path id="Vector_25" d="M443.19 81.3181C443.19 81.3267 443.199 81.3267 443.199 81.3363C445.881 85.0506 450.466 87.3115 455.032 87.1673C459.607 87.0328 464.048 84.4941 466.488 80.6365C467.026 79.7752 467.484 78.8332 467.762 77.8642C463.733 76.2849 459.418 75.4419 455.13 75.8369C450.681 76.2493 446.267 78.1151 443.19 81.3181Z" fill="white"/>
</g>
</g>
</g>
</g>
<g id="Group_17">
<g id="Group_18">
<g id="Group_19">
<path id="Vector_26" d="M417.44 182.754C418.32 183.382 419.486 183.338 420.562 183.274C427.148 182.835 433.714 182.054 440.147 180.574C442.246 180.09 444.57 179.345 445.512 177.425C445.916 176.582 445.996 175.603 445.817 174.68C445.718 174.15 445.547 173.63 445.323 173.137C444.696 171.8 443.69 170.688 442.704 169.584C437.76 170.176 432.979 169.727 428.331 170.526C425.12 171.064 421.863 172.356 419.494 174.51C418.426 175.478 417.538 176.609 416.919 177.936C416.184 179.524 416.022 181.723 417.44 182.754Z" fill="white"/>
<path id="Vector_27" d="M419.494 174.51C428.125 176.483 437.178 176.546 445.816 174.68C445.717 174.15 445.547 173.63 445.323 173.137C444.696 171.8 443.69 170.688 442.704 169.584C437.76 170.176 432.979 169.727 428.331 170.526C425.119 171.064 421.863 172.348 419.494 174.51Z" fill="white"/>
</g>
<path id="Vector_28" d="M437.16 145.327C435.159 141.971 432.458 138.751 428.547 137.153C424.635 135.556 419.638 135.745 416.364 138.221C412.523 141.119 411.941 146.134 412.372 150.565C413.152 158.684 414.274 166.616 419.576 173.299C429.696 173.299 439.018 172.985 444.921 170.922C443.718 166.087 442.471 154.236 437.16 145.327Z" fill="white"/>
</g>
<g id="Group_20">
<g id="Group_21">
<path id="Vector_29" d="M456.906 175.983C459.947 179.294 464.603 181.223 469.036 180.442C471.045 180.092 472.957 179.123 474.49 177.768C476.339 176.162 477.666 174 478.034 171.694C475.881 166.921 473.423 162.283 469.951 158.488C468.829 159.233 467.574 159.718 466.29 160.085C464.882 160.489 463.402 160.766 461.975 161.116C459.239 161.789 456.359 162.901 454.87 165.307C452.815 168.608 454.278 173.112 456.906 175.983Z" fill="white"/>
<path id="Vector_30" d="M466.282 160.095C467.538 166.536 470.4 172.655 474.491 177.778C476.339 176.172 477.667 174.01 478.035 171.704C475.882 166.931 473.424 162.293 469.952 158.498C468.829 159.243 467.574 159.718 466.282 160.095Z" fill="white"/>
</g>
<path id="Vector_31" d="M507.632 147.452C508.439 142.733 505.066 137.951 500.696 136.327C496.327 134.704 491.348 135.797 487.329 138.193C479.847 142.661 473.854 150.421 467.511 158.227C470.794 164.713 473.827 169.603 478.511 175.084C484.449 171.917 491.331 169.396 496.606 165.028C501.872 160.667 506.295 155.266 507.632 147.452Z" fill="white"/>
</g>
</g>
<path id="Vector_32" d="M531.846 138.855C531.846 138.855 525.664 115.708 499.073 98.5455C496.104 96.6259 492.362 95.3512 488.98 96.3923C485.337 97.5045 482.385 101.605 481.99 105.391C480.33 121.414 486.951 122.563 501.881 130.062C508.492 133.382 515.383 137.616 518.039 145.593C517.384 146.284 516.711 146.984 516.28 147.835C515.841 148.688 515.661 149.711 516.02 150.599C516.379 151.487 517.374 152.133 518.299 151.899C519.421 151.622 519.986 150.284 521.305 150.132C522.31 152.177 523.396 154.178 524.562 156.134C524.84 156.6 525.145 157.084 525.593 157.39C526.042 157.695 526.697 157.785 527.127 157.453C527.567 157.111 527.639 156.475 527.647 155.918C527.683 154.312 527.548 152.707 527.262 151.128C528.168 152.689 529.38 154.061 530.815 155.156C531.371 155.578 532.152 155.964 532.726 155.56C533.138 155.272 533.219 154.699 533.21 154.196C533.192 152.599 532.636 151.011 531.641 149.763C532.951 150.58 534.332 151.271 535.777 151.827C536.199 151.989 536.683 152.142 537.087 151.935C537.472 151.738 537.644 151.244 537.59 150.813C537.536 150.383 537.302 149.987 537.06 149.629C536.207 148.355 535.14 147.233 533.83 146.435C534.53 146.238 535.275 146.345 535.992 146.443C536.71 146.542 537.464 146.632 538.145 146.408C538.837 146.174 539.437 145.528 539.365 144.801C539.311 144.29 538.953 143.868 538.585 143.501C537.319 142.228 531.846 138.855 531.846 138.855Z" fill="white"/>
</g>
</g>
<g id="Group_22">
<g id="Group_23">
<path id="Vector_33" d="M501.392 126.092C504.18 129.127 506.891 132.306 508.732 135.989C510.574 139.672 511.494 143.951 510.548 147.966C508.86 155.109 501.845 159.679 494.939 162.151C478.845 167.887 461.25 167.112 444.457 163.984C431.798 161.623 421.509 158.443 416.905 147.028C415.371 143.217 415.695 138.427 418.593 135.52C422.182 131.922 428.03 132.348 433.068 133.013C443.459 134.394 461.566 137.097 472.034 136.517C482.502 135.937 493.064 133.32 501.392 126.092Z" fill="#AF87CE"/>
<g id="Group_24">
<path id="Vector_34" d="M444.226 90.5117C441.208 91.8078 438.881 94.3908 437.073 97.1692C435.266 99.9568 433.894 103.008 432.137 105.831C431.336 107.127 430.424 108.405 429.171 109.258C427.202 110.596 424.619 110.707 422.325 110.11C420.032 109.513 417.96 108.268 415.923 107.041C415.335 104.006 414.09 100.895 412.19 98.2863C411.678 97.5876 410.894 96.8459 410.084 97.1181C409.624 97.2715 409.309 97.7401 409.197 98.226C409.087 98.7119 409.146 99.2152 409.215 99.7093C409.437 101.346 409.777 102.975 410.187 104.653C407.868 103.622 405.473 102.761 403.034 102.07C402.267 101.858 401.405 101.661 400.715 102.062C399.802 102.582 399.649 103.937 400.135 104.884C400.621 105.83 401.55 106.435 402.47 106.929C403.391 107.424 404.371 107.867 405.096 108.643C403.289 108.464 401.447 108.711 399.751 109.367C399.197 109.58 398.583 109.947 398.532 110.544C398.481 111.166 399.069 111.635 399.614 111.925C401.115 112.717 402.794 113.152 404.482 113.186C403.16 114.15 400.952 113.672 400.091 115.078C399.367 116.28 400.415 117.935 401.745 118.318C403.075 118.702 404.49 118.233 405.794 117.764C404.968 118.104 404.124 118.454 403.501 119.111C402.879 119.768 402.563 120.799 402.989 121.592C403.544 122.632 404.958 122.734 406.118 122.623C408.488 122.401 410.831 121.881 412.963 121.617C417.396 126.425 423.184 129.929 429.449 131.599C433.268 132.614 437.574 132.896 440.958 130.815C445.569 127.984 446.925 121.898 447.641 116.46C448.837 107.399 449.417 97.9027 444.226 90.5117Z" fill="#AF87CE"/>
<path id="Vector_35" d="M410.528 107.066C410.187 109.248 410.503 111.534 411.415 113.545C410.264 112.957 409.412 111.831 409.165 110.57C408.917 109.3 409.275 107.936 410.528 107.066Z" fill="#AF87CE"/>
</g>
<g id="Group_25">
<g id="Group_26">
<path id="Vector_36" d="M442.657 130.678C442.938 132.409 443.263 134.174 443.621 135.972C453.006 141.982 463.278 145.443 474.395 143.951C485.502 142.451 498.289 137.439 505.023 130.713C502.483 123.945 500.446 117.193 497.897 110.595C496.09 105.872 494.002 101.235 491.282 96.7597C489.995 94.6452 488.563 92.5573 486.96 90.5113C473.405 88.005 456.579 87.8005 442.82 90.1789C442.206 93.8533 441.745 97.3397 441.447 100.741C440.509 110.927 440.926 120.228 442.657 130.678Z" fill="#AF87CE"/>
<path id="Vector_37" d="M441.446 100.739C442.64 101.404 443.884 101.975 445.128 102.436C460.192 108.233 478.025 105.845 491.289 96.7499C490.002 94.6355 488.57 92.5475 486.967 90.5016C473.413 87.9953 456.586 87.7907 442.827 90.1691C442.205 93.8518 441.753 97.3381 441.446 100.739Z" fill="#AF87CE"/>
<path id="Vector_38" d="M442.657 130.679C442.938 132.41 443.263 134.174 443.621 135.973C453.006 141.983 463.278 145.443 474.395 143.952C485.502 142.451 498.289 137.44 505.023 130.713C502.483 123.945 500.446 117.194 497.897 110.596C491.869 131.071 464.36 142.289 442.657 130.679Z" fill="#AF87CE"/>
</g>
<path id="Vector_39" d="M478.29 94.0903C476.201 97.2277 474.062 100.424 471.121 102.776C468.18 105.137 464.25 106.57 460.593 105.632C457.72 104.899 455.324 102.776 453.833 100.211C452.332 97.6533 451.659 94.6867 451.506 92.0781C460.96 92.385 470.405 92.6919 478.29 94.0903Z" fill="#AF87CE"/>
</g>
<g id="Group_27">
<g id="Group_28">
<path id="Vector_40" d="M518.023 22.6547C518.526 27.8289 520.102 31.3755 522.754 33.7365C523.769 36.5497 525.013 39.4478 527.349 41.3147C529.684 43.1899 533.452 43.599 535.541 41.4508C536.709 45.3299 541.534 47.6316 545.285 46.1053C549.044 44.5882 550.894 39.5757 549.036 35.9697C549.846 34.1366 550.136 32.3044 549.99 30.6165C549.735 27.6499 548.166 25.118 545.788 23.7973C547.067 22.0665 546.649 19.4579 545.2 17.8641C543.75 16.2611 541.509 15.5797 539.361 15.5624C537.204 15.5542 535.098 16.1168 533.018 16.6876C531.194 14.0453 527.111 13.8918 524.315 15.4857C523.411 15.9971 522.619 16.6447 521.885 17.3782C520.375 18.9044 519.165 20.8051 518.023 22.6547Z" fill="#AF87CE"/>
<path id="Vector_41" d="M521.893 17.3782C526.13 15.9031 531.875 17.6166 532.54 22.2281C534.057 20.4041 536.913 19.8324 539.027 20.9412C541.132 22.0491 542.283 24.7088 541.643 27.0105C544.789 26.7374 547.952 28.2207 549.997 30.6165C549.741 27.6499 548.173 25.118 545.795 23.7973C547.073 22.0665 546.656 19.4579 545.206 17.8641C543.757 16.2611 541.516 15.5797 539.367 15.5624C537.211 15.5542 535.105 16.1168 533.025 16.6876C531.201 14.0453 527.117 13.8918 524.321 15.4857C523.419 15.9971 522.618 16.6447 521.893 17.3782Z" fill="#AF87CE"/>
</g>
<g id="Group_29">
<path id="Vector_42" d="M519.386 39.9606C515.417 39.9606 512.2 36.7432 512.2 32.7743C512.2 28.8053 515.417 25.5879 519.386 25.5879C523.355 25.5879 526.572 28.8053 526.572 32.7743C526.572 36.7432 523.355 39.9606 519.386 39.9606Z" fill="#AF87CE"/>
<path id="Vector_43" d="M505.224 25.4497C504.312 21.5872 506.704 17.7166 510.567 16.8045C514.429 15.8925 518.3 18.2843 519.212 22.1469C520.124 26.0094 517.732 29.88 513.87 30.792C510.007 31.7041 506.136 29.3123 505.224 25.4497Z" fill="#AF87CE"/>
</g>
</g>
<path id="Vector_44" d="M494.752 138.196L493.772 132.451C493.772 132.451 499.551 131.71 506.575 134.31C506.575 134.31 508.204 150.106 504.47 153.124C500.735 156.14 494.752 138.196 494.752 138.196Z" fill="#AF87CE"/>
<g id="Group_30">
<path id="Vector_45" d="M433.237 57.6583C427.265 55.0516 420.852 56.5422 418.912 60.9866C416.972 65.431 420.241 71.1469 426.212 73.7527C432.184 76.3595 438.597 74.8689 440.537 70.4244C442.477 65.98 439.208 60.2641 433.237 57.6583Z" fill="#AF87CE"/>
<g id="Group_31">
<path id="Vector_46" d="M500.453 88.0279C484.085 101.872 454.991 98.3343 437.814 90.8411C433.774 89.0764 429.904 86.4596 427.645 82.6655C425.386 78.8723 425.309 73.4844 428.497 70.441C422.999 52.224 430.407 31.6203 445.648 21.3732C460.89 11.1262 482.295 12.6524 497.094 23.5388C527.707 46.0441 510.001 79.9464 500.453 88.0279Z" fill="#AF87CE"/>
<path id="Vector_47" d="M503.539 72.8886C503.138 63.955 501.92 55.0552 499.788 46.4366C495.338 45.8311 492.627 43.5212 490.616 39.8129C488.57 40.3673 486.2 38.9516 484.93 37.6647C481.026 40.1198 477.036 38.8329 474.556 37.1706C471.582 37.546 468.487 36.8125 465.989 35.1502C463.5 33.4879 461.633 30.9049 461.326 28.2369C458.129 28.9786 454.608 28.0917 452.538 26.1225C449.085 30.018 443.638 32.0301 438.907 31.5095C433.851 39.2156 429.965 47.6806 427.39 56.5293C428.114 50.3659 428.925 44.177 430.843 38.2785C432.761 32.3799 435.873 26.7363 440.842 22.7723C449.069 19.5326 457.771 17.4957 466.799 16.7285C478.947 20.4797 490.727 25.39 502.832 31.6639C505.372 37.8099 507.231 44.2464 508.356 50.8016C508.723 52.9498 509.013 55.1319 508.927 57.3057C508.713 62.6242 506.276 67.5692 503.539 72.8886Z" fill="#AF87CE"/>
</g>
<g id="Group_32">
<path id="Vector_48" d="M426.962 65.4382C426.945 53.2823 432.29 37.4006 438.462 28.9018C440.96 29.3192 443.287 29.2005 446.057 27.6998C449.365 25.927 450.362 25.0483 451.615 22.5174C454.497 25.2456 459.415 25.8073 462.902 23.66C462.441 26.2256 463.609 29.3886 465.672 31.5451C467.726 33.7015 470.556 34.9894 473.446 35.773C471.409 33.8888 470.377 31.008 470.727 28.2716C471.435 30.829 473.029 33.4375 475.331 35.0825C477.641 36.7193 480.624 37.3842 483.403 36.8727C481.774 36.1822 480.112 35.4488 478.859 34.1874C477.614 32.9425 476.856 31.0336 477.461 29.3621C479.967 32.9681 484.741 35.2524 489.31 34.7327C491.108 38.7396 495.806 42.0469 500.656 41.9876C503.06 47.9719 503.913 54.4075 503.887 60.7499C503.87 67.1006 503 73.4174 502.122 79.7004C505.294 78.8821 508.942 78.6948 512.531 79.0529C515.643 74.4239 517.416 68.909 517.569 63.3421C518.746 62.046 520.016 60.6138 521.047 59.0282C522.011 57.5449 522.769 55.9164 523.017 54.1262C523.459 50.9806 522.147 47.6303 519.666 45.6447C521.295 41.698 521.602 37.2901 519.991 33.6595C518.388 30.0453 514.927 27.3089 511.023 26.5846C510.801 24.4875 510.256 22.416 509.429 20.4897C508.33 17.9405 506.71 15.6561 504.621 13.9089C500.947 10.8482 495.892 9.53571 491.195 10.397C488.057 6.64582 483.344 4.10574 478.408 3.7139C476.072 3.52666 473.685 3.83356 471.452 4.55786C468.979 5.34244 466.687 6.66316 464.785 8.41135C461.836 5.31686 455.936 4.50672 452.143 5.99916C446.176 8.33463 443.755 11.7196 443.951 15.7512C440.797 13.6796 436.765 15.2908 434.6 17.6692C433.577 18.7863 432.699 20.1326 432.265 21.7611C431.779 23.5851 431.83 25.7589 432.853 28.3419C428.966 35.8324 423.493 55.4141 426.962 65.4382Z" fill="#AF87CE"/>
<path id="Vector_49" d="M432.29 21.7669C433.228 20.9485 434.259 20.2498 435.376 19.6871C438.82 17.9563 442.98 17.6841 446.62 18.9281C447.958 14.1119 451.385 11.3152 455.188 10.8814C458.981 10.4548 462.945 12.4414 464.897 15.7231C469.023 11.7335 473.813 10.1224 478.365 10.7188C482.918 11.307 487.137 14.0864 489.49 18.0248C493.368 15.6464 498.313 15.3139 502.754 16.7123C505.209 17.4877 507.503 18.792 509.445 20.4799C508.346 17.9307 506.726 15.6464 504.637 13.8991C500.964 10.8384 495.908 9.52594 491.211 10.3872C488.073 6.63605 483.36 4.09597 478.424 3.70414C476.088 3.5169 473.701 3.8238 471.468 4.5481C468.995 5.33268 466.703 6.6534 464.801 8.40158C461.852 5.3071 455.952 4.49695 452.159 5.98939C446.192 8.32486 443.771 11.7098 443.967 15.7414C440.813 13.6699 436.781 15.2811 434.616 17.6595C433.603 18.7911 432.734 20.1383 432.29 21.7669Z" fill="#AF87CE"/>
</g>
<path id="Vector_50" d="M520.04 77.2162C518.612 72.5818 512.406 70.3815 506.179 72.3014C499.953 74.2213 496.063 79.5334 497.492 84.1678C498.92 88.8023 505.126 91.0026 511.353 89.0827C517.58 87.1628 521.47 81.8506 520.04 77.2162Z" fill="#AF87CE"/>
<g id="Group_33">
<g id="Group_34">
<path id="Vector_51" d="M490.225 51.0841C489.321 48.271 486.721 44.5965 484.044 43.3607C481.367 42.125 477.565 41.8519 475.579 45.1765C480.345 44.5627 484.777 46.1657 490.225 51.0841Z" fill="#AF87CE"/>
<path id="Vector_52" d="M432.061 45.6273C434.038 42.4223 435.777 41.2368 438.276 40.623C440.764 40.0092 444.158 41.1682 445.377 43.965C441.063 42.6095 436.127 43.3594 432.061 45.6273Z" fill="#AF87CE"/>
</g>
<g id="Group_35">
<path id="Vector_53" d="M478.945 58.8754C477.362 58.6671 475.867 60.1148 475.605 62.1078C475.343 64.1008 476.414 65.8855 477.996 66.0937C479.579 66.302 481.075 64.8543 481.336 62.8613C481.597 60.8683 480.527 59.0836 478.945 58.8754Z" fill="#AF87CE"/>
<path id="Vector_54" d="M438.726 55.166C437.131 55.166 435.836 56.7954 435.836 58.8058C435.836 60.8161 437.131 62.4455 438.726 62.4455C440.322 62.4455 441.616 60.8161 441.616 58.8058C441.616 56.7954 440.322 55.166 438.726 55.166Z" fill="#AF87CE"/>
</g>
<g id="Group_36">
<g id="Vector_55">
<path d="M453.569 59.2578C452.47 61.1585 452.18 63.5205 452.785 65.634L453.569 59.2578Z" fill="#AF87CE"/>
<path d="M453.569 59.2578C452.47 61.1585 452.18 63.5205 452.785 65.634" stroke="#7D1D2D" stroke-width="0.9333" stroke-miterlimit="10" stroke-linecap="round"/>
</g>
<g id="Group_37">
<path id="Vector_56" d="M442.82 75.4632C442.795 77.4151 443.588 79.325 444.738 80.9188C444.738 80.927 444.747 80.927 444.747 80.9361C447.296 84.4654 451.652 86.6136 455.99 86.4766C460.338 86.3487 464.558 83.9365 466.876 80.2712C467.387 79.4528 467.822 78.5577 468.086 77.6371C468.359 76.7502 468.478 75.8131 468.41 74.8833C468.257 72.9826 467.149 71.1156 465.401 70.3648C463.099 69.3848 460.508 70.4927 458.078 71.1065C454.089 72.1121 450.133 69.6488 446.033 69.973C443.332 70.1776 442.838 73.494 442.82 75.4632Z" fill="#AF87CE"/>
<path id="Vector_57" d="M444.738 80.9171C444.738 80.9253 444.747 80.9253 444.747 80.9344C447.296 84.4637 451.652 86.6119 455.99 86.4749C460.338 86.347 464.558 83.9348 466.876 80.2695C467.387 79.4511 467.822 78.556 468.086 77.6354C464.258 76.1347 460.158 75.3337 456.083 75.7091C451.856 76.1009 447.662 77.8738 444.738 80.9171Z" fill="#AF87CE"/>
</g>
</g>
</g>
</g>
<g id="Group_38">
<g id="Group_39">
<g id="Group_40">
<path id="Vector_58" d="M420.273 177.299C421.108 177.896 422.216 177.854 423.239 177.793C429.497 177.376 435.736 176.634 441.848 175.228C443.843 174.767 446.051 174.059 446.946 172.235C447.329 171.434 447.406 170.505 447.235 169.627C447.141 169.124 446.979 168.63 446.767 168.161C446.17 166.89 445.215 165.834 444.278 164.785C439.58 165.348 435.037 164.921 430.621 165.68C427.57 166.192 424.475 167.419 422.225 169.465C421.21 170.386 420.366 171.46 419.778 172.721C419.079 174.23 418.925 176.319 420.273 177.299Z" fill="#AF87CE"/>
<path id="Vector_59" d="M422.224 169.465C430.425 171.34 439.026 171.401 447.234 169.627C447.14 169.124 446.979 168.63 446.766 168.161C446.169 166.89 445.214 165.834 444.277 164.785C439.579 165.348 435.036 164.921 430.62 165.68C427.569 166.192 424.474 167.411 422.224 169.465Z" fill="#AF87CE"/>
</g>
<path id="Vector_60" d="M439.009 141.735C437.109 138.547 434.542 135.487 430.826 133.969C427.109 132.452 422.36 132.631 419.25 134.984C415.601 137.737 415.047 142.502 415.456 146.713C416.198 154.427 417.264 161.963 422.302 168.314C431.918 168.314 440.775 168.015 446.384 166.055C445.241 161.461 444.056 150.2 439.009 141.735Z" fill="#AF87CE"/>
</g>
<g id="Group_41">
<g id="Group_42">
<path id="Vector_61" d="M457.771 170.863C460.661 174.009 465.085 175.842 469.297 175.1C471.206 174.767 473.022 173.847 474.479 172.56C476.236 171.033 477.497 168.979 477.847 166.788C475.801 162.253 473.465 157.846 470.166 154.24C469.1 154.948 467.907 155.408 466.688 155.757C465.35 156.141 463.943 156.405 462.588 156.737C459.988 157.377 457.251 158.433 455.836 160.719C453.884 163.856 455.274 168.135 457.771 170.863Z" fill="#AF87CE"/>
<path id="Vector_62" d="M466.68 155.767C467.874 161.888 470.593 167.701 474.48 172.569C476.236 171.043 477.498 168.989 477.848 166.798C475.802 162.263 473.466 157.856 470.167 154.25C469.1 154.958 467.907 155.409 466.68 155.767Z" fill="#AF87CE"/>
</g>
<path id="Vector_63" d="M505.969 143.754C506.736 139.27 503.531 134.726 499.379 133.183C495.228 131.641 490.497 132.68 486.678 134.956C479.568 139.201 473.874 146.575 467.847 153.992C470.967 160.155 473.849 164.801 478.299 170.009C483.941 167 490.48 164.605 495.493 160.454C500.496 156.311 504.698 151.178 505.969 143.754Z" fill="#AF87CE"/>
</g>
</g>
<path id="Vector_64" d="M528.977 135.588C528.977 135.588 523.103 113.594 497.837 97.2868C495.015 95.4628 491.461 94.2517 488.246 95.2409C484.786 96.2977 481.981 100.194 481.605 103.791C480.028 119.016 486.319 120.107 500.505 127.233C506.787 130.387 513.334 134.411 515.857 141.99C515.235 142.646 514.596 143.311 514.187 144.121C513.769 144.931 513.599 145.903 513.939 146.746C514.28 147.59 515.226 148.204 516.105 147.982C517.171 147.718 517.708 146.448 518.961 146.303C519.916 148.246 520.948 150.147 522.056 152.006C522.319 152.449 522.61 152.909 523.036 153.199C523.462 153.489 524.084 153.575 524.493 153.259C524.911 152.935 524.979 152.33 524.987 151.801C525.021 150.275 524.893 148.749 524.621 147.249C525.482 148.732 526.633 150.036 527.997 151.077C528.526 151.478 529.267 151.844 529.813 151.46C530.205 151.187 530.281 150.642 530.273 150.164C530.256 148.647 529.728 147.138 528.782 145.953C530.026 146.728 531.339 147.385 532.712 147.914C533.113 148.067 533.573 148.212 533.957 148.016C534.323 147.829 534.486 147.359 534.434 146.95C534.383 146.541 534.161 146.166 533.931 145.825C533.121 144.615 532.107 143.549 530.862 142.79C531.527 142.603 532.235 142.705 532.916 142.798C533.599 142.892 534.315 142.977 534.962 142.764C535.619 142.542 536.19 141.928 536.121 141.238C536.07 140.752 535.73 140.351 535.38 140.002C534.177 138.793 528.977 135.588 528.977 135.588Z" fill="#AF87CE"/>
</g>
</g>
</g>
</g>
<defs>
<filter id="filter0_d_2096_6664" x="390.557" y="0" width="167.443" height="191.309" filterUnits="userSpaceOnUse" color-interpolation-filters="sRGB">
<feFlood flood-opacity="0" result="BackgroundImageFix"/>
<feColorMatrix in="SourceAlpha" type="matrix" values="0 0 0 0 0 0 0 0 0 0 0 0 0 0 0 0 0 0 127 0" result="hardAlpha"/>
<feOffset dy="4"/>
<feGaussianBlur stdDeviation="2"/>
<feComposite in2="hardAlpha" operator="out"/>
<feColorMatrix type="matrix" values="0 0 0 0 0 0 0 0 0 0 0 0 0 0 0 0 0 0 0.25 0"/>
<feBlend mode="normal" in2="BackgroundImageFix" result="effect1_dropShadow_2096_6664"/>
<feBlend mode="normal" in="SourceGraphic" in2="effect1_dropShadow_2096_6664" result="shape"/>
</filter>
</defs>
</svg>
