<svg width="1149" height="1326" viewBox="0 0 1149 1326" fill="none" xmlns="http://www.w3.org/2000/svg">
<g filter="url(#filter0_d_2216_4531)">
<rect x="4" y="156" width="365" height="346" rx="12" fill="#EBDAEE" shape-rendering="crispEdges"/>
<text fill="black" xml:space="preserve" style="white-space: pre" font-family="Open Sans" font-size="18" letter-spacing="0em"><tspan x="28" y="207.483">Perde habilidades adquiridas.&#xa0;&#10;</tspan><tspan x="28" y="240.483">Cai muito ou tem dificuldades em </tspan><tspan x="28" y="265.483">subir/descer degrau.&#10;</tspan><tspan x="28" y="298.483">Faz pouco contato visual, ou </tspan><tspan x="28" y="323.483">nenhum.&#10;</tspan><tspan x="28" y="356.483">N&#xe3;o tem interesse por pessoas, </tspan><tspan x="28" y="381.483">brinquedos/objetos/coisas. </tspan><tspan x="28" y="406.483">Demonstra interesse demasiado por </tspan><tspan x="28" y="431.483">algum objeto espec&#xed;fico.&#xa0;&#10;</tspan><tspan x="28" y="464.483">N&#xe3;o brinca de faz de conta.</tspan></text>
</g>
<g filter="url(#filter1_d_2216_4531)">
<rect x="4" y="518" width="365" height="421" rx="12" fill="#EBDAEE" shape-rendering="crispEdges"/>
<text fill="black" xml:space="preserve" style="white-space: pre" font-family="Open Sans" font-size="18" letter-spacing="0em"><tspan x="28" y="561.483">N&#xe3;o responde/atende a comandos </tspan><tspan x="28" y="586.483">simples.&#10;</tspan><tspan x="28" y="619.483">&#xc9; demasiadamente &#x201c;teimosa&#x201d; e chora </tspan><tspan x="28" y="644.483">sempre que algo lhe &#xe9; negado; nem </tspan><tspan x="28" y="669.483">sempre controla a &#x201c;birra&#x201d;.&#10;</tspan><tspan x="28" y="702.483">Apresenta seletividade alimentar.&#xa0;&#10;</tspan><tspan x="28" y="735.483">N&#xe3;o usa frases para se comunicar.&#xa0;&#10;</tspan><tspan x="28" y="768.483">N&#xe3;o consegue manusear brinquedos/</tspan><tspan x="28" y="793.483">objetos e coisas simples.&#10;</tspan><tspan x="28" y="826.483">N&#xe3;o consegue pular erguendo os </tspan><tspan x="28" y="851.483">dois p&#xe9;s do ch&#xe3;o.&#xa0;&#10;</tspan><tspan x="28" y="884.483">N&#xe3;o &#xe9; capaz de apontar partes de </tspan><tspan x="28" y="909.483">seu corpo.</tspan></text>
</g>
<g filter="url(#filter2_d_2216_4531)">
<rect x="4" y="955" width="365" height="357" rx="12" fill="#EBDAEE" shape-rendering="crispEdges"/>
<text fill="black" xml:space="preserve" style="white-space: pre" font-family="Open Sans" font-size="18" letter-spacing="0em"><tspan x="28" y="1078.48">N&#xe3;o &#xe9; capaz de pedalar.&#xa0;&#10;</tspan><tspan x="28" y="1111.48">N&#xe3;o sabe seu primeiro nome.&#xa0;&#10;</tspan><tspan x="28" y="1144.48">Apresenta uma linguagem </tspan><tspan x="28" y="1169.48">inintelig&#xed;vel.&#10;</tspan><tspan x="28" y="1202.48">N&#xe3;o controla a mic&#xe7;&#xe3;o diurna.</tspan></text>
</g>
<g filter="url(#filter3_d_2216_4531)">
<rect x="392" y="156" width="365" height="347" rx="12" fill="#DDBFE3" shape-rendering="crispEdges"/>
<text fill="black" xml:space="preserve" style="white-space: pre" font-family="Open Sans" font-size="18" letter-spacing="0em"><tspan x="416" y="203.983">Perda de habilidades adquiridas.&#10;</tspan><tspan x="416" y="236.983">N&#xe3;o demonstra interesse em jogos </tspan><tspan x="416" y="261.983">de faz de conta e jogos interativos.&#10;</tspan><tspan x="416" y="294.983">N&#xe3;o consegue contar uma hist&#xf3;ria </tspan><tspan x="416" y="319.983">preferida.&#10;</tspan><tspan x="416" y="352.983">N&#xe3;o segue comandos de tr&#xea;s </tspan><tspan x="416" y="377.983">instru&#xe7;&#xf5;es.&#xa0;&#10;</tspan><tspan x="416" y="410.983">N&#xe3;o entende dentro e fora, igual e </tspan><tspan x="416" y="435.983">diferente.&#10;</tspan><tspan x="416" y="468.983">N&#xe3;o usa &#x201c;eu&#x201d; e &#x201c;voc&#xea;&#x201d; corretamente.</tspan></text>
</g>
<g filter="url(#filter4_d_2216_4531)">
<rect x="392" y="519" width="365" height="420" rx="12" fill="#DDBFE3" shape-rendering="crispEdges"/>
<text fill="black" xml:space="preserve" style="white-space: pre" font-family="Open Sans" font-size="18" letter-spacing="0em"><tspan x="416" y="594.983">Faz pouco contato visual ou </tspan><tspan x="416" y="619.983">nenhum.&#xa0;&#10;</tspan><tspan x="416" y="652.983">Tem resist&#xea;ncia ao novo, &#xe0; mudan&#xe7;a </tspan><tspan x="416" y="677.983">de rotina.&#10;</tspan><tspan x="416" y="710.983">Chora incessantemente quando algo </tspan><tspan x="416" y="735.983">lhe &#xe9; negado ou, aparentemente, </tspan><tspan x="416" y="760.983">sem motivo.&#xa0;&#10;</tspan><tspan x="416" y="793.983">N&#xe3;o cont&#xe9;m a birra.&#xa0;&#10;</tspan><tspan x="416" y="826.983">Fala de forma incompreens&#xed;vel ou </tspan><tspan x="416" y="851.983">fala apenas palavras repetidas de </tspan><tspan x="416" y="876.983">desenhos/filmes.</tspan></text>
</g>
<g filter="url(#filter5_d_2216_4531)">
<rect x="392" y="955" width="365" height="360" rx="12" fill="#DDBFE3" shape-rendering="crispEdges"/>
<text fill="black" xml:space="preserve" style="white-space: pre" font-family="Open Sans" font-size="18" letter-spacing="0em"><tspan x="416" y="1050.98">N&#xe3;o consegue pular no mesmo local.&#10;</tspan><tspan x="416" y="1083.98">Apresenta dificuldade para rabiscar.&#10;</tspan><tspan x="416" y="1116.98">Ignora outras crian&#xe7;as ou n&#xe3;o </tspan><tspan x="416" y="1141.98">responde a pessoas fora da fam&#xed;lia.&#10;</tspan><tspan x="416" y="1174.98">N&#xe3;o interage.&#10;</tspan><tspan x="416" y="1207.98">Resiste &#xe0; troca de roupa, &#xe0; hora de </tspan><tspan x="416" y="1232.98">dormir e a ir ao banheiro.</tspan></text>
</g>
<g filter="url(#filter6_d_2216_4531)">
<rect x="780" y="156" width="365" height="349" rx="12" fill="#CB9FD3" shape-rendering="crispEdges"/>
<text fill="black" xml:space="preserve" style="white-space: pre" font-family="Open Sans" font-size="18" letter-spacing="0em"><tspan x="804" y="258.983">Perda de habilidades adquiridas.&#xa0;&#10;</tspan><tspan x="804" y="291.983">N&#xe3;o fala seu nome e sobrenome.&#xa0;&#10;</tspan><tspan x="804" y="324.983">N&#xe3;o responde &#xe0;s pessoas, ou </tspan><tspan x="804" y="349.983">responde superficialmente.&#10;</tspan><tspan x="804" y="382.983">Apresenta fala incompreens&#xed;vel.&#xa0;&#10;</tspan><tspan x="804" y="415.983">Pouco vocabul&#xe1;rio na hora da fala.</tspan></text>
</g>
<g filter="url(#filter7_d_2216_4531)">
<rect x="780" y="521" width="365" height="420" rx="12" fill="#CB9FD3" shape-rendering="crispEdges"/>
<text fill="black" xml:space="preserve" style="white-space: pre" font-family="Open Sans" font-size="18" letter-spacing="0em"><tspan x="804" y="609.483">N&#xe3;o compreende o que &#xe9; falado.&#xa0;&#10;</tspan><tspan x="804" y="642.483">N&#xe3;o demonstra suas emo&#xe7;&#xf5;es.&#xa0;&#10;</tspan><tspan x="804" y="675.483">Demonstra comportamentos </tspan><tspan x="804" y="700.483">extremos (exemplo: timidez ou </tspan><tspan x="804" y="725.483">tristeza, medo, agressividade).&#xa0;&#10;</tspan><tspan x="804" y="758.483">Distrai-se com facilidade e tem </tspan><tspan x="804" y="783.483">dificuldade em se focar, por mais de </tspan><tspan x="804" y="808.483">5 minutos, na atividade.&#xa0;&#10;</tspan><tspan x="804" y="841.483">N&#xe3;o diz sobre as experi&#xea;ncias ou </tspan><tspan x="804" y="866.483">atividades di&#xe1;rias.</tspan></text>
</g>
<g filter="url(#filter8_d_2216_4531)">
<rect x="780" y="957" width="365" height="361" rx="12" fill="#CB9FD3" shape-rendering="crispEdges"/>
<text fill="black" xml:space="preserve" style="white-space: pre" font-family="Open Sans" font-size="18" letter-spacing="0em"><tspan x="804" y="1003.48">N&#xe3;o consegue separar o real do </tspan><tspan x="804" y="1028.48">imagin&#xe1;rio.&#10;</tspan><tspan x="804" y="1061.48">N&#xe3;o utiliza plural e tempo passado </tspan><tspan x="804" y="1086.48">corretamente.&#xa0;&#10;</tspan><tspan x="804" y="1119.48">N&#xe3;o brinca ou participa de uma s&#xe9;rie </tspan><tspan x="804" y="1144.48">de atividades e jogos.&#xa0;&#10;</tspan><tspan x="804" y="1177.48">N&#xe3;o consegue desenhar.&#10;</tspan><tspan x="804" y="1210.48">N&#xe3;o realiza nenhuma atividade da </tspan><tspan x="804" y="1235.48">vida di&#xe1;ria ou da rotina (exemplo: </tspan><tspan x="804" y="1260.48">lavar as m&#xe3;os, escovar os dentes, se </tspan><tspan x="804" y="1285.48">despir sem ajuda).</tspan></text>
</g>
<rect x="4" y="94" width="362" height="48" rx="12" fill="#EBDAEE"/>
<text fill="black" xml:space="preserve" style="white-space: pre" font-family="Open Sans" font-size="20" font-weight="600" letter-spacing="0em"><tspan x="99.5" y="125.759">Ao fim dos 3 anos</tspan></text>
<rect x="394" y="94" width="362" height="48" rx="12" fill="#DDBFE3"/>
<text fill="black" xml:space="preserve" style="white-space: pre" font-family="Open Sans" font-size="20" font-weight="600" letter-spacing="0em"><tspan x="489.5" y="125.759">Ao fim dos 4 anos</tspan></text>
<rect x="780" y="94" width="362" height="48" rx="12" fill="#CB9FD3"/>
<text fill="black" xml:space="preserve" style="white-space: pre" font-family="Open Sans" font-size="20" font-weight="600" letter-spacing="0em"><tspan x="875.5" y="125.759">Ao fim dos 5 anos</tspan></text>
<g filter="url(#filter9_d_2216_4531)">
<circle cx="589" cy="52" r="52" fill="white"/>
<circle cx="589" cy="52" r="50.5" stroke="#D4D5DD" stroke-width="3"/>
</g>
<path d="M601.424 67.4642L602.702 72.4754C603.883 77.1087 601.084 81.8229 596.451 83.004C591.817 84.1855 587.102 81.3865 585.921 76.7534L584.644 71.7422L601.424 67.4642Z" fill="#ED9C1B"/>
<path d="M619.94 64.0798C620.469 66.1554 619.215 68.2664 617.14 68.7955L571.483 80.4351C569.408 80.9641 567.297 79.711 566.767 77.6353C566.586 76.9225 566.613 76.1897 566.826 75.5147C567.038 74.8392 567.435 74.2224 567.992 73.7417C569.177 72.7194 570.021 71.4062 570.472 69.9701C570.924 68.5333 570.983 66.9731 570.597 65.457L566.844 50.7355C564.433 41.2783 568.95 31.6815 577.212 27.3098C577.143 27.1312 577.084 26.947 577.036 26.757C576.365 24.1252 577.954 21.4478 580.586 20.7769C583.218 20.106 585.895 21.6956 586.566 24.3273C586.615 24.5173 586.651 24.7071 586.676 24.8971C590.544 24.8482 594.277 25.892 597.496 27.803C602.055 30.5098 605.581 34.9557 606.994 40.4997L610.747 55.2211C611.52 58.2534 613.942 60.5869 617 61.2477C617.719 61.4031 618.363 61.7544 618.873 62.2459C619.383 62.7369 619.758 63.3669 619.94 64.0798Z" fill="#FFBD17"/>
<path d="M576.762 35.294C575.137 37.2951 573.625 40.9687 574.076 46.0719C574.153 46.9506 573.514 47.7305 572.637 47.8211C572.626 47.8216 572.614 47.8236 572.603 47.8241C571.682 47.9194 570.87 47.2191 570.828 46.2941C570.735 44.2613 570.802 41.8402 571.535 39.6067C572.254 37.4176 573.53 35.4164 575.196 33.827C575.645 33.3992 576.365 33.4543 576.753 33.937L576.766 33.9524C577.082 34.3448 577.079 34.903 576.762 35.294Z" fill="white"/>
<path d="M574.09 53.8734C575.05 53.6287 575.63 52.652 575.385 51.6919C575.14 50.7318 574.163 50.1519 573.203 50.3967C572.243 50.6414 571.663 51.6181 571.908 52.5782C572.153 53.5383 573.13 54.1182 574.09 53.8734Z" fill="white"/>
<defs>
<filter id="filter0_d_2216_4531" x="0" y="156" width="373" height="354" filterUnits="userSpaceOnUse" color-interpolation-filters="sRGB">
<feFlood flood-opacity="0" result="BackgroundImageFix"/>
<feColorMatrix in="SourceAlpha" type="matrix" values="0 0 0 0 0 0 0 0 0 0 0 0 0 0 0 0 0 0 127 0" result="hardAlpha"/>
<feOffset dy="4"/>
<feGaussianBlur stdDeviation="2"/>
<feComposite in2="hardAlpha" operator="out"/>
<feColorMatrix type="matrix" values="0 0 0 0 0 0 0 0 0 0 0 0 0 0 0 0 0 0 0.25 0"/>
<feBlend mode="normal" in2="BackgroundImageFix" result="effect1_dropShadow_2216_4531"/>
<feBlend mode="normal" in="SourceGraphic" in2="effect1_dropShadow_2216_4531" result="shape"/>
</filter>
<filter id="filter1_d_2216_4531" x="0" y="518" width="373" height="429" filterUnits="userSpaceOnUse" color-interpolation-filters="sRGB">
<feFlood flood-opacity="0" result="BackgroundImageFix"/>
<feColorMatrix in="SourceAlpha" type="matrix" values="0 0 0 0 0 0 0 0 0 0 0 0 0 0 0 0 0 0 127 0" result="hardAlpha"/>
<feOffset dy="4"/>
<feGaussianBlur stdDeviation="2"/>
<feComposite in2="hardAlpha" operator="out"/>
<feColorMatrix type="matrix" values="0 0 0 0 0 0 0 0 0 0 0 0 0 0 0 0 0 0 0.25 0"/>
<feBlend mode="normal" in2="BackgroundImageFix" result="effect1_dropShadow_2216_4531"/>
<feBlend mode="normal" in="SourceGraphic" in2="effect1_dropShadow_2216_4531" result="shape"/>
</filter>
<filter id="filter2_d_2216_4531" x="0" y="955" width="373" height="365" filterUnits="userSpaceOnUse" color-interpolation-filters="sRGB">
<feFlood flood-opacity="0" result="BackgroundImageFix"/>
<feColorMatrix in="SourceAlpha" type="matrix" values="0 0 0 0 0 0 0 0 0 0 0 0 0 0 0 0 0 0 127 0" result="hardAlpha"/>
<feOffset dy="4"/>
<feGaussianBlur stdDeviation="2"/>
<feComposite in2="hardAlpha" operator="out"/>
<feColorMatrix type="matrix" values="0 0 0 0 0 0 0 0 0 0 0 0 0 0 0 0 0 0 0.25 0"/>
<feBlend mode="normal" in2="BackgroundImageFix" result="effect1_dropShadow_2216_4531"/>
<feBlend mode="normal" in="SourceGraphic" in2="effect1_dropShadow_2216_4531" result="shape"/>
</filter>
<filter id="filter3_d_2216_4531" x="388" y="156" width="373" height="355" filterUnits="userSpaceOnUse" color-interpolation-filters="sRGB">
<feFlood flood-opacity="0" result="BackgroundImageFix"/>
<feColorMatrix in="SourceAlpha" type="matrix" values="0 0 0 0 0 0 0 0 0 0 0 0 0 0 0 0 0 0 127 0" result="hardAlpha"/>
<feOffset dy="4"/>
<feGaussianBlur stdDeviation="2"/>
<feComposite in2="hardAlpha" operator="out"/>
<feColorMatrix type="matrix" values="0 0 0 0 0 0 0 0 0 0 0 0 0 0 0 0 0 0 0.25 0"/>
<feBlend mode="normal" in2="BackgroundImageFix" result="effect1_dropShadow_2216_4531"/>
<feBlend mode="normal" in="SourceGraphic" in2="effect1_dropShadow_2216_4531" result="shape"/>
</filter>
<filter id="filter4_d_2216_4531" x="388" y="519" width="373" height="428" filterUnits="userSpaceOnUse" color-interpolation-filters="sRGB">
<feFlood flood-opacity="0" result="BackgroundImageFix"/>
<feColorMatrix in="SourceAlpha" type="matrix" values="0 0 0 0 0 0 0 0 0 0 0 0 0 0 0 0 0 0 127 0" result="hardAlpha"/>
<feOffset dy="4"/>
<feGaussianBlur stdDeviation="2"/>
<feComposite in2="hardAlpha" operator="out"/>
<feColorMatrix type="matrix" values="0 0 0 0 0 0 0 0 0 0 0 0 0 0 0 0 0 0 0.25 0"/>
<feBlend mode="normal" in2="BackgroundImageFix" result="effect1_dropShadow_2216_4531"/>
<feBlend mode="normal" in="SourceGraphic" in2="effect1_dropShadow_2216_4531" result="shape"/>
</filter>
<filter id="filter5_d_2216_4531" x="388" y="955" width="373" height="368" filterUnits="userSpaceOnUse" color-interpolation-filters="sRGB">
<feFlood flood-opacity="0" result="BackgroundImageFix"/>
<feColorMatrix in="SourceAlpha" type="matrix" values="0 0 0 0 0 0 0 0 0 0 0 0 0 0 0 0 0 0 127 0" result="hardAlpha"/>
<feOffset dy="4"/>
<feGaussianBlur stdDeviation="2"/>
<feComposite in2="hardAlpha" operator="out"/>
<feColorMatrix type="matrix" values="0 0 0 0 0 0 0 0 0 0 0 0 0 0 0 0 0 0 0.25 0"/>
<feBlend mode="normal" in2="BackgroundImageFix" result="effect1_dropShadow_2216_4531"/>
<feBlend mode="normal" in="SourceGraphic" in2="effect1_dropShadow_2216_4531" result="shape"/>
</filter>
<filter id="filter6_d_2216_4531" x="776" y="156" width="373" height="357" filterUnits="userSpaceOnUse" color-interpolation-filters="sRGB">
<feFlood flood-opacity="0" result="BackgroundImageFix"/>
<feColorMatrix in="SourceAlpha" type="matrix" values="0 0 0 0 0 0 0 0 0 0 0 0 0 0 0 0 0 0 127 0" result="hardAlpha"/>
<feOffset dy="4"/>
<feGaussianBlur stdDeviation="2"/>
<feComposite in2="hardAlpha" operator="out"/>
<feColorMatrix type="matrix" values="0 0 0 0 0 0 0 0 0 0 0 0 0 0 0 0 0 0 0.25 0"/>
<feBlend mode="normal" in2="BackgroundImageFix" result="effect1_dropShadow_2216_4531"/>
<feBlend mode="normal" in="SourceGraphic" in2="effect1_dropShadow_2216_4531" result="shape"/>
</filter>
<filter id="filter7_d_2216_4531" x="776" y="521" width="373" height="428" filterUnits="userSpaceOnUse" color-interpolation-filters="sRGB">
<feFlood flood-opacity="0" result="BackgroundImageFix"/>
<feColorMatrix in="SourceAlpha" type="matrix" values="0 0 0 0 0 0 0 0 0 0 0 0 0 0 0 0 0 0 127 0" result="hardAlpha"/>
<feOffset dy="4"/>
<feGaussianBlur stdDeviation="2"/>
<feComposite in2="hardAlpha" operator="out"/>
<feColorMatrix type="matrix" values="0 0 0 0 0 0 0 0 0 0 0 0 0 0 0 0 0 0 0.25 0"/>
<feBlend mode="normal" in2="BackgroundImageFix" result="effect1_dropShadow_2216_4531"/>
<feBlend mode="normal" in="SourceGraphic" in2="effect1_dropShadow_2216_4531" result="shape"/>
</filter>
<filter id="filter8_d_2216_4531" x="776" y="957" width="373" height="369" filterUnits="userSpaceOnUse" color-interpolation-filters="sRGB">
<feFlood flood-opacity="0" result="BackgroundImageFix"/>
<feColorMatrix in="SourceAlpha" type="matrix" values="0 0 0 0 0 0 0 0 0 0 0 0 0 0 0 0 0 0 127 0" result="hardAlpha"/>
<feOffset dy="4"/>
<feGaussianBlur stdDeviation="2"/>
<feComposite in2="hardAlpha" operator="out"/>
<feColorMatrix type="matrix" values="0 0 0 0 0 0 0 0 0 0 0 0 0 0 0 0 0 0 0.25 0"/>
<feBlend mode="normal" in2="BackgroundImageFix" result="effect1_dropShadow_2216_4531"/>
<feBlend mode="normal" in="SourceGraphic" in2="effect1_dropShadow_2216_4531" result="shape"/>
</filter>
<filter id="filter9_d_2216_4531" x="533" y="0" width="112" height="112" filterUnits="userSpaceOnUse" color-interpolation-filters="sRGB">
<feFlood flood-opacity="0" result="BackgroundImageFix"/>
<feColorMatrix in="SourceAlpha" type="matrix" values="0 0 0 0 0 0 0 0 0 0 0 0 0 0 0 0 0 0 127 0" result="hardAlpha"/>
<feOffset dy="4"/>
<feGaussianBlur stdDeviation="2"/>
<feComposite in2="hardAlpha" operator="out"/>
<feColorMatrix type="matrix" values="0 0 0 0 0 0 0 0 0 0 0 0 0 0 0 0 0 0 0.25 0"/>
<feBlend mode="normal" in2="BackgroundImageFix" result="effect1_dropShadow_2216_4531"/>
<feBlend mode="normal" in="SourceGraphic" in2="effect1_dropShadow_2216_4531" result="shape"/>
</filter>
</defs>
</svg>
