<svg width="167" height="82" viewBox="0 0 167 82" fill="none" xmlns="http://www.w3.org/2000/svg">
<path d="M86.6756 4.14644C85.0746 2.05596 81.9254 2.05595 80.3244 4.14643L60.2804 30.3179C58.2649 32.9495 60.1412 36.75 63.456 36.75L103.544 36.75C106.859 36.75 108.735 32.9495 106.72 30.3179L86.6756 4.14644Z" fill="#938CCB"/>
<path d="M0.792 63.576C0.728 63.448 0.688 63.344 0.672 63.264C0.656 63.184 0.648 63.104 0.648 63.024C0.648 62.752 0.792 62.512 1.08 62.304C1.384 62.08 1.704 61.968 2.04 61.968C2.264 61.968 2.448 62.008 2.592 62.088C2.752 62.152 2.896 62.304 3.024 62.544C3.424 63.296 3.792 64.136 4.128 65.064C4.464 65.992 4.792 66.976 5.112 68.016C5.432 69.056 5.744 70.144 6.048 71.28C6.4 70.144 6.768 69.072 7.152 68.064C7.536 67.04 7.936 66.064 8.352 65.136C8.768 64.192 9.208 63.28 9.672 62.4C9.784 62.192 9.928 62.048 10.104 61.968C10.296 61.888 10.488 61.848 10.68 61.848C11.016 61.848 11.32 61.936 11.592 62.112C11.864 62.288 12.024 62.504 12.072 62.76C12.152 62.872 12.176 63 12.144 63.144C12.128 63.288 12.08 63.424 12 63.552C11.696 64.144 11.296 64.936 10.8 65.928C10.32 66.92 9.784 68.128 9.192 69.552C8.616 70.96 8.024 72.6 7.416 74.472C7.32 74.744 7.136 74.952 6.864 75.096C6.608 75.24 6.304 75.312 5.952 75.312C5.408 75.312 5.008 75.152 4.752 74.832C4.512 74.512 4.344 74.136 4.248 73.704C4.168 73.4 4.032 72.944 3.84 72.336C3.648 71.712 3.424 71.008 3.168 70.224C2.912 69.44 2.632 68.64 2.328 67.824C2.04 66.992 1.76 66.208 1.488 65.472C1.232 64.72 1 64.088 0.792 63.576ZM21.9818 68.712C21.9818 68.264 21.9418 67.768 21.8618 67.224C21.7978 66.68 21.6458 66.144 21.4058 65.616C21.1658 65.072 20.7978 64.616 20.3018 64.248C20.1418 64.12 20.0138 63.992 19.9178 63.864C19.8378 63.72 19.7978 63.536 19.7978 63.312C19.7978 62.928 19.9338 62.656 20.2058 62.496C20.4778 62.32 20.7738 62.232 21.0938 62.232C21.5738 62.232 22.0298 62.432 22.4618 62.832C22.8938 63.216 23.2778 63.72 23.6138 64.344C23.9658 64.968 24.2378 65.648 24.4297 66.384C24.6378 67.104 24.7418 67.8 24.7418 68.472C24.7418 69.72 24.4778 70.84 23.9498 71.832C23.4378 72.824 22.7098 73.616 21.7658 74.208C20.8378 74.784 19.7418 75.072 18.4778 75.072C17.5498 75.072 16.7418 74.904 16.0538 74.568C15.3818 74.232 14.8298 73.776 14.3978 73.2C13.9658 72.624 13.6378 71.984 13.4138 71.28C13.2058 70.56 13.1018 69.832 13.1018 69.096C13.1018 68.232 13.2378 67.368 13.5098 66.504C13.7818 65.64 14.1738 64.856 14.6858 64.152C15.2138 63.448 15.8458 62.888 16.5818 62.472C17.3178 62.04 18.1418 61.824 19.0538 61.824C19.4218 61.824 19.8058 61.864 20.2058 61.944C20.6058 62.008 20.9498 62.128 21.2378 62.304C21.5258 62.48 21.6698 62.736 21.6698 63.072C21.6698 63.44 21.5738 63.744 21.3818 63.984C21.1898 64.224 20.9098 64.344 20.5418 64.344C20.2538 64.344 20.0218 64.312 19.8458 64.248C19.6858 64.184 19.4298 64.152 19.0778 64.152C18.5018 64.152 17.9658 64.376 17.4698 64.824C16.9898 65.256 16.6058 65.824 16.3178 66.528C16.0298 67.232 15.8858 67.992 15.8858 68.808C15.8858 69.656 15.9898 70.368 16.1978 70.944C16.4218 71.52 16.7338 71.96 17.1338 72.264C17.5498 72.568 18.0458 72.72 18.6218 72.72C19.1178 72.72 19.6218 72.568 20.1338 72.264C20.6618 71.96 21.1018 71.512 21.4538 70.92C21.8058 70.312 21.9818 69.576 21.9818 68.712ZM28.4447 56.28C28.4767 55.896 28.6207 55.624 28.8767 55.464C29.1487 55.288 29.4447 55.2 29.7647 55.2C29.9887 55.2 30.2047 55.24 30.4127 55.32C30.6207 55.4 30.7887 55.528 30.9167 55.704C31.0447 55.88 31.0927 56.128 31.0607 56.448C30.9327 58.352 30.8287 60.296 30.7487 62.28C30.6847 64.248 30.6207 66.224 30.5567 68.208C30.5087 70.176 30.4287 72.136 30.3167 74.088C30.2847 74.52 30.1327 74.824 29.8607 75C29.5887 75.176 29.2847 75.264 28.9487 75.264C28.7247 75.264 28.5087 75.224 28.3007 75.144C28.1087 75.064 27.9487 74.944 27.8207 74.784C27.6927 74.608 27.6367 74.376 27.6527 74.088C27.7807 72.136 27.8687 70.168 27.9167 68.184C27.9807 66.2 28.0447 64.216 28.1087 62.232C28.1887 60.232 28.3007 58.248 28.4447 56.28ZM35.5078 59.856C35.5558 59.52 35.6918 59.28 35.9158 59.136C36.1558 58.992 36.4118 58.92 36.6838 58.92C36.9558 58.92 37.2198 58.976 37.4758 59.088C37.7478 59.184 37.9558 59.344 38.0998 59.568C38.2598 59.792 38.2918 60.08 38.1958 60.432C38.1318 60.784 38.0678 61.128 38.0038 61.464C37.9558 61.8 37.8998 62.168 37.8358 62.568C37.8038 62.856 37.7638 63.24 37.7158 63.72C37.6678 64.2 37.6198 64.712 37.5718 65.256C37.5398 65.8 37.5078 66.32 37.4758 66.816C37.4598 67.296 37.4518 67.696 37.4518 68.016C37.4518 68.704 37.4678 69.36 37.4998 69.984C37.5478 70.592 37.6198 71.104 37.7158 71.52C37.7958 71.872 37.8918 72.16 38.0038 72.384C38.1318 72.608 38.2758 72.72 38.4358 72.72C38.5798 72.72 38.7238 72.688 38.8678 72.624C39.0278 72.544 39.2198 72.4 39.4438 72.192C39.6038 72.032 39.7798 71.912 39.9718 71.832C40.1638 71.752 40.3238 71.712 40.4518 71.712C40.6598 71.712 40.8518 71.768 41.0278 71.88C41.2038 71.976 41.3478 72.112 41.4598 72.288C41.5718 72.464 41.6278 72.648 41.6278 72.84C41.6278 73.096 41.5638 73.328 41.4358 73.536C41.3238 73.728 41.1798 73.904 41.0038 74.064C40.6518 74.4 40.2038 74.68 39.6598 74.904C39.1158 75.112 38.5798 75.216 38.0518 75.216C37.4278 75.216 36.8918 75.064 36.4438 74.76C36.0118 74.44 35.6758 74.008 35.4358 73.464C35.2438 73.112 35.0918 72.68 34.9798 72.168C34.8678 71.656 34.7878 71.128 34.7398 70.584C34.6918 70.024 34.6598 69.512 34.6438 69.048C34.6278 68.584 34.6198 68.224 34.6198 67.968C34.6198 66.576 34.7078 65.192 34.8838 63.816C35.0758 62.44 35.2838 61.12 35.5078 59.856ZM34.5238 64.8C34.0598 64.864 33.7398 64.768 33.5638 64.512C33.3878 64.256 33.2998 63.968 33.2998 63.648C33.2998 63.344 33.3798 63.088 33.5398 62.88C33.7158 62.672 34.0038 62.544 34.4038 62.496C35.0118 62.4 35.6518 62.328 36.3238 62.28C36.9958 62.232 37.6678 62.192 38.3398 62.16C39.0118 62.128 39.6438 62.096 40.2358 62.064C40.5878 62.032 40.8598 62.128 41.0518 62.352C41.2438 62.576 41.3478 62.832 41.3638 63.12C41.3798 63.488 41.2758 63.792 41.0518 64.032C40.8438 64.256 40.5718 64.376 40.2358 64.392C39.6438 64.424 39.0118 64.464 38.3398 64.512C37.6838 64.544 37.0278 64.584 36.3718 64.632C35.7158 64.68 35.0998 64.736 34.5238 64.8ZM43.3384 69.24C43.3384 67.768 43.6024 66.52 44.1304 65.496C44.6744 64.472 45.3864 63.688 46.2664 63.144C47.1624 62.6 48.1304 62.328 49.1704 62.328C49.5704 62.328 49.9624 62.368 50.3464 62.448C50.7464 62.528 51.1304 62.632 51.4984 62.76C51.8824 62.888 52.2344 63.04 52.5544 63.216L52.6744 62.784C52.7544 62.56 52.8984 62.376 53.1064 62.232C53.3304 62.072 53.5704 61.992 53.8264 61.992C54.2104 61.992 54.5384 62.12 54.8104 62.376C55.0984 62.616 55.2424 62.936 55.2424 63.336C55.2424 63.592 55.2184 63.936 55.1704 64.368C55.1224 64.8 55.0424 65.32 54.9304 65.928C54.8344 66.52 54.6984 67.168 54.5224 67.872C54.3624 68.56 54.1544 69.28 53.8984 70.032C53.8984 70.752 53.9464 71.32 54.0424 71.736C54.1544 72.152 54.3064 72.448 54.4984 72.624C54.6904 72.8 54.9304 72.888 55.2184 72.888C55.4264 72.888 55.6184 72.792 55.7944 72.6C55.9864 72.392 56.1704 72.128 56.3464 71.808C56.4584 71.664 56.5784 71.552 56.7064 71.472C56.8344 71.376 57.0024 71.328 57.2104 71.328C57.5144 71.328 57.7544 71.44 57.9304 71.664C58.1224 71.872 58.2184 72.112 58.2184 72.384C58.2184 72.592 58.1704 72.824 58.0744 73.08C57.9944 73.32 57.8744 73.536 57.7144 73.728C57.3784 74.176 56.9624 74.544 56.4664 74.832C55.9704 75.12 55.4344 75.264 54.8584 75.264C54.4264 75.264 54.0104 75.176 53.6104 75C53.2104 74.824 52.8504 74.56 52.5304 74.208C52.2264 73.856 51.9864 73.424 51.8104 72.912C51.2984 73.632 50.7224 74.176 50.0824 74.544C49.4424 74.912 48.7144 75.096 47.8984 75.096C46.9864 75.096 46.1864 74.848 45.4984 74.352C44.8104 73.856 44.2744 73.176 43.8904 72.312C43.5224 71.432 43.3384 70.408 43.3384 69.24ZM46.1704 69.096C46.1704 69.576 46.2184 70.032 46.3144 70.464C46.4104 70.896 46.5464 71.28 46.7224 71.616C46.9144 71.952 47.1464 72.216 47.4184 72.408C47.7064 72.584 48.0344 72.672 48.4024 72.672C49.1224 72.672 49.6984 72.424 50.1304 71.928C50.5624 71.432 50.9784 70.776 51.3784 69.96C51.3784 69.384 51.4024 68.816 51.4504 68.256C51.4984 67.68 51.5624 67.144 51.6424 66.648C51.7384 66.152 51.8344 65.736 51.9304 65.4C51.4984 65.16 51.0904 64.976 50.7064 64.848C50.3224 64.704 49.9224 64.632 49.5064 64.632C48.8664 64.632 48.2904 64.808 47.7784 65.16C47.2824 65.512 46.8904 66.024 46.6024 66.696C46.3144 67.352 46.1704 68.152 46.1704 69.096ZM60.4496 63.144C60.4816 62.728 60.6256 62.432 60.8816 62.256C61.1536 62.08 61.4976 61.992 61.9136 61.992C62.3296 61.992 62.6416 62.08 62.8496 62.256C63.0736 62.432 63.1856 62.688 63.1856 63.024C63.1856 63.2 63.1776 63.392 63.1616 63.6C63.1616 63.808 63.1536 64.104 63.1376 64.488C63.5856 63.656 64.0976 63.024 64.6736 62.592C65.2656 62.16 65.9296 61.944 66.6656 61.944C67.0176 61.944 67.4016 61.992 67.8176 62.088C68.2496 62.168 68.6816 62.336 69.1136 62.592C69.3056 62.704 69.4496 62.84 69.5456 63C69.6416 63.16 69.6896 63.36 69.6896 63.6C69.6896 63.792 69.6416 64 69.5456 64.224C69.4496 64.432 69.3136 64.616 69.1376 64.776C68.9616 64.936 68.7536 65.016 68.5136 65.016C68.2576 65.016 68.0336 64.976 67.8416 64.896C67.6496 64.816 67.4576 64.736 67.2656 64.656C67.0736 64.576 66.8256 64.536 66.5216 64.536C65.9616 64.536 65.4576 64.744 65.0096 65.16C64.5616 65.56 64.1696 66.104 63.8336 66.792C63.4976 67.464 63.2256 68.192 63.0176 68.976C63.0016 69.744 62.9856 70.432 62.9696 71.04C62.9536 71.632 62.9376 72.184 62.9216 72.696C62.9056 73.192 62.8816 73.688 62.8496 74.184C62.8336 74.488 62.7456 74.728 62.5856 74.904C62.4416 75.08 62.2656 75.2 62.0576 75.264C61.8496 75.344 61.6336 75.384 61.4096 75.384C60.9936 75.384 60.6816 75.272 60.4736 75.048C60.2656 74.824 60.1296 74.536 60.0656 74.184C60.0176 73.832 59.9936 73.456 59.9936 73.056C59.9936 72.864 59.9936 72.64 59.9936 72.384C60.0096 72.128 60.0256 71.856 60.0416 71.568C60.0576 71.28 60.0736 71 60.0896 70.728C60.1056 70.44 60.1296 70.168 60.1616 69.912C60.1936 69.64 60.2256 69.408 60.2576 69.216L60.4496 63.144ZM89.5352 75.408C89.1992 75.408 88.8792 75.336 88.5752 75.192C88.2712 75.064 87.9992 74.8 87.7592 74.4C87.5192 74 87.3192 73.416 87.1592 72.648C86.7432 73.384 86.2152 73.984 85.5752 74.448C84.9512 74.912 84.2072 75.144 83.3432 75.144C82.3512 75.144 81.4872 74.888 80.7512 74.376C80.0312 73.848 79.4712 73.144 79.0712 72.264C78.6712 71.368 78.4712 70.376 78.4712 69.288C78.4712 68.376 78.6232 67.48 78.9272 66.6C79.2312 65.704 79.6632 64.896 80.2232 64.176C80.7832 63.456 81.4392 62.88 82.1912 62.448C82.9592 62 83.7832 61.776 84.6632 61.776C85.1272 61.776 85.6232 61.864 86.1512 62.04C86.6952 62.2 87.2232 62.44 87.7352 62.76C87.7832 62.44 87.9112 62.208 88.1192 62.064C88.3432 61.904 88.6072 61.824 88.9112 61.824C89.2312 61.824 89.4872 61.896 89.6792 62.04C89.8872 62.184 90.0392 62.36 90.1352 62.568C90.2312 62.776 90.2792 63 90.2792 63.24C90.2792 63.384 90.2632 63.536 90.2312 63.696C90.2152 63.856 90.1912 64.024 90.1592 64.2C90.1272 64.376 90.0872 64.568 90.0392 64.776C89.9752 65.176 89.9032 65.712 89.8232 66.384C89.7432 67.04 89.6712 67.72 89.6072 68.424C89.5592 69.112 89.5352 69.704 89.5352 70.2C89.5352 70.648 89.5432 71.064 89.5592 71.448C89.5752 71.816 89.6072 72.144 89.6552 72.432C89.7032 72.704 89.7752 72.936 89.8712 73.128C90.1432 72.968 90.3752 72.792 90.5672 72.6C90.7752 72.408 90.9352 72.256 91.0472 72.144C91.1752 72 91.3032 71.904 91.4312 71.856C91.5592 71.792 91.6872 71.76 91.8152 71.76C92.1032 71.76 92.3352 71.856 92.5112 72.048C92.7032 72.24 92.7992 72.472 92.7992 72.744C92.7992 72.856 92.7752 72.992 92.7272 73.152C92.6952 73.296 92.6392 73.416 92.5592 73.512C92.1272 74.152 91.6392 74.632 91.0952 74.952C90.5672 75.256 90.0472 75.408 89.5352 75.408ZM83.7512 72.792C84.2472 72.792 84.6872 72.6 85.0712 72.216C85.4552 71.816 85.7912 71.264 86.0792 70.56C86.3832 69.856 86.6392 69.032 86.8472 68.088L87.2792 65.112C86.8472 64.76 86.4312 64.496 86.0312 64.32C85.6472 64.144 85.2312 64.056 84.7832 64.056C84.4312 64.056 84.0552 64.16 83.6552 64.368C83.2552 64.576 82.8712 64.904 82.5032 65.352C82.1512 65.784 81.8632 66.336 81.6392 67.008C81.4152 67.68 81.3032 68.472 81.3032 69.384C81.3032 69.992 81.3832 70.56 81.5432 71.088C81.7192 71.6 81.9832 72.016 82.3352 72.336C82.7032 72.64 83.1752 72.792 83.7512 72.792ZM102.794 68.712C102.794 68.264 102.754 67.768 102.674 67.224C102.61 66.68 102.458 66.144 102.218 65.616C101.978 65.072 101.61 64.616 101.114 64.248C100.954 64.12 100.826 63.992 100.73 63.864C100.65 63.72 100.61 63.536 100.61 63.312C100.61 62.928 100.746 62.656 101.018 62.496C101.29 62.32 101.586 62.232 101.906 62.232C102.386 62.232 102.842 62.432 103.274 62.832C103.706 63.216 104.09 63.72 104.426 64.344C104.778 64.968 105.05 65.648 105.242 66.384C105.45 67.104 105.554 67.8 105.554 68.472C105.554 69.72 105.29 70.84 104.762 71.832C104.25 72.824 103.522 73.616 102.578 74.208C101.65 74.784 100.554 75.072 99.2903 75.072C98.3623 75.072 97.5543 74.904 96.8663 74.568C96.1943 74.232 95.6423 73.776 95.2103 73.2C94.7783 72.624 94.4503 71.984 94.2263 71.28C94.0183 70.56 93.9143 69.832 93.9143 69.096C93.9143 68.232 94.0503 67.368 94.3223 66.504C94.5943 65.64 94.9863 64.856 95.4983 64.152C96.0263 63.448 96.6583 62.888 97.3943 62.472C98.1303 62.04 98.9543 61.824 99.8663 61.824C100.234 61.824 100.618 61.864 101.018 61.944C101.418 62.008 101.762 62.128 102.05 62.304C102.338 62.48 102.482 62.736 102.482 63.072C102.482 63.44 102.386 63.744 102.194 63.984C102.002 64.224 101.722 64.344 101.354 64.344C101.066 64.344 100.834 64.312 100.658 64.248C100.498 64.184 100.242 64.152 99.8903 64.152C99.3143 64.152 98.7783 64.376 98.2823 64.824C97.8023 65.256 97.4183 65.824 97.1303 66.528C96.8423 67.232 96.6983 67.992 96.6983 68.808C96.6983 69.656 96.8023 70.368 97.0103 70.944C97.2343 71.52 97.5463 71.96 97.9463 72.264C98.3623 72.568 98.8583 72.72 99.4343 72.72C99.9303 72.72 100.434 72.568 100.946 72.264C101.474 71.96 101.914 71.512 102.266 70.92C102.618 70.312 102.794 69.576 102.794 68.712ZM117.753 60.216C117.801 59.784 117.969 59.48 118.257 59.304C118.545 59.112 118.865 59.016 119.217 59.016C119.441 59.016 119.657 59.064 119.865 59.16C120.073 59.24 120.241 59.376 120.369 59.568C120.513 59.744 120.577 59.96 120.561 60.216C120.545 60.44 120.497 60.808 120.417 61.32C120.353 61.832 120.273 62.424 120.177 63.096C120.097 63.768 120.017 64.472 119.937 65.208C119.857 65.928 119.785 66.624 119.721 67.296C119.673 67.968 119.649 68.552 119.649 69.048C119.649 70.248 119.769 71.16 120.009 71.784C120.249 72.392 120.577 72.696 120.993 72.696C121.217 72.696 121.393 72.64 121.521 72.528C121.665 72.4 121.769 72.264 121.833 72.12C121.929 71.912 122.057 71.72 122.217 71.544C122.377 71.368 122.625 71.28 122.961 71.28C123.313 71.28 123.585 71.376 123.777 71.568C123.985 71.744 124.097 71.976 124.113 72.264C124.129 72.456 124.097 72.672 124.017 72.912C123.937 73.152 123.809 73.392 123.633 73.632C123.345 74.08 122.937 74.456 122.409 74.76C121.897 75.048 121.321 75.192 120.681 75.192C119.961 75.192 119.353 75.008 118.857 74.64C118.361 74.256 117.961 73.768 117.657 73.176C117.353 72.568 117.137 71.92 117.009 71.232C116.881 70.544 116.817 69.888 116.817 69.264C116.817 68.768 116.841 68.184 116.889 67.512C116.953 66.84 117.025 66.144 117.105 65.424C117.201 64.688 117.289 63.984 117.369 63.312C117.465 62.624 117.545 62.008 117.609 61.464C117.689 60.92 117.737 60.504 117.753 60.216ZM116.649 64.584C116.265 64.6 115.969 64.504 115.761 64.296C115.553 64.072 115.441 63.792 115.425 63.456C115.409 63.136 115.505 62.856 115.713 62.616C115.937 62.376 116.217 62.248 116.553 62.232C117.033 62.216 117.553 62.208 118.113 62.208C118.689 62.208 119.361 62.208 120.129 62.208C120.897 62.192 121.801 62.184 122.841 62.184C123.241 62.184 123.529 62.296 123.705 62.52C123.881 62.744 123.969 63.008 123.969 63.312C123.969 63.648 123.881 63.936 123.705 64.176C123.545 64.416 123.265 64.536 122.865 64.536C121.825 64.536 120.929 64.544 120.177 64.56C119.425 64.56 118.769 64.56 118.209 64.56C117.649 64.56 117.129 64.568 116.649 64.584ZM131.069 75.288C130.141 75.288 129.277 75.048 128.477 74.568C127.693 74.088 127.061 73.408 126.581 72.528C126.101 71.632 125.861 70.576 125.861 69.36C125.861 68.368 126.037 67.432 126.389 66.552C126.741 65.672 127.229 64.896 127.853 64.224C128.493 63.536 129.221 63 130.037 62.616C130.853 62.232 131.717 62.04 132.629 62.04C133.221 62.04 133.645 62.136 133.901 62.328C134.173 62.504 134.301 62.808 134.285 63.24C134.285 63.624 134.197 63.92 134.021 64.128C133.861 64.336 133.653 64.44 133.397 64.44C133.269 64.424 133.149 64.416 133.037 64.416C132.925 64.416 132.805 64.416 132.677 64.416C131.925 64.416 131.245 64.64 130.637 65.088C130.045 65.536 129.565 66.144 129.197 66.912C128.845 67.68 128.669 68.544 128.669 69.504C128.669 70.192 128.789 70.784 129.029 71.28C129.285 71.776 129.605 72.152 129.989 72.408C130.373 72.664 130.773 72.792 131.189 72.792C131.781 72.792 132.349 72.6 132.893 72.216C133.437 71.832 133.877 71.32 134.213 70.68C134.565 70.024 134.741 69.288 134.741 68.472C134.741 67.896 134.669 67.4 134.525 66.984C134.397 66.568 134.173 66.264 133.853 66.072C133.677 65.944 133.501 65.824 133.325 65.712C133.165 65.6 133.037 65.48 132.941 65.352C132.845 65.208 132.797 65.016 132.797 64.776C132.797 64.344 132.909 64.024 133.133 63.816C133.357 63.608 133.653 63.504 134.021 63.504C134.645 63.504 135.221 63.728 135.749 64.176C136.277 64.608 136.693 65.2 136.997 65.952C137.317 66.704 137.477 67.544 137.477 68.472C137.477 69.384 137.309 70.256 136.973 71.088C136.637 71.904 136.173 72.632 135.581 73.272C134.989 73.896 134.301 74.392 133.517 74.76C132.749 75.112 131.933 75.288 131.069 75.288ZM141.349 81.816C140.885 81.816 140.517 81.72 140.245 81.528C139.989 81.352 139.869 81.048 139.885 80.616C139.933 79.688 139.981 78.824 140.029 78.024C140.077 77.224 140.117 76.432 140.149 75.648C140.181 74.88 140.213 74.08 140.245 73.248C140.293 72.4 140.341 71.48 140.389 70.488C140.453 69.48 140.509 68.352 140.557 67.104C140.621 65.856 140.693 64.44 140.773 62.856C140.805 62.408 140.981 62.096 141.301 61.92C141.621 61.744 141.965 61.656 142.333 61.656C142.685 61.656 142.957 61.768 143.149 61.992C143.341 62.2 143.437 62.44 143.437 62.712C143.437 62.968 143.429 63.224 143.413 63.48C143.413 63.72 143.397 64.048 143.365 64.464C143.941 63.6 144.581 62.952 145.285 62.52C146.005 62.088 146.749 61.872 147.517 61.872C148.205 61.872 148.821 62.04 149.365 62.376C149.909 62.712 150.373 63.16 150.757 63.72C151.157 64.28 151.461 64.912 151.669 65.616C151.877 66.32 151.981 67.056 151.981 67.824C151.981 68.816 151.837 69.768 151.549 70.68C151.277 71.576 150.885 72.376 150.373 73.08C149.861 73.768 149.253 74.32 148.549 74.736C147.861 75.136 147.101 75.336 146.269 75.336C145.693 75.336 145.125 75.232 144.565 75.024C144.005 74.832 143.485 74.552 143.005 74.184C142.957 75.336 142.909 76.432 142.861 77.472C142.813 78.528 142.757 79.6 142.693 80.688C142.677 81.056 142.549 81.336 142.309 81.528C142.085 81.72 141.765 81.816 141.349 81.816ZM146.053 73.008C146.469 73.008 146.861 72.88 147.229 72.624C147.597 72.368 147.925 72.016 148.213 71.568C148.501 71.12 148.725 70.592 148.885 69.984C149.045 69.376 149.125 68.728 149.125 68.04C149.125 67.512 149.077 67.024 148.981 66.576C148.885 66.128 148.741 65.744 148.549 65.424C148.357 65.088 148.133 64.832 147.877 64.656C147.621 64.48 147.325 64.392 146.989 64.392C146.653 64.392 146.301 64.512 145.933 64.752C145.565 64.992 145.205 65.32 144.853 65.736C144.517 66.136 144.205 66.592 143.917 67.104C143.645 67.616 143.421 68.144 143.245 68.688C143.229 69.216 143.205 69.712 143.173 70.176C143.157 70.64 143.141 71.144 143.125 71.688C143.557 72.104 144.037 72.432 144.565 72.672C145.093 72.896 145.589 73.008 146.053 73.008ZM160.292 61.848C160.66 61.848 161.052 61.888 161.468 61.968C161.884 62.032 162.276 62.136 162.644 62.28C163.012 62.408 163.308 62.576 163.532 62.784C164.268 63.376 164.812 64.152 165.164 65.112C165.516 66.056 165.692 67.056 165.692 68.112C165.692 68.992 165.572 69.848 165.332 70.68C165.108 71.496 164.772 72.24 164.324 72.912C163.876 73.584 163.316 74.12 162.644 74.52C161.972 74.904 161.204 75.096 160.34 75.096C159.412 75.096 158.572 74.92 157.82 74.568C157.084 74.216 156.444 73.736 155.9 73.128C155.372 72.52 154.964 71.816 154.676 71.016C154.404 70.216 154.268 69.376 154.268 68.496C154.268 67.648 154.388 66.832 154.628 66.048C154.884 65.248 155.268 64.536 155.78 63.912C156.292 63.272 156.924 62.768 157.676 62.4C158.428 62.032 159.3 61.848 160.292 61.848ZM157.052 68.328C157.052 69.064 157.172 69.768 157.412 70.44C157.652 71.112 158.012 71.656 158.492 72.072C158.972 72.488 159.556 72.696 160.244 72.696C160.708 72.696 161.108 72.568 161.444 72.312C161.796 72.04 162.076 71.68 162.284 71.232C162.508 70.784 162.668 70.304 162.764 69.792C162.86 69.264 162.908 68.752 162.908 68.256C162.908 67.296 162.764 66.504 162.476 65.88C162.204 65.24 161.82 64.752 161.324 64.416C161.132 64.352 160.948 64.312 160.772 64.296C160.596 64.28 160.412 64.272 160.22 64.272C159.692 64.272 159.228 64.384 158.828 64.608C158.428 64.816 158.092 65.12 157.82 65.52C157.564 65.904 157.372 66.336 157.244 66.816C157.116 67.296 157.052 67.8 157.052 68.328Z" fill="#434556"/>
</svg>
