<svg width="1140" height="440" viewBox="0 0 1140 440" fill="none" xmlns="http://www.w3.org/2000/svg">
<g id="aleitamento-materno">
<rect id="Rectangle 154" width="1140" height="440" rx="12" fill="url(#paint0_linear_2418_8735)"/>
<text id="O aleitamento materno deve ser realizado em ambiente calmo, com algumas pausas para a crian&#195;&#167;a descansar, principalmente se ela apresentar mudan&#195;&#167;a na frequ&#195;&#170;ncia respirat&#195;&#179;ria.&#194;&#160; Caso o beb&#195;&#170; apresente dificuldade para sugar no peito, mesmo ap&#195;&#179;s testar diferentes posi&#195;&#167;&#195;&#181;es de amamenta&#195;&#167;&#195;&#163;o, pode ser necess&#195;&#161;rio o uso do copinho para complementar o volume de leite, utilizando-se, nesse caso, preferencialmente, o leite materno extra&#195;&#173;do.&#194;&#160; Al&#195;&#169;m disso, para conseguir se alimentar de forma segura, &#195;&#169; necess&#195;&#161;rio que a crian&#195;&#167;a tenha bom controle de cabe&#195;&#167;a e de tronco, somados &#195;&#160; capacidade de preens&#195;&#163;o e coordena&#195;&#167;&#195;&#163;o dos membros superiores (bra&#195;&#167;os)." fill="black" xml:space="preserve" style="white-space: pre" font-family="Open Sans" font-size="18" letter-spacing="0em"><tspan x="485" y="72.9829">O </tspan><tspan x="505.519" y="72.9829">aleitamento </tspan><tspan x="612.716" y="72.9829">materno </tspan><tspan x="691.647" y="72.9829">deve </tspan><tspan x="738.393" y="72.9829">ser </tspan><tspan x="770.953" y="72.9829">realizado </tspan><tspan x="854.331" y="72.9829">em </tspan><tspan x="887.612" y="72.9829">ambiente </tspan><tspan x="974.032" y="72.9829">calmo, </tspan><tspan x="1035.88" y="72.9829">com </tspan><tspan x="485" y="98.9829">algumas </tspan><tspan x="566.63" y="98.9829">pausas </tspan><tspan x="636.87" y="98.9829">para </tspan><tspan x="686.279" y="98.9829">a </tspan><tspan x="707.3" y="98.9829">crian&#xe7;a </tspan><tspan x="778.541" y="98.9829">descansar, </tspan><tspan x="879.542" y="98.9829">principalmente </tspan><tspan x="1017.63" y="98.9829">se </tspan><tspan x="1047.34" y="98.9829">ela </tspan><tspan x="485" y="124.983">apresentar </tspan><tspan x="581.68" y="124.983">mudan&#xe7;a </tspan><tspan x="664.754" y="124.983">na </tspan><tspan x="690.471" y="124.983">frequ&#xea;ncia </tspan><tspan x="785.076" y="124.983">respirat&#xf3;ria.&#xa0;&#10;</tspan><tspan x="485" y="174.983">Caso </tspan><tspan x="531.546" y="174.983">o </tspan><tspan x="548.175" y="174.983">beb&#xea; </tspan><tspan x="596.233" y="174.983">apresente </tspan><tspan x="686.778" y="174.983">dificuldade </tspan><tspan x="785.127" y="174.983">para </tspan><tspan x="829.318" y="174.983">sugar </tspan><tspan x="881.876" y="174.983">no </tspan><tspan x="909.544" y="174.983">peito, </tspan><tspan x="962.928" y="174.983">mesmo </tspan><tspan x="1031.57" y="174.983">ap&#xf3;s </tspan><tspan x="485" y="200.983">testar </tspan><tspan x="541.865" y="200.983">diferentes </tspan><tspan x="635.204" y="200.983">posi&#xe7;&#xf5;es </tspan><tspan x="716.309" y="200.983">de </tspan><tspan x="745.418" y="200.983">amamenta&#xe7;&#xe3;o, </tspan><tspan x="878.414" y="200.983">pode </tspan><tspan x="929.372" y="200.983">ser </tspan><tspan x="963.403" y="200.983">necess&#xe1;rio </tspan><tspan x="1061.17" y="200.983">o </tspan><tspan x="485" y="226.983">uso </tspan><tspan x="521.984" y="226.983">do </tspan><tspan x="550.372" y="226.983">copinho </tspan><tspan x="624.85" y="226.983">para </tspan><tspan x="669.78" y="226.983">complementar </tspan><tspan x="799.717" y="226.983">o </tspan><tspan x="817.083" y="226.983">volume </tspan><tspan x="885.813" y="226.983">de </tspan><tspan x="913.481" y="226.983">leite, </tspan><tspan x="960.414" y="226.983">utilizando-se, </tspan><tspan x="485" y="252.983">nesse </tspan><tspan x="538.086" y="252.983">caso, </tspan><tspan x="585.459" y="252.983">preferencialmente, </tspan><tspan x="750.043" y="252.983">o </tspan><tspan x="765.547" y="252.983">leite </tspan><tspan x="805.959" y="252.983">materno </tspan><tspan x="883.057" y="252.983">extra&#xed;do.&#xa0;&#10;</tspan><tspan x="485" y="302.983">Al&#xe9;m </tspan><tspan x="542.459" y="302.983">disso, </tspan><tspan x="605.419" y="302.983">para </tspan><tspan x="658.553" y="302.983">conseguir </tspan><tspan x="755.211" y="302.983">se </tspan><tspan x="788.64" y="302.983">alimentar </tspan><tspan x="884.085" y="302.983">de </tspan><tspan x="919.958" y="302.983">forma </tspan><tspan x="985.625" y="302.983">segura, </tspan><tspan x="1061.89" y="302.983">&#xe9; </tspan><tspan x="485" y="328.983">necess&#xe1;rio </tspan><tspan x="580.917" y="328.983">que </tspan><tspan x="619.213" y="328.983">a </tspan><tspan x="635.343" y="328.983">crian&#xe7;a </tspan><tspan x="701.694" y="328.983">tenha </tspan><tspan x="756.425" y="328.983">bom </tspan><tspan x="801.067" y="328.983">controle </tspan><tspan x="876.963" y="328.983">de </tspan><tspan x="904.219" y="328.983">cabe&#xe7;a </tspan><tspan x="968.742" y="328.983">e </tspan><tspan x="984.977" y="328.983">de </tspan><tspan x="1012.23" y="328.983">tronco, </tspan><tspan x="485" y="354.983">somados </tspan><tspan x="570.785" y="354.983">&#xe0; </tspan><tspan x="590.072" y="354.983">capacidade </tspan><tspan x="694.35" y="354.983">de </tspan><tspan x="724.764" y="354.983">preens&#xe3;o </tspan><tspan x="813.098" y="354.983">e </tspan><tspan x="832.49" y="354.983">coordena&#xe7;&#xe3;o </tspan><tspan x="951.059" y="354.983">dos </tspan><tspan x="990.771" y="354.983">membros </tspan><tspan x="485" y="380.983">superiores </tspan><tspan x="579.219" y="380.983">(bra&#xe7;os).</tspan></text>
<g id="Group">
<g id="Group_2">
<g id="Group_3">
<path id="Vector" d="M241.117 319.369C224.209 310.016 204.413 305.969 185.19 307.941C165.967 309.91 147.402 317.887 132.743 330.476C130.608 332.309 128.42 334.493 128.121 337.291C127.867 339.67 129.047 341.945 130.244 344.015C151.298 380.454 189.955 406.167 231.7 411.496C273.445 416.825 317.322 401.651 346.856 371.669C321.732 337.426 278.481 317.342 236.11 320.244" fill="#A1602D"/>
</g>
<g id="Group_4">
<g id="Group_5">
<path id="Vector_2" d="M128.262 339.229C144.538 356.553 164.162 371.065 185.644 381.27C196.296 386.331 207.497 390.349 219.067 392.704C224.538 393.817 230.094 394.563 235.671 394.847C237.328 394.931 238.954 395.039 240.593 394.809C249.905 393.496 259.207 392.103 268.498 390.658C283.434 388.333 298.358 385.885 313.204 383.031C319.714 381.78 326.218 380.461 332.66 378.89C336.876 377.861 341.231 376.836 345.202 375.042C345.757 374.791 346.302 374.52 346.817 374.191C347.832 373.54 346.89 371.913 345.868 372.568C342.922 374.458 339.124 375.266 335.792 376.153C329.908 377.72 323.943 378.983 317.975 380.183C303.32 383.127 288.569 385.59 273.807 387.931C263.242 389.608 252.664 391.205 242.074 392.715C237.596 393.354 233.181 392.906 228.674 392.37C217.063 390.991 205.698 387.716 194.887 383.312C172.841 374.331 152.591 360.537 135.55 343.97C133.517 341.993 131.533 339.967 129.59 337.9C128.761 337.017 127.434 338.348 128.262 339.229Z" fill="#D08F3F"/>
</g>
</g>
</g>
<g id="Group_6">
<path id="Vector_3" d="M365.261 350.188C363.086 348.786 354.476 351.733 352.002 350.968C348.482 349.878 343.796 339.361 341.682 336.345C335.911 328.112 335.498 327.157 326.459 322.756C289.942 304.972 245.904 303.356 208.181 318.415L196.445 332.963C202.865 351.509 216.542 367.692 234.351 375.937C252.161 384.181 273.954 383.969 291.007 374.255C296.168 371.316 300.871 367.578 306.242 365.042C311.613 362.509 318.016 361.282 323.462 363.648C329.25 366.164 333.035 372.293 339.055 374.179C343.237 375.488 347.87 374.475 351.731 372.401C355.593 370.329 358.824 367.28 362.006 364.268C364.036 362.346 366.131 360.33 367.114 357.715C368.1 355.099 367.612 351.7 365.261 350.188Z" fill="#EFDEB9"/>
</g>
<g id="Group_7">
<g id="Group_8">
<path id="Vector_4" d="M270.313 278.719C269.879 271.019 269.188 262.844 264.953 256.712C262.118 252.607 257.912 249.834 253.458 248.273C249.005 246.712 244.288 246.285 239.616 246.219L243.307 250.417C238.685 246.586 232.748 244.79 226.989 245.311C221.23 245.831 215.685 248.629 211.446 252.969C207.984 256.513 205.326 261.23 204.821 266.415C204.275 272.032 206.278 277.611 209.004 282.391C214.432 291.914 222.935 299.246 232.613 302.751C238.494 304.88 244.704 305.62 250.869 306.211C254.496 306.558 258.296 306.829 261.635 305.232C265.808 303.237 268.548 298.577 269.688 293.713C270.829 288.848 270.596 283.736 270.313 278.719Z" fill="#F7C2A0"/>
</g>
<g id="Group_9">
<path id="Vector_5" d="M216.837 270.143C218.67 268.477 221.363 267.813 223.76 268.439C226.157 269.065 228.183 270.959 228.966 273.308C229.751 275.658 229.27 278.389 227.728 280.329C226.762 278.786 225.459 277.455 223.941 276.452C224.284 274.9 223.335 273.168 221.845 272.619C220.911 272.276 219.879 272.367 218.897 272.207C217.915 272.048 216.857 271.488 216.672 270.511" fill="#F5B297"/>
</g>
<g id="Group_10">
<path id="Vector_6" d="M320.615 165.337L292.091 163.156C292.091 163.156 251.467 217.116 249.723 217.116C247.979 217.116 238.758 175.013 238.758 175.013C238.758 175.013 219.541 178.032 210.235 185.011C200.929 191.991 182.617 221.96 182.617 221.96L186.903 222.986L218.123 230.195L217.514 247.855C218.642 247.379 221.797 246.879 229.753 246.709C260.014 246.067 264.567 303.103 264.567 303.103L331.834 319.8L320.615 165.337Z" fill="#F7F0DD"/>
<path id="Vector_7" d="M217.478 248.873L217.512 247.855C216.275 248.379 217.478 248.873 217.478 248.873Z" fill="#F7F0DD"/>
</g>
<g id="Group_11">
<g id="Group_12">
<path id="Vector_8" d="M207.219 262.787C207.212 259.16 209.26 256.142 211.815 253.73C214.407 251.282 217.539 249.108 221.052 248.288C223.779 247.652 226.65 247.52 229.441 247.636C232.005 247.742 234.925 247.987 237.165 249.359C238.2 249.992 239.145 248.366 238.114 247.736C235.646 246.227 232.492 245.902 229.662 245.766C226.423 245.612 223.004 245.777 219.864 246.651C216.046 247.712 212.526 250.273 209.789 253.086C207.212 255.736 205.332 259.012 205.34 262.788C205.341 263.997 207.221 263.999 207.219 262.787Z" fill="#F07666"/>
</g>
</g>
<g id="Group_13">
<g id="Group_14">
<path id="Vector_9" d="M238.923 299.819C241.289 299.789 243.397 298.549 245.239 297.164C246.923 295.896 248.403 294.415 249.681 292.74C252.284 289.327 253.855 285.241 254.249 280.971C254.36 279.766 252.479 279.774 252.369 280.971C252.024 284.726 250.598 288.318 248.382 291.358C247.291 292.854 245.977 294.208 244.526 295.357C242.94 296.614 241.011 297.914 238.923 297.94C237.715 297.955 237.712 299.834 238.923 299.819Z" fill="#F07666"/>
</g>
</g>
<g id="Group_15">
<g id="Group_16">
<path id="Vector_10" d="M217.955 247.079C218.58 242.469 223.812 241.361 227.684 240.9C231.28 240.475 234.954 240.639 238.501 241.359C245.665 242.813 252.234 246.422 257.231 251.76C258.059 252.646 259.386 251.313 258.56 250.431C252.828 244.308 245.05 240.337 236.751 239.162C230.523 238.281 217.296 238.081 216.143 246.578C215.982 247.762 217.792 248.274 217.955 247.079Z" fill="#EFDEB9"/>
</g>
</g>
<g id="Group_17">
<g id="Group_18">
<path id="Vector_11" d="M219.8 234.454C219.595 228.414 219.389 222.375 219.185 216.336C219.144 215.13 217.265 215.124 217.305 216.336C217.51 222.377 217.716 228.415 217.92 234.454C217.961 235.662 219.841 235.666 219.8 234.454Z" fill="#EFDEB9"/>
</g>
</g>
<g id="Group_19">
<g id="Group_20">
<path id="Vector_12" d="M264.721 259.227C259.975 269.457 259.527 281.327 263.63 291.848C264.065 292.962 265.883 292.478 265.442 291.349C261.528 281.315 261.803 269.962 266.343 260.176C266.85 259.086 265.23 258.131 264.721 259.227Z" fill="#EFDEB9"/>
</g>
</g>
</g>
<g id="Group_21">
<g id="Group_22">
<path id="Vector_13" d="M319.485 331.714C308.632 327.312 297.745 322.807 286.34 320.118C275.538 317.572 264.164 316.703 253.351 319.186C248.62 320.272 244.193 322.625 240.98 326.264C237.809 329.853 222.751 338.559 225.537 341.342C226.622 342.425 242.744 335.696 248.506 341.087C248.935 341.488 249.316 341.86 249.661 342.21C254.51 347.12 260.549 350.689 267.129 352.767L284.713 358.322C290.192 359.71 299.575 357.656 298.245 354.034C300.275 355.657 305.826 356.065 308.082 354.773C310.337 353.482 310.226 351.136 309.851 348.563C311.818 349.589 314.486 348.99 315.827 347.222C317.167 345.454 317.022 342.723 315.502 341.106C317.173 341.218 318.892 341.303 320.481 340.78C322.982 339.958 325.148 337.286 322.819 334.176C321.98 333.051 320.786 332.242 319.485 331.714Z" fill="#F7C2A0"/>
</g>
<path id="Vector_14" d="M235.762 337.873C221.251 342.917 206.32 348.028 190.969 347.435C186.025 347.244 181.011 346.428 176.609 344.168C172.206 341.908 164.012 334.322 162.692 329.554C162.008 327.082 161.175 312.69 161.208 310.126C161.348 299.103 165.689 290.126 168.044 279.355C170.598 267.676 176.17 251.841 180.284 240.616C184.647 228.714 187.265 223.086 187.265 223.086L218.122 230.191L215.757 311.255L259.368 316.416L235.762 337.873Z" fill="#F7C2A0"/>
<g id="Group_23">
<g id="Group_24">
<path id="Vector_15" d="M298.63 353.863C289.798 351.327 280.969 348.788 272.138 346.252C270.972 345.918 270.476 347.73 271.639 348.064C280.47 350.6 289.299 353.139 298.13 355.675C299.296 356.011 299.792 354.197 298.63 353.863Z" fill="#F07666"/>
</g>
</g>
<g id="Group_25">
<g id="Group_26">
<path id="Vector_16" d="M310.57 347.776C299.213 343.661 287.857 339.544 276.5 335.428C275.36 335.014 274.87 336.831 276 337.24C287.358 341.355 298.713 345.473 310.071 349.588C311.209 350.002 311.701 348.185 310.57 347.776Z" fill="#F07666"/>
</g>
</g>
<g id="Group_27">
<g id="Group_28">
<path id="Vector_17" d="M317.311 341.115C312.285 337.087 305.95 334.18 299.594 333.09C298.41 332.887 297.902 334.697 299.094 334.902C305.117 335.935 311.209 338.618 315.984 342.444C316.917 343.193 318.256 341.871 317.311 341.115Z" fill="#F07666"/>
</g>
</g>
</g>
<g id="Group_29">
<path id="Vector_18" d="M143.625 337.432C153.4 335.267 163.959 336.851 172.668 341.789C181.378 346.728 188.158 354.975 191.32 364.475" fill="#A1602D"/>
<g id="Group_30">
<path id="Vector_19" d="M143.874 338.34C163.707 334.116 183.873 345.547 190.412 364.728C190.8 365.866 192.617 365.378 192.224 364.229C189.059 354.944 182.753 346.875 174.383 341.717C165.173 336.041 153.917 334.283 143.373 336.528C142.192 336.779 142.693 338.591 143.874 338.34Z" fill="#D08F3F"/>
</g>
</g>
<g id="Group_31">
<g id="Group_32">
<path id="Vector_20" d="M286.787 305.589C285.865 304.057 286.219 302.043 287.077 300.475C287.936 298.907 289.234 297.63 290.298 296.193C293.853 291.396 294.6 284.664 292.184 279.204C292.406 278.033 291.885 276.753 290.906 276.072C289.927 275.391 288.546 275.344 287.525 275.959C288.031 274.552 286.602 272.94 285.112 273.048C283.622 273.158 282.469 274.665 282.491 276.159C282.432 275.477 281.587 275.065 280.938 275.28C280.288 275.493 279.867 276.149 279.717 276.816C279.566 277.484 279.636 278.179 279.663 278.863C279.72 280.342 279.574 281.83 279.23 283.269C278.994 284.257 278.625 285.279 277.83 285.911C277.034 286.542 275.7 286.583 275.111 285.756C274.445 284.823 275.024 283.396 274.373 282.454C273.705 281.488 272.092 281.709 271.331 282.602C270.57 283.496 270.453 284.76 270.457 285.935C270.469 288.948 271.756 293.349 273.735 296.005L271.871 301.007L286.787 305.589Z" fill="#F7C2A0"/>
</g>
<g id="Group_33">
<path id="Vector_21" d="M270.688 295.996C269.835 298.244 268.532 301.542 268.072 303.543C266.756 309.272 264.947 314.89 262.672 320.31L287.857 306.968C288.833 304.519 289.302 300.467 289.555 298.531L270.688 295.996Z" fill="#588B7E"/>
</g>
<g id="Group_34">
<g id="Group_35">
<path id="Vector_22" d="M284.018 286.019C285.729 282.699 285.756 278.739 284.108 275.389C283.574 274.304 281.952 275.255 282.485 276.338C283.824 279.057 283.782 282.38 282.395 285.07C281.84 286.144 283.463 287.095 284.018 286.019Z" fill="#F07666"/>
</g>
</g>
<g id="Group_36">
<g id="Group_37">
<path id="Vector_23" d="M288.685 285.991C289.691 282.765 289.677 279.256 288.639 276.039C288.27 274.892 286.455 275.384 286.828 276.538C287.769 279.457 287.785 282.562 286.873 285.49C286.51 286.649 288.325 287.144 288.685 285.991Z" fill="#F07666"/>
</g>
</g>
<g id="Group_38">
<g id="Group_39">
<path id="Vector_24" d="M292.07 286.926C293.08 284.751 293.405 282.397 293.038 280.03C292.96 279.528 292.331 279.25 291.882 279.373C291.346 279.52 291.148 280.025 291.226 280.529C291.5 282.291 291.214 284.326 290.447 285.977C290.234 286.437 290.318 286.989 290.784 287.263C291.191 287.5 291.855 287.387 292.07 286.926Z" fill="#F07666"/>
</g>
</g>
</g>
<g id="Group_40">
<path id="Vector_25" d="M166.827 313.468L192.951 320.788L221.583 314.424L224.82 302.014C229.604 298.242 231.331 291.607 230.82 285.537C230.525 282.032 229.33 278.231 226.291 276.459C225.086 275.757 223.539 275.297 223.026 274.001C222.834 273.514 222.825 272.969 222.648 272.476C222.124 271.021 220.36 270.454 218.816 270.362C218.224 270.327 217.615 270.329 217.061 270.114C216.144 269.758 215.558 268.881 214.961 268.099C212.201 264.49 208.113 262.048 203.776 260.695C199.44 259.342 194.846 259.011 190.303 259.05C186.353 259.083 182.28 259.423 178.767 261.229C175.56 262.878 172.756 264.499 169.923 266.732C167.977 268.267 166.156 270.703 164.466 272.517C162.034 275.126 160.708 278.569 159.749 282.004C157.42 290.332 155.272 304.041 166.827 313.468Z" fill="#F7C2A0"/>
<g id="Group_41">
<g id="Group_42">
<path id="Vector_26" d="M216.306 271.358C217.628 271.374 219.02 271.364 220.259 271.89C221.319 272.34 222.402 273.413 222.202 274.667C222.14 275.054 222.237 275.538 222.634 275.729C227.376 277.993 230.229 283.48 229.169 288.667C228.926 289.847 230.738 290.352 230.98 289.166C232.201 283.201 229.111 276.745 223.582 274.105C223.727 274.458 223.87 274.813 224.014 275.167C224.306 273.353 223.468 271.738 221.981 270.698C220.348 269.555 218.225 269.499 216.308 269.477C215.096 269.463 215.096 271.343 216.306 271.358Z" fill="#F07666"/>
</g>
</g>
<g id="Group_43">
<path id="Vector_27" d="M194.333 263.571C195.019 260.433 192.165 257.369 189.009 256.769C185.852 256.169 182.64 257.394 179.803 258.904C169.268 264.507 161.252 274.336 156.944 285.463C156.043 282.074 152.32 279.698 148.866 280.31C150.941 282.24 152.759 284.448 154.253 286.857C151.608 286.914 149.065 288.591 147.969 290.998C150.023 290.973 152.078 290.949 154.132 290.925C152.499 297.195 154.598 304.291 159.379 308.664C162.81 311.803 167.314 313.484 171.781 314.781C177.175 316.347 182.701 317.463 188.281 318.113C193.01 318.663 197.963 318.851 202.369 317.047C208.189 314.662 212.353 308.686 212.576 302.401C212.797 296.115 209.065 289.86 203.426 287.072C201.703 286.22 199.638 285.483 198.936 283.694C198.554 282.716 198.679 281.626 198.754 280.58C199.166 274.866 191.029 278.765 194.333 263.571Z" fill="#282828"/>
</g>
<g id="Group_44">
<g id="Group_45">
<path id="Vector_28" d="M193.164 259.553C197.515 259.033 201.881 259.688 205.788 261.714C209.729 263.756 212.942 266.915 215.441 270.552C216.123 271.543 217.751 270.603 217.064 269.604C214.387 265.708 210.963 262.281 206.737 260.09C202.547 257.918 197.842 257.113 193.164 257.672C191.978 257.815 191.964 259.696 193.164 259.553Z" fill="#F07666"/>
</g>
</g>
<g id="Group_46">
<g id="Group_47">
<path id="Vector_29" d="M216.115 274.265C216.146 274.76 216.147 275.256 216.117 275.751C216.085 276.26 216.049 276.551 215.959 277.03C215.785 277.95 215.473 278.934 215.119 279.704C214.913 280.149 214.977 280.737 215.455 280.989C215.869 281.207 216.521 281.129 216.741 280.653C217.663 278.651 218.126 276.472 217.995 274.265C217.966 273.775 217.583 273.301 217.055 273.325C216.571 273.348 216.084 273.74 216.115 274.265Z" fill="#F07666"/>
</g>
</g>
</g>
<g id="Group_48">
<g id="Group_49">
<path id="Vector_30" d="M180.088 55.5703C170.153 62.6752 163.06 78.9539 162.176 91.1352C161.292 103.318 163.976 115.445 166.642 127.365C171.023 146.946 175.404 166.525 179.784 186.106C180.136 187.677 180.522 189.322 181.584 190.533C183.563 192.793 187.045 192.736 190.027 192.373C210.343 189.897 229.497 181.673 247.795 172.507C266.093 163.34 283.949 153.105 303.19 146.131C293.639 115.32 283.402 83.3146 261.083 60.0257" fill="#282828"/>
</g>
<g id="Group_50">
<g id="Group_51">
<path id="Vector_31" d="M233.66 153.747C234.158 154.867 249.037 221.949 249.037 221.949L295.293 172.847L272.311 121.137L233.66 153.747Z" fill="#F7C2A0"/>
<path id="Vector_32" d="M235.673 167.601C235.673 167.601 205.13 175.882 190.989 144.161C186.155 133.315 181.139 121.78 174.324 100.635C166.997 77.9012 179.309 61.6976 202.744 51.8501L205.073 50.8712C230.759 41.6972 252.374 48.2322 260.092 72.679L267.272 96.3438C267.272 96.3438 291.077 144.403 235.716 167.623" fill="#F7C2A0"/>
<g id="Group_52">
<g id="Group_53">
<path id="Vector_33" d="M230.774 93.7853C226.2 93.856 221.82 96.5055 219.68 100.558C219.116 101.627 220.737 102.577 221.302 101.507C223.138 98.0317 226.836 95.7266 230.774 95.6664C231.983 95.6454 231.986 93.7658 230.774 93.7853Z" fill="#282828"/>
</g>
</g>
<g id="Group_54">
<g id="Group_55">
<path id="Vector_34" d="M197.251 109.398C192.906 107.886 187.919 108.958 184.511 112.021C183.61 112.831 184.942 114.158 185.84 113.35C188.771 110.716 193.047 109.922 196.751 111.21C197.896 111.61 198.39 109.795 197.251 109.398Z" fill="#282828"/>
</g>
</g>
<g id="Group_56">
<path id="Vector_35" d="M264.888 99.448C253.615 106.694 240.386 84.8684 214.858 84.0038C201.086 83.5376 184.451 71.2316 176.359 59.6878C176.359 59.6878 197.25 32.0443 226.842 37.8846C256.435 43.7263 270.665 72.015 270.665 72.015L264.888 99.448Z" fill="#282828"/>
</g>
<g id="Group_57">
<path id="Vector_36" d="M259.797 96.4026C262.612 92.7171 266.745 89.7518 271.372 89.8706C276.112 89.9924 280.629 93.5982 282.299 98.2642C283.97 102.929 282.868 108.349 279.805 111.972C276.743 115.594 271.909 117.409 267.171 117.065L259.797 96.4026Z" fill="#F7C2A0"/>
</g>
<g id="Group_58">
<path id="Vector_37" d="M274.394 98.4195C273.149 97.6421 271.397 97.6556 270.283 98.612L270.114 99.7803C268.889 100.68 267.933 101.986 267.605 103.47C267.275 104.954 267.623 106.607 268.638 107.738C269.654 108.869 271.352 109.387 272.785 108.878C273.976 108.455 274.854 107.424 275.469 106.32C276.185 105.037 276.627 103.568 276.505 102.105C276.382 100.642 275.64 99.1969 274.394 98.4195Z" fill="#F5B297"/>
</g>
<g id="Group_59">
<g id="Group_60">
<path id="Vector_38" d="M268.253 105.234C268.014 103.93 268.375 102.503 268.964 101.335C269.675 99.9271 270.8 98.7196 272.257 98.0745C273.159 97.6746 274.141 97.5452 275.12 97.6009C275.845 97.6415 275.843 96.5137 275.12 96.4731C273.15 96.3603 271.257 97.034 269.799 98.3633C268.509 99.5391 267.591 101.178 267.229 102.883C267.042 103.76 267.002 104.65 267.163 105.534C267.295 106.246 268.382 105.945 268.253 105.234Z" fill="#F07666"/>
</g>
</g>
<g id="Group_61">
<path id="Vector_39" d="M235.422 167.705C241.477 164.945 248.98 159.868 252.699 151.289C252.699 151.289 253.767 168.151 238.664 175.002L235.422 167.705Z" fill="#F07666"/>
</g>
<g id="Group_62">
<g id="Group_63">
<path id="Vector_40" d="M206.309 108.337C207.633 111.327 208.948 114.334 209.996 117.435C210.505 118.943 211.015 120.523 211.122 122.123C211.284 124.542 210.162 126.821 210.012 129.276C209.904 131.025 210.629 132.551 212.122 133.485C213.88 134.583 216.003 134.432 217.973 134.213C219.162 134.08 219.176 132.199 217.973 132.333C215.797 132.575 211.935 132.85 211.874 129.708C211.854 128.667 212.137 127.58 212.38 126.568C212.666 125.382 212.986 124.206 213.019 122.977C213.068 121.216 212.609 119.456 212.087 117.791C210.971 114.232 209.439 110.794 207.93 107.389C207.442 106.285 205.823 107.24 206.309 108.337Z" fill="#282828"/>
</g>
</g>
<g id="Group_64">
<path id="Vector_41" d="M234.759 129.999L235.16 128.889C233.318 128.866 231.409 128.866 229.727 129.624C228.048 130.382 226.66 132.116 226.913 133.941C227.093 135.249 228.036 136.302 228.937 137.269C229.577 137.958 230.263 138.673 231.162 138.949C232.627 139.395 234.222 138.491 235.111 137.243C236.622 135.119 236.468 131.965 234.759 129.999Z" fill="#F07666"/>
</g>
<g id="Group_65">
<g id="Group_66">
<path id="Vector_42" d="M235.135 126.465C234.94 130.743 232.135 134.854 228.167 136.516C227.7 136.711 227.364 137.138 227.512 137.672C227.633 138.113 228.197 138.526 228.668 138.328C233.448 136.326 236.777 131.662 237.016 126.465C237.071 125.255 235.191 125.258 235.135 126.465Z" fill="#282828"/>
</g>
</g>
<path id="Vector_43" d="M250.279 111.776C251.804 115.206 250.258 119.222 246.828 120.747C243.398 122.272 239.382 120.726 237.857 117.296C236.332 113.866 237.878 109.85 241.308 108.325C244.738 106.802 248.754 108.346 250.279 111.776Z" fill="#F5B297"/>
</g>
<g id="Group_67">
<g id="Group_68">
<path id="Vector_44" d="M193.859 122.582C194.435 124.265 196.229 125.195 197.863 124.665C199.495 124.134 200.355 122.343 199.776 120.66C199.199 118.978 197.406 118.044 195.775 118.575C194.14 119.105 193.283 120.899 193.859 122.582Z" fill="#282828"/>
</g>
</g>
<g id="Group_69">
<g id="Group_70">
<path id="Vector_45" d="M223.383 109.797C223.959 111.479 225.753 112.41 227.387 111.879C229.019 111.349 229.877 109.558 229.3 107.875C228.723 106.192 226.93 105.259 225.299 105.789C223.664 106.32 222.806 108.114 223.383 109.797Z" fill="#282828"/>
</g>
</g>
</g>
<path id="Vector_46" d="M181.287 62.0041L176.452 113.66C176.452 113.66 163.507 104.675 166.984 83.2089C170.46 61.7409 181.287 62.0041 181.287 62.0041Z" fill="#282828"/>
<g id="Group_71">
<path id="Vector_47" d="M162.005 97.0312C162.642 113.689 162.572 128.242 160.785 144.815C158.999 161.389 154.685 177.926 146.051 192.185C152.414 195.014 160.319 193.99 165.752 189.631C171.185 185.273 173.899 177.779 172.518 170.952C174.428 174.177 173.592 178.233 173.191 181.96C172.789 185.688 173.29 190.187 176.577 191.99C178.509 193.05 181.061 193.787 183.244 193.488C191.472 192.361 194.934 192.688 202.813 190.062" fill="#282828"/>
</g>
<g id="Group_72">
<path id="Vector_48" d="M193.715 102.261C193.467 103.322 192.632 104.122 191.718 104.764C190.783 105.402 189.747 105.889 188.575 106.19C187.407 106.503 186.264 106.585 185.136 106.488C184.024 106.376 182.905 106.088 182.168 105.283C181.446 104.5 181.324 103.234 182.075 101.874C182.801 100.527 184.446 99.1767 186.592 98.6158C188.736 98.0549 190.831 98.4263 192.125 99.2443C193.446 100.059 193.96 101.223 193.715 102.261Z" fill="#282828"/>
</g>
<g id="Group_73">
<path id="Vector_49" d="M224.899 89.4831C225.744 91.474 224.063 94.0919 221.144 95.3309C218.224 96.5699 215.173 95.961 214.328 93.9701C213.483 91.9807 215.164 89.3628 218.083 88.1223C221.001 86.8833 224.054 87.4922 224.899 89.4831Z" fill="#282828"/>
</g>
<g id="Group_74">
<g id="Group_75">
<path id="Vector_50" d="M145.853 192.735C158.04 184.67 164.111 170.828 167.807 157.185C172.524 139.781 175.104 121.599 176.76 103.669C177.749 92.9582 178.268 82.2084 178.347 71.4542C178.356 70.2452 176.477 70.2437 176.468 71.4542C176.333 89.9479 174.874 108.427 172.032 126.704C170.685 135.368 169.107 144.028 167.052 152.555C165.368 159.539 163.263 166.485 160.093 172.951C156.559 180.156 151.654 186.646 144.907 191.112C143.901 191.777 144.841 193.405 145.853 192.735Z" fill="#443B3B"/>
</g>
</g>
<g id="Group_76">
<g id="Group_77">
<path id="Vector_51" d="M189.321 60.759C198.966 66.7692 209.299 71.6441 220.082 75.2364C225.537 77.0543 231.101 78.5415 236.735 79.6873C241.939 80.7443 247.228 81.2511 252.433 82.2751C257.677 83.3081 263.13 85.0945 266.208 89.7724C266.872 90.7784 268.499 89.8386 267.831 88.8236C262.361 80.5128 251.287 80.2842 242.453 78.8332C230.647 76.8934 219.068 73.456 208.126 68.6127C201.955 65.8805 195.994 62.7033 190.268 59.135C189.24 58.4945 188.296 60.12 189.321 60.759Z" fill="#443B3B"/>
</g>
</g>
<g id="Group_78">
<g id="Group_79">
<path id="Vector_52" d="M191.232 150.739C191.667 164.195 188.69 177.555 182.543 189.537C181.991 190.612 183.613 191.564 184.165 190.485C190.461 178.214 193.555 164.527 193.11 150.739C193.073 149.533 191.193 149.527 191.232 150.739Z" fill="#443B3B"/>
</g>
</g>
</g>
<g id="Group_80">
<path id="Vector_53" d="M295.637 183.37L320.168 165.301C353.384 168.283 374.21 206.302 381.139 229.261C387.728 251.101 387.728 260.583 387.728 260.583L321.523 266.936L295.637 183.37Z" fill="#F7F0DD"/>
<path id="Vector_54" d="M229.889 302.752L327.335 292.019L323.956 266.196L380.879 261.207C380.879 261.207 387.479 293.12 376.64 317.921C372.75 326.823 365.773 337.425 349.676 338.866C333.579 340.308 229.746 325.653 229.746 325.653L229.889 302.752Z" fill="#F7C2A0"/>
<g id="Group_81">
<path id="Vector_55" d="M328.466 337.426C324.263 336.39 249.819 327.905 245.533 327.503C242.867 327.253 240.18 327.129 237.523 327.465C230.512 328.356 224.145 332.372 217.451 334.916C206.564 339.054 194.56 339.241 183.58 335.441C181.967 334.883 180.021 333.581 180.379 331.697C178.283 332.104 174.47 330.98 172.443 330.246C170.414 329.512 170.495 326.273 170.829 323.869C168.822 323.282 166.652 322.676 165.612 320.628C164.571 318.579 164.598 317.555 165.956 315.765C166.769 314.693 167.954 314.081 169.147 313.684C172.327 312.623 175.719 312.88 178.999 312.348C188.394 310.82 201.629 311.793 209.669 305.125C212.392 302.867 211.642 300.341 211.662 298.484C211.689 295.824 205.991 293.146 205.991 293.146C204.118 291.795 201.855 291.388 199.808 290.419C197.762 289.451 195.751 287.546 195.671 285.014C195.592 282.515 197.512 280.399 199.616 279.719C201.719 279.04 203.958 279.456 206.113 279.877C211.547 280.939 217.025 282.012 222.166 284.289C227.309 286.565 232.155 290.155 235.277 295.356C236.313 297.084 237.194 299.023 238.695 300.223C240.022 301.285 242.108 301.462 243.724 301.302C249.488 300.727 323.027 292.332 327.335 292.025C327.335 292.025 344.66 294.866 345.716 307.528" fill="#F7C2A0"/>
<g id="Group_82">
<path id="Vector_56" d="M328.715 336.518C323.837 335.353 318.606 335.082 313.641 334.467C304.052 333.281 294.455 332.151 284.859 331.031C275.613 329.953 266.365 328.888 257.114 327.842C250.719 327.119 243.678 325.708 237.27 326.559C232.665 327.171 228.385 329.054 224.193 330.966C219.583 333.069 214.997 335.065 210.019 336.136C205.036 337.208 199.891 337.485 194.82 336.974C192.32 336.723 189.843 336.264 187.413 335.625C185.491 335.12 181.086 334.417 181.316 331.697C181.373 331.022 180.672 330.712 180.126 330.791C177.917 331.106 175.37 330.291 173.309 329.556C171.041 328.745 171.516 325.815 171.767 323.871C171.82 323.465 171.437 323.069 171.077 322.964C169.619 322.537 168.013 322.134 166.975 320.946C165.473 319.226 165.589 317.205 167.319 315.718C170.002 313.413 174.387 313.829 177.68 313.465C183.206 312.853 188.78 312.414 194.291 311.682C199.447 310.996 204.805 309.813 209.11 306.733C211.144 305.278 212.556 303.557 212.675 300.977C212.759 299.123 212.694 297.326 211.448 295.868C208.914 292.907 204.674 291.379 201.191 289.999C197.903 288.695 194.738 284.984 197.999 281.793C200.746 279.106 205.305 280.661 208.582 281.324C215.27 282.679 222.016 284.429 227.629 288.485C230.275 290.396 232.586 292.797 234.305 295.576C235.669 297.78 236.779 300.574 239.321 301.669C241.464 302.591 243.763 302.246 245.999 302.003C248.141 301.77 250.282 301.53 252.421 301.291C259.187 300.535 265.95 299.773 272.714 299.012C287.716 297.323 302.716 295.621 317.723 293.978C319.938 293.735 322.151 293.493 324.368 293.262C325.053 293.19 325.739 293.117 326.426 293.053C326.635 293.033 326.846 293.006 327.056 292.994C327.467 292.97 326.962 292.937 327.192 292.957C329.273 293.134 331.521 294.039 333.427 294.82C336.946 296.26 340.447 298.406 342.628 301.597C343.843 303.374 344.562 305.393 344.774 307.535C344.893 308.727 346.773 308.739 346.654 307.535C345.837 299.286 338.741 294.43 331.405 292.096C330.031 291.659 328.482 291.09 327.022 291.116C325.536 291.143 324.016 291.417 322.541 291.575C307.734 293.158 292.939 294.856 278.142 296.52C270.526 297.377 262.91 298.237 255.292 299.09C251.17 299.552 246.864 300.427 242.706 300.418C238.511 300.409 237.439 296.841 235.44 293.866C233.761 291.367 231.66 289.205 229.271 287.379C223.781 283.187 217.108 281.196 210.439 279.792C205.429 278.736 197.357 276.416 195.056 282.984C194.148 285.575 195.297 288.235 197.318 289.937C199.655 291.905 202.895 292.466 205.514 293.961C206.88 294.738 208.269 295.417 209.439 296.496C211.26 298.176 211.356 301.718 209.804 303.643C207.881 306.026 204.373 307.408 201.537 308.28C198.644 309.171 195.64 309.662 192.638 310.008C186.69 310.694 180.662 311.378 174.697 311.831C171.827 312.049 168.47 312.289 166.165 314.22C164.181 315.882 163.441 318.149 164.518 320.52C165.695 323.113 167.998 324.022 170.578 324.779C170.348 324.477 170.118 324.174 169.888 323.872C169.589 326.2 169.325 329.678 171.788 330.977C174.244 332.272 177.88 332.998 180.627 332.605C180.23 332.303 179.835 332.001 179.438 331.699C179.135 335.253 183.242 336.404 185.93 337.169C190.129 338.368 194.498 339.014 198.862 339.094C207.761 339.258 215.93 336.801 223.946 333.138C227.993 331.29 232.09 329.35 236.505 328.568C239.649 328.01 242.864 328.173 246.026 328.493C248.166 328.709 250.304 328.958 252.441 329.197C271.326 331.311 290.204 333.491 309.068 335.787C313.397 336.314 317.726 336.846 322.051 337.414C324.093 337.683 326.21 337.852 328.217 338.331C329.392 338.613 329.894 336.801 328.715 336.518Z" fill="#F07666"/>
</g>
</g>
<g id="Group_83">
<g id="Group_84">
<path id="Vector_57" d="M322.503 256.089C320.594 246.623 318.093 237.284 316.179 227.818C315.365 223.799 314.45 219.682 314.322 215.568C314.086 207.958 315.4 199.976 319.15 193.274C322.884 186.601 329.147 181.367 336.746 179.887C337.933 179.655 337.43 177.844 336.247 178.075C321.533 180.94 313.835 195.507 312.638 209.333C311.708 220.076 314.807 230.839 317.192 241.217C318.368 246.336 319.654 251.439 320.693 256.589C320.929 257.773 322.742 257.272 322.503 256.089Z" fill="#EFDEB9"/>
</g>
</g>
<g id="Group_85">
<g id="Group_86">
<path id="Vector_58" d="M164.951 321.287C169.28 325.649 176.848 325.261 182.511 325.168C189.823 325.047 197.091 323.945 204.128 321.965C205.29 321.637 204.797 319.824 203.629 320.153C197.203 321.962 190.607 323.029 183.932 323.253C180.788 323.359 177.622 323.309 174.487 323.028C171.503 322.762 168.465 322.16 166.28 319.959C165.426 319.097 164.097 320.427 164.951 321.287Z" fill="#F07666"/>
</g>
</g>
<g id="Group_87">
<g id="Group_88">
<path id="Vector_59" d="M179.64 332.621C190.176 334.569 201.001 334.081 211.31 331.149C212.471 330.818 211.978 329.005 210.811 329.337C200.836 332.175 190.342 332.694 180.141 330.809C178.957 330.59 178.449 332.4 179.64 332.621Z" fill="#F07666"/>
</g>
</g>
</g>
</g>
</g>
<defs>
<linearGradient id="paint0_linear_2418_8735" x1="1140" y1="440" x2="806.911" y2="-343.181" gradientUnits="userSpaceOnUse">
<stop offset="0.290537" stop-color="#D08F3F" stop-opacity="0.1"/>
<stop offset="0.52" stop-color="#D08F3F" stop-opacity="0.4"/>
</linearGradient>
</defs>
</svg>
