<svg width="217" height="215" viewBox="0 0 217 215" fill="none" xmlns="http://www.w3.org/2000/svg">
<g filter="url(#filter0_d_2396_8057)">
<mask id="path-1-outside-1_2396_8057" maskUnits="userSpaceOnUse" x="90" y="29.001" width="123" height="178" fill="black">
<rect fill="white" x="90" y="29.001" width="123" height="178"/>
<path d="M206.768 170.337C206.453 167.768 205.828 165.241 204.96 162.804C204.2 160.668 203.672 158.625 203.006 156.495C201.446 151.504 199.227 146.66 196.872 142.003C192.152 132.67 186.359 123.933 180.399 115.361C179.055 113.43 177.695 111.488 176.741 109.335C176.115 107.918 175.672 106.425 175.045 105.009C173.822 102.245 171.931 99.841 170.061 97.4698C171.592 95.4373 170.837 92.5908 171.694 90.3138C172.543 88.0585 174.556 86.606 176.095 84.848C179.771 80.6476 182.655 75.7135 184.239 70.343C185.894 64.7348 186.087 58.649 184.584 52.9845C183.01 47.056 179.214 43.2919 173.998 40.2008C168.944 37.2049 161.571 34.9658 155.706 35.0014C151.603 35.0255 147.501 35.5629 143.542 36.6503C141.003 37.3473 138.486 38.2866 136.374 39.8609C133.637 41.9002 131.732 44.9018 130.475 48.0802C129.14 51.4516 129.173 58.3493 125.465 60.1061C124.772 60.4345 123.906 60.6515 123.606 61.3589C123.496 61.6172 123.483 61.9055 123.486 62.1868C123.493 62.9481 123.599 63.7082 123.802 64.442C121.109 68.7733 121.334 74.7064 122.301 79.7175C122.521 80.8566 122.784 82.0565 123.577 82.9005C124.506 83.888 125.936 84.1601 127.225 84.5747C132.178 86.165 136.051 90.7283 136.823 95.8852C135.469 97.7316 133.318 98.7857 131.737 100.443C129.659 102.621 128.102 105.296 127.234 108.182C126.688 109.997 126.411 111.888 125.831 113.691C125.13 115.867 123.999 117.876 122.877 119.867C121.852 121.685 120.631 123.251 119.394 124.924C118.68 125.888 118.19 127.25 118.842 128.258C119.078 128.622 119.459 128.949 119.443 129.383C119.433 129.678 119.235 129.927 119.048 130.154C112.58 138.073 109.282 148.049 106.117 157.778C105.547 159.532 103.581 159.768 102.017 160.74C97.9885 163.243 95.5806 168.147 96.0606 172.873C96.2038 174.287 96.5818 175.664 96.9576 177.034C97.3092 178.314 97.6815 179.636 98.5223 180.661C99.1696 181.451 100.05 182.008 100.823 182.675C103.405 184.907 104.828 188.418 107.803 190.084C109.083 190.8 110.546 191.108 111.991 191.352C117.718 192.315 123.59 192.41 129.345 191.634C130.557 193.043 132.585 193.687 134.385 193.236C136.009 192.829 137.367 191.633 139.013 191.33C140.955 190.971 142.876 191.914 144.628 192.828C146.227 192.828 149.289 195.261 150.741 196.019C152.513 196.945 154.322 197.794 156.092 198.677C159.863 200.561 163.551 200.945 167.736 200.996C170.127 201.025 172.461 200.934 174.838 200.697C177.03 200.479 178.326 199.552 180.196 198.359C180.649 198.071 181.131 197.773 181.667 197.761C182.004 197.754 182.332 197.862 182.658 197.947C187.409 199.185 194.404 196.071 198.149 193.169C202.114 190.096 204.954 185.593 206.188 180.739C207.051 177.346 207.194 173.802 206.768 170.337ZM133.254 149.88C129.699 150.458 126.66 152.923 124.64 155.912C122.621 158.901 121.49 162.395 120.512 165.869C119.883 168.101 119.308 170.352 118.553 172.546C118.324 173.211 117.916 175.235 117.222 175.511C116.485 175.804 115.029 174.381 114.434 173.98C113.682 173.474 112.892 172.921 112.545 172.083C112.059 170.908 112.599 169.569 113.246 168.474C114.64 166.122 116.548 164.126 118.34 162.061C124.188 155.326 128.913 147.702 133.612 140.116C134.478 140.827 134.806 141.99 135.088 143.076C135.695 145.414 136.301 147.753 136.908 150.091C135.736 149.712 134.469 149.683 133.254 149.88Z"/>
</mask>
<path d="M206.768 170.337C206.453 167.768 205.828 165.241 204.96 162.804C204.2 160.668 203.672 158.625 203.006 156.495C201.446 151.504 199.227 146.66 196.872 142.003C192.152 132.67 186.359 123.933 180.399 115.361C179.055 113.43 177.695 111.488 176.741 109.335C176.115 107.918 175.672 106.425 175.045 105.009C173.822 102.245 171.931 99.841 170.061 97.4698C171.592 95.4373 170.837 92.5908 171.694 90.3138C172.543 88.0585 174.556 86.606 176.095 84.848C179.771 80.6476 182.655 75.7135 184.239 70.343C185.894 64.7348 186.087 58.649 184.584 52.9845C183.01 47.056 179.214 43.2919 173.998 40.2008C168.944 37.2049 161.571 34.9658 155.706 35.0014C151.603 35.0255 147.501 35.5629 143.542 36.6503C141.003 37.3473 138.486 38.2866 136.374 39.8609C133.637 41.9002 131.732 44.9018 130.475 48.0802C129.14 51.4516 129.173 58.3493 125.465 60.1061C124.772 60.4345 123.906 60.6515 123.606 61.3589C123.496 61.6172 123.483 61.9055 123.486 62.1868C123.493 62.9481 123.599 63.7082 123.802 64.442C121.109 68.7733 121.334 74.7064 122.301 79.7175C122.521 80.8566 122.784 82.0565 123.577 82.9005C124.506 83.888 125.936 84.1601 127.225 84.5747C132.178 86.165 136.051 90.7283 136.823 95.8852C135.469 97.7316 133.318 98.7857 131.737 100.443C129.659 102.621 128.102 105.296 127.234 108.182C126.688 109.997 126.411 111.888 125.831 113.691C125.13 115.867 123.999 117.876 122.877 119.867C121.852 121.685 120.631 123.251 119.394 124.924C118.68 125.888 118.19 127.25 118.842 128.258C119.078 128.622 119.459 128.949 119.443 129.383C119.433 129.678 119.235 129.927 119.048 130.154C112.58 138.073 109.282 148.049 106.117 157.778C105.547 159.532 103.581 159.768 102.017 160.74C97.9885 163.243 95.5806 168.147 96.0606 172.873C96.2038 174.287 96.5818 175.664 96.9576 177.034C97.3092 178.314 97.6815 179.636 98.5223 180.661C99.1696 181.451 100.05 182.008 100.823 182.675C103.405 184.907 104.828 188.418 107.803 190.084C109.083 190.8 110.546 191.108 111.991 191.352C117.718 192.315 123.59 192.41 129.345 191.634C130.557 193.043 132.585 193.687 134.385 193.236C136.009 192.829 137.367 191.633 139.013 191.33C140.955 190.971 142.876 191.914 144.628 192.828C146.227 192.828 149.289 195.261 150.741 196.019C152.513 196.945 154.322 197.794 156.092 198.677C159.863 200.561 163.551 200.945 167.736 200.996C170.127 201.025 172.461 200.934 174.838 200.697C177.03 200.479 178.326 199.552 180.196 198.359C180.649 198.071 181.131 197.773 181.667 197.761C182.004 197.754 182.332 197.862 182.658 197.947C187.409 199.185 194.404 196.071 198.149 193.169C202.114 190.096 204.954 185.593 206.188 180.739C207.051 177.346 207.194 173.802 206.768 170.337ZM133.254 149.88C129.699 150.458 126.66 152.923 124.64 155.912C122.621 158.901 121.49 162.395 120.512 165.869C119.883 168.101 119.308 170.352 118.553 172.546C118.324 173.211 117.916 175.235 117.222 175.511C116.485 175.804 115.029 174.381 114.434 173.98C113.682 173.474 112.892 172.921 112.545 172.083C112.059 170.908 112.599 169.569 113.246 168.474C114.64 166.122 116.548 164.126 118.34 162.061C124.188 155.326 128.913 147.702 133.612 140.116C134.478 140.827 134.806 141.99 135.088 143.076C135.695 145.414 136.301 147.753 136.908 150.091C135.736 149.712 134.469 149.683 133.254 149.88Z" fill="#D27361"/>
<path d="M206.768 170.337C206.453 167.768 205.828 165.241 204.96 162.804C204.2 160.668 203.672 158.625 203.006 156.495C201.446 151.504 199.227 146.66 196.872 142.003C192.152 132.67 186.359 123.933 180.399 115.361C179.055 113.43 177.695 111.488 176.741 109.335C176.115 107.918 175.672 106.425 175.045 105.009C173.822 102.245 171.931 99.841 170.061 97.4698C171.592 95.4373 170.837 92.5908 171.694 90.3138C172.543 88.0585 174.556 86.606 176.095 84.848C179.771 80.6476 182.655 75.7135 184.239 70.343C185.894 64.7348 186.087 58.649 184.584 52.9845C183.01 47.056 179.214 43.2919 173.998 40.2008C168.944 37.2049 161.571 34.9658 155.706 35.0014C151.603 35.0255 147.501 35.5629 143.542 36.6503C141.003 37.3473 138.486 38.2866 136.374 39.8609C133.637 41.9002 131.732 44.9018 130.475 48.0802C129.14 51.4516 129.173 58.3493 125.465 60.1061C124.772 60.4345 123.906 60.6515 123.606 61.3589C123.496 61.6172 123.483 61.9055 123.486 62.1868C123.493 62.9481 123.599 63.7082 123.802 64.442C121.109 68.7733 121.334 74.7064 122.301 79.7175C122.521 80.8566 122.784 82.0565 123.577 82.9005C124.506 83.888 125.936 84.1601 127.225 84.5747C132.178 86.165 136.051 90.7283 136.823 95.8852C135.469 97.7316 133.318 98.7857 131.737 100.443C129.659 102.621 128.102 105.296 127.234 108.182C126.688 109.997 126.411 111.888 125.831 113.691C125.13 115.867 123.999 117.876 122.877 119.867C121.852 121.685 120.631 123.251 119.394 124.924C118.68 125.888 118.19 127.25 118.842 128.258C119.078 128.622 119.459 128.949 119.443 129.383C119.433 129.678 119.235 129.927 119.048 130.154C112.58 138.073 109.282 148.049 106.117 157.778C105.547 159.532 103.581 159.768 102.017 160.74C97.9885 163.243 95.5806 168.147 96.0606 172.873C96.2038 174.287 96.5818 175.664 96.9576 177.034C97.3092 178.314 97.6815 179.636 98.5223 180.661C99.1696 181.451 100.05 182.008 100.823 182.675C103.405 184.907 104.828 188.418 107.803 190.084C109.083 190.8 110.546 191.108 111.991 191.352C117.718 192.315 123.59 192.41 129.345 191.634C130.557 193.043 132.585 193.687 134.385 193.236C136.009 192.829 137.367 191.633 139.013 191.33C140.955 190.971 142.876 191.914 144.628 192.828C146.227 192.828 149.289 195.261 150.741 196.019C152.513 196.945 154.322 197.794 156.092 198.677C159.863 200.561 163.551 200.945 167.736 200.996C170.127 201.025 172.461 200.934 174.838 200.697C177.03 200.479 178.326 199.552 180.196 198.359C180.649 198.071 181.131 197.773 181.667 197.761C182.004 197.754 182.332 197.862 182.658 197.947C187.409 199.185 194.404 196.071 198.149 193.169C202.114 190.096 204.954 185.593 206.188 180.739C207.051 177.346 207.194 173.802 206.768 170.337ZM133.254 149.88C129.699 150.458 126.66 152.923 124.64 155.912C122.621 158.901 121.49 162.395 120.512 165.869C119.883 168.101 119.308 170.352 118.553 172.546C118.324 173.211 117.916 175.235 117.222 175.511C116.485 175.804 115.029 174.381 114.434 173.98C113.682 173.474 112.892 172.921 112.545 172.083C112.059 170.908 112.599 169.569 113.246 168.474C114.64 166.122 116.548 164.126 118.34 162.061C124.188 155.326 128.913 147.702 133.612 140.116C134.478 140.827 134.806 141.99 135.088 143.076C135.695 145.414 136.301 147.753 136.908 150.091C135.736 149.712 134.469 149.683 133.254 149.88Z" stroke="white" stroke-width="12" mask="url(#path-1-outside-1_2396_8057)"/>
</g>
<g filter="url(#filter1_d_2396_8057)">
<mask id="path-2-outside-2_2396_8057" maskUnits="userSpaceOnUse" x="0.260773" y="-1.14804" width="128.184" height="127.9" fill="black">
<rect fill="white" x="0.260773" y="-1.14804" width="128.184" height="127.9"/>
<path d="M28.197 81.7663C38.9465 94.9305 61.5011 94.3624 78.4691 80.5068C82.2211 77.443 85.4761 73.8973 88.1456 69.972L88.7135 69.1388L103.898 70.1183L93.9229 57.9027L94.1586 57.0193C96.7333 47.3874 95.1258 38.0862 89.7505 31.5034C79.0022 18.3407 56.4466 18.9076 39.4812 32.761C22.5132 46.6166 17.4487 68.6036 28.197 81.7663Z"/>
</mask>
<path d="M28.197 81.7663C38.9465 94.9305 61.5011 94.3624 78.4691 80.5068C82.2211 77.443 85.4761 73.8973 88.1456 69.972L88.7135 69.1388L103.898 70.1183L93.9229 57.9027L94.1586 57.0193C96.7333 47.3874 95.1258 38.0862 89.7505 31.5034C79.0022 18.3407 56.4466 18.9076 39.4812 32.761C22.5132 46.6166 17.4487 68.6036 28.197 81.7663Z" fill="#F5D8D3"/>
<path d="M28.197 81.7663C38.9465 94.9305 61.5011 94.3624 78.4691 80.5068C82.2211 77.443 85.4761 73.8973 88.1456 69.972L88.7135 69.1388L103.898 70.1183L93.9229 57.9027L94.1586 57.0193C96.7333 47.3874 95.1258 38.0862 89.7505 31.5034C79.0022 18.3407 56.4466 18.9076 39.4812 32.761C22.5132 46.6166 17.4487 68.6036 28.197 81.7663Z" stroke="white" stroke-width="12" mask="url(#path-2-outside-2_2396_8057)"/>
</g>
<defs>
<filter id="filter0_d_2396_8057" x="86" y="29.001" width="131" height="186" filterUnits="userSpaceOnUse" color-interpolation-filters="sRGB">
<feFlood flood-opacity="0" result="BackgroundImageFix"/>
<feColorMatrix in="SourceAlpha" type="matrix" values="0 0 0 0 0 0 0 0 0 0 0 0 0 0 0 0 0 0 127 0" result="hardAlpha"/>
<feOffset dy="4"/>
<feGaussianBlur stdDeviation="2"/>
<feComposite in2="hardAlpha" operator="out"/>
<feColorMatrix type="matrix" values="0 0 0 0 0 0 0 0 0 0 0 0 0 0 0 0 0 0 0.25 0"/>
<feBlend mode="normal" in2="BackgroundImageFix" result="effect1_dropShadow_2396_8057"/>
<feBlend mode="normal" in="SourceGraphic" in2="effect1_dropShadow_2396_8057" result="shape"/>
</filter>
<filter id="filter1_d_2396_8057" x="12.5117" y="15.9834" width="108.746" height="89.3037" filterUnits="userSpaceOnUse" color-interpolation-filters="sRGB">
<feFlood flood-opacity="0" result="BackgroundImageFix"/>
<feColorMatrix in="SourceAlpha" type="matrix" values="0 0 0 0 0 0 0 0 0 0 0 0 0 0 0 0 0 0 127 0" result="hardAlpha"/>
<feOffset dy="4"/>
<feGaussianBlur stdDeviation="2"/>
<feComposite in2="hardAlpha" operator="out"/>
<feColorMatrix type="matrix" values="0 0 0 0 0 0 0 0 0 0 0 0 0 0 0 0 0 0 0.25 0"/>
<feBlend mode="normal" in2="BackgroundImageFix" result="effect1_dropShadow_2396_8057"/>
<feBlend mode="normal" in="SourceGraphic" in2="effect1_dropShadow_2396_8057" result="shape"/>
</filter>
</defs>
</svg>
