<svg width="401" height="179" viewBox="0 0 401 179" fill="none" xmlns="http://www.w3.org/2000/svg">
<g filter="url(#filter0_d_2396_8056)">
<mask id="path-1-outside-1_2396_8056" maskUnits="userSpaceOnUse" x="174" y="22" width="223" height="142" fill="black">
<rect fill="white" x="174" y="22" width="223" height="142"/>
<path d="M382.359 144.196C384.307 143.974 386.397 143.649 387.805 142.283C389.2 140.93 389.596 138.869 389.817 136.938C390.342 132.345 390.268 127.685 389.609 123.11C389.025 119.054 388.236 113.89 385.285 110.835C388.865 110.544 387.067 106.648 385.619 105.099C383.965 103.329 381.787 102.109 379.733 100.872C376.239 98.7682 372.405 97.3112 368.512 96.1362C366.81 95.6232 364.941 95.3252 363.283 95.9642C361.331 96.7162 359.989 98.8212 360.132 100.909C360.243 102.525 361.128 103.967 361.872 105.406C363.863 109.252 364.984 113.544 365.13 117.873C362.895 117.495 360.748 117.243 358.615 116.474C358.393 112.196 355.673 108.395 352.372 105.664C349.072 102.933 345.173 101.045 341.527 98.7972C338.361 96.8452 335.35 94.6002 331.94 93.1162C326.423 90.7152 320.178 90.4622 314.21 91.2282C309.413 91.8442 304.731 93.0882 300.058 94.3002C298.44 94.7202 296.594 95.8552 294.928 95.5932C292.996 95.2902 291.163 93.9352 289.777 92.6312C287.836 90.8052 286.275 88.5992 284.289 86.8212C283.453 86.0722 282.539 85.3952 281.852 84.5082C279.654 81.6662 282.703 78.1462 284.21 75.6262C291.121 64.0682 289.731 49.5052 282.059 38.7472C278.694 34.0282 273.517 30.7492 267.936 29.1852C262.355 27.6222 256.394 27.7012 250.715 28.8612C243.345 30.3662 236.177 33.8242 231.347 39.5912C228.824 42.6042 227.1 46.2352 226.344 50.0902C225.531 54.2342 226.403 57.0492 227.746 60.9492C228.295 62.5442 228.652 64.3212 228.046 65.8952C227.874 66.3422 227.629 66.7582 227.367 67.1592C226.69 68.1972 225.964 69.2822 225.257 70.2762C224.687 71.0782 223.419 71.8532 223.532 72.9582C223.653 74.1372 225.173 74.6022 225.658 75.6092C226.247 76.8322 226.489 78.5242 225.899 79.7742C225.746 80.0982 225.545 80.4042 225.451 80.7502C225.022 82.3312 226.471 82.7732 227.432 83.4252C227.677 83.5912 229.882 86.2072 229.374 86.2962C228.434 86.4602 228.448 87.7522 229.081 88.3092C229.757 88.9042 230.767 89.1232 231.244 89.8872C231.589 90.4392 231.561 91.1342 231.619 91.7822C232.067 96.7462 237.075 98.0562 241.266 97.8322C242.192 97.7832 243.2 97.7002 243.881 97.0702C241.875 98.9482 240.568 101.533 239.733 104.151C238.898 106.769 238.383 109.483 237.486 112.08C235.493 117.852 231.745 122.753 228.514 127.861C227.011 130.238 225.925 133.024 224.159 135.196C222.362 137.405 219.776 138.206 217.355 139.543C215.7 140.457 214.133 141.718 212.252 141.902C211.042 142.02 209.841 141.672 208.66 141.38C206.187 140.769 203.607 140.505 201.16 141.361C199.201 142.046 197.797 143.434 195.695 143.914C194.018 144.297 192.206 144.609 190.967 145.802C190.103 146.635 189.625 147.808 188.748 148.627C188.131 149.203 187.353 149.57 186.615 149.981C184.619 151.091 182.836 152.58 181.388 154.345C181.176 154.603 180.959 154.909 181.006 155.24C181.076 155.735 181.665 155.951 182.159 156.028C183.617 156.254 185.127 156.143 186.536 155.705C186.236 156.593 187.117 157.481 188.024 157.718C190.589 158.388 193.099 156.217 195.555 155.79C198.528 155.273 201.974 155.917 205 156.079C207.182 156.196 209.478 156.292 211.436 155.322C215.07 153.521 219.393 155.305 223.436 155.626C228.447 156.023 233.513 155.005 238.144 153.107C242.215 151.438 247.301 149.877 250.578 146.89C251.608 145.951 252.69 146.047 253.977 146.583C264.927 151.142 277.004 152.163 288.861 152.435C304.078 152.784 319.322 151.988 334.419 150.055C339.384 149.419 343.973 149.596 348.856 148.493C350.117 148.208 350.549 146.464 351.389 145.519C351.492 145.403 351.603 145.285 351.749 145.231C351.896 145.176 352.058 145.193 352.214 145.21C354.501 145.453 356.73 145.207 359.005 145.18C361.635 145.149 364.265 145.271 366.897 145.221C372.064 145.125 377.227 144.784 382.359 144.196Z"/>
</mask>
<path d="M382.359 144.196C384.307 143.974 386.397 143.649 387.805 142.283C389.2 140.93 389.596 138.869 389.817 136.938C390.342 132.345 390.268 127.685 389.609 123.11C389.025 119.054 388.236 113.89 385.285 110.835C388.865 110.544 387.067 106.648 385.619 105.099C383.965 103.329 381.787 102.109 379.733 100.872C376.239 98.7682 372.405 97.3112 368.512 96.1362C366.81 95.6232 364.941 95.3252 363.283 95.9642C361.331 96.7162 359.989 98.8212 360.132 100.909C360.243 102.525 361.128 103.967 361.872 105.406C363.863 109.252 364.984 113.544 365.13 117.873C362.895 117.495 360.748 117.243 358.615 116.474C358.393 112.196 355.673 108.395 352.372 105.664C349.072 102.933 345.173 101.045 341.527 98.7972C338.361 96.8452 335.35 94.6002 331.94 93.1162C326.423 90.7152 320.178 90.4622 314.21 91.2282C309.413 91.8442 304.731 93.0882 300.058 94.3002C298.44 94.7202 296.594 95.8552 294.928 95.5932C292.996 95.2902 291.163 93.9352 289.777 92.6312C287.836 90.8052 286.275 88.5992 284.289 86.8212C283.453 86.0722 282.539 85.3952 281.852 84.5082C279.654 81.6662 282.703 78.1462 284.21 75.6262C291.121 64.0682 289.731 49.5052 282.059 38.7472C278.694 34.0282 273.517 30.7492 267.936 29.1852C262.355 27.6222 256.394 27.7012 250.715 28.8612C243.345 30.3662 236.177 33.8242 231.347 39.5912C228.824 42.6042 227.1 46.2352 226.344 50.0902C225.531 54.2342 226.403 57.0492 227.746 60.9492C228.295 62.5442 228.652 64.3212 228.046 65.8952C227.874 66.3422 227.629 66.7582 227.367 67.1592C226.69 68.1972 225.964 69.2822 225.257 70.2762C224.687 71.0782 223.419 71.8532 223.532 72.9582C223.653 74.1372 225.173 74.6022 225.658 75.6092C226.247 76.8322 226.489 78.5242 225.899 79.7742C225.746 80.0982 225.545 80.4042 225.451 80.7502C225.022 82.3312 226.471 82.7732 227.432 83.4252C227.677 83.5912 229.882 86.2072 229.374 86.2962C228.434 86.4602 228.448 87.7522 229.081 88.3092C229.757 88.9042 230.767 89.1232 231.244 89.8872C231.589 90.4392 231.561 91.1342 231.619 91.7822C232.067 96.7462 237.075 98.0562 241.266 97.8322C242.192 97.7832 243.2 97.7002 243.881 97.0702C241.875 98.9482 240.568 101.533 239.733 104.151C238.898 106.769 238.383 109.483 237.486 112.08C235.493 117.852 231.745 122.753 228.514 127.861C227.011 130.238 225.925 133.024 224.159 135.196C222.362 137.405 219.776 138.206 217.355 139.543C215.7 140.457 214.133 141.718 212.252 141.902C211.042 142.02 209.841 141.672 208.66 141.38C206.187 140.769 203.607 140.505 201.16 141.361C199.201 142.046 197.797 143.434 195.695 143.914C194.018 144.297 192.206 144.609 190.967 145.802C190.103 146.635 189.625 147.808 188.748 148.627C188.131 149.203 187.353 149.57 186.615 149.981C184.619 151.091 182.836 152.58 181.388 154.345C181.176 154.603 180.959 154.909 181.006 155.24C181.076 155.735 181.665 155.951 182.159 156.028C183.617 156.254 185.127 156.143 186.536 155.705C186.236 156.593 187.117 157.481 188.024 157.718C190.589 158.388 193.099 156.217 195.555 155.79C198.528 155.273 201.974 155.917 205 156.079C207.182 156.196 209.478 156.292 211.436 155.322C215.07 153.521 219.393 155.305 223.436 155.626C228.447 156.023 233.513 155.005 238.144 153.107C242.215 151.438 247.301 149.877 250.578 146.89C251.608 145.951 252.69 146.047 253.977 146.583C264.927 151.142 277.004 152.163 288.861 152.435C304.078 152.784 319.322 151.988 334.419 150.055C339.384 149.419 343.973 149.596 348.856 148.493C350.117 148.208 350.549 146.464 351.389 145.519C351.492 145.403 351.603 145.285 351.749 145.231C351.896 145.176 352.058 145.193 352.214 145.21C354.501 145.453 356.73 145.207 359.005 145.18C361.635 145.149 364.265 145.271 366.897 145.221C372.064 145.125 377.227 144.784 382.359 144.196Z" fill="#D8A65F"/>
<path d="M382.359 144.196C384.307 143.974 386.397 143.649 387.805 142.283C389.2 140.93 389.596 138.869 389.817 136.938C390.342 132.345 390.268 127.685 389.609 123.11C389.025 119.054 388.236 113.89 385.285 110.835C388.865 110.544 387.067 106.648 385.619 105.099C383.965 103.329 381.787 102.109 379.733 100.872C376.239 98.7682 372.405 97.3112 368.512 96.1362C366.81 95.6232 364.941 95.3252 363.283 95.9642C361.331 96.7162 359.989 98.8212 360.132 100.909C360.243 102.525 361.128 103.967 361.872 105.406C363.863 109.252 364.984 113.544 365.13 117.873C362.895 117.495 360.748 117.243 358.615 116.474C358.393 112.196 355.673 108.395 352.372 105.664C349.072 102.933 345.173 101.045 341.527 98.7972C338.361 96.8452 335.35 94.6002 331.94 93.1162C326.423 90.7152 320.178 90.4622 314.21 91.2282C309.413 91.8442 304.731 93.0882 300.058 94.3002C298.44 94.7202 296.594 95.8552 294.928 95.5932C292.996 95.2902 291.163 93.9352 289.777 92.6312C287.836 90.8052 286.275 88.5992 284.289 86.8212C283.453 86.0722 282.539 85.3952 281.852 84.5082C279.654 81.6662 282.703 78.1462 284.21 75.6262C291.121 64.0682 289.731 49.5052 282.059 38.7472C278.694 34.0282 273.517 30.7492 267.936 29.1852C262.355 27.6222 256.394 27.7012 250.715 28.8612C243.345 30.3662 236.177 33.8242 231.347 39.5912C228.824 42.6042 227.1 46.2352 226.344 50.0902C225.531 54.2342 226.403 57.0492 227.746 60.9492C228.295 62.5442 228.652 64.3212 228.046 65.8952C227.874 66.3422 227.629 66.7582 227.367 67.1592C226.69 68.1972 225.964 69.2822 225.257 70.2762C224.687 71.0782 223.419 71.8532 223.532 72.9582C223.653 74.1372 225.173 74.6022 225.658 75.6092C226.247 76.8322 226.489 78.5242 225.899 79.7742C225.746 80.0982 225.545 80.4042 225.451 80.7502C225.022 82.3312 226.471 82.7732 227.432 83.4252C227.677 83.5912 229.882 86.2072 229.374 86.2962C228.434 86.4602 228.448 87.7522 229.081 88.3092C229.757 88.9042 230.767 89.1232 231.244 89.8872C231.589 90.4392 231.561 91.1342 231.619 91.7822C232.067 96.7462 237.075 98.0562 241.266 97.8322C242.192 97.7832 243.2 97.7002 243.881 97.0702C241.875 98.9482 240.568 101.533 239.733 104.151C238.898 106.769 238.383 109.483 237.486 112.08C235.493 117.852 231.745 122.753 228.514 127.861C227.011 130.238 225.925 133.024 224.159 135.196C222.362 137.405 219.776 138.206 217.355 139.543C215.7 140.457 214.133 141.718 212.252 141.902C211.042 142.02 209.841 141.672 208.66 141.38C206.187 140.769 203.607 140.505 201.16 141.361C199.201 142.046 197.797 143.434 195.695 143.914C194.018 144.297 192.206 144.609 190.967 145.802C190.103 146.635 189.625 147.808 188.748 148.627C188.131 149.203 187.353 149.57 186.615 149.981C184.619 151.091 182.836 152.58 181.388 154.345C181.176 154.603 180.959 154.909 181.006 155.24C181.076 155.735 181.665 155.951 182.159 156.028C183.617 156.254 185.127 156.143 186.536 155.705C186.236 156.593 187.117 157.481 188.024 157.718C190.589 158.388 193.099 156.217 195.555 155.79C198.528 155.273 201.974 155.917 205 156.079C207.182 156.196 209.478 156.292 211.436 155.322C215.07 153.521 219.393 155.305 223.436 155.626C228.447 156.023 233.513 155.005 238.144 153.107C242.215 151.438 247.301 149.877 250.578 146.89C251.608 145.951 252.69 146.047 253.977 146.583C264.927 151.142 277.004 152.163 288.861 152.435C304.078 152.784 319.322 151.988 334.419 150.055C339.384 149.419 343.973 149.596 348.856 148.493C350.117 148.208 350.549 146.464 351.389 145.519C351.492 145.403 351.603 145.285 351.749 145.231C351.896 145.176 352.058 145.193 352.214 145.21C354.501 145.453 356.73 145.207 359.005 145.18C361.635 145.149 364.265 145.271 366.897 145.221C372.064 145.125 377.227 144.784 382.359 144.196Z" stroke="white" stroke-width="12" mask="url(#path-1-outside-1_2396_8056)"/>
</g>
<g filter="url(#filter1_d_2396_8056)">
<mask id="path-2-outside-2_2396_8056" maskUnits="userSpaceOnUse" x="4" y="0" width="152" height="171" fill="black">
<rect fill="white" x="4" width="152" height="171"/>
<path d="M26.7058 98.1113C21.7508 103.689 17.8238 111.221 19.6888 118.773C20.4938 122.032 22.1628 125.001 23.8138 127.925C22.5868 127.715 20.9758 128.366 19.9208 127.704C18.9028 127.064 17.8418 126.409 16.6498 126.255C15.4248 126.096 14.1698 126.496 13.1458 127.187C10.8558 128.732 8.67776 133.343 11.6668 135.336C8.35076 139.443 10.3088 147.866 14.6708 150.675C16.4168 151.799 18.5728 152.04 20.6458 152.168C26.0938 152.503 31.5728 152.263 37.0018 152.825C44.3748 153.588 51.5868 155.825 58.9988 155.939C61.8428 155.983 64.7738 155.689 67.3008 154.382C71.9078 151.999 74.2688 146.784 75.6248 141.778C79.9348 140.502 83.9768 138.346 87.3688 135.397C89.1918 139.834 93.6578 143.026 94.5718 147.735C94.9888 149.886 94.6178 152.212 95.5308 154.205C96.8278 157.038 100.853 158.177 103.443 156.445C103.215 158.682 105.855 160.66 107.938 159.813C108.223 159.697 108.506 159.538 108.813 159.55C109.228 159.565 109.559 159.882 109.872 160.155C112.655 162.591 116.793 162.768 120.405 161.971C121.667 161.692 122.854 161.84 123.93 161.124C125.212 160.272 127.125 160.571 128.085 161.774C128.469 162.256 128.704 162.841 129.074 163.334C129.628 164.071 130.546 164.581 131.459 164.456C132.372 164.332 133.174 163.45 133.038 162.538C132.939 161.874 132.421 161.366 132.026 160.824C131.631 160.281 131.349 159.512 131.737 158.964C133.376 159.965 135.694 159.905 136.852 161.437C137.142 161.82 137.334 162.281 137.683 162.611C138.305 163.2 139.273 163.232 140.112 163.058C140.495 162.979 140.89 162.852 141.153 162.562C141.416 162.273 141.488 161.779 141.213 161.5C141.797 161.594 142.404 161.687 142.973 161.524C143.542 161.361 144.061 160.864 144.047 160.272C144.038 159.887 143.814 159.545 143.599 159.226C142.886 158.17 142.172 157.115 141.459 156.059C141.016 155.404 140.913 154.756 140.556 154.05C139.241 151.45 136.451 149.664 133.54 149.557C131.464 149.481 129.406 150.194 127.337 150.008C127.499 149.156 126.92 148.337 126.264 147.768C125.609 147.199 124.83 146.74 124.359 146.012C123.737 145.053 123.768 143.827 123.821 142.686C124.753 143.784 126.024 144.54 127.328 145.151C129.1 145.981 131.352 146.529 132.892 145.321C133.468 144.869 134.049 143.942 133.375 143.654C135.639 143.696 137.906 143.583 140.154 143.314C140.444 143.279 140.767 143.25 141.001 143.425C141.19 143.566 141.272 143.804 141.354 144.025C141.707 144.978 142.325 145.942 143.302 146.22C144.279 146.498 145.531 145.644 145.277 144.661C145.549 145.502 146.496 146.063 147.364 145.897C148.232 145.731 148.906 144.86 148.848 143.978C148.832 143.729 148.765 143.485 148.769 143.236C148.782 142.572 149.283 142.035 149.584 141.443C150.243 140.145 149.887 138.478 148.927 137.383C147.967 136.289 146.506 135.725 145.055 135.614C143.215 135.473 141.216 135.965 139.613 135.052C139.072 134.744 138.938 134.502 138.438 134.131C139.061 131.901 139.683 129.67 140.306 127.44C140.635 126.262 140.959 124.976 140.491 123.846C140.184 123.104 139.572 122.535 139.153 121.85C138.036 120.027 138.412 117.712 138.555 115.579C138.964 109.512 137.086 103.317 133.378 98.4982C132.458 97.3032 131.413 96.1592 130.881 94.7472C129.599 91.3382 131.649 87.6302 131.755 83.9902C131.89 79.3623 128.912 75.3002 126.154 71.5822C123.883 68.5202 130.859 67.4672 132.778 67.1382C134.091 66.9132 135.442 66.8182 136.688 66.3472C140.117 65.0512 143.437 61.3382 144.874 58.0582C146.153 55.1402 146.528 51.8592 146.055 48.7162C145.596 45.6622 143.358 43.1582 142.979 40.2872C142.454 36.3082 143.596 32.3552 143.086 28.3952C142.306 22.3422 138.193 15.8383 133.345 12.2063C127.434 7.77825 119.87 5.92624 112.485 6.00224C103.131 6.09824 93.3798 9.49424 87.9338 17.4892C84.4338 22.6282 82.9528 29.0283 83.4328 35.2283C83.7988 39.9533 85.2468 44.5282 86.9408 48.9542C87.9788 51.6652 89.1227 54.3812 89.4658 57.2642C87.8408 57.5012 86.6598 58.7102 85.7938 60.1052C84.9278 61.5002 84.3508 63.0663 83.4118 64.4133C82.0318 66.3933 79.9638 67.7752 77.8798 68.9932C68.5538 74.4392 58.1148 76.6742 48.5828 81.5723C41.0368 85.4492 34.1058 90.5262 28.1518 96.5702C27.6638 97.0612 27.1798 97.5773 26.7058 98.1113Z"/>
</mask>
<path d="M26.7058 98.1113C21.7508 103.689 17.8238 111.221 19.6888 118.773C20.4938 122.032 22.1628 125.001 23.8138 127.925C22.5868 127.715 20.9758 128.366 19.9208 127.704C18.9028 127.064 17.8418 126.409 16.6498 126.255C15.4248 126.096 14.1698 126.496 13.1458 127.187C10.8558 128.732 8.67776 133.343 11.6668 135.336C8.35076 139.443 10.3088 147.866 14.6708 150.675C16.4168 151.799 18.5728 152.04 20.6458 152.168C26.0938 152.503 31.5728 152.263 37.0018 152.825C44.3748 153.588 51.5868 155.825 58.9988 155.939C61.8428 155.983 64.7738 155.689 67.3008 154.382C71.9078 151.999 74.2688 146.784 75.6248 141.778C79.9348 140.502 83.9768 138.346 87.3688 135.397C89.1918 139.834 93.6578 143.026 94.5718 147.735C94.9888 149.886 94.6178 152.212 95.5308 154.205C96.8278 157.038 100.853 158.177 103.443 156.445C103.215 158.682 105.855 160.66 107.938 159.813C108.223 159.697 108.506 159.538 108.813 159.55C109.228 159.565 109.559 159.882 109.872 160.155C112.655 162.591 116.793 162.768 120.405 161.971C121.667 161.692 122.854 161.84 123.93 161.124C125.212 160.272 127.125 160.571 128.085 161.774C128.469 162.256 128.704 162.841 129.074 163.334C129.628 164.071 130.546 164.581 131.459 164.456C132.372 164.332 133.174 163.45 133.038 162.538C132.939 161.874 132.421 161.366 132.026 160.824C131.631 160.281 131.349 159.512 131.737 158.964C133.376 159.965 135.694 159.905 136.852 161.437C137.142 161.82 137.334 162.281 137.683 162.611C138.305 163.2 139.273 163.232 140.112 163.058C140.495 162.979 140.89 162.852 141.153 162.562C141.416 162.273 141.488 161.779 141.213 161.5C141.797 161.594 142.404 161.687 142.973 161.524C143.542 161.361 144.061 160.864 144.047 160.272C144.038 159.887 143.814 159.545 143.599 159.226C142.886 158.17 142.172 157.115 141.459 156.059C141.016 155.404 140.913 154.756 140.556 154.05C139.241 151.45 136.451 149.664 133.54 149.557C131.464 149.481 129.406 150.194 127.337 150.008C127.499 149.156 126.92 148.337 126.264 147.768C125.609 147.199 124.83 146.74 124.359 146.012C123.737 145.053 123.768 143.827 123.821 142.686C124.753 143.784 126.024 144.54 127.328 145.151C129.1 145.981 131.352 146.529 132.892 145.321C133.468 144.869 134.049 143.942 133.375 143.654C135.639 143.696 137.906 143.583 140.154 143.314C140.444 143.279 140.767 143.25 141.001 143.425C141.19 143.566 141.272 143.804 141.354 144.025C141.707 144.978 142.325 145.942 143.302 146.22C144.279 146.498 145.531 145.644 145.277 144.661C145.549 145.502 146.496 146.063 147.364 145.897C148.232 145.731 148.906 144.86 148.848 143.978C148.832 143.729 148.765 143.485 148.769 143.236C148.782 142.572 149.283 142.035 149.584 141.443C150.243 140.145 149.887 138.478 148.927 137.383C147.967 136.289 146.506 135.725 145.055 135.614C143.215 135.473 141.216 135.965 139.613 135.052C139.072 134.744 138.938 134.502 138.438 134.131C139.061 131.901 139.683 129.67 140.306 127.44C140.635 126.262 140.959 124.976 140.491 123.846C140.184 123.104 139.572 122.535 139.153 121.85C138.036 120.027 138.412 117.712 138.555 115.579C138.964 109.512 137.086 103.317 133.378 98.4982C132.458 97.3032 131.413 96.1592 130.881 94.7472C129.599 91.3382 131.649 87.6302 131.755 83.9902C131.89 79.3623 128.912 75.3002 126.154 71.5822C123.883 68.5202 130.859 67.4672 132.778 67.1382C134.091 66.9132 135.442 66.8182 136.688 66.3472C140.117 65.0512 143.437 61.3382 144.874 58.0582C146.153 55.1402 146.528 51.8592 146.055 48.7162C145.596 45.6622 143.358 43.1582 142.979 40.2872C142.454 36.3082 143.596 32.3552 143.086 28.3952C142.306 22.3422 138.193 15.8383 133.345 12.2063C127.434 7.77825 119.87 5.92624 112.485 6.00224C103.131 6.09824 93.3798 9.49424 87.9338 17.4892C84.4338 22.6282 82.9528 29.0283 83.4328 35.2283C83.7988 39.9533 85.2468 44.5282 86.9408 48.9542C87.9788 51.6652 89.1227 54.3812 89.4658 57.2642C87.8408 57.5012 86.6598 58.7102 85.7938 60.1052C84.9278 61.5002 84.3508 63.0663 83.4118 64.4133C82.0318 66.3933 79.9638 67.7752 77.8798 68.9932C68.5538 74.4392 58.1148 76.6742 48.5828 81.5723C41.0368 85.4492 34.1058 90.5262 28.1518 96.5702C27.6638 97.0612 27.1798 97.5773 26.7058 98.1113Z" fill="#D8A65F"/>
<path d="M26.7058 98.1113C21.7508 103.689 17.8238 111.221 19.6888 118.773C20.4938 122.032 22.1628 125.001 23.8138 127.925C22.5868 127.715 20.9758 128.366 19.9208 127.704C18.9028 127.064 17.8418 126.409 16.6498 126.255C15.4248 126.096 14.1698 126.496 13.1458 127.187C10.8558 128.732 8.67776 133.343 11.6668 135.336C8.35076 139.443 10.3088 147.866 14.6708 150.675C16.4168 151.799 18.5728 152.04 20.6458 152.168C26.0938 152.503 31.5728 152.263 37.0018 152.825C44.3748 153.588 51.5868 155.825 58.9988 155.939C61.8428 155.983 64.7738 155.689 67.3008 154.382C71.9078 151.999 74.2688 146.784 75.6248 141.778C79.9348 140.502 83.9768 138.346 87.3688 135.397C89.1918 139.834 93.6578 143.026 94.5718 147.735C94.9888 149.886 94.6178 152.212 95.5308 154.205C96.8278 157.038 100.853 158.177 103.443 156.445C103.215 158.682 105.855 160.66 107.938 159.813C108.223 159.697 108.506 159.538 108.813 159.55C109.228 159.565 109.559 159.882 109.872 160.155C112.655 162.591 116.793 162.768 120.405 161.971C121.667 161.692 122.854 161.84 123.93 161.124C125.212 160.272 127.125 160.571 128.085 161.774C128.469 162.256 128.704 162.841 129.074 163.334C129.628 164.071 130.546 164.581 131.459 164.456C132.372 164.332 133.174 163.45 133.038 162.538C132.939 161.874 132.421 161.366 132.026 160.824C131.631 160.281 131.349 159.512 131.737 158.964C133.376 159.965 135.694 159.905 136.852 161.437C137.142 161.82 137.334 162.281 137.683 162.611C138.305 163.2 139.273 163.232 140.112 163.058C140.495 162.979 140.89 162.852 141.153 162.562C141.416 162.273 141.488 161.779 141.213 161.5C141.797 161.594 142.404 161.687 142.973 161.524C143.542 161.361 144.061 160.864 144.047 160.272C144.038 159.887 143.814 159.545 143.599 159.226C142.886 158.17 142.172 157.115 141.459 156.059C141.016 155.404 140.913 154.756 140.556 154.05C139.241 151.45 136.451 149.664 133.54 149.557C131.464 149.481 129.406 150.194 127.337 150.008C127.499 149.156 126.92 148.337 126.264 147.768C125.609 147.199 124.83 146.74 124.359 146.012C123.737 145.053 123.768 143.827 123.821 142.686C124.753 143.784 126.024 144.54 127.328 145.151C129.1 145.981 131.352 146.529 132.892 145.321C133.468 144.869 134.049 143.942 133.375 143.654C135.639 143.696 137.906 143.583 140.154 143.314C140.444 143.279 140.767 143.25 141.001 143.425C141.19 143.566 141.272 143.804 141.354 144.025C141.707 144.978 142.325 145.942 143.302 146.22C144.279 146.498 145.531 145.644 145.277 144.661C145.549 145.502 146.496 146.063 147.364 145.897C148.232 145.731 148.906 144.86 148.848 143.978C148.832 143.729 148.765 143.485 148.769 143.236C148.782 142.572 149.283 142.035 149.584 141.443C150.243 140.145 149.887 138.478 148.927 137.383C147.967 136.289 146.506 135.725 145.055 135.614C143.215 135.473 141.216 135.965 139.613 135.052C139.072 134.744 138.938 134.502 138.438 134.131C139.061 131.901 139.683 129.67 140.306 127.44C140.635 126.262 140.959 124.976 140.491 123.846C140.184 123.104 139.572 122.535 139.153 121.85C138.036 120.027 138.412 117.712 138.555 115.579C138.964 109.512 137.086 103.317 133.378 98.4982C132.458 97.3032 131.413 96.1592 130.881 94.7472C129.599 91.3382 131.649 87.6302 131.755 83.9902C131.89 79.3623 128.912 75.3002 126.154 71.5822C123.883 68.5202 130.859 67.4672 132.778 67.1382C134.091 66.9132 135.442 66.8182 136.688 66.3472C140.117 65.0512 143.437 61.3382 144.874 58.0582C146.153 55.1402 146.528 51.8592 146.055 48.7162C145.596 45.6622 143.358 43.1582 142.979 40.2872C142.454 36.3082 143.596 32.3552 143.086 28.3952C142.306 22.3422 138.193 15.8383 133.345 12.2063C127.434 7.77825 119.87 5.92624 112.485 6.00224C103.131 6.09824 93.3798 9.49424 87.9338 17.4892C84.4338 22.6282 82.9528 29.0283 83.4328 35.2283C83.7988 39.9533 85.2468 44.5282 86.9408 48.9542C87.9788 51.6652 89.1227 54.3812 89.4658 57.2642C87.8408 57.5012 86.6598 58.7102 85.7938 60.1052C84.9278 61.5002 84.3508 63.0663 83.4118 64.4133C82.0318 66.3933 79.9638 67.7752 77.8798 68.9932C68.5538 74.4392 58.1148 76.6742 48.5828 81.5723C41.0368 85.4492 34.1058 90.5262 28.1518 96.5702C27.6638 97.0612 27.1798 97.5773 26.7058 98.1113Z" stroke="white" stroke-width="12" mask="url(#path-2-outside-2_2396_8056)"/>
</g>
<defs>
<filter id="filter0_d_2396_8056" x="171" y="22" width="229.164" height="149.845" filterUnits="userSpaceOnUse" color-interpolation-filters="sRGB">
<feFlood flood-opacity="0" result="BackgroundImageFix"/>
<feColorMatrix in="SourceAlpha" type="matrix" values="0 0 0 0 0 0 0 0 0 0 0 0 0 0 0 0 0 0 127 0" result="hardAlpha"/>
<feOffset dy="4"/>
<feGaussianBlur stdDeviation="2"/>
<feComposite in2="hardAlpha" operator="out"/>
<feColorMatrix type="matrix" values="0 0 0 0 0 0 0 0 0 0 0 0 0 0 0 0 0 0 0.25 0"/>
<feBlend mode="normal" in2="BackgroundImageFix" result="effect1_dropShadow_2396_8056"/>
<feBlend mode="normal" in="SourceGraphic" in2="effect1_dropShadow_2396_8056" result="shape"/>
</filter>
<filter id="filter1_d_2396_8056" x="0.00390625" y="0" width="159.922" height="178.479" filterUnits="userSpaceOnUse" color-interpolation-filters="sRGB">
<feFlood flood-opacity="0" result="BackgroundImageFix"/>
<feColorMatrix in="SourceAlpha" type="matrix" values="0 0 0 0 0 0 0 0 0 0 0 0 0 0 0 0 0 0 127 0" result="hardAlpha"/>
<feOffset dy="4"/>
<feGaussianBlur stdDeviation="2"/>
<feComposite in2="hardAlpha" operator="out"/>
<feColorMatrix type="matrix" values="0 0 0 0 0 0 0 0 0 0 0 0 0 0 0 0 0 0 0.25 0"/>
<feBlend mode="normal" in2="BackgroundImageFix" result="effect1_dropShadow_2396_8056"/>
<feBlend mode="normal" in="SourceGraphic" in2="effect1_dropShadow_2396_8056" result="shape"/>
</filter>
</defs>
</svg>
