<svg width="146" height="222" viewBox="0 0 146 222" fill="none" xmlns="http://www.w3.org/2000/svg">
<g filter="url(#filter0_d_2327_10168)">
<mask id="path-1-outside-1_2327_10168" maskUnits="userSpaceOnUse" x="3" y="-1" width="139" height="215" fill="black">
<rect fill="white" x="3" y="-1" width="139" height="215"/>
<path fill-rule="evenodd" clip-rule="evenodd" d="M107.551 64.0998C106.455 71.6827 103.217 77.2709 101.921 78.6184C100.626 79.9649 98.3834 80.264 97.4861 80.8622C96.5888 81.4604 95.094 85.8511 94.4954 90.1407C93.8979 94.4313 92.6019 95.1796 90.4097 94.6804C88.2174 94.1812 86.9214 93.3829 86.9214 93.3829C85.767 94.175 85.3517 95.5902 85.4266 97.4995C84.522 98.4979 83.0053 98.5542 81.8894 98.0237C81.8894 100.124 80.6132 100.707 78.5761 100.181C77.8037 99.982 77.43 100.605 76.9324 101.427C76.4338 102.251 75.4376 104.596 71.9494 104.696C68.4622 104.796 63.578 100.705 59.9909 95.0181C57.1189 96.3135 55.7698 98.3624 55.317 100.658C56.9367 103.471 57.2032 105.272 57.2032 105.272C57.2032 105.272 61.5877 107.268 65.2748 110.461C68.9618 113.653 74.7422 119.241 76.0382 129.118C77.2062 138.018 83.0636 140.196 85.0154 148.275C86.5196 145.781 89.0575 142.261 93.0349 138.598L93.1921 138.454C92.4406 137.166 92.2532 135.705 92.2532 135.705C90.2847 135.787 89.7809 134.356 90.5533 132.504C90.5533 132.504 89.5956 132.512 88.7191 132.277C87.8437 132.042 87.6074 131.468 87.649 131.076C87.6896 130.684 87.3878 129.267 87.3878 129.267C87.3878 129.267 85.3215 128.886 84.7864 127.914C84.2503 126.943 84.6542 125.829 85.4672 124.961C86.2791 124.093 85.2257 122.345 85.2257 122.345C76.211 110.658 82.106 97.7924 94.8379 93.7435C116.057 86.9923 126.173 105.082 119.756 124.637C118.783 127.604 119.224 130.104 119.657 131.503C119.955 131.717 120.241 131.967 120.516 132.248C120.548 131.754 120.606 131.303 120.694 130.918C121.056 129.338 121.68 128.029 122.401 127.109C123.135 126.174 125.938 124.767 126.051 126.054C126.051 126.054 125.702 128.298 125.602 129.644C125.181 135.332 127.87 142.375 129.439 147.704C133.228 160.575 142.232 162.84 129.161 173.27C130.157 176.861 131.204 180.503 131.403 186.091C131.802 197.265 126.62 205.845 126.62 205.845L92.883 206.55L92.9173 206.656L86.3884 206.685L82.7493 206.761V206.701L17.4294 207C17.4294 207 18.0414 185.99 15.2517 164.439C12.8502 145.893 3.4358 114.649 17.7937 93.8738C18.8117 92.4012 22.3749 90.6774 23.6158 89.3216C25.2126 87.579 27.0009 85.9376 29.0027 84.4202C29.0027 84.4202 29.6918 84.4338 30.8608 84.5817C38.1808 77.2928 43.3564 71.2752 46.7905 65.2368C46.1087 64.3698 46.4855 63.0681 44.0663 62.3C38.7356 60.6075 39.8036 54.986 39.331 54.1377C38.6034 52.8339 33.1478 51.4666 36.2644 45.3459C33.4382 40.6154 33.9951 38.5154 38.5774 35.5306C38.5462 32.7272 39.3654 31.2087 41.5254 29.4151C43.5001 27.7747 40.525 24.4773 48.2021 21.8239C48.5331 19.2081 48.2916 15.6542 52.1889 16.0378L53.7066 15.7001C56.4589 13.8346 54.6435 10.955 63.1366 10.9655C68.8983 10.9728 67.1984 5.46696 72.7217 6.66859C77.4456 7.69722 76.6753 3.99541 80.5633 7.65762C86.173 4.74161 91.1071 6.01202 93.3223 12.2484C98.1148 11.0437 100.86 12.2567 101.535 16.8079C103.221 16.6235 104.368 16.7152 105.522 18.1159C107.51 20.5306 109.088 18.4921 109.797 22.3554C113.823 22.2002 115.276 24.2168 114.427 28.076C115.646 29.2703 115.948 30.0571 116.288 31.7142C116.954 34.9731 120.462 33.3108 118.587 39.3627C121.624 41.7097 121.789 43.6659 118.675 45.9993C115.435 48.4276 119.168 50.7506 115.389 53.4655C111.457 56.2929 111.61 58.1615 107.998 58.7055C107.966 60.4095 107.826 62.2051 107.551 64.0998Z"/>
</mask>
<path fill-rule="evenodd" clip-rule="evenodd" d="M107.551 64.0998C106.455 71.6827 103.217 77.2709 101.921 78.6184C100.626 79.9649 98.3834 80.264 97.4861 80.8622C96.5888 81.4604 95.094 85.8511 94.4954 90.1407C93.8979 94.4313 92.6019 95.1796 90.4097 94.6804C88.2174 94.1812 86.9214 93.3829 86.9214 93.3829C85.767 94.175 85.3517 95.5902 85.4266 97.4995C84.522 98.4979 83.0053 98.5542 81.8894 98.0237C81.8894 100.124 80.6132 100.707 78.5761 100.181C77.8037 99.982 77.43 100.605 76.9324 101.427C76.4338 102.251 75.4376 104.596 71.9494 104.696C68.4622 104.796 63.578 100.705 59.9909 95.0181C57.1189 96.3135 55.7698 98.3624 55.317 100.658C56.9367 103.471 57.2032 105.272 57.2032 105.272C57.2032 105.272 61.5877 107.268 65.2748 110.461C68.9618 113.653 74.7422 119.241 76.0382 129.118C77.2062 138.018 83.0636 140.196 85.0154 148.275C86.5196 145.781 89.0575 142.261 93.0349 138.598L93.1921 138.454C92.4406 137.166 92.2532 135.705 92.2532 135.705C90.2847 135.787 89.7809 134.356 90.5533 132.504C90.5533 132.504 89.5956 132.512 88.7191 132.277C87.8437 132.042 87.6074 131.468 87.649 131.076C87.6896 130.684 87.3878 129.267 87.3878 129.267C87.3878 129.267 85.3215 128.886 84.7864 127.914C84.2503 126.943 84.6542 125.829 85.4672 124.961C86.2791 124.093 85.2257 122.345 85.2257 122.345C76.211 110.658 82.106 97.7924 94.8379 93.7435C116.057 86.9923 126.173 105.082 119.756 124.637C118.783 127.604 119.224 130.104 119.657 131.503C119.955 131.717 120.241 131.967 120.516 132.248C120.548 131.754 120.606 131.303 120.694 130.918C121.056 129.338 121.68 128.029 122.401 127.109C123.135 126.174 125.938 124.767 126.051 126.054C126.051 126.054 125.702 128.298 125.602 129.644C125.181 135.332 127.87 142.375 129.439 147.704C133.228 160.575 142.232 162.84 129.161 173.27C130.157 176.861 131.204 180.503 131.403 186.091C131.802 197.265 126.62 205.845 126.62 205.845L92.883 206.55L92.9173 206.656L86.3884 206.685L82.7493 206.761V206.701L17.4294 207C17.4294 207 18.0414 185.99 15.2517 164.439C12.8502 145.893 3.4358 114.649 17.7937 93.8738C18.8117 92.4012 22.3749 90.6774 23.6158 89.3216C25.2126 87.579 27.0009 85.9376 29.0027 84.4202C29.0027 84.4202 29.6918 84.4338 30.8608 84.5817C38.1808 77.2928 43.3564 71.2752 46.7905 65.2368C46.1087 64.3698 46.4855 63.0681 44.0663 62.3C38.7356 60.6075 39.8036 54.986 39.331 54.1377C38.6034 52.8339 33.1478 51.4666 36.2644 45.3459C33.4382 40.6154 33.9951 38.5154 38.5774 35.5306C38.5462 32.7272 39.3654 31.2087 41.5254 29.4151C43.5001 27.7747 40.525 24.4773 48.2021 21.8239C48.5331 19.2081 48.2916 15.6542 52.1889 16.0378L53.7066 15.7001C56.4589 13.8346 54.6435 10.955 63.1366 10.9655C68.8983 10.9728 67.1984 5.46696 72.7217 6.66859C77.4456 7.69722 76.6753 3.99541 80.5633 7.65762C86.173 4.74161 91.1071 6.01202 93.3223 12.2484C98.1148 11.0437 100.86 12.2567 101.535 16.8079C103.221 16.6235 104.368 16.7152 105.522 18.1159C107.51 20.5306 109.088 18.4921 109.797 22.3554C113.823 22.2002 115.276 24.2168 114.427 28.076C115.646 29.2703 115.948 30.0571 116.288 31.7142C116.954 34.9731 120.462 33.3108 118.587 39.3627C121.624 41.7097 121.789 43.6659 118.675 45.9993C115.435 48.4276 119.168 50.7506 115.389 53.4655C111.457 56.2929 111.61 58.1615 107.998 58.7055C107.966 60.4095 107.826 62.2051 107.551 64.0998Z" fill="#CA6AB7"/>
<path fill-rule="evenodd" clip-rule="evenodd" d="M107.551 64.0998C106.455 71.6827 103.217 77.2709 101.921 78.6184C100.626 79.9649 98.3834 80.264 97.4861 80.8622C96.5888 81.4604 95.094 85.8511 94.4954 90.1407C93.8979 94.4313 92.6019 95.1796 90.4097 94.6804C88.2174 94.1812 86.9214 93.3829 86.9214 93.3829C85.767 94.175 85.3517 95.5902 85.4266 97.4995C84.522 98.4979 83.0053 98.5542 81.8894 98.0237C81.8894 100.124 80.6132 100.707 78.5761 100.181C77.8037 99.982 77.43 100.605 76.9324 101.427C76.4338 102.251 75.4376 104.596 71.9494 104.696C68.4622 104.796 63.578 100.705 59.9909 95.0181C57.1189 96.3135 55.7698 98.3624 55.317 100.658C56.9367 103.471 57.2032 105.272 57.2032 105.272C57.2032 105.272 61.5877 107.268 65.2748 110.461C68.9618 113.653 74.7422 119.241 76.0382 129.118C77.2062 138.018 83.0636 140.196 85.0154 148.275C86.5196 145.781 89.0575 142.261 93.0349 138.598L93.1921 138.454C92.4406 137.166 92.2532 135.705 92.2532 135.705C90.2847 135.787 89.7809 134.356 90.5533 132.504C90.5533 132.504 89.5956 132.512 88.7191 132.277C87.8437 132.042 87.6074 131.468 87.649 131.076C87.6896 130.684 87.3878 129.267 87.3878 129.267C87.3878 129.267 85.3215 128.886 84.7864 127.914C84.2503 126.943 84.6542 125.829 85.4672 124.961C86.2791 124.093 85.2257 122.345 85.2257 122.345C76.211 110.658 82.106 97.7924 94.8379 93.7435C116.057 86.9923 126.173 105.082 119.756 124.637C118.783 127.604 119.224 130.104 119.657 131.503C119.955 131.717 120.241 131.967 120.516 132.248C120.548 131.754 120.606 131.303 120.694 130.918C121.056 129.338 121.68 128.029 122.401 127.109C123.135 126.174 125.938 124.767 126.051 126.054C126.051 126.054 125.702 128.298 125.602 129.644C125.181 135.332 127.87 142.375 129.439 147.704C133.228 160.575 142.232 162.84 129.161 173.27C130.157 176.861 131.204 180.503 131.403 186.091C131.802 197.265 126.62 205.845 126.62 205.845L92.883 206.55L92.9173 206.656L86.3884 206.685L82.7493 206.761V206.701L17.4294 207C17.4294 207 18.0414 185.99 15.2517 164.439C12.8502 145.893 3.4358 114.649 17.7937 93.8738C18.8117 92.4012 22.3749 90.6774 23.6158 89.3216C25.2126 87.579 27.0009 85.9376 29.0027 84.4202C29.0027 84.4202 29.6918 84.4338 30.8608 84.5817C38.1808 77.2928 43.3564 71.2752 46.7905 65.2368C46.1087 64.3698 46.4855 63.0681 44.0663 62.3C38.7356 60.6075 39.8036 54.986 39.331 54.1377C38.6034 52.8339 33.1478 51.4666 36.2644 45.3459C33.4382 40.6154 33.9951 38.5154 38.5774 35.5306C38.5462 32.7272 39.3654 31.2087 41.5254 29.4151C43.5001 27.7747 40.525 24.4773 48.2021 21.8239C48.5331 19.2081 48.2916 15.6542 52.1889 16.0378L53.7066 15.7001C56.4589 13.8346 54.6435 10.955 63.1366 10.9655C68.8983 10.9728 67.1984 5.46696 72.7217 6.66859C77.4456 7.69722 76.6753 3.99541 80.5633 7.65762C86.173 4.74161 91.1071 6.01202 93.3223 12.2484C98.1148 11.0437 100.86 12.2567 101.535 16.8079C103.221 16.6235 104.368 16.7152 105.522 18.1159C107.51 20.5306 109.088 18.4921 109.797 22.3554C113.823 22.2002 115.276 24.2168 114.427 28.076C115.646 29.2703 115.948 30.0571 116.288 31.7142C116.954 34.9731 120.462 33.3108 118.587 39.3627C121.624 41.7097 121.789 43.6659 118.675 45.9993C115.435 48.4276 119.168 50.7506 115.389 53.4655C111.457 56.2929 111.61 58.1615 107.998 58.7055C107.966 60.4095 107.826 62.2051 107.551 64.0998Z" stroke="white" stroke-width="12" mask="url(#path-1-outside-1_2327_10168)"/>
</g>
<defs>
<filter id="filter0_d_2327_10168" x="0" y="-0.000976562" width="146" height="221.029" filterUnits="userSpaceOnUse" color-interpolation-filters="sRGB">
<feFlood flood-opacity="0" result="BackgroundImageFix"/>
<feColorMatrix in="SourceAlpha" type="matrix" values="0 0 0 0 0 0 0 0 0 0 0 0 0 0 0 0 0 0 127 0" result="hardAlpha"/>
<feOffset dy="4"/>
<feGaussianBlur stdDeviation="2"/>
<feComposite in2="hardAlpha" operator="out"/>
<feColorMatrix type="matrix" values="0 0 0 0 0 0 0 0 0 0 0 0 0 0 0 0 0 0 0.25 0"/>
<feBlend mode="normal" in2="BackgroundImageFix" result="effect1_dropShadow_2327_10168"/>
<feBlend mode="normal" in="SourceGraphic" in2="effect1_dropShadow_2327_10168" result="shape"/>
</filter>
</defs>
</svg>
