<svg width="15" height="16" viewBox="0 0 15 16" fill="none" xmlns="http://www.w3.org/2000/svg">
<g clip-path="url(#clip0_2327_6335)">
<path d="M14.613 8.75227C14.8378 8.50725 14.9848 8.16155 14.9662 7.82363C14.9258 7.09138 14.4727 6.6367 13.9447 6.18115C11.103 4.5144 4.94312 0.614099 2.06328 0C1.52806 0.241362 0.804906 0.475153 0.59738 1.08418C-0.0523952 2.99042 0.217804 7.48135 0.156516 9.67227C0.0866126 11.3294 -0.407011 14.4067 0.822514 15.7019C1.02688 15.9172 1.09434 15.9556 1.39432 15.9907C1.98434 16.0592 2.80743 15.7342 3.33469 15.5032C4.90631 14.8144 13.7204 9.72659 14.613 8.75227ZM3.09166 12.1417L3.32582 8.04047C3.40515 6.64165 3.41274 5.23176 3.45052 3.83074C5.67642 5.17042 8.00275 6.49713 10.317 7.67907C8.90665 9.04238 4.9914 10.8041 3.09166 12.1417Z" fill="#D08F3F"/>
</g>
<defs>
<clipPath id="clip0_2327_6335">
<rect width="14.9677" height="16" fill="white"/>
</clipPath>
</defs>
</svg>
