<svg width="1130" height="343" viewBox="0 0 1130 343" fill="none" xmlns="http://www.w3.org/2000/svg">
<g id="Crit&#195;&#169;rios_de_diagn&#195;&#179;stico">
<rect id="Rectangle 240" width="1130" height="343" fill="url(#paint0_linear_2327_6458)"/>
<text id="Quais s&#195;&#163;o os crit&#195;&#169;rios de diagn&#195;&#179;stico?" fill="#434556" xml:space="preserve" style="white-space: pre" font-family="Playpen Sans" font-size="24" font-weight="500" letter-spacing="0em"><tspan x="393" y="79.96">Quais s&#xe3;o os crit&#xe9;rios de diagn&#xf3;stico?</tspan></text>
<g id="Quando falamos em diagn&#195;&#179;stico para o Transtorno do Espectro Autista, temos as orienta&#195;&#167;&#195;&#181;es da Sociedade Brasileira de Pediatria (SBP) e do Minist&#195;&#169;rio da Sa&#195;&#186;de referente aplica&#195;&#167;&#195;&#163;o do instrumento de triagem Modifield Checklist for Autism in Toddlers (M-CHAT), validado e traduzido para o portugu&#195;&#170;s em 2008 (Brasil, 2023a).&#194;&#160;&#194;&#160; Clique aqui e confira mais detalhes sobre os testes de triagem.">
<text fill="#434556" xml:space="preserve" style="white-space: pre" font-family="Open Sans" font-size="18" letter-spacing="0em"><tspan x="393" y="129.483">Quando </tspan><tspan x="467.273" y="129.483">falamos </tspan><tspan x="540.298" y="129.483">em </tspan><tspan x="573.403" y="129.483">diagn&#xf3;stico </tspan><tspan x="675.959" y="129.483">para </tspan><tspan x="720.684" y="129.483">o </tspan><tspan x="737.845" y="129.483">Transtorno </tspan><tspan x="837.554" y="129.483">do </tspan><tspan x="865.737" y="129.483">Espectro </tspan><tspan x="945.02" y="129.483">Autista, </tspan><tspan x="1014.41" y="129.483">temos </tspan><tspan x="393" y="154.483">as </tspan><tspan x="420.214" y="154.483">orienta&#xe7;&#xf5;es </tspan><tspan x="527.304" y="154.483">da </tspan><tspan x="556.961" y="154.483">Sociedade </tspan><tspan x="651.746" y="154.483">Brasileira </tspan><tspan x="739.095" y="154.483">de </tspan><tspan x="768.858" y="154.483">Pediatria </tspan><tspan x="852.34" y="154.483">(SBP) </tspan><tspan x="903.935" y="154.483">e </tspan><tspan x="922.677" y="154.483">do </tspan><tspan x="953.161" y="154.483">Minist&#xe9;rio </tspan><tspan x="1045.98" y="154.483">da </tspan><tspan x="393" y="179.483">Sa&#xfa;de </tspan><tspan x="453.42" y="179.483">referente </tspan><tspan x="540.471" y="179.483">aplica&#xe7;&#xe3;o </tspan><tspan x="627.065" y="179.483">do </tspan><tspan x="657.286" y="179.483">instrumento </tspan><tspan x="769.702" y="179.483">de </tspan><tspan x="799.202" y="179.483">triagem </tspan><tspan x="872.455" y="179.483">Modifield </tspan><tspan x="959.699" y="179.483">Checklist </tspan><tspan x="1042.74" y="179.483">for </tspan><tspan x="393" y="204.483">Autism </tspan><tspan x="458.738" y="204.483">in </tspan><tspan x="481.426" y="204.483">Toddlers </tspan><tspan x="561.912" y="204.483">(M-CHAT), </tspan><tspan x="652.189" y="204.483">validado </tspan><tspan x="730.266" y="204.483">e </tspan><tspan x="747.47" y="204.483">traduzido </tspan><tspan x="835.251" y="204.483">para </tspan><tspan x="880.738" y="204.483">o </tspan><tspan x="898.664" y="204.483">portugu&#xea;s </tspan><tspan x="991.928" y="204.483">em </tspan><tspan x="1025.8" y="204.483">2008 </tspan><tspan x="393" y="229.483">(Brasil, </tspan><tspan x="454.33" y="229.483">2023a).&#xa0;&#xa0;&#10;</tspan><tspan x="393" y="278.483">Clique </tspan><tspan x="450.287" y="278.483">aqui </tspan><tspan x="491.578" y="278.483">e </tspan><tspan x="506.361" y="278.483">confira </tspan><tspan x="569.502" y="278.483">mais </tspan><tspan x="613.975" y="278.483">detalhes </tspan><tspan x="690.475" y="278.483">sobre </tspan><tspan x="743.051" y="278.483">os </tspan></text>
<text fill="#7B6EB9" xml:space="preserve" style="white-space: pre" font-family="Open Sans" font-size="18" font-style="italic" font-weight="bold" letter-spacing="0em" text-decoration="underline"><tspan x="916.195" y="278.483">.</tspan></text>
<text fill="#7B6EB9" xml:space="preserve" style="white-space: pre" font-family="Open Sans" font-size="18" font-style="italic" font-weight="bold" letter-spacing="0em" text-decoration="underline"><tspan x="767.133" y="278.483"><a href="https://.">testes </a></tspan><tspan x="823.699" y="278.483"><a href="https://.">de </a></tspan><tspan x="849.117" y="278.483"><a href="https://.">triagem</a></tspan></text>
</g>
<g id="OBJECTS">
<g id="XMLID_71_">
<g id="Group" opacity="0.35">
<path id="XMLID_197_" d="M373.722 217.754C367.572 195.691 387.124 194.839 387.553 166.41C387.729 154.783 381.359 142.941 366.033 137.509C358.501 134.84 350.992 133.005 344.29 128.76C329.018 119.086 329.294 100.681 325.128 84.9912C315.977 50.5288 244.298 23.1305 208.652 24.0211C182.956 24.6625 171.102 37.0477 147.675 58.8591C131.646 73.7832 103.403 72.4298 111.633 110.989C118.963 145.333 101.67 142.783 85.8347 155.462C70.0324 168.115 58.4605 183.208 64.7495 200.338C71.6849 219.227 29.2328 230.068 21.6619 254.553C16.5269 271.162 43.5015 272.565 61.8592 272.565C80.217 272.565 237.285 271.152 303.72 273.117C321.601 273.646 378.651 278.516 386.722 256.226C392.215 241.054 378.018 233.162 373.722 217.754Z" fill="#C3ECFE"/>
</g>
<g id="XMLID_20_">
<path id="Vector" d="M105.77 162.391C113.536 204.831 143.125 242.671 182.441 260.443" stroke="#C3ECFE" stroke-width="1.393" stroke-miterlimit="10"/>
<g id="XMLID_22_">
<g id="Group_2">
<path id="XMLID_24_" d="M107.735 171.273C104.076 166.477 102.226 160.334 102.629 154.315C102.727 152.839 103.051 151.208 104.255 150.349C104.586 150.113 104.99 149.947 105.393 149.997C106.043 150.079 106.495 150.673 106.81 151.247C108.48 154.287 108.461 157.96 108.078 161.408C107.696 164.856 107.867 167.489 107.735 171.273Z" fill="#C3ECFE"/>
</g>
<g id="Group_3">
<path id="XMLID_25_" d="M111.537 182.938C110.08 177.085 110.817 170.711 113.574 165.346C114.249 164.031 115.195 162.662 116.64 162.35C117.037 162.264 117.474 162.273 117.824 162.479C118.388 162.811 118.567 163.536 118.629 164.188C118.957 167.641 117.483 171.005 115.764 174.019C114.045 177.032 113.158 179.517 111.537 182.938Z" fill="#C3ECFE"/>
</g>
<g id="Group_4">
<path id="XMLID_26_" d="M117.691 197.629C115.529 191.997 115.482 185.582 117.562 179.92C118.071 178.532 118.842 177.058 120.239 176.572C120.622 176.438 121.057 176.393 121.429 176.555C122.03 176.816 122.296 177.513 122.437 178.153C123.184 181.54 122.132 185.06 120.795 188.261C119.458 191.461 118.881 194.036 117.691 197.629Z" fill="#C3ECFE"/>
</g>
<g id="Group_5">
<path id="XMLID_27_" d="M125.554 211.069C123.393 205.437 123.345 199.022 125.425 193.359C125.935 191.972 126.706 190.497 128.102 190.011C128.486 189.877 128.921 189.832 129.293 189.994C129.893 190.255 130.159 190.953 130.3 191.592C131.047 194.98 129.996 198.499 128.659 201.7C127.321 204.901 126.745 207.476 125.554 211.069Z" fill="#C3ECFE"/>
</g>
<g id="Group_6">
<path id="XMLID_28_" d="M138.201 227.391C135.467 222.014 134.756 215.637 136.238 209.79C136.601 208.357 137.215 206.811 138.554 206.183C138.922 206.01 139.349 205.921 139.737 206.043C140.361 206.24 140.698 206.906 140.904 207.527C141.998 210.82 141.316 214.429 140.318 217.751C139.32 221.073 139.013 223.694 138.201 227.391Z" fill="#C3ECFE"/>
</g>
<g id="Group_7">
<path id="XMLID_29_" d="M148.533 238.337C145.747 233.469 144.637 227.314 145.469 221.346C145.673 219.884 146.086 218.272 147.197 217.453C147.502 217.228 147.865 217.075 148.211 217.137C148.768 217.236 149.111 217.84 149.338 218.419C150.541 221.487 150.229 225.135 149.621 228.548C149.014 231.963 148.95 234.583 148.533 238.337Z" fill="#C3ECFE"/>
</g>
<g id="Group_8">
<path id="XMLID_30_" d="M113.58 188.162C107.391 187.781 101.239 185.075 96.5983 180.692C95.4609 179.618 94.3377 178.261 94.3926 176.739C94.4075 176.321 94.5255 175.893 94.8196 175.612C95.2923 175.159 96.0583 175.208 96.7221 175.349C100.24 176.098 103.213 178.597 105.777 181.226C108.34 183.856 110.587 185.502 113.58 188.162Z" fill="#C3ECFE"/>
</g>
<g id="Group_9">
<path id="XMLID_31_" d="M118.706 199.387C112.605 200.495 105.984 199.336 100.431 196.187C99.0703 195.415 97.6554 194.366 97.3456 192.876C97.2608 192.466 97.2733 192.023 97.491 191.679C97.8415 191.127 98.5976 190.992 99.2755 190.97C102.87 190.859 106.354 192.573 109.471 194.516C112.589 196.456 115.164 197.518 118.706 199.387Z" fill="#C3ECFE"/>
</g>
<g id="Group_10">
<path id="XMLID_32_" d="M127.069 213.02C121.312 215.326 114.594 215.514 108.523 213.54C107.035 213.056 105.439 212.311 104.838 210.912C104.672 210.527 104.596 210.09 104.74 209.711C104.973 209.099 105.687 208.815 106.347 208.659C109.846 207.831 113.603 208.814 117.046 210.093C120.489 211.372 123.224 211.897 127.069 213.02Z" fill="#C3ECFE"/>
</g>
<g id="Group_11">
<path id="XMLID_33_" d="M139.397 229.378C133.273 230.35 126.68 229.043 121.198 225.772C119.855 224.97 118.463 223.889 118.187 222.392C118.112 221.981 118.134 221.537 118.359 221.199C118.723 220.654 119.481 220.536 120.16 220.53C123.756 220.498 127.201 222.29 130.274 224.301C133.347 226.312 135.898 227.43 139.397 229.378Z" fill="#C3ECFE"/>
</g>
<g id="Group_12">
<path id="XMLID_34_" d="M150.061 239.572C145.03 243.197 138.555 244.999 132.188 244.545C130.628 244.434 128.899 244.095 127.978 242.883C127.724 242.55 127.546 242.143 127.594 241.74C127.673 241.091 128.297 240.643 128.9 240.332C132.097 238.685 135.98 238.735 139.629 239.147C143.278 239.558 146.06 239.408 150.061 239.572Z" fill="#C3ECFE"/>
</g>
</g>
</g>
<g id="XMLID_23_">
<path id="Vector_2" d="M29.2344 221.654C72.3352 219.688 115.855 240.02 142.003 274.34" stroke="#C3ECFE" stroke-width="1.393" stroke-miterlimit="10"/>
<g id="XMLID_35_">
<g id="Group_13">
<path id="XMLID_37_" d="M38.3327 221.578C32.8379 219.09 26.4359 218.667 20.6612 220.411C19.2455 220.839 17.7285 221.522 17.1619 222.887C17.0058 223.262 16.9351 223.692 17.0755 224.075C17.3007 224.689 17.9811 224.996 18.6117 225.175C21.9497 226.119 25.5246 225.275 28.7987 224.128C32.072 222.98 34.6756 222.556 38.3327 221.578Z" fill="#C3ECFE"/>
</g>
<g id="Group_14">
<path id="XMLID_38_" d="M50.5569 222.658C44.5255 222.553 38.4807 224.703 33.8716 228.595C32.7417 229.548 31.6201 230.777 31.6409 232.255C31.6467 232.661 31.7531 233.085 32.0322 233.38C32.4825 233.855 33.2294 233.867 33.8782 233.78C37.3168 233.324 40.2644 231.132 42.8149 228.78C45.3654 226.428 47.5869 225.006 50.5569 222.658Z" fill="#C3ECFE"/>
</g>
<g id="Group_15">
<path id="XMLID_39_" d="M66.2501 225.357C60.2768 224.515 54.0144 225.911 48.9641 229.209C47.7262 230.018 46.4626 231.1 46.3031 232.57C46.2591 232.973 46.3122 233.407 46.554 233.734C46.9428 234.26 47.6822 234.363 48.3369 234.357C51.8062 234.324 54.9989 232.508 57.8177 230.486C60.6365 228.464 63.0159 227.324 66.2501 225.357Z" fill="#C3ECFE"/>
</g>
<g id="Group_16">
<path id="XMLID_40_" d="M81.1103 229.999C75.137 229.158 68.8746 230.554 63.8243 233.852C62.5864 234.66 61.3228 235.743 61.1625 237.212C61.1184 237.616 61.1716 238.05 61.4134 238.376C61.8022 238.903 62.5416 239.005 63.1962 238.999C66.6656 238.966 69.8583 237.151 72.6771 235.129C75.4968 233.107 77.8761 231.968 81.1103 229.999Z" fill="#C3ECFE"/>
</g>
<g id="Group_17">
<path id="XMLID_41_" d="M99.8645 238.658C94.0108 237.203 87.6379 237.942 82.2727 240.699C80.9576 241.376 79.5885 242.321 79.2778 243.766C79.1922 244.163 79.2005 244.6 79.4065 244.95C79.7388 245.514 80.4641 245.692 81.1154 245.754C84.569 246.08 87.9328 244.606 90.9461 242.886C93.9593 241.167 96.4442 240.28 99.8645 238.658Z" fill="#C3ECFE"/>
</g>
<g id="Group_18">
<path id="XMLID_42_" d="M112.844 246.267C107.475 244.646 101.227 244.948 95.5998 247.098C94.2207 247.625 92.7427 248.389 92.1944 249.656C92.044 250.004 91.9759 250.393 92.1138 250.716C92.3348 251.236 93.0011 251.434 93.6159 251.526C96.8759 252.008 100.361 250.886 103.551 249.526C106.741 248.167 109.279 247.517 112.844 246.267Z" fill="#C3ECFE"/>
</g>
<g id="Group_19">
<path id="XMLID_43_" d="M56.1011 223.478C54.3399 217.532 50.3206 212.146 45.0069 208.608C43.7042 207.741 42.1299 206.952 40.6603 207.347C40.2565 207.456 39.866 207.667 39.6575 208.016C39.3219 208.578 39.542 209.314 39.8286 209.928C41.349 213.187 44.4503 215.524 47.589 217.431C50.7285 219.339 52.837 221.159 56.1011 223.478Z" fill="#C3ECFE"/>
</g>
<g id="Group_20">
<path id="XMLID_44_" d="M68.1899 225.949C67.8983 219.755 65.2813 213.564 60.9662 208.861C59.9087 207.707 58.5678 206.565 57.0458 206.598C56.6279 206.608 56.1984 206.72 55.9126 207.009C55.4532 207.475 55.4906 208.242 55.6227 208.907C56.3214 212.435 58.7755 215.445 61.3675 218.046C63.9595 220.647 65.5729 222.917 68.1899 225.949Z" fill="#C3ECFE"/>
</g>
<g id="Group_21">
<path id="XMLID_45_" d="M83.3568 231.04C84.3105 224.912 82.9854 218.323 79.698 212.851C78.8922 211.51 77.808 210.122 76.3101 209.851C75.898 209.776 75.4552 209.8 75.1179 210.026C74.5738 210.391 74.4575 211.149 74.4533 211.828C74.4317 215.424 76.2345 218.864 78.2541 221.931C80.2729 224.998 81.3995 227.546 83.3568 231.04Z" fill="#C3ECFE"/>
</g>
<g id="Group_22">
<path id="XMLID_46_" d="M102.064 239.379C101.636 233.193 98.8818 227.062 94.4629 222.455C93.3795 221.326 92.0145 220.214 90.4934 220.28C90.0755 220.298 89.6485 220.42 89.3693 220.715C88.9199 221.192 88.9747 221.958 89.1209 222.621C89.8977 226.132 92.4183 229.086 95.0677 231.629C97.7178 234.172 99.3811 236.407 102.064 239.379Z" fill="#C3ECFE"/>
</g>
<g id="Group_23">
<path id="XMLID_47_" d="M114.398 247.477C116.8 241.76 117.101 235.045 115.229 228.943C114.77 227.448 114.052 225.839 112.663 225.214C112.282 225.042 111.846 224.959 111.464 225.097C110.848 225.319 110.552 226.028 110.384 226.686C109.497 230.171 110.418 233.944 111.639 237.407C112.861 240.871 113.34 243.615 114.398 247.477Z" fill="#C3ECFE"/>
</g>
</g>
</g>
<g id="Group_24">
<path id="XMLID_48_" d="M165.446 239.892C159.203 234.054 150.384 231.076 141.88 231.935C136.12 232.516 129.839 235.594 128.571 241.243C127.967 243.933 128.179 247.502 125.633 248.559C123.141 249.593 120.734 247.026 118.175 246.168C113.916 244.739 109.056 249.608 110.493 253.864C111.146 255.799 112.784 257.485 112.648 259.523C112.463 262.299 109.032 263.745 106.284 263.314C103.536 262.883 101.11 261.279 98.4141 260.592C95.7182 259.906 92.2272 260.594 91.281 263.209C90.4328 265.554 91.8966 268.703 90.0556 270.385C89.2672 271.105 88.1257 271.254 87.0623 271.354C63.7223 273.57 38.0172 277.757 40.6291 281.904C41.3436 283.037 43.168 282.676 44.5072 282.655C94.1854 281.878 139.312 281.137 188.973 282.66" fill="#C3ECFE"/>
</g>
<g id="Group_25">
<path id="XMLID_66_" opacity="0.4" d="M292.188 295.48C292.188 297.384 255.186 298.928 209.541 298.928C163.897 298.928 126.895 297.385 126.895 295.48C126.895 293.575 163.897 292.031 209.541 292.031C255.186 292.031 292.188 293.576 292.188 295.48Z" fill="#A1D7E5"/>
<g id="XMLID_74_">
<g id="XMLID_219_">
<path id="XMLID_224_" d="M211.114 54.9238C206.533 54.9238 202.82 58.6374 202.82 63.2175V73.8473H219.409C219.409 73.8473 219.409 65.4049 219.409 63.2175C219.409 58.6374 215.695 54.9238 211.114 54.9238ZM211.114 67.9779C208.544 67.9779 206.461 65.8943 206.461 63.3247C206.461 60.7551 208.544 58.6715 211.114 58.6715C213.684 58.6715 215.767 60.7551 215.767 63.3247C215.768 65.8951 213.684 67.9779 211.114 67.9779Z" fill="#FFDBCA"/>
</g>
</g>
<g id="XMLID_82_" opacity="0.45">
<g id="XMLID_220_">
<path id="XMLID_221_" d="M215.768 63.3257C215.768 60.7561 213.684 58.6725 211.115 58.6725C210.876 58.6725 210.645 58.7082 210.416 58.7431C211.115 58.4731 211.15 58.2912 212.304 58.2912C214.874 58.2912 216.958 60.3748 216.958 62.9444C216.958 65.2747 215.769 66.5375 213.973 66.9986C214.969 66.1446 215.768 64.7414 215.768 63.3257ZM205.354 72.7875V62.1576C205.354 59.2723 206.606 56.7343 208.841 55.248C205.367 56.2375 202.82 59.4277 202.82 63.2185V73.8484H219.409C219.409 73.8484 219.409 73.4338 219.409 72.7875H205.354Z" fill="#FFDBCA"/>
</g>
</g>
<path id="Vector_3" d="M279.614 295.442H139.468C134.999 295.442 131.375 291.818 131.375 287.348V82.4978C131.375 78.0282 134.998 74.4043 139.468 74.4043H279.614C284.083 74.4043 287.707 78.0273 287.707 82.4978V287.348C287.707 291.819 284.084 295.442 279.614 295.442Z" fill="#3E89CC"/>
<path id="XMLID_67_" d="M278.647 83.0762H140.438V286.775H278.647V83.0762Z" fill="#C3ECFE"/>
<path id="Vector_4" d="M273.331 89.2988H145.75V280.551H273.331V89.2988Z" fill="white"/>
<path id="XMLID_198_" d="M259.824 78.0664V86.3742H159.258V78.0664C159.258 77.46 159.349 76.8784 159.524 76.3301C160.263 73.9541 162.481 72.2344 165.09 72.2344H253.992C257.215 72.2344 259.824 74.843 259.824 78.0664Z" fill="#FFDBCA"/>
<path id="XMLID_195_" opacity="0.45" d="M259.824 84.2973V86.3742H159.258V80.3594C159.258 78.7477 159.349 77.4184 159.524 76.3301C160.263 73.9541 162.481 72.2344 165.09 72.2344H165.804C164.267 73.7132 163.146 75.9729 163.146 78.2824V84.2973H259.824Z" fill="#B03D44"/>
<g id="Group_26">
<g id="XMLID_87_">
<g id="XMLID_88_" opacity="0.15">
<path id="XMLID_89_" d="M181.133 109.629H201.857" stroke="#0964AF" stroke-width="3.1215" stroke-miterlimit="10" stroke-linecap="round" stroke-linejoin="round"/>
<path id="XMLID_90_" d="M248.363 116.234H264.121" stroke="#0964AF" stroke-width="3.1215" stroke-miterlimit="10" stroke-linecap="round" stroke-linejoin="round"/>
<path id="XMLID_91_" d="M181.133 116.234H241.535" stroke="#0964AF" stroke-width="3.1215" stroke-miterlimit="10" stroke-linecap="round" stroke-linejoin="round"/>
<path id="XMLID_92_" d="M181.133 122.842H264.12" stroke="#0964AF" stroke-width="3.1215" stroke-miterlimit="10" stroke-linecap="round" stroke-linejoin="round"/>
<path id="XMLID_93_" d="M237.742 129.449H264.12" stroke="#0964AF" stroke-width="3.1215" stroke-miterlimit="10" stroke-linecap="round" stroke-linejoin="round"/>
<path id="XMLID_94_" d="M181.133 129.449H231.177" stroke="#0964AF" stroke-width="3.1215" stroke-miterlimit="10" stroke-linecap="round" stroke-linejoin="round"/>
<path id="XMLID_95_" d="M208.656 109.629H264.119" stroke="#0964AF" stroke-width="3.1215" stroke-miterlimit="10" stroke-linecap="round" stroke-linejoin="round"/>
</g>
</g>
<g id="XMLID_96_">
<g id="XMLID_97_" opacity="0.15">
<path id="XMLID_98_" d="M181.133 157.123H201.857" stroke="#0964AF" stroke-width="3.1215" stroke-miterlimit="10" stroke-linecap="round" stroke-linejoin="round"/>
<path id="XMLID_99_" d="M248.363 163.73H264.121" stroke="#0964AF" stroke-width="3.1215" stroke-miterlimit="10" stroke-linecap="round" stroke-linejoin="round"/>
<path id="XMLID_100_" d="M181.133 163.73H241.535" stroke="#0964AF" stroke-width="3.1215" stroke-miterlimit="10" stroke-linecap="round" stroke-linejoin="round"/>
<path id="XMLID_101_" d="M181.133 170.338H264.12" stroke="#0964AF" stroke-width="3.1215" stroke-miterlimit="10" stroke-linecap="round" stroke-linejoin="round"/>
<path id="XMLID_102_" d="M237.742 176.945H264.12" stroke="#0964AF" stroke-width="3.1215" stroke-miterlimit="10" stroke-linecap="round" stroke-linejoin="round"/>
<path id="XMLID_103_" d="M181.133 176.945H231.177" stroke="#0964AF" stroke-width="3.1215" stroke-miterlimit="10" stroke-linecap="round" stroke-linejoin="round"/>
<path id="XMLID_104_" d="M208.656 157.123H264.119" stroke="#0964AF" stroke-width="3.1215" stroke-miterlimit="10" stroke-linecap="round" stroke-linejoin="round"/>
</g>
</g>
<g id="XMLID_105_">
<g id="XMLID_106_" opacity="0.15">
<path id="XMLID_107_" d="M181.133 202.957H201.857" stroke="#0964AF" stroke-width="3.1215" stroke-miterlimit="10" stroke-linecap="round" stroke-linejoin="round"/>
<path id="XMLID_108_" d="M248.363 209.564H264.121" stroke="#0964AF" stroke-width="3.1215" stroke-miterlimit="10" stroke-linecap="round" stroke-linejoin="round"/>
<path id="XMLID_109_" d="M181.133 209.564H241.535" stroke="#0964AF" stroke-width="3.1215" stroke-miterlimit="10" stroke-linecap="round" stroke-linejoin="round"/>
<path id="XMLID_110_" d="M181.133 216.172H264.12" stroke="#0964AF" stroke-width="3.1215" stroke-miterlimit="10" stroke-linecap="round" stroke-linejoin="round"/>
<path id="XMLID_111_" d="M237.742 222.777H264.12" stroke="#0964AF" stroke-width="3.1215" stroke-miterlimit="10" stroke-linecap="round" stroke-linejoin="round"/>
<path id="XMLID_112_" d="M181.133 222.777H231.177" stroke="#0964AF" stroke-width="3.1215" stroke-miterlimit="10" stroke-linecap="round" stroke-linejoin="round"/>
<path id="XMLID_113_" d="M208.656 202.957H264.119" stroke="#0964AF" stroke-width="3.1215" stroke-miterlimit="10" stroke-linecap="round" stroke-linejoin="round"/>
</g>
</g>
<g id="XMLID_114_">
<g id="XMLID_115_" opacity="0.15">
<path id="XMLID_116_" d="M181.133 249.625H201.857" stroke="#0964AF" stroke-width="3.1215" stroke-miterlimit="10" stroke-linecap="round" stroke-linejoin="round"/>
<path id="XMLID_117_" d="M248.363 256.23H264.121" stroke="#0964AF" stroke-width="3.1215" stroke-miterlimit="10" stroke-linecap="round" stroke-linejoin="round"/>
<path id="XMLID_118_" d="M181.133 256.23H241.535" stroke="#0964AF" stroke-width="3.1215" stroke-miterlimit="10" stroke-linecap="round" stroke-linejoin="round"/>
<path id="XMLID_119_" d="M181.133 262.838H264.12" stroke="#0964AF" stroke-width="3.1215" stroke-miterlimit="10" stroke-linecap="round" stroke-linejoin="round"/>
<path id="XMLID_120_" d="M237.742 269.445H264.12" stroke="#0964AF" stroke-width="3.1215" stroke-miterlimit="10" stroke-linecap="round" stroke-linejoin="round"/>
<path id="XMLID_121_" d="M181.133 269.445H231.177" stroke="#0964AF" stroke-width="3.1215" stroke-miterlimit="10" stroke-linecap="round" stroke-linejoin="round"/>
<path id="XMLID_122_" d="M208.656 249.625H264.119" stroke="#0964AF" stroke-width="3.1215" stroke-miterlimit="10" stroke-linecap="round" stroke-linejoin="round"/>
</g>
</g>
<g id="XMLID_123_">
<path id="XMLID_124_" d="M172.39 126.636H156.883C155.918 126.636 155.137 125.854 155.137 124.89V109.383C155.137 108.418 155.918 107.637 156.883 107.637H172.389C173.353 107.637 174.135 108.418 174.135 109.383V124.89C174.136 125.854 173.354 126.636 172.39 126.636Z" stroke="#2396B5" stroke-width="1.1566" stroke-miterlimit="10"/>
<path id="XMLID_125_" d="M172.393 173.976H156.887C155.922 173.976 155.141 173.194 155.141 172.229V156.723C155.141 155.758 155.922 154.977 156.887 154.977H172.393C173.357 154.977 174.139 155.758 174.139 156.723V172.229C174.139 173.194 173.357 173.976 172.393 173.976Z" stroke="#2396B5" stroke-width="1.1566" stroke-miterlimit="10"/>
<path id="XMLID_126_" d="M172.393 221.317H156.887C155.922 221.317 155.141 220.535 155.141 219.57V204.065C155.141 203.1 155.922 202.318 156.887 202.318H172.393C173.357 202.318 174.139 203.1 174.139 204.065V219.57C174.139 220.535 173.357 221.317 172.393 221.317Z" stroke="#2396B5" stroke-width="1.1566" stroke-miterlimit="10"/>
<path id="XMLID_127_" d="M172.39 268.658H156.883C155.918 268.658 155.137 267.877 155.137 266.912V251.406C155.137 250.442 155.918 249.66 156.883 249.66H172.389C173.353 249.66 174.135 250.442 174.135 251.406V266.912C174.136 267.877 173.354 268.658 172.39 268.658Z" stroke="#2396B5" stroke-width="1.1566" stroke-miterlimit="10"/>
<path id="XMLID_130_" d="M157.477 113.791L164.638 122.44L178.416 100.699" stroke="#FFA829" stroke-width="3.4699" stroke-miterlimit="10" stroke-linecap="round" stroke-linejoin="round"/>
<path id="XMLID_133_" d="M157.477 160.739L164.638 169.387L178.416 147.646" stroke="#FFA829" stroke-width="3.4699" stroke-miterlimit="10" stroke-linecap="round" stroke-linejoin="round"/>
</g>
</g>
</g>
</g>
<g id="XMLID_77_">
<path id="XMLID_293_" d="M104.672 174.523C104.672 174.523 105.029 176.894 105.255 177.101C105.255 177.101 105.029 177.497 104.352 177.534" fill="#FFB392"/>
<path id="XMLID_65_" opacity="0.4" d="M122.436 295.669C122.436 296.655 113.563 297.454 102.618 297.454C91.6735 297.454 82.8008 296.655 82.8008 295.669C82.8008 294.683 91.6735 293.885 102.618 293.885C113.563 293.885 122.436 294.684 122.436 295.669Z" fill="#A1D7E5"/>
<g id="XMLID_86_">
<path id="XMLID_135_" d="M111.673 185.591L107.293 204.829C107.173 205.353 107.527 205.868 108.06 205.945L121.692 207.902C122.166 207.97 122.614 207.663 122.72 207.195L127.1 187.957C127.22 187.433 126.866 186.918 126.333 186.842L112.701 184.884C112.227 184.816 111.779 185.124 111.673 185.591Z" fill="#57C6F2"/>
<path id="XMLID_136_" d="M112.526 186.213L108.332 204.631L121.868 206.575L126.061 188.156L112.526 186.213Z" fill="#E5F8FF"/>
<g id="XMLID_137_">
<path id="XMLID_138_" d="M124.627 189.513L113.125 187.861" stroke="#A1D2F0" stroke-width="0.5742" stroke-miterlimit="10" stroke-linecap="round" stroke-linejoin="round"/>
<path id="XMLID_139_" d="M124.24 191.253L112.738 189.602" stroke="#A1D2F0" stroke-width="0.5742" stroke-miterlimit="10" stroke-linecap="round" stroke-linejoin="round"/>
<path id="XMLID_140_" d="M119.454 192.696L112.266 191.664" stroke="#A1D2F0" stroke-width="0.5742" stroke-miterlimit="10" stroke-linecap="round" stroke-linejoin="round"/>
<path id="XMLID_141_" d="M118.942 194.193L111.754 193.16" stroke="#A1D2F0" stroke-width="0.5742" stroke-miterlimit="10" stroke-linecap="round" stroke-linejoin="round"/>
<path id="XMLID_142_" d="M118.43 195.689L111.242 194.656" stroke="#A1D2F0" stroke-width="0.5742" stroke-miterlimit="10" stroke-linecap="round" stroke-linejoin="round"/>
<path id="XMLID_143_" d="M121.064 203.96L113.875 202.928" stroke="#A1D2F0" stroke-width="0.5742" stroke-miterlimit="10" stroke-linecap="round" stroke-linejoin="round"/>
</g>
</g>
<g id="XMLID_272_">
<path id="XMLID_145_" d="M106.427 205.06C107.199 204.696 107.773 204.023 108.322 203.369C108.864 202.724 109.405 202.08 109.947 201.435C110.16 201.181 110.385 200.902 110.409 200.571C109.501 200.497 108.916 201.677 108.008 201.746C108.431 200.251 109.038 198.809 109.812 197.461C110 197.132 110.205 196.749 110.072 196.395C109.09 196.769 108.264 197.467 107.548 198.237C107.046 198.778 106.588 199.36 106.181 199.976C104.982 201.79 104.24 203.872 103.734 205.986" fill="#F2A181"/>
</g>
<g id="XMLID_144_">
<path id="XMLID_271_" d="M102.52 220.554L92.7862 212.342C92.7862 212.342 88.2559 218.485 89.9624 224.413C90.8015 227.327 91.8549 228.773 92.3126 230.156C92.7397 231.448 95.6698 249.737 95.4513 251.074C95.2328 252.411 93.6593 256.152 93.0595 260.087C92.3376 264.819 92.4597 280.236 91.8997 284.324C91.3398 288.411 95.1149 289.103 95.3226 287.72C97.0971 275.9 101.784 257.48 102.439 251.57C103.095 245.66 102.829 234.838 102.52 220.554Z" fill="#FFBE9D"/>
<g id="XMLID_268_">
<path id="XMLID_147_" d="M102.545 232.201L98.3125 241.915C100.097 244.93 101.129 248.488 101.266 252.096C101.337 253.97 101.172 255.848 101.224 257.722C101.227 257.855 101.246 257.998 101.281 258.13C101.848 255.352 102.271 253.061 102.436 251.57C102.9 247.396 102.903 240.759 102.756 232.191C102.685 232.194 102.616 232.191 102.545 232.201Z" fill="#F2A181"/>
</g>
<path id="XMLID_266_" d="M95.9747 283.924C95.9747 283.924 95.0683 288.213 95.3126 288.759C95.5568 289.306 96.4333 290.894 97.3314 291.469C98.2735 292.071 100.36 292.788 100.527 293.049C100.694 293.311 100.705 293.691 100.408 293.925C99.6393 294.529 98.3051 294.823 97.4327 294.679C94.6031 294.212 94.3107 292.961 92.6624 292.761C92.3783 292.726 91.8507 293.147 91.0631 292.744C90.2756 292.341 89.8934 291.613 89.9607 290.929C90.0778 289.748 90.7408 288.774 91.2135 287.9C91.6862 287.026 92.0185 283.027 92.0185 283.027" fill="#FFBE9D"/>
<path id="XMLID_263_" d="M100.629 294.131C100.835 293.778 100.888 293.244 100.696 293.114C100.43 292.933 99.4826 292.306 98.9343 292.054C98.3852 291.801 97.5153 291.578 97.8219 291.744C98.1284 291.909 97.5643 292.529 97.0501 292.497C95.2764 292.388 93.9687 291.21 92.9585 290.957C91.5005 290.592 90.8899 288.871 90.8259 288.592C90.5501 288.767 89.9087 290.153 89.7791 290.589C89.662 290.983 89.4509 291.703 89.5631 292.113C89.6404 292.397 89.8123 292.968 89.7251 293.567C89.7251 293.567 90.0125 293.788 90.7735 293.945C91.2554 294.045 91.9017 293.962 91.9017 293.962L92.0272 293.046C92.0272 293.046 92.4243 293.031 92.9294 293.135C93.4345 293.24 94.2587 293.72 94.3077 293.779C94.5104 294.021 94.6724 294.461 94.9399 294.597C95.6486 294.954 96.363 295.124 97.2661 295.177C99.1669 295.287 100.277 294.735 100.629 294.131Z" fill="#1B227A"/>
</g>
<g id="XMLID_146_">
<path id="XMLID_148_" d="M115.809 293.954C115.599 293.723 113.345 293.356 112.287 292.915C111.279 292.493 110.059 291.14 109.821 290.566C109.584 289.992 109.638 287.082 109.668 285.86C109.879 277.443 111.435 256.874 111.66 251.949C112.051 243.388 110.939 234.551 107.645 220.806L95.3798 211.393C95.3798 211.393 91.9445 217.779 93.0951 223.884C93.7622 227.427 96.7007 227.972 97.1975 229.348C97.6943 230.725 105.116 252.922 105.116 252.922C105.116 252.922 103.672 257.721 103.588 262.979C103.516 267.467 105.552 281.005 105.929 286.163C105.974 287.171 106.147 289.583 105.85 290.352C105.486 291.293 104.558 292.399 104.606 293.585C104.632 294.273 105.13 294.93 106 295.2C106.869 295.47 107.353 294.967 107.652 294.955C109.381 294.883 109.86 296.072 112.846 296.072C113.767 296.072 115.102 295.562 115.809 294.839C116.082 294.56 116.017 294.186 115.809 293.954Z" fill="#FFBE9D"/>
<path id="XMLID_149_" d="M116.065 295.009C116.228 294.626 116.206 294.09 115.99 293.992C115.69 293.857 114.625 293.391 114.023 293.232C113.421 293.072 112.492 292.994 112.832 293.108C113.171 293.222 112.676 293.926 112.142 293.979C110.297 294.162 108.781 293.21 107.702 293.126C106.146 293.004 105.575 291.402 105.469 291.137C105.209 291.355 104.441 292.83 104.368 293.283C104.303 293.691 104.187 294.437 104.361 294.825C104.481 295.093 104.739 295.629 104.733 296.236C104.733 296.236 105.06 296.407 105.868 296.438C106.379 296.458 107.035 296.269 107.035 296.269V295.343C107.035 295.343 107.442 295.263 107.978 295.283C108.514 295.304 109.175 295.577 109.499 295.821C109.753 296.012 110.019 296.333 110.318 296.408C111.182 296.625 111.802 296.687 112.741 296.592C114.719 296.391 115.787 295.663 116.065 295.009Z" fill="#1B227A"/>
</g>
<path id="XMLID_150_" d="M93.0422 211.309C92.2098 212.223 89.2431 217.167 89.2115 221.19C89.1799 225.214 90.4627 227.831 90.7401 228.634C91.4995 230.833 92.9126 232.8 92.9126 233.202C92.9126 233.604 95.1242 233.882 99.8164 233.587C108.486 233.042 111.671 231.415 111.671 231.415C111.671 231.415 111.954 227.808 111.065 219.983C110.643 216.267 107.479 210.383 107.479 210.383" fill="#1B227A"/>
<path id="XMLID_248_" d="M85.1328 195.233C85.1328 195.233 86.5294 202.17 86.8957 203.405C87.2621 204.639 89.074 212.479 90.7904 212.342C92.5077 212.206 101.911 204.355 101.911 204.355L100.58 201.692L92.3024 205.638C92.3024 205.638 91.5547 196.677 90.8984 194.543" fill="#FFBE9D"/>
<g id="XMLID_244_">
<path id="XMLID_152_" d="M88.332 199.504C89.2077 202.601 91.0038 205.865 91.5413 208.267C91.6493 208.75 97.3809 206.665 97.3942 204.513" fill="#F2A181"/>
</g>
<path id="XMLID_153_" d="M90.7417 185.617C90.7417 185.617 87.9968 185.91 86.6052 186.975C83.0561 189.69 85.8027 199.547 85.8027 199.547C85.8027 199.547 85.6274 200.073 88.0101 199.939C90.3928 199.805 92.3027 199.127 92.3027 199.127L91.614 191.051" fill="#FFDBCA"/>
<path id="XMLID_154_" d="M87.5947 191.197C87.5947 191.197 87.2939 196.992 88.3424 199.916C89.38 199.896 90.2864 199.661 90.2864 199.661L87.5947 191.197Z" fill="#F9A478"/>
<g id="XMLID_216_">
<path id="XMLID_156_" d="M103.856 167.433C105.51 169.577 105.182 172.594 104.774 175.27C104.568 176.624 104.362 177.978 104.155 179.331C104.057 179.974 103.927 180.677 103.426 181.092C102.921 181.51 102.198 181.503 101.543 181.475C101.55 182.595 101.557 183.715 101.563 184.836C99.6468 184.882 97.7293 184.89 95.8127 184.859C95.8119 184.075 95.6408 183.291 95.3151 182.577C94.3771 182.559 93.7507 181.618 93.3835 180.755C92.9598 179.76 92.6516 178.72 92.3542 177.68C91.9587 176.301 91.5774 174.899 91.5417 173.463C91.5051 172.029 91.8466 170.537 92.758 169.427C93.3794 168.671 94.2268 168.135 95.0941 167.682C96.283 167.061 97.7111 166.572 98.9373 167.115" fill="#FFBE9D"/>
</g>
<g id="XMLID_158_">
<path id="XMLID_157_" d="M101.877 177.647C101.651 176.52 101.667 175.885 102.036 175.135C102.158 174.887 102.319 174.653 102.54 174.498C102.838 174.289 103.234 174.248 103.564 174.392C103.779 174.486 103.957 174.661 104.079 174.872C104.47 173.359 104.552 171.746 104.439 170.175C104.26 167.684 102.758 165.758 100.565 164.857C96.5048 163.189 90.6711 164.837 89.0228 168.822C87.7775 171.832 88.4089 176.177 90.7932 178.7C92.9042 180.934 95.9399 181.262 98.7421 180.802C100.176 180.567 102.388 180.708 103.13 178.758C103.188 178.608 103.059 178.457 102.906 178.469C102.324 178.514 101.919 177.855 101.877 177.647Z" fill="#1B227A"/>
</g>
<g id="XMLID_208_">
<path id="XMLID_160_" d="M102.188 172.347C102.34 172.584 102.304 172.901 102.445 173.144C102.683 173.55 102.999 173.697 103.426 173.896C104.115 174.215 103.954 175.218 103.934 175.667C104.454 175.321 104.538 174.38 104.663 173.902C104.805 173.365 104.894 172.815 105.051 172.282C105.203 171.765 105.466 171.276 105.515 170.731C105.684 168.849 104.502 166.636 103.075 165.579C102.036 164.81 100.45 164.842 99.2758 165.624C98.7815 165.954 98.4101 166.452 98.1908 167.004C98.0969 167.241 98.0321 167.518 98.1484 167.744" fill="#1B227A"/>
</g>
<g id="XMLID_205_">
<path id="XMLID_161_" d="M92.9609 185.641C93.0581 184.985 93.2359 184.22 93.8466 183.96C94.016 183.889 94.2021 183.866 94.3857 183.846C96.2558 183.639 98.1384 183.55 100.019 183.58C100.798 183.592 101.603 183.632 102.299 183.979C103.391 184.525 103.991 185.702 104.519 186.802" fill="#F9A478"/>
</g>
<g id="XMLID_164_">
<path id="XMLID_163_" d="M108.801 209.698C108.54 209.311 107.936 208.849 107.72 208.423C107.2 207.401 106.746 203.101 106.925 202.002C107.116 200.824 108.158 200.191 108.628 197.57C109.234 194.194 107.85 191.569 107.076 190.445C105.982 188.856 106.63 188.865 106.256 186.918C106.188 186.567 106.11 186.193 105.869 185.948C105.633 185.707 104.002 184.962 103.682 184.912C100.641 184.441 98.8535 184.809 95.7796 184.944C94.2593 185.01 92.7406 185.188 91.2477 185.517C89.5953 185.882 88.1556 186.32 87.8158 188.562C87.2899 192.03 87.7319 195.536 88.7861 198.826C89.4848 201.006 93.6578 208.55 92.6235 210.009C92.3876 210.343 91.796 210.976 91.7246 211.393C91.4629 212.917 94.9073 213.453 96.3819 213.574C98.6275 213.759 101.205 213.635 103.457 213.529C105.162 213.45 108.894 212.854 109.159 210.747C109.21 210.334 109.006 210 108.801 209.698Z" fill="#FFDBCA"/>
</g>
<path id="XMLID_165_" d="M108.155 198.224C108.155 198.837 107.812 199.659 107.702 199.983C107.274 200.203 105.577 200.567 104.604 200.123C104.39 198.097 103.203 194.195 103.203 194.195C103.203 194.195 108.154 197.656 108.155 198.224Z" fill="#F9A478"/>
<g id="XMLID_166_">
<path id="XMLID_167_" d="M105.977 196.809C105.977 196.809 111.593 210.383 114.031 210.383C115.804 210.383 120.151 197.852 120.151 197.852L117.404 196.552L114.341 201.8L111.24 192.012" fill="#FFBE9D"/>
<path id="XMLID_168_" d="M116.859 197.486C116.859 197.486 117.77 196.052 117.703 195.035C117.678 194.648 117.448 192.802 117.64 192.439C117.833 192.076 118.295 190.889 118.558 190.658C118.823 190.427 119.798 190.056 120.036 190.221C120.275 190.386 120.572 189.627 120.968 189.694C121.363 189.759 121.693 190.089 121.693 190.452C121.693 190.815 122.22 190.881 122.287 191.145C122.352 191.409 122.32 191.64 122.419 191.838C122.518 192.036 122.809 191.938 122.914 192.432C123.01 192.884 122.881 192.927 122.914 193.157C122.947 193.388 123.145 193.366 123.079 193.806C123.014 194.245 122.712 194.816 122.449 195.311C122.185 195.805 121.64 196.425 120.917 196.862C120.56 197.078 120.364 197.455 120.024 198.095" fill="#FFBE9D"/>
<path id="XMLID_169_" d="M118.368 186.998C118.298 186.89 118.107 186.709 117.883 186.867C117.659 187.024 117.727 187.296 117.775 187.406C117.824 187.515 119.436 191.164 119.436 191.164C119.436 191.164 119.571 191.319 119.827 191.093C120.106 190.847 120.017 190.724 120.017 190.724C120.017 190.724 118.437 187.106 118.368 186.998Z" fill="#1B227A"/>
<g id="XMLID_170_">
<path id="XMLID_171_" d="M120.117 190.483C119.801 191.047 119.435 191.229 119.105 191.539C118.846 191.783 118.878 191.939 118.594 192.189C119.093 192.152 119.007 191.857 119.655 191.39C119.955 191.174 120.265 190.939 120.324 190.571C120.344 190.444 120.194 190.375 120.117 190.483Z" fill="#F2A181"/>
</g>
</g>
<g id="XMLID_192_">
<path id="XMLID_173_" d="M100.805 184.702C102.268 184.777 106.526 184.031 108.892 186.506C110.875 188.58 112.011 194.017 112.809 196.221C110.822 198.246 108.909 199.878 105.9 199.221C105.786 199.137 104.293 194.438 103.206 194.02" fill="#FFDBCA"/>
</g>
<path id="XMLID_174_" d="M111.68 227.808C111.68 227.808 112.646 251.032 112.47 252.725C112.293 254.418 110.409 286.482 110.409 286.482C110.409 286.482 106.54 287.159 104.223 286.482C104.223 286.482 101.234 261.512 104.223 253.732L102.895 246.276C102.895 246.276 103.093 251.822 102.895 252.951C102.697 254.08 96.718 285.692 96.718 285.692C96.718 285.692 92.7618 285.586 90.9557 284.002C90.9557 284.002 90.3924 262.039 94.5131 252.8L90.7422 228.634L92.9147 222.484L111.68 227.808Z" fill="#1B227A"/>
<g id="XMLID_79_">
<path id="XMLID_176_" d="M102.893 246.278C102.34 242.706 98.9324 230.038 98.787 229.733C96.9236 228.289 95.2213 227.016 94.6016 225.812C95.6193 228.867 97.5799 229.025 98.3135 230.606C100.125 234.509 98.7413 233.648 102.973 246.726" fill="#170D54"/>
</g>
<path id="XMLID_177_" d="M86.2536 184.549C86.1664 185.785 86.4189 187.019 86.4389 188.258C86.4588 189.497 86.193 190.833 85.2833 191.673C84.3736 192.514 82.6854 192.547 82.0391 191.491C82.6929 192.856 84.1011 193.775 85.5915 194.046C87.0811 194.317 88.6355 193.995 90.0121 193.365C93.6708 191.688 96.1075 187.854 95.9937 183.821C95.9006 180.505 93.3825 177.301 89.8658 179.044C87.8047 180.066 86.4148 182.272 86.2536 184.549Z" fill="#1B227A"/>
</g>
</g>
</g>
<defs>
<linearGradient id="paint0_linear_2327_6458" x1="44.5" y1="-60.3997" x2="507.272" y2="400.911" gradientUnits="userSpaceOnUse">
<stop offset="0.0651087" stop-color="#FAFAFC"/>
<stop offset="1" stop-color="#DFDDF3"/>
</linearGradient>
</defs>
</svg>
