<svg width="1140" height="1627" viewBox="0 0 1140 1627" fill="none" xmlns="http://www.w3.org/2000/svg">
<rect width="1140" height="1627" fill="url(#paint0_linear_2327_14596)"/>
<text fill="#292929" xml:space="preserve" style="white-space: pre" font-family="Open Sans" font-size="20" font-weight="600" letter-spacing="0em"><tspan x="44" y="41.7588">O posicionamento em p&#xe9; e seus benef&#xed;cios (Brasil, 2023, p. 112):</tspan></text>
<text fill="#292929" xml:space="preserve" style="white-space: pre" font-family="Open Sans" font-size="20" font-weight="600" letter-spacing="0em"><tspan x="588" y="778.759">Uso do parapodium</tspan></text>
<text fill="#292929" xml:space="preserve" style="white-space: pre" font-family="Open Sans" font-size="20" font-weight="600" letter-spacing="0em"><tspan x="98" y="1189.76">Uso de &#xf3;rteses</tspan></text>
<text fill="#292929" xml:space="preserve" style="white-space: pre" font-family="Open Sans" font-size="18" letter-spacing="0em"><tspan x="76" y="89.4829">Estimula controle de cabe&#xe7;a.&#10;</tspan><tspan x="76" y="138.483">Evita encurtamentos e deformidades &#xf3;sseas.&#10;</tspan><tspan x="76" y="187.483">Auxilia na corre&#xe7;&#xe3;o de posturas anormais dos membros inferiores e estimula a fun&#xe7;&#xe3;o </tspan><tspan x="76" y="212.483">dos membros superiores.&#10;</tspan><tspan x="76" y="261.483">Garante per&#xed;odos de alongamento passivo dos m&#xfa;sculos flexores plantares.&#xa0;&#10;</tspan><tspan x="76" y="310.483">Possibilita a perman&#xea;ncia em posturas corretas.&#xa0;&#10;</tspan><tspan x="76" y="359.483">Contribui para a preven&#xe7;&#xe3;o de deformidades musculoesquel&#xe9;ticas.&#10;</tspan><tspan x="76" y="408.483">Contribui para a manuten&#xe7;&#xe3;o do tronco alinhado.&#10;</tspan><tspan x="76" y="457.483">Favorece o alongamento e fortalecimento muscular.&#10;</tspan><tspan x="76" y="506.483">Melhora o funcionamento do sistema cardiorrespirat&#xf3;rio e auxilia na circula&#xe7;&#xe3;o.&#10;</tspan><tspan x="76" y="555.483">Permite a descarga de peso em membros inferiores.&#10;</tspan><tspan x="76" y="604.483">Auxilia na preven&#xe7;&#xe3;o de subluxa&#xe7;&#xf5;es e/ou luxa&#xe7;&#xf5;es do quadril.</tspan></text>
<path d="M56.5748 90.5664C53.5488 92.7686 49.2922 92.3626 46.5762 89.8358C45.3855 88.728 44.5709 87.2931 44.2297 85.7892C44.145 85.5989 44.0842 85.3847 44.0553 85.144C43.5522 80.9417 46.5364 76.8371 50.7211 76.1037C54.2891 75.4783 58.0091 77.7524 59.4202 81.0104C60.8742 84.3676 59.4712 88.4585 56.5748 90.5664ZM55.7498 84.4431C56.0776 82.298 54.1042 80.2945 52.0542 80.2134C51.0761 80.1746 50.2078 80.57 49.5451 81.1958C49.5135 81.8101 49.2067 82.4082 48.71 82.8435C48.483 83.0425 48.3439 83.3031 48.2686 83.5911C48.2112 83.9376 48.1993 84.2882 48.2404 84.6312C48.2422 84.6466 48.242 84.661 48.2435 84.6763C48.3125 85.0798 48.4534 85.4677 48.6234 85.7698C49.1584 86.7204 50.1656 87.4446 51.2186 87.7176C53.3146 88.261 55.4228 86.5839 55.7498 84.4431Z" fill="#D08F3F"/>
<path d="M56.5748 139.566C53.5488 141.769 49.2922 141.363 46.5762 138.836C45.3855 137.728 44.5709 136.293 44.2297 134.789C44.145 134.599 44.0842 134.385 44.0553 134.144C43.5522 129.942 46.5364 125.837 50.7211 125.104C54.2891 124.478 58.0091 126.752 59.4202 130.01C60.8742 133.368 59.4712 137.459 56.5748 139.566ZM55.7498 133.443C56.0776 131.298 54.1042 129.295 52.0542 129.213C51.0761 129.175 50.2078 129.57 49.5451 130.196C49.5135 130.81 49.2067 131.408 48.71 131.843C48.483 132.042 48.3439 132.303 48.2686 132.591C48.2112 132.938 48.1993 133.288 48.2404 133.631C48.2422 133.647 48.242 133.661 48.2435 133.676C48.3125 134.08 48.4534 134.468 48.6234 134.77C49.1584 135.72 50.1656 136.445 51.2186 136.718C53.3146 137.261 55.4228 135.584 55.7498 133.443Z" fill="#D08F3F"/>
<path d="M56.5748 187.566C53.5488 189.769 49.2922 189.363 46.5762 186.836C45.3855 185.728 44.5709 184.293 44.2297 182.789C44.145 182.599 44.0842 182.385 44.0553 182.144C43.5522 177.942 46.5364 173.837 50.7211 173.104C54.2891 172.478 58.0091 174.752 59.4202 178.01C60.8742 181.368 59.4712 185.459 56.5748 187.566ZM55.7498 181.443C56.0776 179.298 54.1042 177.295 52.0542 177.213C51.0761 177.175 50.2078 177.57 49.5451 178.196C49.5135 178.81 49.2067 179.408 48.71 179.843C48.483 180.042 48.3439 180.303 48.2686 180.591C48.2112 180.938 48.1993 181.288 48.2404 181.631C48.2422 181.647 48.242 181.661 48.2435 181.676C48.3125 182.08 48.4534 182.468 48.6234 182.77C49.1584 183.72 50.1656 184.445 51.2186 184.718C53.3146 185.261 55.4228 183.584 55.7498 181.443Z" fill="#D08F3F"/>
<path d="M56.5748 259.566C53.5488 261.769 49.2922 261.363 46.5762 258.836C45.3855 257.728 44.5709 256.293 44.2297 254.789C44.145 254.599 44.0842 254.385 44.0553 254.144C43.5522 249.942 46.5364 245.837 50.7211 245.104C54.2891 244.478 58.0091 246.752 59.4202 250.01C60.8742 253.368 59.4712 257.459 56.5748 259.566ZM55.7498 253.443C56.0776 251.298 54.1042 249.295 52.0542 249.213C51.0761 249.175 50.2078 249.57 49.5451 250.196C49.5135 250.81 49.2067 251.408 48.71 251.843C48.483 252.042 48.3439 252.303 48.2686 252.591C48.2112 252.938 48.1993 253.288 48.2404 253.631C48.2422 253.647 48.242 253.661 48.2435 253.676C48.3125 254.08 48.4534 254.468 48.6234 254.77C49.1584 255.72 50.1656 256.445 51.2186 256.718C53.3146 257.261 55.4228 255.584 55.7498 253.443Z" fill="#D08F3F"/>
<path d="M56.5748 308.566C53.5488 310.769 49.2922 310.363 46.5762 307.836C45.3855 306.728 44.5709 305.293 44.2297 303.789C44.145 303.599 44.0842 303.385 44.0553 303.144C43.5522 298.942 46.5364 294.837 50.7211 294.104C54.2891 293.478 58.0091 295.752 59.4202 299.01C60.8742 302.368 59.4712 306.459 56.5748 308.566ZM55.7498 302.443C56.0776 300.298 54.1042 298.295 52.0542 298.213C51.0761 298.175 50.2078 298.57 49.5451 299.196C49.5135 299.81 49.2067 300.408 48.71 300.843C48.483 301.042 48.3439 301.303 48.2686 301.591C48.2112 301.938 48.1993 302.288 48.2404 302.631C48.2422 302.647 48.242 302.661 48.2435 302.676C48.3125 303.08 48.4534 303.468 48.6234 303.77C49.1584 304.72 50.1656 305.445 51.2186 305.718C53.3146 306.261 55.4228 304.584 55.7498 302.443Z" fill="#D08F3F"/>
<path d="M56.5748 359.566C53.5488 361.769 49.2922 361.363 46.5762 358.836C45.3855 357.728 44.5709 356.293 44.2297 354.789C44.145 354.599 44.0842 354.385 44.0553 354.144C43.5522 349.942 46.5364 345.837 50.7211 345.104C54.2891 344.478 58.0091 346.752 59.4202 350.01C60.8742 353.368 59.4712 357.459 56.5748 359.566ZM55.7498 353.443C56.0776 351.298 54.1042 349.295 52.0542 349.213C51.0761 349.175 50.2078 349.57 49.5451 350.196C49.5135 350.81 49.2067 351.408 48.71 351.843C48.483 352.042 48.3439 352.303 48.2686 352.591C48.2112 352.938 48.1993 353.288 48.2404 353.631C48.2422 353.647 48.242 353.661 48.2435 353.676C48.3125 354.08 48.4534 354.468 48.6234 354.77C49.1584 355.72 50.1656 356.445 51.2186 356.718C53.3146 357.261 55.4228 355.584 55.7498 353.443Z" fill="#D08F3F"/>
<path d="M56.5748 408.566C53.5488 410.769 49.2922 410.363 46.5762 407.836C45.3855 406.728 44.5709 405.293 44.2297 403.789C44.145 403.599 44.0842 403.385 44.0553 403.144C43.5522 398.942 46.5364 394.837 50.7211 394.104C54.2891 393.478 58.0091 395.752 59.4202 399.01C60.8742 402.368 59.4712 406.459 56.5748 408.566ZM55.7498 402.443C56.0776 400.298 54.1042 398.295 52.0542 398.213C51.0761 398.175 50.2078 398.57 49.5451 399.196C49.5135 399.81 49.2067 400.408 48.71 400.843C48.483 401.042 48.3439 401.303 48.2686 401.591C48.2112 401.938 48.1993 402.288 48.2404 402.631C48.2422 402.647 48.242 402.661 48.2435 402.676C48.3125 403.08 48.4534 403.468 48.6234 403.77C49.1584 404.72 50.1656 405.445 51.2186 405.718C53.3146 406.261 55.4228 404.584 55.7498 402.443Z" fill="#D08F3F"/>
<path d="M56.5748 455.566C53.5488 457.769 49.2922 457.363 46.5762 454.836C45.3855 453.728 44.5709 452.293 44.2297 450.789C44.145 450.599 44.0842 450.385 44.0553 450.144C43.5522 445.942 46.5364 441.837 50.7211 441.104C54.2891 440.478 58.0091 442.752 59.4202 446.01C60.8742 449.368 59.4712 453.459 56.5748 455.566ZM55.7498 449.443C56.0776 447.298 54.1042 445.295 52.0542 445.213C51.0761 445.175 50.2078 445.57 49.5451 446.196C49.5135 446.81 49.2067 447.408 48.71 447.843C48.483 448.042 48.3439 448.303 48.2686 448.591C48.2112 448.938 48.1993 449.288 48.2404 449.631C48.2422 449.647 48.242 449.661 48.2435 449.676C48.3125 450.08 48.4534 450.468 48.6234 450.77C49.1584 451.72 50.1656 452.445 51.2186 452.718C53.3146 453.261 55.4228 451.584 55.7498 449.443Z" fill="#D08F3F"/>
<path d="M56.5748 506.566C53.5488 508.769 49.2922 508.363 46.5762 505.836C45.3855 504.728 44.5709 503.293 44.2297 501.789C44.145 501.599 44.0842 501.385 44.0553 501.144C43.5522 496.942 46.5364 492.837 50.7211 492.104C54.2891 491.478 58.0091 493.752 59.4202 497.01C60.8742 500.368 59.4712 504.459 56.5748 506.566ZM55.7498 500.443C56.0776 498.298 54.1042 496.295 52.0542 496.213C51.0761 496.175 50.2078 496.57 49.5451 497.196C49.5135 497.81 49.2067 498.408 48.71 498.843C48.483 499.042 48.3439 499.303 48.2686 499.591C48.2112 499.938 48.1993 500.288 48.2404 500.631C48.2422 500.647 48.242 500.661 48.2435 500.676C48.3125 501.08 48.4534 501.468 48.6234 501.77C49.1584 502.72 50.1656 503.445 51.2186 503.718C53.3146 504.261 55.4228 502.584 55.7498 500.443Z" fill="#D08F3F"/>
<path d="M56.5748 555.566C53.5488 557.769 49.2922 557.363 46.5762 554.836C45.3855 553.728 44.5709 552.293 44.2297 550.789C44.145 550.599 44.0842 550.385 44.0553 550.144C43.5522 545.942 46.5364 541.837 50.7211 541.104C54.2891 540.478 58.0091 542.752 59.4202 546.01C60.8742 549.368 59.4712 553.459 56.5748 555.566ZM55.7498 549.443C56.0776 547.298 54.1042 545.295 52.0542 545.213C51.0761 545.175 50.2078 545.57 49.5451 546.196C49.5135 546.81 49.2067 547.408 48.71 547.843C48.483 548.042 48.3439 548.303 48.2686 548.591C48.2112 548.938 48.1993 549.288 48.2404 549.631C48.2422 549.647 48.242 549.661 48.2435 549.676C48.3125 550.08 48.4534 550.468 48.6234 550.77C49.1584 551.72 50.1656 552.445 51.2186 552.718C53.3146 553.261 55.4228 551.584 55.7498 549.443Z" fill="#D08F3F"/>
<text fill="#292929" xml:space="preserve" style="white-space: pre" font-family="Open Sans" font-size="18" letter-spacing="0em"><tspan x="588" y="826.983">O parapodium ou estabilizadores s&#xe3;o equipamentos </tspan><tspan x="588" y="852.983">utilizados para auxiliar a crian&#xe7;a a manter a postura </tspan><tspan x="588" y="878.983">de p&#xe9;, exigindo tamb&#xe9;m esfor&#xe7;o e equil&#xed;brio por parte </tspan><tspan x="588" y="904.983">da crian&#xe7;a. Atualmente, existem diversos modelos de </tspan><tspan x="588" y="930.983">parapodium, a depender do caso de cada crian&#xe7;a.</tspan></text>
<path d="M56.5748 602.566C53.5488 604.769 49.2922 604.363 46.5762 601.836C45.3855 600.728 44.5709 599.293 44.2297 597.789C44.145 597.599 44.0842 597.385 44.0553 597.144C43.5522 592.942 46.5364 588.837 50.7211 588.104C54.2891 587.478 58.0091 589.752 59.4202 593.01C60.8742 596.368 59.4712 600.459 56.5748 602.566ZM55.7498 596.443C56.0776 594.298 54.1042 592.295 52.0542 592.213C51.0761 592.175 50.2078 592.57 49.5451 593.196C49.5135 593.81 49.2067 594.408 48.71 594.843C48.483 595.042 48.3439 595.303 48.2686 595.591C48.2112 595.938 48.1993 596.288 48.2404 596.631C48.2422 596.647 48.242 596.661 48.2435 596.676C48.3125 597.08 48.4534 597.468 48.6234 597.77C49.1584 598.72 50.1656 599.445 51.2186 599.718C53.3146 600.261 55.4228 598.584 55.7498 596.443Z" fill="#D08F3F"/>
<text fill="#292929" xml:space="preserve" style="white-space: pre" font-family="Open Sans" font-size="18" letter-spacing="0em"><tspan x="98" y="1237.98">As &#xf3;rteses s&#xe3;o dispositivos terap&#xea;uticos importantes </tspan><tspan x="98" y="1263.98">no processo de reabilita&#xe7;&#xe3;o que podem ser utilizadas </tspan><tspan x="98" y="1289.98">em qualquer parte do corpo. Quando a crian&#xe7;a n&#xe3;o </tspan><tspan x="98" y="1315.98">consegue manter-se de p&#xe9; com os membros </tspan><tspan x="98" y="1341.98">inferiores estendidos e/ou os p&#xe9;s bem posicionados, </tspan><tspan x="98" y="1367.98">a &#xf3;rtese extensora de quadril/joelhos e a &#xf3;rtese </tspan><tspan x="98" y="1393.98">chamada tornozelo-p&#xe9; (AFO) auxiliam a manter o </tspan><tspan x="98" y="1419.98">posicionamento correto dos membros inferiores da </tspan><tspan x="98" y="1445.98">crian&#xe7;a, evitando deformidades. Quando indicadas, </tspan><tspan x="98" y="1471.98">ajudam a diminuir contraturas e deformidades, </tspan><tspan x="98" y="1497.98">auxiliando no posicionamento correto do membro em </tspan><tspan x="98" y="1523.98">quest&#xe3;o.</tspan></text>
<path d="M20 663H1120" stroke="#D08F3F" stroke-width="5"/>
<path d="M20 1115H1120" stroke="#D08F3F" stroke-width="5"/>
<path opacity="0.35" d="M970.107 546.75C1024.03 546.75 1067.74 541.935 1067.74 535.994C1067.74 530.054 1024.03 525.238 970.107 525.238C916.183 525.238 872.469 530.054 872.469 535.994C872.469 541.935 916.183 546.75 970.107 546.75Z" fill="white"/>
<path d="M957.418 482.242L953.756 514.062C951.533 514.062 948.265 514.678 946.042 514.678H931.492C931.492 514.678 932.143 492.544 931.954 480.574" fill="#A34326"/>
<path d="M954.385 511.42C954.385 518.999 953.476 529.684 953.476 537.263C943.472 542.492 928.232 546.206 922.983 545.149C920.742 544.698 918.574 543.885 916.464 542.961C913.372 541.607 912.544 539.119 912.456 535.063C912.383 531.689 913.543 528.174 916.323 526.259C919.426 524.122 921.267 524.096 924.821 522.844C928.375 521.593 931.422 516.648 930.967 510.51L954.385 511.42Z" fill="#E8E0A7"/>
<path d="M952.666 531.133C946.392 534.04 940.042 536.972 933.258 538.306C926.473 539.641 919.664 539.514 913.68 536.049" stroke="#B8532F" stroke-width="1.8189" stroke-miterlimit="10" stroke-linecap="round" stroke-linejoin="round"/>
<path d="M928.987 538.318C929.42 532.676 925.503 527.525 919.023 526.047" stroke="#B8532F" stroke-width="1.8189" stroke-miterlimit="10" stroke-linecap="round" stroke-linejoin="round"/>
<path d="M929.83 524.835L925.738 523.129" stroke="#B8532F" stroke-width="1.8189" stroke-miterlimit="10" stroke-linecap="round" stroke-linejoin="round"/>
<path d="M935.058 521.196L929.77 520.357" stroke="#B8532F" stroke-width="1.8189" stroke-miterlimit="10" stroke-linecap="round" stroke-linejoin="round"/>
<path d="M936.197 517.104C933.574 516.853 933.717 516.993 931.094 516.742" stroke="#B8532F" stroke-width="1.8189" stroke-miterlimit="10" stroke-linecap="round" stroke-linejoin="round"/>
<path d="M988.844 482.242L992.506 514.062C994.729 514.062 997.997 514.678 1000.22 514.678H1014.77C1014.77 514.678 1014.12 492.544 1014.31 480.574" fill="#A34326"/>
<path d="M991.875 511.42C991.875 518.999 992.784 529.684 992.784 537.263C1002.79 542.492 1018.03 546.206 1023.28 545.149C1025.52 544.698 1027.69 543.885 1029.8 542.961C1032.89 541.607 1033.72 539.119 1033.8 535.063C1033.88 531.689 1032.72 528.174 1029.94 526.259C1026.83 524.122 1024.99 524.096 1021.44 522.844C1017.89 521.593 1014.84 516.648 1015.29 510.51L991.875 511.42Z" fill="#E8E0A7"/>
<path d="M993.594 531.133C999.868 534.04 1006.22 536.972 1013 538.306C1019.79 539.641 1026.6 539.514 1032.58 536.049" stroke="#B8532F" stroke-width="1.8189" stroke-miterlimit="10" stroke-linecap="round" stroke-linejoin="round"/>
<path d="M1017.27 538.318C1016.84 532.676 1020.76 527.525 1027.24 526.047" stroke="#B8532F" stroke-width="1.8189" stroke-miterlimit="10" stroke-linecap="round" stroke-linejoin="round"/>
<path d="M1016.43 524.835L1020.52 523.129" stroke="#B8532F" stroke-width="1.8189" stroke-miterlimit="10" stroke-linecap="round" stroke-linejoin="round"/>
<path d="M1011.2 521.196L1016.49 520.357" stroke="#B8532F" stroke-width="1.8189" stroke-miterlimit="10" stroke-linecap="round" stroke-linejoin="round"/>
<path d="M1010.06 517.104C1012.69 516.853 1012.54 516.993 1015.17 516.742" stroke="#B8532F" stroke-width="1.8189" stroke-miterlimit="10" stroke-linecap="round" stroke-linejoin="round"/>
<path d="M932.655 297.486C909.627 318.395 889.807 355.34 880.566 384.781C887.398 389.401 896.408 391.514 903.605 395.543C915.937 368.974 930.67 343.909 943.54 317.596" fill="#B8532F"/>
<path d="M883.508 380.731C877.745 385.044 873.25 394.096 870.545 399.295C866.983 406.14 886.115 410.742 890.539 409.397C893.884 408.381 891.996 410.682 893.529 407.54C896.46 401.533 898.672 398.527 903.119 390.33C908.967 386.122 894.644 364.105 883.508 380.731Z" fill="#B8532F"/>
<path d="M898.465 397.877C895.717 401.978 891.922 416.349 886.853 421.968C885.064 423.951 881.641 423.009 881.222 420.371C881.155 419.952 881.126 419.527 881.134 419.108C881.174 417.015 881.976 415.022 882.767 413.083C884.043 409.952 885.32 406.82 886.597 403.689" fill="#B8532F"/>
<path d="M886.591 402.934C886.745 402.368 880.601 414.828 879.391 417.675C878.582 419.578 877.524 421.706 875.524 422.232C873.218 422.838 871.521 420.961 871.381 418.58C871.242 416.199 873.415 411.815 874.544 409.715C877.153 404.866 879.018 400.501 881.627 395.652" fill="#B8532F"/>
<path d="M882.664 394.847C881.44 396.959 878.689 399.764 877.655 401.619C876.149 404.321 873.733 407.365 872.226 410.067C871.219 411.873 869.94 413.876 867.896 414.186C865.538 414.543 864.898 412.773 865.013 410.391C865.128 408.009 867.073 404.503 868.42 402.536C871.53 397.992 873.685 392.951 876.795 388.408" fill="#B8532F"/>
<path d="M904.052 389.031C904.211 393.076 904.371 397.121 904.53 401.165C904.592 402.73 904.587 404.47 903.388 405.748C903.21 405.937 903.004 406.115 902.753 406.219C902.44 406.348 902.089 406.348 901.763 406.312C899.421 406.053 897.927 404.136 897.318 402.172C896.709 400.209 896.718 398.075 896.023 396.14" fill="#B8532F"/>
<path d="M877.656 401.619L871.898 412.866" stroke="#00291B" stroke-width="2.4471" stroke-miterlimit="10" stroke-linecap="round"/>
<path d="M885.779 405.652C884.216 410.125 882.217 414.445 879.82 418.532" stroke="#00291B" stroke-width="2.4471" stroke-miterlimit="10" stroke-linecap="round"/>
<path d="M1015.97 297.486C1039 318.395 1058.82 355.34 1068.06 384.781C1061.23 389.401 1052.22 391.514 1045.02 395.543C1032.69 368.974 1017.96 343.909 1005.09 317.596" fill="#B8532F"/>
<path d="M1065.12 380.731C1070.88 385.044 1075.38 394.096 1078.08 399.295C1081.65 406.14 1062.51 410.742 1058.09 409.397C1054.74 408.381 1056.63 410.682 1055.1 407.54C1052.17 401.533 1049.96 398.527 1045.51 390.33C1039.66 386.122 1053.98 364.105 1065.12 380.731Z" fill="#B8532F"/>
<path d="M1050.16 397.877C1052.91 401.978 1056.71 416.349 1061.78 421.968C1063.57 423.951 1066.99 423.009 1067.41 420.371C1067.47 419.952 1067.5 419.527 1067.5 419.108C1067.46 417.015 1066.65 415.022 1065.86 413.083C1064.59 409.952 1063.31 406.82 1062.03 403.689" fill="#B8532F"/>
<path d="M1062.04 402.934C1061.88 402.368 1068.03 414.828 1069.24 417.675C1070.05 419.578 1071.11 421.706 1073.11 422.232C1075.41 422.838 1077.11 420.961 1077.25 418.58C1077.39 416.199 1075.21 411.815 1074.08 409.715C1071.48 404.866 1069.61 400.501 1067 395.652" fill="#B8532F"/>
<path d="M1065.97 394.847C1067.19 396.959 1069.94 399.764 1070.98 401.619C1072.48 404.321 1074.9 407.365 1076.41 410.067C1077.41 411.873 1078.69 413.876 1080.74 414.186C1083.09 414.543 1083.73 412.773 1083.62 410.391C1083.5 408.009 1081.56 404.503 1080.21 402.536C1077.1 397.992 1074.95 392.951 1071.84 388.408" fill="#B8532F"/>
<path d="M1044.58 389.031C1044.42 393.076 1044.26 397.121 1044.1 401.165C1044.04 402.73 1044.04 404.47 1045.24 405.748C1045.42 405.937 1045.62 406.115 1045.88 406.219C1046.19 406.348 1046.54 406.348 1046.87 406.312C1049.21 406.053 1050.7 404.136 1051.31 402.172C1051.92 400.209 1051.91 398.075 1052.61 396.14" fill="#B8532F"/>
<path d="M1070.98 401.619L1076.74 412.866" stroke="#00291B" stroke-width="2.4471" stroke-miterlimit="10" stroke-linecap="round"/>
<path d="M1062.85 405.652C1064.41 410.125 1066.41 414.445 1068.81 418.532" stroke="#00291B" stroke-width="2.4471" stroke-miterlimit="10" stroke-linecap="round"/>
<path d="M936.17 284.004C925.68 291.586 915.492 300.78 906.352 309.945C912.622 320.11 924.072 332.521 935.033 337.262C936.493 320.939 936.852 302.534 936.17 284.004Z" fill="#F2F2F5"/>
<path d="M1007.36 335.219C1008.01 321.209 1005.63 296.503 1007.63 282.622C998.841 280.197 987.321 277.772 979.743 277.923C970.717 275.504 970.071 277.003 960.796 278.15C952.541 279.171 937.606 281.712 936.696 282.621C936.265 296.767 938.907 320.454 938.477 334.6C947.118 329.417 959.025 332.769 969.073 332C975.883 331.479 982.577 329.819 989.398 329.473C996.46 329.116 1000.72 332.798 1007.36 335.219Z" fill="#F2F2F5"/>
<path d="M1011.27 284.004C1021.76 291.586 1031.95 300.78 1041.09 309.945C1034.82 320.11 1023.37 332.521 1012.41 337.262C1010.95 320.939 1010.59 302.534 1011.27 284.004Z" fill="#F2F2F5"/>
<path d="M993.397 280.777C991.007 289.333 983.12 295.657 973.828 295.657H970.797C961.563 295.657 953.716 289.412 951.273 280.936" stroke="#AA61B7" stroke-width="1.8189" stroke-miterlimit="10" stroke-linecap="round" stroke-linejoin="round"/>
<path d="M1014 374.019C1012.99 360.681 1012.26 326.017 1011.57 314.199H935.688C935 326.017 933.11 358.839 931.696 372.506C927.604 412.064 922.602 496.641 922.602 496.641L962.617 497.55C963.755 493.413 970.609 433.21 972.621 402.06C972.621 402.06 984.131 498.915 983.079 497.096H1021.73C1021.73 497.096 1016.41 405.924 1014 374.019Z" fill="#D7BE99"/>
<path d="M948.976 317.938H935.789V283.178C935.789 282.502 936.268 281.921 936.931 281.792L947.293 279.767C948.165 279.596 948.977 280.264 948.977 281.153V317.938H948.976Z" fill="#D7BE99"/>
<path d="M1011.27 317.937L998.086 315.512V281.241C998.086 280.41 998.877 279.807 999.678 280.028L1010.35 282.972C1010.89 283.122 1011.27 283.619 1011.27 284.185V317.937Z" fill="#D7BE99"/>
<path d="M997.932 324.91H951.551C953.198 332.533 956.673 340.455 963.461 344.294C970.249 348.133 983.826 346.961 989.747 341.886C994.761 337.589 997.023 332.489 997.932 324.91Z" fill="#D5A55E" stroke="#B58427" stroke-width="1.8189" stroke-miterlimit="10" stroke-linecap="round" stroke-linejoin="round"/>
<path d="M947.791 312.937C947.791 316.553 944.86 319.485 941.243 319.485C937.627 319.485 934.695 316.553 934.695 312.937C934.695 309.32 937.627 306.389 941.243 306.389C944.86 306.389 947.791 309.32 947.791 312.937Z" fill="#D5A55E" stroke="#B58427"/>
<path d="M1010.54 312.937C1010.54 316.553 1007.61 319.485 1003.99 319.485C1000.38 319.485 997.445 316.553 997.445 312.937C997.445 309.32 1000.38 306.389 1003.99 306.389C1007.61 306.389 1010.54 309.32 1010.54 312.937Z" fill="#D5A55E" stroke="#B58427"/>
<path d="M968.68 403.576H977.794" stroke="#AA61B7" stroke-width="1.8189" stroke-miterlimit="10" stroke-linecap="round" stroke-linejoin="round"/>
<path d="M924.828 485.576H962.462" stroke="#B58427" stroke-width="1.8189" stroke-miterlimit="10" stroke-linecap="round" stroke-linejoin="round"/>
<path d="M984.242 486.184H1019.59" stroke="#B58427" stroke-width="1.8189" stroke-miterlimit="10" stroke-linecap="round" stroke-linejoin="round"/>
<path d="M974.108 289.292H968.406C961.442 289.292 955.797 283.647 955.797 276.683V264.283H986.718V276.683C986.717 283.646 981.072 289.292 974.108 289.292Z" fill="#A34326"/>
<path d="M917.601 243.973C924.698 243.973 930.452 238.22 930.452 231.122C930.452 224.025 924.698 218.271 917.601 218.271C910.504 218.271 904.75 224.025 904.75 231.122C904.75 238.22 910.504 243.973 917.601 243.973Z" fill="#A34326"/>
<path d="M1024.83 243.973C1031.92 243.973 1037.68 238.22 1037.68 231.122C1037.68 224.025 1031.92 218.271 1024.83 218.271C1017.73 218.271 1011.98 224.025 1011.98 231.122C1011.98 238.22 1017.73 243.973 1024.83 243.973Z" fill="#A34326"/>
<path d="M1025.23 222.566C1027.24 255.614 999.624 273.831 971.012 273.831C942.4 273.831 918.092 259.367 917.198 222.566C916.395 189.518 942.4 171.52 971.012 171.52C999.624 171.52 1023.07 187.079 1025.23 222.566Z" fill="#B8532F"/>
<path d="M954.37 223.185C954.37 226.407 951.6 229.018 948.183 229.018C944.766 229.018 941.996 226.406 941.996 223.185C941.996 219.963 944.766 217.352 948.183 217.352C951.6 217.352 954.37 219.963 954.37 223.185Z" fill="#EFF0F1"/>
<path d="M952.684 223.184C952.684 225.527 950.669 227.427 948.184 227.427C945.699 227.427 943.684 225.527 943.684 223.184C943.684 220.841 945.699 218.941 948.184 218.941C950.669 218.941 952.684 220.841 952.684 223.184Z" fill="#002222"/>
<path d="M993.968 223.185C993.968 226.407 991.198 229.018 987.781 229.018C984.364 229.018 981.594 226.406 981.594 223.185C981.594 219.963 984.364 217.352 987.781 217.352C991.198 217.352 993.968 219.963 993.968 223.185Z" fill="#EFF0F1"/>
<path d="M992.281 223.184C992.281 225.527 990.266 227.427 987.781 227.427C985.295 227.427 983.281 225.527 983.281 223.184C983.281 220.841 985.296 218.941 987.781 218.941C990.266 218.941 992.281 220.841 992.281 223.184Z" fill="#002222"/>
<path d="M934.397 243.478C938.923 243.478 942.591 239.809 942.591 235.284C942.591 230.758 938.923 227.09 934.397 227.09C929.872 227.09 926.203 230.758 926.203 235.284C926.203 239.809 929.872 243.478 934.397 243.478Z" fill="#A51F11"/>
<path d="M1001.57 243.478C1006.09 243.478 1009.76 239.809 1009.76 235.284C1009.76 230.758 1006.09 227.09 1001.57 227.09C997.04 227.09 993.371 230.758 993.371 235.284C993.371 239.809 997.04 243.478 1001.57 243.478Z" fill="#A51F11"/>
<path d="M970.76 233.426C971.038 234.091 970.483 232.761 970.76 233.426Z" stroke="#00291B" stroke-width="2.4096" stroke-miterlimit="10" stroke-linecap="round"/>
<path d="M966.996 233.777C963.281 233.677 961.641 230.606 962.177 227.954C962.931 224.225 966.074 222.679 969.858 222.945" stroke="#00291B" stroke-width="2.4096" stroke-miterlimit="10" stroke-linecap="round"/>
<path d="M985.004 208.878C987.527 206.857 991.717 207.466 993.561 210.12" stroke="#00291B" stroke-width="2.4096" stroke-miterlimit="10" stroke-linecap="round"/>
<path d="M951.936 208.878C949.413 206.857 945.222 207.466 943.379 210.12" stroke="#00291B" stroke-width="2.4096" stroke-miterlimit="10" stroke-linecap="round"/>
<path d="M981.294 238.054C979.088 242.32 973.947 245.179 968.758 245.028C963.569 244.876 958.627 241.722 956.707 237.336C960.28 239.363 964.132 240.468 968.33 240.616C973.225 240.789 977.704 240.044 981.294 238.054Z" fill="#EFF0F1"/>
<path d="M1005.74 172.134C1010.68 170.892 1016.25 172.596 1019.65 176.391C1023.06 180.187 1025.75 187.189 1023.97 191.968C1031.15 195.139 1034.64 204.723 1031.19 211.77C1030.34 213.513 1028.1 217.144 1026.81 218.584C1026.84 221.896 1026.4 225.826 1025.14 228.891C1022.09 227.259 1019.54 222.93 1018.53 219.622C1017.53 216.314 1016.83 212.324 1016.72 208.869C1009.04 208.052 1001.05 200.245 1002.21 192.605C997.183 193.461 991.793 191.778 988.15 188.215C984.508 184.652 980.856 178.381 981.601 173.341C985.526 169.154 990.127 165.497 998.251 167.602C1000.49 168.179 1004.46 170.212 1005.74 172.134Z" fill="#00291B"/>
<path d="M937.018 172.132C932.075 170.89 926.506 172.594 923.104 176.389C919.702 180.185 917.014 187.187 918.789 191.966C911.612 195.137 908.116 204.721 911.567 211.768C912.421 213.511 914.662 217.142 915.951 218.582C915.917 221.894 916.363 225.824 917.619 228.889C920.667 227.257 923.22 222.928 924.224 219.62C925.227 216.312 925.923 212.322 926.037 208.867C933.721 208.05 941.712 200.243 940.554 192.603C945.576 193.459 950.967 191.776 954.609 188.213C958.251 184.65 960.053 179.299 959.308 174.259C955.383 170.072 950.907 167.087 944.508 167.6C941.027 167.877 938.297 170.21 937.018 172.132Z" fill="#00291B"/>
<path d="M993.685 174.709C992.287 180.874 987.469 186.146 981.417 188.773C975.365 191.4 968.231 191.469 961.938 189.413C956.08 187.499 950.895 183.785 947.357 178.966C944.039 174.448 948.773 167.836 953.435 164.552C958.098 161.269 964.09 160.114 969.899 160.008C975.141 159.912 980.507 160.633 985.154 162.933C989.802 165.232 994.787 169.853 993.685 174.709Z" fill="#00291B"/>
<text fill="black" xml:space="preserve" style="white-space: pre" font-family="Open Sans" font-size="14" font-weight="600" letter-spacing="0em"><tspan x="198.926" y="1041.43">Figura 6: uso do parapodium.&#x2028;</tspan><tspan x="195.084" y="1061.43">Fonte: Brasil (2023, p. 112-113)</tspan></text>
<text fill="black" xml:space="preserve" style="white-space: pre" font-family="Open Sans" font-size="14" font-weight="600" letter-spacing="0em"><tspan x="759.797" y="1537.43">Figura 7: uso de &#xf3;rteses.&#x2028;</tspan><tspan x="751.437" y="1557.43">Fonte: Brasil (2023, p. 113).</tspan></text>
<rect x="128.176" y="746.271" width="29.2698" height="181.982" rx="10" fill="#FCF9F0"/>
<path d="M131.992 756.271C131.992 750.748 136.469 746.271 141.992 746.271H158.898C164.42 746.271 168.898 750.748 168.898 756.271V920.425C168.898 920.905 168.556 921.318 168.084 921.407L143.856 926.002C137.695 927.17 131.992 922.447 131.992 916.177V756.271Z" fill="#F7F0DD"/>
<path d="M107.177 834.718L206.439 828.354L293.614 847.441L197.532 860.805L107.177 834.718Z" fill="#F7F0DD"/>
<path d="M143.449 833.445L148.54 823.901C157.872 824.325 175.137 825.173 177.173 825.173H184.172C185.699 825.173 189.475 822.628 191.172 821.355C191.596 821.78 192.062 823.137 193.081 825.173C194.099 827.209 194.353 827.931 194.353 828.991L155.539 832.809L143.449 833.445Z" fill="#D08F3F"/>
<path d="M155.537 805.447C150.955 804.938 135.175 802.69 128.176 800.356V814.991L132.63 821.991L164.445 825.808C169.111 826.021 179.334 826.317 182.897 825.808C187.352 825.172 188.624 823.263 190.533 821.991C192.442 820.718 194.351 816.9 194.987 814.991L197.532 807.356L191.169 800.993C188.836 802.265 183.407 804.556 177.807 806.083C170.808 807.992 161.263 806.083 155.537 805.447Z" fill="#694025"/>
<path d="M176.536 835.354L166.355 838.535V821.991L176.536 820.719V835.354Z" fill="#E5A498"/>
<path d="M165.719 816.9L153.629 820.082L166.355 821.991L176.536 820.718L165.719 816.9Z" fill="#F9EAE7"/>
<path d="M153.629 818.809L166.355 821.354V838.534L153.629 834.08V818.809Z" fill="#F5D8D3"/>
<path d="M127.539 816.265C127.539 814.738 132.205 805.872 134.538 801.63L145.992 806.084L144.719 810.538H151.082C153.415 810.326 158.463 810.029 159.99 810.538C161.517 811.047 163.172 812.023 163.808 812.447L169.535 818.174L172.716 821.991C173.353 822.84 174.625 824.664 174.625 825.173C174.625 825.809 173.989 825.809 172.716 824.537C171.444 823.264 168.262 821.355 167.626 820.719C166.99 820.719 166.99 820.931 166.99 821.355L169.535 825.173C169.959 825.597 171.894 827.905 171.444 828.354C170.171 828.354 169.111 827.294 168.898 827.082L165.081 823.264C164.657 822.84 163.681 822.119 163.172 822.628C162.663 823.137 162.96 823.688 163.172 823.9C164.02 825.597 166.353 829.118 166.353 829.627C166.353 830.136 165.717 830.445 165.081 829.627C163.596 827.718 160.499 823.773 159.99 823.264C159.481 822.755 159.354 823.476 159.354 823.9V827.718V829.627C159.354 830.263 158.718 830.263 158.718 829.627C158.718 828.727 157.445 824.537 156.809 822.628C156.173 820.719 154.9 820.083 153.627 820.083C152.609 820.083 148.113 820.931 145.992 821.355C142.386 821.991 134.793 823.137 133.266 822.628C131.739 822.119 130.084 821.991 128.812 820.719C128.175 819.658 127.539 817.792 127.539 816.265Z" fill="#F0B89E"/>
<path d="M133.268 800.993C132.634 802.266 132.844 802.69 133.268 802.902H135.813C137.088 802.902 138.362 803.539 140.905 804.811C142.941 805.83 144.721 808.417 145.358 809.902L149.175 805.447L162.538 807.356C164.447 807.356 174.026 807.775 176.536 807.356C180.354 806.72 185.446 805.447 187.992 804.175C188.902 803.72 190.747 802.054 191.171 800.993H198.807C200.843 800.993 203.473 798.448 204.533 797.176C203.685 793.994 201.861 787.122 201.352 785.086C200.843 783.05 198.595 780.42 197.534 779.359L189.899 775.541L182.899 785.086C181.415 785.934 177.811 786.995 175.266 786.995C172.72 786.995 169.537 784.238 168.264 782.541L165.083 778.087L159.356 771.724H154.902C152.569 773.633 147.394 777.832 145.358 779.359C142.812 781.268 142.812 781.904 140.904 783.813C139.376 785.34 138.57 787.843 138.358 788.904C137.086 792.085 134.285 798.956 133.268 800.993Z" fill="#D08F3F"/>
<path d="M188.624 764.724C189.642 762.688 189.048 759.209 188.624 757.725H190.533C190.957 759.634 192.06 763.706 193.078 764.724C194.096 765.742 195.624 769.39 196.26 771.087C196.684 772.996 197.278 777.323 196.26 779.359C194.987 781.904 191.806 784.449 190.533 786.358C189.515 787.885 190.109 789.964 190.533 790.812C189.897 790.388 188.37 789.158 187.352 787.631C186.334 786.104 187.776 783.177 188.624 781.904C188.2 782.328 186.97 783.304 185.443 783.813C183.916 784.322 182.261 787.843 181.625 789.54V784.449C182.049 780.419 183.279 772.105 184.806 771.087C186.715 769.814 187.352 767.269 188.624 764.724Z" fill="#A1602D"/>
<path d="M234.438 865.258L229.984 865.894V877.984L228.711 932.706L233.165 933.978L234.438 865.258Z" fill="#C27934"/>
<circle cx="165.078" cy="981.702" r="6.36299" fill="#A1602D"/>
<circle cx="241.433" cy="960.068" r="6.36299" fill="#A1602D"/>
<circle cx="89.9958" cy="949.887" r="6.36299" fill="#A1602D"/>
<circle cx="165.08" cy="981.704" r="3.81779" fill="#E7CC99"/>
<circle cx="241.435" cy="960.068" r="3.81779" fill="#E7CC99"/>
<circle cx="89.9936" cy="949.887" r="3.81779" fill="#E7CC99"/>
<path d="M84.9075 938.414C85.4058 935.918 87.6664 934.403 88.7269 934.615L200.051 944.775L260.5 945.412C260.5 945.412 261.136 948.594 259.227 950.503C246.501 957.502 183.508 974.682 183.508 974.682C178.417 976.379 171.418 979.136 166.328 979.136C161.237 979.136 86.7901 942.866 86.7901 942.866C86.7901 942.866 84.2721 941.597 84.9075 938.414Z" fill="#D08F3F"/>
<path d="M190.531 919.344V862.713H229.982L228.709 932.706L190.531 919.344Z" fill="#F7F0DD"/>
<path d="M197.535 860.802L313.342 844.261L313.342 854.442L197.534 870.986L197.535 860.802Z" fill="#D08F3F"/>
<path d="M229.985 824.543L313.339 844.261L293.612 847.446L229.985 833.448L229.985 824.543Z" fill="#EFDEB9"/>
<path d="M196.898 807.993L215.987 811.175V836.627L196.898 830.264V807.993Z" fill="#F2D8EF"/>
<path d="M85.3053 940.559C82.5638 939.37 83.0557 935.342 86.0027 934.848L185.34 918.196C185.826 918.114 186.324 918.154 186.791 918.311L260.371 943.025C263.155 943.96 263.076 947.925 260.257 948.748L168.031 975.671C167.359 975.867 166.639 975.822 165.997 975.543L85.3053 940.559Z" fill="#EFDEB9"/>
<path d="M107.328 834.718L197.536 860.806L197.536 870.987L107.328 844.899L107.328 834.718Z" fill="#EFDEB9"/>
<path d="M175.902 929.525C175.393 928.507 176.114 926.98 176.538 926.344L203.898 928.253C203.898 928.253 205.17 928.889 205.807 930.162C205.807 930.162 206.443 930.798 207.079 932.07C207.307 932.526 207.079 933.555 207.079 933.979C206.867 934.616 205.494 936.078 203.261 936.525C200.08 937.161 194.99 936.525 193.717 935.888C192.444 935.252 188.627 933.979 187.354 933.343C186.336 932.834 180.991 931.858 178.446 931.434C177.81 931.222 176.411 930.543 175.902 929.525Z" fill="#F7F0DD"/>
<path d="M151.082 939.707V934.616L160.627 935.889L172.716 937.798C173.777 938.01 176.152 938.689 177.17 939.707C178.443 940.979 178.2 942.737 177.807 943.524C177.488 944.161 176.929 944.281 175.898 944.797C174.625 945.433 171.444 946.07 168.898 946.07C165.717 946.07 164.444 946.07 162.535 945.433C160.724 944.83 155.536 942.252 154.264 941.615C153.245 941.106 152.355 940.767 151.082 939.707Z" fill="#F7F0DD"/>
<path d="M175.898 921.89C175.898 919.345 176.323 917.86 176.535 917.436L183.534 914.89C184.595 914.678 187.097 914.381 188.624 914.89C190.533 915.527 189.897 915.527 191.17 916.163C192.442 916.799 192.442 917.436 193.079 918.708C193.715 919.981 196.896 922.526 198.169 923.799C199.442 925.071 201.35 926.344 202.623 926.98C203.896 927.616 205.168 928.889 205.168 929.525V930.798L203.896 932.071C203.259 932.707 199.442 933.343 197.533 933.343C195.624 933.343 191.806 932.707 191.806 932.707C191.806 932.707 187.352 930.798 185.443 930.162C183.534 929.525 181.625 928.889 179.08 928.253C177.044 927.744 176.111 927.192 175.898 926.98V921.89Z" fill="#C27934"/>
<path d="M176.534 916.164L175.262 898.984L186.715 898.348L187.988 914.891C187.776 914.891 187.224 915.019 186.715 915.528C186.206 915.528 184.806 917.225 184.17 918.073C183.746 918.497 182.388 919.473 180.352 919.982C178.316 920.491 176.746 919.77 176.534 919.346V916.164Z" fill="#A1602D"/>
<path d="M175.262 900.255V895.396L186.715 892.619V898.982L175.262 900.255Z" fill="#F0B89E"/>
<path d="M151.082 929.525C151.082 927.998 152.991 927.674 152.355 928.252L159.354 921.889C160.202 922.101 162.281 922.652 163.808 923.161C164.444 923.373 165.081 924.434 165.717 925.706C166.353 926.979 167.626 928.888 168.898 930.797C170.171 932.706 171.739 934.274 173.989 936.524L173.989 936.524C176.534 939.069 176.534 939.069 176.534 940.341C176.534 941.614 172.795 942.25 170.171 942.25H164.444C163.172 942.25 161.263 940.978 159.354 939.705C157.445 938.432 156.172 937.796 154.264 936.524C152.736 935.505 151.506 935.251 151.082 935.251V929.525Z" fill="#C27934"/>
<path d="M170.173 932.706L165.719 934.615" stroke="#F7F0DD" stroke-linecap="round" stroke-linejoin="round"/>
<path d="M196.493 921.594L192.656 924.553" stroke="#F7F0DD" stroke-linecap="round" stroke-linejoin="round"/>
<path d="M162.535 930.161L166.989 928.252" stroke="#F7F0DD" stroke-linecap="round" stroke-linejoin="round"/>
<path d="M188.464 921.031L192.302 918.072" stroke="#F7F0DD" stroke-linecap="round" stroke-linejoin="round"/>
<path d="M151.719 928.89L152.355 902.802L161.263 901.529C161.475 908.104 161.9 921.636 161.9 923.163C161.263 923.8 159.991 924.436 158.082 925.709C156.173 926.981 156.173 928.89 154.9 929.526C153.882 930.035 152.143 929.102 151.719 928.89Z" fill="#A1602D"/>
<path d="M152.355 902.8V893.255L161.264 892.619V902.8C160.203 903.224 157.7 904.073 156.173 904.073C154.646 904.073 152.992 903.224 152.355 902.8Z" fill="#F0B89E"/>
<path d="M153.629 894.528L155.538 858.896L197.534 870.985L206.442 869.713L209.623 878.621L210.26 887.529C210.047 889.226 209.241 892.619 207.714 892.619H197.534C194.988 892.619 191.171 894.528 186.08 894.528C182.008 894.528 175.475 895.801 172.718 896.437H159.992C155.92 896.437 155.538 896.437 153.629 894.528Z" fill="#D08F3F"/>
<path d="M168.263 930.799L163.809 932.708" stroke="#F7F0DD" stroke-linecap="round" stroke-linejoin="round"/>
<path d="M229.983 834.08L215.984 836.625V811.173L230.619 809.9L229.983 834.08Z" fill="#E1A3D8"/>
<path d="M207.712 802.901L197.531 808.628L215.984 811.81L230.619 809.901L207.712 802.901Z" fill="#F8EBF6"/>
<path d="M198.167 800.993H191.168L192.441 804.175C192.441 804.175 193.348 806.559 195.622 807.992C196.951 808.831 197.955 809.265 199.44 809.265C200.925 809.265 205.421 808.501 208.984 807.992C213.438 807.356 215.347 807.992 215.984 807.992C216.62 807.992 218.529 811.174 218.529 812.446C218.529 813.083 219.165 813.719 219.801 813.083C220.808 812.077 220.438 808.629 221.074 807.992C221.71 807.356 222.983 807.992 224.256 808.629C225.274 809.138 226.801 810.538 227.437 811.174C227.437 811.174 228.073 811.81 228.71 811.174C229.346 810.538 226.037 806.465 225.528 805.447C224.892 804.175 219.801 800.993 217.256 800.993H205.803L203.894 797.812C203.894 797.812 200.712 800.993 198.167 800.993Z" fill="#F0B89E"/>
<path d="M194.165 920.219L190.327 923.178" stroke="#F7F0DD" stroke-linecap="round" stroke-linejoin="round"/>
<path d="M154.267 764.893C154.267 767.947 151.297 773.377 149.812 775.71L153.63 773.165C155.157 772.147 156.388 771.892 156.812 771.892C157.236 771.892 158.593 772.401 160.63 774.437C163.175 776.983 162.538 778.255 162.538 778.891C162.538 779.528 158.721 778.891 154.267 778.891L156.812 781.437C159.357 781.861 164.006 782.815 166.356 779.995C169.538 776.177 163.811 769.983 161.266 761.075H162.538V754.712C163.599 754.5 166.738 753.567 170.81 751.531C174.883 749.495 178.87 748.986 180.355 748.985C181.84 748.985 185.445 749.494 187.99 751.531C189.009 749.495 189.899 750.725 190.536 750.725C190.324 748.392 190.027 741.223 187.99 738.168C185.445 734.351 179.719 731.806 175.264 731.169C170.81 730.533 168.901 731.806 164.447 733.078C160.884 734.096 157.872 738.169 156.812 740.077C155.963 742.623 154.267 748.477 154.267 751.531V764.893Z" fill="#A1602D"/>
<path d="M166.99 776.178L166.354 779.998C166.354 779.998 166.354 781.907 170.808 785.725C175.262 789.543 181.625 785.723 181.625 785.723L183.534 773.633L185.443 771.726C186.504 770.242 188.752 767.018 189.261 766C189.77 764.982 189.473 761.758 189.261 760.273H190.533C191.17 760.273 191.17 757.091 191.17 755.819V752.001C191.17 751.363 191.17 750.092 189.897 750.092H189.894C189.385 750.092 188.623 750.092 187.988 751.363C187.988 751.363 184.17 748.82 181.625 748.817C179.08 748.815 178.366 748.904 173.99 750.092C169.892 751.205 162.536 754.546 162.536 754.546L162.536 760.907C162.112 760.271 159.991 758.998 159.354 758.362C158.718 757.726 157.26 757.913 156.809 758.362C156.173 758.996 156.173 759.637 156.809 762.182C157.445 764.727 158.718 766.636 160.627 767.909C162.536 769.181 162.536 769.817 163.808 771.09L163.812 771.094C164.83 772.112 166.355 773.636 166.99 776.178Z" fill="#F0B89E"/>
<path d="M116.086 847.443L151.08 857.627L145.989 951.163L114.784 940.346L116.086 847.443Z" fill="#F7F0DD"/>
<path d="M155.537 858.896L149.81 856.987L145.992 951.16L151.083 948.614L155.537 858.896Z" fill="#C27934"/>
<path d="M172.316 759.059C172.386 759.759 171.875 760.382 171.175 760.452C170.476 760.522 169.853 760.012 169.783 759.313C169.713 758.613 170.223 757.99 170.923 757.92C171.622 757.85 172.245 758.36 172.316 759.059Z" fill="#381F12"/>
<path d="M183.679 757.728C183.749 758.428 183.239 759.051 182.539 759.121C181.84 759.191 181.216 758.681 181.146 757.982C181.076 757.282 181.586 756.659 182.286 756.589C182.986 756.518 183.61 757.029 183.679 757.728Z" fill="#381F12"/>
<path d="M171.166 755.716L168.452 757.635C167.933 756.852 168.119 755.788 168.869 755.258C169.619 754.728 170.646 754.933 171.166 755.716Z" fill="#381F12"/>
<path d="M184.231 755.35L181.002 754.466C181.215 753.557 182.11 753.02 183.002 753.264C183.893 753.507 184.444 754.442 184.231 755.35Z" fill="#381F12"/>
<path d="M174.79 767.337C175.42 768.797 177.69 769.175 178.758 768.02C179.099 767.65 179.704 768.148 179.361 768.519C177.881 770.121 174.921 769.62 174.057 767.615C173.857 767.151 174.591 766.875 174.79 767.337Z" fill="#381F12"/>
<path d="M177.243 758.309C177.193 758.925 177.139 759.578 177.367 760.167C177.526 760.579 177.885 760.963 178.332 761.049C178.774 761.135 179.171 760.794 179.615 760.877C179.888 760.928 180.082 761.149 180.112 761.423C180.144 761.709 180.03 762.024 179.938 762.289C179.736 762.871 179.391 763.406 178.952 763.835C178.847 763.937 178.691 763.972 178.57 763.872C178.466 763.786 178.428 763.593 178.534 763.49C178.91 763.122 179.205 762.688 179.396 762.196C179.44 762.083 179.478 761.969 179.509 761.852C179.537 761.744 179.606 761.57 179.569 761.46C179.551 761.407 179.546 761.41 179.493 761.407C179.419 761.401 179.317 761.425 179.236 761.448C179.013 761.51 178.793 761.599 178.56 761.607C178.309 761.614 178.059 761.558 177.833 761.445C177.371 761.215 177.015 760.791 176.841 760.306C176.6 759.635 176.653 758.912 176.709 758.214C176.721 758.068 176.889 757.97 177.024 757.994C177.179 758.023 177.255 758.163 177.243 758.309Z" fill="#381F12"/>
<path d="M179.856 777.5C181.803 776.617 183.533 773.633 183.533 773.633C183.533 773.633 180.454 776.766 178.442 776.814C176.431 776.862 173.988 776.232 173.988 776.232C173.988 776.232 176.975 778.806 179.856 777.5Z" fill="#D8A65F"/>
<path d="M833.235 1504.6L797.734 1339.7L807.108 1354.96L839.378 1504.54L833.235 1504.6Z" fill="#938CCB"/>
<path d="M808.728 1338.32C807.457 1333.36 805.656 1329.1 805.656 1326.64L811.804 1334.64C812.232 1336.48 813.094 1340.53 813.109 1342C813.124 1343.48 811.502 1345.09 810.69 1345.71C810.479 1345.1 809.834 1342.63 808.728 1338.32Z" fill="#938CCB"/>
<path d="M803.199 1317.43L792.14 1320.5C791.731 1320.91 791.157 1322.71 792.14 1326.64C793.123 1330.57 793.779 1331.97 793.983 1332.17L800.127 1347.53L803.199 1357.98C803.199 1360.64 803.445 1366.45 804.428 1368.42C805.41 1370.39 806.475 1370.47 806.885 1370.26C806.885 1372.92 807.131 1378.25 808.114 1378.25C809.097 1378.25 810.161 1376.61 810.571 1375.79C810.981 1376.61 812.046 1378.49 813.028 1379.48C814.011 1380.46 816.715 1379.07 817.943 1378.25C818.762 1377.43 820.524 1375.3 821.015 1373.33C821.629 1370.88 820.401 1368.42 819.172 1365.96C817.943 1363.5 816.1 1361.66 814.257 1359.82C812.414 1357.98 813.028 1355.52 811.8 1352.45C810.571 1349.37 810.571 1346.3 810.571 1344.46C810.571 1342.98 808.933 1336.88 808.114 1334.02C807.295 1331.56 805.41 1326.03 804.428 1323.57C803.445 1321.11 803.199 1318.45 803.199 1317.43Z" fill="#824F4F"/>
<path d="M707.358 1343.23C707.85 1339.3 711.249 1326.03 712.888 1319.88H719.032L725.176 1324.19L723.947 1333.4L719.032 1346.3C717.803 1349.17 715.223 1355.15 714.732 1356.13C714.117 1357.36 712.888 1362.28 712.888 1364.73C712.888 1366.7 711.25 1370.88 710.431 1372.72C708.997 1373.54 705.638 1375.05 703.673 1374.56C701.217 1373.95 699.372 1372.1 698.143 1370.88C696.914 1369.65 697.529 1365.96 698.143 1363.5C698.757 1361.05 704.901 1356.75 706.13 1354.9C707.358 1353.06 706.744 1348.15 707.358 1343.23Z" fill="#824F4F"/>
<path d="M735.004 1437.84L737.461 1401.59L757.121 1399.75V1423.1C757.121 1426.54 755.482 1434.36 754.663 1437.84C753.23 1442.55 750.363 1452.71 750.363 1455.66V1466.1C748.929 1466.51 745.202 1467.7 741.762 1469.17C738.321 1470.65 735.823 1469.79 735.004 1469.17V1460.57V1437.84Z" fill="#824F4F"/>
<path d="M772.48 1428.01C771.988 1424.57 769.203 1407.74 768.793 1399.75H792.753V1435.38C792.753 1438.46 790.91 1449.51 790.91 1452.59V1469.17C789.067 1470.4 784.767 1472.86 782.309 1472.86C779.852 1472.86 778.009 1470.4 777.394 1469.17C776.985 1463.03 775.92 1450.13 774.937 1447.67C773.708 1444.6 773.094 1432.31 772.48 1428.01Z" fill="#824F4F"/>
<path d="M731.929 1400.98C730.455 1400 732.543 1364.94 733.772 1347.53H792.752V1400.98C789.27 1402.41 781.448 1404.05 778.007 1404.05C774.567 1404.05 767.973 1403.64 765.72 1402.82L765.125 1372.47C765.114 1371.93 764.67 1371.49 764.125 1371.49H762.439C761.88 1371.49 761.429 1371.95 761.44 1372.51L762.034 1402.82H748.518C744.218 1402.82 733.772 1402.21 731.929 1400.98Z" fill="#A1602D"/>
<path d="M742.375 1353.67C736.968 1352.69 732.75 1349.99 731.316 1348.76L733.774 1337.7L792.138 1341.39L794.595 1349.99C792.138 1350.81 785.871 1352.69 780.465 1353.67C775.059 1354.66 766.744 1355.31 763.263 1355.52C758.553 1355.31 747.781 1354.66 742.375 1353.67Z" fill="#7B6EB9"/>
<path d="M710.432 1315.58C709.94 1317.06 709.408 1321.11 709.203 1322.96H710.432H711.661L714.118 1321.11C715.347 1321.11 718.418 1321.48 720.876 1322.96C723.333 1324.43 724.357 1326.85 724.562 1327.87C725.381 1328.07 727.265 1328.36 728.248 1327.87C729.231 1327.38 730.706 1323.16 731.32 1321.11C731.115 1323.57 730.828 1329.34 731.32 1332.78C731.811 1336.23 732.958 1338.11 733.777 1338.93C735.62 1340.16 735.989 1341.26 742.378 1343.23C748.768 1345.19 761.423 1344.87 763.266 1344.46C769 1344.46 781.574 1344.21 785.998 1343.23C790.421 1342.25 791.527 1341.18 791.527 1340.77C791.936 1339.75 792.755 1337.33 792.755 1335.86C792.755 1334.38 790.708 1327.87 789.684 1324.8C789.684 1324.18 790.667 1322.59 794.599 1321.11C798.53 1319.64 801.971 1319.27 803.199 1319.27L808.114 1319.88C808.319 1318.45 808.606 1314.97 808.114 1312.51C807.5 1309.44 802.585 1298.38 801.356 1294.69C800.373 1291.75 796.442 1283.64 794.599 1279.95C793.165 1278.11 789.684 1274.05 787.226 1272.58C784.154 1270.73 778.625 1270.73 775.553 1270.73C773.096 1270.73 768.796 1268.28 766.953 1267.05H746.064C740.74 1269.71 729.477 1275.53 727.019 1277.49C724.562 1279.46 722.719 1282 722.105 1283.02C721.285 1284.46 719.524 1287.69 719.033 1289.17C718.418 1291.01 717.19 1301.45 715.347 1304.52C713.504 1307.6 711.046 1313.74 710.432 1315.58Z" fill="#E7CC99"/>
<path d="M746.062 1261.52H766.951V1270.74C766.951 1270.74 763.264 1276.27 755.278 1275.65C747.291 1275.04 746.062 1269.51 746.062 1269.51V1261.52Z" fill="#704242"/>
<path d="M773.102 1244.93C773.102 1257.49 765.126 1267.66 755.286 1267.66C745.446 1267.66 737.47 1257.49 737.47 1244.93C728.86 1230.19 745.446 1222.2 755.286 1222.2C765.126 1222.2 778.008 1230.19 773.102 1244.93Z" fill="#824F4F"/>
<ellipse cx="736.849" cy="1247.39" rx="3.07178" ry="5.5292" fill="#824F4F"/>
<ellipse cx="773.708" cy="1247.39" rx="3.07178" ry="5.5292" fill="#824F4F"/>
<path d="M783.881 1228.81C783.685 1228.36 783.406 1227.88 783.067 1227.42C784.686 1226.48 783.755 1223.12 782.669 1221.94C781.672 1220.86 780.517 1219.99 779.165 1219.44C779.594 1218.22 779.4 1216.74 778.51 1215.48C777.492 1214.04 775.485 1213.07 773.646 1213.2C773.486 1212.51 773.202 1211.87 772.838 1211.43C771.799 1210.17 769.523 1208.93 767.754 1209.39C767.303 1208.72 766.74 1208.12 766.15 1207.65C764.173 1206.09 761.184 1205.53 758.679 1206.24C758.036 1205.78 757.369 1205.43 756.81 1205.25C756.16 1205.04 755.413 1204.96 754.665 1205.02C753.917 1204.96 753.17 1205.04 752.521 1205.25C751.961 1205.43 751.294 1205.78 750.651 1206.24C748.145 1205.53 745.158 1206.09 743.18 1207.65C742.59 1208.12 742.027 1208.72 741.576 1209.39C739.807 1208.93 737.531 1210.17 736.493 1211.43C736.129 1211.88 735.844 1212.51 735.684 1213.2C733.845 1213.07 731.838 1214.04 730.82 1215.48C729.93 1216.74 729.736 1218.22 730.165 1219.44C728.813 1219.99 727.658 1220.86 726.661 1221.94C725.575 1223.12 724.644 1226.48 726.263 1227.42C725.924 1227.88 725.645 1228.36 725.449 1228.81C724.678 1230.59 725.616 1232.84 727.312 1233.17C726.857 1234.17 726.62 1235.29 726.638 1236.05C726.687 1238.22 728.348 1240.29 730.348 1240.4C730.337 1240.49 730.33 1240.56 730.329 1240.62C730.291 1242.8 732.432 1245.66 734.729 1246.06C734.739 1246.07 734.744 1246.08 734.756 1246.09C734.774 1246.1 734.788 1246.1 734.806 1246.11C734.779 1246.43 734.791 1246.74 734.81 1246.98C734.863 1247.6 735.098 1249.24 735.963 1249.23C736.774 1249.23 736.785 1247.74 736.806 1247.26C736.831 1246.66 736.749 1246 736.563 1245.37C736.718 1244.93 736.794 1244.42 736.827 1244C736.929 1242.74 736.758 1241.28 736.33 1240.09C736.19 1239.7 735.993 1239.24 735.769 1238.89C735.751 1238.86 735.724 1238.83 735.7 1238.8C735.981 1238.4 736.212 1237.94 736.425 1237.52C736.994 1236.37 737.355 1235.1 737.025 1233.99C737.655 1233.82 738.23 1233.5 738.715 1232.9C739.182 1232.32 739.523 1231.73 739.713 1231.03C740.768 1230.73 741.795 1230.23 742.18 1229.97C742.887 1229.49 743.564 1228.78 744.01 1227.98C744.335 1228.23 744.706 1228.46 745.127 1228.68C747.124 1229.69 749.718 1229.53 751.857 1228.59C753.274 1229.63 755.773 1229.55 757.129 1228.43C759.327 1229.51 762.098 1229.74 764.204 1228.68C764.625 1228.46 764.996 1228.23 765.32 1227.98C765.766 1228.78 766.444 1229.49 767.15 1229.97C767.535 1230.23 768.562 1230.73 769.617 1231.03C769.807 1231.73 770.148 1232.32 770.616 1232.9C771.1 1233.5 771.676 1233.82 772.306 1233.99C771.976 1235.1 772.336 1236.37 772.906 1237.52C773.118 1237.94 773.349 1238.4 773.631 1238.8C773.607 1238.83 773.579 1238.86 773.561 1238.89C773.338 1239.24 773.141 1239.7 773.001 1240.09C772.572 1241.28 772.401 1242.74 772.503 1244C772.537 1244.42 772.613 1244.93 772.768 1245.37C772.582 1246 772.499 1246.66 772.525 1247.26C772.546 1247.75 772.557 1249.23 773.367 1249.23C774.232 1249.24 774.467 1247.6 774.52 1246.98C774.54 1246.74 774.552 1246.43 774.525 1246.11C774.542 1246.1 774.557 1246.1 774.574 1246.09C774.587 1246.08 774.592 1246.07 774.601 1246.06C776.898 1245.66 779.04 1242.8 779.001 1240.62C779 1240.56 778.993 1240.49 778.982 1240.4C780.982 1240.29 782.643 1238.22 782.693 1236.05C782.709 1235.29 782.473 1234.17 782.018 1233.17C783.714 1232.84 784.652 1230.59 783.881 1228.81Z" fill="#432C17"/>
<path d="M749.491 1257.69C749.491 1257.69 753.644 1258.3 760.216 1257.59C760.216 1257.59 755.966 1259.83 749.491 1257.69Z" fill="#461F10"/>
<path d="M752.002 1259.77C752.002 1259.77 753.517 1261.74 756.783 1260.23C756.783 1260.23 754.047 1260.61 752.002 1259.77Z" fill="#461F10"/>
<path opacity="0.5" d="M746.003 1240.65C746.003 1240.65 743.832 1240.74 743.047 1243.4C742.264 1246.06 743.168 1247.09 743.168 1247.09C743.168 1247.09 741.48 1247 739.641 1247.82C739.641 1247.82 742.203 1246.79 747.57 1248.58L746.998 1248.05C746.998 1248.05 749.349 1247.93 749.741 1245.69C750.133 1243.44 749.56 1240.6 746.003 1240.65Z" fill="#B88976"/>
<path d="M749.504 1244.21C749.504 1244.21 749.133 1240.72 746.117 1240.81C743.1 1240.9 741.768 1246.49 744.004 1247.43C746.24 1248.38 749.949 1248.04 749.504 1244.21Z" fill="white"/>
<path opacity="0.5" d="M748.122 1242.03C748.741 1242.66 749.216 1243.43 749.501 1244.24C749.5 1244.23 749.5 1244.22 749.5 1244.21C749.5 1244.21 749.129 1240.72 746.112 1240.81C745.353 1240.83 744.699 1241.21 744.184 1241.76C745.384 1241.05 746.989 1240.89 748.122 1242.03Z" fill="#D5D7D8"/>
<path d="M748.589 1244.65C748.63 1246.33 747.694 1247.71 746.498 1247.71C745.302 1247.72 744.3 1246.36 744.259 1244.68C744.219 1242.99 745.156 1241.62 746.351 1241.61C747.547 1241.6 748.549 1242.96 748.589 1244.65Z" fill="#462D1B"/>
<path d="M748.207 1244.68C748.24 1246.07 747.47 1247.2 746.487 1247.21C745.502 1247.21 744.678 1246.1 744.645 1244.71C744.614 1243.32 745.383 1242.19 746.366 1242.19C747.349 1242.18 748.174 1243.3 748.207 1244.68Z" fill="#63442F"/>
<path d="M747.592 1244.69C747.613 1245.56 747.131 1246.27 746.514 1246.27C745.898 1246.28 745.381 1245.58 745.36 1244.71C745.339 1243.84 745.823 1243.13 746.439 1243.13C747.056 1243.12 747.572 1243.83 747.592 1244.69Z" fill="#170000"/>
<path d="M746.233 1243.58C746.085 1243.95 745.749 1244.21 745.481 1244.14C745.213 1244.08 745.117 1243.72 745.265 1243.34C745.414 1242.97 745.749 1242.71 746.018 1242.78C746.285 1242.84 746.382 1243.2 746.233 1243.58Z" fill="white"/>
<path d="M745.323 1244.89C745.325 1245.07 745.225 1245.21 745.098 1245.21C744.972 1245.21 744.869 1245.07 744.867 1244.89C744.864 1244.72 744.965 1244.57 745.092 1244.57C745.216 1244.57 745.322 1244.72 745.323 1244.89Z" fill="white"/>
<path opacity="0.5" d="M763.317 1240.65C763.317 1240.65 765.488 1240.74 766.273 1243.4C767.057 1246.06 766.152 1247.09 766.152 1247.09C766.152 1247.09 767.841 1247 769.679 1247.82C769.679 1247.82 767.116 1246.79 761.75 1248.58L762.322 1248.05C762.322 1248.05 759.971 1247.93 759.579 1245.69C759.187 1243.44 759.76 1240.6 763.317 1240.65Z" fill="#B88976"/>
<path d="M759.818 1244.21C759.818 1244.21 760.189 1240.72 763.204 1240.81C766.222 1240.9 767.553 1246.49 765.317 1247.43C763.081 1248.38 759.373 1248.04 759.818 1244.21Z" fill="white"/>
<path opacity="0.5" d="M761.191 1242.03C760.573 1242.66 760.097 1243.43 759.812 1244.24C759.813 1244.23 759.813 1244.22 759.814 1244.21C759.814 1244.21 760.185 1240.72 763.201 1240.81C763.962 1240.83 764.614 1241.21 765.131 1241.77C763.929 1241.05 762.324 1240.89 761.191 1242.03Z" fill="#D5D7D8"/>
<path d="M765.081 1244.65C765.122 1246.33 764.186 1247.71 762.989 1247.71C761.794 1247.72 760.792 1246.36 760.751 1244.68C760.711 1242.99 761.648 1241.62 762.843 1241.61C764.038 1241.6 765.041 1242.96 765.081 1244.65Z" fill="#462D1B"/>
<path d="M764.699 1244.68C764.732 1246.07 763.962 1247.2 762.979 1247.21C761.995 1247.21 761.17 1246.1 761.138 1244.71C761.106 1243.32 761.875 1242.19 762.858 1242.19C763.842 1242.18 764.667 1243.3 764.699 1244.68Z" fill="#63442F"/>
<path d="M764.084 1244.69C764.105 1245.56 763.623 1246.27 763.006 1246.27C762.391 1246.28 761.873 1245.58 761.852 1244.71C761.831 1243.84 762.315 1243.13 762.931 1243.13C763.548 1243.12 764.064 1243.83 764.084 1244.69Z" fill="#170000"/>
<path d="M762.725 1243.58C762.577 1243.95 762.24 1244.21 761.973 1244.14C761.705 1244.08 761.609 1243.72 761.757 1243.34C761.906 1242.97 762.242 1242.71 762.51 1242.78C762.777 1242.84 762.874 1243.2 762.725 1243.58Z" fill="white"/>
<path d="M761.807 1244.89C761.81 1245.07 761.709 1245.21 761.583 1245.21C761.457 1245.21 761.353 1245.07 761.352 1244.89C761.349 1244.72 761.45 1244.57 761.576 1244.57C761.701 1244.57 761.806 1244.72 761.807 1244.89Z" fill="white"/>
<path d="M766.355 1240.27C766.312 1240.27 766.272 1240.26 766.235 1240.25C765.271 1240.04 764.442 1239.78 763.432 1239.97C761.825 1240.27 759.087 1241.64 758.908 1241.1C758.73 1240.57 758.374 1239.73 759.504 1239.38C760.634 1239.02 763.84 1237.75 765.581 1238.33C766.208 1238.54 766.917 1239.01 767.283 1239.56C767.765 1240.3 766.875 1240.35 766.355 1240.27Z" fill="#461F10"/>
<path opacity="0.7" d="M764.152 1239.34C762.873 1239.45 761.57 1239.84 760.347 1240.22C759.8 1240.39 759.277 1240.8 758.879 1240.24C758.821 1240.16 758.784 1240.06 758.763 1239.96C758.623 1240.33 758.798 1240.77 758.907 1241.1C759.086 1241.64 761.824 1240.27 763.43 1239.97C764.44 1239.78 765.27 1240.04 766.233 1240.25C766.271 1240.26 766.311 1240.26 766.354 1240.27C766.653 1240.32 767.073 1240.32 767.286 1240.17C766.242 1239.85 765.297 1239.24 764.152 1239.34Z" fill="#461F10"/>
<path d="M742.996 1240.27C743.039 1240.27 743.08 1240.26 743.117 1240.25C744.081 1240.04 744.909 1239.78 745.92 1239.97C747.527 1240.27 750.264 1241.64 750.442 1241.1C750.621 1240.57 750.978 1239.73 749.848 1239.38C748.718 1239.02 745.512 1237.75 743.771 1238.33C743.144 1238.54 742.433 1239.01 742.068 1239.56C741.587 1240.3 742.476 1240.35 742.996 1240.27Z" fill="#461F10"/>
<path opacity="0.7" d="M747.647 1239.95C746.47 1239.63 745.293 1239.38 744.077 1239.63C743.377 1239.77 742.689 1239.97 741.988 1240.1C742.158 1240.32 742.653 1240.32 742.994 1240.27C743.037 1240.26 743.078 1240.26 743.115 1240.25C744.079 1240.04 744.907 1239.78 745.918 1239.97C747.525 1240.27 750.262 1241.64 750.44 1241.1C750.558 1240.75 750.75 1240.27 750.548 1239.88C749.699 1240.78 748.857 1240.27 747.647 1239.95Z" fill="#461F10"/>
<path opacity="0.3" d="M750.98 1251.84C751.027 1252.33 751.591 1252.83 752.632 1252.9C754.097 1253.02 756.074 1252.5 755.882 1251.69C754.769 1252.06 751.88 1252.38 750.98 1251.84Z" fill="#B88976"/>
<path d="M754.656 1249.81C753.473 1248.91 751.301 1248.98 751 1250.59C750.738 1252 753.133 1253.41 754.446 1252.76C754.518 1252.72 754.585 1252.57 754.449 1252.59C753.196 1252.74 751.995 1252.08 751.491 1251.05C751.286 1250.64 751.369 1250.22 751.65 1249.85C751.867 1249.56 752.524 1249.56 752.842 1249.53C753.473 1249.49 753.996 1249.71 754.568 1249.9C754.607 1249.91 754.697 1249.85 754.656 1249.81Z" fill="#461F10"/>
<path d="M716.574 1351.83L715.959 1353.06C712.273 1359.2 713.502 1371.49 707.973 1373.95C705.533 1395.24 701.83 1433.19 694.457 1500.5H701.215L716.574 1351.83Z" fill="#938CCB"/>
<path d="M714.116 1339.54C714.116 1338.56 716.574 1331.76 717.803 1328.49L723.332 1333.4C723.741 1334.22 723.946 1335 723.946 1336.47C723.946 1337.95 720.465 1343.84 719.031 1346.92L717.188 1344.46C715.959 1343.23 714.116 1340.53 714.116 1339.54Z" fill="#938CCB"/>
<path d="M705.515 1342.62C705.024 1341.63 707.154 1333.6 707.973 1328.49C708.587 1328.49 709.202 1329.71 709.202 1329.71C709.202 1329.71 709.816 1330.94 709.816 1331.56L707.358 1343.84C706.949 1343.03 706.007 1343.6 705.515 1342.62Z" fill="#938CCB"/>
<path d="M692.428 1502.27L694.583 1495.66C694.718 1495.25 695.101 1494.97 695.534 1494.97H700.83C701.382 1494.97 701.83 1495.42 701.83 1495.97V1502.58C701.83 1503.13 701.382 1503.58 700.83 1503.58H693.378C692.699 1503.58 692.217 1502.91 692.428 1502.27Z" fill="#4A4072"/>
<path d="M711.66 1369.03L712.889 1364.12L715.499 1364.57C716.018 1364.66 716.378 1365.14 716.322 1365.66L716.056 1368.14C716.002 1368.65 715.573 1369.03 715.062 1369.03H711.66Z" fill="#4A4072"/>
<ellipse cx="704.465" cy="1366.64" rx="4.4185" ry="3.43661" transform="rotate(13.3736 704.465 1366.64)" fill="#4A4072"/>
<rect x="699.766" y="1447.06" width="7.21955" height="3.68613" transform="rotate(6.12381 699.766 1447.06)" fill="#4A4072"/>
<path d="M841.809 1503.48L838.894 1497.18C838.713 1496.79 838.299 1496.56 837.869 1496.61L832.61 1497.23C832.062 1497.29 831.669 1497.79 831.734 1498.34L832.508 1504.89C832.573 1505.44 833.07 1505.83 833.618 1505.77L841.018 1504.9C841.694 1504.82 842.094 1504.1 841.809 1503.48Z" fill="#4A4072"/>
<rect width="6.78734" height="3.68613" transform="matrix(-0.974932 0.222504 0.222504 0.974932 828.051 1449.51)" fill="#4A4072"/>
<path d="M731.429 1320.91L733.742 1310.67" stroke="#D8A65F" stroke-linecap="round"/>
<path d="M789.119 1323.31L782.03 1309.44" stroke="#D8A65F" stroke-linecap="round"/>
<path d="M760.176 1410.81V1381.93L762.019 1378.86V1408.97L760.176 1410.81Z" fill="#7B6EB9"/>
<path d="M729.813 1349.27C730.39 1346.83 733.075 1342 733.077 1343.85L731.934 1376.39C731.79 1380.49 731.701 1390.03 732.493 1395.47C733.286 1400.91 734.977 1406.42 735.724 1408.49L732.488 1413.27C729.813 1402.82 727.175 1389.92 727.636 1376.24C727.884 1368.87 729.091 1352.32 729.813 1349.27Z" fill="#7B6EB9"/>
<path d="M730.074 1379.48V1367.19C733.351 1368.83 741.01 1372.47 745.433 1373.95C749.856 1375.42 758.335 1375.79 762.021 1375.79V1386.23C758.744 1386.23 750.839 1385.99 745.433 1385C740.027 1384.02 732.941 1380.91 730.074 1379.48Z" fill="#7B6EB9"/>
<path d="M746.659 1409.58C739.778 1409.58 733.962 1406.3 731.914 1404.66L733.143 1426.78C735.6 1428.01 740.761 1430.59 746.659 1431.08C752.556 1431.57 758.127 1430.06 760.789 1429.24L762.017 1406.51C759.765 1407.53 753.539 1409.58 746.659 1409.58Z" fill="#7B6EB9"/>
<path d="M765.725 1407.12L764.496 1386.24L765.725 1380.71L766.954 1407.12H765.725Z" fill="#7B6EB9"/>
<path d="M794.6 1376.4L793.371 1343.84L799.515 1345.69C799.31 1350.4 798.9 1360.19 798.9 1361.66C798.9 1363.13 798.081 1372.1 797.672 1376.4L794.6 1405.28H793.371L794.6 1376.4Z" fill="#7B6EB9"/>
<path d="M779.853 1407.74C774.447 1408.72 768.18 1407.33 765.723 1406.51L768.18 1428.01C770.023 1429.24 772.972 1431.7 779.853 1431.7C786.734 1431.7 792.55 1428.01 794.597 1426.17V1400.98C791.935 1402.82 785.259 1406.75 779.853 1407.74Z" fill="#7B6EB9"/>
<path d="M764.496 1386.23V1375.79C768.387 1375.79 777.275 1375.54 781.698 1374.56C786.121 1373.58 792.142 1368.83 794.6 1366.58V1378.25C792.142 1380.5 785.507 1385.25 778.626 1386.23C771.745 1387.22 766.339 1386.64 764.496 1386.23Z" fill="#7B6EB9"/>
<path d="M799.497 1332.93C798.499 1331.46 795.766 1328.66 794.525 1327.45L790.896 1333.01C789.929 1334.5 789.874 1338.53 790.3 1340.16C790.526 1342.2 792.265 1346.52 794.748 1348.95C797.231 1351.38 799.719 1350.82 800.74 1350.6L799.497 1345.07C800.709 1343.42 802.157 1340.64 802.639 1339.65C803.24 1338.42 800.745 1334.76 799.497 1332.93L799.497 1332.93Z" fill="#938CCB"/>
<path d="M810.57 1375.18V1368.42C811.594 1368.01 813.888 1367.19 814.871 1367.19C816.1 1367.19 817.328 1368.42 817.943 1369.65C818.434 1370.63 817.943 1372.11 817.328 1372.72C816.714 1373.33 810.57 1375.18 810.57 1375.18Z" fill="#4A4072"/>
<path d="M806.885 1370.26L804.902 1369.65L804.669 1374.47C804.786 1374.97 805.264 1376.03 806.232 1376.2C807.199 1376.37 807.499 1375.79 807.499 1374.56L806.885 1370.26Z" fill="#4A4072"/>
<path d="M775.033 1468.36C775.525 1466.88 776.78 1466.31 777.395 1466.1C777.804 1466.31 778.842 1466.76 779.334 1467.74C779.948 1468.97 781.177 1470.2 782.406 1469.59C783.634 1468.97 784.863 1468.36 787.321 1468.36C789.778 1468.36 790.296 1466.71 790.911 1466.71C791.525 1466.71 794.078 1469.59 794.078 1470.81C794.078 1472.04 796.536 1481.87 797.765 1483.1C798.993 1484.33 802.679 1492.32 803.908 1494.16C804.891 1495.63 804.318 1497.64 803.908 1498.46C803.499 1499.69 802.188 1502.39 800.222 1503.37C797.765 1504.6 792.235 1503.99 789.778 1503.37C787.321 1502.76 781.177 1497.85 779.948 1496.62C779.139 1495.81 776.61 1493.56 774.827 1491.99C774.178 1491.41 773.805 1490.59 773.805 1489.73V1480.64C774.009 1477.16 774.542 1469.83 775.033 1468.36Z" fill="#4A4072"/>
<path d="M732.026 1478.19C732.517 1471.8 733.869 1465.7 734.483 1463.44C735.303 1463.85 737.433 1464.67 739.399 1464.67C741.856 1464.67 743.7 1465.29 746.771 1464.67C749.843 1464.06 749.843 1462.21 751.072 1463.44C752.3 1464.67 753.529 1469.59 753.529 1472.04V1483.72C753.939 1489.25 754.512 1500.55 753.529 1501.53C752.3 1502.76 748.614 1504.6 741.856 1505.22C735.099 1505.83 733.255 1501.53 732.026 1499.08C730.797 1496.62 731.411 1486.17 732.026 1478.19Z" fill="#4A4072"/>
<path d="M738.691 1474.09H746.678M738.691 1477.77H746.678M738.691 1481.46H746.678" stroke="#AEABDA" stroke-linecap="round" stroke-linejoin="round"/>
<path d="M785.383 1476.49L793.001 1474.09M786.489 1480L794.108 1477.6M787.596 1483.52L795.214 1481.12" stroke="#AEABDA" stroke-linecap="round" stroke-linejoin="round"/>
<path d="M929.96 1277.31C928.053 1283.03 929.96 1291.29 922.967 1398.08L919.789 1438.77L994.798 1444.49H1020.86C1023.19 1443.22 1027.85 1440.29 1027.85 1438.77C1027.85 1436.86 1028.49 1427.32 1027.85 1423.51C1027.34 1420.46 1025.1 1418 1024.04 1417.15C1020.86 1415.25 1012.09 1411.05 1002.43 1409.52C992.764 1408 977.635 1399.14 971.278 1394.9C970.431 1392.15 968.608 1385.24 968.1 1379.65C967.464 1372.66 970.007 1354.86 971.278 1346.59C972.295 1339.98 978.059 1315.02 980.813 1303.37L984.627 1286.21C985.051 1283.24 985.644 1276.42 984.627 1272.86C983.61 1269.3 963.862 1268.83 954.115 1269.04H936.316C934.833 1269.89 931.485 1272.73 929.96 1277.31Z" fill="#594C8B"/>
<path d="M921.696 1402.27C921.188 1405.32 918.518 1409.89 917.247 1411.8C914.068 1416.89 908.602 1429.35 912.161 1438.5C915.721 1447.65 929.324 1447.82 935.681 1446.76H973.186H1013.87C1020.86 1446.76 1023.4 1445.49 1025.31 1444.22C1027.2 1442.96 1028.28 1439.56 1027.85 1438.5L1024.04 1442.31C1021.5 1444.86 1014.51 1444.22 1010.69 1443.59C1006.73 1442.92 1004.33 1439.77 1003.06 1437.23C1001.79 1434.69 1001.79 1432.14 1001.15 1429.6C1000.87 1428.48 1000.19 1427.04 999.496 1425.77C998.559 1424.06 997.755 1422.27 997.323 1420.37L994.798 1409.26C986.323 1403.96 969.117 1392.86 968.1 1390.82C966.829 1388.28 965.558 1386.38 963.015 1383.83C960.472 1381.29 954.116 1380.02 949.666 1378.75C945.216 1377.48 931.867 1379.38 929.324 1381.29C926.782 1383.2 924.875 1388.28 924.239 1390.82C923.603 1393.37 922.332 1398.45 921.696 1402.27Z" fill="#CACAE8"/>
<path d="M978.033 1423.3L978.841 1419.26C978.916 1418.89 979.381 1418.75 979.653 1419.02C979.653 1419.02 979.352 1420.22 979.164 1422.01C978.974 1423.82 978.781 1425.64 978.738 1427.45C978.698 1429.19 979.017 1429.82 979.017 1429.82L978.382 1430.46C978.031 1430.46 977.746 1430.17 977.746 1429.82V1426.2C977.746 1425.23 977.842 1424.26 978.033 1423.3Z" fill="#E2E2F2"/>
<path d="M926.146 1279.21C923.604 1279.72 923.814 1338.12 924.874 1368.84L929.962 1375.83C933.776 1379.65 933.776 1382.19 933.776 1384.73V1384.73C933.776 1386.15 932.544 1390.52 931.366 1394.34C930.47 1397.24 929.996 1400.31 930.844 1403.23C931.452 1405.32 932.396 1407.51 933.776 1408.89C936.954 1412.07 945.218 1412.07 949.032 1411.43C952.846 1410.8 953.482 1405.07 953.482 1402.53C953.482 1399.99 952.846 1388.55 953.482 1382.19C953.901 1378 955.211 1369.21 956.134 1363.28C956.479 1361.07 957.175 1358.93 958.151 1356.91C961.108 1350.8 965.338 1341.55 966.195 1337.69C967.212 1333.12 970.857 1313.33 972.552 1304L976.446 1287.87C976.813 1286.35 976.917 1284.76 976.457 1283.27C975.538 1280.28 973.545 1276.33 970.009 1274.76C964.288 1272.22 954.117 1274.13 949.032 1274.76C943.947 1275.4 929.325 1278.58 926.146 1279.21Z" fill="#CACAE8" stroke="#AEABDA" stroke-width="0.8"/>
<rect x="938.623" y="1398.48" width="11.9134" height="28.4408" rx="5.95669" fill="#CACAE8" stroke="#AEABDA" stroke-width="0.8"/>
<circle cx="945.328" cy="1406.3" r="2.54267" fill="#E2E2F2"/>
<circle cx="945.328" cy="1420.29" r="2.54267" fill="#E2E2F2"/>
<path d="M980.361 1420.75L981.963 1402.66C982.023 1401.98 982.742 1401.56 983.369 1401.84L994.211 1406.72C994.569 1406.88 994.8 1407.24 994.8 1407.63V1424.66C994.8 1425.33 994.15 1425.81 993.507 1425.61L981.063 1421.8C980.612 1421.66 980.319 1421.22 980.361 1420.75Z" fill="#EFEFF8"/>
<path d="M962.382 1412.07C963.235 1410.79 965.638 1406.44 967.266 1403.44C967.824 1402.42 968.255 1401.33 968.556 1400.2L970.281 1393.73C970.459 1393.06 971.242 1392.77 971.812 1393.16L982.149 1400.23C982.494 1400.47 982.656 1400.89 982.553 1401.3C981.846 1404.09 980.48 1409.26 979.545 1412.07C978.721 1414.54 976.455 1418.84 974.834 1421.74C974.287 1422.72 973.038 1423.03 972.082 1422.45L964.829 1418.01C963.23 1417.04 961.688 1415.6 961.834 1413.73C961.878 1413.16 962.038 1412.58 962.382 1412.07Z" fill="#EFEFF8"/>
<path d="M975.246 1330.63L981.097 1304.72C981.202 1304.26 980.975 1303.79 980.539 1303.6C964.068 1296.47 933.378 1293.4 928.577 1305.32C928.551 1305.38 928.532 1305.46 928.521 1305.53C925.683 1324.05 957.273 1330.44 974.234 1331.4C974.719 1331.43 975.139 1331.1 975.246 1330.63Z" fill="#EFEFF8"/>
<path d="M976.57 1438.09C977.744 1434.27 979.014 1429.19 979.65 1427.28L994.271 1433L986.106 1444.44C984.735 1446.35 981.656 1446.73 979.113 1445.72C975.935 1444.44 975.063 1442.99 976.57 1438.09Z" fill="#EFEFF8"/>
<path d="M949.865 1431.1C951.391 1428.41 955.708 1423.26 958.039 1420.92L970.117 1430.46L959.882 1438.42C959.081 1439.05 958.228 1439.62 957.24 1439.85C955.179 1440.35 951.733 1440.51 949.865 1438.09C948.128 1435.84 949.143 1432.37 949.865 1431.1Z" fill="#EFEFF8"/>
<circle cx="954.96" cy="1434.27" r="3.17834" fill="#E2E2F2"/>
<circle cx="981.659" cy="1440.63" r="3.17834" fill="#E2E2F2"/>
<path d="M961.684 1412.37L975.142 1421.53" stroke="#E2E2F2"/>
<path d="M954.738 1423.14L967.174 1433.65" stroke="#E2E2F2"/>
<path d="M979.34 1419.58L995.867 1423.17" stroke="#E2E2F2"/>
<path d="M978.383 1429.82L993.525 1435.95" stroke="#E2E2F2"/>
<path d="M954.227 1423.47C954.227 1424.1 954.862 1424.1 954.862 1424.1L962.49 1412.03C962.139 1411.67 961.57 1411.67 961.233 1412.04C960.155 1413.2 958.664 1415.01 957.405 1417.11C955.879 1419.65 954.227 1422.83 954.227 1423.47Z" fill="#E2E2F2"/>
<path d="M967.614 1434.43C966.981 1434.71 966.686 1434.06 966.686 1434.06L975.178 1420.77C975.696 1420.98 975.958 1421.56 975.749 1422.07C975.09 1423.71 973.979 1426.06 972.472 1428.3C970.647 1431.01 968.248 1434.14 967.614 1434.43Z" fill="#E2E2F2"/>
<path d="M994.16 1436.72C993.727 1437.19 993.241 1436.74 993.241 1436.74L995.625 1422.44C996.137 1422.43 996.568 1422.83 996.578 1423.34C996.611 1424.96 996.519 1427.35 996.054 1429.78C995.491 1432.74 994.592 1436.25 994.16 1436.72Z" fill="#E2E2F2"/>
<path d="M431.387 803.474L433.377 802.468L434.999 805.726L433.123 806.509L431.387 803.474Z" fill="#CACAE8"/>
<path d="M427.931 803.618L415.418 813.814L416.345 816.131L444.085 794.303C444.405 794.051 444.54 793.63 444.427 793.239L441.834 784.295L439.98 786.149L441.834 792.959L427.931 803.618Z" fill="#CACAE8"/>
<circle cx="382.977" cy="906.643" r="2.3172" fill="#695BA6"/>
<path d="M424.689 953.226L422.037 951.112L482.06 924.906C483.644 926.988 483.804 929.748 482.006 931.648C479.558 934.236 475.746 937.601 471.496 940.474C464.923 944.918 456.759 948.726 452.959 950.206C450.746 951.006 445.117 952.701 441.373 953.226C437.628 953.75 429.161 953.487 424.689 953.226Z" fill="#CACAE8"/>
<path d="M423.762 804.082C423.391 804.082 422.372 802.846 421.908 802.228L420.055 803.155C420.364 803.773 421.26 805.194 422.372 805.935C423.484 806.677 424.998 806.244 425.616 805.935L441.836 792.959L426.079 803.155C425.461 803.464 424.133 804.082 423.762 804.082Z" fill="#CACAE8"/>
<path d="M355.59 874.034C353.994 868.634 346.074 869.584 345.801 875.209L343.786 916.734L374.258 937.171L355.59 874.034Z" stroke="#AEABDA" stroke-width="4"/>
<path d="M386.327 929.089C384.684 916.745 393.164 905.335 405.457 903.349L425.392 900.127L428.521 917.731L388.256 943.58L386.327 929.089Z" stroke="#AEABDA" stroke-width="4"/>
<path d="M343.121 917.766L387.148 902.472L389.002 877.446" stroke="#AEABDA" stroke-width="4"/>
<rect x="377.223" y="888.225" width="33.2896" height="7.40907" rx="3.70453" transform="rotate(21.3913 377.223 888.225)" stroke="#AEABDA" stroke-width="4"/>
<rect x="460.07" y="915.448" width="20.499" height="4.63441" transform="rotate(32.3081 460.07 915.448)" fill="#AEABDA"/>
<ellipse cx="338.486" cy="919.156" rx="3.24409" ry="4.63441" fill="#695BA6"/>
<ellipse cx="418.201" cy="974.769" rx="3.24409" ry="4.63441" fill="#695BA6"/>
<path d="M460.727 929.063L422.472 951.601C422.472 951.601 441.332 954.559 459.82 944.596C467.963 941.153 477.239 933.262 482.643 928.255C484.08 926.924 482.888 924.674 480.966 925.055L460.727 929.063Z" fill="#695BA6"/>
<path d="M342.753 768.843C339.897 761.502 346.256 753.894 353.987 755.403L387.957 762.03C391.224 762.668 393.96 764.89 395.255 767.957L458.823 918.576C460.772 923.194 459.001 928.542 454.68 931.084L425.086 948.492C419.775 951.616 412.93 949.24 410.696 943.498L342.753 768.843Z" fill="#CACAE8"/>
<path d="M345.995 768.112C343.139 760.77 349.498 753.163 357.229 754.671L391.199 761.299C394.466 761.936 397.202 764.158 398.497 767.225L462.065 917.845C464.014 922.463 462.243 927.811 457.922 930.352L428.328 947.761C423.017 950.885 416.172 948.509 413.938 942.767L345.995 768.112Z" fill="#695BA6"/>
<path d="M333.246 903.027C334.675 901.918 336.64 901.802 338.189 902.736L426.649 956.084C429.917 958.055 430.955 962.309 428.962 965.562C426.92 968.896 422.514 969.859 419.268 967.68L333.491 910.116C331.015 908.454 330.891 904.856 333.246 903.027Z" stroke="#AEABDA" stroke-width="4"/>
<path d="M398.039 903.817L395.662 904.577C395.149 904.741 394.858 905.281 395.003 905.8L397.167 913.523C397.301 914.001 397.764 914.308 398.256 914.242C399.162 914.121 400.603 913.923 401.661 913.751C408.283 912.673 450.919 891.733 450.919 891.733L447.312 882.277L398.039 903.817Z" fill="#594C8B"/>
<path d="M377.018 851.104C376.406 851.374 375.88 851.792 375.535 852.108C375.257 852.364 375.194 852.766 375.34 853.115L378.287 860.144C378.58 860.842 379.531 860.986 380.113 860.501C380.491 860.187 380.918 859.898 381.331 859.765C396.184 854.952 431.641 846.771 431.641 846.771L427.808 836.664C427.808 836.664 388.997 845.812 377.018 851.104Z" fill="#594C8B"/>
<path d="M357.115 808.441L354.885 801.266C354.775 800.914 354.867 800.53 355.134 800.276C356.221 799.245 358.104 797.679 359.416 797.346C360.923 796.963 365.695 796.549 367.893 796.389L405.566 794.954L414.954 806.54C400.042 805.743 367.798 805.096 365.538 805.479C363.69 805.792 360.665 807.619 358.68 808.972C358.112 809.36 357.319 809.098 357.115 808.441Z" fill="#594C8B"/>
<path d="M410.32 966.427V962.72L418.199 967.354L418.662 970.135V974.769C418.662 975.542 418.384 977.086 417.272 977.086C415.882 977.086 415.418 975.233 415.418 975.233C415.418 975.233 414.646 971.371 414.491 969.208L410.32 966.427Z" fill="#AEABDA"/>
<circle cx="416.81" cy="974.769" r="0.926881" fill="#938CCB"/>
<path d="M333.481 914.842L333.602 912.528L339.01 915.595L338.793 919.76C338.793 919.76 338.745 920.686 337.356 920.613C336.431 920.565 336.503 919.177 336.503 919.177L336.6 917.325L333.481 914.842Z" fill="#AEABDA"/>
<circle cx="337.561" cy="919.62" r="0.463441" fill="#938CCB"/>
<path d="M401.007 765.938C401.441 765.507 402.05 765.3 402.659 765.378L449.973 771.421C452.551 771.75 453.537 774.983 451.577 776.679L417.705 805.984C417.336 806.304 416.861 806.476 416.372 806.467L400.413 806.187C399.717 806.174 399.075 805.8 398.719 805.198L398.289 804.469C397.997 803.975 397.602 803.548 397.133 803.219L396.701 802.916C396.501 802.776 396.278 802.673 396.042 802.613L395.33 802.432C394.769 802.289 394.18 802.312 393.633 802.497L393.024 802.704L391.471 803.473C391.141 803.637 390.83 803.836 390.545 804.068L388.764 805.515C388.401 805.81 387.945 805.967 387.477 805.959L368.327 805.623C365.672 805.576 364.366 802.349 366.246 800.481L401.007 765.938Z" fill="#CACAE8"/>
<rect x="356.562" y="816.595" width="6.48817" height="2.78064" rx="1" fill="#CACAE8"/>
<circle cx="355.173" cy="817.985" r="2.3172" fill="#594C8B"/>
<path d="M384.831 789.857L361.195 816.595L362.122 817.522L389.929 785.686L384.831 789.857Z" fill="#CACAE8"/>
<ellipse cx="434.312" cy="806.712" rx="2.3172" ry="1.39032" transform="rotate(-22.3028 434.312 806.712)" fill="#594C8B"/>
<path d="M402.111 770.25L370.289 800.724C369.656 801.331 370.055 802.401 370.931 802.445L387.947 803.296C388.753 802.329 391.137 800.395 394.23 800.395C397.324 800.395 399.708 802.329 400.514 803.296H413.199C413.435 803.296 413.663 803.213 413.843 803.061L445.609 776.273C446.282 775.706 445.947 774.608 445.072 774.514L402.91 769.978C402.617 769.947 402.324 770.046 402.111 770.25Z" stroke="#AEABDA"/>
<path d="M395.025 776.414L439.982 781.051L436.876 783.397L393.636 778.732L395.025 776.414Z" fill="#AEABDA"/>
<defs>
<linearGradient id="paint0_linear_2327_14596" x1="1140" y1="1627" x2="-408.468" y2="642.378" gradientUnits="userSpaceOnUse">
<stop offset="0.0996661" stop-color="#877D45" stop-opacity="0.1"/>
<stop offset="0.290537" stop-color="#877D45" stop-opacity="0.1"/>
<stop offset="1" stop-color="#877445" stop-opacity="0.4"/>
</linearGradient>
</defs>
</svg>
