<svg width="318" height="208" viewBox="0 0 318 208" fill="none" xmlns="http://www.w3.org/2000/svg">
<g filter="url(#filter0_d_2396_8058)">
<mask id="path-1-outside-1_2396_8058" maskUnits="userSpaceOnUse" x="103" y="10.0762" width="156" height="186" fill="black">
<rect fill="white" x="103" y="10.0762" width="156" height="186"/>
<path d="M252.877 180.267C252.707 179.793 252.404 179.38 252.142 178.95C250.139 175.651 248.163 173.059 244.767 170.975C243.861 170.418 242.911 169.926 242.079 169.263C240.696 168.164 239.698 166.646 238.357 165.497C237.764 164.988 237.097 164.544 236.65 163.901C236.265 163.344 236.072 162.679 235.888 162.027C234.868 158.439 233.24 154.592 232.757 150.894C232.321 147.562 231.605 144.417 230.662 141.146C228.601 133.995 226.113 126.967 223.215 120.114C222.971 119.536 222.724 118.869 222.999 118.304C223.121 118.053 223.333 117.86 223.54 117.673C224.763 116.571 225.986 115.468 227.209 114.366C227.705 113.919 228.236 113.4 228.275 112.732C228.31 112.126 227.926 111.586 227.56 111.103C223.109 105.226 218.638 99.3302 213.423 94.1245C211.582 92.2864 209.628 90.5215 207.355 89.2614C205.605 88.292 203.704 87.6407 201.852 86.8834C199.25 85.8185 196.735 84.5351 194.345 83.0523C191.706 81.4157 190.934 80.4728 192.343 77.6939C193.681 75.0518 195.413 72.5232 196.289 69.6721C196.685 70.5451 197.348 71.5728 198.291 71.4233C198.834 71.3374 199.226 70.8717 199.547 70.4231C200.976 68.4301 202.008 66.1815 202.931 63.9075C203.905 61.5061 204.781 58.8662 204.106 56.3641C203.763 55.0945 202.804 54.4263 201.599 55.1114C201.579 53.9628 202.946 51.3822 200.961 51.152C201.375 50.1433 201.94 49.1718 202.341 48.1525C202.681 47.288 202.648 46.117 201.854 45.6398C201.731 45.5655 201.595 45.5125 201.486 45.417C201.2 45.1656 201.207 44.7022 201.372 44.3585C201.537 44.0148 201.823 43.7476 202.054 43.4442C203.41 41.6719 202.485 37.2828 199.938 37.023C201.363 35.8817 201.903 33.753 201.197 32.0654C200.49 30.3779 198.597 29.277 196.789 29.5018C197.766 28.1569 197.686 26.1396 196.604 24.8774C195.523 23.6163 193.548 23.2366 192.079 24.0076C192.349 22.5111 191.49 20.883 190.104 20.2678C188.719 19.6526 186.942 20.1097 186.021 21.3178C186.474 19.2591 184.211 17.1399 182.198 17.7381C181.722 17.8792 181.231 18.1401 180.758 17.9895C180.433 17.8855 180.199 17.6077 179.958 17.3669C177.987 15.4068 174.276 15.7282 172.668 17.998C172.459 18.2939 172.204 18.6545 171.845 18.6174C171.636 18.5962 171.47 18.4392 171.304 18.3088C170.238 17.4698 168.656 17.5737 167.467 18.2249C166.277 18.8762 165.401 19.9761 164.612 21.0824C164.413 21.3603 164.209 21.6487 163.916 21.8227C163.562 22.0316 163.132 22.0433 162.726 22.0963C160.334 22.4039 158.276 24.4637 157.961 26.8651C157.908 27.2649 157.891 27.6945 157.653 28.0191C157.374 28.3977 156.879 28.5239 156.434 28.6735C154.158 29.4414 152.389 31.5542 152.026 33.9375C151.96 34.3692 151.93 34.8274 151.693 35.1933C151.463 35.5497 151.074 35.7618 150.731 36.0111C149.19 37.1333 148.497 39.3045 149.104 41.1171C149.273 41.622 149.535 42.1332 149.444 42.6583C149.367 43.108 149.045 43.4675 148.801 43.8525C148.033 45.0617 148.03 46.7153 148.791 47.9276C149.062 48.3582 149.432 48.7708 149.457 49.2799C149.477 49.6851 149.27 50.0616 149.174 50.4551C148.897 51.5922 149.546 52.7196 150.073 53.7633C150.6 54.807 151.26 56.3725 150.571 57.3165C149.251 57.4809 148.385 58.9107 148.373 60.2471C148.361 61.5836 148.978 62.833 149.581 64.0241C150.636 66.1073 151.695 68.1999 153.044 70.1049C153.772 71.1337 154.65 72.1509 155.846 72.538C157.043 72.9252 158.603 72.4129 158.952 71.1995C161.322 73.7334 162.819 77.0776 163.129 80.5407C162.064 79.4334 159.945 79.7961 158.652 80.6234C157.358 81.4507 156.41 82.7214 155.198 83.6654C153.223 85.2055 150.69 85.7835 148.434 86.8643C145.547 88.2464 143.081 90.5003 141.438 93.2569C140.542 94.7588 139.891 96.3975 138.975 97.8878C137.61 100.11 135.701 101.937 133.76 103.676C132.648 104.672 131.447 105.777 131.233 107.258C130.964 109.135 132.414 110.837 134.007 111.857C135.601 112.875 137.45 113.526 138.815 114.837C140.217 120.27 141.313 125.781 142.162 131.327C142.538 133.781 143.274 136.231 143.277 138.73C143.281 141.072 142.201 143.608 141.537 145.855C141.398 146.325 141.249 146.805 140.953 147.196C140.41 147.913 139.484 148.197 138.622 148.441C136.755 148.967 134.887 149.494 133.02 150.021C129.957 149.902 126.585 149.255 123.526 149.471C118.082 149.854 112.885 152.852 112.508 158.793C112.266 162.603 113.775 166.613 114.836 170.218C113.506 169.872 111.981 170.586 111.389 171.83C110.797 173.076 111.201 174.714 112.304 175.537C111.169 175.582 110.14 176.544 110.013 177.678C109.887 178.812 110.679 179.978 111.778 180.274C111.053 180.456 110.501 181.179 110.514 181.929C110.526 182.679 111.103 183.382 111.834 183.539C110.905 183.466 110.533 184.915 111.144 185.62C111.754 186.326 112.787 186.439 113.715 186.501C113.127 187.401 113.979 188.657 115.01 188.952C116.041 189.246 117.133 188.941 118.199 188.822C119.617 188.665 121.047 188.848 122.471 188.936C129.51 189.367 136.526 187.468 143.571 187.772C146.082 187.88 149.001 188.119 150.689 186.247C151.726 185.096 151.973 183.381 151.622 181.87C151.272 180.358 150.397 179.021 149.41 177.826C150.781 177.523 152.176 177.334 153.578 177.264C152.436 178.912 152.922 181.392 154.182 182.953C155.442 184.513 157.414 185.343 159.388 185.673C161.36 186.003 163.375 185.891 165.375 185.9C168.259 185.914 171.142 186.184 173.979 186.706C174.871 186.871 175.806 187.057 176.668 186.776C177.531 186.496 178.256 185.556 177.959 184.696C184.611 184.849 191.269 184.713 197.91 184.291C204.064 183.9 209.553 182.361 215.166 179.764C217.219 178.815 219.284 177.819 221.004 176.346C222.724 174.873 224.086 172.851 224.313 170.592C224.355 170.176 224.772 170.721 224.966 171.091C225.859 172.795 226.002 174.809 226.837 176.542C227.614 178.153 228.937 179.421 230.234 180.649C230.742 181.13 231.265 181.622 231.906 181.901C232.547 182.18 233.342 182.21 233.906 181.795C234.65 181.247 234.734 180.122 234.401 179.256C234.067 178.391 233.418 177.695 232.883 176.938C232.349 176.181 231.907 175.264 232.085 174.353C233.471 174.475 234.769 175.057 236.028 175.65C237.354 176.274 238.728 176.963 239.578 178.16C240.534 179.507 240.807 181.454 242.256 182.241C245.827 184.181 243.687 177.299 243.256 176.157C244.573 177.1 245.963 178.136 246.507 179.667C246.679 180.15 246.763 180.676 247.044 181.105C247.41 181.665 248.074 181.979 248.738 182.044C249.403 182.108 250.069 181.952 250.7 181.736C250.876 181.675 251.076 181.612 251.239 181.702C251.333 181.754 251.393 181.848 251.47 181.924C251.828 182.278 252.488 182.13 252.779 181.719C253.065 181.307 253.047 180.742 252.877 180.267ZM219.954 157.012C217.604 155.789 214.925 155.399 212.304 155.028C211.068 154.853 209.832 154.676 208.596 154.501C208.344 154.465 208.09 154.429 207.857 154.33C206.818 153.885 205.622 152.4 204.712 151.656C204.454 151.452 204.18 151.221 204.115 150.897C204.04 150.524 204.271 150.168 204.444 149.828C205.627 147.507 204.335 144.923 204.187 142.538C204.009 139.646 204.327 136.631 204.394 133.734C204.456 131.062 204.113 128.445 205.638 126.067C205.67 127.153 206.89 127.754 207.473 128.669C207.911 129.357 207.973 130.21 208.097 131.018C208.815 135.664 212.143 139.761 214.01 143.999C215.949 148.403 217.212 153.343 220.304 157.125L219.954 157.012Z"/>
</mask>
<path d="M252.877 180.267C252.707 179.793 252.404 179.38 252.142 178.95C250.139 175.651 248.163 173.059 244.767 170.975C243.861 170.418 242.911 169.926 242.079 169.263C240.696 168.164 239.698 166.646 238.357 165.497C237.764 164.988 237.097 164.544 236.65 163.901C236.265 163.344 236.072 162.679 235.888 162.027C234.868 158.439 233.24 154.592 232.757 150.894C232.321 147.562 231.605 144.417 230.662 141.146C228.601 133.995 226.113 126.967 223.215 120.114C222.971 119.536 222.724 118.869 222.999 118.304C223.121 118.053 223.333 117.86 223.54 117.673C224.763 116.571 225.986 115.468 227.209 114.366C227.705 113.919 228.236 113.4 228.275 112.732C228.31 112.126 227.926 111.586 227.56 111.103C223.109 105.226 218.638 99.3302 213.423 94.1245C211.582 92.2864 209.628 90.5215 207.355 89.2614C205.605 88.292 203.704 87.6407 201.852 86.8834C199.25 85.8185 196.735 84.5351 194.345 83.0523C191.706 81.4157 190.934 80.4728 192.343 77.6939C193.681 75.0518 195.413 72.5232 196.289 69.6721C196.685 70.5451 197.348 71.5728 198.291 71.4233C198.834 71.3374 199.226 70.8717 199.547 70.4231C200.976 68.4301 202.008 66.1815 202.931 63.9075C203.905 61.5061 204.781 58.8662 204.106 56.3641C203.763 55.0945 202.804 54.4263 201.599 55.1114C201.579 53.9628 202.946 51.3822 200.961 51.152C201.375 50.1433 201.94 49.1718 202.341 48.1525C202.681 47.288 202.648 46.117 201.854 45.6398C201.731 45.5655 201.595 45.5125 201.486 45.417C201.2 45.1656 201.207 44.7022 201.372 44.3585C201.537 44.0148 201.823 43.7476 202.054 43.4442C203.41 41.6719 202.485 37.2828 199.938 37.023C201.363 35.8817 201.903 33.753 201.197 32.0654C200.49 30.3779 198.597 29.277 196.789 29.5018C197.766 28.1569 197.686 26.1396 196.604 24.8774C195.523 23.6163 193.548 23.2366 192.079 24.0076C192.349 22.5111 191.49 20.883 190.104 20.2678C188.719 19.6526 186.942 20.1097 186.021 21.3178C186.474 19.2591 184.211 17.1399 182.198 17.7381C181.722 17.8792 181.231 18.1401 180.758 17.9895C180.433 17.8855 180.199 17.6077 179.958 17.3669C177.987 15.4068 174.276 15.7282 172.668 17.998C172.459 18.2939 172.204 18.6545 171.845 18.6174C171.636 18.5962 171.47 18.4392 171.304 18.3088C170.238 17.4698 168.656 17.5737 167.467 18.2249C166.277 18.8762 165.401 19.9761 164.612 21.0824C164.413 21.3603 164.209 21.6487 163.916 21.8227C163.562 22.0316 163.132 22.0433 162.726 22.0963C160.334 22.4039 158.276 24.4637 157.961 26.8651C157.908 27.2649 157.891 27.6945 157.653 28.0191C157.374 28.3977 156.879 28.5239 156.434 28.6735C154.158 29.4414 152.389 31.5542 152.026 33.9375C151.96 34.3692 151.93 34.8274 151.693 35.1933C151.463 35.5497 151.074 35.7618 150.731 36.0111C149.19 37.1333 148.497 39.3045 149.104 41.1171C149.273 41.622 149.535 42.1332 149.444 42.6583C149.367 43.108 149.045 43.4675 148.801 43.8525C148.033 45.0617 148.03 46.7153 148.791 47.9276C149.062 48.3582 149.432 48.7708 149.457 49.2799C149.477 49.6851 149.27 50.0616 149.174 50.4551C148.897 51.5922 149.546 52.7196 150.073 53.7633C150.6 54.807 151.26 56.3725 150.571 57.3165C149.251 57.4809 148.385 58.9107 148.373 60.2471C148.361 61.5836 148.978 62.833 149.581 64.0241C150.636 66.1073 151.695 68.1999 153.044 70.1049C153.772 71.1337 154.65 72.1509 155.846 72.538C157.043 72.9252 158.603 72.4129 158.952 71.1995C161.322 73.7334 162.819 77.0776 163.129 80.5407C162.064 79.4334 159.945 79.7961 158.652 80.6234C157.358 81.4507 156.41 82.7214 155.198 83.6654C153.223 85.2055 150.69 85.7835 148.434 86.8643C145.547 88.2464 143.081 90.5003 141.438 93.2569C140.542 94.7588 139.891 96.3975 138.975 97.8878C137.61 100.11 135.701 101.937 133.76 103.676C132.648 104.672 131.447 105.777 131.233 107.258C130.964 109.135 132.414 110.837 134.007 111.857C135.601 112.875 137.45 113.526 138.815 114.837C140.217 120.27 141.313 125.781 142.162 131.327C142.538 133.781 143.274 136.231 143.277 138.73C143.281 141.072 142.201 143.608 141.537 145.855C141.398 146.325 141.249 146.805 140.953 147.196C140.41 147.913 139.484 148.197 138.622 148.441C136.755 148.967 134.887 149.494 133.02 150.021C129.957 149.902 126.585 149.255 123.526 149.471C118.082 149.854 112.885 152.852 112.508 158.793C112.266 162.603 113.775 166.613 114.836 170.218C113.506 169.872 111.981 170.586 111.389 171.83C110.797 173.076 111.201 174.714 112.304 175.537C111.169 175.582 110.14 176.544 110.013 177.678C109.887 178.812 110.679 179.978 111.778 180.274C111.053 180.456 110.501 181.179 110.514 181.929C110.526 182.679 111.103 183.382 111.834 183.539C110.905 183.466 110.533 184.915 111.144 185.62C111.754 186.326 112.787 186.439 113.715 186.501C113.127 187.401 113.979 188.657 115.01 188.952C116.041 189.246 117.133 188.941 118.199 188.822C119.617 188.665 121.047 188.848 122.471 188.936C129.51 189.367 136.526 187.468 143.571 187.772C146.082 187.88 149.001 188.119 150.689 186.247C151.726 185.096 151.973 183.381 151.622 181.87C151.272 180.358 150.397 179.021 149.41 177.826C150.781 177.523 152.176 177.334 153.578 177.264C152.436 178.912 152.922 181.392 154.182 182.953C155.442 184.513 157.414 185.343 159.388 185.673C161.36 186.003 163.375 185.891 165.375 185.9C168.259 185.914 171.142 186.184 173.979 186.706C174.871 186.871 175.806 187.057 176.668 186.776C177.531 186.496 178.256 185.556 177.959 184.696C184.611 184.849 191.269 184.713 197.91 184.291C204.064 183.9 209.553 182.361 215.166 179.764C217.219 178.815 219.284 177.819 221.004 176.346C222.724 174.873 224.086 172.851 224.313 170.592C224.355 170.176 224.772 170.721 224.966 171.091C225.859 172.795 226.002 174.809 226.837 176.542C227.614 178.153 228.937 179.421 230.234 180.649C230.742 181.13 231.265 181.622 231.906 181.901C232.547 182.18 233.342 182.21 233.906 181.795C234.65 181.247 234.734 180.122 234.401 179.256C234.067 178.391 233.418 177.695 232.883 176.938C232.349 176.181 231.907 175.264 232.085 174.353C233.471 174.475 234.769 175.057 236.028 175.65C237.354 176.274 238.728 176.963 239.578 178.16C240.534 179.507 240.807 181.454 242.256 182.241C245.827 184.181 243.687 177.299 243.256 176.157C244.573 177.1 245.963 178.136 246.507 179.667C246.679 180.15 246.763 180.676 247.044 181.105C247.41 181.665 248.074 181.979 248.738 182.044C249.403 182.108 250.069 181.952 250.7 181.736C250.876 181.675 251.076 181.612 251.239 181.702C251.333 181.754 251.393 181.848 251.47 181.924C251.828 182.278 252.488 182.13 252.779 181.719C253.065 181.307 253.047 180.742 252.877 180.267ZM219.954 157.012C217.604 155.789 214.925 155.399 212.304 155.028C211.068 154.853 209.832 154.676 208.596 154.501C208.344 154.465 208.09 154.429 207.857 154.33C206.818 153.885 205.622 152.4 204.712 151.656C204.454 151.452 204.18 151.221 204.115 150.897C204.04 150.524 204.271 150.168 204.444 149.828C205.627 147.507 204.335 144.923 204.187 142.538C204.009 139.646 204.327 136.631 204.394 133.734C204.456 131.062 204.113 128.445 205.638 126.067C205.67 127.153 206.89 127.754 207.473 128.669C207.911 129.357 207.973 130.21 208.097 131.018C208.815 135.664 212.143 139.761 214.01 143.999C215.949 148.403 217.212 153.343 220.304 157.125L219.954 157.012Z" fill="#D08F3F"/>
<path d="M252.877 180.267C252.707 179.793 252.404 179.38 252.142 178.95C250.139 175.651 248.163 173.059 244.767 170.975C243.861 170.418 242.911 169.926 242.079 169.263C240.696 168.164 239.698 166.646 238.357 165.497C237.764 164.988 237.097 164.544 236.65 163.901C236.265 163.344 236.072 162.679 235.888 162.027C234.868 158.439 233.24 154.592 232.757 150.894C232.321 147.562 231.605 144.417 230.662 141.146C228.601 133.995 226.113 126.967 223.215 120.114C222.971 119.536 222.724 118.869 222.999 118.304C223.121 118.053 223.333 117.86 223.54 117.673C224.763 116.571 225.986 115.468 227.209 114.366C227.705 113.919 228.236 113.4 228.275 112.732C228.31 112.126 227.926 111.586 227.56 111.103C223.109 105.226 218.638 99.3302 213.423 94.1245C211.582 92.2864 209.628 90.5215 207.355 89.2614C205.605 88.292 203.704 87.6407 201.852 86.8834C199.25 85.8185 196.735 84.5351 194.345 83.0523C191.706 81.4157 190.934 80.4728 192.343 77.6939C193.681 75.0518 195.413 72.5232 196.289 69.6721C196.685 70.5451 197.348 71.5728 198.291 71.4233C198.834 71.3374 199.226 70.8717 199.547 70.4231C200.976 68.4301 202.008 66.1815 202.931 63.9075C203.905 61.5061 204.781 58.8662 204.106 56.3641C203.763 55.0945 202.804 54.4263 201.599 55.1114C201.579 53.9628 202.946 51.3822 200.961 51.152C201.375 50.1433 201.94 49.1718 202.341 48.1525C202.681 47.288 202.648 46.117 201.854 45.6398C201.731 45.5655 201.595 45.5125 201.486 45.417C201.2 45.1656 201.207 44.7022 201.372 44.3585C201.537 44.0148 201.823 43.7476 202.054 43.4442C203.41 41.6719 202.485 37.2828 199.938 37.023C201.363 35.8817 201.903 33.753 201.197 32.0654C200.49 30.3779 198.597 29.277 196.789 29.5018C197.766 28.1569 197.686 26.1396 196.604 24.8774C195.523 23.6163 193.548 23.2366 192.079 24.0076C192.349 22.5111 191.49 20.883 190.104 20.2678C188.719 19.6526 186.942 20.1097 186.021 21.3178C186.474 19.2591 184.211 17.1399 182.198 17.7381C181.722 17.8792 181.231 18.1401 180.758 17.9895C180.433 17.8855 180.199 17.6077 179.958 17.3669C177.987 15.4068 174.276 15.7282 172.668 17.998C172.459 18.2939 172.204 18.6545 171.845 18.6174C171.636 18.5962 171.47 18.4392 171.304 18.3088C170.238 17.4698 168.656 17.5737 167.467 18.2249C166.277 18.8762 165.401 19.9761 164.612 21.0824C164.413 21.3603 164.209 21.6487 163.916 21.8227C163.562 22.0316 163.132 22.0433 162.726 22.0963C160.334 22.4039 158.276 24.4637 157.961 26.8651C157.908 27.2649 157.891 27.6945 157.653 28.0191C157.374 28.3977 156.879 28.5239 156.434 28.6735C154.158 29.4414 152.389 31.5542 152.026 33.9375C151.96 34.3692 151.93 34.8274 151.693 35.1933C151.463 35.5497 151.074 35.7618 150.731 36.0111C149.19 37.1333 148.497 39.3045 149.104 41.1171C149.273 41.622 149.535 42.1332 149.444 42.6583C149.367 43.108 149.045 43.4675 148.801 43.8525C148.033 45.0617 148.03 46.7153 148.791 47.9276C149.062 48.3582 149.432 48.7708 149.457 49.2799C149.477 49.6851 149.27 50.0616 149.174 50.4551C148.897 51.5922 149.546 52.7196 150.073 53.7633C150.6 54.807 151.26 56.3725 150.571 57.3165C149.251 57.4809 148.385 58.9107 148.373 60.2471C148.361 61.5836 148.978 62.833 149.581 64.0241C150.636 66.1073 151.695 68.1999 153.044 70.1049C153.772 71.1337 154.65 72.1509 155.846 72.538C157.043 72.9252 158.603 72.4129 158.952 71.1995C161.322 73.7334 162.819 77.0776 163.129 80.5407C162.064 79.4334 159.945 79.7961 158.652 80.6234C157.358 81.4507 156.41 82.7214 155.198 83.6654C153.223 85.2055 150.69 85.7835 148.434 86.8643C145.547 88.2464 143.081 90.5003 141.438 93.2569C140.542 94.7588 139.891 96.3975 138.975 97.8878C137.61 100.11 135.701 101.937 133.76 103.676C132.648 104.672 131.447 105.777 131.233 107.258C130.964 109.135 132.414 110.837 134.007 111.857C135.601 112.875 137.45 113.526 138.815 114.837C140.217 120.27 141.313 125.781 142.162 131.327C142.538 133.781 143.274 136.231 143.277 138.73C143.281 141.072 142.201 143.608 141.537 145.855C141.398 146.325 141.249 146.805 140.953 147.196C140.41 147.913 139.484 148.197 138.622 148.441C136.755 148.967 134.887 149.494 133.02 150.021C129.957 149.902 126.585 149.255 123.526 149.471C118.082 149.854 112.885 152.852 112.508 158.793C112.266 162.603 113.775 166.613 114.836 170.218C113.506 169.872 111.981 170.586 111.389 171.83C110.797 173.076 111.201 174.714 112.304 175.537C111.169 175.582 110.14 176.544 110.013 177.678C109.887 178.812 110.679 179.978 111.778 180.274C111.053 180.456 110.501 181.179 110.514 181.929C110.526 182.679 111.103 183.382 111.834 183.539C110.905 183.466 110.533 184.915 111.144 185.62C111.754 186.326 112.787 186.439 113.715 186.501C113.127 187.401 113.979 188.657 115.01 188.952C116.041 189.246 117.133 188.941 118.199 188.822C119.617 188.665 121.047 188.848 122.471 188.936C129.51 189.367 136.526 187.468 143.571 187.772C146.082 187.88 149.001 188.119 150.689 186.247C151.726 185.096 151.973 183.381 151.622 181.87C151.272 180.358 150.397 179.021 149.41 177.826C150.781 177.523 152.176 177.334 153.578 177.264C152.436 178.912 152.922 181.392 154.182 182.953C155.442 184.513 157.414 185.343 159.388 185.673C161.36 186.003 163.375 185.891 165.375 185.9C168.259 185.914 171.142 186.184 173.979 186.706C174.871 186.871 175.806 187.057 176.668 186.776C177.531 186.496 178.256 185.556 177.959 184.696C184.611 184.849 191.269 184.713 197.91 184.291C204.064 183.9 209.553 182.361 215.166 179.764C217.219 178.815 219.284 177.819 221.004 176.346C222.724 174.873 224.086 172.851 224.313 170.592C224.355 170.176 224.772 170.721 224.966 171.091C225.859 172.795 226.002 174.809 226.837 176.542C227.614 178.153 228.937 179.421 230.234 180.649C230.742 181.13 231.265 181.622 231.906 181.901C232.547 182.18 233.342 182.21 233.906 181.795C234.65 181.247 234.734 180.122 234.401 179.256C234.067 178.391 233.418 177.695 232.883 176.938C232.349 176.181 231.907 175.264 232.085 174.353C233.471 174.475 234.769 175.057 236.028 175.65C237.354 176.274 238.728 176.963 239.578 178.16C240.534 179.507 240.807 181.454 242.256 182.241C245.827 184.181 243.687 177.299 243.256 176.157C244.573 177.1 245.963 178.136 246.507 179.667C246.679 180.15 246.763 180.676 247.044 181.105C247.41 181.665 248.074 181.979 248.738 182.044C249.403 182.108 250.069 181.952 250.7 181.736C250.876 181.675 251.076 181.612 251.239 181.702C251.333 181.754 251.393 181.848 251.47 181.924C251.828 182.278 252.488 182.13 252.779 181.719C253.065 181.307 253.047 180.742 252.877 180.267ZM219.954 157.012C217.604 155.789 214.925 155.399 212.304 155.028C211.068 154.853 209.832 154.676 208.596 154.501C208.344 154.465 208.09 154.429 207.857 154.33C206.818 153.885 205.622 152.4 204.712 151.656C204.454 151.452 204.18 151.221 204.115 150.897C204.04 150.524 204.271 150.168 204.444 149.828C205.627 147.507 204.335 144.923 204.187 142.538C204.009 139.646 204.327 136.631 204.394 133.734C204.456 131.062 204.113 128.445 205.638 126.067C205.67 127.153 206.89 127.754 207.473 128.669C207.911 129.357 207.973 130.21 208.097 131.018C208.815 135.664 212.143 139.761 214.01 143.999C215.949 148.403 217.212 153.343 220.304 157.125L219.954 157.012Z" stroke="white" stroke-width="12" mask="url(#path-1-outside-1_2396_8058)"/>
</g>
<g filter="url(#filter1_d_2396_8058)">
<path d="M41.711 144.97C40.6522 145.152 39.9154 146.085 39.3096 146.965C37.8123 149.136 36.4514 151.401 35.237 153.742C34.7129 154.753 34.2053 155.794 33.4361 156.635C30.3961 159.961 27.5378 154.952 24.3185 154.214C22.0349 153.69 19.8091 154.107 17.921 155.132C17.9032 155.096 17.8997 155.053 17.8799 155.018C17.4893 154.269 16.8137 153.7 16.0749 153.291C15.3021 152.861 14.4295 152.586 13.5461 152.602C12.6634 152.617 11.7732 152.943 11.1634 153.575C10.6056 154.151 10.3148 154.94 10.1871 155.732C9.98942 156.968 10.2086 158.383 11.0302 159.375C11.6263 160.094 12.405 160.397 13.2418 160.57C12.7316 161.99 12.5441 163.543 12.7838 165.127C12.9612 166.298 13.3532 167.412 13.8786 168.464C12.8832 168.781 12.0567 169.543 11.5602 170.466C10.7043 172.06 10.7473 174.102 11.6699 175.669C12.2841 176.71 13.3224 177.562 14.5247 177.706C16.3803 177.928 18.6114 176.334 19.6089 174.469C22.9056 176.363 26.6523 175.747 29.9675 174.305C34.1014 178.269 35.139 184.799 39.6909 188.428C40.748 189.271 42.2109 189.912 43.4256 189.331C44.4996 188.817 44.9703 187.486 44.8308 186.304C44.6912 185.123 44.0684 184.057 43.4399 183.041C42.8128 182.026 42.1536 180.99 41.9292 179.822C41.9003 179.67 41.8817 179.5 41.9705 179.374C42.0995 179.191 42.3738 179.201 42.5967 179.242C44.0889 179.512 45.5606 180.454 47.0181 180.958C48.8047 181.576 50.6081 182.147 52.4364 182.621C56.0544 183.559 59.7892 184.131 63.5285 183.948C68.8802 183.685 74.2851 181.906 79.4917 183.2C80.7242 183.506 81.9414 183.985 83.21 183.966C84.478 183.948 85.8592 183.252 86.1392 182.022C86.298 181.325 86.078 180.591 85.7461 179.955C84.0893 176.786 80.0532 175.694 76.4746 175.636C72.894 175.578 69.2107 176.204 65.7981 175.102C65.4096 174.977 64.9808 174.782 64.8599 174.394C64.5954 173.543 65.9151 173.188 66.8025 173.299C70.638 173.776 74.4736 174.254 78.3098 174.73C80.6523 175.021 83.5875 175.03 84.6897 172.96C85.4628 171.51 84.8348 169.61 83.6142 168.491C82.393 167.374 80.7207 166.891 79.0894 166.615C75.2588 165.966 71.3306 165.747 67.5596 164.762C64.0658 163.85 61.0703 161.266 57.959 159.473C54.23 157.322 49.2812 155.783 44.9462 156.165C43.4536 156.297 42.004 156.785 42.8688 154.536C43.2152 153.636 43.561 152.736 43.9074 151.836C44.4342 150.467 44.9709 149.016 44.7313 147.567C44.4923 146.109 43.1645 144.72 41.711 144.97Z" fill="#D08F3F"/>
<path d="M10.2045 167.311C10.04 166.753 9.90819 166.174 9.81768 165.577L9.81759 165.576C9.64832 164.458 9.64003 163.354 9.76923 162.286C9.40488 162.015 9.05039 161.687 8.72036 161.289L8.7199 161.288C7.19179 159.444 6.93464 157.071 7.22483 155.258L7.22533 155.255C7.40822 154.12 7.86868 152.667 9.00581 151.49L10.2045 167.311ZM10.2045 167.311C9.68189 167.836 9.24994 168.428 8.91811 169.045L8.91731 169.047C7.56231 171.57 7.6338 174.727 9.08473 177.191L9.08612 177.194C10.0316 178.796 11.7882 180.4 14.1676 180.685L10.2045 167.311ZM87.3369 174.372C88.9593 171.329 87.5085 167.991 85.6414 166.28L85.6395 166.278C83.7568 164.555 81.3616 163.957 79.5902 163.657L79.5901 163.657C78.147 163.412 76.6618 163.223 75.2491 163.042C74.7207 162.975 74.2026 162.908 73.7005 162.841C71.799 162.586 70.021 162.305 68.3177 161.86L68.3173 161.86C67.0148 161.52 65.7002 160.838 64.2061 159.904C63.7264 159.604 63.1685 159.237 62.5769 158.847C61.5613 158.178 60.4465 157.444 59.4576 156.874L87.3369 174.372ZM87.3369 174.372C87.0293 174.949 86.6578 175.433 86.2467 175.837M87.3369 174.372L86.2467 175.837M46.6318 153.109C51.1841 153.184 55.887 154.815 59.4569 156.873L46.6318 153.109ZM46.6318 153.109L46.7072 152.913L46.6318 153.109ZM47.6915 147.079C48.0714 149.381 47.2426 151.527 46.7571 152.784C46.7401 152.828 46.7235 152.871 46.7074 152.913L47.6915 147.079ZM47.6915 147.079C47.4601 145.672 46.7303 144.358 45.7039 143.417C44.6658 142.465 43.0716 141.692 41.2033 142.013C38.7875 142.428 37.4138 144.427 36.869 145.22C36.8586 145.235 36.8486 145.25 36.8388 145.264C35.2708 147.537 33.8457 149.909 32.574 152.36L32.5733 152.362L32.5254 152.454C31.9633 153.539 31.6515 154.141 31.2223 154.61L31.2217 154.611C31.182 154.655 31.148 154.689 31.1196 154.717C31.0053 154.67 30.8138 154.578 30.5261 154.399C30.121 154.148 29.825 153.933 29.4626 153.669C29.1693 153.456 28.8323 153.211 28.3586 152.889C27.5303 152.327 26.3646 151.606 24.9899 151.29L47.6915 147.079ZM86.2467 175.837C87.0892 176.574 87.834 177.473 88.4046 178.565L88.4062 178.568C88.8751 179.467 89.4538 180.977 89.0644 182.688L86.2467 175.837ZM44.7218 192.037L44.7196 192.038C43.2518 192.74 41.7751 192.625 40.6443 192.289C39.5281 191.957 38.5596 191.363 37.8207 190.773L44.7218 192.037ZM44.7218 192.037C47.3522 190.777 48.0407 187.904 47.81 185.952C47.7391 185.352 47.5939 184.784 47.4097 184.257M44.7218 192.037L47.4097 184.257M47.4097 184.257C48.8074 184.717 50.2321 185.149 51.6826 185.525L51.6834 185.525C55.4892 186.512 59.5405 187.147 63.6751 186.945L63.6757 186.945C65.5825 186.851 67.6219 186.561 69.4781 186.298C70.3412 186.175 71.1648 186.058 71.9169 185.969C74.4811 185.666 76.6993 185.597 78.7679 186.111C79.0185 186.173 79.2777 186.247 79.5911 186.336L79.6283 186.347C79.9177 186.429 80.257 186.526 80.6038 186.614C81.3265 186.796 82.2385 186.98 83.2522 186.965C84.3821 186.949 85.5785 186.639 86.6117 186.007C87.6572 185.367 88.7023 184.278 89.0643 182.688L47.4097 184.257ZM18.7979 151.523C20.7178 150.931 22.829 150.794 24.9891 151.29L18.7979 151.523ZM18.7979 151.523C18.3758 151.177 17.9411 150.895 17.5303 150.667M18.7979 151.523L17.5303 150.667M17.5303 150.667C16.4168 150.049 15.0262 149.575 13.4933 149.603C11.9619 149.629 10.263 150.189 9.00705 151.489L17.5303 150.667ZM19.0417 179.374C17.7748 180.21 16.0418 180.909 14.1681 180.685L19.0417 179.374ZM19.0417 179.374C19.5794 179.019 20.0933 178.601 20.5641 178.133M19.0417 179.374L20.5641 178.133M20.5641 178.133C23.5076 179.03 26.4871 178.668 29.0918 177.838C30.0603 179.129 30.8735 180.691 31.8405 182.549C31.8971 182.658 31.9542 182.768 32.0119 182.878C33.3342 185.416 34.9839 188.512 37.8203 190.773L20.5641 178.133ZM44.7404 153.834L44.8703 155.306L42.8688 154.536L43.9074 151.836L44.7404 153.834ZM31.0066 154.811C31.0066 154.811 31.0085 154.81 31.0123 154.808C31.0085 154.81 31.0066 154.811 31.0066 154.811Z" stroke="white" stroke-width="6"/>
</g>
<g filter="url(#filter2_d_2396_8058)">
<path d="M267.31 157.232L267.31 157.232C265.194 144.757 267.485 131.845 273.763 120.859L273.765 120.855C274.137 120.207 274.519 119.565 274.894 118.942M267.31 157.232L277.2 99.0245C277.2 99.0246 277.2 99.0247 277.2 99.0248C277.478 99.881 277.777 100.733 278.064 101.55L278.092 101.628L278.092 101.629L278.092 101.629C278.092 101.629 278.092 101.629 278.092 101.629C279.506 105.648 280.601 108.939 280.088 112.253C280.088 112.253 280.088 112.253 280.088 112.253C280.088 112.253 280.088 112.253 280.088 112.253L280.088 112.254C279.688 114.839 278.335 117.169 276.647 119.992L274.895 118.94C274.895 118.94 274.894 118.941 274.894 118.942M267.31 157.232C267.609 158.991 269 160.276 270.658 160.534C271.039 160.593 271.485 160.607 271.966 160.521C274.149 160.14 275.609 158.068 275.24 155.888L275.24 155.886C273.464 145.409 275.475 134.075 280.748 124.851L280.748 124.85M267.31 157.232L280.748 124.85M274.894 118.942C274.893 118.943 274.893 118.944 274.892 118.944L276.646 119.994M274.894 118.942C276.563 116.152 277.73 114.126 278.067 111.941L278.068 111.939C278.501 109.148 277.506 106.125 276.164 102.308L276.163 102.305L276.154 102.28C275.856 101.43 275.546 100.546 275.256 99.6594L275.255 99.6555C274.471 97.2421 273.768 94.2148 273.817 91.1216C273.867 88.0055 274.688 84.6314 277.158 81.8499L276.646 119.994M276.646 119.994L276.645 119.995L276.565 120.129C276.23 120.691 275.878 121.28 275.54 121.872C275.539 121.873 275.539 121.873 275.539 121.873L276.646 119.994ZM286.017 113.171L283.997 112.858L286.017 113.171ZM286.017 113.171C286.781 108.238 285.15 103.606 283.845 99.9018M286.017 113.171L283.845 99.9018M283.752 99.6381L283.735 99.5884C283.44 98.7501 283.162 97.9576 282.907 97.1709L282.906 97.1689C282.31 95.3364 281.858 93.3088 281.857 91.4485C281.855 89.5944 282.293 88.182 283.174 87.1908L283.175 87.189C284.65 85.5269 284.496 82.9908 282.843 81.5156L282.841 81.5135C281.178 80.0333 278.632 80.1895 277.159 81.8484L283.752 99.6381ZM283.752 99.6381C283.752 99.6384 283.753 99.6387 283.753 99.639M283.752 99.6381L283.753 99.639M280.748 124.85C281.057 124.309 281.381 123.768 281.723 123.195L281.796 123.073C281.796 123.072 281.796 123.072 281.796 123.072M280.748 124.85L281.796 123.072M281.796 123.072C281.834 123.008 281.873 122.944 281.912 122.879C283.475 120.266 285.423 117.01 286.017 113.171L281.796 123.072ZM283.845 99.9018C283.814 99.8137 283.783 99.7261 283.753 99.639M283.845 99.9018L283.753 99.639M281.645 85.8329C281.645 85.8329 281.645 85.8329 281.645 85.8329L281.645 85.8329Z" fill="#D08F3F" stroke="white" stroke-width="6"/>
<path d="M288.189 86.5821C288.432 87.57 288.576 88.3743 288.596 88.9943C288.606 89.2959 288.601 89.824 288.414 90.3967C288.211 91.0181 287.643 92.0663 286.335 92.4777C285.215 92.8299 284.295 92.4578 283.964 92.304C283.565 92.1185 283.256 91.8859 283.077 91.742C282.749 91.4783 282.429 91.1584 282.195 90.9176C281.857 91.2458 281.438 91.6536 280.907 92.1656L279.796 93.2384L278.277 92.9569C276.979 92.7164 276.099 91.9671 275.583 91.4219C275.46 91.2925 275.341 91.1555 275.228 91.0189C274.665 91.4442 273.988 91.7462 273.296 91.8701C272.823 91.9548 272.11 91.9976 271.338 91.7177C270.468 91.4022 269.713 90.7365 269.319 89.7857C268.969 88.9402 269.009 88.1266 269.108 87.5587C269.211 86.97 269.419 86.403 269.663 85.879C269.765 85.6572 269.883 85.4265 270.015 85.1862C265.661 82.9248 261.586 79.6391 258.792 75.8834C238.553 48.6773 244.04 23.6586 258.5 11.1715C265.621 5.02203 274.896 2.0033 283.919 3.61355C293.03 5.23953 301.419 11.4991 306.833 22.9779L288.189 86.5821ZM288.189 86.5821C298.636 82.3621 305.309 71.6031 308.5 60.1617C311.993 47.6381 311.656 33.2025 306.833 22.978L288.189 86.5821Z" fill="#D08F3F" stroke="white" stroke-width="6"/>
</g>
<defs>
<filter id="filter0_d_2396_8058" x="100" y="10.0771" width="163" height="192.999" filterUnits="userSpaceOnUse" color-interpolation-filters="sRGB">
<feFlood flood-opacity="0" result="BackgroundImageFix"/>
<feColorMatrix in="SourceAlpha" type="matrix" values="0 0 0 0 0 0 0 0 0 0 0 0 0 0 0 0 0 0 127 0" result="hardAlpha"/>
<feOffset dy="4"/>
<feGaussianBlur stdDeviation="2"/>
<feComposite in2="hardAlpha" operator="out"/>
<feColorMatrix type="matrix" values="0 0 0 0 0 0 0 0 0 0 0 0 0 0 0 0 0 0 0.25 0"/>
<feBlend mode="normal" in2="BackgroundImageFix" result="effect1_dropShadow_2396_8058"/>
<feBlend mode="normal" in="SourceGraphic" in2="effect1_dropShadow_2396_8058" result="shape"/>
</filter>
<filter id="filter1_d_2396_8058" x="0.121094" y="138.938" width="96.0703" height="64.6162" filterUnits="userSpaceOnUse" color-interpolation-filters="sRGB">
<feFlood flood-opacity="0" result="BackgroundImageFix"/>
<feColorMatrix in="SourceAlpha" type="matrix" values="0 0 0 0 0 0 0 0 0 0 0 0 0 0 0 0 0 0 127 0" result="hardAlpha"/>
<feOffset dy="4"/>
<feGaussianBlur stdDeviation="2"/>
<feComposite in2="hardAlpha" operator="out"/>
<feColorMatrix type="matrix" values="0 0 0 0 0 0 0 0 0 0 0 0 0 0 0 0 0 0 0.25 0"/>
<feBlend mode="normal" in2="BackgroundImageFix" result="effect1_dropShadow_2396_8058"/>
<feBlend mode="normal" in="SourceGraphic" in2="effect1_dropShadow_2396_8058" result="shape"/>
</filter>
<filter id="filter2_d_2396_8058" x="238.562" y="0.18457" width="79.2695" height="171.397" filterUnits="userSpaceOnUse" color-interpolation-filters="sRGB">
<feFlood flood-opacity="0" result="BackgroundImageFix"/>
<feColorMatrix in="SourceAlpha" type="matrix" values="0 0 0 0 0 0 0 0 0 0 0 0 0 0 0 0 0 0 127 0" result="hardAlpha"/>
<feOffset dy="4"/>
<feGaussianBlur stdDeviation="2"/>
<feComposite in2="hardAlpha" operator="out"/>
<feColorMatrix type="matrix" values="0 0 0 0 0 0 0 0 0 0 0 0 0 0 0 0 0 0 0.25 0"/>
<feBlend mode="normal" in2="BackgroundImageFix" result="effect1_dropShadow_2396_8058"/>
<feBlend mode="normal" in="SourceGraphic" in2="effect1_dropShadow_2396_8058" result="shape"/>
</filter>
</defs>
</svg>
