<svg width="946" height="350" viewBox="0 0 946 350" fill="none" xmlns="http://www.w3.org/2000/svg">
<g id="Figura 5_UN3">
<g id="Group 806">
<rect id="Rectangle 239" width="946" height="350" rx="12" fill="url(#paint0_radial_2327_6416)"/>
<g id="Group 805">
<g id="Group 804">
<g id="Ellipse 38" filter="url(#filter0_d_2327_6416)">
<circle cx="244" cy="175" r="144" fill="white"/>
</g>
<g id="Group 803">
<g id="Mask group">
<mask id="mask0_2327_6416" style="mask-type:alpha" maskUnits="userSpaceOnUse" x="113" y="44" width="262" height="262">
<circle id="Ellipse 36" cx="244" cy="175" r="131" fill="#F7F0DD"/>
</mask>
<g mask="url(#mask0_2327_6416)">
<circle id="Ellipse 37" cx="245.321" cy="176.323" r="156.141" fill="#EFDEB9"/>
<g id="Group 802">
<path id="Vector 44" d="M313.808 237.333C309.574 238.391 300.576 246.595 296.606 250.565L252.938 237.333C222.945 224.982 163.488 199.224 165.606 194.99C168.254 189.697 160.313 173.818 158.99 165.878C157.667 157.939 161.636 153.969 165.606 144.706C169.576 135.443 193.394 110.302 225.152 99.7164C256.909 89.1305 262.202 95.7467 291.313 99.7164C320.424 103.686 332.333 130.151 342.919 144.706C353.505 159.262 345.566 189.696 345.566 198.959C345.566 208.221 319.101 236.009 313.808 237.333Z" fill="#CACAE8" stroke="black" stroke-dasharray="2 2"/>
<g id="OBJECTS">
<g id="Vector">
<mask id="path-6-inside-1_2327_6416" fill="white">
<path d="M568.66 496.16C568.607 495.832 568.523 495.508 568.442 495.183C568.675 494.563 568.802 493.88 568.877 493.255C568.994 492.285 568.976 491.28 568.613 490.358C568.454 489.955 568.236 489.594 567.988 489.258C567.638 488.475 567.221 487.725 566.667 487.066C565.978 486.244 565.127 485.565 564.158 485.098C563.91 484.979 563.643 484.867 563.364 484.771C563.519 482.094 562.901 479.269 562.093 476.752C561.147 473.801 559.569 471.095 558.298 468.28C555.905 462.984 554.117 457.436 553.227 451.685C552.766 448.709 552.593 445.725 552.457 442.722C552.326 439.817 552.102 436.848 551.094 434.097C550.168 431.568 548.633 429.286 546.371 427.777C544.032 426.215 541.025 425.506 538.264 425.171C532.58 424.482 526.18 425.439 521.572 429.053C516.923 429.219 512.181 427.912 507.826 426.535C501.847 424.645 495.931 422.539 489.99 420.535C488.306 419.966 486.619 419.398 484.935 418.829C484.119 418.553 483.304 418.278 482.488 418.004C481.662 417.725 480.853 417.396 479.987 417.324C480.719 416.252 481.337 415.082 481.932 413.955C482.87 412.178 483.804 410.4 484.719 408.612C486.514 405.105 488.294 401.59 489.816 397.953C491.338 394.314 492.582 390.554 493.353 386.682C494.127 382.799 494.473 378.838 494.606 374.886C494.682 372.652 494.684 370.417 494.652 368.183C494.621 366.035 494.583 363.691 493.933 361.629C493.865 361.415 493.737 361.267 493.579 361.173C493.505 360.872 493.448 360.572 493.36 360.27C492.56 357.516 491.357 354.872 490.061 352.322C488.752 349.749 487.282 347.261 485.761 344.808C484.158 342.222 482.593 339.558 480.716 337.158C478.76 334.658 476.396 332.542 474.055 330.414C471.642 328.222 469.207 326.054 466.607 324.082C461.617 320.294 456.179 317.143 450.534 314.438C447.373 312.923 444.148 311.543 440.893 310.246C439.239 309.586 437.576 308.946 435.908 308.325C434.543 307.818 433.131 307.309 431.696 307.009C431.075 306.679 430.466 306.328 429.875 305.941C428.388 304.969 426.891 303.984 425.227 303.336C423.344 302.602 421.479 302.479 419.476 302.44C417.409 302.399 415.599 301.931 413.728 301.052C409.91 299.257 406.187 297.244 402.415 295.354C400.701 294.496 398.889 293.64 396.978 293.345C396.082 293.208 395.161 293.166 394.266 293.313C393.812 293.386 393.371 293.524 392.921 293.599C392.408 293.683 392.313 293.544 392.017 293.148C390.975 291.752 389.958 290.461 388.576 289.375C387.208 288.3 385.71 287.405 384.16 286.622C380.515 284.783 376.671 283.299 372.878 281.794C364.887 278.624 356.86 275.539 348.849 272.416C344.367 270.669 339.888 268.91 335.401 267.176C332.407 266.019 329.365 264.845 326.259 263.944C326.149 263.811 326.038 263.678 325.928 263.543C325.375 262.858 324.799 262.207 324.19 261.571C322.992 260.315 321.716 259.151 320.418 258.001C317.964 255.827 315.298 253.788 311.983 253.225C310.276 252.934 308.528 252.963 306.808 253.098C305.33 253.213 303.671 253.645 302.347 252.777C301.077 251.944 300.05 250.621 298.955 249.578C297.74 248.423 296.491 247.305 295.21 246.225C293.805 245.041 292.363 243.899 290.879 242.814C290.584 242.599 290.253 242.39 289.906 242.218C291.017 240.693 291.952 239.024 292.795 237.351C292.869 237.204 292.935 237.05 293.007 236.901C293.577 236.416 294.129 235.912 294.632 235.336C295.619 234.207 296.52 233.007 297.311 231.735C298.896 229.185 300.19 226.458 301.239 223.647C302.405 220.525 303.28 217.293 303.92 214.023C304.081 213.201 304.219 212.376 304.346 211.548C304.416 211.887 304.486 212.224 304.554 212.564C304.659 213.085 305.292 213.433 305.785 213.405C306.362 213.373 306.74 212.96 306.912 212.442C308.036 209.075 308.509 205.413 308.59 201.801C309.56 202.595 310.915 202.315 311.686 201.39C312.559 200.343 312.332 198.785 312.237 197.532C312.137 196.207 311.975 194.888 311.756 193.578C311.315 190.946 310.647 188.362 309.744 185.851C309.409 184.919 309.041 184.014 308.638 183.129C309.349 183.828 310.068 184.52 310.787 185.217C311.278 185.691 312.343 185.455 312.41 184.7C312.497 183.732 312.283 182.85 311.854 182.021C312.575 182.547 313.6 181.717 313.341 180.868C312.564 178.316 311.164 175.952 309.367 173.982C308.583 173.124 307.708 172.356 306.772 171.665C306.811 171.603 306.854 171.541 306.891 171.48C307.3 170.83 307.644 170.142 307.973 169.45C308.635 168.055 309.17 166.608 309.615 165.13C309.804 164.5 308.77 164.116 308.515 164.732C308.243 165.389 307.949 166.036 307.638 166.677C307.836 165.677 307.956 164.66 307.972 163.642C307.991 162.498 307.788 161.37 307.752 160.229C307.734 159.623 306.725 159.513 306.661 160.142C306.555 161.2 306.287 162.223 306.096 163.267C306.092 163.289 306.087 163.311 306.083 163.332C306.009 163.077 305.895 162.842 305.679 162.668C305.544 162.559 305.368 162.538 305.217 162.629C305.078 162.714 304.986 162.832 304.895 162.949C304.274 160.957 303.465 159.027 302.483 157.186C301.939 156.165 301.327 155.181 300.668 154.23C300.063 152.967 299.217 151.818 298.302 150.683C296.584 148.553 295.078 146.414 293.79 143.991C292.417 141.41 291.021 138.962 289.109 136.733C287.324 134.652 285.263 132.823 283.047 131.214C278.275 127.745 272.894 125.191 267.394 123.103C261.473 120.854 255.357 119.18 249.143 117.967C246.868 117.43 244.572 116.976 242.267 116.562C238.611 115.905 234.939 115.341 231.242 114.966C224.401 114.275 217.464 114.169 210.659 115.286C208.86 115.582 207.066 115.95 205.311 116.448C204.064 116.803 202.81 117.192 201.627 117.725C201.467 117.769 201.309 117.82 201.15 117.866C199.014 118.077 196.883 118.349 194.768 118.765C193.094 119.095 191.439 119.517 189.822 120.061C188.214 120.602 186.762 121.348 185.24 122.075C184.696 122.336 185.141 123.15 185.678 122.996C185.763 122.971 185.85 122.957 185.935 122.934C183.869 123.889 181.858 124.965 179.915 126.154C177.93 127.065 175.995 128.078 174.124 129.188C172.657 129.893 171.28 130.741 170.109 131.831C167.815 133.507 165.667 135.379 163.743 137.513C161.238 140.294 159.283 143.389 157.867 146.851C157.61 147.48 158.445 147.928 158.807 147.343C160.653 144.362 162.848 141.695 165.295 139.3C165.262 139.374 165.214 139.441 165.185 139.517C165.14 139.636 165.134 139.754 165.149 139.869C164.714 140.517 164.291 141.171 163.878 141.829C162.984 143.259 162.147 144.723 161.381 146.224C160.638 147.678 159.775 149.154 159.348 150.736C159.301 150.907 159.33 151.067 159.403 151.203C159.106 151.866 158.856 152.551 158.686 153.279C158.216 155.297 158.355 157.366 159.214 159.255C159.282 159.404 159.368 159.524 159.461 159.633C159.468 161.103 159.867 162.49 161.392 162.226C162.458 162.042 163.108 160.789 163.718 160.01L165.014 158.349C164.14 160.437 163.288 162.536 162.477 164.642C161.151 168.078 159.912 171.588 158.981 175.152C157.193 182.002 157.258 189.037 158.256 196.008C158.528 197.908 158.952 199.795 159.381 201.664C159.593 202.584 159.825 203.495 160.075 204.405C160.185 204.805 160.289 205.22 160.42 205.62C159.717 207.495 159.111 209.411 158.263 211.235C157.136 213.661 155.762 215.991 154.143 218.121C153.366 219.143 152.536 220.113 151.642 221.034C150.79 221.914 149.877 222.804 149.54 224.024C148.893 226.358 150.686 228.736 152.367 230.152C153.961 231.496 156.118 232.593 158.263 232.697C158.074 234.42 158.191 236.233 158.354 237.877C158.592 240.287 159.08 242.67 159.809 244.978C160.153 246.065 160.55 247.134 161.384 247.949C162.22 248.765 163.324 249.264 164.347 249.798C165.541 250.422 166.722 251.055 167.968 251.567C168.207 251.665 168.45 251.77 168.693 251.876C168.35 252.138 168.06 252.468 167.788 252.819C167.367 253.364 166.992 253.969 166.666 254.574C166.372 255.119 166.137 255.699 165.923 256.278C165.652 257.006 165.401 257.728 165.59 258.512C165.935 259.944 167.576 260.577 168.852 260.904C169.458 261.06 170.077 261.152 170.694 261.259C170.97 261.308 171.258 261.344 171.543 261.367C171.799 261.893 172.123 262.384 172.408 262.907C172.846 263.711 173.225 264.548 173.566 265.398C174.23 267.051 174.782 268.754 175.329 270.447C176.413 273.798 177.519 277.211 179.512 280.154C181.661 283.323 184.646 285.295 188.305 286.349C191.526 287.278 194.927 287.672 198.288 287.658C198.021 287.818 197.76 287.983 197.512 288.154C195.97 289.223 194.68 290.607 193.499 292.055C190.536 295.688 188.113 299.727 186.001 303.901C181.513 312.773 177.285 321.781 173.013 330.758C171.812 333.281 170.617 335.808 169.428 338.339C169.145 338.942 168.847 339.549 168.551 340.162C167.215 341.82 165.83 343.407 164.631 345.177C163.343 347.079 162.152 349.03 161.022 351.029C158.726 355.084 156.618 359.251 154.497 363.399C152.308 367.677 150.121 371.957 147.932 376.235C146.214 379.594 143.647 383.343 144.49 387.207C140.659 388.535 136.69 389.565 132.706 390.428C129.812 390.384 126.909 390.465 124.02 390.266C121.143 390.068 118.285 389.647 115.438 389.206C112.579 388.763 109.686 388.155 106.786 388.087C105.573 388.058 104.063 388.038 103.019 388.748C101.876 389.527 101.935 390.969 102.702 391.987C103.182 392.624 103.791 393.186 104.45 393.683C103.726 393.78 103.013 393.924 102.334 394.164C100.013 394.98 98.5053 397.077 98.9568 399.582C100.093 405.896 108.943 406.005 113.852 406.692C117.48 407.2 121.107 407.707 124.735 408.216C127.145 408.553 129.539 408.944 131.951 409.139C131.761 409.356 131.583 409.585 131.432 409.845C130.583 411.315 130.823 413.181 132.156 414.271C134.892 416.508 139.185 414.921 142.295 414.663C146.255 414.334 150.192 415.397 154.013 416.312C157.827 417.224 161.732 418.756 165.693 418.771C167.492 418.778 169.288 418.342 170.85 417.442C172.079 416.732 173.258 415.683 173.637 414.336C177.53 412.749 181.088 410.526 184.283 407.769C188.194 404.395 191.567 400.365 195.009 396.527C201.937 388.802 208.736 380.94 214.852 372.551C216.557 370.212 218.212 367.839 219.802 365.422C221.182 363.324 222.857 361.026 223.62 358.566C223.918 358.082 224.215 357.598 224.513 357.116C225.646 355.284 226.615 353.353 227.509 351.391C228.437 352.732 229.439 354.013 230.583 355.227C232.532 357.298 234.718 359.123 236.925 360.911C239.294 362.831 241.722 364.683 244.124 366.562C245.378 367.544 246.619 368.545 247.888 369.505C248.871 370.249 250.042 371.076 251.241 371.571C251.082 372.706 251.159 373.864 251.219 375.013C251.302 376.608 251.43 378.203 251.57 379.794C251.856 383.037 252.151 386.281 252.463 389.523C252.76 392.62 253.062 395.712 253.563 398.782C254.041 401.709 254.631 404.619 255.008 407.561C255.21 409.142 255.349 410.735 255.369 412.329C255.379 413.149 255.335 413.964 255.317 414.782C255.3 415.539 255.38 416.291 255.388 417.045C254.734 418.452 254.2 419.933 253.725 421.422C253.496 421.427 253.248 421.558 253.169 421.798C252.845 422.77 252.007 423.643 251.221 424.267C250.274 425.016 249.201 425.582 248.131 426.131C247.05 426.687 245.984 427.268 244.951 427.911C243.991 428.51 242.523 429.194 242.235 430.373C242.211 430.472 242.228 430.58 242.261 430.686C241.726 431.057 241.207 431.453 240.718 431.891C239.942 432.584 239.232 433.346 238.55 434.132C238.438 434.16 238.326 434.209 238.221 434.315C236.332 436.199 233.291 436.611 230.763 436.822C229.321 436.943 227.876 437.018 226.432 437.119C225.114 437.211 223.485 437.104 222.263 437.646C221.146 438.141 220.55 439.333 220.57 440.527C220.591 441.806 221.338 442.912 222.212 443.786C223.156 444.727 224.346 445.473 225.632 445.951C225.453 446.035 225.271 446.114 225.095 446.208C223.972 446.803 222.98 447.755 222.688 449.035C222.361 450.476 222.98 451.987 224.046 452.964C226.305 455.035 229.945 454.979 232.754 454.414C234.449 454.073 236.054 453.461 237.624 452.747C238.153 452.505 238.671 452.238 239.188 451.973C239.233 453.339 239.691 454.747 240.104 455.993C240.607 457.515 241.24 459.028 242.272 460.27C243.475 461.719 245.09 462.424 246.824 463.046C248.358 463.596 249.932 464.049 251.551 464.255C253.247 464.471 254.935 464.449 256.603 464.047C258.173 463.668 259.938 462.887 260.668 461.345C261.709 459.142 260.266 457.567 258.302 456.614C260.202 456.46 262.117 455.933 263.873 455.363C265.195 454.935 266.474 454.406 267.695 453.741C268.797 453.141 269.854 452.494 271.084 452.185C271.34 452.12 271.53 451.945 271.678 451.737C272.789 452.193 273.995 452.465 275.141 452.652C277.559 453.046 280.03 453.047 282.473 452.948C284.799 452.853 287.281 452.799 289.217 451.328C291.062 449.925 292.328 447.849 293.567 445.929C298.862 437.714 302.291 428.453 305.002 419.109C305.767 416.473 306.475 413.821 307.154 411.161C307.493 409.833 307.85 408.508 308.137 407.169C308.224 406.766 308.327 406.364 308.422 405.962C308.52 405.935 308.61 405.888 308.654 405.792C308.586 405.935 308.692 405.856 308.893 405.97C309.155 406.119 309.382 406.398 309.619 406.585C310.014 406.898 310.439 407.178 310.855 407.462C311.836 408.131 312.861 408.726 313.892 409.311C315.951 410.478 318.078 411.518 320.231 412.495C324.561 414.46 329.033 416.104 333.53 417.643C338.076 419.198 342.662 420.66 347.275 422.009C352.064 423.409 356.856 424.126 361.837 424.357C366.903 424.591 371.979 424.465 377.031 424.035C377.645 425.086 378.648 425.845 379.792 426.297C380.966 426.762 382.277 426.908 383.396 427.466C383.791 427.662 384.159 428.035 384.587 428.184C385.015 432.73 386.039 437.209 387.237 441.607C388.443 446.036 389.961 450.388 392.336 454.338C396.581 461.399 403.001 466.793 410.011 470.97C417.868 475.653 426.497 478.706 435.069 481.783C444.274 485.088 453.318 488.576 461.689 493.702C469.443 498.45 476.827 503.908 485.286 507.28C484.93 507.71 484.643 508.191 484.336 508.657C483.556 509.84 482.738 510.995 481.905 512.142C480.368 514.261 478.74 516.345 476.955 518.263C475.222 520.127 473.348 521.33 470.85 521.881C468.563 522.386 466.445 522.823 464.346 523.913C462.445 524.899 460.621 526.098 458.543 526.69C456.691 527.218 454.646 526.789 452.865 527.611C450.598 528.657 450.367 531.244 451.266 533.332C452.147 535.381 453.729 537.062 455.631 538.208C457.792 539.511 460.419 540.034 462.919 539.774C463.957 539.666 464.999 539.417 465.994 539.068C466.101 540.446 466.839 541.85 467.698 542.796C469 544.228 471.015 544.984 472.937 544.767C473.419 544.712 473.881 544.612 474.312 544.452C474.46 544.725 474.655 544.975 474.881 545.191C475.664 545.939 476.712 546.306 477.719 546.647C478.73 546.989 479.784 547.173 480.854 547.172C481.061 547.172 481.273 547.153 481.482 547.132C481.793 547.726 482.293 548.246 482.855 548.596C483.551 549.029 484.396 549.278 485.179 549.498C485.995 549.729 486.852 549.866 487.702 549.831C489.16 549.769 490.522 549.168 491.767 548.445C491.894 548.371 492.01 548.283 492.134 548.204C493.472 551.612 497.592 553.265 501.156 552.075C502.989 551.462 504.434 550.167 505.708 548.759C506.354 548.046 507.005 547.329 507.624 546.593C507.626 546.591 507.629 546.587 507.631 546.584C508.331 546.221 509.032 545.858 509.712 545.46C510.944 544.74 512.15 543.97 513.342 543.186C515.633 541.681 517.923 540.174 520.213 538.668C524.75 535.685 529.339 532.778 533.839 529.737C537.891 526.997 541.809 523.918 544.588 519.839C547.081 516.179 549.204 510.648 547.218 506.319C546.103 503.888 544.022 501.998 542.231 500.064C541.672 499.46 541.112 498.856 540.553 498.254C540.456 497.852 540.304 497.49 540.13 497.145C544.366 500.037 549.57 501.463 554.591 502.382C556.321 502.7 558.064 502.945 559.808 503.166C561.303 503.354 562.875 503.628 564.384 503.479C565.847 503.335 567.255 502.777 568.079 501.497C569.064 499.986 568.934 497.871 568.66 496.16Z"/>
</mask>
<path d="M568.66 496.16C568.607 495.832 568.523 495.508 568.442 495.183C568.675 494.563 568.802 493.88 568.877 493.255C568.994 492.285 568.976 491.28 568.613 490.358C568.454 489.955 568.236 489.594 567.988 489.258C567.638 488.475 567.221 487.725 566.667 487.066C565.978 486.244 565.127 485.565 564.158 485.098C563.91 484.979 563.643 484.867 563.364 484.771C563.519 482.094 562.901 479.269 562.093 476.752C561.147 473.801 559.569 471.095 558.298 468.28C555.905 462.984 554.117 457.436 553.227 451.685C552.766 448.709 552.593 445.725 552.457 442.722C552.326 439.817 552.102 436.848 551.094 434.097C550.168 431.568 548.633 429.286 546.371 427.777C544.032 426.215 541.025 425.506 538.264 425.171C532.58 424.482 526.18 425.439 521.572 429.053C516.923 429.219 512.181 427.912 507.826 426.535C501.847 424.645 495.931 422.539 489.99 420.535C488.306 419.966 486.619 419.398 484.935 418.829C484.119 418.553 483.304 418.278 482.488 418.004C481.662 417.725 480.853 417.396 479.987 417.324C480.719 416.252 481.337 415.082 481.932 413.955C482.87 412.178 483.804 410.4 484.719 408.612C486.514 405.105 488.294 401.59 489.816 397.953C491.338 394.314 492.582 390.554 493.353 386.682C494.127 382.799 494.473 378.838 494.606 374.886C494.682 372.652 494.684 370.417 494.652 368.183C494.621 366.035 494.583 363.691 493.933 361.629C493.865 361.415 493.737 361.267 493.579 361.173C493.505 360.872 493.448 360.572 493.36 360.27C492.56 357.516 491.357 354.872 490.061 352.322C488.752 349.749 487.282 347.261 485.761 344.808C484.158 342.222 482.593 339.558 480.716 337.158C478.76 334.658 476.396 332.542 474.055 330.414C471.642 328.222 469.207 326.054 466.607 324.082C461.617 320.294 456.179 317.143 450.534 314.438C447.373 312.923 444.148 311.543 440.893 310.246C439.239 309.586 437.576 308.946 435.908 308.325C434.543 307.818 433.131 307.309 431.696 307.009C431.075 306.679 430.466 306.328 429.875 305.941C428.388 304.969 426.891 303.984 425.227 303.336C423.344 302.602 421.479 302.479 419.476 302.44C417.409 302.399 415.599 301.931 413.728 301.052C409.91 299.257 406.187 297.244 402.415 295.354C400.701 294.496 398.889 293.64 396.978 293.345C396.082 293.208 395.161 293.166 394.266 293.313C393.812 293.386 393.371 293.524 392.921 293.599C392.408 293.683 392.313 293.544 392.017 293.148C390.975 291.752 389.958 290.461 388.576 289.375C387.208 288.3 385.71 287.405 384.16 286.622C380.515 284.783 376.671 283.299 372.878 281.794C364.887 278.624 356.86 275.539 348.849 272.416C344.367 270.669 339.888 268.91 335.401 267.176C332.407 266.019 329.365 264.845 326.259 263.944C326.149 263.811 326.038 263.678 325.928 263.543C325.375 262.858 324.799 262.207 324.19 261.571C322.992 260.315 321.716 259.151 320.418 258.001C317.964 255.827 315.298 253.788 311.983 253.225C310.276 252.934 308.528 252.963 306.808 253.098C305.33 253.213 303.671 253.645 302.347 252.777C301.077 251.944 300.05 250.621 298.955 249.578C297.74 248.423 296.491 247.305 295.21 246.225C293.805 245.041 292.363 243.899 290.879 242.814C290.584 242.599 290.253 242.39 289.906 242.218C291.017 240.693 291.952 239.024 292.795 237.351C292.869 237.204 292.935 237.05 293.007 236.901C293.577 236.416 294.129 235.912 294.632 235.336C295.619 234.207 296.52 233.007 297.311 231.735C298.896 229.185 300.19 226.458 301.239 223.647C302.405 220.525 303.28 217.293 303.92 214.023C304.081 213.201 304.219 212.376 304.346 211.548C304.416 211.887 304.486 212.224 304.554 212.564C304.659 213.085 305.292 213.433 305.785 213.405C306.362 213.373 306.74 212.96 306.912 212.442C308.036 209.075 308.509 205.413 308.59 201.801C309.56 202.595 310.915 202.315 311.686 201.39C312.559 200.343 312.332 198.785 312.237 197.532C312.137 196.207 311.975 194.888 311.756 193.578C311.315 190.946 310.647 188.362 309.744 185.851C309.409 184.919 309.041 184.014 308.638 183.129C309.349 183.828 310.068 184.52 310.787 185.217C311.278 185.691 312.343 185.455 312.41 184.7C312.497 183.732 312.283 182.85 311.854 182.021C312.575 182.547 313.6 181.717 313.341 180.868C312.564 178.316 311.164 175.952 309.367 173.982C308.583 173.124 307.708 172.356 306.772 171.665C306.811 171.603 306.854 171.541 306.891 171.48C307.3 170.83 307.644 170.142 307.973 169.45C308.635 168.055 309.17 166.608 309.615 165.13C309.804 164.5 308.77 164.116 308.515 164.732C308.243 165.389 307.949 166.036 307.638 166.677C307.836 165.677 307.956 164.66 307.972 163.642C307.991 162.498 307.788 161.37 307.752 160.229C307.734 159.623 306.725 159.513 306.661 160.142C306.555 161.2 306.287 162.223 306.096 163.267C306.092 163.289 306.087 163.311 306.083 163.332C306.009 163.077 305.895 162.842 305.679 162.668C305.544 162.559 305.368 162.538 305.217 162.629C305.078 162.714 304.986 162.832 304.895 162.949C304.274 160.957 303.465 159.027 302.483 157.186C301.939 156.165 301.327 155.181 300.668 154.23C300.063 152.967 299.217 151.818 298.302 150.683C296.584 148.553 295.078 146.414 293.79 143.991C292.417 141.41 291.021 138.962 289.109 136.733C287.324 134.652 285.263 132.823 283.047 131.214C278.275 127.745 272.894 125.191 267.394 123.103C261.473 120.854 255.357 119.18 249.143 117.967C246.868 117.43 244.572 116.976 242.267 116.562C238.611 115.905 234.939 115.341 231.242 114.966C224.401 114.275 217.464 114.169 210.659 115.286C208.86 115.582 207.066 115.95 205.311 116.448C204.064 116.803 202.81 117.192 201.627 117.725C201.467 117.769 201.309 117.82 201.15 117.866C199.014 118.077 196.883 118.349 194.768 118.765C193.094 119.095 191.439 119.517 189.822 120.061C188.214 120.602 186.762 121.348 185.24 122.075C184.696 122.336 185.141 123.15 185.678 122.996C185.763 122.971 185.85 122.957 185.935 122.934C183.869 123.889 181.858 124.965 179.915 126.154C177.93 127.065 175.995 128.078 174.124 129.188C172.657 129.893 171.28 130.741 170.109 131.831C167.815 133.507 165.667 135.379 163.743 137.513C161.238 140.294 159.283 143.389 157.867 146.851C157.61 147.48 158.445 147.928 158.807 147.343C160.653 144.362 162.848 141.695 165.295 139.3C165.262 139.374 165.214 139.441 165.185 139.517C165.14 139.636 165.134 139.754 165.149 139.869C164.714 140.517 164.291 141.171 163.878 141.829C162.984 143.259 162.147 144.723 161.381 146.224C160.638 147.678 159.775 149.154 159.348 150.736C159.301 150.907 159.33 151.067 159.403 151.203C159.106 151.866 158.856 152.551 158.686 153.279C158.216 155.297 158.355 157.366 159.214 159.255C159.282 159.404 159.368 159.524 159.461 159.633C159.468 161.103 159.867 162.49 161.392 162.226C162.458 162.042 163.108 160.789 163.718 160.01L165.014 158.349C164.14 160.437 163.288 162.536 162.477 164.642C161.151 168.078 159.912 171.588 158.981 175.152C157.193 182.002 157.258 189.037 158.256 196.008C158.528 197.908 158.952 199.795 159.381 201.664C159.593 202.584 159.825 203.495 160.075 204.405C160.185 204.805 160.289 205.22 160.42 205.62C159.717 207.495 159.111 209.411 158.263 211.235C157.136 213.661 155.762 215.991 154.143 218.121C153.366 219.143 152.536 220.113 151.642 221.034C150.79 221.914 149.877 222.804 149.54 224.024C148.893 226.358 150.686 228.736 152.367 230.152C153.961 231.496 156.118 232.593 158.263 232.697C158.074 234.42 158.191 236.233 158.354 237.877C158.592 240.287 159.08 242.67 159.809 244.978C160.153 246.065 160.55 247.134 161.384 247.949C162.22 248.765 163.324 249.264 164.347 249.798C165.541 250.422 166.722 251.055 167.968 251.567C168.207 251.665 168.45 251.77 168.693 251.876C168.35 252.138 168.06 252.468 167.788 252.819C167.367 253.364 166.992 253.969 166.666 254.574C166.372 255.119 166.137 255.699 165.923 256.278C165.652 257.006 165.401 257.728 165.59 258.512C165.935 259.944 167.576 260.577 168.852 260.904C169.458 261.06 170.077 261.152 170.694 261.259C170.97 261.308 171.258 261.344 171.543 261.367C171.799 261.893 172.123 262.384 172.408 262.907C172.846 263.711 173.225 264.548 173.566 265.398C174.23 267.051 174.782 268.754 175.329 270.447C176.413 273.798 177.519 277.211 179.512 280.154C181.661 283.323 184.646 285.295 188.305 286.349C191.526 287.278 194.927 287.672 198.288 287.658C198.021 287.818 197.76 287.983 197.512 288.154C195.97 289.223 194.68 290.607 193.499 292.055C190.536 295.688 188.113 299.727 186.001 303.901C181.513 312.773 177.285 321.781 173.013 330.758C171.812 333.281 170.617 335.808 169.428 338.339C169.145 338.942 168.847 339.549 168.551 340.162C167.215 341.82 165.83 343.407 164.631 345.177C163.343 347.079 162.152 349.03 161.022 351.029C158.726 355.084 156.618 359.251 154.497 363.399C152.308 367.677 150.121 371.957 147.932 376.235C146.214 379.594 143.647 383.343 144.49 387.207C140.659 388.535 136.69 389.565 132.706 390.428C129.812 390.384 126.909 390.465 124.02 390.266C121.143 390.068 118.285 389.647 115.438 389.206C112.579 388.763 109.686 388.155 106.786 388.087C105.573 388.058 104.063 388.038 103.019 388.748C101.876 389.527 101.935 390.969 102.702 391.987C103.182 392.624 103.791 393.186 104.45 393.683C103.726 393.78 103.013 393.924 102.334 394.164C100.013 394.98 98.5053 397.077 98.9568 399.582C100.093 405.896 108.943 406.005 113.852 406.692C117.48 407.2 121.107 407.707 124.735 408.216C127.145 408.553 129.539 408.944 131.951 409.139C131.761 409.356 131.583 409.585 131.432 409.845C130.583 411.315 130.823 413.181 132.156 414.271C134.892 416.508 139.185 414.921 142.295 414.663C146.255 414.334 150.192 415.397 154.013 416.312C157.827 417.224 161.732 418.756 165.693 418.771C167.492 418.778 169.288 418.342 170.85 417.442C172.079 416.732 173.258 415.683 173.637 414.336C177.53 412.749 181.088 410.526 184.283 407.769C188.194 404.395 191.567 400.365 195.009 396.527C201.937 388.802 208.736 380.94 214.852 372.551C216.557 370.212 218.212 367.839 219.802 365.422C221.182 363.324 222.857 361.026 223.62 358.566C223.918 358.082 224.215 357.598 224.513 357.116C225.646 355.284 226.615 353.353 227.509 351.391C228.437 352.732 229.439 354.013 230.583 355.227C232.532 357.298 234.718 359.123 236.925 360.911C239.294 362.831 241.722 364.683 244.124 366.562C245.378 367.544 246.619 368.545 247.888 369.505C248.871 370.249 250.042 371.076 251.241 371.571C251.082 372.706 251.159 373.864 251.219 375.013C251.302 376.608 251.43 378.203 251.57 379.794C251.856 383.037 252.151 386.281 252.463 389.523C252.76 392.62 253.062 395.712 253.563 398.782C254.041 401.709 254.631 404.619 255.008 407.561C255.21 409.142 255.349 410.735 255.369 412.329C255.379 413.149 255.335 413.964 255.317 414.782C255.3 415.539 255.38 416.291 255.388 417.045C254.734 418.452 254.2 419.933 253.725 421.422C253.496 421.427 253.248 421.558 253.169 421.798C252.845 422.77 252.007 423.643 251.221 424.267C250.274 425.016 249.201 425.582 248.131 426.131C247.05 426.687 245.984 427.268 244.951 427.911C243.991 428.51 242.523 429.194 242.235 430.373C242.211 430.472 242.228 430.58 242.261 430.686C241.726 431.057 241.207 431.453 240.718 431.891C239.942 432.584 239.232 433.346 238.55 434.132C238.438 434.16 238.326 434.209 238.221 434.315C236.332 436.199 233.291 436.611 230.763 436.822C229.321 436.943 227.876 437.018 226.432 437.119C225.114 437.211 223.485 437.104 222.263 437.646C221.146 438.141 220.55 439.333 220.57 440.527C220.591 441.806 221.338 442.912 222.212 443.786C223.156 444.727 224.346 445.473 225.632 445.951C225.453 446.035 225.271 446.114 225.095 446.208C223.972 446.803 222.98 447.755 222.688 449.035C222.361 450.476 222.98 451.987 224.046 452.964C226.305 455.035 229.945 454.979 232.754 454.414C234.449 454.073 236.054 453.461 237.624 452.747C238.153 452.505 238.671 452.238 239.188 451.973C239.233 453.339 239.691 454.747 240.104 455.993C240.607 457.515 241.24 459.028 242.272 460.27C243.475 461.719 245.09 462.424 246.824 463.046C248.358 463.596 249.932 464.049 251.551 464.255C253.247 464.471 254.935 464.449 256.603 464.047C258.173 463.668 259.938 462.887 260.668 461.345C261.709 459.142 260.266 457.567 258.302 456.614C260.202 456.46 262.117 455.933 263.873 455.363C265.195 454.935 266.474 454.406 267.695 453.741C268.797 453.141 269.854 452.494 271.084 452.185C271.34 452.12 271.53 451.945 271.678 451.737C272.789 452.193 273.995 452.465 275.141 452.652C277.559 453.046 280.03 453.047 282.473 452.948C284.799 452.853 287.281 452.799 289.217 451.328C291.062 449.925 292.328 447.849 293.567 445.929C298.862 437.714 302.291 428.453 305.002 419.109C305.767 416.473 306.475 413.821 307.154 411.161C307.493 409.833 307.85 408.508 308.137 407.169C308.224 406.766 308.327 406.364 308.422 405.962C308.52 405.935 308.61 405.888 308.654 405.792C308.586 405.935 308.692 405.856 308.893 405.97C309.155 406.119 309.382 406.398 309.619 406.585C310.014 406.898 310.439 407.178 310.855 407.462C311.836 408.131 312.861 408.726 313.892 409.311C315.951 410.478 318.078 411.518 320.231 412.495C324.561 414.46 329.033 416.104 333.53 417.643C338.076 419.198 342.662 420.66 347.275 422.009C352.064 423.409 356.856 424.126 361.837 424.357C366.903 424.591 371.979 424.465 377.031 424.035C377.645 425.086 378.648 425.845 379.792 426.297C380.966 426.762 382.277 426.908 383.396 427.466C383.791 427.662 384.159 428.035 384.587 428.184C385.015 432.73 386.039 437.209 387.237 441.607C388.443 446.036 389.961 450.388 392.336 454.338C396.581 461.399 403.001 466.793 410.011 470.97C417.868 475.653 426.497 478.706 435.069 481.783C444.274 485.088 453.318 488.576 461.689 493.702C469.443 498.45 476.827 503.908 485.286 507.28C484.93 507.71 484.643 508.191 484.336 508.657C483.556 509.84 482.738 510.995 481.905 512.142C480.368 514.261 478.74 516.345 476.955 518.263C475.222 520.127 473.348 521.33 470.85 521.881C468.563 522.386 466.445 522.823 464.346 523.913C462.445 524.899 460.621 526.098 458.543 526.69C456.691 527.218 454.646 526.789 452.865 527.611C450.598 528.657 450.367 531.244 451.266 533.332C452.147 535.381 453.729 537.062 455.631 538.208C457.792 539.511 460.419 540.034 462.919 539.774C463.957 539.666 464.999 539.417 465.994 539.068C466.101 540.446 466.839 541.85 467.698 542.796C469 544.228 471.015 544.984 472.937 544.767C473.419 544.712 473.881 544.612 474.312 544.452C474.46 544.725 474.655 544.975 474.881 545.191C475.664 545.939 476.712 546.306 477.719 546.647C478.73 546.989 479.784 547.173 480.854 547.172C481.061 547.172 481.273 547.153 481.482 547.132C481.793 547.726 482.293 548.246 482.855 548.596C483.551 549.029 484.396 549.278 485.179 549.498C485.995 549.729 486.852 549.866 487.702 549.831C489.16 549.769 490.522 549.168 491.767 548.445C491.894 548.371 492.01 548.283 492.134 548.204C493.472 551.612 497.592 553.265 501.156 552.075C502.989 551.462 504.434 550.167 505.708 548.759C506.354 548.046 507.005 547.329 507.624 546.593C507.626 546.591 507.629 546.587 507.631 546.584C508.331 546.221 509.032 545.858 509.712 545.46C510.944 544.74 512.15 543.97 513.342 543.186C515.633 541.681 517.923 540.174 520.213 538.668C524.75 535.685 529.339 532.778 533.839 529.737C537.891 526.997 541.809 523.918 544.588 519.839C547.081 516.179 549.204 510.648 547.218 506.319C546.103 503.888 544.022 501.998 542.231 500.064C541.672 499.46 541.112 498.856 540.553 498.254C540.456 497.852 540.304 497.49 540.13 497.145C544.366 500.037 549.57 501.463 554.591 502.382C556.321 502.7 558.064 502.945 559.808 503.166C561.303 503.354 562.875 503.628 564.384 503.479C565.847 503.335 567.255 502.777 568.079 501.497C569.064 499.986 568.934 497.871 568.66 496.16Z" fill="white" stroke="#434556" stroke-width="2" mask="url(#path-6-inside-1_2327_6416)"/>
</g>
</g>
</g>
</g>
</g>
</g>
</g>
</g>
</g>
<g id="Group 1017">
<g id="Group 802_2">
<g id="box-saiba-mais-12">
<rect x="483" y="113" width="357" height="148" rx="15" fill="#E2E2F2"/>
<g id="Group 553">
<g id="Group 545">
<g id="Group 544">
<g id="Group 532">
<g id="Acompanhe mais informa&#195;&#167;&#195;&#181;es sobre o zika v&#195;&#173;rus clicando aqui.">
<text fill="#292929" xml:space="preserve" style="white-space: pre" font-family="Open Sans" font-size="18" letter-spacing="0em"><tspan x="519" y="206.483">Acompanhe mais informa&#xe7;&#xf5;es </tspan><tspan x="519" y="231.483">sobre o zika v&#xed;rus </tspan></text>
<text fill="#7B6EB9" xml:space="preserve" style="white-space: pre" font-family="Open Sans" font-size="18" font-style="italic" font-weight="bold" letter-spacing="0em" text-decoration="underline"><tspan x="669.416" y="231.483"><a href="https://www.gov.br/saude/pt-br/assuntos/saude-de-a-a-z/z/zika-virus">clicando aqui.</a></tspan></text>
</g>
<text id="Saiba mais!" fill="#594C8B" xml:space="preserve" style="white-space: pre" font-family="Playpen Sans" font-size="24" font-weight="bold" letter-spacing="0em"><tspan x="519" y="162.96">Saiba </tspan><tspan x="596.18" y="162.96">mais!</tspan></text>
</g>
</g>
</g>
</g>
</g>
</g>
<g id="Group 545_2">
<g id="Group 544_2">
<g id="Group 533">
<g id="Vector_2" filter="url(#filter1_d_2327_6416)">
<path d="M466 224C486.435 224 503 207.435 503 187C503 166.565 486.435 150 466 150C445.565 150 429 166.565 429 187C429 207.435 445.565 224 466 224Z" fill="white"/>
</g>
<g id="2287121_bulb_idea_business_creative_creativity_icon 1" clip-path="url(#clip0_2327_6416)">
<g id="Layer_x0020_1">
<g id="_377534704">
<path id="Vector_3" d="M466.004 218.311C483.296 218.311 497.313 204.294 497.313 187.002C497.313 169.711 483.296 155.693 466.004 155.693C448.713 155.693 434.695 169.711 434.695 187.002C434.695 204.294 448.713 218.311 466.004 218.311Z" fill="#695BA6"/>
</g>
</g>
<g id="Group 552">
<path id="Vector_4" d="M472.627 190.02C473.04 190.433 472.947 191.196 472.418 191.725C471.89 192.253 471.127 192.347 470.713 191.933L467.344 188.564C466.931 188.151 467.024 187.388 467.552 186.859C468.08 186.33 468.844 186.237 469.257 186.651L472.627 190.02Z" fill="#E2E2F2"/>
<path id="Vector_5" d="M468.653 170.109C463.601 165.057 455.411 165.057 450.359 170.109C445.307 175.161 445.307 183.352 450.359 188.402C455.411 193.454 463.601 193.454 468.653 188.402C473.704 183.351 473.704 175.161 468.653 170.109Z" fill="#E2E2F2"/>
<path id="Vector_6" d="M467.076 171.686C462.895 167.506 456.117 167.506 451.936 171.686C447.756 175.867 447.756 182.645 451.936 186.826C456.117 191.006 462.895 191.006 467.076 186.826C471.256 182.645 471.256 175.867 467.076 171.686Z" fill="white"/>
<path id="Vector_7" d="M483.14 198.1C483.746 198.706 483.746 199.689 483.14 200.295L480.995 202.44C480.388 203.047 479.406 203.047 478.799 202.44L469.329 192.971C468.724 192.365 468.724 191.382 469.329 190.775L471.475 188.63C472.081 188.024 473.064 188.024 473.67 188.63L483.14 198.1Z" fill="#AEABDA"/>
</g>
</g>
</g>
</g>
</g>
</g>
</g>
<defs>
<filter id="filter0_d_2327_6416" x="96" y="31" width="296" height="296" filterUnits="userSpaceOnUse" color-interpolation-filters="sRGB">
<feFlood flood-opacity="0" result="BackgroundImageFix"/>
<feColorMatrix in="SourceAlpha" type="matrix" values="0 0 0 0 0 0 0 0 0 0 0 0 0 0 0 0 0 0 127 0" result="hardAlpha"/>
<feOffset dy="4"/>
<feGaussianBlur stdDeviation="2"/>
<feComposite in2="hardAlpha" operator="out"/>
<feColorMatrix type="matrix" values="0 0 0 0 0 0 0 0 0 0 0 0 0 0 0 0 0 0 0.25 0"/>
<feBlend mode="normal" in2="BackgroundImageFix" result="effect1_dropShadow_2327_6416"/>
<feBlend mode="normal" in="SourceGraphic" in2="effect1_dropShadow_2327_6416" result="shape"/>
</filter>
<filter id="filter1_d_2327_6416" x="422" y="150" width="82" height="82" filterUnits="userSpaceOnUse" color-interpolation-filters="sRGB">
<feFlood flood-opacity="0" result="BackgroundImageFix"/>
<feColorMatrix in="SourceAlpha" type="matrix" values="0 0 0 0 0 0 0 0 0 0 0 0 0 0 0 0 0 0 127 0" result="hardAlpha"/>
<feOffset dx="-3" dy="4"/>
<feGaussianBlur stdDeviation="2"/>
<feComposite in2="hardAlpha" operator="out"/>
<feColorMatrix type="matrix" values="0 0 0 0 0 0 0 0 0 0 0 0 0 0 0 0 0 0 0.25 0"/>
<feBlend mode="normal" in2="BackgroundImageFix" result="effect1_dropShadow_2327_6416"/>
<feBlend mode="normal" in="SourceGraphic" in2="effect1_dropShadow_2327_6416" result="shape"/>
</filter>
<radialGradient id="paint0_radial_2327_6416" cx="0" cy="0" r="1" gradientUnits="userSpaceOnUse" gradientTransform="translate(688.718 145.452) rotate(144.898) scale(394.748 569.697)">
<stop stop-color="#F9F7F4"/>
<stop offset="1" stop-color="#F6F0D9"/>
</radialGradient>
<clipPath id="clip0_2327_6416">
<rect width="62.6154" height="62.6154" fill="white" transform="translate(434.695 155.693)"/>
</clipPath>
</defs>
</svg>
