<svg width="1140" height="743" viewBox="0 0 1140 743" fill="none" xmlns="http://www.w3.org/2000/svg">
<g id="Conte&#195;&#186;do_3.1.1">
<rect id="Rectangle 231" width="1140" height="743" rx="12" fill="url(#paint0_linear_2327_6351)"/>
<text id="altera&#195;&#167;&#195;&#181;es no aparelho genital feminino, altera&#195;&#167;&#195;&#181;es placent&#195;&#161;rias (placenta pr&#195;&#169;via e descolamento prematuro); excesso de l&#195;&#173;quido amni&#195;&#179;tico; infec&#195;&#167;&#195;&#181;es maternas, primiparidade (mais frequente no primeiro filho); bolsa rota/ruptura prematura de membrana (RUPREME ou ROPREMA); hipertens&#195;&#163;o cr&#195;&#180;nica, pr&#195;&#169;-ecl&#195;&#162;mpsia; s&#195;&#173;ndrome de Hellp (aumento da press&#195;&#163;o arterial na gestante que pode causar les&#195;&#163;o em alguns &#195;&#179;rg&#195;&#163;os). A s&#195;&#173;ndrome HELLP (hem&#195;&#179;lise, enzimas hep&#195;&#161;ticas elevadas, baixa contagem de plaquetas) se desenvolve normalmente antes da 37&#194;&#170; semana de gravidez, mas pode ocorrer logo ap&#195;&#179;s o parto; insufici&#195;&#170;ncia istmo-cervical, descolamento prematuro da placenta; placenta pr&#195;&#169;via, malforma&#195;&#167;&#195;&#181;es uterinas; infec&#195;&#167;&#195;&#181;es uterinas, gesta&#195;&#167;&#195;&#163;o m&#195;&#186;ltipla, fertiliza&#195;&#167;&#195;&#163;o in vitro; malforma&#195;&#167;&#195;&#181;es fetais idade materna, em que a maior incid&#195;&#170;ncia est&#195;&#161; em m&#195;&#163;es mais jovens." fill="black" xml:space="preserve" style="white-space: pre" font-family="Open Sans" font-size="18" letter-spacing="0em"><tspan x="74" y="40.4829">altera&#xe7;&#xf5;es no aparelho genital feminino, altera&#xe7;&#xf5;es placent&#xe1;rias </tspan><tspan x="74" y="65.4829">(placenta pr&#xe9;via e descolamento prematuro);&#10;</tspan><tspan x="74" y="114.483">excesso de l&#xed;quido amni&#xf3;tico;&#10;</tspan><tspan x="74" y="163.483">infec&#xe7;&#xf5;es maternas, primiparidade (mais frequente no primeiro </tspan><tspan x="74" y="188.483">filho);&#10;</tspan><tspan x="74" y="237.483">bolsa rota/ruptura prematura de membrana (RUPREME ou </tspan><tspan x="74" y="262.483">ROPREMA);&#10;</tspan><tspan x="74" y="311.483">hipertens&#xe3;o cr&#xf4;nica, pr&#xe9;-ecl&#xe2;mpsia;&#10;</tspan><tspan x="74" y="360.483">s&#xed;ndrome de Hellp (aumento da press&#xe3;o arterial na gestante que </tspan><tspan x="74" y="385.483">pode causar les&#xe3;o em alguns &#xf3;rg&#xe3;os). A s&#xed;ndrome HELLP (hem&#xf3;lise, </tspan><tspan x="74" y="410.483">enzimas hep&#xe1;ticas elevadas, baixa contagem de plaquetas) se </tspan><tspan x="74" y="435.483">desenvolve normalmente antes da 37&#xaa; semana de gravidez, mas </tspan><tspan x="74" y="460.483">pode ocorrer logo ap&#xf3;s o parto;&#10;</tspan><tspan x="74" y="509.483">insufici&#xea;ncia istmo-cervical, descolamento prematuro da placenta;&#10;</tspan><tspan x="74" y="558.483">placenta pr&#xe9;via, malforma&#xe7;&#xf5;es uterinas;&#10;</tspan><tspan x="74" y="607.483">infec&#xe7;&#xf5;es uterinas, gesta&#xe7;&#xe3;o m&#xfa;ltipla, fertiliza&#xe7;&#xe3;o in vitro;&#10;</tspan><tspan x="74" y="656.483">malforma&#xe7;&#xf5;es fetais idade materna, em que a maior incid&#xea;ncia est&#xe1; </tspan><tspan x="74" y="681.483">em m&#xe3;es mais jovens.</tspan></text>
<path id="Vector" d="M49.5748 42.5664C46.5488 44.7686 42.2922 44.3626 39.5762 41.8358C38.3855 40.728 37.5709 39.2931 37.2297 37.7892C37.145 37.5989 37.0842 37.3847 37.0553 37.144C36.5522 32.9417 39.5364 28.8371 43.7211 28.1037C47.2891 27.4783 51.0091 29.7524 52.4202 33.0104C53.8742 36.3676 52.4712 40.4585 49.5748 42.5664ZM48.7498 36.4431C49.0776 34.298 47.1042 32.2945 45.0542 32.2134C44.0761 32.1746 43.2078 32.57 42.5451 33.1958C42.5135 33.8101 42.2067 34.4082 41.71 34.8435C41.483 35.0425 41.3439 35.3031 41.2686 35.5911C41.2112 35.9376 41.1993 36.2882 41.2404 36.6312C41.2422 36.6466 41.242 36.661 41.2435 36.6763C41.3125 37.0798 41.4534 37.4677 41.6234 37.7698C42.1584 38.7204 43.1656 39.4446 44.2186 39.7176C46.3146 40.261 48.4228 38.5839 48.7498 36.4431Z" fill="#D08F3F"/>
<path id="Vector_2" d="M49.5748 112.566C46.5488 114.769 42.2922 114.363 39.5762 111.836C38.3855 110.728 37.5709 109.293 37.2297 107.789C37.145 107.599 37.0842 107.385 37.0553 107.144C36.5522 102.942 39.5364 98.8371 43.7211 98.1037C47.2891 97.4783 51.0091 99.7524 52.4202 103.01C53.8742 106.368 52.4712 110.459 49.5748 112.566ZM48.7498 106.443C49.0776 104.298 47.1042 102.295 45.0542 102.213C44.0761 102.175 43.2078 102.57 42.5451 103.196C42.5135 103.81 42.2067 104.408 41.71 104.843C41.483 105.042 41.3439 105.303 41.2686 105.591C41.2112 105.938 41.1993 106.288 41.2404 106.631C41.2422 106.647 41.242 106.661 41.2435 106.676C41.3125 107.08 41.4534 107.468 41.6234 107.77C42.1584 108.72 43.1656 109.445 44.2186 109.718C46.3146 110.261 48.4228 108.584 48.7498 106.443Z" fill="#D08F3F"/>
<path id="Vector_3" d="M49.5748 161.566C46.5488 163.769 42.2922 163.363 39.5762 160.836C38.3855 159.728 37.5709 158.293 37.2297 156.789C37.145 156.599 37.0842 156.385 37.0553 156.144C36.5522 151.942 39.5364 147.837 43.7211 147.104C47.2891 146.478 51.0091 148.752 52.4202 152.01C53.8742 155.368 52.4712 159.459 49.5748 161.566ZM48.7498 155.443C49.0776 153.298 47.1042 151.295 45.0542 151.213C44.0761 151.175 43.2078 151.57 42.5451 152.196C42.5135 152.81 42.2067 153.408 41.71 153.843C41.483 154.042 41.3439 154.303 41.2686 154.591C41.2112 154.938 41.1993 155.288 41.2404 155.631C41.2422 155.647 41.242 155.661 41.2435 155.676C41.3125 156.08 41.4534 156.468 41.6234 156.77C42.1584 157.72 43.1656 158.445 44.2186 158.718C46.3146 159.261 48.4228 157.584 48.7498 155.443Z" fill="#D08F3F"/>
<path id="Vector_4" d="M49.5748 235.566C46.5488 237.769 42.2922 237.363 39.5762 234.836C38.3855 233.728 37.5709 232.293 37.2297 230.789C37.145 230.599 37.0842 230.385 37.0553 230.144C36.5522 225.942 39.5364 221.837 43.7211 221.104C47.2891 220.478 51.0091 222.752 52.4202 226.01C53.8742 229.368 52.4712 233.459 49.5748 235.566ZM48.7498 229.443C49.0776 227.298 47.1042 225.295 45.0542 225.213C44.0761 225.175 43.2078 225.57 42.5451 226.196C42.5135 226.81 42.2067 227.408 41.71 227.843C41.483 228.042 41.3439 228.303 41.2686 228.591C41.2112 228.938 41.1993 229.288 41.2404 229.631C41.2422 229.647 41.242 229.661 41.2435 229.676C41.3125 230.08 41.4534 230.468 41.6234 230.77C42.1584 231.72 43.1656 232.445 44.2186 232.718C46.3146 233.261 48.4228 231.584 48.7498 229.443Z" fill="#D08F3F"/>
<path id="Vector_5" d="M49.5748 309.566C46.5488 311.769 42.2922 311.363 39.5762 308.836C38.3855 307.728 37.5709 306.293 37.2297 304.789C37.145 304.599 37.0842 304.385 37.0553 304.144C36.5522 299.942 39.5364 295.837 43.7211 295.104C47.2891 294.478 51.0091 296.752 52.4202 300.01C53.8742 303.368 52.4712 307.459 49.5748 309.566ZM48.7498 303.443C49.0776 301.298 47.1042 299.295 45.0542 299.213C44.0761 299.175 43.2078 299.57 42.5451 300.196C42.5135 300.81 42.2067 301.408 41.71 301.843C41.483 302.042 41.3439 302.303 41.2686 302.591C41.2112 302.938 41.1993 303.288 41.2404 303.631C41.2422 303.647 41.242 303.661 41.2435 303.676C41.3125 304.08 41.4534 304.468 41.6234 304.77C42.1584 305.72 43.1656 306.445 44.2186 306.718C46.3146 307.261 48.4228 305.584 48.7498 303.443Z" fill="#D08F3F"/>
<path id="Vector_6" d="M49.5748 359.566C46.5488 361.769 42.2922 361.363 39.5762 358.836C38.3855 357.728 37.5709 356.293 37.2297 354.789C37.145 354.599 37.0842 354.385 37.0553 354.144C36.5522 349.942 39.5364 345.837 43.7211 345.104C47.2891 344.478 51.0091 346.752 52.4202 350.01C53.8742 353.368 52.4712 357.459 49.5748 359.566ZM48.7498 353.443C49.0776 351.298 47.1042 349.295 45.0542 349.213C44.0761 349.175 43.2078 349.57 42.5451 350.196C42.5135 350.81 42.2067 351.408 41.71 351.843C41.483 352.042 41.3439 352.303 41.2686 352.591C41.2112 352.938 41.1993 353.288 41.2404 353.631C41.2422 353.647 41.242 353.661 41.2435 353.676C41.3125 354.08 41.4534 354.468 41.6234 354.77C42.1584 355.72 43.1656 356.445 44.2186 356.718C46.3146 357.261 48.4228 355.584 48.7498 353.443Z" fill="#D08F3F"/>
<path id="Vector_7" d="M49.5748 507.566C46.5488 509.769 42.2922 509.363 39.5762 506.836C38.3855 505.728 37.5709 504.293 37.2297 502.789C37.145 502.599 37.0842 502.385 37.0553 502.144C36.5522 497.942 39.5364 493.837 43.7211 493.104C47.2891 492.478 51.0091 494.752 52.4202 498.01C53.8742 501.368 52.4712 505.459 49.5748 507.566ZM48.7498 501.443C49.0776 499.298 47.1042 497.295 45.0542 497.213C44.0761 497.175 43.2078 497.57 42.5451 498.196C42.5135 498.81 42.2067 499.408 41.71 499.843C41.483 500.042 41.3439 500.303 41.2686 500.591C41.2112 500.938 41.1993 501.288 41.2404 501.631C41.2422 501.647 41.242 501.661 41.2435 501.676C41.3125 502.08 41.4534 502.468 41.6234 502.77C42.1584 503.72 43.1656 504.445 44.2186 504.718C46.3146 505.261 48.4228 503.584 48.7498 501.443Z" fill="#D08F3F"/>
<path id="Vector_8" d="M49.5748 556.566C46.5488 558.769 42.2922 558.363 39.5762 555.836C38.3855 554.728 37.5709 553.293 37.2297 551.789C37.145 551.599 37.0842 551.385 37.0553 551.144C36.5522 546.942 39.5364 542.837 43.7211 542.104C47.2891 541.478 51.0091 543.752 52.4202 547.01C53.8742 550.368 52.4712 554.459 49.5748 556.566ZM48.7498 550.443C49.0776 548.298 47.1042 546.295 45.0542 546.213C44.0761 546.175 43.2078 546.57 42.5451 547.196C42.5135 547.81 42.2067 548.408 41.71 548.843C41.483 549.042 41.3439 549.303 41.2686 549.591C41.2112 549.938 41.1993 550.288 41.2404 550.631C41.2422 550.647 41.242 550.661 41.2435 550.676C41.3125 551.08 41.4534 551.468 41.6234 551.77C42.1584 552.72 43.1656 553.445 44.2186 553.718C46.3146 554.261 48.4228 552.584 48.7498 550.443Z" fill="#D08F3F"/>
<path id="Vector_9" d="M49.5748 605.566C46.5488 607.769 42.2922 607.363 39.5762 604.836C38.3855 603.728 37.5709 602.293 37.2297 600.789C37.145 600.599 37.0842 600.385 37.0553 600.144C36.5522 595.942 39.5364 591.837 43.7211 591.104C47.2891 590.478 51.0091 592.752 52.4202 596.01C53.8742 599.368 52.4712 603.459 49.5748 605.566ZM48.7498 599.443C49.0776 597.298 47.1042 595.295 45.0542 595.213C44.0761 595.175 43.2078 595.57 42.5451 596.196C42.5135 596.81 42.2067 597.408 41.71 597.843C41.483 598.042 41.3439 598.303 41.2686 598.591C41.2112 598.938 41.1993 599.288 41.2404 599.631C41.2422 599.647 41.242 599.661 41.2435 599.676C41.3125 600.08 41.4534 600.468 41.6234 600.77C42.1584 601.72 43.1656 602.445 44.2186 602.718C46.3146 603.261 48.4228 601.584 48.7498 599.443Z" fill="#D08F3F"/>
<path id="Vector_10" d="M49.5748 655.566C46.5488 657.769 42.2922 657.363 39.5762 654.836C38.3855 653.728 37.5709 652.293 37.2297 650.789C37.145 650.599 37.0842 650.385 37.0553 650.144C36.5522 645.942 39.5364 641.837 43.7211 641.104C47.2891 640.478 51.0091 642.752 52.4202 646.01C53.8742 649.368 52.4712 653.459 49.5748 655.566ZM48.7498 649.443C49.0776 647.298 47.1042 645.295 45.0542 645.213C44.0761 645.175 43.2078 645.57 42.5451 646.196C42.5135 646.81 42.2067 647.408 41.71 647.843C41.483 648.042 41.3439 648.303 41.2686 648.591C41.2112 648.938 41.1993 649.288 41.2404 649.631C41.2422 649.647 41.242 649.661 41.2435 649.676C41.3125 650.08 41.4534 650.468 41.6234 650.77C42.1584 651.72 43.1656 652.445 44.2186 652.718C46.3146 653.261 48.4228 651.584 48.7498 649.443Z" fill="#D08F3F"/>
<g id="OBJECTS">
<g id="Group">
<path id="Vector_11" d="M774.893 605.93C774.893 605.93 790.137 597.864 802.962 593.329C815.787 588.794 856.197 578.46 883.54 587.784C910.884 597.109 957.1 606.687 968.231 607.443C979.362 608.198 985.704 592.641 995.625 588.356C1005.55 584.072 1014.93 585.516 1022.9 594.624C1025.33 597.393 1028.36 600.062 1031.39 603.284C1047.72 620.674 1057.53 625.805 1076.91 633.947C1089.71 639.32 1101.61 648.965 1107.97 655.581C1115.98 663.912 1122.64 672.616 1113.81 677.909C1104.97 683.201 1091.02 667.971 1067.22 659.673C1038.97 649.818 1012.42 649.427 986.87 651.858C969.791 653.484 912.819 662.891 841.921 668.183C771.022 673.475 739.323 682.8 717.788 656.085C696.253 629.371 712.949 594.591 741.743 578.964C770.538 563.338 795.945 542.672 845.792 533.347C895.638 524.023 930.725 503.356 942.581 485.461C954.439 467.568 961.455 429.259 965.811 408.34C970.167 387.421 978.893 330.787 983.96 325.674C987.831 321.769 983.113 317.735 979.725 327.438C976.337 337.141 978.032 339.788 982.388 339.536C986.743 339.283 1000.42 333.361 998.963 306.772C997.51 280.182 986.743 251.199 966.296 250.569C945.85 249.938 937.017 256.744 923.466 284.971C909.916 313.198 917.296 331.913 922.135 334.967C926.974 338.023 929.758 299.335 928.911 290.263C928.064 281.19 925.523 294.422 924.798 310.677C924.072 326.933 923.951 356.421 919.959 392.714C915.966 429.007 918.87 439.592 902.173 451.311C885.477 463.03 862.005 505.244 849.424 515.705C836.841 526.163 836.237 527.045 837.93 527.424C839.623 527.802 849.787 522.761 842.649 514.823C835.511 506.883 830.551 500.583 829.099 497.811C827.646 495.04 820.387 501.088 820.629 508.901C820.872 516.714 831.936 536.373 831.936 536.373" stroke="#434556" stroke-width="1.5" stroke-miterlimit="10" stroke-linecap="round" stroke-linejoin="round"/>
<path id="Vector_12" d="M919.719 203.877C917.323 208.727 914.33 213.708 910.399 218.811C894.67 239.225 888.56 245.401 880.152 241.872C871.743 238.344 874.465 233.493 870.654 233.304C866.844 233.114 865.149 232.359 865.209 230.027C865.209 230.027 860.854 230.532 860.007 227.192C859.16 223.853 857.225 219.632 853.958 223.097C850.691 226.563 845.005 230.532 843.129 226.815C841.254 223.097 842.222 215.915 840.648 210.433C839.075 204.952 834.72 200.162 829.759 196.698C824.799 193.233 818.99 188.57 814.333 179.497C809.676 170.424 808.888 168.786 808.888 168.786" stroke="#434556" stroke-width="1.5" stroke-miterlimit="10" stroke-linecap="round" stroke-linejoin="round"/>
<path id="Vector_13" d="M1022.31 591.941C1023.77 588.412 1030.04 583.27 1027.88 559.177C1025.34 530.823 1011.43 495.162 998.359 442.613C985.294 390.064 997.996 377.211 1010.34 332.224C1022.68 287.236 1004.17 252.079 990.738 235.823C977.309 219.568 975.131 218.812 959.524 199.531C943.916 180.251 934.479 163.995 934.479 163.995C930.97 157.063 918.387 179.998 892.981 174.203C867.573 168.405 869.026 164.878 844.345 165.634C819.664 166.389 818.212 172.439 808.532 166.642C798.853 160.845 796.917 155.049 799.095 139.17C801.273 123.291 808.896 90.0871 846.642 81.7707C884.391 73.4542 898.727 74.1753 918.69 86.8738C940.351 100.654 951.176 126.744 935.713 161.334" stroke="#434556" stroke-width="1.5" stroke-miterlimit="10" stroke-linecap="round" stroke-linejoin="round"/>
<path id="Vector_14" d="M848.451 81.3748C826.314 85.5841 815.243 59.6552 821.959 47.3683C828.674 35.0814 856.855 30.2817 866.059 45.6678C872.954 57.1975 872.404 76.8199 848.451 81.3748Z" stroke="#434556" stroke-width="1.5" stroke-miterlimit="10" stroke-linecap="round" stroke-linejoin="round"/>
<path id="Vector_15" d="M906.943 223.262C906.943 223.262 923.71 240.233 922.5 246.282C921.29 252.33 884.752 299.713 875.557 313.574C866.362 327.435 866.362 335.501 867.572 345.078C868.782 354.655 872.956 355.475 873.138 360.955C873.32 366.437 866.335 370.029 867.014 373.998C867.693 377.966 876.767 386.095 880.579 389.687C884.39 393.279 885.933 396.823 884.571 399.8C883.21 402.778 878.628 401.595 878.628 401.595C878.628 401.595 883.346 407.927 881.169 411.283C878.991 414.638 874.092 411.473 871.823 409.583C871.823 409.583 874.544 414.309 870.552 416.529C866.56 418.75 857.622 411.851 857.622 411.851C857.622 411.851 858.076 419.112 851.678 416.969C845.281 414.827 840.926 403.014 840.926 398.666C840.926 394.319 842.922 394.602 845.372 388.081C847.823 381.56 846.279 376.646 849.728 372.77C853.177 368.896 860.072 362.941 864.337 358.783C868.602 354.625 871.749 356.289 871.749 356.289" stroke="#434556" stroke-width="1.5" stroke-miterlimit="10" stroke-linecap="round" stroke-linejoin="round"/>
<path id="Vector_16" d="M846.578 412.947C846.578 412.947 834.538 430.391 829.699 447.152C824.86 463.911 827.036 479.664 828.973 489.114C830.909 498.565 831.98 502.107 831.98 502.107C831.98 502.107 835.265 479.159 824.375 477.143C813.486 475.127 770.052 467.188 755.776 469.077C741.5 470.967 725.65 476.891 719.842 496.423C714.035 515.955 720.446 526.163 729.764 537.251C739.081 548.339 756.38 567.747 758.558 570.267C760.736 572.788 814.888 546.703 812.675 542.166C810.463 537.63 792.76 513.921 773.199 504.741C753.599 495.541 744.405 496.424 744.405 496.424" stroke="#434556" stroke-width="1.5" stroke-miterlimit="10" stroke-linecap="round" stroke-linejoin="round"/>
<path id="Vector_17" d="M893.829 519.378C893.829 519.378 941.369 498.187 980.207 515.577C1019.04 532.967 1022.91 543.426 1027.88 559.178" stroke="#434556" stroke-width="1.5" stroke-miterlimit="10" stroke-linecap="round" stroke-linejoin="round"/>
<path id="Vector_18" d="M878.625 401.596C878.625 401.596 864.418 392.887 857.619 382.385" stroke="#434556" stroke-width="1.5" stroke-miterlimit="10" stroke-linecap="round" stroke-linejoin="round"/>
<path id="Vector_19" d="M871.82 409.581C871.82 409.581 856.731 397.527 851.103 389.711" stroke="#434556" stroke-width="1.5" stroke-miterlimit="10" stroke-linecap="round" stroke-linejoin="round"/>
<path id="Vector_20" d="M857.617 411.85C857.617 411.85 849.265 405.021 846.579 398.749" stroke="#434556" stroke-width="1.5" stroke-miterlimit="10" stroke-linecap="round" stroke-linejoin="round"/>
</g>
</g>
</g>
<defs>
<linearGradient id="paint0_linear_2327_6351" x1="247" y1="121" x2="983.5" y2="603" gradientUnits="userSpaceOnUse">
<stop stop-color="#F3F0E8"/>
<stop offset="1" stop-color="#FCECB8"/>
</linearGradient>
</defs>
</svg>
