<svg width="636" height="788" viewBox="0 0 636 788" fill="none" xmlns="http://www.w3.org/2000/svg">
<g id="Group 1015">
<g id="Group 779">
<g id="Rectangle 191" filter="url(#filter0_d_2327_14491)">
<path d="M72.0078 172C72.0078 163.716 78.7235 157 87.0078 157H609.008C617.292 157 624.008 163.716 624.008 172V339C624.008 347.284 617.292 354 609.008 354H87.0078C78.7236 354 72.0078 347.284 72.0078 339V172Z" fill="#E2E2F2"/>
</g>
<g id="Rectangle 197" filter="url(#filter1_d_2327_14491)">
<path d="M72.0078 383C72.0078 374.716 78.7235 368 87.0078 368H609.008C617.292 368 624.008 374.716 624.008 383V550C624.008 558.284 617.292 565 609.008 565H87.0078C78.7236 565 72.0078 558.284 72.0078 550V383Z" fill="#E2E2F2"/>
</g>
<g id="Rectangle 199" filter="url(#filter2_d_2327_14491)">
<path d="M72.0078 594C72.0078 585.716 78.7235 579 87.0078 579H609.008C617.292 579 624.008 585.716 624.008 594V761C624.008 769.284 617.292 776 609.008 776H87.0078C78.7236 776 72.0078 769.284 72.0078 761V594Z" fill="#E2E2F2"/>
</g>
<g id="Frame 722">
<rect x="72.0078" y="98" width="552" height="48" rx="12" fill="#CACAE8"/>
<text id="Sinais de alerta fisiopatol&#195;&#179;gicos do prematuro" fill="black" xml:space="preserve" style="white-space: pre" font-family="Open Sans" font-size="20" font-weight="600" letter-spacing="0em"><tspan x="156.008" y="129.759">Sinais de alerta fisiopatol&#xf3;gicos do prematuro</tspan></text>
</g>
<g id="Group">
<g id="Group_2">
<path id="Vector" d="M108.406 121.305C110.515 119.149 112.843 117.149 115.552 115.825C118.262 114.494 121.394 113.879 124.336 114.555C129.169 115.667 132.663 120.117 134.083 124.868C135.496 129.618 135.202 134.689 135.025 139.787C136.751 139.384 138.622 139.391 140.246 140.101C141.87 140.817 143.201 142.312 143.447 144.066C143.87 147.131 141.031 149.724 138.13 150.803C135.229 151.882 132.001 152.086 129.291 153.574C122.739 143.029 115.375 132.982 108.406 121.305Z" fill="#C95549"/>
<g id="Group_3">
<path id="Vector_2" d="M98.2866 120.847C99.0237 117.755 99.1605 114.52 98.5184 111.688C94.7648 111.708 91.0177 111.51 87.1208 111.258C86.8546 114.37 86.0904 117.441 84.418 121.004C86.097 122.636 88.3559 123.666 90.6901 123.857C93.0178 124.041 95.4134 123.4 98.2866 120.847Z" fill="#E0604C"/>
<g id="Group_4">
<path id="Vector_3" d="M85.7394 105.068C84.9818 105.614 84.2037 106.167 83.6509 106.917C83.098 107.668 82.7843 108.664 83.0571 109.552C83.2757 110.262 83.8286 110.808 84.4019 111.286C85.4257 112.132 86.5723 112.835 87.7943 113.361C88.7018 113.75 89.7599 114.036 90.6543 113.62C91.7329 113.115 92.149 111.695 91.8353 110.549C91.5216 109.396 90.6477 108.481 89.7197 107.744C88.7837 106.999 87.7526 106.371 85.7394 105.068Z" fill="#C95549"/>
<g id="Group_5">
<path id="Vector_4" d="M99.8729 106.256C98.5354 104.317 96.9244 102.515 94.8834 101.342C92.8424 100.168 90.3173 99.6896 88.0928 100.447C85.8675 101.205 84.0656 103.348 84.0861 105.703C84.1 106.972 84.7823 108.358 86.0379 108.706C85.9904 109.525 86.4269 110.358 87.1297 110.774C87.8324 111.198 88.7743 111.19 89.5729 111.102C89.812 111.996 90.5213 112.754 91.3952 113.047C92.2757 113.34 93.2929 113.163 94.0775 112.842C94.0161 113.784 95.0604 114.521 96.0022 114.426C96.9441 114.33 97.7288 113.661 98.316 112.917C99.6542 111.217 101.422 108.508 99.8729 106.256Z" fill="#E77557"/>
<g id="Group_6">
<path id="Vector_5" d="M86.1289 107.982C86.6474 106.125 87.9578 104.508 89.6646 103.607" stroke="#7D1D2D" stroke-width="0.9333" stroke-miterlimit="10" stroke-linecap="round"/>
<path id="Vector_6" d="M90.0352 110.659C90.5675 108.632 91.8984 106.83 93.6733 105.724" stroke="#7D1D2D" stroke-width="0.9333" stroke-miterlimit="10" stroke-linecap="round"/>
<path id="Vector_7" d="M94.332 111.928C95.0011 110.563 96.2633 109.498 97.7244 109.082" stroke="#7D1D2D" stroke-width="0.9333" stroke-miterlimit="10" stroke-linecap="round"/>
</g>
</g>
</g>
</g>
<g id="Group_7">
<path id="Vector_8" d="M116.569 156.168C111.061 163.224 101.048 164.87 92.1013 164.467C79.2974 163.887 66.6303 160.173 55.5391 153.731C60.2141 143.186 64.876 132.634 70.3839 123.448C72.479 122.418 74.588 121.387 76.7248 120.411C81.6594 118.159 86.7235 116.234 92.0677 115.47C99.7256 114.371 108.189 116.009 113.574 121.565C117.177 125.271 119.061 130.349 120.051 135.42C120.071 135.557 120.098 135.679 120.119 135.815C121.408 142.818 120.944 150.571 116.569 156.168Z" fill="#FEE9E9"/>
<path id="Vector_9" d="M116.569 156.168C111.061 163.224 101.048 164.87 92.1013 164.467C79.2974 163.887 66.6303 160.173 55.5391 153.731C60.2141 143.186 64.876 132.634 70.3839 123.448C72.479 122.418 74.588 121.387 76.7248 120.411C77.4276 127.959 75.9467 135.631 72.8344 141.569C73.5986 143.835 75.7625 145.419 78.0491 146.121C82.8536 147.596 95.4601 150.469 109.71 143.125C113.478 141.187 117.32 138.996 120.112 135.822C121.408 142.818 120.944 150.571 116.569 156.168Z" fill="#F0D3D5"/>
</g>
<g id="Group_8">
<g id="Group_9">
<path id="Vector_10" d="M87.5827 154.701C87.5008 158.264 85.9651 162.004 82.8667 163.772C82.3753 164.052 81.87 164.27 81.3515 164.434C78.7855 165.28 75.8501 164.932 73.1473 164.372C69.0997 163.539 64.9366 162.188 62.0905 159.192C59.2443 156.189 58.2074 151.138 60.7734 147.889C62.2272 146.053 65.1209 145.705 67.7008 146.006C67.9399 146.04 68.1783 146.067 68.4109 146.108C70.7246 146.517 72.9155 147.617 74.6355 149.22C75.1064 146.941 75.6797 144.859 76.4308 142.838C79.5226 143.132 82.5186 143.541 85.5146 143.944C86.5245 147.671 87.658 151.131 87.5827 154.701Z" fill="#E77557"/>
<path id="Vector_11" d="M81.3433 164.433C78.7772 165.279 75.8419 164.931 73.1398 164.372C69.0922 163.539 64.9291 162.187 62.083 159.191C59.2368 156.188 58.1992 151.138 60.7659 147.889C62.2197 146.053 65.1134 145.704 67.6933 146.005C67.9324 146.039 68.1708 146.066 68.4034 146.107C66.8677 146.974 65.5916 148.298 64.8062 149.889C63.6596 152.223 63.6121 155.063 64.69 157.424C65.7203 159.69 67.6933 161.437 69.9317 162.535C72.1636 163.635 74.6477 164.133 77.1319 164.364C78.5045 164.487 79.9378 164.528 81.3433 164.433Z" fill="#C95549"/>
</g>
<g id="Group_10">
<path id="Vector_12" d="M75.8624 134.681C75.4054 133.569 75.8485 132.231 76.7158 131.391C77.5824 130.558 78.7904 130.163 79.9853 130.006C81.1795 129.848 82.4834 129.938 83.4596 130.647C84.4359 131.357 84.92 132.824 84.2377 133.821C83.7258 134.564 82.7635 134.838 81.8764 134.974C79.9846 135.261 78.0467 135.179 75.8624 134.681Z" fill="#C95549"/>
<g id="Group_11">
<path id="Vector_13" d="M76.2178 143.628C74.7779 141.587 74.0203 139.076 74.0949 136.578C74.1219 135.568 74.3062 134.51 74.9278 133.704C75.5486 132.899 76.1088 132.455 77.9443 132.654C78.2653 131.903 79.3301 131.364 80.4489 131.296C81.2679 131.248 82.1009 131.671 82.865 132.627C83.3426 132.074 84.585 131.875 85.2607 132.162C85.9364 132.449 86.3869 133.391 86.3115 134.196C87.8063 133.971 88.8235 135.076 89.1233 136.551C89.4238 138.025 88.8505 139.56 87.7039 140.953C87.8538 142.536 87.2264 144.174 85.9634 145.061C82.6405 145.123 79.303 144.836 76.2178 143.628Z" fill="#E77557"/>
<g id="Group_12">
<path id="Vector_14" d="M87.7687 140.652C87.8031 140.024 87.6802 139.389 87.4141 138.823" stroke="#7D1D2D" stroke-width="0.9333" stroke-miterlimit="10" stroke-linecap="round"/>
<path id="Vector_15" d="M86.5391 138.754C87.1394 138.707 87.7062 138.338 87.9862 137.806" stroke="#7D1D2D" stroke-width="0.9333" stroke-miterlimit="10" stroke-linecap="round"/>
</g>
</g>
</g>
</g>
<path id="Vector_16" d="M103.306 163.567C106.596 163.847 115.53 159.24 120.089 154.721C121.509 156.926 122.929 159.124 124.505 161.499C123.959 162.468 124.403 163.792 125.31 164.433C126.218 165.082 127.447 165.13 128.511 164.802C129.576 164.474 130.497 163.812 131.371 163.123C133.706 161.26 135.801 159.048 137.323 156.476C138.743 154.073 139.651 151.152 138.824 148.49C137.999 145.822 134.934 145.972 132.177 147.439C131.836 143.883 131.481 138.061 130.027 134.799C128.573 131.537 125.795 128.643 122.281 128.015C118.923 127.415 115.565 128.916 112.61 130.622C106.706 134.035 101.164 138.696 98.6453 145.037C96.1261 151.377 96.2833 162.973 103.306 163.567Z" fill="#E77557"/>
</g>
<g id="Group_13">
<path id="Vector_17" d="M32.4148 149.544C36.0427 145.916 41.174 145.167 43.8768 147.869C46.5796 150.572 45.83 155.703 42.2022 159.331C38.5743 162.959 33.443 163.709 30.7402 161.006C28.0374 158.303 28.7877 153.172 32.4148 149.544Z" fill="#C95549"/>
<path id="Vector_18" d="M74.0128 108.999C79.4593 124.977 68.4909 145.288 58.0622 155.724C55.6051 158.181 52.5747 160.263 49.1487 160.829C45.7227 161.395 41.7504 159.901 40.4261 156.686C25.4927 155.471 12.5185 144.121 9.39227 130C6.26607 115.878 13.5423 100.632 25.7728 92.9124C51.0734 76.9479 70.839 99.6759 74.0128 108.999Z" fill="#E77557"/>
<path id="Vector_19" d="M63.8108 102.378C57.1496 100.099 50.2764 98.433 43.3424 97.5189C41.6159 100.611 39.1449 101.928 35.8418 102.337C35.6575 103.996 33.9375 105.327 32.6337 105.886C33.3094 109.455 31.2208 112.008 29.2895 113.353C28.7096 115.64 27.2829 117.701 25.3443 119.052C23.4057 120.397 20.9764 121.018 18.9354 120.479C18.5603 123.032 16.8944 125.365 14.8608 126.314C16.7241 129.966 16.6356 134.539 14.8878 137.863C19.0853 143.78 24.1699 149.069 29.917 153.499C25.6105 151.191 21.304 148.824 17.5292 145.718C13.7551 142.612 10.5133 138.709 9.03909 133.924C9.03251 126.962 10.0424 119.994 12.0695 113.155C18.3146 105.333 25.3034 98.1054 33.3839 91.0347C38.6257 90.9389 43.8741 91.4303 48.9996 92.495C50.6786 92.8431 52.3642 93.2592 53.9342 93.9488C57.7705 95.6344 60.6985 98.8425 63.8108 102.378Z" fill="#C95549"/>
<path id="Vector_20" d="M70.9073 97.5467C69.6107 100.079 68.7032 102.809 68.3954 105.368C64.0406 102.925 59.6595 100.468 55.0116 98.6254C50.3636 96.7826 45.4085 95.5606 40.3239 95.595C38.9798 99.1716 35.1984 101.656 31.7446 101.826C30.8093 105.327 27.7657 108.167 24.4004 108.972C25.4447 109.9 27.0623 109.887 28.3383 109.334C29.6217 108.781 30.6316 107.771 31.6144 106.775C31.1845 108.966 29.847 110.958 27.9764 112.173C26.1131 113.388 23.7379 113.811 21.6633 113.592C23.5675 114.637 25.9771 114.705 27.9493 113.756C26.5431 115.647 24.7895 117.353 22.6117 118.24C20.4347 119.135 17.7795 119.08 16.0325 118.001C16.6124 121.168 14.7769 124.615 11.9439 125.946C13.4386 127.598 13.8006 128.581 14.1487 131.509C14.4492 133.972 13.8686 135.706 12.8448 137.419C17.3019 144.394 27.4096 152.871 36.3231 156.359C27.9756 156.018 15.1922 146.375 10.8316 141.358C6.68165 141.358 4.62092 139.27 3.50792 137.004C2.39566 134.738 2.36787 131.318 4.79789 129.599C1.78797 128.589 0 125.838 0 120.795C0 117.587 2.28669 113.499 5.40558 112.223C4.66845 110.325 4.36132 108.264 4.49807 106.223C4.60703 104.38 5.06481 102.544 5.88383 100.886C7.5899 97.3844 10.8112 94.6546 14.4631 93.4326C15.1798 89.7404 17.6025 86.4094 20.8991 84.601C24.1957 82.7991 28.2974 82.5395 32.024 83.5567C33.6752 80.9015 36.6785 79.1479 39.7974 79.0111C42.9236 78.8744 46.0564 80.3625 48.4857 82.6968C50.6627 81.4543 53.4883 81.4543 55.6726 82.6902C56.9151 83.3863 57.884 84.4035 58.703 85.5429C59.563 86.7509 60.2453 88.0958 60.8596 89.3309C64.8808 91.0494 68.4158 93.9364 70.9073 97.5467Z" fill="#240315"/>
<path id="Vector_21" d="M64.0978 100.253C64.4817 95.1372 67.8822 91.222 71.6936 91.5079C75.505 91.7938 78.2838 96.1727 77.8999 101.289C77.516 106.405 74.1156 110.32 70.3041 110.034C66.4927 109.748 63.7146 105.369 64.0978 100.253Z" fill="#E77557"/>
<path id="Vector_22" d="M58.684 85.5477C55.0869 84.6124 51.1014 85.0768 47.9277 87.0154C46.5149 84.9883 43.5459 84.2241 40.7546 84.6812C37.9633 85.1382 35.4039 86.8245 33.8682 89.1924C31.1588 88.1416 27.7599 88.3595 24.8999 89.7453C22.0472 91.1376 19.7744 93.67 18.7023 96.6521C14.9143 97.0478 10.9903 98.8569 7.99353 101.689C6.60118 103.006 5.42749 104.542 4.49219 106.221C4.60115 104.378 5.05893 102.542 5.87795 100.883C7.58402 97.382 10.806 94.6521 14.4573 93.4302C15.1739 89.7379 17.5966 86.407 20.8932 84.5985C24.1898 82.7967 28.2915 82.5371 32.0181 83.5543C33.67 80.899 36.6726 79.1454 39.7923 79.0087C42.9185 78.8719 46.0512 80.3601 48.4805 82.6943C50.6575 81.4519 53.4832 81.4519 55.6675 82.6877C56.9026 83.3912 57.8723 84.4077 58.684 85.5477Z" fill="#521431"/>
<g id="Group_14">
<path id="Vector_23" d="M56.3058 111.128C54.0469 110.568 51.562 110.998 49.6176 112.281C47.6724 113.564 46.3078 115.68 46.2734 118.492C49.5218 115.809 53.0026 113.414 56.3058 111.128Z" fill="#240315"/>
<path id="Vector_24" d="M32.5344 146.768C31.6539 144.952 30.9168 142.966 31.1486 140.967C31.3804 138.96 32.8547 136.98 35.1479 136.531C34.1249 140.086 33.3329 143.71 32.5344 146.768Z" fill="#240315"/>
<path id="Vector_25" d="M56.0195 126.389C59.8075 124.301 62.4898 120.328 63.0288 116.042C63.8339 118.356 63.4588 121.045 62.046 123.045C60.6339 125.044 58.2309 126.307 56.0195 126.389Z" fill="#242D45"/>
<path id="Vector_26" d="M45.3104 142.059C45.1605 145.41 43.2629 148.638 40.4102 150.399C42.4102 150.481 44.4095 149.395 45.4333 147.676C46.4571 145.956 46.4432 143.676 45.3104 142.059Z" fill="#242D45"/>
<path id="Vector_27" d="M51.1875 137.227C52.457 138.408 54.2113 139.049 55.9379 138.961" stroke="#7D1D2D" stroke-width="0.9333" stroke-miterlimit="10" stroke-linecap="round"/>
<path id="Vector_28" d="M60.2925 140.653C60.5243 139.759 61.3024 139.001 62.2238 138.892C63.1386 138.783 64.1214 139.404 64.3189 140.305C64.5507 141.356 63.7726 142.469 62.7832 142.878C61.0567 143.602 59.8969 142.168 60.2925 140.653Z" fill="#7D1D2D"/>
</g>
</g>
</g>
<text id="Hipotermia (menos de 36&#194;&#176;C) e hipertemia (mais que 37,5&#194;&#176;C). Mudan&#195;&#167;a no padr&#195;&#163;o respirat&#195;&#179;rio. Falta de apetite acentuada. Tremores." fill="black" xml:space="preserve" style="white-space: pre" font-family="Open Sans" font-size="18" letter-spacing="0em"><tspan x="104.008" y="209.483">Hipotermia (menos de 36&#xb0;C) e hipertemia (mais que </tspan><tspan x="104.008" y="234.483">37,5&#xb0;C).&#10;</tspan><tspan x="104.008" y="267.483">Mudan&#xe7;a no padr&#xe3;o respirat&#xf3;rio.&#10;</tspan><tspan x="104.008" y="300.483">Falta de apetite acentuada.&#10;</tspan><tspan x="104.008" y="333.483">Tremores.</tspan></text>
<text id="Choro fraco e gem&#195;&#170;ncia. Sonol&#195;&#170;ncia, com baixa resposta a est&#195;&#173;mulos. Convuls&#195;&#181;es. V&#195;&#180;mitos frequentes. Distens&#195;&#163;o abdominal." fill="black" xml:space="preserve" style="white-space: pre" font-family="Open Sans" font-size="18" letter-spacing="0em"><tspan x="104.008" y="413.483">Choro fraco e gem&#xea;ncia.&#10;</tspan><tspan x="104.008" y="446.483">Sonol&#xea;ncia, com baixa resposta a est&#xed;mulos.&#10;</tspan><tspan x="104.008" y="479.483">Convuls&#xf5;es.&#10;</tspan><tspan x="104.008" y="512.483">V&#xf4;mitos frequentes.&#10;</tspan><tspan x="104.008" y="545.483">Distens&#xe3;o abdominal.</tspan></text>
<text id="Baixa diurese e de cor mais escura. Pele p&#195;&#161;lida ou cian&#195;&#179;tica. Surgimento ou acentua&#195;&#167;&#195;&#163;o de iter&#195;&#173;cia." fill="black" xml:space="preserve" style="white-space: pre" font-family="Open Sans" font-size="18" letter-spacing="0em"><tspan x="104.008" y="647.483">Baixa diurese e de cor mais escura.&#10;</tspan><tspan x="104.008" y="680.483">Pele p&#xe1;lida ou cian&#xf3;tica.&#10;</tspan><tspan x="104.008" y="713.483">Surgimento ou acentua&#xe7;&#xe3;o de iter&#xed;cia.</tspan></text>
<g id="Ellipse 21" filter="url(#filter3_d_2327_14491)">
<circle cx="342" cy="52" r="52" fill="white"/>
<circle cx="342" cy="52" r="50.5" stroke="#D4D5DD" stroke-width="3"/>
</g>
<g id="Group_15">
<path id="Vector_29" d="M353.425 67.4657L354.703 72.4768C355.884 77.1101 353.085 81.8243 348.452 83.0055C343.818 84.1869 339.103 81.388 337.922 76.7548L336.645 71.7437L353.425 67.4657Z" fill="#ED9C1B"/>
<path id="Vector_30" d="M371.94 64.0798C372.469 66.1554 371.215 68.2664 369.14 68.7955L323.483 80.4351C321.408 80.9641 319.297 79.711 318.767 77.6353C318.586 76.9225 318.613 76.1897 318.826 75.5147C319.038 74.8392 319.435 74.2224 319.992 73.7417C321.177 72.7194 322.021 71.4062 322.472 69.9701C322.924 68.5333 322.983 66.9731 322.597 65.457L318.844 50.7355C316.433 41.2783 320.95 31.6815 329.212 27.3098C329.143 27.1312 329.084 26.947 329.036 26.757C328.365 24.1252 329.954 21.4478 332.586 20.7769C335.218 20.106 337.895 21.6956 338.566 24.3273C338.615 24.5173 338.651 24.7071 338.676 24.8971C342.544 24.8482 346.277 25.892 349.496 27.803C354.055 30.5098 357.581 34.9557 358.994 40.4997L362.747 55.2211C363.52 58.2534 365.942 60.5869 369 61.2477C369.719 61.4031 370.363 61.7544 370.873 62.2459C371.383 62.7369 371.758 63.3669 371.94 64.0798Z" fill="#FFBD17"/>
<g id="Group_16">
<path id="Vector_31" d="M328.761 35.2931C327.136 37.2941 325.624 40.9678 326.075 46.071C326.152 46.9496 325.513 47.7295 324.636 47.8201C324.625 47.8207 324.613 47.8226 324.602 47.8232C323.681 47.9184 322.869 47.2182 322.827 46.2931C322.734 44.2603 322.801 41.8392 323.534 39.6057C324.253 37.4167 325.529 35.4154 327.196 33.826C327.644 33.3982 328.364 33.4533 328.752 33.936L328.765 33.9515C329.081 34.3438 329.078 34.902 328.761 35.2931Z" fill="white"/>
</g>
<path id="Vector_32" d="M326.09 53.873C327.05 53.6282 327.63 52.6515 327.385 51.6914C327.14 50.7313 326.163 50.1514 325.203 50.3962C324.243 50.6409 323.663 51.6177 323.908 52.5777C324.153 53.5378 325.13 54.1177 326.09 53.873Z" fill="white"/>
</g>
</g>
</g>
<defs>
<filter id="filter0_d_2327_14491" x="68.0078" y="153" width="568" height="213" filterUnits="userSpaceOnUse" color-interpolation-filters="sRGB">
<feFlood flood-opacity="0" result="BackgroundImageFix"/>
<feColorMatrix in="SourceAlpha" type="matrix" values="0 0 0 0 0 0 0 0 0 0 0 0 0 0 0 0 0 0 127 0" result="hardAlpha"/>
<feOffset dx="4" dy="4"/>
<feGaussianBlur stdDeviation="4"/>
<feComposite in2="hardAlpha" operator="out"/>
<feColorMatrix type="matrix" values="0 0 0 0 0 0 0 0 0 0 0 0 0 0 0 0 0 0 0.25 0"/>
<feBlend mode="normal" in2="BackgroundImageFix" result="effect1_dropShadow_2327_14491"/>
<feBlend mode="normal" in="SourceGraphic" in2="effect1_dropShadow_2327_14491" result="shape"/>
</filter>
<filter id="filter1_d_2327_14491" x="68.0078" y="364" width="568" height="213" filterUnits="userSpaceOnUse" color-interpolation-filters="sRGB">
<feFlood flood-opacity="0" result="BackgroundImageFix"/>
<feColorMatrix in="SourceAlpha" type="matrix" values="0 0 0 0 0 0 0 0 0 0 0 0 0 0 0 0 0 0 127 0" result="hardAlpha"/>
<feOffset dx="4" dy="4"/>
<feGaussianBlur stdDeviation="4"/>
<feComposite in2="hardAlpha" operator="out"/>
<feColorMatrix type="matrix" values="0 0 0 0 0 0 0 0 0 0 0 0 0 0 0 0 0 0 0.25 0"/>
<feBlend mode="normal" in2="BackgroundImageFix" result="effect1_dropShadow_2327_14491"/>
<feBlend mode="normal" in="SourceGraphic" in2="effect1_dropShadow_2327_14491" result="shape"/>
</filter>
<filter id="filter2_d_2327_14491" x="68.0078" y="575" width="568" height="213" filterUnits="userSpaceOnUse" color-interpolation-filters="sRGB">
<feFlood flood-opacity="0" result="BackgroundImageFix"/>
<feColorMatrix in="SourceAlpha" type="matrix" values="0 0 0 0 0 0 0 0 0 0 0 0 0 0 0 0 0 0 127 0" result="hardAlpha"/>
<feOffset dx="4" dy="4"/>
<feGaussianBlur stdDeviation="4"/>
<feComposite in2="hardAlpha" operator="out"/>
<feColorMatrix type="matrix" values="0 0 0 0 0 0 0 0 0 0 0 0 0 0 0 0 0 0 0.25 0"/>
<feBlend mode="normal" in2="BackgroundImageFix" result="effect1_dropShadow_2327_14491"/>
<feBlend mode="normal" in="SourceGraphic" in2="effect1_dropShadow_2327_14491" result="shape"/>
</filter>
<filter id="filter3_d_2327_14491" x="286" y="0" width="112" height="112" filterUnits="userSpaceOnUse" color-interpolation-filters="sRGB">
<feFlood flood-opacity="0" result="BackgroundImageFix"/>
<feColorMatrix in="SourceAlpha" type="matrix" values="0 0 0 0 0 0 0 0 0 0 0 0 0 0 0 0 0 0 127 0" result="hardAlpha"/>
<feOffset dy="4"/>
<feGaussianBlur stdDeviation="2"/>
<feComposite in2="hardAlpha" operator="out"/>
<feColorMatrix type="matrix" values="0 0 0 0 0 0 0 0 0 0 0 0 0 0 0 0 0 0 0.25 0"/>
<feBlend mode="normal" in2="BackgroundImageFix" result="effect1_dropShadow_2327_14491"/>
<feBlend mode="normal" in="SourceGraphic" in2="effect1_dropShadow_2327_14491" result="shape"/>
</filter>
</defs>
</svg>
