<svg width="1140" height="200" viewBox="0 0 1140 200" fill="none" xmlns="http://www.w3.org/2000/svg">
<rect width="1140" height="200" rx="20" fill="#92D3CA"/>
<path d="M209.12 88.49C207.043 88.49 205.177 88.1517 203.52 87.475C201.863 86.7983 200.44 85.865 199.25 84.675C198.06 83.4617 197.15 82.0383 196.52 80.405C195.913 78.7717 195.61 76.9983 195.61 75.085C195.61 73.2417 195.96 71.48 196.66 69.8C197.383 68.0967 198.387 66.5917 199.67 65.285C200.953 63.955 202.435 62.905 204.115 62.135C205.818 61.365 207.627 60.98 209.54 60.98C211.01 60.98 212.445 61.2133 213.845 61.68C215.268 62.1467 216.622 62.9283 217.905 64.025C218.138 64.2583 218.29 64.48 218.36 64.69C218.453 64.9 218.5 65.145 218.5 65.425C218.5 65.845 218.372 66.3 218.115 66.79C217.858 67.2567 217.543 67.6533 217.17 67.98C216.82 68.2833 216.47 68.435 216.12 68.435C215.98 68.435 215.805 68.4 215.595 68.33C215.385 68.26 215.175 68.1433 214.965 67.98C213.962 67.2333 213.052 66.7083 212.235 66.405C211.442 66.1017 210.52 65.95 209.47 65.95C208.653 65.95 207.778 66.16 206.845 66.58C205.935 66.9767 205.072 67.5717 204.255 68.365C203.462 69.135 202.808 70.0917 202.295 71.235C201.805 72.355 201.56 73.65 201.56 75.12C201.56 76.24 201.723 77.29 202.05 78.27C202.377 79.25 202.855 80.1133 203.485 80.86C204.138 81.6067 204.92 82.19 205.83 82.61C206.763 83.03 207.813 83.24 208.98 83.24C210.007 83.24 211.022 83.065 212.025 82.715C213.052 82.365 213.938 81.7933 214.685 81C215.035 80.65 215.327 80.44 215.56 80.37C215.817 80.2767 216.085 80.23 216.365 80.23C216.832 80.23 217.24 80.3933 217.59 80.72C217.963 81.0467 218.255 81.4317 218.465 81.875C218.675 82.3183 218.78 82.7267 218.78 83.1C218.78 83.4967 218.675 83.8933 218.465 84.29C218.255 84.6633 217.777 85.165 217.03 85.795C216.097 86.5883 214.942 87.2417 213.565 87.755C212.188 88.245 210.707 88.49 209.12 88.49ZM233.77 78.83C233.77 78.2233 233.723 77.5583 233.63 76.835C233.537 76.1117 233.327 75.3883 233 74.665C232.673 73.9417 232.16 73.3233 231.46 72.81C231.227 72.6233 231.04 72.4367 230.9 72.25C230.783 72.04 230.725 71.7717 230.725 71.445C230.725 70.6983 230.993 70.1733 231.53 69.87C232.067 69.5433 232.65 69.38 233.28 69.38C234.073 69.38 234.832 69.6717 235.555 70.255C236.302 70.815 236.967 71.55 237.55 72.46C238.157 73.37 238.623 74.3617 238.95 75.435C239.277 76.485 239.44 77.5 239.44 78.48C239.44 80.3 239.02 81.9333 238.18 83.38C237.363 84.8267 236.208 85.9817 234.715 86.845C233.222 87.685 231.472 88.105 229.465 88.105C227.972 88.105 226.677 87.86 225.58 87.37C224.507 86.88 223.608 86.215 222.885 85.375C222.185 84.535 221.66 83.6017 221.31 82.575C220.983 81.525 220.82 80.4633 220.82 79.39C220.82 78.13 221.03 76.87 221.45 75.61C221.893 74.35 222.523 73.2067 223.34 72.18C224.18 71.1533 225.183 70.3367 226.35 69.73C227.517 69.1 228.847 68.785 230.34 68.785C230.9 68.785 231.495 68.8433 232.125 68.96C232.755 69.0533 233.303 69.2283 233.77 69.485C234.237 69.7417 234.47 70.115 234.47 70.605C234.47 71.445 234.33 72.1333 234.05 72.67C233.77 73.2067 233.362 73.475 232.825 73.475C232.335 73.475 231.95 73.4283 231.67 73.335C231.39 73.2417 230.947 73.195 230.34 73.195C229.64 73.195 229.01 73.475 228.45 74.035C227.89 74.5717 227.458 75.2833 227.155 76.17C226.852 77.0333 226.7 77.9667 226.7 78.97C226.7 79.9733 226.817 80.825 227.05 81.525C227.307 82.225 227.668 82.7617 228.135 83.135C228.602 83.5083 229.15 83.695 229.78 83.695C230.387 83.695 230.993 83.4967 231.6 83.1C232.207 82.7033 232.72 82.1433 233.14 81.42C233.56 80.6733 233.77 79.81 233.77 78.83ZM243.007 76.17C243.007 75.0967 242.96 74.175 242.867 73.405C242.774 72.635 242.669 71.9817 242.552 71.445C242.459 70.9083 242.412 70.4883 242.412 70.185C242.412 69.6483 242.669 69.1933 243.182 68.82C243.695 68.4467 244.454 68.26 245.457 68.26C246.017 68.26 246.577 68.435 247.137 68.785C247.697 69.1117 248.059 69.6483 248.222 70.395C248.269 70.5817 248.304 70.8967 248.327 71.34C248.35 71.7833 248.35 72.3783 248.327 73.125C248.794 72.145 249.377 71.3283 250.077 70.675C250.8 70.0217 251.547 69.5317 252.317 69.205C253.11 68.8783 253.869 68.715 254.592 68.715C256.762 68.715 258.279 69.45 259.142 70.92C260.005 72.39 260.437 74.5133 260.437 77.29C260.437 78.2233 260.379 79.2617 260.262 80.405C260.145 81.525 259.994 82.645 259.807 83.765C259.62 84.8617 259.434 85.8533 259.247 86.74C259.13 87.3233 258.862 87.7317 258.442 87.965C258.022 88.1983 257.567 88.315 257.077 88.315C255.56 88.315 254.58 88.0933 254.137 87.65C253.694 87.1833 253.554 86.5417 253.717 85.725C254.044 84.325 254.277 82.9367 254.417 81.56C254.557 80.1833 254.627 78.7367 254.627 77.22C254.627 76.03 254.522 75.1433 254.312 74.56C254.125 73.9767 253.694 73.685 253.017 73.685C252.434 73.685 251.909 73.8483 251.442 74.175C250.999 74.5017 250.602 74.9683 250.252 75.575C249.902 76.1583 249.599 76.87 249.342 77.71C249.085 78.55 248.875 79.495 248.712 80.545C248.642 81.0117 248.584 81.5367 248.537 82.12C248.514 82.68 248.502 83.31 248.502 84.01C248.502 84.6867 248.502 85.4333 248.502 86.25C248.502 86.9267 248.28 87.4283 247.837 87.755C247.394 88.0583 246.67 88.21 245.667 88.21C245.224 88.21 244.78 88.14 244.337 88C243.894 87.8367 243.532 87.5917 243.252 87.265C242.972 86.9383 242.832 86.5067 242.832 85.97C242.832 85.5733 242.844 84.99 242.867 84.22C242.89 83.45 242.902 82.5983 242.902 81.665C242.925 80.7317 242.949 79.7867 242.972 78.83C242.995 77.8733 243.007 76.9867 243.007 76.17ZM263.447 78.795C263.447 77.535 263.622 76.31 263.972 75.12C264.345 73.93 264.905 72.8567 265.652 71.9C266.399 70.9433 267.344 70.185 268.487 69.625C269.63 69.065 270.995 68.785 272.582 68.785C273.119 68.785 273.69 68.855 274.297 68.995C274.927 69.1117 275.429 69.2633 275.802 69.45C275.919 68.0733 276.035 66.7667 276.152 65.53C276.292 64.2933 276.444 63.0333 276.607 61.75C276.7 61.3067 276.899 60.9683 277.202 60.735C277.505 60.5017 277.867 60.3383 278.287 60.245C278.707 60.1283 279.104 60.07 279.477 60.07C280.48 60.07 281.25 60.315 281.787 60.805C282.324 61.2717 282.592 61.8317 282.592 62.485C282.592 62.8117 282.522 63.395 282.382 64.235C282.265 65.0517 282.125 65.9967 281.962 67.07C281.822 68.1433 281.694 69.1817 281.577 70.185C281.414 71.7017 281.309 73.2417 281.262 74.805C281.239 76.345 281.227 77.9667 281.227 79.67C281.227 80.86 281.239 82.0267 281.262 83.17C281.309 84.29 281.344 85.3167 281.367 86.25C281.414 86.95 281.145 87.4517 280.562 87.755C280.002 88.035 279.349 88.175 278.602 88.175C277.599 88.175 276.84 88.035 276.327 87.755C275.837 87.475 275.545 86.9733 275.452 86.25C275.429 86.0633 275.405 85.8767 275.382 85.69C275.382 85.48 275.37 85.2933 275.347 85.13C275.347 84.9667 275.347 84.815 275.347 84.675C274.764 85.7483 274.087 86.635 273.317 87.335C272.57 88.0117 271.567 88.35 270.307 88.35C269.094 88.35 268.055 88.07 267.192 87.51C266.329 86.9267 265.617 86.1567 265.057 85.2C264.52 84.2433 264.112 83.205 263.832 82.085C263.575 80.965 263.447 79.8683 263.447 78.795ZM269.362 78.2C269.362 79.2733 269.455 80.2183 269.642 81.035C269.829 81.8517 270.074 82.4817 270.377 82.925C270.704 83.3683 271.089 83.59 271.532 83.59C272.022 83.59 272.465 83.345 272.862 82.855C273.282 82.3417 273.644 81.6767 273.947 80.86C274.274 80.02 274.554 79.1217 274.787 78.165C274.95 77.5817 275.067 77.0567 275.137 76.59C275.23 76.1233 275.3 75.6683 275.347 75.225C275.417 74.7583 275.464 74.2917 275.487 73.825C275.207 73.685 274.927 73.5683 274.647 73.475C274.39 73.3817 274.122 73.3117 273.842 73.265C273.585 73.2183 273.317 73.195 273.037 73.195C272.477 73.195 271.905 73.3583 271.322 73.685C270.762 73.9883 270.295 74.5017 269.922 75.225C269.549 75.9483 269.362 76.94 269.362 78.2ZM286.696 70.78C286.696 70.3133 286.836 69.9283 287.116 69.625C287.396 69.3217 287.758 69.0883 288.201 68.925C288.644 68.7617 289.076 68.68 289.496 68.68C290.476 68.68 291.211 68.855 291.701 69.205C292.191 69.555 292.436 70.08 292.436 70.78C292.436 72.3667 292.389 73.79 292.296 75.05C292.226 76.2867 292.133 77.4883 292.016 78.655C291.923 79.7983 291.829 81 291.736 82.26C291.643 83.52 291.573 84.9667 291.526 86.6C291.503 87.2533 291.234 87.7317 290.721 88.035C290.208 88.3617 289.508 88.525 288.621 88.525C287.804 88.525 287.186 88.4083 286.766 88.175C286.346 87.9417 286.066 87.6617 285.926 87.335C285.786 86.985 285.716 86.635 285.716 86.285C285.716 86.075 285.739 85.5617 285.786 84.745C285.856 83.9283 285.938 82.925 286.031 81.735C286.124 80.545 286.218 79.285 286.311 77.955C286.428 76.625 286.521 75.33 286.591 74.07C286.661 72.81 286.696 71.7133 286.696 70.78ZM286.591 63.115C286.591 62.4617 286.731 61.89 287.011 61.4C287.291 60.91 287.664 60.5367 288.131 60.28C288.621 60 289.158 59.86 289.741 59.86C290.744 59.86 291.503 60.0233 292.016 60.35C292.553 60.6533 292.914 61.0267 293.101 61.47C293.288 61.9133 293.381 62.3333 293.381 62.73C293.381 63.71 293.043 64.4917 292.366 65.075C291.713 65.635 290.861 65.915 289.811 65.915C288.854 65.915 288.073 65.6817 287.466 65.215C286.883 64.725 286.591 64.025 286.591 63.115ZM304.182 88.14C302.736 88.14 301.476 87.8717 300.402 87.335C299.329 86.775 298.442 86.0283 297.742 85.095C297.042 84.1617 296.517 83.135 296.167 82.015C295.817 80.8717 295.642 79.7167 295.642 78.55C295.642 77.22 295.876 75.96 296.342 74.77C296.809 73.5567 297.462 72.495 298.302 71.585C299.166 70.675 300.192 69.9633 301.382 69.45C302.572 68.9133 303.902 68.645 305.372 68.645C306.259 68.645 307.099 68.7617 307.892 68.995C308.709 69.205 309.479 69.5667 310.202 70.08C310.926 70.5933 311.579 71.305 312.162 72.215C312.302 72.425 312.396 72.635 312.442 72.845C312.512 73.0317 312.547 73.23 312.547 73.44C312.547 73.8367 312.396 74.1983 312.092 74.525C311.812 74.8283 311.474 75.0733 311.077 75.26C310.704 75.4467 310.342 75.54 309.992 75.54C309.689 75.54 309.421 75.4583 309.187 75.295C308.977 75.1317 308.756 74.8983 308.522 74.595C308.102 74.0117 307.636 73.615 307.122 73.405C306.609 73.1717 306.072 73.055 305.512 73.055C304.976 73.055 304.462 73.1833 303.972 73.44C303.506 73.6967 303.086 74.07 302.712 74.56C302.339 75.05 302.047 75.645 301.837 76.345C301.627 77.0217 301.522 77.7917 301.522 78.655C301.522 79.3317 301.627 80.055 301.837 80.825C302.071 81.5717 302.432 82.2133 302.922 82.75C303.412 83.2867 304.031 83.555 304.777 83.555C305.687 83.555 306.469 83.31 307.122 82.82C307.776 82.33 308.394 81.7583 308.977 81.105C309.187 80.8717 309.374 80.72 309.537 80.65C309.724 80.5567 309.946 80.51 310.202 80.51C310.552 80.51 310.914 80.6267 311.287 80.86C311.684 81.0933 312.022 81.3967 312.302 81.77C312.582 82.12 312.722 82.4933 312.722 82.89C312.722 83.0533 312.699 83.2517 312.652 83.485C312.606 83.695 312.466 83.9283 312.232 84.185C311.182 85.4683 309.922 86.4483 308.452 87.125C306.982 87.8017 305.559 88.14 304.182 88.14ZM304.054 97.17C303.471 97.17 302.876 97.1117 302.269 96.995C301.639 96.8783 301.079 96.6917 300.589 96.435C300.309 96.2717 300.134 96.0617 300.064 95.805C299.994 95.5717 300.006 95.3033 300.099 95C300.193 94.6733 300.344 94.37 300.554 94.09C300.764 93.8333 301.091 93.7633 301.534 93.88C301.744 93.9267 302.036 93.9967 302.409 94.09C302.783 94.1833 303.133 94.23 303.459 94.23C303.879 94.23 304.183 94.1367 304.369 93.95C304.579 93.7867 304.684 93.5533 304.684 93.25C304.684 92.83 304.533 92.5383 304.229 92.375C303.949 92.235 303.599 92.2233 303.179 92.34C302.876 92.41 302.596 92.41 302.339 92.34C302.059 92.27 301.861 92.1533 301.744 91.99C301.651 91.8033 301.616 91.5817 301.639 91.325C301.663 91.0683 301.744 90.7767 301.884 90.45L302.899 88H305.874L304.684 90.765L303.529 90.135C304.696 89.9017 305.653 89.89 306.399 90.1C307.146 90.3333 307.694 90.7417 308.044 91.325C308.418 91.9083 308.604 92.5967 308.604 93.39C308.604 94.51 308.196 95.42 307.379 96.12C306.586 96.82 305.478 97.17 304.054 97.17ZM324.649 68.645C325.209 68.645 325.862 68.7033 326.609 68.82C327.356 68.9367 328.056 69.1 328.709 69.31C329.386 69.52 329.899 69.7767 330.249 70.08C331.369 70.9433 332.186 72.075 332.699 73.475C333.212 74.875 333.469 76.3683 333.469 77.955C333.469 79.2383 333.294 80.4983 332.944 81.735C332.594 82.9483 332.057 84.045 331.334 85.025C330.611 86.005 329.701 86.7867 328.604 87.37C327.507 87.9533 326.212 88.245 324.719 88.245C323.016 88.245 321.546 87.9883 320.309 87.475C319.072 86.9617 318.046 86.25 317.229 85.34C316.436 84.43 315.841 83.3917 315.444 82.225C315.071 81.0583 314.884 79.8217 314.884 78.515C314.884 77.255 315.071 76.0417 315.444 74.875C315.841 73.685 316.436 72.635 317.229 71.725C318.046 70.7917 319.061 70.045 320.274 69.485C321.511 68.925 322.969 68.645 324.649 68.645ZM320.729 78.34C320.729 79.2033 320.857 80.055 321.114 80.895C321.371 81.7117 321.779 82.3883 322.339 82.925C322.899 83.4617 323.611 83.73 324.474 83.73C325.057 83.73 325.547 83.5667 325.944 83.24C326.364 82.89 326.691 82.4467 326.924 81.91C327.181 81.35 327.356 80.755 327.449 80.125C327.566 79.4717 327.624 78.8417 327.624 78.235C327.624 76.905 327.449 75.855 327.099 75.085C326.772 74.315 326.329 73.7317 325.769 73.335C325.512 73.265 325.279 73.2183 325.069 73.195C324.882 73.1483 324.672 73.125 324.439 73.125C323.762 73.125 323.179 73.2767 322.689 73.58C322.199 73.8833 321.814 74.28 321.534 74.77C321.254 75.26 321.044 75.8083 320.904 76.415C320.787 77.0217 320.729 77.6633 320.729 78.34ZM328.045 65.635C327.228 65.635 326.551 65.565 326.015 65.425C325.478 65.2617 325.011 65.075 324.615 64.865C324.241 64.655 323.891 64.48 323.565 64.34C323.238 64.1767 322.888 64.095 322.515 64.095C322.001 64.095 321.733 64.48 321.71 65.25C321.686 65.53 321.511 65.7517 321.185 65.915C320.858 66.0783 320.496 66.16 320.1 66.16C319.68 66.16 319.318 66.055 319.015 65.845C318.688 65.6117 318.525 65.25 318.525 64.76C318.571 63.29 318.945 62.1 319.645 61.19C320.321 60.2567 321.29 59.79 322.55 59.79C323.18 59.79 323.716 59.8717 324.16 60.035C324.626 60.175 325.035 60.35 325.385 60.56C325.758 60.77 326.12 60.9567 326.47 61.12C326.843 61.26 327.251 61.33 327.695 61.33C328.045 61.33 328.313 61.225 328.5 61.015C328.71 60.7817 328.873 60.455 328.99 60.035C329.06 59.7083 329.258 59.4983 329.585 59.405C329.935 59.3117 330.296 59.3233 330.67 59.44C331.066 59.5333 331.405 59.7083 331.685 59.965C331.965 60.2217 332.081 60.5367 332.035 60.91C331.801 62.45 331.3 63.6283 330.53 64.445C329.783 65.2383 328.955 65.635 328.045 65.635ZM335.699 79.46C335.699 78.3167 335.885 77.1267 336.259 75.89C336.655 74.6533 337.239 73.4983 338.009 72.425C338.802 71.3517 339.817 70.4883 341.054 69.835C342.29 69.1583 343.749 68.82 345.429 68.82C346.712 68.82 347.809 69.0067 348.719 69.38C349.652 69.73 350.375 70.255 350.889 70.955C351.402 71.655 351.659 72.5183 351.659 73.545C351.659 74.735 351.344 75.7967 350.714 76.73C350.107 77.6633 349.29 78.4683 348.264 79.145C347.26 79.8217 346.175 80.37 345.009 80.79C343.842 81.1867 342.71 81.455 341.614 81.595C341.917 82.575 342.384 83.2633 343.014 83.66C343.667 84.0567 344.53 84.255 345.604 84.255C346.514 84.255 347.365 84.0333 348.159 83.59C348.952 83.1467 349.78 82.4583 350.644 81.525C350.784 81.385 350.935 81.28 351.099 81.21C351.285 81.14 351.46 81.105 351.624 81.105C352.02 81.105 352.394 81.2333 352.744 81.49C353.094 81.7233 353.362 82.0267 353.549 82.4C353.759 82.7733 353.864 83.1233 353.864 83.45C353.864 83.6133 353.817 83.8 353.724 84.01C353.63 84.22 353.525 84.4067 353.409 84.57C352.802 85.41 352.044 86.1333 351.134 86.74C350.224 87.3233 349.22 87.7667 348.124 88.07C347.027 88.3733 345.872 88.525 344.659 88.525C342.629 88.525 340.949 88.0933 339.619 87.23C338.289 86.3433 337.297 85.2117 336.644 83.835C336.014 82.435 335.699 80.9767 335.699 79.46ZM341.404 77.745C342.57 77.5583 343.527 77.2667 344.274 76.87C345.044 76.45 345.615 75.9833 345.989 75.47C346.362 74.9567 346.549 74.4667 346.549 74C346.549 73.6967 346.432 73.4167 346.199 73.16C345.965 72.88 345.557 72.74 344.974 72.74C344.414 72.74 343.877 72.8917 343.364 73.195C342.874 73.475 342.454 73.9767 342.104 74.7C341.754 75.4233 341.52 76.4383 341.404 77.745ZM370.295 72.565C370.295 73.0783 370.085 73.5333 369.665 73.93C369.269 74.3033 368.709 74.49 367.985 74.49C367.659 74.49 367.344 74.4317 367.04 74.315C366.76 74.1983 366.515 74.07 366.305 73.93C365.815 73.6267 365.337 73.3467 364.87 73.09C364.427 72.81 363.902 72.67 363.295 72.67C362.829 72.67 362.444 72.775 362.14 72.985C361.837 73.1717 361.685 73.4517 361.685 73.825C361.685 74.0583 361.767 74.2917 361.93 74.525C362.094 74.735 362.455 75.0033 363.015 75.33C363.599 75.6567 364.497 76.1233 365.71 76.73C367.017 77.36 368.032 78.1533 368.755 79.11C369.502 80.0433 369.875 81.315 369.875 82.925C369.875 83.905 369.572 84.8267 368.965 85.69C368.382 86.5533 367.507 87.265 366.34 87.825C365.197 88.385 363.762 88.665 362.035 88.665C361.242 88.665 360.425 88.5367 359.585 88.28C358.769 88.0467 358.01 87.7317 357.31 87.335C356.634 86.915 356.074 86.4483 355.63 85.935C355.21 85.4217 355 84.8967 355 84.36C355 83.6833 355.175 83.1467 355.525 82.75C355.875 82.33 356.295 82.12 356.785 82.12C357.042 82.12 357.299 82.19 357.555 82.33C357.835 82.47 358.127 82.645 358.43 82.855C358.687 83.0183 359.025 83.2167 359.445 83.45C359.889 83.6833 360.355 83.8933 360.845 84.08C361.359 84.2433 361.814 84.325 362.21 84.325C362.794 84.325 363.249 84.185 363.575 83.905C363.902 83.625 364.065 83.2867 364.065 82.89C364.065 82.61 363.937 82.33 363.68 82.05C363.424 81.77 362.98 81.4783 362.35 81.175C360.11 80.125 358.489 79.0867 357.485 78.06C356.505 77.0333 356.015 75.82 356.015 74.42C356.015 73.3933 356.295 72.4367 356.855 71.55C357.439 70.6633 358.267 69.9517 359.34 69.415C360.437 68.855 361.767 68.575 363.33 68.575C364.87 68.575 366.154 68.785 367.18 69.205C368.23 69.625 369.012 70.15 369.525 70.78C370.039 71.41 370.295 72.005 370.295 72.565ZM383.349 80.51C383.023 80.4167 382.778 80.2067 382.614 79.88C382.451 79.5533 382.416 79.0983 382.509 78.515C382.579 77.9317 382.754 77.4417 383.034 77.045C383.314 76.6483 383.723 76.485 384.259 76.555C384.376 76.555 384.691 76.6367 385.204 76.8C385.718 76.94 386.406 77.08 387.269 77.22C388.133 77.36 389.113 77.43 390.209 77.43C390.909 77.43 391.563 77.3017 392.169 77.045C392.776 76.765 393.266 76.3917 393.639 75.925C394.013 75.435 394.199 74.875 394.199 74.245C394.199 73.755 394.071 73.4167 393.814 73.23C393.558 73.0433 393.254 72.95 392.904 72.95C392.414 72.95 391.959 73.0783 391.539 73.335C391.143 73.5917 390.793 73.9883 390.489 74.525C390.186 75.0383 389.953 75.68 389.789 76.45C389.626 77.22 389.544 78.1067 389.544 79.11C389.544 80.02 389.661 80.825 389.894 81.525C390.128 82.225 390.466 82.7733 390.909 83.17C391.376 83.5667 391.948 83.765 392.624 83.765C393.184 83.765 393.744 83.6833 394.304 83.52C394.864 83.3333 395.378 83.0417 395.844 82.645C395.984 82.5283 396.124 82.4467 396.264 82.4C396.428 82.33 396.614 82.295 396.824 82.295C397.314 82.295 397.699 82.4233 397.979 82.68C398.259 82.9133 398.469 83.205 398.609 83.555C398.749 83.905 398.819 84.255 398.819 84.605C398.819 85.0717 398.679 85.515 398.399 85.935C398.143 86.3317 397.664 86.705 396.964 87.055C396.241 87.4283 395.483 87.72 394.689 87.93C393.896 88.14 393.021 88.245 392.064 88.245C390.454 88.245 389.054 87.8717 387.864 87.125C386.698 86.355 385.788 85.2817 385.134 83.905C384.504 82.5283 384.189 80.9067 384.189 79.04C384.189 77.57 384.388 76.2283 384.784 75.015C385.204 73.8017 385.799 72.74 386.569 71.83C387.339 70.92 388.249 70.22 389.299 69.73C390.373 69.24 391.586 68.995 392.939 68.995C394.036 68.995 395.063 69.2167 396.019 69.66C396.999 70.08 397.793 70.675 398.399 71.445C399.006 72.215 399.309 73.125 399.309 74.175C399.309 75.3883 398.983 76.5433 398.329 77.64C397.676 78.7133 396.673 79.5883 395.319 80.265C393.966 80.9417 392.239 81.28 390.139 81.28C389.626 81.28 389.008 81.2567 388.284 81.21C387.561 81.1633 386.849 81.0933 386.149 81C385.449 80.9067 384.843 80.825 384.329 80.755C383.816 80.6617 383.489 80.58 383.349 80.51ZM415.085 70.465C415.482 70.8617 415.75 71.2467 415.89 71.62C416.053 71.97 416.135 72.3783 416.135 72.845C416.135 73.4983 415.925 74.0117 415.505 74.385C415.085 74.7583 414.607 74.945 414.07 74.945C413.743 74.945 413.44 74.875 413.16 74.735C412.88 74.5717 412.623 74.3617 412.39 74.105C412.11 73.755 411.678 73.4167 411.095 73.09C410.512 72.74 409.87 72.565 409.17 72.565C408.657 72.565 408.237 72.705 407.91 72.985C407.583 73.2417 407.42 73.545 407.42 73.895C407.42 74.315 407.7 74.7 408.26 75.05C408.82 75.3767 409.707 75.7967 410.92 76.31C411.877 76.7067 412.728 77.1617 413.475 77.675C414.222 78.1883 414.805 78.83 415.225 79.6C415.645 80.37 415.855 81.35 415.855 82.54C415.855 83.6367 415.528 84.64 414.875 85.55C414.222 86.4367 413.335 87.1367 412.215 87.65C411.095 88.1633 409.823 88.42 408.4 88.42C407.14 88.42 405.903 88.2567 404.69 87.93C403.5 87.6033 402.473 87.0667 401.61 86.32C401.26 86.0167 401.003 85.6783 400.84 85.305C400.7 84.9317 400.63 84.57 400.63 84.22C400.653 83.66 400.84 83.17 401.19 82.75C401.54 82.33 401.995 82.12 402.555 82.12C402.882 82.12 403.173 82.1783 403.43 82.295C403.71 82.3883 404.002 82.5283 404.305 82.715C404.748 82.995 405.262 83.2867 405.845 83.59C406.452 83.87 407.187 84.01 408.05 84.01C408.61 84.01 409.03 83.9517 409.31 83.835C409.59 83.7183 409.788 83.5667 409.905 83.38C410.022 83.1933 410.08 83.0183 410.08 82.855C410.08 82.575 409.987 82.33 409.8 82.12C409.613 81.8867 409.252 81.6183 408.715 81.315C408.178 81.0117 407.362 80.6383 406.265 80.195C405.262 79.7983 404.433 79.3317 403.78 78.795C403.15 78.235 402.672 77.605 402.345 76.905C402.018 76.1817 401.855 75.3533 401.855 74.42C401.855 73.2767 402.147 72.2617 402.73 71.375C403.337 70.4883 404.2 69.7883 405.32 69.275C406.44 68.7383 407.817 68.47 409.45 68.47C410.173 68.47 410.908 68.5633 411.655 68.75C412.425 68.9133 413.113 69.1467 413.72 69.45C414.327 69.7533 414.782 70.0917 415.085 70.465ZM419.646 71.69C419.692 70.85 419.926 70.29 420.346 70.01C420.766 69.7067 421.384 69.555 422.201 69.555C423.181 69.555 423.939 69.6833 424.476 69.94C425.036 70.1967 425.316 70.6167 425.316 71.2C425.316 71.2933 425.304 71.4217 425.281 71.585C425.281 71.725 425.269 71.9117 425.246 72.145C425.852 71.305 426.611 70.6167 427.521 70.08C428.454 69.5433 429.364 69.275 430.251 69.275C431.557 69.275 432.666 69.5317 433.576 70.045C434.486 70.535 435.232 71.2 435.816 72.04C436.399 72.88 436.819 73.825 437.076 74.875C437.332 75.925 437.461 77.01 437.461 78.13C437.461 79.95 437.192 81.5017 436.656 82.785C436.119 84.045 435.407 85.0833 434.521 85.9C433.657 86.6933 432.712 87.2767 431.686 87.65C430.659 88 429.644 88.175 428.641 88.175C427.754 88.175 426.984 88.105 426.331 87.965C425.701 87.825 425.106 87.6383 424.546 87.405L424.161 95.945C424.137 96.6683 423.822 97.17 423.216 97.45C422.609 97.73 421.886 97.87 421.046 97.87C420.369 97.87 419.774 97.7183 419.261 97.415C418.747 97.135 418.502 96.5983 418.526 95.805L419.646 71.69ZM424.686 83.345C424.966 83.4383 425.339 83.555 425.806 83.695C426.296 83.835 426.914 83.905 427.661 83.905C428.571 83.905 429.306 83.6367 429.866 83.1C430.449 82.54 430.869 81.8283 431.126 80.965C431.406 80.0783 431.546 79.145 431.546 78.165C431.546 77.325 431.441 76.5667 431.231 75.89C431.044 75.2133 430.776 74.6767 430.426 74.28C430.099 73.8833 429.679 73.685 429.166 73.685C428.442 73.685 427.801 73.8833 427.241 74.28C426.681 74.6767 426.237 75.1667 425.911 75.75C425.631 76.24 425.421 76.6833 425.281 77.08C425.141 77.4533 425.012 77.8967 424.896 78.41C424.849 79.2033 424.814 80.0317 424.791 80.895C424.767 81.735 424.732 82.5517 424.686 83.345ZM444.812 81.665L444.637 77.92C445.99 77.7567 447.11 77.4767 447.997 77.08C448.883 76.6833 449.548 76.2167 449.992 75.68C450.435 75.1433 450.657 74.6067 450.657 74.07C450.657 73.6033 450.528 73.2883 450.272 73.125C450.038 72.9383 449.723 72.845 449.327 72.845C448.907 72.845 448.475 72.985 448.032 73.265C447.588 73.545 447.18 73.93 446.807 74.42C446.457 74.91 446.165 75.4933 445.932 76.17C445.698 76.8233 445.582 77.5467 445.582 78.34C445.582 79.9033 445.757 81.14 446.107 82.05C446.48 82.9367 446.97 83.5783 447.577 83.975C448.207 84.3483 448.93 84.535 449.747 84.535C450.54 84.535 451.217 84.395 451.777 84.115C452.36 83.835 452.932 83.4033 453.492 82.82C453.748 82.54 454.017 82.295 454.297 82.085C454.6 81.8517 454.938 81.735 455.312 81.735C455.778 81.735 456.152 81.8633 456.432 82.12C456.735 82.3767 456.945 82.6917 457.062 83.065C457.202 83.4383 457.272 83.7883 457.272 84.115C457.272 84.3483 457.225 84.5933 457.132 84.85C457.062 85.1067 456.91 85.375 456.677 85.655C456.187 86.3083 455.522 86.8567 454.682 87.3C453.842 87.7433 452.943 88.0817 451.987 88.315C451.053 88.5483 450.12 88.665 449.187 88.665C447.95 88.665 446.772 88.455 445.652 88.035C444.555 87.615 443.575 86.9967 442.712 86.18C441.848 85.34 441.172 84.3133 440.682 83.1C440.192 81.8633 439.947 80.4517 439.947 78.865C439.947 77.2083 440.227 75.7733 440.787 74.56C441.347 73.3233 442.093 72.2967 443.027 71.48C443.96 70.64 444.998 70.0217 446.142 69.625C447.285 69.205 448.44 68.995 449.607 68.995C450.843 68.995 451.94 69.1817 452.897 69.555C453.853 69.9283 454.6 70.4883 455.137 71.235C455.673 71.9583 455.942 72.88 455.942 74C455.942 74.6533 455.79 75.365 455.487 76.135C455.183 76.8817 454.635 77.6283 453.842 78.375C453.072 79.0983 451.952 79.7517 450.482 80.335C449.012 80.9183 447.122 81.3617 444.812 81.665ZM474.806 70.955C475.109 71.235 475.296 71.5033 475.366 71.76C475.459 71.9933 475.506 72.2267 475.506 72.46C475.506 72.7867 475.377 73.125 475.121 73.475C474.887 73.825 474.596 74.1283 474.246 74.385C473.896 74.6183 473.569 74.735 473.266 74.735C473.009 74.735 472.764 74.6883 472.531 74.595C472.321 74.5017 472.111 74.3967 471.901 74.28C471.481 74.0233 471.002 73.8133 470.466 73.65C469.929 73.4867 469.392 73.405 468.856 73.405C468.342 73.405 467.771 73.5683 467.141 73.895C466.511 74.1983 465.974 74.735 465.531 75.505C465.087 76.2517 464.866 77.29 464.866 78.62C464.866 79.6467 465.017 80.545 465.321 81.315C465.647 82.0617 466.091 82.645 466.651 83.065C467.211 83.4617 467.841 83.66 468.541 83.66C469.404 83.66 470.186 83.415 470.886 82.925C471.586 82.435 472.204 81.5833 472.741 80.37C472.927 79.9967 473.172 79.7283 473.476 79.565C473.802 79.4017 474.199 79.32 474.666 79.32C475.226 79.32 475.692 79.495 476.066 79.845C476.462 80.1717 476.661 80.6617 476.661 81.315C476.661 81.8283 476.544 82.3767 476.311 82.96C476.077 83.5433 475.821 84.0333 475.541 84.43C475.261 84.85 474.806 85.3633 474.176 85.97C473.569 86.5533 472.764 87.0783 471.761 87.545C470.757 87.9883 469.497 88.21 467.981 88.21C466.347 88.21 464.959 87.9417 463.816 87.405C462.696 86.845 461.786 86.11 461.086 85.2C460.386 84.2667 459.872 83.24 459.546 82.12C459.219 80.9767 459.056 79.8217 459.056 78.655C459.056 76.625 459.464 74.8867 460.281 73.44C461.121 71.9933 462.252 70.885 463.676 70.115C465.099 69.345 466.732 68.96 468.576 68.96C470.022 68.96 471.271 69.1583 472.321 69.555C473.371 69.9283 474.199 70.395 474.806 70.955ZM480.07 62.24C480.07 61.6567 480.338 61.12 480.875 60.63C481.411 60.1167 482.228 59.86 483.325 59.86C483.885 59.86 484.421 59.9767 484.935 60.21C485.448 60.4433 485.868 60.7817 486.195 61.225C486.545 61.645 486.72 62.1817 486.72 62.835C486.72 63.2783 486.591 63.7333 486.335 64.2C486.078 64.6667 485.74 65.0517 485.32 65.355C484.9 65.6583 484.445 65.81 483.955 65.81C483.325 65.81 482.788 65.6817 482.345 65.425C481.901 65.1683 481.563 64.8183 481.33 64.375C481.096 64.2117 480.828 63.955 480.525 63.605C480.221 63.255 480.07 62.8 480.07 62.24ZM480.735 70.29C480.828 69.7533 481.026 69.3683 481.33 69.135C481.656 68.8783 482.03 68.715 482.45 68.645C482.87 68.5517 483.266 68.505 483.64 68.505C484.316 68.505 484.911 68.6567 485.425 68.96C485.961 69.24 486.195 69.7417 486.125 70.465C486.055 71.1883 485.973 71.9467 485.88 72.74C485.786 73.5333 485.716 74.3967 485.67 75.33C485.623 76.2633 485.6 77.3133 485.6 78.48C485.6 79.2267 485.611 79.9617 485.635 80.685C485.658 81.4083 485.693 82.12 485.74 82.82C485.786 83.52 485.833 84.185 485.88 84.815C485.95 85.445 486.008 86.0167 486.055 86.53C486.125 87.0667 485.985 87.4867 485.635 87.79C485.285 88.0933 484.865 88.315 484.375 88.455C483.885 88.595 483.441 88.665 483.045 88.665C482.251 88.665 481.656 88.35 481.26 87.72C480.863 87.0667 480.583 86.1217 480.42 84.885C480.28 83.625 480.21 82.085 480.21 80.265C480.21 79.215 480.221 78.2117 480.245 77.255C480.268 76.275 480.303 75.3533 480.35 74.49C480.396 73.6033 480.443 72.81 480.49 72.11C480.56 71.3867 480.641 70.78 480.735 70.29ZM489.58 79.67C489.58 78.2933 489.802 76.9633 490.245 75.68C490.712 74.3967 491.354 73.2417 492.17 72.215C493.01 71.1883 493.99 70.3833 495.11 69.8C496.23 69.1933 497.467 68.89 498.82 68.89C499.45 68.89 500.115 68.995 500.815 69.205C501.515 69.415 502.25 69.7767 503.02 70.29C503.137 69.6833 503.405 69.2867 503.825 69.1C504.269 68.89 504.712 68.785 505.155 68.785C506.019 68.785 506.707 69.0067 507.22 69.45C507.757 69.8933 508.025 70.57 508.025 71.48C508.025 71.8767 507.979 72.425 507.885 73.125C507.792 73.8017 507.675 74.5367 507.535 75.33C507.395 76.1 507.255 76.8467 507.115 77.57C506.975 78.27 506.859 78.8417 506.765 79.285C506.695 79.985 506.66 80.6967 506.66 81.42C506.66 81.91 506.707 82.3767 506.8 82.82C506.894 83.2633 507.022 83.625 507.185 83.905C507.349 84.185 507.547 84.325 507.78 84.325C508.084 84.325 508.305 84.2667 508.445 84.15C508.585 84.01 508.69 83.835 508.76 83.625C508.83 83.415 508.924 83.205 509.04 82.995C509.18 82.715 509.39 82.4817 509.67 82.295C509.974 82.085 510.324 81.98 510.72 81.98C511.187 81.98 511.607 82.12 511.98 82.4C512.354 82.68 512.54 83.135 512.54 83.765C512.54 84.1383 512.459 84.57 512.295 85.06C512.132 85.55 511.864 86.005 511.49 86.425C511.187 86.7983 510.802 87.1367 510.335 87.44C509.892 87.72 509.379 87.9417 508.795 88.105C508.235 88.2917 507.594 88.385 506.87 88.385C506.007 88.385 505.307 88.2333 504.77 87.93C504.234 87.6267 503.79 87.2417 503.44 86.775C503.09 86.285 502.775 85.76 502.495 85.2C501.889 85.9 501.049 86.53 499.975 87.09C498.925 87.65 497.724 87.93 496.37 87.93C495.227 87.93 494.224 87.685 493.36 87.195C492.497 86.705 491.785 86.0633 491.225 85.27C490.665 84.4767 490.245 83.59 489.965 82.61C489.709 81.63 489.58 80.65 489.58 79.67ZM495.53 79.565C495.53 80.1483 495.589 80.6733 495.705 81.14C495.845 81.5833 496.032 81.9683 496.265 82.295C496.499 82.6217 496.767 82.8667 497.07 83.03C497.374 83.1933 497.7 83.275 498.05 83.275C498.634 83.275 499.135 83.1 499.555 82.75C499.975 82.3767 500.325 81.8167 500.605 81.07C500.909 80.3233 501.177 79.3783 501.41 78.235C501.644 77.0917 501.865 75.7383 502.075 74.175C501.632 73.825 501.224 73.5683 500.85 73.405C500.477 73.2183 500.08 73.125 499.66 73.125C499.147 73.125 498.68 73.2417 498.26 73.475C497.84 73.685 497.455 73.9883 497.105 74.385C496.779 74.7583 496.499 75.2133 496.265 75.75C496.032 76.2867 495.845 76.8817 495.705 77.535C495.589 78.165 495.53 78.8417 495.53 79.565ZM514.826 70.85C514.872 70.1033 515.176 69.6017 515.736 69.345C516.319 69.065 516.972 68.925 517.696 68.925C518.116 68.925 518.524 68.9833 518.921 69.1C519.341 69.2167 519.679 69.415 519.936 69.695C520.216 69.975 520.344 70.36 520.321 70.85C520.274 71.62 520.239 72.5067 520.216 73.51C520.216 74.49 520.227 75.5167 520.251 76.59C520.274 77.64 520.321 78.6667 520.391 79.67C520.461 80.65 520.542 81.5367 520.636 82.33C520.799 83.4733 520.939 84.3833 521.056 85.06C521.196 85.7367 521.266 86.2733 521.266 86.67C521.266 87.1367 521.044 87.5333 520.601 87.86C520.181 88.1633 519.516 88.315 518.606 88.315C518.092 88.315 517.567 88.2333 517.031 88.07C516.517 87.93 516.156 87.6033 515.946 87.09C515.806 86.7633 515.666 86.1683 515.526 85.305C515.386 84.4417 515.257 83.4383 515.141 82.295C515.024 81.1283 514.931 79.9267 514.861 78.69C514.791 77.43 514.756 76.24 514.756 75.12C514.756 74.3733 514.756 73.7433 514.756 73.23C514.779 72.7167 514.791 72.2733 514.791 71.9C514.814 71.5267 514.826 71.1767 514.826 70.85ZM514.721 62.1C514.721 61.6333 514.884 61.2133 515.211 60.84C515.537 60.4433 515.946 60.1283 516.436 59.895C516.949 59.6617 517.462 59.545 517.976 59.545C518.396 59.545 518.874 59.65 519.411 59.86C519.971 60.07 520.461 60.385 520.881 60.805C521.301 61.2017 521.511 61.6683 521.511 62.205C521.511 62.7183 521.382 63.22 521.126 63.71C520.869 64.1767 520.519 64.5617 520.076 64.865C519.632 65.1683 519.131 65.32 518.571 65.32C518.057 65.32 517.497 65.215 516.891 65.005C516.307 64.7717 515.794 64.4217 515.351 63.955C514.931 63.465 514.721 62.8467 514.721 62.1ZM536.183 69.38C536.883 69.66 537.454 70.045 537.898 70.535C538.341 71.025 538.563 71.6083 538.563 72.285C538.563 72.8683 538.388 73.37 538.038 73.79C537.688 74.21 537.198 74.42 536.568 74.42C536.218 74.42 535.891 74.3383 535.588 74.175C535.284 73.9883 534.981 73.7783 534.678 73.545C534.374 73.3117 534.013 73.1133 533.593 72.95C533.196 72.7633 532.694 72.67 532.088 72.67C531.574 72.67 531.189 72.775 530.933 72.985C530.676 73.195 530.548 73.4283 530.548 73.685C530.548 74.105 530.688 74.4433 530.968 74.7C531.248 74.9333 531.714 75.2133 532.368 75.54C534.024 76.3567 535.319 77.15 536.253 77.92C537.186 78.6667 537.851 79.425 538.248 80.195C538.644 80.965 538.843 81.8167 538.843 82.75C538.843 83.9167 538.481 84.9317 537.758 85.795C537.058 86.635 536.066 87.3 534.783 87.79C533.523 88.28 532.053 88.5483 530.373 88.595C529.836 88.595 529.253 88.56 528.623 88.49C527.993 88.4433 527.363 88.3267 526.733 88.14C526.103 87.9767 525.519 87.7433 524.983 87.44C524.469 87.1367 524.049 86.775 523.723 86.355C523.396 85.9117 523.233 85.4217 523.233 84.885C523.233 84.255 523.466 83.7183 523.933 83.275C524.399 82.8317 524.901 82.61 525.438 82.61C525.694 82.61 525.963 82.6917 526.243 82.855C526.546 83.0183 526.826 83.17 527.083 83.31C527.526 83.4967 527.993 83.7067 528.483 83.94C528.996 84.15 529.626 84.255 530.373 84.255C530.886 84.255 531.341 84.1967 531.738 84.08C532.134 83.9633 532.438 83.8 532.648 83.59C532.858 83.3567 532.963 83.1 532.963 82.82C532.963 82.5167 532.823 82.2483 532.543 82.015C532.263 81.7583 531.796 81.4783 531.143 81.175C529.929 80.5917 528.844 79.985 527.888 79.355C526.931 78.725 526.161 78.025 525.578 77.255C525.018 76.4617 524.738 75.575 524.738 74.595C524.738 73.3117 525.053 72.2267 525.683 71.34C526.313 70.43 527.153 69.7417 528.203 69.275C529.276 68.785 530.443 68.54 531.703 68.54C532.379 68.54 533.138 68.61 533.978 68.75C534.841 68.89 535.576 69.1 536.183 69.38ZM551.035 80.51C550.708 80.4167 550.463 80.2067 550.3 79.88C550.136 79.5533 550.101 79.0983 550.195 78.515C550.265 77.9317 550.44 77.4417 550.72 77.045C551 76.6483 551.408 76.485 551.945 76.555C552.061 76.555 552.376 76.6367 552.89 76.8C553.403 76.94 554.091 77.08 554.955 77.22C555.818 77.36 556.798 77.43 557.895 77.43C558.595 77.43 559.248 77.3017 559.855 77.045C560.461 76.765 560.951 76.3917 561.325 75.925C561.698 75.435 561.885 74.875 561.885 74.245C561.885 73.755 561.756 73.4167 561.5 73.23C561.243 73.0433 560.94 72.95 560.59 72.95C560.1 72.95 559.645 73.0783 559.225 73.335C558.828 73.5917 558.478 73.9883 558.175 74.525C557.871 75.0383 557.638 75.68 557.475 76.45C557.311 77.22 557.23 78.1067 557.23 79.11C557.23 80.02 557.346 80.825 557.58 81.525C557.813 82.225 558.151 82.7733 558.595 83.17C559.061 83.5667 559.633 83.765 560.31 83.765C560.87 83.765 561.43 83.6833 561.99 83.52C562.55 83.3333 563.063 83.0417 563.53 82.645C563.67 82.5283 563.81 82.4467 563.95 82.4C564.113 82.33 564.3 82.295 564.51 82.295C565 82.295 565.385 82.4233 565.665 82.68C565.945 82.9133 566.155 83.205 566.295 83.555C566.435 83.905 566.505 84.255 566.505 84.605C566.505 85.0717 566.365 85.515 566.085 85.935C565.828 86.3317 565.35 86.705 564.65 87.055C563.926 87.4283 563.168 87.72 562.375 87.93C561.581 88.14 560.706 88.245 559.75 88.245C558.14 88.245 556.74 87.8717 555.55 87.125C554.383 86.355 553.473 85.2817 552.82 83.905C552.19 82.5283 551.875 80.9067 551.875 79.04C551.875 77.57 552.073 76.2283 552.47 75.015C552.89 73.8017 553.485 72.74 554.255 71.83C555.025 70.92 555.935 70.22 556.985 69.73C558.058 69.24 559.271 68.995 560.625 68.995C561.721 68.995 562.748 69.2167 563.705 69.66C564.685 70.08 565.478 70.675 566.085 71.445C566.691 72.215 566.995 73.125 566.995 74.175C566.995 75.3883 566.668 76.5433 566.015 77.64C565.361 78.7133 564.358 79.5883 563.005 80.265C561.651 80.9417 559.925 81.28 557.825 81.28C557.311 81.28 556.693 81.2567 555.97 81.21C555.246 81.1633 554.535 81.0933 553.835 81C553.135 80.9067 552.528 80.825 552.015 80.755C551.501 80.6617 551.175 80.58 551.035 80.51ZM581.527 70.185C581.644 69.5783 581.936 69.17 582.402 68.96C582.892 68.7267 583.464 68.61 584.117 68.61C584.957 68.61 585.657 68.7967 586.217 69.17C586.777 69.5433 586.987 70.22 586.847 71.2C586.684 72.7167 586.567 74.1517 586.497 75.505C586.427 76.8583 586.369 78.1533 586.322 79.39C586.299 80.6267 586.276 81.8167 586.252 82.96C586.229 84.08 586.182 85.1767 586.112 86.25C586.042 87.09 585.786 87.6733 585.342 88C584.922 88.3267 584.292 88.49 583.452 88.49C582.402 88.49 581.656 88.3033 581.212 87.93C580.769 87.5333 580.582 86.8917 580.652 86.005C580.676 85.5617 580.699 84.8733 580.722 83.94C580.746 82.9833 580.769 81.8867 580.792 80.65C580.839 79.4133 580.886 78.1417 580.932 76.835C581.002 75.505 581.084 74.2683 581.177 73.125C581.271 71.9583 581.387 70.9783 581.527 70.185ZM580.967 62.555C580.967 61.8317 581.247 61.1783 581.807 60.595C582.367 60.0117 583.196 59.72 584.292 59.72C585.249 59.72 586.031 60 586.637 60.56C587.244 61.0967 587.547 61.8433 587.547 62.8C587.547 63.3367 587.396 63.8383 587.092 64.305C586.812 64.7483 586.439 65.11 585.972 65.39C585.529 65.6467 585.039 65.775 584.502 65.775C583.289 65.775 582.391 65.495 581.807 64.935C581.247 64.3517 580.967 63.5583 580.967 62.555ZM590.702 71.025C590.609 70.2783 590.889 69.7183 591.542 69.345C592.195 68.9717 593.024 68.785 594.027 68.785C594.447 68.785 594.785 68.9133 595.042 69.17C595.322 69.4267 595.52 69.8233 595.637 70.36C595.777 70.8967 595.847 71.6317 595.847 72.565C596.454 71.655 597.084 70.9317 597.737 70.395C598.39 69.8583 599.09 69.4733 599.837 69.24C600.584 68.9833 601.354 68.855 602.147 68.855C602.964 68.855 603.71 69.0067 604.387 69.31C605.087 69.6133 605.682 70.0567 606.172 70.64C606.685 71.2 607.07 71.8883 607.327 72.705C608.12 71.2583 609.042 70.1967 610.092 69.52C611.165 68.82 612.274 68.47 613.417 68.47C614.514 68.47 615.505 68.855 616.392 69.625C617.279 70.395 617.979 71.4683 618.492 72.845C619.005 74.1983 619.262 75.785 619.262 77.605C619.262 79.145 619.215 80.6733 619.122 82.19C619.052 83.7067 619.029 85.0017 619.052 86.075C619.052 86.7517 618.784 87.2417 618.247 87.545C617.734 87.8483 617.069 88 616.252 88C615.435 88 614.759 87.8483 614.222 87.545C613.685 87.2417 613.417 86.7517 613.417 86.075C613.417 85.1417 613.452 83.9517 613.522 82.505C613.615 81.035 613.662 79.4367 613.662 77.71C613.662 76.9867 613.592 76.31 613.452 75.68C613.335 75.05 613.137 74.56 612.857 74.21C612.6 73.8367 612.297 73.65 611.947 73.65C611.037 73.65 610.267 74 609.637 74.7C609.007 75.4 608.494 76.275 608.097 77.325C608.074 78.795 608.027 80.2067 607.957 81.56C607.887 82.89 607.805 84.01 607.712 84.92C607.642 85.9233 607.409 86.6933 607.012 87.23C606.615 87.7667 606.009 88.035 605.192 88.035C604.049 88.035 603.244 87.8717 602.777 87.545C602.31 87.2183 602.077 86.81 602.077 86.32C602.077 85.9933 602.089 85.5267 602.112 84.92C602.159 84.29 602.194 83.59 602.217 82.82C602.264 82.0267 602.299 81.2333 602.322 80.44C602.369 79.6467 602.392 78.9233 602.392 78.27C602.392 77.5933 602.369 77.0567 602.322 76.66C602.252 76.03 602.159 75.5167 602.042 75.12C601.925 74.7 601.785 74.385 601.622 74.175C601.459 73.9417 601.26 73.825 601.027 73.825C600.374 73.825 599.767 74.0233 599.207 74.42C598.647 74.7933 598.145 75.3067 597.702 75.96C597.282 76.6133 596.92 77.3367 596.617 78.13V84.15C596.617 85.6667 596.337 86.7517 595.777 87.405C595.217 88.035 594.354 88.35 593.187 88.35C592.557 88.35 592.055 88.245 591.682 88.035C591.332 87.825 591.075 87.4633 590.912 86.95C590.772 86.4133 590.702 85.69 590.702 84.78C590.725 83.8467 590.795 82.6567 590.912 81.21C590.935 81.0467 590.947 80.895 590.947 80.755C590.947 80.615 590.947 80.37 590.947 80.02C590.947 79.6467 590.947 79.0633 590.947 78.27C590.947 76.5433 590.924 75.0733 590.877 73.86C590.83 72.6467 590.772 71.7017 590.702 71.025ZM623.872 70.85C623.849 70.3833 624.082 69.9867 624.572 69.66C625.062 69.3333 625.774 69.17 626.707 69.17C627.36 69.17 627.967 69.2983 628.527 69.555C629.087 69.8117 629.414 70.2433 629.507 70.85C629.554 71.13 629.577 71.3867 629.577 71.62C629.6 71.8533 629.612 72.0867 629.612 72.32C629.635 72.53 629.647 72.7867 629.647 73.09C630.114 72.2033 630.639 71.4567 631.222 70.85C631.805 70.2433 632.424 69.7767 633.077 69.45C633.754 69.1233 634.407 68.96 635.037 68.96C636.507 68.96 637.814 69.3567 638.957 70.15C640.124 70.92 641.045 71.97 641.722 73.3C642.399 74.63 642.737 76.1467 642.737 77.85C642.737 79.67 642.387 81.315 641.687 82.785C641.01 84.2317 639.949 85.3867 638.502 86.25C637.055 87.09 635.212 87.51 632.972 87.51C632.435 87.51 631.864 87.475 631.257 87.405C630.65 87.3117 630.172 87.2183 629.822 87.125C629.799 88.6183 629.752 90.0417 629.682 91.395C629.635 92.7483 629.565 94.1367 629.472 95.56C629.425 96.2367 629.122 96.7033 628.562 96.96C628.025 97.24 627.372 97.38 626.602 97.38C625.785 97.38 625.109 97.2283 624.572 96.925C624.035 96.645 623.79 96.0733 623.837 95.21C623.907 94.3 623.965 93.32 624.012 92.27C624.059 91.2433 624.094 90.17 624.117 89.05C624.164 87.9533 624.187 86.845 624.187 85.725C623.93 85.6083 623.674 85.48 623.417 85.34C623.16 85.2 622.927 85.0483 622.717 84.885C622.484 84.6983 622.297 84.4883 622.157 84.255C622.04 83.9983 621.982 83.7067 621.982 83.38C621.982 83.0067 622.052 82.6567 622.192 82.33C622.355 81.98 622.6 81.7117 622.927 81.525C623.254 81.3383 623.685 81.315 624.222 81.455C624.222 80.4983 624.21 79.6233 624.187 78.83C624.187 78.0133 624.164 77.2083 624.117 76.415C624.094 75.6217 624.059 74.7817 624.012 73.895C623.965 72.985 623.919 71.97 623.872 70.85ZM629.822 79.075C629.845 79.5417 629.857 80.1017 629.857 80.755C629.857 81.4083 629.857 82.1083 629.857 82.855C630.067 82.9017 630.429 82.9717 630.942 83.065C631.479 83.135 631.934 83.17 632.307 83.17C633.497 83.17 634.419 82.9483 635.072 82.505C635.725 82.0617 636.18 81.455 636.437 80.685C636.694 79.915 636.822 79.0517 636.822 78.095C636.822 77.2317 636.682 76.4967 636.402 75.89C636.145 75.26 635.795 74.7817 635.352 74.455C634.932 74.105 634.512 73.93 634.092 73.93C633.509 73.93 632.96 74.1867 632.447 74.7C631.934 75.2133 631.455 75.8667 631.012 76.66C630.592 77.4533 630.195 78.2583 629.822 79.075ZM647.091 61.225C647.091 60.735 647.243 60.35 647.546 60.07C647.85 59.79 648.223 59.5917 648.666 59.475C649.11 59.3583 649.541 59.3 649.961 59.3C650.708 59.3 651.326 59.44 651.816 59.72C652.306 59.9767 652.551 60.4783 652.551 61.225C652.528 63.1617 652.435 65.2267 652.271 67.42C652.131 69.59 651.991 71.795 651.851 74.035C651.758 75.3883 651.676 76.765 651.606 78.165C651.56 79.5417 651.536 80.9183 651.536 82.295C651.536 82.9717 651.525 83.625 651.501 84.255C651.501 84.8617 651.525 85.5617 651.571 86.355C651.618 86.9383 651.373 87.4167 650.836 87.79C650.3 88.1633 649.53 88.35 648.526 88.35C647.523 88.35 646.858 88.1283 646.531 87.685C646.205 87.2183 646.041 86.6933 646.041 86.11C646.041 84.29 646.053 82.6567 646.076 81.21C646.123 79.74 646.17 78.41 646.216 77.22C646.286 76.0067 646.356 74.91 646.426 73.93C646.52 72.6 646.613 71.2933 646.706 70.01C646.8 68.7033 646.881 67.3383 646.951 65.915C647.021 64.4683 647.068 62.905 647.091 61.225ZM656.688 70.99C656.804 70.3133 657.084 69.8233 657.528 69.52C657.971 69.1933 658.484 69.03 659.068 69.03C660.071 69.03 660.864 69.2167 661.448 69.59C662.054 69.9633 662.299 70.5467 662.183 71.34C662.043 72.2967 661.914 73.4283 661.798 74.735C661.704 76.0417 661.611 77.4067 661.518 78.83C661.448 80.23 661.401 81.5717 661.378 82.855C661.378 84.1383 661.389 85.235 661.413 86.145C661.459 86.9617 661.156 87.545 660.503 87.895C659.873 88.2217 659.114 88.385 658.228 88.385C657.434 88.385 656.839 88.1867 656.443 87.79C656.069 87.37 655.883 86.705 655.883 85.795C655.883 84.255 655.906 82.7033 655.953 81.14C656.023 79.5533 656.104 78.0717 656.198 76.695C656.291 75.3183 656.384 74.1283 656.478 73.125C656.571 72.1217 656.641 71.41 656.688 70.99ZM656.653 62.45C656.653 62.03 656.793 61.645 657.073 61.295C657.376 60.945 657.749 60.6533 658.193 60.42C658.636 60.1867 659.103 60.07 659.593 60.07C660.526 60.07 661.308 60.385 661.938 61.015C662.568 61.645 662.883 62.3917 662.883 63.255C662.883 64.0017 662.568 64.6317 661.938 65.145C661.308 65.6583 660.503 65.915 659.523 65.915C658.683 65.915 657.994 65.5883 657.458 64.935C656.921 64.2583 656.653 63.43 656.653 62.45ZM679.406 69.905C680.269 70.3717 680.899 70.885 681.296 71.445C681.716 72.005 681.926 72.5417 681.926 73.055C681.926 73.475 681.786 73.86 681.506 74.21C681.249 74.56 680.922 74.84 680.526 75.05C680.129 75.2367 679.756 75.33 679.406 75.33C679.079 75.33 678.776 75.225 678.496 75.015C678.216 74.805 677.924 74.56 677.621 74.28C677.341 74 677.002 73.755 676.606 73.545C676.232 73.335 675.777 73.23 675.241 73.23C674.634 73.23 674.074 73.37 673.561 73.65C673.047 73.9067 672.604 74.3033 672.231 74.84C671.881 75.3533 671.601 76.0067 671.391 76.8C671.181 77.57 671.076 78.48 671.076 79.53C671.076 80.0667 671.134 80.58 671.251 81.07C671.391 81.56 671.589 81.9917 671.846 82.365C672.126 82.7383 672.452 83.0417 672.826 83.275C673.222 83.485 673.666 83.59 674.156 83.59C674.739 83.59 675.241 83.52 675.661 83.38C676.081 83.2167 676.477 82.9833 676.851 82.68C677.247 82.3767 677.702 82.015 678.216 81.595C678.962 80.965 679.546 80.65 679.966 80.65C680.292 80.65 680.619 80.755 680.946 80.965C681.272 81.175 681.541 81.4667 681.751 81.84C681.984 82.2133 682.101 82.6333 682.101 83.1C682.101 83.6367 681.891 84.15 681.471 84.64C681.051 85.13 680.549 85.5967 679.966 86.04C679.102 86.7167 678.181 87.23 677.201 87.58C676.221 87.93 675.217 88.105 674.191 88.105C672.417 88.105 670.842 87.7433 669.466 87.02C668.089 86.2733 667.016 85.27 666.246 84.01C665.476 82.7267 665.091 81.315 665.091 79.775C665.091 78.235 665.301 76.8 665.721 75.47C666.141 74.14 666.759 72.985 667.576 72.005C668.416 71.0017 669.442 70.22 670.656 69.66C671.869 69.1 673.269 68.82 674.856 68.82C675.579 68.82 676.349 68.9133 677.166 69.1C678.006 69.2867 678.752 69.555 679.406 69.905ZM684.405 79.81C684.405 78.3867 684.615 77.01 685.035 75.68C685.455 74.35 686.05 73.16 686.82 72.11C687.613 71.06 688.57 70.2317 689.69 69.625C690.833 68.995 692.128 68.68 693.575 68.68C694.485 68.68 695.278 68.8317 695.955 69.135C696.655 69.415 697.273 69.8233 697.81 70.36C697.926 69.8467 698.125 69.4267 698.405 69.1C698.685 68.7733 699.186 68.61 699.91 68.61C700.75 68.61 701.485 68.82 702.115 69.24C702.745 69.6367 703.048 70.15 703.025 70.78C703.001 71.41 702.896 72.2733 702.71 73.37C702.523 74.4433 702.36 75.505 702.22 76.555C702.173 76.8817 702.103 77.3017 702.01 77.815C701.94 78.3283 701.87 78.8417 701.8 79.355C701.753 79.845 701.718 80.265 701.695 80.615C701.671 80.965 701.66 81.4083 701.66 81.945C701.66 82.4583 701.73 82.9133 701.87 83.31C702.01 83.7067 702.243 83.905 702.57 83.905C702.756 83.905 702.92 83.8583 703.06 83.765C703.2 83.6717 703.34 83.5433 703.48 83.38C703.713 83.2167 703.911 83.0883 704.075 82.995C704.261 82.8783 704.495 82.82 704.775 82.82C705.101 82.82 705.393 82.9367 705.65 83.17C705.93 83.38 706.14 83.6717 706.28 84.045C706.443 84.4183 706.455 84.8383 706.315 85.305C706.221 85.7483 705.918 86.2033 705.405 86.67C704.891 87.1367 704.285 87.5333 703.585 87.86C702.908 88.1633 702.231 88.315 701.555 88.315C700.878 88.315 700.26 88.175 699.7 87.895C699.14 87.5917 698.661 87.195 698.265 86.705C697.891 86.1917 697.635 85.5967 697.495 84.92C696.888 85.83 696.083 86.5883 695.08 87.195C694.1 87.8017 692.991 88.105 691.755 88.105C690.215 88.105 688.896 87.7433 687.8 87.02C686.703 86.2967 685.863 85.3167 685.28 84.08C684.696 82.82 684.405 81.3967 684.405 79.81ZM690.32 79.565C690.32 80.3117 690.401 80.9883 690.565 81.595C690.728 82.1783 690.973 82.645 691.3 82.995C691.65 83.345 692.105 83.52 692.665 83.52C693.131 83.52 693.54 83.415 693.89 83.205C694.24 82.9717 694.555 82.6683 694.835 82.295C695.115 81.8983 695.336 81.4433 695.5 80.93C695.686 80.3933 695.85 79.8333 695.99 79.25C696.13 78.6667 696.246 78.0717 696.34 77.465C696.433 76.8583 696.515 76.2633 696.585 75.68C696.655 75.0967 696.713 74.525 696.76 73.965C696.433 73.6617 696.06 73.4283 695.64 73.265C695.22 73.0783 694.776 72.985 694.31 72.985C693.68 72.985 693.12 73.16 692.63 73.51C692.14 73.8367 691.72 74.3033 691.37 74.91C691.02 75.5167 690.751 76.2167 690.565 77.01C690.401 77.8033 690.32 78.655 690.32 79.565ZM716.321 88.14C714.874 88.14 713.614 87.8717 712.541 87.335C711.468 86.775 710.581 86.0283 709.881 85.095C709.181 84.1617 708.656 83.135 708.306 82.015C707.956 80.8717 707.781 79.7167 707.781 78.55C707.781 77.22 708.014 75.96 708.481 74.77C708.948 73.5567 709.601 72.495 710.441 71.585C711.304 70.675 712.331 69.9633 713.521 69.45C714.711 68.9133 716.041 68.645 717.511 68.645C718.398 68.645 719.238 68.7617 720.031 68.995C720.848 69.205 721.618 69.5667 722.341 70.08C723.064 70.5933 723.718 71.305 724.301 72.215C724.441 72.425 724.534 72.635 724.581 72.845C724.651 73.0317 724.686 73.23 724.686 73.44C724.686 73.8367 724.534 74.1983 724.231 74.525C723.951 74.8283 723.613 75.0733 723.216 75.26C722.843 75.4467 722.481 75.54 722.131 75.54C721.828 75.54 721.559 75.4583 721.326 75.295C721.116 75.1317 720.894 74.8983 720.661 74.595C720.241 74.0117 719.774 73.615 719.261 73.405C718.748 73.1717 718.211 73.055 717.651 73.055C717.114 73.055 716.601 73.1833 716.111 73.44C715.644 73.6967 715.224 74.07 714.851 74.56C714.478 75.05 714.186 75.645 713.976 76.345C713.766 77.0217 713.661 77.7917 713.661 78.655C713.661 79.3317 713.766 80.055 713.976 80.825C714.209 81.5717 714.571 82.2133 715.061 82.75C715.551 83.2867 716.169 83.555 716.916 83.555C717.826 83.555 718.608 83.31 719.261 82.82C719.914 82.33 720.533 81.7583 721.116 81.105C721.326 80.8717 721.513 80.72 721.676 80.65C721.863 80.5567 722.084 80.51 722.341 80.51C722.691 80.51 723.053 80.6267 723.426 80.86C723.823 81.0933 724.161 81.3967 724.441 81.77C724.721 82.12 724.861 82.4933 724.861 82.89C724.861 83.0533 724.838 83.2517 724.791 83.485C724.744 83.695 724.604 83.9283 724.371 84.185C723.321 85.4683 722.061 86.4483 720.591 87.125C719.121 87.8017 717.698 88.14 716.321 88.14ZM716.193 97.17C715.61 97.17 715.015 97.1117 714.408 96.995C713.778 96.8783 713.218 96.6917 712.728 96.435C712.448 96.2717 712.273 96.0617 712.203 95.805C712.133 95.5717 712.145 95.3033 712.238 95C712.331 94.6733 712.483 94.37 712.693 94.09C712.903 93.8333 713.23 93.7633 713.673 93.88C713.883 93.9267 714.175 93.9967 714.548 94.09C714.921 94.1833 715.271 94.23 715.598 94.23C716.018 94.23 716.321 94.1367 716.508 93.95C716.718 93.7867 716.823 93.5533 716.823 93.25C716.823 92.83 716.671 92.5383 716.368 92.375C716.088 92.235 715.738 92.2233 715.318 92.34C715.015 92.41 714.735 92.41 714.478 92.34C714.198 92.27 714 92.1533 713.883 91.99C713.79 91.8033 713.755 91.5817 713.778 91.325C713.801 91.0683 713.883 90.7767 714.023 90.45L715.038 88H718.013L716.823 90.765L715.668 90.135C716.835 89.9017 717.791 89.89 718.538 90.1C719.285 90.3333 719.833 90.7417 720.183 91.325C720.556 91.9083 720.743 92.5967 720.743 93.39C720.743 94.51 720.335 95.42 719.518 96.12C718.725 96.82 717.616 97.17 716.193 97.17ZM736.788 68.645C737.348 68.645 738.001 68.7033 738.748 68.82C739.494 68.9367 740.194 69.1 740.848 69.31C741.524 69.52 742.038 69.7767 742.388 70.08C743.508 70.9433 744.324 72.075 744.838 73.475C745.351 74.875 745.608 76.3683 745.608 77.955C745.608 79.2383 745.433 80.4983 745.083 81.735C744.733 82.9483 744.196 84.045 743.473 85.025C742.749 86.005 741.839 86.7867 740.743 87.37C739.646 87.9533 738.351 88.245 736.858 88.245C735.154 88.245 733.684 87.9883 732.448 87.475C731.211 86.9617 730.184 86.25 729.368 85.34C728.574 84.43 727.979 83.3917 727.583 82.225C727.209 81.0583 727.023 79.8217 727.023 78.515C727.023 77.255 727.209 76.0417 727.583 74.875C727.979 73.685 728.574 72.635 729.368 71.725C730.184 70.7917 731.199 70.045 732.413 69.485C733.649 68.925 735.108 68.645 736.788 68.645ZM732.868 78.34C732.868 79.2033 732.996 80.055 733.253 80.895C733.509 81.7117 733.918 82.3883 734.478 82.925C735.038 83.4617 735.749 83.73 736.613 83.73C737.196 83.73 737.686 83.5667 738.083 83.24C738.503 82.89 738.829 82.4467 739.063 81.91C739.319 81.35 739.494 80.755 739.588 80.125C739.704 79.4717 739.763 78.8417 739.763 78.235C739.763 76.905 739.588 75.855 739.238 75.085C738.911 74.315 738.468 73.7317 737.908 73.335C737.651 73.265 737.418 73.2183 737.208 73.195C737.021 73.1483 736.811 73.125 736.578 73.125C735.901 73.125 735.318 73.2767 734.828 73.58C734.338 73.8833 733.953 74.28 733.673 74.77C733.393 75.26 733.183 75.8083 733.043 76.415C732.926 77.0217 732.868 77.6633 732.868 78.34ZM740.183 65.635C739.367 65.635 738.69 65.565 738.153 65.425C737.617 65.2617 737.15 65.075 736.753 64.865C736.38 64.655 736.03 64.48 735.703 64.34C735.377 64.1767 735.027 64.095 734.653 64.095C734.14 64.095 733.872 64.48 733.848 65.25C733.825 65.53 733.65 65.7517 733.323 65.915C732.997 66.0783 732.635 66.16 732.238 66.16C731.818 66.16 731.457 66.055 731.153 65.845C730.827 65.6117 730.663 65.25 730.663 64.76C730.71 63.29 731.083 62.1 731.783 61.19C732.46 60.2567 733.428 59.79 734.688 59.79C735.318 59.79 735.855 59.8717 736.298 60.035C736.765 60.175 737.173 60.35 737.523 60.56C737.897 60.77 738.258 60.9567 738.608 61.12C738.982 61.26 739.39 61.33 739.833 61.33C740.183 61.33 740.452 61.225 740.638 61.015C740.848 60.7817 741.012 60.455 741.128 60.035C741.198 59.7083 741.397 59.4983 741.723 59.405C742.073 59.3117 742.435 59.3233 742.808 59.44C743.205 59.5333 743.543 59.7083 743.823 59.965C744.103 60.2217 744.22 60.5367 744.173 60.91C743.94 62.45 743.438 63.6283 742.668 64.445C741.922 65.2383 741.093 65.635 740.183 65.635ZM752.702 81.665L752.527 77.92C753.881 77.7567 755.001 77.4767 755.887 77.08C756.774 76.6833 757.439 76.2167 757.882 75.68C758.326 75.1433 758.547 74.6067 758.547 74.07C758.547 73.6033 758.419 73.2883 758.162 73.125C757.929 72.9383 757.614 72.845 757.217 72.845C756.797 72.845 756.366 72.985 755.922 73.265C755.479 73.545 755.071 73.93 754.697 74.42C754.347 74.91 754.056 75.4933 753.822 76.17C753.589 76.8233 753.472 77.5467 753.472 78.34C753.472 79.9033 753.647 81.14 753.997 82.05C754.371 82.9367 754.861 83.5783 755.467 83.975C756.097 84.3483 756.821 84.535 757.637 84.535C758.431 84.535 759.107 84.395 759.667 84.115C760.251 83.835 760.822 83.4033 761.382 82.82C761.639 82.54 761.907 82.295 762.187 82.085C762.491 81.8517 762.829 81.735 763.202 81.735C763.669 81.735 764.042 81.8633 764.322 82.12C764.626 82.3767 764.836 82.6917 764.952 83.065C765.092 83.4383 765.162 83.7883 765.162 84.115C765.162 84.3483 765.116 84.5933 765.022 84.85C764.952 85.1067 764.801 85.375 764.567 85.655C764.077 86.3083 763.412 86.8567 762.572 87.3C761.732 87.7433 760.834 88.0817 759.877 88.315C758.944 88.5483 758.011 88.665 757.077 88.665C755.841 88.665 754.662 88.455 753.542 88.035C752.446 87.615 751.466 86.9967 750.602 86.18C749.739 85.34 749.062 84.3133 748.572 83.1C748.082 81.8633 747.837 80.4517 747.837 78.865C747.837 77.2083 748.117 75.7733 748.677 74.56C749.237 73.3233 749.984 72.2967 750.917 71.48C751.851 70.64 752.889 70.0217 754.032 69.625C755.176 69.205 756.331 68.995 757.497 68.995C758.734 68.995 759.831 69.1817 760.787 69.555C761.744 69.9283 762.491 70.4883 763.027 71.235C763.564 71.9583 763.832 72.88 763.832 74C763.832 74.6533 763.681 75.365 763.377 76.135C763.074 76.8817 762.526 77.6283 761.732 78.375C760.962 79.0983 759.842 79.7517 758.372 80.335C756.902 80.9183 755.012 81.3617 752.702 81.665ZM781.575 70.605C781.901 70.9083 782.065 71.2467 782.065 71.62C782.041 72.3667 781.796 73.02 781.33 73.58C780.863 74.1167 780.315 74.385 779.685 74.385C779.521 74.385 779.335 74.3733 779.125 74.35C778.938 74.3033 778.763 74.2217 778.6 74.105C778.18 73.755 777.666 73.4167 777.06 73.09C776.476 72.7633 775.835 72.6 775.135 72.6C774.738 72.6 774.376 72.6583 774.05 72.775C773.746 72.8917 773.501 73.0433 773.315 73.23C773.128 73.4167 773.035 73.6383 773.035 73.895C773.035 74.1983 773.268 74.525 773.735 74.875C774.225 75.2017 775.216 75.5867 776.71 76.03C778.086 76.4267 779.136 76.94 779.86 77.57C780.606 78.2 781.12 78.8767 781.4 79.6C781.68 80.3233 781.82 81.0467 781.82 81.77C781.82 83.24 781.47 84.4767 780.77 85.48C780.07 86.4833 779.101 87.23 777.865 87.72C776.651 88.21 775.251 88.455 773.665 88.455C772.265 88.455 771.04 88.245 769.99 87.825C768.94 87.3817 768.111 86.8333 767.505 86.18C766.921 85.5267 766.618 84.85 766.595 84.15C766.595 83.52 766.816 82.96 767.26 82.47C767.703 81.98 768.216 81.735 768.8 81.735C769.126 81.735 769.453 81.8167 769.78 81.98C770.13 82.12 770.398 82.4 770.585 82.82C770.771 83.1933 771.191 83.4967 771.845 83.73C772.498 83.94 773.186 84.045 773.91 84.045C774.61 84.045 775.146 83.9167 775.52 83.66C775.916 83.4033 776.115 83.1 776.115 82.75C776.115 82.5167 776.021 82.2717 775.835 82.015C775.671 81.735 775.321 81.4433 774.785 81.14C774.248 80.8367 773.408 80.4983 772.265 80.125C770.841 79.6583 769.71 79.005 768.87 78.165C768.03 77.3017 767.61 76.1467 767.61 74.7C767.61 73.65 767.831 72.74 768.275 71.97C768.741 71.1767 769.348 70.5233 770.095 70.01C770.865 69.4967 771.716 69.1117 772.65 68.855C773.583 68.5983 774.528 68.47 775.485 68.47C776.581 68.47 777.643 68.645 778.67 68.995C779.696 69.345 780.665 69.8817 781.575 70.605ZM810.458 88.42C809.898 88.42 809.35 88.3617 808.813 88.245C808.3 88.1283 807.88 87.93 807.553 87.65C807.227 87.37 807.087 86.985 807.133 86.495C807.32 85.1883 807.495 83.8233 807.658 82.4C807.845 80.9767 807.938 79.495 807.938 77.955C807.938 77.2083 807.88 76.5317 807.763 75.925C807.647 75.295 807.448 74.7933 807.168 74.42C806.888 74.0233 806.515 73.825 806.048 73.825C805.558 73.825 805.045 74.0233 804.508 74.42C803.972 74.7933 803.458 75.5283 802.968 76.625C802.688 77.255 802.455 77.815 802.268 78.305C802.105 78.7717 801.977 79.2267 801.883 79.67C801.79 80.09 801.697 80.5333 801.603 81C801.58 81.2567 801.545 81.6417 801.498 82.155C801.475 82.6683 801.44 83.2283 801.393 83.835C801.37 84.4417 801.335 85.0017 801.288 85.515C801.242 86.0283 801.183 86.4133 801.113 86.67C800.973 87.2067 800.612 87.5917 800.028 87.825C799.445 88.0583 798.663 88.175 797.683 88.175C796.913 88.175 796.377 88.0817 796.073 87.895C795.793 87.7083 795.583 87.4517 795.443 87.125C795.397 86.985 795.35 86.8333 795.303 86.67C795.28 86.5067 795.268 86.3083 795.268 86.075C795.292 85.8183 795.327 85.5383 795.373 85.235C795.63 83.9283 795.852 82.5283 796.038 81.035C796.248 79.5183 796.353 77.955 796.353 76.345C796.353 75.785 796.33 75.12 796.283 74.35C796.237 73.58 796.19 72.845 796.143 72.145C796.097 71.445 796.062 70.9317 796.038 70.605C796.038 70.3483 796.085 70.045 796.178 69.695C796.272 69.3217 796.493 69.0067 796.843 68.75C797.193 68.4933 797.753 68.365 798.523 68.365C799.457 68.365 800.133 68.4467 800.553 68.61C800.973 68.75 801.265 69.065 801.428 69.555C801.475 69.695 801.522 69.9167 801.568 70.22C801.615 70.5 801.638 70.8267 801.638 71.2C801.662 71.5733 801.673 71.935 801.673 72.285C801.673 72.6117 801.662 72.8917 801.638 73.125C802.058 72.2383 802.537 71.4567 803.073 70.78C803.61 70.1033 804.24 69.5667 804.963 69.17C805.71 68.7733 806.597 68.575 807.623 68.575C808.953 68.575 809.992 68.8433 810.738 69.38C811.508 69.8933 812.068 70.5817 812.418 71.445C812.792 72.3083 813.037 73.265 813.153 74.315C813.27 75.365 813.328 76.4267 813.328 77.5C813.328 78.0833 813.293 78.7833 813.223 79.6C813.177 80.4167 813.107 81.2567 813.013 82.12C812.92 82.9833 812.827 83.8 812.733 84.57C812.64 85.34 812.57 85.9817 812.523 86.495C812.43 87.2183 812.185 87.72 811.788 88C811.392 88.28 810.948 88.42 810.458 88.42ZM834.892 77.535C834.892 78.9817 834.682 80.3467 834.262 81.63C833.865 82.9133 833.247 84.045 832.407 85.025C831.59 85.9817 830.563 86.74 829.327 87.3C828.113 87.86 826.69 88.14 825.057 88.14C823.353 88.14 821.837 87.7667 820.507 87.02C819.177 86.2733 818.127 85.235 817.357 83.905C816.61 82.575 816.237 81.0583 816.237 79.355C816.237 77.8383 816.458 76.4267 816.902 75.12C817.368 73.79 818.033 72.635 818.897 71.655C819.76 70.675 820.798 69.9167 822.012 69.38C823.248 68.82 824.66 68.54 826.247 68.54C827.95 68.54 829.443 68.9133 830.727 69.66C832.033 70.3833 833.048 71.4217 833.772 72.775C834.518 74.105 834.892 75.6917 834.892 77.535ZM822.117 78.725C822.117 79.6117 822.222 80.4283 822.432 81.175C822.665 81.9217 823.027 82.5167 823.517 82.96C824.007 83.4033 824.66 83.625 825.477 83.625C826.13 83.625 826.713 83.38 827.227 82.89C827.763 82.3767 828.195 81.665 828.522 80.755C828.848 79.845 829.012 78.7367 829.012 77.43C829.012 76.59 828.872 75.8433 828.592 75.19C828.312 74.5367 827.915 74.0233 827.402 73.65C826.912 73.2533 826.317 73.055 825.617 73.055C824.987 73.055 824.403 73.3 823.867 73.79C823.353 74.2567 822.933 74.9217 822.607 75.785C822.28 76.625 822.117 77.605 822.117 78.725ZM208.105 113.875C208.198 113.152 208.513 112.662 209.05 112.405C209.61 112.125 210.31 111.985 211.15 111.985C211.943 111.985 212.632 112.137 213.215 112.44C213.798 112.72 214.055 113.268 213.985 114.085C213.892 115.275 213.74 116.663 213.53 118.25C213.32 119.837 213.133 121.458 212.97 123.115C212.807 124.772 212.725 126.323 212.725 127.77C212.725 129.077 212.76 130.197 212.83 131.13C212.923 132.04 213.04 132.833 213.18 133.51C213.343 134.187 213.542 134.793 213.775 135.33C214.032 135.843 214.335 136.333 214.685 136.8C215.152 137.43 215.455 137.932 215.595 138.305C215.758 138.678 215.84 139.063 215.84 139.46C215.84 140.043 215.548 140.51 214.965 140.86C214.382 141.21 213.612 141.385 212.655 141.385C211.838 141.385 211.173 141.233 210.66 140.93C210.147 140.627 209.738 140.23 209.435 139.74C209.202 139.367 208.98 138.993 208.77 138.62C208.56 138.223 208.35 137.745 208.14 137.185C207.767 137.932 207.265 138.632 206.635 139.285C206.005 139.915 205.293 140.417 204.5 140.79C203.707 141.163 202.855 141.35 201.945 141.35C200.405 141.35 199.122 140.93 198.095 140.09C197.092 139.25 196.345 138.118 195.855 136.695C195.388 135.272 195.167 133.732 195.19 132.075C195.213 130.815 195.365 129.613 195.645 128.47C195.948 127.327 196.415 126.312 197.045 125.425C197.675 124.515 198.503 123.803 199.53 123.29C200.58 122.777 201.875 122.52 203.415 122.52C203.718 122.52 204.103 122.555 204.57 122.625C205.06 122.672 205.527 122.742 205.97 122.835C206.437 122.928 206.798 123.033 207.055 123.15C207.288 121.353 207.487 119.732 207.65 118.285C207.813 116.838 207.965 115.368 208.105 113.875ZM201.14 131.97C201.14 133.043 201.222 133.953 201.385 134.7C201.548 135.423 201.805 135.972 202.155 136.345C202.505 136.695 202.925 136.87 203.415 136.87C203.672 136.87 203.94 136.777 204.22 136.59C204.523 136.38 204.815 136.065 205.095 135.645C205.398 135.202 205.667 134.63 205.9 133.93C206.133 133.207 206.32 132.355 206.46 131.375C206.483 131.212 206.507 130.967 206.53 130.64C206.553 130.313 206.577 129.952 206.6 129.555C206.623 129.158 206.647 128.762 206.67 128.365C206.693 127.945 206.717 127.548 206.74 127.175C206.577 127.105 206.355 127.023 206.075 126.93C205.795 126.837 205.515 126.767 205.235 126.72C204.955 126.673 204.698 126.65 204.465 126.65C204.092 126.65 203.707 126.732 203.31 126.895C202.937 127.058 202.587 127.338 202.26 127.735C201.933 128.132 201.665 128.68 201.455 129.38C201.268 130.057 201.163 130.92 201.14 131.97ZM218.052 132.46C218.052 131.317 218.239 130.127 218.612 128.89C219.009 127.653 219.592 126.498 220.362 125.425C221.155 124.352 222.17 123.488 223.407 122.835C224.644 122.158 226.102 121.82 227.782 121.82C229.065 121.82 230.162 122.007 231.072 122.38C232.005 122.73 232.729 123.255 233.242 123.955C233.755 124.655 234.012 125.518 234.012 126.545C234.012 127.735 233.697 128.797 233.067 129.73C232.46 130.663 231.644 131.468 230.617 132.145C229.614 132.822 228.529 133.37 227.362 133.79C226.195 134.187 225.064 134.455 223.967 134.595C224.27 135.575 224.737 136.263 225.367 136.66C226.02 137.057 226.884 137.255 227.957 137.255C228.867 137.255 229.719 137.033 230.512 136.59C231.305 136.147 232.134 135.458 232.997 134.525C233.137 134.385 233.289 134.28 233.452 134.21C233.639 134.14 233.814 134.105 233.977 134.105C234.374 134.105 234.747 134.233 235.097 134.49C235.447 134.723 235.715 135.027 235.902 135.4C236.112 135.773 236.217 136.123 236.217 136.45C236.217 136.613 236.17 136.8 236.077 137.01C235.984 137.22 235.879 137.407 235.762 137.57C235.155 138.41 234.397 139.133 233.487 139.74C232.577 140.323 231.574 140.767 230.477 141.07C229.38 141.373 228.225 141.525 227.012 141.525C224.982 141.525 223.302 141.093 221.972 140.23C220.642 139.343 219.65 138.212 218.997 136.835C218.367 135.435 218.052 133.977 218.052 132.46ZM223.757 130.745C224.924 130.558 225.88 130.267 226.627 129.87C227.397 129.45 227.969 128.983 228.342 128.47C228.715 127.957 228.902 127.467 228.902 127C228.902 126.697 228.785 126.417 228.552 126.16C228.319 125.88 227.91 125.74 227.327 125.74C226.767 125.74 226.23 125.892 225.717 126.195C225.227 126.475 224.807 126.977 224.457 127.7C224.107 128.423 223.874 129.438 223.757 130.745ZM252.439 123.605C252.765 123.908 252.929 124.247 252.929 124.62C252.905 125.367 252.66 126.02 252.194 126.58C251.727 127.117 251.179 127.385 250.549 127.385C250.385 127.385 250.199 127.373 249.989 127.35C249.802 127.303 249.627 127.222 249.464 127.105C249.044 126.755 248.53 126.417 247.924 126.09C247.34 125.763 246.699 125.6 245.999 125.6C245.602 125.6 245.24 125.658 244.914 125.775C244.61 125.892 244.365 126.043 244.179 126.23C243.992 126.417 243.899 126.638 243.899 126.895C243.899 127.198 244.132 127.525 244.599 127.875C245.089 128.202 246.08 128.587 247.574 129.03C248.95 129.427 250 129.94 250.724 130.57C251.47 131.2 251.984 131.877 252.264 132.6C252.544 133.323 252.684 134.047 252.684 134.77C252.684 136.24 252.334 137.477 251.634 138.48C250.934 139.483 249.965 140.23 248.729 140.72C247.515 141.21 246.115 141.455 244.529 141.455C243.129 141.455 241.904 141.245 240.854 140.825C239.804 140.382 238.975 139.833 238.369 139.18C237.785 138.527 237.482 137.85 237.459 137.15C237.459 136.52 237.68 135.96 238.124 135.47C238.567 134.98 239.08 134.735 239.664 134.735C239.99 134.735 240.317 134.817 240.644 134.98C240.994 135.12 241.262 135.4 241.449 135.82C241.635 136.193 242.055 136.497 242.709 136.73C243.362 136.94 244.05 137.045 244.774 137.045C245.474 137.045 246.01 136.917 246.384 136.66C246.78 136.403 246.979 136.1 246.979 135.75C246.979 135.517 246.885 135.272 246.699 135.015C246.535 134.735 246.185 134.443 245.649 134.14C245.112 133.837 244.272 133.498 243.129 133.125C241.705 132.658 240.574 132.005 239.734 131.165C238.894 130.302 238.474 129.147 238.474 127.7C238.474 126.65 238.695 125.74 239.139 124.97C239.605 124.177 240.212 123.523 240.959 123.01C241.729 122.497 242.58 122.112 243.514 121.855C244.447 121.598 245.392 121.47 246.349 121.47C247.445 121.47 248.507 121.645 249.534 121.995C250.56 122.345 251.529 122.882 252.439 123.605ZM254.898 131.235C254.898 129.998 255.143 128.82 255.633 127.7C256.123 126.58 256.799 125.588 257.663 124.725C258.526 123.862 259.529 123.185 260.673 122.695C261.839 122.182 263.088 121.925 264.418 121.925C266.214 121.925 267.591 122.357 268.548 123.22C269.504 124.083 269.983 125.25 269.983 126.72C269.983 127.957 269.644 129.147 268.968 130.29C268.314 131.41 267.311 132.332 265.958 133.055C264.604 133.755 262.866 134.117 260.743 134.14C260.976 134.84 261.268 135.412 261.618 135.855C261.991 136.275 262.411 136.59 262.878 136.8C263.368 136.987 263.904 137.08 264.488 137.08C265.281 137.08 265.946 136.928 266.483 136.625C267.043 136.298 267.509 135.878 267.883 135.365C268.139 135.015 268.373 134.77 268.583 134.63C268.816 134.49 269.049 134.42 269.283 134.42C269.936 134.42 270.403 134.642 270.683 135.085C270.986 135.528 271.138 135.995 271.138 136.485C271.138 136.952 271.021 137.442 270.788 137.955C270.554 138.468 270.111 139.017 269.458 139.6C268.781 140.23 267.964 140.72 267.008 141.07C266.074 141.443 265.048 141.63 263.928 141.63C262.061 141.63 260.451 141.175 259.098 140.265C257.744 139.355 256.706 138.118 255.983 136.555C255.259 134.968 254.898 133.195 254.898 131.235ZM260.288 130.255C260.894 130.255 261.478 130.162 262.038 129.975C262.598 129.788 263.088 129.532 263.508 129.205C263.928 128.878 264.254 128.493 264.488 128.05C264.744 127.607 264.873 127.128 264.873 126.615C264.873 126.242 264.756 125.973 264.523 125.81C264.313 125.647 264.056 125.565 263.753 125.565C263.309 125.565 262.819 125.752 262.283 126.125C261.746 126.475 261.279 127 260.883 127.7C260.509 128.377 260.311 129.228 260.288 130.255ZM273.96 123.57C273.96 122.94 274.216 122.403 274.73 121.96C275.243 121.517 275.826 121.295 276.48 121.295C277.063 121.295 277.646 121.365 278.23 121.505C278.836 121.645 279.256 121.972 279.49 122.485C279.7 122.952 279.875 123.512 280.015 124.165C280.178 124.818 280.295 125.507 280.365 126.23C280.761 125.367 281.286 124.585 281.94 123.885C282.593 123.162 283.316 122.59 284.11 122.17C284.926 121.75 285.778 121.54 286.665 121.54C287.855 121.54 288.8 121.797 289.5 122.31C290.2 122.8 290.736 123.453 291.11 124.27C291.483 125.063 291.728 125.938 291.845 126.895C291.985 127.828 292.055 128.738 292.055 129.625C292.055 131.422 291.926 133.148 291.67 134.805C291.413 136.462 291.156 137.873 290.9 139.04C290.783 139.647 290.561 140.137 290.235 140.51C289.931 140.86 289.57 141.105 289.15 141.245C288.73 141.408 288.321 141.49 287.925 141.49C287.201 141.49 286.676 141.362 286.35 141.105C286.046 140.848 285.836 140.615 285.72 140.405C285.44 140.125 285.288 139.763 285.265 139.32C285.265 138.877 285.3 138.457 285.37 138.06C285.533 137.36 285.696 136.578 285.86 135.715C286.023 134.828 286.151 133.883 286.245 132.88C286.361 131.877 286.42 130.862 286.42 129.835C286.42 128.902 286.315 128.167 286.105 127.63C285.895 127.07 285.486 126.79 284.88 126.79C284.46 126.79 284.051 126.918 283.655 127.175C283.258 127.408 282.885 127.747 282.535 128.19C282.185 128.61 281.87 129.112 281.59 129.695C281.333 130.278 281.111 130.908 280.925 131.585C280.738 132.262 280.61 132.985 280.54 133.755C280.47 134.642 280.4 135.423 280.33 136.1C280.283 136.777 280.236 137.348 280.19 137.815C280.166 138.282 280.155 138.69 280.155 139.04C280.155 139.857 279.816 140.487 279.14 140.93C278.486 141.35 277.775 141.56 277.005 141.56C276.071 141.56 275.406 141.303 275.01 140.79C274.636 140.253 274.45 139.658 274.45 139.005C274.45 138.468 274.473 137.768 274.52 136.905C274.566 136.018 274.613 135.097 274.66 134.14C274.706 133.183 274.753 132.285 274.8 131.445C274.846 130.605 274.87 129.94 274.87 129.45C274.87 128.983 274.858 128.505 274.835 128.015C274.835 127.502 274.776 127.012 274.66 126.545C274.52 125.892 274.368 125.285 274.205 124.725C274.041 124.165 273.96 123.78 273.96 123.57ZM294.48 124.27C294.48 123.57 294.76 123.033 295.32 122.66C295.88 122.263 296.498 122.065 297.175 122.065C297.548 122.065 297.956 122.123 298.4 122.24C298.843 122.333 299.228 122.66 299.555 123.22C300.045 124.083 300.5 125.157 300.92 126.44C301.34 127.723 301.725 129.135 302.075 130.675C302.448 132.215 302.798 133.813 303.125 135.47C303.778 133.93 304.35 132.448 304.84 131.025C305.33 129.602 305.785 128.225 306.205 126.895C306.625 125.542 307.056 124.247 307.5 123.01C307.663 122.52 307.896 122.193 308.2 122.03C308.503 121.843 308.993 121.75 309.67 121.75C310.066 121.75 310.486 121.808 310.93 121.925C311.396 122.042 311.781 122.228 312.085 122.485C312.411 122.718 312.563 123.045 312.54 123.465C312.54 123.722 312.493 124.06 312.4 124.48C312.306 124.877 312.19 125.297 312.05 125.74C311.91 126.183 311.77 126.603 311.63 127C311.49 127.397 311.373 127.723 311.28 127.98C311.046 128.61 310.731 129.392 310.335 130.325C309.938 131.258 309.506 132.25 309.04 133.3C308.573 134.35 308.13 135.377 307.71 136.38C307.29 137.383 306.905 138.293 306.555 139.11C306.251 139.857 305.831 140.393 305.295 140.72C304.758 141.047 304.198 141.257 303.615 141.35C303.055 141.467 302.565 141.525 302.145 141.525C301.585 141.525 301.013 141.35 300.43 141C299.87 140.65 299.496 140.02 299.31 139.11C298.89 137.173 298.26 134.992 297.42 132.565C296.58 130.115 295.646 127.583 294.62 124.97C294.573 124.853 294.538 124.737 294.515 124.62C294.491 124.48 294.48 124.363 294.48 124.27ZM326.465 131.83C326.465 131.223 326.418 130.558 326.325 129.835C326.232 129.112 326.022 128.388 325.695 127.665C325.368 126.942 324.855 126.323 324.155 125.81C323.922 125.623 323.735 125.437 323.595 125.25C323.478 125.04 323.42 124.772 323.42 124.445C323.42 123.698 323.688 123.173 324.225 122.87C324.762 122.543 325.345 122.38 325.975 122.38C326.768 122.38 327.527 122.672 328.25 123.255C328.997 123.815 329.662 124.55 330.245 125.46C330.852 126.37 331.318 127.362 331.645 128.435C331.972 129.485 332.135 130.5 332.135 131.48C332.135 133.3 331.715 134.933 330.875 136.38C330.058 137.827 328.903 138.982 327.41 139.845C325.917 140.685 324.167 141.105 322.16 141.105C320.667 141.105 319.372 140.86 318.275 140.37C317.202 139.88 316.303 139.215 315.58 138.375C314.88 137.535 314.355 136.602 314.005 135.575C313.678 134.525 313.515 133.463 313.515 132.39C313.515 131.13 313.725 129.87 314.145 128.61C314.588 127.35 315.218 126.207 316.035 125.18C316.875 124.153 317.878 123.337 319.045 122.73C320.212 122.1 321.542 121.785 323.035 121.785C323.595 121.785 324.19 121.843 324.82 121.96C325.45 122.053 325.998 122.228 326.465 122.485C326.932 122.742 327.165 123.115 327.165 123.605C327.165 124.445 327.025 125.133 326.745 125.67C326.465 126.207 326.057 126.475 325.52 126.475C325.03 126.475 324.645 126.428 324.365 126.335C324.085 126.242 323.642 126.195 323.035 126.195C322.335 126.195 321.705 126.475 321.145 127.035C320.585 127.572 320.153 128.283 319.85 129.17C319.547 130.033 319.395 130.967 319.395 131.97C319.395 132.973 319.512 133.825 319.745 134.525C320.002 135.225 320.363 135.762 320.83 136.135C321.297 136.508 321.845 136.695 322.475 136.695C323.082 136.695 323.688 136.497 324.295 136.1C324.902 135.703 325.415 135.143 325.835 134.42C326.255 133.673 326.465 132.81 326.465 131.83ZM336.227 114.225C336.227 113.735 336.379 113.35 336.682 113.07C336.985 112.79 337.359 112.592 337.802 112.475C338.245 112.358 338.677 112.3 339.097 112.3C339.844 112.3 340.462 112.44 340.952 112.72C341.442 112.977 341.687 113.478 341.687 114.225C341.664 116.162 341.57 118.227 341.407 120.42C341.267 122.59 341.127 124.795 340.987 127.035C340.894 128.388 340.812 129.765 340.742 131.165C340.695 132.542 340.672 133.918 340.672 135.295C340.672 135.972 340.66 136.625 340.637 137.255C340.637 137.862 340.66 138.562 340.707 139.355C340.754 139.938 340.509 140.417 339.972 140.79C339.435 141.163 338.665 141.35 337.662 141.35C336.659 141.35 335.994 141.128 335.667 140.685C335.34 140.218 335.177 139.693 335.177 139.11C335.177 137.29 335.189 135.657 335.212 134.21C335.259 132.74 335.305 131.41 335.352 130.22C335.422 129.007 335.492 127.91 335.562 126.93C335.655 125.6 335.749 124.293 335.842 123.01C335.935 121.703 336.017 120.338 336.087 118.915C336.157 117.468 336.204 115.905 336.227 114.225ZM343.833 123.745C343.763 123.348 343.879 123.01 344.183 122.73C344.509 122.427 344.929 122.205 345.443 122.065C345.956 121.902 346.481 121.82 347.018 121.82C347.414 121.82 347.811 121.937 348.208 122.17C348.628 122.38 348.919 122.858 349.083 123.605C349.363 124.748 349.666 125.927 349.993 127.14C350.343 128.353 350.716 129.602 351.113 130.885C351.509 132.145 351.929 133.463 352.373 134.84C353.049 132.577 353.796 130.442 354.613 128.435C355.429 126.428 356.223 124.597 356.993 122.94C357.203 122.473 357.506 122.17 357.903 122.03C358.299 121.89 358.673 121.82 359.023 121.82C359.466 121.82 359.898 121.878 360.318 121.995C360.761 122.112 361.134 122.31 361.438 122.59C361.741 122.847 361.893 123.185 361.893 123.605C361.916 123.745 361.904 123.897 361.858 124.06C361.834 124.223 361.776 124.398 361.683 124.585C361.169 125.635 360.679 126.673 360.213 127.7C359.769 128.703 359.314 129.788 358.848 130.955C358.381 132.098 357.891 133.37 357.378 134.77C356.864 136.147 356.304 137.733 355.698 139.53C355.441 140.23 354.963 140.72 354.263 141C353.586 141.28 352.909 141.42 352.233 141.42C351.673 141.42 351.171 141.338 350.728 141.175C350.284 141.035 349.876 140.615 349.503 139.915C349.013 139.052 348.511 138.025 347.998 136.835C347.508 135.622 347.029 134.362 346.563 133.055C346.119 131.725 345.699 130.453 345.303 129.24C344.906 128.003 344.579 126.907 344.323 125.95C344.066 124.97 343.903 124.235 343.833 123.745ZM365.032 123.99C365.149 123.313 365.429 122.823 365.872 122.52C366.316 122.193 366.829 122.03 367.412 122.03C368.416 122.03 369.209 122.217 369.792 122.59C370.399 122.963 370.644 123.547 370.527 124.34C370.387 125.297 370.259 126.428 370.142 127.735C370.049 129.042 369.956 130.407 369.862 131.83C369.792 133.23 369.746 134.572 369.722 135.855C369.722 137.138 369.734 138.235 369.757 139.145C369.804 139.962 369.501 140.545 368.847 140.895C368.217 141.222 367.459 141.385 366.572 141.385C365.779 141.385 365.184 141.187 364.787 140.79C364.414 140.37 364.227 139.705 364.227 138.795C364.227 137.255 364.251 135.703 364.297 134.14C364.367 132.553 364.449 131.072 364.542 129.695C364.636 128.318 364.729 127.128 364.822 126.125C364.916 125.122 364.986 124.41 365.032 123.99ZM364.997 115.45C364.997 115.03 365.137 114.645 365.417 114.295C365.721 113.945 366.094 113.653 366.537 113.42C366.981 113.187 367.447 113.07 367.937 113.07C368.871 113.07 369.652 113.385 370.282 114.015C370.912 114.645 371.227 115.392 371.227 116.255C371.227 117.002 370.912 117.632 370.282 118.145C369.652 118.658 368.847 118.915 367.867 118.915C367.027 118.915 366.339 118.588 365.802 117.935C365.266 117.258 364.997 116.43 364.997 115.45ZM374.31 124.025C374.217 123.278 374.497 122.718 375.15 122.345C375.804 121.972 376.632 121.785 377.635 121.785C378.055 121.785 378.394 121.913 378.65 122.17C378.93 122.427 379.129 122.823 379.245 123.36C379.385 123.897 379.455 124.632 379.455 125.565C380.062 124.655 380.692 123.932 381.345 123.395C381.999 122.858 382.699 122.473 383.445 122.24C384.192 121.983 384.962 121.855 385.755 121.855C386.572 121.855 387.319 122.007 387.995 122.31C388.695 122.613 389.29 123.057 389.78 123.64C390.294 124.2 390.679 124.888 390.935 125.705C391.729 124.258 392.65 123.197 393.7 122.52C394.774 121.82 395.882 121.47 397.025 121.47C398.122 121.47 399.114 121.855 400 122.625C400.887 123.395 401.587 124.468 402.1 125.845C402.614 127.198 402.87 128.785 402.87 130.605C402.87 132.145 402.824 133.673 402.73 135.19C402.66 136.707 402.637 138.002 402.66 139.075C402.66 139.752 402.392 140.242 401.855 140.545C401.342 140.848 400.677 141 399.86 141C399.044 141 398.367 140.848 397.83 140.545C397.294 140.242 397.025 139.752 397.025 139.075C397.025 138.142 397.06 136.952 397.13 135.505C397.224 134.035 397.27 132.437 397.27 130.71C397.27 129.987 397.2 129.31 397.06 128.68C396.944 128.05 396.745 127.56 396.465 127.21C396.209 126.837 395.905 126.65 395.555 126.65C394.645 126.65 393.875 127 393.245 127.7C392.615 128.4 392.102 129.275 391.705 130.325C391.682 131.795 391.635 133.207 391.565 134.56C391.495 135.89 391.414 137.01 391.32 137.92C391.25 138.923 391.017 139.693 390.62 140.23C390.224 140.767 389.617 141.035 388.8 141.035C387.657 141.035 386.852 140.872 386.385 140.545C385.919 140.218 385.685 139.81 385.685 139.32C385.685 138.993 385.697 138.527 385.72 137.92C385.767 137.29 385.802 136.59 385.825 135.82C385.872 135.027 385.907 134.233 385.93 133.44C385.977 132.647 386 131.923 386 131.27C386 130.593 385.977 130.057 385.93 129.66C385.86 129.03 385.767 128.517 385.65 128.12C385.534 127.7 385.394 127.385 385.23 127.175C385.067 126.942 384.869 126.825 384.635 126.825C383.982 126.825 383.375 127.023 382.815 127.42C382.255 127.793 381.754 128.307 381.31 128.96C380.89 129.613 380.529 130.337 380.225 131.13V137.15C380.225 138.667 379.945 139.752 379.385 140.405C378.825 141.035 377.962 141.35 376.795 141.35C376.165 141.35 375.664 141.245 375.29 141.035C374.94 140.825 374.684 140.463 374.52 139.95C374.38 139.413 374.31 138.69 374.31 137.78C374.334 136.847 374.404 135.657 374.52 134.21C374.544 134.047 374.555 133.895 374.555 133.755C374.555 133.615 374.555 133.37 374.555 133.02C374.555 132.647 374.555 132.063 374.555 131.27C374.555 129.543 374.532 128.073 374.485 126.86C374.439 125.647 374.38 124.702 374.31 124.025ZM414.585 141.35C413.209 141.35 411.972 141.117 410.875 140.65C409.802 140.16 408.892 139.507 408.145 138.69C407.399 137.85 406.827 136.87 406.43 135.75C406.034 134.607 405.835 133.382 405.835 132.075C405.835 130.815 406.069 129.59 406.535 128.4C407.002 127.187 407.655 126.102 408.495 125.145C409.359 124.188 410.362 123.43 411.505 122.87C412.649 122.31 413.909 122.03 415.285 122.03C416.452 122.03 417.479 122.228 418.365 122.625C419.252 123.022 419.929 123.593 420.395 124.34C420.885 125.063 421.13 125.938 421.13 126.965C421.13 127.828 420.944 128.692 420.57 129.555C420.197 130.418 419.602 131.223 418.785 131.97C417.992 132.693 416.93 133.3 415.6 133.79C414.294 134.257 412.684 134.502 410.77 134.525L410.735 130.71C411.669 130.757 412.52 130.628 413.29 130.325C414.084 129.998 414.725 129.555 415.215 128.995C415.729 128.412 415.985 127.77 415.985 127.07C415.985 126.697 415.88 126.393 415.67 126.16C415.484 125.927 415.204 125.81 414.83 125.81C414.41 125.81 413.99 125.938 413.57 126.195C413.174 126.428 412.812 126.79 412.485 127.28C412.182 127.747 411.925 128.365 411.715 129.135C411.529 129.882 411.435 130.768 411.435 131.795C411.435 133.148 411.61 134.187 411.96 134.91C412.31 135.633 412.765 136.147 413.325 136.45C413.885 136.73 414.504 136.87 415.18 136.87C416.09 136.87 416.907 136.707 417.63 136.38C418.377 136.03 419.019 135.517 419.555 134.84C419.812 134.49 420.069 134.222 420.325 134.035C420.582 133.825 420.862 133.72 421.165 133.72C421.702 133.72 422.169 133.977 422.565 134.49C422.962 134.98 423.16 135.54 423.16 136.17C423.16 136.473 423.067 136.8 422.88 137.15C422.694 137.5 422.355 137.92 421.865 138.41C420.932 139.367 419.847 140.102 418.61 140.615C417.374 141.105 416.032 141.35 414.585 141.35ZM426.344 123.045C426.461 122.415 426.753 121.983 427.219 121.75C427.686 121.493 428.374 121.365 429.284 121.365C430.171 121.365 430.801 121.54 431.174 121.89C431.571 122.24 431.769 122.602 431.769 122.975C431.769 123.162 431.746 123.407 431.699 123.71C431.653 124.013 431.606 124.352 431.559 124.725C431.536 125.098 431.513 125.495 431.489 125.915C431.793 125.285 432.154 124.643 432.574 123.99C433.018 123.337 433.624 122.8 434.394 122.38C435.164 121.937 436.168 121.715 437.404 121.715C439.458 121.715 440.998 122.462 442.024 123.955C443.051 125.425 443.564 127.362 443.564 129.765C443.564 131.002 443.483 132.168 443.319 133.265C443.156 134.338 442.993 135.388 442.829 136.415C442.666 137.418 442.584 138.445 442.584 139.495C442.584 139.985 442.339 140.44 441.849 140.86C441.359 141.257 440.601 141.455 439.574 141.455C438.571 141.455 437.859 141.245 437.439 140.825C437.043 140.405 436.844 139.903 436.844 139.32C436.844 138.27 436.938 137.302 437.124 136.415C437.311 135.505 437.486 134.583 437.649 133.65C437.836 132.717 437.929 131.667 437.929 130.5C437.929 129.567 437.848 128.843 437.684 128.33C437.544 127.793 437.311 127.408 436.984 127.175C436.681 126.918 436.308 126.79 435.864 126.79C435.374 126.79 434.919 126.965 434.499 127.315C434.079 127.665 433.694 128.12 433.344 128.68C432.994 129.24 432.691 129.858 432.434 130.535C432.178 131.188 431.956 131.83 431.769 132.46C431.839 133.743 431.874 135.015 431.874 136.275C431.898 137.535 431.874 138.655 431.804 139.635C431.781 140.125 431.536 140.557 431.069 140.93C430.626 141.303 429.903 141.49 428.899 141.49C427.989 141.49 427.313 141.35 426.869 141.07C426.449 140.79 426.169 140.428 426.029 139.985C425.913 139.518 425.854 139.028 425.854 138.515C425.854 137.698 425.889 136.835 425.959 135.925C426.029 135.015 426.158 134.128 426.344 133.265C426.298 131.982 426.251 130.827 426.204 129.8C426.181 128.773 426.158 127.84 426.134 127C426.134 126.16 426.146 125.413 426.169 124.76C426.193 124.107 426.251 123.535 426.344 123.045ZM449.381 118.74C449.451 118.203 449.661 117.783 450.011 117.48C450.384 117.153 451.014 116.99 451.901 116.99C452.484 116.99 453.044 117.06 453.581 117.2C454.117 117.317 454.537 117.527 454.841 117.83C455.144 118.11 455.249 118.518 455.156 119.055C455.016 120.268 454.876 121.528 454.736 122.835C454.596 124.118 454.491 125.448 454.421 126.825C454.351 128.178 454.339 129.578 454.386 131.025C454.432 132.518 454.514 133.65 454.631 134.42C454.771 135.167 454.934 135.668 455.121 135.925C455.307 136.158 455.494 136.275 455.681 136.275C455.891 136.275 456.124 136.182 456.381 135.995C456.637 135.785 456.882 135.552 457.116 135.295C457.372 135.015 457.571 134.793 457.711 134.63C457.851 134.467 458.014 134.327 458.201 134.21C458.411 134.07 458.644 134 458.901 134C459.251 134 459.612 134.093 459.986 134.28C460.359 134.467 460.674 134.735 460.931 135.085C461.211 135.412 461.351 135.797 461.351 136.24C461.351 136.403 461.304 136.683 461.211 137.08C461.117 137.453 460.791 137.92 460.231 138.48C459.601 139.11 458.901 139.635 458.131 140.055C457.361 140.475 456.602 140.79 455.856 141C455.109 141.187 454.444 141.28 453.861 141.28C452.367 141.28 451.259 140.895 450.536 140.125C449.812 139.355 449.299 138.305 448.996 136.975C448.786 135.948 448.646 134.945 448.576 133.965C448.529 132.985 448.506 131.97 448.506 130.92C448.506 129.497 448.529 128.12 448.576 126.79C448.646 125.46 448.739 124.142 448.856 122.835C448.996 121.505 449.171 120.14 449.381 118.74ZM447.666 126.405C447.222 126.428 446.837 126.265 446.511 125.915C446.207 125.565 446.056 125.04 446.056 124.34C446.056 123.663 446.207 123.162 446.511 122.835C446.837 122.508 447.222 122.333 447.666 122.31C448.272 122.263 449.031 122.228 449.941 122.205C450.851 122.158 451.819 122.135 452.846 122.135C453.896 122.112 454.957 122.1 456.031 122.1C457.104 122.077 458.119 122.065 459.076 122.065C459.472 122.065 459.846 122.228 460.196 122.555C460.546 122.882 460.721 123.442 460.721 124.235C460.721 124.888 460.534 125.378 460.161 125.705C459.811 126.008 459.449 126.16 459.076 126.16C458.096 126.16 457.127 126.172 456.171 126.195C455.237 126.195 454.304 126.207 453.371 126.23C452.437 126.23 451.492 126.253 450.536 126.3C449.602 126.323 448.646 126.358 447.666 126.405ZM472.92 121.645C473.48 121.645 474.134 121.703 474.88 121.82C475.627 121.937 476.327 122.1 476.98 122.31C477.657 122.52 478.17 122.777 478.52 123.08C479.64 123.943 480.457 125.075 480.97 126.475C481.484 127.875 481.74 129.368 481.74 130.955C481.74 132.238 481.565 133.498 481.215 134.735C480.865 135.948 480.329 137.045 479.605 138.025C478.882 139.005 477.972 139.787 476.875 140.37C475.779 140.953 474.484 141.245 472.99 141.245C471.287 141.245 469.817 140.988 468.58 140.475C467.344 139.962 466.317 139.25 465.5 138.34C464.707 137.43 464.112 136.392 463.715 135.225C463.342 134.058 463.155 132.822 463.155 131.515C463.155 130.255 463.342 129.042 463.715 127.875C464.112 126.685 464.707 125.635 465.5 124.725C466.317 123.792 467.332 123.045 468.545 122.485C469.782 121.925 471.24 121.645 472.92 121.645ZM469 131.34C469 132.203 469.129 133.055 469.385 133.895C469.642 134.712 470.05 135.388 470.61 135.925C471.17 136.462 471.882 136.73 472.745 136.73C473.329 136.73 473.819 136.567 474.215 136.24C474.635 135.89 474.962 135.447 475.195 134.91C475.452 134.35 475.627 133.755 475.72 133.125C475.837 132.472 475.895 131.842 475.895 131.235C475.895 129.905 475.72 128.855 475.37 128.085C475.044 127.315 474.6 126.732 474.04 126.335C473.784 126.265 473.55 126.218 473.34 126.195C473.154 126.148 472.944 126.125 472.71 126.125C472.034 126.125 471.45 126.277 470.96 126.58C470.47 126.883 470.085 127.28 469.805 127.77C469.525 128.26 469.315 128.808 469.175 129.415C469.059 130.022 469 130.663 469 131.34Z" fill="white"/>
<g filter="url(#filter0_d_424_960)">
<path d="M129.829 147.754C110.019 161.039 83.8739 158.957 64.4249 146.12C43.8784 132.56 36.3024 107.647 43.8727 84.6022C51.0276 62.8223 71.8109 44.8566 95.159 44.0106C98.2041 43.9005 101.145 44.6523 103.54 46.1616C126.08 45.1197 146.339 64.8662 151.54 87.6875C156.482 109.372 148.786 135.04 129.829 147.754Z" fill="white"/>
</g>
<path d="M124.462 140.051C107.836 151.201 85.8932 149.454 69.5699 138.68C52.3255 127.299 45.967 106.39 52.3207 87.0487C58.3257 68.7691 75.7689 53.6907 95.3646 52.9807C97.9204 52.8883 100.389 53.5193 102.399 54.786C121.316 53.9116 138.319 70.4845 142.684 89.6381C146.832 107.838 140.373 129.38 124.462 140.051Z" fill="#98BCD7"/>
<path d="M79.16 85.5318C78.6267 85.5318 77.88 85.3451 76.92 84.9718C75.96 84.5451 75.08 83.8518 74.28 82.8918C73.48 81.9318 73.08 80.5985 73.08 78.8918C73.08 77.9318 73.4267 76.9985 74.12 76.0918C74.8133 75.1851 75.5867 74.3585 76.44 73.6118C79.3733 70.9451 82.2 69.1585 84.92 68.2518C87.6933 67.2918 90.52 66.8118 93.4 66.8118C96.6 66.8118 99.4267 67.3185 101.88 68.3318C104.333 69.3451 106.413 70.7318 108.12 72.4918C109.827 74.1985 111.107 76.1185 111.96 78.2518C112.867 80.3851 113.32 82.5718 113.32 84.8118C113.32 87.4785 112.653 89.8785 111.32 92.0118C109.987 94.1451 108.333 95.8518 106.36 97.1318C109.293 98.1451 111.64 99.4518 113.4 101.052C115.16 102.598 116.413 104.358 117.16 106.332C117.907 108.252 118.28 110.332 118.28 112.572C118.28 115.665 117.453 118.545 115.8 121.212C114.147 123.878 111.613 126.038 108.2 127.692C104.84 129.292 100.6 130.092 95.48 130.092C93.1867 130.092 90.7867 129.852 88.28 129.372C85.8267 128.945 83.4267 128.198 81.08 127.132C78.7867 126.065 76.6533 124.572 74.68 122.652C74.2 122.172 73.8 121.665 73.48 121.132C73.2133 120.545 73.08 119.825 73.08 118.972C73.08 118.012 73.3733 117.025 73.96 116.012C74.6 114.945 75.4 114.065 76.36 113.372C77.32 112.625 78.28 112.252 79.24 112.252C81.1067 112.252 83 113.345 84.92 115.532C85.4533 116.065 86.1467 116.625 87 117.212C87.9067 117.798 89.0267 118.305 90.36 118.732C91.6933 119.105 93.16 119.292 94.76 119.292C96.84 119.292 98.5467 118.918 99.88 118.172C101.267 117.372 102.307 116.358 103 115.132C103.747 113.852 104.12 112.545 104.12 111.212C104.12 108.918 103.4 107.105 101.96 105.772C100.573 104.438 99 103.532 97.24 103.052C96.0667 103.585 94.8133 103.985 93.48 104.252C92.1467 104.518 90.8667 104.678 89.64 104.732C88.4133 104.732 87.3733 104.652 86.52 104.492C85.4 104.278 84.3867 103.852 83.48 103.212C82.6267 102.518 82.2 101.505 82.2 100.172C82.2 98.6785 82.68 97.5051 83.64 96.6518C84.6533 95.7985 85.7733 95.1851 87 94.8118C88.7067 94.2251 90.3067 93.8785 91.8 93.7718C93.2933 93.6118 94.8667 93.6118 96.52 93.7718C97.96 92.8651 99 91.7185 99.64 90.3318C100.333 88.9451 100.68 87.5318 100.68 86.0918C100.68 84.9185 100.493 83.8251 100.12 82.8118C99.7467 81.7451 99.1867 80.8385 98.44 80.0918C97.6933 79.2918 96.8133 78.6785 95.8 78.2518C94.84 77.7718 93.7733 77.5318 92.6 77.5318C90.5733 77.5318 88.7333 78.0651 87.08 79.1318C85.48 80.1985 83.9867 81.6385 82.6 83.4518C82.2267 83.9851 81.6933 84.4651 81 84.8918C80.36 85.3185 79.7467 85.5318 79.16 85.5318Z" fill="white"/>
<defs>
<filter id="filter0_d_424_960" x="37" y="44" width="120" height="120.782" filterUnits="userSpaceOnUse" color-interpolation-filters="sRGB">
<feFlood flood-opacity="0" result="BackgroundImageFix"/>
<feColorMatrix in="SourceAlpha" type="matrix" values="0 0 0 0 0 0 0 0 0 0 0 0 0 0 0 0 0 0 127 0" result="hardAlpha"/>
<feOffset dy="4"/>
<feGaussianBlur stdDeviation="2"/>
<feComposite in2="hardAlpha" operator="out"/>
<feColorMatrix type="matrix" values="0 0 0 0 0 0 0 0 0 0 0 0 0 0 0 0 0 0 0.25 0"/>
<feBlend mode="normal" in2="BackgroundImageFix" result="effect1_dropShadow_424_960"/>
<feBlend mode="normal" in="SourceGraphic" in2="effect1_dropShadow_424_960" result="shape"/>
</filter>
</defs>
</svg>
