<svg width="1161" height="1331" viewBox="0 0 1161 1331" fill="none" xmlns="http://www.w3.org/2000/svg">
<g id="Group 891">
<g id="Group 877">
<g id="Group 755">
<g id="Rectangle 190" filter="url(#filter0_d_2327_10616)">
<rect x="4" y="28" width="554" height="313" rx="15" fill="#FCF5F4"/>
</g>
<text id="Cabelos finos Orelhas pequenas com lobo delicado de implanta&#195;&#167;&#195;&#163;o baixa e pavilh&#195;&#163;o auricular pequeno Braquicefalia (cr&#195;&#162;nio largo em rela&#195;&#167;&#195;&#163;o a seu comprimento) com achatamento do occipital Excesso de tecido adiposo no pesco&#195;&#167;o" fill="black" xml:space="preserve" style="white-space: pre" font-family="Open Sans" font-size="18" letter-spacing="0em"><tspan x="54" y="109.483">Cabelos finos &#13;&#10;</tspan><tspan x="54" y="158.483">Orelhas pequenas com lobo delicado de implanta&#xe7;&#xe3;o </tspan><tspan x="54" y="183.483">baixa e pavilh&#xe3;o auricular pequeno &#13;&#10;</tspan><tspan x="54" y="232.483">Braquicefalia (cr&#xe2;nio largo em rela&#xe7;&#xe3;o a seu </tspan><tspan x="54" y="257.483">comprimento) com achatamento do occipital&#13;&#10;</tspan><tspan x="54" y="306.483">Excesso de tecido adiposo no pesco&#xe7;o  &#13;&#10;</tspan><tspan x="54" y="355.483">&#13;&#10;</tspan></text>
</g>
<path id="Vector" d="M36.5748 109.566C33.5488 111.769 29.2922 111.363 26.5762 108.836C25.3855 107.728 24.5709 106.293 24.2297 104.789C24.145 104.599 24.0842 104.385 24.0553 104.144C23.5522 99.9417 26.5364 95.8371 30.7211 95.1037C34.2891 94.4783 38.0091 96.7524 39.4202 100.01C40.8742 103.368 39.4712 107.459 36.5748 109.566ZM35.7498 103.443C36.0776 101.298 34.1042 99.2945 32.0542 99.2134C31.0761 99.1746 30.2078 99.57 29.5451 100.196C29.5135 100.81 29.2067 101.408 28.71 101.843C28.483 102.042 28.3439 102.303 28.2686 102.591C28.2112 102.938 28.1993 103.288 28.2404 103.631C28.2422 103.647 28.242 103.661 28.2435 103.676C28.3125 104.08 28.4534 104.468 28.6234 104.77C29.1584 105.72 30.1656 106.445 31.2186 106.718C33.3146 107.261 35.4228 105.584 35.7498 103.443Z" fill="#AF87CE"/>
<path id="Vector_2" d="M36.5748 158.566C33.5488 160.769 29.2922 160.363 26.5762 157.836C25.3855 156.728 24.5709 155.293 24.2297 153.789C24.145 153.599 24.0842 153.385 24.0553 153.144C23.5522 148.942 26.5364 144.837 30.7211 144.104C34.2891 143.478 38.0091 145.752 39.4202 149.01C40.8742 152.368 39.4712 156.459 36.5748 158.566ZM35.7498 152.443C36.0776 150.298 34.1042 148.295 32.0542 148.213C31.0761 148.175 30.2078 148.57 29.5451 149.196C29.5135 149.81 29.2067 150.408 28.71 150.843C28.483 151.042 28.3439 151.303 28.2686 151.591C28.2112 151.938 28.1993 152.288 28.2404 152.631C28.2422 152.647 28.242 152.661 28.2435 152.676C28.3125 153.08 28.4534 153.468 28.6234 153.77C29.1584 154.72 30.1656 155.445 31.2186 155.718C33.3146 156.261 35.4228 154.584 35.7498 152.443Z" fill="#AF87CE"/>
<path id="Vector_3" d="M36.5748 232.566C33.5488 234.769 29.2922 234.363 26.5762 231.836C25.3855 230.728 24.5709 229.293 24.2297 227.789C24.145 227.599 24.0842 227.385 24.0553 227.144C23.5522 222.942 26.5364 218.837 30.7211 218.104C34.2891 217.478 38.0091 219.752 39.4202 223.01C40.8742 226.368 39.4712 230.459 36.5748 232.566ZM35.7498 226.443C36.0776 224.298 34.1042 222.295 32.0542 222.213C31.0761 222.175 30.2078 222.57 29.5451 223.196C29.5135 223.81 29.2067 224.408 28.71 224.843C28.483 225.042 28.3439 225.303 28.2686 225.591C28.2112 225.938 28.1993 226.288 28.2404 226.631C28.2422 226.647 28.242 226.661 28.2435 226.676C28.3125 227.08 28.4534 227.468 28.6234 227.77C29.1584 228.72 30.1656 229.445 31.2186 229.718C33.3146 230.261 35.4228 228.584 35.7498 226.443Z" fill="#AF87CE"/>
<path id="Vector_4" d="M36.5748 305.566C33.5488 307.769 29.2922 307.363 26.5762 304.836C25.3855 303.728 24.5709 302.293 24.2297 300.789C24.145 300.599 24.0842 300.385 24.0553 300.144C23.5522 295.942 26.5364 291.837 30.7211 291.104C34.2891 290.478 38.0091 292.752 39.4202 296.01C40.8742 299.368 39.4712 303.459 36.5748 305.566ZM35.7498 299.443C36.0776 297.298 34.1042 295.295 32.0542 295.213C31.0761 295.175 30.2078 295.57 29.5451 296.196C29.5135 296.81 29.2067 297.408 28.71 297.843C28.483 298.042 28.3439 298.303 28.2686 298.591C28.2112 298.938 28.1993 299.288 28.2404 299.631C28.2422 299.647 28.242 299.661 28.2435 299.676C28.3125 300.08 28.4534 300.468 28.6234 300.77C29.1584 301.72 30.1656 302.445 31.2186 302.718C33.3146 303.261 35.4228 301.584 35.7498 299.443Z" fill="#AF87CE"/>
</g>
<g id="Group 880">
<g id="Group 755_2">
<g id="Rectangle 190_2" filter="url(#filter1_d_2327_10616)">
<rect x="595" y="409" width="554" height="287" rx="15" fill="#FCF5F4"/>
</g>
<text id="Boca entreaberta com protrus&#195;&#163;o de l&#195;&#173;ngua Hipotonia L&#195;&#173;ngua com sulcos caracter&#195;&#173;sticos Palato ogival (alto)" fill="black" xml:space="preserve" style="white-space: pre" font-family="Open Sans" font-size="18" letter-spacing="0em"><tspan x="645" y="490.483">Boca entreaberta com protrus&#xe3;o de l&#xed;ngua&#13;&#10;</tspan><tspan x="645" y="539.483">Hipotonia&#13;&#10;</tspan><tspan x="645" y="588.483">L&#xed;ngua com sulcos caracter&#xed;sticos  &#13;&#10;</tspan><tspan x="645" y="637.483">Palato ogival (alto)&#13;&#10;</tspan><tspan x="645" y="686.483">&#13;&#10;</tspan></text>
</g>
<path id="Vector_5" d="M627.575 490.566C624.549 492.769 620.292 492.363 617.576 489.836C616.386 488.728 615.571 487.293 615.23 485.789C615.145 485.599 615.084 485.385 615.055 485.144C614.552 480.942 617.536 476.837 621.721 476.104C625.289 475.478 629.009 477.752 630.42 481.01C631.874 484.368 630.471 488.459 627.575 490.566ZM626.75 484.443C627.078 482.298 625.104 480.295 623.054 480.213C622.076 480.175 621.208 480.57 620.545 481.196C620.514 481.81 620.207 482.408 619.71 482.843C619.483 483.042 619.344 483.303 619.269 483.591C619.211 483.938 619.199 484.288 619.24 484.631C619.242 484.647 619.242 484.661 619.244 484.676C619.312 485.08 619.453 485.468 619.623 485.77C620.158 486.72 621.166 487.445 622.219 487.718C624.315 488.261 626.423 486.584 626.75 484.443Z" fill="#AF87CE"/>
<path id="Vector_6" d="M627.575 539.566C624.549 541.769 620.292 541.363 617.576 538.836C616.386 537.728 615.571 536.293 615.23 534.789C615.145 534.599 615.084 534.385 615.055 534.144C614.552 529.942 617.536 525.837 621.721 525.104C625.289 524.478 629.009 526.752 630.42 530.01C631.874 533.368 630.471 537.459 627.575 539.566ZM626.75 533.443C627.078 531.298 625.104 529.295 623.054 529.213C622.076 529.175 621.208 529.57 620.545 530.196C620.514 530.81 620.207 531.408 619.71 531.843C619.483 532.042 619.344 532.303 619.269 532.591C619.211 532.938 619.199 533.288 619.24 533.631C619.242 533.647 619.242 533.661 619.244 533.676C619.312 534.08 619.453 534.468 619.623 534.77C620.158 535.72 621.166 536.445 622.219 536.718C624.315 537.261 626.423 535.584 626.75 533.443Z" fill="#AF87CE"/>
<path id="Vector_7" d="M627.575 588.566C624.549 590.769 620.292 590.363 617.576 587.836C616.386 586.728 615.571 585.293 615.23 583.789C615.145 583.599 615.084 583.385 615.055 583.144C614.552 578.942 617.536 574.837 621.721 574.104C625.289 573.478 629.009 575.752 630.42 579.01C631.874 582.368 630.471 586.459 627.575 588.566ZM626.75 582.443C627.078 580.298 625.104 578.295 623.054 578.213C622.076 578.175 621.208 578.57 620.545 579.196C620.514 579.81 620.207 580.408 619.71 580.843C619.483 581.042 619.344 581.303 619.269 581.591C619.211 581.938 619.199 582.288 619.24 582.631C619.242 582.647 619.242 582.661 619.244 582.676C619.312 583.08 619.453 583.468 619.623 583.77C620.158 584.72 621.166 585.445 622.219 585.718C624.315 586.261 626.423 584.584 626.75 582.443Z" fill="#AF87CE"/>
<path id="Vector_8" d="M627.575 637.566C624.549 639.769 620.292 639.363 617.576 636.836C616.386 635.728 615.571 634.293 615.23 632.789C615.145 632.599 615.084 632.385 615.055 632.144C614.552 627.942 617.536 623.837 621.721 623.104C625.289 622.478 629.009 624.752 630.42 628.01C631.874 631.368 630.471 635.459 627.575 637.566ZM626.75 631.443C627.078 629.298 625.104 627.295 623.054 627.213C622.076 627.175 621.208 627.57 620.545 628.196C620.514 628.81 620.207 629.408 619.71 629.843C619.483 630.042 619.344 630.303 619.269 630.591C619.211 630.938 619.199 631.288 619.24 631.631C619.242 631.647 619.242 631.661 619.244 631.676C619.312 632.08 619.453 632.468 619.623 632.77C620.158 633.72 621.166 634.445 622.219 634.718C624.315 635.261 626.423 633.584 626.75 631.443Z" fill="#AF87CE"/>
</g>
<g id="Group 879">
<g id="Group 755_3">
<g id="Rectangle 190_3" filter="url(#filter2_d_2327_10616)">
<rect x="10" y="406" width="554" height="290" rx="15" fill="#FCF5F4"/>
</g>
<text id="Pregas palpebrais obl&#195;&#173;quas para cima Sin&#195;&#179;fris (sobrancelhas unidas) Manchas de Brushfield (pequenos pontos brancos presentes na periferia da &#195;&#173;ris do olho humano devido a uma agrega&#195;&#167;&#195;&#163;o de um elemento normal da &#195;&#173;ris &#226;&#128;&#147; tecido conjuntivo)" fill="black" xml:space="preserve" style="white-space: pre" font-family="Open Sans" font-size="18" letter-spacing="0em"><tspan x="60" y="487.483">Pregas palpebrais obl&#xed;quas para cima&#13;&#10;</tspan><tspan x="60" y="536.483">Sin&#xf3;fris (sobrancelhas unidas)&#13;&#10;</tspan><tspan x="60" y="585.483">Manchas de Brushfield (pequenos pontos brancos </tspan><tspan x="60" y="610.483">presentes na periferia da &#xed;ris do olho humano devido a </tspan><tspan x="60" y="635.483">uma agrega&#xe7;&#xe3;o de um elemento normal da &#xed;ris &#x2013; tecido </tspan><tspan x="60" y="660.483">conjuntivo)&#13;&#10;</tspan><tspan x="60" y="709.483">&#13;&#10;</tspan></text>
</g>
<path id="Vector_9" d="M42.5748 487.566C39.5488 489.769 35.2922 489.363 32.5762 486.836C31.3855 485.728 30.5709 484.293 30.2297 482.789C30.145 482.599 30.0842 482.385 30.0553 482.144C29.5522 477.942 32.5364 473.837 36.7211 473.104C40.2891 472.478 44.0091 474.752 45.4202 478.01C46.8742 481.368 45.4712 485.459 42.5748 487.566ZM41.7498 481.443C42.0776 479.298 40.1042 477.295 38.0542 477.213C37.0761 477.175 36.2078 477.57 35.5451 478.196C35.5135 478.81 35.2067 479.408 34.71 479.843C34.483 480.042 34.3439 480.303 34.2686 480.591C34.2112 480.938 34.1993 481.288 34.2404 481.631C34.2422 481.647 34.242 481.661 34.2435 481.676C34.3125 482.08 34.4534 482.468 34.6234 482.77C35.1584 483.72 36.1656 484.445 37.2186 484.718C39.3146 485.261 41.4228 483.584 41.7498 481.443Z" fill="#AF87CE"/>
<path id="Vector_10" d="M42.5748 536.566C39.5488 538.769 35.2922 538.363 32.5762 535.836C31.3855 534.728 30.5709 533.293 30.2297 531.789C30.145 531.599 30.0842 531.385 30.0553 531.144C29.5522 526.942 32.5364 522.837 36.7211 522.104C40.2891 521.478 44.0091 523.752 45.4202 527.01C46.8742 530.368 45.4712 534.459 42.5748 536.566ZM41.7498 530.443C42.0776 528.298 40.1042 526.295 38.0542 526.213C37.0761 526.175 36.2078 526.57 35.5451 527.196C35.5135 527.81 35.2067 528.408 34.71 528.843C34.483 529.042 34.3439 529.303 34.2686 529.591C34.2112 529.938 34.1993 530.288 34.2404 530.631C34.2422 530.647 34.242 530.661 34.2435 530.676C34.3125 531.08 34.4534 531.468 34.6234 531.77C35.1584 532.72 36.1656 533.445 37.2186 533.718C39.3146 534.261 41.4228 532.584 41.7498 530.443Z" fill="#AF87CE"/>
<path id="Vector_11" d="M43.5748 585.566C40.5488 587.769 36.2922 587.363 33.5762 584.836C32.3855 583.728 31.5709 582.293 31.2297 580.789C31.145 580.599 31.0842 580.385 31.0553 580.144C30.5522 575.942 33.5364 571.837 37.7211 571.104C41.2891 570.478 45.0091 572.752 46.4202 576.01C47.8742 579.368 46.4712 583.459 43.5748 585.566ZM42.7498 579.443C43.0776 577.298 41.1042 575.295 39.0542 575.213C38.0761 575.175 37.2078 575.57 36.5451 576.196C36.5135 576.81 36.2067 577.408 35.71 577.843C35.483 578.042 35.3439 578.303 35.2686 578.591C35.2112 578.938 35.1993 579.288 35.2404 579.631C35.2422 579.647 35.242 579.661 35.2435 579.676C35.3125 580.08 35.4534 580.468 35.6234 580.77C36.1584 581.72 37.1656 582.445 38.2186 582.718C40.3146 583.261 42.4228 581.584 42.7498 579.443Z" fill="#AF87CE"/>
</g>
<g id="Group 881">
<g id="Group 755_4">
<g id="Rectangle 190_4" filter="url(#filter3_d_2327_10616)">
<rect x="10" y="763" width="554" height="244" rx="15" fill="#FCF5F4"/>
</g>
<text id="Clindactilia do 5&#194;&#186; dedo (dedo curvo) Braquidactilia (dedos curtos) Prega simiesca (presen&#195;&#167;a de uma &#195;&#186;nica linha que se estende por toda a palma da m&#195;&#163;o)" fill="black" xml:space="preserve" style="white-space: pre" font-family="Open Sans" font-size="18" letter-spacing="0em"><tspan x="60" y="844.483">Clindactilia do 5&#xba; dedo (dedo curvo)&#13;&#10;</tspan><tspan x="60" y="893.483">Braquidactilia (dedos curtos) &#13;&#10;</tspan><tspan x="60" y="942.483">Prega simiesca (presen&#xe7;a de uma &#xfa;nica linha que se </tspan><tspan x="60" y="967.483">estende por toda a palma da m&#xe3;o)&#13;&#10;</tspan><tspan x="60" y="1016.48">&#13;&#10;</tspan></text>
</g>
<path id="Vector_12" d="M42.5748 844.566C39.5488 846.769 35.2922 846.363 32.5762 843.836C31.3855 842.728 30.5709 841.293 30.2297 839.789C30.145 839.599 30.0842 839.385 30.0553 839.144C29.5522 834.942 32.5364 830.837 36.7211 830.104C40.2891 829.478 44.0091 831.752 45.4202 835.01C46.8742 838.368 45.4712 842.459 42.5748 844.566ZM41.7498 838.443C42.0776 836.298 40.1042 834.295 38.0542 834.213C37.0761 834.175 36.2078 834.57 35.5451 835.196C35.5135 835.81 35.2067 836.408 34.71 836.843C34.483 837.042 34.3439 837.303 34.2686 837.591C34.2112 837.938 34.1993 838.288 34.2404 838.631C34.2422 838.647 34.242 838.661 34.2435 838.676C34.3125 839.08 34.4534 839.468 34.6234 839.77C35.1584 840.72 36.1656 841.445 37.2186 841.718C39.3146 842.261 41.4228 840.584 41.7498 838.443Z" fill="#AF87CE"/>
<path id="Vector_13" d="M42.5748 893.566C39.5488 895.769 35.2922 895.363 32.5762 892.836C31.3855 891.728 30.5709 890.293 30.2297 888.789C30.145 888.599 30.0842 888.385 30.0553 888.144C29.5522 883.942 32.5364 879.837 36.7211 879.104C40.2891 878.478 44.0091 880.752 45.4202 884.01C46.8742 887.368 45.4712 891.459 42.5748 893.566ZM41.7498 887.443C42.0776 885.298 40.1042 883.295 38.0542 883.213C37.0761 883.175 36.2078 883.57 35.5451 884.196C35.5135 884.81 35.2067 885.408 34.71 885.843C34.483 886.042 34.3439 886.303 34.2686 886.591C34.2112 886.938 34.1993 887.288 34.2404 887.631C34.2422 887.647 34.242 887.661 34.2435 887.676C34.3125 888.08 34.4534 888.468 34.6234 888.77C35.1584 889.72 36.1656 890.445 37.2186 890.718C39.3146 891.261 41.4228 889.584 41.7498 887.443Z" fill="#AF87CE"/>
<path id="Vector_14" d="M43.5748 942.566C40.5488 944.769 36.2922 944.363 33.5762 941.836C32.3855 940.728 31.5709 939.293 31.2297 937.789C31.145 937.599 31.0842 937.385 31.0553 937.144C30.5522 932.942 33.5364 928.837 37.7211 928.104C41.2891 927.478 45.0091 929.752 46.4202 933.01C47.8742 936.368 46.4712 940.459 43.5748 942.566ZM42.7498 936.443C43.0776 934.298 41.1042 932.295 39.0542 932.213C38.0761 932.175 37.2078 932.57 36.5451 933.196C36.5135 933.81 36.2067 934.408 35.71 934.843C35.483 935.042 35.3439 935.303 35.2686 935.591C35.2112 935.938 35.1993 936.288 35.2404 936.631C35.2422 936.647 35.242 936.661 35.2435 936.676C35.3125 937.08 35.4534 937.468 35.6234 937.77C36.1584 938.72 37.1656 939.445 38.2186 939.718C40.3146 940.261 42.4228 938.584 42.7498 936.443Z" fill="#AF87CE"/>
</g>
<g id="Group 883">
<g id="Group 755_5">
<g id="Rectangle 190_5" filter="url(#filter4_d_2327_10616)">
<rect x="303" y="1075" width="554" height="244" rx="15" fill="#FCF5F4"/>
</g>
<text id="Hipotonia Frouxid&#195;&#163;o ligamentar Di&#195;&#161;stase de retos abdominais (afastamento dos m&#195;&#186;sculos retos abdominais), h&#195;&#169;rnia umbilical." fill="black" xml:space="preserve" style="white-space: pre" font-family="Open Sans" font-size="18" letter-spacing="0em"><tspan x="353" y="1156.48">Hipotonia&#13;&#10;</tspan><tspan x="353" y="1205.48">Frouxid&#xe3;o ligamentar &#13;&#10;</tspan><tspan x="353" y="1254.48">Di&#xe1;stase de retos abdominais (afastamento dos </tspan><tspan x="353" y="1279.48">m&#xfa;sculos retos abdominais), h&#xe9;rnia umbilical.&#13;</tspan></text>
</g>
<path id="Vector_15" d="M335.575 1156.57C332.549 1158.77 328.292 1158.36 325.576 1155.84C324.386 1154.73 323.571 1153.29 323.23 1151.79C323.145 1151.6 323.084 1151.38 323.055 1151.14C322.552 1146.94 325.536 1142.84 329.721 1142.1C333.289 1141.48 337.009 1143.75 338.42 1147.01C339.874 1150.37 338.471 1154.46 335.575 1156.57ZM334.75 1150.44C335.078 1148.3 333.104 1146.29 331.054 1146.21C330.076 1146.17 329.208 1146.57 328.545 1147.2C328.514 1147.81 328.207 1148.41 327.71 1148.84C327.483 1149.04 327.344 1149.3 327.269 1149.59C327.211 1149.94 327.199 1150.29 327.24 1150.63C327.242 1150.65 327.242 1150.66 327.244 1150.68C327.312 1151.08 327.453 1151.47 327.623 1151.77C328.158 1152.72 329.166 1153.44 330.219 1153.72C332.315 1154.26 334.423 1152.58 334.75 1150.44Z" fill="#AF87CE"/>
<path id="Vector_16" d="M335.575 1205.57C332.549 1207.77 328.292 1207.36 325.576 1204.84C324.386 1203.73 323.571 1202.29 323.23 1200.79C323.145 1200.6 323.084 1200.38 323.055 1200.14C322.552 1195.94 325.536 1191.84 329.721 1191.1C333.289 1190.48 337.009 1192.75 338.42 1196.01C339.874 1199.37 338.471 1203.46 335.575 1205.57ZM334.75 1199.44C335.078 1197.3 333.104 1195.29 331.054 1195.21C330.076 1195.17 329.208 1195.57 328.545 1196.2C328.514 1196.81 328.207 1197.41 327.71 1197.84C327.483 1198.04 327.344 1198.3 327.269 1198.59C327.211 1198.94 327.199 1199.29 327.24 1199.63C327.242 1199.65 327.242 1199.66 327.244 1199.68C327.312 1200.08 327.453 1200.47 327.623 1200.77C328.158 1201.72 329.166 1202.44 330.219 1202.72C332.315 1203.26 334.423 1201.58 334.75 1199.44Z" fill="#AF87CE"/>
<path id="Vector_17" d="M336.575 1254.57C333.549 1256.77 329.292 1256.36 326.576 1253.84C325.386 1252.73 324.571 1251.29 324.23 1249.79C324.145 1249.6 324.084 1249.38 324.055 1249.14C323.552 1244.94 326.536 1240.84 330.721 1240.1C334.289 1239.48 338.009 1241.75 339.42 1245.01C340.874 1248.37 339.471 1252.46 336.575 1254.57ZM335.75 1248.44C336.078 1246.3 334.104 1244.29 332.054 1244.21C331.076 1244.17 330.208 1244.57 329.545 1245.2C329.514 1245.81 329.207 1246.41 328.71 1246.84C328.483 1247.04 328.344 1247.3 328.269 1247.59C328.211 1247.94 328.199 1248.29 328.24 1248.63C328.242 1248.65 328.242 1248.66 328.244 1248.68C328.312 1249.08 328.453 1249.47 328.623 1249.77C329.158 1250.72 330.166 1251.44 331.219 1251.72C333.315 1252.26 335.423 1250.58 335.75 1248.44Z" fill="#AF87CE"/>
</g>
<g id="Group 882">
<g id="Group 755_6">
<g id="Rectangle 190_6" filter="url(#filter5_d_2327_10616)">
<rect x="595" y="763" width="554" height="244" rx="15" fill="#FCF5F4"/>
</g>
<text id="Afastamento dos 1&#194;&#186; e 2&#194;&#186; podod&#195;&#161;ctilos P&#195;&#169; plano" fill="black" xml:space="preserve" style="white-space: pre" font-family="Open Sans" font-size="18" letter-spacing="0em"><tspan x="645" y="844.483">Afastamento dos 1&#xba; e 2&#xba; podod&#xe1;ctilos &#13;&#10;</tspan><tspan x="645" y="893.483">P&#xe9; plano&#13;</tspan></text>
</g>
<path id="Vector_18" d="M627.575 844.566C624.549 846.769 620.292 846.363 617.576 843.836C616.386 842.728 615.571 841.293 615.23 839.789C615.145 839.599 615.084 839.385 615.055 839.144C614.552 834.942 617.536 830.837 621.721 830.104C625.289 829.478 629.009 831.752 630.42 835.01C631.874 838.368 630.471 842.459 627.575 844.566ZM626.75 838.443C627.078 836.298 625.104 834.295 623.054 834.213C622.076 834.175 621.208 834.57 620.545 835.196C620.514 835.81 620.207 836.408 619.71 836.843C619.483 837.042 619.344 837.303 619.269 837.591C619.211 837.938 619.199 838.288 619.24 838.631C619.242 838.647 619.242 838.661 619.244 838.676C619.312 839.08 619.453 839.468 619.623 839.77C620.158 840.72 621.166 841.445 622.219 841.718C624.315 842.261 626.423 840.584 626.75 838.443Z" fill="#AF87CE"/>
<path id="Vector_19" d="M627.575 893.566C624.549 895.769 620.292 895.363 617.576 892.836C616.386 891.728 615.571 890.293 615.23 888.789C615.145 888.599 615.084 888.385 615.055 888.144C614.552 883.942 617.536 879.837 621.721 879.104C625.289 878.478 629.009 880.752 630.42 884.01C631.874 887.368 630.471 891.459 627.575 893.566ZM626.75 887.443C627.078 885.298 625.104 883.295 623.054 883.213C622.076 883.175 621.208 883.57 620.545 884.196C620.514 884.81 620.207 885.408 619.71 885.843C619.483 886.042 619.344 886.303 619.269 886.591C619.211 886.938 619.199 887.288 619.24 887.631C619.242 887.647 619.242 887.661 619.244 887.676C619.312 888.08 619.453 888.468 619.623 888.77C620.158 889.72 621.166 890.445 622.219 890.718C624.315 891.261 626.423 889.584 626.75 887.443Z" fill="#AF87CE"/>
</g>
<g id="Group 878">
<g id="Group 755_7">
<g id="Rectangle 190_7" filter="url(#filter6_d_2327_10616)">
<rect x="592" y="31" width="549" height="313" rx="15" fill="#FCF5F4"/>
</g>
<path id="Rectangle 265" d="M592 15C592 6.71573 598.716 0 607 0H733C750.121 0 764 13.8792 764 31C764 48.1208 750.121 62 733 62H592V15Z" fill="#AEABDA"/>
<text id="Face" fill="#434556" xml:space="preserve" style="white-space: pre" font-family="Open Sans" font-size="20" font-weight="600" letter-spacing="0em"><tspan x="615" y="38.7588">Face&#13;</tspan></text>
<text id="Face plana Retrognatia (desencontro das arcadas dent&#195;&#161;rias &#226;&#128;&#147; quando o maxilar superior n&#195;&#163;o recobre os dentes inferiores) Base nasal alargada" fill="black" xml:space="preserve" style="white-space: pre" font-family="Open Sans" font-size="18" letter-spacing="0em"><tspan x="642" y="112.483">Face plana&#13;&#10;</tspan><tspan x="642" y="161.483">Retrognatia (desencontro das arcadas dent&#xe1;rias &#x2013; </tspan><tspan x="642" y="186.483">quando o maxilar superior n&#xe3;o recobre os dentes </tspan><tspan x="642" y="211.483">inferiores)&#13;&#10;</tspan><tspan x="642" y="260.483">Base nasal alargada&#13;&#10;</tspan><tspan x="642" y="309.483">&#13;&#10;</tspan></text>
</g>
<path id="Vector_20" d="M624.575 112.566C621.549 114.769 617.292 114.363 614.576 111.836C613.386 110.728 612.571 109.293 612.23 107.789C612.145 107.599 612.084 107.385 612.055 107.144C611.552 102.942 614.536 98.8371 618.721 98.1037C622.289 97.4783 626.009 99.7524 627.42 103.01C628.874 106.368 627.471 110.459 624.575 112.566ZM623.75 106.443C624.078 104.298 622.104 102.295 620.054 102.213C619.076 102.175 618.208 102.57 617.545 103.196C617.514 103.81 617.207 104.408 616.71 104.843C616.483 105.042 616.344 105.303 616.269 105.591C616.211 105.938 616.199 106.288 616.24 106.631C616.242 106.647 616.242 106.661 616.244 106.676C616.312 107.08 616.453 107.468 616.623 107.77C617.158 108.72 618.166 109.445 619.219 109.718C621.315 110.261 623.423 108.584 623.75 106.443Z" fill="#AF87CE"/>
<path id="Vector_21" d="M624.575 161.566C621.549 163.769 617.292 163.363 614.576 160.836C613.386 159.728 612.571 158.293 612.23 156.789C612.145 156.599 612.084 156.385 612.055 156.144C611.552 151.942 614.536 147.837 618.721 147.104C622.289 146.478 626.009 148.752 627.42 152.01C628.874 155.368 627.471 159.459 624.575 161.566ZM623.75 155.443C624.078 153.298 622.104 151.295 620.054 151.213C619.076 151.175 618.208 151.57 617.545 152.196C617.514 152.81 617.207 153.408 616.71 153.843C616.483 154.042 616.344 154.303 616.269 154.591C616.211 154.938 616.199 155.288 616.24 155.631C616.242 155.647 616.242 155.661 616.244 155.676C616.312 156.08 616.453 156.468 616.623 156.77C617.158 157.72 618.166 158.445 619.219 158.718C621.315 159.261 623.423 157.584 623.75 155.443Z" fill="#AF87CE"/>
<path id="Vector_22" d="M624.575 260.566C621.549 262.769 617.292 262.363 614.576 259.836C613.386 258.728 612.571 257.293 612.23 255.789C612.145 255.599 612.084 255.385 612.055 255.144C611.552 250.942 614.536 246.837 618.721 246.104C622.289 245.478 626.009 247.752 627.42 251.01C628.874 254.368 627.471 258.459 624.575 260.566ZM623.75 254.443C624.078 252.298 622.104 250.295 620.054 250.213C619.076 250.175 618.208 250.57 617.545 251.196C617.514 251.81 617.207 252.408 616.71 252.843C616.483 253.042 616.344 253.303 616.269 253.591C616.211 253.938 616.199 254.288 616.24 254.631C616.242 254.647 616.242 254.661 616.244 254.676C616.312 255.08 616.453 255.468 616.623 255.77C617.158 256.72 618.166 257.445 619.219 257.718C621.315 258.261 623.423 256.584 623.75 254.443Z" fill="#AF87CE"/>
</g>
<g id="Group 885">
<path id="Rectangle 264" d="M4 18C4 9.71573 10.7157 3 19 3H145C162.121 3 176 16.8792 176 34C176 51.1208 162.121 65 145 65H4V18Z" fill="#AEABDA"/>
<text id="Cr&#195;&#162;nio" fill="#434556" xml:space="preserve" style="white-space: pre" font-family="Open Sans" font-size="20" font-weight="600" letter-spacing="0em"><tspan x="24" y="41.7588">Cr&#xe2;nio&#13;</tspan></text>
</g>
<g id="Group 886">
<path id="Rectangle 264_2" d="M7 394C7 385.716 13.7157 379 22 379H148C165.121 379 179 392.879 179 410C179 427.121 165.121 441 148 441H7V394Z" fill="#AEABDA"/>
<text id="Olhos" fill="#434556" xml:space="preserve" style="white-space: pre" font-family="Open Sans" font-size="20" font-weight="600" letter-spacing="0em"><tspan x="27" y="417.759">Olhos</tspan></text>
</g>
<g id="Group 888">
<path id="Rectangle 264_3" d="M7 750C7 741.716 13.7157 735 22 735H148C165.121 735 179 748.879 179 766C179 783.121 165.121 797 148 797H7V750Z" fill="#AEABDA"/>
<text id="M&#195;&#163;os" fill="#434556" xml:space="preserve" style="white-space: pre" font-family="Open Sans" font-size="20" font-weight="600" letter-spacing="0em"><tspan x="27" y="773.759">M&#xe3;os</tspan></text>
</g>
<g id="Group 890">
<path id="Rectangle 264_4" d="M303 1055C303 1046.72 309.716 1040 318 1040H511C528.121 1040 542 1053.88 542 1071C542 1088.12 528.121 1102 511 1102H303V1055Z" fill="#AEABDA"/>
<text id="Muscoesquel&#195;&#169;tico" fill="#434556" xml:space="preserve" style="white-space: pre" font-family="Open Sans" font-size="20" font-weight="600" letter-spacing="0em"><tspan x="323" y="1078.76">Muscoesquel&#xe9;tico</tspan></text>
</g>
<g id="Group 889">
<path id="Rectangle 264_5" d="M595 747C595 738.716 601.716 732 610 732H736C753.121 732 767 745.879 767 763C767 780.121 753.121 794 736 794H595V747Z" fill="#AEABDA"/>
<text id="P&#195;&#169;s" fill="#434556" xml:space="preserve" style="white-space: pre" font-family="Open Sans" font-size="20" font-weight="600" letter-spacing="0em"><tspan x="615" y="770.759">P&#xe9;s</tspan></text>
</g>
<g id="Group 887">
<path id="Rectangle 264_6" d="M595 394C595 385.716 601.716 379 610 379H736C753.121 379 767 392.879 767 410C767 427.121 753.121 441 736 441H595V394Z" fill="#AEABDA"/>
<text id="Boca" fill="#434556" xml:space="preserve" style="white-space: pre" font-family="Open Sans" font-size="20" font-weight="600" letter-spacing="0em"><tspan x="615" y="417.759">Boca</tspan></text>
</g>
</g>
<defs>
<filter id="filter0_d_2327_10616" x="0" y="24" width="570" height="329" filterUnits="userSpaceOnUse" color-interpolation-filters="sRGB">
<feFlood flood-opacity="0" result="BackgroundImageFix"/>
<feColorMatrix in="SourceAlpha" type="matrix" values="0 0 0 0 0 0 0 0 0 0 0 0 0 0 0 0 0 0 127 0" result="hardAlpha"/>
<feOffset dx="4" dy="4"/>
<feGaussianBlur stdDeviation="4"/>
<feComposite in2="hardAlpha" operator="out"/>
<feColorMatrix type="matrix" values="0 0 0 0 0 0 0 0 0 0 0 0 0 0 0 0 0 0 0.25 0"/>
<feBlend mode="normal" in2="BackgroundImageFix" result="effect1_dropShadow_2327_10616"/>
<feBlend mode="normal" in="SourceGraphic" in2="effect1_dropShadow_2327_10616" result="shape"/>
</filter>
<filter id="filter1_d_2327_10616" x="591" y="405" width="570" height="303" filterUnits="userSpaceOnUse" color-interpolation-filters="sRGB">
<feFlood flood-opacity="0" result="BackgroundImageFix"/>
<feColorMatrix in="SourceAlpha" type="matrix" values="0 0 0 0 0 0 0 0 0 0 0 0 0 0 0 0 0 0 127 0" result="hardAlpha"/>
<feOffset dx="4" dy="4"/>
<feGaussianBlur stdDeviation="4"/>
<feComposite in2="hardAlpha" operator="out"/>
<feColorMatrix type="matrix" values="0 0 0 0 0 0 0 0 0 0 0 0 0 0 0 0 0 0 0.25 0"/>
<feBlend mode="normal" in2="BackgroundImageFix" result="effect1_dropShadow_2327_10616"/>
<feBlend mode="normal" in="SourceGraphic" in2="effect1_dropShadow_2327_10616" result="shape"/>
</filter>
<filter id="filter2_d_2327_10616" x="6" y="402" width="570" height="306" filterUnits="userSpaceOnUse" color-interpolation-filters="sRGB">
<feFlood flood-opacity="0" result="BackgroundImageFix"/>
<feColorMatrix in="SourceAlpha" type="matrix" values="0 0 0 0 0 0 0 0 0 0 0 0 0 0 0 0 0 0 127 0" result="hardAlpha"/>
<feOffset dx="4" dy="4"/>
<feGaussianBlur stdDeviation="4"/>
<feComposite in2="hardAlpha" operator="out"/>
<feColorMatrix type="matrix" values="0 0 0 0 0 0 0 0 0 0 0 0 0 0 0 0 0 0 0.25 0"/>
<feBlend mode="normal" in2="BackgroundImageFix" result="effect1_dropShadow_2327_10616"/>
<feBlend mode="normal" in="SourceGraphic" in2="effect1_dropShadow_2327_10616" result="shape"/>
</filter>
<filter id="filter3_d_2327_10616" x="6" y="759" width="570" height="260" filterUnits="userSpaceOnUse" color-interpolation-filters="sRGB">
<feFlood flood-opacity="0" result="BackgroundImageFix"/>
<feColorMatrix in="SourceAlpha" type="matrix" values="0 0 0 0 0 0 0 0 0 0 0 0 0 0 0 0 0 0 127 0" result="hardAlpha"/>
<feOffset dx="4" dy="4"/>
<feGaussianBlur stdDeviation="4"/>
<feComposite in2="hardAlpha" operator="out"/>
<feColorMatrix type="matrix" values="0 0 0 0 0 0 0 0 0 0 0 0 0 0 0 0 0 0 0.25 0"/>
<feBlend mode="normal" in2="BackgroundImageFix" result="effect1_dropShadow_2327_10616"/>
<feBlend mode="normal" in="SourceGraphic" in2="effect1_dropShadow_2327_10616" result="shape"/>
</filter>
<filter id="filter4_d_2327_10616" x="299" y="1071" width="570" height="260" filterUnits="userSpaceOnUse" color-interpolation-filters="sRGB">
<feFlood flood-opacity="0" result="BackgroundImageFix"/>
<feColorMatrix in="SourceAlpha" type="matrix" values="0 0 0 0 0 0 0 0 0 0 0 0 0 0 0 0 0 0 127 0" result="hardAlpha"/>
<feOffset dx="4" dy="4"/>
<feGaussianBlur stdDeviation="4"/>
<feComposite in2="hardAlpha" operator="out"/>
<feColorMatrix type="matrix" values="0 0 0 0 0 0 0 0 0 0 0 0 0 0 0 0 0 0 0.25 0"/>
<feBlend mode="normal" in2="BackgroundImageFix" result="effect1_dropShadow_2327_10616"/>
<feBlend mode="normal" in="SourceGraphic" in2="effect1_dropShadow_2327_10616" result="shape"/>
</filter>
<filter id="filter5_d_2327_10616" x="591" y="759" width="570" height="260" filterUnits="userSpaceOnUse" color-interpolation-filters="sRGB">
<feFlood flood-opacity="0" result="BackgroundImageFix"/>
<feColorMatrix in="SourceAlpha" type="matrix" values="0 0 0 0 0 0 0 0 0 0 0 0 0 0 0 0 0 0 127 0" result="hardAlpha"/>
<feOffset dx="4" dy="4"/>
<feGaussianBlur stdDeviation="4"/>
<feComposite in2="hardAlpha" operator="out"/>
<feColorMatrix type="matrix" values="0 0 0 0 0 0 0 0 0 0 0 0 0 0 0 0 0 0 0.25 0"/>
<feBlend mode="normal" in2="BackgroundImageFix" result="effect1_dropShadow_2327_10616"/>
<feBlend mode="normal" in="SourceGraphic" in2="effect1_dropShadow_2327_10616" result="shape"/>
</filter>
<filter id="filter6_d_2327_10616" x="588" y="27" width="565" height="329" filterUnits="userSpaceOnUse" color-interpolation-filters="sRGB">
<feFlood flood-opacity="0" result="BackgroundImageFix"/>
<feColorMatrix in="SourceAlpha" type="matrix" values="0 0 0 0 0 0 0 0 0 0 0 0 0 0 0 0 0 0 127 0" result="hardAlpha"/>
<feOffset dx="4" dy="4"/>
<feGaussianBlur stdDeviation="4"/>
<feComposite in2="hardAlpha" operator="out"/>
<feColorMatrix type="matrix" values="0 0 0 0 0 0 0 0 0 0 0 0 0 0 0 0 0 0 0.25 0"/>
<feBlend mode="normal" in2="BackgroundImageFix" result="effect1_dropShadow_2327_10616"/>
<feBlend mode="normal" in="SourceGraphic" in2="effect1_dropShadow_2327_10616" result="shape"/>
</filter>
</defs>
</svg>
