<svg width="1045" height="188" viewBox="0 0 1045 188" fill="none" xmlns="http://www.w3.org/2000/svg">
<g filter="url(#filter0_d_2060_3305)">
<path d="M91 180C140.706 180 181 139.706 181 90C181 40.2944 140.706 0 91 0C41.2944 0 1 40.2944 1 90C1 139.706 41.2944 180 91 180Z" fill="white"/>
</g>
<g clip-path="url(#clip0_2060_3305)">
<path d="M91.004 166.159C133.064 166.159 167.161 132.063 167.161 90.0025C167.161 47.9423 133.064 13.8457 91.004 13.8457C48.9437 13.8457 14.8472 47.9423 14.8472 90.0025C14.8472 132.063 48.9437 166.159 91.004 166.159Z" fill="#93C6BF"/>
</g>
<path d="M89.9987 81.1953C76.3816 81.1953 65.3428 92.2341 65.3428 105.851V137.552H114.655V105.851C114.655 92.2341 103.616 81.1953 89.9987 81.1953Z" fill="white"/>
<path d="M80.7385 122.715L89.9986 115.139V109.375L72.5492 88.4346C69.2999 91.6909 66.9699 95.856 65.9397 100.509C65.5593 102.231 65.3427 104.015 65.3427 105.852V137.553H86.0343C81.4148 137.553 77.6706 133.809 77.6706 129.189C77.6706 126.68 78.796 124.304 80.7385 122.715Z" fill="#AEABDA"/>
<path d="M107.611 119.94C101.775 119.94 97.0444 115.209 97.0444 109.373L89.9999 115.137L80.7398 122.714C78.7972 124.302 77.6719 126.678 77.6719 129.188C77.6719 133.807 81.4161 137.551 86.0355 137.551C88.4747 137.551 90.8787 137.125 93.1822 136.371C94.4274 135.965 95.6531 135.489 96.819 134.871L97.0444 134.753C99.7654 133.4 105.612 130.412 107.611 128.746C109.135 127.476 110.417 126.169 111.533 124.862C115.996 119.639 117.465 114.442 117.94 111.594C116.919 116.363 112.685 119.94 107.611 119.94Z" fill="#AFE2DB"/>
<path d="M118.177 81.1955C114.286 81.1955 111.132 78.0413 111.132 74.1509V63.2178C111.132 70.7977 106.282 77.5288 99.0896 79.9257C96.8811 80.6619 94.6057 81.1215 92.3145 81.3064C103.052 82.3068 111.782 90.1932 114.061 100.506C120.322 99.9199 125.221 94.6541 125.221 88.2401C125.221 84.3497 122.067 81.1955 118.177 81.1955Z" fill="#2E294C"/>
<path d="M80.9082 79.9257C73.7157 77.5288 68.8655 70.7995 68.8655 63.2178V74.1509C68.8655 78.0413 65.7113 81.1955 61.8209 81.1955C57.9306 81.1955 54.7764 84.3497 54.7764 88.2401C54.7764 94.6559 59.6776 99.9217 65.9402 100.51C66.9687 95.8552 69.3005 91.6901 72.5498 88.4356C76.5088 84.4695 81.8134 81.8524 87.7203 81.31C85.4167 81.1268 83.1307 80.6654 80.9117 79.9257H80.9082Z" fill="#2E294C"/>
<path d="M99.0899 79.9253C106.282 77.5284 111.133 70.7991 111.133 63.2173V60.0614C104.879 60.0614 99.3805 55.9157 97.6634 49.9014L97.0435 47.7334L92.4275 54.195C89.7982 57.8758 85.552 60.0614 81.0294 60.0614H68.8652V63.2173C68.8652 70.7973 73.7154 77.5284 80.9079 79.9253H80.9097C83.1287 80.665 85.4147 81.1264 87.7182 81.3096C88.4703 81.2409 89.2293 81.1951 89.9989 81.1951C90.7809 81.1951 91.5505 81.2373 92.3131 81.3078C94.6043 81.1229 96.8797 80.6632 99.0864 79.9271L99.0899 79.9253Z" fill="white"/>
<path d="M114.284 117.563C113.523 118.8 112.62 120.069 111.532 121.341C110.417 122.648 109.135 123.954 107.611 125.224C105.612 126.888 99.7654 129.879 97.0444 131.231L96.819 131.351C95.6531 131.969 94.4274 132.443 93.1822 132.852C90.8804 133.604 88.4765 134.03 86.0355 134.03C82.0201 134.03 78.6722 131.198 77.8638 127.424C77.7406 127.998 77.6719 128.59 77.6719 129.189C77.6719 133.808 81.4161 137.552 86.0355 137.552C88.4747 137.552 90.8787 137.126 93.1822 136.372C94.4274 135.965 95.6531 135.49 96.819 134.872L97.0444 134.754C99.7654 133.401 105.612 130.413 107.611 128.746C109.135 127.477 110.417 126.17 111.533 124.863C115.996 119.64 117.465 114.442 117.94 111.595C117.428 113.985 116.111 116.073 114.284 117.563Z" fill="#92D3CA"/>
<path d="M112.167 99.851C110.786 99.1888 109.245 98.8066 107.611 98.8066C101.774 98.8066 97.0439 103.537 97.0439 109.373C97.0439 115.21 101.774 119.94 107.611 119.94C112.685 119.94 116.918 116.363 117.94 111.594C118.058 110.881 118.123 110.309 118.149 109.93C118.16 109.745 118.178 109.562 118.178 109.373C118.178 105.171 115.719 101.554 112.167 99.851Z" fill="#F1F1F4"/>
<path d="M77.6717 105.85H74.1494V118.178H77.6717V105.85Z" fill="#938CCB"/>
<path d="M84.2759 74.1506C85.0054 74.1506 85.5968 72.9679 85.5968 71.5089C85.5968 70.0499 85.0054 68.8672 84.2759 68.8672C83.5464 68.8672 82.9551 70.0499 82.9551 71.5089C82.9551 72.9679 83.5464 74.1506 84.2759 74.1506Z" fill="#2E294C"/>
<path d="M94.8423 74.1506C95.5718 74.1506 96.1632 72.9679 96.1632 71.5089C96.1632 70.0499 95.5718 68.8672 94.8423 68.8672C94.1129 68.8672 93.5215 70.0499 93.5215 71.5089C93.5215 72.9679 94.1129 74.1506 94.8423 74.1506Z" fill="#2E294C"/>
<path d="M90 100.567H86.4778C86.4778 97.6545 84.1073 95.284 81.1943 95.284V91.7617C86.0498 91.7617 90 95.712 90 100.567Z" fill="#F1F1F4"/>
<path d="M93.5213 100.567H89.999C89.999 95.712 93.9493 91.7617 98.8047 91.7617V95.284C95.8918 95.284 93.5213 97.6545 93.5213 100.567Z" fill="#F1F1F4"/>
<path d="M107.639 107.612L107.61 105.446C108.241 105.439 108.826 105.18 109.255 104.718C109.685 104.257 109.902 103.656 109.866 103.026L109.814 102.108L111.976 101.983L112.029 102.903C112.099 104.128 111.677 105.298 110.839 106.196C110.002 107.094 108.866 107.596 107.639 107.612Z" fill="#2E294C"/>
<path d="M92.4275 55.956L97.0435 49.4944L97.6634 51.6624C99.3805 57.6767 104.879 61.8224 111.133 61.8224V56.539C111.133 44.8679 101.67 35.4053 89.9989 35.4053C78.3278 35.4053 68.8652 44.8679 68.8652 56.539V61.8224H81.0294C85.552 61.8224 89.7982 59.6368 92.4275 55.956Z" fill="#2E294C"/>
<path d="M246.355 78H241.738L234.285 65.0391H234.18C234.211 65.5781 234.238 66.1211 234.262 66.668C234.285 67.2148 234.309 67.7617 234.332 68.3086C234.355 68.8477 234.379 69.3906 234.402 69.9375V78H231.156V60.8672H235.738L243.18 73.6992H243.262C243.246 73.168 243.227 72.6406 243.203 72.1172C243.18 71.5938 243.156 71.0703 243.133 70.5469C243.117 70.0234 243.102 69.5 243.086 68.9766V60.8672H246.355V78ZM262.422 64.8984V78H259.68L259.199 76.3242H259.012C258.73 76.7695 258.379 77.1328 257.957 77.4141C257.535 77.6953 257.07 77.9023 256.562 78.0352C256.055 78.168 255.527 78.2344 254.98 78.2344C254.043 78.2344 253.227 78.0703 252.531 77.7422C251.836 77.4062 251.293 76.8867 250.902 76.1836C250.52 75.4805 250.328 74.5664 250.328 73.4414V64.8984H253.902V72.5508C253.902 73.4883 254.07 74.1953 254.406 74.6719C254.742 75.1484 255.277 75.3867 256.012 75.3867C256.738 75.3867 257.309 75.2227 257.723 74.8945C258.137 74.5586 258.426 74.0703 258.59 73.4297C258.762 72.7812 258.848 71.9922 258.848 71.0625V64.8984H262.422ZM271.691 75.3867C272.082 75.3867 272.461 75.3477 272.828 75.2695C273.203 75.1914 273.574 75.0938 273.941 74.9766V77.6367C273.559 77.8086 273.082 77.9492 272.512 78.0586C271.949 78.1758 271.332 78.2344 270.66 78.2344C269.879 78.2344 269.176 78.1094 268.551 77.8594C267.934 77.6016 267.445 77.1602 267.086 76.5352C266.734 75.9023 266.559 75.0234 266.559 73.8984V67.582H264.848V66.0703L266.816 64.875L267.848 62.1094H270.133V64.8984H273.801V67.582H270.133V73.8984C270.133 74.3984 270.273 74.7734 270.555 75.0234C270.844 75.2656 271.223 75.3867 271.691 75.3867ZM283.914 64.6523C284.094 64.6523 284.301 64.6641 284.535 64.6875C284.777 64.7031 284.973 64.7266 285.121 64.7578L284.852 68.1094C284.734 68.0703 284.566 68.043 284.348 68.0273C284.137 68.0039 283.953 67.9922 283.797 67.9922C283.336 67.9922 282.887 68.0508 282.449 68.168C282.02 68.2852 281.633 68.4766 281.289 68.7422C280.945 69 280.672 69.3438 280.469 69.7734C280.273 70.1953 280.176 70.7148 280.176 71.332V78H276.602V64.8984H279.309L279.836 67.1016H280.012C280.27 66.6562 280.59 66.25 280.973 65.8828C281.363 65.5078 281.805 65.2109 282.297 64.9922C282.797 64.7656 283.336 64.6523 283.914 64.6523ZM291.074 64.8984V78H287.5V64.8984H291.074ZM289.293 59.7656C289.824 59.7656 290.281 59.8906 290.664 60.1406C291.047 60.3828 291.238 60.8398 291.238 61.5117C291.238 62.1758 291.047 62.6367 290.664 62.8945C290.281 63.1445 289.824 63.2695 289.293 63.2695C288.754 63.2695 288.293 63.1445 287.91 62.8945C287.535 62.6367 287.348 62.1758 287.348 61.5117C287.348 60.8398 287.535 60.3828 287.91 60.1406C288.293 59.8906 288.754 59.7656 289.293 59.7656ZM300.156 78.2344C298.859 78.2344 297.754 78 296.84 77.5312C295.926 77.0547 295.23 76.3203 294.754 75.3281C294.277 74.3359 294.039 73.0664 294.039 71.5195C294.039 69.918 294.309 68.6133 294.848 67.6055C295.395 66.5898 296.148 65.8438 297.109 65.3672C298.078 64.8906 299.199 64.6523 300.473 64.6523C301.379 64.6523 302.16 64.7422 302.816 64.9219C303.48 65.0938 304.059 65.3008 304.551 65.543L303.496 68.3086C302.934 68.082 302.41 67.8984 301.926 67.7578C301.441 67.6094 300.957 67.5352 300.473 67.5352C299.848 67.5352 299.328 67.6836 298.914 67.9805C298.5 68.2695 298.191 68.707 297.988 69.293C297.785 69.8789 297.684 70.6133 297.684 71.4961C297.684 72.3633 297.793 73.082 298.012 73.6523C298.23 74.2227 298.547 74.6484 298.961 74.9297C299.375 75.2031 299.879 75.3398 300.473 75.3398C301.215 75.3398 301.875 75.2422 302.453 75.0469C303.031 74.8438 303.594 74.5625 304.141 74.2031V77.2617C303.594 77.6055 303.02 77.8516 302.418 78C301.824 78.1562 301.07 78.2344 300.156 78.2344ZM302.734 80.9297C302.734 81.8281 302.473 82.5234 301.949 83.0156C301.426 83.5156 300.48 83.7656 299.113 83.7656C298.762 83.7656 298.445 83.7422 298.164 83.6953C297.883 83.6484 297.629 83.5898 297.402 83.5195V81.5508C297.629 81.6055 297.906 81.6602 298.234 81.7148C298.562 81.7695 298.844 81.7969 299.078 81.7969C299.305 81.7969 299.5 81.7422 299.664 81.6328C299.836 81.5312 299.922 81.3438 299.922 81.0703C299.922 80.7812 299.777 80.5234 299.488 80.2969C299.199 80.0703 298.695 79.9062 297.977 79.8047L298.891 78H301.152L300.836 78.7148C301.156 78.8164 301.461 78.9648 301.75 79.1602C302.039 79.3633 302.273 79.6094 302.453 79.8984C302.641 80.1953 302.734 80.5391 302.734 80.9297ZM312.555 64.6289C314.312 64.6289 315.66 65.0117 316.598 65.7773C317.535 66.543 318.004 67.707 318.004 69.2695V78H315.508L314.816 76.2188H314.723C314.348 76.6875 313.965 77.0703 313.574 77.3672C313.184 77.6641 312.734 77.8828 312.227 78.0234C311.719 78.1641 311.102 78.2344 310.375 78.2344C309.602 78.2344 308.906 78.0859 308.289 77.7891C307.68 77.4922 307.199 77.0391 306.848 76.4297C306.496 75.8125 306.32 75.0312 306.32 74.0859C306.32 72.6953 306.809 71.6719 307.785 71.0156C308.762 70.3516 310.227 69.9844 312.18 69.9141L314.453 69.8438V69.2695C314.453 68.582 314.273 68.0781 313.914 67.7578C313.555 67.4375 313.055 67.2773 312.414 67.2773C311.781 67.2773 311.16 67.3672 310.551 67.5469C309.941 67.7266 309.332 67.9531 308.723 68.2266L307.539 65.8125C308.234 65.4453 309.012 65.1562 309.871 64.9453C310.738 64.7344 311.633 64.6289 312.555 64.6289ZM314.453 71.9297L313.07 71.9766C311.914 72.0078 311.109 72.2148 310.656 72.5977C310.211 72.9805 309.988 73.4844 309.988 74.1094C309.988 74.6562 310.148 75.0469 310.469 75.2812C310.789 75.5078 311.207 75.6211 311.723 75.6211C312.488 75.6211 313.133 75.3945 313.656 74.9414C314.188 74.4883 314.453 73.8438 314.453 73.0078V71.9297ZM307.691 63.4805C307.738 62.8555 307.852 62.3164 308.031 61.8633C308.211 61.4023 308.445 61.0273 308.734 60.7383C309.023 60.4414 309.348 60.2227 309.707 60.082C310.074 59.9336 310.465 59.8594 310.879 59.8594C311.199 59.8594 311.512 59.9219 311.816 60.0469C312.129 60.1641 312.434 60.3047 312.73 60.4688C313.035 60.6328 313.332 60.7773 313.621 60.9023C313.918 61.0195 314.207 61.0781 314.488 61.0781C314.723 61.0781 314.949 60.9766 315.168 60.7734C315.395 60.5625 315.559 60.25 315.66 59.8359H317.406C317.312 61.0703 316.961 61.9844 316.352 62.5781C315.742 63.1641 315.031 63.457 314.219 63.457C313.898 63.457 313.582 63.3945 313.27 63.2695C312.965 63.1445 312.66 63.0039 312.355 62.8477C312.059 62.6836 311.766 62.5391 311.477 62.4141C311.188 62.2891 310.902 62.2266 310.621 62.2266C310.379 62.2266 310.145 62.332 309.918 62.543C309.699 62.7461 309.539 63.0586 309.438 63.4805H307.691ZM333.602 71.4258C333.602 72.5195 333.453 73.4883 333.156 74.332C332.867 75.1758 332.441 75.8906 331.879 76.4766C331.324 77.0547 330.652 77.4922 329.863 77.7891C329.082 78.0859 328.199 78.2344 327.215 78.2344C326.293 78.2344 325.445 78.0859 324.672 77.7891C323.906 77.4922 323.238 77.0547 322.668 76.4766C322.105 75.8906 321.668 75.1758 321.355 74.332C321.051 73.4883 320.898 72.5195 320.898 71.4258C320.898 69.9727 321.156 68.7422 321.672 67.7344C322.188 66.7266 322.922 65.9609 323.875 65.4375C324.828 64.9141 325.965 64.6523 327.285 64.6523C328.512 64.6523 329.598 64.9141 330.543 65.4375C331.496 65.9609 332.242 66.7266 332.781 67.7344C333.328 68.7422 333.602 69.9727 333.602 71.4258ZM324.543 71.4258C324.543 72.2852 324.637 73.0078 324.824 73.5938C325.012 74.1797 325.305 74.6211 325.703 74.918C326.102 75.2148 326.621 75.3633 327.262 75.3633C327.895 75.3633 328.406 75.2148 328.797 74.918C329.195 74.6211 329.484 74.1797 329.664 73.5938C329.852 73.0078 329.945 72.2852 329.945 71.4258C329.945 70.5586 329.852 69.8398 329.664 69.2695C329.484 68.6914 329.195 68.2578 328.797 67.9688C328.398 67.6797 327.879 67.5352 327.238 67.5352C326.293 67.5352 325.605 67.8594 325.176 68.5078C324.754 69.1562 324.543 70.1289 324.543 71.4258ZM353.559 78L352.316 73.9219H346.07L344.828 78H340.914L346.961 60.7969H351.402L357.473 78H353.559ZM351.449 70.875L350.207 66.8906C350.129 66.625 350.023 66.2852 349.891 65.8711C349.766 65.4492 349.637 65.0234 349.504 64.5938C349.379 64.1562 349.277 63.7773 349.199 63.457C349.121 63.7773 349.012 64.1758 348.871 64.6523C348.738 65.1211 348.609 65.5664 348.484 65.9883C348.359 66.4102 348.27 66.7109 348.215 66.8906L346.984 70.875H351.449ZM363.508 78.2344C362.047 78.2344 360.855 77.6641 359.934 76.5234C359.02 75.375 358.562 73.6914 358.562 71.4727C358.562 69.2305 359.027 67.5352 359.957 66.3867C360.887 65.2305 362.102 64.6523 363.602 64.6523C364.227 64.6523 364.777 64.7383 365.254 64.9102C365.73 65.082 366.141 65.3125 366.484 65.6016C366.836 65.8906 367.133 66.2148 367.375 66.5742H367.492C367.445 66.3242 367.387 65.957 367.316 65.4727C367.254 64.9805 367.223 64.4766 367.223 63.9609V59.7656H370.809V78H368.066L367.375 76.3008H367.223C366.996 76.6602 366.711 76.9883 366.367 77.2852C366.031 77.5742 365.629 77.8047 365.16 77.9766C364.691 78.1484 364.141 78.2344 363.508 78.2344ZM364.762 75.3867C365.738 75.3867 366.426 75.0977 366.824 74.5195C367.23 73.9336 367.445 73.0547 367.469 71.8828V71.4961C367.469 70.2227 367.273 69.25 366.883 68.5781C366.492 67.8984 365.766 67.5586 364.703 67.5586C363.914 67.5586 363.297 67.8984 362.852 68.5781C362.406 69.2578 362.184 70.2383 362.184 71.5195C362.184 72.8008 362.406 73.7656 362.852 74.4141C363.305 75.0625 363.941 75.3867 364.762 75.3867ZM379.949 64.6523C381.16 64.6523 382.203 64.8867 383.078 65.3555C383.953 65.8164 384.629 66.4883 385.105 67.3711C385.582 68.2539 385.82 69.332 385.82 70.6055V72.3398H377.371C377.41 73.3477 377.711 74.1406 378.273 74.7188C378.844 75.2891 379.633 75.5742 380.641 75.5742C381.477 75.5742 382.242 75.4883 382.938 75.3164C383.633 75.1445 384.348 74.8867 385.082 74.543V77.3086C384.434 77.6289 383.754 77.8633 383.043 78.0117C382.34 78.1602 381.484 78.2344 380.477 78.2344C379.164 78.2344 378 77.9922 376.984 77.5078C375.977 77.0234 375.184 76.2852 374.605 75.293C374.035 74.3008 373.75 73.0508 373.75 71.543C373.75 70.0117 374.008 68.7383 374.523 67.7227C375.047 66.6992 375.773 65.9336 376.703 65.4258C377.633 64.9102 378.715 64.6523 379.949 64.6523ZM379.973 67.1953C379.277 67.1953 378.699 67.418 378.238 67.8633C377.785 68.3086 377.523 69.0078 377.453 69.9609H382.469C382.461 69.4297 382.363 68.957 382.176 68.543C381.996 68.1289 381.723 67.8008 381.355 67.5586C380.996 67.3164 380.535 67.1953 379.973 67.1953ZM396.59 83.7656V78.2695C396.59 77.9414 396.602 77.6133 396.625 77.2852C396.656 76.9492 396.695 76.6211 396.742 76.3008H396.59C396.254 76.8398 395.789 77.2969 395.195 77.6719C394.609 78.0469 393.836 78.2344 392.875 78.2344C391.398 78.2344 390.203 77.6641 389.289 76.5234C388.383 75.375 387.93 73.6914 387.93 71.4727C387.93 69.9805 388.141 68.7305 388.562 67.7227C388.984 66.707 389.57 65.9414 390.32 65.4258C391.078 64.9102 391.953 64.6523 392.945 64.6523C393.906 64.6523 394.684 64.8398 395.277 65.2148C395.879 65.582 396.367 66.0352 396.742 66.5742H396.836L397.152 64.8984H400.176V83.7656H396.59ZM394.152 75.4336C394.809 75.4336 395.328 75.3047 395.711 75.0469C396.102 74.7891 396.383 74.4023 396.555 73.8867C396.727 73.3633 396.82 72.7109 396.836 71.9297V71.4961C396.836 70.2227 396.641 69.25 396.25 68.5781C395.859 67.8984 395.141 67.5586 394.094 67.5586C393.242 67.5586 392.609 67.8984 392.195 68.5781C391.781 69.2578 391.574 70.2383 391.574 71.5195C391.574 72.8242 391.785 73.8047 392.207 74.4609C392.629 75.1094 393.277 75.4336 394.152 75.4336ZM415.938 64.8984V78H413.195L412.715 76.3242H412.527C412.246 76.7695 411.895 77.1328 411.473 77.4141C411.051 77.6953 410.586 77.9023 410.078 78.0352C409.57 78.168 409.043 78.2344 408.496 78.2344C407.559 78.2344 406.742 78.0703 406.047 77.7422C405.352 77.4062 404.809 76.8867 404.418 76.1836C404.035 75.4805 403.844 74.5664 403.844 73.4414V64.8984H407.418V72.5508C407.418 73.4883 407.586 74.1953 407.922 74.6719C408.258 75.1484 408.793 75.3867 409.527 75.3867C410.254 75.3867 410.824 75.2227 411.238 74.8945C411.652 74.5586 411.941 74.0703 412.105 73.4297C412.277 72.7812 412.363 71.9922 412.363 71.0625V64.8984H415.938ZM425.055 64.6289C426.812 64.6289 428.16 65.0117 429.098 65.7773C430.035 66.543 430.504 67.707 430.504 69.2695V78H428.008L427.316 76.2188H427.223C426.848 76.6875 426.465 77.0703 426.074 77.3672C425.684 77.6641 425.234 77.8828 424.727 78.0234C424.219 78.1641 423.602 78.2344 422.875 78.2344C422.102 78.2344 421.406 78.0859 420.789 77.7891C420.18 77.4922 419.699 77.0391 419.348 76.4297C418.996 75.8125 418.82 75.0312 418.82 74.0859C418.82 72.6953 419.309 71.6719 420.285 71.0156C421.262 70.3516 422.727 69.9844 424.68 69.9141L426.953 69.8438V69.2695C426.953 68.582 426.773 68.0781 426.414 67.7578C426.055 67.4375 425.555 67.2773 424.914 67.2773C424.281 67.2773 423.66 67.3672 423.051 67.5469C422.441 67.7266 421.832 67.9531 421.223 68.2266L420.039 65.8125C420.734 65.4453 421.512 65.1562 422.371 64.9453C423.238 64.7344 424.133 64.6289 425.055 64.6289ZM426.953 71.9297L425.57 71.9766C424.414 72.0078 423.609 72.2148 423.156 72.5977C422.711 72.9805 422.488 73.4844 422.488 74.1094C422.488 74.6562 422.648 75.0469 422.969 75.2812C423.289 75.5078 423.707 75.6211 424.223 75.6211C424.988 75.6211 425.633 75.3945 426.156 74.9414C426.688 74.4883 426.953 73.8438 426.953 73.0078V71.9297ZM438.344 78.2344C436.883 78.2344 435.691 77.6641 434.77 76.5234C433.855 75.375 433.398 73.6914 433.398 71.4727C433.398 69.2305 433.863 67.5352 434.793 66.3867C435.723 65.2305 436.938 64.6523 438.438 64.6523C439.062 64.6523 439.613 64.7383 440.09 64.9102C440.566 65.082 440.977 65.3125 441.32 65.6016C441.672 65.8906 441.969 66.2148 442.211 66.5742H442.328C442.281 66.3242 442.223 65.957 442.152 65.4727C442.09 64.9805 442.059 64.4766 442.059 63.9609V59.7656H445.645V78H442.902L442.211 76.3008H442.059C441.832 76.6602 441.547 76.9883 441.203 77.2852C440.867 77.5742 440.465 77.8047 439.996 77.9766C439.527 78.1484 438.977 78.2344 438.344 78.2344ZM439.598 75.3867C440.574 75.3867 441.262 75.0977 441.66 74.5195C442.066 73.9336 442.281 73.0547 442.305 71.8828V71.4961C442.305 70.2227 442.109 69.25 441.719 68.5781C441.328 67.8984 440.602 67.5586 439.539 67.5586C438.75 67.5586 438.133 67.8984 437.688 68.5781C437.242 69.2578 437.02 70.2383 437.02 71.5195C437.02 72.8008 437.242 73.7656 437.688 74.4141C438.141 75.0625 438.777 75.3867 439.598 75.3867ZM454.75 64.6289C456.508 64.6289 457.855 65.0117 458.793 65.7773C459.73 66.543 460.199 67.707 460.199 69.2695V78H457.703L457.012 76.2188H456.918C456.543 76.6875 456.16 77.0703 455.77 77.3672C455.379 77.6641 454.93 77.8828 454.422 78.0234C453.914 78.1641 453.297 78.2344 452.57 78.2344C451.797 78.2344 451.102 78.0859 450.484 77.7891C449.875 77.4922 449.395 77.0391 449.043 76.4297C448.691 75.8125 448.516 75.0312 448.516 74.0859C448.516 72.6953 449.004 71.6719 449.98 71.0156C450.957 70.3516 452.422 69.9844 454.375 69.9141L456.648 69.8438V69.2695C456.648 68.582 456.469 68.0781 456.109 67.7578C455.75 67.4375 455.25 67.2773 454.609 67.2773C453.977 67.2773 453.355 67.3672 452.746 67.5469C452.137 67.7266 451.527 67.9531 450.918 68.2266L449.734 65.8125C450.43 65.4453 451.207 65.1562 452.066 64.9453C452.934 64.7344 453.828 64.6289 454.75 64.6289ZM456.648 71.9297L455.266 71.9766C454.109 72.0078 453.305 72.2148 452.852 72.5977C452.406 72.9805 452.184 73.4844 452.184 74.1094C452.184 74.6562 452.344 75.0469 452.664 75.2812C452.984 75.5078 453.402 75.6211 453.918 75.6211C454.684 75.6211 455.328 75.3945 455.852 74.9414C456.383 74.4883 456.648 73.8438 456.648 73.0078V71.9297Z" fill="white"/>
<path d="M234.3 108.15C235.407 108.15 236.321 108.285 237.042 108.555C237.769 108.824 238.308 109.234 238.659 109.785C239.017 110.336 239.195 111.036 239.195 111.886C239.195 112.519 239.078 113.058 238.844 113.503C238.609 113.948 238.302 114.317 237.921 114.61C237.54 114.903 237.133 115.138 236.699 115.313L240.347 121H237.965L234.862 115.85H232.797V121H230.688V108.15H234.3ZM234.159 109.908H232.797V114.109H234.256C235.234 114.109 235.943 113.928 236.383 113.564C236.828 113.201 237.051 112.665 237.051 111.956C237.051 111.212 236.813 110.685 236.339 110.374C235.87 110.063 235.144 109.908 234.159 109.908ZM245.849 111.086C246.716 111.086 247.46 111.265 248.081 111.622C248.702 111.979 249.18 112.486 249.514 113.143C249.848 113.799 250.015 114.584 250.015 115.498V116.605H243.52C243.543 117.549 243.795 118.275 244.275 118.785C244.762 119.295 245.441 119.55 246.314 119.55C246.936 119.55 247.492 119.491 247.984 119.374C248.482 119.251 248.995 119.072 249.522 118.838V120.517C249.036 120.745 248.541 120.912 248.037 121.018C247.533 121.123 246.93 121.176 246.227 121.176C245.271 121.176 244.431 120.991 243.704 120.622C242.983 120.247 242.418 119.69 242.008 118.952C241.604 118.214 241.401 117.297 241.401 116.201C241.401 115.111 241.586 114.186 241.955 113.424C242.324 112.662 242.843 112.082 243.511 111.684C244.179 111.285 244.958 111.086 245.849 111.086ZM245.849 112.642C245.198 112.642 244.671 112.853 244.267 113.274C243.868 113.696 243.634 114.314 243.563 115.129H247.993C247.987 114.643 247.905 114.212 247.747 113.837C247.595 113.462 247.36 113.169 247.044 112.958C246.733 112.747 246.335 112.642 245.849 112.642ZM257.204 112.844H254.84V121H252.774V112.844H251.184V111.851L252.774 111.244V110.567C252.774 109.741 252.903 109.085 253.161 108.599C253.425 108.112 253.8 107.764 254.286 107.553C254.778 107.336 255.364 107.228 256.044 107.228C256.489 107.228 256.896 107.266 257.266 107.342C257.635 107.412 257.945 107.494 258.197 107.588L257.661 109.152C257.462 109.088 257.239 109.029 256.993 108.977C256.747 108.918 256.483 108.889 256.202 108.889C255.733 108.889 255.388 109.035 255.165 109.328C254.948 109.621 254.84 110.049 254.84 110.611V111.271H257.204V112.844ZM262.741 111.086C263.608 111.086 264.353 111.265 264.974 111.622C265.595 111.979 266.072 112.486 266.406 113.143C266.74 113.799 266.907 114.584 266.907 115.498V116.605H260.412C260.436 117.549 260.688 118.275 261.168 118.785C261.654 119.295 262.334 119.55 263.207 119.55C263.828 119.55 264.385 119.491 264.877 119.374C265.375 119.251 265.888 119.072 266.415 118.838V120.517C265.929 120.745 265.434 120.912 264.93 121.018C264.426 121.123 263.822 121.176 263.119 121.176C262.164 121.176 261.323 120.991 260.597 120.622C259.876 120.247 259.311 119.69 258.9 118.952C258.496 118.214 258.294 117.297 258.294 116.201C258.294 115.111 258.479 114.186 258.848 113.424C259.217 112.662 259.735 112.082 260.403 111.684C261.071 111.285 261.851 111.086 262.741 111.086ZM262.741 112.642C262.091 112.642 261.563 112.853 261.159 113.274C260.761 113.696 260.526 114.314 260.456 115.129H264.886C264.88 114.643 264.798 114.212 264.64 113.837C264.487 113.462 264.253 113.169 263.937 112.958C263.626 112.747 263.228 112.642 262.741 112.642ZM274.167 111.086C274.331 111.086 274.51 111.095 274.703 111.112C274.896 111.13 275.063 111.153 275.204 111.183L275.011 113.116C274.888 113.081 274.735 113.055 274.554 113.037C274.378 113.02 274.22 113.011 274.079 113.011C273.71 113.011 273.358 113.072 273.024 113.195C272.69 113.312 272.395 113.494 272.137 113.74C271.879 113.98 271.677 114.282 271.53 114.646C271.384 115.009 271.311 115.431 271.311 115.911V121H269.236V111.271H270.854L271.135 112.984H271.231C271.425 112.639 271.665 112.322 271.952 112.035C272.239 111.748 272.567 111.52 272.937 111.35C273.312 111.174 273.722 111.086 274.167 111.086ZM280.882 111.086C281.749 111.086 282.493 111.265 283.114 111.622C283.735 111.979 284.213 112.486 284.547 113.143C284.881 113.799 285.048 114.584 285.048 115.498V116.605H278.553C278.576 117.549 278.828 118.275 279.309 118.785C279.795 119.295 280.475 119.55 281.348 119.55C281.969 119.55 282.525 119.491 283.018 119.374C283.516 119.251 284.028 119.072 284.556 118.838V120.517C284.069 120.745 283.574 120.912 283.07 121.018C282.566 121.123 281.963 121.176 281.26 121.176C280.305 121.176 279.464 120.991 278.737 120.622C278.017 120.247 277.451 119.69 277.041 118.952C276.637 118.214 276.435 117.297 276.435 116.201C276.435 115.111 276.619 114.186 276.988 113.424C277.357 112.662 277.876 112.082 278.544 111.684C279.212 111.285 279.991 111.086 280.882 111.086ZM280.882 112.642C280.231 112.642 279.704 112.853 279.3 113.274C278.901 113.696 278.667 114.314 278.597 115.129H283.026C283.021 114.643 282.938 114.212 282.78 113.837C282.628 113.462 282.394 113.169 282.077 112.958C281.767 112.747 281.368 112.642 280.882 112.642ZM286.533 117.045V115.296H291.068V117.045H286.533ZM299.717 118.223C299.717 118.861 299.562 119.4 299.251 119.84C298.94 120.279 298.486 120.613 297.889 120.842C297.297 121.064 296.57 121.176 295.709 121.176C295.029 121.176 294.443 121.126 293.951 121.026C293.465 120.933 293.005 120.786 292.571 120.587V118.803C293.034 119.02 293.553 119.207 294.127 119.365C294.707 119.523 295.255 119.603 295.771 119.603C296.45 119.603 296.939 119.497 297.238 119.286C297.537 119.069 297.687 118.782 297.687 118.425C297.687 118.214 297.625 118.026 297.502 117.862C297.385 117.692 297.162 117.52 296.834 117.344C296.512 117.162 296.037 116.945 295.41 116.693C294.795 116.447 294.276 116.201 293.854 115.955C293.433 115.709 293.113 115.413 292.896 115.067C292.68 114.716 292.571 114.268 292.571 113.723C292.571 112.861 292.911 112.208 293.591 111.763C294.276 111.312 295.182 111.086 296.307 111.086C296.904 111.086 297.467 111.147 297.994 111.271C298.527 111.388 299.049 111.561 299.559 111.789L298.908 113.345C298.469 113.151 298.026 112.993 297.581 112.87C297.142 112.741 296.693 112.677 296.236 112.677C295.703 112.677 295.296 112.759 295.015 112.923C294.739 113.087 294.602 113.321 294.602 113.626C294.602 113.854 294.669 114.048 294.804 114.206C294.938 114.364 295.17 114.522 295.498 114.681C295.832 114.839 296.295 115.035 296.887 115.27C297.467 115.492 297.968 115.727 298.39 115.973C298.817 116.213 299.146 116.509 299.374 116.86C299.603 117.212 299.717 117.666 299.717 118.223ZM305.825 111.086C306.692 111.086 307.437 111.265 308.058 111.622C308.679 111.979 309.156 112.486 309.49 113.143C309.824 113.799 309.991 114.584 309.991 115.498V116.605H303.496C303.52 117.549 303.771 118.275 304.252 118.785C304.738 119.295 305.418 119.55 306.291 119.55C306.912 119.55 307.469 119.491 307.961 119.374C308.459 119.251 308.972 119.072 309.499 118.838V120.517C309.013 120.745 308.518 120.912 308.014 121.018C307.51 121.123 306.906 121.176 306.203 121.176C305.248 121.176 304.407 120.991 303.681 120.622C302.96 120.247 302.395 119.69 301.984 118.952C301.58 118.214 301.378 117.297 301.378 116.201C301.378 115.111 301.562 114.186 301.932 113.424C302.301 112.662 302.819 112.082 303.487 111.684C304.155 111.285 304.935 111.086 305.825 111.086ZM305.825 112.642C305.175 112.642 304.647 112.853 304.243 113.274C303.845 113.696 303.61 114.314 303.54 115.129H307.97C307.964 114.643 307.882 114.212 307.724 113.837C307.571 113.462 307.337 113.169 307.021 112.958C306.71 112.747 306.312 112.642 305.825 112.642ZM320.811 111.086C322.041 111.086 322.97 111.358 323.597 111.903C324.229 112.448 324.546 113.298 324.546 114.452V121H323.078L322.683 119.62H322.612C322.337 119.972 322.053 120.262 321.76 120.49C321.467 120.719 321.127 120.889 320.74 121C320.359 121.117 319.894 121.176 319.343 121.176C318.763 121.176 318.244 121.07 317.787 120.859C317.33 120.643 316.97 120.314 316.706 119.875C316.442 119.436 316.311 118.879 316.311 118.205C316.311 117.203 316.683 116.45 317.427 115.946C318.177 115.442 319.308 115.164 320.819 115.111L322.507 115.05V114.54C322.507 113.866 322.349 113.386 322.032 113.099C321.722 112.812 321.282 112.668 320.714 112.668C320.228 112.668 319.756 112.738 319.299 112.879C318.842 113.02 318.396 113.192 317.963 113.397L317.295 111.938C317.77 111.687 318.309 111.481 318.912 111.323C319.521 111.165 320.154 111.086 320.811 111.086ZM322.498 116.351L321.241 116.395C320.21 116.43 319.486 116.605 319.07 116.922C318.654 117.238 318.446 117.672 318.446 118.223C318.446 118.703 318.59 119.055 318.877 119.277C319.164 119.494 319.542 119.603 320.011 119.603C320.726 119.603 321.317 119.4 321.786 118.996C322.261 118.586 322.498 117.985 322.498 117.194V116.351ZM320.222 107.21C320.38 107.479 320.573 107.778 320.802 108.106C321.03 108.435 321.268 108.754 321.514 109.064C321.76 109.375 321.977 109.642 322.164 109.864V110.093H320.784C320.562 109.929 320.312 109.729 320.037 109.495C319.762 109.255 319.48 109.006 319.193 108.748C318.912 108.484 318.651 108.235 318.411 108.001C318.177 107.761 317.989 107.556 317.849 107.386V107.21H320.222ZM337.185 111.086C338.28 111.086 339.133 111.37 339.742 111.938C340.357 112.501 340.665 113.406 340.665 114.654V121H338.6V115.041C338.6 114.285 338.444 113.72 338.134 113.345C337.823 112.964 337.343 112.773 336.692 112.773C335.749 112.773 335.093 113.063 334.724 113.644C334.36 114.224 334.179 115.064 334.179 116.166V121H332.113V111.271H333.722L334.012 112.589H334.126C334.337 112.249 334.598 111.971 334.908 111.754C335.225 111.531 335.576 111.364 335.963 111.253C336.355 111.142 336.763 111.086 337.185 111.086ZM352.038 111.271V121H350.412L350.131 119.69H350.017C349.812 120.024 349.551 120.303 349.234 120.525C348.918 120.742 348.566 120.903 348.18 121.009C347.793 121.12 347.386 121.176 346.958 121.176C346.226 121.176 345.599 121.053 345.077 120.807C344.562 120.555 344.166 120.168 343.891 119.646C343.615 119.125 343.478 118.451 343.478 117.625V111.271H345.552V117.238C345.552 117.994 345.704 118.56 346.009 118.935C346.319 119.31 346.8 119.497 347.45 119.497C348.077 119.497 348.575 119.368 348.944 119.11C349.313 118.853 349.574 118.472 349.727 117.968C349.885 117.464 349.964 116.846 349.964 116.113V111.271H352.038ZM358.621 119.506C358.891 119.506 359.157 119.482 359.421 119.436C359.685 119.383 359.925 119.321 360.142 119.251V120.815C359.913 120.915 359.617 121 359.254 121.07C358.891 121.141 358.513 121.176 358.12 121.176C357.569 121.176 357.074 121.085 356.635 120.903C356.195 120.716 355.847 120.396 355.589 119.945C355.331 119.494 355.202 118.87 355.202 118.073V112.844H353.875V111.921L355.299 111.191L355.976 109.108H357.276V111.271H360.062V112.844H357.276V118.047C357.276 118.539 357.399 118.905 357.646 119.146C357.892 119.386 358.217 119.506 358.621 119.506ZM367.05 111.086C367.214 111.086 367.393 111.095 367.586 111.112C367.779 111.13 367.946 111.153 368.087 111.183L367.894 113.116C367.771 113.081 367.618 113.055 367.437 113.037C367.261 113.02 367.103 113.011 366.962 113.011C366.593 113.011 366.241 113.072 365.907 113.195C365.573 113.312 365.277 113.494 365.02 113.74C364.762 113.98 364.56 114.282 364.413 114.646C364.267 115.009 364.193 115.431 364.193 115.911V121H362.119V111.271H363.736L364.018 112.984H364.114C364.308 112.639 364.548 112.322 364.835 112.035C365.122 111.748 365.45 111.52 365.819 111.35C366.194 111.174 366.604 111.086 367.05 111.086ZM371.954 111.271V121H369.889V111.271H371.954ZM370.935 107.544C371.251 107.544 371.523 107.629 371.752 107.799C371.986 107.969 372.104 108.262 372.104 108.678C372.104 109.088 371.986 109.381 371.752 109.557C371.523 109.727 371.251 109.812 370.935 109.812C370.606 109.812 370.328 109.727 370.1 109.557C369.877 109.381 369.766 109.088 369.766 108.678C369.766 108.262 369.877 107.969 370.1 107.799C370.328 107.629 370.606 107.544 370.935 107.544ZM378.836 121.176C377.916 121.176 377.119 120.997 376.445 120.64C375.771 120.282 375.253 119.734 374.89 118.996C374.526 118.258 374.345 117.32 374.345 116.184C374.345 115 374.544 114.033 374.942 113.283C375.341 112.533 375.892 111.979 376.595 111.622C377.304 111.265 378.115 111.086 379.029 111.086C379.609 111.086 380.134 111.145 380.603 111.262C381.077 111.373 381.479 111.511 381.807 111.675L381.191 113.327C380.834 113.181 380.468 113.058 380.093 112.958C379.718 112.858 379.357 112.809 379.012 112.809C378.443 112.809 377.969 112.935 377.588 113.187C377.213 113.438 376.932 113.813 376.744 114.312C376.562 114.81 376.472 115.428 376.472 116.166C376.472 116.881 376.565 117.484 376.753 117.977C376.94 118.463 377.219 118.832 377.588 119.084C377.957 119.33 378.411 119.453 378.95 119.453C379.483 119.453 379.961 119.389 380.383 119.26C380.805 119.131 381.203 118.964 381.578 118.759V120.552C381.209 120.763 380.813 120.918 380.392 121.018C379.97 121.123 379.451 121.176 378.836 121.176ZM380.523 123.355C380.523 123.977 380.315 124.46 379.899 124.806C379.483 125.151 378.807 125.324 377.869 125.324C377.646 125.324 377.441 125.31 377.254 125.28C377.066 125.251 376.905 125.219 376.771 125.184V123.979C376.911 124.015 377.087 124.047 377.298 124.076C377.509 124.105 377.702 124.12 377.878 124.12C378.183 124.12 378.423 124.067 378.599 123.962C378.78 123.856 378.871 123.678 378.871 123.426C378.871 123.156 378.739 122.942 378.476 122.784C378.212 122.626 377.822 122.515 377.307 122.45L378.045 121H379.381L379.021 121.756C379.29 121.826 379.536 121.929 379.759 122.063C379.987 122.198 380.172 122.371 380.312 122.582C380.453 122.799 380.523 123.057 380.523 123.355ZM387.678 111.086C388.908 111.086 389.837 111.358 390.464 111.903C391.097 112.448 391.413 113.298 391.413 114.452V121H389.945L389.55 119.62H389.479C389.204 119.972 388.92 120.262 388.627 120.49C388.334 120.719 387.994 120.889 387.607 121C387.227 121.117 386.761 121.176 386.21 121.176C385.63 121.176 385.111 121.07 384.654 120.859C384.197 120.643 383.837 120.314 383.573 119.875C383.31 119.436 383.178 118.879 383.178 118.205C383.178 117.203 383.55 116.45 384.294 115.946C385.044 115.442 386.175 115.164 387.687 115.111L389.374 115.05V114.54C389.374 113.866 389.216 113.386 388.899 113.099C388.589 112.812 388.149 112.668 387.581 112.668C387.095 112.668 386.623 112.738 386.166 112.879C385.709 113.02 385.264 113.192 384.83 113.397L384.162 111.938C384.637 111.687 385.176 111.481 385.779 111.323C386.389 111.165 387.021 111.086 387.678 111.086ZM389.365 116.351L388.108 116.395C387.077 116.43 386.354 116.605 385.938 116.922C385.521 117.238 385.313 117.672 385.313 118.223C385.313 118.703 385.457 119.055 385.744 119.277C386.031 119.494 386.409 119.603 386.878 119.603C387.593 119.603 388.185 119.4 388.653 118.996C389.128 118.586 389.365 117.985 389.365 117.194V116.351ZM384.118 110.084C384.153 109.674 384.229 109.316 384.347 109.012C384.464 108.701 384.616 108.443 384.804 108.238C384.997 108.027 385.217 107.869 385.463 107.764C385.715 107.658 385.987 107.605 386.28 107.605C386.538 107.605 386.784 107.655 387.019 107.755C387.259 107.854 387.49 107.972 387.713 108.106C387.941 108.235 388.161 108.35 388.372 108.449C388.589 108.549 388.797 108.599 388.996 108.599C389.225 108.599 389.418 108.517 389.576 108.353C389.74 108.188 389.863 107.934 389.945 107.588H391.026C390.956 108.396 390.725 109.015 390.332 109.442C389.939 109.864 389.45 110.075 388.864 110.075C388.618 110.075 388.375 110.025 388.135 109.926C387.9 109.82 387.672 109.703 387.449 109.574C387.227 109.445 387.007 109.331 386.79 109.231C386.573 109.132 386.362 109.082 386.157 109.082C385.923 109.082 385.724 109.164 385.56 109.328C385.401 109.492 385.284 109.744 385.208 110.084H384.118ZM402.918 116.113C402.918 116.922 402.812 117.64 402.602 118.267C402.391 118.894 402.083 119.424 401.679 119.857C401.274 120.285 400.788 120.613 400.22 120.842C399.651 121.064 399.01 121.176 398.295 121.176C397.627 121.176 397.015 121.064 396.458 120.842C395.901 120.613 395.418 120.285 395.008 119.857C394.604 119.424 394.29 118.894 394.067 118.267C393.845 117.64 393.733 116.922 393.733 116.113C393.733 115.041 393.918 114.133 394.287 113.389C394.662 112.639 395.195 112.067 395.887 111.675C396.578 111.282 397.401 111.086 398.356 111.086C399.253 111.086 400.044 111.282 400.729 111.675C401.415 112.067 401.951 112.639 402.338 113.389C402.725 114.139 402.918 115.047 402.918 116.113ZM395.86 116.113C395.86 116.822 395.945 117.429 396.115 117.933C396.291 118.437 396.561 118.823 396.924 119.093C397.287 119.356 397.756 119.488 398.33 119.488C398.904 119.488 399.373 119.356 399.736 119.093C400.1 118.823 400.366 118.437 400.536 117.933C400.706 117.429 400.791 116.822 400.791 116.113C400.791 115.404 400.706 114.804 400.536 114.312C400.366 113.813 400.1 113.436 399.736 113.178C399.373 112.914 398.901 112.782 398.321 112.782C397.466 112.782 396.842 113.069 396.449 113.644C396.057 114.218 395.86 115.041 395.86 116.113ZM420.962 111.086C422.052 111.086 422.872 111.367 423.423 111.93C423.979 112.492 424.258 113.395 424.258 114.637V121H422.192V115.006C422.192 114.268 422.049 113.711 421.762 113.336C421.475 112.961 421.038 112.773 420.452 112.773C419.632 112.773 419.04 113.037 418.677 113.564C418.319 114.086 418.141 114.845 418.141 115.841V121H416.075V115.006C416.075 114.514 416.011 114.104 415.882 113.775C415.759 113.441 415.568 113.192 415.311 113.028C415.053 112.858 414.728 112.773 414.335 112.773C413.767 112.773 413.312 112.902 412.973 113.16C412.639 113.418 412.398 113.799 412.252 114.303C412.105 114.801 412.032 115.413 412.032 116.14V121H409.967V111.271H411.575L411.865 112.58H411.979C412.179 112.24 412.425 111.962 412.718 111.745C413.017 111.522 413.348 111.358 413.711 111.253C414.074 111.142 414.452 111.086 414.845 111.086C415.571 111.086 416.184 111.215 416.682 111.473C417.18 111.725 417.552 112.111 417.798 112.633H417.956C418.261 112.105 418.686 111.716 419.23 111.464C419.775 111.212 420.353 111.086 420.962 111.086ZM430.955 111.086C432.186 111.086 433.114 111.358 433.741 111.903C434.374 112.448 434.69 113.298 434.69 114.452V121H433.223L432.827 119.62H432.757C432.481 119.972 432.197 120.262 431.904 120.49C431.611 120.719 431.271 120.889 430.885 121C430.504 121.117 430.038 121.176 429.487 121.176C428.907 121.176 428.389 121.07 427.932 120.859C427.475 120.643 427.114 120.314 426.851 119.875C426.587 119.436 426.455 118.879 426.455 118.205C426.455 117.203 426.827 116.45 427.571 115.946C428.321 115.442 429.452 115.164 430.964 115.111L432.651 115.05V114.54C432.651 113.866 432.493 113.386 432.177 113.099C431.866 112.812 431.427 112.668 430.858 112.668C430.372 112.668 429.9 112.738 429.443 112.879C428.986 113.02 428.541 113.192 428.107 113.397L427.439 111.938C427.914 111.687 428.453 111.481 429.057 111.323C429.666 111.165 430.299 111.086 430.955 111.086ZM432.643 116.351L431.386 116.395C430.354 116.43 429.631 116.605 429.215 116.922C428.799 117.238 428.591 117.672 428.591 118.223C428.591 118.703 428.734 119.055 429.021 119.277C429.309 119.494 429.687 119.603 430.155 119.603C430.87 119.603 431.462 119.4 431.931 118.996C432.405 118.586 432.643 117.985 432.643 117.194V116.351ZM441.203 119.506C441.473 119.506 441.739 119.482 442.003 119.436C442.267 119.383 442.507 119.321 442.724 119.251V120.815C442.495 120.915 442.199 121 441.836 121.07C441.473 121.141 441.095 121.176 440.702 121.176C440.151 121.176 439.656 121.085 439.217 120.903C438.777 120.716 438.429 120.396 438.171 119.945C437.913 119.494 437.784 118.87 437.784 118.073V112.844H436.457V111.921L437.881 111.191L438.558 109.108H439.858V111.271H442.645V112.844H439.858V118.047C439.858 118.539 439.981 118.905 440.228 119.146C440.474 119.386 440.799 119.506 441.203 119.506ZM448.577 111.086C449.444 111.086 450.188 111.265 450.81 111.622C451.431 111.979 451.908 112.486 452.242 113.143C452.576 113.799 452.743 114.584 452.743 115.498V116.605H446.248C446.271 117.549 446.523 118.275 447.004 118.785C447.49 119.295 448.17 119.55 449.043 119.55C449.664 119.55 450.221 119.491 450.713 119.374C451.211 119.251 451.724 119.072 452.251 118.838V120.517C451.765 120.745 451.27 120.912 450.766 121.018C450.262 121.123 449.658 121.176 448.955 121.176C448 121.176 447.159 120.991 446.433 120.622C445.712 120.247 445.146 119.69 444.736 118.952C444.332 118.214 444.13 117.297 444.13 116.201C444.13 115.111 444.314 114.186 444.684 113.424C445.053 112.662 445.571 112.082 446.239 111.684C446.907 111.285 447.687 111.086 448.577 111.086ZM448.577 112.642C447.927 112.642 447.399 112.853 446.995 113.274C446.597 113.696 446.362 114.314 446.292 115.129H450.722C450.716 114.643 450.634 114.212 450.476 113.837C450.323 113.462 450.089 113.169 449.772 112.958C449.462 112.747 449.063 112.642 448.577 112.642ZM460.003 111.086C460.167 111.086 460.346 111.095 460.539 111.112C460.732 111.13 460.899 111.153 461.04 111.183L460.847 113.116C460.724 113.081 460.571 113.055 460.39 113.037C460.214 113.02 460.056 113.011 459.915 113.011C459.546 113.011 459.194 113.072 458.86 113.195C458.526 113.312 458.23 113.494 457.973 113.74C457.715 113.98 457.513 114.282 457.366 114.646C457.22 115.009 457.146 115.431 457.146 115.911V121H455.072V111.271H456.689L456.971 112.984H457.067C457.261 112.639 457.501 112.322 457.788 112.035C458.075 111.748 458.403 111.52 458.772 111.35C459.147 111.174 459.558 111.086 460.003 111.086ZM467.913 111.086C469.009 111.086 469.861 111.37 470.471 111.938C471.086 112.501 471.394 113.406 471.394 114.654V121H469.328V115.041C469.328 114.285 469.173 113.72 468.862 113.345C468.552 112.964 468.071 112.773 467.421 112.773C466.478 112.773 465.821 113.063 465.452 113.644C465.089 114.224 464.907 115.064 464.907 116.166V121H462.842V111.271H464.45L464.74 112.589H464.854C465.065 112.249 465.326 111.971 465.637 111.754C465.953 111.531 466.305 111.364 466.691 111.253C467.084 111.142 467.491 111.086 467.913 111.086ZM482.898 116.113C482.898 116.922 482.793 117.64 482.582 118.267C482.371 118.894 482.063 119.424 481.659 119.857C481.255 120.285 480.769 120.613 480.2 120.842C479.632 121.064 478.99 121.176 478.275 121.176C477.607 121.176 476.995 121.064 476.438 120.842C475.882 120.613 475.398 120.285 474.988 119.857C474.584 119.424 474.271 118.894 474.048 118.267C473.825 117.64 473.714 116.922 473.714 116.113C473.714 115.041 473.898 114.133 474.268 113.389C474.643 112.639 475.176 112.067 475.867 111.675C476.559 111.282 477.382 111.086 478.337 111.086C479.233 111.086 480.024 111.282 480.71 111.675C481.396 112.067 481.932 112.639 482.318 113.389C482.705 114.139 482.898 115.047 482.898 116.113ZM475.841 116.113C475.841 116.822 475.926 117.429 476.096 117.933C476.271 118.437 476.541 118.823 476.904 119.093C477.268 119.356 477.736 119.488 478.311 119.488C478.885 119.488 479.354 119.356 479.717 119.093C480.08 118.823 480.347 118.437 480.517 117.933C480.687 117.429 480.771 116.822 480.771 116.113C480.771 115.404 480.687 114.804 480.517 114.312C480.347 113.813 480.08 113.436 479.717 113.178C479.354 112.914 478.882 112.782 478.302 112.782C477.446 112.782 476.822 113.069 476.43 113.644C476.037 114.218 475.841 115.041 475.841 116.113ZM484.428 117.045V115.296H488.963V117.045H484.428ZM493.138 111.271V121H491.072V111.271H493.138ZM492.118 107.544C492.435 107.544 492.707 107.629 492.936 107.799C493.17 107.969 493.287 108.262 493.287 108.678C493.287 109.088 493.17 109.381 492.936 109.557C492.707 109.727 492.435 109.812 492.118 109.812C491.79 109.812 491.512 109.727 491.283 109.557C491.061 109.381 490.949 109.088 490.949 108.678C490.949 108.262 491.061 107.969 491.283 107.799C491.512 107.629 491.79 107.544 492.118 107.544ZM501.171 111.086C502.267 111.086 503.119 111.37 503.729 111.938C504.344 112.501 504.651 113.406 504.651 114.654V121H502.586V115.041C502.586 114.285 502.431 113.72 502.12 113.345C501.81 112.964 501.329 112.773 500.679 112.773C499.735 112.773 499.079 113.063 498.71 113.644C498.347 114.224 498.165 115.064 498.165 116.166V121H496.1V111.271H497.708L497.998 112.589H498.112C498.323 112.249 498.584 111.971 498.895 111.754C499.211 111.531 499.562 111.364 499.949 111.253C500.342 111.142 500.749 111.086 501.171 111.086ZM512.403 112.844H510.039V121H507.974V112.844H506.383V111.851L507.974 111.244V110.567C507.974 109.741 508.103 109.085 508.36 108.599C508.624 108.112 508.999 107.764 509.485 107.553C509.978 107.336 510.563 107.228 511.243 107.228C511.688 107.228 512.096 107.266 512.465 107.342C512.834 107.412 513.145 107.494 513.396 107.588L512.86 109.152C512.661 109.088 512.438 109.029 512.192 108.977C511.946 108.918 511.683 108.889 511.401 108.889C510.933 108.889 510.587 109.035 510.364 109.328C510.147 109.621 510.039 110.049 510.039 110.611V111.271H512.403V112.844ZM517.879 111.086C519.109 111.086 520.038 111.358 520.665 111.903C521.298 112.448 521.614 113.298 521.614 114.452V121H520.146L519.751 119.62H519.681C519.405 119.972 519.121 120.262 518.828 120.49C518.535 120.719 518.195 120.889 517.809 121C517.428 121.117 516.962 121.176 516.411 121.176C515.831 121.176 515.312 121.07 514.855 120.859C514.398 120.643 514.038 120.314 513.774 119.875C513.511 119.436 513.379 118.879 513.379 118.205C513.379 117.203 513.751 116.45 514.495 115.946C515.245 115.442 516.376 115.164 517.888 115.111L519.575 115.05V114.54C519.575 113.866 519.417 113.386 519.101 113.099C518.79 112.812 518.351 112.668 517.782 112.668C517.296 112.668 516.824 112.738 516.367 112.879C515.91 113.02 515.465 113.192 515.031 113.397L514.363 111.938C514.838 111.687 515.377 111.481 515.98 111.323C516.59 111.165 517.223 111.086 517.879 111.086ZM519.566 116.351L518.31 116.395C517.278 116.43 516.555 116.605 516.139 116.922C515.723 117.238 515.515 117.672 515.515 118.223C515.515 118.703 515.658 119.055 515.945 119.277C516.232 119.494 516.61 119.603 517.079 119.603C517.794 119.603 518.386 119.4 518.854 118.996C519.329 118.586 519.566 117.985 519.566 117.194V116.351ZM529.577 111.086C530.673 111.086 531.525 111.37 532.135 111.938C532.75 112.501 533.058 113.406 533.058 114.654V121H530.992V115.041C530.992 114.285 530.837 113.72 530.526 113.345C530.216 112.964 529.735 112.773 529.085 112.773C528.142 112.773 527.485 113.063 527.116 113.644C526.753 114.224 526.571 115.064 526.571 116.166V121H524.506V111.271H526.114L526.404 112.589H526.519C526.729 112.249 526.99 111.971 527.301 111.754C527.617 111.531 527.969 111.364 528.355 111.253C528.748 111.142 529.155 111.086 529.577 111.086ZM539.57 119.506C539.84 119.506 540.106 119.482 540.37 119.436C540.634 119.383 540.874 119.321 541.091 119.251V120.815C540.862 120.915 540.566 121 540.203 121.07C539.84 121.141 539.462 121.176 539.069 121.176C538.519 121.176 538.023 121.085 537.584 120.903C537.145 120.716 536.796 120.396 536.538 119.945C536.28 119.494 536.151 118.87 536.151 118.073V112.844H534.824V111.921L536.248 111.191L536.925 109.108H538.226V111.271H541.012V112.844H538.226V118.047C538.226 118.539 538.349 118.905 538.595 119.146C538.841 119.386 539.166 119.506 539.57 119.506ZM545.134 111.271V121H543.068V111.271H545.134ZM544.114 107.544C544.431 107.544 544.703 107.629 544.932 107.799C545.166 107.969 545.283 108.262 545.283 108.678C545.283 109.088 545.166 109.381 544.932 109.557C544.703 109.727 544.431 109.812 544.114 109.812C543.786 109.812 543.508 109.727 543.279 109.557C543.057 109.381 542.945 109.088 542.945 108.678C542.945 108.262 543.057 107.969 543.279 107.799C543.508 107.629 543.786 107.544 544.114 107.544ZM550.17 121H548.096V107.324H550.17V121ZM552.824 119.91C552.824 119.43 552.947 119.093 553.193 118.899C553.445 118.7 553.75 118.601 554.107 118.601C554.465 118.601 554.77 118.7 555.021 118.899C555.279 119.093 555.408 119.43 555.408 119.91C555.408 120.379 555.279 120.719 555.021 120.93C554.77 121.135 554.465 121.237 554.107 121.237C553.75 121.237 553.445 121.135 553.193 120.93C552.947 120.719 552.824 120.379 552.824 119.91Z" fill="white"/>
<defs>
<filter id="filter0_d_2060_3305" x="0" y="0" width="188" height="188" filterUnits="userSpaceOnUse" color-interpolation-filters="sRGB">
<feFlood flood-opacity="0" result="BackgroundImageFix"/>
<feColorMatrix in="SourceAlpha" type="matrix" values="0 0 0 0 0 0 0 0 0 0 0 0 0 0 0 0 0 0 127 0" result="hardAlpha"/>
<feOffset dx="3" dy="4"/>
<feGaussianBlur stdDeviation="2"/>
<feComposite in2="hardAlpha" operator="out"/>
<feColorMatrix type="matrix" values="0 0 0 0 0 0 0 0 0 0 0 0 0 0 0 0 0 0 0.25 0"/>
<feBlend mode="normal" in2="BackgroundImageFix" result="effect1_dropShadow_2060_3305"/>
<feBlend mode="normal" in="SourceGraphic" in2="effect1_dropShadow_2060_3305" result="shape"/>
</filter>
<clipPath id="clip0_2060_3305">
<rect width="152.308" height="152.308" fill="white" transform="translate(14.8472 13.8457)"/>
</clipPath>
</defs>
</svg>
