<svg width="1045" height="188" viewBox="0 0 1045 188" fill="none" xmlns="http://www.w3.org/2000/svg">
<g filter="url(#filter0_d_2060_3222)">
<path d="M91 180C140.706 180 181 139.706 181 90C181 40.2944 140.706 0 91 0C41.2944 0 1 40.2944 1 90C1 139.706 41.2944 180 91 180Z" fill="white"/>
</g>
<g clip-path="url(#clip0_2060_3222)">
<path d="M91.004 166.159C133.064 166.159 167.161 132.063 167.161 90.0025C167.161 47.9423 133.064 13.8457 91.004 13.8457C48.9437 13.8457 14.8472 47.9423 14.8472 90.0025C14.8472 132.063 48.9437 166.159 91.004 166.159Z" fill="#5FA29B"/>
<path d="M58.5406 84.0976H55.5898C53.145 84.0976 51.1636 82.1161 51.1636 79.6713C51.1636 77.2266 53.145 75.2451 55.5898 75.2451H57.0652" fill="white"/>
<path d="M80.6723 75.2451H82.1477C84.5925 75.2451 86.5739 77.2266 86.5739 79.6713C86.5739 82.1161 84.5925 84.0976 82.1477 84.0976H79.1969" fill="white"/>
<path d="M102.803 84.0976H99.8526C97.4079 84.0976 95.4264 82.1161 95.4264 79.6713C95.4264 77.2266 97.4079 75.2451 99.8526 75.2451H101.328" fill="white"/>
<path d="M124.934 75.2451H126.409C128.854 75.2451 130.836 77.2266 130.836 79.6713C130.836 82.1161 128.854 84.0976 126.409 84.0976H123.459" fill="white"/>
<path d="M46.7378 122.456V107.702C46.7378 99.5537 53.3432 92.9482 61.4919 92.9482H77.7214C85.8701 92.9482 92.4755 99.5537 92.4755 107.702V122.456" fill="#594C8B"/>
<path d="M54.1148 118.03C69.8781 118.03 83.0107 108.325 85.9542 95.4579C83.6024 93.8733 80.7696 92.9482 77.7214 92.9482H61.4919C53.3432 92.9482 46.7378 99.5537 46.7378 107.702V117.294C49.1088 117.771 51.5757 118.03 54.1148 118.03Z" fill="#938CCB"/>
<path d="M89.5239 122.456V107.702C89.5239 99.5537 96.1293 92.9482 104.278 92.9482H120.508C128.656 92.9482 135.262 99.5537 135.262 107.702V122.456" fill="#594C8B"/>
<path d="M96.901 118.03C112.664 118.03 125.797 108.325 128.74 95.4579C126.389 93.8733 123.556 92.9482 120.508 92.9482H104.278C96.1293 92.9482 89.5239 99.5537 89.5239 107.702V117.294C91.8949 117.771 94.3618 118.03 96.901 118.03Z" fill="#938CCB"/>
<path d="M104.278 134.261V128.359C104.278 123.47 100.315 119.507 95.4259 119.507H86.5734C81.6839 119.507 77.7209 123.47 77.7209 128.359V134.261H104.278Z" fill="#594C8B"/>
<path d="M80.6718 131.31C89.7854 131.31 97.3985 126.661 99.3519 120.433C98.1672 119.846 96.8378 119.507 95.4259 119.507H86.5734C81.6839 119.507 77.7209 123.47 77.7209 128.359V131.127C78.6859 131.236 79.6655 131.31 80.6718 131.31Z" fill="#938CCB"/>
<path d="M83.6228 107.703H80.672C79.0417 107.703 77.7212 109.024 77.7212 110.654C77.7212 112.284 79.0417 113.605 80.672 113.605H83.6228" fill="white"/>
<path d="M98.3774 107.703H101.328C102.959 107.703 104.279 109.024 104.279 110.654C104.279 112.284 102.959 113.605 101.328 113.605H98.3774" fill="white"/>
<path d="M98.3767 100.328V112.131C98.3767 116.205 95.0732 119.508 90.9996 119.508C86.926 119.508 83.6226 116.205 83.6226 112.131V101.804" fill="white"/>
<path d="M95.4265 101.801C95.4265 105.06 89.8332 107.703 86.574 107.703H80.6724V101.801C80.6724 98.5419 83.3148 95.8994 86.574 95.8994H95.4265C98.6856 95.8994 101.328 98.5419 101.328 101.801V107.703C98.0689 107.703 95.4265 105.06 95.4265 101.801Z" fill="#2E294C"/>
<path d="M80.6726 66.3926V81.1467C80.6726 87.665 75.3877 92.95 68.8693 92.95C62.351 92.95 57.066 87.665 57.066 81.1467V66.3926" fill="white"/>
<path d="M124.935 66.3926V81.1467C124.935 87.665 119.65 92.95 113.132 92.95C106.613 92.95 101.328 87.665 101.328 81.1467V66.3926" fill="white"/>
<path d="M119.032 57.5396C119.959 56.3062 120.508 54.7732 120.508 53.1134C120.508 49.0398 117.204 45.7363 113.13 45.7363C109.057 45.7363 105.753 49.0398 105.753 53.1134C105.753 54.7747 106.302 56.3076 107.229 57.5396" fill="#2E294C"/>
<path d="M73.2951 57.54H64.4426C58.7387 57.54 54.1147 62.164 54.1147 67.8679V75.245H62.9672C67.8567 75.245 71.8197 71.282 71.8197 66.3925V70.8187C71.8197 73.2635 73.8011 75.245 76.2459 75.245H83.6229V67.8679C83.6229 62.164 78.999 57.54 73.2951 57.54Z" fill="#2E294C"/>
<path d="M117.558 57.54H108.705C103.001 57.54 98.3774 62.164 98.3774 67.8679V75.245H110.181C115.07 75.245 119.033 71.282 119.033 66.3925V70.8187C119.033 73.2635 121.015 75.245 123.459 75.245H127.886V67.8679C127.886 62.164 123.262 57.54 117.558 57.54Z" fill="#2E294C"/>
<path d="M62.9673 92.9482C62.9673 96.2074 65.6097 98.8499 68.8689 98.8499C72.1281 98.8499 74.7706 96.2074 74.7706 92.9482" fill="white"/>
<path d="M107.23 92.9482C107.23 96.2074 109.872 98.8499 113.131 98.8499C116.391 98.8499 119.033 96.2074 119.033 92.9482" fill="white"/>
<path d="M86.5737 119.507V120.982C86.5737 123.427 88.5552 125.408 91 125.408C93.4447 125.408 95.4262 123.427 95.4262 120.982V119.507" fill="white"/>
</g>
<path d="M231.156 60.8672H236.488C238.77 60.8672 240.496 61.1875 241.668 61.8281C242.84 62.4688 243.426 63.5938 243.426 65.2031C243.426 65.8516 243.32 66.4375 243.109 66.9609C242.906 67.4844 242.609 67.9141 242.219 68.25C241.828 68.5859 241.352 68.8047 240.789 68.9062V69.0234C241.359 69.1406 241.875 69.3438 242.336 69.6328C242.797 69.9141 243.164 70.3281 243.438 70.875C243.719 71.4141 243.859 72.1328 243.859 73.0312C243.859 74.0703 243.605 74.9609 243.098 75.7031C242.59 76.4453 241.863 77.0156 240.918 77.4141C239.98 77.8047 238.863 78 237.566 78H231.156V60.8672ZM234.789 67.6523H236.898C237.953 67.6523 238.684 67.4883 239.09 67.1602C239.496 66.8242 239.699 66.332 239.699 65.6836C239.699 65.0273 239.457 64.5586 238.973 64.2773C238.496 63.9883 237.738 63.8438 236.699 63.8438H234.789V67.6523ZM234.789 70.5352V75H237.156C238.25 75 239.012 74.7891 239.441 74.3672C239.871 73.9453 240.086 73.3789 240.086 72.668C240.086 72.2461 239.992 71.875 239.805 71.5547C239.617 71.2344 239.301 70.9844 238.855 70.8047C238.418 70.625 237.812 70.5352 237.039 70.5352H234.789ZM258.906 71.4258C258.906 72.5195 258.758 73.4883 258.461 74.332C258.172 75.1758 257.746 75.8906 257.184 76.4766C256.629 77.0547 255.957 77.4922 255.168 77.7891C254.387 78.0859 253.504 78.2344 252.52 78.2344C251.598 78.2344 250.75 78.0859 249.977 77.7891C249.211 77.4922 248.543 77.0547 247.973 76.4766C247.41 75.8906 246.973 75.1758 246.66 74.332C246.355 73.4883 246.203 72.5195 246.203 71.4258C246.203 69.9727 246.461 68.7422 246.977 67.7344C247.492 66.7266 248.227 65.9609 249.18 65.4375C250.133 64.9141 251.27 64.6523 252.59 64.6523C253.816 64.6523 254.902 64.9141 255.848 65.4375C256.801 65.9609 257.547 66.7266 258.086 67.7344C258.633 68.7422 258.906 69.9727 258.906 71.4258ZM249.848 71.4258C249.848 72.2852 249.941 73.0078 250.129 73.5938C250.316 74.1797 250.609 74.6211 251.008 74.918C251.406 75.2148 251.926 75.3633 252.566 75.3633C253.199 75.3633 253.711 75.2148 254.102 74.918C254.5 74.6211 254.789 74.1797 254.969 73.5938C255.156 73.0078 255.25 72.2852 255.25 71.4258C255.25 70.5586 255.156 69.8398 254.969 69.2695C254.789 68.6914 254.5 68.2578 254.102 67.9688C253.703 67.6797 253.184 67.5352 252.543 67.5352C251.598 67.5352 250.91 67.8594 250.48 68.5078C250.059 69.1562 249.848 70.1289 249.848 71.4258ZM267.227 64.6289C268.984 64.6289 270.332 65.0117 271.27 65.7773C272.207 66.543 272.676 67.707 272.676 69.2695V78H270.18L269.488 76.2188H269.395C269.02 76.6875 268.637 77.0703 268.246 77.3672C267.855 77.6641 267.406 77.8828 266.898 78.0234C266.391 78.1641 265.773 78.2344 265.047 78.2344C264.273 78.2344 263.578 78.0859 262.961 77.7891C262.352 77.4922 261.871 77.0391 261.52 76.4297C261.168 75.8125 260.992 75.0312 260.992 74.0859C260.992 72.6953 261.48 71.6719 262.457 71.0156C263.434 70.3516 264.898 69.9844 266.852 69.9141L269.125 69.8438V69.2695C269.125 68.582 268.945 68.0781 268.586 67.7578C268.227 67.4375 267.727 67.2773 267.086 67.2773C266.453 67.2773 265.832 67.3672 265.223 67.5469C264.613 67.7266 264.004 67.9531 263.395 68.2266L262.211 65.8125C262.906 65.4453 263.684 65.1562 264.543 64.9453C265.41 64.7344 266.305 64.6289 267.227 64.6289ZM269.125 71.9297L267.742 71.9766C266.586 72.0078 265.781 72.2148 265.328 72.5977C264.883 72.9805 264.66 73.4844 264.66 74.1094C264.66 74.6562 264.82 75.0469 265.141 75.2812C265.461 75.5078 265.879 75.6211 266.395 75.6211C267.16 75.6211 267.805 75.3945 268.328 74.9414C268.859 74.4883 269.125 73.8438 269.125 73.0078V71.9297ZM291.742 74.1094C291.742 75 291.531 75.7539 291.109 76.3711C290.695 76.9805 290.074 77.4453 289.246 77.7656C288.418 78.0781 287.387 78.2344 286.152 78.2344C285.238 78.2344 284.453 78.1758 283.797 78.0586C283.148 77.9414 282.492 77.7461 281.828 77.4727V74.5195C282.539 74.8398 283.301 75.1055 284.113 75.3164C284.934 75.5195 285.652 75.6211 286.27 75.6211C286.965 75.6211 287.461 75.5195 287.758 75.3164C288.062 75.1055 288.215 74.832 288.215 74.4961C288.215 74.2773 288.152 74.082 288.027 73.9102C287.91 73.7305 287.652 73.5312 287.254 73.3125C286.855 73.0859 286.23 72.793 285.379 72.4336C284.559 72.0898 283.883 71.7422 283.352 71.3906C282.828 71.0391 282.438 70.625 282.18 70.1484C281.93 69.6641 281.805 69.0508 281.805 68.3086C281.805 67.0977 282.273 66.1875 283.211 65.5781C284.156 64.9609 285.418 64.6523 286.996 64.6523C287.809 64.6523 288.582 64.7344 289.316 64.8984C290.059 65.0625 290.82 65.3242 291.602 65.6836L290.523 68.2617C289.875 67.9805 289.262 67.75 288.684 67.5703C288.113 67.3906 287.531 67.3008 286.938 67.3008C286.414 67.3008 286.02 67.3711 285.754 67.5117C285.488 67.6523 285.355 67.8672 285.355 68.1562C285.355 68.3672 285.422 68.5547 285.555 68.7188C285.695 68.8828 285.961 69.0664 286.352 69.2695C286.75 69.4648 287.332 69.7188 288.098 70.0312C288.84 70.3359 289.484 70.6562 290.031 70.9922C290.578 71.3203 291 71.7305 291.297 72.2227C291.594 72.707 291.742 73.3359 291.742 74.1094ZM299.898 64.6289C301.656 64.6289 303.004 65.0117 303.941 65.7773C304.879 66.543 305.348 67.707 305.348 69.2695V78H302.852L302.16 76.2188H302.066C301.691 76.6875 301.309 77.0703 300.918 77.3672C300.527 77.6641 300.078 77.8828 299.57 78.0234C299.062 78.1641 298.445 78.2344 297.719 78.2344C296.945 78.2344 296.25 78.0859 295.633 77.7891C295.023 77.4922 294.543 77.0391 294.191 76.4297C293.84 75.8125 293.664 75.0312 293.664 74.0859C293.664 72.6953 294.152 71.6719 295.129 71.0156C296.105 70.3516 297.57 69.9844 299.523 69.9141L301.797 69.8438V69.2695C301.797 68.582 301.617 68.0781 301.258 67.7578C300.898 67.4375 300.398 67.2773 299.758 67.2773C299.125 67.2773 298.504 67.3672 297.895 67.5469C297.285 67.7266 296.676 67.9531 296.066 68.2266L294.883 65.8125C295.578 65.4453 296.355 65.1562 297.215 64.9453C298.082 64.7344 298.977 64.6289 299.898 64.6289ZM301.797 71.9297L300.414 71.9766C299.258 72.0078 298.453 72.2148 298 72.5977C297.555 72.9805 297.332 73.4844 297.332 74.1094C297.332 74.6562 297.492 75.0469 297.812 75.2812C298.133 75.5078 298.551 75.6211 299.066 75.6211C299.832 75.6211 300.477 75.3945 301 74.9414C301.531 74.4883 301.797 73.8438 301.797 73.0078V71.9297ZM321.062 64.8984V78H318.32L317.84 76.3242H317.652C317.371 76.7695 317.02 77.1328 316.598 77.4141C316.176 77.6953 315.711 77.9023 315.203 78.0352C314.695 78.168 314.168 78.2344 313.621 78.2344C312.684 78.2344 311.867 78.0703 311.172 77.7422C310.477 77.4062 309.934 76.8867 309.543 76.1836C309.16 75.4805 308.969 74.5664 308.969 73.4414V64.8984H312.543V72.5508C312.543 73.4883 312.711 74.1953 313.047 74.6719C313.383 75.1484 313.918 75.3867 314.652 75.3867C315.379 75.3867 315.949 75.2227 316.363 74.8945C316.777 74.5586 317.066 74.0703 317.23 73.4297C317.402 72.7812 317.488 71.9922 317.488 71.0625V64.8984H321.062ZM319.668 59.6133V59.8594C319.441 60.0781 319.145 60.3477 318.777 60.668C318.41 60.9883 318.016 61.3242 317.594 61.6758C317.172 62.0195 316.758 62.3516 316.352 62.6719C315.945 62.9844 315.59 63.2461 315.285 63.457H312.906V63.1406C313.164 62.8438 313.461 62.4922 313.797 62.0859C314.141 61.6719 314.48 61.2461 314.816 60.8086C315.152 60.3711 315.434 59.9727 315.66 59.6133H319.668ZM328.961 78.2344C327.5 78.2344 326.309 77.6641 325.387 76.5234C324.473 75.375 324.016 73.6914 324.016 71.4727C324.016 69.2305 324.48 67.5352 325.41 66.3867C326.34 65.2305 327.555 64.6523 329.055 64.6523C329.68 64.6523 330.23 64.7383 330.707 64.9102C331.184 65.082 331.594 65.3125 331.938 65.6016C332.289 65.8906 332.586 66.2148 332.828 66.5742H332.945C332.898 66.3242 332.84 65.957 332.77 65.4727C332.707 64.9805 332.676 64.4766 332.676 63.9609V59.7656H336.262V78H333.52L332.828 76.3008H332.676C332.449 76.6602 332.164 76.9883 331.82 77.2852C331.484 77.5742 331.082 77.8047 330.613 77.9766C330.145 78.1484 329.594 78.2344 328.961 78.2344ZM330.215 75.3867C331.191 75.3867 331.879 75.0977 332.277 74.5195C332.684 73.9336 332.898 73.0547 332.922 71.8828V71.4961C332.922 70.2227 332.727 69.25 332.336 68.5781C331.945 67.8984 331.219 67.5586 330.156 67.5586C329.367 67.5586 328.75 67.8984 328.305 68.5781C327.859 69.2578 327.637 70.2383 327.637 71.5195C327.637 72.8008 327.859 73.7656 328.305 74.4141C328.758 75.0625 329.395 75.3867 330.215 75.3867ZM345.402 64.6523C346.613 64.6523 347.656 64.8867 348.531 65.3555C349.406 65.8164 350.082 66.4883 350.559 67.3711C351.035 68.2539 351.273 69.332 351.273 70.6055V72.3398H342.824C342.863 73.3477 343.164 74.1406 343.727 74.7188C344.297 75.2891 345.086 75.5742 346.094 75.5742C346.93 75.5742 347.695 75.4883 348.391 75.3164C349.086 75.1445 349.801 74.8867 350.535 74.543V77.3086C349.887 77.6289 349.207 77.8633 348.496 78.0117C347.793 78.1602 346.938 78.2344 345.93 78.2344C344.617 78.2344 343.453 77.9922 342.438 77.5078C341.43 77.0234 340.637 76.2852 340.059 75.293C339.488 74.3008 339.203 73.0508 339.203 71.543C339.203 70.0117 339.461 68.7383 339.977 67.7227C340.5 66.6992 341.227 65.9336 342.156 65.4258C343.086 64.9102 344.168 64.6523 345.402 64.6523ZM345.426 67.1953C344.73 67.1953 344.152 67.418 343.691 67.8633C343.238 68.3086 342.977 69.0078 342.906 69.9609H347.922C347.914 69.4297 347.816 68.957 347.629 68.543C347.449 68.1289 347.176 67.8008 346.809 67.5586C346.449 67.3164 345.988 67.1953 345.426 67.1953Z" fill="white"/>
<path d="M234.3 108.15C235.407 108.15 236.321 108.285 237.042 108.555C237.769 108.824 238.308 109.234 238.659 109.785C239.017 110.336 239.195 111.036 239.195 111.886C239.195 112.519 239.078 113.058 238.844 113.503C238.609 113.948 238.302 114.317 237.921 114.61C237.54 114.903 237.133 115.138 236.699 115.313L240.347 121H237.965L234.862 115.85H232.797V121H230.688V108.15H234.3ZM234.159 109.908H232.797V114.109H234.256C235.234 114.109 235.943 113.928 236.383 113.564C236.828 113.201 237.051 112.665 237.051 111.956C237.051 111.212 236.813 110.685 236.339 110.374C235.87 110.063 235.144 109.908 234.159 109.908ZM245.849 111.086C246.716 111.086 247.46 111.265 248.081 111.622C248.702 111.979 249.18 112.486 249.514 113.143C249.848 113.799 250.015 114.584 250.015 115.498V116.605H243.52C243.543 117.549 243.795 118.275 244.275 118.785C244.762 119.295 245.441 119.55 246.314 119.55C246.936 119.55 247.492 119.491 247.984 119.374C248.482 119.251 248.995 119.072 249.522 118.838V120.517C249.036 120.745 248.541 120.912 248.037 121.018C247.533 121.123 246.93 121.176 246.227 121.176C245.271 121.176 244.431 120.991 243.704 120.622C242.983 120.247 242.418 119.69 242.008 118.952C241.604 118.214 241.401 117.297 241.401 116.201C241.401 115.111 241.586 114.186 241.955 113.424C242.324 112.662 242.843 112.082 243.511 111.684C244.179 111.285 244.958 111.086 245.849 111.086ZM245.849 112.642C245.198 112.642 244.671 112.853 244.267 113.274C243.868 113.696 243.634 114.314 243.563 115.129H247.993C247.987 114.643 247.905 114.212 247.747 113.837C247.595 113.462 247.36 113.169 247.044 112.958C246.733 112.747 246.335 112.642 245.849 112.642ZM257.204 112.844H254.84V121H252.774V112.844H251.184V111.851L252.774 111.244V110.567C252.774 109.741 252.903 109.085 253.161 108.599C253.425 108.112 253.8 107.764 254.286 107.553C254.778 107.336 255.364 107.228 256.044 107.228C256.489 107.228 256.896 107.266 257.266 107.342C257.635 107.412 257.945 107.494 258.197 107.588L257.661 109.152C257.462 109.088 257.239 109.029 256.993 108.977C256.747 108.918 256.483 108.889 256.202 108.889C255.733 108.889 255.388 109.035 255.165 109.328C254.948 109.621 254.84 110.049 254.84 110.611V111.271H257.204V112.844ZM262.741 111.086C263.608 111.086 264.353 111.265 264.974 111.622C265.595 111.979 266.072 112.486 266.406 113.143C266.74 113.799 266.907 114.584 266.907 115.498V116.605H260.412C260.436 117.549 260.688 118.275 261.168 118.785C261.654 119.295 262.334 119.55 263.207 119.55C263.828 119.55 264.385 119.491 264.877 119.374C265.375 119.251 265.888 119.072 266.415 118.838V120.517C265.929 120.745 265.434 120.912 264.93 121.018C264.426 121.123 263.822 121.176 263.119 121.176C262.164 121.176 261.323 120.991 260.597 120.622C259.876 120.247 259.311 119.69 258.9 118.952C258.496 118.214 258.294 117.297 258.294 116.201C258.294 115.111 258.479 114.186 258.848 113.424C259.217 112.662 259.735 112.082 260.403 111.684C261.071 111.285 261.851 111.086 262.741 111.086ZM262.741 112.642C262.091 112.642 261.563 112.853 261.159 113.274C260.761 113.696 260.526 114.314 260.456 115.129H264.886C264.88 114.643 264.798 114.212 264.64 113.837C264.487 113.462 264.253 113.169 263.937 112.958C263.626 112.747 263.228 112.642 262.741 112.642ZM274.167 111.086C274.331 111.086 274.51 111.095 274.703 111.112C274.896 111.13 275.063 111.153 275.204 111.183L275.011 113.116C274.888 113.081 274.735 113.055 274.554 113.037C274.378 113.02 274.22 113.011 274.079 113.011C273.71 113.011 273.358 113.072 273.024 113.195C272.69 113.312 272.395 113.494 272.137 113.74C271.879 113.98 271.677 114.282 271.53 114.646C271.384 115.009 271.311 115.431 271.311 115.911V121H269.236V111.271H270.854L271.135 112.984H271.231C271.425 112.639 271.665 112.322 271.952 112.035C272.239 111.748 272.567 111.52 272.937 111.35C273.312 111.174 273.722 111.086 274.167 111.086ZM280.882 111.086C281.749 111.086 282.493 111.265 283.114 111.622C283.735 111.979 284.213 112.486 284.547 113.143C284.881 113.799 285.048 114.584 285.048 115.498V116.605H278.553C278.576 117.549 278.828 118.275 279.309 118.785C279.795 119.295 280.475 119.55 281.348 119.55C281.969 119.55 282.525 119.491 283.018 119.374C283.516 119.251 284.028 119.072 284.556 118.838V120.517C284.069 120.745 283.574 120.912 283.07 121.018C282.566 121.123 281.963 121.176 281.26 121.176C280.305 121.176 279.464 120.991 278.737 120.622C278.017 120.247 277.451 119.69 277.041 118.952C276.637 118.214 276.435 117.297 276.435 116.201C276.435 115.111 276.619 114.186 276.988 113.424C277.357 112.662 277.876 112.082 278.544 111.684C279.212 111.285 279.991 111.086 280.882 111.086ZM280.882 112.642C280.231 112.642 279.704 112.853 279.3 113.274C278.901 113.696 278.667 114.314 278.597 115.129H283.026C283.021 114.643 282.938 114.212 282.78 113.837C282.628 113.462 282.394 113.169 282.077 112.958C281.767 112.747 281.368 112.642 280.882 112.642ZM286.533 117.045V115.296H291.068V117.045H286.533ZM299.717 118.223C299.717 118.861 299.562 119.4 299.251 119.84C298.94 120.279 298.486 120.613 297.889 120.842C297.297 121.064 296.57 121.176 295.709 121.176C295.029 121.176 294.443 121.126 293.951 121.026C293.465 120.933 293.005 120.786 292.571 120.587V118.803C293.034 119.02 293.553 119.207 294.127 119.365C294.707 119.523 295.255 119.603 295.771 119.603C296.45 119.603 296.939 119.497 297.238 119.286C297.537 119.069 297.687 118.782 297.687 118.425C297.687 118.214 297.625 118.026 297.502 117.862C297.385 117.692 297.162 117.52 296.834 117.344C296.512 117.162 296.037 116.945 295.41 116.693C294.795 116.447 294.276 116.201 293.854 115.955C293.433 115.709 293.113 115.413 292.896 115.067C292.68 114.716 292.571 114.268 292.571 113.723C292.571 112.861 292.911 112.208 293.591 111.763C294.276 111.312 295.182 111.086 296.307 111.086C296.904 111.086 297.467 111.147 297.994 111.271C298.527 111.388 299.049 111.561 299.559 111.789L298.908 113.345C298.469 113.151 298.026 112.993 297.581 112.87C297.142 112.741 296.693 112.677 296.236 112.677C295.703 112.677 295.296 112.759 295.015 112.923C294.739 113.087 294.602 113.321 294.602 113.626C294.602 113.854 294.669 114.048 294.804 114.206C294.938 114.364 295.17 114.522 295.498 114.681C295.832 114.839 296.295 115.035 296.887 115.27C297.467 115.492 297.968 115.727 298.39 115.973C298.817 116.213 299.146 116.509 299.374 116.86C299.603 117.212 299.717 117.666 299.717 118.223ZM305.825 111.086C306.692 111.086 307.437 111.265 308.058 111.622C308.679 111.979 309.156 112.486 309.49 113.143C309.824 113.799 309.991 114.584 309.991 115.498V116.605H303.496C303.52 117.549 303.771 118.275 304.252 118.785C304.738 119.295 305.418 119.55 306.291 119.55C306.912 119.55 307.469 119.491 307.961 119.374C308.459 119.251 308.972 119.072 309.499 118.838V120.517C309.013 120.745 308.518 120.912 308.014 121.018C307.51 121.123 306.906 121.176 306.203 121.176C305.248 121.176 304.407 120.991 303.681 120.622C302.96 120.247 302.395 119.69 301.984 118.952C301.58 118.214 301.378 117.297 301.378 116.201C301.378 115.111 301.562 114.186 301.932 113.424C302.301 112.662 302.819 112.082 303.487 111.684C304.155 111.285 304.935 111.086 305.825 111.086ZM305.825 112.642C305.175 112.642 304.647 112.853 304.243 113.274C303.845 113.696 303.61 114.314 303.54 115.129H307.97C307.964 114.643 307.882 114.212 307.724 113.837C307.571 113.462 307.337 113.169 307.021 112.958C306.71 112.747 306.312 112.642 305.825 112.642ZM320.811 111.086C322.041 111.086 322.97 111.358 323.597 111.903C324.229 112.448 324.546 113.298 324.546 114.452V121H323.078L322.683 119.62H322.612C322.337 119.972 322.053 120.262 321.76 120.49C321.467 120.719 321.127 120.889 320.74 121C320.359 121.117 319.894 121.176 319.343 121.176C318.763 121.176 318.244 121.07 317.787 120.859C317.33 120.643 316.97 120.314 316.706 119.875C316.442 119.436 316.311 118.879 316.311 118.205C316.311 117.203 316.683 116.45 317.427 115.946C318.177 115.442 319.308 115.164 320.819 115.111L322.507 115.05V114.54C322.507 113.866 322.349 113.386 322.032 113.099C321.722 112.812 321.282 112.668 320.714 112.668C320.228 112.668 319.756 112.738 319.299 112.879C318.842 113.02 318.396 113.192 317.963 113.397L317.295 111.938C317.77 111.687 318.309 111.481 318.912 111.323C319.521 111.165 320.154 111.086 320.811 111.086ZM322.498 116.351L321.241 116.395C320.21 116.43 319.486 116.605 319.07 116.922C318.654 117.238 318.446 117.672 318.446 118.223C318.446 118.703 318.59 119.055 318.877 119.277C319.164 119.494 319.542 119.603 320.011 119.603C320.726 119.603 321.317 119.4 321.786 118.996C322.261 118.586 322.498 117.985 322.498 117.194V116.351ZM320.222 107.21C320.38 107.479 320.573 107.778 320.802 108.106C321.03 108.435 321.268 108.754 321.514 109.064C321.76 109.375 321.977 109.642 322.164 109.864V110.093H320.784C320.562 109.929 320.312 109.729 320.037 109.495C319.762 109.255 319.48 109.006 319.193 108.748C318.912 108.484 318.651 108.235 318.411 108.001C318.177 107.761 317.989 107.556 317.849 107.386V107.21H320.222ZM338.652 118.223C338.652 118.861 338.497 119.4 338.187 119.84C337.876 120.279 337.422 120.613 336.824 120.842C336.232 121.064 335.506 121.176 334.645 121.176C333.965 121.176 333.379 121.126 332.887 121.026C332.4 120.933 331.94 120.786 331.507 120.587V118.803C331.97 119.02 332.488 119.207 333.062 119.365C333.643 119.523 334.19 119.603 334.706 119.603C335.386 119.603 335.875 119.497 336.174 119.286C336.473 119.069 336.622 118.782 336.622 118.425C336.622 118.214 336.561 118.026 336.438 117.862C336.32 117.692 336.098 117.52 335.77 117.344C335.447 117.162 334.973 116.945 334.346 116.693C333.73 116.447 333.212 116.201 332.79 115.955C332.368 115.709 332.049 115.413 331.832 115.067C331.615 114.716 331.507 114.268 331.507 113.723C331.507 112.861 331.847 112.208 332.526 111.763C333.212 111.312 334.117 111.086 335.242 111.086C335.84 111.086 336.402 111.147 336.93 111.271C337.463 111.388 337.984 111.561 338.494 111.789L337.844 113.345C337.404 113.151 336.962 112.993 336.517 112.87C336.077 112.741 335.629 112.677 335.172 112.677C334.639 112.677 334.231 112.759 333.95 112.923C333.675 113.087 333.537 113.321 333.537 113.626C333.537 113.854 333.604 114.048 333.739 114.206C333.874 114.364 334.105 114.522 334.434 114.681C334.768 114.839 335.23 115.035 335.822 115.27C336.402 115.492 336.903 115.727 337.325 115.973C337.753 116.213 338.081 116.509 338.31 116.86C338.538 117.212 338.652 117.666 338.652 118.223ZM344.699 111.086C345.93 111.086 346.858 111.358 347.485 111.903C348.118 112.448 348.435 113.298 348.435 114.452V121H346.967L346.571 119.62H346.501C346.226 119.972 345.941 120.262 345.648 120.49C345.355 120.719 345.016 120.889 344.629 121C344.248 121.117 343.782 121.176 343.231 121.176C342.651 121.176 342.133 121.07 341.676 120.859C341.219 120.643 340.858 120.314 340.595 119.875C340.331 119.436 340.199 118.879 340.199 118.205C340.199 117.203 340.571 116.45 341.315 115.946C342.065 115.442 343.196 115.164 344.708 115.111L346.396 115.05V114.54C346.396 113.866 346.237 113.386 345.921 113.099C345.61 112.812 345.171 112.668 344.603 112.668C344.116 112.668 343.645 112.738 343.188 112.879C342.73 113.02 342.285 113.192 341.852 113.397L341.184 111.938C341.658 111.687 342.197 111.481 342.801 111.323C343.41 111.165 344.043 111.086 344.699 111.086ZM346.387 116.351L345.13 116.395C344.099 116.43 343.375 116.605 342.959 116.922C342.543 117.238 342.335 117.672 342.335 118.223C342.335 118.703 342.479 119.055 342.766 119.277C343.053 119.494 343.431 119.603 343.899 119.603C344.614 119.603 345.206 119.4 345.675 118.996C346.149 118.586 346.387 117.985 346.387 117.194V116.351ZM359.808 111.271V121H358.182L357.9 119.69H357.786C357.581 120.024 357.32 120.303 357.004 120.525C356.688 120.742 356.336 120.903 355.949 121.009C355.562 121.12 355.155 121.176 354.728 121.176C353.995 121.176 353.368 121.053 352.847 120.807C352.331 120.555 351.936 120.168 351.66 119.646C351.385 119.125 351.247 118.451 351.247 117.625V111.271H353.321V117.238C353.321 117.994 353.474 118.56 353.778 118.935C354.089 119.31 354.569 119.497 355.22 119.497C355.847 119.497 356.345 119.368 356.714 119.11C357.083 118.853 357.344 118.472 357.496 117.968C357.654 117.464 357.733 116.846 357.733 116.113V111.271H359.808ZM358.577 107.21V107.386C358.437 107.556 358.246 107.761 358.006 108.001C357.766 108.235 357.505 108.484 357.224 108.748C356.942 109.006 356.664 109.255 356.389 109.495C356.113 109.729 355.864 109.929 355.642 110.093H354.262V109.864C354.455 109.642 354.669 109.375 354.903 109.064C355.144 108.754 355.378 108.435 355.606 108.106C355.841 107.778 356.037 107.479 356.195 107.21H358.577ZM366.039 121.176C364.879 121.176 363.947 120.754 363.244 119.91C362.547 119.061 362.198 117.81 362.198 116.157C362.198 114.487 362.553 113.225 363.262 112.369C363.977 111.514 364.917 111.086 366.083 111.086C366.575 111.086 367.006 111.153 367.375 111.288C367.744 111.417 368.061 111.593 368.324 111.815C368.594 112.038 368.822 112.287 369.01 112.562H369.106C369.077 112.381 369.042 112.12 369.001 111.78C368.966 111.435 368.948 111.115 368.948 110.822V107.324H371.022V121H369.405L369.036 119.673H368.948C368.772 119.954 368.55 120.209 368.28 120.438C368.017 120.66 367.7 120.839 367.331 120.974C366.968 121.108 366.537 121.176 366.039 121.176ZM366.619 119.497C367.504 119.497 368.128 119.242 368.491 118.732C368.854 118.223 369.042 117.458 369.054 116.438V116.166C369.054 115.076 368.878 114.241 368.526 113.661C368.175 113.075 367.533 112.782 366.602 112.782C365.857 112.782 365.289 113.084 364.896 113.688C364.51 114.285 364.316 115.12 364.316 116.192C364.316 117.265 364.51 118.085 364.896 118.653C365.289 119.216 365.863 119.497 366.619 119.497ZM377.86 111.086C378.728 111.086 379.472 111.265 380.093 111.622C380.714 111.979 381.191 112.486 381.525 113.143C381.859 113.799 382.026 114.584 382.026 115.498V116.605H375.531C375.555 117.549 375.807 118.275 376.287 118.785C376.773 119.295 377.453 119.55 378.326 119.55C378.947 119.55 379.504 119.491 379.996 119.374C380.494 119.251 381.007 119.072 381.534 118.838V120.517C381.048 120.745 380.553 120.912 380.049 121.018C379.545 121.123 378.941 121.176 378.238 121.176C377.283 121.176 376.442 120.991 375.716 120.622C374.995 120.247 374.43 119.69 374.02 118.952C373.615 118.214 373.413 117.297 373.413 116.201C373.413 115.111 373.598 114.186 373.967 113.424C374.336 112.662 374.854 112.082 375.522 111.684C376.19 111.285 376.97 111.086 377.86 111.086ZM377.86 112.642C377.21 112.642 376.683 112.853 376.278 113.274C375.88 113.696 375.646 114.314 375.575 115.129H380.005C379.999 114.643 379.917 114.212 379.759 113.837C379.606 113.462 379.372 113.169 379.056 112.958C378.745 112.747 378.347 112.642 377.86 112.642ZM392.907 111.086C393.774 111.086 394.519 111.265 395.14 111.622C395.761 111.979 396.238 112.486 396.572 113.143C396.906 113.799 397.073 114.584 397.073 115.498V116.605H390.578C390.602 117.549 390.854 118.275 391.334 118.785C391.82 119.295 392.5 119.55 393.373 119.55C393.994 119.55 394.551 119.491 395.043 119.374C395.541 119.251 396.054 119.072 396.581 118.838V120.517C396.095 120.745 395.6 120.912 395.096 121.018C394.592 121.123 393.988 121.176 393.285 121.176C392.33 121.176 391.489 120.991 390.763 120.622C390.042 120.247 389.477 119.69 389.066 118.952C388.662 118.214 388.46 117.297 388.46 116.201C388.46 115.111 388.645 114.186 389.014 113.424C389.383 112.662 389.901 112.082 390.569 111.684C391.237 111.285 392.017 111.086 392.907 111.086ZM392.907 112.642C392.257 112.642 391.729 112.853 391.325 113.274C390.927 113.696 390.692 114.314 390.622 115.129H395.052C395.046 114.643 394.964 114.212 394.806 113.837C394.653 113.462 394.419 113.169 394.103 112.958C393.792 112.747 393.394 112.642 392.907 112.642ZM407.893 111.086C409.123 111.086 410.052 111.358 410.679 111.903C411.312 112.448 411.628 113.298 411.628 114.452V121H410.16L409.765 119.62H409.694C409.419 119.972 409.135 120.262 408.842 120.49C408.549 120.719 408.209 120.889 407.822 121C407.441 121.117 406.976 121.176 406.425 121.176C405.845 121.176 405.326 121.07 404.869 120.859C404.412 120.643 404.052 120.314 403.788 119.875C403.524 119.436 403.393 118.879 403.393 118.205C403.393 117.203 403.765 116.45 404.509 115.946C405.259 115.442 406.39 115.164 407.901 115.111L409.589 115.05V114.54C409.589 113.866 409.431 113.386 409.114 113.099C408.804 112.812 408.364 112.668 407.796 112.668C407.31 112.668 406.838 112.738 406.381 112.879C405.924 113.02 405.479 113.192 405.045 113.397L404.377 111.938C404.852 111.687 405.391 111.481 405.994 111.323C406.604 111.165 407.236 111.086 407.893 111.086ZM409.58 116.351L408.323 116.395C407.292 116.43 406.568 116.605 406.152 116.922C405.736 117.238 405.528 117.672 405.528 118.223C405.528 118.703 405.672 119.055 405.959 119.277C406.246 119.494 406.624 119.603 407.093 119.603C407.808 119.603 408.399 119.4 408.868 118.996C409.343 118.586 409.58 117.985 409.58 117.194V116.351ZM423.133 116.113C423.133 116.922 423.027 117.64 422.816 118.267C422.605 118.894 422.298 119.424 421.894 119.857C421.489 120.285 421.003 120.613 420.435 120.842C419.866 121.064 419.225 121.176 418.51 121.176C417.842 121.176 417.229 121.064 416.673 120.842C416.116 120.613 415.633 120.285 415.223 119.857C414.818 119.424 414.505 118.894 414.282 118.267C414.06 117.64 413.948 116.922 413.948 116.113C413.948 115.041 414.133 114.133 414.502 113.389C414.877 112.639 415.41 112.067 416.102 111.675C416.793 111.282 417.616 111.086 418.571 111.086C419.468 111.086 420.259 111.282 420.944 111.675C421.63 112.067 422.166 112.639 422.553 113.389C422.939 114.139 423.133 115.047 423.133 116.113ZM416.075 116.113C416.075 116.822 416.16 117.429 416.33 117.933C416.506 118.437 416.775 118.823 417.139 119.093C417.502 119.356 417.971 119.488 418.545 119.488C419.119 119.488 419.588 119.356 419.951 119.093C420.314 118.823 420.581 118.437 420.751 117.933C420.921 117.429 421.006 116.822 421.006 116.113C421.006 115.404 420.921 114.804 420.751 114.312C420.581 113.813 420.314 113.436 419.951 113.178C419.588 112.914 419.116 112.782 418.536 112.782C417.681 112.782 417.057 113.069 416.664 113.644C416.271 114.218 416.075 115.041 416.075 116.113ZM432.247 107.324V110.62C432.247 111.001 432.235 111.376 432.212 111.745C432.194 112.108 432.177 112.393 432.159 112.598H432.247C432.511 112.176 432.877 111.821 433.346 111.534C433.82 111.241 434.427 111.095 435.165 111.095C436.319 111.095 437.248 111.52 437.951 112.369C438.654 113.213 439.006 114.464 439.006 116.122C439.006 117.224 438.845 118.149 438.522 118.899C438.2 119.649 437.746 120.218 437.16 120.604C436.58 120.985 435.897 121.176 435.112 121.176C434.374 121.176 433.776 121.041 433.319 120.771C432.868 120.496 432.514 120.177 432.256 119.813H432.106L431.729 121H430.182V107.324H432.247ZM434.62 112.773C434.034 112.773 433.568 112.891 433.223 113.125C432.883 113.359 432.637 113.711 432.484 114.18C432.332 114.643 432.253 115.231 432.247 115.946V116.131C432.247 117.215 432.417 118.044 432.757 118.618C433.103 119.192 433.729 119.479 434.638 119.479C435.358 119.479 435.912 119.189 436.299 118.609C436.686 118.023 436.879 117.186 436.879 116.096C436.879 114.994 436.686 114.165 436.299 113.608C435.918 113.052 435.358 112.773 434.62 112.773ZM445.272 111.086C446.14 111.086 446.884 111.265 447.505 111.622C448.126 111.979 448.604 112.486 448.938 113.143C449.271 113.799 449.438 114.584 449.438 115.498V116.605H442.943C442.967 117.549 443.219 118.275 443.699 118.785C444.186 119.295 444.865 119.55 445.738 119.55C446.359 119.55 446.916 119.491 447.408 119.374C447.906 119.251 448.419 119.072 448.946 118.838V120.517C448.46 120.745 447.965 120.912 447.461 121.018C446.957 121.123 446.354 121.176 445.65 121.176C444.695 121.176 443.854 120.991 443.128 120.622C442.407 120.247 441.842 119.69 441.432 118.952C441.027 118.214 440.825 117.297 440.825 116.201C440.825 115.111 441.01 114.186 441.379 113.424C441.748 112.662 442.267 112.082 442.935 111.684C443.603 111.285 444.382 111.086 445.272 111.086ZM445.272 112.642C444.622 112.642 444.095 112.853 443.69 113.274C443.292 113.696 443.058 114.314 442.987 115.129H447.417C447.411 114.643 447.329 114.212 447.171 113.837C447.019 113.462 446.784 113.169 446.468 112.958C446.157 112.747 445.759 112.642 445.272 112.642ZM462.763 111.086C463.853 111.086 464.673 111.367 465.224 111.93C465.78 112.492 466.059 113.395 466.059 114.637V121H463.993V115.006C463.993 114.268 463.85 113.711 463.562 113.336C463.275 112.961 462.839 112.773 462.253 112.773C461.433 112.773 460.841 113.037 460.478 113.564C460.12 114.086 459.941 114.845 459.941 115.841V121H457.876V115.006C457.876 114.514 457.812 114.104 457.683 113.775C457.56 113.441 457.369 113.192 457.111 113.028C456.854 112.858 456.528 112.773 456.136 112.773C455.567 112.773 455.113 112.902 454.773 113.16C454.439 113.418 454.199 113.799 454.053 114.303C453.906 114.801 453.833 115.413 453.833 116.14V121H451.768V111.271H453.376L453.666 112.58H453.78C453.979 112.24 454.226 111.962 454.519 111.745C454.817 111.522 455.148 111.358 455.512 111.253C455.875 111.142 456.253 111.086 456.646 111.086C457.372 111.086 457.984 111.215 458.482 111.473C458.98 111.725 459.353 112.111 459.599 112.633H459.757C460.062 112.105 460.486 111.716 461.031 111.464C461.576 111.212 462.153 111.086 462.763 111.086ZM468.098 117.045V115.296H472.633V117.045H468.098ZM478.618 111.086C479.485 111.086 480.229 111.265 480.851 111.622C481.472 111.979 481.949 112.486 482.283 113.143C482.617 113.799 482.784 114.584 482.784 115.498V116.605H476.289C476.312 117.549 476.564 118.275 477.045 118.785C477.531 119.295 478.211 119.55 479.084 119.55C479.705 119.55 480.262 119.491 480.754 119.374C481.252 119.251 481.765 119.072 482.292 118.838V120.517C481.806 120.745 481.311 120.912 480.807 121.018C480.303 121.123 479.699 121.176 478.996 121.176C478.041 121.176 477.2 120.991 476.474 120.622C475.753 120.247 475.188 119.69 474.777 118.952C474.373 118.214 474.171 117.297 474.171 116.201C474.171 115.111 474.355 114.186 474.725 113.424C475.094 112.662 475.612 112.082 476.28 111.684C476.948 111.285 477.728 111.086 478.618 111.086ZM478.618 112.642C477.968 112.642 477.44 112.853 477.036 113.274C476.638 113.696 476.403 114.314 476.333 115.129H480.763C480.757 114.643 480.675 114.212 480.517 113.837C480.364 113.462 480.13 113.169 479.813 112.958C479.503 112.747 479.104 112.642 478.618 112.642ZM491.652 118.223C491.652 118.861 491.497 119.4 491.187 119.84C490.876 120.279 490.422 120.613 489.824 120.842C489.232 121.064 488.506 121.176 487.645 121.176C486.965 121.176 486.379 121.126 485.887 121.026C485.4 120.933 484.94 120.786 484.507 120.587V118.803C484.97 119.02 485.488 119.207 486.062 119.365C486.643 119.523 487.19 119.603 487.706 119.603C488.386 119.603 488.875 119.497 489.174 119.286C489.473 119.069 489.622 118.782 489.622 118.425C489.622 118.214 489.561 118.026 489.438 117.862C489.32 117.692 489.098 117.52 488.77 117.344C488.447 117.162 487.973 116.945 487.346 116.693C486.73 116.447 486.212 116.201 485.79 115.955C485.368 115.709 485.049 115.413 484.832 115.067C484.615 114.716 484.507 114.268 484.507 113.723C484.507 112.861 484.847 112.208 485.526 111.763C486.212 111.312 487.117 111.086 488.242 111.086C488.84 111.086 489.402 111.147 489.93 111.271C490.463 111.388 490.984 111.561 491.494 111.789L490.844 113.345C490.404 113.151 489.962 112.993 489.517 112.87C489.077 112.741 488.629 112.677 488.172 112.677C487.639 112.677 487.231 112.759 486.95 112.923C486.675 113.087 486.537 113.321 486.537 113.626C486.537 113.854 486.604 114.048 486.739 114.206C486.874 114.364 487.105 114.522 487.434 114.681C487.768 114.839 488.23 115.035 488.822 115.27C489.402 115.492 489.903 115.727 490.325 115.973C490.753 116.213 491.081 116.509 491.31 116.86C491.538 117.212 491.652 117.666 491.652 118.223ZM497.506 119.506C497.775 119.506 498.042 119.482 498.306 119.436C498.569 119.383 498.81 119.321 499.026 119.251V120.815C498.798 120.915 498.502 121 498.139 121.07C497.775 121.141 497.397 121.176 497.005 121.176C496.454 121.176 495.959 121.085 495.52 120.903C495.08 120.716 494.731 120.396 494.474 119.945C494.216 119.494 494.087 118.87 494.087 118.073V112.844H492.76V111.921L494.184 111.191L494.86 109.108H496.161V111.271H498.947V112.844H496.161V118.047C496.161 118.539 496.284 118.905 496.53 119.146C496.776 119.386 497.102 119.506 497.506 119.506ZM504.818 111.086C506.049 111.086 506.978 111.358 507.604 111.903C508.237 112.448 508.554 113.298 508.554 114.452V121H507.086L506.69 119.62H506.62C506.345 119.972 506.061 120.262 505.768 120.49C505.475 120.719 505.135 120.889 504.748 121C504.367 121.117 503.901 121.176 503.351 121.176C502.771 121.176 502.252 121.07 501.795 120.859C501.338 120.643 500.978 120.314 500.714 119.875C500.45 119.436 500.318 118.879 500.318 118.205C500.318 117.203 500.69 116.45 501.435 115.946C502.185 115.442 503.315 115.164 504.827 115.111L506.515 115.05V114.54C506.515 113.866 506.356 113.386 506.04 113.099C505.729 112.812 505.29 112.668 504.722 112.668C504.235 112.668 503.764 112.738 503.307 112.879C502.85 113.02 502.404 113.192 501.971 113.397L501.303 111.938C501.777 111.687 502.316 111.481 502.92 111.323C503.529 111.165 504.162 111.086 504.818 111.086ZM506.506 116.351L505.249 116.395C504.218 116.43 503.494 116.605 503.078 116.922C502.662 117.238 502.454 117.672 502.454 118.223C502.454 118.703 502.598 119.055 502.885 119.277C503.172 119.494 503.55 119.603 504.019 119.603C504.733 119.603 505.325 119.4 505.794 118.996C506.269 118.586 506.506 117.985 506.506 117.194V116.351ZM516.376 111.086C516.54 111.086 516.719 111.095 516.912 111.112C517.105 111.13 517.272 111.153 517.413 111.183L517.22 113.116C517.097 113.081 516.944 113.055 516.763 113.037C516.587 113.02 516.429 113.011 516.288 113.011C515.919 113.011 515.567 113.072 515.233 113.195C514.899 113.312 514.604 113.494 514.346 113.74C514.088 113.98 513.886 114.282 513.739 114.646C513.593 115.009 513.52 115.431 513.52 115.911V121H511.445V111.271H513.062L513.344 112.984H513.44C513.634 112.639 513.874 112.322 514.161 112.035C514.448 111.748 514.776 111.52 515.146 111.35C515.521 111.174 515.931 111.086 516.376 111.086ZM527.16 121.176C526 121.176 525.068 120.754 524.365 119.91C523.668 119.061 523.319 117.81 523.319 116.157C523.319 114.487 523.674 113.225 524.383 112.369C525.098 111.514 526.038 111.086 527.204 111.086C527.696 111.086 528.127 111.153 528.496 111.288C528.865 111.417 529.182 111.593 529.445 111.815C529.715 112.038 529.943 112.287 530.131 112.562H530.228C530.198 112.381 530.163 112.12 530.122 111.78C530.087 111.435 530.069 111.115 530.069 110.822V107.324H532.144V121H530.526L530.157 119.673H530.069C529.894 119.954 529.671 120.209 529.401 120.438C529.138 120.66 528.821 120.839 528.452 120.974C528.089 121.108 527.658 121.176 527.16 121.176ZM527.74 119.497C528.625 119.497 529.249 119.242 529.612 118.732C529.976 118.223 530.163 117.458 530.175 116.438V116.166C530.175 115.076 529.999 114.241 529.647 113.661C529.296 113.075 528.654 112.782 527.723 112.782C526.979 112.782 526.41 113.084 526.018 113.688C525.631 114.285 525.438 115.12 525.438 116.192C525.438 117.265 525.631 118.085 526.018 118.653C526.41 119.216 526.984 119.497 527.74 119.497ZM538.92 111.086C540.15 111.086 541.079 111.358 541.706 111.903C542.339 112.448 542.655 113.298 542.655 114.452V121H541.188L540.792 119.62H540.722C540.446 119.972 540.162 120.262 539.869 120.49C539.576 120.719 539.236 120.889 538.85 121C538.469 121.117 538.003 121.176 537.452 121.176C536.872 121.176 536.354 121.07 535.896 120.859C535.439 120.643 535.079 120.314 534.815 119.875C534.552 119.436 534.42 118.879 534.42 118.205C534.42 117.203 534.792 116.45 535.536 115.946C536.286 115.442 537.417 115.164 538.929 115.111L540.616 115.05V114.54C540.616 113.866 540.458 113.386 540.142 113.099C539.831 112.812 539.392 112.668 538.823 112.668C538.337 112.668 537.865 112.738 537.408 112.879C536.951 113.02 536.506 113.192 536.072 113.397L535.404 111.938C535.879 111.687 536.418 111.481 537.021 111.323C537.631 111.165 538.264 111.086 538.92 111.086ZM540.607 116.351L539.351 116.395C538.319 116.43 537.596 116.605 537.18 116.922C536.764 117.238 536.556 117.672 536.556 118.223C536.556 118.703 536.699 119.055 536.986 119.277C537.273 119.494 537.651 119.603 538.12 119.603C538.835 119.603 539.427 119.4 539.896 118.996C540.37 118.586 540.607 117.985 540.607 117.194V116.351ZM552.086 118.223C552.086 118.861 551.931 119.4 551.62 119.84C551.31 120.279 550.855 120.613 550.258 120.842C549.666 121.064 548.939 121.176 548.078 121.176C547.398 121.176 546.812 121.126 546.32 121.026C545.834 120.933 545.374 120.786 544.94 120.587V118.803C545.403 119.02 545.922 119.207 546.496 119.365C547.076 119.523 547.624 119.603 548.14 119.603C548.819 119.603 549.309 119.497 549.607 119.286C549.906 119.069 550.056 118.782 550.056 118.425C550.056 118.214 549.994 118.026 549.871 117.862C549.754 117.692 549.531 117.52 549.203 117.344C548.881 117.162 548.406 116.945 547.779 116.693C547.164 116.447 546.646 116.201 546.224 115.955C545.802 115.709 545.482 115.413 545.266 115.067C545.049 114.716 544.94 114.268 544.94 113.723C544.94 112.861 545.28 112.208 545.96 111.763C546.646 111.312 547.551 111.086 548.676 111.086C549.273 111.086 549.836 111.147 550.363 111.271C550.896 111.388 551.418 111.561 551.928 111.789L551.277 113.345C550.838 113.151 550.396 112.993 549.95 112.87C549.511 112.741 549.062 112.677 548.605 112.677C548.072 112.677 547.665 112.759 547.384 112.923C547.108 113.087 546.971 113.321 546.971 113.626C546.971 113.854 547.038 114.048 547.173 114.206C547.308 114.364 547.539 114.522 547.867 114.681C548.201 114.839 548.664 115.035 549.256 115.27C549.836 115.492 550.337 115.727 550.759 115.973C551.187 116.213 551.515 116.509 551.743 116.86C551.972 117.212 552.086 117.666 552.086 118.223ZM562.914 121.176C561.994 121.176 561.197 120.997 560.523 120.64C559.85 120.282 559.331 119.734 558.968 118.996C558.604 118.258 558.423 117.32 558.423 116.184C558.423 115 558.622 114.033 559.021 113.283C559.419 112.533 559.97 111.979 560.673 111.622C561.382 111.265 562.193 111.086 563.107 111.086C563.688 111.086 564.212 111.145 564.681 111.262C565.155 111.373 565.557 111.511 565.885 111.675L565.27 113.327C564.912 113.181 564.546 113.058 564.171 112.958C563.796 112.858 563.436 112.809 563.09 112.809C562.521 112.809 562.047 112.935 561.666 113.187C561.291 113.438 561.01 113.813 560.822 114.312C560.641 114.81 560.55 115.428 560.55 116.166C560.55 116.881 560.644 117.484 560.831 117.977C561.019 118.463 561.297 118.832 561.666 119.084C562.035 119.33 562.489 119.453 563.028 119.453C563.562 119.453 564.039 119.389 564.461 119.26C564.883 119.131 565.281 118.964 565.656 118.759V120.552C565.287 120.763 564.892 120.918 564.47 121.018C564.048 121.123 563.529 121.176 562.914 121.176ZM572.872 111.086C573.036 111.086 573.215 111.095 573.408 111.112C573.602 111.13 573.769 111.153 573.909 111.183L573.716 113.116C573.593 113.081 573.44 113.055 573.259 113.037C573.083 113.02 572.925 113.011 572.784 113.011C572.415 113.011 572.063 113.072 571.729 113.195C571.396 113.312 571.1 113.494 570.842 113.74C570.584 113.98 570.382 114.282 570.235 114.646C570.089 115.009 570.016 115.431 570.016 115.911V121H567.941V111.271H569.559L569.84 112.984H569.937C570.13 112.639 570.37 112.322 570.657 112.035C570.944 111.748 571.272 111.52 571.642 111.35C572.017 111.174 572.427 111.086 572.872 111.086ZM577.776 111.271V121H575.711V111.271H577.776ZM576.757 107.544C577.073 107.544 577.346 107.629 577.574 107.799C577.809 107.969 577.926 108.262 577.926 108.678C577.926 109.088 577.809 109.381 577.574 109.557C577.346 109.727 577.073 109.812 576.757 109.812C576.429 109.812 576.15 109.727 575.922 109.557C575.699 109.381 575.588 109.088 575.588 108.678C575.588 108.262 575.699 107.969 575.922 107.799C576.15 107.629 576.429 107.544 576.757 107.544ZM584.553 111.086C585.783 111.086 586.712 111.358 587.339 111.903C587.972 112.448 588.288 113.298 588.288 114.452V121H586.82L586.425 119.62H586.354C586.079 119.972 585.795 120.262 585.502 120.49C585.209 120.719 584.869 120.889 584.482 121C584.102 121.117 583.636 121.176 583.085 121.176C582.505 121.176 581.986 121.07 581.529 120.859C581.072 120.643 580.712 120.314 580.448 119.875C580.185 119.436 580.053 118.879 580.053 118.205C580.053 117.203 580.425 116.45 581.169 115.946C581.919 115.442 583.05 115.164 584.562 115.111L586.249 115.05V114.54C586.249 113.866 586.091 113.386 585.774 113.099C585.464 112.812 585.024 112.668 584.456 112.668C583.97 112.668 583.498 112.738 583.041 112.879C582.584 113.02 582.139 113.192 581.705 113.397L581.037 111.938C581.512 111.687 582.051 111.481 582.654 111.323C583.264 111.165 583.896 111.086 584.553 111.086ZM586.24 116.351L584.983 116.395C583.952 116.43 583.229 116.605 582.812 116.922C582.396 117.238 582.188 117.672 582.188 118.223C582.188 118.703 582.332 119.055 582.619 119.277C582.906 119.494 583.284 119.603 583.753 119.603C584.468 119.603 585.06 119.4 585.528 118.996C586.003 118.586 586.24 117.985 586.24 117.194V116.351ZM596.251 111.086C597.347 111.086 598.199 111.37 598.809 111.938C599.424 112.501 599.731 113.406 599.731 114.654V121H597.666V115.041C597.666 114.285 597.511 113.72 597.2 113.345C596.89 112.964 596.409 112.773 595.759 112.773C594.815 112.773 594.159 113.063 593.79 113.644C593.427 114.224 593.245 115.064 593.245 116.166V121H591.18V111.271H592.788L593.078 112.589H593.192C593.403 112.249 593.664 111.971 593.975 111.754C594.291 111.531 594.643 111.364 595.029 111.253C595.422 111.142 595.829 111.086 596.251 111.086ZM606.543 121.176C605.623 121.176 604.826 120.997 604.152 120.64C603.479 120.282 602.96 119.734 602.597 118.996C602.233 118.258 602.052 117.32 602.052 116.184C602.052 115 602.251 114.033 602.649 113.283C603.048 112.533 603.599 111.979 604.302 111.622C605.011 111.265 605.822 111.086 606.736 111.086C607.316 111.086 607.841 111.145 608.31 111.262C608.784 111.373 609.186 111.511 609.514 111.675L608.898 113.327C608.541 113.181 608.175 113.058 607.8 112.958C607.425 112.858 607.064 112.809 606.719 112.809C606.15 112.809 605.676 112.935 605.295 113.187C604.92 113.438 604.639 113.813 604.451 114.312C604.27 114.81 604.179 115.428 604.179 116.166C604.179 116.881 604.272 117.484 604.46 117.977C604.647 118.463 604.926 118.832 605.295 119.084C605.664 119.33 606.118 119.453 606.657 119.453C607.19 119.453 607.668 119.389 608.09 119.26C608.512 119.131 608.91 118.964 609.285 118.759V120.552C608.916 120.763 608.521 120.918 608.099 121.018C607.677 121.123 607.158 121.176 606.543 121.176ZM608.23 123.355C608.23 123.977 608.022 124.46 607.606 124.806C607.19 125.151 606.514 125.324 605.576 125.324C605.354 125.324 605.148 125.31 604.961 125.28C604.773 125.251 604.612 125.219 604.478 125.184V123.979C604.618 124.015 604.794 124.047 605.005 124.076C605.216 124.105 605.409 124.12 605.585 124.12C605.89 124.12 606.13 124.067 606.306 123.962C606.487 123.856 606.578 123.678 606.578 123.426C606.578 123.156 606.446 122.942 606.183 122.784C605.919 122.626 605.529 122.515 605.014 122.45L605.752 121H607.088L606.728 121.756C606.997 121.826 607.243 121.929 607.466 122.063C607.694 122.198 607.879 122.371 608.02 122.582C608.16 122.799 608.23 123.057 608.23 123.355ZM615.385 111.086C616.615 111.086 617.544 111.358 618.171 111.903C618.804 112.448 619.12 113.298 619.12 114.452V121H617.652L617.257 119.62H617.187C616.911 119.972 616.627 120.262 616.334 120.49C616.041 120.719 615.701 120.889 615.314 121C614.934 121.117 614.468 121.176 613.917 121.176C613.337 121.176 612.818 121.07 612.361 120.859C611.904 120.643 611.544 120.314 611.28 119.875C611.017 119.436 610.885 118.879 610.885 118.205C610.885 117.203 611.257 116.45 612.001 115.946C612.751 115.442 613.882 115.164 615.394 115.111L617.081 115.05V114.54C617.081 113.866 616.923 113.386 616.606 113.099C616.296 112.812 615.856 112.668 615.288 112.668C614.802 112.668 614.33 112.738 613.873 112.879C613.416 113.02 612.971 113.192 612.537 113.397L611.869 111.938C612.344 111.687 612.883 111.481 613.486 111.323C614.096 111.165 614.729 111.086 615.385 111.086ZM617.072 116.351L615.815 116.395C614.784 116.43 614.061 116.605 613.645 116.922C613.229 117.238 613.021 117.672 613.021 118.223C613.021 118.703 613.164 119.055 613.451 119.277C613.738 119.494 614.116 119.603 614.585 119.603C615.3 119.603 615.892 119.4 616.36 118.996C616.835 118.586 617.072 117.985 617.072 117.194V116.351ZM628.551 118.223C628.551 118.861 628.396 119.4 628.085 119.84C627.774 120.279 627.32 120.613 626.723 120.842C626.131 121.064 625.404 121.176 624.543 121.176C623.863 121.176 623.277 121.126 622.785 121.026C622.299 120.933 621.839 120.786 621.405 120.587V118.803C621.868 119.02 622.387 119.207 622.961 119.365C623.541 119.523 624.089 119.603 624.604 119.603C625.284 119.603 625.773 119.497 626.072 119.286C626.371 119.069 626.521 118.782 626.521 118.425C626.521 118.214 626.459 118.026 626.336 117.862C626.219 117.692 625.996 117.52 625.668 117.344C625.346 117.162 624.871 116.945 624.244 116.693C623.629 116.447 623.11 116.201 622.688 115.955C622.267 115.709 621.947 115.413 621.73 115.067C621.514 114.716 621.405 114.268 621.405 113.723C621.405 112.861 621.745 112.208 622.425 111.763C623.11 111.312 624.016 111.086 625.141 111.086C625.738 111.086 626.301 111.147 626.828 111.271C627.361 111.388 627.883 111.561 628.393 111.789L627.742 113.345C627.303 113.151 626.86 112.993 626.415 112.87C625.976 112.741 625.527 112.677 625.07 112.677C624.537 112.677 624.13 112.759 623.849 112.923C623.573 113.087 623.436 113.321 623.436 113.626C623.436 113.854 623.503 114.048 623.638 114.206C623.772 114.364 624.004 114.522 624.332 114.681C624.666 114.839 625.129 115.035 625.721 115.27C626.301 115.492 626.802 115.727 627.224 115.973C627.651 116.213 627.979 116.509 628.208 116.86C628.437 117.212 628.551 117.666 628.551 118.223ZM639.335 111.086C640.202 111.086 640.946 111.265 641.567 111.622C642.188 111.979 642.666 112.486 643 113.143C643.334 113.799 643.501 114.584 643.501 115.498V116.605H637.006C637.029 117.549 637.281 118.275 637.762 118.785C638.248 119.295 638.928 119.55 639.801 119.55C640.422 119.55 640.979 119.491 641.471 119.374C641.969 119.251 642.481 119.072 643.009 118.838V120.517C642.522 120.745 642.027 120.912 641.523 121.018C641.02 121.123 640.416 121.176 639.713 121.176C638.758 121.176 637.917 120.991 637.19 120.622C636.47 120.247 635.904 119.69 635.494 118.952C635.09 118.214 634.888 117.297 634.888 116.201C634.888 115.111 635.072 114.186 635.441 113.424C635.811 112.662 636.329 112.082 636.997 111.684C637.665 111.285 638.444 111.086 639.335 111.086ZM639.335 112.642C638.685 112.642 638.157 112.853 637.753 113.274C637.354 113.696 637.12 114.314 637.05 115.129H641.479C641.474 114.643 641.392 114.212 641.233 113.837C641.081 113.462 640.847 113.169 640.53 112.958C640.22 112.747 639.821 112.642 639.335 112.642ZM653.775 121.176C652.615 121.176 651.684 120.754 650.98 119.91C650.283 119.061 649.935 117.81 649.935 116.157C649.935 114.487 650.289 113.225 650.998 112.369C651.713 111.514 652.653 111.086 653.819 111.086C654.312 111.086 654.742 111.153 655.111 111.288C655.48 111.417 655.797 111.593 656.061 111.815C656.33 112.038 656.559 112.287 656.746 112.562H656.843C656.813 112.381 656.778 112.12 656.737 111.78C656.702 111.435 656.685 111.115 656.685 110.822V107.324H658.759V121H657.142L656.772 119.673H656.685C656.509 119.954 656.286 120.209 656.017 120.438C655.753 120.66 655.437 120.839 655.067 120.974C654.704 121.108 654.273 121.176 653.775 121.176ZM654.355 119.497C655.24 119.497 655.864 119.242 656.228 118.732C656.591 118.223 656.778 117.458 656.79 116.438V116.166C656.79 115.076 656.614 114.241 656.263 113.661C655.911 113.075 655.27 112.782 654.338 112.782C653.594 112.782 653.025 113.084 652.633 113.688C652.246 114.285 652.053 115.12 652.053 116.192C652.053 117.265 652.246 118.085 652.633 118.653C653.025 119.216 653.6 119.497 654.355 119.497ZM665.597 111.086C666.464 111.086 667.208 111.265 667.829 111.622C668.45 111.979 668.928 112.486 669.262 113.143C669.596 113.799 669.763 114.584 669.763 115.498V116.605H663.268C663.291 117.549 663.543 118.275 664.023 118.785C664.51 119.295 665.189 119.55 666.062 119.55C666.684 119.55 667.24 119.491 667.732 119.374C668.23 119.251 668.743 119.072 669.271 118.838V120.517C668.784 120.745 668.289 120.912 667.785 121.018C667.281 121.123 666.678 121.176 665.975 121.176C665.02 121.176 664.179 120.991 663.452 120.622C662.731 120.247 662.166 119.69 661.756 118.952C661.352 118.214 661.149 117.297 661.149 116.201C661.149 115.111 661.334 114.186 661.703 113.424C662.072 112.662 662.591 112.082 663.259 111.684C663.927 111.285 664.706 111.086 665.597 111.086ZM665.597 112.642C664.946 112.642 664.419 112.853 664.015 113.274C663.616 113.696 663.382 114.314 663.312 115.129H667.741C667.735 114.643 667.653 114.212 667.495 113.837C667.343 113.462 667.108 113.169 666.792 112.958C666.481 112.747 666.083 112.642 665.597 112.642ZM683.307 118.223C683.307 118.861 683.151 119.4 682.841 119.84C682.53 120.279 682.076 120.613 681.479 120.842C680.887 121.064 680.16 121.176 679.299 121.176C678.619 121.176 678.033 121.126 677.541 121.026C677.055 120.933 676.595 120.786 676.161 120.587V118.803C676.624 119.02 677.143 119.207 677.717 119.365C678.297 119.523 678.845 119.603 679.36 119.603C680.04 119.603 680.529 119.497 680.828 119.286C681.127 119.069 681.276 118.782 681.276 118.425C681.276 118.214 681.215 118.026 681.092 117.862C680.975 117.692 680.752 117.52 680.424 117.344C680.102 117.162 679.627 116.945 679 116.693C678.385 116.447 677.866 116.201 677.444 115.955C677.022 115.709 676.703 115.413 676.486 115.067C676.27 114.716 676.161 114.268 676.161 113.723C676.161 112.861 676.501 112.208 677.181 111.763C677.866 111.312 678.771 111.086 679.896 111.086C680.494 111.086 681.057 111.147 681.584 111.271C682.117 111.388 682.639 111.561 683.148 111.789L682.498 113.345C682.059 113.151 681.616 112.993 681.171 112.87C680.731 112.741 680.283 112.677 679.826 112.677C679.293 112.677 678.886 112.759 678.604 112.923C678.329 113.087 678.191 113.321 678.191 113.626C678.191 113.854 678.259 114.048 678.394 114.206C678.528 114.364 678.76 114.522 679.088 114.681C679.422 114.839 679.885 115.035 680.477 115.27C681.057 115.492 681.558 115.727 681.979 115.973C682.407 116.213 682.735 116.509 682.964 116.86C683.192 117.212 683.307 117.666 683.307 118.223ZM689.415 111.086C690.282 111.086 691.026 111.265 691.647 111.622C692.269 111.979 692.746 112.486 693.08 113.143C693.414 113.799 693.581 114.584 693.581 115.498V116.605H687.086C687.109 117.549 687.361 118.275 687.842 118.785C688.328 119.295 689.008 119.55 689.881 119.55C690.502 119.55 691.059 119.491 691.551 119.374C692.049 119.251 692.562 119.072 693.089 118.838V120.517C692.603 120.745 692.107 120.912 691.604 121.018C691.1 121.123 690.496 121.176 689.793 121.176C688.838 121.176 687.997 120.991 687.271 120.622C686.55 120.247 685.984 119.69 685.574 118.952C685.17 118.214 684.968 117.297 684.968 116.201C684.968 115.111 685.152 114.186 685.521 113.424C685.891 112.662 686.409 112.082 687.077 111.684C687.745 111.285 688.524 111.086 689.415 111.086ZM689.415 112.642C688.765 112.642 688.237 112.853 687.833 113.274C687.435 113.696 687.2 114.314 687.13 115.129H691.56C691.554 114.643 691.472 114.212 691.313 113.837C691.161 113.462 690.927 113.169 690.61 112.958C690.3 112.747 689.901 112.642 689.415 112.642ZM704.392 111.271V121H702.766L702.484 119.69H702.37C702.165 120.024 701.904 120.303 701.588 120.525C701.271 120.742 700.92 120.903 700.533 121.009C700.146 121.12 699.739 121.176 699.312 121.176C698.579 121.176 697.952 121.053 697.431 120.807C696.915 120.555 696.52 120.168 696.244 119.646C695.969 119.125 695.831 118.451 695.831 117.625V111.271H697.905V117.238C697.905 117.994 698.058 118.56 698.362 118.935C698.673 119.31 699.153 119.497 699.804 119.497C700.431 119.497 700.929 119.368 701.298 119.11C701.667 118.853 701.928 118.472 702.08 117.968C702.238 117.464 702.317 116.846 702.317 116.113V111.271H704.392ZM713.893 118.223C713.893 118.861 713.737 119.4 713.427 119.84C713.116 120.279 712.662 120.613 712.064 120.842C711.473 121.064 710.746 121.176 709.885 121.176C709.205 121.176 708.619 121.126 708.127 121.026C707.641 120.933 707.181 120.786 706.747 120.587V118.803C707.21 119.02 707.729 119.207 708.303 119.365C708.883 119.523 709.431 119.603 709.946 119.603C710.626 119.603 711.115 119.497 711.414 119.286C711.713 119.069 711.862 118.782 711.862 118.425C711.862 118.214 711.801 118.026 711.678 117.862C711.561 117.692 711.338 117.52 711.01 117.344C710.688 117.162 710.213 116.945 709.586 116.693C708.971 116.447 708.452 116.201 708.03 115.955C707.608 115.709 707.289 115.413 707.072 115.067C706.855 114.716 706.747 114.268 706.747 113.723C706.747 112.861 707.087 112.208 707.767 111.763C708.452 111.312 709.357 111.086 710.482 111.086C711.08 111.086 711.643 111.147 712.17 111.271C712.703 111.388 713.225 111.561 713.734 111.789L713.084 113.345C712.645 113.151 712.202 112.993 711.757 112.87C711.317 112.741 710.869 112.677 710.412 112.677C709.879 112.677 709.472 112.759 709.19 112.923C708.915 113.087 708.777 113.321 708.777 113.626C708.777 113.854 708.845 114.048 708.979 114.206C709.114 114.364 709.346 114.522 709.674 114.681C710.008 114.839 710.471 115.035 711.062 115.27C711.643 115.492 712.144 115.727 712.565 115.973C712.993 116.213 713.321 116.509 713.55 116.86C713.778 117.212 713.893 117.666 713.893 118.223ZM724.721 121.176C723.801 121.176 723.004 120.997 722.33 120.64C721.656 120.282 721.138 119.734 720.774 118.996C720.411 118.258 720.229 117.32 720.229 116.184C720.229 115 720.429 114.033 720.827 113.283C721.226 112.533 721.776 111.979 722.479 111.622C723.188 111.265 724 111.086 724.914 111.086C725.494 111.086 726.019 111.145 726.487 111.262C726.962 111.373 727.363 111.511 727.691 111.675L727.076 113.327C726.719 113.181 726.353 113.058 725.978 112.958C725.603 112.858 725.242 112.809 724.896 112.809C724.328 112.809 723.854 112.935 723.473 113.187C723.098 113.438 722.816 113.813 722.629 114.312C722.447 114.81 722.356 115.428 722.356 116.166C722.356 116.881 722.45 117.484 722.638 117.977C722.825 118.463 723.104 118.832 723.473 119.084C723.842 119.33 724.296 119.453 724.835 119.453C725.368 119.453 725.846 119.389 726.268 119.26C726.689 119.131 727.088 118.964 727.463 118.759V120.552C727.094 120.763 726.698 120.918 726.276 121.018C725.854 121.123 725.336 121.176 724.721 121.176ZM738.229 111.271V121H736.604L736.322 119.69H736.208C736.003 120.024 735.742 120.303 735.426 120.525C735.109 120.742 734.758 120.903 734.371 121.009C733.984 121.12 733.577 121.176 733.149 121.176C732.417 121.176 731.79 121.053 731.269 120.807C730.753 120.555 730.357 120.168 730.082 119.646C729.807 119.125 729.669 118.451 729.669 117.625V111.271H731.743V117.238C731.743 117.994 731.896 118.56 732.2 118.935C732.511 119.31 732.991 119.497 733.642 119.497C734.269 119.497 734.767 119.368 735.136 119.11C735.505 118.853 735.766 118.472 735.918 117.968C736.076 117.464 736.155 116.846 736.155 116.113V111.271H738.229ZM743.257 111.271V121H741.191V111.271H743.257ZM742.237 107.544C742.554 107.544 742.826 107.629 743.055 107.799C743.289 107.969 743.406 108.262 743.406 108.678C743.406 109.088 743.289 109.381 743.055 109.557C742.826 109.727 742.554 109.812 742.237 109.812C741.909 109.812 741.631 109.727 741.402 109.557C741.18 109.381 741.068 109.088 741.068 108.678C741.068 108.262 741.18 107.969 741.402 107.799C741.631 107.629 741.909 107.544 742.237 107.544ZM749.488 121.176C748.328 121.176 747.396 120.754 746.693 119.91C745.996 119.061 745.647 117.81 745.647 116.157C745.647 114.487 746.002 113.225 746.711 112.369C747.426 111.514 748.366 111.086 749.532 111.086C750.024 111.086 750.455 111.153 750.824 111.288C751.193 111.417 751.51 111.593 751.773 111.815C752.043 112.038 752.271 112.287 752.459 112.562H752.556C752.526 112.381 752.491 112.12 752.45 111.78C752.415 111.435 752.397 111.115 752.397 110.822V107.324H754.472V121H752.854L752.485 119.673H752.397C752.222 119.954 751.999 120.209 751.729 120.438C751.466 120.66 751.149 120.839 750.78 120.974C750.417 121.108 749.986 121.176 749.488 121.176ZM750.068 119.497C750.953 119.497 751.577 119.242 751.94 118.732C752.304 118.223 752.491 117.458 752.503 116.438V116.166C752.503 115.076 752.327 114.241 751.976 113.661C751.624 113.075 750.982 112.782 750.051 112.782C749.307 112.782 748.738 113.084 748.346 113.688C747.959 114.285 747.766 115.12 747.766 116.192C747.766 117.265 747.959 118.085 748.346 118.653C748.738 119.216 749.312 119.497 750.068 119.497ZM761.248 111.086C762.479 111.086 763.407 111.358 764.034 111.903C764.667 112.448 764.983 113.298 764.983 114.452V121H763.516L763.12 119.62H763.05C762.774 119.972 762.49 120.262 762.197 120.49C761.904 120.719 761.564 120.889 761.178 121C760.797 121.117 760.331 121.176 759.78 121.176C759.2 121.176 758.682 121.07 758.225 120.859C757.768 120.643 757.407 120.314 757.144 119.875C756.88 119.436 756.748 118.879 756.748 118.205C756.748 117.203 757.12 116.45 757.864 115.946C758.614 115.442 759.745 115.164 761.257 115.111L762.944 115.05V114.54C762.944 113.866 762.786 113.386 762.47 113.099C762.159 112.812 761.72 112.668 761.151 112.668C760.665 112.668 760.193 112.738 759.736 112.879C759.279 113.02 758.834 113.192 758.4 113.397L757.732 111.938C758.207 111.687 758.746 111.481 759.35 111.323C759.959 111.165 760.592 111.086 761.248 111.086ZM762.936 116.351L761.679 116.395C760.647 116.43 759.924 116.605 759.508 116.922C759.092 117.238 758.884 117.672 758.884 118.223C758.884 118.703 759.027 119.055 759.314 119.277C759.602 119.494 759.979 119.603 760.448 119.603C761.163 119.603 761.755 119.4 762.224 118.996C762.698 118.586 762.936 117.985 762.936 117.194V116.351ZM771.145 121.176C769.984 121.176 769.053 120.754 768.35 119.91C767.652 119.061 767.304 117.81 767.304 116.157C767.304 114.487 767.658 113.225 768.367 112.369C769.082 111.514 770.022 111.086 771.188 111.086C771.681 111.086 772.111 111.153 772.48 111.288C772.85 111.417 773.166 111.593 773.43 111.815C773.699 112.038 773.928 112.287 774.115 112.562H774.212C774.183 112.381 774.147 112.12 774.106 111.78C774.071 111.435 774.054 111.115 774.054 110.822V107.324H776.128V121H774.511L774.142 119.673H774.054C773.878 119.954 773.655 120.209 773.386 120.438C773.122 120.66 772.806 120.839 772.437 120.974C772.073 121.108 771.643 121.176 771.145 121.176ZM771.725 119.497C772.609 119.497 773.233 119.242 773.597 118.732C773.96 118.223 774.147 117.458 774.159 116.438V116.166C774.159 115.076 773.983 114.241 773.632 113.661C773.28 113.075 772.639 112.782 771.707 112.782C770.963 112.782 770.395 113.084 770.002 113.688C769.615 114.285 769.422 115.12 769.422 116.192C769.422 117.265 769.615 118.085 770.002 118.653C770.395 119.216 770.969 119.497 771.725 119.497ZM787.703 116.113C787.703 116.922 787.598 117.64 787.387 118.267C787.176 118.894 786.868 119.424 786.464 119.857C786.06 120.285 785.573 120.613 785.005 120.842C784.437 121.064 783.795 121.176 783.08 121.176C782.412 121.176 781.8 121.064 781.243 120.842C780.687 120.613 780.203 120.285 779.793 119.857C779.389 119.424 779.075 118.894 778.853 118.267C778.63 117.64 778.519 116.922 778.519 116.113C778.519 115.041 778.703 114.133 779.072 113.389C779.447 112.639 779.98 112.067 780.672 111.675C781.363 111.282 782.187 111.086 783.142 111.086C784.038 111.086 784.829 111.282 785.515 111.675C786.2 112.067 786.736 112.639 787.123 113.389C787.51 114.139 787.703 115.047 787.703 116.113ZM780.646 116.113C780.646 116.822 780.73 117.429 780.9 117.933C781.076 118.437 781.346 118.823 781.709 119.093C782.072 119.356 782.541 119.488 783.115 119.488C783.689 119.488 784.158 119.356 784.521 119.093C784.885 118.823 785.151 118.437 785.321 117.933C785.491 117.429 785.576 116.822 785.576 116.113C785.576 115.404 785.491 114.804 785.321 114.312C785.151 113.813 784.885 113.436 784.521 113.178C784.158 112.914 783.687 112.782 783.106 112.782C782.251 112.782 781.627 113.069 781.234 113.644C780.842 114.218 780.646 115.041 780.646 116.113ZM795.007 111.086C795.171 111.086 795.35 111.095 795.543 111.112C795.736 111.13 795.903 111.153 796.044 111.183L795.851 113.116C795.728 113.081 795.575 113.055 795.394 113.037C795.218 113.02 795.06 113.011 794.919 113.011C794.55 113.011 794.198 113.072 793.864 113.195C793.53 113.312 793.234 113.494 792.977 113.74C792.719 113.98 792.517 114.282 792.37 114.646C792.224 115.009 792.15 115.431 792.15 115.911V121H790.076V111.271H791.693L791.975 112.984H792.071C792.265 112.639 792.505 112.322 792.792 112.035C793.079 111.748 793.407 111.52 793.776 111.35C794.151 111.174 794.562 111.086 795.007 111.086ZM801.722 111.086C802.589 111.086 803.333 111.265 803.954 111.622C804.575 111.979 805.053 112.486 805.387 113.143C805.721 113.799 805.888 114.584 805.888 115.498V116.605H799.393C799.416 117.549 799.668 118.275 800.148 118.785C800.635 119.295 801.314 119.55 802.188 119.55C802.809 119.55 803.365 119.491 803.857 119.374C804.355 119.251 804.868 119.072 805.396 118.838V120.517C804.909 120.745 804.414 120.912 803.91 121.018C803.406 121.123 802.803 121.176 802.1 121.176C801.145 121.176 800.304 120.991 799.577 120.622C798.856 120.247 798.291 119.69 797.881 118.952C797.477 118.214 797.274 117.297 797.274 116.201C797.274 115.111 797.459 114.186 797.828 113.424C798.197 112.662 798.716 112.082 799.384 111.684C800.052 111.285 800.831 111.086 801.722 111.086ZM801.722 112.642C801.071 112.642 800.544 112.853 800.14 113.274C799.741 113.696 799.507 114.314 799.437 115.129H803.866C803.86 114.643 803.778 114.212 803.62 113.837C803.468 113.462 803.233 113.169 802.917 112.958C802.606 112.747 802.208 112.642 801.722 112.642ZM814.756 118.223C814.756 118.861 814.601 119.4 814.29 119.84C813.979 120.279 813.525 120.613 812.928 120.842C812.336 121.064 811.609 121.176 810.748 121.176C810.068 121.176 809.482 121.126 808.99 121.026C808.504 120.933 808.044 120.786 807.61 120.587V118.803C808.073 119.02 808.592 119.207 809.166 119.365C809.746 119.523 810.294 119.603 810.81 119.603C811.489 119.603 811.979 119.497 812.277 119.286C812.576 119.069 812.726 118.782 812.726 118.425C812.726 118.214 812.664 118.026 812.541 117.862C812.424 117.692 812.201 117.52 811.873 117.344C811.551 117.162 811.076 116.945 810.449 116.693C809.834 116.447 809.315 116.201 808.894 115.955C808.472 115.709 808.152 115.413 807.936 115.067C807.719 114.716 807.61 114.268 807.61 113.723C807.61 112.861 807.95 112.208 808.63 111.763C809.315 111.312 810.221 111.086 811.346 111.086C811.943 111.086 812.506 111.147 813.033 111.271C813.566 111.388 814.088 111.561 814.598 111.789L813.947 113.345C813.508 113.151 813.065 112.993 812.62 112.87C812.181 112.741 811.732 112.677 811.275 112.677C810.742 112.677 810.335 112.759 810.054 112.923C809.778 113.087 809.641 113.321 809.641 113.626C809.641 113.854 809.708 114.048 809.843 114.206C809.978 114.364 810.209 114.522 810.537 114.681C810.871 114.839 811.334 115.035 811.926 115.27C812.506 115.492 813.007 115.727 813.429 115.973C813.856 116.213 814.185 116.509 814.413 116.86C814.642 117.212 814.756 117.666 814.756 118.223ZM816.689 119.91C816.689 119.43 816.812 119.093 817.059 118.899C817.311 118.7 817.615 118.601 817.973 118.601C818.33 118.601 818.635 118.7 818.887 118.899C819.145 119.093 819.273 119.43 819.273 119.91C819.273 120.379 819.145 120.719 818.887 120.93C818.635 121.135 818.33 121.237 817.973 121.237C817.615 121.237 817.311 121.135 817.059 120.93C816.812 120.719 816.689 120.379 816.689 119.91Z" fill="white"/>
<defs>
<filter id="filter0_d_2060_3222" x="0" y="0" width="188" height="188" filterUnits="userSpaceOnUse" color-interpolation-filters="sRGB">
<feFlood flood-opacity="0" result="BackgroundImageFix"/>
<feColorMatrix in="SourceAlpha" type="matrix" values="0 0 0 0 0 0 0 0 0 0 0 0 0 0 0 0 0 0 127 0" result="hardAlpha"/>
<feOffset dx="3" dy="4"/>
<feGaussianBlur stdDeviation="2"/>
<feComposite in2="hardAlpha" operator="out"/>
<feColorMatrix type="matrix" values="0 0 0 0 0 0 0 0 0 0 0 0 0 0 0 0 0 0 0.25 0"/>
<feBlend mode="normal" in2="BackgroundImageFix" result="effect1_dropShadow_2060_3222"/>
<feBlend mode="normal" in="SourceGraphic" in2="effect1_dropShadow_2060_3222" result="shape"/>
</filter>
<clipPath id="clip0_2060_3222">
<rect width="152.308" height="152.308" fill="white" transform="translate(14.8472 13.8457)"/>
</clipPath>
</defs>
</svg>
