<svg width="1045" height="188" viewBox="0 0 1045 188" fill="none" xmlns="http://www.w3.org/2000/svg">
<g filter="url(#filter0_d_2060_3259)">
<path d="M91 180C140.706 180 181 139.706 181 90C181 40.2944 140.706 0 91 0C41.2944 0 1 40.2944 1 90C1 139.706 41.2944 180 91 180Z" fill="white"/>
</g>
<g clip-path="url(#clip0_2060_3259)">
<path d="M91.004 166.159C133.064 166.159 167.161 132.063 167.161 90.0025C167.161 47.9423 133.064 13.8457 91.004 13.8457C48.9437 13.8457 14.8472 47.9423 14.8472 90.0025C14.8472 132.063 48.9437 166.159 91.004 166.159Z" fill="#5FA29B"/>
<path d="M119.134 121.584H63.7775C63.1101 121.584 62.4701 121.319 61.9982 120.847C61.5263 120.375 61.2612 119.735 61.2612 119.068V76.2921L91.4559 47.3555L121.651 76.2921V119.068C121.651 119.735 121.386 120.375 120.914 120.847C120.442 121.319 119.802 121.584 119.134 121.584Z" fill="#E2E2F2"/>
<path d="M104.037 88.874H78.8745V121.585H104.037V88.874Z" fill="#938CCB"/>
<path d="M101.521 91.3896H81.3911V121.584H101.521V91.3896Z" fill="#2E294C"/>
<path d="M91.4557 77.5503C94.235 77.5503 96.4881 75.2971 96.4881 72.5178C96.4881 69.7385 94.235 67.4854 91.4557 67.4854C88.6763 67.4854 86.4232 69.7385 86.4232 72.5178C86.4232 75.2971 88.6763 77.5503 91.4557 77.5503Z" fill="#AEABDA"/>
<path d="M91.4562 80.0671C89.9632 80.0671 88.5037 79.6244 87.2623 78.7949C86.021 77.9654 85.0534 76.7865 84.4821 75.4072C83.9107 74.0278 83.7613 72.51 84.0525 71.0457C84.3438 69.5814 85.0627 68.2364 86.1184 67.1807C87.1741 66.125 88.5192 65.406 89.9835 65.1148C91.4478 64.8235 92.9656 64.973 94.3449 65.5443C95.7242 66.1157 96.9032 67.0832 97.7326 68.3246C98.5621 69.566 99.0048 71.0254 99.0048 72.5184C99.0048 74.5204 98.2095 76.4405 96.7939 77.8561C95.3782 79.2718 93.4582 80.0671 91.4562 80.0671ZM91.4562 67.486C90.4608 67.486 89.4879 67.7811 88.6603 68.3341C87.8327 68.8871 87.1877 69.673 86.8068 70.5926C86.4259 71.5121 86.3262 72.524 86.5204 73.5002C86.7146 74.4764 87.1939 75.3731 87.8977 76.0769C88.6015 76.7807 89.4982 77.26 90.4744 77.4542C91.4506 77.6483 92.4624 77.5487 93.382 77.1678C94.3015 76.7869 95.0875 76.1419 95.6405 75.3143C96.1935 74.4867 96.4886 73.5137 96.4886 72.5184C96.4886 71.1837 95.9584 69.9037 95.0146 68.9599C94.0709 68.0162 92.7908 67.486 91.4562 67.486Z" fill="#2E294C"/>
<path d="M91.4561 50.4883L60.9846 80.6076C60.5142 81.0686 59.8818 81.3268 59.2232 81.3268C58.5646 81.3268 57.9322 81.0686 57.4618 80.6076L55.7005 78.8084C55.2507 78.3399 54.9995 77.7155 54.9995 77.066C54.9995 76.4164 55.2507 75.7921 55.7005 75.3235L89.6695 41.7193C90.1399 41.2582 90.7723 41 91.4309 41C92.0895 41 92.7219 41.2582 93.1923 41.7193L127.161 75.3235C127.611 75.7921 127.862 76.4164 127.862 77.066C127.862 77.7155 127.611 78.3399 127.161 78.8084L125.425 80.6076C124.955 81.0686 124.322 81.3268 123.664 81.3268C123.005 81.3268 122.373 81.0686 121.902 80.6076L91.4561 50.4883Z" fill="#2E294C"/>
<path d="M97.7469 109.004C98.4417 109.004 99.005 108.44 99.005 107.745C99.005 107.051 98.4417 106.487 97.7469 106.487C97.052 106.487 96.4888 107.051 96.4888 107.745C96.4888 108.44 97.052 109.004 97.7469 109.004Z" fill="white"/>
</g>
<path d="M236.629 60.8672C238.84 60.8672 240.453 61.3438 241.469 62.2969C242.484 63.2422 242.992 64.5469 242.992 66.2109C242.992 66.9609 242.879 67.6797 242.652 68.3672C242.426 69.0469 242.055 69.6523 241.539 70.1836C241.031 70.7148 240.352 71.1367 239.5 71.4492C238.648 71.7539 237.598 71.9062 236.348 71.9062H234.789V78H231.156V60.8672H236.629ZM236.441 63.8438H234.789V68.9297H235.984C236.664 68.9297 237.254 68.8398 237.754 68.6602C238.254 68.4805 238.641 68.1992 238.914 67.8164C239.188 67.4336 239.324 66.9414 239.324 66.3398C239.324 65.4961 239.09 64.8711 238.621 64.4648C238.152 64.0508 237.426 63.8438 236.441 63.8438ZM253.258 64.6523C253.438 64.6523 253.645 64.6641 253.879 64.6875C254.121 64.7031 254.316 64.7266 254.465 64.7578L254.195 68.1094C254.078 68.0703 253.91 68.043 253.691 68.0273C253.48 68.0039 253.297 67.9922 253.141 67.9922C252.68 67.9922 252.23 68.0508 251.793 68.168C251.363 68.2852 250.977 68.4766 250.633 68.7422C250.289 69 250.016 69.3438 249.812 69.7734C249.617 70.1953 249.52 70.7148 249.52 71.332V78H245.945V64.8984H248.652L249.18 67.1016H249.355C249.613 66.6562 249.934 66.25 250.316 65.8828C250.707 65.5078 251.148 65.2109 251.641 64.9922C252.141 64.7656 252.68 64.6523 253.258 64.6523ZM268.75 71.4258C268.75 72.5195 268.602 73.4883 268.305 74.332C268.016 75.1758 267.59 75.8906 267.027 76.4766C266.473 77.0547 265.801 77.4922 265.012 77.7891C264.23 78.0859 263.348 78.2344 262.363 78.2344C261.441 78.2344 260.594 78.0859 259.82 77.7891C259.055 77.4922 258.387 77.0547 257.816 76.4766C257.254 75.8906 256.816 75.1758 256.504 74.332C256.199 73.4883 256.047 72.5195 256.047 71.4258C256.047 69.9727 256.305 68.7422 256.82 67.7344C257.336 66.7266 258.07 65.9609 259.023 65.4375C259.977 64.9141 261.113 64.6523 262.434 64.6523C263.66 64.6523 264.746 64.9141 265.691 65.4375C266.645 65.9609 267.391 66.7266 267.93 67.7344C268.477 68.7422 268.75 69.9727 268.75 71.4258ZM259.691 71.4258C259.691 72.2852 259.785 73.0078 259.973 73.5938C260.16 74.1797 260.453 74.6211 260.852 74.918C261.25 75.2148 261.77 75.3633 262.41 75.3633C263.043 75.3633 263.555 75.2148 263.945 74.918C264.344 74.6211 264.633 74.1797 264.812 73.5938C265 73.0078 265.094 72.2852 265.094 71.4258C265.094 70.5586 265 69.8398 264.812 69.2695C264.633 68.6914 264.344 68.2578 263.945 67.9688C263.547 67.6797 263.027 67.5352 262.387 67.5352C261.441 67.5352 260.754 67.8594 260.324 68.5078C259.902 69.1562 259.691 70.1289 259.691 71.4258ZM277.223 75.3867C277.613 75.3867 277.992 75.3477 278.359 75.2695C278.734 75.1914 279.105 75.0938 279.473 74.9766V77.6367C279.09 77.8086 278.613 77.9492 278.043 78.0586C277.48 78.1758 276.863 78.2344 276.191 78.2344C275.41 78.2344 274.707 78.1094 274.082 77.8594C273.465 77.6016 272.977 77.1602 272.617 76.5352C272.266 75.9023 272.09 75.0234 272.09 73.8984V67.582H270.379V66.0703L272.348 64.875L273.379 62.1094H275.664V64.8984H279.332V67.582H275.664V73.8984C275.664 74.3984 275.805 74.7734 276.086 75.0234C276.375 75.2656 276.754 75.3867 277.223 75.3867ZM287.535 64.6523C288.746 64.6523 289.789 64.8867 290.664 65.3555C291.539 65.8164 292.215 66.4883 292.691 67.3711C293.168 68.2539 293.406 69.332 293.406 70.6055V72.3398H284.957C284.996 73.3477 285.297 74.1406 285.859 74.7188C286.43 75.2891 287.219 75.5742 288.227 75.5742C289.062 75.5742 289.828 75.4883 290.523 75.3164C291.219 75.1445 291.934 74.8867 292.668 74.543V77.3086C292.02 77.6289 291.34 77.8633 290.629 78.0117C289.926 78.1602 289.07 78.2344 288.062 78.2344C286.75 78.2344 285.586 77.9922 284.57 77.5078C283.562 77.0234 282.77 76.2852 282.191 75.293C281.621 74.3008 281.336 73.0508 281.336 71.543C281.336 70.0117 281.594 68.7383 282.109 67.7227C282.633 66.6992 283.359 65.9336 284.289 65.4258C285.219 64.9102 286.301 64.6523 287.535 64.6523ZM287.559 67.1953C286.863 67.1953 286.285 67.418 285.824 67.8633C285.371 68.3086 285.109 69.0078 285.039 69.9609H290.055C290.047 69.4297 289.949 68.957 289.762 68.543C289.582 68.1289 289.309 67.8008 288.941 67.5586C288.582 67.3164 288.121 67.1953 287.559 67.1953ZM301.633 78.2344C300.336 78.2344 299.23 78 298.316 77.5312C297.402 77.0547 296.707 76.3203 296.23 75.3281C295.754 74.3359 295.516 73.0664 295.516 71.5195C295.516 69.918 295.785 68.6133 296.324 67.6055C296.871 66.5898 297.625 65.8438 298.586 65.3672C299.555 64.8906 300.676 64.6523 301.949 64.6523C302.855 64.6523 303.637 64.7422 304.293 64.9219C304.957 65.0938 305.535 65.3008 306.027 65.543L304.973 68.3086C304.41 68.082 303.887 67.8984 303.402 67.7578C302.918 67.6094 302.434 67.5352 301.949 67.5352C301.324 67.5352 300.805 67.6836 300.391 67.9805C299.977 68.2695 299.668 68.707 299.465 69.293C299.262 69.8789 299.16 70.6133 299.16 71.4961C299.16 72.3633 299.27 73.082 299.488 73.6523C299.707 74.2227 300.023 74.6484 300.438 74.9297C300.852 75.2031 301.355 75.3398 301.949 75.3398C302.691 75.3398 303.352 75.2422 303.93 75.0469C304.508 74.8438 305.07 74.5625 305.617 74.2031V77.2617C305.07 77.6055 304.496 77.8516 303.895 78C303.301 78.1562 302.547 78.2344 301.633 78.2344ZM304.211 80.9297C304.211 81.8281 303.949 82.5234 303.426 83.0156C302.902 83.5156 301.957 83.7656 300.59 83.7656C300.238 83.7656 299.922 83.7422 299.641 83.6953C299.359 83.6484 299.105 83.5898 298.879 83.5195V81.5508C299.105 81.6055 299.383 81.6602 299.711 81.7148C300.039 81.7695 300.32 81.7969 300.555 81.7969C300.781 81.7969 300.977 81.7422 301.141 81.6328C301.312 81.5312 301.398 81.3438 301.398 81.0703C301.398 80.7812 301.254 80.5234 300.965 80.2969C300.676 80.0703 300.172 79.9062 299.453 79.8047L300.367 78H302.629L302.312 78.7148C302.633 78.8164 302.938 78.9648 303.227 79.1602C303.516 79.3633 303.75 79.6094 303.93 79.8984C304.117 80.1953 304.211 80.5391 304.211 80.9297ZM314.031 64.6289C315.789 64.6289 317.137 65.0117 318.074 65.7773C319.012 66.543 319.48 67.707 319.48 69.2695V78H316.984L316.293 76.2188H316.199C315.824 76.6875 315.441 77.0703 315.051 77.3672C314.66 77.6641 314.211 77.8828 313.703 78.0234C313.195 78.1641 312.578 78.2344 311.852 78.2344C311.078 78.2344 310.383 78.0859 309.766 77.7891C309.156 77.4922 308.676 77.0391 308.324 76.4297C307.973 75.8125 307.797 75.0312 307.797 74.0859C307.797 72.6953 308.285 71.6719 309.262 71.0156C310.238 70.3516 311.703 69.9844 313.656 69.9141L315.93 69.8438V69.2695C315.93 68.582 315.75 68.0781 315.391 67.7578C315.031 67.4375 314.531 67.2773 313.891 67.2773C313.258 67.2773 312.637 67.3672 312.027 67.5469C311.418 67.7266 310.809 67.9531 310.199 68.2266L309.016 65.8125C309.711 65.4453 310.488 65.1562 311.348 64.9453C312.215 64.7344 313.109 64.6289 314.031 64.6289ZM315.93 71.9297L314.547 71.9766C313.391 72.0078 312.586 72.2148 312.133 72.5977C311.688 72.9805 311.465 73.4844 311.465 74.1094C311.465 74.6562 311.625 75.0469 311.945 75.2812C312.266 75.5078 312.684 75.6211 313.199 75.6211C313.965 75.6211 314.609 75.3945 315.133 74.9414C315.664 74.4883 315.93 73.8438 315.93 73.0078V71.9297ZM309.168 63.4805C309.215 62.8555 309.328 62.3164 309.508 61.8633C309.688 61.4023 309.922 61.0273 310.211 60.7383C310.5 60.4414 310.824 60.2227 311.184 60.082C311.551 59.9336 311.941 59.8594 312.355 59.8594C312.676 59.8594 312.988 59.9219 313.293 60.0469C313.605 60.1641 313.91 60.3047 314.207 60.4688C314.512 60.6328 314.809 60.7773 315.098 60.9023C315.395 61.0195 315.684 61.0781 315.965 61.0781C316.199 61.0781 316.426 60.9766 316.645 60.7734C316.871 60.5625 317.035 60.25 317.137 59.8359H318.883C318.789 61.0703 318.438 61.9844 317.828 62.5781C317.219 63.1641 316.508 63.457 315.695 63.457C315.375 63.457 315.059 63.3945 314.746 63.2695C314.441 63.1445 314.137 63.0039 313.832 62.8477C313.535 62.6836 313.242 62.5391 312.953 62.4141C312.664 62.2891 312.379 62.2266 312.098 62.2266C311.855 62.2266 311.621 62.332 311.395 62.543C311.176 62.7461 311.016 63.0586 310.914 63.4805H309.168ZM335.078 71.4258C335.078 72.5195 334.93 73.4883 334.633 74.332C334.344 75.1758 333.918 75.8906 333.355 76.4766C332.801 77.0547 332.129 77.4922 331.34 77.7891C330.559 78.0859 329.676 78.2344 328.691 78.2344C327.77 78.2344 326.922 78.0859 326.148 77.7891C325.383 77.4922 324.715 77.0547 324.145 76.4766C323.582 75.8906 323.145 75.1758 322.832 74.332C322.527 73.4883 322.375 72.5195 322.375 71.4258C322.375 69.9727 322.633 68.7422 323.148 67.7344C323.664 66.7266 324.398 65.9609 325.352 65.4375C326.305 64.9141 327.441 64.6523 328.762 64.6523C329.988 64.6523 331.074 64.9141 332.02 65.4375C332.973 65.9609 333.719 66.7266 334.258 67.7344C334.805 68.7422 335.078 69.9727 335.078 71.4258ZM326.02 71.4258C326.02 72.2852 326.113 73.0078 326.301 73.5938C326.488 74.1797 326.781 74.6211 327.18 74.918C327.578 75.2148 328.098 75.3633 328.738 75.3633C329.371 75.3633 329.883 75.2148 330.273 74.918C330.672 74.6211 330.961 74.1797 331.141 73.5938C331.328 73.0078 331.422 72.2852 331.422 71.4258C331.422 70.5586 331.328 69.8398 331.141 69.2695C330.961 68.6914 330.672 68.2578 330.273 67.9688C329.875 67.6797 329.355 67.5352 328.715 67.5352C327.77 67.5352 327.082 67.8594 326.652 68.5078C326.23 69.1562 326.02 70.1289 326.02 71.4258ZM349.668 64.6523C350.879 64.6523 351.922 64.8867 352.797 65.3555C353.672 65.8164 354.348 66.4883 354.824 67.3711C355.301 68.2539 355.539 69.332 355.539 70.6055V72.3398H347.09C347.129 73.3477 347.43 74.1406 347.992 74.7188C348.562 75.2891 349.352 75.5742 350.359 75.5742C351.195 75.5742 351.961 75.4883 352.656 75.3164C353.352 75.1445 354.066 74.8867 354.801 74.543V77.3086C354.152 77.6289 353.473 77.8633 352.762 78.0117C352.059 78.1602 351.203 78.2344 350.195 78.2344C348.883 78.2344 347.719 77.9922 346.703 77.5078C345.695 77.0234 344.902 76.2852 344.324 75.293C343.754 74.3008 343.469 73.0508 343.469 71.543C343.469 70.0117 343.727 68.7383 344.242 67.7227C344.766 66.6992 345.492 65.9336 346.422 65.4258C347.352 64.9102 348.434 64.6523 349.668 64.6523ZM349.691 67.1953C348.996 67.1953 348.418 67.418 347.957 67.8633C347.504 68.3086 347.242 69.0078 347.172 69.9609H352.188C352.18 69.4297 352.082 68.957 351.895 68.543C351.715 68.1289 351.441 67.8008 351.074 67.5586C350.715 67.3164 350.254 67.1953 349.691 67.1953ZM375.074 73.2422C375.074 74.2578 374.828 75.1406 374.336 75.8906C373.844 76.6406 373.125 77.2188 372.18 77.625C371.242 78.0312 370.102 78.2344 368.758 78.2344C368.164 78.2344 367.582 78.1953 367.012 78.1172C366.449 78.0391 365.906 77.9258 365.383 77.7773C364.867 77.6211 364.375 77.4297 363.906 77.2031V73.8281C364.719 74.1875 365.562 74.5117 366.438 74.8008C367.312 75.0898 368.18 75.2344 369.039 75.2344C369.633 75.2344 370.109 75.1562 370.469 75C370.836 74.8438 371.102 74.6289 371.266 74.3555C371.43 74.082 371.512 73.7695 371.512 73.418C371.512 72.9883 371.367 72.6211 371.078 72.3164C370.789 72.0117 370.391 71.7266 369.883 71.4609C369.383 71.1953 368.816 70.9102 368.184 70.6055C367.785 70.418 367.352 70.1914 366.883 69.9258C366.414 69.6523 365.969 69.3203 365.547 68.9297C365.125 68.5391 364.777 68.0664 364.504 67.5117C364.238 66.9492 364.105 66.2773 364.105 65.4961C364.105 64.4727 364.34 63.5977 364.809 62.8711C365.277 62.1445 365.945 61.5898 366.812 61.207C367.688 60.8164 368.719 60.6211 369.906 60.6211C370.797 60.6211 371.645 60.7266 372.449 60.9375C373.262 61.1406 374.109 61.4375 374.992 61.8281L373.82 64.6523C373.031 64.332 372.324 64.0859 371.699 63.9141C371.074 63.7344 370.438 63.6445 369.789 63.6445C369.336 63.6445 368.949 63.7188 368.629 63.8672C368.309 64.0078 368.066 64.2109 367.902 64.4766C367.738 64.7344 367.656 65.0352 367.656 65.3789C367.656 65.7852 367.773 66.1289 368.008 66.4102C368.25 66.6836 368.609 66.9492 369.086 67.207C369.57 67.4648 370.172 67.7656 370.891 68.1094C371.766 68.5234 372.512 68.957 373.129 69.4102C373.754 69.8555 374.234 70.3828 374.57 70.9922C374.906 71.5938 375.074 72.3438 375.074 73.2422ZM383.301 64.6523C384.512 64.6523 385.555 64.8867 386.43 65.3555C387.305 65.8164 387.98 66.4883 388.457 67.3711C388.934 68.2539 389.172 69.332 389.172 70.6055V72.3398H380.723C380.762 73.3477 381.062 74.1406 381.625 74.7188C382.195 75.2891 382.984 75.5742 383.992 75.5742C384.828 75.5742 385.594 75.4883 386.289 75.3164C386.984 75.1445 387.699 74.8867 388.434 74.543V77.3086C387.785 77.6289 387.105 77.8633 386.395 78.0117C385.691 78.1602 384.836 78.2344 383.828 78.2344C382.516 78.2344 381.352 77.9922 380.336 77.5078C379.328 77.0234 378.535 76.2852 377.957 75.293C377.387 74.3008 377.102 73.0508 377.102 71.543C377.102 70.0117 377.359 68.7383 377.875 67.7227C378.398 66.6992 379.125 65.9336 380.055 65.4258C380.984 64.9102 382.066 64.6523 383.301 64.6523ZM383.324 67.1953C382.629 67.1953 382.051 67.418 381.59 67.8633C381.137 68.3086 380.875 69.0078 380.805 69.9609H385.82C385.812 69.4297 385.715 68.957 385.527 68.543C385.348 68.1289 385.074 67.8008 384.707 67.5586C384.348 67.3164 383.887 67.1953 383.324 67.1953ZM395.91 83.7656C394.082 83.7656 392.684 83.4453 391.715 82.8047C390.754 82.1719 390.273 81.2812 390.273 80.1328C390.273 79.3438 390.52 78.6836 391.012 78.1523C391.504 77.6211 392.227 77.2422 393.18 77.0156C392.812 76.8594 392.492 76.6055 392.219 76.2539C391.945 75.8945 391.809 75.5156 391.809 75.1172C391.809 74.6172 391.953 74.2031 392.242 73.875C392.531 73.5391 392.949 73.2109 393.496 72.8906C392.809 72.5938 392.262 72.1172 391.855 71.4609C391.457 70.8047 391.258 70.0312 391.258 69.1406C391.258 68.1875 391.465 67.3789 391.879 66.7148C392.301 66.043 392.91 65.5312 393.707 65.1797C394.512 64.8281 395.488 64.6523 396.637 64.6523C396.879 64.6523 397.16 64.668 397.48 64.6992C397.801 64.7305 398.094 64.7656 398.359 64.8047C398.633 64.8438 398.816 64.875 398.91 64.8984H403.48V66.7148L401.43 67.2422C401.617 67.5312 401.758 67.8398 401.852 68.168C401.945 68.4961 401.992 68.8438 401.992 69.2109C401.992 70.6172 401.5 71.7148 400.516 72.5039C399.539 73.2852 398.18 73.6758 396.438 73.6758C396.023 73.6523 395.633 73.6211 395.266 73.582C395.086 73.7227 394.949 73.8711 394.855 74.0273C394.762 74.1836 394.715 74.3477 394.715 74.5195C394.715 74.6914 394.785 74.8359 394.926 74.9531C395.074 75.0625 395.293 75.1484 395.582 75.2109C395.879 75.2656 396.246 75.293 396.684 75.293H398.91C400.348 75.293 401.441 75.6016 402.191 76.2188C402.949 76.8359 403.328 77.7422 403.328 78.9375C403.328 80.4688 402.688 81.6562 401.406 82.5C400.133 83.3438 398.301 83.7656 395.91 83.7656ZM396.062 81.4336C396.914 81.4336 397.645 81.3516 398.254 81.1875C398.871 81.0312 399.344 80.8047 399.672 80.5078C400 80.2188 400.164 79.8711 400.164 79.4648C400.164 79.1367 400.066 78.875 399.871 78.6797C399.684 78.4922 399.395 78.3594 399.004 78.2812C398.621 78.2031 398.129 78.1641 397.527 78.1641H395.676C395.238 78.1641 394.844 78.2344 394.492 78.375C394.148 78.5156 393.875 78.7109 393.672 78.9609C393.469 79.2188 393.367 79.5156 393.367 79.8516C393.367 80.3438 393.602 80.7305 394.07 81.0117C394.547 81.293 395.211 81.4336 396.062 81.4336ZM396.637 71.4961C397.309 71.4961 397.801 71.2891 398.113 70.875C398.426 70.4609 398.582 69.8984 398.582 69.1875C398.582 68.3984 398.418 67.8086 398.09 67.418C397.77 67.0195 397.285 66.8203 396.637 66.8203C395.98 66.8203 395.488 67.0195 395.16 67.418C394.832 67.8086 394.668 68.3984 394.668 69.1875C394.668 69.8984 394.828 70.4609 395.148 70.875C395.477 71.2891 395.973 71.4961 396.637 71.4961ZM417.672 64.8984V78H414.93L414.449 76.3242H414.262C413.98 76.7695 413.629 77.1328 413.207 77.4141C412.785 77.6953 412.32 77.9023 411.812 78.0352C411.305 78.168 410.777 78.2344 410.23 78.2344C409.293 78.2344 408.477 78.0703 407.781 77.7422C407.086 77.4062 406.543 76.8867 406.152 76.1836C405.77 75.4805 405.578 74.5664 405.578 73.4414V64.8984H409.152V72.5508C409.152 73.4883 409.32 74.1953 409.656 74.6719C409.992 75.1484 410.527 75.3867 411.262 75.3867C411.988 75.3867 412.559 75.2227 412.973 74.8945C413.387 74.5586 413.676 74.0703 413.84 73.4297C414.012 72.7812 414.098 71.9922 414.098 71.0625V64.8984H417.672ZM428.734 64.6523C428.914 64.6523 429.121 64.6641 429.355 64.6875C429.598 64.7031 429.793 64.7266 429.941 64.7578L429.672 68.1094C429.555 68.0703 429.387 68.043 429.168 68.0273C428.957 68.0039 428.773 67.9922 428.617 67.9922C428.156 67.9922 427.707 68.0508 427.27 68.168C426.84 68.2852 426.453 68.4766 426.109 68.7422C425.766 69 425.492 69.3438 425.289 69.7734C425.094 70.1953 424.996 70.7148 424.996 71.332V78H421.422V64.8984H424.129L424.656 67.1016H424.832C425.09 66.6562 425.41 66.25 425.793 65.8828C426.184 65.5078 426.625 65.2109 427.117 64.9922C427.617 64.7656 428.156 64.6523 428.734 64.6523ZM437.688 64.6289C439.445 64.6289 440.793 65.0117 441.73 65.7773C442.668 66.543 443.137 67.707 443.137 69.2695V78H440.641L439.949 76.2188H439.855C439.48 76.6875 439.098 77.0703 438.707 77.3672C438.316 77.6641 437.867 77.8828 437.359 78.0234C436.852 78.1641 436.234 78.2344 435.508 78.2344C434.734 78.2344 434.039 78.0859 433.422 77.7891C432.812 77.4922 432.332 77.0391 431.98 76.4297C431.629 75.8125 431.453 75.0312 431.453 74.0859C431.453 72.6953 431.941 71.6719 432.918 71.0156C433.895 70.3516 435.359 69.9844 437.312 69.9141L439.586 69.8438V69.2695C439.586 68.582 439.406 68.0781 439.047 67.7578C438.688 67.4375 438.188 67.2773 437.547 67.2773C436.914 67.2773 436.293 67.3672 435.684 67.5469C435.074 67.7266 434.465 67.9531 433.855 68.2266L432.672 65.8125C433.367 65.4453 434.145 65.1562 435.004 64.9453C435.871 64.7344 436.766 64.6289 437.688 64.6289ZM439.586 71.9297L438.203 71.9766C437.047 72.0078 436.242 72.2148 435.789 72.5977C435.344 72.9805 435.121 73.4844 435.121 74.1094C435.121 74.6562 435.281 75.0469 435.602 75.2812C435.922 75.5078 436.34 75.6211 436.855 75.6211C437.621 75.6211 438.266 75.3945 438.789 74.9414C439.32 74.4883 439.586 73.8438 439.586 73.0078V71.9297ZM454.27 64.6523C455.668 64.6523 456.793 65.0352 457.645 65.8008C458.496 66.5586 458.922 67.7773 458.922 69.457V78H455.348V70.3477C455.348 69.4102 455.176 68.7031 454.832 68.2266C454.496 67.75 453.965 67.5117 453.238 67.5117C452.145 67.5117 451.398 67.8828 451 68.625C450.602 69.3672 450.402 70.4375 450.402 71.8359V78H446.828V64.8984H449.559L450.039 66.5742H450.238C450.52 66.1211 450.867 65.7539 451.281 65.4727C451.703 65.1914 452.168 64.9844 452.676 64.8516C453.191 64.7188 453.723 64.6523 454.27 64.6523ZM467.922 78.2344C466.625 78.2344 465.52 78 464.605 77.5312C463.691 77.0547 462.996 76.3203 462.52 75.3281C462.043 74.3359 461.805 73.0664 461.805 71.5195C461.805 69.918 462.074 68.6133 462.613 67.6055C463.16 66.5898 463.914 65.8438 464.875 65.3672C465.844 64.8906 466.965 64.6523 468.238 64.6523C469.145 64.6523 469.926 64.7422 470.582 64.9219C471.246 65.0938 471.824 65.3008 472.316 65.543L471.262 68.3086C470.699 68.082 470.176 67.8984 469.691 67.7578C469.207 67.6094 468.723 67.5352 468.238 67.5352C467.613 67.5352 467.094 67.6836 466.68 67.9805C466.266 68.2695 465.957 68.707 465.754 69.293C465.551 69.8789 465.449 70.6133 465.449 71.4961C465.449 72.3633 465.559 73.082 465.777 73.6523C465.996 74.2227 466.312 74.6484 466.727 74.9297C467.141 75.2031 467.645 75.3398 468.238 75.3398C468.98 75.3398 469.641 75.2422 470.219 75.0469C470.797 74.8438 471.359 74.5625 471.906 74.2031V77.2617C471.359 77.6055 470.785 77.8516 470.184 78C469.59 78.1562 468.836 78.2344 467.922 78.2344ZM470.5 80.9297C470.5 81.8281 470.238 82.5234 469.715 83.0156C469.191 83.5156 468.246 83.7656 466.879 83.7656C466.527 83.7656 466.211 83.7422 465.93 83.6953C465.648 83.6484 465.395 83.5898 465.168 83.5195V81.5508C465.395 81.6055 465.672 81.6602 466 81.7148C466.328 81.7695 466.609 81.7969 466.844 81.7969C467.07 81.7969 467.266 81.7422 467.43 81.6328C467.602 81.5312 467.688 81.3438 467.688 81.0703C467.688 80.7812 467.543 80.5234 467.254 80.2969C466.965 80.0703 466.461 79.9062 465.742 79.8047L466.656 78H468.918L468.602 78.7148C468.922 78.8164 469.227 78.9648 469.516 79.1602C469.805 79.3633 470.039 79.6094 470.219 79.8984C470.406 80.1953 470.5 80.5391 470.5 80.9297ZM480.32 64.6289C482.078 64.6289 483.426 65.0117 484.363 65.7773C485.301 66.543 485.77 67.707 485.77 69.2695V78H483.273L482.582 76.2188H482.488C482.113 76.6875 481.73 77.0703 481.34 77.3672C480.949 77.6641 480.5 77.8828 479.992 78.0234C479.484 78.1641 478.867 78.2344 478.141 78.2344C477.367 78.2344 476.672 78.0859 476.055 77.7891C475.445 77.4922 474.965 77.0391 474.613 76.4297C474.262 75.8125 474.086 75.0312 474.086 74.0859C474.086 72.6953 474.574 71.6719 475.551 71.0156C476.527 70.3516 477.992 69.9844 479.945 69.9141L482.219 69.8438V69.2695C482.219 68.582 482.039 68.0781 481.68 67.7578C481.32 67.4375 480.82 67.2773 480.18 67.2773C479.547 67.2773 478.926 67.3672 478.316 67.5469C477.707 67.7266 477.098 67.9531 476.488 68.2266L475.305 65.8125C476 65.4453 476.777 65.1562 477.637 64.9453C478.504 64.7344 479.398 64.6289 480.32 64.6289ZM482.219 71.9297L480.836 71.9766C479.68 72.0078 478.875 72.2148 478.422 72.5977C477.977 72.9805 477.754 73.4844 477.754 74.1094C477.754 74.6562 477.914 75.0469 478.234 75.2812C478.555 75.5078 478.973 75.6211 479.488 75.6211C480.254 75.6211 480.898 75.3945 481.422 74.9414C481.953 74.4883 482.219 73.8438 482.219 73.0078V71.9297Z" fill="white"/>
<path d="M234.3 108.15C235.407 108.15 236.321 108.285 237.042 108.555C237.769 108.824 238.308 109.234 238.659 109.785C239.017 110.336 239.195 111.036 239.195 111.886C239.195 112.519 239.078 113.058 238.844 113.503C238.609 113.948 238.302 114.317 237.921 114.61C237.54 114.903 237.133 115.138 236.699 115.313L240.347 121H237.965L234.862 115.85H232.797V121H230.688V108.15H234.3ZM234.159 109.908H232.797V114.109H234.256C235.234 114.109 235.943 113.928 236.383 113.564C236.828 113.201 237.051 112.665 237.051 111.956C237.051 111.212 236.813 110.685 236.339 110.374C235.87 110.063 235.144 109.908 234.159 109.908ZM245.849 111.086C246.716 111.086 247.46 111.265 248.081 111.622C248.702 111.979 249.18 112.486 249.514 113.143C249.848 113.799 250.015 114.584 250.015 115.498V116.605H243.52C243.543 117.549 243.795 118.275 244.275 118.785C244.762 119.295 245.441 119.55 246.314 119.55C246.936 119.55 247.492 119.491 247.984 119.374C248.482 119.251 248.995 119.072 249.522 118.838V120.517C249.036 120.745 248.541 120.912 248.037 121.018C247.533 121.123 246.93 121.176 246.227 121.176C245.271 121.176 244.431 120.991 243.704 120.622C242.983 120.247 242.418 119.69 242.008 118.952C241.604 118.214 241.401 117.297 241.401 116.201C241.401 115.111 241.586 114.186 241.955 113.424C242.324 112.662 242.843 112.082 243.511 111.684C244.179 111.285 244.958 111.086 245.849 111.086ZM245.849 112.642C245.198 112.642 244.671 112.853 244.267 113.274C243.868 113.696 243.634 114.314 243.563 115.129H247.993C247.987 114.643 247.905 114.212 247.747 113.837C247.595 113.462 247.36 113.169 247.044 112.958C246.733 112.747 246.335 112.642 245.849 112.642ZM257.204 112.844H254.84V121H252.774V112.844H251.184V111.851L252.774 111.244V110.567C252.774 109.741 252.903 109.085 253.161 108.599C253.425 108.112 253.8 107.764 254.286 107.553C254.778 107.336 255.364 107.228 256.044 107.228C256.489 107.228 256.896 107.266 257.266 107.342C257.635 107.412 257.945 107.494 258.197 107.588L257.661 109.152C257.462 109.088 257.239 109.029 256.993 108.977C256.747 108.918 256.483 108.889 256.202 108.889C255.733 108.889 255.388 109.035 255.165 109.328C254.948 109.621 254.84 110.049 254.84 110.611V111.271H257.204V112.844ZM262.741 111.086C263.608 111.086 264.353 111.265 264.974 111.622C265.595 111.979 266.072 112.486 266.406 113.143C266.74 113.799 266.907 114.584 266.907 115.498V116.605H260.412C260.436 117.549 260.688 118.275 261.168 118.785C261.654 119.295 262.334 119.55 263.207 119.55C263.828 119.55 264.385 119.491 264.877 119.374C265.375 119.251 265.888 119.072 266.415 118.838V120.517C265.929 120.745 265.434 120.912 264.93 121.018C264.426 121.123 263.822 121.176 263.119 121.176C262.164 121.176 261.323 120.991 260.597 120.622C259.876 120.247 259.311 119.69 258.9 118.952C258.496 118.214 258.294 117.297 258.294 116.201C258.294 115.111 258.479 114.186 258.848 113.424C259.217 112.662 259.735 112.082 260.403 111.684C261.071 111.285 261.851 111.086 262.741 111.086ZM262.741 112.642C262.091 112.642 261.563 112.853 261.159 113.274C260.761 113.696 260.526 114.314 260.456 115.129H264.886C264.88 114.643 264.798 114.212 264.64 113.837C264.487 113.462 264.253 113.169 263.937 112.958C263.626 112.747 263.228 112.642 262.741 112.642ZM274.167 111.086C274.331 111.086 274.51 111.095 274.703 111.112C274.896 111.13 275.063 111.153 275.204 111.183L275.011 113.116C274.888 113.081 274.735 113.055 274.554 113.037C274.378 113.02 274.22 113.011 274.079 113.011C273.71 113.011 273.358 113.072 273.024 113.195C272.69 113.312 272.395 113.494 272.137 113.74C271.879 113.98 271.677 114.282 271.53 114.646C271.384 115.009 271.311 115.431 271.311 115.911V121H269.236V111.271H270.854L271.135 112.984H271.231C271.425 112.639 271.665 112.322 271.952 112.035C272.239 111.748 272.567 111.52 272.937 111.35C273.312 111.174 273.722 111.086 274.167 111.086ZM280.882 111.086C281.749 111.086 282.493 111.265 283.114 111.622C283.735 111.979 284.213 112.486 284.547 113.143C284.881 113.799 285.048 114.584 285.048 115.498V116.605H278.553C278.576 117.549 278.828 118.275 279.309 118.785C279.795 119.295 280.475 119.55 281.348 119.55C281.969 119.55 282.525 119.491 283.018 119.374C283.516 119.251 284.028 119.072 284.556 118.838V120.517C284.069 120.745 283.574 120.912 283.07 121.018C282.566 121.123 281.963 121.176 281.26 121.176C280.305 121.176 279.464 120.991 278.737 120.622C278.017 120.247 277.451 119.69 277.041 118.952C276.637 118.214 276.435 117.297 276.435 116.201C276.435 115.111 276.619 114.186 276.988 113.424C277.357 112.662 277.876 112.082 278.544 111.684C279.212 111.285 279.991 111.086 280.882 111.086ZM280.882 112.642C280.231 112.642 279.704 112.853 279.3 113.274C278.901 113.696 278.667 114.314 278.597 115.129H283.026C283.021 114.643 282.938 114.212 282.78 113.837C282.628 113.462 282.394 113.169 282.077 112.958C281.767 112.747 281.368 112.642 280.882 112.642ZM286.533 117.045V115.296H291.068V117.045H286.533ZM299.717 118.223C299.717 118.861 299.562 119.4 299.251 119.84C298.94 120.279 298.486 120.613 297.889 120.842C297.297 121.064 296.57 121.176 295.709 121.176C295.029 121.176 294.443 121.126 293.951 121.026C293.465 120.933 293.005 120.786 292.571 120.587V118.803C293.034 119.02 293.553 119.207 294.127 119.365C294.707 119.523 295.255 119.603 295.771 119.603C296.45 119.603 296.939 119.497 297.238 119.286C297.537 119.069 297.687 118.782 297.687 118.425C297.687 118.214 297.625 118.026 297.502 117.862C297.385 117.692 297.162 117.52 296.834 117.344C296.512 117.162 296.037 116.945 295.41 116.693C294.795 116.447 294.276 116.201 293.854 115.955C293.433 115.709 293.113 115.413 292.896 115.067C292.68 114.716 292.571 114.268 292.571 113.723C292.571 112.861 292.911 112.208 293.591 111.763C294.276 111.312 295.182 111.086 296.307 111.086C296.904 111.086 297.467 111.147 297.994 111.271C298.527 111.388 299.049 111.561 299.559 111.789L298.908 113.345C298.469 113.151 298.026 112.993 297.581 112.87C297.142 112.741 296.693 112.677 296.236 112.677C295.703 112.677 295.296 112.759 295.015 112.923C294.739 113.087 294.602 113.321 294.602 113.626C294.602 113.854 294.669 114.048 294.804 114.206C294.938 114.364 295.17 114.522 295.498 114.681C295.832 114.839 296.295 115.035 296.887 115.27C297.467 115.492 297.968 115.727 298.39 115.973C298.817 116.213 299.146 116.509 299.374 116.86C299.603 117.212 299.717 117.666 299.717 118.223ZM305.825 111.086C306.692 111.086 307.437 111.265 308.058 111.622C308.679 111.979 309.156 112.486 309.49 113.143C309.824 113.799 309.991 114.584 309.991 115.498V116.605H303.496C303.52 117.549 303.771 118.275 304.252 118.785C304.738 119.295 305.418 119.55 306.291 119.55C306.912 119.55 307.469 119.491 307.961 119.374C308.459 119.251 308.972 119.072 309.499 118.838V120.517C309.013 120.745 308.518 120.912 308.014 121.018C307.51 121.123 306.906 121.176 306.203 121.176C305.248 121.176 304.407 120.991 303.681 120.622C302.96 120.247 302.395 119.69 301.984 118.952C301.58 118.214 301.378 117.297 301.378 116.201C301.378 115.111 301.562 114.186 301.932 113.424C302.301 112.662 302.819 112.082 303.487 111.684C304.155 111.285 304.935 111.086 305.825 111.086ZM305.825 112.642C305.175 112.642 304.647 112.853 304.243 113.274C303.845 113.696 303.61 114.314 303.54 115.129H307.97C307.964 114.643 307.882 114.212 307.724 113.837C307.571 113.462 307.337 113.169 307.021 112.958C306.71 112.747 306.312 112.642 305.825 112.642ZM320.811 111.086C322.041 111.086 322.97 111.358 323.597 111.903C324.229 112.448 324.546 113.298 324.546 114.452V121H323.078L322.683 119.62H322.612C322.337 119.972 322.053 120.262 321.76 120.49C321.467 120.719 321.127 120.889 320.74 121C320.359 121.117 319.894 121.176 319.343 121.176C318.763 121.176 318.244 121.07 317.787 120.859C317.33 120.643 316.97 120.314 316.706 119.875C316.442 119.436 316.311 118.879 316.311 118.205C316.311 117.203 316.683 116.45 317.427 115.946C318.177 115.442 319.308 115.164 320.819 115.111L322.507 115.05V114.54C322.507 113.866 322.349 113.386 322.032 113.099C321.722 112.812 321.282 112.668 320.714 112.668C320.228 112.668 319.756 112.738 319.299 112.879C318.842 113.02 318.396 113.192 317.963 113.397L317.295 111.938C317.77 111.687 318.309 111.481 318.912 111.323C319.521 111.165 320.154 111.086 320.811 111.086ZM322.498 116.351L321.241 116.395C320.21 116.43 319.486 116.605 319.07 116.922C318.654 117.238 318.446 117.672 318.446 118.223C318.446 118.703 318.59 119.055 318.877 119.277C319.164 119.494 319.542 119.603 320.011 119.603C320.726 119.603 321.317 119.4 321.786 118.996C322.261 118.586 322.498 117.985 322.498 117.194V116.351ZM335.928 111.086C337.158 111.086 338.087 111.358 338.714 111.903C339.347 112.448 339.663 113.298 339.663 114.452V121H338.195L337.8 119.62H337.729C337.454 119.972 337.17 120.262 336.877 120.49C336.584 120.719 336.244 120.889 335.857 121C335.477 121.117 335.011 121.176 334.46 121.176C333.88 121.176 333.361 121.07 332.904 120.859C332.447 120.643 332.087 120.314 331.823 119.875C331.56 119.436 331.428 118.879 331.428 118.205C331.428 117.203 331.8 116.45 332.544 115.946C333.294 115.442 334.425 115.164 335.937 115.111L337.624 115.05V114.54C337.624 113.866 337.466 113.386 337.149 113.099C336.839 112.812 336.399 112.668 335.831 112.668C335.345 112.668 334.873 112.738 334.416 112.879C333.959 113.02 333.514 113.192 333.08 113.397L332.412 111.938C332.887 111.687 333.426 111.481 334.029 111.323C334.639 111.165 335.271 111.086 335.928 111.086ZM337.615 116.351L336.358 116.395C335.327 116.43 334.604 116.605 334.188 116.922C333.771 117.238 333.563 117.672 333.563 118.223C333.563 118.703 333.707 119.055 333.994 119.277C334.281 119.494 334.659 119.603 335.128 119.603C335.843 119.603 336.435 119.4 336.903 118.996C337.378 118.586 337.615 117.985 337.615 117.194V116.351ZM353.55 111.086C354.64 111.086 355.46 111.367 356.011 111.93C356.567 112.492 356.846 113.395 356.846 114.637V121H354.78V115.006C354.78 114.268 354.637 113.711 354.35 113.336C354.062 112.961 353.626 112.773 353.04 112.773C352.22 112.773 351.628 113.037 351.265 113.564C350.907 114.086 350.729 114.845 350.729 115.841V121H348.663V115.006C348.663 114.514 348.599 114.104 348.47 113.775C348.347 113.441 348.156 113.192 347.898 113.028C347.641 112.858 347.315 112.773 346.923 112.773C346.354 112.773 345.9 112.902 345.561 113.16C345.227 113.418 344.986 113.799 344.84 114.303C344.693 114.801 344.62 115.413 344.62 116.14V121H342.555V111.271H344.163L344.453 112.58H344.567C344.767 112.24 345.013 111.962 345.306 111.745C345.604 111.522 345.936 111.358 346.299 111.253C346.662 111.142 347.04 111.086 347.433 111.086C348.159 111.086 348.771 111.215 349.27 111.473C349.768 111.725 350.14 112.111 350.386 112.633H350.544C350.849 112.105 351.273 111.716 351.818 111.464C352.363 111.212 352.94 111.086 353.55 111.086ZM361.794 107.324V110.62C361.794 111.001 361.782 111.376 361.759 111.745C361.741 112.108 361.724 112.393 361.706 112.598H361.794C362.058 112.176 362.424 111.821 362.893 111.534C363.367 111.241 363.974 111.095 364.712 111.095C365.866 111.095 366.795 111.52 367.498 112.369C368.201 113.213 368.553 114.464 368.553 116.122C368.553 117.224 368.392 118.149 368.069 118.899C367.747 119.649 367.293 120.218 366.707 120.604C366.127 120.985 365.444 121.176 364.659 121.176C363.921 121.176 363.323 121.041 362.866 120.771C362.415 120.496 362.061 120.177 361.803 119.813H361.653L361.275 121H359.729V107.324H361.794ZM364.167 112.773C363.581 112.773 363.115 112.891 362.77 113.125C362.43 113.359 362.184 113.711 362.031 114.18C361.879 114.643 361.8 115.231 361.794 115.946V116.131C361.794 117.215 361.964 118.044 362.304 118.618C362.649 119.192 363.276 119.479 364.185 119.479C364.905 119.479 365.459 119.189 365.846 118.609C366.232 118.023 366.426 117.186 366.426 116.096C366.426 114.994 366.232 114.165 365.846 113.608C365.465 113.052 364.905 112.773 364.167 112.773ZM373.009 111.271V121H370.943V111.271H373.009ZM371.989 107.544C372.306 107.544 372.578 107.629 372.807 107.799C373.041 107.969 373.158 108.262 373.158 108.678C373.158 109.088 373.041 109.381 372.807 109.557C372.578 109.727 372.306 109.812 371.989 109.812C371.661 109.812 371.383 109.727 371.154 109.557C370.932 109.381 370.82 109.088 370.82 108.678C370.82 108.262 370.932 107.969 371.154 107.799C371.383 107.629 371.661 107.544 371.989 107.544ZM379.847 111.086C380.714 111.086 381.458 111.265 382.079 111.622C382.7 111.979 383.178 112.486 383.512 113.143C383.846 113.799 384.013 114.584 384.013 115.498V116.605H377.518C377.541 117.549 377.793 118.275 378.273 118.785C378.76 119.295 379.439 119.55 380.312 119.55C380.934 119.55 381.49 119.491 381.982 119.374C382.48 119.251 382.993 119.072 383.521 118.838V120.517C383.034 120.745 382.539 120.912 382.035 121.018C381.531 121.123 380.928 121.176 380.225 121.176C379.27 121.176 378.429 120.991 377.702 120.622C376.981 120.247 376.416 119.69 376.006 118.952C375.602 118.214 375.399 117.297 375.399 116.201C375.399 115.111 375.584 114.186 375.953 113.424C376.322 112.662 376.841 112.082 377.509 111.684C378.177 111.285 378.956 111.086 379.847 111.086ZM379.847 112.642C379.196 112.642 378.669 112.853 378.265 113.274C377.866 113.696 377.632 114.314 377.562 115.129H381.991C381.985 114.643 381.903 114.212 381.745 113.837C381.593 113.462 381.358 113.169 381.042 112.958C380.731 112.747 380.333 112.642 379.847 112.642ZM391.413 111.086C392.509 111.086 393.361 111.37 393.971 111.938C394.586 112.501 394.894 113.406 394.894 114.654V121H392.828V115.041C392.828 114.285 392.673 113.72 392.362 113.345C392.052 112.964 391.571 112.773 390.921 112.773C389.978 112.773 389.321 113.063 388.952 113.644C388.589 114.224 388.407 115.064 388.407 116.166V121H386.342V111.271H387.95L388.24 112.589H388.354C388.565 112.249 388.826 111.971 389.137 111.754C389.453 111.531 389.805 111.364 390.191 111.253C390.584 111.142 390.991 111.086 391.413 111.086ZM401.406 119.506C401.676 119.506 401.942 119.482 402.206 119.436C402.47 119.383 402.71 119.321 402.927 119.251V120.815C402.698 120.915 402.402 121 402.039 121.07C401.676 121.141 401.298 121.176 400.905 121.176C400.354 121.176 399.859 121.085 399.42 120.903C398.98 120.716 398.632 120.396 398.374 119.945C398.116 119.494 397.987 118.87 397.987 118.073V112.844H396.66V111.921L398.084 111.191L398.761 109.108H400.062V111.271H402.848V112.844H400.062V118.047C400.062 118.539 400.185 118.905 400.431 119.146C400.677 119.386 401.002 119.506 401.406 119.506ZM408.78 111.086C409.647 111.086 410.392 111.265 411.013 111.622C411.634 111.979 412.111 112.486 412.445 113.143C412.779 113.799 412.946 114.584 412.946 115.498V116.605H406.451C406.475 117.549 406.727 118.275 407.207 118.785C407.693 119.295 408.373 119.55 409.246 119.55C409.867 119.55 410.424 119.491 410.916 119.374C411.414 119.251 411.927 119.072 412.454 118.838V120.517C411.968 120.745 411.473 120.912 410.969 121.018C410.465 121.123 409.861 121.176 409.158 121.176C408.203 121.176 407.362 120.991 406.636 120.622C405.915 120.247 405.35 119.69 404.939 118.952C404.535 118.214 404.333 117.297 404.333 116.201C404.333 115.111 404.518 114.186 404.887 113.424C405.256 112.662 405.774 112.082 406.442 111.684C407.11 111.285 407.89 111.086 408.78 111.086ZM408.78 112.642C408.13 112.642 407.603 112.853 407.198 113.274C406.8 113.696 406.565 114.314 406.495 115.129H410.925C410.919 114.643 410.837 114.212 410.679 113.837C410.526 113.462 410.292 113.169 409.976 112.958C409.665 112.747 409.267 112.642 408.78 112.642ZM421.814 118.223C421.814 118.861 421.659 119.4 421.349 119.84C421.038 120.279 420.584 120.613 419.986 120.842C419.395 121.064 418.668 121.176 417.807 121.176C417.127 121.176 416.541 121.126 416.049 121.026C415.562 120.933 415.103 120.786 414.669 120.587V118.803C415.132 119.02 415.65 119.207 416.225 119.365C416.805 119.523 417.353 119.603 417.868 119.603C418.548 119.603 419.037 119.497 419.336 119.286C419.635 119.069 419.784 118.782 419.784 118.425C419.784 118.214 419.723 118.026 419.6 117.862C419.482 117.692 419.26 117.52 418.932 117.344C418.609 117.162 418.135 116.945 417.508 116.693C416.893 116.447 416.374 116.201 415.952 115.955C415.53 115.709 415.211 115.413 414.994 115.067C414.777 114.716 414.669 114.268 414.669 113.723C414.669 112.861 415.009 112.208 415.688 111.763C416.374 111.312 417.279 111.086 418.404 111.086C419.002 111.086 419.564 111.147 420.092 111.271C420.625 111.388 421.146 111.561 421.656 111.789L421.006 113.345C420.566 113.151 420.124 112.993 419.679 112.87C419.239 112.741 418.791 112.677 418.334 112.677C417.801 112.677 417.394 112.759 417.112 112.923C416.837 113.087 416.699 113.321 416.699 113.626C416.699 113.854 416.767 114.048 416.901 114.206C417.036 114.364 417.268 114.522 417.596 114.681C417.93 114.839 418.393 115.035 418.984 115.27C419.564 115.492 420.065 115.727 420.487 115.973C420.915 116.213 421.243 116.509 421.472 116.86C421.7 117.212 421.814 117.666 421.814 118.223ZM435.262 118.223C435.262 118.861 435.106 119.4 434.796 119.84C434.485 120.279 434.031 120.613 433.434 120.842C432.842 121.064 432.115 121.176 431.254 121.176C430.574 121.176 429.988 121.126 429.496 121.026C429.01 120.933 428.55 120.786 428.116 120.587V118.803C428.579 119.02 429.098 119.207 429.672 119.365C430.252 119.523 430.8 119.603 431.315 119.603C431.995 119.603 432.484 119.497 432.783 119.286C433.082 119.069 433.231 118.782 433.231 118.425C433.231 118.214 433.17 118.026 433.047 117.862C432.93 117.692 432.707 117.52 432.379 117.344C432.057 117.162 431.582 116.945 430.955 116.693C430.34 116.447 429.821 116.201 429.399 115.955C428.978 115.709 428.658 115.413 428.441 115.067C428.225 114.716 428.116 114.268 428.116 113.723C428.116 112.861 428.456 112.208 429.136 111.763C429.821 111.312 430.727 111.086 431.852 111.086C432.449 111.086 433.012 111.147 433.539 111.271C434.072 111.388 434.594 111.561 435.104 111.789L434.453 113.345C434.014 113.151 433.571 112.993 433.126 112.87C432.687 112.741 432.238 112.677 431.781 112.677C431.248 112.677 430.841 112.759 430.56 112.923C430.284 113.087 430.146 113.321 430.146 113.626C430.146 113.854 430.214 114.048 430.349 114.206C430.483 114.364 430.715 114.522 431.043 114.681C431.377 114.839 431.84 115.035 432.432 115.27C433.012 115.492 433.513 115.727 433.935 115.973C434.362 116.213 434.69 116.509 434.919 116.86C435.147 117.212 435.262 117.666 435.262 118.223ZM441.37 111.086C442.237 111.086 442.981 111.265 443.603 111.622C444.224 111.979 444.701 112.486 445.035 113.143C445.369 113.799 445.536 114.584 445.536 115.498V116.605H439.041C439.064 117.549 439.316 118.275 439.797 118.785C440.283 119.295 440.963 119.55 441.836 119.55C442.457 119.55 443.014 119.491 443.506 119.374C444.004 119.251 444.517 119.072 445.044 118.838V120.517C444.558 120.745 444.062 120.912 443.559 121.018C443.055 121.123 442.451 121.176 441.748 121.176C440.793 121.176 439.952 120.991 439.226 120.622C438.505 120.247 437.939 119.69 437.529 118.952C437.125 118.214 436.923 117.297 436.923 116.201C436.923 115.111 437.107 114.186 437.477 113.424C437.846 112.662 438.364 112.082 439.032 111.684C439.7 111.285 440.479 111.086 441.37 111.086ZM441.37 112.642C440.72 112.642 440.192 112.853 439.788 113.274C439.39 113.696 439.155 114.314 439.085 115.129H443.515C443.509 114.643 443.427 114.212 443.269 113.837C443.116 113.462 442.882 113.169 442.565 112.958C442.255 112.747 441.856 112.642 441.37 112.642ZM450.643 125.324C449.324 125.324 448.313 125.087 447.61 124.612C446.907 124.138 446.556 123.473 446.556 122.617C446.556 122.02 446.743 121.513 447.118 121.097C447.493 120.687 448.029 120.402 448.727 120.244C448.463 120.127 448.234 119.945 448.041 119.699C447.854 119.447 447.76 119.169 447.76 118.864C447.76 118.501 447.862 118.19 448.067 117.933C448.272 117.675 448.58 117.426 448.99 117.186C448.48 116.969 448.07 116.617 447.76 116.131C447.455 115.639 447.303 115.062 447.303 114.399C447.303 113.696 447.452 113.099 447.751 112.606C448.05 112.108 448.486 111.73 449.061 111.473C449.635 111.209 450.329 111.077 451.144 111.077C451.319 111.077 451.51 111.089 451.715 111.112C451.926 111.13 452.119 111.153 452.295 111.183C452.477 111.206 452.614 111.232 452.708 111.262H456.074V112.413L454.422 112.721C454.58 112.943 454.706 113.198 454.8 113.485C454.894 113.767 454.94 114.074 454.94 114.408C454.94 115.416 454.592 116.21 453.895 116.79C453.203 117.364 452.248 117.651 451.029 117.651C450.736 117.64 450.452 117.616 450.177 117.581C449.966 117.71 449.805 117.854 449.693 118.012C449.582 118.164 449.526 118.337 449.526 118.53C449.526 118.688 449.582 118.817 449.693 118.917C449.805 119.011 449.969 119.081 450.186 119.128C450.408 119.175 450.678 119.198 450.994 119.198H452.673C453.739 119.198 454.554 119.424 455.116 119.875C455.679 120.326 455.96 120.988 455.96 121.861C455.96 122.969 455.503 123.821 454.589 124.419C453.675 125.022 452.359 125.324 450.643 125.324ZM450.722 123.874C451.442 123.874 452.049 123.804 452.541 123.663C453.033 123.522 453.405 123.32 453.657 123.057C453.909 122.799 454.035 122.491 454.035 122.134C454.035 121.817 453.956 121.574 453.798 121.404C453.64 121.234 453.402 121.117 453.086 121.053C452.77 120.988 452.377 120.956 451.908 120.956H450.379C449.998 120.956 449.661 121.015 449.368 121.132C449.075 121.255 448.847 121.431 448.683 121.659C448.524 121.888 448.445 122.163 448.445 122.485C448.445 122.931 448.642 123.273 449.034 123.514C449.433 123.754 449.995 123.874 450.722 123.874ZM451.126 116.298C451.729 116.298 452.178 116.134 452.471 115.806C452.764 115.472 452.91 115.003 452.91 114.399C452.91 113.743 452.758 113.251 452.453 112.923C452.154 112.595 451.709 112.431 451.117 112.431C450.537 112.431 450.095 112.598 449.79 112.932C449.491 113.266 449.342 113.761 449.342 114.417C449.342 115.009 449.491 115.472 449.79 115.806C450.095 116.134 450.54 116.298 451.126 116.298ZM466.331 111.271V121H464.705L464.424 119.69H464.31C464.104 120.024 463.844 120.303 463.527 120.525C463.211 120.742 462.859 120.903 462.473 121.009C462.086 121.12 461.679 121.176 461.251 121.176C460.519 121.176 459.892 121.053 459.37 120.807C458.854 120.555 458.459 120.168 458.184 119.646C457.908 119.125 457.771 118.451 457.771 117.625V111.271H459.845V117.238C459.845 117.994 459.997 118.56 460.302 118.935C460.612 119.31 461.093 119.497 461.743 119.497C462.37 119.497 462.868 119.368 463.237 119.11C463.606 118.853 463.867 118.472 464.02 117.968C464.178 117.464 464.257 116.846 464.257 116.113V111.271H466.331ZM474.224 111.086C474.388 111.086 474.566 111.095 474.76 111.112C474.953 111.13 475.12 111.153 475.261 111.183L475.067 113.116C474.944 113.081 474.792 113.055 474.61 113.037C474.435 113.02 474.276 113.011 474.136 113.011C473.767 113.011 473.415 113.072 473.081 113.195C472.747 113.312 472.451 113.494 472.193 113.74C471.936 113.98 471.733 114.282 471.587 114.646C471.44 115.009 471.367 115.431 471.367 115.911V121H469.293V111.271H470.91L471.191 112.984H471.288C471.481 112.639 471.722 112.322 472.009 112.035C472.296 111.748 472.624 111.52 472.993 111.35C473.368 111.174 473.778 111.086 474.224 111.086ZM485.676 116.113C485.676 116.922 485.57 117.64 485.359 118.267C485.148 118.894 484.841 119.424 484.437 119.857C484.032 120.285 483.546 120.613 482.978 120.842C482.409 121.064 481.768 121.176 481.053 121.176C480.385 121.176 479.772 121.064 479.216 120.842C478.659 120.613 478.176 120.285 477.766 119.857C477.361 119.424 477.048 118.894 476.825 118.267C476.603 117.64 476.491 116.922 476.491 116.113C476.491 115.041 476.676 114.133 477.045 113.389C477.42 112.639 477.953 112.067 478.645 111.675C479.336 111.282 480.159 111.086 481.114 111.086C482.011 111.086 482.802 111.282 483.487 111.675C484.173 112.067 484.709 112.639 485.096 113.389C485.482 114.139 485.676 115.047 485.676 116.113ZM478.618 116.113C478.618 116.822 478.703 117.429 478.873 117.933C479.049 118.437 479.318 118.823 479.682 119.093C480.045 119.356 480.514 119.488 481.088 119.488C481.662 119.488 482.131 119.356 482.494 119.093C482.857 118.823 483.124 118.437 483.294 117.933C483.464 117.429 483.549 116.822 483.549 116.113C483.549 115.404 483.464 114.804 483.294 114.312C483.124 113.813 482.857 113.436 482.494 113.178C482.131 112.914 481.659 112.782 481.079 112.782C480.224 112.782 479.6 113.069 479.207 113.644C478.814 114.218 478.618 115.041 478.618 116.113ZM494.588 118.223C494.588 118.861 494.433 119.4 494.122 119.84C493.812 120.279 493.357 120.613 492.76 120.842C492.168 121.064 491.441 121.176 490.58 121.176C489.9 121.176 489.314 121.126 488.822 121.026C488.336 120.933 487.876 120.786 487.442 120.587V118.803C487.905 119.02 488.424 119.207 488.998 119.365C489.578 119.523 490.126 119.603 490.642 119.603C491.321 119.603 491.811 119.497 492.109 119.286C492.408 119.069 492.558 118.782 492.558 118.425C492.558 118.214 492.496 118.026 492.373 117.862C492.256 117.692 492.033 117.52 491.705 117.344C491.383 117.162 490.908 116.945 490.281 116.693C489.666 116.447 489.147 116.201 488.726 115.955C488.304 115.709 487.984 115.413 487.768 115.067C487.551 114.716 487.442 114.268 487.442 113.723C487.442 112.861 487.782 112.208 488.462 111.763C489.147 111.312 490.053 111.086 491.178 111.086C491.775 111.086 492.338 111.147 492.865 111.271C493.398 111.388 493.92 111.561 494.43 111.789L493.779 113.345C493.34 113.151 492.897 112.993 492.452 112.87C492.013 112.741 491.564 112.677 491.107 112.677C490.574 112.677 490.167 112.759 489.886 112.923C489.61 113.087 489.473 113.321 489.473 113.626C489.473 113.854 489.54 114.048 489.675 114.206C489.81 114.364 490.041 114.522 490.369 114.681C490.703 114.839 491.166 115.035 491.758 115.27C492.338 115.492 492.839 115.727 493.261 115.973C493.688 116.213 494.017 116.509 494.245 116.86C494.474 117.212 494.588 117.666 494.588 118.223ZM505.372 111.086C506.239 111.086 506.983 111.265 507.604 111.622C508.226 111.979 508.703 112.486 509.037 113.143C509.371 113.799 509.538 114.584 509.538 115.498V116.605H503.043C503.066 117.549 503.318 118.275 503.799 118.785C504.285 119.295 504.965 119.55 505.838 119.55C506.459 119.55 507.016 119.491 507.508 119.374C508.006 119.251 508.519 119.072 509.046 118.838V120.517C508.56 120.745 508.064 120.912 507.561 121.018C507.057 121.123 506.453 121.176 505.75 121.176C504.795 121.176 503.954 120.991 503.228 120.622C502.507 120.247 501.941 119.69 501.531 118.952C501.127 118.214 500.925 117.297 500.925 116.201C500.925 115.111 501.109 114.186 501.479 113.424C501.848 112.662 502.366 112.082 503.034 111.684C503.702 111.285 504.481 111.086 505.372 111.086ZM505.372 112.642C504.722 112.642 504.194 112.853 503.79 113.274C503.392 113.696 503.157 114.314 503.087 115.129H507.517C507.511 114.643 507.429 114.212 507.271 113.837C507.118 113.462 506.884 113.169 506.567 112.958C506.257 112.747 505.858 112.642 505.372 112.642ZM521.535 111.086C522.689 111.086 523.615 111.508 524.312 112.352C525.016 113.195 525.367 114.449 525.367 116.113C525.367 117.215 525.203 118.144 524.875 118.899C524.553 119.649 524.099 120.218 523.513 120.604C522.933 120.985 522.256 121.176 521.482 121.176C520.99 121.176 520.562 121.111 520.199 120.982C519.836 120.854 519.525 120.687 519.268 120.481C519.01 120.271 518.793 120.042 518.617 119.796H518.494C518.523 120.03 518.55 120.291 518.573 120.578C518.603 120.859 518.617 121.117 518.617 121.352V125.315H516.543V111.271H518.23L518.521 112.615H518.617C518.799 112.34 519.019 112.085 519.276 111.851C519.54 111.616 519.856 111.432 520.226 111.297C520.601 111.156 521.037 111.086 521.535 111.086ZM520.981 112.773C520.413 112.773 519.956 112.888 519.61 113.116C519.271 113.339 519.021 113.676 518.863 114.127C518.711 114.578 518.629 115.144 518.617 115.823V116.113C518.617 116.834 518.69 117.446 518.837 117.95C518.989 118.448 519.238 118.829 519.584 119.093C519.936 119.351 520.41 119.479 521.008 119.479C521.512 119.479 521.928 119.342 522.256 119.066C522.59 118.791 522.839 118.398 523.003 117.889C523.167 117.379 523.249 116.778 523.249 116.087C523.249 115.038 523.062 114.224 522.687 113.644C522.317 113.063 521.749 112.773 520.981 112.773ZM532.688 111.086C532.853 111.086 533.031 111.095 533.225 111.112C533.418 111.13 533.585 111.153 533.726 111.183L533.532 113.116C533.409 113.081 533.257 113.055 533.075 113.037C532.899 113.02 532.741 113.011 532.601 113.011C532.231 113.011 531.88 113.072 531.546 113.195C531.212 113.312 530.916 113.494 530.658 113.74C530.4 113.98 530.198 114.282 530.052 114.646C529.905 115.009 529.832 115.431 529.832 115.911V121H527.758V111.271H529.375L529.656 112.984H529.753C529.946 112.639 530.187 112.322 530.474 112.035C530.761 111.748 531.089 111.52 531.458 111.35C531.833 111.174 532.243 111.086 532.688 111.086ZM544.141 116.113C544.141 116.922 544.035 117.64 543.824 118.267C543.613 118.894 543.306 119.424 542.901 119.857C542.497 120.285 542.011 120.613 541.442 120.842C540.874 121.064 540.232 121.176 539.518 121.176C538.85 121.176 538.237 121.064 537.681 120.842C537.124 120.613 536.641 120.285 536.23 119.857C535.826 119.424 535.513 118.894 535.29 118.267C535.067 117.64 534.956 116.922 534.956 116.113C534.956 115.041 535.141 114.133 535.51 113.389C535.885 112.639 536.418 112.067 537.109 111.675C537.801 111.282 538.624 111.086 539.579 111.086C540.476 111.086 541.267 111.282 541.952 111.675C542.638 112.067 543.174 112.639 543.561 113.389C543.947 114.139 544.141 115.047 544.141 116.113ZM537.083 116.113C537.083 116.822 537.168 117.429 537.338 117.933C537.514 118.437 537.783 118.823 538.146 119.093C538.51 119.356 538.979 119.488 539.553 119.488C540.127 119.488 540.596 119.356 540.959 119.093C541.322 118.823 541.589 118.437 541.759 117.933C541.929 117.429 542.014 116.822 542.014 116.113C542.014 115.404 541.929 114.804 541.759 114.312C541.589 113.813 541.322 113.436 540.959 113.178C540.596 112.914 540.124 112.782 539.544 112.782C538.688 112.782 538.064 113.069 537.672 113.644C537.279 114.218 537.083 115.041 537.083 116.113ZM550.135 119.506C550.404 119.506 550.671 119.482 550.935 119.436C551.198 119.383 551.438 119.321 551.655 119.251V120.815C551.427 120.915 551.131 121 550.768 121.07C550.404 121.141 550.026 121.176 549.634 121.176C549.083 121.176 548.588 121.085 548.148 120.903C547.709 120.716 547.36 120.396 547.103 119.945C546.845 119.494 546.716 118.87 546.716 118.073V112.844H545.389V111.921L546.812 111.191L547.489 109.108H548.79V111.271H551.576V112.844H548.79V118.047C548.79 118.539 548.913 118.905 549.159 119.146C549.405 119.386 549.73 119.506 550.135 119.506ZM557.509 111.086C558.376 111.086 559.12 111.265 559.741 111.622C560.362 111.979 560.84 112.486 561.174 113.143C561.508 113.799 561.675 114.584 561.675 115.498V116.605H555.18C555.203 117.549 555.455 118.275 555.936 118.785C556.422 119.295 557.102 119.55 557.975 119.55C558.596 119.55 559.152 119.491 559.645 119.374C560.143 119.251 560.655 119.072 561.183 118.838V120.517C560.696 120.745 560.201 120.912 559.697 121.018C559.193 121.123 558.59 121.176 557.887 121.176C556.932 121.176 556.091 120.991 555.364 120.622C554.644 120.247 554.078 119.69 553.668 118.952C553.264 118.214 553.062 117.297 553.062 116.201C553.062 115.111 553.246 114.186 553.615 113.424C553.984 112.662 554.503 112.082 555.171 111.684C555.839 111.285 556.618 111.086 557.509 111.086ZM557.509 112.642C556.858 112.642 556.331 112.853 555.927 113.274C555.528 113.696 555.294 114.314 555.224 115.129H559.653C559.647 114.643 559.565 114.212 559.407 113.837C559.255 113.462 559.021 113.169 558.704 112.958C558.394 112.747 557.995 112.642 557.509 112.642ZM566.781 125.324C565.463 125.324 564.452 125.087 563.749 124.612C563.046 124.138 562.694 123.473 562.694 122.617C562.694 122.02 562.882 121.513 563.257 121.097C563.632 120.687 564.168 120.402 564.865 120.244C564.602 120.127 564.373 119.945 564.18 119.699C563.992 119.447 563.898 119.169 563.898 118.864C563.898 118.501 564.001 118.19 564.206 117.933C564.411 117.675 564.719 117.426 565.129 117.186C564.619 116.969 564.209 116.617 563.898 116.131C563.594 115.639 563.441 115.062 563.441 114.399C563.441 113.696 563.591 113.099 563.89 112.606C564.188 112.108 564.625 111.73 565.199 111.473C565.773 111.209 566.468 111.077 567.282 111.077C567.458 111.077 567.648 111.089 567.854 111.112C568.064 111.13 568.258 111.153 568.434 111.183C568.615 111.206 568.753 111.232 568.847 111.262H572.213V112.413L570.561 112.721C570.719 112.943 570.845 113.198 570.938 113.485C571.032 113.767 571.079 114.074 571.079 114.408C571.079 115.416 570.73 116.21 570.033 116.79C569.342 117.364 568.387 117.651 567.168 117.651C566.875 117.64 566.591 117.616 566.315 117.581C566.104 117.71 565.943 117.854 565.832 118.012C565.721 118.164 565.665 118.337 565.665 118.53C565.665 118.688 565.721 118.817 565.832 118.917C565.943 119.011 566.107 119.081 566.324 119.128C566.547 119.175 566.816 119.198 567.133 119.198H568.812C569.878 119.198 570.692 119.424 571.255 119.875C571.817 120.326 572.099 120.988 572.099 121.861C572.099 122.969 571.642 123.821 570.728 124.419C569.813 125.022 568.498 125.324 566.781 125.324ZM566.86 123.874C567.581 123.874 568.188 123.804 568.68 123.663C569.172 123.522 569.544 123.32 569.796 123.057C570.048 122.799 570.174 122.491 570.174 122.134C570.174 121.817 570.095 121.574 569.937 121.404C569.778 121.234 569.541 121.117 569.225 121.053C568.908 120.988 568.516 120.956 568.047 120.956H566.518C566.137 120.956 565.8 121.015 565.507 121.132C565.214 121.255 564.985 121.431 564.821 121.659C564.663 121.888 564.584 122.163 564.584 122.485C564.584 122.931 564.78 123.273 565.173 123.514C565.571 123.754 566.134 123.874 566.86 123.874ZM567.265 116.298C567.868 116.298 568.316 116.134 568.609 115.806C568.902 115.472 569.049 115.003 569.049 114.399C569.049 113.743 568.896 113.251 568.592 112.923C568.293 112.595 567.848 112.431 567.256 112.431C566.676 112.431 566.233 112.598 565.929 112.932C565.63 113.266 565.48 113.761 565.48 114.417C565.48 115.009 565.63 115.472 565.929 115.806C566.233 116.134 566.679 116.298 567.265 116.298ZM576.054 111.271V121H573.988V111.271H576.054ZM575.034 107.544C575.351 107.544 575.623 107.629 575.852 107.799C576.086 107.969 576.203 108.262 576.203 108.678C576.203 109.088 576.086 109.381 575.852 109.557C575.623 109.727 575.351 109.812 575.034 109.812C574.706 109.812 574.428 109.727 574.199 109.557C573.977 109.381 573.865 109.088 573.865 108.678C573.865 108.262 573.977 107.969 574.199 107.799C574.428 107.629 574.706 107.544 575.034 107.544ZM582.285 121.176C581.125 121.176 580.193 120.754 579.49 119.91C578.793 119.061 578.444 117.81 578.444 116.157C578.444 114.487 578.799 113.225 579.508 112.369C580.223 111.514 581.163 111.086 582.329 111.086C582.821 111.086 583.252 111.153 583.621 111.288C583.99 111.417 584.307 111.593 584.57 111.815C584.84 112.038 585.068 112.287 585.256 112.562H585.353C585.323 112.381 585.288 112.12 585.247 111.78C585.212 111.435 585.194 111.115 585.194 110.822V107.324H587.269V121H585.651L585.282 119.673H585.194C585.019 119.954 584.796 120.209 584.526 120.438C584.263 120.66 583.946 120.839 583.577 120.974C583.214 121.108 582.783 121.176 582.285 121.176ZM582.865 119.497C583.75 119.497 584.374 119.242 584.737 118.732C585.101 118.223 585.288 117.458 585.3 116.438V116.166C585.3 115.076 585.124 114.241 584.772 113.661C584.421 113.075 583.779 112.782 582.848 112.782C582.104 112.782 581.535 113.084 581.143 113.688C580.756 114.285 580.562 115.12 580.562 116.192C580.562 117.265 580.756 118.085 581.143 118.653C581.535 119.216 582.109 119.497 582.865 119.497ZM598.844 116.113C598.844 116.922 598.738 117.64 598.527 118.267C598.316 118.894 598.009 119.424 597.604 119.857C597.2 120.285 596.714 120.613 596.146 120.842C595.577 121.064 594.936 121.176 594.221 121.176C593.553 121.176 592.94 121.064 592.384 120.842C591.827 120.613 591.344 120.285 590.934 119.857C590.529 119.424 590.216 118.894 589.993 118.267C589.771 117.64 589.659 116.922 589.659 116.113C589.659 115.041 589.844 114.133 590.213 113.389C590.588 112.639 591.121 112.067 591.812 111.675C592.504 111.282 593.327 111.086 594.282 111.086C595.179 111.086 595.97 111.282 596.655 111.675C597.341 112.067 597.877 112.639 598.264 113.389C598.65 114.139 598.844 115.047 598.844 116.113ZM591.786 116.113C591.786 116.822 591.871 117.429 592.041 117.933C592.217 118.437 592.486 118.823 592.85 119.093C593.213 119.356 593.682 119.488 594.256 119.488C594.83 119.488 595.299 119.356 595.662 119.093C596.025 118.823 596.292 118.437 596.462 117.933C596.632 117.429 596.717 116.822 596.717 116.113C596.717 115.404 596.632 114.804 596.462 114.312C596.292 113.813 596.025 113.436 595.662 113.178C595.299 112.914 594.827 112.782 594.247 112.782C593.392 112.782 592.768 113.069 592.375 113.644C591.982 114.218 591.786 115.041 591.786 116.113ZM607.756 118.223C607.756 118.861 607.601 119.4 607.29 119.84C606.979 120.279 606.525 120.613 605.928 120.842C605.336 121.064 604.609 121.176 603.748 121.176C603.068 121.176 602.482 121.126 601.99 121.026C601.504 120.933 601.044 120.786 600.61 120.587V118.803C601.073 119.02 601.592 119.207 602.166 119.365C602.746 119.523 603.294 119.603 603.81 119.603C604.489 119.603 604.979 119.497 605.277 119.286C605.576 119.069 605.726 118.782 605.726 118.425C605.726 118.214 605.664 118.026 605.541 117.862C605.424 117.692 605.201 117.52 604.873 117.344C604.551 117.162 604.076 116.945 603.449 116.693C602.834 116.447 602.315 116.201 601.894 115.955C601.472 115.709 601.152 115.413 600.936 115.067C600.719 114.716 600.61 114.268 600.61 113.723C600.61 112.861 600.95 112.208 601.63 111.763C602.315 111.312 603.221 111.086 604.346 111.086C604.943 111.086 605.506 111.147 606.033 111.271C606.566 111.388 607.088 111.561 607.598 111.789L606.947 113.345C606.508 113.151 606.065 112.993 605.62 112.87C605.181 112.741 604.732 112.677 604.275 112.677C603.742 112.677 603.335 112.759 603.054 112.923C602.778 113.087 602.641 113.321 602.641 113.626C602.641 113.854 602.708 114.048 602.843 114.206C602.978 114.364 603.209 114.522 603.537 114.681C603.871 114.839 604.334 115.035 604.926 115.27C605.506 115.492 606.007 115.727 606.429 115.973C606.856 116.213 607.185 116.509 607.413 116.86C607.642 117.212 607.756 117.666 607.756 118.223ZM619.656 111.086C620.811 111.086 621.736 111.508 622.434 112.352C623.137 113.195 623.488 114.449 623.488 116.113C623.488 117.215 623.324 118.144 622.996 118.899C622.674 119.649 622.22 120.218 621.634 120.604C621.054 120.985 620.377 121.176 619.604 121.176C619.111 121.176 618.684 121.111 618.32 120.982C617.957 120.854 617.646 120.687 617.389 120.481C617.131 120.271 616.914 120.042 616.738 119.796H616.615C616.645 120.03 616.671 120.291 616.694 120.578C616.724 120.859 616.738 121.117 616.738 121.352V125.315H614.664V111.271H616.352L616.642 112.615H616.738C616.92 112.34 617.14 112.085 617.397 111.851C617.661 111.616 617.978 111.432 618.347 111.297C618.722 111.156 619.158 111.086 619.656 111.086ZM619.103 112.773C618.534 112.773 618.077 112.888 617.731 113.116C617.392 113.339 617.143 113.676 616.984 114.127C616.832 114.578 616.75 115.144 616.738 115.823V116.113C616.738 116.834 616.812 117.446 616.958 117.95C617.11 118.448 617.359 118.829 617.705 119.093C618.057 119.351 618.531 119.479 619.129 119.479C619.633 119.479 620.049 119.342 620.377 119.066C620.711 118.791 620.96 118.398 621.124 117.889C621.288 117.379 621.37 116.778 621.37 116.087C621.37 115.038 621.183 114.224 620.808 113.644C620.438 113.063 619.87 112.773 619.103 112.773ZM629.693 111.086C630.924 111.086 631.853 111.358 632.479 111.903C633.112 112.448 633.429 113.298 633.429 114.452V121H631.961L631.565 119.62H631.495C631.22 119.972 630.936 120.262 630.643 120.49C630.35 120.719 630.01 120.889 629.623 121C629.242 121.117 628.776 121.176 628.226 121.176C627.646 121.176 627.127 121.07 626.67 120.859C626.213 120.643 625.853 120.314 625.589 119.875C625.325 119.436 625.193 118.879 625.193 118.205C625.193 117.203 625.565 116.45 626.31 115.946C627.06 115.442 628.19 115.164 629.702 115.111L631.39 115.05V114.54C631.39 113.866 631.231 113.386 630.915 113.099C630.604 112.812 630.165 112.668 629.597 112.668C629.11 112.668 628.639 112.738 628.182 112.879C627.725 113.02 627.279 113.192 626.846 113.397L626.178 111.938C626.652 111.687 627.191 111.481 627.795 111.323C628.404 111.165 629.037 111.086 629.693 111.086ZM631.381 116.351L630.124 116.395C629.093 116.43 628.369 116.605 627.953 116.922C627.537 117.238 627.329 117.672 627.329 118.223C627.329 118.703 627.473 119.055 627.76 119.277C628.047 119.494 628.425 119.603 628.894 119.603C629.608 119.603 630.2 119.4 630.669 118.996C631.144 118.586 631.381 117.985 631.381 117.194V116.351ZM641.251 111.086C641.415 111.086 641.594 111.095 641.787 111.112C641.98 111.13 642.147 111.153 642.288 111.183L642.095 113.116C641.972 113.081 641.819 113.055 641.638 113.037C641.462 113.02 641.304 113.011 641.163 113.011C640.794 113.011 640.442 113.072 640.108 113.195C639.774 113.312 639.479 113.494 639.221 113.74C638.963 113.98 638.761 114.282 638.614 114.646C638.468 115.009 638.395 115.431 638.395 115.911V121H636.32V111.271H637.938L638.219 112.984H638.315C638.509 112.639 638.749 112.322 639.036 112.035C639.323 111.748 639.651 111.52 640.021 111.35C640.396 111.174 640.806 111.086 641.251 111.086ZM647.904 111.086C649.135 111.086 650.063 111.358 650.69 111.903C651.323 112.448 651.64 113.298 651.64 114.452V121H650.172L649.776 119.62H649.706C649.431 119.972 649.146 120.262 648.854 120.49C648.561 120.719 648.221 120.889 647.834 121C647.453 121.117 646.987 121.176 646.437 121.176C645.856 121.176 645.338 121.07 644.881 120.859C644.424 120.643 644.063 120.314 643.8 119.875C643.536 119.436 643.404 118.879 643.404 118.205C643.404 117.203 643.776 116.45 644.521 115.946C645.271 115.442 646.401 115.164 647.913 115.111L649.601 115.05V114.54C649.601 113.866 649.442 113.386 649.126 113.099C648.815 112.812 648.376 112.668 647.808 112.668C647.321 112.668 646.85 112.738 646.393 112.879C645.936 113.02 645.49 113.192 645.057 113.397L644.389 111.938C644.863 111.687 645.402 111.481 646.006 111.323C646.615 111.165 647.248 111.086 647.904 111.086ZM649.592 116.351L648.335 116.395C647.304 116.43 646.58 116.605 646.164 116.922C645.748 117.238 645.54 117.672 645.54 118.223C645.54 118.703 645.684 119.055 645.971 119.277C646.258 119.494 646.636 119.603 647.104 119.603C647.819 119.603 648.411 119.4 648.88 118.996C649.354 118.586 649.592 117.985 649.592 117.194V116.351ZM663.127 121.176C662.207 121.176 661.41 120.997 660.736 120.64C660.062 120.282 659.544 119.734 659.181 118.996C658.817 118.258 658.636 117.32 658.636 116.184C658.636 115 658.835 114.033 659.233 113.283C659.632 112.533 660.183 111.979 660.886 111.622C661.595 111.265 662.406 111.086 663.32 111.086C663.9 111.086 664.425 111.145 664.894 111.262C665.368 111.373 665.77 111.511 666.098 111.675L665.482 113.327C665.125 113.181 664.759 113.058 664.384 112.958C664.009 112.858 663.648 112.809 663.303 112.809C662.734 112.809 662.26 112.935 661.879 113.187C661.504 113.438 661.223 113.813 661.035 114.312C660.854 114.81 660.763 115.428 660.763 116.166C660.763 116.881 660.856 117.484 661.044 117.977C661.231 118.463 661.51 118.832 661.879 119.084C662.248 119.33 662.702 119.453 663.241 119.453C663.774 119.453 664.252 119.389 664.674 119.26C665.096 119.131 665.494 118.964 665.869 118.759V120.552C665.5 120.763 665.104 120.918 664.683 121.018C664.261 121.123 663.742 121.176 663.127 121.176ZM673.085 111.086C673.249 111.086 673.428 111.095 673.621 111.112C673.814 111.13 673.981 111.153 674.122 111.183L673.929 113.116C673.806 113.081 673.653 113.055 673.472 113.037C673.296 113.02 673.138 113.011 672.997 113.011C672.628 113.011 672.276 113.072 671.942 113.195C671.608 113.312 671.312 113.494 671.055 113.74C670.797 113.98 670.595 114.282 670.448 114.646C670.302 115.009 670.229 115.431 670.229 115.911V121H668.154V111.271H669.771L670.053 112.984H670.149C670.343 112.639 670.583 112.322 670.87 112.035C671.157 111.748 671.485 111.52 671.854 111.35C672.229 111.174 672.64 111.086 673.085 111.086ZM677.989 111.271V121H675.924V111.271H677.989ZM676.97 107.544C677.286 107.544 677.559 107.629 677.787 107.799C678.021 107.969 678.139 108.262 678.139 108.678C678.139 109.088 678.021 109.381 677.787 109.557C677.559 109.727 677.286 109.812 676.97 109.812C676.642 109.812 676.363 109.727 676.135 109.557C675.912 109.381 675.801 109.088 675.801 108.678C675.801 108.262 675.912 107.969 676.135 107.799C676.363 107.629 676.642 107.544 676.97 107.544ZM684.766 111.086C685.996 111.086 686.925 111.358 687.552 111.903C688.185 112.448 688.501 113.298 688.501 114.452V121H687.033L686.638 119.62H686.567C686.292 119.972 686.008 120.262 685.715 120.49C685.422 120.719 685.082 120.889 684.695 121C684.314 121.117 683.849 121.176 683.298 121.176C682.718 121.176 682.199 121.07 681.742 120.859C681.285 120.643 680.925 120.314 680.661 119.875C680.397 119.436 680.266 118.879 680.266 118.205C680.266 117.203 680.638 116.45 681.382 115.946C682.132 115.442 683.263 115.164 684.774 115.111L686.462 115.05V114.54C686.462 113.866 686.304 113.386 685.987 113.099C685.677 112.812 685.237 112.668 684.669 112.668C684.183 112.668 683.711 112.738 683.254 112.879C682.797 113.02 682.352 113.192 681.918 113.397L681.25 111.938C681.725 111.687 682.264 111.481 682.867 111.323C683.477 111.165 684.109 111.086 684.766 111.086ZM686.453 116.351L685.196 116.395C684.165 116.43 683.441 116.605 683.025 116.922C682.609 117.238 682.401 117.672 682.401 118.223C682.401 118.703 682.545 119.055 682.832 119.277C683.119 119.494 683.497 119.603 683.966 119.603C684.681 119.603 685.272 119.4 685.741 118.996C686.216 118.586 686.453 117.985 686.453 117.194V116.351ZM696.464 111.086C697.56 111.086 698.412 111.37 699.021 111.938C699.637 112.501 699.944 113.406 699.944 114.654V121H697.879V115.041C697.879 114.285 697.724 113.72 697.413 113.345C697.103 112.964 696.622 112.773 695.972 112.773C695.028 112.773 694.372 113.063 694.003 113.644C693.64 114.224 693.458 115.064 693.458 116.166V121H691.393V111.271H693.001L693.291 112.589H693.405C693.616 112.249 693.877 111.971 694.188 111.754C694.504 111.531 694.855 111.364 695.242 111.253C695.635 111.142 696.042 111.086 696.464 111.086ZM706.756 121.176C705.836 121.176 705.039 120.997 704.365 120.64C703.691 120.282 703.173 119.734 702.81 118.996C702.446 118.258 702.265 117.32 702.265 116.184C702.265 115 702.464 114.033 702.862 113.283C703.261 112.533 703.812 111.979 704.515 111.622C705.224 111.265 706.035 111.086 706.949 111.086C707.529 111.086 708.054 111.145 708.522 111.262C708.997 111.373 709.398 111.511 709.727 111.675L709.111 113.327C708.754 113.181 708.388 113.058 708.013 112.958C707.638 112.858 707.277 112.809 706.932 112.809C706.363 112.809 705.889 112.935 705.508 113.187C705.133 113.438 704.852 113.813 704.664 114.312C704.482 114.81 704.392 115.428 704.392 116.166C704.392 116.881 704.485 117.484 704.673 117.977C704.86 118.463 705.139 118.832 705.508 119.084C705.877 119.33 706.331 119.453 706.87 119.453C707.403 119.453 707.881 119.389 708.303 119.26C708.725 119.131 709.123 118.964 709.498 118.759V120.552C709.129 120.763 708.733 120.918 708.312 121.018C707.89 121.123 707.371 121.176 706.756 121.176ZM708.443 123.355C708.443 123.977 708.235 124.46 707.819 124.806C707.403 125.151 706.727 125.324 705.789 125.324C705.566 125.324 705.361 125.31 705.174 125.28C704.986 125.251 704.825 125.219 704.69 125.184V123.979C704.831 124.015 705.007 124.047 705.218 124.076C705.429 124.105 705.622 124.12 705.798 124.12C706.103 124.12 706.343 124.067 706.519 123.962C706.7 123.856 706.791 123.678 706.791 123.426C706.791 123.156 706.659 122.942 706.396 122.784C706.132 122.626 705.742 122.515 705.227 122.45L705.965 121H707.301L706.94 121.756C707.21 121.826 707.456 121.929 707.679 122.063C707.907 122.198 708.092 122.371 708.232 122.582C708.373 122.799 708.443 123.057 708.443 123.355ZM715.598 111.086C716.828 111.086 717.757 111.358 718.384 111.903C719.017 112.448 719.333 113.298 719.333 114.452V121H717.865L717.47 119.62H717.399C717.124 119.972 716.84 120.262 716.547 120.49C716.254 120.719 715.914 120.889 715.527 121C715.146 121.117 714.681 121.176 714.13 121.176C713.55 121.176 713.031 121.07 712.574 120.859C712.117 120.643 711.757 120.314 711.493 119.875C711.229 119.436 711.098 118.879 711.098 118.205C711.098 117.203 711.47 116.45 712.214 115.946C712.964 115.442 714.095 115.164 715.606 115.111L717.294 115.05V114.54C717.294 113.866 717.136 113.386 716.819 113.099C716.509 112.812 716.069 112.668 715.501 112.668C715.015 112.668 714.543 112.738 714.086 112.879C713.629 113.02 713.184 113.192 712.75 113.397L712.082 111.938C712.557 111.687 713.096 111.481 713.699 111.323C714.309 111.165 714.941 111.086 715.598 111.086ZM717.285 116.351L716.028 116.395C714.997 116.43 714.273 116.605 713.857 116.922C713.441 117.238 713.233 117.672 713.233 118.223C713.233 118.703 713.377 119.055 713.664 119.277C713.951 119.494 714.329 119.603 714.798 119.603C715.513 119.603 716.104 119.4 716.573 118.996C717.048 118.586 717.285 117.985 717.285 117.194V116.351ZM728.764 118.223C728.764 118.861 728.608 119.4 728.298 119.84C727.987 120.279 727.533 120.613 726.936 120.842C726.344 121.064 725.617 121.176 724.756 121.176C724.076 121.176 723.49 121.126 722.998 121.026C722.512 120.933 722.052 120.786 721.618 120.587V118.803C722.081 119.02 722.6 119.207 723.174 119.365C723.754 119.523 724.302 119.603 724.817 119.603C725.497 119.603 725.986 119.497 726.285 119.286C726.584 119.069 726.733 118.782 726.733 118.425C726.733 118.214 726.672 118.026 726.549 117.862C726.432 117.692 726.209 117.52 725.881 117.344C725.559 117.162 725.084 116.945 724.457 116.693C723.842 116.447 723.323 116.201 722.901 115.955C722.479 115.709 722.16 115.413 721.943 115.067C721.727 114.716 721.618 114.268 721.618 113.723C721.618 112.861 721.958 112.208 722.638 111.763C723.323 111.312 724.229 111.086 725.354 111.086C725.951 111.086 726.514 111.147 727.041 111.271C727.574 111.388 728.096 111.561 728.605 111.789L727.955 113.345C727.516 113.151 727.073 112.993 726.628 112.87C726.188 112.741 725.74 112.677 725.283 112.677C724.75 112.677 724.343 112.759 724.062 112.923C723.786 113.087 723.648 113.321 723.648 113.626C723.648 113.854 723.716 114.048 723.851 114.206C723.985 114.364 724.217 114.522 724.545 114.681C724.879 114.839 725.342 115.035 725.934 115.27C726.514 115.492 727.015 115.727 727.437 115.973C727.864 116.213 728.192 116.509 728.421 116.86C728.649 117.212 728.764 117.666 728.764 118.223ZM739.548 111.086C740.415 111.086 741.159 111.265 741.78 111.622C742.401 111.979 742.879 112.486 743.213 113.143C743.547 113.799 743.714 114.584 743.714 115.498V116.605H737.219C737.242 117.549 737.494 118.275 737.975 118.785C738.461 119.295 739.141 119.55 740.014 119.55C740.635 119.55 741.191 119.491 741.684 119.374C742.182 119.251 742.694 119.072 743.222 118.838V120.517C742.735 120.745 742.24 120.912 741.736 121.018C741.232 121.123 740.629 121.176 739.926 121.176C738.971 121.176 738.13 120.991 737.403 120.622C736.683 120.247 736.117 119.69 735.707 118.952C735.303 118.214 735.101 117.297 735.101 116.201C735.101 115.111 735.285 114.186 735.654 113.424C736.023 112.662 736.542 112.082 737.21 111.684C737.878 111.285 738.657 111.086 739.548 111.086ZM739.548 112.642C738.897 112.642 738.37 112.853 737.966 113.274C737.567 113.696 737.333 114.314 737.263 115.129H741.692C741.687 114.643 741.604 114.212 741.446 113.837C741.294 113.462 741.06 113.169 740.743 112.958C740.433 112.747 740.034 112.642 739.548 112.642ZM757.258 118.223C757.258 118.861 757.103 119.4 756.792 119.84C756.481 120.279 756.027 120.613 755.43 120.842C754.838 121.064 754.111 121.176 753.25 121.176C752.57 121.176 751.984 121.126 751.492 121.026C751.006 120.933 750.546 120.786 750.112 120.587V118.803C750.575 119.02 751.094 119.207 751.668 119.365C752.248 119.523 752.796 119.603 753.312 119.603C753.991 119.603 754.48 119.497 754.779 119.286C755.078 119.069 755.228 118.782 755.228 118.425C755.228 118.214 755.166 118.026 755.043 117.862C754.926 117.692 754.703 117.52 754.375 117.344C754.053 117.162 753.578 116.945 752.951 116.693C752.336 116.447 751.817 116.201 751.396 115.955C750.974 115.709 750.654 115.413 750.438 115.067C750.221 114.716 750.112 114.268 750.112 113.723C750.112 112.861 750.452 112.208 751.132 111.763C751.817 111.312 752.723 111.086 753.848 111.086C754.445 111.086 755.008 111.147 755.535 111.271C756.068 111.388 756.59 111.561 757.1 111.789L756.449 113.345C756.01 113.151 755.567 112.993 755.122 112.87C754.683 112.741 754.234 112.677 753.777 112.677C753.244 112.677 752.837 112.759 752.556 112.923C752.28 113.087 752.143 113.321 752.143 113.626C752.143 113.854 752.21 114.048 752.345 114.206C752.479 114.364 752.711 114.522 753.039 114.681C753.373 114.839 753.836 115.035 754.428 115.27C755.008 115.492 755.509 115.727 755.931 115.973C756.358 116.213 756.687 116.509 756.915 116.86C757.144 117.212 757.258 117.666 757.258 118.223ZM767.972 111.271V121H766.346L766.064 119.69H765.95C765.745 120.024 765.484 120.303 765.168 120.525C764.852 120.742 764.5 120.903 764.113 121.009C763.727 121.12 763.319 121.176 762.892 121.176C762.159 121.176 761.532 121.053 761.011 120.807C760.495 120.555 760.1 120.168 759.824 119.646C759.549 119.125 759.411 118.451 759.411 117.625V111.271H761.485V117.238C761.485 117.994 761.638 118.56 761.942 118.935C762.253 119.31 762.733 119.497 763.384 119.497C764.011 119.497 764.509 119.368 764.878 119.11C765.247 118.853 765.508 118.472 765.66 117.968C765.818 117.464 765.897 116.846 765.897 116.113V111.271H767.972ZM774.748 111.086C775.979 111.086 776.907 111.358 777.534 111.903C778.167 112.448 778.483 113.298 778.483 114.452V121H777.016L776.62 119.62H776.55C776.274 119.972 775.99 120.262 775.697 120.49C775.404 120.719 775.064 120.889 774.678 121C774.297 121.117 773.831 121.176 773.28 121.176C772.7 121.176 772.182 121.07 771.725 120.859C771.268 120.643 770.907 120.314 770.644 119.875C770.38 119.436 770.248 118.879 770.248 118.205C770.248 117.203 770.62 116.45 771.364 115.946C772.114 115.442 773.245 115.164 774.757 115.111L776.444 115.05V114.54C776.444 113.866 776.286 113.386 775.97 113.099C775.659 112.812 775.22 112.668 774.651 112.668C774.165 112.668 773.693 112.738 773.236 112.879C772.779 113.02 772.334 113.192 771.9 113.397L771.232 111.938C771.707 111.687 772.246 111.481 772.85 111.323C773.459 111.165 774.092 111.086 774.748 111.086ZM776.436 116.351L775.179 116.395C774.147 116.43 773.424 116.605 773.008 116.922C772.592 117.238 772.384 117.672 772.384 118.223C772.384 118.703 772.527 119.055 772.814 119.277C773.102 119.494 773.479 119.603 773.948 119.603C774.663 119.603 775.255 119.4 775.724 118.996C776.198 118.586 776.436 117.985 776.436 117.194V116.351ZM790.911 112.844H788.547V121H786.481V112.844H784.891V111.851L786.481 111.244V110.567C786.481 109.741 786.61 109.085 786.868 108.599C787.132 108.112 787.507 107.764 787.993 107.553C788.485 107.336 789.071 107.228 789.751 107.228C790.196 107.228 790.604 107.266 790.973 107.342C791.342 107.412 791.652 107.494 791.904 107.588L791.368 109.152C791.169 109.088 790.946 109.029 790.7 108.977C790.454 108.918 790.19 108.889 789.909 108.889C789.44 108.889 789.095 109.035 788.872 109.328C788.655 109.621 788.547 110.049 788.547 110.611V111.271H790.911V112.844ZM796.387 111.086C797.617 111.086 798.546 111.358 799.173 111.903C799.806 112.448 800.122 113.298 800.122 114.452V121H798.654L798.259 119.62H798.188C797.913 119.972 797.629 120.262 797.336 120.49C797.043 120.719 796.703 120.889 796.316 121C795.936 121.117 795.47 121.176 794.919 121.176C794.339 121.176 793.82 121.07 793.363 120.859C792.906 120.643 792.546 120.314 792.282 119.875C792.019 119.436 791.887 118.879 791.887 118.205C791.887 117.203 792.259 116.45 793.003 115.946C793.753 115.442 794.884 115.164 796.396 115.111L798.083 115.05V114.54C798.083 113.866 797.925 113.386 797.608 113.099C797.298 112.812 796.858 112.668 796.29 112.668C795.804 112.668 795.332 112.738 794.875 112.879C794.418 113.02 793.973 113.192 793.539 113.397L792.871 111.938C793.346 111.687 793.885 111.481 794.488 111.323C795.098 111.165 795.73 111.086 796.387 111.086ZM798.074 116.351L796.817 116.395C795.786 116.43 795.062 116.605 794.646 116.922C794.23 117.238 794.022 117.672 794.022 118.223C794.022 118.703 794.166 119.055 794.453 119.277C794.74 119.494 795.118 119.603 795.587 119.603C796.302 119.603 796.894 119.4 797.362 118.996C797.837 118.586 798.074 117.985 798.074 117.194V116.351ZM814.009 111.086C815.099 111.086 815.919 111.367 816.47 111.93C817.026 112.492 817.305 113.395 817.305 114.637V121H815.239V115.006C815.239 114.268 815.096 113.711 814.809 113.336C814.521 112.961 814.085 112.773 813.499 112.773C812.679 112.773 812.087 113.037 811.724 113.564C811.366 114.086 811.188 114.845 811.188 115.841V121H809.122V115.006C809.122 114.514 809.058 114.104 808.929 113.775C808.806 113.441 808.615 113.192 808.357 113.028C808.1 112.858 807.774 112.773 807.382 112.773C806.813 112.773 806.359 112.902 806.02 113.16C805.686 113.418 805.445 113.799 805.299 114.303C805.152 114.801 805.079 115.413 805.079 116.14V121H803.014V111.271H804.622L804.912 112.58H805.026C805.226 112.24 805.472 111.962 805.765 111.745C806.063 111.522 806.395 111.358 806.758 111.253C807.121 111.142 807.499 111.086 807.892 111.086C808.618 111.086 809.23 111.215 809.729 111.473C810.227 111.725 810.599 112.111 810.845 112.633H811.003C811.308 112.105 811.732 111.716 812.277 111.464C812.822 111.212 813.399 111.086 814.009 111.086ZM822.253 121H820.188V111.271H822.253V121ZM824.222 107.21V107.386C824.081 107.556 823.891 107.761 823.65 108.001C823.41 108.235 823.149 108.484 822.868 108.748C822.587 109.006 822.309 109.255 822.033 109.495C821.758 109.729 821.509 109.929 821.286 110.093H819.906V109.864C820.1 109.642 820.313 109.375 820.548 109.064C820.788 108.754 821.022 108.435 821.251 108.106C821.485 107.778 821.682 107.479 821.84 107.21H824.222ZM827.289 121H825.215V107.324H827.289V121ZM832.308 111.271V121H830.242V111.271H832.308ZM831.288 107.544C831.604 107.544 831.877 107.629 832.105 107.799C832.34 107.969 832.457 108.262 832.457 108.678C832.457 109.088 832.34 109.381 832.105 109.557C831.877 109.727 831.604 109.812 831.288 109.812C830.96 109.812 830.682 109.727 830.453 109.557C830.23 109.381 830.119 109.088 830.119 108.678C830.119 108.262 830.23 107.969 830.453 107.799C830.682 107.629 830.96 107.544 831.288 107.544ZM839.084 111.086C840.314 111.086 841.243 111.358 841.87 111.903C842.503 112.448 842.819 113.298 842.819 114.452V121H841.352L840.956 119.62H840.886C840.61 119.972 840.326 120.262 840.033 120.49C839.74 120.719 839.4 120.889 839.014 121C838.633 121.117 838.167 121.176 837.616 121.176C837.036 121.176 836.518 121.07 836.061 120.859C835.604 120.643 835.243 120.314 834.979 119.875C834.716 119.436 834.584 118.879 834.584 118.205C834.584 117.203 834.956 116.45 835.7 115.946C836.45 115.442 837.581 115.164 839.093 115.111L840.78 115.05V114.54C840.78 113.866 840.622 113.386 840.306 113.099C839.995 112.812 839.556 112.668 838.987 112.668C838.501 112.668 838.029 112.738 837.572 112.879C837.115 113.02 836.67 113.192 836.236 113.397L835.568 111.938C836.043 111.687 836.582 111.481 837.186 111.323C837.795 111.165 838.428 111.086 839.084 111.086ZM840.771 116.351L839.515 116.395C838.483 116.43 837.76 116.605 837.344 116.922C836.928 117.238 836.72 117.672 836.72 118.223C836.72 118.703 836.863 119.055 837.15 119.277C837.438 119.494 837.815 119.603 838.284 119.603C838.999 119.603 839.591 119.4 840.06 118.996C840.534 118.586 840.771 117.985 840.771 117.194V116.351ZM845.412 119.91C845.412 119.43 845.535 119.093 845.781 118.899C846.033 118.7 846.338 118.601 846.695 118.601C847.053 118.601 847.357 118.7 847.609 118.899C847.867 119.093 847.996 119.43 847.996 119.91C847.996 120.379 847.867 120.719 847.609 120.93C847.357 121.135 847.053 121.237 846.695 121.237C846.338 121.237 846.033 121.135 845.781 120.93C845.535 120.719 845.412 120.379 845.412 119.91Z" fill="white"/>
<defs>
<filter id="filter0_d_2060_3259" x="0" y="0" width="188" height="188" filterUnits="userSpaceOnUse" color-interpolation-filters="sRGB">
<feFlood flood-opacity="0" result="BackgroundImageFix"/>
<feColorMatrix in="SourceAlpha" type="matrix" values="0 0 0 0 0 0 0 0 0 0 0 0 0 0 0 0 0 0 127 0" result="hardAlpha"/>
<feOffset dx="3" dy="4"/>
<feGaussianBlur stdDeviation="2"/>
<feComposite in2="hardAlpha" operator="out"/>
<feColorMatrix type="matrix" values="0 0 0 0 0 0 0 0 0 0 0 0 0 0 0 0 0 0 0.25 0"/>
<feBlend mode="normal" in2="BackgroundImageFix" result="effect1_dropShadow_2060_3259"/>
<feBlend mode="normal" in="SourceGraphic" in2="effect1_dropShadow_2060_3259" result="shape"/>
</filter>
<clipPath id="clip0_2060_3259">
<rect width="152.308" height="152.308" fill="white" transform="translate(14.8472 13.8457)"/>
</clipPath>
</defs>
</svg>
