<svg width="659" height="217" viewBox="0 0 659 217" fill="none" xmlns="http://www.w3.org/2000/svg">
<path d="M101.719 98L98.4062 87.125H81.75L78.4375 98H68L84.125 52.125H95.9688L112.156 98H101.719ZM96.0938 79L92.7812 68.375C92.5729 67.6667 92.2917 66.7604 91.9375 65.6562C91.6042 64.5312 91.2604 63.3958 90.9062 62.25C90.5729 61.0833 90.3021 60.0729 90.0938 59.2188C89.8854 60.0729 89.5938 61.1354 89.2188 62.4062C88.8646 63.6562 88.5208 64.8438 88.1875 65.9688C87.8542 67.0938 87.6146 67.8958 87.4688 68.375L84.1875 79H96.0938ZM131.906 91.0312C132.948 91.0312 133.958 90.9271 134.938 90.7188C135.938 90.5104 136.927 90.25 137.906 89.9375V97.0312C136.885 97.4896 135.615 97.8646 134.094 98.1562C132.594 98.4688 130.948 98.625 129.156 98.625C127.073 98.625 125.198 98.2917 123.531 97.625C121.885 96.9375 120.583 95.7604 119.625 94.0938C118.688 92.4062 118.219 90.0625 118.219 87.0625V70.2188H113.656V66.1875L118.906 63L121.656 55.625H127.75V63.0625H137.531V70.2188H127.75V87.0625C127.75 88.3958 128.125 89.3958 128.875 90.0625C129.646 90.7083 130.656 91.0312 131.906 91.0312ZM159.406 62.4062C162.635 62.4062 165.417 63.0312 167.75 64.2812C170.083 65.5104 171.885 67.3021 173.156 69.6562C174.427 72.0104 175.062 74.8854 175.062 78.2812V82.9062H152.531C152.635 85.5938 153.438 87.7083 154.938 89.25C156.458 90.7708 158.562 91.5312 161.25 91.5312C163.479 91.5312 165.521 91.3021 167.375 90.8438C169.229 90.3854 171.135 89.6979 173.094 88.7812V96.1562C171.365 97.0104 169.552 97.6354 167.656 98.0312C165.781 98.4271 163.5 98.625 160.812 98.625C157.312 98.625 154.208 97.9792 151.5 96.6875C148.812 95.3958 146.698 93.4271 145.156 90.7812C143.635 88.1354 142.875 84.8021 142.875 80.7812C142.875 76.6979 143.562 73.3021 144.938 70.5938C146.333 67.8646 148.271 65.8229 150.75 64.4688C153.229 63.0938 156.115 62.4062 159.406 62.4062ZM159.469 69.1875C157.615 69.1875 156.073 69.7812 154.844 70.9688C153.635 72.1562 152.938 74.0208 152.75 76.5625H166.125C166.104 75.1458 165.844 73.8854 165.344 72.7812C164.865 71.6771 164.135 70.8021 163.156 70.1562C162.198 69.5104 160.969 69.1875 159.469 69.1875ZM202.656 62.4062C206.385 62.4062 209.385 63.4271 211.656 65.4688C213.927 67.4896 215.062 70.7396 215.062 75.2188V98H205.531V77.5938C205.531 75.0938 205.073 73.2083 204.156 71.9375C203.26 70.6667 201.844 70.0312 199.906 70.0312C196.99 70.0312 195 71.0208 193.938 73C192.875 74.9792 192.344 77.8333 192.344 81.5625V98H182.812V63.0625H190.094L191.375 67.5312H191.906C192.656 66.3229 193.583 65.3438 194.688 64.5938C195.812 63.8438 197.052 63.2917 198.406 62.9375C199.781 62.5833 201.198 62.4062 202.656 62.4062ZM239.062 98.625C235.604 98.625 232.656 98 230.219 96.75C227.781 95.4792 225.927 93.5208 224.656 90.875C223.385 88.2292 222.75 84.8438 222.75 80.7188C222.75 76.4479 223.469 72.9688 224.906 70.2812C226.365 67.5729 228.375 65.5833 230.938 64.3125C233.521 63.0417 236.51 62.4062 239.906 62.4062C242.323 62.4062 244.406 62.6458 246.156 63.125C247.927 63.5833 249.469 64.1354 250.781 64.7812L247.969 72.1562C246.469 71.5521 245.073 71.0625 243.781 70.6875C242.49 70.2917 241.198 70.0938 239.906 70.0938C238.24 70.0938 236.854 70.4896 235.75 71.2812C234.646 72.0521 233.823 73.2188 233.281 74.7812C232.74 76.3438 232.469 78.3021 232.469 80.6562C232.469 82.9688 232.76 84.8854 233.344 86.4062C233.927 87.9271 234.771 89.0625 235.875 89.8125C236.979 90.5417 238.323 90.9062 239.906 90.9062C241.885 90.9062 243.646 90.6458 245.188 90.125C246.729 89.5833 248.229 88.8333 249.688 87.875V96.0312C248.229 96.9479 246.698 97.6042 245.094 98C243.51 98.4167 241.5 98.625 239.062 98.625ZM245.938 105.812C245.938 108.208 245.24 110.062 243.844 111.375C242.448 112.708 239.927 113.375 236.281 113.375C235.344 113.375 234.5 113.312 233.75 113.188C233 113.062 232.323 112.906 231.719 112.719V107.469C232.323 107.615 233.062 107.76 233.938 107.906C234.812 108.052 235.562 108.125 236.188 108.125C236.792 108.125 237.312 107.979 237.75 107.688C238.208 107.417 238.438 106.917 238.438 106.188C238.438 105.417 238.052 104.729 237.281 104.125C236.51 103.521 235.167 103.083 233.25 102.812L235.688 98H241.719L240.875 99.9062C241.729 100.177 242.542 100.573 243.312 101.094C244.083 101.635 244.708 102.292 245.188 103.062C245.688 103.854 245.938 104.771 245.938 105.812ZM272.125 62.3438C276.812 62.3438 280.406 63.3646 282.906 65.4062C285.406 67.4479 286.656 70.5521 286.656 74.7188V98H280L278.156 93.25H277.906C276.906 94.5 275.885 95.5208 274.844 96.3125C273.802 97.1042 272.604 97.6875 271.25 98.0625C269.896 98.4375 268.25 98.625 266.312 98.625C264.25 98.625 262.396 98.2292 260.75 97.4375C259.125 96.6458 257.844 95.4375 256.906 93.8125C255.969 92.1667 255.5 90.0833 255.5 87.5625C255.5 83.8542 256.802 81.125 259.406 79.375C262.01 77.6042 265.917 76.625 271.125 76.4375L277.188 76.25V74.7188C277.188 72.8854 276.708 71.5417 275.75 70.6875C274.792 69.8333 273.458 69.4062 271.75 69.4062C270.062 69.4062 268.406 69.6458 266.781 70.125C265.156 70.6042 263.531 71.2083 261.906 71.9375L258.75 65.5C260.604 64.5208 262.677 63.75 264.969 63.1875C267.281 62.625 269.667 62.3438 272.125 62.3438ZM277.188 81.8125L273.5 81.9375C270.417 82.0208 268.271 82.5729 267.062 83.5938C265.875 84.6146 265.281 85.9583 265.281 87.625C265.281 89.0833 265.708 90.125 266.562 90.75C267.417 91.3542 268.531 91.6562 269.906 91.6562C271.948 91.6562 273.667 91.0521 275.062 89.8438C276.479 88.6354 277.188 86.9167 277.188 84.6875V81.8125ZM259.156 59.2812C259.281 57.6146 259.583 56.1771 260.062 54.9688C260.542 53.7396 261.167 52.7396 261.938 51.9688C262.708 51.1771 263.573 50.5938 264.531 50.2188C265.51 49.8229 266.552 49.625 267.656 49.625C268.51 49.625 269.344 49.7917 270.156 50.125C270.99 50.4375 271.802 50.8125 272.594 51.25C273.406 51.6875 274.198 52.0729 274.969 52.4062C275.76 52.7188 276.531 52.875 277.281 52.875C277.906 52.875 278.51 52.6042 279.094 52.0625C279.698 51.5 280.135 50.6667 280.406 49.5625H285.062C284.812 52.8542 283.875 55.2917 282.25 56.875C280.625 58.4375 278.729 59.2188 276.562 59.2188C275.708 59.2188 274.865 59.0521 274.031 58.7188C273.219 58.3854 272.406 58.0104 271.594 57.5938C270.802 57.1562 270.021 56.7708 269.25 56.4375C268.479 56.1042 267.719 55.9375 266.969 55.9375C266.323 55.9375 265.698 56.2188 265.094 56.7812C264.51 57.3229 264.083 58.1562 263.812 59.2812H259.156ZM328.25 80.4688C328.25 83.3854 327.854 85.9688 327.062 88.2188C326.292 90.4688 325.156 92.375 323.656 93.9375C322.177 95.4792 320.385 96.6458 318.281 97.4375C316.198 98.2292 313.844 98.625 311.219 98.625C308.76 98.625 306.5 98.2292 304.438 97.4375C302.396 96.6458 300.615 95.4792 299.094 93.9375C297.594 92.375 296.427 90.4688 295.594 88.2188C294.781 85.9688 294.375 83.3854 294.375 80.4688C294.375 76.5938 295.062 73.3125 296.438 70.625C297.812 67.9375 299.771 65.8958 302.312 64.5C304.854 63.1042 307.885 62.4062 311.406 62.4062C314.677 62.4062 317.573 63.1042 320.094 64.5C322.635 65.8958 324.625 67.9375 326.062 70.625C327.521 73.3125 328.25 76.5938 328.25 80.4688ZM304.094 80.4688C304.094 82.7604 304.344 84.6875 304.844 86.25C305.344 87.8125 306.125 88.9896 307.188 89.7812C308.25 90.5729 309.635 90.9688 311.344 90.9688C313.031 90.9688 314.396 90.5729 315.438 89.7812C316.5 88.9896 317.271 87.8125 317.75 86.25C318.25 84.6875 318.5 82.7604 318.5 80.4688C318.5 78.1562 318.25 76.2396 317.75 74.7188C317.271 73.1771 316.5 72.0208 315.438 71.25C314.375 70.4792 312.99 70.0938 311.281 70.0938C308.76 70.0938 306.927 70.9583 305.781 72.6875C304.656 74.4167 304.094 77.0104 304.094 80.4688Z" fill="#D27361"/>
<path d="M460.539 144.484C460.539 146.516 460.047 148.281 459.062 149.781C458.078 151.281 456.641 152.438 454.75 153.25C452.875 154.062 450.594 154.469 447.906 154.469C446.719 154.469 445.555 154.391 444.414 154.234C443.289 154.078 442.203 153.852 441.156 153.555C440.125 153.242 439.141 152.859 438.203 152.406V145.656C439.828 146.375 441.516 147.023 443.266 147.602C445.016 148.18 446.75 148.469 448.469 148.469C449.656 148.469 450.609 148.312 451.328 148C452.062 147.688 452.594 147.258 452.922 146.711C453.25 146.164 453.414 145.539 453.414 144.836C453.414 143.977 453.125 143.242 452.547 142.633C451.969 142.023 451.172 141.453 450.156 140.922C449.156 140.391 448.023 139.82 446.758 139.211C445.961 138.836 445.094 138.383 444.156 137.852C443.219 137.305 442.328 136.641 441.484 135.859C440.641 135.078 439.945 134.133 439.398 133.023C438.867 131.898 438.602 130.555 438.602 128.992C438.602 126.945 439.07 125.195 440.008 123.742C440.945 122.289 442.281 121.18 444.016 120.414C445.766 119.633 447.828 119.242 450.203 119.242C451.984 119.242 453.68 119.453 455.289 119.875C456.914 120.281 458.609 120.875 460.375 121.656L458.031 127.305C456.453 126.664 455.039 126.172 453.789 125.828C452.539 125.469 451.266 125.289 449.969 125.289C449.062 125.289 448.289 125.438 447.648 125.734C447.008 126.016 446.523 126.422 446.195 126.953C445.867 127.469 445.703 128.07 445.703 128.758C445.703 129.57 445.938 130.258 446.406 130.82C446.891 131.367 447.609 131.898 448.562 132.414C449.531 132.93 450.734 133.531 452.172 134.219C453.922 135.047 455.414 135.914 456.648 136.82C457.898 137.711 458.859 138.766 459.531 139.984C460.203 141.188 460.539 142.688 460.539 144.484ZM476.992 127.305C479.414 127.305 481.5 127.773 483.25 128.711C485 129.633 486.352 130.977 487.305 132.742C488.258 134.508 488.734 136.664 488.734 139.211V142.68H471.836C471.914 144.695 472.516 146.281 473.641 147.438C474.781 148.578 476.359 149.148 478.375 149.148C480.047 149.148 481.578 148.977 482.969 148.633C484.359 148.289 485.789 147.773 487.258 147.086V152.617C485.961 153.258 484.602 153.727 483.18 154.023C481.773 154.32 480.062 154.469 478.047 154.469C475.422 154.469 473.094 153.984 471.062 153.016C469.047 152.047 467.461 150.57 466.305 148.586C465.164 146.602 464.594 144.102 464.594 141.086C464.594 138.023 465.109 135.477 466.141 133.445C467.188 131.398 468.641 129.867 470.5 128.852C472.359 127.82 474.523 127.305 476.992 127.305ZM477.039 132.391C475.648 132.391 474.492 132.836 473.57 133.727C472.664 134.617 472.141 136.016 472 137.922H482.031C482.016 136.859 481.82 135.914 481.445 135.086C481.086 134.258 480.539 133.602 479.805 133.117C479.086 132.633 478.164 132.391 477.039 132.391ZM509.43 127.305C512.227 127.305 514.477 128.07 516.18 129.602C517.883 131.117 518.734 133.555 518.734 136.914V154H511.586V138.695C511.586 136.82 511.242 135.406 510.555 134.453C509.883 133.5 508.82 133.023 507.367 133.023C505.18 133.023 503.688 133.766 502.891 135.25C502.094 136.734 501.695 138.875 501.695 141.672V154H494.547V127.797H500.008L500.969 131.148H501.367C501.93 130.242 502.625 129.508 503.453 128.945C504.297 128.383 505.227 127.969 506.242 127.703C507.273 127.438 508.336 127.305 509.43 127.305ZM544.375 146.219C544.375 148 543.953 149.508 543.109 150.742C542.281 151.961 541.039 152.891 539.383 153.531C537.727 154.156 535.664 154.469 533.195 154.469C531.367 154.469 529.797 154.352 528.484 154.117C527.188 153.883 525.875 153.492 524.547 152.945V147.039C525.969 147.68 527.492 148.211 529.117 148.633C530.758 149.039 532.195 149.242 533.43 149.242C534.82 149.242 535.812 149.039 536.406 148.633C537.016 148.211 537.32 147.664 537.32 146.992C537.32 146.555 537.195 146.164 536.945 145.82C536.711 145.461 536.195 145.062 535.398 144.625C534.602 144.172 533.352 143.586 531.648 142.867C530.008 142.18 528.656 141.484 527.594 140.781C526.547 140.078 525.766 139.25 525.25 138.297C524.75 137.328 524.5 136.102 524.5 134.617C524.5 132.195 525.438 130.375 527.312 129.156C529.203 127.922 531.727 127.305 534.883 127.305C536.508 127.305 538.055 127.469 539.523 127.797C541.008 128.125 542.531 128.648 544.094 129.367L541.938 134.523C540.641 133.961 539.414 133.5 538.258 133.141C537.117 132.781 535.953 132.602 534.766 132.602C533.719 132.602 532.93 132.742 532.398 133.023C531.867 133.305 531.602 133.734 531.602 134.312C531.602 134.734 531.734 135.109 532 135.438C532.281 135.766 532.812 136.133 533.594 136.539C534.391 136.93 535.555 137.438 537.086 138.062C538.57 138.672 539.859 139.312 540.953 139.984C542.047 140.641 542.891 141.461 543.484 142.445C544.078 143.414 544.375 144.672 544.375 146.219ZM560.688 127.258C564.203 127.258 566.898 128.023 568.773 129.555C570.648 131.086 571.586 133.414 571.586 136.539V154H566.594L565.211 150.438H565.023C564.273 151.375 563.508 152.141 562.727 152.734C561.945 153.328 561.047 153.766 560.031 154.047C559.016 154.328 557.781 154.469 556.328 154.469C554.781 154.469 553.391 154.172 552.156 153.578C550.938 152.984 549.977 152.078 549.273 150.859C548.57 149.625 548.219 148.062 548.219 146.172C548.219 143.391 549.195 141.344 551.148 140.031C553.102 138.703 556.031 137.969 559.938 137.828L564.484 137.688V136.539C564.484 135.164 564.125 134.156 563.406 133.516C562.688 132.875 561.688 132.555 560.406 132.555C559.141 132.555 557.898 132.734 556.68 133.094C555.461 133.453 554.242 133.906 553.023 134.453L550.656 129.625C552.047 128.891 553.602 128.312 555.32 127.891C557.055 127.469 558.844 127.258 560.688 127.258ZM564.484 141.859L561.719 141.953C559.406 142.016 557.797 142.43 556.891 143.195C556 143.961 555.555 144.969 555.555 146.219C555.555 147.312 555.875 148.094 556.516 148.562C557.156 149.016 557.992 149.242 559.023 149.242C560.555 149.242 561.844 148.789 562.891 147.883C563.953 146.977 564.484 145.688 564.484 144.016V141.859ZM589.609 154.469C587.016 154.469 584.805 154 582.977 153.062C581.148 152.109 579.758 150.641 578.805 148.656C577.852 146.672 577.375 144.133 577.375 141.039C577.375 137.836 577.914 135.227 578.992 133.211C580.086 131.18 581.594 129.688 583.516 128.734C585.453 127.781 587.695 127.305 590.242 127.305C592.055 127.305 593.617 127.484 594.93 127.844C596.258 128.188 597.414 128.602 598.398 129.086L596.289 134.617C595.164 134.164 594.117 133.797 593.148 133.516C592.18 133.219 591.211 133.07 590.242 133.07C588.992 133.07 587.953 133.367 587.125 133.961C586.297 134.539 585.68 135.414 585.273 136.586C584.867 137.758 584.664 139.227 584.664 140.992C584.664 142.727 584.883 144.164 585.32 145.305C585.758 146.445 586.391 147.297 587.219 147.859C588.047 148.406 589.055 148.68 590.242 148.68C591.727 148.68 593.047 148.484 594.203 148.094C595.359 147.688 596.484 147.125 597.578 146.406V152.523C596.484 153.211 595.336 153.703 594.133 154C592.945 154.312 591.438 154.469 589.609 154.469ZM594.766 159.859C594.766 161.656 594.242 163.047 593.195 164.031C592.148 165.031 590.258 165.531 587.523 165.531C586.82 165.531 586.188 165.484 585.625 165.391C585.062 165.297 584.555 165.18 584.102 165.039V161.102C584.555 161.211 585.109 161.32 585.766 161.43C586.422 161.539 586.984 161.594 587.453 161.594C587.906 161.594 588.297 161.484 588.625 161.266C588.969 161.062 589.141 160.688 589.141 160.141C589.141 159.562 588.852 159.047 588.273 158.594C587.695 158.141 586.688 157.812 585.25 157.609L587.078 154H591.602L590.969 155.43C591.609 155.633 592.219 155.93 592.797 156.32C593.375 156.727 593.844 157.219 594.203 157.797C594.578 158.391 594.766 159.078 594.766 159.859ZM614.406 127.258C617.922 127.258 620.617 128.023 622.492 129.555C624.367 131.086 625.305 133.414 625.305 136.539V154H620.312L618.93 150.438H618.742C617.992 151.375 617.227 152.141 616.445 152.734C615.664 153.328 614.766 153.766 613.75 154.047C612.734 154.328 611.5 154.469 610.047 154.469C608.5 154.469 607.109 154.172 605.875 153.578C604.656 152.984 603.695 152.078 602.992 150.859C602.289 149.625 601.938 148.062 601.938 146.172C601.938 143.391 602.914 141.344 604.867 140.031C606.82 138.703 609.75 137.969 613.656 137.828L618.203 137.688V136.539C618.203 135.164 617.844 134.156 617.125 133.516C616.406 132.875 615.406 132.555 614.125 132.555C612.859 132.555 611.617 132.734 610.398 133.094C609.18 133.453 607.961 133.906 606.742 134.453L604.375 129.625C605.766 128.891 607.32 128.312 609.039 127.891C610.773 127.469 612.562 127.258 614.406 127.258ZM618.203 141.859L615.438 141.953C613.125 142.016 611.516 142.43 610.609 143.195C609.719 143.961 609.273 144.969 609.273 146.219C609.273 147.312 609.594 148.094 610.234 148.562C610.875 149.016 611.711 149.242 612.742 149.242C614.273 149.242 615.562 148.789 616.609 147.883C617.672 146.977 618.203 145.688 618.203 144.016V141.859ZM604.68 124.961C604.773 123.711 605 122.633 605.359 121.727C605.719 120.805 606.188 120.055 606.766 119.477C607.344 118.883 607.992 118.445 608.711 118.164C609.445 117.867 610.227 117.719 611.055 117.719C611.695 117.719 612.32 117.844 612.93 118.094C613.555 118.328 614.164 118.609 614.758 118.938C615.367 119.266 615.961 119.555 616.539 119.805C617.133 120.039 617.711 120.156 618.273 120.156C618.742 120.156 619.195 119.953 619.633 119.547C620.086 119.125 620.414 118.5 620.617 117.672H624.109C623.922 120.141 623.219 121.969 622 123.156C620.781 124.328 619.359 124.914 617.734 124.914C617.094 124.914 616.461 124.789 615.836 124.539C615.227 124.289 614.617 124.008 614.008 123.695C613.414 123.367 612.828 123.078 612.25 122.828C611.672 122.578 611.102 122.453 610.539 122.453C610.055 122.453 609.586 122.664 609.133 123.086C608.695 123.492 608.375 124.117 608.172 124.961H604.68ZM656.5 140.852C656.5 143.039 656.203 144.977 655.609 146.664C655.031 148.352 654.18 149.781 653.055 150.953C651.945 152.109 650.602 152.984 649.023 153.578C647.461 154.172 645.695 154.469 643.727 154.469C641.883 154.469 640.188 154.172 638.641 153.578C637.109 152.984 635.773 152.109 634.633 150.953C633.508 149.781 632.633 148.352 632.008 146.664C631.398 144.977 631.094 143.039 631.094 140.852C631.094 137.945 631.609 135.484 632.641 133.469C633.672 131.453 635.141 129.922 637.047 128.875C638.953 127.828 641.227 127.305 643.867 127.305C646.32 127.305 648.492 127.828 650.383 128.875C652.289 129.922 653.781 131.453 654.859 133.469C655.953 135.484 656.5 137.945 656.5 140.852ZM638.383 140.852C638.383 142.57 638.57 144.016 638.945 145.188C639.32 146.359 639.906 147.242 640.703 147.836C641.5 148.43 642.539 148.727 643.82 148.727C645.086 148.727 646.109 148.43 646.891 147.836C647.688 147.242 648.266 146.359 648.625 145.188C649 144.016 649.188 142.57 649.188 140.852C649.188 139.117 649 137.68 648.625 136.539C648.266 135.383 647.688 134.516 646.891 133.938C646.094 133.359 645.055 133.07 643.773 133.07C641.883 133.07 640.508 133.719 639.648 135.016C638.805 136.312 638.383 138.258 638.383 140.852Z" fill="#BD5845"/>
<path d="M18.8203 154L10.5703 127.117H10.3594C10.3906 127.758 10.4375 128.727 10.5 130.023C10.5781 131.305 10.6484 132.672 10.7109 134.125C10.7734 135.578 10.8047 136.891 10.8047 138.062V154H4.3125V119.734H14.2031L22.3125 145.938H22.4531L31.0547 119.734H40.9453V154H34.1719V137.781C34.1719 136.703 34.1875 135.461 34.2188 134.055C34.2656 132.648 34.3203 131.312 34.3828 130.047C34.4453 128.766 34.4922 127.805 34.5234 127.164H34.3125L25.4766 154H18.8203ZM72.8438 140.852C72.8438 143.039 72.5469 144.977 71.9531 146.664C71.375 148.352 70.5234 149.781 69.3984 150.953C68.2891 152.109 66.9453 152.984 65.3672 153.578C63.8047 154.172 62.0391 154.469 60.0703 154.469C58.2266 154.469 56.5312 154.172 54.9844 153.578C53.4531 152.984 52.1172 152.109 50.9766 150.953C49.8516 149.781 48.9766 148.352 48.3516 146.664C47.7422 144.977 47.4375 143.039 47.4375 140.852C47.4375 137.945 47.9531 135.484 48.9844 133.469C50.0156 131.453 51.4844 129.922 53.3906 128.875C55.2969 127.828 57.5703 127.305 60.2109 127.305C62.6641 127.305 64.8359 127.828 66.7266 128.875C68.6328 129.922 70.125 131.453 71.2031 133.469C72.2969 135.484 72.8438 137.945 72.8438 140.852ZM54.7266 140.852C54.7266 142.57 54.9141 144.016 55.2891 145.188C55.6641 146.359 56.25 147.242 57.0469 147.836C57.8438 148.43 58.8828 148.727 60.1641 148.727C61.4297 148.727 62.4531 148.43 63.2344 147.836C64.0312 147.242 64.6094 146.359 64.9688 145.188C65.3438 144.016 65.5312 142.57 65.5312 140.852C65.5312 139.117 65.3438 137.68 64.9688 136.539C64.6094 135.383 64.0312 134.516 63.2344 133.938C62.4375 133.359 61.3984 133.07 60.1172 133.07C58.2266 133.07 56.8516 133.719 55.9922 135.016C55.1484 136.312 54.7266 138.258 54.7266 140.852ZM89.7891 148.773C90.5703 148.773 91.3281 148.695 92.0625 148.539C92.8125 148.383 93.5547 148.188 94.2891 147.953V153.273C93.5234 153.617 92.5703 153.898 91.4297 154.117C90.3047 154.352 89.0703 154.469 87.7266 154.469C86.1641 154.469 84.7578 154.219 83.5078 153.719C82.2734 153.203 81.2969 152.32 80.5781 151.07C79.875 149.805 79.5234 148.047 79.5234 145.797V133.164H76.1016V130.141L80.0391 127.75L82.1016 122.219H86.6719V127.797H94.0078V133.164H86.6719V145.797C86.6719 146.797 86.9531 147.547 87.5156 148.047C88.0938 148.531 88.8516 148.773 89.7891 148.773ZM106.758 127.797V154H99.6094V127.797H106.758ZM103.195 117.531C104.258 117.531 105.172 117.781 105.938 118.281C106.703 118.766 107.086 119.68 107.086 121.023C107.086 122.352 106.703 123.273 105.938 123.789C105.172 124.289 104.258 124.539 103.195 124.539C102.117 124.539 101.195 124.289 100.43 123.789C99.6797 123.273 99.3047 122.352 99.3047 121.023C99.3047 119.68 99.6797 118.766 100.43 118.281C101.195 117.781 102.117 117.531 103.195 117.531ZM120.516 154L110.531 127.797H118.008L123.07 142.727C123.352 143.602 123.57 144.523 123.727 145.492C123.898 146.461 124.016 147.328 124.078 148.094H124.266C124.312 147.266 124.422 146.383 124.594 145.445C124.781 144.508 125.023 143.602 125.32 142.727L130.359 127.797H137.836L127.852 154H120.516ZM152.344 127.258C155.859 127.258 158.555 128.023 160.43 129.555C162.305 131.086 163.242 133.414 163.242 136.539V154H158.25L156.867 150.438H156.68C155.93 151.375 155.164 152.141 154.383 152.734C153.602 153.328 152.703 153.766 151.688 154.047C150.672 154.328 149.438 154.469 147.984 154.469C146.438 154.469 145.047 154.172 143.812 153.578C142.594 152.984 141.633 152.078 140.93 150.859C140.227 149.625 139.875 148.062 139.875 146.172C139.875 143.391 140.852 141.344 142.805 140.031C144.758 138.703 147.688 137.969 151.594 137.828L156.141 137.688V136.539C156.141 135.164 155.781 134.156 155.062 133.516C154.344 132.875 153.344 132.555 152.062 132.555C150.797 132.555 149.555 132.734 148.336 133.094C147.117 133.453 145.898 133.906 144.68 134.453L142.312 129.625C143.703 128.891 145.258 128.312 146.977 127.891C148.711 127.469 150.5 127.258 152.344 127.258ZM156.141 141.859L153.375 141.953C151.062 142.016 149.453 142.43 148.547 143.195C147.656 143.961 147.211 144.969 147.211 146.219C147.211 147.312 147.531 148.094 148.172 148.562C148.812 149.016 149.648 149.242 150.68 149.242C152.211 149.242 153.5 148.789 154.547 147.883C155.609 146.977 156.141 145.688 156.141 144.016V141.859ZM181.266 154.469C178.672 154.469 176.461 154 174.633 153.062C172.805 152.109 171.414 150.641 170.461 148.656C169.508 146.672 169.031 144.133 169.031 141.039C169.031 137.836 169.57 135.227 170.648 133.211C171.742 131.18 173.25 129.688 175.172 128.734C177.109 127.781 179.352 127.305 181.898 127.305C183.711 127.305 185.273 127.484 186.586 127.844C187.914 128.188 189.07 128.602 190.055 129.086L187.945 134.617C186.82 134.164 185.773 133.797 184.805 133.516C183.836 133.219 182.867 133.07 181.898 133.07C180.648 133.07 179.609 133.367 178.781 133.961C177.953 134.539 177.336 135.414 176.93 136.586C176.523 137.758 176.32 139.227 176.32 140.992C176.32 142.727 176.539 144.164 176.977 145.305C177.414 146.445 178.047 147.297 178.875 147.859C179.703 148.406 180.711 148.68 181.898 148.68C183.383 148.68 184.703 148.484 185.859 148.094C187.016 147.688 188.141 147.125 189.234 146.406V152.523C188.141 153.211 186.992 153.703 185.789 154C184.602 154.312 183.094 154.469 181.266 154.469ZM186.422 159.859C186.422 161.656 185.898 163.047 184.852 164.031C183.805 165.031 181.914 165.531 179.18 165.531C178.477 165.531 177.844 165.484 177.281 165.391C176.719 165.297 176.211 165.18 175.758 165.039V161.102C176.211 161.211 176.766 161.32 177.422 161.43C178.078 161.539 178.641 161.594 179.109 161.594C179.562 161.594 179.953 161.484 180.281 161.266C180.625 161.062 180.797 160.688 180.797 160.141C180.797 159.562 180.508 159.047 179.93 158.594C179.352 158.141 178.344 157.812 176.906 157.609L178.734 154H183.258L182.625 155.43C183.266 155.633 183.875 155.93 184.453 156.32C185.031 156.727 185.5 157.219 185.859 157.797C186.234 158.391 186.422 159.078 186.422 159.859ZM206.062 127.258C209.578 127.258 212.273 128.023 214.148 129.555C216.023 131.086 216.961 133.414 216.961 136.539V154H211.969L210.586 150.438H210.398C209.648 151.375 208.883 152.141 208.102 152.734C207.32 153.328 206.422 153.766 205.406 154.047C204.391 154.328 203.156 154.469 201.703 154.469C200.156 154.469 198.766 154.172 197.531 153.578C196.312 152.984 195.352 152.078 194.648 150.859C193.945 149.625 193.594 148.062 193.594 146.172C193.594 143.391 194.57 141.344 196.523 140.031C198.477 138.703 201.406 137.969 205.312 137.828L209.859 137.688V136.539C209.859 135.164 209.5 134.156 208.781 133.516C208.062 132.875 207.062 132.555 205.781 132.555C204.516 132.555 203.273 132.734 202.055 133.094C200.836 133.453 199.617 133.906 198.398 134.453L196.031 129.625C197.422 128.891 198.977 128.312 200.695 127.891C202.43 127.469 204.219 127.258 206.062 127.258ZM209.859 141.859L207.094 141.953C204.781 142.016 203.172 142.43 202.266 143.195C201.375 143.961 200.93 144.969 200.93 146.219C200.93 147.312 201.25 148.094 201.891 148.562C202.531 149.016 203.367 149.242 204.398 149.242C205.93 149.242 207.219 148.789 208.266 147.883C209.328 146.977 209.859 145.688 209.859 144.016V141.859ZM196.336 124.961C196.43 123.711 196.656 122.633 197.016 121.727C197.375 120.805 197.844 120.055 198.422 119.477C199 118.883 199.648 118.445 200.367 118.164C201.102 117.867 201.883 117.719 202.711 117.719C203.352 117.719 203.977 117.844 204.586 118.094C205.211 118.328 205.82 118.609 206.414 118.938C207.023 119.266 207.617 119.555 208.195 119.805C208.789 120.039 209.367 120.156 209.93 120.156C210.398 120.156 210.852 119.953 211.289 119.547C211.742 119.125 212.07 118.5 212.273 117.672H215.766C215.578 120.141 214.875 121.969 213.656 123.156C212.438 124.328 211.016 124.914 209.391 124.914C208.75 124.914 208.117 124.789 207.492 124.539C206.883 124.289 206.273 124.008 205.664 123.695C205.07 123.367 204.484 123.078 203.906 122.828C203.328 122.578 202.758 122.453 202.195 122.453C201.711 122.453 201.242 122.664 200.789 123.086C200.352 123.492 200.031 124.117 199.828 124.961H196.336ZM248.156 140.852C248.156 143.039 247.859 144.977 247.266 146.664C246.688 148.352 245.836 149.781 244.711 150.953C243.602 152.109 242.258 152.984 240.68 153.578C239.117 154.172 237.352 154.469 235.383 154.469C233.539 154.469 231.844 154.172 230.297 153.578C228.766 152.984 227.43 152.109 226.289 150.953C225.164 149.781 224.289 148.352 223.664 146.664C223.055 144.977 222.75 143.039 222.75 140.852C222.75 137.945 223.266 135.484 224.297 133.469C225.328 131.453 226.797 129.922 228.703 128.875C230.609 127.828 232.883 127.305 235.523 127.305C237.977 127.305 240.148 127.828 242.039 128.875C243.945 129.922 245.438 131.453 246.516 133.469C247.609 135.484 248.156 137.945 248.156 140.852ZM230.039 140.852C230.039 142.57 230.227 144.016 230.602 145.188C230.977 146.359 231.562 147.242 232.359 147.836C233.156 148.43 234.195 148.727 235.477 148.727C236.742 148.727 237.766 148.43 238.547 147.836C239.344 147.242 239.922 146.359 240.281 145.188C240.656 144.016 240.844 142.57 240.844 140.852C240.844 139.117 240.656 137.68 240.281 136.539C239.922 135.383 239.344 134.516 238.547 133.938C237.75 133.359 236.711 133.07 235.43 133.07C233.539 133.07 232.164 133.719 231.305 135.016C230.461 136.312 230.039 138.258 230.039 140.852Z" fill="#843D30"/>
<path d="M354.715 69.4453C358.4 69.4453 361.089 70.2396 362.781 71.8281C364.474 73.4036 365.32 75.5781 365.32 78.3516C365.32 79.6016 365.132 80.7995 364.754 81.9453C364.376 83.0781 363.758 84.0872 362.898 84.9727C362.052 85.8581 360.919 86.5612 359.5 87.082C358.081 87.5898 356.329 87.8438 354.246 87.8438H351.648V98H345.594V69.4453H354.715ZM354.402 74.4062H351.648V82.8828H353.641C354.773 82.8828 355.757 82.7331 356.59 82.4336C357.423 82.1341 358.068 81.6654 358.523 81.0273C358.979 80.3893 359.207 79.569 359.207 78.5664C359.207 77.1602 358.816 76.1185 358.035 75.4414C357.254 74.7513 356.043 74.4062 354.402 74.4062ZM379.246 75.7539C381.264 75.7539 383.003 76.1445 384.461 76.9258C385.919 77.694 387.046 78.8138 387.84 80.2852C388.634 81.7565 389.031 83.5534 389.031 85.6758V88.5664H374.949C375.014 90.2461 375.516 91.5677 376.453 92.5312C377.404 93.4818 378.719 93.957 380.398 93.957C381.792 93.957 383.068 93.8138 384.227 93.5273C385.385 93.2409 386.577 92.8112 387.801 92.2383V96.8477C386.72 97.3815 385.587 97.7721 384.402 98.0195C383.23 98.2669 381.805 98.3906 380.125 98.3906C377.938 98.3906 375.997 97.987 374.305 97.1797C372.625 96.3724 371.303 95.1419 370.34 93.4883C369.389 91.8346 368.914 89.7513 368.914 87.2383C368.914 84.6862 369.344 82.5638 370.203 80.8711C371.076 79.1654 372.286 77.8893 373.836 77.043C375.385 76.1836 377.189 75.7539 379.246 75.7539ZM379.285 79.9922C378.126 79.9922 377.163 80.3633 376.395 81.1055C375.639 81.8477 375.203 83.013 375.086 84.6016H383.445C383.432 83.7161 383.27 82.9284 382.957 82.2383C382.658 81.5482 382.202 81.0013 381.59 80.5977C380.991 80.194 380.223 79.9922 379.285 79.9922ZM406.062 75.7539C406.362 75.7539 406.707 75.7734 407.098 75.8125C407.501 75.8385 407.827 75.8776 408.074 75.9297L407.625 81.5156C407.43 81.4505 407.15 81.4049 406.785 81.3789C406.434 81.3398 406.128 81.3203 405.867 81.3203C405.099 81.3203 404.35 81.418 403.621 81.6133C402.905 81.8086 402.26 82.1276 401.688 82.5703C401.115 83 400.659 83.5729 400.32 84.2891C399.995 84.9922 399.832 85.8581 399.832 86.8867V98H393.875V76.1641H398.387L399.266 79.8359H399.559C399.988 79.0938 400.522 78.4167 401.16 77.8047C401.811 77.1797 402.547 76.6849 403.367 76.3203C404.201 75.9427 405.099 75.7539 406.062 75.7539ZM420.906 98.3906C418.745 98.3906 416.902 98 415.379 97.2188C413.855 96.4245 412.697 95.2005 411.902 93.5469C411.108 91.8932 410.711 89.7773 410.711 87.1992C410.711 84.5299 411.16 82.3555 412.059 80.6758C412.97 78.9831 414.227 77.7396 415.828 76.9453C417.443 76.151 419.311 75.7539 421.434 75.7539C422.944 75.7539 424.246 75.9036 425.34 76.2031C426.447 76.4896 427.41 76.8346 428.23 77.2383L426.473 81.8477C425.535 81.4701 424.663 81.1641 423.855 80.9297C423.048 80.6823 422.241 80.5586 421.434 80.5586C420.392 80.5586 419.526 80.806 418.836 81.3008C418.146 81.7826 417.632 82.5117 417.293 83.4883C416.954 84.4648 416.785 85.6888 416.785 87.1602C416.785 88.6055 416.967 89.8034 417.332 90.7539C417.697 91.7044 418.224 92.4141 418.914 92.8828C419.604 93.3385 420.444 93.5664 421.434 93.5664C422.671 93.5664 423.771 93.4036 424.734 93.0781C425.698 92.7396 426.635 92.2708 427.547 91.6719V96.7695C426.635 97.3424 425.678 97.7526 424.676 98C423.686 98.2604 422.43 98.3906 420.906 98.3906ZM441.629 75.7539C443.647 75.7539 445.385 76.1445 446.844 76.9258C448.302 77.694 449.428 78.8138 450.223 80.2852C451.017 81.7565 451.414 83.5534 451.414 85.6758V88.5664H437.332C437.397 90.2461 437.898 91.5677 438.836 92.5312C439.786 93.4818 441.102 93.957 442.781 93.957C444.174 93.957 445.451 93.8138 446.609 93.5273C447.768 93.2409 448.96 92.8112 450.184 92.2383V96.8477C449.103 97.3815 447.97 97.7721 446.785 98.0195C445.613 98.2669 444.188 98.3906 442.508 98.3906C440.32 98.3906 438.38 97.987 436.688 97.1797C435.008 96.3724 433.686 95.1419 432.723 93.4883C431.772 91.8346 431.297 89.7513 431.297 87.2383C431.297 84.6862 431.727 82.5638 432.586 80.8711C433.458 79.1654 434.669 77.8893 436.219 77.043C437.768 76.1836 439.572 75.7539 441.629 75.7539ZM441.668 79.9922C440.509 79.9922 439.546 80.3633 438.777 81.1055C438.022 81.8477 437.586 83.013 437.469 84.6016H445.828C445.815 83.7161 445.652 82.9284 445.34 82.2383C445.04 81.5482 444.585 81.0013 443.973 80.5977C443.374 80.194 442.605 79.9922 441.668 79.9922ZM468.406 75.7539C470.867 75.7539 472.853 76.7109 474.363 78.625C475.887 80.5391 476.648 83.3451 476.648 87.043C476.648 89.5169 476.29 91.6003 475.574 93.293C474.858 94.9727 473.868 96.2422 472.605 97.1016C471.342 97.9609 469.891 98.3906 468.25 98.3906C467.195 98.3906 466.29 98.2604 465.535 98C464.78 97.7266 464.135 97.3815 463.602 96.9648C463.068 96.5352 462.605 96.0794 462.215 95.5977H461.902C462.007 96.1185 462.085 96.6523 462.137 97.1992C462.189 97.7461 462.215 98.2799 462.215 98.8008V107.609H456.258V76.1641H461.102L461.941 78.9961H462.215C462.605 78.4102 463.081 77.8698 463.641 77.375C464.201 76.8802 464.871 76.4896 465.652 76.2031C466.447 75.9036 467.365 75.7539 468.406 75.7539ZM466.492 80.5195C465.451 80.5195 464.624 80.7344 464.012 81.1641C463.4 81.5938 462.951 82.2383 462.664 83.0977C462.391 83.957 462.241 85.0443 462.215 86.3594V87.0039C462.215 88.4102 462.345 89.6016 462.605 90.5781C462.879 91.5547 463.328 92.2969 463.953 92.8047C464.591 93.3125 465.464 93.5664 466.57 93.5664C467.482 93.5664 468.23 93.3125 468.816 92.8047C469.402 92.2969 469.839 91.5547 470.125 90.5781C470.424 89.5885 470.574 88.3841 470.574 86.9648C470.574 84.8294 470.242 83.2214 469.578 82.1406C468.914 81.0599 467.885 80.5195 466.492 80.5195ZM490.438 98.3906C488.276 98.3906 486.434 98 484.91 97.2188C483.387 96.4245 482.228 95.2005 481.434 93.5469C480.639 91.8932 480.242 89.7773 480.242 87.1992C480.242 84.5299 480.691 82.3555 481.59 80.6758C482.501 78.9831 483.758 77.7396 485.359 76.9453C486.974 76.151 488.842 75.7539 490.965 75.7539C492.475 75.7539 493.777 75.9036 494.871 76.2031C495.978 76.4896 496.941 76.8346 497.762 77.2383L496.004 81.8477C495.066 81.4701 494.194 81.1641 493.387 80.9297C492.579 80.6823 491.772 80.5586 490.965 80.5586C489.923 80.5586 489.057 80.806 488.367 81.3008C487.677 81.7826 487.163 82.5117 486.824 83.4883C486.486 84.4648 486.316 85.6888 486.316 87.1602C486.316 88.6055 486.499 89.8034 486.863 90.7539C487.228 91.7044 487.755 92.4141 488.445 92.8828C489.135 93.3385 489.975 93.5664 490.965 93.5664C492.202 93.5664 493.302 93.4036 494.266 93.0781C495.229 92.7396 496.167 92.2708 497.078 91.6719V96.7695C496.167 97.3424 495.21 97.7526 494.207 98C493.217 98.2604 491.961 98.3906 490.438 98.3906ZM494.734 102.883C494.734 104.38 494.298 105.539 493.426 106.359C492.553 107.193 490.978 107.609 488.699 107.609C488.113 107.609 487.586 107.57 487.117 107.492C486.648 107.414 486.225 107.316 485.848 107.199V103.918C486.225 104.009 486.688 104.1 487.234 104.191C487.781 104.283 488.25 104.328 488.641 104.328C489.018 104.328 489.344 104.237 489.617 104.055C489.904 103.885 490.047 103.573 490.047 103.117C490.047 102.635 489.806 102.206 489.324 101.828C488.842 101.451 488.003 101.177 486.805 101.008L488.328 98H492.098L491.57 99.1914C492.104 99.3607 492.612 99.6081 493.094 99.9336C493.576 100.272 493.966 100.682 494.266 101.164C494.578 101.659 494.734 102.232 494.734 102.883ZM511.102 75.7148C514.031 75.7148 516.277 76.3529 517.84 77.6289C519.402 78.9049 520.184 80.8451 520.184 83.4492V98H516.023L514.871 95.0312H514.715C514.09 95.8125 513.452 96.4505 512.801 96.9453C512.15 97.4401 511.401 97.8047 510.555 98.0391C509.708 98.2734 508.68 98.3906 507.469 98.3906C506.18 98.3906 505.021 98.1432 503.992 97.6484C502.977 97.1536 502.176 96.3984 501.59 95.3828C501.004 94.3542 500.711 93.0521 500.711 91.4766C500.711 89.1589 501.525 87.4531 503.152 86.3594C504.78 85.2526 507.221 84.6406 510.477 84.5234L514.266 84.4062V83.4492C514.266 82.3034 513.966 81.4635 513.367 80.9297C512.768 80.3958 511.935 80.1289 510.867 80.1289C509.812 80.1289 508.777 80.2786 507.762 80.5781C506.746 80.8776 505.73 81.2552 504.715 81.7109L502.742 77.6875C503.901 77.0755 505.197 76.5938 506.629 76.2422C508.074 75.8906 509.565 75.7148 511.102 75.7148ZM514.266 87.8828L511.961 87.9609C510.034 88.013 508.693 88.3581 507.938 88.9961C507.195 89.6341 506.824 90.474 506.824 91.5156C506.824 92.4271 507.091 93.0781 507.625 93.4688C508.159 93.8464 508.855 94.0352 509.715 94.0352C510.991 94.0352 512.065 93.6576 512.938 92.9023C513.823 92.1471 514.266 91.0729 514.266 89.6797V87.8828ZM502.996 73.8008C503.074 72.7591 503.263 71.8607 503.562 71.1055C503.862 70.3372 504.253 69.7122 504.734 69.2305C505.216 68.7357 505.757 68.3711 506.355 68.1367C506.967 67.8893 507.618 67.7656 508.309 67.7656C508.842 67.7656 509.363 67.8698 509.871 68.0781C510.392 68.2734 510.9 68.5078 511.395 68.7812C511.902 69.0547 512.397 69.2956 512.879 69.5039C513.374 69.6992 513.855 69.7969 514.324 69.7969C514.715 69.7969 515.092 69.6276 515.457 69.2891C515.835 68.9375 516.108 68.4167 516.277 67.7266H519.188C519.031 69.7839 518.445 71.3073 517.43 72.2969C516.414 73.2734 515.229 73.7617 513.875 73.7617C513.341 73.7617 512.814 73.6576 512.293 73.4492C511.785 73.2409 511.277 73.0065 510.77 72.7461C510.275 72.4727 509.786 72.2318 509.305 72.0234C508.823 71.8151 508.348 71.7109 507.879 71.7109C507.475 71.7109 507.085 71.8867 506.707 72.2383C506.342 72.5768 506.076 73.0977 505.906 73.8008H502.996ZM546.18 87.043C546.18 88.8659 545.932 90.4805 545.438 91.8867C544.956 93.293 544.246 94.4844 543.309 95.4609C542.384 96.4245 541.264 97.1536 539.949 97.6484C538.647 98.1432 537.176 98.3906 535.535 98.3906C533.999 98.3906 532.586 98.1432 531.297 97.6484C530.021 97.1536 528.908 96.4245 527.957 95.4609C527.02 94.4844 526.29 93.293 525.77 91.8867C525.262 90.4805 525.008 88.8659 525.008 87.043C525.008 84.6211 525.438 82.5703 526.297 80.8906C527.156 79.2109 528.38 77.9349 529.969 77.0625C531.557 76.1901 533.452 75.7539 535.652 75.7539C537.697 75.7539 539.507 76.1901 541.082 77.0625C542.671 77.9349 543.914 79.2109 544.812 80.8906C545.724 82.5703 546.18 84.6211 546.18 87.043ZM531.082 87.043C531.082 88.4753 531.238 89.6797 531.551 90.6562C531.863 91.6328 532.352 92.3685 533.016 92.8633C533.68 93.3581 534.546 93.6055 535.613 93.6055C536.668 93.6055 537.521 93.3581 538.172 92.8633C538.836 92.3685 539.318 91.6328 539.617 90.6562C539.93 89.6797 540.086 88.4753 540.086 87.043C540.086 85.5977 539.93 84.3997 539.617 83.4492C539.318 82.4857 538.836 81.763 538.172 81.2812C537.508 80.7995 536.642 80.5586 535.574 80.5586C533.999 80.5586 532.853 81.099 532.137 82.1797C531.434 83.2604 531.082 84.8815 531.082 87.043Z" fill="#E5A498"/>
<path d="M138.547 35L133.047 17.0781H132.906C132.927 17.5052 132.958 18.151 133 19.0156C133.052 19.8698 133.099 20.7812 133.141 21.75C133.182 22.7188 133.203 23.5938 133.203 24.375V35H128.875V12.1562H135.469L140.875 29.625H140.969L146.703 12.1562H153.297V35H148.781V24.1875C148.781 23.4688 148.792 22.6406 148.812 21.7031C148.844 20.7656 148.88 19.875 148.922 19.0312C148.964 18.1771 148.995 17.5365 149.016 17.1094H148.875L142.984 35H138.547ZM165.891 17.2031C167.505 17.2031 168.896 17.5156 170.062 18.1406C171.229 18.7552 172.13 19.651 172.766 20.8281C173.401 22.0052 173.719 23.4427 173.719 25.1406V27.4531H162.453C162.505 28.7969 162.906 29.8542 163.656 30.625C164.417 31.3854 165.469 31.7656 166.812 31.7656C167.927 31.7656 168.948 31.651 169.875 31.4219C170.802 31.1927 171.755 30.849 172.734 30.3906V34.0781C171.87 34.5052 170.964 34.8177 170.016 35.0156C169.078 35.2135 167.938 35.3125 166.594 35.3125C164.844 35.3125 163.292 34.9896 161.938 34.3438C160.594 33.6979 159.536 32.7135 158.766 31.3906C158.005 30.0677 157.625 28.401 157.625 26.3906C157.625 24.349 157.969 22.651 158.656 21.2969C159.354 19.9323 160.323 18.9115 161.562 18.2344C162.802 17.5469 164.245 17.2031 165.891 17.2031ZM165.922 20.5938C164.995 20.5938 164.224 20.8906 163.609 21.4844C163.005 22.0781 162.656 23.0104 162.562 24.2812H169.25C169.24 23.5729 169.109 22.9427 168.859 22.3906C168.62 21.8385 168.255 21.401 167.766 21.0781C167.286 20.7552 166.672 20.5938 165.922 20.5938ZM198.109 17.2031C200.089 17.2031 201.583 17.7135 202.594 18.7344C203.615 19.7448 204.125 21.3698 204.125 23.6094V35H199.344V24.7969C199.344 23.5469 199.13 22.6042 198.703 21.9688C198.276 21.3333 197.615 21.0156 196.719 21.0156C195.458 21.0156 194.562 21.4688 194.031 22.375C193.5 23.2708 193.234 24.5573 193.234 26.2344V35H188.469V24.7969C188.469 23.9635 188.375 23.2656 188.188 22.7031C188 22.1406 187.714 21.7188 187.328 21.4375C186.943 21.1562 186.448 21.0156 185.844 21.0156C184.958 21.0156 184.26 21.2396 183.75 21.6875C183.25 22.125 182.891 22.776 182.672 23.6406C182.464 24.4948 182.359 25.5417 182.359 26.7812V35H177.594V17.5312H181.234L181.875 19.7656H182.141C182.495 19.1615 182.938 18.6719 183.469 18.2969C184.01 17.9219 184.604 17.6458 185.25 17.4688C185.896 17.2917 186.552 17.2031 187.219 17.2031C188.5 17.2031 189.583 17.4115 190.469 17.8281C191.365 18.2448 192.052 18.8906 192.531 19.7656H192.953C193.474 18.8698 194.208 18.2188 195.156 17.8125C196.115 17.4062 197.099 17.2031 198.109 17.2031ZM224.906 26.2344C224.906 27.6927 224.708 28.9844 224.312 30.1094C223.927 31.2344 223.359 32.1875 222.609 32.9688C221.87 33.7396 220.974 34.3229 219.922 34.7188C218.88 35.1146 217.703 35.3125 216.391 35.3125C215.161 35.3125 214.031 35.1146 213 34.7188C211.979 34.3229 211.089 33.7396 210.328 32.9688C209.578 32.1875 208.995 31.2344 208.578 30.1094C208.172 28.9844 207.969 27.6927 207.969 26.2344C207.969 24.2969 208.312 22.6562 209 21.3125C209.688 19.9688 210.667 18.9479 211.938 18.25C213.208 17.5521 214.724 17.2031 216.484 17.2031C218.12 17.2031 219.568 17.5521 220.828 18.25C222.099 18.9479 223.094 19.9688 223.812 21.3125C224.542 22.6562 224.906 24.2969 224.906 26.2344ZM212.828 26.2344C212.828 27.3802 212.953 28.3438 213.203 29.125C213.453 29.9062 213.844 30.4948 214.375 30.8906C214.906 31.2865 215.599 31.4844 216.453 31.4844C217.297 31.4844 217.979 31.2865 218.5 30.8906C219.031 30.4948 219.417 29.9062 219.656 29.125C219.906 28.3438 220.031 27.3802 220.031 26.2344C220.031 25.0781 219.906 24.1198 219.656 23.3594C219.417 22.5885 219.031 22.0104 218.5 21.625C217.969 21.2396 217.276 21.0469 216.422 21.0469C215.161 21.0469 214.245 21.4792 213.672 22.3438C213.109 23.2083 212.828 24.5052 212.828 26.2344ZM222.594 10.4844V10.8125C222.292 11.1042 221.896 11.4635 221.406 11.8906C220.917 12.3177 220.391 12.7656 219.828 13.2344C219.266 13.6927 218.714 14.1354 218.172 14.5625C217.63 14.9792 217.156 15.3281 216.75 15.6094H213.578V15.1875C213.922 14.7917 214.318 14.3229 214.766 13.7812C215.224 13.2292 215.677 12.6615 216.125 12.0781C216.573 11.4948 216.948 10.9635 217.25 10.4844H222.594ZM238.594 17.2031C238.833 17.2031 239.109 17.2188 239.422 17.25C239.745 17.2708 240.005 17.3021 240.203 17.3438L239.844 21.8125C239.688 21.7604 239.464 21.724 239.172 21.7031C238.891 21.6719 238.646 21.6562 238.438 21.6562C237.823 21.6562 237.224 21.7344 236.641 21.8906C236.068 22.0469 235.552 22.3021 235.094 22.6562C234.635 23 234.271 23.4583 234 24.0312C233.74 24.5938 233.609 25.2865 233.609 26.1094V35H228.844V17.5312H232.453L233.156 20.4688H233.391C233.734 19.875 234.161 19.3333 234.672 18.8438C235.193 18.3438 235.781 17.9479 236.438 17.6562C237.104 17.3542 237.823 17.2031 238.594 17.2031ZM248.141 17.5312V35H243.375V17.5312H248.141ZM245.766 10.6875C246.474 10.6875 247.083 10.8542 247.594 11.1875C248.104 11.5104 248.359 12.1198 248.359 13.0156C248.359 13.901 248.104 14.5156 247.594 14.8594C247.083 15.1927 246.474 15.3594 245.766 15.3594C245.047 15.3594 244.432 15.1927 243.922 14.8594C243.422 14.5156 243.172 13.901 243.172 13.0156C243.172 12.1198 243.422 11.5104 243.922 11.1875C244.432 10.8542 245.047 10.6875 245.766 10.6875ZM260.312 17.1719C262.656 17.1719 264.453 17.6823 265.703 18.7031C266.953 19.724 267.578 21.276 267.578 23.3594V35H264.25L263.328 32.625H263.203C262.703 33.25 262.193 33.7604 261.672 34.1562C261.151 34.5521 260.552 34.8438 259.875 35.0312C259.198 35.2188 258.375 35.3125 257.406 35.3125C256.375 35.3125 255.448 35.1146 254.625 34.7188C253.812 34.3229 253.172 33.7188 252.703 32.9062C252.234 32.0833 252 31.0417 252 29.7812C252 27.9271 252.651 26.5625 253.953 25.6875C255.255 24.8021 257.208 24.3125 259.812 24.2188L262.844 24.125V23.3594C262.844 22.4427 262.604 21.7708 262.125 21.3438C261.646 20.9167 260.979 20.7031 260.125 20.7031C259.281 20.7031 258.453 20.8229 257.641 21.0625C256.828 21.3021 256.016 21.6042 255.203 21.9688L253.625 18.75C254.552 18.2604 255.589 17.875 256.734 17.5938C257.891 17.3125 259.083 17.1719 260.312 17.1719ZM262.844 26.9062L261 26.9688C259.458 27.0104 258.385 27.2865 257.781 27.7969C257.188 28.3073 256.891 28.9792 256.891 29.8125C256.891 30.5417 257.104 31.0625 257.531 31.375C257.958 31.6771 258.516 31.8281 259.203 31.8281C260.224 31.8281 261.083 31.526 261.781 30.9219C262.49 30.3177 262.844 29.4583 262.844 28.3438V26.9062ZM286.344 35.3125C284.396 35.3125 282.807 34.5521 281.578 33.0312C280.359 31.5 279.75 29.2552 279.75 26.2969C279.75 23.3073 280.37 21.0469 281.609 19.5156C282.849 17.974 284.469 17.2031 286.469 17.2031C287.302 17.2031 288.036 17.3177 288.672 17.5469C289.307 17.776 289.854 18.0833 290.312 18.4688C290.781 18.8542 291.177 19.2865 291.5 19.7656H291.656C291.594 19.4323 291.516 18.9427 291.422 18.2969C291.339 17.6406 291.297 16.9688 291.297 16.2812V10.6875H296.078V35H292.422L291.5 32.7344H291.297C290.995 33.2135 290.615 33.651 290.156 34.0469C289.708 34.4323 289.172 34.7396 288.547 34.9688C287.922 35.1979 287.188 35.3125 286.344 35.3125ZM288.016 31.5156C289.318 31.5156 290.234 31.1302 290.766 30.3594C291.307 29.5781 291.594 28.4062 291.625 26.8438V26.3281C291.625 24.6302 291.365 23.3333 290.844 22.4375C290.323 21.5312 289.354 21.0781 287.938 21.0781C286.885 21.0781 286.062 21.5312 285.469 22.4375C284.875 23.3438 284.578 24.651 284.578 26.3594C284.578 28.0677 284.875 29.3542 285.469 30.2188C286.073 31.0833 286.922 31.5156 288.016 31.5156ZM308.266 17.2031C309.88 17.2031 311.271 17.5156 312.438 18.1406C313.604 18.7552 314.505 19.651 315.141 20.8281C315.776 22.0052 316.094 23.4427 316.094 25.1406V27.4531H304.828C304.88 28.7969 305.281 29.8542 306.031 30.625C306.792 31.3854 307.844 31.7656 309.188 31.7656C310.302 31.7656 311.323 31.651 312.25 31.4219C313.177 31.1927 314.13 30.849 315.109 30.3906V34.0781C314.245 34.5052 313.339 34.8177 312.391 35.0156C311.453 35.2135 310.312 35.3125 308.969 35.3125C307.219 35.3125 305.667 34.9896 304.312 34.3438C302.969 33.6979 301.911 32.7135 301.141 31.3906C300.38 30.0677 300 28.401 300 26.3906C300 24.349 300.344 22.651 301.031 21.2969C301.729 19.9323 302.698 18.9115 303.938 18.2344C305.177 17.5469 306.62 17.2031 308.266 17.2031ZM308.297 20.5938C307.37 20.5938 306.599 20.8906 305.984 21.4844C305.38 22.0781 305.031 23.0104 304.938 24.2812H311.625C311.615 23.5729 311.484 22.9427 311.234 22.3906C310.995 21.8385 310.63 21.401 310.141 21.0781C309.661 20.7552 309.047 20.5938 308.297 20.5938ZM335.641 31.5156C336.161 31.5156 336.667 31.4635 337.156 31.3594C337.656 31.2552 338.151 31.125 338.641 30.9688V34.5156C338.13 34.7448 337.495 34.9323 336.734 35.0781C335.984 35.2344 335.161 35.3125 334.266 35.3125C333.224 35.3125 332.286 35.1458 331.453 34.8125C330.63 34.4688 329.979 33.8802 329.5 33.0469C329.031 32.2031 328.797 31.0312 328.797 29.5312V21.1094H326.516V19.0938L329.141 17.5L330.516 13.8125H333.562V17.5312H338.453V21.1094H333.562V29.5312C333.562 30.1979 333.75 30.6979 334.125 31.0312C334.51 31.3542 335.016 31.5156 335.641 31.5156ZM351.938 17.2031C352.177 17.2031 352.453 17.2188 352.766 17.25C353.089 17.2708 353.349 17.3021 353.547 17.3438L353.188 21.8125C353.031 21.7604 352.807 21.724 352.516 21.7031C352.234 21.6719 351.99 21.6562 351.781 21.6562C351.167 21.6562 350.568 21.7344 349.984 21.8906C349.411 22.0469 348.896 22.3021 348.438 22.6562C347.979 23 347.615 23.4583 347.344 24.0312C347.083 24.5938 346.953 25.2865 346.953 26.1094V35H342.188V17.5312H345.797L346.5 20.4688H346.734C347.078 19.875 347.505 19.3333 348.016 18.8438C348.536 18.3438 349.125 17.9479 349.781 17.6562C350.448 17.3542 351.167 17.2031 351.938 17.2031ZM363.875 17.1719C366.219 17.1719 368.016 17.6823 369.266 18.7031C370.516 19.724 371.141 21.276 371.141 23.3594V35H367.812L366.891 32.625H366.766C366.266 33.25 365.755 33.7604 365.234 34.1562C364.714 34.5521 364.115 34.8438 363.438 35.0312C362.76 35.2188 361.938 35.3125 360.969 35.3125C359.938 35.3125 359.01 35.1146 358.188 34.7188C357.375 34.3229 356.734 33.7188 356.266 32.9062C355.797 32.0833 355.562 31.0417 355.562 29.7812C355.562 27.9271 356.214 26.5625 357.516 25.6875C358.818 24.8021 360.771 24.3125 363.375 24.2188L366.406 24.125V23.3594C366.406 22.4427 366.167 21.7708 365.688 21.3438C365.208 20.9167 364.542 20.7031 363.688 20.7031C362.844 20.7031 362.016 20.8229 361.203 21.0625C360.391 21.3021 359.578 21.6042 358.766 21.9688L357.188 18.75C358.115 18.2604 359.151 17.875 360.297 17.5938C361.453 17.3125 362.646 17.1719 363.875 17.1719ZM366.406 26.9062L364.562 26.9688C363.021 27.0104 361.948 27.2865 361.344 27.7969C360.75 28.3073 360.453 28.9792 360.453 29.8125C360.453 30.5417 360.667 31.0625 361.094 31.375C361.521 31.6771 362.078 31.8281 362.766 31.8281C363.786 31.8281 364.646 31.526 365.344 30.9219C366.052 30.3177 366.406 29.4583 366.406 28.3438V26.9062ZM380.828 10.6875V16.3438C380.828 17 380.807 17.651 380.766 18.2969C380.734 18.9427 380.693 19.4427 380.641 19.7969H380.828C381.286 19.0781 381.911 18.4688 382.703 17.9688C383.495 17.4583 384.521 17.2031 385.781 17.2031C387.74 17.2031 389.328 17.9688 390.547 19.5C391.766 21.0312 392.375 23.276 392.375 26.2344C392.375 28.224 392.094 29.8958 391.531 31.25C390.969 32.5938 390.182 33.6094 389.172 34.2969C388.161 34.974 386.99 35.3125 385.656 35.3125C384.375 35.3125 383.365 35.0833 382.625 34.625C381.885 34.1667 381.286 33.651 380.828 33.0781H380.5L379.703 35H376.062V10.6875H380.828ZM384.25 21.0156C383.417 21.0156 382.755 21.1875 382.266 21.5312C381.776 21.875 381.417 22.3906 381.188 23.0781C380.969 23.7656 380.849 24.6354 380.828 25.6875V26.2031C380.828 27.901 381.078 29.2031 381.578 30.1094C382.078 31.0052 382.99 31.4531 384.312 31.4531C385.292 31.4531 386.068 31 386.641 30.0938C387.224 29.1875 387.516 27.8802 387.516 26.1719C387.516 24.4635 387.224 23.1771 386.641 22.3125C386.057 21.4479 385.26 21.0156 384.25 21.0156ZM403.469 17.1719C405.812 17.1719 407.609 17.6823 408.859 18.7031C410.109 19.724 410.734 21.276 410.734 23.3594V35H407.406L406.484 32.625H406.359C405.859 33.25 405.349 33.7604 404.828 34.1562C404.307 34.5521 403.708 34.8438 403.031 35.0312C402.354 35.2188 401.531 35.3125 400.562 35.3125C399.531 35.3125 398.604 35.1146 397.781 34.7188C396.969 34.3229 396.328 33.7188 395.859 32.9062C395.391 32.0833 395.156 31.0417 395.156 29.7812C395.156 27.9271 395.807 26.5625 397.109 25.6875C398.411 24.8021 400.365 24.3125 402.969 24.2188L406 24.125V23.3594C406 22.4427 405.76 21.7708 405.281 21.3438C404.802 20.9167 404.135 20.7031 403.281 20.7031C402.438 20.7031 401.609 20.8229 400.797 21.0625C399.984 21.3021 399.172 21.6042 398.359 21.9688L396.781 18.75C397.708 18.2604 398.745 17.875 399.891 17.5938C401.047 17.3125 402.24 17.1719 403.469 17.1719ZM406 26.9062L404.156 26.9688C402.615 27.0104 401.542 27.2865 400.938 27.7969C400.344 28.3073 400.047 28.9792 400.047 29.8125C400.047 30.5417 400.26 31.0625 400.688 31.375C401.115 31.6771 401.672 31.8281 402.359 31.8281C403.38 31.8281 404.24 31.526 404.938 30.9219C405.646 30.3177 406 29.4583 406 28.3438V26.9062ZM420.422 35H415.656V10.6875H420.422V35ZM430.203 10.6875V15.6406C430.203 16.5052 430.172 17.3281 430.109 18.1094C430.057 18.8906 430.016 19.4427 429.984 19.7656H430.234C430.609 19.1615 431.052 18.6719 431.562 18.2969C432.083 17.9219 432.656 17.6458 433.281 17.4688C433.906 17.2917 434.578 17.2031 435.297 17.2031C436.557 17.2031 437.656 17.4271 438.594 17.875C439.531 18.3125 440.26 19.0052 440.781 19.9531C441.302 20.8906 441.562 22.1094 441.562 23.6094V35H436.797V24.7969C436.797 23.5469 436.568 22.6042 436.109 21.9688C435.651 21.3333 434.943 21.0156 433.984 21.0156C433.026 21.0156 432.271 21.2396 431.719 21.6875C431.167 22.125 430.776 22.776 430.547 23.6406C430.318 24.4948 430.203 25.5417 430.203 26.7812V35H425.438V10.6875H430.203ZM462.344 26.2344C462.344 27.6927 462.146 28.9844 461.75 30.1094C461.365 31.2344 460.797 32.1875 460.047 32.9688C459.307 33.7396 458.411 34.3229 457.359 34.7188C456.318 35.1146 455.141 35.3125 453.828 35.3125C452.599 35.3125 451.469 35.1146 450.438 34.7188C449.417 34.3229 448.526 33.7396 447.766 32.9688C447.016 32.1875 446.432 31.2344 446.016 30.1094C445.609 28.9844 445.406 27.6927 445.406 26.2344C445.406 24.2969 445.75 22.6562 446.438 21.3125C447.125 19.9688 448.104 18.9479 449.375 18.25C450.646 17.5521 452.161 17.2031 453.922 17.2031C455.557 17.2031 457.005 17.5521 458.266 18.25C459.536 18.9479 460.531 19.9688 461.25 21.3125C461.979 22.6562 462.344 24.2969 462.344 26.2344ZM450.266 26.2344C450.266 27.3802 450.391 28.3438 450.641 29.125C450.891 29.9062 451.281 30.4948 451.812 30.8906C452.344 31.2865 453.036 31.4844 453.891 31.4844C454.734 31.4844 455.417 31.2865 455.938 30.8906C456.469 30.4948 456.854 29.9062 457.094 29.125C457.344 28.3438 457.469 27.3802 457.469 26.2344C457.469 25.0781 457.344 24.1198 457.094 23.3594C456.854 22.5885 456.469 22.0104 455.938 21.625C455.406 21.2396 454.714 21.0469 453.859 21.0469C452.599 21.0469 451.682 21.4792 451.109 22.3438C450.547 23.2083 450.266 24.5052 450.266 26.2344Z" fill="#843D30"/>
<path d="M285.039 154H268.594V125.445H285.039V130.406H274.648V136.676H284.316V141.637H274.648V149H285.039V154ZM316.191 131.754C318.665 131.754 320.534 132.392 321.797 133.668C323.073 134.931 323.711 136.962 323.711 139.762V154H317.734V141.246C317.734 139.684 317.467 138.505 316.934 137.711C316.4 136.917 315.573 136.52 314.453 136.52C312.878 136.52 311.758 137.086 311.094 138.219C310.43 139.339 310.098 140.947 310.098 143.043V154H304.141V141.246C304.141 140.204 304.023 139.332 303.789 138.629C303.555 137.926 303.197 137.398 302.715 137.047C302.233 136.695 301.615 136.52 300.859 136.52C299.753 136.52 298.88 136.799 298.242 137.359C297.617 137.906 297.168 138.72 296.895 139.801C296.634 140.868 296.504 142.177 296.504 143.727V154H290.547V132.164H295.098L295.898 134.957H296.23C296.673 134.202 297.227 133.59 297.891 133.121C298.568 132.652 299.31 132.307 300.117 132.086C300.924 131.865 301.745 131.754 302.578 131.754C304.18 131.754 305.534 132.014 306.641 132.535C307.76 133.056 308.62 133.863 309.219 134.957H309.746C310.397 133.837 311.315 133.023 312.5 132.516C313.698 132.008 314.928 131.754 316.191 131.754ZM349.688 143.043C349.688 144.866 349.44 146.48 348.945 147.887C348.464 149.293 347.754 150.484 346.816 151.461C345.892 152.424 344.772 153.154 343.457 153.648C342.155 154.143 340.684 154.391 339.043 154.391C337.507 154.391 336.094 154.143 334.805 153.648C333.529 153.154 332.415 152.424 331.465 151.461C330.527 150.484 329.798 149.293 329.277 147.887C328.77 146.48 328.516 144.866 328.516 143.043C328.516 140.621 328.945 138.57 329.805 136.891C330.664 135.211 331.888 133.935 333.477 133.062C335.065 132.19 336.96 131.754 339.16 131.754C341.204 131.754 343.014 132.19 344.59 133.062C346.178 133.935 347.422 135.211 348.32 136.891C349.232 138.57 349.688 140.621 349.688 143.043ZM334.59 143.043C334.59 144.475 334.746 145.68 335.059 146.656C335.371 147.633 335.859 148.368 336.523 148.863C337.188 149.358 338.053 149.605 339.121 149.605C340.176 149.605 341.029 149.358 341.68 148.863C342.344 148.368 342.826 147.633 343.125 146.656C343.438 145.68 343.594 144.475 343.594 143.043C343.594 141.598 343.438 140.4 343.125 139.449C342.826 138.486 342.344 137.763 341.68 137.281C341.016 136.799 340.15 136.559 339.082 136.559C337.507 136.559 336.361 137.099 335.645 138.18C334.941 139.26 334.59 140.882 334.59 143.043ZM363.477 154.391C361.315 154.391 359.473 154 357.949 153.219C356.426 152.424 355.267 151.201 354.473 149.547C353.678 147.893 353.281 145.777 353.281 143.199C353.281 140.53 353.73 138.355 354.629 136.676C355.54 134.983 356.797 133.74 358.398 132.945C360.013 132.151 361.882 131.754 364.004 131.754C365.514 131.754 366.816 131.904 367.91 132.203C369.017 132.49 369.98 132.835 370.801 133.238L369.043 137.848C368.105 137.47 367.233 137.164 366.426 136.93C365.618 136.682 364.811 136.559 364.004 136.559C362.962 136.559 362.096 136.806 361.406 137.301C360.716 137.783 360.202 138.512 359.863 139.488C359.525 140.465 359.355 141.689 359.355 143.16C359.355 144.605 359.538 145.803 359.902 146.754C360.267 147.704 360.794 148.414 361.484 148.883C362.174 149.339 363.014 149.566 364.004 149.566C365.241 149.566 366.341 149.404 367.305 149.078C368.268 148.74 369.206 148.271 370.117 147.672V152.77C369.206 153.342 368.249 153.753 367.246 154C366.257 154.26 365 154.391 363.477 154.391ZM367.773 158.883C367.773 160.38 367.337 161.539 366.465 162.359C365.592 163.193 364.017 163.609 361.738 163.609C361.152 163.609 360.625 163.57 360.156 163.492C359.688 163.414 359.264 163.316 358.887 163.199V159.918C359.264 160.009 359.727 160.1 360.273 160.191C360.82 160.283 361.289 160.328 361.68 160.328C362.057 160.328 362.383 160.237 362.656 160.055C362.943 159.885 363.086 159.573 363.086 159.117C363.086 158.635 362.845 158.206 362.363 157.828C361.882 157.451 361.042 157.177 359.844 157.008L361.367 154H365.137L364.609 155.191C365.143 155.361 365.651 155.608 366.133 155.934C366.615 156.272 367.005 156.682 367.305 157.164C367.617 157.659 367.773 158.232 367.773 158.883ZM384.141 131.715C387.07 131.715 389.316 132.353 390.879 133.629C392.441 134.905 393.223 136.845 393.223 139.449V154H389.062L387.91 151.031H387.754C387.129 151.812 386.491 152.451 385.84 152.945C385.189 153.44 384.44 153.805 383.594 154.039C382.747 154.273 381.719 154.391 380.508 154.391C379.219 154.391 378.06 154.143 377.031 153.648C376.016 153.154 375.215 152.398 374.629 151.383C374.043 150.354 373.75 149.052 373.75 147.477C373.75 145.159 374.564 143.453 376.191 142.359C377.819 141.253 380.26 140.641 383.516 140.523L387.305 140.406V139.449C387.305 138.303 387.005 137.464 386.406 136.93C385.807 136.396 384.974 136.129 383.906 136.129C382.852 136.129 381.816 136.279 380.801 136.578C379.785 136.878 378.77 137.255 377.754 137.711L375.781 133.688C376.94 133.076 378.236 132.594 379.668 132.242C381.113 131.891 382.604 131.715 384.141 131.715ZM387.305 143.883L385 143.961C383.073 144.013 381.732 144.358 380.977 144.996C380.234 145.634 379.863 146.474 379.863 147.516C379.863 148.427 380.13 149.078 380.664 149.469C381.198 149.846 381.895 150.035 382.754 150.035C384.03 150.035 385.104 149.658 385.977 148.902C386.862 148.147 387.305 147.073 387.305 145.68V143.883ZM376.035 129.801C376.113 128.759 376.302 127.861 376.602 127.105C376.901 126.337 377.292 125.712 377.773 125.23C378.255 124.736 378.796 124.371 379.395 124.137C380.007 123.889 380.658 123.766 381.348 123.766C381.882 123.766 382.402 123.87 382.91 124.078C383.431 124.273 383.939 124.508 384.434 124.781C384.941 125.055 385.436 125.296 385.918 125.504C386.413 125.699 386.895 125.797 387.363 125.797C387.754 125.797 388.132 125.628 388.496 125.289C388.874 124.938 389.147 124.417 389.316 123.727H392.227C392.07 125.784 391.484 127.307 390.469 128.297C389.453 129.273 388.268 129.762 386.914 129.762C386.38 129.762 385.853 129.658 385.332 129.449C384.824 129.241 384.316 129.007 383.809 128.746C383.314 128.473 382.826 128.232 382.344 128.023C381.862 127.815 381.387 127.711 380.918 127.711C380.514 127.711 380.124 127.887 379.746 128.238C379.382 128.577 379.115 129.098 378.945 129.801H376.035ZM419.219 143.043C419.219 144.866 418.971 146.48 418.477 147.887C417.995 149.293 417.285 150.484 416.348 151.461C415.423 152.424 414.303 153.154 412.988 153.648C411.686 154.143 410.215 154.391 408.574 154.391C407.038 154.391 405.625 154.143 404.336 153.648C403.06 153.154 401.947 152.424 400.996 151.461C400.059 150.484 399.329 149.293 398.809 147.887C398.301 146.48 398.047 144.866 398.047 143.043C398.047 140.621 398.477 138.57 399.336 136.891C400.195 135.211 401.419 133.935 403.008 133.062C404.596 132.19 406.491 131.754 408.691 131.754C410.736 131.754 412.546 132.19 414.121 133.062C415.71 133.935 416.953 135.211 417.852 136.891C418.763 138.57 419.219 140.621 419.219 143.043ZM404.121 143.043C404.121 144.475 404.277 145.68 404.59 146.656C404.902 147.633 405.391 148.368 406.055 148.863C406.719 149.358 407.585 149.605 408.652 149.605C409.707 149.605 410.56 149.358 411.211 148.863C411.875 148.368 412.357 147.633 412.656 146.656C412.969 145.68 413.125 144.475 413.125 143.043C413.125 141.598 412.969 140.4 412.656 139.449C412.357 138.486 411.875 137.763 411.211 137.281C410.547 136.799 409.681 136.559 408.613 136.559C407.038 136.559 405.892 137.099 405.176 138.18C404.473 139.26 404.121 140.882 404.121 143.043Z" fill="#E5A498"/>
<path d="M138.547 207L133.047 189.078H132.906C132.927 189.505 132.958 190.151 133 191.016C133.052 191.87 133.099 192.781 133.141 193.75C133.182 194.719 133.203 195.594 133.203 196.375V207H128.875V184.156H135.469L140.875 201.625H140.969L146.703 184.156H153.297V207H148.781V196.188C148.781 195.469 148.792 194.641 148.812 193.703C148.844 192.766 148.88 191.875 148.922 191.031C148.964 190.177 148.995 189.536 149.016 189.109H148.875L142.984 207H138.547ZM165.891 189.203C167.505 189.203 168.896 189.516 170.062 190.141C171.229 190.755 172.13 191.651 172.766 192.828C173.401 194.005 173.719 195.443 173.719 197.141V199.453H162.453C162.505 200.797 162.906 201.854 163.656 202.625C164.417 203.385 165.469 203.766 166.812 203.766C167.927 203.766 168.948 203.651 169.875 203.422C170.802 203.193 171.755 202.849 172.734 202.391V206.078C171.87 206.505 170.964 206.818 170.016 207.016C169.078 207.214 167.938 207.312 166.594 207.312C164.844 207.312 163.292 206.99 161.938 206.344C160.594 205.698 159.536 204.714 158.766 203.391C158.005 202.068 157.625 200.401 157.625 198.391C157.625 196.349 157.969 194.651 158.656 193.297C159.354 191.932 160.323 190.911 161.562 190.234C162.802 189.547 164.245 189.203 165.891 189.203ZM165.922 192.594C164.995 192.594 164.224 192.891 163.609 193.484C163.005 194.078 162.656 195.01 162.562 196.281H169.25C169.24 195.573 169.109 194.943 168.859 194.391C168.62 193.839 168.255 193.401 167.766 193.078C167.286 192.755 166.672 192.594 165.922 192.594ZM198.109 189.203C200.089 189.203 201.583 189.714 202.594 190.734C203.615 191.745 204.125 193.37 204.125 195.609V207H199.344V196.797C199.344 195.547 199.13 194.604 198.703 193.969C198.276 193.333 197.615 193.016 196.719 193.016C195.458 193.016 194.562 193.469 194.031 194.375C193.5 195.271 193.234 196.557 193.234 198.234V207H188.469V196.797C188.469 195.964 188.375 195.266 188.188 194.703C188 194.141 187.714 193.719 187.328 193.438C186.943 193.156 186.448 193.016 185.844 193.016C184.958 193.016 184.26 193.24 183.75 193.688C183.25 194.125 182.891 194.776 182.672 195.641C182.464 196.495 182.359 197.542 182.359 198.781V207H177.594V189.531H181.234L181.875 191.766H182.141C182.495 191.161 182.938 190.672 183.469 190.297C184.01 189.922 184.604 189.646 185.25 189.469C185.896 189.292 186.552 189.203 187.219 189.203C188.5 189.203 189.583 189.411 190.469 189.828C191.365 190.245 192.052 190.891 192.531 191.766H192.953C193.474 190.87 194.208 190.219 195.156 189.812C196.115 189.406 197.099 189.203 198.109 189.203ZM224.906 198.234C224.906 199.693 224.708 200.984 224.312 202.109C223.927 203.234 223.359 204.188 222.609 204.969C221.87 205.74 220.974 206.323 219.922 206.719C218.88 207.115 217.703 207.312 216.391 207.312C215.161 207.312 214.031 207.115 213 206.719C211.979 206.323 211.089 205.74 210.328 204.969C209.578 204.188 208.995 203.234 208.578 202.109C208.172 200.984 207.969 199.693 207.969 198.234C207.969 196.297 208.312 194.656 209 193.312C209.688 191.969 210.667 190.948 211.938 190.25C213.208 189.552 214.724 189.203 216.484 189.203C218.12 189.203 219.568 189.552 220.828 190.25C222.099 190.948 223.094 191.969 223.812 193.312C224.542 194.656 224.906 196.297 224.906 198.234ZM212.828 198.234C212.828 199.38 212.953 200.344 213.203 201.125C213.453 201.906 213.844 202.495 214.375 202.891C214.906 203.286 215.599 203.484 216.453 203.484C217.297 203.484 217.979 203.286 218.5 202.891C219.031 202.495 219.417 201.906 219.656 201.125C219.906 200.344 220.031 199.38 220.031 198.234C220.031 197.078 219.906 196.12 219.656 195.359C219.417 194.589 219.031 194.01 218.5 193.625C217.969 193.24 217.276 193.047 216.422 193.047C215.161 193.047 214.245 193.479 213.672 194.344C213.109 195.208 212.828 196.505 212.828 198.234ZM222.594 182.484V182.812C222.292 183.104 221.896 183.464 221.406 183.891C220.917 184.318 220.391 184.766 219.828 185.234C219.266 185.693 218.714 186.135 218.172 186.562C217.63 186.979 217.156 187.328 216.75 187.609H213.578V187.188C213.922 186.792 214.318 186.323 214.766 185.781C215.224 185.229 215.677 184.661 216.125 184.078C216.573 183.495 216.948 182.964 217.25 182.484H222.594ZM238.594 189.203C238.833 189.203 239.109 189.219 239.422 189.25C239.745 189.271 240.005 189.302 240.203 189.344L239.844 193.812C239.688 193.76 239.464 193.724 239.172 193.703C238.891 193.672 238.646 193.656 238.438 193.656C237.823 193.656 237.224 193.734 236.641 193.891C236.068 194.047 235.552 194.302 235.094 194.656C234.635 195 234.271 195.458 234 196.031C233.74 196.594 233.609 197.286 233.609 198.109V207H228.844V189.531H232.453L233.156 192.469H233.391C233.734 191.875 234.161 191.333 234.672 190.844C235.193 190.344 235.781 189.948 236.438 189.656C237.104 189.354 237.823 189.203 238.594 189.203ZM248.141 189.531V207H243.375V189.531H248.141ZM245.766 182.688C246.474 182.688 247.083 182.854 247.594 183.188C248.104 183.51 248.359 184.12 248.359 185.016C248.359 185.901 248.104 186.516 247.594 186.859C247.083 187.193 246.474 187.359 245.766 187.359C245.047 187.359 244.432 187.193 243.922 186.859C243.422 186.516 243.172 185.901 243.172 185.016C243.172 184.12 243.422 183.51 243.922 183.188C244.432 182.854 245.047 182.688 245.766 182.688ZM260.312 189.172C262.656 189.172 264.453 189.682 265.703 190.703C266.953 191.724 267.578 193.276 267.578 195.359V207H264.25L263.328 204.625H263.203C262.703 205.25 262.193 205.76 261.672 206.156C261.151 206.552 260.552 206.844 259.875 207.031C259.198 207.219 258.375 207.312 257.406 207.312C256.375 207.312 255.448 207.115 254.625 206.719C253.812 206.323 253.172 205.719 252.703 204.906C252.234 204.083 252 203.042 252 201.781C252 199.927 252.651 198.562 253.953 197.688C255.255 196.802 257.208 196.312 259.812 196.219L262.844 196.125V195.359C262.844 194.443 262.604 193.771 262.125 193.344C261.646 192.917 260.979 192.703 260.125 192.703C259.281 192.703 258.453 192.823 257.641 193.062C256.828 193.302 256.016 193.604 255.203 193.969L253.625 190.75C254.552 190.26 255.589 189.875 256.734 189.594C257.891 189.312 259.083 189.172 260.312 189.172ZM262.844 198.906L261 198.969C259.458 199.01 258.385 199.286 257.781 199.797C257.188 200.307 256.891 200.979 256.891 201.812C256.891 202.542 257.104 203.062 257.531 203.375C257.958 203.677 258.516 203.828 259.203 203.828C260.224 203.828 261.083 203.526 261.781 202.922C262.49 202.318 262.844 201.458 262.844 200.344V198.906ZM286.344 207.312C284.396 207.312 282.807 206.552 281.578 205.031C280.359 203.5 279.75 201.255 279.75 198.297C279.75 195.307 280.37 193.047 281.609 191.516C282.849 189.974 284.469 189.203 286.469 189.203C287.302 189.203 288.036 189.318 288.672 189.547C289.307 189.776 289.854 190.083 290.312 190.469C290.781 190.854 291.177 191.286 291.5 191.766H291.656C291.594 191.432 291.516 190.943 291.422 190.297C291.339 189.641 291.297 188.969 291.297 188.281V182.688H296.078V207H292.422L291.5 204.734H291.297C290.995 205.214 290.615 205.651 290.156 206.047C289.708 206.432 289.172 206.74 288.547 206.969C287.922 207.198 287.188 207.312 286.344 207.312ZM288.016 203.516C289.318 203.516 290.234 203.13 290.766 202.359C291.307 201.578 291.594 200.406 291.625 198.844V198.328C291.625 196.63 291.365 195.333 290.844 194.438C290.323 193.531 289.354 193.078 287.938 193.078C286.885 193.078 286.062 193.531 285.469 194.438C284.875 195.344 284.578 196.651 284.578 198.359C284.578 200.068 284.875 201.354 285.469 202.219C286.073 203.083 286.922 203.516 288.016 203.516ZM308.266 189.203C309.88 189.203 311.271 189.516 312.438 190.141C313.604 190.755 314.505 191.651 315.141 192.828C315.776 194.005 316.094 195.443 316.094 197.141V199.453H304.828C304.88 200.797 305.281 201.854 306.031 202.625C306.792 203.385 307.844 203.766 309.188 203.766C310.302 203.766 311.323 203.651 312.25 203.422C313.177 203.193 314.13 202.849 315.109 202.391V206.078C314.245 206.505 313.339 206.818 312.391 207.016C311.453 207.214 310.312 207.312 308.969 207.312C307.219 207.312 305.667 206.99 304.312 206.344C302.969 205.698 301.911 204.714 301.141 203.391C300.38 202.068 300 200.401 300 198.391C300 196.349 300.344 194.651 301.031 193.297C301.729 191.932 302.698 190.911 303.938 190.234C305.177 189.547 306.62 189.203 308.266 189.203ZM308.297 192.594C307.37 192.594 306.599 192.891 305.984 193.484C305.38 194.078 305.031 195.01 304.938 196.281H311.625C311.615 195.573 311.484 194.943 311.234 194.391C310.995 193.839 310.63 193.401 310.141 193.078C309.661 192.755 309.047 192.594 308.297 192.594ZM333.047 207H328.281V182.688H333.047V207ZM353.938 198.234C353.938 199.693 353.74 200.984 353.344 202.109C352.958 203.234 352.391 204.188 351.641 204.969C350.901 205.74 350.005 206.323 348.953 206.719C347.911 207.115 346.734 207.312 345.422 207.312C344.193 207.312 343.062 207.115 342.031 206.719C341.01 206.323 340.12 205.74 339.359 204.969C338.609 204.188 338.026 203.234 337.609 202.109C337.203 200.984 337 199.693 337 198.234C337 196.297 337.344 194.656 338.031 193.312C338.719 191.969 339.698 190.948 340.969 190.25C342.24 189.552 343.755 189.203 345.516 189.203C347.151 189.203 348.599 189.552 349.859 190.25C351.13 190.948 352.125 191.969 352.844 193.312C353.573 194.656 353.938 196.297 353.938 198.234ZM341.859 198.234C341.859 199.38 341.984 200.344 342.234 201.125C342.484 201.906 342.875 202.495 343.406 202.891C343.938 203.286 344.63 203.484 345.484 203.484C346.328 203.484 347.01 203.286 347.531 202.891C348.062 202.495 348.448 201.906 348.688 201.125C348.938 200.344 349.062 199.38 349.062 198.234C349.062 197.078 348.938 196.12 348.688 195.359C348.448 194.589 348.062 194.01 347.531 193.625C347 193.24 346.307 193.047 345.453 193.047C344.193 193.047 343.276 193.479 342.703 194.344C342.141 195.208 341.859 196.505 341.859 198.234ZM367.797 189.203C369.661 189.203 371.161 189.714 372.297 190.734C373.432 191.745 374 193.37 374 195.609V207H369.234V196.797C369.234 195.547 369.005 194.604 368.547 193.969C368.099 193.333 367.391 193.016 366.422 193.016C364.964 193.016 363.969 193.51 363.438 194.5C362.906 195.49 362.641 196.917 362.641 198.781V207H357.875V189.531H361.516L362.156 191.766H362.422C362.797 191.161 363.26 190.672 363.812 190.297C364.375 189.922 364.995 189.646 365.672 189.469C366.359 189.292 367.068 189.203 367.797 189.203ZM384.016 214.688C381.578 214.688 379.714 214.26 378.422 213.406C377.141 212.562 376.5 211.375 376.5 209.844C376.5 208.792 376.828 207.911 377.484 207.203C378.141 206.495 379.104 205.99 380.375 205.688C379.885 205.479 379.458 205.141 379.094 204.672C378.729 204.193 378.547 203.688 378.547 203.156C378.547 202.49 378.74 201.938 379.125 201.5C379.51 201.052 380.068 200.615 380.797 200.188C379.88 199.792 379.151 199.156 378.609 198.281C378.078 197.406 377.812 196.375 377.812 195.188C377.812 193.917 378.089 192.839 378.641 191.953C379.203 191.057 380.016 190.375 381.078 189.906C382.151 189.438 383.453 189.203 384.984 189.203C385.307 189.203 385.682 189.224 386.109 189.266C386.536 189.307 386.927 189.354 387.281 189.406C387.646 189.458 387.891 189.5 388.016 189.531H394.109V191.953L391.375 192.656C391.625 193.042 391.812 193.453 391.938 193.891C392.062 194.328 392.125 194.792 392.125 195.281C392.125 197.156 391.469 198.62 390.156 199.672C388.854 200.714 387.042 201.234 384.719 201.234C384.167 201.203 383.646 201.161 383.156 201.109C382.917 201.297 382.734 201.495 382.609 201.703C382.484 201.911 382.422 202.13 382.422 202.359C382.422 202.589 382.516 202.781 382.703 202.938C382.901 203.083 383.193 203.198 383.578 203.281C383.974 203.354 384.464 203.391 385.047 203.391H388.016C389.932 203.391 391.391 203.802 392.391 204.625C393.401 205.448 393.906 206.656 393.906 208.25C393.906 210.292 393.052 211.875 391.344 213C389.646 214.125 387.203 214.688 384.016 214.688ZM384.219 211.578C385.354 211.578 386.328 211.469 387.141 211.25C387.964 211.042 388.594 210.74 389.031 210.344C389.469 209.958 389.688 209.495 389.688 208.953C389.688 208.516 389.557 208.167 389.297 207.906C389.047 207.656 388.661 207.479 388.141 207.375C387.63 207.271 386.974 207.219 386.172 207.219H383.703C383.12 207.219 382.594 207.312 382.125 207.5C381.667 207.688 381.302 207.948 381.031 208.281C380.76 208.625 380.625 209.021 380.625 209.469C380.625 210.125 380.938 210.641 381.562 211.016C382.198 211.391 383.083 211.578 384.219 211.578ZM384.984 198.328C385.88 198.328 386.536 198.052 386.953 197.5C387.37 196.948 387.578 196.198 387.578 195.25C387.578 194.198 387.359 193.411 386.922 192.891C386.495 192.359 385.849 192.094 384.984 192.094C384.109 192.094 383.453 192.359 383.016 192.891C382.578 193.411 382.359 194.198 382.359 195.25C382.359 196.198 382.573 196.948 383 197.5C383.438 198.052 384.099 198.328 384.984 198.328ZM404.156 189.172C406.5 189.172 408.297 189.682 409.547 190.703C410.797 191.724 411.422 193.276 411.422 195.359V207H408.094L407.172 204.625H407.047C406.547 205.25 406.036 205.76 405.516 206.156C404.995 206.552 404.396 206.844 403.719 207.031C403.042 207.219 402.219 207.312 401.25 207.312C400.219 207.312 399.292 207.115 398.469 206.719C397.656 206.323 397.016 205.719 396.547 204.906C396.078 204.083 395.844 203.042 395.844 201.781C395.844 199.927 396.495 198.562 397.797 197.688C399.099 196.802 401.052 196.312 403.656 196.219L406.688 196.125V195.359C406.688 194.443 406.448 193.771 405.969 193.344C405.49 192.917 404.823 192.703 403.969 192.703C403.125 192.703 402.297 192.823 401.484 193.062C400.672 193.302 399.859 193.604 399.047 193.969L397.469 190.75C398.396 190.26 399.432 189.875 400.578 189.594C401.734 189.312 402.927 189.172 404.156 189.172ZM406.688 198.906L404.844 198.969C403.302 199.01 402.229 199.286 401.625 199.797C401.031 200.307 400.734 200.979 400.734 201.812C400.734 202.542 400.948 203.062 401.375 203.375C401.802 203.677 402.359 203.828 403.047 203.828C404.068 203.828 404.927 203.526 405.625 202.922C406.333 202.318 406.688 201.458 406.688 200.344V198.906ZM430.188 207.312C428.24 207.312 426.651 206.552 425.422 205.031C424.203 203.5 423.594 201.255 423.594 198.297C423.594 195.307 424.214 193.047 425.453 191.516C426.693 189.974 428.312 189.203 430.312 189.203C431.146 189.203 431.88 189.318 432.516 189.547C433.151 189.776 433.698 190.083 434.156 190.469C434.625 190.854 435.021 191.286 435.344 191.766H435.5C435.438 191.432 435.359 190.943 435.266 190.297C435.182 189.641 435.141 188.969 435.141 188.281V182.688H439.922V207H436.266L435.344 204.734H435.141C434.839 205.214 434.458 205.651 434 206.047C433.552 206.432 433.016 206.74 432.391 206.969C431.766 207.198 431.031 207.312 430.188 207.312ZM431.859 203.516C433.161 203.516 434.078 203.13 434.609 202.359C435.151 201.578 435.438 200.406 435.469 198.844V198.328C435.469 196.63 435.208 195.333 434.688 194.438C434.167 193.531 433.198 193.078 431.781 193.078C430.729 193.078 429.906 193.531 429.312 194.438C428.719 195.344 428.422 196.651 428.422 198.359C428.422 200.068 428.719 201.354 429.312 202.219C429.917 203.083 430.766 203.516 431.859 203.516ZM460.938 189.531V207H457.281L456.641 204.766H456.391C456.016 205.359 455.547 205.844 454.984 206.219C454.422 206.594 453.802 206.87 453.125 207.047C452.448 207.224 451.745 207.312 451.016 207.312C449.766 207.312 448.677 207.094 447.75 206.656C446.823 206.208 446.099 205.516 445.578 204.578C445.068 203.641 444.812 202.422 444.812 200.922V189.531H449.578V199.734C449.578 200.984 449.802 201.927 450.25 202.562C450.698 203.198 451.411 203.516 452.391 203.516C453.359 203.516 454.12 203.297 454.672 202.859C455.224 202.411 455.609 201.76 455.828 200.906C456.057 200.042 456.172 198.99 456.172 197.75V189.531H460.938ZM475.688 189.203C475.927 189.203 476.203 189.219 476.516 189.25C476.839 189.271 477.099 189.302 477.297 189.344L476.938 193.812C476.781 193.76 476.557 193.724 476.266 193.703C475.984 193.672 475.74 193.656 475.531 193.656C474.917 193.656 474.318 193.734 473.734 193.891C473.161 194.047 472.646 194.302 472.188 194.656C471.729 195 471.365 195.458 471.094 196.031C470.833 196.594 470.703 197.286 470.703 198.109V207H465.938V189.531H469.547L470.25 192.469H470.484C470.828 191.875 471.255 191.333 471.766 190.844C472.286 190.344 472.875 189.948 473.531 189.656C474.198 189.354 474.917 189.203 475.688 189.203ZM487.625 189.172C489.969 189.172 491.766 189.682 493.016 190.703C494.266 191.724 494.891 193.276 494.891 195.359V207H491.562L490.641 204.625H490.516C490.016 205.25 489.505 205.76 488.984 206.156C488.464 206.552 487.865 206.844 487.188 207.031C486.51 207.219 485.688 207.312 484.719 207.312C483.688 207.312 482.76 207.115 481.938 206.719C481.125 206.323 480.484 205.719 480.016 204.906C479.547 204.083 479.312 203.042 479.312 201.781C479.312 199.927 479.964 198.562 481.266 197.688C482.568 196.802 484.521 196.312 487.125 196.219L490.156 196.125V195.359C490.156 194.443 489.917 193.771 489.438 193.344C488.958 192.917 488.292 192.703 487.438 192.703C486.594 192.703 485.766 192.823 484.953 193.062C484.141 193.302 483.328 193.604 482.516 193.969L480.938 190.75C481.865 190.26 482.901 189.875 484.047 189.594C485.203 189.312 486.396 189.172 487.625 189.172ZM490.156 198.906L488.312 198.969C486.771 199.01 485.698 199.286 485.094 199.797C484.5 200.307 484.203 200.979 484.203 201.812C484.203 202.542 484.417 203.062 484.844 203.375C485.271 203.677 485.828 203.828 486.516 203.828C487.536 203.828 488.396 203.526 489.094 202.922C489.802 202.318 490.156 201.458 490.156 200.344V198.906ZM506.906 207.312C505.177 207.312 503.703 207 502.484 206.375C501.266 205.74 500.339 204.76 499.703 203.438C499.068 202.115 498.75 200.422 498.75 198.359C498.75 196.224 499.109 194.484 499.828 193.141C500.557 191.786 501.562 190.792 502.844 190.156C504.135 189.521 505.63 189.203 507.328 189.203C508.536 189.203 509.578 189.323 510.453 189.562C511.339 189.792 512.109 190.068 512.766 190.391L511.359 194.078C510.609 193.776 509.911 193.531 509.266 193.344C508.62 193.146 507.974 193.047 507.328 193.047C506.495 193.047 505.802 193.245 505.25 193.641C504.698 194.026 504.286 194.609 504.016 195.391C503.745 196.172 503.609 197.151 503.609 198.328C503.609 199.484 503.755 200.443 504.047 201.203C504.339 201.964 504.76 202.531 505.312 202.906C505.865 203.271 506.536 203.453 507.328 203.453C508.318 203.453 509.198 203.323 509.969 203.062C510.74 202.792 511.49 202.417 512.219 201.938V206.016C511.49 206.474 510.724 206.802 509.922 207C509.13 207.208 508.125 207.312 506.906 207.312ZM510.344 210.906C510.344 212.104 509.995 213.031 509.297 213.688C508.599 214.354 507.339 214.688 505.516 214.688C505.047 214.688 504.625 214.656 504.25 214.594C503.875 214.531 503.536 214.453 503.234 214.359V211.734C503.536 211.807 503.906 211.88 504.344 211.953C504.781 212.026 505.156 212.062 505.469 212.062C505.771 212.062 506.031 211.99 506.25 211.844C506.479 211.708 506.594 211.458 506.594 211.094C506.594 210.708 506.401 210.365 506.016 210.062C505.63 209.76 504.958 209.542 504 209.406L505.219 207H508.234L507.812 207.953C508.24 208.089 508.646 208.286 509.031 208.547C509.417 208.818 509.729 209.146 509.969 209.531C510.219 209.927 510.344 210.385 510.344 210.906ZM523.438 189.172C525.781 189.172 527.578 189.682 528.828 190.703C530.078 191.724 530.703 193.276 530.703 195.359V207H527.375L526.453 204.625H526.328C525.828 205.25 525.318 205.76 524.797 206.156C524.276 206.552 523.677 206.844 523 207.031C522.323 207.219 521.5 207.312 520.531 207.312C519.5 207.312 518.573 207.115 517.75 206.719C516.938 206.323 516.297 205.719 515.828 204.906C515.359 204.083 515.125 203.042 515.125 201.781C515.125 199.927 515.776 198.562 517.078 197.688C518.38 196.802 520.333 196.312 522.938 196.219L525.969 196.125V195.359C525.969 194.443 525.729 193.771 525.25 193.344C524.771 192.917 524.104 192.703 523.25 192.703C522.406 192.703 521.578 192.823 520.766 193.062C519.953 193.302 519.141 193.604 518.328 193.969L516.75 190.75C517.677 190.26 518.714 189.875 519.859 189.594C521.016 189.312 522.208 189.172 523.438 189.172ZM525.969 198.906L524.125 198.969C522.583 199.01 521.51 199.286 520.906 199.797C520.312 200.307 520.016 200.979 520.016 201.812C520.016 202.542 520.229 203.062 520.656 203.375C521.083 203.677 521.641 203.828 522.328 203.828C523.349 203.828 524.208 203.526 524.906 202.922C525.615 202.318 525.969 201.458 525.969 200.344V198.906ZM516.953 187.641C517.016 186.807 517.167 186.089 517.406 185.484C517.646 184.87 517.958 184.37 518.344 183.984C518.729 183.589 519.161 183.297 519.641 183.109C520.13 182.911 520.651 182.812 521.203 182.812C521.63 182.812 522.047 182.896 522.453 183.062C522.87 183.219 523.276 183.406 523.672 183.625C524.078 183.844 524.474 184.036 524.859 184.203C525.255 184.359 525.641 184.438 526.016 184.438C526.328 184.438 526.63 184.302 526.922 184.031C527.224 183.75 527.443 183.333 527.578 182.781H529.906C529.781 184.427 529.312 185.646 528.5 186.438C527.688 187.219 526.74 187.609 525.656 187.609C525.229 187.609 524.807 187.526 524.391 187.359C523.984 187.193 523.578 187.005 523.172 186.797C522.776 186.578 522.385 186.385 522 186.219C521.615 186.052 521.234 185.969 520.859 185.969C520.536 185.969 520.224 186.109 519.922 186.391C519.63 186.661 519.417 187.078 519.281 187.641H516.953ZM551.5 198.234C551.5 199.693 551.302 200.984 550.906 202.109C550.521 203.234 549.953 204.188 549.203 204.969C548.464 205.74 547.568 206.323 546.516 206.719C545.474 207.115 544.297 207.312 542.984 207.312C541.755 207.312 540.625 207.115 539.594 206.719C538.573 206.323 537.682 205.74 536.922 204.969C536.172 204.188 535.589 203.234 535.172 202.109C534.766 200.984 534.562 199.693 534.562 198.234C534.562 196.297 534.906 194.656 535.594 193.312C536.281 191.969 537.26 190.948 538.531 190.25C539.802 189.552 541.318 189.203 543.078 189.203C544.714 189.203 546.161 189.552 547.422 190.25C548.693 190.948 549.688 191.969 550.406 193.312C551.135 194.656 551.5 196.297 551.5 198.234ZM539.422 198.234C539.422 199.38 539.547 200.344 539.797 201.125C540.047 201.906 540.438 202.495 540.969 202.891C541.5 203.286 542.193 203.484 543.047 203.484C543.891 203.484 544.573 203.286 545.094 202.891C545.625 202.495 546.01 201.906 546.25 201.125C546.5 200.344 546.625 199.38 546.625 198.234C546.625 197.078 546.5 196.12 546.25 195.359C546.01 194.589 545.625 194.01 545.094 193.625C544.562 193.24 543.87 193.047 543.016 193.047C541.755 193.047 540.839 193.479 540.266 194.344C539.703 195.208 539.422 196.505 539.422 198.234Z" fill="#BD5845"/>
</svg>
