<svg width="15" height="16" viewBox="0 0 15 16" fill="none" xmlns="http://www.w3.org/2000/svg">
<g clip-path="url(#clip0_2328_7380)">
<path d="M14.5999 8.75227C14.8245 8.50725 14.9714 8.16155 14.9527 7.82363C14.9124 7.09138 14.4597 6.6367 13.9322 6.18115C11.0931 4.5144 4.93869 0.614099 2.06143 0C1.52669 0.241362 0.804184 0.475153 0.596844 1.08418C-0.0523483 2.99042 0.217609 7.48135 0.156376 9.67227C0.0865349 11.3294 -0.406646 14.4067 0.821777 15.7019C1.02596 15.9172 1.09336 15.9556 1.39307 15.9907C1.98256 16.0592 2.80491 15.7342 3.33169 15.5032C4.90191 14.8144 13.7081 9.72659 14.5999 8.75227ZM3.08889 12.1417L3.32284 8.04047C3.4021 6.64165 3.40968 5.23176 3.44742 3.83074C5.67133 5.17042 7.99557 6.49713 10.3078 7.67907C8.89866 9.04238 4.98692 10.8041 3.08889 12.1417Z" fill="#D27361"/>
</g>
<defs>
<clipPath id="clip0_2328_7380">
<rect width="14.9543" height="16" fill="white"/>
</clipPath>
</defs>
</svg>
