<svg width="1157" height="1023" viewBox="0 0 1157 1023" fill="none" xmlns="http://www.w3.org/2000/svg">
<g id="Figura 2 ">
<g id="Group 951">
<g id="Rectangle 190" filter="url(#filter0_d_2328_9153)">
<rect x="4" y="45" width="356" height="332" rx="47" fill="#F8EBF6"/>
</g>
<text id="Funcionalidade" fill="#434556" xml:space="preserve" style="white-space: pre" font-family="Open Sans" font-size="20" font-weight="600" letter-spacing="0em"><tspan x="105" y="113.759">Funcionalidade</tspan></text>
<text id="Termo abrangente para fun&#195;&#167;&#195;&#181;es do corpo, estruturas do corpo, atividades e participa&#195;&#167;&#195;&#163;o. Ela denota os aspectos positivos da intera&#195;&#167;&#195;&#163;o entre um indiv&#195;&#173;duo (com uma condi&#195;&#167;&#195;&#163;o de sa&#195;&#186;de) e os fatores contextuais daquele indiv&#195;&#173;duo (fatores ambientais e pessoais)." fill="black" xml:space="preserve" style="white-space: pre" font-family="Open Sans" font-size="18" letter-spacing="0em"><tspan x="33.0088" y="146.483">Termo abrangente para fun&#xe7;&#xf5;es do </tspan><tspan x="66.7764" y="171.483">corpo, estruturas do corpo, </tspan><tspan x="60.6504" y="196.483">atividades e participa&#xe7;&#xe3;o. Ela </tspan><tspan x="47.9678" y="221.483">denota os aspectos positivos da </tspan><tspan x="36.7881" y="246.483">intera&#xe7;&#xe3;o entre um indiv&#xed;duo (com </tspan><tspan x="59.8418" y="271.483">uma condi&#xe7;&#xe3;o de sa&#xfa;de) e os </tspan><tspan x="64.7021" y="296.483">fatores contextuais daquele </tspan><tspan x="51.8262" y="321.483">indiv&#xed;duo (fatores ambientais e </tspan><tspan x="140.358" y="346.483">pessoais).</tspan></text>
</g>
<g id="Group 957">
<g id="Rectangle 190_2" filter="url(#filter1_d_2328_9153)">
<rect x="396" y="48" width="356" height="181" rx="47" fill="#F8EBF6"/>
</g>
<text id="Fun&#195;&#167;&#195;&#181;es do corpo" fill="#434556" xml:space="preserve" style="white-space: pre" font-family="Open Sans" font-size="20" font-weight="600" letter-spacing="0em"><tspan x="489" y="116.759">Fun&#xe7;&#xf5;es do corpo</tspan></text>
<text id="As fun&#195;&#167;&#195;&#181;es fisiol&#195;&#179;gicas dos sistemas do corpo (inclusive fun&#195;&#167;&#195;&#181;es psicol&#195;&#179;gicas)." fill="black" xml:space="preserve" style="white-space: pre" font-family="Open Sans" font-size="18" letter-spacing="0em"><tspan x="423.33" y="149.483">As fun&#xe7;&#xf5;es fisiol&#xf3;gicas dos sistemas </tspan><tspan x="459.4" y="174.483">do corpo (inclusive fun&#xe7;&#xf5;es </tspan><tspan x="518.217" y="199.483">psicol&#xf3;gicas).</tspan></text>
</g>
<g id="Group 958">
<g id="Rectangle 190_3" filter="url(#filter2_d_2328_9153)">
<rect x="786" y="48" width="356" height="181" rx="47" fill="#F8EBF6"/>
</g>
<text id="Atividade" fill="#434556" xml:space="preserve" style="white-space: pre" font-family="Open Sans" font-size="20" font-weight="600" letter-spacing="0em"><tspan x="918" y="116.759">Atividade</tspan></text>
<text id="A execu&#195;&#167;&#195;&#163;o de uma tarefa ou a&#195;&#167;&#195;&#163;o por um indiv&#195;&#173;duo." fill="black" xml:space="preserve" style="white-space: pre" font-family="Open Sans" font-size="18" letter-spacing="0em"><tspan x="819.333" y="149.483">A execu&#xe7;&#xe3;o de uma tarefa ou a&#xe7;&#xe3;o </tspan><tspan x="889.197" y="174.483">por um indiv&#xed;duo.</tspan></text>
</g>
<g id="Group 961">
<g id="Rectangle 190_4" filter="url(#filter3_d_2328_9153)">
<rect x="786" y="324" width="356" height="181" rx="47" fill="#F8EBF6"/>
</g>
<text id="Participa&#195;&#167;&#195;&#163;o" fill="#434556" xml:space="preserve" style="white-space: pre" font-family="Open Sans" font-size="20" font-weight="600" letter-spacing="0em"><tspan x="904" y="392.759">Participa&#xe7;&#xe3;o</tspan></text>
<text id="Envolvimento em situa&#195;&#167;&#195;&#181;es da vida di&#195;&#161;ria." fill="black" xml:space="preserve" style="white-space: pre" font-family="Open Sans" font-size="18" letter-spacing="0em"><tspan x="817.582" y="425.483">Envolvimento em situa&#xe7;&#xf5;es da vida </tspan><tspan x="938.388" y="450.483">di&#xe1;ria.</tspan></text>
</g>
<g id="Group 962">
<g id="Rectangle 190_5" filter="url(#filter4_d_2328_9153)">
<rect x="789" y="595" width="356" height="181" rx="47" fill="#F8EBF6"/>
</g>
<text id="Restri&#195;&#167;&#195;&#181;es de participa&#195;&#167;&#195;&#163;o" fill="#434556" xml:space="preserve" style="white-space: pre" font-family="Open Sans" font-size="20" font-weight="600" letter-spacing="0em"><tspan x="840" y="663.759">Restri&#xe7;&#xf5;es de participa&#xe7;&#xe3;o</tspan></text>
<text id="Problemas que um indiv&#195;&#173;duo pode enfrentar ao se envolver em situa&#195;&#167;&#195;&#181;es de vida." fill="black" xml:space="preserve" style="white-space: pre" font-family="Open Sans" font-size="18" letter-spacing="0em"><tspan x="822.946" y="696.483">Problemas que um indiv&#xed;duo pode </tspan><tspan x="849.252" y="721.483">enfrentar ao se envolver em </tspan><tspan x="893.241" y="746.483">situa&#xe7;&#xf5;es de vida.</tspan></text>
</g>
<g id="Group 959">
<g id="Rectangle 190_6" filter="url(#filter5_d_2328_9153)">
<rect x="396" y="595" width="356" height="181" rx="47" fill="#F8EBF6"/>
</g>
<text id="Defici&#195;&#170;ncias" fill="#434556" xml:space="preserve" style="white-space: pre" font-family="Open Sans" font-size="20" font-weight="600" letter-spacing="0em"><tspan x="516" y="663.759">Defici&#xea;ncias</tspan></text>
<text id="Problemas nas fun&#195;&#167;&#195;&#181;es ou estruturas do corpo como um desvio significativo ou perda." fill="black" xml:space="preserve" style="white-space: pre" font-family="Open Sans" font-size="18" letter-spacing="0em"><tspan x="462.626" y="696.483">Problemas nas fun&#xe7;&#xf5;es ou </tspan><tspan x="448.106" y="721.483">estruturas do corpo como um </tspan><tspan x="452.123" y="746.483">desvio significativo ou perda.</tspan></text>
</g>
<g id="Group 960">
<g id="Rectangle 190_7" filter="url(#filter6_d_2328_9153)">
<rect x="396" y="321" width="356" height="181" rx="47" fill="#F8EBF6"/>
</g>
<text id="Estruturas do corpo" fill="#434556" xml:space="preserve" style="white-space: pre" font-family="Open Sans" font-size="20" font-weight="600" letter-spacing="0em"><tspan x="478" y="389.759">Estruturas do corpo</tspan></text>
<text id="Partes anat&#195;&#180;micas do corpo como &#195;&#179;rg&#195;&#163;os, membros e seus componentes." fill="black" xml:space="preserve" style="white-space: pre" font-family="Open Sans" font-size="18" letter-spacing="0em"><tspan x="430.405" y="422.483">Partes anat&#xf4;micas do corpo como </tspan><tspan x="470.65" y="447.483">&#xf3;rg&#xe3;os, membros e seus </tspan><tspan x="513.506" y="472.483">componentes.</tspan></text>
</g>
<g id="Group 956">
<g id="Rectangle 190_8" filter="url(#filter7_d_2328_9153)">
<rect x="4" y="444" width="356" height="332" rx="47" fill="#F8EBF6"/>
</g>
<text id="Incapacidade" fill="#434556" xml:space="preserve" style="white-space: pre" font-family="Open Sans" font-size="20" font-weight="600" letter-spacing="0em"><tspan x="118" y="512.759">Incapacidade</tspan></text>
<text id="Termo abrangente para defici&#195;&#170;ncias, limita&#195;&#167;&#195;&#181;es de atividade e restri&#195;&#167;&#195;&#181;es de participa&#195;&#167;&#195;&#163;o. Ela denota os aspectos negativos da intera&#195;&#167;&#195;&#163;o entre um indiv&#195;&#173;duo (com uma condi&#195;&#167;&#195;&#163;o de sa&#195;&#186;de) e os fatores contextuais daquele indiv&#195;&#173;duo (fatores ambientais e pessoais)." fill="black" xml:space="preserve" style="white-space: pre" font-family="Open Sans" font-size="18" letter-spacing="0em"><tspan x="81.7529" y="545.483">Termo abrangente para </tspan><tspan x="31.9014" y="570.483">defici&#xea;ncias, limita&#xe7;&#xf5;es de atividade </tspan><tspan x="49.1104" y="595.483">e restri&#xe7;&#xf5;es de participa&#xe7;&#xe3;o. Ela </tspan><tspan x="44.9971" y="620.483">denota os aspectos negativos da </tspan><tspan x="36.7881" y="645.483">intera&#xe7;&#xe3;o entre um indiv&#xed;duo (com </tspan><tspan x="59.8418" y="670.483">uma condi&#xe7;&#xe3;o de sa&#xfa;de) e os </tspan><tspan x="64.7021" y="695.483">fatores contextuais daquele </tspan><tspan x="51.8262" y="720.483">indiv&#xed;duo (fatores ambientais e </tspan><tspan x="140.358" y="745.483">pessoais).</tspan></text>
</g>
<circle id="Ellipse 19" cx="181.5" cy="44.5" r="41.5" fill="white"/>
<circle id="Ellipse 52" cx="573.5" cy="47.5" r="41.5" fill="white"/>
<circle id="Ellipse 53" cx="963.5" cy="47.5" r="41.5" fill="white"/>
<circle id="Ellipse 56" cx="963.5" cy="323.5" r="41.5" fill="white"/>
<circle id="Ellipse 57" cx="958.5" cy="594.5" r="41.5" fill="white"/>
<circle id="Ellipse 54" cx="573.5" cy="594.5" r="41.5" fill="white"/>
<circle id="Ellipse 55" cx="573.5" cy="320.5" r="41.5" fill="white"/>
<circle id="Ellipse 51" cx="181.5" cy="443.5" r="41.5" fill="white"/>
<g id="Group">
<g id="Group_2">
<path id="Vector" d="M215.596 15.905C207.421 6.192 195.178 0 181.507 0C156.964 0 137 19.973 137 44.516C137 69.059 156.964 89.032 181.507 89.032C195.178 89.032 207.421 82.841 215.596 73.128C222.093 65.38 226.023 55.398 226.023 44.517C226.023 33.635 222.093 23.653 215.596 15.905ZM213.575 72.85C205.734 81.72 194.26 87.327 181.507 87.327C157.9 87.327 138.697 68.123 138.697 44.517C138.697 20.911 157.901 1.707 181.507 1.707C194.26 1.707 205.734 7.31402 213.575 16.184C220.267 23.747 224.326 33.664 224.326 44.517C224.326 55.37 220.267 65.286 213.575 72.85Z" fill="#AEABDA"/>
</g>
</g>
<g id="Group_3">
<g id="Group_4">
<path id="Vector_2" d="M607.596 18.905C599.421 9.192 587.178 3 573.507 3C548.964 3 529 22.973 529 47.516C529 72.059 548.964 92.032 573.507 92.032C587.178 92.032 599.421 85.841 607.596 76.128C614.093 68.38 618.023 58.398 618.023 47.517C618.023 36.635 614.093 26.653 607.596 18.905ZM605.575 75.85C597.734 84.72 586.26 90.327 573.507 90.327C549.9 90.327 530.697 71.123 530.697 47.517C530.697 23.911 549.901 4.707 573.507 4.707C586.26 4.707 597.734 10.314 605.575 19.184C612.267 26.747 616.326 36.664 616.326 47.517C616.326 58.37 612.267 68.286 605.575 75.85Z" fill="#AEABDA"/>
</g>
</g>
<g id="Group_5">
<g id="Group_6">
<path id="Vector_3" d="M997.596 18.905C989.421 9.192 977.178 3 963.507 3C938.964 3 919 22.973 919 47.516C919 72.059 938.964 92.032 963.507 92.032C977.178 92.032 989.421 85.841 997.596 76.128C1004.09 68.38 1008.02 58.398 1008.02 47.517C1008.02 36.635 1004.09 26.653 997.596 18.905ZM995.575 75.85C987.734 84.72 976.26 90.327 963.507 90.327C939.9 90.327 920.697 71.123 920.697 47.517C920.697 23.911 939.901 4.707 963.507 4.707C976.26 4.707 987.734 10.314 995.575 19.184C1002.27 26.747 1006.33 36.664 1006.33 47.517C1006.33 58.37 1002.27 68.286 995.575 75.85Z" fill="#AEABDA"/>
</g>
</g>
<g id="Group_7">
<g id="Group_8">
<path id="Vector_4" d="M997.596 294.905C989.421 285.192 977.178 279 963.507 279C938.964 279 919 298.973 919 323.516C919 348.059 938.964 368.032 963.507 368.032C977.178 368.032 989.421 361.841 997.596 352.128C1004.09 344.38 1008.02 334.398 1008.02 323.517C1008.02 312.635 1004.09 302.653 997.596 294.905ZM995.575 351.85C987.734 360.72 976.26 366.327 963.507 366.327C939.9 366.327 920.697 347.123 920.697 323.517C920.697 299.911 939.901 280.707 963.507 280.707C976.26 280.707 987.734 286.314 995.575 295.184C1002.27 302.747 1006.33 312.664 1006.33 323.517C1006.33 334.37 1002.27 344.286 995.575 351.85Z" fill="#AEABDA"/>
</g>
</g>
<g id="Group_9">
<g id="Group_10">
<path id="Vector_5" d="M992.596 565.905C984.421 556.192 972.178 550 958.507 550C933.964 550 914 569.973 914 594.516C914 619.059 933.964 639.032 958.507 639.032C972.178 639.032 984.421 632.841 992.596 623.128C999.093 615.38 1003.02 605.398 1003.02 594.517C1003.02 583.635 999.093 573.653 992.596 565.905ZM990.575 622.85C982.734 631.72 971.26 637.327 958.507 637.327C934.9 637.327 915.697 618.123 915.697 594.517C915.697 570.911 934.901 551.707 958.507 551.707C971.26 551.707 982.734 557.314 990.575 566.184C997.267 573.747 1001.33 583.664 1001.33 594.517C1001.33 605.37 997.267 615.286 990.575 622.85Z" fill="#AEABDA"/>
</g>
</g>
<g id="Group_11">
<g id="Group_12">
<path id="Vector_6" d="M607.596 565.905C599.421 556.192 587.178 550 573.507 550C548.964 550 529 569.973 529 594.516C529 619.059 548.964 639.032 573.507 639.032C587.178 639.032 599.421 632.841 607.596 623.128C614.093 615.38 618.023 605.398 618.023 594.517C618.023 583.635 614.093 573.653 607.596 565.905ZM605.575 622.85C597.734 631.72 586.26 637.327 573.507 637.327C549.9 637.327 530.697 618.123 530.697 594.517C530.697 570.911 549.901 551.707 573.507 551.707C586.26 551.707 597.734 557.314 605.575 566.184C612.267 573.747 616.326 583.664 616.326 594.517C616.326 605.37 612.267 615.286 605.575 622.85Z" fill="#AEABDA"/>
</g>
</g>
<g id="Group_13">
<g id="Group_14">
<path id="Vector_7" d="M607.596 291.905C599.421 282.192 587.178 276 573.507 276C548.964 276 529 295.973 529 320.516C529 345.059 548.964 365.032 573.507 365.032C587.178 365.032 599.421 358.841 607.596 349.128C614.093 341.38 618.023 331.398 618.023 320.517C618.023 309.635 614.093 299.653 607.596 291.905ZM605.575 348.85C597.734 357.72 586.26 363.327 573.507 363.327C549.9 363.327 530.697 344.123 530.697 320.517C530.697 296.911 549.901 277.707 573.507 277.707C586.26 277.707 597.734 283.314 605.575 292.184C612.267 299.747 616.326 309.664 616.326 320.517C616.326 331.37 612.267 341.286 605.575 348.85Z" fill="#AEABDA"/>
</g>
</g>
<g id="Group_15">
<g id="Group_16">
<path id="Vector_8" d="M215.596 414.905C207.421 405.192 195.178 399 181.507 399C156.964 399 137 418.973 137 443.516C137 468.059 156.964 488.032 181.507 488.032C195.178 488.032 207.421 481.841 215.596 472.128C222.093 464.38 226.023 454.398 226.023 443.517C226.023 432.635 222.093 422.653 215.596 414.905ZM213.575 471.85C205.734 480.72 194.26 486.327 181.507 486.327C157.9 486.327 138.697 467.123 138.697 443.517C138.697 419.911 157.901 400.707 181.507 400.707C194.26 400.707 205.734 406.314 213.575 415.184C220.267 422.747 224.326 432.664 224.326 443.517C224.326 454.37 220.267 464.286 213.575 471.85Z" fill="#AEABDA"/>
</g>
</g>
<g id="Group 958_2">
<g id="Rectangle 270" filter="url(#filter8_d_2328_9153)">
<rect x="5" y="847" width="356" height="164" rx="47" fill="#F8EBF6"/>
</g>
<circle id="Ellipse 23" cx="182.5" cy="849.5" r="41.5" fill="white"/>
<g id="Group_17">
<g id="Group_18">
<path id="Vector_9" d="M215.596 820.905C207.421 811.192 195.178 805 181.507 805C156.964 805 137 824.973 137 849.516C137 874.059 156.964 894.032 181.507 894.032C195.178 894.032 207.421 887.841 215.596 878.128C222.093 870.38 226.023 860.398 226.023 849.517C226.023 838.635 222.093 828.653 215.596 820.905ZM213.575 877.85C205.734 886.72 194.26 892.327 181.507 892.327C157.9 892.327 138.697 873.123 138.697 849.517C138.697 825.911 157.901 806.707 181.507 806.707C194.26 806.707 205.734 812.314 213.575 821.184C220.267 828.747 224.326 838.664 224.326 849.517C224.326 860.37 220.267 870.286 213.575 877.85Z" fill="#AEABDA"/>
</g>
</g>
<text id="Limita&#195;&#167;&#195;&#181;es de atividade" fill="#434556" xml:space="preserve" style="white-space: pre" font-family="Open Sans" font-size="20" font-weight="600" letter-spacing="0em"><tspan x="67" y="923.759">Limita&#xe7;&#xf5;es de atividade</tspan></text>
<text id="Dificuldades que um indiv&#195;&#173;duo pode encontrar na execu&#195;&#167;&#195;&#163;o de atividades." fill="black" xml:space="preserve" style="white-space: pre" font-family="Open Sans" font-size="18" letter-spacing="0em"><tspan x="31.3369" y="956.483">Dificuldades que um indiv&#xed;duo pode </tspan><tspan x="26.292" y="981.483">encontrar na execu&#xe7;&#xe3;o de atividades.</tspan></text>
</g>
<g id="Rectangle 272" filter="url(#filter9_d_2328_9153)">
<rect x="397" y="846" width="746" height="165" rx="47" fill="#F8EBF6"/>
</g>
<circle id="Ellipse 25" cx="770.5" cy="849.5" r="41.5" fill="white"/>
<g id="Group_19">
<g id="Group_20">
<path id="Vector_10" d="M803.596 820.905C795.421 811.192 783.178 805 769.507 805C744.964 805 725 824.973 725 849.516C725 874.059 744.964 894.032 769.507 894.032C783.178 894.032 795.421 887.841 803.596 878.128C810.093 870.38 814.023 860.398 814.023 849.517C814.023 838.635 810.093 828.653 803.596 820.905ZM801.575 877.85C793.734 886.72 782.26 892.327 769.507 892.327C745.9 892.327 726.697 873.123 726.697 849.517C726.697 825.911 745.901 806.707 769.507 806.707C782.26 806.707 793.734 812.314 801.575 821.184C808.267 828.747 812.326 838.664 812.326 849.517C812.326 860.37 808.267 870.286 801.575 877.85Z" fill="#AEABDA"/>
</g>
</g>
<text id="Fatores ambientais" fill="#434556" xml:space="preserve" style="white-space: pre" font-family="Open Sans" font-size="20" font-weight="600" letter-spacing="0em"><tspan x="677" y="922.759">Fatores ambientais</tspan></text>
<text id="O ambiente f&#195;&#173;sico, social e de atitude no qual as pessoas vivem e conduzem sua vida. Estas s&#195;&#163;o barreiras ou facilitadores para a funcionalidade de uma pessoa.&#194;&#160;" fill="black" xml:space="preserve" style="white-space: pre" font-family="Open Sans" font-size="18" letter-spacing="0em"><tspan x="436.622" y="955.483">O ambiente f&#xed;sico, social e de atitude no qual as pessoas vivem e conduzem sua </tspan><tspan x="437.589" y="980.483">vida. Estas s&#xe3;o barreiras ou facilitadores para a funcionalidade de uma pessoa.&#xa0;</tspan></text>
<g id="bi:person-x-fill" clip-path="url(#clip0_2328_9153)">
<path id="Vector_11" fill-rule="evenodd" clip-rule="evenodd" d="M938.812 611.375C938.812 611.375 936 611.375 936 608.562C936 605.75 938.812 597.312 952.875 597.312C966.938 597.312 969.75 605.75 969.75 608.562C969.75 611.375 966.938 611.375 966.938 611.375H938.812ZM952.875 594.5C955.113 594.5 957.259 593.611 958.841 592.029C960.424 590.446 961.312 588.3 961.312 586.062C961.312 583.825 960.424 581.679 958.841 580.096C957.259 578.514 955.113 577.625 952.875 577.625C950.637 577.625 948.491 578.514 946.909 580.096C945.326 581.679 944.438 583.825 944.438 586.062C944.438 588.3 945.326 590.446 946.909 592.029C948.491 593.611 950.637 594.5 952.875 594.5ZM970.161 586.473C970.291 586.342 970.446 586.238 970.617 586.167C970.788 586.096 970.971 586.06 971.156 586.06C971.341 586.06 971.524 586.096 971.695 586.167C971.866 586.238 972.021 586.342 972.152 586.473L975.375 589.699L978.598 586.473C978.862 586.209 979.22 586.061 979.594 586.061C979.967 586.061 980.325 586.209 980.589 586.473C980.853 586.737 981.002 587.095 981.002 587.469C981.002 587.842 980.853 588.2 980.589 588.464L977.363 591.688L980.589 594.911C980.853 595.175 981.002 595.533 981.002 595.906C981.002 596.28 980.853 596.638 980.589 596.902C980.325 597.166 979.967 597.314 979.594 597.314C979.22 597.314 978.862 597.166 978.598 596.902L975.375 593.676L972.152 596.902C971.888 597.166 971.53 597.314 971.156 597.314C970.783 597.314 970.425 597.166 970.161 596.902C969.897 596.638 969.748 596.28 969.748 595.906C969.748 595.533 969.897 595.175 970.161 594.911L973.387 591.688L970.161 588.464C970.03 588.334 969.926 588.179 969.855 588.008C969.784 587.837 969.747 587.654 969.747 587.469C969.747 587.284 969.784 587.101 969.855 586.93C969.926 586.759 970.03 586.604 970.161 586.473Z" fill="#AEABDA"/>
</g>
<g id="mdi:gear">
<path id="Vector_12" d="M181.5 51.0625C179.76 51.0625 178.091 50.3711 176.86 49.1404C175.629 47.9097 174.938 46.2405 174.938 44.5C174.938 42.7595 175.629 41.0903 176.86 39.8596C178.091 38.6289 179.76 37.9375 181.5 37.9375C183.241 37.9375 184.91 38.6289 186.141 39.8596C187.371 41.0903 188.063 42.7595 188.063 44.5C188.063 46.2405 187.371 47.9097 186.141 49.1404C184.91 50.3711 183.241 51.0625 181.5 51.0625ZM195.432 46.3188C195.507 45.7188 195.563 45.1188 195.563 44.5C195.563 43.8813 195.507 43.2625 195.432 42.625L199.388 39.5688C199.744 39.2875 199.838 38.7813 199.613 38.3688L195.863 31.8813C195.638 31.4688 195.132 31.3 194.719 31.4688L190.05 33.3438C189.075 32.6125 188.063 31.975 186.882 31.5063L186.188 26.5375C186.15 26.3167 186.035 26.1164 185.863 25.9723C185.691 25.8281 185.474 25.7494 185.25 25.75H177.75C177.282 25.75 176.888 26.0875 176.813 26.5375L176.119 31.5063C174.938 31.975 173.925 32.6125 172.95 33.3438L168.282 31.4688C167.869 31.3 167.363 31.4688 167.138 31.8813L163.388 38.3688C163.144 38.7813 163.257 39.2875 163.613 39.5688L167.569 42.625C167.494 43.2625 167.438 43.8813 167.438 44.5C167.438 45.1188 167.494 45.7188 167.569 46.3188L163.613 49.4313C163.257 49.7125 163.144 50.2188 163.388 50.6313L167.138 57.1188C167.363 57.5313 167.869 57.6813 168.282 57.5313L172.95 55.6375C173.925 56.3875 174.938 57.025 176.119 57.4938L176.813 62.4625C176.888 62.9125 177.282 63.25 177.75 63.25H185.25C185.719 63.25 186.113 62.9125 186.188 62.4625L186.882 57.4938C188.063 57.0063 189.075 56.3875 190.05 55.6375L194.719 57.5313C195.132 57.6813 195.638 57.5313 195.863 57.1188L199.613 50.6313C199.838 50.2188 199.744 49.7125 199.388 49.4313L195.432 46.3188Z" fill="#AEABDA"/>
</g>
<g id="uil:heart-rate">
<path id="Vector_13" d="M590.375 45.6248H582.987C582.857 45.6074 582.724 45.6074 582.594 45.6248H582.275C582.176 45.6787 582.082 45.7414 581.994 45.8123C581.89 45.8822 581.79 45.9573 581.694 46.0373C581.631 46.1139 581.575 46.1954 581.525 46.281C581.439 46.399 581.364 46.5245 581.3 46.656L578.3 54.9248L570.481 33.7373C570.35 33.3753 570.11 33.0625 569.795 32.8415C569.48 32.6205 569.104 32.502 568.719 32.502C568.334 32.502 567.958 32.6205 567.643 32.8415C567.327 33.0625 567.088 33.3753 566.956 33.7373L562.625 45.6248H556.625C556.128 45.6248 555.651 45.8223 555.299 46.1739C554.948 46.5256 554.75 47.0025 554.75 47.4998C554.75 47.997 554.948 48.4739 555.299 48.8256C555.651 49.1772 556.128 49.3748 556.625 49.3748H564.688C564.793 49.3218 564.894 49.2591 564.988 49.1873C565.091 49.1173 565.191 49.0422 565.287 48.9623L565.456 48.7185C565.546 48.6027 565.621 48.4768 565.681 48.3435L568.719 39.8498L576.519 61.2623C576.65 61.6246 576.889 61.9378 577.205 62.1593C577.52 62.3807 577.896 62.4996 578.281 62.4998C578.667 62.4996 579.043 62.3807 579.358 62.1593C579.673 61.9378 579.913 61.6246 580.044 61.2623L584.356 49.3748H590.375C590.872 49.3748 591.349 49.1772 591.701 48.8256C592.052 48.4739 592.25 47.997 592.25 47.4998C592.25 47.0025 592.052 46.5256 591.701 46.1739C591.349 45.8223 590.872 45.6248 590.375 45.6248Z" fill="#AEABDA"/>
</g>
<g id="fa6-solid:person-running" clip-path="url(#clip1_2328_9153)">
<path id="Vector_14" d="M972.143 30.125C972.143 29.031 971.714 27.9818 970.95 27.2082C970.187 26.4346 969.151 26 968.071 26C966.992 26 965.956 26.4346 965.192 27.2082C964.429 27.9818 964 29.031 964 30.125C964 31.219 964.429 32.2682 965.192 33.0418C965.956 33.8154 966.992 34.25 968.071 34.25C969.151 34.25 970.187 33.8154 970.95 33.0418C971.714 32.2682 972.143 31.219 972.143 30.125ZM955.662 41.082C956.502 40.2312 957.647 39.75 958.843 39.75C959.004 39.75 959.165 39.7586 959.318 39.7758L956.671 47.8281C955.883 50.2344 956.816 52.8813 958.945 54.2305L966.256 58.8625L964.102 66.4938C963.686 67.9547 964.526 69.4758 965.968 69.8969C967.41 70.318 968.911 69.4672 969.327 68.0062L971.761 59.3781C972.262 57.6078 971.541 55.7172 970.005 54.7461L965.188 51.6953L967.808 44.6141L968.241 45.6711C969.513 48.7477 972.474 50.75 975.765 50.75H977.571C979.073 50.75 980.286 49.5211 980.286 48C980.286 46.4789 979.073 45.25 977.571 45.25H975.765C974.671 45.25 973.678 44.5797 973.263 43.557L972.728 42.268C971.49 39.2516 968.987 36.9484 965.9 35.9859L961.769 34.6969C960.828 34.4047 959.844 34.25 958.851 34.25C956.222 34.25 953.694 35.307 951.837 37.1977L949.869 39.1828C948.808 40.257 948.808 42.0016 949.869 43.0758C950.929 44.15 952.651 44.15 953.711 43.0758L955.671 41.0906L955.662 41.082ZM952.736 56.25H947.714C946.213 56.25 945 57.4789 945 59C945 60.5211 946.213 61.75 947.714 61.75H953.618C955.229 61.75 956.688 60.7875 957.342 59.3008L958.317 57.075L957.511 56.5594C956.066 55.6479 954.941 54.2976 954.296 52.7008L952.736 56.25Z" fill="#AEABDA"/>
</g>
<g id="mdi:prohibited">
<path id="Vector_15" d="M181.5 424.75C191.812 424.75 200.25 433.188 200.25 443.5C200.25 453.812 191.812 462.25 181.5 462.25C171.188 462.25 162.75 453.812 162.75 443.5C162.75 433.188 171.188 424.75 181.5 424.75ZM181.5 428.5C177.938 428.5 174.75 429.625 172.312 431.687L193.312 452.688C195.188 450.062 196.5 446.875 196.5 443.5C196.5 435.25 189.75 428.5 181.5 428.5ZM190.688 455.312L169.687 434.312C167.625 436.75 166.5 439.938 166.5 443.5C166.5 451.75 173.25 458.5 181.5 458.5C185.062 458.5 188.25 457.375 190.688 455.312Z" fill="#AEABDA"/>
</g>
<g id="tabler:lungs-filled">
<path id="Vector_16" d="M573.496 303.625C573.994 303.625 574.471 303.823 574.822 304.174C575.174 304.526 575.371 305.003 575.371 305.5V314.875C575.371 315.533 575.545 316.18 575.874 316.75C576.203 317.32 576.676 317.793 577.246 318.123V311.607C577.246 309.278 579.112 307.375 581.433 307.375C582.131 307.375 582.817 307.551 583.537 307.951L583.875 308.17C587.053 310.476 589.05 313.861 590.949 320.057C591.791 322.812 592.224 325.975 592.246 329.545C592.276 333.661 589.14 337.09 585.041 337.36L584.596 337.375C580.528 337.375 577.246 334.024 577.246 329.913V322.139C575.892 321.788 574.663 321.066 573.697 320.054L573.496 319.833L573.296 320.054C572.331 321.066 571.102 321.788 569.748 322.139L569.746 329.913C569.746 334.024 566.465 337.375 562.398 337.375L561.896 337.356C557.855 337.09 554.72 333.661 554.75 329.547C554.773 325.974 555.205 322.812 556.048 320.059C557.943 313.859 559.94 310.474 563.214 308.106L563.566 307.887C564.177 307.55 564.864 307.374 565.561 307.375C567.881 307.375 569.746 309.278 569.746 311.607L569.748 318.123C570.318 317.793 570.791 317.32 571.12 316.75C571.449 316.18 571.622 315.533 571.621 314.875V305.5C571.621 305.003 571.819 304.526 572.171 304.174C572.522 303.823 572.999 303.625 573.496 303.625Z" fill="#AEABDA"/>
</g>
<g id="mingcute:group-fill">
<g id="Group_21">
<path id="Vector_17" d="M965.375 325.375C967.364 325.375 969.272 326.165 970.678 327.572C972.085 328.978 972.875 330.886 972.875 332.875V335.688C972.875 336.433 972.579 337.149 972.051 337.676C971.524 338.204 970.808 338.5 970.062 338.5H947.562C946.817 338.5 946.101 338.204 945.574 337.676C945.046 337.149 944.75 336.433 944.75 335.688V332.875C944.75 330.886 945.54 328.978 946.947 327.572C948.353 326.165 950.261 325.375 952.25 325.375H965.375ZM976.625 325.375C978.117 325.375 979.548 325.968 980.602 327.023C981.657 328.077 982.25 329.508 982.25 331V333.812C982.25 334.558 981.954 335.274 981.426 335.801C980.899 336.329 980.183 336.625 979.438 336.625H976.625V332.875C976.625 331.42 976.286 329.984 975.635 328.682C974.984 327.381 974.039 326.248 972.875 325.375H976.625ZM958.812 306.625C961.05 306.625 963.196 307.514 964.779 309.096C966.361 310.679 967.25 312.825 967.25 315.062C967.25 317.3 966.361 319.446 964.779 321.029C963.196 322.611 961.05 323.5 958.812 323.5C956.575 323.5 954.429 322.611 952.846 321.029C951.264 319.446 950.375 317.3 950.375 315.062C950.375 312.825 951.264 310.679 952.846 309.096C954.429 307.514 956.575 306.625 958.812 306.625ZM974.75 312.25C976.242 312.25 977.673 312.843 978.727 313.898C979.782 314.952 980.375 316.383 980.375 317.875C980.375 319.367 979.782 320.798 978.727 321.852C977.673 322.907 976.242 323.5 974.75 323.5C973.258 323.5 971.827 322.907 970.773 321.852C969.718 320.798 969.125 319.367 969.125 317.875C969.125 316.383 969.718 314.952 970.773 313.898C971.827 312.843 973.258 312.25 974.75 312.25Z" fill="#AEABDA"/>
</g>
</g>
<g id="mdi:wheelchair">
<path id="Vector_18" d="M577.25 602L579.725 605.3C577.85 608.9 574.081 611.375 569.75 611.375C563.544 611.375 558.5 606.331 558.5 600.125C558.5 595.569 561.238 591.688 565.156 589.906L565.55 593.975C563.581 595.325 562.25 597.556 562.25 600.125C562.25 604.269 565.606 607.625 569.75 607.625C573.238 607.625 576.144 605.225 576.987 602H577.25ZM587.656 602.206L585.312 603.369L580.062 596.375H571.456L571.081 592.625H577.25V588.875H570.688L570.125 583.25C572.019 583.025 573.5 581.45 573.5 579.5C573.5 578.505 573.105 577.552 572.402 576.848C571.698 576.145 570.745 575.75 569.75 575.75C568.755 575.75 567.802 576.145 567.098 576.848C566.395 577.552 566 578.505 566 579.5V579.687L568.063 600.125H578.188L584.188 608.131L589.344 605.562L587.656 602.206Z" fill="#AEABDA"/>
</g>
<g id="tabler:hand-stop">
<g id="Group_22">
<path id="Vector_19" d="M175 851.375V837.312C175 836.567 175.296 835.851 175.824 835.324C176.351 834.796 177.067 834.5 177.812 834.5C178.558 834.5 179.274 834.796 179.801 835.324C180.329 835.851 180.625 836.567 180.625 837.312M180.625 837.312V849.5M180.625 837.312V833.562C180.625 833.193 180.698 832.827 180.839 832.486C180.98 832.145 181.188 831.835 181.449 831.574C181.71 831.313 182.02 831.105 182.361 830.964C182.702 830.823 183.068 830.75 183.438 830.75C183.807 830.75 184.173 830.823 184.514 830.964C184.855 831.105 185.165 831.313 185.426 831.574C185.687 831.835 185.895 832.145 186.036 832.486C186.177 832.827 186.25 833.193 186.25 833.562V849.5M186.25 837.312C186.25 836.567 186.546 835.851 187.074 835.324C187.601 834.796 188.317 834.5 189.062 834.5C189.808 834.5 190.524 834.796 191.051 835.324C191.579 835.851 191.875 836.567 191.875 837.312V849.5" stroke="#AEABDA" stroke-width="3" stroke-linecap="round" stroke-linejoin="round"/>
<path id="Vector_20" d="M191.874 841.062C191.874 840.317 192.17 839.601 192.698 839.074C193.225 838.546 193.941 838.25 194.687 838.25C195.433 838.25 196.148 838.546 196.675 839.074C197.203 839.601 197.499 840.317 197.499 841.062V857C197.499 859.984 196.314 862.845 194.204 864.955C192.094 867.065 189.233 868.25 186.249 868.25H182.499H182.889C181.026 868.25 179.192 867.788 177.552 866.904C175.911 866.021 174.516 864.744 173.492 863.187L173.124 862.625C172.539 861.728 170.485 858.148 166.963 851.885C166.604 851.247 166.508 850.493 166.695 849.785C166.883 849.077 167.34 848.47 167.968 848.094C168.637 847.693 169.421 847.527 170.195 847.622C170.97 847.718 171.69 848.068 172.243 848.619L174.999 851.375" stroke="#AEABDA" stroke-width="3" stroke-linecap="round" stroke-linejoin="round"/>
</g>
</g>
<g id="mdi:environment">
<path id="Vector_21" d="M750.75 868.249V864.499C750.75 864.499 760.125 860.749 769.5 860.749C778.875 860.749 788.25 864.499 788.25 864.499V868.249H750.75ZM768.188 844.062C765.938 836.749 754.5 838.437 754.5 838.437C754.5 838.437 754.875 853.062 765.562 850.812C764.812 845.374 762 843.874 762 843.874C767.25 843.874 767.625 850.249 767.625 850.249V858.874H771.375V850.999C771.375 850.999 771.375 843.687 777 841.812C777 841.812 773.25 847.437 773.25 851.187C786.375 852.499 786.375 834.499 786.375 834.499C786.375 834.499 769.688 832.624 768.188 844.062Z" fill="#AEABDA"/>
</g>
</g>
<defs>
<filter id="filter0_d_2328_9153" x="0" y="41" width="372" height="348" filterUnits="userSpaceOnUse" color-interpolation-filters="sRGB">
<feFlood flood-opacity="0" result="BackgroundImageFix"/>
<feColorMatrix in="SourceAlpha" type="matrix" values="0 0 0 0 0 0 0 0 0 0 0 0 0 0 0 0 0 0 127 0" result="hardAlpha"/>
<feOffset dx="4" dy="4"/>
<feGaussianBlur stdDeviation="4"/>
<feComposite in2="hardAlpha" operator="out"/>
<feColorMatrix type="matrix" values="0 0 0 0 0 0 0 0 0 0 0 0 0 0 0 0 0 0 0.25 0"/>
<feBlend mode="normal" in2="BackgroundImageFix" result="effect1_dropShadow_2328_9153"/>
<feBlend mode="normal" in="SourceGraphic" in2="effect1_dropShadow_2328_9153" result="shape"/>
</filter>
<filter id="filter1_d_2328_9153" x="392" y="44" width="372" height="197" filterUnits="userSpaceOnUse" color-interpolation-filters="sRGB">
<feFlood flood-opacity="0" result="BackgroundImageFix"/>
<feColorMatrix in="SourceAlpha" type="matrix" values="0 0 0 0 0 0 0 0 0 0 0 0 0 0 0 0 0 0 127 0" result="hardAlpha"/>
<feOffset dx="4" dy="4"/>
<feGaussianBlur stdDeviation="4"/>
<feComposite in2="hardAlpha" operator="out"/>
<feColorMatrix type="matrix" values="0 0 0 0 0 0 0 0 0 0 0 0 0 0 0 0 0 0 0.25 0"/>
<feBlend mode="normal" in2="BackgroundImageFix" result="effect1_dropShadow_2328_9153"/>
<feBlend mode="normal" in="SourceGraphic" in2="effect1_dropShadow_2328_9153" result="shape"/>
</filter>
<filter id="filter2_d_2328_9153" x="782" y="44" width="372" height="197" filterUnits="userSpaceOnUse" color-interpolation-filters="sRGB">
<feFlood flood-opacity="0" result="BackgroundImageFix"/>
<feColorMatrix in="SourceAlpha" type="matrix" values="0 0 0 0 0 0 0 0 0 0 0 0 0 0 0 0 0 0 127 0" result="hardAlpha"/>
<feOffset dx="4" dy="4"/>
<feGaussianBlur stdDeviation="4"/>
<feComposite in2="hardAlpha" operator="out"/>
<feColorMatrix type="matrix" values="0 0 0 0 0 0 0 0 0 0 0 0 0 0 0 0 0 0 0.25 0"/>
<feBlend mode="normal" in2="BackgroundImageFix" result="effect1_dropShadow_2328_9153"/>
<feBlend mode="normal" in="SourceGraphic" in2="effect1_dropShadow_2328_9153" result="shape"/>
</filter>
<filter id="filter3_d_2328_9153" x="782" y="320" width="372" height="197" filterUnits="userSpaceOnUse" color-interpolation-filters="sRGB">
<feFlood flood-opacity="0" result="BackgroundImageFix"/>
<feColorMatrix in="SourceAlpha" type="matrix" values="0 0 0 0 0 0 0 0 0 0 0 0 0 0 0 0 0 0 127 0" result="hardAlpha"/>
<feOffset dx="4" dy="4"/>
<feGaussianBlur stdDeviation="4"/>
<feComposite in2="hardAlpha" operator="out"/>
<feColorMatrix type="matrix" values="0 0 0 0 0 0 0 0 0 0 0 0 0 0 0 0 0 0 0.25 0"/>
<feBlend mode="normal" in2="BackgroundImageFix" result="effect1_dropShadow_2328_9153"/>
<feBlend mode="normal" in="SourceGraphic" in2="effect1_dropShadow_2328_9153" result="shape"/>
</filter>
<filter id="filter4_d_2328_9153" x="785" y="591" width="372" height="197" filterUnits="userSpaceOnUse" color-interpolation-filters="sRGB">
<feFlood flood-opacity="0" result="BackgroundImageFix"/>
<feColorMatrix in="SourceAlpha" type="matrix" values="0 0 0 0 0 0 0 0 0 0 0 0 0 0 0 0 0 0 127 0" result="hardAlpha"/>
<feOffset dx="4" dy="4"/>
<feGaussianBlur stdDeviation="4"/>
<feComposite in2="hardAlpha" operator="out"/>
<feColorMatrix type="matrix" values="0 0 0 0 0 0 0 0 0 0 0 0 0 0 0 0 0 0 0.25 0"/>
<feBlend mode="normal" in2="BackgroundImageFix" result="effect1_dropShadow_2328_9153"/>
<feBlend mode="normal" in="SourceGraphic" in2="effect1_dropShadow_2328_9153" result="shape"/>
</filter>
<filter id="filter5_d_2328_9153" x="392" y="591" width="372" height="197" filterUnits="userSpaceOnUse" color-interpolation-filters="sRGB">
<feFlood flood-opacity="0" result="BackgroundImageFix"/>
<feColorMatrix in="SourceAlpha" type="matrix" values="0 0 0 0 0 0 0 0 0 0 0 0 0 0 0 0 0 0 127 0" result="hardAlpha"/>
<feOffset dx="4" dy="4"/>
<feGaussianBlur stdDeviation="4"/>
<feComposite in2="hardAlpha" operator="out"/>
<feColorMatrix type="matrix" values="0 0 0 0 0 0 0 0 0 0 0 0 0 0 0 0 0 0 0.25 0"/>
<feBlend mode="normal" in2="BackgroundImageFix" result="effect1_dropShadow_2328_9153"/>
<feBlend mode="normal" in="SourceGraphic" in2="effect1_dropShadow_2328_9153" result="shape"/>
</filter>
<filter id="filter6_d_2328_9153" x="392" y="317" width="372" height="197" filterUnits="userSpaceOnUse" color-interpolation-filters="sRGB">
<feFlood flood-opacity="0" result="BackgroundImageFix"/>
<feColorMatrix in="SourceAlpha" type="matrix" values="0 0 0 0 0 0 0 0 0 0 0 0 0 0 0 0 0 0 127 0" result="hardAlpha"/>
<feOffset dx="4" dy="4"/>
<feGaussianBlur stdDeviation="4"/>
<feComposite in2="hardAlpha" operator="out"/>
<feColorMatrix type="matrix" values="0 0 0 0 0 0 0 0 0 0 0 0 0 0 0 0 0 0 0.25 0"/>
<feBlend mode="normal" in2="BackgroundImageFix" result="effect1_dropShadow_2328_9153"/>
<feBlend mode="normal" in="SourceGraphic" in2="effect1_dropShadow_2328_9153" result="shape"/>
</filter>
<filter id="filter7_d_2328_9153" x="0" y="440" width="372" height="348" filterUnits="userSpaceOnUse" color-interpolation-filters="sRGB">
<feFlood flood-opacity="0" result="BackgroundImageFix"/>
<feColorMatrix in="SourceAlpha" type="matrix" values="0 0 0 0 0 0 0 0 0 0 0 0 0 0 0 0 0 0 127 0" result="hardAlpha"/>
<feOffset dx="4" dy="4"/>
<feGaussianBlur stdDeviation="4"/>
<feComposite in2="hardAlpha" operator="out"/>
<feColorMatrix type="matrix" values="0 0 0 0 0 0 0 0 0 0 0 0 0 0 0 0 0 0 0.25 0"/>
<feBlend mode="normal" in2="BackgroundImageFix" result="effect1_dropShadow_2328_9153"/>
<feBlend mode="normal" in="SourceGraphic" in2="effect1_dropShadow_2328_9153" result="shape"/>
</filter>
<filter id="filter8_d_2328_9153" x="1" y="843" width="372" height="180" filterUnits="userSpaceOnUse" color-interpolation-filters="sRGB">
<feFlood flood-opacity="0" result="BackgroundImageFix"/>
<feColorMatrix in="SourceAlpha" type="matrix" values="0 0 0 0 0 0 0 0 0 0 0 0 0 0 0 0 0 0 127 0" result="hardAlpha"/>
<feOffset dx="4" dy="4"/>
<feGaussianBlur stdDeviation="4"/>
<feComposite in2="hardAlpha" operator="out"/>
<feColorMatrix type="matrix" values="0 0 0 0 0 0 0 0 0 0 0 0 0 0 0 0 0 0 0.25 0"/>
<feBlend mode="normal" in2="BackgroundImageFix" result="effect1_dropShadow_2328_9153"/>
<feBlend mode="normal" in="SourceGraphic" in2="effect1_dropShadow_2328_9153" result="shape"/>
</filter>
<filter id="filter9_d_2328_9153" x="393" y="842" width="762" height="181" filterUnits="userSpaceOnUse" color-interpolation-filters="sRGB">
<feFlood flood-opacity="0" result="BackgroundImageFix"/>
<feColorMatrix in="SourceAlpha" type="matrix" values="0 0 0 0 0 0 0 0 0 0 0 0 0 0 0 0 0 0 127 0" result="hardAlpha"/>
<feOffset dx="4" dy="4"/>
<feGaussianBlur stdDeviation="4"/>
<feComposite in2="hardAlpha" operator="out"/>
<feColorMatrix type="matrix" values="0 0 0 0 0 0 0 0 0 0 0 0 0 0 0 0 0 0 0.25 0"/>
<feBlend mode="normal" in2="BackgroundImageFix" result="effect1_dropShadow_2328_9153"/>
<feBlend mode="normal" in="SourceGraphic" in2="effect1_dropShadow_2328_9153" result="shape"/>
</filter>
<clipPath id="clip0_2328_9153">
<rect width="45" height="45" fill="white" transform="translate(936 572)"/>
</clipPath>
<clipPath id="clip1_2328_9153">
<rect width="38" height="44" fill="white" transform="translate(945 26)"/>
</clipPath>
</defs>
</svg>
