<svg width="235" height="215" viewBox="0 0 235 215" fill="none" xmlns="http://www.w3.org/2000/svg">
<path d="M14.068 121.146C12.5951 106.729 22.8097 94.8915 33.2602 83.6071C51.4088 64.0093 69.5574 44.4114 87.706 24.8135C96.1792 15.6637 105.28 6.1107 117.972 2.04009C135.396 -3.54967 155.522 2.96881 169.02 14.0397C182.517 25.1106 190.771 40.03 198.729 54.5898C207.379 70.4179 224.56 78.5291 221.311 104.695C217.557 134.929 184.106 145.525 155.832 155.411C97.7721 175.711 19.0823 170.22 14.068 121.146Z" fill="#E2E2F2"/>
<path d="M182.505 71.1265C182.505 71.1265 141.65 121.292 91.2523 121.292C40.8547 121.292 0 71.1265 0 71.1265C0 71.1265 40.8547 20.9609 91.2523 20.9609C141.65 20.9609 182.505 71.1265 182.505 71.1265Z" fill="white"/>
<path d="M7.24219 63.581C18.4392 50.6215 32.079 39.5842 47.5376 31.4093C55.2807 27.3587 63.5367 24.1132 72.1673 22.0211C74.3392 21.5617 76.5 21.0262 78.7007 20.6854C80.9101 20.3933 83.1196 20.0713 85.3365 19.8129L92.0435 19.4983C93.1619 19.4621 94.2816 19.5345 95.4013 19.5483C96.521 19.5795 97.642 19.5832 98.7542 19.698L102.096 19.9926C103.208 20.1012 104.308 20.2922 105.414 20.4395C107.632 20.7079 109.804 21.2009 111.991 21.6179C113.076 21.8625 114.147 22.1546 115.225 22.4218C116.305 22.6852 117.377 22.9672 118.433 23.3043L121.613 24.2655L124.737 25.3714C128.877 26.9018 132.944 28.6082 136.845 30.6129C138.82 31.5703 140.727 32.6426 142.647 33.6886C144.525 34.8083 146.422 35.8894 148.247 37.0802C155.629 41.7213 162.431 47.15 168.835 52.927C175.128 58.8263 181.11 65.0615 186.112 72.0418C179.672 66.4058 173.021 61.1419 166.106 56.3048C162.671 53.862 159.173 51.5277 155.598 49.337C153.815 48.2335 152.014 47.1725 150.218 46.1065C148.395 45.0841 146.584 44.0543 144.742 43.0856C141.071 41.1246 137.336 39.3096 133.541 37.6769C129.751 36.0292 125.904 34.5537 122.001 33.3017C114.209 30.7577 106.198 29.0738 98.1338 28.5171C82.0086 27.2775 65.7274 31.1584 50.511 37.6681C42.8916 40.9449 35.4456 44.8182 28.2756 49.2371C21.0318 53.5586 14.1389 58.498 7.24219 63.581Z" fill="#433A60"/>
<path d="M45.3867 20.8971C53.2546 15.7554 61.9163 11.7048 71.0686 9.06347C75.6373 7.7091 80.347 6.82033 85.1005 6.23614C89.8601 5.6869 94.6809 5.62072 99.4705 5.89784C104.254 6.25734 109.012 6.9489 113.657 8.07609C118.289 9.24821 122.854 10.6612 127.242 12.4912C136.046 16.07 144.306 20.8272 151.749 26.573C143.332 22.3913 134.822 18.6065 126.052 15.7292C121.657 14.3349 117.24 13.0504 112.743 12.1617C108.265 11.2018 103.726 10.5789 99.1747 10.3067C94.6273 9.96096 90.0611 10.0071 85.5074 10.3904C80.9462 10.7149 76.4187 11.4764 71.9087 12.3964C62.8987 14.3324 54.1009 17.3794 45.3867 20.8971Z" fill="#AEABDA"/>
<path d="M186.11 72.0391C180.979 78.786 174.983 84.8513 168.678 90.5684C162.293 96.1968 155.518 101.451 148.223 105.972C146.419 107.133 144.558 108.206 142.703 109.294C141.775 109.837 140.81 110.316 139.864 110.828C138.918 111.341 137.961 111.834 136.987 112.296C133.144 114.246 129.15 115.915 125.105 117.462C116.962 120.42 108.418 122.455 99.6899 123.193C90.9595 123.96 82.1142 123.189 73.631 121.297C65.1527 119.334 56.9503 116.401 49.2709 112.517C33.866 104.835 20.2 94.2159 8.67969 81.8355C22.0499 92.1674 36.224 101.294 51.4417 107.818C66.6119 114.314 82.9717 117.953 99.1531 116.586C103.202 116.339 107.223 115.65 111.216 114.844C115.203 113.977 119.13 112.834 123.026 111.556C130.817 108.977 138.325 105.481 145.61 101.527C149.257 99.551 152.804 97.3827 156.315 95.1396C159.83 92.9027 163.267 90.5272 166.64 88.0506C173.408 83.1237 179.909 77.7861 186.11 72.0391Z" fill="#AEABDA"/>
<path d="M94.7157 110.318C115.856 110.318 132.994 93.1804 132.994 72.0399C132.994 50.8995 115.856 33.7617 94.7157 33.7617C73.5752 33.7617 56.4375 50.8995 56.4375 72.0399C56.4375 93.1804 73.5752 110.318 94.7157 110.318Z" fill="#A1602D"/>
<path d="M108.636 85.9725C116.327 78.2816 116.327 65.8121 108.636 58.1212C100.945 50.4303 88.4759 50.4304 80.785 58.1213C73.0941 65.8122 73.0941 78.2816 80.785 85.9725C88.4759 93.6634 100.945 93.6634 108.636 85.9725Z" fill="#433A60"/>
<path d="M111 51.6192C115.44 55.1656 116.998 60.5955 114.48 63.7462C111.962 66.8968 106.324 66.576 101.884 63.0284C97.4436 59.4808 95.8858 54.0521 98.4036 50.9015C100.92 47.7521 106.56 48.0729 111 51.6192Z" fill="white"/>
<path d="M69.4335 49.3067L68.7656 48.705C71.7615 45.3759 75.3103 42.6871 79.3135 40.7148L79.7105 41.5212C75.8096 43.4436 72.3519 46.0624 69.4335 49.3067Z" fill="white"/>
<path d="M66.1527 92.1014C62.0071 86.2083 59.8164 79.2717 59.8164 72.0429C59.8164 66.9512 60.8887 62.0418 63.0033 57.4531L63.8196 57.8289C61.76 62.2989 60.7152 67.081 60.7152 72.0429C60.7152 79.0869 62.8497 85.8438 66.8879 91.5846L66.1527 92.1014Z" fill="white"/>
<path d="M105.713 169.723L105.664 169.126C123.891 167.677 142.459 163.622 159.361 157.402L159.568 157.964C142.615 164.204 123.994 168.27 105.713 169.723Z" fill="#AFC3EF"/>
<path d="M212.508 45.7678L212.066 45.5544C214.955 39.5614 206.218 34.5159 206.129 34.466L206.371 34.0391C206.465 34.0915 215.595 39.3654 212.508 45.7678Z" fill="#433A60"/>
<path d="M168.512 46.3254C168.484 46.2405 165.861 37.7523 171.827 31.3661C176.986 25.8438 176.864 19.7285 176.861 19.6673L177.353 19.6523C177.354 19.716 177.489 26.0248 172.186 31.7019C166.414 37.8808 168.953 46.0945 168.98 46.1768L168.512 46.3254Z" fill="#433A60"/>
<path d="M210.025 48.1152C210.025 48.1152 215.302 42.0948 208.219 35.5376C204.395 31.9988 202.285 29.4461 201.445 24.9835C199.884 16.695 197.329 9.80201 189.195 9.73461C185.327 9.70215 182.039 13.0775 182.039 13.0775C173.533 15.0023 178.55 22.6954 172.864 31.643C168.096 39.1476 169.878 45.2142 171.693 48.1164L210.025 48.1152Z" fill="#433A60"/>
<path d="M177.496 207L179.186 193.344H169.174L168.734 207H177.496Z" fill="#FFB486"/>
<path d="M168.93 201.091C172.712 202.081 178.332 200.281 178.332 200.281L178.729 197.039L169.033 197.855L168.93 201.091Z" fill="#FCA377"/>
<path d="M153.848 213.954H179.871C180.401 213.954 180.804 213.476 180.713 212.95C180.713 212.95 180.696 212.726 180.667 212.351C180.656 212.19 180.638 211.994 180.615 211.775C180.436 209.767 179.986 205.765 179.167 204.399C178.902 203.96 177.938 203.648 177.258 205.143C176.364 207.097 173.388 208.107 168.538 203.366C168.273 203.107 167.875 203.06 167.569 203.263C166.623 203.886 164.483 205.217 161.957 206.221C157.931 207.819 155.675 208.523 154.511 210.062C154.205 210.471 154.033 211.123 153.945 211.775C153.917 211.971 153.893 212.162 153.877 212.351C153.807 213.216 153.848 213.954 153.848 213.954Z" fill="#433A60"/>
<path d="M153.875 212.374H180.665C180.654 212.213 180.637 212.017 180.613 211.797H153.944C153.915 211.993 153.892 212.183 153.875 212.374Z" fill="white"/>
<path d="M170.195 207.166L170.498 206.676C170.471 206.659 167.763 204.972 166.959 203.668L166.469 203.97C167.343 205.392 170.079 207.094 170.195 207.166Z" fill="white"/>
<path d="M230.072 198.898L223.971 186.645L214.727 190.492L221.981 202.264L230.072 198.898Z" fill="#FFB486"/>
<path d="M216.266 192.971L218.554 196.685C222.926 195.16 225.301 192.32 226.173 191.068L224.301 187.305L216.266 192.971Z" fill="#FCA377"/>
<path d="M164.055 198.638C164.055 198.638 161.705 173.35 162.409 144.216C163.013 119.2 170.313 86.2578 170.313 86.2578L192.679 87.5285C192.679 87.5285 189.921 138.52 184.184 198.125C184.184 198.125 175.896 202.076 164.055 198.638Z" fill="#695BA6"/>
<path d="M212.602 196.372C212.602 196.372 220.307 194.531 229.322 187.561C229.322 187.561 222.25 169.038 210.264 146.982C210.264 146.982 212.913 99.6202 206.46 85.8555L182.754 87.7366C182.754 87.7366 180.361 120.097 186.047 150.535C188.549 163.934 212.602 196.372 212.602 196.372Z" fill="#695BA6"/>
<path d="M170.816 75.2416C170.816 75.2416 162.972 85.6372 154.062 81.7326C149.942 79.9239 139.195 62.5479 138.74 61.9725C138.441 61.5768 134.46 60.5332 133.173 58.0229C133.046 57.7733 133.325 57.6659 133.518 57.7046C134.267 57.8544 134.866 58.5947 135.009 58.4511C135.285 58.1403 132.477 56.2117 133.136 55.5901C133.639 55.1107 136.135 58.0329 136.29 57.9131C136.613 57.6497 133.674 55.4128 134.333 54.8261C134.968 54.2632 136.779 56.8259 136.944 56.7372C137.222 56.5874 135.39 54.8386 135.784 54.4442C136.407 53.845 138.817 57.3389 139.164 57.254C139.738 57.1105 138.577 55.2655 139.247 54.9784C139.881 54.7026 140.955 57.9418 141.262 58.4187C142.74 60.708 156.792 67.2539 156.792 67.2539C159.115 63.1221 160.289 60.4396 162.097 58.7033L170.816 75.2416Z" fill="#FFBA8C"/>
<path d="M221.646 63.2408L175.561 70.8802L168.047 77.3724C160.186 71.0175 157.441 62.7901 157.441 62.7901C157.441 62.7901 165.127 42.4046 182.721 39.953C213.957 35.6015 221.646 63.2408 221.646 63.2408Z" fill="#AEABDA"/>
<path d="M214.119 97.1779C191.793 106.083 163.934 96.1493 163.934 96.1493L172.532 47.7451L182.083 40.0508C182.083 40.0508 188.755 47.3457 193.951 41.2629C194.022 41.1817 205.863 44.1014 205.863 44.1014L214.119 97.1779Z" fill="#AEABDA"/>
<path d="M210.6 214.269L234.027 202.939C234.505 202.708 234.66 202.101 234.348 201.669C234.348 201.669 234.234 201.475 234.045 201.149C233.964 201.009 233.863 200.839 233.747 200.652C232.712 198.923 230.564 195.515 229.232 194.642C228.803 194.362 227.8 194.502 227.838 196.143C227.884 198.293 225.645 200.497 219.213 198.341C218.861 198.223 218.483 198.355 218.296 198.67C217.716 199.642 216.37 201.773 214.532 203.776C211.604 206.967 209.88 208.582 209.502 210.476C209.405 210.978 209.533 211.639 209.739 212.265C209.799 212.453 209.86 212.635 209.928 212.814C210.242 213.623 210.6 214.269 210.6 214.269Z" fill="#433A60"/>
<path d="M209.927 212.83L234.045 201.165C233.963 201.025 233.862 200.855 233.746 200.668L209.738 212.279C209.797 212.469 209.859 212.65 209.927 212.83Z" fill="white"/>
<path d="M222.355 201.037L222.415 200.464C222.383 200.46 219.211 200.122 217.92 199.297L217.609 199.782C219.015 200.681 222.219 201.023 222.355 201.037Z" fill="white"/>
<path d="M194.916 40.3141L194.203 40.0495C194.134 40.1331 194.066 40.2167 193.992 40.3004C194.11 39.7449 194.178 39.4453 194.178 39.4453L194.916 40.3141Z" fill="#AEABDA"/>
<path d="M192.847 101.14C177.337 101.14 164.024 96.4837 163.832 96.415L163.997 95.9531C164.275 96.0517 192.027 105.755 214.009 96.9855L214.191 97.4423C207.301 100.19 199.848 101.14 192.847 101.14Z" fill="#433A60"/>
<path d="M192.788 97.9552C179.406 97.9552 167.716 94.4675 164.605 93.4551L164.758 92.9883C169.467 94.5224 193.982 101.77 214.032 93.7722L214.214 94.2291C207.269 96.999 199.796 97.9552 192.788 97.9552Z" fill="#433A60"/>
<path d="M204.934 101.134C205.313 101.698 206.943 100.306 207.167 100.802C207.304 101.108 204.155 103.892 204.836 104.346C205.283 104.644 206.961 102.701 207.134 102.942C207.295 103.165 204.728 105.131 205.368 105.607C206.038 106.105 207.942 103.068 208.238 103.315C208.384 103.437 205.654 106.277 206.187 106.651C206.9 107.153 208.614 104.199 208.958 104.4C209.128 104.498 208.335 105.433 207.935 106.05C207.712 106.392 207.952 106.625 208.194 106.492C210.704 105.105 212.377 100.388 212.715 100.037C234.732 77.2222 214.326 53.8945 214.326 53.8945L200.375 61.8423C200.375 61.8423 216.822 79.8199 209.142 96.3582C208.887 96.9062 208.183 98.4428 207.695 98.7973C207.246 99.1281 204.572 100.596 204.934 101.134Z" fill="#FFBB8D"/>
<path d="M223.906 67.5303C223.906 67.5303 214.373 75.8088 206.262 76.3106L194.556 57.2458L194.242 39.5391C194.242 39.5391 216.631 41.0644 223.906 67.5303Z" fill="#AEABDA"/>
<path d="M187.699 156.452C186.757 154.174 186.126 152.201 185.826 150.587C183.857 140.054 182.639 128.157 182.203 115.223L182.695 115.207C183.129 128.115 184.345 139.989 186.309 150.497C186.605 152.077 187.225 154.018 188.154 156.264L187.699 156.452Z" fill="white"/>
<path d="M194.341 40.4784C194.341 40.4784 191.869 43.1111 188.308 43.1111C185.435 43.1111 183.012 41.1263 183.012 41.1263L184.923 32.2836L192.7 28.5312L194.341 40.4784Z" fill="#FFB486"/>
<path d="M190.075 32.0742C188.861 37.7189 183.773 37.649 183.773 37.649L184.692 33.4099L190.075 32.0742Z" fill="#433A60"/>
<path d="M178.902 19.5722C177.554 23.8874 177.768 36.9056 183.851 36.6585C190.21 36.4001 192.783 29.0041 192.783 29.0041C192.783 29.0041 195.446 29.6669 196.037 26.9632C196.57 24.5253 194.025 23.8375 193.043 24.9048C193.043 24.9048 194.031 18.9293 190.392 16.9545C186.752 14.9798 180.364 14.8949 178.902 19.5722Z" fill="#FFB583"/>
<path d="M193.031 24.8313C193.031 24.8313 183.294 25.3218 182.055 17.9408C182.055 17.9408 178.276 17.2942 178.11 24.503C178.11 24.503 176.823 17.0633 182.123 14.9312C185.761 13.4683 190.859 14.5655 192.911 17.3142C195.001 20.1165 193.031 24.8313 193.031 24.8313Z" fill="#433A60"/>
<path d="M170.052 60.3195L165.719 86.3516L166.203 86.4321L170.536 60.4001L170.052 60.3195Z" fill="#433A60"/>
<path d="M206.025 76.3618C206.015 76.2894 204.962 69.0444 199.176 64.4795L199.48 64.0938C205.426 68.7835 206.502 76.2207 206.512 76.2944L206.025 76.3618Z" fill="#433A60"/>
<path d="M205.703 73.8099L205.648 73.3218C214.089 72.3806 222.659 64.4366 222.744 64.3555L223.079 64.7137C222.993 64.7949 214.308 72.85 205.703 73.8099Z" fill="#433A60"/>
<path d="M167.996 73.4107C163.083 69.7982 158.899 60.3975 158.723 59.9993L159.172 59.8008C159.214 59.8969 163.48 69.4811 168.287 73.015L167.996 73.4107Z" fill="#433A60"/>
<path d="M166.715 106.234L166.543 105.774C166.598 105.754 172.018 103.668 172.741 98.5273L173.227 98.596C172.464 104.03 166.773 106.213 166.715 106.234Z" fill="white"/>
<path d="M204.737 111.174C195.164 110.158 195.648 101.138 195.654 101.047L196.145 101.079C196.122 101.433 195.69 109.72 204.789 110.686L204.737 111.174Z" fill="white"/>
<path d="M226.221 188.288C226.145 188.106 218.394 169.778 205.833 148.399L205.798 148.339L205.799 148.269C205.805 147.977 206.417 118.911 203.406 100.034L203.892 99.957C206.838 118.425 206.323 146.601 206.291 148.21C218.85 169.593 226.597 187.915 226.673 188.099L226.221 188.288Z" fill="white"/>
<path d="M180.482 198.17L179.992 198.123C181.649 180.915 183.216 162.749 184.654 144.129L185.144 144.166C183.707 162.789 182.138 180.959 180.482 198.17Z" fill="white"/>
</svg>
