<svg width="278" height="345" viewBox="0 0 278 345" fill="none" xmlns="http://www.w3.org/2000/svg">
<path d="M75.3025 181.184C88.6581 172.269 91.9183 155.403 91.6327 140.194C91.5851 137.655 91.908 134.984 90.7205 132.74C89.5316 130.495 86.7026 128.931 84.3835 129.966C82.4612 130.824 81.5939 133.004 80.4975 134.801C79.0388 137.191 76.8908 139.156 74.3799 140.395C72.7294 141.209 70.696 141.692 69.0931 140.787C66.8941 139.546 66.6795 136.52 66.7347 133.994C66.8375 129.292 66.9403 124.589 67.0432 119.886C67.0984 117.362 67.1467 114.786 66.3883 112.378C65.6307 109.972 63.9085 107.72 61.4859 107.011C59.0633 106.302 56.0335 107.642 55.4815 110.104C55.2517 111.13 55.4477 112.2 55.3601 113.246C55.2724 114.292 54.7598 115.444 53.7468 115.722C52.7222 116.002 51.71 115.27 50.9565 114.521C48.3573 111.933 46.6171 108.624 44.9942 105.334C43.3706 102.044 41.7981 98.6785 39.4466 95.8633C37.0951 93.0481 33.8162 90.796 30.1578 90.5365C26.4988 90.2771 22.5623 92.4499 21.5811 95.9848C20.5979 99.5286 22.6451 103.17 24.889 106.084C28.2175 110.409 32.1754 114.247 36.599 117.442C37.3966 118.019 38.2605 118.642 38.5551 119.581C39.0837 121.271 37.4422 122.92 35.751 123.447C33.8348 124.045 31.7697 123.819 29.7721 124.021C27.7746 124.223 25.6004 125.058 24.8172 126.906C23.7305 129.471 25.8743 132.208 27.9974 134.01C32.2492 137.62 37.1241 140.495 42.3411 142.47C44.2117 143.179 46.1817 143.803 47.6783 145.13C49.1749 146.458 50.0547 148.739 49.1114 150.502C48.1668 152.269 45.805 152.802 43.8405 152.412C41.8761 152.022 40.1283 150.941 38.2619 150.213C34.7677 148.852 30.2261 149.023 27.9291 151.987C26.4194 153.934 26.2462 156.676 26.9576 159.036C27.669 161.396 29.1546 163.441 30.7367 165.331C36.2678 171.937 43.3962 177.295 51.505 180.207C59.6139 183.119 67.1556 183.987 75.3025 181.184Z" fill="#E2E2F2"/>
<path d="M71.4332 171.606C69.2839 163.903 66.2189 155.652 62.7151 147.128C61.8305 145.001 60.957 142.899 60.0958 140.827C59.2327 138.76 58.3757 136.713 57.4124 134.76C55.5032 130.846 53.3656 127.227 51.228 123.852C49.0903 120.477 46.9369 117.35 44.902 114.439C42.861 111.533 40.9063 108.859 39.0205 106.497C35.2614 101.758 31.7796 98.2962 29.2922 96.0136C28.0495 94.8682 27.0573 94.0099 26.3776 93.4358C26.0464 93.1598 25.789 92.9452 25.6014 92.7886C25.4247 92.6444 25.3281 92.5781 25.3281 92.5781C25.3281 92.5781 25.4075 92.6644 25.5758 92.8182C25.7573 92.9811 26.0078 93.206 26.3279 93.4938C26.9903 94.0865 27.9667 94.9614 29.1914 96.122C31.6451 98.4355 35.0875 101.916 38.8093 106.665C40.6786 109.032 42.6161 111.71 44.6433 114.621C46.665 117.537 48.8054 120.667 50.9306 124.041C53.0565 127.412 55.181 131.025 57.0771 134.923C58.0334 136.869 58.8821 138.902 59.746 140.973C60.6071 143.045 61.4793 145.146 62.3625 147.272C65.8642 155.79 68.9327 164.022 71.0951 171.7" fill="#E2E2F2"/>
<path d="M57.3206 134.722C57.3468 134.726 57.4345 134.343 57.5704 133.646C57.7098 132.95 57.8816 131.936 58.0769 130.682C58.4702 128.174 58.898 124.692 59.3616 120.853C59.8246 117.01 60.3132 113.544 60.7596 111.051C60.979 109.803 61.1688 108.795 61.3102 108.101C61.4475 107.406 61.5124 107.018 61.4862 107.012C61.4606 107.006 61.3482 107.382 61.1653 108.068C60.979 108.754 60.7479 109.757 60.4946 111.001C59.9778 113.488 59.4465 116.961 58.9828 120.806C58.5295 124.614 58.119 128.059 57.8105 130.645C57.6546 131.848 57.5242 132.85 57.4241 133.623C57.3324 134.325 57.2944 134.717 57.3206 134.722Z" fill="#E2E2F2"/>
<path d="M24.5391 128.165C24.5384 128.179 24.655 128.199 24.8765 128.225C25.1435 128.252 25.4637 128.285 25.8487 128.323C26.6919 128.404 27.9125 128.519 29.4153 128.71C32.4223 129.067 36.5596 129.712 41.0908 130.624C45.622 131.545 49.6854 132.556 52.6014 133.376C54.0628 133.775 55.2358 134.131 56.0479 134.374C56.4191 134.483 56.7283 134.574 56.9849 134.649C57.2009 134.709 57.3154 134.734 57.3203 134.72C57.3244 134.708 57.2175 134.659 57.0091 134.576C56.7579 134.482 56.4564 134.369 56.0935 134.233C55.2951 133.947 54.1311 133.55 52.6759 133.116C49.7717 132.229 45.7069 131.174 41.1646 130.251C36.623 129.336 32.4672 128.731 29.4429 128.442C27.9332 128.286 26.7057 128.211 25.8577 128.176C25.4699 128.165 25.1483 128.156 24.8799 128.149C24.6584 128.147 24.5398 128.152 24.5391 128.165Z" fill="#E2E2F2"/>
<path d="M71.0797 170.991C71.0915 170.996 71.168 170.86 71.3026 170.595C71.4516 170.29 71.6421 169.903 71.8767 169.426C72.3714 168.409 73.0511 166.922 73.8673 165.073C75.504 161.376 77.6071 156.203 79.8551 150.464C82.1045 144.724 84.1656 139.54 85.7374 135.821C86.5164 133.998 87.1533 132.507 87.6156 131.423C87.8233 130.933 87.9916 130.537 88.1234 130.226C88.2359 129.95 88.289 129.803 88.2773 129.797C88.2656 129.792 88.189 129.928 88.0537 130.194C87.9054 130.497 87.7156 130.884 87.4803 131.362C86.9856 132.378 86.3066 133.866 85.4904 135.715C83.853 139.411 81.7499 144.585 79.5012 150.326C77.2525 156.064 75.1907 161.247 73.6196 164.967C72.8406 166.789 72.2037 168.281 71.7414 169.365C71.533 169.854 71.3654 170.251 71.2336 170.563C71.1211 170.838 71.068 170.985 71.0797 170.991Z" fill="#E2E2F2"/>
<path d="M27.6094 156.444C27.606 156.457 27.755 156.517 28.0428 156.619C28.3705 156.73 28.79 156.873 29.3082 157.049C30.4543 157.431 32.0351 157.957 33.9685 158.602C37.9008 159.918 43.3104 161.801 49.2823 163.897C55.2563 165.994 60.6839 167.839 64.6404 169.09C66.6193 169.717 68.2235 170.209 69.3393 170.528C69.8664 170.677 70.2928 170.797 70.6254 170.891C70.9207 170.97 71.0774 171.005 71.0815 170.992C71.0856 170.98 70.9359 170.92 70.6475 170.817C70.3204 170.706 69.9016 170.564 69.3834 170.388C68.238 170.005 66.6572 169.48 64.7238 168.835C60.7908 167.519 55.3812 165.634 49.4072 163.538C43.4353 161.442 38.0077 159.597 34.052 158.346C32.073 157.719 30.4681 157.227 29.3524 156.908C28.8259 156.759 28.3995 156.639 28.0662 156.546C27.7695 156.466 27.6136 156.431 27.6094 156.444Z" fill="#E2E2F2"/>
<path d="M75.9528 59.7256H37.0203C34.3382 59.7256 32.1641 57.5514 32.1641 54.8694V35.6336C32.1641 32.9515 34.3382 30.7773 37.0203 30.7773H75.9528C78.6349 30.7773 80.8091 32.9515 80.8091 35.6336V54.8694C80.8091 57.5514 78.6349 59.7256 75.9528 59.7256Z" fill="#E2E2F2"/>
<path d="M61.7578 58.8008L73.2587 69.0142L74.2027 58.9816" fill="#E2E2F2"/>
<path d="M50.1571 45.6606C50.1571 47.2248 48.8889 48.493 47.3246 48.493C45.7604 48.493 44.4922 47.2248 44.4922 45.6606C44.4922 44.0963 45.7604 42.8281 47.3246 42.8281C48.8889 42.8281 50.1571 44.0963 50.1571 45.6606Z" fill="white"/>
<path d="M59.9071 45.6606C59.9071 47.2248 58.6389 48.493 57.0746 48.493C55.5104 48.493 54.2422 47.2248 54.2422 45.6606C54.2422 44.0963 55.5104 42.8281 57.0746 42.8281C58.6389 42.8281 59.9071 44.0963 59.9071 45.6606Z" fill="white"/>
<path d="M69.6571 45.6606C69.6571 47.2248 68.3889 48.493 66.8246 48.493C65.2604 48.493 63.9922 47.2248 63.9922 45.6606C63.9922 44.0963 65.2604 42.8281 66.8246 42.8281C68.3889 42.8281 69.6571 44.0963 69.6571 45.6606Z" fill="white"/>
<path d="M104.86 97.9483H143.792C146.474 97.9483 148.648 95.7741 148.648 93.092V73.8562C148.648 71.1742 146.474 69 143.792 69H104.86C102.178 69 100.003 71.1742 100.003 73.8562V93.092C100.003 95.7741 102.178 97.9483 104.86 97.9483Z" fill="#E2E2F2"/>
<path d="M119.055 97.0234L107.554 107.237L106.61 97.2042" fill="#E2E2F2"/>
<path d="M130.655 83.8832C130.655 85.4475 131.924 86.7157 133.488 86.7157C135.052 86.7157 136.32 85.4475 136.32 83.8832C136.32 82.319 135.052 81.0508 133.488 81.0508C131.924 81.0508 130.655 82.319 130.655 83.8832Z" fill="white"/>
<path d="M120.905 83.8832C120.905 85.4475 122.174 86.7157 123.738 86.7157C125.302 86.7157 126.57 85.4475 126.57 83.8832C126.57 82.319 125.302 81.0508 123.738 81.0508C122.174 81.0508 120.905 82.319 120.905 83.8832Z" fill="white"/>
<path d="M111.155 83.8832C111.155 85.4475 112.424 86.7157 113.988 86.7157C115.552 86.7157 116.82 85.4475 116.82 83.8832C116.82 82.319 115.552 81.0508 113.988 81.0508C112.424 81.0508 111.155 82.319 111.155 83.8832Z" fill="white"/>
<path d="M162.949 178.651C167.865 178.651 171.85 174.666 171.85 169.749C171.85 164.833 167.865 160.848 162.949 160.848C158.032 160.848 154.047 164.833 154.047 169.749C154.047 174.666 158.032 178.651 162.949 178.651Z" fill="#938CCB"/>
<path d="M193.589 178.651C198.505 178.651 202.491 174.666 202.491 169.749C202.491 164.833 198.505 160.848 193.589 160.848C188.673 160.848 184.688 164.833 184.688 169.749C184.688 174.666 188.673 178.651 193.589 178.651Z" fill="#938CCB"/>
<path d="M252.83 123.696C252.83 123.677 253.005 123.666 253.352 123.664C253.699 123.654 254.22 123.696 254.894 123.833C255.571 123.957 256.388 124.247 257.287 124.732C258.179 125.226 259.137 125.97 259.964 127.04C260.794 128.1 261.485 129.503 261.724 131.163C261.811 131.573 261.798 132.006 261.833 132.439C261.837 132.863 261.841 133.295 261.846 133.737C261.855 134.621 261.863 135.541 261.872 136.498C261.901 140.324 261.934 144.724 261.971 149.66C262.02 159.533 262.079 171.543 262.147 185.361C262.16 188.815 262.173 192.383 262.186 196.059C262.192 197.897 262.198 199.762 262.204 201.653C262.207 202.598 262.211 203.55 262.213 204.509C262.215 204.989 262.216 205.47 262.218 205.952C262.197 206.47 262.184 206.993 262.086 207.509C261.758 209.578 260.697 211.561 259.079 212.986C257.48 214.418 255.344 215.329 253.127 215.375C249.034 215.389 244.842 215.405 240.557 215.42L241.3 214.744C240.487 223.582 239.628 232.915 238.737 242.604L238.597 244.115L237.424 243.148C226.816 234.407 215.474 225.062 203.676 215.34L204.226 215.538C182.569 215.549 159.215 215.56 135.075 215.572C130.69 215.571 126.33 215.571 121.999 215.57C120.917 215.57 119.835 215.57 118.756 215.57C118.206 215.564 117.701 215.581 117.115 215.557C116.521 215.546 115.932 215.465 115.35 215.351C113.02 214.866 110.925 213.456 109.565 211.539C108.881 210.581 108.377 209.497 108.086 208.362C107.778 207.243 107.756 205.986 107.774 204.979C107.775 202.859 107.776 200.748 107.778 198.645C107.78 194.44 107.783 190.268 107.785 186.132C107.803 169.591 107.821 153.636 107.838 138.438C107.84 136.538 107.843 134.65 107.847 132.774C107.851 131.82 107.918 130.739 108.227 129.777C108.514 128.799 108.953 127.871 109.52 127.033C110.678 125.38 112.334 124.076 114.23 123.44C115.172 123.124 116.158 122.913 117.148 122.912C118.092 122.892 118.969 122.909 119.877 122.907C127.077 122.922 134.067 122.937 140.825 122.951C154.341 122.991 166.931 123.027 178.425 123.061C201.41 123.182 220.01 123.279 232.87 123.347C239.294 123.42 244.284 123.477 247.672 123.515C249.361 123.555 250.65 123.584 251.522 123.604C252.386 123.635 252.83 123.665 252.83 123.696C252.83 123.727 252.386 123.757 251.518 123.788C250.646 123.808 249.358 123.837 247.669 123.877C244.28 123.915 239.291 123.972 232.866 124.045C220.007 124.113 201.406 124.21 178.422 124.331C166.928 124.365 154.337 124.401 140.822 124.441C134.063 124.455 127.073 124.47 119.873 124.485C118.982 124.492 118.051 124.478 117.183 124.501C116.356 124.501 115.539 124.685 114.757 124.948C113.184 125.479 111.813 126.573 110.854 127.947C109.911 129.355 109.425 131 109.483 132.773C109.485 134.649 109.488 136.537 109.491 138.436C109.508 153.635 109.526 169.59 109.544 186.131C109.547 190.266 109.549 194.438 109.552 198.644C109.553 200.747 109.554 202.858 109.555 204.977C109.541 206.085 109.564 206.973 109.813 207.915C110.05 208.839 110.46 209.718 111.017 210.498C112.127 212.059 113.833 213.208 115.725 213.598C116.198 213.689 116.677 213.756 117.162 213.764C117.652 213.787 118.226 213.77 118.755 213.775C119.835 213.775 120.916 213.774 121.998 213.774C126.33 213.773 130.689 213.773 135.075 213.773C159.214 213.784 182.569 213.796 204.226 213.807H204.538L204.776 214.005C216.548 223.759 227.864 233.136 238.448 241.906L237.135 242.451C238.067 232.765 238.964 223.435 239.813 214.601L239.879 213.923L240.557 213.924C244.826 213.93 249.003 213.936 253.083 213.942C254.966 213.916 256.778 213.151 258.149 211.939C259.538 210.734 260.451 209.048 260.742 207.283C260.83 206.842 260.84 206.395 260.865 205.949C260.866 205.467 260.868 204.985 260.87 204.506C260.873 203.548 260.876 202.595 260.879 201.649C260.885 199.758 260.891 197.893 260.897 196.056C260.911 192.38 260.924 188.812 260.936 185.357C261.004 171.539 261.064 159.53 261.112 149.657C261.149 144.722 261.182 140.32 261.211 136.494C261.22 135.538 261.229 134.617 261.237 133.733C261.242 133.292 261.246 132.859 261.25 132.436C261.224 132.026 261.247 131.623 261.173 131.236C260.982 129.675 260.366 128.336 259.604 127.308C258.847 126.271 257.955 125.53 257.116 125.024C256.27 124.527 255.492 124.21 254.841 124.053C253.54 123.725 252.826 123.763 252.83 123.696Z" fill="#938CCB"/>
<path d="M195.744 258.973H61.3519C56.2473 258.973 52.1094 254.835 52.1094 249.73V177.239C52.1094 172.134 56.2473 167.996 61.3519 167.996H195.744C200.849 167.996 204.986 172.134 204.986 177.239V249.73C204.986 254.835 200.849 258.973 195.744 258.973Z" fill="#938CCB"/>
<path d="M145.109 256.066L181.254 288.163L184.221 256.635" fill="#938CCB"/>
<path d="M99.7611 223.674C104.677 223.674 108.663 219.689 108.663 214.773C108.663 209.857 104.677 205.871 99.7611 205.871C94.8448 205.871 90.8594 209.857 90.8594 214.773C90.8594 219.689 94.8448 223.674 99.7611 223.674Z" fill="white"/>
<path d="M130.402 223.674C135.318 223.674 139.303 219.689 139.303 214.773C139.303 209.857 135.318 205.871 130.402 205.871C125.485 205.871 121.5 209.857 121.5 214.773C121.5 219.689 125.485 223.674 130.402 223.674Z" fill="white"/>
<path d="M161.035 223.674C165.951 223.674 169.936 219.689 169.936 214.773C169.936 209.857 165.951 205.871 161.035 205.871C156.118 205.871 152.133 209.857 152.133 214.773C152.133 219.689 156.118 223.674 161.035 223.674Z" fill="white"/>
<path d="M224.222 178.651C229.138 178.651 233.124 174.666 233.124 169.749C233.124 164.833 229.138 160.848 224.222 160.848C219.306 160.848 215.32 164.833 215.32 169.749C215.32 174.666 219.306 178.651 224.222 178.651Z" fill="#938CCB"/>
</svg>
