<svg width="255" height="198" viewBox="0 0 255 198" fill="none" xmlns="http://www.w3.org/2000/svg">
<path d="M127.024 109.778C128.288 107.457 127.637 104.502 126.248 102.254C124.86 100.006 122.831 98.2395 121.095 96.2475C119.359 94.2556 117.848 91.8425 117.867 89.2C117.893 85.7201 120.487 82.8751 121.977 79.7302C123.519 76.4743 123.886 72.6767 122.997 69.1855" stroke="#594C8B" stroke-miterlimit="10" stroke-dasharray="5.51 5.51"/>
<path d="M144.047 112.272C144.275 110.941 145.357 109.894 146.566 109.291C147.774 108.689 149.123 108.445 150.428 108.099C153.796 107.204 157.215 105.317 158.51 102.081C159.208 100.334 159.207 98.4 159.481 96.5389C160.64 88.6863 167.401 82.0017 175.266 80.9316" stroke="#594C8B" stroke-miterlimit="10" stroke-dasharray="5.51 5.51"/>
<path d="M161.164 130.96C162.351 130.033 164.043 130 165.475 130.466C166.908 130.932 168.153 131.827 169.412 132.655C173.062 135.055 177.097 137.015 181.422 137.627C185.747 138.24 190.403 137.382 193.814 134.652" stroke="#594C8B" stroke-miterlimit="10" stroke-dasharray="5.51 5.51"/>
<path d="M101.027 117.744C96.4001 117.685 92.0295 114.221 90.9147 109.73C90.177 106.758 90.7543 103.582 90.0488 100.603C89.3369 97.5947 87.3546 95.0093 84.9825 93.0265C82.6103 91.0437 79.8483 89.5951 77.1094 88.1621" stroke="#594C8B" stroke-miterlimit="10" stroke-dasharray="5.51 5.51"/>
<path d="M91.6947 140.503C88.3752 144.042 82.7435 145.167 78.319 143.176C76.0826 142.169 74.152 140.46 71.7718 139.869C68.6704 139.097 65.4652 140.361 62.5195 141.6" stroke="#594C8B" stroke-miterlimit="10" stroke-dasharray="5.51 5.51"/>
<path d="M141.771 60.7877C152.962 49.5971 152.962 31.4537 141.771 20.2631C130.581 9.07258 112.437 9.07258 101.247 20.2631C90.0561 31.4537 90.0561 49.5971 101.247 60.7877C112.437 71.9782 130.581 71.9782 141.771 60.7877Z" fill="#E2E2F2" stroke="#594C8B" stroke-miterlimit="10" stroke-dasharray="5.57 5.57"/>
<path d="M221.991 63.6982C225.545 48.2774 215.926 32.8948 200.505 29.3403C185.084 25.7858 169.701 35.4053 166.147 50.8262C162.592 66.247 172.212 81.6295 187.633 85.1841C203.054 88.7386 218.436 79.119 221.991 63.6982Z" fill="#E2E2F2" stroke="#594C8B" stroke-miterlimit="10" stroke-dasharray="5.57 5.57"/>
<path d="M86.1172 76.0222C90.4852 60.8103 81.6944 44.9377 66.4825 40.5697C51.2706 36.2017 35.398 44.9925 31.03 60.2044C26.662 75.4164 35.4528 91.289 50.6647 95.657C65.8766 100.025 81.7493 91.2342 86.1172 76.0222Z" fill="#E2E2F2" stroke="#594C8B" stroke-miterlimit="10" stroke-dasharray="5.57 5.57"/>
<path d="M61.3427 147.884C64.0284 132.288 53.5621 117.467 37.9656 114.781C22.3691 112.096 7.5485 122.562 4.86283 138.158C2.17716 153.755 12.6435 168.576 28.2399 171.261C43.8364 173.947 58.6571 163.481 61.3427 147.884Z" fill="#E2E2F2" stroke="#594C8B" stroke-miterlimit="10" stroke-dasharray="5.57 5.57"/>
<path d="M248.565 135.489C252.119 120.068 242.5 104.686 227.079 101.131C211.658 97.5768 196.276 107.196 192.721 122.617C189.167 138.038 198.786 153.421 214.207 156.975C229.628 160.53 245.01 150.91 248.565 135.489Z" fill="#E2E2F2" stroke="#594C8B" stroke-miterlimit="10" stroke-dasharray="5.57 5.57"/>
<path d="M23.382 129.709C23.5527 129.509 23.7159 129.316 23.8866 129.123C25.668 127.089 27.7687 125.344 30.0924 123.964C30.1 123.956 30.1075 123.949 30.122 123.949C31.065 123.526 32.0521 123.184 33.0543 122.917C34.6208 122.502 36.2611 122.264 37.8643 122.509C41.4944 123.058 44.4261 126.042 45.7476 129.472C47.0691 132.901 47.0169 136.702 46.5494 140.347C46.1192 143.754 45.3394 147.11 44.2408 150.361C43.3501 152.974 42.2365 155.535 40.6258 157.761C39.0075 159.996 36.8551 161.896 34.2788 162.898C31.7107 163.893 28.7041 163.915 26.262 162.646C24.5102 161.733 23.1074 160.107 22.4913 158.251C21.1773 156.337 21.2145 153.812 20.8731 151.504C20.3534 147.993 18.8391 144.533 19.3437 141.015C19.5887 139.293 20.3087 137.675 20.7465 135.99C21.0362 134.862 21.1994 133.696 21.6227 132.612C22.0309 131.55 22.669 130.593 23.382 129.709Z" fill="#FFDACD"/>
<path d="M38.6328 132.899C38.6328 132.899 35.8611 131.157 33.5633 134.135C31.2654 137.114 31.4781 141.029 31.4781 141.029C31.4781 141.029 36.5418 140.476 37.7335 145.454C38.9252 150.433 35.2073 155.324 28.8109 153.262C28.8109 153.262 33.3505 152.603 33.4782 149.071C33.6058 145.539 31.1868 142.618 27.2686 144.951C27.2686 144.951 26.4699 141.167 28.8039 136.141C31.1378 131.114 34.8945 126.854 38.6328 132.899Z" fill="#FDCAAF"/>
<path d="M45.8517 129.429C44.4041 125.67 41.2759 122.91 37.8822 122.396C36.4707 122.181 34.8805 122.314 33.0264 122.807C31.9854 123.084 30.9935 123.433 30.0769 123.844C30.0705 123.847 30.0689 123.855 30.0635 123.859C30.0581 123.86 30.0527 123.857 30.0468 123.859C27.8254 124.864 25.9767 126.222 24.5518 127.898C24.1 128.437 23.6751 129.025 23.2879 129.647C22.381 131.101 21.6287 132.784 20.8495 135.105C20.8301 135.163 20.8613 135.226 20.9195 135.246C20.9314 135.25 20.9432 135.252 20.955 135.252C21.0014 135.252 21.045 135.222 21.0606 135.176C21.8339 132.873 22.5792 131.204 23.4769 129.765C23.8582 129.152 24.2771 128.572 24.7214 128.042C26.1242 126.392 27.9466 125.053 30.1383 124.062C30.1448 124.06 30.1459 124.052 30.1518 124.048C30.1572 124.046 30.1626 124.05 30.1674 124.047C31.0727 123.641 32.0538 123.296 33.0824 123.022C34.9074 122.538 36.4659 122.405 37.8477 122.616C41.1644 123.118 44.2243 125.824 45.6433 129.509C46.7601 132.409 47.0132 135.847 46.4386 140.33C46.0132 143.695 45.2383 147.056 44.1354 150.321C43.0815 153.412 41.9377 155.755 40.5354 157.693C38.7869 160.106 36.6102 161.869 34.2386 162.791C31.5649 163.826 28.603 163.734 26.3127 162.544C24.5873 161.644 23.198 160.026 22.5959 158.212C22.3466 157.486 22.2308 156.73 22.2529 155.966C22.2545 155.904 22.206 155.853 22.1446 155.851H22.1414C22.0811 155.851 22.0321 155.899 22.0299 155.959C22.0073 156.751 22.1269 157.533 22.3843 158.284C23.0041 160.15 24.4339 161.817 26.2099 162.742C27.4738 163.399 28.9364 163.729 30.4442 163.729C31.735 163.729 33.0587 163.487 34.3194 162.999C36.7303 162.061 38.942 160.271 40.7153 157.824C42.1311 155.867 43.2851 153.506 44.3465 150.394C45.4542 147.115 46.2319 143.738 46.6589 140.359C47.24 135.838 46.9831 132.365 45.8517 129.429ZM33.286 130.692C34.356 130.096 35.5822 130.01 36.4901 130.465C37.6151 131.032 38.1859 132.263 38.718 133.583C38.7557 133.679 38.8617 133.723 38.9592 133.686C39.054 133.648 39.0998 133.54 39.0615 133.445C38.5252 132.112 37.8973 130.758 36.6571 130.134C35.6414 129.623 34.2806 129.713 33.1056 130.368C31.9817 130.995 31.1464 132.027 30.5444 132.856C27.7786 136.66 26.4592 141.225 26.925 145.382C26.9347 145.469 27.0053 145.538 27.093 145.546C27.1803 145.552 27.2621 145.499 27.2874 145.413C27.6482 144.196 28.8502 143.404 29.7948 142.953C30.826 142.463 32.8196 141.759 34.5978 142.554C35.7184 143.052 36.635 144.116 37.111 145.475C37.9613 147.908 37.146 150.821 35.1735 152.402C33.1551 154.019 30.0969 154.1 28.0586 152.591C27.9762 152.53 27.8604 152.548 27.799 152.63C27.7376 152.712 27.7554 152.828 27.8373 152.889C28.8761 153.659 30.1636 154.04 31.4588 154.04C32.8686 154.04 34.2876 153.588 35.405 152.692C37.4966 151.016 38.3615 147.929 37.4616 145.352C36.9511 143.897 35.9618 142.754 34.7491 142.215C32.8341 141.358 30.7221 142.099 29.6348 142.618C28.5039 143.158 27.687 143.84 27.2314 144.621C26.995 140.753 28.2918 136.586 30.8443 133.074C31.4238 132.276 32.2256 131.284 33.286 130.692Z" fill="black"/>
<path d="M39.6016 85.2754C42.5068 82.1111 44.459 78.083 45.1429 73.8422C46.0115 68.4586 44.8698 62.9717 44.8499 57.5182C44.8451 56.2058 44.9129 54.8595 45.4224 53.65C45.5845 53.2655 45.8187 52.8724 46.2059 52.7184C47.0315 52.3899 47.7956 53.3172 48.1236 54.1433C49.143 56.7131 49.1817 59.5898 50.2017 62.1596C50.3277 62.4768 50.4925 62.8139 50.8021 62.9572C51.4241 63.2442 52.0504 62.5818 52.3972 61.9911C55.2422 57.1461 56.5104 51.3673 60.1378 47.0764C60.5083 46.6386 60.9197 46.2056 61.454 45.9961C61.9882 45.7866 62.6737 45.862 63.027 46.3138C63.2817 46.6396 63.3167 47.0807 63.3274 47.4937C63.44 51.8363 61.9941 56.0491 60.6144 60.1682C60.2428 61.2781 59.8713 62.4698 60.1836 63.598C61.4593 62.8193 62.2854 61.4983 63.1099 60.2517C65.2085 57.0804 67.593 54.0981 70.2253 51.3527C70.9636 50.5826 72.2576 49.8276 72.9577 50.6327C73.3169 51.0458 73.27 51.6656 73.172 52.2041C72.2706 57.1628 68.9188 61.3335 67.4697 66.1603C67.6652 66.5383 68.2409 66.3051 68.5629 66.0267C72.4908 62.6324 75.5997 58.3055 79.8582 55.3366C80.3381 55.0022 81.0893 54.7265 81.4226 55.2069C81.6052 55.4697 81.5379 55.8272 81.4425 56.1326C80.9433 57.7314 79.8895 59.0885 78.8566 60.4073C77.009 62.7655 75.1618 65.1236 73.3142 67.4818C72.6427 68.3385 71.9512 69.2389 71.7396 70.3068C75.15 68.9067 77.5518 65.4106 81.1641 64.6766C81.6477 64.5786 82.2681 64.5975 82.4873 65.0396C82.6434 65.3546 82.5077 65.7316 82.3548 66.0482C81.5185 67.7785 80.1964 69.2185 78.8938 70.6315C76.4834 73.2444 74.0665 75.8643 71.3664 78.1761C68.5586 80.5801 65.4627 82.6356 62.7146 85.1068C59.966 87.5781 57.5239 90.5663 56.5168 94.1226C56.5168 94.1226 56.3714 94.0822 56.4065 94.1964C49.8204 94.2373 43.32 90.6988 39.6016 85.2754Z" fill="#FFDACD"/>
<path d="M56.406 94.2969C56.3635 94.2969 56.3247 94.2705 56.3113 94.2274C56.2843 94.1391 56.3193 94.0869 56.3419 94.0632C56.371 94.033 56.4082 94.0206 56.4437 94.0174C57.3414 90.9199 59.3716 87.9801 62.648 85.0334C64.1499 83.6833 65.7805 82.4372 67.3567 81.2325C68.6696 80.2298 70.0272 79.1921 71.3024 78.1011C74.0047 75.7871 76.4533 73.1322 78.8206 70.5651C80.1028 69.1752 81.4287 67.7379 82.266 66.0065C82.4007 65.726 82.538 65.3679 82.398 65.0868C82.1664 64.6183 81.4103 64.7319 81.1863 64.7777C79.1771 65.1859 77.5034 66.4918 75.8852 67.7546C74.6062 68.7524 73.2842 69.7842 71.7801 70.4019C71.7478 70.4164 71.7074 70.4105 71.6772 70.3863C71.6487 70.3626 71.6352 70.3249 71.6422 70.2888C71.8625 69.1746 72.5922 68.2435 73.2362 67.4218L78.7786 60.3473C79.7485 59.1098 80.8471 57.7075 81.3468 56.1049C81.4238 55.8593 81.5067 55.506 81.3409 55.2669C81.2628 55.1544 81.1567 55.0876 81.0172 55.0628C80.6731 55.0009 80.2235 55.2077 79.917 55.422C77.4183 57.1636 75.2772 59.4167 73.2066 61.5956C71.7532 63.125 70.2502 64.706 68.6298 66.1056C68.3831 66.3189 68.0013 66.5063 67.7025 66.4508C67.5592 66.4228 67.4483 66.3393 67.381 66.209C67.3686 66.1859 67.3659 66.1589 67.374 66.1336C68.0137 64.0033 69.0358 61.9725 70.0251 60.0096C71.2771 57.5239 72.5717 54.953 73.0736 52.1883C73.1625 51.7004 73.2206 51.0902 72.8824 50.7009C72.7096 50.5022 72.4855 50.3977 72.2158 50.3912C72.2066 50.3907 72.1974 50.3907 72.1883 50.3907C71.5259 50.3907 70.7596 50.9448 70.2992 51.4246C67.6766 54.1598 65.2861 57.1491 63.1951 60.3096L63.0551 60.5212C62.2705 61.7103 61.46 62.9397 60.237 63.6861C60.2106 63.7028 60.1773 63.7049 60.1476 63.6942C60.118 63.6823 60.0954 63.6575 60.0873 63.6274C59.7798 62.5154 60.1013 61.3893 60.5192 60.1384L60.6086 59.8729C61.95 55.8695 63.3367 51.73 63.2269 47.4983C63.2177 47.1165 63.187 46.6836 62.9479 46.3782C62.6119 45.9479 61.9608 45.9081 61.4918 46.0923C60.9823 46.2926 60.5774 46.7159 60.2155 47.1434C58.0399 49.717 56.6893 52.8932 55.3829 55.9643C54.5158 58.0037 53.6187 60.1125 52.4846 62.0442C52.0823 62.7297 51.4167 63.3549 50.7608 63.0506C50.4226 62.895 50.247 62.5487 50.1081 62.1987C49.5944 60.9052 49.3251 59.5158 49.0639 58.1722C48.8044 56.8378 48.5362 55.4581 48.0294 54.1818C47.8383 53.6988 47.4306 53.0553 46.9109 52.8312C46.6848 52.7338 46.4597 52.7273 46.2437 52.8135C45.9492 52.9309 45.7181 53.2093 45.5156 53.6907C45.0111 54.8873 44.9464 56.2379 44.9507 57.5195C44.9572 59.4711 45.1112 61.4609 45.2599 63.3856C45.5259 66.8316 45.8016 70.3949 45.2426 73.8597C44.5576 78.1016 42.5813 82.1808 39.6755 85.3451C39.6378 85.3866 39.5742 85.3888 39.5327 85.3511C39.4918 85.3134 39.4886 85.2493 39.5268 85.2084C42.4052 82.0726 44.3648 78.031 45.0423 73.8274C45.598 70.3863 45.3229 66.8353 45.0579 63.4007C44.9087 61.4728 44.7547 59.4792 44.7477 57.5195C44.7434 56.2169 44.8107 54.8421 45.3282 53.6121C45.4704 53.2755 45.7111 52.8075 46.1678 52.6261C46.4354 52.5194 46.7117 52.5259 46.9896 52.646C47.5658 52.8942 48.0009 53.5636 48.2163 54.1081C48.73 55.4016 48.9993 56.7904 49.2605 58.134C49.52 59.4684 49.7882 60.8481 50.295 62.1244C50.4183 62.4357 50.5712 62.741 50.8443 62.8675C51.5352 63.1853 52.1862 62.1524 52.3106 61.9418C53.4377 60.0215 54.3317 57.9191 55.1971 55.8857C56.5089 52.8005 57.8659 49.6104 60.0609 47.0137C60.4395 46.5656 60.8655 46.1213 61.4175 45.9043C61.9554 45.6922 62.7088 45.7449 63.1068 46.2544C63.3836 46.6082 63.4186 47.0799 63.4288 47.4935C63.5392 51.7607 62.1461 55.9175 60.7998 59.9375L60.7109 60.203C60.32 61.3705 60.0152 62.4249 60.2478 63.4405C61.3684 62.7108 62.1396 61.5423 62.8865 60.4103L63.0265 60.1981C65.1246 57.0284 67.5215 54.0294 70.1532 51.2852C70.6411 50.7763 71.4624 50.1893 72.1888 50.1893C72.1996 50.1893 72.2104 50.1893 72.2211 50.1898C72.5491 50.1979 72.8227 50.3255 73.0354 50.5689C73.4296 51.0234 73.3693 51.6928 73.2729 52.2254C72.765 55.0187 71.464 57.6025 70.2055 60.1012C69.227 62.0442 68.2157 64.0523 67.5808 66.1503C67.619 66.2058 67.6718 66.2392 67.7418 66.2532C67.9609 66.2968 68.2889 66.1347 68.4984 65.9538C70.1107 64.5606 71.6094 62.9833 73.0601 61.4577C75.1377 59.2713 77.2864 57.0107 79.8013 55.2573C79.9666 55.142 80.5401 54.7715 81.0528 54.8652C81.2456 54.8997 81.398 54.9966 81.5062 55.1533C81.7227 55.4651 81.6284 55.8809 81.5396 56.1668C81.028 57.8044 79.9176 59.2223 78.9369 60.4728L73.3946 67.5472C72.8022 68.3033 72.136 69.1542 71.8829 70.1402C73.2879 69.5263 74.5443 68.5456 75.7602 67.5973C77.3973 66.32 79.0899 64.9995 81.1449 64.5816C81.8422 64.44 82.3786 64.5951 82.5789 64.999C82.7572 65.3582 82.6021 65.7739 82.447 66.0965C81.5972 67.8547 80.2606 69.3033 78.9687 70.704C76.5971 73.276 74.1447 75.9351 71.4333 78.2567C70.1538 79.352 68.794 80.3908 67.479 81.3957C65.9049 82.5976 64.2775 83.8411 62.7826 85.1857C59.5068 88.1314 57.4895 91.0653 56.6144 94.1542C56.6004 94.2037 56.559 94.2328 56.5019 94.2263C56.4927 94.2581 56.469 94.284 56.4356 94.2942C56.4265 94.2953 56.4168 94.2969 56.406 94.2969Z" fill="black"/>
<path d="M205.897 64.7855C205.542 63.0074 204.706 61.2917 204.137 59.5404C203.55 57.7267 203.23 55.8155 203.212 53.9043C203.168 50.1261 204.243 46.321 203.568 42.6047C203.425 41.778 203.177 40.9509 202.696 40.2664C202.207 39.582 201.46 39.0483 200.616 38.995C199.656 38.9325 198.758 39.4926 198.082 40.1776C197.78 40.4888 197.504 40.8265 197.238 41.1733C196.936 42.2934 196.393 43.3602 195.798 44.3651C192.304 50.2505 186.952 54.8376 181.129 58.4203C180.222 58.9804 179.271 59.5404 178.605 60.3762C177.609 61.6385 177.387 63.4075 177.796 64.9546C178.205 66.5104 179.174 67.8707 180.338 68.9822C180.347 68.9908 180.365 69.0086 180.374 69.0177L180.377 68.9984C181.212 69.742 183.584 71.7022 185.876 72.1756C187.665 72.496 189.572 72.4389 191.354 71.9166C191.771 71.7922 192.189 71.6408 192.634 71.6053C193.06 71.5789 193.478 71.6586 193.905 71.7389C194.847 71.9166 195.798 72.0943 196.75 72.2725C198.422 72.5924 200.164 72.9037 201.79 72.4416C204.289 71.7216 206.022 69.1432 206.067 66.5476C206.075 65.9504 206.012 65.3634 205.897 64.7855Z" fill="#FFDACD"/>
<path d="M205.895 64.7871C205.219 66.2982 204.144 67.6321 202.784 68.5831C200.748 70.0231 198.107 70.5745 195.662 70.0764C191.724 69.2762 188.453 65.9514 184.434 65.9514C183.394 65.9514 182.327 66.2093 181.51 66.8491C180.857 67.3693 180.408 68.1787 180.375 68.9988C181.21 69.7425 183.582 71.7027 185.874 72.1761C187.663 72.4965 189.57 72.4394 191.352 71.917C191.769 71.7927 192.187 71.6413 192.632 71.6058C193.058 71.5794 193.476 71.6591 193.903 71.7393C194.845 71.917 195.796 72.0948 196.748 72.273C198.42 72.5929 200.162 72.9042 201.788 72.4421C204.287 71.7221 206.02 69.1437 206.065 66.5481C206.073 65.9519 206.01 65.3649 205.895 64.7871Z" fill="#FDCAAF"/>
<path d="M196.778 71.7041C198.486 71.7041 200.055 71.0364 200.964 69.871C201.009 69.8129 200.999 69.7289 200.94 69.6842C200.882 69.6384 200.799 69.6492 200.754 69.7073C199.707 71.0498 197.72 71.6928 195.693 71.3449C193.814 71.0218 192.139 69.9981 190.608 68.9389L190.568 68.9114C190.036 68.543 189.486 68.1629 188.834 68.0573C188.605 68.0196 187.824 67.9275 187.374 68.3109C187.18 68.4757 187.082 68.7014 187.082 68.9798C187.082 69.731 187.58 70.0304 188.019 70.2943C188.105 70.346 188.19 70.3977 188.272 70.4521C188.334 70.4935 188.417 70.4774 188.457 70.4155C188.499 70.3541 188.482 70.2711 188.42 70.2308C188.335 70.1737 188.245 70.1198 188.156 70.066C187.722 69.8053 187.348 69.5797 187.348 68.9798C187.348 68.78 187.413 68.6276 187.546 68.514C187.834 68.2689 188.379 68.2539 188.79 68.3206C189.383 68.417 189.908 68.7805 190.416 69.1311L190.456 69.1586C192.011 70.2345 193.717 71.2766 195.647 71.6083C196.028 71.6724 196.407 71.7041 196.778 71.7041ZM180.467 68.9205L180.431 68.885C179.135 67.648 178.292 66.3141 177.925 64.9205C177.502 63.3189 177.803 61.6086 178.709 60.4594C179.324 59.6888 180.199 59.1497 181.047 58.6279L181.2 58.5337C187.83 54.4544 192.78 49.7106 195.913 44.4327C196.644 43.2016 197.105 42.1774 197.367 41.2075C197.475 40.8025 197.548 40.3793 197.584 39.9484C197.59 39.8752 197.536 39.8106 197.463 39.8041C197.384 39.7928 197.325 39.8521 197.318 39.9258C197.283 40.341 197.212 40.7487 197.11 41.138C196.854 42.0831 196.401 43.0864 195.683 44.2959C192.572 49.5362 187.652 54.2498 181.059 58.3059L180.905 58.4001C180.039 58.9338 179.143 59.4852 178.499 60.293C177.541 61.5073 177.222 63.3071 177.666 64.9878C178.045 66.4305 178.914 67.8064 180.241 69.0729L180.281 69.1123C181.448 70.2351 182.858 71.164 184.357 71.7978C184.374 71.8048 184.392 71.8081 184.41 71.8081C184.462 71.8081 184.511 71.7779 184.532 71.7268C184.561 71.6584 184.529 71.5803 184.462 71.5517C182.992 70.9314 181.611 70.0218 180.467 68.9205ZM206.029 64.7594C205.798 63.6059 205.362 62.4654 204.941 61.3619C204.707 60.7524 204.467 60.1223 204.265 59.4992C204.242 59.4287 204.163 59.3904 204.097 59.4136C204.027 59.4362 203.988 59.5116 204.011 59.5816C204.215 60.2111 204.457 60.8444 204.692 61.4567C205.109 62.5499 205.541 63.6803 205.767 64.8111C205.886 65.4057 205.942 65.9878 205.933 66.543C205.889 69.157 204.092 71.6368 201.754 72.3105C200.111 72.7785 198.34 72.4387 196.774 72.1392L196.277 72.0461C195.492 71.8991 194.708 71.7526 193.91 71.6013C193.494 71.5237 193.067 71.4419 192.624 71.4704C192.243 71.5006 191.884 71.612 191.536 71.7197L191.316 71.7871C191.246 71.8081 191.205 71.8824 191.226 71.9529C191.247 72.0235 191.32 72.0649 191.392 72.0423L191.614 71.9745C191.948 71.8711 192.293 71.7644 192.642 71.7364C193.046 71.7127 193.442 71.7854 193.88 71.8673C194.659 72.0138 195.443 72.1608 196.228 72.3078L196.724 72.401C197.702 72.5878 198.832 72.8043 199.969 72.8043C200.595 72.8043 201.222 72.7386 201.827 72.5668C204.314 71.8501 206.153 69.3185 206.201 66.5462C206.208 65.9738 206.151 65.3723 206.029 64.7594Z" fill="black"/>
<path d="M102.458 37.36C106.081 32.9113 111.254 29.7508 116.866 28.558C122.478 27.3657 128.489 28.1492 133.608 30.7406C134.974 31.432 136.281 32.2511 137.439 33.2538C139.713 35.2248 141.364 37.9039 142.102 40.821C142.501 42.3978 142.635 44.0699 142.249 45.6499C141.951 46.8718 141.349 48.0048 140.607 49.0205C138.676 51.6651 135.799 53.5294 132.702 54.5941C129.605 55.6587 126.289 55.9641 123.016 55.8914C116.874 55.7551 110.651 54.2511 105.562 50.8078C104.368 49.9995 103.229 49.077 102.362 47.9246C100.333 45.2277 99.533 40.9524 102.458 37.36Z" fill="#FFDACD"/>
<path d="M120.95 32.4725C120.95 32.4725 107.372 34.0573 105.735 41.5066C104.097 48.9559 116.671 52.6565 126.392 50.9645C136.112 49.2725 138.332 43.3559 134.58 38.6535C130.83 33.9518 124.807 32.2614 120.95 32.4725Z" fill="white"/>
<path d="M106.141 39.625C107.687 37.7058 109.351 35.8468 111.377 34.4429C114.564 32.2334 118.565 31.2673 122.424 31.6502C126.283 32.0331 129.979 33.738 132.864 36.3293C133.572 36.9653 134.288 37.6832 135.22 37.8792C135.805 38.002 136.412 37.9018 136.994 37.7699C138.003 37.541 138.991 37.2157 139.938 36.7994C138.313 38.2448 136.338 39.2939 134.231 39.8307C131.898 36.9508 128.64 34.8312 125.062 33.8645C121.483 32.8984 117.602 33.0902 114.136 34.4041C112.364 35.0762 110.71 36.0278 109.123 37.0649C108.165 37.6912 107.22 38.3574 106.141 39.625Z" fill="black"/>
<path d="M122.193 50.9679C126.239 50.9679 129.519 47.1734 129.519 42.4927C129.519 37.812 126.239 34.0176 122.193 34.0176C118.147 34.0176 114.867 37.812 114.867 42.4927C114.867 47.1734 118.147 50.9679 122.193 50.9679Z" fill="#4E3B3F"/>
<path d="M118.055 38.1569C118.055 37.1676 118.641 36.3652 119.364 36.3652C120.087 36.3652 120.673 37.1671 120.673 38.1569C120.673 39.1461 120.087 39.9485 119.364 39.9485C118.641 39.9485 118.055 39.1461 118.055 38.1569Z" fill="white"/>
<path d="M197.188 127.262C197.215 122.665 200.186 118.447 204.031 115.926C207.877 113.405 212.497 112.349 217.058 111.773C222.493 111.086 228.145 111.039 233.298 112.896C235.437 113.667 237.48 114.773 239.141 116.325C241.093 118.149 242.464 120.544 243.268 123.091C245.285 129.476 243.653 136.762 239.524 142.032C236.802 145.505 233.035 148.172 228.814 149.457C225.268 150.536 221.477 150.638 217.802 150.164C212.407 149.467 207.072 147.47 203.042 143.817C199.012 140.165 197.145 134.774 197.188 127.262Z" fill="#FFDACD"/>
<path d="M203.215 123.176C205.126 124.242 207.324 124.666 209.495 124.941C219.218 126.173 229.156 124.693 238.468 121.637C237.842 126.028 236.615 130.396 234.283 134.169C231.952 137.942 228.435 141.092 224.201 142.415C222.343 142.995 220.384 143.218 218.438 143.195C216.954 143.177 215.45 143.013 214.073 142.457C212.664 141.889 211.442 140.932 210.354 139.871C208.132 137.704 206.388 135.045 205.308 132.135C204.412 129.726 203.974 127.176 203.215 123.176Z" fill="#AE4530"/>
<path d="M209.492 124.943C208.733 124.847 207.971 124.73 207.219 124.577C208.925 126.182 210.992 127.409 213.197 128.215C216.095 129.275 219.221 129.635 222.303 129.499C226.731 129.303 231.373 127.919 234.218 124.521C234.714 123.929 235.148 123.272 235.445 122.562C227.022 124.977 218.172 126.042 209.492 124.943Z" fill="white"/>
<path d="M223.748 135.784C224.842 135.247 226.037 134.911 227.251 134.831C229.184 134.703 231.177 135.233 232.747 136.354C230.512 139.139 227.587 141.361 224.197 142.421C222.338 143.005 220.379 143.226 218.432 143.206C216.949 143.186 215.446 143.018 214.07 142.468C212.836 141.964 211.742 141.166 210.762 140.26C212.58 138.146 214.567 136.086 217.178 135.166C218.379 134.743 219.667 134.582 220.929 134.703C221.943 134.797 223.003 135.126 223.748 135.784Z" fill="#FB4F27"/>
<path d="M240.706 122.935C239.167 122.506 238.032 120.972 237.493 120.095C237.445 120.016 237.342 119.992 237.262 120.041C237.183 120.089 237.159 120.192 237.207 120.271C237.471 120.699 237.803 121.171 238.198 121.617C228.126 124.892 218.473 125.979 209.507 124.843C207.524 124.592 205.232 124.188 203.263 123.09C203.229 123.071 203.187 123.074 203.155 123.096C203.124 123.119 203.108 123.159 203.115 123.197L203.312 124.233C203.964 127.688 204.395 129.969 205.213 132.171C206.29 135.073 208.044 137.761 210.283 139.945C210.421 140.079 210.555 140.19 210.691 140.315C210.695 140.319 210.694 140.325 210.698 140.329C210.702 140.333 210.708 140.332 210.712 140.334C211.844 141.37 212.937 142.109 214.035 142.552C215.241 143.039 216.639 143.276 218.436 143.297C218.528 143.298 218.62 143.298 218.712 143.298C220.705 143.298 222.56 143.035 224.23 142.513C228.238 141.26 231.839 138.317 234.368 134.224C236.43 130.886 237.786 126.866 238.517 121.953C239.101 122.534 239.8 123.031 240.615 123.258C240.63 123.262 240.645 123.264 240.66 123.264C240.733 123.264 240.801 123.216 240.822 123.142C240.847 123.052 240.794 122.959 240.706 122.935ZM224.17 142.321C222.443 142.861 220.504 143.122 218.439 143.096C216.668 143.075 215.293 142.843 214.11 142.366C213.053 141.94 212 141.23 210.908 140.241C212.578 138.304 214.578 136.183 217.213 135.255C218.401 134.837 219.683 134.677 220.922 134.796C221.987 134.895 222.909 135.242 223.559 135.764C222.596 136.243 221.673 136.891 220.881 137.657C219.96 138.544 219.432 139.403 219.268 140.282C219.257 140.336 219.293 140.388 219.349 140.399C219.355 140.4 219.361 140.401 219.367 140.401C219.415 140.401 219.457 140.367 219.466 140.319C219.622 139.483 220.131 138.66 221.021 137.802C221.838 137.012 222.796 136.344 223.794 135.868C224.893 135.328 226.091 135.002 227.259 134.925C229.156 134.802 231.093 135.328 232.6 136.371C230.276 139.249 227.353 141.326 224.17 142.321ZM234.197 134.118C233.741 134.856 233.249 135.555 232.727 136.214C231.181 135.139 229.188 134.595 227.247 134.724C226.071 134.802 224.868 135.128 223.762 135.662C223.078 135.083 222.083 134.702 220.941 134.596C219.67 134.474 218.361 134.636 217.147 135.065C214.468 136.008 212.446 138.15 210.76 140.106C210.647 140.002 210.537 139.911 210.424 139.801C208.206 137.638 206.469 134.975 205.402 132.1C204.59 129.915 204.16 127.64 203.509 124.196L203.353 123.368C205.308 124.405 207.542 124.797 209.481 125.042C218.502 126.184 228.213 125.089 238.344 121.784C237.622 126.735 236.264 130.772 234.197 134.118ZM225.868 145.449C222.73 146.805 218.97 146.837 215.809 145.534C215.722 145.498 215.625 145.54 215.589 145.625C215.554 145.711 215.595 145.809 215.68 145.845C217.29 146.508 219.013 146.839 220.736 146.839C222.534 146.839 224.333 146.478 226.001 145.757C226.086 145.72 226.125 145.621 226.089 145.536C226.052 145.451 225.955 145.413 225.868 145.449Z" fill="black"/>
<path d="M120.544 115.75L120.567 115.683C122.548 113.434 125.555 112.135 128.546 112.232C131.538 112.328 134.448 113.82 136.281 116.196C136.942 117.057 137.476 118.066 137.528 119.15C140.668 115.951 145.842 115.023 149.925 116.878C151.068 117.398 152.129 118.118 152.983 119.046C154.817 121.072 155.492 124.071 154.742 126.692C154.95 126.714 155.151 126.751 155.358 126.788C156.539 127.026 157.689 127.538 158.506 128.421C159.189 129.164 159.59 130.136 159.79 131.131C160.288 133.588 159.456 136.223 157.786 138.071C158.343 138.895 158.677 139.875 158.759 140.87C158.855 142.08 158.603 143.29 158.12 144.403C158.113 144.403 158.105 144.403 158.091 144.403C145.212 146.333 132.214 147.402 119.231 148.471C118.711 148.516 118.192 148.553 117.672 148.597C109.648 149.25 101.601 149.859 93.5547 149.607C93.51 149.518 93.4658 149.421 93.4356 149.324C92.9903 148.263 92.8341 147.083 93.0054 145.939C93.1465 144.989 93.5175 144.076 94.0592 143.282C93.8735 142.97 93.7329 142.643 93.629 142.302C93.2876 141.166 93.3393 139.941 93.5843 138.776C93.7625 137.945 94.0517 137.113 94.5493 136.423C95.2472 135.458 96.3162 134.827 97.4147 134.352C98.1272 134.047 98.8843 133.795 99.6566 133.78C100.132 133.773 100.607 133.855 101.037 134.047C100.978 133.127 101.134 132.199 101.512 131.36C101.683 130.982 101.898 130.625 102.143 130.299C100.829 128.807 100.384 126.662 100.733 124.702C101.09 122.683 102.203 120.849 103.606 119.357C107.814 114.874 114.881 113.375 120.544 115.75Z" fill="#FFB5A7"/>
<path d="M159.898 131.111C159.668 129.973 159.227 129.044 158.586 128.348C157.828 127.527 156.718 126.951 155.377 126.681L155.33 126.672C155.175 126.645 155.026 126.622 154.875 126.602C155.583 123.965 154.883 120.984 153.064 118.973C152.238 118.075 151.197 117.337 149.97 116.78C145.93 114.943 140.777 115.841 137.62 118.904C137.519 118.015 137.099 117.082 136.369 116.13C134.507 113.719 131.584 112.221 128.549 112.123C125.515 112.022 122.494 113.329 120.483 115.612C114.822 113.29 107.708 114.825 103.522 119.284C101.954 120.952 100.95 122.82 100.622 124.685C100.25 126.766 100.769 128.859 102.004 130.306C101.768 130.629 101.566 130.968 101.409 131.317C101.051 132.109 100.889 132.999 100.924 133.899C100.535 133.749 100.113 133.662 99.6526 133.671C98.7958 133.687 97.9816 133.99 97.3683 134.252C95.9907 134.848 95.0661 135.517 94.457 136.36C94.0068 136.985 93.6843 137.769 93.4732 138.755C93.1921 140.092 93.2077 141.297 93.52 142.337C93.6283 142.692 93.7769 143.03 93.96 143.338C94.4026 144.128 95.0316 144.726 95.7775 145.07C95.7926 145.077 95.8082 145.08 95.8238 145.08C95.8658 145.08 95.9062 145.057 95.925 145.016C95.9503 144.96 95.9256 144.893 95.8701 144.868C95.1668 144.543 94.5739 143.977 94.1528 143.227C93.9772 142.932 93.8361 142.61 93.7333 142.272C93.4317 141.268 93.4172 140.101 93.6907 138.801C93.8959 137.846 94.2055 137.09 94.6374 136.49C95.2223 135.681 96.1178 135.035 97.456 134.456C98.0505 134.203 98.8378 133.909 99.6559 133.894C100.119 133.886 100.549 133.971 100.934 134.134C101.017 135.25 101.415 136.335 102.068 137.197C102.089 137.227 102.123 137.242 102.156 137.242C102.179 137.242 102.203 137.235 102.223 137.219C102.272 137.182 102.282 137.112 102.244 137.063C101.603 136.215 101.213 135.142 101.145 134.042C101.087 133.125 101.248 132.214 101.612 131.408C101.773 131.049 101.982 130.699 102.229 130.368C103.203 129.093 104.716 128.263 106.276 128.148C106.338 128.143 106.384 128.09 106.379 128.029C106.374 127.967 106.321 127.916 106.26 127.926C104.683 128.043 103.158 128.863 102.145 130.125C100.974 128.729 100.484 126.724 100.84 124.723C101.161 122.902 102.145 121.073 103.684 119.436C107.825 115.025 114.875 113.516 120.458 115.839C119.012 116.117 117.649 117.035 116.832 118.389C116.801 118.442 116.817 118.51 116.87 118.542C116.887 118.552 116.908 118.558 116.927 118.558C116.965 118.558 117.002 118.538 117.022 118.504C118.096 116.726 120.237 115.684 122.126 116.032C123.177 116.219 124.141 116.79 124.991 117.295C125.043 117.326 125.111 117.309 125.144 117.256C125.175 117.203 125.157 117.135 125.104 117.104C124.238 116.59 123.255 116.007 122.166 115.814C121.675 115.723 121.174 115.721 120.679 115.793C120.685 115.771 120.688 115.748 120.679 115.727C122.647 113.515 125.578 112.249 128.54 112.346C131.51 112.441 134.369 113.907 136.19 116.266C136.956 117.264 137.366 118.233 137.413 119.146C137.108 119.072 136.797 119.022 136.48 119.019C136.469 119.019 136.458 119.018 136.447 119.018C135.464 119.018 134.505 119.352 133.529 119.724C133.472 119.745 133.443 119.81 133.464 119.867C133.487 119.925 133.552 119.955 133.609 119.932C134.612 119.55 135.521 119.237 136.478 119.241C138.005 119.256 139.512 120.23 140.141 121.611C140.16 121.652 140.2 121.676 140.243 121.676C140.258 121.676 140.274 121.673 140.289 121.666C140.345 121.64 140.369 121.575 140.344 121.519C139.832 120.396 138.814 119.55 137.639 119.198C140.72 116.089 145.86 115.156 149.876 116.982C151.075 117.527 152.093 118.248 152.898 119.123C154.674 121.087 155.354 124.003 154.651 126.577C153.295 126.431 151.92 126.612 150.667 127.111C150.61 127.133 150.582 127.198 150.605 127.255C150.628 127.312 150.692 127.341 150.75 127.317C151.998 126.82 153.374 126.643 154.727 126.805C154.915 126.825 155.096 126.857 155.289 126.892L155.334 126.9C156.236 127.081 157.503 127.507 158.421 128.499C159.024 129.155 159.46 130.074 159.678 131.155C160.153 133.501 159.395 136.124 157.699 138C157.043 138.737 156.234 139.346 155.359 139.762C155.303 139.788 155.28 139.855 155.307 139.911C155.326 139.951 155.366 139.974 155.407 139.974C155.423 139.974 155.44 139.971 155.455 139.963C156.357 139.535 157.191 138.907 157.866 138.148C159.608 136.221 160.386 133.524 159.898 131.111ZM138.802 134.324C137.606 134.822 136.133 134.595 135.141 133.761C134.878 133.54 134.698 133.32 134.59 133.089C134.137 132.111 134.957 131.026 135.218 130.717C135.941 129.864 136.83 129.331 137.721 129.215C137.782 129.207 137.825 129.152 137.817 129.09C137.81 129.029 137.762 128.989 137.692 128.994C136.746 129.117 135.807 129.677 135.049 130.573C134.292 131.467 134.045 132.442 134.389 133.182C134.436 133.284 134.505 133.381 134.576 133.478C132.731 136.447 130.073 138.361 126.675 139.163C123.934 139.808 120.464 139.192 117.991 137.634C118.933 136.476 119.241 135.211 118.804 134.228C118.78 134.172 118.713 134.146 118.658 134.171C118.601 134.196 118.576 134.261 118.601 134.318C119.215 135.701 118.097 137.175 117.74 137.595C116.712 138.803 115.4 139.419 114.243 139.245C114.175 139.24 114.125 139.278 114.116 139.339C114.106 139.399 114.148 139.457 114.209 139.466C114.35 139.487 114.492 139.497 114.637 139.497C115.734 139.497 116.9 138.887 117.845 137.809C119.7 138.985 122.111 139.64 124.373 139.64C125.188 139.64 125.983 139.555 126.725 139.38C130.16 138.57 132.848 136.642 134.724 133.657C134.807 133.749 134.89 133.841 134.998 133.931C135.679 134.504 136.573 134.807 137.463 134.807C137.951 134.807 138.437 134.716 138.887 134.529C138.944 134.505 138.971 134.44 138.948 134.383C138.922 134.327 138.856 134.3 138.802 134.324Z" fill="black"/>
<path d="M123.873 131.619C123.7 131.619 123.524 131.605 123.346 131.576C122.862 131.499 122.458 131.334 122.147 131.088C121.766 130.787 121.529 130.348 121.512 129.916C121.508 129.814 121.588 129.728 121.69 129.724C121.788 129.733 121.879 129.8 121.883 129.902C121.895 130.227 122.081 130.562 122.377 130.797C122.638 131.004 122.983 131.143 123.404 131.21C124.195 131.339 124.947 131.143 125.416 130.69C125.767 130.353 125.975 129.86 126.159 129.426C126.199 129.332 126.305 129.287 126.402 129.327C126.496 129.368 126.54 129.476 126.501 129.571C126.303 130.038 126.079 130.567 125.673 130.957C125.23 131.385 124.581 131.619 123.873 131.619Z" fill="black"/>
<path d="M119.308 123.927C118.948 123.927 118.656 124.218 118.656 124.579C118.656 124.939 118.948 125.231 119.308 125.231C119.669 125.231 119.961 124.939 119.961 124.579C119.961 124.218 119.668 123.927 119.308 123.927ZM127.577 123.594C127.217 123.594 126.925 123.886 126.925 124.246C126.925 124.606 127.217 124.898 127.577 124.898C127.938 124.898 128.229 124.606 128.229 124.246C128.229 123.886 127.938 123.594 127.577 123.594Z" fill="black"/>
<path d="M112.084 183C112.01 183.216 111.906 183.431 111.713 183.557C111.357 183.787 110.882 183.565 110.555 183.29C110.006 182.823 109.598 182.191 109.404 181.494C109.709 182.674 109.546 184.203 108.447 184.715C108.076 184.893 107.682 184.915 107.289 184.834C106.658 184.73 106.027 184.381 105.463 184.047C102.264 182.088 99.0122 180.098 96.4887 177.322C92.9555 173.454 91.0551 168.236 90.8025 163.003C90.5726 158.422 91.5597 153.842 93.319 149.604C93.4008 149.611 93.4821 149.618 93.5565 149.611C101.603 149.864 109.65 149.255 117.674 148.602C118.097 150.747 118.394 152.922 118.245 155.097C118.104 157.19 117.51 159.298 116.337 161.02C115.469 159.944 114.148 159.231 112.759 159.112C111.2 158.971 109.642 159.536 108.373 160.441C107.304 161.198 106.391 162.237 106.005 163.491C105.685 164.545 105.752 165.689 106.027 166.758C106.576 168.888 107.972 170.818 109.902 171.865C110.637 172.258 111.446 172.518 112.27 172.637C112.262 173.706 111.862 174.857 111.765 175.948C111.557 178.316 112.871 180.758 112.084 183Z" fill="#3E2E31"/>
<path d="M116.336 161.015C117.509 159.293 118.103 157.185 118.244 155.091C118.393 152.916 118.096 150.741 117.673 148.596C118.193 148.552 118.712 148.514 119.232 148.47C132.215 147.401 145.213 146.332 158.092 144.402C158.092 144.424 158.092 144.439 158.099 144.462C158.433 147.832 159.072 151.172 159.992 154.431C160.475 156.123 161.113 157.912 162.531 158.944C163.585 159.709 165.144 160.206 165.3 161.497C165.404 162.307 164.862 163.034 164.402 163.702C161.863 167.406 161.069 171.986 160.044 176.358C159.02 180.723 157.543 185.281 154.121 188.183C151.761 190.187 148.717 191.182 145.696 191.85C139.134 193.312 132.275 193.424 125.661 192.192C125.193 193.706 125.141 195.339 125.512 196.876C118.839 198.316 111.757 197.826 105.344 195.473C106.866 192.155 107.526 188.458 107.288 184.828C107.681 184.91 108.075 184.887 108.446 184.709C109.545 184.197 109.708 182.668 109.404 181.488C109.596 182.186 110.005 182.816 110.554 183.284C110.881 183.559 111.356 183.782 111.712 183.551C111.905 183.425 112.009 183.21 112.083 182.994C112.87 180.753 111.556 178.31 111.764 175.943C111.86 174.852 112.262 173.701 112.269 172.632C111.445 172.513 110.635 172.253 109.901 171.86C107.971 170.813 106.575 168.883 106.026 166.752C105.751 165.683 105.684 164.54 106.003 163.486C106.39 162.232 107.302 161.193 108.371 160.436C109.641 159.53 111.2 158.966 112.758 159.107C114.146 159.227 115.468 159.939 116.336 161.015Z" fill="#FFDACD"/>
<path d="M107.281 184.719C107.219 184.724 107.172 184.776 107.177 184.838C107.416 188.486 106.747 192.148 105.242 195.429C105.217 195.485 105.242 195.551 105.297 195.577C105.312 195.584 105.328 195.587 105.344 195.587C105.386 195.587 105.426 195.563 105.445 195.522C106.964 192.208 107.64 188.509 107.398 184.824C107.394 184.762 107.341 184.712 107.281 184.719ZM165.409 161.487C165.288 160.474 164.365 159.932 163.472 159.407C163.173 159.232 162.864 159.05 162.596 158.857C161.235 157.866 160.592 156.131 160.099 154.403C159.179 151.144 158.546 147.807 158.209 144.463C158.221 144.445 158.233 144.427 158.233 144.404C158.233 144.343 158.183 144.293 158.122 144.293L158.094 144.294L158.092 144.293L158.091 144.294L158.075 144.294C145.22 146.221 132.034 147.306 119.282 148.357L119.223 148.361C118.964 148.384 118.704 148.404 118.444 148.424C118.184 148.445 117.924 148.465 117.665 148.488C109.1 149.185 101.375 149.742 93.5447 149.498C93.4817 149.505 93.3998 149.497 93.3287 149.49C93.2668 149.485 93.214 149.529 93.2076 149.59C93.2016 149.652 93.2469 149.706 93.3083 149.711C93.3885 149.719 93.4806 149.727 93.5517 149.72C94.8355 149.76 96.115 149.779 97.3972 149.778C103.936 149.778 110.517 149.293 117.683 148.71C117.942 148.688 118.202 148.667 118.462 148.647C118.721 148.626 118.981 148.606 119.242 148.583L119.3 148.578C132.023 147.531 145.179 146.447 157.995 144.529C158.328 147.857 158.963 151.199 159.884 154.463C160.388 156.23 161.05 158.006 162.466 159.036C162.742 159.237 163.056 159.421 163.36 159.599C164.244 160.119 165.08 160.609 165.19 161.514C165.282 162.237 164.827 162.895 164.385 163.532L164.31 163.641C162.077 166.901 161.179 170.862 160.312 174.693C160.188 175.242 160.064 175.791 159.935 176.336C158.955 180.517 157.488 185.184 154.049 188.101C151.521 190.247 148.244 191.176 145.671 191.745C139.172 193.192 132.259 193.311 125.681 192.086C125.626 192.072 125.57 192.108 125.553 192.162C125.078 193.702 125.026 195.342 125.404 196.905C125.417 196.956 125.462 196.99 125.513 196.99C125.521 196.99 125.53 196.989 125.538 196.987C125.599 196.973 125.635 196.912 125.62 196.853C125.26 195.361 125.3 193.796 125.738 192.323C132.316 193.534 139.223 193.41 145.719 191.962C148.318 191.388 151.628 190.449 154.193 188.271C157.681 185.313 159.163 180.603 160.153 176.387C160.281 175.842 160.405 175.293 160.529 174.743C161.392 170.933 162.284 166.993 164.493 163.768L164.569 163.66C165.011 163.019 165.513 162.293 165.409 161.487ZM116.423 160.948C115.535 159.847 114.169 159.119 112.769 158.999C111.305 158.868 109.715 159.345 108.306 160.347C107.458 160.948 106.352 161.975 105.897 163.457C105.602 164.432 105.61 165.582 105.918 166.783C106.489 169 107.958 170.935 109.849 171.96C110.59 172.357 111.399 172.621 112.253 172.744C112.581 172.791 112.91 172.814 113.237 172.814C114.318 172.814 115.377 172.562 116.293 172.079C116.347 172.051 116.367 171.983 116.339 171.929C116.309 171.874 116.243 171.854 116.188 171.882C115.036 172.49 113.647 172.716 112.284 172.524C111.469 172.406 110.663 172.143 109.954 171.764C108.118 170.767 106.69 168.885 106.134 166.727C105.835 165.565 105.827 164.456 106.11 163.521C106.547 162.1 107.616 161.109 108.436 160.528C109.8 159.556 111.337 159.089 112.749 159.22C114.091 159.334 115.399 160.033 116.257 161.095C116.349 161.187 116.421 161.287 116.49 161.385C117.349 162.6 117.639 164.192 117.267 165.643C117.252 165.703 117.288 165.764 117.348 165.779C117.407 165.794 117.468 165.759 117.483 165.699C117.871 164.186 117.567 162.525 116.671 161.257C116.601 161.157 116.52 161.043 116.423 160.948Z" fill="black"/>
<path d="M114.501 168.242C114.419 168.242 114.343 168.186 114.322 168.103C114.064 167.092 113.341 166.36 112.781 165.924C112.041 165.348 111.168 164.947 110.338 164.587C110.244 164.546 110.201 164.436 110.242 164.342C110.282 164.248 110.392 164.205 110.486 164.246C111.338 164.617 112.235 165.029 113.009 165.631C113.615 166.103 114.398 166.898 114.681 168.011C114.707 168.11 114.646 168.211 114.547 168.237C114.532 168.241 114.517 168.242 114.501 168.242Z" fill="black"/>
<path d="M145.952 157.231C144.424 157.231 142.894 156.663 141.75 155.65C141.635 155.548 141.624 155.372 141.727 155.257C141.827 155.14 142.005 155.131 142.12 155.233C143.322 156.298 144.987 156.824 146.589 156.637C148.183 156.451 149.688 155.556 150.614 154.243C150.704 154.116 150.878 154.088 151.002 154.176C151.128 154.265 151.158 154.438 151.069 154.563C150.054 156.005 148.403 156.986 146.652 157.19C146.42 157.217 146.187 157.231 145.952 157.231Z" fill="black"/>
<path d="M149.877 173.887C149.771 173.887 149.666 173.881 149.562 173.87C148.452 173.745 147.3 172.739 147.423 171.495C147.433 171.393 147.524 171.323 147.626 171.328C147.728 171.339 147.803 171.43 147.793 171.531C147.695 172.532 148.667 173.396 149.602 173.501C150.528 173.603 151.524 173.183 152.354 172.347C152.427 172.275 152.545 172.274 152.617 172.347C152.69 172.419 152.69 172.536 152.618 172.609C151.799 173.432 150.816 173.887 149.877 173.887Z" fill="black"/>
<path d="M128.005 165.204C131.085 162.016 136.551 161.512 140.161 164.085C143.772 166.658 145.08 171.988 143.072 175.941C142.575 176.919 141.901 177.812 141.055 178.511C139.79 179.556 138.197 180.125 136.597 180.493C134.458 180.984 132.165 181.138 130.108 180.374C127.463 179.39 125.501 176.907 124.9 174.151C124.299 171.394 124.932 168.385 128.005 165.204Z" fill="#FDCAAF"/>
</svg>
