<svg width="236" height="215" viewBox="0 0 236 215" fill="none" xmlns="http://www.w3.org/2000/svg">
<path d="M100.407 20.8842C99.6639 20.7942 98.7525 20.8654 98.4075 21.5292C98.0812 22.1518 98.5013 22.9431 99.0939 23.3182C99.6864 23.6932 100.41 23.7869 101.085 23.9707C103.958 24.7658 106.137 27.5935 106.174 30.5788C106.204 32.964 105.004 35.2029 103.534 37.0781C103.005 37.7532 102.424 38.417 102.135 39.227C101.292 41.586 103.2 44.0237 105.237 45.4826C107.27 46.9414 109.715 48.1753 110.697 50.478C110.945 51.063 111.054 51.8206 110.6 52.2631C110.405 52.4507 110.139 52.5482 109.876 52.6194C107.371 53.287 104.716 52.0419 102.769 50.3242C100.826 48.6066 99.3414 46.4276 97.4437 44.6575C95.7936 43.1161 93.8509 41.9085 92.2495 40.3146C89.898 37.9744 88.3904 34.9029 87.3966 31.7376C86.6015 29.2062 86.1027 26.5284 86.4627 23.8995C87.2766 17.959 92.422 13.4886 98.3588 13.301C102.728 13.1623 106.579 13.8561 107.99 18.4577C109.621 23.7644 103.369 21.2517 100.407 20.8842Z" fill="#7B6EB9"/>
<path opacity="0.6" d="M100.407 20.8842C99.6639 20.7942 98.7525 20.8654 98.4075 21.5292C98.0812 22.1518 98.5013 22.9431 99.0939 23.3182C99.6864 23.6932 100.41 23.7869 101.085 23.9707C103.958 24.7658 106.137 27.5935 106.174 30.5788C106.204 32.964 105.004 35.2029 103.534 37.0781C103.005 37.7532 102.424 38.417 102.135 39.227C101.292 41.586 103.2 44.0237 105.237 45.4826C107.27 46.9414 109.715 48.1753 110.697 50.478C110.945 51.063 111.054 51.8206 110.6 52.2631C110.405 52.4507 110.139 52.5482 109.876 52.6194C107.371 53.287 104.716 52.0419 102.769 50.3242C100.826 48.6066 99.3414 46.4276 97.4437 44.6575C95.7936 43.1161 93.8509 41.9085 92.2495 40.3146C89.898 37.9744 88.3904 34.9029 87.3966 31.7376C86.6015 29.2062 86.1027 26.5284 86.4627 23.8995C87.2766 17.959 92.422 13.4886 98.3588 13.301C102.728 13.1623 106.579 13.8561 107.99 18.4577C109.621 23.7644 103.369 21.2517 100.407 20.8842Z" fill="white"/>
<path d="M226.422 94.485C226.924 94.29 227.416 94.0612 227.892 93.795C230.153 92.5199 231.848 90.2997 232.883 87.967C233.255 87.1306 234.335 85.6005 234.335 84.7004C233.525 85.8443 232.67 87.0294 231.432 87.6932C230.341 88.2783 229.069 88.3982 227.839 88.507C220.301 89.1671 212.849 89.8271 205.262 89.7896C197.33 89.7484 189.395 89.5458 181.47 89.1821C169.147 88.6158 156.204 87.4532 145.989 80.5376C137.018 74.4658 131.261 64.6775 122.995 57.6719C121.454 61.6472 116.95 63.6499 112.731 64.2537C89.8049 67.5315 77.4589 46.4284 73.9223 27.043C74.2599 28.8994 73.4873 31.5021 73.4648 33.4373C73.4348 35.9012 73.5773 38.369 73.9261 40.8067C74.5112 44.8908 75.8988 48.5361 77.894 52.1364C81.7605 59.1195 87.5023 65.0675 94.3991 69.0954C99.8333 72.2756 105.841 74.2408 111.636 76.6297C117.516 79.0524 122.144 81.3402 126.464 86.0243C131.216 91.1735 135.563 96.784 141.158 101.067C143.176 102.612 145.37 103.977 147.796 104.731C150.691 105.631 153.785 105.627 156.816 105.533C165.861 105.256 174.885 104.27 183.781 102.593C192.14 101.014 200.469 100.204 208.863 98.6254C214.657 97.5378 220.912 96.634 226.422 94.485Z" fill="#7B6EB9"/>
<path opacity="0.6" d="M226.422 94.485C226.924 94.29 227.416 94.0612 227.892 93.795C230.153 92.5199 231.848 90.2997 232.883 87.967C233.255 87.1306 234.335 85.6005 234.335 84.7004C233.525 85.8443 232.67 87.0294 231.432 87.6932C230.341 88.2783 229.069 88.3982 227.839 88.507C220.301 89.1671 212.849 89.8271 205.262 89.7896C197.33 89.7484 189.395 89.5458 181.47 89.1821C169.147 88.6158 156.204 87.4532 145.989 80.5376C137.018 74.4658 131.261 64.6775 122.995 57.6719C121.454 61.6472 116.95 63.6499 112.731 64.2537C89.8049 67.5315 77.4589 46.4284 73.9223 27.043C74.2599 28.8994 73.4873 31.5021 73.4648 33.4373C73.4348 35.9012 73.5773 38.369 73.9261 40.8067C74.5112 44.8908 75.8988 48.5361 77.894 52.1364C81.7605 59.1195 87.5023 65.0675 94.3991 69.0954C99.8333 72.2756 105.841 74.2408 111.636 76.6297C117.516 79.0524 122.144 81.3402 126.464 86.0243C131.216 91.1735 135.563 96.784 141.158 101.067C143.176 102.612 145.37 103.977 147.796 104.731C150.691 105.631 153.785 105.627 156.816 105.533C165.861 105.256 174.885 104.27 183.781 102.593C192.14 101.014 200.469 100.204 208.863 98.6254C214.657 97.5378 220.912 96.634 226.422 94.485Z" fill="white"/>
<path d="M170.342 170.975C182.036 185.759 194.415 200.014 208.667 212.379H214.202C214.165 212.334 214.131 212.281 214.093 212.236C209.312 206.532 203.87 201.75 198.912 196.26C190.451 186.891 182.216 177.317 174.212 167.555C171.242 163.932 168.272 160.223 166.412 155.925C160.52 142.304 169.382 124.104 174.261 111.405C175.187 108.994 176.23 106.447 178.672 105.228C181.541 103.796 185.336 103.874 188.452 103.454C195.214 102.547 201.942 101.422 208.633 100.079C212.702 99.2614 216.767 98.4026 220.803 97.4238C223.544 96.7562 226.327 95.9424 228.791 94.536C231.536 92.9684 233.693 90.6957 234.596 87.6054C236.614 80.6861 234.116 72.5591 232.635 65.801C232.444 64.9197 232.249 64.0384 232.057 63.1571C231.904 62.4633 231.491 61.5819 230.794 61.717C230.13 61.8445 230.036 62.7483 230.104 63.4234C230.842 70.8002 234.128 80.0823 230.895 87.1667C229.631 89.9381 227.114 91.6033 224.335 92.6309C218.354 94.8473 211.644 95.7624 205.396 96.925C198.383 98.2301 191.333 99.3289 184.256 100.21C181.421 100.563 178.499 100.855 175.945 102.243C173.56 103.537 172.011 105.704 170.916 108.138C168.201 114.176 166.168 120.706 164.195 127.021C161.874 134.466 158.829 143.129 159.792 151.038C160.715 158.629 165.752 165.17 170.342 170.975Z" fill="#4A4072"/>
<path d="M23.1372 212.378C23.0397 200.088 23.9136 188.166 29.9441 177.038C33.0606 171.289 36.8409 165.93 40.145 160.289C43.5427 154.488 46.5692 148.472 49.3407 142.348C54.9587 129.916 59.5004 117.033 63.9632 104.151C66.1047 97.9741 68.2349 91.8161 67.9424 85.1818C67.6873 79.2938 65.8497 73.657 63.5057 68.2978C60.6967 61.8735 57.1564 55.8167 54.1299 49.4974C50.7209 42.3756 48.2419 34.8637 46.318 27.213C46.0404 26.118 43.7752 25.3604 43.974 26.9843C45.6542 40.5004 51.7785 52.0589 57.4452 64.21C60.1417 69.9892 62.6169 76.1135 63.307 82.504C64.057 89.4609 62.0168 95.7764 59.7291 102.253C55.2813 114.851 50.8184 127.467 45.3429 139.663C42.5827 145.809 39.5712 151.844 36.1959 157.675C32.9781 163.23 29.2915 168.495 26.1375 174.087C22.5559 180.436 20.1295 187.168 19.0944 194.399C18.2431 200.354 18.1943 206.373 18.2881 212.381L23.1372 212.378Z" fill="#4A4072"/>
<path d="M86.9602 102.155C85.8014 101.36 84.9538 100.194 83.9074 99.2565C83.0486 98.4876 81.9985 97.8538 80.8472 97.7901C79.6958 97.7226 78.4545 98.3526 78.0869 99.444C77.9294 99.909 77.937 100.412 77.9482 100.903C77.967 101.893 77.9857 102.883 78.0045 103.873C78.0232 104.777 78.0345 105.715 77.6819 106.547C77.1906 107.717 76.0805 108.479 75.1692 109.356C74.2541 110.234 73.4553 111.501 73.8491 112.709C74.1041 113.485 74.8167 114.044 75.593 114.299C77.5582 114.944 79.6208 113.879 81.5673 113.181C83.6074 112.45 85.7864 112.105 87.9503 112.173C88.2053 112.18 88.4791 112.191 88.7041 112.068C89.0604 111.873 89.1692 111.423 89.2479 111.025C89.6267 109.075 90.8155 106.123 90.5755 104.169C90.3242 102.125 88.5841 103.266 86.9602 102.155Z" fill="#E2E2F2"/>
<path opacity="0.2" d="M86.9602 102.155C85.8014 101.36 84.9538 100.194 83.9074 99.2565C83.0486 98.4876 81.9985 97.8538 80.8472 97.7901C79.6958 97.7226 78.4545 98.3526 78.0869 99.444C77.9294 99.909 77.937 100.412 77.9482 100.903C77.967 101.893 77.9857 102.883 78.0045 103.873C78.0232 104.777 78.0345 105.715 77.6819 106.547C77.1906 107.717 76.0805 108.479 75.1692 109.356C74.2541 110.234 73.4553 111.501 73.8491 112.709C74.1041 113.485 74.8167 114.044 75.593 114.299C77.5582 114.944 79.6208 113.879 81.5673 113.181C83.6074 112.45 85.7864 112.105 87.9503 112.173C88.2053 112.18 88.4791 112.191 88.7041 112.068C89.0604 111.873 89.1692 111.423 89.2479 111.025C89.6267 109.075 90.8155 106.123 90.5755 104.169C90.3242 102.125 88.5841 103.266 86.9602 102.155Z" fill="black"/>
<path d="M86.9602 102.155C85.8014 101.36 84.9538 100.194 83.9074 99.2565C83.0486 98.4876 81.9985 97.8538 80.8472 97.7901C79.6958 97.7226 78.4545 98.3526 78.0869 99.444C77.9294 99.909 77.937 100.412 77.9482 100.903C77.967 101.893 77.9857 102.883 78.0045 103.873C78.0232 104.777 78.0345 105.715 77.6819 106.547C77.1906 107.717 76.0805 108.479 75.1692 109.356C74.2541 110.234 73.4553 111.501 73.8491 112.709C74.1041 113.485 74.8167 114.044 75.593 114.299C77.5582 114.944 79.6208 113.879 81.5673 113.181C83.6074 112.45 85.7864 112.105 87.9503 112.173C88.2053 112.18 88.4791 112.191 88.7041 112.068C89.0604 111.873 89.1692 111.423 89.2479 111.025C89.6267 109.075 90.8155 106.123 90.5755 104.169C90.3242 102.125 88.5841 103.266 86.9602 102.155Z" stroke="#4A4072" stroke-width="0.25" stroke-miterlimit="10"/>
<path d="M86.7182 113.05C86.5457 116.661 87.8132 119.624 92.8087 120.453C94.4551 120.726 96.139 120.516 97.8079 120.438C102.635 120.216 107.514 121.143 111.92 123.119C114.096 124.094 116.177 125.328 118.48 125.954C120.782 126.581 123.441 126.498 125.313 125.024C126.464 124.117 127.199 122.785 127.788 121.443C129.532 117.46 131.808 108.74 129.033 104.705C126.115 100.467 117.598 102.331 113.098 101.731C105.158 100.677 92.2199 90.7164 88.9084 103.239C88.0758 106.37 86.8682 109.952 86.7182 113.05Z" fill="#E2E2F2" stroke="#4A4072" stroke-width="0.25" stroke-miterlimit="10"/>
<path d="M75.5266 131.882C74.3678 131.087 73.5202 129.92 72.4739 128.979C71.6151 128.21 70.5649 127.576 69.4136 127.513C68.2622 127.445 67.0209 128.075 66.6534 129.167C66.4959 129.632 66.5034 130.134 66.5146 130.626C66.5334 131.616 66.5521 132.606 66.5709 133.596C66.5896 134.5 66.6009 135.437 66.2483 136.27C65.757 137.44 64.647 138.201 63.7356 139.079C62.8206 139.956 62.0217 141.224 62.4155 142.432C62.6705 143.208 63.3831 143.767 64.1594 144.022C66.1246 144.667 68.1872 143.602 70.1337 142.904C72.1738 142.173 74.3528 141.828 76.5167 141.895C76.7717 141.903 77.0455 141.914 77.2705 141.79C77.6268 141.595 77.7356 141.145 77.8143 140.748C78.1931 138.797 79.382 135.846 79.142 133.892C78.8944 131.852 77.1543 132.996 75.5266 131.882Z" fill="#E2E2F2"/>
<path opacity="0.2" d="M75.5266 131.882C74.3678 131.087 73.5202 129.92 72.4739 128.979C71.6151 128.21 70.5649 127.576 69.4136 127.513C68.2622 127.445 67.0209 128.075 66.6534 129.167C66.4959 129.632 66.5034 130.134 66.5146 130.626C66.5334 131.616 66.5521 132.606 66.5709 133.596C66.5896 134.5 66.6009 135.437 66.2483 136.27C65.757 137.44 64.647 138.201 63.7356 139.079C62.8206 139.956 62.0217 141.224 62.4155 142.432C62.6705 143.208 63.3831 143.767 64.1594 144.022C66.1246 144.667 68.1872 143.602 70.1337 142.904C72.1738 142.173 74.3528 141.828 76.5167 141.895C76.7717 141.903 77.0455 141.914 77.2705 141.79C77.6268 141.595 77.7356 141.145 77.8143 140.748C78.1931 138.797 79.382 135.846 79.142 133.892C78.8944 131.852 77.1543 132.996 75.5266 131.882Z" fill="black"/>
<path d="M75.5266 131.882C74.3678 131.087 73.5202 129.92 72.4739 128.979C71.6151 128.21 70.5649 127.576 69.4136 127.513C68.2622 127.445 67.0209 128.075 66.6534 129.167C66.4959 129.632 66.5034 130.134 66.5146 130.626C66.5334 131.616 66.5521 132.606 66.5709 133.596C66.5896 134.5 66.6009 135.437 66.2483 136.27C65.757 137.44 64.647 138.201 63.7356 139.079C62.8206 139.956 62.0217 141.224 62.4155 142.432C62.6705 143.208 63.3831 143.767 64.1594 144.022C66.1246 144.667 68.1872 143.602 70.1337 142.904C72.1738 142.173 74.3528 141.828 76.5167 141.895C76.7717 141.903 77.0455 141.914 77.2705 141.79C77.6268 141.595 77.7356 141.145 77.8143 140.748C78.1931 138.797 79.382 135.846 79.142 133.892C78.8944 131.852 77.1543 132.996 75.5266 131.882Z" stroke="#4A4072" stroke-width="0.25" stroke-miterlimit="10"/>
<path d="M75.2852 142.772C75.1089 146.384 76.3765 149.347 81.372 150.175C83.0184 150.449 84.7022 150.239 86.3711 150.16C91.1978 149.939 96.077 150.865 100.484 152.842C102.659 153.817 104.74 155.051 107.043 155.677C109.346 156.303 112.005 156.221 113.876 154.747C115.027 153.839 115.762 152.508 116.351 151.165C118.095 147.183 120.372 138.463 117.596 134.428C114.679 130.19 106.162 132.054 101.661 131.454C93.7217 130.4 80.7831 120.439 77.4716 132.961C76.6465 136.097 75.4352 139.674 75.2852 142.772Z" fill="#E2E2F2" stroke="#4A4072" stroke-width="0.25" stroke-miterlimit="10"/>
<path d="M62.3305 162.251C61.1154 161.543 60.1891 160.436 59.079 159.577C58.1677 158.872 57.0763 158.317 55.9212 158.332C54.7699 158.347 53.5735 159.064 53.2848 160.181C53.161 160.658 53.206 161.156 53.251 161.648C53.3411 162.634 53.431 163.62 53.521 164.607C53.6035 165.507 53.6823 166.441 53.3898 167.296C52.981 168.496 51.9309 169.336 51.0833 170.277C50.2358 171.218 49.527 172.542 50.007 173.712C50.3145 174.466 51.0683 174.973 51.8597 175.171C53.8661 175.674 55.8462 174.462 57.7401 173.626C59.7241 172.752 61.8693 172.25 64.0369 172.16C64.292 172.149 64.5657 172.141 64.7795 171.999C65.1208 171.777 65.1995 171.323 65.2483 170.922C65.4846 168.95 66.4596 165.923 66.0809 163.992C65.6833 161.981 64.0294 163.245 62.3305 162.251Z" fill="#E2E2F2"/>
<path opacity="0.2" d="M62.3305 162.251C61.1154 161.543 60.1891 160.436 59.079 159.577C58.1677 158.872 57.0763 158.317 55.9212 158.332C54.7699 158.347 53.5735 159.064 53.2848 160.181C53.161 160.658 53.206 161.156 53.251 161.648C53.3411 162.634 53.431 163.62 53.521 164.607C53.6035 165.507 53.6823 166.441 53.3898 167.296C52.981 168.496 51.9309 169.336 51.0833 170.277C50.2358 171.218 49.527 172.542 50.007 173.712C50.3145 174.466 51.0683 174.973 51.8597 175.171C53.8661 175.674 55.8462 174.462 57.7401 173.626C59.7241 172.752 61.8693 172.25 64.0369 172.16C64.292 172.149 64.5657 172.141 64.7795 171.999C65.1208 171.777 65.1995 171.323 65.2483 170.922C65.4846 168.95 66.4596 165.923 66.0809 163.992C65.6833 161.981 64.0294 163.245 62.3305 162.251Z" fill="black"/>
<path d="M62.3305 162.251C61.1154 161.543 60.1891 160.436 59.079 159.577C58.1677 158.872 57.0763 158.317 55.9212 158.332C54.7699 158.347 53.5735 159.064 53.2848 160.181C53.161 160.658 53.206 161.156 53.251 161.648C53.3411 162.634 53.431 163.62 53.521 164.607C53.6035 165.507 53.6823 166.441 53.3898 167.296C52.981 168.496 51.9309 169.336 51.0833 170.277C50.2358 171.218 49.527 172.542 50.007 173.712C50.3145 174.466 51.0683 174.973 51.8597 175.171C53.8661 175.674 55.8462 174.462 57.7401 173.626C59.7241 172.752 61.8693 172.25 64.0369 172.16C64.292 172.149 64.5657 172.141 64.7795 171.999C65.1208 171.777 65.1995 171.323 65.2483 170.922C65.4846 168.949 66.4596 165.923 66.0809 163.992C65.6833 161.981 64.0294 163.245 62.3305 162.251Z" stroke="#4A4072" stroke-width="0.25" stroke-miterlimit="10"/>
<path d="M62.8636 173.144C62.9498 176.76 64.4237 179.621 69.4679 180.094C71.1293 180.247 72.7944 179.917 74.452 179.722C79.2524 179.156 84.1804 179.73 88.722 181.387C90.961 182.205 93.1249 183.289 95.4689 183.746C97.8091 184.204 100.453 183.934 102.219 182.329C103.303 181.342 103.941 179.959 104.432 178.578C105.887 174.479 107.534 165.621 104.473 161.796C101.259 157.779 92.8961 160.247 88.3658 159.973C80.3701 159.489 66.7527 150.481 64.3449 163.21C63.7411 166.386 62.7885 170.043 62.8636 173.144Z" fill="#E2E2F2" stroke="#4A4072" stroke-width="0.25" stroke-miterlimit="10"/>
<path d="M54.4803 194.736C53.2202 194.113 52.2189 193.074 51.0525 192.29C50.0924 191.649 48.9673 191.169 47.816 191.267C46.6684 191.36 45.5246 192.159 45.3145 193.292C45.2245 193.775 45.3033 194.271 45.382 194.758C45.5395 195.737 45.6971 196.712 45.8546 197.691C45.9971 198.583 46.1433 199.51 45.9108 200.384C45.5883 201.61 44.5982 202.521 43.8144 203.519C43.0306 204.516 42.4193 205.885 42.9781 207.022C43.3381 207.753 44.1257 208.207 44.9283 208.349C46.9647 208.709 48.8586 207.37 50.6887 206.403C52.6052 205.394 54.7128 204.745 56.8693 204.509C57.1243 204.479 57.3943 204.453 57.6006 204.299C57.9231 204.055 57.9719 203.598 57.9944 203.193C58.0956 201.209 58.8569 198.118 58.3469 196.221C57.8068 194.229 56.2467 195.606 54.4803 194.736Z" fill="#E2E2F2"/>
<path opacity="0.2" d="M54.4803 194.736C53.2202 194.113 52.2189 193.074 51.0525 192.29C50.0924 191.649 48.9673 191.169 47.816 191.267C46.6684 191.36 45.5246 192.159 45.3145 193.292C45.2245 193.775 45.3033 194.271 45.382 194.758C45.5395 195.737 45.6971 196.712 45.8546 197.691C45.9971 198.583 46.1433 199.51 45.9108 200.384C45.5883 201.61 44.5982 202.521 43.8144 203.519C43.0306 204.516 42.4193 205.885 42.9781 207.022C43.3381 207.753 44.1257 208.207 44.9283 208.349C46.9647 208.709 48.8586 207.37 50.6887 206.403C52.6052 205.394 54.7128 204.745 56.8693 204.509C57.1243 204.479 57.3943 204.453 57.6006 204.299C57.9231 204.055 57.9719 203.598 57.9944 203.193C58.0956 201.209 58.8569 198.118 58.3469 196.221C57.8068 194.229 56.2467 195.606 54.4803 194.736Z" fill="black"/>
<path d="M54.4803 194.736C53.2202 194.113 52.2189 193.074 51.0525 192.29C50.0924 191.649 48.9673 191.169 47.816 191.267C46.6684 191.36 45.5246 192.159 45.3145 193.292C45.2245 193.775 45.3033 194.271 45.382 194.758C45.5395 195.737 45.6971 196.712 45.8546 197.691C45.9971 198.583 46.1433 199.51 45.9108 200.384C45.5883 201.61 44.5982 202.521 43.8144 203.519C43.0306 204.516 42.4193 205.885 42.9781 207.022C43.3381 207.753 44.1257 208.207 44.9283 208.349C46.9647 208.709 48.8586 207.37 50.6887 206.403C52.6052 205.394 54.7128 204.745 56.8693 204.509C57.1243 204.479 57.3943 204.453 57.6006 204.299C57.9231 204.055 57.9719 203.598 57.9944 203.193C58.0956 201.209 58.8569 198.118 58.3469 196.221C57.8068 194.229 56.2467 195.606 54.4803 194.736Z" stroke="#4A4072" stroke-width="0.25" stroke-miterlimit="10"/>
<path d="M55.7674 205.555C56.1012 209.156 57.7701 211.908 62.833 212.032C64.5019 212.073 66.1408 211.627 67.7797 211.32C72.5276 210.423 77.4893 210.656 82.1322 211.998C84.4236 212.659 86.6551 213.589 89.0253 213.885C91.3917 214.181 94.0132 213.727 95.6596 212.006C96.6722 210.945 97.2122 209.523 97.6098 208.113C98.7799 203.924 99.8112 194.972 96.4959 191.368C93.0119 187.58 84.8399 190.618 80.302 190.659C72.2913 190.727 58.0851 182.678 56.5625 195.542C56.1762 198.752 55.4787 202.465 55.7674 205.555Z" fill="#E2E2F2" stroke="#4A4072" stroke-width="0.25" stroke-miterlimit="10"/>
<path d="M143.402 212.324C140.683 206.552 137.476 200.983 134.06 195.593C131.153 191.007 127.598 187.166 123.011 184.23C112.964 177.794 100.974 176.936 89.3709 176.793C88.7146 176.786 88.8271 178.008 89.3896 178.102C100.026 179.846 111.445 181.35 120.671 187.35C124.86 190.077 128.67 193.763 131.401 197.896C134.791 203.03 137.263 207.688 140.945 213.269C141.785 214.54 144.246 214.112 143.402 212.324Z" fill="#4A4072"/>
<path d="M122.734 61.901C123.492 60.8659 124.118 59.722 124.61 58.5144C125.041 57.4531 125.423 56.3055 125.198 55.1841C125.135 54.8579 124.992 54.5091 124.692 54.3591C124.336 54.179 123.882 54.359 123.619 54.6553C123.353 54.9553 123.229 55.3491 123.087 55.7204C121.043 61.1246 115.451 63.8436 109.972 63.9861C106.323 64.0799 102.738 63.2811 99.3811 61.8709C93.0843 59.2232 87.8639 54.3853 84.091 48.7523C76.0503 36.7475 71.7825 15.3819 86.0524 6.00238C92.8068 1.562 102.336 2.28581 108.933 6.66994C109.837 7.26999 109.927 5.67235 109.323 5.22231C102.344 0.0393653 93.0618 -1.82077 85.0098 2.10956C77.1604 5.94239 73.0388 14.5906 72.4988 22.9951C71.4262 39.6315 81.6758 57.7081 96.9208 64.6799C100.922 66.5101 105.295 67.5227 109.702 67.5414C112.11 67.5489 114.585 67.1739 116.858 66.3713C119.292 65.5087 121.261 63.9074 122.734 61.901Z" fill="#4A4072"/>
<path d="M110.31 46.0114C107.824 44.1212 102.176 42.4598 104.655 38.372C106.346 35.5855 109.373 33.6503 108.802 29.96C108.172 25.8684 104.471 23.4457 100.758 22.4443C99.7342 22.1668 100.034 23.8807 100.736 24.162C104.055 25.4934 107.284 28.1598 104.835 31.8577C103.361 34.0816 100.946 35.773 100.196 38.4357C99.3217 41.5335 101.287 44.245 103.751 45.9326C106.35 47.714 111.964 49.4017 110.621 53.602C110.55 53.8233 110.633 54.3596 110.974 54.2396C114.672 52.942 112.474 47.6578 110.31 46.0114Z" fill="#4A4072"/>
<path d="M107.77 16.5388C106.941 15.6875 106.274 14.9599 105.231 14.3974C104.323 13.9061 103.363 13.5085 102.373 13.216C100.423 12.6347 98.3792 12.4884 96.3616 12.7622C92.0824 13.3398 87.8296 15.95 86.1195 20.0528C85.2382 22.1643 85.2344 24.5082 85.2344 26.7584C85.2344 29.0311 85.2831 31.3713 85.9394 33.5653C86.5733 35.6955 87.6309 37.8069 89.0935 39.487C89.9111 40.4283 90.7211 41.1897 91.6962 41.9585C92.525 42.611 93.3726 43.4099 94.4264 43.6536C95.3603 43.8674 95.6303 43.0798 95.3677 42.311C95.064 41.4297 94.2201 41.0059 93.6238 40.3459C93.1326 39.7983 92.7275 39.1757 92.3037 38.5569C91.2724 37.0493 90.4586 35.3879 89.9635 33.629C89.401 31.6151 89.281 29.6012 89.281 27.5197C89.281 25.5058 89.2284 23.4094 90.0085 21.5155C92.825 14.6974 101.867 14.4499 107.53 17.4201C107.92 17.6189 107.946 16.7226 107.77 16.5388Z" fill="#4A4072"/>
<path opacity="0.2" d="M87.3106 149.983C87.3106 164.107 75.8609 175.561 61.7335 175.561C47.606 175.561 36.1562 164.111 36.1562 149.983C36.1562 135.86 47.606 124.406 61.7335 124.406C75.8609 124.406 87.3106 135.86 87.3106 149.983Z" fill="#7B6EB9"/>
<path opacity="0.2" d="M75.5438 149.985C75.5438 157.609 69.3633 163.786 61.7426 163.786C54.1182 163.786 47.9414 157.605 47.9414 149.985C47.9414 142.36 54.122 136.184 61.7426 136.184C69.3633 136.184 75.5438 142.36 75.5438 149.985Z" fill="#7B6EB9"/>
<path opacity="0.2" d="M100.545 156.283C104.021 134.864 89.4755 114.684 68.057 111.207C46.6386 107.731 26.4576 122.276 22.9815 143.695C19.5054 165.113 34.0506 185.294 55.4691 188.771C76.8875 192.247 97.0685 177.701 100.545 156.283Z" fill="#7B6EB9"/>
<path opacity="0.2" d="M114.9 158.61C119.663 129.261 99.7339 101.608 70.3867 96.8451C41.0396 92.0822 13.3877 112.013 8.62451 141.362C3.86133 170.712 23.7906 198.365 53.1377 203.128C82.4848 207.891 110.137 187.959 114.9 158.61Z" fill="#7B6EB9"/>
</svg>
