<svg width="140" height="214" viewBox="0 0 140 214" fill="none" xmlns="http://www.w3.org/2000/svg">
<path d="M0 0.411676C0 0.411676 9.16163 40.5261 9.16163 53.069C9.16163 65.6119 9.63447 90.8832 12.4654 110.64C15.2978 130.397 18.1302 145.271 19.0744 152.766C20.0185 160.263 13.4977 213.358 13.4977 213.358H120.032C120.032 213.358 114.904 156.128 113.488 140.506C112.073 124.884 111.6 88.9478 117.736 66.7111C123.874 44.4745 130.01 29.7605 134.73 15.0679L139.066 0.410156L0 0.411676Z" fill="#E2E2F2"/>
<path d="M107.756 73.432C103.315 62.9902 86.8767 49.2325 75.3083 50.0718L43.121 56.2611C31.317 66.0491 22.0064 82.5358 20.5909 97.5736C19.7928 106.045 19.9646 114.808 23.095 122.751C26.3227 130.938 32.588 137.81 40.097 142.646C47.6045 147.482 56.3085 150.371 65.1706 151.899C75.9439 153.755 87.9029 153.395 96.6829 147.034C102.748 142.64 106.596 135.826 108.644 128.738C110.691 121.65 111.099 114.223 111.426 106.868C111.928 95.5744 112.197 83.8737 107.756 73.432Z" fill="#938CCB"/>
<path d="M103.277 75.9221C102.642 67.8916 96.9299 64.185 92.3294 62.6403C87.7273 61.0956 86.2996 57.6977 86.2996 57.6977C76.9373 43.3349 74.2402 0.378906 74.2402 0.378906H42.1882C42.1882 0.378906 42.9818 41.173 41.3946 49.8207C39.8073 58.47 38.5378 61.0956 36.1585 67.8901C33.7791 74.686 31.716 77.9289 31.3983 83.7975C31.0805 89.6661 32.35 95.226 32.6678 100.169C32.8107 102.393 34.1106 103.897 35.4956 104.88C37.0297 105.967 38.8982 106.504 40.794 106.56C42.2885 106.604 44.5128 106.656 46.6306 106.656C50.281 106.656 61.0694 101.405 65.7399 102.177C70.4104 102.949 75.9856 108.046 85.3479 109.127C87.0203 109.32 88.5756 109.286 90.0017 109.101C96.3294 108.28 101.532 103.682 103.141 97.6692C103.195 97.4624 103.242 97.2648 103.277 97.0808C103.753 94.6102 103.913 83.9526 103.277 75.9221Z" fill="#E2E2F2"/>
<path d="M103.626 116.995C102.342 111.522 96.5217 110.374 89.0583 111.149C81.528 111.931 68.5747 105.395 64.637 105.095C60.6993 104.796 51.5999 108.487 45.9777 108.957C40.3554 109.427 38.1981 107.057 35.3048 110.184C32.4131 113.311 34.2239 119.498 34.2239 119.498C36.1821 125.146 38.0795 131.695 44.0241 138.575C49.9686 145.456 53.1811 153.9 53.6631 162.812C54.145 171.726 54.7881 213.607 54.7881 213.607H78.8872C78.8872 213.607 80.1719 185.955 80.1719 177.981C80.1719 170.007 81.186 160.356 83.8846 151.953C86.2609 144.55 88.2495 141.984 93.6665 137.95C99.0942 133.908 104.913 122.468 103.626 116.995Z" fill="#E2E2F2"/>
<path d="M30.4994 121.934C29.3667 120.324 26.9129 120.176 25.6905 121.721C25.2633 122.262 24.8346 122.965 24.4332 123.875C22.4309 128.424 20.5943 134.597 25.6008 140.932C30.6074 147.268 33.2817 213.602 33.2817 213.602H43.1259C43.1259 213.602 40.1217 166.273 40.1217 160.913C40.1217 155.552 41.4566 140.931 39.4543 136.221C37.9643 132.716 32.9608 125.432 30.4994 121.934Z" fill="#E2E2F2"/>
<path d="M30.4934 121.933C30.504 121.925 30.6074 122.051 30.8005 122.304C31.0133 122.592 31.29 122.966 31.6382 123.439C32.3649 124.446 33.4231 125.94 34.7458 127.902C36.0472 129.876 37.6846 132.268 39.246 135.28C40.0579 136.797 40.3833 138.66 40.5703 140.557C40.7573 142.473 40.8151 144.504 40.8211 146.635C40.8409 150.895 40.5383 155.569 40.4395 160.565C40.5444 165.551 40.923 170.931 41.2316 176.582C41.931 187.899 42.7003 200.386 43.5152 213.576L43.541 213.996H43.1214C40.7588 213.996 38.235 213.996 35.6884 213.997C34.8629 213.997 34.0388 213.997 33.2787 213.997H32.9001L32.8834 213.617C32.2859 199.835 31.5135 186.738 30.58 174.865C30.1117 168.93 29.5872 163.3 28.9745 158.05C28.3238 152.816 27.7005 147.905 26.4781 143.625C26.1786 142.532 25.7666 141.597 25.1372 140.745C24.4956 139.874 23.9194 138.979 23.4952 138.041C22.5997 136.186 22.1801 134.241 22.1725 132.431C22.1405 128.777 23.3842 125.831 24.4059 123.558C24.973 122.447 25.5507 121.393 26.4705 120.908C27.3691 120.429 28.2828 120.497 28.9137 120.707C30.2136 121.179 30.4934 121.974 30.4934 121.933C30.4493 121.998 30.1194 121.253 28.8666 120.856C28.26 120.68 27.398 120.646 26.5815 121.109C25.7636 121.557 25.2117 122.585 24.6796 123.684C23.7081 125.954 22.5313 128.885 22.6073 132.42C22.6347 134.175 23.0604 136.04 23.9407 137.823C24.3573 138.725 24.9243 139.587 25.5537 140.428C26.2105 141.288 26.7092 142.383 27.0026 143.458C28.2843 147.818 28.9335 152.72 29.6162 157.971C30.2593 163.23 30.8081 168.864 31.2976 174.806C32.2737 186.689 33.0704 199.788 33.6709 213.585L33.2756 213.205C34.0373 213.205 34.8598 213.205 35.6854 213.205C38.2319 213.205 40.7557 213.207 43.1184 213.207L42.7246 213.627C41.9386 200.433 41.1936 187.943 40.5186 176.623C40.2312 170.956 39.877 165.611 39.8009 160.56C39.9302 155.522 40.2631 150.88 40.2783 146.634C40.2905 144.513 40.251 142.495 40.0853 140.604C39.9135 138.71 39.6307 136.949 38.8629 135.468C37.3608 132.481 35.7568 130.057 34.498 128.064C33.2209 126.123 32.2205 124.604 31.512 123.526C31.1897 123.035 30.9328 122.647 30.7367 122.348C30.5664 122.082 30.4827 121.94 30.4934 121.933Z" fill="#263238"/>
<path d="M101.374 94.0099C94.9475 94.3824 89.5275 98.6971 83.3625 100.5C75.0751 102.924 66.2099 100.661 57.8008 98.6713C49.4571 96.6963 40.3624 95.0605 32.5234 98.4402C32.5812 99.024 32.6329 99.6017 32.6694 100.169C32.8123 102.393 34.1122 103.897 35.4973 104.88C37.0313 105.967 38.8998 106.504 40.7957 106.56C42.2902 106.604 44.5144 106.656 46.6323 106.656C50.2827 106.656 61.0711 101.405 65.7416 102.177C70.4121 102.95 75.9872 108.046 85.3495 109.127C87.0204 109.32 88.5773 109.286 90.0033 109.101C96.331 108.28 101.534 103.682 103.142 97.6694C103.197 97.4626 103.244 97.2649 103.279 97.081C103.387 96.523 103.477 95.5317 103.547 94.2638C102.885 94.0099 102.096 93.9688 101.374 94.0099Z" fill="#FAFAFA"/>
<path d="M103.279 75.9233C103.279 75.9233 103.326 76.2015 103.379 76.7488C103.435 77.2946 103.496 78.1095 103.568 79.1799C103.7 81.319 103.841 84.4768 103.85 88.5498C103.847 90.5855 103.831 92.8493 103.668 95.329C103.627 95.9478 103.571 96.5849 103.448 97.2356C103.311 97.8848 103.105 98.5157 102.874 99.1557C102.405 100.431 101.749 101.701 100.884 102.884C99.1692 105.252 96.6424 107.323 93.5166 108.495C90.3907 109.677 86.7343 109.806 83.1493 109.068C79.5248 108.431 75.9231 106.96 72.37 105.188C70.5821 104.333 68.7926 103.356 66.8633 102.777C64.9492 102.13 62.8739 102.522 60.8169 103.01C56.677 103.989 52.6237 105.768 48.1128 106.824C46.9421 107.098 45.7517 106.976 44.6145 106.978C43.4575 106.961 42.2914 106.943 41.1192 106.925C38.7383 106.937 36.1963 106.16 34.3582 104.419C33.4369 103.565 32.7162 102.424 32.441 101.152C32.292 100.506 32.289 99.8749 32.2328 99.285L32.0488 97.4636C31.7706 95.0265 31.4057 92.5574 31.1822 90.0367C30.9557 87.5175 30.8721 84.942 31.1396 82.3467C31.3996 79.7454 32.1841 77.1973 33.1298 74.7526C35.0758 69.8966 36.8561 64.881 38.5908 59.7802C39.4133 57.223 40.0595 54.5943 40.5916 51.9154C41.2104 49.2396 41.4248 46.5486 41.5708 43.7694C41.9645 36.2664 41.9737 28.8532 41.998 21.6088C41.9934 14.3628 41.928 7.27488 41.811 0.389216L41.8049 0H42.1926C53.4538 0.0106425 64.1784 0.0212906 74.2446 0.031933H74.5699L74.5928 0.358803C75.4442 12.3027 76.8429 23.2963 78.6293 33.0251C80.5145 42.7036 82.6993 51.3058 86.4834 57.5802L86.4895 57.5909L86.5016 57.6137C87.3956 59.4168 88.9418 60.776 90.5321 61.6441C91.3379 62.0942 92.1589 62.3846 92.9951 62.6871C93.8191 62.9957 94.596 63.3469 95.3182 63.7346C98.2281 65.2732 100.22 67.3835 101.357 69.3356C102.506 71.2953 102.908 73.024 103.099 74.1657C103.271 75.3197 103.279 75.9233 103.279 75.9233C103.268 75.9248 103.241 75.7758 103.195 75.4839C103.139 75.1935 103.113 74.7526 102.982 74.187C102.756 73.0605 102.321 71.3622 101.159 69.4542C100.01 67.5537 98.0335 65.5134 95.1616 64.0326C94.4485 63.6586 93.6823 63.3211 92.8689 63.0261C92.0631 62.7434 91.1722 62.4378 90.3466 61.9832C88.6879 61.0847 87.087 59.7331 86.1018 57.7809L86.1201 57.8144C82.2204 51.4532 79.993 42.8328 78.0546 33.1315C76.218 23.3784 74.7797 12.3817 73.8934 0.399853L74.2415 0.726734C64.1753 0.737377 53.4507 0.746493 42.1895 0.758656L42.5711 0.369451C42.6973 7.26272 42.7703 14.3521 42.7794 21.6042C42.7596 28.8563 42.7551 36.2695 42.3583 43.8089C42.2975 45.197 42.1698 46.5835 42.0481 47.9655C41.8794 49.3612 41.6513 50.725 41.364 52.0659C40.8273 54.7615 40.172 57.4267 39.3389 60.0143C37.5935 65.144 35.804 70.1672 33.8534 75.0232C32.9123 77.4497 32.1568 79.9051 31.8998 82.4258C31.6368 84.942 31.7113 87.4764 31.9332 89.9668C32.1506 92.4601 32.5094 94.9216 32.7861 97.3769L32.9686 99.2196C33.0233 99.8475 33.0294 100.447 33.1586 100.989C33.3988 102.105 34.0222 103.106 34.8569 103.884C36.5369 105.477 38.8569 106.212 41.1359 106.207C42.3051 106.227 43.4666 106.248 44.6191 106.268C45.7852 106.271 46.9148 106.388 47.9775 106.136C52.347 105.128 56.4656 103.346 60.6618 102.367C61.7078 102.107 62.7705 101.918 63.8408 101.818C64.9127 101.71 66.0393 101.851 67.0396 102.165C69.0678 102.785 70.8527 103.775 72.6376 104.637C76.1709 106.415 79.6951 107.87 83.2496 108.515C86.7738 109.257 90.3025 109.143 93.3387 108.019C96.3718 106.902 98.8408 104.91 100.524 102.619C101.374 101.476 102.02 100.246 102.487 99.0068C102.716 98.3895 102.926 97.7631 103.058 97.1519C103.18 96.5362 103.242 95.9113 103.289 95.2956C103.473 92.8372 103.513 90.5749 103.54 88.5437C103.58 84.4798 103.487 81.3221 103.406 79.1844C103.359 78.14 103.323 77.3296 103.297 76.7519C103.273 76.2061 103.279 75.9233 103.279 75.9233Z" fill="#263238"/>
<path d="M103.312 117.813C103.446 117.749 103.579 117.675 103.713 117.603C103.686 117.4 103.669 117.185 103.624 116.995C102.339 111.522 96.5189 110.374 89.0555 111.149C81.5252 111.931 68.5718 105.395 64.6341 105.095C60.6964 104.796 51.5971 108.487 45.9749 108.957C40.3526 109.427 38.1952 107.057 35.302 110.184C34.4324 111.124 33.993 112.341 33.7969 113.583C36.8269 116.217 41.5446 116.84 45.6997 116.273C50.5967 115.604 55.2673 113.678 60.1932 113.26C67.5395 112.636 74.673 115.393 81.7275 117.482C88.7819 119.571 96.6862 120.963 103.312 117.813Z" fill="#FAFAFA"/>
<path d="M103.622 116.992C103.633 116.989 103.668 117.153 103.726 117.482C103.755 117.655 103.79 117.859 103.829 118.094C103.835 118.347 103.841 118.633 103.847 118.955C103.84 120.259 103.548 122.193 102.731 124.563C101.926 126.935 100.609 129.748 98.6051 132.751C97.6002 134.248 96.3945 135.782 94.8772 137.199C93.3052 138.58 91.4975 139.749 89.9042 141.386C86.5442 144.529 84.8079 149.441 83.3651 154.666C81.9406 159.931 81.045 165.774 80.6665 172.009C80.2408 184.54 79.7649 198.545 79.2526 213.621L79.2404 213.977H78.8786C71.1613 213.981 63.0851 213.987 54.781 213.994H54.3994L54.3903 213.609C54.1957 204.928 53.9935 195.88 53.7867 186.642C53.6696 181.308 53.5525 176.035 53.4385 170.84C53.3823 168.242 53.326 165.663 53.2698 163.104C53.1664 160.564 52.803 158.067 52.2436 155.638C51.1261 150.779 49.1101 146.224 46.3871 142.276C45.0583 140.276 43.43 138.548 41.9766 136.629C40.5323 134.724 39.2795 132.711 38.2213 130.633C37.151 128.56 36.2768 126.426 35.5075 124.299C35.1366 123.233 34.7671 122.173 34.4007 121.121L33.8625 119.53C33.715 118.973 33.6071 118.429 33.5189 117.875C33.1981 115.688 33.151 113.371 34.121 111.317C34.6211 110.295 35.4026 109.457 36.3452 108.864C37.3046 108.236 38.5011 108.13 39.5395 108.233C41.6254 108.466 43.5699 108.819 45.5312 108.656C47.4772 108.548 49.3747 108.101 51.2219 107.663C54.9209 106.765 58.4147 105.634 61.8963 105.015C62.7735 104.89 63.6431 104.758 64.5386 104.814C65.428 104.896 66.2642 105.114 67.0639 105.357C68.6694 105.84 70.1943 106.395 71.6782 106.924C74.6429 107.99 77.4433 108.969 80.1116 109.713C82.7752 110.447 85.3142 110.985 87.6692 111.014C88.8353 110.999 89.9756 110.864 91.0657 110.813C92.1543 110.748 93.1942 110.762 94.1763 110.801C96.1406 110.9 97.8845 111.256 99.2893 111.847C100.699 112.433 101.729 113.287 102.35 114.122C102.976 114.956 103.273 115.706 103.428 116.209C103.572 116.728 103.622 116.992 103.622 116.992C103.531 117.038 103.475 115.853 102.228 114.227C101.602 113.427 100.588 112.62 99.2026 112.071C97.8221 111.516 96.1072 111.189 94.1657 111.114C93.1942 111.087 92.1664 111.084 91.0885 111.162C90.0106 111.222 88.8885 111.368 87.6723 111.397C85.2579 111.39 82.687 110.865 79.9975 110.146C77.305 109.418 74.4847 108.454 71.514 107.406C70.0271 106.886 68.5006 106.342 66.9179 105.875C66.1274 105.637 65.3186 105.439 64.5097 105.366C63.6948 105.317 62.8434 105.448 61.9936 105.573C58.5834 106.196 55.0881 107.341 51.3724 108.262C49.5115 108.711 47.5973 109.173 45.5737 109.296C43.5578 109.474 41.4855 109.108 39.4923 108.893C38.4965 108.804 37.5174 108.902 36.6995 109.437C35.8785 109.957 35.1609 110.724 34.7337 111.618C33.8656 113.451 33.8898 115.668 34.2106 117.771C34.2958 118.298 34.4037 118.835 34.5406 119.344L35.0727 120.898C35.4406 121.944 35.8101 122.998 36.1826 124.059C36.9519 126.166 37.8169 128.267 38.8736 130.303C39.9196 132.343 41.1526 134.318 42.5741 136.185C43.9835 138.04 45.6544 139.813 47.0151 141.851C49.7973 145.871 51.8589 150.514 53.0037 155.466C53.5769 157.938 53.9494 160.489 54.0558 163.065C54.1136 165.625 54.1714 168.205 54.2291 170.805C54.3447 176.005 54.4633 181.279 54.5818 186.618C54.7841 195.86 54.9832 204.914 55.1733 213.601L54.784 213.218C63.0897 213.224 71.1658 213.229 78.8816 213.235L78.5091 213.591C79.0625 198.513 79.5764 184.508 80.037 171.976C80.443 165.703 81.3689 159.828 82.833 154.525C83.5749 151.877 84.405 149.363 85.4465 147.04C86.4849 144.716 87.911 142.669 89.5803 141.062C91.204 139.414 93.0862 138.212 94.602 136.898C96.095 135.527 97.3022 134.022 98.3102 132.55C100.323 129.599 101.666 126.821 102.5 124.484C103.346 122.146 103.675 120.243 103.723 118.955C103.727 118.637 103.732 118.353 103.735 118.104C103.707 117.869 103.683 117.667 103.663 117.494C103.627 117.164 103.613 116.995 103.622 116.992Z" fill="#263238"/>
<path d="M85.3846 83.4538C83.7396 80.2444 80.7582 79.5146 72.0739 77.2432C68.4144 76.3568 64.7078 75.4659 60.9358 75.4887C57.1639 75.5115 53.2596 76.5469 50.5154 79.0646C47.3196 81.9973 46.1322 86.5979 46.6597 90.8412C47.1873 95.0845 49.2398 99.0177 51.7149 102.549C54.19 106.081 57.1076 109.298 59.6572 112.78C60.8112 114.356 62.0123 116.082 63.8793 116.748C65.7782 117.426 67.9112 116.822 69.7143 115.932C74.3742 113.628 77.8345 109.528 80.5818 105.201C82.5187 102.15 85.4104 98.6999 86.1752 95.1909C86.9429 91.682 87.0296 86.6633 85.3846 83.4538Z" fill="#E2E2F2"/>
<path d="M85.3824 83.4527C85.3824 83.4527 85.6515 83.8191 85.9601 84.6158C86.2718 85.4109 86.6078 86.6378 86.772 88.254C86.9316 89.8671 86.9468 91.8678 86.5941 94.1514C86.3463 96.4821 85.1087 98.9299 83.526 101.327C82.7263 102.525 81.8886 103.778 81.019 105.083C80.1843 106.415 79.2615 107.787 78.2063 109.128C76.1037 111.798 73.4416 114.46 69.9554 116.212C68.245 117.062 66.1728 117.775 64.0534 117.195C61.9112 116.578 60.5839 114.7 59.3905 113.072C56.9609 109.746 54.0738 106.559 51.512 102.947C48.9639 99.351 46.8901 95.3738 46.3109 91.1517C45.7316 86.9677 46.7822 82.6226 49.42 79.6655C52.073 76.6765 55.8967 75.5043 59.2765 75.2337C62.7216 74.9691 65.893 75.5484 68.7057 76.1657C71.5244 76.7951 74.0375 77.499 76.2421 78.1132C78.4435 78.7427 80.344 79.3173 81.8126 80.0274C83.2995 80.7039 84.2619 81.6131 84.7575 82.3063C85.2486 83.0179 85.3824 83.4527 85.3824 83.4527C85.2927 83.5728 84.6891 81.5811 81.6849 80.3117C80.2314 79.6594 78.331 79.1303 76.1265 78.545C73.9144 77.9718 71.3967 77.309 68.5886 76.7175C65.7896 76.1383 62.6623 75.6062 59.3342 75.892C56.0579 76.1793 52.4242 77.347 49.9704 80.1505C47.5135 82.9267 46.5162 87.059 47.0817 91.0484C47.6443 95.0864 49.6511 98.9527 52.1612 102.494C54.6835 106.053 57.5676 109.245 60.0184 112.618C61.2134 114.273 62.457 115.959 64.2647 116.472C66.0602 116.983 67.9911 116.374 69.63 115.562C72.9915 113.898 75.6035 111.33 77.6924 108.724C78.7415 107.41 79.6583 106.075 80.5066 104.753C81.393 103.456 82.2459 102.211 83.0608 101.02C86.6017 96.3726 86.6351 91.4117 86.4679 88.2828C86.3524 86.688 86.0711 85.4702 85.8126 84.6705C85.5557 83.8662 85.3444 83.4709 85.3824 83.4527Z" fill="#263238"/>
</svg>
