<svg width="226" height="222" viewBox="0 0 226 222" fill="none" xmlns="http://www.w3.org/2000/svg">
<path d="M177.743 0C177.743 0 212.312 182.425 225.656 221.026L45.1493 208.016C45.1493 208.016 12.7746 71.0837 0.279327 11.5444L177.743 0Z" fill="#594C8B"/>
<g opacity="0.5">
<path d="M79.4588 210.177C79.4588 210.177 44.361 132.352 34.9134 81.2905C29.532 52.3965 26.9019 10.1733 26.9019 10.1733L128.551 3.15234C128.551 3.15234 159.778 63.084 176.346 118.294C192.904 173.504 196.484 219.306 196.484 219.306L143.897 215.203L129.392 163.726C129.392 163.726 123.822 166.347 116.599 162.153L131.621 214.247L79.4588 210.177Z" fill="white"/>
</g>
<path d="M141.944 152.651C141.432 155.17 141.591 161.783 134.396 158.925C127.205 156.069 120.971 142.651 120.971 142.651L114.806 142.081C114.806 142.081 114.885 144.104 114.504 147.552C114.122 150.999 112.154 156.683 107.039 156.394C101.924 156.105 99.7635 151.873 93.854 140.328C87.9529 128.785 86.6462 119.682 83.4483 111.687C80.2514 103.692 72.0562 99.6342 68.6705 96.2046C65.2878 92.775 64.289 90.483 60.2143 82.7732C56.1439 75.0633 54.0669 74.1375 50.989 61.2039C47.909 48.2703 56.5332 45.7717 56.5332 45.7717C56.5332 45.7717 62.9624 44.5359 67.6205 46.0681C72.2806 47.6003 74.8168 52.7844 76.3219 58.6061C77.8258 64.4269 79.741 83.4839 82.0476 91.7626C84.3532 100.041 96.5217 114.364 102.378 117.839C108.238 121.313 112.111 129.003 112.111 129.003L116.756 129.432C115.841 125.316 125.432 109.158 126.923 103.249C128.407 97.3381 123.853 87.7537 122.908 85.2843C121.962 82.8139 115.205 68.4441 112.478 60.1289C109.751 51.8137 116.419 50.5999 116.419 50.5999C116.419 50.5999 118.034 50.7502 125.487 51.4421C132.94 52.1341 139.709 64.3048 139.709 64.3048C139.709 64.3048 142.825 73.0218 143.773 78.423C144.721 83.8242 143.972 94.7487 143.43 99.6457C142.885 104.543 137.741 109.564 136.812 114.426C135.879 119.287 139.473 129.332 140.277 132.155C141.081 134.977 142.454 150.132 141.944 152.651ZM107.535 136.764C105.969 127.421 99.7458 124.576 98.4297 123.963C96.6439 123.132 94.1964 122.342 93.8645 123.806L93.9668 123.682C93.9668 123.682 93.8645 123.806 93.7591 124.085C93.4407 124.92 93.089 127.139 95.3632 131.522C98.3962 137.365 101.412 144.084 103.3 145.178C105.187 146.272 109.097 146.107 107.535 136.764ZM135.669 135.247C135.532 131.062 133.88 128.66 133.062 127.719C132.789 127.406 132.61 127.255 132.61 127.255L132.79 127.406C131.594 125.801 129.472 126.168 128.07 126.704C127.037 127.098 122.123 128.913 125.873 138.458C129.625 148.003 133.839 148.918 135.196 148.124C136.553 147.33 135.85 140.825 135.669 135.247Z" fill="white"/>
<path d="M114.43 126.053C115.964 126.033 115.208 120.159 115.208 120.159C115.208 120.159 115.741 116.339 115.609 113.586C115.475 110.833 117.041 108.399 118.164 105.923C119.285 103.448 118.636 96.6165 117.649 93.14C116.664 89.6634 117.473 89.416 117.473 89.416C121.467 88.3358 118.299 79.982 116.087 72.2001C113.875 64.4192 111.217 64.8169 111.217 64.8169C111.217 64.8169 109.466 64.6541 108.119 70.8161C106.768 76.9782 104.913 79.0896 101.141 78.8746L99.1267 78.6878C95.3495 78.5437 92.1026 75.6182 87.1136 68.8686C82.131 62.1189 80.3797 61.9561 80.3797 61.9561C80.3797 61.9561 77.3498 61.0303 79.5217 68.8091C81.6937 76.5878 83.1872 84.7882 88.0196 86.6867C88.0196 86.6867 89.0142 87.1011 89.987 90.5777C90.9586 94.0532 94.2234 101.127 96.8358 103.949C99.4492 106.77 102.505 109.633 103.956 112.508C105.408 115.383 108.178 119.508 108.178 119.508C108.178 119.508 111.507 125.62 113.134 125.932L114.43 126.053Z" fill="white"/>
<path d="M75.3745 9.41217C75.3745 9.41217 73.4603 9.8474 74.6355 13.061C75.8097 16.2745 75.5989 18.1177 76.2815 19.0091C76.9651 19.9004 78.7791 21.5181 78.7791 21.5181C78.7791 21.5181 76.5831 22.1412 77.9879 25.5834C79.3927 29.0255 79.6161 32.3581 80.2601 33.8662C80.904 35.3744 82.4226 35.9296 83.0812 36.8189C83.7398 37.7081 80.7548 36.6028 81.3539 39.5555C81.9519 42.5081 83.7231 44.7427 83.5603 47.4188C83.3975 50.0948 84.5184 53.7175 86.9972 55.1891C89.477 56.6608 88.8915 58.4695 88.8874 59.9182C88.8832 61.3668 88.9197 61.991 89.714 65.7901C90.5072 69.5891 95.9324 75.6813 99.4653 75.5946C102.998 75.508 106.616 71.4971 105.916 68.9494C105.218 66.4017 102.109 60.7312 100.705 59.1531C99.3015 57.574 98.0386 57.4571 98.4007 55.8352C98.7619 54.2133 100.465 56.8549 100.506 54.5817C100.546 52.3085 100.445 50.0228 99.1428 47.8321C97.8403 45.6413 97.5198 43.5424 96.3175 40.7401C95.1162 37.9377 92.4767 37.2791 92.7157 36.6801C92.9557 36.081 94.4148 36.4243 93.3534 33.6345C92.2919 30.8457 92.1333 32.6931 91.0718 28.4556C90.0104 24.2182 89.5678 21.6935 88.2914 21.9888C87.0149 22.2842 87.3124 20.4494 87.0306 17.5259C86.7477 14.6025 87.7455 15.7297 86.1466 12.4765C84.5508 9.22431 75.3745 9.41217 75.3745 9.41217Z" fill="white"/>
<path d="M69.7899 114.524L71.7166 110.562L69.4246 102.267C69.4246 102.267 74.1787 99.7297 80.0464 109.362C85.9225 118.994 85.2441 123.359 85.2441 123.359L77.6876 122.661C77.6876 122.661 75.6461 126.699 76.9549 130.959C78.2627 135.221 80.5286 134.839 82.1912 142.287C83.8528 149.736 83.8789 152.696 83.8789 152.696L104.281 211.203L93.7649 210.235L71.6884 148.218C71.6884 148.218 68.8871 146.185 64.7123 136.729C60.5406 127.273 56.6757 115.086 59.9112 112.033C63.1415 108.98 69.7899 114.524 69.7899 114.524Z" fill="white"/>
<path d="M153.822 122.291L149.5 117.753L147.119 109.453C147.119 109.453 140.64 105.877 140.024 114.905C139.399 123.933 142.637 128.66 142.637 128.66L150.199 129.359C150.199 129.359 154.685 133.998 155.768 138.238C156.852 142.476 154.243 141.645 156.794 149.173C159.346 156.7 161.029 159.812 161.029 159.812L173.303 217.549L183.828 218.518L171.294 157.409C171.294 157.409 173.073 155.799 172.011 146.636C170.945 137.472 167.974 125.374 162.797 121.545C157.625 117.717 153.822 122.291 153.822 122.291Z" fill="white"/>
<path d="M177.741 0C177.741 0 176.657 0.0532407 174.532 0.181617C172.397 0.314167 169.241 0.510373 165.121 0.767125C156.853 1.29107 144.726 2.06028 129.253 3.04136C98.2577 5.03067 53.8688 7.87791 0.261948 11.318L1.52588e-05 11.3347L0.054245 11.5914C6.02946 39.8706 13.0547 70.8395 20.609 103.83C28.1811 136.816 36.3304 171.814 44.8815 208.079L44.9274 208.273L45.1267 208.287C49.5124 208.604 54.2425 208.945 58.9913 209.287C118.826 213.59 175.528 217.668 225.636 221.272L226 221.298L225.886 220.946C223.316 212.99 221.186 205.061 219.226 197.271C218.266 193.371 217.316 189.513 216.378 185.699C215.487 181.874 214.607 178.092 213.736 174.356C211.988 166.887 210.411 159.57 208.808 152.465C207.272 145.344 205.777 138.419 204.327 131.701C198.614 104.813 193.825 81.2014 189.918 61.6831C182.224 22.7069 177.951 1.06354 177.741 0C177.741 0 177.8 0.365304 177.924 1.06041C178.053 1.76178 178.243 2.79714 178.494 4.15814C179.011 6.901 179.777 10.9537 180.774 16.2265C182.79 26.7784 185.768 42.2127 189.63 61.7394C193.496 81.2661 198.248 104.886 203.929 131.785C205.371 138.505 206.857 145.432 208.386 152.555C209.982 159.664 211.552 166.984 213.294 174.457C214.161 178.194 215.038 181.978 215.926 185.805C216.862 189.622 217.809 193.481 218.767 197.385C220.723 205.181 222.848 213.119 225.423 221.104L225.673 220.778C175.568 217.159 118.867 213.063 59.0331 208.741C54.2842 208.399 49.5541 208.059 45.1685 207.742L45.4127 207.951C36.8606 171.689 28.7019 136.694 21.1152 103.712C13.5463 70.7268 6.5002 39.7631 0.500961 11.4964L0.293259 11.7699C53.8385 8.23903 98.1773 5.3156 129.137 3.27307C144.626 2.2398 156.767 1.42988 165.043 0.877761C169.18 0.597004 172.348 0.381994 174.491 0.235875C176.629 0.0908003 177.741 0 177.741 0Z" fill="#594C8B"/>
</svg>
