<svg width="257" height="291" viewBox="0 0 257 291" fill="none" xmlns="http://www.w3.org/2000/svg">
<path d="M105.893 16.3627C127.221 14.1211 149.125 14.8659 169.697 20.5194C190.27 26.1724 209.476 36.9448 222.775 52.483C237.405 69.5761 244.17 91.3825 246.92 113.01C249.065 129.877 248.802 147.672 240.697 162.922C231.937 179.404 214.758 191.125 196.11 197.545C177.462 203.965 157.303 205.61 137.407 206.179C113.506 206.864 88.6663 205.886 67.2916 196C43.166 184.842 25.8812 162.811 19.504 138.628C13.1268 114.446 16.0556 92.0626 27.1662 69.3823C33.6303 56.1874 46.1852 44.8403 58.3017 35.6305C70.4183 26.4212 90.7763 17.9314 105.893 16.3627Z" fill="#E2E2F2"/>
<path d="M89.3151 180.765L89.7345 179.488L90.211 180.765C90.211 180.765 91.1624 180.927 91.1737 181.015C91.1845 181.102 90.2629 181.374 90.2629 181.374C90.2629 181.374 89.8759 182.612 89.7345 182.331C89.5932 182.051 89.4559 181.43 89.4559 181.43C89.4559 181.43 88.2578 181.181 88.2578 181.059C88.2578 180.927 89.3151 180.765 89.3151 180.765Z" fill="white"/>
<path d="M203.143 45.8585C203.537 40.9251 201.628 36.04 198.075 31.6407C193.735 26.2648 186.768 22.7948 179.887 23.4203C173.006 24.0464 166.724 28.5027 163.346 34.5299C160.015 40.4743 159.73 49.0653 163.696 55.2606C163.696 55.2606 158.791 62.4093 160.312 63.5673C160.911 64.3399 166.63 61.6085 168.592 60.1374L168.55 60.0834C173.754 64.5002 181.347 67.5128 190.258 64.0063C196.914 61.3874 202.425 54.8488 203.143 45.8585Z" fill="#938CCB"/>
<path d="M74.5547 158.642C74.5547 158.642 74.8898 155.887 76.1327 154.683C77.3755 153.48 83.5348 154.385 83.5348 154.385L74.5547 158.642Z" fill="#FFBFBF"/>
<path d="M179.777 86.1952C179.777 86.1952 179.882 83.5245 181.464 80.7391C182.449 79.0064 183.707 78.5017 183.65 76.8065C183.591 75.0342 183.838 72.9962 185.694 73.1016C186.827 73.1658 187.764 73.9276 187.775 75.4716C187.786 77.0162 187.44 77.2593 186.796 79.0064C186.796 79.0064 188.789 77.6438 190.843 76.4657C192.674 75.4151 195.34 73.3858 196.343 75.1144C196.343 75.1144 197.191 76.2519 195.844 77.1149C194.497 77.9779 192.181 79.1421 191.694 79.7563C191.207 80.3706 191.056 80.1968 191.341 80.6152C191.626 81.0336 193.651 79.635 194.285 79.4495C194.809 79.2963 196.243 77.925 198.575 78.277C199.407 78.4025 199.879 79.2752 199.577 80.0611C199.409 80.4985 199.058 80.9879 198.344 81.3724C198.344 81.3724 200.167 81.0064 200.34 82.4045C200.513 83.8025 197.663 85.6093 196.989 85.8899C196.316 86.1711 195.588 86.4311 195.405 87.0921C195.223 87.7531 195.538 87.6375 196.023 87.6247C196.508 87.6118 199.187 87.4658 199.942 88.2517C201.081 89.4386 199.746 90.5981 197.96 90.5493C196.969 90.5221 197.008 90.557 194.935 91.6123C192.862 92.6675 190.195 93.3815 189.291 93.622C187.325 94.1453 187.807 93.6266 186.849 94.4377C185.892 95.2488 180.77 101.421 180.77 101.421C180.77 101.421 170.732 96.7487 172.573 94.1936C173.487 92.9235 179.777 86.1952 179.777 86.1952Z" fill="#FFBFBF"/>
<path d="M189.321 79.596C191.528 81.7569 193.232 84.3937 194.276 87.3019C194.486 87.8853 195.424 87.634 195.212 87.0439C194.111 83.9769 192.337 81.1905 190.008 78.9098C189.561 78.4724 188.874 79.1581 189.321 79.596Z" fill="#421B36"/>
<path d="M193.616 83.8942C195.108 82.9618 196.678 82.1528 198.311 81.4959C198.554 81.3982 198.725 81.1721 198.65 80.8991C198.586 80.6684 198.297 80.4617 198.053 80.5604C196.341 81.2497 194.692 82.0783 193.126 83.0569C192.598 83.3864 193.085 84.2263 193.616 83.8942Z" fill="#421B36"/>
<path d="M186.077 79.6145C187.045 81.9259 187.94 85.4365 185.411 87.1441C184.896 87.492 185.381 88.3329 185.901 87.9819C187.126 87.1538 187.812 85.8041 187.995 84.3566C188.212 82.6337 187.67 80.9262 187.012 79.3559C186.911 79.1123 186.692 78.9442 186.416 79.0172C186.187 79.0779 185.976 79.3729 186.077 79.6145Z" fill="#421B36"/>
<path d="M161.995 131.167C161.995 131.167 160.537 115.184 157.473 111.172C154.41 107.161 119.386 110.251 115.91 112.165C112.435 114.079 106.547 135.509 106.547 135.509L156.413 140.273L161.995 131.167Z" fill="#594C8B"/>
<path d="M128.625 110.062C128.625 110.062 131.316 116.749 139.459 116.099C147.602 115.448 146.951 109.67 146.43 109.279C145.908 108.888 128.625 110.062 128.625 110.062Z" fill="#FFBFBF"/>
<path d="M151.07 108.774C151.07 108.774 175.259 84.246 178.12 86.1832C180.982 88.1205 187.543 92.8395 187.902 95.9955C188.262 99.1514 162.27 123.244 159.594 123.768C156.918 124.293 151.07 108.774 151.07 108.774Z" fill="#594C8B"/>
<path d="M93.2575 74.3128C95.6923 72.8083 98.2973 71.621 100.733 70.1294C102.488 69.0541 104.3 67.7115 105 65.7105C105.209 65.1143 104.367 64.6547 103.951 65.0999C102.211 66.959 100.658 68.5159 98.4227 69.8132C96.4222 70.9739 94.3621 71.9782 92.8016 73.7217C92.5261 74.028 92.8772 74.5477 93.2575 74.3128Z" fill="#421B36"/>
<path d="M105.578 203.953C105.578 203.953 105.598 196.81 107.412 196.403C109.225 195.996 121.581 199.129 121.205 201.367C120.83 203.605 115.208 212.313 115.208 212.313L107.524 211.151L105.578 203.953Z" fill="#594C8B"/>
<path d="M117.519 209.483C118.82 211.067 114.786 221.799 114.786 221.799C113.251 223.279 87.2283 215.885 86.9682 215.224C86.2573 213.415 86.9219 210.982 91.5932 209.495C96.2644 208.007 103.18 203.779 104.522 203.773C105.864 203.768 109.275 206.14 109.244 209.465C109.244 209.465 111.34 210.031 112.013 209.272C112.687 208.513 115.209 207.154 117.519 209.483Z" fill="#421B36"/>
<path d="M115.782 219.663C106.083 218.125 96.5274 215.878 87.1557 212.944C86.6278 212.779 86.4021 213.606 86.928 213.77C96.2997 216.705 105.855 218.951 115.555 220.49C116.094 220.575 116.327 219.749 115.782 219.663Z" fill="#938CCB"/>
<path d="M101.179 217.224C101.275 213.055 98.6438 209.305 94.7173 207.936C94.1951 207.754 93.971 208.582 94.4896 208.763C98.0604 210.008 100.408 213.451 100.321 217.224C100.309 217.776 101.166 217.776 101.179 217.224Z" fill="#938CCB"/>
<path d="M102.587 210.433C101.401 208.541 99.5167 207.138 97.3595 206.556C96.8264 206.412 96.5987 207.239 97.1318 207.382C99.0747 207.907 100.778 209.159 101.847 210.865C102.139 211.332 102.881 210.902 102.587 210.433Z" fill="#938CCB"/>
<path d="M105.107 208.686C104.175 206.845 102.425 205.457 100.424 204.956C99.8888 204.822 99.6601 205.649 100.196 205.783C101.998 206.234 103.528 207.464 104.367 209.119C104.617 209.611 105.356 209.178 105.107 208.686Z" fill="#938CCB"/>
<path d="M116.924 209.583C113.422 211.587 110.741 215.165 110.586 219.289C110.566 219.84 111.423 219.84 111.444 219.289C111.587 215.468 114.123 212.174 117.357 210.324C117.836 210.05 117.404 209.309 116.924 209.583Z" fill="#938CCB"/>
<path d="M108.856 214.662C107.784 214.363 106.706 214.101 105.631 213.816C104.656 213.559 103.679 213.178 102.665 213.149C102.14 213.133 101.928 213.896 102.395 214.147C104.191 215.114 106.735 215.277 108.747 215.462C109.213 215.505 109.287 214.783 108.856 214.662Z" fill="#938CCB"/>
<path d="M145.092 187.44C145.092 187.44 144.511 210.841 144.179 211.212C143.847 211.582 149.21 213.757 149.21 213.757L156.818 208.331L163.335 187.242L145.092 187.44Z" fill="#FFBFBF"/>
<path d="M144.335 209.775C144.335 209.775 143.484 203.494 143.963 201.566C144.442 199.637 159.42 197.475 159.579 199.783C159.738 202.091 157.255 208.532 157.255 208.532L151.239 213.92L144.335 209.775Z" fill="#594C8B"/>
<path d="M143.556 209.834C143.556 209.834 141.647 221.439 143.439 222.657C145.232 223.876 172.088 223.115 172.497 222.52C173.616 220.891 173.515 218.33 169.23 215.786C164.945 213.242 159.065 207.469 157.736 207.156C156.408 206.844 152.486 208.411 151.755 211.711C151.755 211.711 149.55 211.791 149.057 210.885C148.564 209.979 146.377 208.056 143.556 209.834Z" fill="#421B36"/>
<path d="M142.905 221.186C152.903 221.888 162.921 221.852 172.913 221.091C173.472 221.048 173.345 220.185 172.786 220.228C162.87 220.984 152.932 221.018 143.012 220.321C142.454 220.282 142.344 221.147 142.905 221.186Z" fill="#938CCB"/>
<path d="M158.821 221.396C159.597 217.631 162.765 214.805 166.573 214.393C167.13 214.333 167.004 213.47 166.446 213.53C162.233 213.986 158.808 217.153 157.955 221.289C157.842 221.838 158.708 221.942 158.821 221.396Z" fill="#938CCB"/>
<path d="M158.708 214.839C160.194 213.361 162.176 212.499 164.27 212.421C164.505 212.413 164.669 212.141 164.638 211.927C164.601 211.673 164.38 211.551 164.144 211.559C161.923 211.64 159.747 212.584 158.172 214.152C158.006 214.318 157.94 214.562 158.097 214.764C158.227 214.932 158.54 215.006 158.708 214.839Z" fill="#938CCB"/>
<path d="M156.692 212.45C157.904 211.001 159.722 210.167 161.603 210.132C161.839 210.128 162.002 209.849 161.971 209.638C161.934 209.38 161.713 209.266 161.477 209.27C159.373 209.309 157.346 210.312 156 211.921C155.638 212.352 156.333 212.879 156.692 212.45Z" fill="#938CCB"/>
<path d="M143.558 210.734C146.344 213.316 148.047 217.169 147.317 220.983C147.212 221.534 148.077 221.639 148.182 221.09C148.973 216.963 147.09 212.824 144.087 210.041C143.674 209.659 143.15 210.355 143.558 210.734Z" fill="#938CCB"/>
<path d="M150.915 217.774C152.892 218.044 155.424 218.436 157.382 217.939C157.968 217.791 157.999 216.975 157.37 216.86C156.365 216.675 155.308 216.826 154.29 216.857C153.162 216.891 152.034 216.903 150.906 216.953C150.428 216.974 150.466 217.712 150.915 217.774Z" fill="#938CCB"/>
<path d="M144.317 204.269C149.191 203.336 153.738 202.625 158.731 202.632C159.739 202.633 159.952 201.063 158.925 201.053C153.975 201.006 148.593 201.17 144.067 203.386C143.615 203.607 143.778 204.372 144.317 204.269Z" fill="white"/>
<path d="M117.904 111.537C118.284 110.907 121.451 109.86 124.289 110.099C124.289 110.099 132.978 111.296 135.333 131.974L147.493 130.519C147.493 130.519 149.848 114.933 144.678 109.039C146.076 108.193 148.296 108.123 150.911 108.424C153.698 109.834 157.494 129.173 156.689 129.454C156.155 129.641 161.683 130.367 161.683 130.367C162.51 131.038 168.954 158.903 166.887 182.508C166.887 182.508 164.786 202.017 161.136 203.344C157.486 204.671 140.841 204.888 140.725 203.764C140.608 202.64 133.796 184.439 133.796 184.439L125.449 203.858C121.108 205.825 102.559 199.009 100.298 197.56C96.585 195.181 100.335 186.945 102.773 159.417L105.154 145.911L119.725 133.316L126.874 131.623C126.874 131.625 127.841 117.77 117.904 111.537Z" fill="#938CCB"/>
<path d="M91.1238 143.121C90.2942 143.708 84.4372 153.795 84.4372 153.795C84.4372 153.795 80.2486 155.671 76.8171 156.976C75.8883 157.33 73.9464 158.007 73.0433 158.384C70.9154 159.272 68.9976 160.015 69.5718 161.371C70.4872 163.535 73.3656 162.077 73.3656 162.077C73.3656 162.077 70.974 163.619 72.0713 165.359C72.9061 166.682 75.3059 166.054 75.3059 166.054C75.3059 166.054 73.5738 167.652 75.932 168.349C78.2902 169.045 85.6307 165.351 85.6307 165.351C85.6307 165.351 79.9119 170.636 82.9054 171.879C85.899 173.122 91.8125 163.789 93.792 161.359C95.7714 158.93 98.7279 153.6 98.7279 153.6L91.1238 143.121Z" fill="#FFBFBF"/>
<path d="M75.2064 166.096C77.5996 164.723 80.168 163.704 82.8496 163.057C83.3944 162.926 83.1636 162.085 82.6177 162.217C79.8673 162.881 77.2207 163.936 74.7664 165.343C74.2802 165.622 74.7186 166.375 75.2064 166.096Z" fill="#421B36"/>
<path d="M72.8693 162.979C75.7482 161.571 78.9155 160.849 82.1193 160.852C82.68 160.853 82.6806 159.982 82.1193 159.98C78.7577 159.976 75.4481 160.75 72.4293 162.226C71.9256 162.473 72.3671 163.225 72.8693 162.979Z" fill="#421B36"/>
<path d="M71.5438 159.448C74.5173 158.18 77.7442 157.601 80.9716 157.718C81.5324 157.739 81.5319 156.867 80.9716 156.847C77.5808 156.723 74.2223 157.365 71.1039 158.696C70.5893 158.915 71.0329 159.666 71.5438 159.448Z" fill="#421B36"/>
<path d="M84.4233 166.523C86.6463 165.663 88.7851 164.603 90.8092 163.344C91.2842 163.049 90.8473 162.294 90.3692 162.592C88.4104 163.811 86.3436 164.85 84.1915 165.683C83.6739 165.883 83.899 166.726 84.4233 166.523Z" fill="#421B36"/>
<path d="M76.9207 165.472C76.8364 165.464 76.9654 165.486 76.9721 165.487C77.0533 165.504 76.9454 165.462 77.024 165.505C77.0549 165.522 77.0847 165.54 77.115 165.558C77.1397 165.575 77.1387 165.572 77.1124 165.551C77.1232 165.561 77.134 165.569 77.1448 165.579C77.1767 165.608 77.206 165.638 77.2358 165.669C77.3134 165.748 77.2152 165.622 77.2733 165.716C77.2923 165.747 77.3119 165.778 77.3294 165.809C77.3401 165.829 77.3736 165.898 77.3499 165.843C77.3833 165.923 77.4075 166.009 77.4188 166.094C77.4106 166.031 77.4162 166.102 77.4167 166.129C77.4178 166.169 77.4157 166.208 77.4136 166.247C77.4085 166.334 77.4219 166.243 77.4018 166.32C77.39 166.367 77.3792 166.413 77.3643 166.459C77.3366 166.546 77.333 166.551 77.2836 166.641C77.1222 166.933 76.8894 167.138 76.5913 167.307C76.2597 167.496 75.9066 167.607 75.5304 167.716C75.3042 167.781 75.1628 168.023 75.2261 168.252C75.2883 168.477 75.535 168.622 75.7622 168.556C76.7521 168.269 77.7575 167.823 78.1641 166.802C78.5439 165.847 77.9739 164.711 76.9202 164.599C76.6858 164.574 76.4843 164.817 76.4843 165.035C76.4849 165.293 76.6858 165.447 76.9207 165.472Z" fill="#421B36"/>
<path d="M74.3232 162.173C74.609 162.777 74.5416 163.518 74.1618 164.083C73.8061 164.612 73.1513 164.917 72.5262 164.911C71.9655 164.905 71.965 165.776 72.5262 165.782C73.4751 165.792 74.3859 165.31 74.9143 164.523C75.4679 163.698 75.4936 162.616 75.0757 161.732C74.9749 161.519 74.6701 161.464 74.4794 161.576C74.262 161.704 74.2224 161.959 74.3232 162.173Z" fill="#421B36"/>
<path d="M71.5676 159.301C71.5877 159.338 71.6072 159.375 71.6257 159.412C71.6817 159.528 71.6051 159.341 71.6457 159.463C71.6704 159.536 71.693 159.609 71.7095 159.684C71.7172 159.718 71.7234 159.753 71.7295 159.787C71.7146 159.701 71.7326 159.819 71.7341 159.838C71.7403 159.922 71.7413 160.005 71.7367 160.09C71.7347 160.125 71.7321 160.16 71.728 160.194C71.7244 160.226 71.7249 160.222 71.7295 160.182C71.7259 160.203 71.7223 160.223 71.7182 160.244C71.7033 160.319 71.6838 160.394 71.6596 160.467C71.6468 160.507 71.6324 160.547 71.6164 160.585C71.6457 160.516 71.5969 160.619 71.5902 160.633C71.5548 160.701 71.5136 160.765 71.471 160.829C71.4448 160.868 71.5039 160.794 71.453 160.853C71.4268 160.883 71.4006 160.913 71.3723 160.942C71.3214 160.996 71.2669 161.046 71.2099 161.093C71.1862 161.112 71.1888 161.11 71.2186 161.086C71.2022 161.098 71.1857 161.11 71.1693 161.121C71.1415 161.14 71.1132 161.158 71.0844 161.175C71.0156 161.217 70.9441 161.254 70.8706 161.288C70.9395 161.257 70.8444 161.297 70.8249 161.304C70.793 161.315 70.7611 161.325 70.7288 161.335C70.6578 161.356 70.5859 161.371 70.5129 161.385C70.3875 161.408 70.5962 161.382 70.4692 161.389C70.4291 161.392 70.389 161.394 70.3489 161.395C70.3088 161.395 70.2682 161.395 70.2281 161.392C70.2081 161.391 70.0909 161.379 70.1834 161.392C69.9583 161.361 69.7044 161.446 69.6473 161.696C69.6005 161.901 69.71 162.199 69.9516 162.232C70.8233 162.351 71.675 162.018 72.1998 161.301C72.7128 160.6 72.7323 159.611 72.3206 158.86C72.2106 158.66 71.9187 158.579 71.7244 158.704C71.5213 158.835 71.4504 159.086 71.5676 159.301Z" fill="#421B36"/>
<path d="M134.163 184.948C145.18 181.241 154.972 174.136 160.518 163.755C160.812 163.204 159.975 162.714 159.68 163.265C154.253 173.424 144.69 180.384 133.905 184.013C133.316 184.211 133.569 185.148 134.163 184.948Z" fill="#421B36"/>
<path d="M110.218 63.837C110.875 60.9129 109.77 58.0663 107.986 56.0987C106.202 54.1311 103.805 52.8898 101.446 51.683C100.282 51.0872 98.9652 50.4823 97.6067 50.9541C96.3016 51.4075 95.3672 52.7182 94.6029 53.961C93.1935 56.2529 91.9573 58.6446 90.9134 61.101C94.0179 62.2256 97.1225 63.3508 100.227 64.4754C97.0053 64.5443 93.783 64.6131 90.5613 64.682C90.2637 66.5268 90.1902 68.3772 90.3434 70.1726C95.0891 70.0482 99.896 69.3908 104.657 68.2158" fill="#421B36"/>
<path d="M109.159 71.6535C107.728 71.6396 106.298 71.4396 104.919 71.0593C104.479 70.938 104.017 70.7812 103.73 70.426C103.231 69.8097 103.462 68.9 103.749 68.1603C104.679 65.7548 105.937 63.4767 107.479 61.4089C107.882 60.8682 108.337 60.3172 108.971 60.0864C109.965 59.7256 111.047 60.2565 111.926 60.843C113.802 62.0951 115.457 63.6787 116.789 65.4983" fill="#938CCB"/>
<path d="M121.668 58.6979C115.807 61.2998 114.704 60.7899 110.336 65.2848C105.969 69.7798 103.074 75.8126 103.677 81.867C104.357 88.6955 107.521 95.876 112.515 100.846C116.019 104.333 122.487 106.046 127.839 105.056C132.797 104.139 135.504 105.363 139.734 102.783C142.869 100.87 146.148 99.1461 149.089 96.977C152.029 94.8085 154.661 92.1269 156.018 88.8574C157.732 84.7274 157.247 80.0407 155.787 75.8259C153.543 69.349 153.149 60.4419 146.848 57.0562C140.547 53.6705 128.335 55.9963 121.668 58.6979Z" fill="#421B36"/>
<path d="M109.13 75.6791C112.731 59.0404 133.277 52.1472 146.217 63.209C150.309 66.7072 152.823 69.3687 155.849 77.3825C162.702 95.5262 141.511 104.052 141.511 104.052L144.566 109.634L132.512 114.173L126.071 106.332C126.071 106.332 112.343 93.9847 109.251 83.0458C108.564 80.6135 108.602 78.1155 109.13 75.6791Z" fill="#FFBFBF"/>
<path d="M119.875 73.0089C120.567 71.9681 121.824 71.0763 122.899 70.4667C124.018 69.8319 125.208 69.7707 126.366 69.3225C126.905 69.1144 127.08 68.1686 126.366 68.0452C124.959 67.8026 123.362 68.4991 122.18 69.2377C120.762 70.1244 120.053 71.2279 119.244 72.6409C119.009 73.0521 119.617 73.398 119.875 73.0089Z" fill="#421B36"/>
<path d="M128.886 106.416C133.953 107.806 139.302 106.934 143.889 104.417C144.76 103.939 143.995 102.721 143.125 103.111C138.533 105.169 133.923 106.051 128.905 106.278C128.827 106.282 128.807 106.395 128.886 106.416Z" fill="#421B36"/>
<path d="M108.53 91.436C106.826 91.3744 105.211 92.4836 104.386 93.9762C103.561 95.4689 103.445 97.2751 103.757 98.9512C104.276 101.738 106.061 104.363 108.669 105.473C111.277 106.584 114.971 103.916 116.633 101.62L108.53 91.436Z" fill="#FFBFBF"/>
<path d="M108.4 100.022C108.654 99.5822 109.547 99.0097 109.983 98.7999C110.787 98.4134 111.485 98.6 112.28 98.8791C113.164 99.1896 113.583 97.9184 112.885 97.4425C111.889 96.7635 110.464 96.8077 109.43 97.3756C108.982 97.6219 108.566 98.0017 108.315 98.4499C107.998 99.0153 108.147 99.3571 108.126 99.9487C108.121 100.096 108.329 100.146 108.4 100.022Z" fill="#421B36"/>
<path d="M143.507 83.6445L142.079 84.0681C140.142 85.0071 137.871 84.7368 135.726 84.5692C133.58 84.4017 131.219 84.4243 129.55 85.7833C127.377 87.553 127.342 91.1371 129.038 93.3679C130.734 95.5986 133.702 96.5732 136.503 96.4971C139.685 96.4107 142.951 94.9782 144.643 92.2828C146.335 89.5879 146.01 85.6085 143.507 83.6445Z" fill="#421B36"/>
<path d="M132.778 86.5741C136.119 88.2024 139.742 88.3597 143.08 86.6111C144.287 85.9784 143.226 84.2945 142.032 84.8183C139.231 86.0457 136.157 86.4338 133.189 85.5985C132.622 85.4387 132.223 86.3032 132.778 86.5741Z" fill="white"/>
<path d="M124.764 81.0176C125.473 80.9431 126.052 80.5653 126.735 80.3885C127.614 80.1602 128.412 80.2625 129.249 80.5776C130.168 80.923 130.821 79.3985 129.923 78.9801C128.304 78.2271 124.963 78.4054 124.38 80.5128C124.316 80.7411 124.501 81.0453 124.764 81.0176Z" fill="#421B36"/>
<path d="M141.796 76.4496C142.434 76.0137 142.785 75.1559 143.319 74.5889C143.627 74.261 143.975 73.9598 144.342 73.6992C144.723 73.4293 145.156 73.2592 145.477 72.9153C145.938 72.4224 145.654 71.3738 144.872 71.4535C143.763 71.5661 142.747 72.4969 142.068 73.3384C141.514 74.0256 140.718 75.236 141.072 76.1551C141.178 76.429 141.51 76.6454 141.796 76.4496Z" fill="#421B36"/>
<g opacity="0.3">
<path d="M127.927 85.5424C127.979 86.7348 126.426 87.7695 124.459 87.8538C122.493 87.9386 120.857 87.0402 120.806 85.8482C120.755 84.6557 122.307 83.621 124.273 83.5367C126.24 83.4524 127.876 84.3504 127.927 85.5424Z" fill="#421B36"/>
</g>
<g opacity="0.3">
<path d="M151.575 76.6633C152.215 77.6702 151.388 79.3428 149.727 80.399C148.067 81.4553 146.201 81.4959 145.56 80.489C144.92 79.4821 145.747 77.8095 147.408 76.7532C149.069 75.6964 150.934 75.6564 151.575 76.6633Z" fill="#421B36"/>
</g>
<path d="M136.682 78.2325C138.053 77.7627 140.052 77.0899 141.188 78.4155C141.675 78.984 141.627 79.7848 141.335 80.435C140.992 81.1988 140.352 81.7847 139.755 82.3507C139.301 82.7814 139.988 83.4671 140.441 83.0369C141.178 82.3373 141.916 81.6048 142.294 80.6411C142.659 79.7113 142.606 78.6473 141.972 77.8485C141.41 77.1408 140.521 76.7722 139.639 76.6869C138.538 76.58 137.449 76.9454 136.423 77.2965C135.836 77.498 136.089 78.4355 136.682 78.2325Z" fill="#421B36"/>
<path d="M115.691 63.1568C118.923 61.2818 123.017 60.9703 126.496 62.3344C129.974 63.6986 132.765 66.7101 133.861 70.2824C140.006 67.147 145.994 63.7037 151.794 59.969C150.106 55.4006 146.048 51.8761 141.392 50.4487C136.736 49.0213 131.576 49.5985 127.154 51.6412C122.733 53.6838 119.033 57.1204 116.295 61.1481" fill="#421B36"/>
<path d="M117.279 61.9663C118.496 67.2368 119.186 72.7017 118.332 78.038C117.478 83.3744 114.953 88.6023 110.618 92.0235C107.301 88.425 104.976 83.7378 105.267 78.9329C105.475 75.4891 107.004 72.2165 109.059 69.3921C111.115 66.5676 113.688 64.1364 116.246 61.7227" fill="#421B36"/>
<path d="M115.914 112.165C112.308 112.017 80.3703 141.696 85.9894 150.355C87.683 152.965 97.5281 163.687 99.6494 161.86C101.771 160.033 118.871 136.17 120.728 131.928C122.583 127.686 118.658 110.828 115.914 112.165Z" fill="#594C8B"/>
<path d="M115.255 61.6132C119.736 57.0124 123.848 52.1417 130.1 49.894C136.747 47.5044 143.339 48.919 148.642 53.4381C149.243 53.9505 150.016 53.1759 149.506 52.5735C139.525 40.7772 120.702 50.0642 115.075 61.4744C115.02 61.5865 115.16 61.7114 115.255 61.6132Z" fill="#421B36"/>
<path d="M125.931 131.754C126.247 134.045 126.815 136.803 129.231 137.766C131.292 138.587 133.642 137.408 134.666 135.554C135.298 134.408 135.51 133.065 135.386 131.772C135.327 131.155 134.356 131.149 134.416 131.772C134.639 134.094 133.497 136.888 130.839 137.047C129.643 137.118 128.641 136.484 128.005 135.495C127.242 134.307 127.056 132.866 126.867 131.496C126.782 130.88 125.847 131.142 125.931 131.754Z" fill="#421B36"/>
<path d="M146.876 130.707C146.973 132.241 147.748 133.661 149.052 134.499C150.312 135.308 151.934 135.468 153.326 134.923C156.424 133.709 157.484 130.247 157.192 127.183C157.133 126.567 156.162 126.561 156.221 127.183C156.464 129.727 155.803 132.63 153.326 133.867C150.913 135.073 148.017 133.392 147.847 130.706C147.808 130.087 146.837 130.082 146.876 130.707Z" fill="#421B36"/>
<path d="M152.577 127.715C151.828 127.771 150.807 128.293 150.264 128.812C149.402 129.635 149.448 131.189 150.314 132.008C151.18 132.827 152.673 132.819 153.577 132.043C154.481 131.267 154.729 129.852 154.208 128.78C154.009 128.37 153.697 127.997 153.279 127.813C152.861 127.63 152.33 127.669 151.997 127.98" fill="#421B36"/>
<path d="M131.561 130.465C130.812 130.521 129.791 131.043 129.248 131.562C128.386 132.385 128.433 133.939 129.299 134.758C130.164 135.577 131.657 135.569 132.561 134.793C133.465 134.017 133.713 132.602 133.193 131.531C132.993 131.12 132.681 130.747 132.263 130.564C131.845 130.38 131.315 130.419 130.981 130.73" fill="#421B36"/>
<path d="M133.809 146.738C139.855 145.162 145.901 143.585 151.947 142.009C151.748 141.896 151.549 141.783 151.35 141.671C152.735 147.594 154.371 155.142 149.73 160.135C147.81 162.201 144.992 163.404 142.174 162.765C139.425 162.141 137.143 160.088 135.723 157.718C133.879 154.64 133.231 151.03 132.594 147.55C132.481 146.936 131.546 147.197 131.658 147.808C132.77 153.881 134.538 161.362 141.225 163.509C143.966 164.39 146.878 163.725 149.133 161.984C151.719 159.987 153.121 156.935 153.579 153.751C154.178 149.592 153.229 145.444 152.286 141.412C152.226 141.154 151.936 141.01 151.689 141.074C145.644 142.65 139.598 144.226 133.552 145.802C132.947 145.959 133.203 146.895 133.809 146.738Z" fill="#421B36"/>
<path d="M105.343 199.541C105.18 183.406 106.615 167.279 109.636 151.428C109.752 150.818 108.817 150.557 108.7 151.17C106.338 163.563 104.921 176.132 104.496 188.741C104.375 192.34 104.336 195.94 104.372 199.541C104.378 200.165 105.349 200.167 105.343 199.541Z" fill="#421B36"/>
<path d="M139.452 182.623C141.446 189.898 143.757 197.085 146.38 204.169C146.59 204.735 147.528 204.491 147.316 203.918C144.693 196.835 142.382 189.647 140.388 182.373C140.228 181.788 139.291 182.036 139.452 182.623Z" fill="#421B36"/>
<path d="M115.753 112.482C113.686 111.839 111.454 111.736 109.336 112.184C108.69 112.321 107.994 112.552 107.651 113.118C107.03 114.143 108.033 115.467 109.164 115.864C110.295 116.262 111.561 116.155 112.679 116.59C112.903 116.678 113.135 116.8 113.241 117.016C113.558 117.665 112.593 118.123 112.052 118.602C111.307 119.264 111.329 120.525 111.936 121.314C112.543 122.104 113.582 122.462 114.578 122.476C115.574 122.49 116.547 122.208 117.502 121.927C115.917 123.126 115.636 125.708 116.927 127.219C118.218 128.73 120.812 128.856 122.244 127.477" fill="#594C8B"/>
<path d="M115.884 112.015C113.676 111.356 111.241 111.198 108.992 111.767C108.212 111.964 107.396 112.358 107.097 113.163C106.829 113.882 107.067 114.651 107.522 115.237C108.061 115.93 108.809 116.318 109.655 116.503C110.174 116.616 112.942 116.764 112.701 117.448C112.586 117.777 111.966 118.018 111.71 118.26C111.436 118.52 111.234 118.844 111.119 119.203C110.879 119.958 111.022 120.824 111.461 121.478C112.846 123.543 115.642 122.978 117.633 122.396C117.475 122.126 117.318 121.856 117.16 121.585C115.406 123.001 115.092 125.841 116.585 127.564C118.097 129.307 120.922 129.329 122.588 127.822C123.052 127.402 122.365 126.718 121.902 127.136C120.626 128.289 118.397 128.235 117.271 126.877C116.129 125.499 116.505 123.354 117.847 122.272C118.235 121.959 117.814 121.332 117.374 121.461C116.224 121.797 114.992 122.18 113.79 121.896C112.743 121.649 111.691 120.742 112.024 119.554C112.264 118.7 113.326 118.505 113.685 117.717C114.01 117.003 113.503 116.414 112.867 116.148C111.851 115.724 110.715 115.787 109.663 115.508C108.833 115.289 107.352 114.235 108.172 113.248C108.875 112.401 110.724 112.42 111.718 112.4C113.048 112.374 114.351 112.571 115.625 112.951C116.225 113.13 116.482 112.194 115.884 112.015Z" fill="#421B36"/>
<path d="M116.559 114.928C119.843 119.478 121.966 124.792 122.666 130.363C122.743 130.975 123.715 130.983 123.637 130.363C122.915 124.619 120.788 119.136 117.397 114.438C117.035 113.936 116.193 114.42 116.559 114.928Z" fill="#421B36"/>
<path d="M152.062 107.491C152.108 106.365 152.326 105.208 152.972 104.286C153.618 103.364 154.767 102.73 155.871 102.95C157.086 103.191 157.926 104.386 158.147 105.604C158.367 106.823 158.096 108.07 157.827 109.279C159.611 108.134 162.311 108.692 163.386 110.519C164.462 112.346 163.534 115.076 161.526 115.755C162.786 115.788 163.935 116.86 164.056 118.114C164.176 119.369 163.253 120.64 162.023 120.914" fill="#594C8B"/>
<path d="M152.546 107.49C152.639 105.757 153.615 102.743 155.977 103.478C158.313 104.205 157.741 107.411 157.356 109.15C157.267 109.551 157.69 109.924 158.068 109.698C159.652 108.752 161.981 109.106 162.965 110.763C163.898 112.334 163.095 114.64 161.394 115.286C160.881 115.481 160.963 116.194 161.523 116.239C163.971 116.437 164.219 119.793 161.891 120.444C161.291 120.612 161.546 121.549 162.149 121.38C163.603 120.974 164.684 119.592 164.529 118.049C164.374 116.493 163.023 115.39 161.523 115.269C161.566 115.586 161.609 115.904 161.652 116.222C163.871 115.379 164.995 112.615 163.907 110.465C162.761 108.199 159.664 107.614 157.579 108.859C157.816 109.042 158.054 109.225 158.292 109.407C158.812 107.059 159.162 103.158 155.998 102.481C153.046 101.849 151.7 105.161 151.575 107.489C151.541 108.114 152.512 108.112 152.546 107.49Z" fill="#421B36"/>
<path d="M152.531 109.382C156.395 113.195 159.202 117.962 160.659 123.192C160.826 123.793 161.763 123.538 161.595 122.934C160.095 117.549 157.197 112.622 153.218 108.696C152.772 108.257 152.086 108.943 152.531 109.382Z" fill="#421B36"/>
<path opacity="0.3" d="M152.206 193.53C152.202 193.538 152.197 193.541 152.193 193.549C152.191 193.549 152.19 193.55 152.187 193.55C152.186 193.546 152.184 193.544 152.183 193.541C152.19 193.536 152.2 193.536 152.206 193.53ZM151.987 193.458C151.941 193.545 152.105 193.59 152.183 193.541C152.155 193.437 152.084 193.436 151.987 193.458ZM156.552 173.839C156.556 173.649 156.561 173.463 156.566 173.28C156.513 173.236 156.456 173.196 156.389 173.163C156.06 173.275 155.756 173.413 155.744 173.839C156.013 173.839 156.282 173.839 156.552 173.839ZM153.863 173.453C153.36 173.148 152.941 173.231 152.906 173.839C153.235 173.839 153.564 173.839 153.893 173.839C153.882 173.704 153.873 173.569 153.863 173.453ZM154.547 172.09C154.467 172.18 154.375 172.282 154.274 172.397C154.421 172.64 154.611 172.812 154.823 172.982C156.215 172.517 155.204 171.729 154.725 171.733C154.656 171.808 154.587 171.883 154.515 171.959C154.52 171.998 154.528 172.039 154.547 172.09ZM155.873 170.689C155.945 170.941 156.004 171.149 156.066 171.367C156.288 171.356 156.466 171.289 156.622 171.192C156.63 170.89 156.638 170.605 156.646 170.336C156.535 170.299 156.387 170.269 156.145 170.221C156.054 170.376 155.956 170.545 155.873 170.689ZM156.762 167.634C156.75 167.572 156.732 167.843 156.71 168.387C156.731 168.37 156.752 168.355 156.77 168.337C156.806 168.091 156.807 167.855 156.762 167.634ZM156.536 174.478C156.541 174.261 156.547 174.048 156.552 173.839C156.282 173.839 156.013 173.839 155.744 173.839C155.664 174.298 156.139 174.48 156.536 174.478ZM152.906 173.839C152.865 173.839 152.824 173.839 152.784 173.839C153.043 174.043 153.186 174.389 153.534 174.474C153.843 174.352 153.939 174.134 153.893 173.839C153.564 173.839 153.235 173.839 152.906 173.839ZM150.731 194.027C150.274 193.897 149.764 193.859 149.478 193.408C149.673 192.769 149.591 192.226 148.812 192.391C146.9 194.513 149.98 193.215 149.828 194.57C149.833 194.839 149.894 195.051 150.242 195.219C150.428 195.036 150.668 195.052 150.916 195.07C151.502 194.961 150.987 194.254 150.731 194.027ZM146.793 194.064C146.644 194.538 146.887 194.88 147.098 195.27C147.572 195.43 147.93 195.316 148.225 194.962C148.387 194.034 147.538 193.569 146.793 194.064ZM151.623 195.4C151.494 195.612 151.36 195.836 151.191 196.114C152.5 197.972 153.343 194.989 151.623 195.4ZM152.685 197.315C152.868 197.713 152.987 198.149 153.512 198.259C153.721 198.133 154.004 198.093 154.132 197.835C154.034 197.073 153.24 196.492 152.685 197.315ZM148.805 187.823C149.39 188.207 149.906 187.16 149.664 186.638C148.653 186.496 147.843 186.913 148.805 187.823ZM154.023 188.57C153.818 188.024 153.284 187.764 152.729 188.007C152.307 188.91 153.892 189.736 154.023 188.57ZM143.183 189.435C142.824 189.611 142.415 189.693 142.336 190.186C142.449 190.347 142.548 190.569 142.697 190.718C143.171 190.964 143.487 190.536 143.749 190.208C143.853 189.863 143.382 189.667 143.183 189.435ZM147.211 183.34C147.779 183.47 148.277 182.961 148.06 182.381C147.755 182.279 147.574 181.89 147.175 182.076C147.036 182.32 146.898 182.56 146.761 182.797C146.924 182.993 147.065 183.164 147.211 183.34ZM155.918 203.2C155.835 203.329 155.759 203.47 155.685 203.599C155.768 203.649 155.839 203.712 155.906 203.778C155.91 203.626 155.913 203.432 155.918 203.2ZM152.681 182.805C152.947 183.581 153.755 183.427 154.134 182.787C153.877 181.762 152.952 182.023 152.681 182.805ZM134.226 184.829C134.173 184.82 134.131 184.803 134.109 184.774C134.109 184.774 134.116 184.792 134.127 184.826C134.161 184.828 134.196 184.83 134.226 184.829ZM146.599 189.725C146.024 189.225 145.277 189.554 145.436 190.339C145.573 190.384 145.717 190.432 145.86 190.479C145.835 190.617 145.816 190.713 145.791 190.851C146.617 190.895 146.626 190.3 146.599 189.725ZM152.361 186.763C151.662 186.516 151.662 186.516 151.34 186.966C151.432 187.17 151.438 187.385 151.397 187.593C151.648 187.713 151.864 187.814 152.1 187.925C152.279 187.746 152.459 187.566 152.629 187.395C152.537 187.178 152.458 186.992 152.361 186.763ZM145.095 203.843C145.134 202.964 144.177 202.351 143.906 203.409C143.944 204.076 144.671 204.519 145.095 203.843ZM156.131 177.445C156.265 177.437 156.373 177.399 156.467 177.344C156.476 176.976 156.484 176.616 156.493 176.261C155.859 176.144 155.176 176.826 156.131 177.445ZM154.481 187.754C155.457 188.133 155.959 186.75 154.87 186.488C154.228 186.665 154.249 187.222 154.481 187.754ZM155.83 182.92C156.073 182.983 156.073 183.318 156.329 183.458C156.339 182.987 156.35 182.519 156.36 182.053C156.052 181.995 155.754 182.249 155.83 182.92ZM143.591 183.974C143.469 183.865 143.333 183.746 143.164 183.598C142.93 183.693 142.748 183.767 142.551 183.847C142.559 184.235 142.593 184.565 142.684 184.924C143.557 185.039 143.703 184.885 143.591 183.974ZM152.225 177.829C151.527 177.588 151.439 177.785 151.325 178.463C151.472 178.684 151.662 178.888 151.943 179.064C152.165 178.906 152.345 178.777 152.544 178.636C152.529 178.319 152.649 177.894 152.225 177.829ZM148.76 190.638C149.897 190.72 149.781 189.643 148.795 189.426C148.175 189.591 148.199 190.508 148.76 190.638ZM154.269 178.345C154.361 178.773 154.584 178.987 154.986 178.997C155.2 178.788 155.411 178.58 155.629 178.366C155.255 177.625 154.55 177.472 154.269 178.345ZM155.963 200.94C155.969 200.641 155.975 200.325 155.982 199.992C155.85 200.065 155.732 200.183 155.655 200.358C155.661 200.643 155.786 200.837 155.963 200.94ZM155.954 189.161C156.026 189.254 156.112 189.291 156.203 189.296C156.212 188.89 156.221 188.482 156.229 188.072C155.7 188.269 155.634 188.743 155.954 189.161ZM152.193 193.549C152.191 193.549 152.19 193.55 152.187 193.55C152.186 193.546 152.184 193.544 152.183 193.541C152.105 193.59 151.941 193.545 151.987 193.458C152.084 193.436 152.155 193.437 152.183 193.541C152.19 193.536 152.201 193.536 152.206 193.53C152.202 193.538 152.197 193.541 152.193 193.549C152.42 193.546 152.442 193.287 152.534 193.136C152.418 192.923 152.314 192.731 152.194 192.509C150.635 192.144 151.54 194.667 152.193 193.549ZM152.925 199.984C152.525 200.932 153.41 201.635 154.023 200.67C154.044 200.156 153.166 199.519 152.925 199.984ZM138.408 186.328C138.736 186.241 139.064 186.114 139.328 185.798C138.948 185.489 139.142 185.065 138.564 185C138.068 185.387 137.661 185.795 138.408 186.328ZM147.316 179.103C146.774 179.574 146.755 179.66 147.081 180.266C147.376 180.266 147.638 180.266 147.926 180.266C148.328 179.772 147.885 179.139 147.316 179.103ZM148.114 203.738C148.033 203.366 148.044 202.979 147.657 202.779C147.337 202.82 146.633 203.276 146.99 203.6C147.092 203.667 147.095 203.757 147.078 203.866C147.15 204.375 147.89 203.94 148.114 203.738ZM139.023 195.21C139.099 195.011 139.164 194.843 139.239 194.649C138.605 192.74 137 195.128 139.023 195.21ZM147.382 189.269C148.56 189.274 147.999 187.614 147.131 188.144C146.739 188.496 146.782 189.226 147.382 189.269ZM155.447 175.239C155.466 174.402 154.369 174.617 154.278 175.356C154.481 176.132 155.658 176.181 155.447 175.239ZM138.699 188.187C137.845 188.017 137.836 189.244 138.587 189.329C139.343 189.426 139.522 188.057 138.699 188.187ZM154.43 195.695C154.394 195.918 154.357 196.134 154.317 196.386C155.071 196.891 155.176 196.691 155.614 196.101C155.519 195.524 154.846 195.219 154.43 195.695ZM150.059 180.203C150.606 180.788 151.269 180.117 151.036 179.447C150.431 178.833 149.637 179.507 150.059 180.203ZM149.717 181.104C149.376 181.011 149.261 180.561 148.825 180.695C147.577 181.721 149.436 182.502 149.717 181.104ZM154.154 203.607C153.984 203.349 153.781 203.161 153.538 202.992C153.305 203.052 153.074 203.112 152.842 203.173C152.786 203.288 152.732 203.395 152.684 203.492C152.853 204.258 153.811 204.273 154.154 203.607ZM151.154 188.525C150.719 188.016 150.238 187.919 149.911 188.582C149.91 189.679 151.357 189.337 151.154 188.525ZM146.308 192.537C145.921 192.466 145.593 192.499 145.334 192.792C145.315 193.661 146.226 193.83 146.746 193.273C146.6 193.027 146.465 192.8 146.308 192.537ZM142.943 193.849C143.126 193.756 143.321 193.658 143.508 193.563C143.542 193.316 143.572 193.099 143.601 192.893C143.438 192.668 143.218 192.575 142.961 192.5C142.797 192.61 142.629 192.721 142.469 192.829C142.515 193.379 142.596 193.555 142.943 193.849ZM138.639 192.241C139.591 192.084 139.238 190.58 138.362 191.112C137.784 191.422 138.007 192.106 138.639 192.241ZM145.394 202.095C145.491 202.361 145.691 202.488 145.951 202.578C146.478 202.41 146.849 202.132 146.389 201.64C146.194 200.853 145.396 201.552 145.394 202.095ZM140.666 186.781C140.324 186.94 140.028 186.569 139.641 186.785C139.567 187.044 139.28 187.59 139.737 187.674C140.087 187.676 140.507 187.89 140.76 187.564C140.732 187.326 140.703 187.09 140.666 186.781ZM139.66 184.702C139.969 184.702 140.248 184.702 140.503 184.702C141.702 183.533 138.684 183.185 139.66 184.702ZM146.038 186.554C144.905 186.931 145.28 187.969 146.423 187.627C146.529 187.399 146.622 187.201 146.724 186.981C146.482 186.831 146.263 186.695 146.038 186.554ZM150.752 201.101C151.726 200.28 149.96 199.26 149.858 200.534C149.996 200.937 150.209 201.231 150.752 201.101ZM153.12 180.378C153.886 180.645 154.486 179.437 153.549 179.213C152.851 179.268 152.59 179.928 153.12 180.378ZM151.583 174.879C150.517 175.591 152.635 176.736 152.535 174.987C152.284 174.655 151.916 174.775 151.583 174.879ZM149.691 195.753C149.158 195.637 148.46 195.397 148.267 196.077C149.162 196.717 148.75 197.196 149.691 196.215C149.691 196.069 149.691 195.948 149.691 195.753ZM135.787 189.27C136.109 189.339 136.124 188.796 136.274 188.571C136.114 188.368 135.953 188.164 135.785 187.951C135.565 187.98 135.409 188.059 135.298 188.16C135.418 188.501 135.543 188.859 135.674 189.233C135.713 189.244 135.745 189.262 135.787 189.27ZM141.707 195.131C142.156 194.789 142.419 194.132 141.735 193.886C141.372 194.063 140.76 194.192 141.001 194.687C141.148 194.923 141.379 195.403 141.707 195.131ZM145.251 185.999C145.061 185.422 145.061 185.422 144.713 185.19C144.315 185.335 143.925 185.48 143.964 186.026C144.303 186.527 144.944 186.403 145.251 185.999ZM147.707 196.797C147.323 197.022 146.977 197.159 146.898 197.583C147.013 198.213 147.903 198.21 148.234 197.684C148.055 197.385 147.875 197.098 147.707 196.797ZM136.735 184.624C137.385 185.162 137.699 184.6 137.853 183.956C137.662 183.913 137.469 183.794 137.288 183.722C137.062 183.831 136.844 183.934 136.637 184.029C136.547 184.254 136.569 184.499 136.735 184.624ZM152.794 194.662C152.805 195.548 154.03 195.265 154.097 194.514C153.808 194.114 152.648 193.901 152.794 194.662ZM154.343 199.152C154.496 199.299 154.653 199.452 154.811 199.604C154.978 199.57 155.137 199.537 155.323 199.499C155.421 199.257 155.505 199.052 155.586 198.855C155.252 198.165 154.313 198.374 154.343 199.152ZM143.01 180.572C142.708 180.777 142.511 181.022 142.429 181.384C142.503 181.524 142.586 181.681 142.683 181.865C143.051 181.683 143.599 181.752 143.643 181.247C143.493 180.991 143.451 180.628 143.01 180.572ZM154.431 180.852C154.388 181.139 154.289 181.413 154.46 181.726C155.968 182.004 155.912 180.191 154.431 180.852ZM144.59 188.105C143.508 188.297 143.956 189.595 144.915 189.218C145.022 189.055 145.142 188.871 145.256 188.696C145.132 188.374 144.83 188.302 144.59 188.105ZM149.043 178.899C149.914 178.591 149.523 177.753 148.752 177.685C148.248 177.96 148.313 179.078 149.043 178.899ZM140.346 190.761C140.62 190.527 140.568 190.219 140.648 189.956C140.432 189.583 140.054 189.68 139.741 189.585C139.6 189.8 139.479 189.986 139.361 190.166C139.785 190.628 139.785 190.628 140.346 190.761ZM156.268 186.238C156.277 185.869 156.284 185.499 156.293 185.13C156.181 185.171 156.055 185.245 155.907 185.349C155.809 185.851 156.002 186.165 156.268 186.238ZM139.221 182.734C138.896 182.908 138.58 183.073 138.275 183.229C138.722 183.432 139.22 183.23 139.221 182.734ZM145.449 184.487C145.628 184.657 145.786 184.807 145.932 184.946C146.578 184.757 146.729 184.472 146.43 183.83C145.562 183.34 145.74 183.864 145.449 184.487ZM149.714 197.58C150.026 198.263 150.922 198.128 151.169 197.457C150.806 196.775 149.996 197.023 149.714 197.58ZM147.82 190.993C147.527 191.212 147.202 191.058 146.955 191.27C146.754 192.899 148.754 192.183 147.82 190.993ZM151.064 182.789C150.942 182.321 150.434 181.99 149.98 182.251C149.441 183.212 150.517 183.635 151.064 182.789ZM156.143 192.149C156.15 191.792 156.158 191.43 156.166 191.066C156.132 191.07 156.097 191.073 156.056 191.077C155.742 191.658 155.888 192.021 156.143 192.149ZM139.774 195.632C139.687 195.802 139.605 195.964 139.53 196.113C139.723 196.82 140.284 197.045 140.719 196.362C140.554 195.848 140.462 195.335 139.774 195.632ZM151.976 181.974C152.371 181.888 152.485 181.649 152.407 181.329C152.183 181.05 151.539 180.212 151.483 180.866C151.561 181.095 151.288 181.233 151.195 181.411C151.38 181.746 151.699 181.842 151.976 181.974ZM155.576 202.25C155.463 201.815 155.179 201.584 154.799 201.381C154.638 201.492 154.458 201.617 154.303 201.724C154.1 202.561 155.071 202.693 155.576 202.25ZM144.484 201.105C145.119 200.913 145.313 200.499 144.795 200.007C143.752 199.629 143.657 200.608 144.484 201.105ZM135.542 186.273C135.98 186.537 136.163 185.942 136.24 185.619C136.32 185.247 135.751 185.203 135.584 185.104C134.847 185.138 135.19 186.064 135.542 186.273ZM154.507 184.698C154.771 184.698 155.008 184.698 155.226 184.698C156.413 183.466 153.447 183.342 154.507 184.698ZM142.897 198.467C142.631 198.639 142.207 199.013 142.545 199.329C143.892 199.793 144.272 198.441 142.897 198.467ZM143.9 194.654C144.122 194.836 144.442 194.95 144.45 195.347C145.898 194.719 144.528 193.096 143.9 194.654ZM145.675 181.843C145.86 181.898 146.029 181.949 146.215 182.005C146.459 181.657 146.545 181.3 146.479 180.886C145.777 180.256 145.217 181.271 145.675 181.843ZM143.642 195.827C143.29 195.233 142.605 195.446 142.431 196.12C142.804 196.802 143.787 196.682 143.642 195.827ZM145.078 179.44C145.053 179.402 145.021 179.371 144.985 179.344C144.683 179.536 144.381 179.727 144.08 179.914C144.034 180.002 143.983 180.097 143.904 180.245C144.487 180.431 145.256 180.083 145.078 179.44ZM152.246 198.433C151.932 198.599 151.552 198.464 151.356 198.8C151.486 198.992 151.49 199.141 151.334 199.307C151.738 199.649 152.27 199.61 152.649 199.364C152.464 199.019 152.372 198.803 152.246 198.433ZM141.733 201.006C142.747 200.671 141.937 199.6 141.094 200.142C141.01 200.628 141.099 201.159 141.733 201.006ZM146.538 196.516C146.513 196.212 146.491 195.936 146.468 195.657C145.93 195.437 145.523 195.404 145.369 196.056C145.682 196.518 146.054 196.664 146.538 196.516ZM140.81 201.943C140.563 201.716 140.42 201.446 140.105 201.307C140.06 201.378 140.005 201.434 139.956 201.498C140.084 201.868 140.198 202.201 140.298 202.493C140.556 202.472 140.777 202.309 140.81 201.943ZM149.562 202.29C149.524 201.573 149.336 201.512 148.609 201.42C148.503 201.577 148.427 201.774 148.344 201.949C148.578 202.444 149.183 202.652 149.562 202.29ZM153.336 185.111C153.151 185.414 152.982 185.688 152.816 185.959C152.898 186.238 153.491 186.696 153.597 186.232C153.62 185.999 153.867 185.918 154.015 185.781C153.821 185.319 153.821 185.319 153.336 185.111ZM156.081 195.16C156.088 194.8 156.096 194.436 156.103 194.063C155.854 194.179 155.717 194.56 156.002 195.184C156.029 195.175 156.054 195.168 156.081 195.16ZM140.679 192.7C140.092 192.413 140.022 192.422 139.613 192.841C139.788 193.079 139.703 193.324 139.836 193.523C140.397 193.84 140.963 193.249 140.679 192.7ZM141.07 191.479C140.687 192.16 141.87 192.571 142.171 191.804C142.115 191.094 141.475 190.874 141.07 191.479ZM143.115 201.368C142.257 201.727 142.294 202.251 143.118 202.587C143.704 202.105 143.933 201.886 143.115 201.368ZM141.785 182.22C141.581 182.248 141.363 182.278 141.096 182.315C141.096 182.646 141.096 182.908 141.096 183.163C141.394 183.4 141.685 183.454 142.023 183.243C141.984 182.891 142.161 182.51 141.785 182.22ZM152.737 191.73C152.932 192.039 153.186 192.18 153.614 192.205C154.869 190.94 152.901 190.906 152.737 191.73ZM146.58 178.301C146.312 178.48 146.044 178.656 145.776 178.832C146.202 178.985 146.524 178.831 146.58 178.301ZM151.341 201.855C151.391 202.965 152.969 202.519 152.338 201.526C151.982 201.523 151.6 201.394 151.341 201.855ZM141.989 185.295C141.594 185.335 141.296 185.366 140.984 185.397C140.94 185.778 141.037 186.065 141.259 186.308C141.737 186.149 142.265 185.82 142.27 185.67C142.193 185.547 142.081 185.41 141.989 185.295ZM148.63 184.662C150.267 184.982 149.399 182.741 148.355 184.103C148.458 184.312 148.546 184.49 148.63 184.662ZM137.043 187.869C137.281 187.621 137.724 187.526 137.732 187.047C136.802 186.373 135.886 187.356 137.043 187.869ZM138.394 197.005C138.495 197.296 138.595 197.582 138.693 197.864C138.892 197.767 139.061 197.643 139.211 197.488C139.135 196.961 138.717 196.869 138.394 197.005ZM143.736 187.483C143.686 187.022 143.5 186.738 143.12 186.577C142.965 186.641 142.819 186.701 142.57 186.804C143.271 187.075 141.642 188.092 143.736 187.483ZM155.029 190.772C155.893 189.938 154.828 188.932 154.257 189.955C154.596 190.161 154.517 190.705 155.029 190.772ZM150.844 185.316C150.731 185.26 150.591 185.189 150.467 185.127C149.901 185.33 150.03 185.576 149.842 186.039C150.548 186.5 151.167 186.108 150.844 185.316ZM147.67 185.234C147.444 185.346 147.213 185.459 146.951 185.589C146.969 185.747 147 185.979 147.024 186.127C147.606 186.751 148.705 185.673 147.67 185.234ZM146.418 198.53C145.428 198.517 144.909 199.358 146.072 199.631C146.252 199.431 146.424 199.239 146.603 199.041C146.55 198.895 146.496 198.745 146.418 198.53ZM156.04 197.17C155.921 197.193 155.799 197.245 155.679 197.34C155.737 197.577 155.879 197.748 156.024 197.918C156.029 197.673 156.034 197.425 156.04 197.17ZM151.763 189.556C151.658 189.669 151.538 189.798 151.427 189.917C151.436 190.694 152.307 190.961 152.535 190.164C152.292 189.693 152.292 189.693 151.763 189.556ZM149.868 176.677C149.762 176.892 150.008 176.942 150.056 177.083C150.172 177.427 150.427 177.473 150.752 177.423C150.93 177.19 150.983 176.917 151.044 176.654C150.707 176.423 150.145 176.312 149.868 176.677ZM142.231 203.758C142.269 203.247 141.919 203.08 141.523 202.865C140.667 203.75 141.241 204.256 142.231 203.758ZM151.166 203.688C150.998 203.484 150.847 203.301 150.705 203.13C150.478 203.11 150.276 203.092 150.055 203.073C149.778 203.987 150.462 204.409 151.166 203.688ZM149.838 191.772C149.918 191.92 149.994 192.058 150.072 192.203C151.735 191.872 150.414 190.06 149.838 191.772ZM141.675 196.845C140.786 197.2 140.9 198.312 141.904 198.109C141.81 197.875 141.869 197.682 142.005 197.511C141.894 197.285 141.798 197.092 141.675 196.845ZM156.397 180.364C156.405 180.055 156.411 179.749 156.419 179.444C156.244 179.448 156.057 179.517 155.907 179.652C155.822 180.175 156.092 180.377 156.397 180.364ZM137.748 192.922C137.512 192.718 137.172 192.699 136.93 192.818C137.031 193.108 137.134 193.399 137.236 193.691C137.471 193.588 137.686 193.274 137.748 192.922ZM148.11 200.516C147.656 199.899 146.766 200.224 147.047 200.971C147.44 201.409 147.971 200.981 148.11 200.516ZM151.488 184.121C151.485 184.86 152.556 185.336 152.219 184.339C152.317 184.248 152.415 184.157 152.55 184.034C152.326 183.896 152.146 183.786 151.964 183.674C151.772 183.854 151.611 184.005 151.488 184.121ZM141.565 188.214C141.355 188.3 141.131 188.384 140.948 188.561C141.012 188.93 141.182 189.176 141.613 189.284C141.745 189.208 141.879 189.129 142.068 189.019C141.792 188.707 142.143 188.373 141.565 188.214ZM136.659 189.853C136.342 190.756 137.612 190.999 137.727 190.103C137.415 189.791 137.081 189.727 136.659 189.853ZM145.068 197.265C144.505 196.729 144.071 197.397 144.108 197.962C144.223 198.042 144.319 198.109 144.419 198.178C144.627 198.035 144.809 197.91 144.991 197.784C145.017 197.61 145.041 197.45 145.068 197.265ZM154.549 192.689C154.52 192.899 154.496 193.074 154.475 193.237C155.153 193.919 155.439 193.76 155.439 192.82C155.134 192.773 154.902 192.557 154.549 192.689ZM153.742 176.296C153.536 175.955 152.958 176.555 152.942 176.889C153.057 177.054 153.231 177.204 153.4 177.328C153.651 177.225 153.875 177.137 154.052 176.776C153.735 176.738 153.705 176.541 153.742 176.296ZM144.002 191.413C144.156 191.649 144.239 191.828 144.293 192.086C144.854 192.134 144.908 192.102 145.115 191.621C144.683 191.094 144.569 191.066 144.002 191.413ZM139.745 199.498C140.509 199.568 140.531 199.554 140.642 199.003C140.414 198.833 140.192 198.666 139.935 198.474C139.689 198.877 139.689 198.877 139.745 199.498ZM149.298 198.632C148.271 198.003 147.994 199.41 149.236 199.345C149.401 199.095 149.351 198.844 149.298 198.632ZM144.8 183.16C144.818 182.904 144.832 182.69 144.847 182.466C144.645 182.276 144.406 182.214 144.104 182.319C143.936 182.698 144.262 182.962 144.389 183.219C144.547 183.254 144.707 183.281 144.8 183.16Z" fill="#421B36"/>
<path opacity="0.3" d="M67.4264 214.745L66.8399 215.628C66.8374 215.626 66.8343 215.624 66.8317 215.623C66.8317 215.479 66.8317 215.34 66.8317 215.198C67.0337 214.925 67.2393 214.791 67.4264 214.745ZM68.4765 211.334C68.7068 211.372 68.9237 211.408 69.1298 211.442C69.486 211.237 69.3729 210.892 69.4475 210.621C69.0594 210.699 68.6682 210.754 68.2755 210.787C68.275 210.789 68.274 210.791 68.273 210.792C68.3506 210.998 68.4133 211.165 68.4765 211.334ZM63.723 210.892C63.3643 209.886 62.0135 210.356 62.4437 211.329C62.6899 211.376 62.9274 211.421 63.1833 211.469C63.3828 211.305 63.5853 211.138 63.723 210.892ZM62.0824 212.073C61.7539 211.913 61.4527 211.804 61.0723 211.925C60.2237 213.267 62.5696 213.314 62.0824 212.073ZM65.3303 216.901C65.4105 217.085 65.4825 217.278 65.65 217.418L66.2966 216.445C65.9949 216.111 65.4439 216.034 65.3303 216.901ZM67.9764 212.383C68.2226 211.643 66.9905 211.482 66.8117 212.177C67.1925 212.928 67.685 213.596 67.9764 212.383ZM63.778 212.545C64.053 212.848 64.053 212.848 64.6457 213.095C64.8703 212.895 64.9566 212.652 65.0271 212.454C64.7608 211.396 64.034 211.691 63.778 212.545ZM65.7071 211.438C66.4082 211.473 66.7135 211.164 66.6107 210.811C66.1902 210.788 65.7713 210.744 65.3565 210.685C65.3288 211.013 65.4927 211.241 65.7071 211.438ZM64.1687 217.709C64.0623 217.87 63.9641 218.019 63.868 218.164C63.997 218.291 64.1091 218.401 64.2067 218.497C64.1743 218.628 64.1512 218.722 64.1224 218.838C64.2535 218.9 64.3779 218.96 64.5054 219.02C64.5686 218.967 64.6267 218.918 64.6863 218.868L65.0271 218.355C64.9726 217.869 64.7392 217.497 64.1687 217.709ZM62.3887 214.379C62.7799 214.252 63.3591 214.518 63.5647 214.135C63.6105 213.783 63.6331 213.308 63.1566 213.295C62.5362 213.471 62.2427 213.686 62.3887 214.379ZM65.4095 214.262C65.6567 214.324 65.8875 214.382 66.1075 214.437C67.3879 213.423 65.2383 212.522 65.4095 214.262ZM63.6053 216.986C63.5555 216.742 63.5411 216.597 63.5519 216.351C63.0826 216.209 62.4272 216.468 62.4483 217.035C62.7516 217.687 63.1787 217.3 63.6053 216.986ZM58.894 208.926C58.6601 208.926 58.418 208.926 58.1184 208.926C58.0433 209.157 57.9827 209.345 57.9226 209.532C58.3039 210.361 59.6881 209.553 58.894 208.926ZM56.8349 210.387C56.9562 210.696 57.0924 211.007 57.2456 211.317C57.3453 211.267 57.4399 211.21 57.5448 211.165C57.7257 210.273 57.1798 210.151 56.8349 210.387ZM57.6121 207.895C57.3561 207.751 57.1377 207.623 56.9531 207.512C56.8817 207.793 56.5702 207.827 56.3477 208.026C56.5147 208.892 57.3844 208.451 57.6121 207.895ZM61.7333 209.771C61.5113 209.693 61.2934 209.612 61.0801 209.53C61.113 209.628 61.1464 209.728 61.1849 209.842C61.3905 209.922 61.5791 209.876 61.7333 209.771ZM64.4586 214.676C64.1795 214.762 63.9985 214.972 63.8279 215.257C63.9148 215.427 64.0047 215.603 64.1034 215.797C64.4776 215.72 65.3478 215.71 64.9464 215.227C64.5645 215.196 64.693 214.836 64.4586 214.676ZM59.5345 214.142C59.7303 214.21 59.8829 214.262 60.0284 214.312C60.1826 214.187 60.3224 214.073 60.4622 213.96C60.4 212.811 59.3412 213.102 59.5345 214.142ZM60.1348 210.325C59.6923 210.636 59.6547 210.675 59.4389 211.045C59.5591 211.329 59.8259 211.382 60.1117 211.46C60.8971 211.003 60.2787 210.862 60.1348 210.325ZM61.0312 215.393C61.2553 215.566 61.4717 215.733 61.6778 215.891C62.6246 215.266 61.2368 214.073 61.0312 215.393ZM57.9549 212.381C58.6057 212.826 58.6057 212.826 58.9691 212.791C58.9593 212.523 59.1084 212.291 58.9598 212.009C58.5892 212.014 58.1621 211.855 57.9549 212.381Z" fill="#421B36"/>
</svg>
