<svg width="254" height="301" viewBox="0 0 254 301" fill="none" xmlns="http://www.w3.org/2000/svg">
<g clip-path="url(#clip0_2327_12696)">
<path d="M254 230.203H-47V230.354H254V230.203Z" fill="#EBEBEB"/>
<path d="M20.2207 235.254H0.28125V235.404H20.2207V235.254Z" fill="#EBEBEB"/>
<path d="M51.4262 239.598H33.2656V239.748H51.4262V239.598Z" fill="#EBEBEB"/>
<path d="M10.2537 240.844H-12.7734V240.994H10.2537V240.844Z" fill="#EBEBEB"/>
<path d="M223.838 240.516H214.266V240.666H223.838V240.516Z" fill="#EBEBEB"/>
<path d="M212.335 240.516H188.664V240.666H212.335V240.516Z" fill="#EBEBEB"/>
<path d="M121.76 235.18H103.5V235.33H121.76V235.18Z" fill="#EBEBEB"/>
<path d="M167.768 235.18H124.367V235.33H167.768V235.18Z" fill="#EBEBEB"/>
<path d="M95.6818 203.357H-20.5638C-22.4583 203.357 -24 201.815 -24 199.92V36.5182C-24 34.6238 -22.4583 33.082 -20.5638 33.082H95.6818C97.5757 33.082 99.1174 34.6238 99.1174 36.5182V199.92C99.1174 201.815 97.5757 203.357 95.6818 203.357ZM-20.5638 33.2331C-22.3758 33.2331 -23.8495 34.7068 -23.8495 36.5188V199.921C-23.8495 201.733 -22.3758 203.207 -20.5638 203.207H95.6818C97.4932 203.207 98.9669 201.733 98.9669 199.921V36.5182C98.9669 34.7068 97.4932 33.2325 95.6818 33.2325L-20.5638 33.2331Z" fill="#EBEBEB"/>
<path d="M225.892 203.357H109.647C107.752 203.357 106.211 201.815 106.211 199.92V36.5182C106.211 34.6238 107.753 33.082 109.647 33.082H225.892C227.787 33.082 229.328 34.6238 229.328 36.5182V199.92C229.328 201.815 227.787 203.357 225.892 203.357ZM109.647 33.2331C107.835 33.2331 106.361 34.7068 106.361 36.5188V199.921C106.361 201.733 107.835 203.207 109.647 203.207H225.892C227.704 203.207 229.177 201.733 229.177 199.921V36.5182C229.177 34.7068 227.704 33.2325 225.892 33.2325L109.647 33.2331Z" fill="#EBEBEB"/>
<path d="M125.104 244.146C189.567 244.146 241.825 191.109 241.825 125.684C241.825 60.2597 189.567 7.22266 125.104 7.22266C60.6407 7.22266 8.38281 60.2597 8.38281 125.684C8.38281 191.109 60.6407 244.146 125.104 244.146Z" fill="#E2E2F2"/>
<path d="M151.135 205.502L109.581 213.883C100.36 215.743 91.7955 208.321 92.5233 198.942C93.1951 190.29 92.4173 182.291 91.0508 176.204L164.01 122.727C160.939 142.345 160.762 169.845 162.529 190.306C163.153 197.532 158.244 204.068 151.135 205.502Z" fill="#E5A498"/>
<path d="M180.604 249.809H78.0113C73.99 249.809 71.1136 245.922 72.2887 242.076L84.0608 203.556C84.6177 201.734 86.0083 200.287 87.8058 199.658L163.439 173.171C166.798 171.994 170.435 173.992 171.244 177.457L186.432 242.465C187.307 246.217 184.459 249.809 180.604 249.809Z" fill="#938CCB"/>
<path d="M176.557 110.964C164.007 143.618 151.196 142.478 136.736 163.841C121.007 187.079 45.772 183.055 57.8837 142.236C67.721 109.08 65.915 54.1329 103.843 43.4781C153.963 29.3979 192.847 68.5809 176.557 110.964Z" fill="#E5A498"/>
<path d="M114.741 55.3046C113.141 53.8629 111.029 52.9785 108.705 52.9785C104.199 52.9785 100.475 56.2823 99.7956 60.5974C98.9606 60.273 98.0564 60.0875 97.1064 60.0875C94.1867 60.0875 91.6674 61.7761 90.4531 64.2263L98.5151 67.6505C97.8662 68.1573 97.3316 68.8304 96.9866 69.6419C95.9018 72.1956 97.0926 75.1448 99.6463 76.229C102.2 77.3138 105.149 76.123 106.233 73.5693C106.578 72.7578 106.691 71.9054 106.605 71.0867L115.461 74.848L119.223 65.992C118.403 66.0774 117.552 65.9649 116.74 65.6199C115.623 65.1455 114.767 64.3142 114.248 63.3149C114.151 63.1288 114.071 62.9362 113.999 62.74C113.932 62.5606 113.877 62.3781 113.831 62.1921C113.738 61.8147 113.685 61.4264 113.682 61.0333C113.682 61.0176 113.679 61.0026 113.679 60.9869C113.681 60.3344 113.81 59.671 114.08 59.0328C115.165 56.4798 118.114 55.289 120.668 56.3732C121.48 56.7181 122.152 57.2521 122.659 57.9017L125.127 52.0918C124.232 51.8179 123.283 51.668 122.298 51.668C119.24 51.668 116.516 53.0893 114.741 55.3046Z" fill="white"/>
<path opacity="0.3" d="M110.258 93.3236C111.151 93.7029 112.091 93.798 112.983 93.6602C114.644 93.4031 116.139 92.3237 116.843 90.6646C117.318 89.5473 117.358 88.3535 117.039 87.2741C116.627 85.8865 115.622 84.6867 114.186 84.0763C113.529 83.7976 112.848 83.6772 112.178 83.6838C112.019 83.6856 111.86 83.6886 111.702 83.7061L111.703 83.7043L115.464 74.8483L106.608 71.087C106.694 71.9063 106.581 72.7581 106.236 73.5696C105.151 76.1233 102.202 77.314 99.6492 76.2292C97.0955 75.145 95.9047 72.1952 96.9895 69.6422C97.3345 68.8307 97.8691 68.1576 98.518 67.6507L90.456 64.2266C89.9636 65.2199 89.6794 66.3342 89.6794 67.5177C89.6794 69.5187 90.4747 71.3314 91.7606 72.6672C87.8463 73.6569 84.9453 77.1912 84.9453 81.4131C84.9453 83.3136 85.5353 85.075 86.5382 86.5301V86.5307C86.5785 86.5891 86.6261 86.6469 86.6694 86.7046C87.5147 87.8701 88.6296 88.8237 89.9251 89.4763C93.6996 91.7687 99.7196 93.6734 106.802 95.2434L108.266 91.7946C108.774 92.4441 109.447 92.9787 110.258 93.3236Z" fill="white"/>
<path d="M150.945 69.2329C152.61 69.9402 153.69 71.4422 153.943 73.1085C153.979 73.3421 154.001 73.5787 154.003 73.8171C154.003 73.8333 154.006 73.8496 154.006 73.8652C154.005 74.5178 153.876 75.1812 153.605 75.8193C152.52 78.373 149.571 79.5632 147.018 78.479C146.206 78.134 145.533 77.6001 145.026 76.9505L141.266 85.8047L141.267 85.8053L141.267 85.8065L150.121 89.5672C149.472 90.0741 148.938 90.7465 148.593 91.5586C147.508 94.1123 148.699 97.0609 151.252 98.1457C153.806 99.2299 156.755 98.0398 157.839 95.4855C158.184 94.674 158.297 93.8221 158.211 93.0028L166.335 96.4529C167.305 93.727 166.625 90.5653 164.36 88.4854C163.66 87.8431 162.868 87.3675 162.034 87.0424C164.452 83.4045 163.944 78.4519 160.625 75.404C158.913 73.8327 156.759 73.0562 154.605 73.0357C154.796 70.2033 153.752 67.3143 151.498 65.2452C151.14 64.9171 150.762 64.6276 150.371 64.3633L148.462 68.859C149.281 68.7747 150.133 68.8879 150.945 69.2329Z" fill="white"/>
<path opacity="0.3" d="M120.668 56.3746C118.114 55.2898 115.165 56.4805 114.081 59.0342C113.81 59.6729 113.68 60.3357 113.68 60.9883C113.68 61.0034 113.681 61.019 113.682 61.0347C113.685 61.4284 113.738 61.8167 113.831 62.1935C113.877 62.3795 113.933 62.5625 113.999 62.7413C114.072 62.9376 114.152 63.1308 114.248 63.3162C114.767 64.3156 115.624 65.1469 116.74 65.6213C117.552 65.9662 118.404 66.0788 119.223 65.9933L115.462 74.8494L115.462 74.8481L124.317 78.6094C124.275 78.2127 124.283 77.8088 124.339 77.4054C124.341 77.3928 124.34 77.3796 124.342 77.3669C124.346 77.3398 124.354 77.3133 124.359 77.2863C124.422 76.8962 124.528 76.5079 124.69 76.128C125.617 73.9433 127.91 72.7616 130.152 73.1433C130.53 73.2077 130.907 73.3112 131.276 73.4678H131.276C131.276 73.4684 131.277 73.4684 131.277 73.4684C132.394 73.9427 133.25 74.7747 133.77 75.7734C134.438 77.0587 134.548 78.6203 133.939 80.0548C133.679 80.6677 133.312 81.1992 132.868 81.6399C132.723 81.785 132.57 81.921 132.41 82.0463L141.265 85.8076L145.026 76.9533C145.533 77.6023 146.206 78.1369 147.017 78.4818C149.571 79.566 152.52 78.3753 153.604 75.8216C153.875 75.1835 154.004 74.5201 154.005 73.8675C154.005 73.8518 154.003 73.8356 154.003 73.8193C154.001 73.5809 153.978 73.3444 153.943 73.1108C153.69 71.4444 152.61 69.9424 150.944 69.2351C150.132 68.8902 149.281 68.777 148.461 68.8631L150.371 64.3667C148.942 63.3999 147.321 62.8557 145.676 62.7323C144.529 58.0397 140.307 54.5523 135.26 54.5523C133.442 54.5523 131.731 55.008 130.23 55.8063C129.004 54.0569 127.216 52.7325 125.127 52.0938L122.66 57.9037C122.152 57.2535 121.48 56.7195 120.668 56.3746Z" fill="white"/>
<path opacity="0.3" d="M157.837 95.4876C156.752 98.0412 153.803 99.232 151.25 98.1478C148.696 97.063 147.506 94.1138 148.59 91.5607C148.935 90.7486 149.47 90.0762 150.119 89.5693L141.265 85.8086L137.503 94.6664C137.405 94.54 137.295 94.4226 137.185 94.3058C136.725 93.82 136.166 93.4137 135.51 93.1355C132.956 92.0507 130.007 93.2415 128.922 95.7952C128.394 97.0407 128.41 98.3784 128.857 99.5498C129.27 100.63 130.051 101.569 131.121 102.158C131.269 102.24 131.423 102.315 131.582 102.382C132.394 102.727 133.245 102.84 134.065 102.754L134.064 102.756L134.066 102.755L132.677 106.026C134.695 106.471 136.881 106.166 138.777 104.993C139.166 104.752 139.52 104.478 139.854 104.187C140.099 105.419 140.552 106.632 141.252 107.763C144.39 112.835 151.045 114.403 156.117 111.265C159.699 109.049 161.523 105.079 161.186 101.151C162.531 100.806 163.796 100.084 164.805 98.9858C165.5 98.2285 166.008 97.3664 166.332 96.4556L158.209 93.0055C158.295 93.8242 158.182 94.6761 157.837 95.4876Z" fill="white"/>
<path d="M69.9234 90.1445C69.9234 90.1445 62.1425 108.215 48.9347 118.061C46.1895 120.107 46.0529 124.175 48.6728 126.38C54.7698 131.51 63.184 131.786 63.184 131.786L69.9234 90.1445Z" fill="#E5A498"/>
</g>
<defs>
<clipPath id="clip0_2327_12696">
<rect width="254" height="301" fill="white"/>
</clipPath>
</defs>
</svg>
