<svg width="239" height="311" viewBox="0 0 239 311" fill="none" xmlns="http://www.w3.org/2000/svg">
<g clip-path="url(#clip0_2327_12794)">
<path d="M17.6685 188.328L132.776 215.864L129.24 230.68L14.1328 203.144L17.6685 188.328Z" fill="#938CCB"/>
<path opacity="0.3" d="M14.6298 200.801L129.793 228.35L129.237 230.679L14.0742 203.13L14.6298 200.801Z" fill="white"/>
<g opacity="0.1">
<path d="M127.807 227.194C93.273 219.112 52.1494 209.352 17.668 201.055C52.2017 209.137 93.3254 218.897 127.807 227.194Z" fill="black"/>
<path d="M128.51 224.213C93.9762 216.131 52.8525 206.372 18.3711 198.074C52.9049 206.156 94.0282 215.917 128.51 224.213Z" fill="black"/>
<path d="M129.209 221.237C94.6754 213.154 53.5517 203.396 19.0703 195.098C53.6041 203.18 94.7274 212.94 129.209 221.237Z" fill="black"/>
<path d="M129.912 218.256C95.3785 210.174 54.2548 200.415 19.7734 192.117C54.3072 200.199 95.4309 209.959 129.912 218.256Z" fill="black"/>
</g>
<path d="M12.2611 203.553L16.0977 187.281L11.8574 186.273L8.0209 202.545L12.2611 203.553Z" fill="#A6A6A6"/>
<path d="M16.9486 204.67L20.7852 188.398L16.5446 187.39L12.708 203.662L16.9486 204.67Z" fill="#A6A6A6"/>
<path d="M129.241 230.68L141.334 227.593L145.326 226.588L142.215 223.858L132.784 215.656L130.252 216.65C130.252 216.65 132.048 218.613 132.073 218.654L129.542 219.658C129.542 219.658 131.339 221.621 131.364 221.662L128.841 222.633C128.841 222.633 130.63 224.63 130.655 224.67L128.131 225.641C128.131 225.641 129.92 227.638 129.945 227.679L127.422 228.65C127.422 228.65 129.216 230.639 129.241 230.68Z" fill="#938CCB"/>
<path opacity="0.7" d="M129.241 230.68L141.334 227.593L145.326 226.588L142.215 223.858L132.784 215.656L130.252 216.65C130.252 216.65 132.048 218.613 132.073 218.654L129.542 219.658C129.542 219.658 131.339 221.621 131.364 221.662L128.841 222.633C128.841 222.633 130.63 224.63 130.655 224.67L128.131 225.641C128.131 225.641 129.92 227.638 129.945 227.679L127.422 228.65C127.422 228.65 129.216 230.639 129.241 230.68Z" fill="white"/>
<path d="M141.336 227.595L145.327 226.589L142.216 223.859L141.336 227.595Z" fill="#263238"/>
<path d="M5.07097 185.285L11.7565 186.894L8.17299 201.91L1.4875 200.301C0.44622 200.051 -0.195829 199 0.0538786 197.954L2.73374 186.724C2.98306 185.679 4.02931 185.034 5.07097 185.285Z" fill="#FF9ABB"/>
<path opacity="0.3" d="M0.319824 196.841L0.908337 194.375C0.51217 196.035 1.52974 197.709 3.18285 198.107L8.75557 199.448L8.16859 201.908L2.59587 200.567C0.942754 200.169 -0.0763423 198.501 0.319824 196.841Z" fill="white"/>
<path d="M154.808 129.106L135.707 129.122C133.723 129.126 132.075 127.509 132.075 125.474C132.075 124.337 132.621 123.304 133.474 122.586C135.191 121.173 136.281 119.034 136.277 116.661C136.273 112.456 132.847 109.016 128.663 109.019C124.446 109.023 121.054 112.468 121.058 116.673C121.058 119.046 122.155 121.185 123.841 122.594C124.732 123.312 125.245 124.345 125.249 125.482C125.249 127.517 123.639 129.133 121.616 129.133L102.553 129.149L102.538 109.972C102.538 107.975 100.924 106.32 98.9013 106.324C97.7656 106.324 96.7369 106.873 96.0218 107.741C94.6184 109.461 92.5267 110.567 90.1252 110.567C85.9418 110.571 82.5116 107.13 82.5078 102.925C82.504 98.6937 85.9303 95.2838 90.1137 95.2799C92.5152 95.2761 94.6108 96.3782 96.0142 98.0601C96.7331 98.9586 97.7617 99.4732 98.8936 99.4732C100.92 99.4694 102.526 97.8527 102.526 95.8175L102.511 76.679L154.766 76.6367V122.847H154.804L154.808 129.106Z" fill="#938CCB"/>
<path d="M134.781 157.192C134.781 161.427 138.176 164.835 142.393 164.835C144.759 164.835 146.884 163.734 148.256 162.046C148.976 161.151 150.004 160.635 151.136 160.635C153.159 160.635 154.805 162.253 154.805 164.284V183.428H102.551V164.284C102.551 162.253 104.162 160.635 106.185 160.635C107.317 160.635 108.345 161.151 109.065 162.046C110.471 163.733 112.597 164.835 114.963 164.835C119.146 164.835 122.574 161.427 122.574 157.192C122.574 152.991 119.146 149.548 114.963 149.548C112.597 149.548 110.471 150.65 109.065 152.371C108.345 153.232 107.317 153.783 106.185 153.783C104.162 153.783 102.551 152.13 102.551 150.134V130.955H121.615C123.637 130.955 125.249 129.337 125.249 127.306C125.249 126.169 124.735 125.136 123.843 124.413C122.163 123.002 121.066 120.902 121.066 118.491C121.066 114.291 124.46 110.848 128.677 110.848C132.861 110.848 136.289 114.291 136.289 118.491C136.289 120.902 135.192 123.002 133.478 124.413C132.62 125.136 132.072 126.169 132.072 127.306C132.072 129.337 133.718 130.955 135.706 130.955H154.805V150.134C154.805 152.13 153.159 153.783 151.136 153.783C150.004 153.783 148.976 153.232 148.256 152.371C146.884 150.65 144.758 149.548 142.393 149.548C138.176 149.548 134.781 152.991 134.781 157.192Z" fill="#455A64"/>
<path d="M113.553 157.154C112.941 161.342 109.055 164.212 104.917 163.602C102.542 163.252 100.628 161.854 99.4827 159.985C98.9038 158.992 97.96 158.331 96.8399 158.166C94.8358 157.87 93.0094 159.235 92.715 161.248L89.9457 180.186L38.2463 172.563L41.021 153.588C41.3101 151.612 39.9564 149.741 37.9523 149.446C36.8322 149.281 35.7343 149.675 34.9003 150.425C33.2625 151.922 31.0297 152.708 28.6588 152.359C24.5163 151.748 21.6211 147.84 22.2291 143.685C22.8417 139.496 26.7281 136.622 30.8706 137.233C33.2415 137.582 35.155 138.98 36.2999 140.854C36.8796 141.842 37.823 142.503 38.9434 142.669C40.9476 142.964 42.7739 141.599 43.0676 139.591L45.8374 120.648L64.734 123.435C66.6973 123.724 68.093 125.564 67.7986 127.576C67.6342 128.701 66.9428 129.644 65.9914 130.231C64.0889 131.375 62.7 133.331 62.357 135.679C61.7486 139.838 64.6396 143.746 68.7783 144.356C72.9533 144.971 76.8083 142.059 77.4163 137.899C77.7597 135.551 76.9854 133.276 75.5231 131.636C74.7472 130.794 74.3877 129.697 74.5521 128.572C74.8466 126.559 76.6729 125.195 78.6771 125.49L97.5371 128.271L94.7624 147.247C94.4737 149.222 95.827 151.093 97.8311 151.389C98.9512 151.554 100.049 151.16 100.883 150.41C102.521 148.913 104.754 148.126 107.129 148.477C111.267 149.086 114.162 152.994 113.553 157.154Z" fill="#938CCB"/>
<path d="M210.566 90.5112C214.486 92.0706 216.376 96.5269 214.836 100.432C213.952 102.673 212.158 104.223 210.083 104.914C208.988 105.252 208.131 106.023 207.714 107.08C206.968 108.971 207.871 111.069 209.755 111.818L227.476 118.869L208.229 167.652L190.473 160.587C188.624 159.852 186.5 160.746 185.754 162.636C185.337 163.693 185.467 164.857 186.003 165.844C187.078 167.788 187.328 170.151 186.445 172.388C184.903 176.297 180.452 178.23 176.563 176.683C172.643 175.124 170.749 170.666 172.291 166.757C173.174 164.519 174.967 162.97 177.046 162.28C178.137 161.941 178.994 161.17 179.411 160.113C180.157 158.222 179.254 156.124 177.374 155.376L159.648 148.324L166.683 130.493C167.414 128.64 169.517 127.698 171.401 128.448C172.453 128.866 173.208 129.758 173.559 130.823C174.232 132.945 175.809 134.751 178.006 135.625C181.899 137.173 186.349 135.244 187.889 131.339C189.444 127.399 187.505 122.963 183.612 121.415C181.415 120.541 179.033 120.776 177.108 121.828C176.114 122.394 174.968 122.493 173.915 122.074C172.032 121.325 171.128 119.227 171.874 117.336L178.895 99.5398L196.652 106.604C198.501 107.34 200.625 106.446 201.371 104.555C201.788 103.498 201.658 102.335 201.122 101.347C200.046 99.4031 199.796 97.0399 200.68 94.7993C202.222 90.8955 206.673 88.9625 210.566 90.5112Z" fill="#938CCB"/>
<path d="M221.559 164.944C221.559 164.944 210.418 129.56 207.078 126.843C203.739 124.126 178.75 116.039 175.845 115.685C172.939 115.331 171.147 120.705 177.107 126.628C183.658 133.139 196.137 136.667 196.865 139.324C197.14 140.327 199.577 156.889 200.232 158.499C200.888 160.108 221.559 164.944 221.559 164.944Z" fill="#A07E57"/>
<g opacity="0.1">
<path d="M221.559 164.944C221.559 164.944 210.418 129.56 207.078 126.843C203.739 124.126 178.75 116.039 175.845 115.685C172.939 115.331 171.147 120.705 177.107 126.628C183.658 133.139 196.137 136.667 196.865 139.324C197.14 140.327 199.577 156.889 200.232 158.499C200.888 160.108 221.559 164.944 221.559 164.944Z" fill="black"/>
</g>
<path d="M218.043 157.722C218.043 157.722 203.42 123.639 199.825 121.273C196.231 118.907 170.56 113.38 167.634 113.321C164.708 113.262 163.462 118.789 169.984 124.082C177.153 129.899 189.922 132.151 190.912 134.721C191.286 135.691 195.366 151.924 196.179 153.459C196.992 154.994 218.043 157.722 218.043 157.722Z" fill="#A07E57"/>
<path d="M214.193 150.402C209.543 143.154 185.526 121.146 181.645 119.29C177.765 117.435 152.641 109.315 149.734 109.655C146.827 109.994 147.133 115.32 152.627 121.681C158.12 128.043 182.391 143.18 182.827 147.111C182.941 148.144 193.678 163.402 194.691 164.812C195.301 165.661 221.664 180.251 227.414 176.719C227.414 176.719 215.755 152.836 214.193 150.402Z" fill="#A07E57"/>
<path d="M172.367 174.562C171.466 184.446 162.834 184.861 153.096 182.866C135.005 179.159 126.404 185.089 125.592 191.215C124.824 197.002 144.803 196.09 158.373 206.544C167.29 213.413 179.754 219.999 179.754 219.999C178.033 212.536 178.962 189.734 172.367 174.562Z" fill="#A07E57"/>
<path d="M239.001 205.935C237.463 200.223 228.932 180.83 227.414 176.721C223.98 167.428 207.357 151.63 195.938 142.717C179.582 129.951 152.459 119.488 147.924 117.805C141.804 115.533 136.217 111.18 134.685 113.894C132.21 118.278 134.537 125.645 140.087 131.621C147.015 139.078 161.561 145.29 164.436 151.196C175.765 174.468 177.938 212.351 179.753 220V234.001H239.001V205.935Z" fill="#A07E57"/>
<path d="M151.422 119.148C157.662 121.903 164.142 124.053 170.207 127.21C172.293 128.261 174.086 129.828 175.772 131.408C182.373 137.729 188.122 144.806 193.564 152.121C190.529 148.736 187.481 145.371 184.39 142.054C180.106 137.608 175.971 132.918 170.941 129.354C164.586 125.79 157.434 123.335 151.422 119.148Z" fill="#263238"/>
<path d="M161.891 112.602C168.33 114 174.533 116.331 180.584 118.923C182.605 119.858 184.76 120.739 186.497 122.175C187.738 123.216 188.979 124.454 190.125 125.596C195.114 130.702 199.764 136.14 204.149 141.771C198.69 136.294 191.336 128.263 185.554 123.314C183.884 121.991 181.873 121.236 179.971 120.296C177.989 119.399 175.991 118.522 173.988 117.667C170.518 116.209 165.365 113.94 161.891 112.602Z" fill="#263238"/>
<path d="M172.977 233.999L172.129 231.303L239.003 205.934V233.999H172.977Z" fill="#938CCB"/>
<path d="M196.251 234.001H184.125C185.391 231.981 187.632 230.637 190.186 230.637C192.74 230.637 194.981 231.981 196.251 234.001Z" fill="white"/>
<path d="M221.559 229.302C221.559 231.099 220.901 232.738 219.815 233.998H208.974C207.888 232.738 207.234 231.099 207.234 229.302C207.234 225.327 210.439 222.109 214.397 222.109C218.351 222.109 221.559 225.327 221.559 229.302Z" fill="white"/>
<path d="M239.002 213.594V227.959C238.872 227.967 238.741 227.971 238.608 227.971C234.654 227.971 231.445 224.749 231.445 220.778C231.445 216.804 234.654 213.582 238.608 213.582C238.741 213.582 238.872 213.586 239.002 213.594Z" fill="white"/>
<path d="M133.712 27.2536C135.496 23.4182 140.039 21.7897 143.829 23.5676C146.004 24.5879 147.437 26.4787 148 28.5999C148.27 29.7174 148.985 30.6228 150.011 31.1044C151.846 31.9653 153.986 31.185 154.843 29.3422L162.912 12L210.253 34.2117L202.169 51.5877C201.327 53.3967 202.089 55.5794 203.924 56.4403C204.949 56.9215 206.114 56.8608 207.127 56.3827C209.124 55.4212 211.488 55.3121 213.659 56.3305C217.452 58.1103 219.108 62.688 217.337 66.4938C215.552 70.3292 211.008 71.9616 207.214 70.1818C205.043 69.1634 203.61 67.2722 203.049 65.1475C202.776 64.0339 202.062 63.1285 201.036 62.6469C199.201 61.786 197.061 62.5663 196.205 64.4053L188.135 81.7513L170.831 73.6328C169.033 72.7891 168.223 70.6245 169.08 68.7817C169.559 67.7518 170.491 67.0479 171.57 66.7603C173.72 66.2127 175.61 64.7401 176.61 62.5901C178.382 58.7808 176.731 54.2047 172.941 52.4268C169.118 50.6331 164.593 52.3112 162.82 56.1204C161.82 58.2705 161.911 60.6724 162.842 62.6654C163.345 63.6952 163.375 64.8503 162.896 65.8802C162.039 67.723 159.899 68.5033 158.064 67.6424L140.794 59.5396L148.879 42.1636C149.72 40.3546 148.959 38.1719 147.124 37.311C146.098 36.8298 144.934 36.8905 143.92 37.3686C141.924 38.3301 139.56 38.4392 137.385 37.4189C133.594 35.641 131.939 31.0633 133.712 27.2536Z" fill="#EBEBEB"/>
</g>
<path d="M34.7116 256.254C36.4962 252.418 41.0391 250.79 44.8291 252.568C47.0038 253.588 48.437 255.479 48.9996 257.6C49.2703 258.717 49.985 259.623 51.011 260.104C52.8461 260.965 54.986 260.185 55.8434 258.342L63.9124 241L111.253 263.212L103.169 280.588C102.327 282.397 103.089 284.579 104.924 285.44C105.949 285.921 107.114 285.861 108.127 285.383C110.124 284.421 112.488 284.312 114.659 285.331C118.452 287.11 120.108 291.688 118.337 295.494C116.552 299.329 112.008 300.962 108.214 299.182C106.043 298.163 104.61 296.272 104.049 294.148C103.776 293.034 103.062 292.128 102.036 291.647C100.201 290.786 98.0611 291.566 97.2053 293.405L89.1347 310.751L71.8311 302.633C70.0335 301.789 69.2228 299.625 70.0801 297.782C70.5593 296.752 71.4912 296.048 72.5703 295.76C74.7202 295.213 76.6096 293.74 77.61 291.59C79.3824 287.781 77.7308 283.205 73.9412 281.427C70.118 279.633 65.5927 281.311 63.8202 285.12C62.8199 287.27 62.9109 289.672 63.8424 291.665C64.3449 292.695 64.3755 293.85 63.8963 294.88C63.039 296.723 60.8991 297.503 59.0639 296.642L41.794 288.54L49.8787 271.164C50.7204 269.355 49.959 267.172 48.1238 266.311C47.0982 265.83 45.9338 265.89 44.9205 266.369C42.9236 267.33 40.5596 267.439 38.3853 266.419C34.5942 264.641 32.9391 260.063 34.7116 256.254Z" fill="#EBEBEB"/>
<defs>
<clipPath id="clip0_2327_12794">
<rect width="239" height="234" fill="white"/>
</clipPath>
</defs>
</svg>
