<svg width="202" height="215" viewBox="0 0 202 215" fill="none" xmlns="http://www.w3.org/2000/svg">
<path d="M1.49551 45.8338C3.05926 37.1377 5.44035 34.9497 7.65735 33.2993C39.2119 9.78706 71.285 5.7195 103.078 21.2042L112.524 32.8832C134.597 35.1788 156.652 48.1622 178.348 71.6323C181.138 74.6479 184.356 79.7533 185.393 94.2702C187.209 119.667 180.815 137.928 175.881 140.635C163.782 147.265 151.43 139.943 139.483 152.034C129.493 162.142 120.133 185.495 110.26 198.493C90.9777 223.88 70.7067 208.83 50.9927 193.658C35.5324 181.76 19.4503 168.589 6.50578 120.284C1.92492 103.177 -2.35614 67.2515 1.49551 45.8338Z" fill="#E2E2F2"/>
<path d="M110.335 176.254C108.559 167.666 106.415 159.152 103.913 150.746L73.6922 156.574C68.9432 157.449 69.2936 165.764 64.6783 167.188C63.4296 167.573 61.6328 167.697 61.5062 168.998C61.4283 169.802 62.1706 170.561 61.96 171.341C61.6865 172.358 60.2555 172.325 59.3034 172.773C57.1117 173.806 58.1367 177.524 60.4064 178.373C62.676 179.222 65.1715 178.274 67.4696 177.505C69.7676 176.735 72.5183 176.21 74.4345 177.692C76.372 179.191 76.6769 182.207 78.7035 183.583C79.5856 184.181 80.6734 184.377 81.7256 184.553C91.016 186.113 101.599 187.039 108.852 181.029C109.496 180.495 110.123 179.881 110.4 179.091C110.717 178.188 110.529 177.193 110.335 176.254Z" fill="#634224"/>
<path d="M92.9034 106.165C92.9034 106.165 82.503 99.8773 74.8028 102.506C67.1025 105.134 66.5799 109.161 63.6671 108.796C60.7543 108.431 56.3153 104.698 45.9027 113.88C35.4902 123.061 33.5973 132.548 38.722 145.654C43.8468 158.759 64.0044 166.951 77.3439 166.413C90.6834 165.875 103.584 164.719 105.113 154.908L92.9034 106.165Z" fill="#CED3D6"/>
<path d="M66.126 146.226C65.1618 142.762 64.7871 139.134 65.0241 135.546C65.0494 135.154 65.0666 134.713 64.8002 134.425C64.5946 134.202 64.2736 134.135 63.9738 134.087C62.801 133.901 61.6099 133.83 60.4229 133.878C60.1606 133.888 59.8801 133.911 59.6735 134.073C59.4071 134.283 59.3443 134.655 59.3078 134.993C58.6667 140.866 59.798 146.921 62.5164 152.168C62.7037 152.53 62.9154 152.906 63.2658 153.115C63.7044 153.376 64.2563 153.316 64.7597 153.23C65.658 153.075 66.5463 152.862 67.4163 152.591L66.126 146.226Z" fill="#FFF0B5"/>
<mask id="mask0_2327_12200" style="mask-type:luminance" maskUnits="userSpaceOnUse" x="35" y="101" width="71" height="66">
<path d="M92.8995 106.161C92.8995 106.161 82.4991 99.8734 74.7989 102.502C67.0986 105.13 66.576 109.157 63.6632 108.792C60.7504 108.427 56.3113 104.694 45.8988 113.876C35.4863 123.057 33.5934 132.544 38.7181 145.65C43.8429 158.755 64.0005 166.947 77.34 166.409C90.6794 165.871 103.58 164.715 105.109 154.904L92.8995 106.161Z" fill="white"/>
</mask>
<g mask="url(#mask0_2327_12200)">
<path d="M62.6216 122.458C61.7019 114.328 64.5691 106.104 70.7036 100.593C71.2576 100.095 72.0415 100.875 71.521 101.418C65.8939 107.281 62.9902 114.28 63.3082 122.453C63.3254 122.902 62.6702 122.886 62.6216 122.458Z" fill="#8A979E"/>
</g>
<mask id="mask1_2327_12200" style="mask-type:luminance" maskUnits="userSpaceOnUse" x="35" y="101" width="71" height="66">
<path d="M92.8995 106.161C92.8995 106.161 82.4991 99.8734 74.7989 102.502C67.0986 105.13 66.576 109.157 63.6632 108.792C60.7504 108.427 56.3113 104.694 45.8988 113.876C35.4863 123.057 33.5934 132.544 38.7181 145.65C43.8429 158.755 64.0005 166.947 77.34 166.409C90.6794 165.871 103.58 164.715 105.109 154.904L92.8995 106.161Z" fill="white"/>
</mask>
<g mask="url(#mask1_2327_12200)">
<path d="M65.4664 140.608C66.6311 148.815 68.5818 157.494 76.2385 162.05C76.676 162.31 76.2759 162.996 75.8374 162.732C67.9954 158.022 65.9586 149.175 64.7919 140.7C64.7402 140.32 65.4117 140.224 65.4664 140.608Z" fill="#8A979E"/>
</g>
<mask id="mask2_2327_12200" style="mask-type:luminance" maskUnits="userSpaceOnUse" x="35" y="101" width="71" height="66">
<path d="M92.8995 106.161C92.8995 106.161 82.4991 99.8734 74.7989 102.502C67.0986 105.13 66.576 109.157 63.6632 108.792C60.7504 108.427 56.3113 104.694 45.8988 113.876C35.4863 123.057 33.5934 132.544 38.7181 145.65C43.8429 158.755 64.0005 166.947 77.34 166.409C90.6794 165.871 103.58 164.715 105.109 154.904L92.8995 106.161Z" fill="white"/>
</mask>
<g mask="url(#mask2_2327_12200)">
<path d="M64.3011 158.85C63.8757 162.325 63.1637 165.971 60.3998 168.369C59.9156 168.79 59.3343 168.054 59.86 167.661C62.6735 165.563 63.505 162.104 64.0418 158.817C64.0661 158.672 64.3193 158.703 64.3011 158.85Z" fill="#8A979E"/>
</g>
<mask id="mask3_2327_12200" style="mask-type:luminance" maskUnits="userSpaceOnUse" x="53" y="103" width="150" height="112">
<path d="M201.509 136.77C201.266 136.103 200.686 135.796 199.93 135.723C200.468 135.156 200.925 134.639 201.204 134.244C202.544 132.351 202.565 130.086 198.408 128.725C194.25 127.364 189.435 134.09 187.818 134.366C186.202 134.643 193.183 128.833 193.106 127.465C193.029 126.097 193.697 124.13 190.537 124.012C187.377 123.893 180.823 132.016 178.187 133.314C175.552 134.612 171.769 133.972 169.505 133.951C164.245 133.902 146.943 122.644 139.897 117.299C132.851 111.953 128.67 114.754 128.67 114.754L130.527 108.61L112.387 111.159C108.429 110.046 108.14 104.802 98.5312 103.752C86.478 102.66 82.9433 109.98 82.9433 109.98C82.9433 109.98 72.5622 116.778 70.7848 124.743C64.6786 147.42 71.8077 154.772 71.8077 154.772C71.8077 154.772 66.3963 188.488 65.8018 189.783C65.2073 191.079 57.1769 196.64 55.3893 198.484C53.6007 200.328 52.2071 202.312 55.7661 202.927C57.7572 203.272 59.0384 202.514 61.6646 201.825C56.9004 207.165 58.8227 209.28 62.4586 211.264C62.9822 211.549 63.5767 211.506 64.2097 211.236C64.4315 214.14 71.6851 215.593 73.8242 207.067C74.6182 203.901 78.3341 200.816 79.5647 201.404C80.7952 201.991 77.7214 212.888 79.8047 214.022C81.888 215.157 83.5206 213.749 84.5881 212.279C85.6556 210.81 87.7136 200.03 88.1248 198.941C88.537 197.853 96.6717 201.009 98.7186 201.006C100.765 201.003 100.55 198.713 100.526 196.897C100.503 195.081 94.8943 194.468 94.6289 193.533C94.3636 192.597 93.844 191.634 92.6044 189.685C91.3647 187.736 89.0778 183.407 90.0592 181.247C91.0416 179.088 93.7407 161.478 94.2137 161.303C115.252 155.444 126.125 138.047 126.125 138.047C126.125 138.047 130.896 136.756 138.221 142.316C145.545 147.876 156.401 152.236 162.1 155.126C167.799 158.015 172.433 156.935 176.09 156.655C185.97 157.509 196.219 142.537 198.182 141.165C200.144 139.794 202.632 139.839 201.509 136.77Z" fill="white"/>
</mask>
<g mask="url(#mask3_2327_12200)">
<path d="M201.509 136.77C201.266 136.103 200.686 135.796 199.93 135.723C200.468 135.156 200.925 134.639 201.204 134.244C202.544 132.351 202.565 130.086 198.408 128.725C194.25 127.364 189.435 134.09 187.818 134.366C186.202 134.643 193.183 128.833 193.106 127.465C193.029 126.097 193.697 124.13 190.537 124.012C187.377 123.893 180.823 132.016 178.187 133.314C175.552 134.612 171.769 133.972 169.505 133.951C164.245 133.902 146.943 122.644 139.897 117.299C132.851 111.953 128.67 114.754 128.67 114.754L130.527 108.61L112.387 111.159C108.429 110.046 108.14 104.802 98.5312 103.752C86.478 102.66 82.9433 109.98 82.9433 109.98C82.9433 109.98 72.5622 116.778 70.7848 124.743C64.6786 147.42 71.8077 154.772 71.8077 154.772C71.8077 154.772 66.3963 188.488 65.8018 189.783C65.2073 191.079 57.1769 196.64 55.3893 198.484C53.6007 200.328 52.2071 202.312 55.7661 202.927C57.7572 203.272 59.0384 202.514 61.6646 201.825C56.9004 207.165 58.8227 209.28 62.4586 211.264C62.9822 211.549 63.5767 211.506 64.2097 211.236C64.4315 214.14 71.6851 215.593 73.8242 207.067C74.6182 203.901 78.3341 200.816 79.5647 201.404C80.7952 201.991 77.7214 212.888 79.8047 214.022C81.888 215.157 83.5206 213.749 84.5881 212.279C85.6556 210.81 87.7136 200.03 88.1248 198.941C88.537 197.853 96.6717 201.009 98.7186 201.006C100.765 201.003 100.55 198.713 100.526 196.897C100.503 195.081 94.8943 194.468 94.6289 193.533C94.3636 192.597 93.844 191.634 92.6044 189.685C91.3647 187.736 89.0778 183.407 90.0592 181.247C91.0416 179.088 93.7407 161.478 94.2137 161.303C115.252 155.444 126.125 138.047 126.125 138.047C126.125 138.047 130.896 136.756 138.221 142.316C145.545 147.876 156.401 152.236 162.1 155.126C167.799 158.015 172.433 156.935 176.09 156.655C185.97 157.509 196.219 142.537 198.182 141.165C200.144 139.794 202.632 139.839 201.509 136.77Z" fill="#805731"/>
</g>
<mask id="mask4_2327_12200" style="mask-type:luminance" maskUnits="userSpaceOnUse" x="53" y="103" width="150" height="112">
<path d="M201.509 136.77C201.266 136.103 200.686 135.796 199.93 135.723C200.468 135.156 200.925 134.639 201.204 134.244C202.544 132.351 202.565 130.086 198.408 128.725C194.25 127.364 189.435 134.09 187.818 134.366C186.202 134.643 193.183 128.833 193.106 127.465C193.029 126.097 193.697 124.13 190.537 124.012C187.377 123.893 180.823 132.016 178.187 133.314C175.552 134.612 171.769 133.972 169.505 133.951C164.245 133.902 146.943 122.644 139.897 117.299C132.851 111.953 128.67 114.754 128.67 114.754L130.527 108.61L112.387 111.159C108.429 110.046 108.14 104.802 98.5312 103.752C86.478 102.66 82.9433 109.98 82.9433 109.98C82.9433 109.98 72.5622 116.778 70.7848 124.743C64.6786 147.42 71.8077 154.772 71.8077 154.772C71.8077 154.772 66.3963 188.488 65.8018 189.783C65.2073 191.079 57.1769 196.64 55.3893 198.484C53.6007 200.328 52.2071 202.312 55.7661 202.927C57.7572 203.272 59.0384 202.514 61.6646 201.825C56.9004 207.165 58.8227 209.28 62.4586 211.264C62.9822 211.549 63.5767 211.506 64.2097 211.236C64.4315 214.14 71.6851 215.593 73.8242 207.067C74.6182 203.901 78.3341 200.816 79.5647 201.404C80.7952 201.991 77.7214 212.888 79.8047 214.022C81.888 215.157 83.5206 213.749 84.5881 212.279C85.6556 210.81 87.7136 200.03 88.1248 198.941C88.537 197.853 96.6717 201.009 98.7186 201.006C100.765 201.003 100.55 198.713 100.526 196.897C100.503 195.081 94.8943 194.468 94.6289 193.533C94.3636 192.597 93.844 191.634 92.6044 189.685C91.3647 187.736 89.0778 183.407 90.0592 181.247C91.0416 179.088 93.7407 161.478 94.2137 161.303C115.252 155.444 126.125 138.047 126.125 138.047C126.125 138.047 130.896 136.756 138.221 142.316C145.545 147.876 156.401 152.236 162.1 155.126C167.799 158.015 172.433 156.935 176.09 156.655C185.97 157.509 196.219 142.537 198.182 141.165C200.144 139.794 202.632 139.839 201.509 136.77Z" fill="white"/>
</mask>
<g mask="url(#mask4_2327_12200)">
<path d="M93.6512 163.844C94.2943 158.2 95.7558 152.96 95.4996 147.213C95.2686 142.029 94.6782 136.868 96.0556 131.795C96.3179 130.83 97.6993 131.235 97.5343 132.191C96.5245 138.022 97.3631 143.649 97.3094 149.503C97.2629 154.597 95.6981 159.069 94.4817 163.95C94.3693 164.398 93.5965 164.326 93.6512 163.844Z" fill="#452301"/>
</g>
<mask id="mask5_2327_12200" style="mask-type:luminance" maskUnits="userSpaceOnUse" x="53" y="103" width="150" height="112">
<path d="M201.509 136.77C201.266 136.103 200.686 135.796 199.93 135.723C200.468 135.156 200.925 134.639 201.204 134.244C202.544 132.351 202.565 130.086 198.408 128.725C194.25 127.364 189.435 134.09 187.818 134.366C186.202 134.643 193.183 128.833 193.106 127.465C193.029 126.097 193.697 124.13 190.537 124.012C187.377 123.893 180.823 132.016 178.187 133.314C175.552 134.612 171.769 133.972 169.505 133.951C164.245 133.902 146.943 122.644 139.897 117.299C132.851 111.953 128.67 114.754 128.67 114.754L130.527 108.61L112.387 111.159C108.429 110.046 108.14 104.802 98.5312 103.752C86.478 102.66 82.9433 109.98 82.9433 109.98C82.9433 109.98 72.5622 116.778 70.7848 124.743C64.6786 147.42 71.8077 154.772 71.8077 154.772C71.8077 154.772 66.3963 188.488 65.8018 189.783C65.2073 191.079 57.1769 196.64 55.3893 198.484C53.6007 200.328 52.2071 202.312 55.7661 202.927C57.7572 203.272 59.0384 202.514 61.6646 201.825C56.9004 207.165 58.8227 209.28 62.4586 211.264C62.9822 211.549 63.5767 211.506 64.2097 211.236C64.4315 214.14 71.6851 215.593 73.8242 207.067C74.6182 203.901 78.3341 200.816 79.5647 201.404C80.7952 201.991 77.7214 212.888 79.8047 214.022C81.888 215.157 83.5206 213.749 84.5881 212.279C85.6556 210.81 87.7136 200.03 88.1248 198.941C88.537 197.853 96.6717 201.009 98.7186 201.006C100.765 201.003 100.55 198.713 100.526 196.897C100.503 195.081 94.8943 194.468 94.6289 193.533C94.3636 192.597 93.844 191.634 92.6044 189.685C91.3647 187.736 89.0778 183.407 90.0592 181.247C91.0416 179.088 93.7407 161.478 94.2137 161.303C115.252 155.444 126.125 138.047 126.125 138.047C126.125 138.047 130.896 136.756 138.221 142.316C145.545 147.876 156.401 152.236 162.1 155.126C167.799 158.015 172.433 156.935 176.09 156.655C185.97 157.509 196.219 142.537 198.182 141.165C200.144 139.794 202.632 139.839 201.509 136.77Z" fill="white"/>
</mask>
<g mask="url(#mask5_2327_12200)">
<path d="M83.2226 109.331C81.5829 113.605 80.8 118.046 79.8733 122.509C78.9243 127.081 77.4477 131.445 76.0328 135.885C72.9964 145.413 71.5664 155.108 70.1961 164.979C70.0573 165.975 68.3619 165.757 68.4318 164.753C69.1023 155.063 71.5097 145.443 74.6281 136.272C76.128 131.859 77.7039 127.5 78.7552 122.953C79.8369 118.276 80.6633 113.603 82.4579 109.125C82.6443 108.661 83.4069 108.853 83.2226 109.331Z" fill="#452301"/>
</g>
<mask id="mask6_2327_12200" style="mask-type:luminance" maskUnits="userSpaceOnUse" x="53" y="103" width="150" height="112">
<path d="M201.509 136.77C201.266 136.103 200.686 135.796 199.93 135.723C200.468 135.156 200.925 134.639 201.204 134.244C202.544 132.351 202.565 130.086 198.408 128.725C194.25 127.364 189.435 134.09 187.818 134.366C186.202 134.643 193.183 128.833 193.106 127.465C193.029 126.097 193.697 124.13 190.537 124.012C187.377 123.893 180.823 132.016 178.187 133.314C175.552 134.612 171.769 133.972 169.505 133.951C164.245 133.902 146.943 122.644 139.897 117.299C132.851 111.953 128.67 114.754 128.67 114.754L130.527 108.61L112.387 111.159C108.429 110.046 108.14 104.802 98.5312 103.752C86.478 102.66 82.9433 109.98 82.9433 109.98C82.9433 109.98 72.5622 116.778 70.7848 124.743C64.6786 147.42 71.8077 154.772 71.8077 154.772C71.8077 154.772 66.3963 188.488 65.8018 189.783C65.2073 191.079 57.1769 196.64 55.3893 198.484C53.6007 200.328 52.2071 202.312 55.7661 202.927C57.7572 203.272 59.0384 202.514 61.6646 201.825C56.9004 207.165 58.8227 209.28 62.4586 211.264C62.9822 211.549 63.5767 211.506 64.2097 211.236C64.4315 214.14 71.6851 215.593 73.8242 207.067C74.6182 203.901 78.3341 200.816 79.5647 201.404C80.7952 201.991 77.7214 212.888 79.8047 214.022C81.888 215.157 83.5206 213.749 84.5881 212.279C85.6556 210.81 87.7136 200.03 88.1248 198.941C88.537 197.853 96.6717 201.009 98.7186 201.006C100.765 201.003 100.55 198.713 100.526 196.897C100.503 195.081 94.8943 194.468 94.6289 193.533C94.3636 192.597 93.844 191.634 92.6044 189.685C91.3647 187.736 89.0778 183.407 90.0592 181.247C91.0416 179.088 93.7407 161.478 94.2137 161.303C115.252 155.444 126.125 138.047 126.125 138.047C126.125 138.047 130.896 136.756 138.221 142.316C145.545 147.876 156.401 152.236 162.1 155.126C167.799 158.015 172.433 156.935 176.09 156.655C185.97 157.509 196.219 142.537 198.182 141.165C200.144 139.794 202.632 139.839 201.509 136.77Z" fill="white"/>
</mask>
<g mask="url(#mask6_2327_12200)">
<path d="M114.712 135.024C113.976 138.483 112.568 141.66 110.498 144.526C110.18 144.966 109.442 144.527 109.769 144.099C111.88 141.328 113.339 138.265 114.152 134.874C114.238 134.509 114.789 134.66 114.712 135.024Z" fill="#452301"/>
</g>
<mask id="mask7_2327_12200" style="mask-type:luminance" maskUnits="userSpaceOnUse" x="53" y="103" width="150" height="112">
<path d="M201.509 136.77C201.266 136.103 200.686 135.796 199.93 135.723C200.468 135.156 200.925 134.639 201.204 134.244C202.544 132.351 202.565 130.086 198.408 128.725C194.25 127.364 189.435 134.09 187.818 134.366C186.202 134.643 193.183 128.833 193.106 127.465C193.029 126.097 193.697 124.13 190.537 124.012C187.377 123.893 180.823 132.016 178.187 133.314C175.552 134.612 171.769 133.972 169.505 133.951C164.245 133.902 146.943 122.644 139.897 117.299C132.851 111.953 128.67 114.754 128.67 114.754L130.527 108.61L112.387 111.159C108.429 110.046 108.14 104.802 98.5312 103.752C86.478 102.66 82.9433 109.98 82.9433 109.98C82.9433 109.98 72.5622 116.778 70.7848 124.743C64.6786 147.42 71.8077 154.772 71.8077 154.772C71.8077 154.772 66.3963 188.488 65.8018 189.783C65.2073 191.079 57.1769 196.64 55.3893 198.484C53.6007 200.328 52.2071 202.312 55.7661 202.927C57.7572 203.272 59.0384 202.514 61.6646 201.825C56.9004 207.165 58.8227 209.28 62.4586 211.264C62.9822 211.549 63.5767 211.506 64.2097 211.236C64.4315 214.14 71.6851 215.593 73.8242 207.067C74.6182 203.901 78.3341 200.816 79.5647 201.404C80.7952 201.991 77.7214 212.888 79.8047 214.022C81.888 215.157 83.5206 213.749 84.5881 212.279C85.6556 210.81 87.7136 200.03 88.1248 198.941C88.537 197.853 96.6717 201.009 98.7186 201.006C100.765 201.003 100.55 198.713 100.526 196.897C100.503 195.081 94.8943 194.468 94.6289 193.533C94.3636 192.597 93.844 191.634 92.6044 189.685C91.3647 187.736 89.0778 183.407 90.0592 181.247C91.0416 179.088 93.7407 161.478 94.2137 161.303C115.252 155.444 126.125 138.047 126.125 138.047C126.125 138.047 130.896 136.756 138.221 142.316C145.545 147.876 156.401 152.236 162.1 155.126C167.799 158.015 172.433 156.935 176.09 156.655C185.97 157.509 196.219 142.537 198.182 141.165C200.144 139.794 202.632 139.839 201.509 136.77Z" fill="white"/>
</mask>
<g mask="url(#mask7_2327_12200)">
<path d="M60.14 202.621C61.6025 200.111 63.5085 197.326 65.919 195.642C66.2745 195.394 66.6391 195.93 66.3636 196.224C65.4004 197.253 64.2975 198.135 63.3556 199.193C62.3296 200.344 61.4201 201.586 60.5957 202.888C60.4144 203.174 59.9688 202.916 60.14 202.621Z" fill="#452301"/>
</g>
<mask id="mask8_2327_12200" style="mask-type:luminance" maskUnits="userSpaceOnUse" x="53" y="103" width="150" height="112">
<path d="M201.509 136.77C201.266 136.103 200.686 135.796 199.93 135.723C200.468 135.156 200.925 134.639 201.204 134.244C202.544 132.351 202.565 130.086 198.408 128.725C194.25 127.364 189.435 134.09 187.818 134.366C186.202 134.643 193.183 128.833 193.106 127.465C193.029 126.097 193.697 124.13 190.537 124.012C187.377 123.893 180.823 132.016 178.187 133.314C175.552 134.612 171.769 133.972 169.505 133.951C164.245 133.902 146.943 122.644 139.897 117.299C132.851 111.953 128.67 114.754 128.67 114.754L130.527 108.61L112.387 111.159C108.429 110.046 108.14 104.802 98.5312 103.752C86.478 102.66 82.9433 109.98 82.9433 109.98C82.9433 109.98 72.5622 116.778 70.7848 124.743C64.6786 147.42 71.8077 154.772 71.8077 154.772C71.8077 154.772 66.3963 188.488 65.8018 189.783C65.2073 191.079 57.1769 196.64 55.3893 198.484C53.6007 200.328 52.2071 202.312 55.7661 202.927C57.7572 203.272 59.0384 202.514 61.6646 201.825C56.9004 207.165 58.8227 209.28 62.4586 211.264C62.9822 211.549 63.5767 211.506 64.2097 211.236C64.4315 214.14 71.6851 215.593 73.8242 207.067C74.6182 203.901 78.3341 200.816 79.5647 201.404C80.7952 201.991 77.7214 212.888 79.8047 214.022C81.888 215.157 83.5206 213.749 84.5881 212.279C85.6556 210.81 87.7136 200.03 88.1248 198.941C88.537 197.853 96.6717 201.009 98.7186 201.006C100.765 201.003 100.55 198.713 100.526 196.897C100.503 195.081 94.8943 194.468 94.6289 193.533C94.3636 192.597 93.844 191.634 92.6044 189.685C91.3647 187.736 89.0778 183.407 90.0592 181.247C91.0416 179.088 93.7407 161.478 94.2137 161.303C115.252 155.444 126.125 138.047 126.125 138.047C126.125 138.047 130.896 136.756 138.221 142.316C145.545 147.876 156.401 152.236 162.1 155.126C167.799 158.015 172.433 156.935 176.09 156.655C185.97 157.509 196.219 142.537 198.182 141.165C200.144 139.794 202.632 139.839 201.509 136.77Z" fill="white"/>
</mask>
<g mask="url(#mask8_2327_12200)">
<path d="M61.8301 213.979C63.958 208.724 66.4809 203.696 69.7593 199.063C70.1259 198.545 70.9747 199.018 70.6242 199.571C67.6274 204.312 64.8301 209.149 62.5533 214.282C62.375 214.685 61.662 214.393 61.8301 213.979Z" fill="#452301"/>
</g>
<mask id="mask9_2327_12200" style="mask-type:luminance" maskUnits="userSpaceOnUse" x="53" y="103" width="150" height="112">
<path d="M201.509 136.77C201.266 136.103 200.686 135.796 199.93 135.723C200.468 135.156 200.925 134.639 201.204 134.244C202.544 132.351 202.565 130.086 198.408 128.725C194.25 127.364 189.435 134.09 187.818 134.366C186.202 134.643 193.183 128.833 193.106 127.465C193.029 126.097 193.697 124.13 190.537 124.012C187.377 123.893 180.823 132.016 178.187 133.314C175.552 134.612 171.769 133.972 169.505 133.951C164.245 133.902 146.943 122.644 139.897 117.299C132.851 111.953 128.67 114.754 128.67 114.754L130.527 108.61L112.387 111.159C108.429 110.046 108.14 104.802 98.5312 103.752C86.478 102.66 82.9433 109.98 82.9433 109.98C82.9433 109.98 72.5622 116.778 70.7848 124.743C64.6786 147.42 71.8077 154.772 71.8077 154.772C71.8077 154.772 66.3963 188.488 65.8018 189.783C65.2073 191.079 57.1769 196.64 55.3893 198.484C53.6007 200.328 52.2071 202.312 55.7661 202.927C57.7572 203.272 59.0384 202.514 61.6646 201.825C56.9004 207.165 58.8227 209.28 62.4586 211.264C62.9822 211.549 63.5767 211.506 64.2097 211.236C64.4315 214.14 71.6851 215.593 73.8242 207.067C74.6182 203.901 78.3341 200.816 79.5647 201.404C80.7952 201.991 77.7214 212.888 79.8047 214.022C81.888 215.157 83.5206 213.749 84.5881 212.279C85.6556 210.81 87.7136 200.03 88.1248 198.941C88.537 197.853 96.6717 201.009 98.7186 201.006C100.765 201.003 100.55 198.713 100.526 196.897C100.503 195.081 94.8943 194.468 94.6289 193.533C94.3636 192.597 93.844 191.634 92.6044 189.685C91.3647 187.736 89.0778 183.407 90.0592 181.247C91.0416 179.088 93.7407 161.478 94.2137 161.303C115.252 155.444 126.125 138.047 126.125 138.047C126.125 138.047 130.896 136.756 138.221 142.316C145.545 147.876 156.401 152.236 162.1 155.126C167.799 158.015 172.433 156.935 176.09 156.655C185.97 157.509 196.219 142.537 198.182 141.165C200.144 139.794 202.632 139.839 201.509 136.77Z" fill="white"/>
</mask>
<g mask="url(#mask9_2327_12200)">
<path d="M175.266 139.171C177.498 137.877 185.014 133.043 184.553 139.08C184.313 142.231 181.488 143.432 180.544 146.416C179.516 149.665 178.627 151.896 175.567 153.77C175.103 154.055 174.667 153.303 175.144 153.039C178.023 151.452 179.109 149.299 180.004 146.271C180.488 144.633 180.914 143.666 182.188 142.489C183.569 141.214 185.411 138.76 183.081 137.319C180.84 135.933 177.584 138.88 175.716 139.948C175.212 140.236 174.766 139.462 175.266 139.171Z" fill="#452301"/>
</g>
<mask id="mask10_2327_12200" style="mask-type:luminance" maskUnits="userSpaceOnUse" x="53" y="103" width="150" height="112">
<path d="M201.509 136.77C201.266 136.103 200.686 135.796 199.93 135.723C200.468 135.156 200.925 134.639 201.204 134.244C202.544 132.351 202.565 130.086 198.408 128.725C194.25 127.364 189.435 134.09 187.818 134.366C186.202 134.643 193.183 128.833 193.106 127.465C193.029 126.097 193.697 124.13 190.537 124.012C187.377 123.893 180.823 132.016 178.187 133.314C175.552 134.612 171.769 133.972 169.505 133.951C164.245 133.902 146.943 122.644 139.897 117.299C132.851 111.953 128.67 114.754 128.67 114.754L130.527 108.61L112.387 111.159C108.429 110.046 108.14 104.802 98.5312 103.752C86.478 102.66 82.9433 109.98 82.9433 109.98C82.9433 109.98 72.5622 116.778 70.7848 124.743C64.6786 147.42 71.8077 154.772 71.8077 154.772C71.8077 154.772 66.3963 188.488 65.8018 189.783C65.2073 191.079 57.1769 196.64 55.3893 198.484C53.6007 200.328 52.2071 202.312 55.7661 202.927C57.7572 203.272 59.0384 202.514 61.6646 201.825C56.9004 207.165 58.8227 209.28 62.4586 211.264C62.9822 211.549 63.5767 211.506 64.2097 211.236C64.4315 214.14 71.6851 215.593 73.8242 207.067C74.6182 203.901 78.3341 200.816 79.5647 201.404C80.7952 201.991 77.7214 212.888 79.8047 214.022C81.888 215.157 83.5206 213.749 84.5881 212.279C85.6556 210.81 87.7136 200.03 88.1248 198.941C88.537 197.853 96.6717 201.009 98.7186 201.006C100.765 201.003 100.55 198.713 100.526 196.897C100.503 195.081 94.8943 194.468 94.6289 193.533C94.3636 192.597 93.844 191.634 92.6044 189.685C91.3647 187.736 89.0778 183.407 90.0592 181.247C91.0416 179.088 93.7407 161.478 94.2137 161.303C115.252 155.444 126.125 138.047 126.125 138.047C126.125 138.047 130.896 136.756 138.221 142.316C145.545 147.876 156.401 152.236 162.1 155.126C167.799 158.015 172.433 156.935 176.09 156.655C185.97 157.509 196.219 142.537 198.182 141.165C200.144 139.794 202.632 139.839 201.509 136.77Z" fill="white"/>
</mask>
<g mask="url(#mask10_2327_12200)">
<path d="M185.531 135.96C189.843 136.558 193.641 138.657 196.448 141.985C196.753 142.348 196.224 142.873 195.922 142.505C193.227 139.227 189.576 137.156 185.381 136.521C185.009 136.466 185.166 135.91 185.531 135.96Z" fill="#452301"/>
</g>
<mask id="mask11_2327_12200" style="mask-type:luminance" maskUnits="userSpaceOnUse" x="53" y="103" width="150" height="112">
<path d="M201.509 136.77C201.266 136.103 200.686 135.796 199.93 135.723C200.468 135.156 200.925 134.639 201.204 134.244C202.544 132.351 202.565 130.086 198.408 128.725C194.25 127.364 189.435 134.09 187.818 134.366C186.202 134.643 193.183 128.833 193.106 127.465C193.029 126.097 193.697 124.13 190.537 124.012C187.377 123.893 180.823 132.016 178.187 133.314C175.552 134.612 171.769 133.972 169.505 133.951C164.245 133.902 146.943 122.644 139.897 117.299C132.851 111.953 128.67 114.754 128.67 114.754L130.527 108.61L112.387 111.159C108.429 110.046 108.14 104.802 98.5312 103.752C86.478 102.66 82.9433 109.98 82.9433 109.98C82.9433 109.98 72.5622 116.778 70.7848 124.743C64.6786 147.42 71.8077 154.772 71.8077 154.772C71.8077 154.772 66.3963 188.488 65.8018 189.783C65.2073 191.079 57.1769 196.64 55.3893 198.484C53.6007 200.328 52.2071 202.312 55.7661 202.927C57.7572 203.272 59.0384 202.514 61.6646 201.825C56.9004 207.165 58.8227 209.28 62.4586 211.264C62.9822 211.549 63.5767 211.506 64.2097 211.236C64.4315 214.14 71.6851 215.593 73.8242 207.067C74.6182 203.901 78.3341 200.816 79.5647 201.404C80.7952 201.991 77.7214 212.888 79.8047 214.022C81.888 215.157 83.5206 213.749 84.5881 212.279C85.6556 210.81 87.7136 200.03 88.1248 198.941C88.537 197.853 96.6717 201.009 98.7186 201.006C100.765 201.003 100.55 198.713 100.526 196.897C100.503 195.081 94.8943 194.468 94.6289 193.533C94.3636 192.597 93.844 191.634 92.6044 189.685C91.3647 187.736 89.0778 183.407 90.0592 181.247C91.0416 179.088 93.7407 161.478 94.2137 161.303C115.252 155.444 126.125 138.047 126.125 138.047C126.125 138.047 130.896 136.756 138.221 142.316C145.545 147.876 156.401 152.236 162.1 155.126C167.799 158.015 172.433 156.935 176.09 156.655C185.97 157.509 196.219 142.537 198.182 141.165C200.144 139.794 202.632 139.839 201.509 136.77Z" fill="white"/>
</mask>
<g mask="url(#mask11_2327_12200)">
<path d="M191.636 137.767C192.68 136.524 193.85 135.428 195.19 134.507C197.016 133.253 199.074 132.181 198.695 129.583C198.647 129.259 199.098 128.99 199.275 129.341C200.049 130.877 199.153 132.513 197.962 133.56C196.047 135.243 193.899 136.361 192.232 138.367C191.885 138.785 191.289 138.182 191.636 137.767Z" fill="#452301"/>
</g>
<mask id="mask12_2327_12200" style="mask-type:luminance" maskUnits="userSpaceOnUse" x="53" y="103" width="150" height="112">
<path d="M201.509 136.77C201.266 136.103 200.686 135.796 199.93 135.723C200.468 135.156 200.925 134.639 201.204 134.244C202.544 132.351 202.565 130.086 198.408 128.725C194.25 127.364 189.435 134.09 187.818 134.366C186.202 134.643 193.183 128.833 193.106 127.465C193.029 126.097 193.697 124.13 190.537 124.012C187.377 123.893 180.823 132.016 178.187 133.314C175.552 134.612 171.769 133.972 169.505 133.951C164.245 133.902 146.943 122.644 139.897 117.299C132.851 111.953 128.67 114.754 128.67 114.754L130.527 108.61L112.387 111.159C108.429 110.046 108.14 104.802 98.5312 103.752C86.478 102.66 82.9433 109.98 82.9433 109.98C82.9433 109.98 72.5622 116.778 70.7848 124.743C64.6786 147.42 71.8077 154.772 71.8077 154.772C71.8077 154.772 66.3963 188.488 65.8018 189.783C65.2073 191.079 57.1769 196.64 55.3893 198.484C53.6007 200.328 52.2071 202.312 55.7661 202.927C57.7572 203.272 59.0384 202.514 61.6646 201.825C56.9004 207.165 58.8227 209.28 62.4586 211.264C62.9822 211.549 63.5767 211.506 64.2097 211.236C64.4315 214.14 71.6851 215.593 73.8242 207.067C74.6182 203.901 78.3341 200.816 79.5647 201.404C80.7952 201.991 77.7214 212.888 79.8047 214.022C81.888 215.157 83.5206 213.749 84.5881 212.279C85.6556 210.81 87.7136 200.03 88.1248 198.941C88.537 197.853 96.6717 201.009 98.7186 201.006C100.765 201.003 100.55 198.713 100.526 196.897C100.503 195.081 94.8943 194.468 94.6289 193.533C94.3636 192.597 93.844 191.634 92.6044 189.685C91.3647 187.736 89.0778 183.407 90.0592 181.247C91.0416 179.088 93.7407 161.478 94.2137 161.303C115.252 155.444 126.125 138.047 126.125 138.047C126.125 138.047 130.896 136.756 138.221 142.316C145.545 147.876 156.401 152.236 162.1 155.126C167.799 158.015 172.433 156.935 176.09 156.655C185.97 157.509 196.219 142.537 198.182 141.165C200.144 139.794 202.632 139.839 201.509 136.77Z" fill="white"/>
</mask>
<g mask="url(#mask12_2327_12200)">
<path d="M194.264 140.091C195.484 139.175 196.706 138.259 197.926 137.343C199.131 136.44 200.459 135.639 201.222 134.302C201.379 134.026 201.878 134.214 201.752 134.524C201.286 135.679 200.294 136.367 199.329 137.099C197.755 138.294 196.18 139.489 194.606 140.685C194.257 140.952 193.913 140.354 194.264 140.091Z" fill="#452301"/>
</g>
<path d="M140.127 117.469C140.05 117.411 139.968 117.35 139.894 117.293C132.848 111.948 128.667 114.748 128.667 114.748L130.525 108.605L112.385 111.154C110.12 110.517 109.054 108.528 106.759 106.745L87.0203 105.926C86.3711 106.319 85.8101 106.731 85.332 107.136C88.2276 108.462 90.9024 110.478 93.3088 112.591C97.4957 116.267 101.444 120.457 106.583 122.608C110.996 124.456 115.94 124.631 120.703 124.184C127.547 123.544 134.57 121.378 140.127 117.469Z" fill="#6B441F"/>
<path d="M103.647 112.809C107.522 114.679 109.889 118.691 112.984 121.544C113.417 121.943 112.838 122.714 112.342 122.37C108.802 119.912 107.149 115.553 103.247 113.492C102.792 113.253 103.192 112.591 103.647 112.809Z" fill="#452301"/>
<path d="M117.939 121.27C120.27 120.576 122.301 119.404 124.519 118.464C124.92 118.294 125.424 118.786 125.028 119.131C123.14 120.776 120.607 121.645 118.218 122.289C117.559 122.465 117.288 121.463 117.939 121.27Z" fill="#452301"/>
<path d="M152.128 14.2822C134.774 -1.44543 114.347 0.0373157 114.347 0.0373157C87.0687 1.34888 62.6341 17.3935 66.3328 50.3245C67.5593 67.4295 72.5514 73.0586 72.5514 73.0586C72.5514 73.0586 56.7629 62.875 54.8285 76.5284C52.8941 90.1829 70.3151 105.068 78.2909 94.6098C78.2463 95.1709 87.8324 111.478 105.595 111.123C109.521 112.111 113.316 114.783 122.765 114.666C127.005 114.615 129.841 113.272 131.687 111.808C135.845 112.462 141.781 112.382 147.821 108.872C158.913 102.426 157.55 90.6802 156.945 83.8266C156.343 76.972 174.975 36.5404 152.128 14.2822Z" fill="#805731"/>
<path d="M113.86 66.9492C117.606 73.8402 115.501 82.1249 109.159 85.4549C102.817 88.784 94.6398 85.8965 90.8945 79.0065C87.1492 72.1154 89.2527 63.8308 95.5948 60.5007C101.937 57.1707 110.114 60.0581 113.86 66.9492Z" fill="white"/>
<path d="M113.862 66.9502C111.686 62.9487 108.015 60.3094 104.078 59.4414C99.8131 60.6861 96.5276 64.6937 96.1266 69.7759C95.6101 76.3277 100.076 82.1644 106.103 82.8116C109.319 83.1569 112.322 81.9446 114.508 79.7509C116.248 75.9388 116.163 71.1837 113.862 66.9502Z" fill="#381D04"/>
<path d="M96.3246 62.4217C94.4651 63.074 94.4114 66.6795 94.8084 67.7723C95.0707 68.4944 97.704 67.9232 99.4592 67.4523C100.324 67.2203 100.739 66.1569 100.304 65.3011C99.5149 63.7525 98.1213 61.7918 96.3246 62.4217Z" fill="white"/>
<g opacity="0.38">
<path d="M98.54 65.1816C103.101 63.6847 108.121 63.7525 112.747 65.2211C108.662 59.6072 101.371 57.4682 95.5927 60.5015C90.9126 62.9585 88.5508 68.1146 89.1342 73.4176C89.4907 72.421 89.9697 71.471 90.5774 70.6284C92.5118 67.9455 95.4499 66.1954 98.54 65.1816Z" fill="#BCBEC0"/>
</g>
<path d="M90.7949 79.0588C88.4757 76.3536 87.2026 72.5547 87.7849 68.6716C88.0199 66.7291 88.7896 64.8058 89.929 63.0577C91.1079 61.3289 92.7668 59.8451 94.677 58.8121C98.5722 56.7723 103.333 56.8837 106.837 58.6885C108.603 59.5737 110.143 60.7526 111.385 62.1361C112.536 63.5996 113.501 65.1633 113.96 66.8962L113.758 67.0015C112.092 64.0006 109.409 61.5183 106.108 60.2361C102.843 58.9326 98.8983 58.96 95.6948 60.6878C92.4539 62.3447 90.2369 65.5512 89.5239 68.9431C88.7724 72.3521 89.3811 75.9232 90.9934 78.9525L90.7949 79.0588Z" fill="#452301"/>
<path d="M155.194 76.5601C156.719 69.1218 152.749 62.0249 146.328 60.7086C139.907 59.3924 133.465 64.3553 131.94 71.7935C130.416 79.2318 134.385 86.3287 140.806 87.645C147.228 88.9612 153.669 83.9983 155.194 76.5601Z" fill="white"/>
<path d="M135.718 71.0965C135.201 77.6482 139.112 83.4252 144.451 83.9984C149.79 84.5727 154.537 79.7265 155.054 73.1747C155.57 66.623 151.66 60.846 146.321 60.2728C140.98 59.6985 136.233 64.5447 135.718 71.0965Z" fill="#381D04"/>
<path d="M155.005 67.3991C156.527 68.415 156.043 71.9739 155.537 72.9705C155.202 73.6288 152.995 72.537 151.537 71.7207C150.818 71.3186 150.614 70.1884 151.119 69.4338C152.033 68.0676 153.534 66.4167 155.005 67.3991Z" fill="white"/>
<g opacity="0.38">
<path d="M148.073 67.2654C144.325 64.8752 139.946 63.9333 135.703 64.4488C140.085 59.7454 146.746 59.1053 151.327 63.2527C155.038 66.6111 156.334 72.1612 155.045 77.2627C154.882 76.2104 154.606 75.1794 154.201 74.2273C152.912 71.1981 150.612 68.8848 148.073 67.2654Z" fill="#BCBEC0"/>
</g>
<path d="M152.769 82.4789C155.187 80.2822 156.854 76.8002 156.92 72.8615C157.002 70.9027 156.616 68.8549 155.881 66.9052C155.11 64.9668 153.884 63.1731 152.374 61.7724C149.284 58.9822 145.126 58.1345 141.811 59.206C140.143 59.7225 138.629 60.5722 137.345 61.6853C136.127 62.8946 135.057 64.2396 134.402 65.853L134.562 65.9978C136.454 63.3797 139.155 61.4757 142.216 60.8771C145.249 60.2502 148.679 61.0705 151.212 63.4141C153.788 65.696 155.245 69.2975 155.365 72.7794C155.516 76.2847 154.461 79.6776 152.611 82.3351L152.769 82.4789Z" fill="#452301"/>
<path d="M123.71 77.8478C126.132 77.4589 128.793 77.0761 131.027 78.3684C132.675 79.3214 133.714 81.1151 133.756 83.0171C133.855 87.5281 127.738 89.344 124.427 87.0652C123.943 86.732 124.255 86.0666 124.811 86.1487C126.436 86.3877 127.771 86.7928 129.415 86.3502C131.298 85.8438 132.722 84.5545 132.592 82.4702C132.309 77.9197 127.07 78.0564 123.796 78.4717C123.444 78.5142 123.357 77.9045 123.71 77.8478Z" fill="#452301"/>
<path d="M123.007 85.516C121.489 85.7824 120.571 87.3401 118.865 86.8226C117.582 86.4336 116.861 84.7484 117.992 83.773C118.31 83.4986 118.877 83.7558 118.741 84.2085C118.57 84.7767 118.779 85.2922 119.297 85.5657C119.816 85.8391 120.383 85.591 120.857 85.355C121.529 85.0208 122.122 84.6906 122.885 84.6349C123.386 84.5974 123.509 85.4269 123.007 85.516Z" fill="#452301"/>
<path d="M126.891 77.9937C126.314 76.7004 126.172 75.481 126.717 74.1553C126.857 73.814 127.502 73.7927 127.444 74.2484C127.302 75.3585 127.402 76.5667 127.808 77.6109C128.013 78.1365 127.123 78.5143 126.891 77.9937Z" fill="#452301"/>
<path d="M57.9526 83.6583C56.168 78.7361 60.5595 74.4834 65.4847 75.9499C71.4794 77.7355 73.9476 85.2524 73.8159 90.8471C73.7936 91.79 72.3119 91.7961 72.3535 90.8572C72.5368 86.7575 71.4612 82.3204 68.5687 79.2587C67.1143 77.7183 64.9672 76.4695 62.7674 76.6589C59.3057 76.9577 57.673 80.4275 58.6838 83.4578C58.8398 83.9247 58.1166 84.112 57.9526 83.6583Z" fill="#452301"/>
<path d="M71.6769 85.1363C70.6226 84.1063 69.0092 83.8875 67.725 84.644C66.4924 85.3702 65.9556 86.6129 65.4958 87.8921C65.3044 88.4258 64.3848 88.4076 64.4314 87.7564C64.7028 83.9077 69.4842 81.3008 72.3322 84.4881C72.7241 84.9276 72.1043 85.5536 71.6769 85.1363Z" fill="#452301"/>
<path d="M114.799 39.7472C113.263 38.4569 111.077 38.4366 109.096 38.4862C107.043 38.5369 104.961 38.5926 103.014 39.1851C99.9043 40.132 97.4057 42.3622 95.1796 44.6855C93.0477 46.9106 91.0423 49.3332 89.6406 52.0597C89.7561 51.9594 89.8705 51.8581 89.983 51.7568C95.2495 47.0403 101.168 42.2508 108.34 41.7707C110.357 41.636 112.401 41.8538 114.412 41.6553C114.721 41.6249 115.058 41.5712 115.263 41.3433C115.67 40.8916 115.279 40.1502 114.799 39.7472Z" fill="#452301"/>
<path d="M136.567 43.1387C137.268 41.6894 138.826 41.3704 140.258 41.1466C141.742 40.9136 143.249 40.6817 144.826 40.9835C147.342 41.4656 149.818 43.2643 152.128 45.1886C154.34 47.0319 156.522 49.0828 158.366 51.5074C158.252 51.4274 158.139 51.3454 158.027 51.2644C152.804 47.4593 147.091 43.6735 141.814 44.1961C140.329 44.343 138.934 44.8331 137.434 44.9182C137.202 44.9314 136.946 44.9253 136.728 44.7349C136.297 44.3571 136.349 43.5915 136.567 43.1387Z" fill="#452301"/>
<path d="M111.352 21.2396C111.773 21.0087 112.184 20.7616 112.583 20.4922C112.173 20.7413 111.762 20.9905 111.352 21.2396Z" fill="#634224"/>
<path d="M158.215 22.1699C156.629 19.3685 154.627 16.717 152.128 14.2822C134.774 -1.44543 114.347 0.0373157 114.347 0.0373157C97.2237 0.860716 81.2246 7.49348 72.5977 20.4603C74.6567 19.1538 76.8919 18.1157 79.2436 17.4026C86.4081 15.2322 94.1833 16.0101 101.719 16.8071C98.6811 18.4873 95.2255 19.4454 91.709 19.5842C97.2652 23.8997 105.365 24.5165 111.35 21.2381C109.794 22.182 108.238 23.1269 106.682 24.0709C108.566 26.5836 112.444 26.06 115.299 24.9176C118.307 23.7134 121.166 22.0777 123.663 20.043C123.13 21.9977 122.369 23.8855 121.363 25.6356C124.707 25.2001 128.098 24.4183 130.813 22.4909C133.527 20.5636 135.446 17.2801 134.948 13.9429C139.71 14.6225 144.504 15.3892 149.032 17.0856C152.316 18.3152 155.413 20.047 158.215 22.1699Z" fill="#634224"/>
<path d="M84.1873 15.7342L80.1595 12.082C70.227 20.3727 64.3883 33.0124 66.3328 50.3251C67.1127 61.1964 69.4117 67.4271 70.9846 70.5282C72.1473 71.458 73.2684 72.4242 74.1688 73.598C74.6874 74.2746 75.1482 75.0331 75.8743 75.4828C76.5995 75.9325 77.7065 75.9183 78.1146 75.1982C76.9246 73.9596 76.007 72.4657 75.449 70.8574C76.872 70.6751 77.7784 73.3246 79.091 72.7736C80.1838 72.3148 79.3877 70.6771 78.5967 69.7585C75.2221 65.841 74.0848 60.5087 73.9572 55.4326C73.8285 50.3565 74.581 45.3127 74.42 40.2366C74.2995 36.4488 73.6756 32.5941 74.4656 28.9136C75.6434 23.4405 79.7777 19.1533 84.1873 15.7342Z" fill="#634224"/>
<path d="M109.531 93.1479C110.403 91.577 111.815 90.2239 113.539 89.6466C114.016 89.4876 114.347 90.2503 113.883 90.468C112.355 91.182 111.098 92.0783 110.214 93.5479C109.951 93.9854 109.283 93.5945 109.531 93.1479Z" fill="#452301"/>
<path d="M113.213 90.1934C116.151 90.4273 118.654 91.8767 121.489 92.5613C126.777 93.8384 131.622 92.8419 135.724 89.2404C136.206 88.817 136.88 89.4834 136.429 89.9534C134.011 92.4732 130.884 93.878 127.402 94.2C122.07 94.6922 118.266 91.5961 113.219 91.0381C112.69 90.9793 112.666 90.1498 113.213 90.1934Z" fill="#452301"/>
<path d="M136.331 88.9231C137.377 89.305 138.232 89.9572 138.886 90.8586C139.242 91.3488 138.406 91.844 138.064 91.3336C137.587 90.6236 136.907 90.0625 136.113 89.7395C135.621 89.5389 135.813 88.7338 136.331 88.9231Z" fill="#452301"/>
<path d="M124.596 97.0934C126.498 97.3294 128.009 96.7794 129.559 95.72C129.908 95.481 130.303 96.0158 130.003 96.3024C128.598 97.6494 126.489 98.1183 124.602 97.8844C124.103 97.8236 124.092 97.0316 124.596 97.0934Z" fill="#452301"/>
<mask id="mask13_2327_12200" style="mask-type:luminance" maskUnits="userSpaceOnUse" x="7" y="127" width="54" height="60">
<path d="M41.047 127.093C47.4721 126.107 62.1677 149.36 59.8272 158.513C57.4866 167.665 46.1909 186.673 36.4226 186.746C26.6542 186.819 23.9753 186.526 21.3664 183.104C18.7574 179.683 17.3851 172.405 17.3851 172.405C17.3851 172.405 15.1438 173.799 13.7968 170.957C13.4474 171.394 9.79423 174.481 7.99956 171.591C6.20591 168.7 9.63623 167.648 9.63623 167.648C9.63623 167.648 10.3158 162.809 11.4157 161.026C12.5146 159.245 12.6584 160.687 13.975 158.295C15.2917 155.903 12.8954 150.251 18.2217 147.03C23.5479 143.808 26.4992 147.142 26.4992 147.142C26.4992 147.142 32.9183 128.34 41.047 127.093Z" fill="white"/>
</mask>
<g mask="url(#mask13_2327_12200)">
<path d="M41.047 127.093C47.4721 126.107 62.1677 149.36 59.8272 158.513C57.4866 167.665 46.1909 186.673 36.4226 186.746C26.6542 186.819 23.9753 186.526 21.3664 183.104C18.7574 179.683 17.3851 172.405 17.3851 172.405C17.3851 172.405 15.1438 173.799 13.7968 170.957C13.4474 171.394 9.79423 174.481 7.99956 171.591C6.20591 168.7 9.63623 167.648 9.63623 167.648C9.63623 167.648 10.3158 162.809 11.4157 161.026C12.5146 159.245 12.6584 160.687 13.975 158.295C15.2917 155.903 12.8954 150.251 18.2217 147.03C23.5479 143.808 26.4992 147.142 26.4992 147.142C26.4992 147.142 32.9183 128.34 41.047 127.093Z" fill="#805731"/>
</g>
<mask id="mask14_2327_12200" style="mask-type:luminance" maskUnits="userSpaceOnUse" x="7" y="127" width="54" height="60">
<path d="M41.047 127.093C47.4721 126.107 62.1677 149.36 59.8272 158.513C57.4866 167.665 46.1909 186.673 36.4226 186.746C26.6542 186.819 23.9753 186.526 21.3664 183.104C18.7574 179.683 17.3851 172.405 17.3851 172.405C17.3851 172.405 15.1438 173.799 13.7968 170.957C13.4474 171.394 9.79423 174.481 7.99956 171.591C6.20591 168.7 9.63623 167.648 9.63623 167.648C9.63623 167.648 10.3158 162.809 11.4157 161.026C12.5146 159.245 12.6584 160.687 13.975 158.295C15.2917 155.903 12.8954 150.251 18.2217 147.03C23.5479 143.808 26.4992 147.142 26.4992 147.142C26.4992 147.142 32.9183 128.34 41.047 127.093Z" fill="white"/>
</mask>
<g mask="url(#mask14_2327_12200)">
<path d="M22.6993 161.048C22.8066 154.073 24.097 146.315 28.2545 140.531C28.4246 140.294 28.8945 140.426 28.772 140.748C26.158 147.597 23.7647 153.576 23.472 161.042C23.4518 161.538 22.6912 161.547 22.6993 161.048Z" fill="#452301"/>
</g>
<mask id="mask15_2327_12200" style="mask-type:luminance" maskUnits="userSpaceOnUse" x="7" y="127" width="54" height="60">
<path d="M41.047 127.093C47.4721 126.107 62.1677 149.36 59.8272 158.513C57.4866 167.665 46.1909 186.673 36.4226 186.746C26.6542 186.819 23.9753 186.526 21.3664 183.104C18.7574 179.683 17.3851 172.405 17.3851 172.405C17.3851 172.405 15.1438 173.799 13.7968 170.957C13.4474 171.394 9.79423 174.481 7.99956 171.591C6.20591 168.7 9.63623 167.648 9.63623 167.648C9.63623 167.648 10.3158 162.809 11.4157 161.026C12.5146 159.245 12.6584 160.687 13.975 158.295C15.2917 155.903 12.8954 150.251 18.2217 147.03C23.5479 143.808 26.4992 147.142 26.4992 147.142C26.4992 147.142 32.9183 128.34 41.047 127.093Z" fill="white"/>
</mask>
<g mask="url(#mask15_2327_12200)">
<path d="M16.9386 163.811C16.812 168.251 17.5736 172.493 18.5388 176.808C18.7272 177.649 17.5048 177.986 17.2475 177.162C15.9025 172.836 15.8185 168.301 16.2692 163.816C16.3117 163.398 16.9518 163.373 16.9386 163.811Z" fill="#452301"/>
</g>
<path d="M57.4508 134.052C56.435 131.445 54.9684 128.762 52.9793 126.778C50.9325 124.736 48.7833 124.238 46.2058 123.246C45.7662 123.077 45.8178 122.453 46.3121 122.416C48.8927 122.219 51.5989 124.187 53.2933 125.977C55.4738 128.279 56.6061 131.058 57.5328 134.03C57.548 134.082 57.47 134.102 57.4508 134.052Z" fill="#8A979E"/>
<path d="M56.8876 128.781C56.2536 126.436 54.8175 125.005 53.1504 123.353C52.798 123.004 53.2477 122.484 53.6649 122.692C55.8212 123.768 57.1003 126.323 57.55 128.6C57.6341 129.029 57.0041 129.212 56.8876 128.781Z" fill="#8A979E"/>
</svg>
