<svg width="273" height="273" viewBox="0 0 273 273" fill="none" xmlns="http://www.w3.org/2000/svg">
<path d="M27.5441 189.234L28.6498 189.147C29.8122 189.056 30.8392 189.9 30.9757 191.058L32.4144 203.268C32.4592 203.646 32.1802 203.985 31.8007 204.015C31.4316 204.044 31.1554 204.367 31.1843 204.736L35.7472 254.344C35.7762 254.713 35.5004 255.036 35.1313 255.065L31.4256 255.356C31.0565 255.385 30.7333 255.11 30.7044 254.74L27.4721 205.028C27.4431 204.659 27.1204 204.382 26.7508 204.412C26.3713 204.442 26.0432 204.15 26.0284 203.77L25.5447 191.485C25.4988 190.319 26.3817 189.325 27.5441 189.234Z" fill="#C7C7C7"/>
<path opacity="0.6" d="M59.0418 258.361H26.8082L22.4609 209.742H63.3885L59.0418 258.361Z" fill="#EBEBEB"/>
<path d="M63.3896 209.742L59.0429 258.361H26.8076L22.4609 209.742H25.5426L29.8893 254.979H55.9569L60.3036 209.742H63.3896Z" fill="#DBDBDB"/>
<path d="M26.6406 256.438H59.2183L59.0474 258.36H26.8115L26.6406 256.438Z" fill="#EBEBEB"/>
<path opacity="0.4" d="M36.8382 246.2H31.7789L28.9141 209.742H33.9733L36.8382 246.2Z" fill="white"/>
<path d="M43.4655 255.18L41.2379 255.392C40.771 255.437 40.3566 255.094 40.3118 254.628L34.1835 190.4C34.1393 189.933 34.4811 189.519 34.9479 189.474L36.1502 189.359C36.6171 189.315 37.0315 189.657 37.0762 190.124L38.2605 202.536L44.2278 254.237C44.2829 254.71 43.9389 255.134 43.4655 255.18Z" fill="#C7C7C7"/>
<path d="M40.785 200.959L40.4202 200.658L40.7211 200.293L40.3569 199.992L40.6577 199.628L40.2936 199.327L40.5944 198.963L40.2297 198.661L40.5311 198.297L40.1663 197.996L40.4672 197.631L40.103 197.331L40.4038 196.966L40.0397 196.665L40.3405 196.301L39.9758 196L40.2766 195.635L39.9124 195.334L40.2133 194.97L39.8491 194.669L40.15 194.305L39.7852 194.003L40.0866 193.639L39.7219 193.338L40.0227 192.973L39.6586 192.673L39.9594 192.308L39.5947 192.007L39.8961 191.643L39.5313 191.342L39.8322 190.977L39.468 190.676L39.7689 190.312L39.4047 190.011L39.7072 189.645L37.0547 189.897L38.198 201.88L40.8505 201.627V201.626L40.4836 201.323L40.785 200.959Z" fill="#EBEBEB"/>
<g opacity="0.1">
<path d="M136.504 232.778C193.064 232.778 238.915 186.927 238.915 130.368C238.915 73.8078 193.064 27.957 136.504 27.957C79.9445 27.957 34.0938 73.8078 34.0938 130.368C34.0938 186.927 79.9445 232.778 136.504 232.778Z" fill="black"/>
</g>
<path d="M136.504 228.555C193.064 228.555 238.915 182.705 238.915 126.145C238.915 69.5851 193.064 23.7344 136.504 23.7344C79.9445 23.7344 34.0938 69.5851 34.0938 126.145C34.0938 182.705 79.9445 228.555 136.504 228.555Z" fill="white"/>
<path d="M238.913 126.145C239.402 166.729 213.367 205.689 175.736 220.865C108.426 248.842 33.8083 199.04 33.8203 126.145C33.805 53.2505 108.431 3.44489 175.737 31.4247C213.364 46.604 239.406 85.5595 238.913 126.145ZM238.913 126.145C239.334 85.5988 213.274 46.7116 175.657 31.6147C108.559 3.84947 34.2467 53.5033 34.3647 126.146C34.2435 198.788 108.564 248.445 175.659 220.677C213.271 205.576 239.337 166.693 238.913 126.145Z" fill="#C7C7C7"/>
<path d="M139.852 131.014C141.99 142.178 171.689 195.514 179.238 196.651C186.787 197.787 202.262 192.015 199.64 179.465C197.017 166.917 159.337 132.054 152.353 126.998C145.369 121.942 138.109 121.911 139.852 131.014Z" fill="#FBAFA5"/>
<path d="M180.522 148.936L154.474 168.1C154.474 168.1 144.345 153.113 137.848 137.132C131.351 121.151 140.517 117.274 152.578 125.054C164.639 132.834 180.522 148.936 180.522 148.936Z" fill="#7B6EB9"/>
<path d="M151.951 160.582C158.926 155.219 165.91 149.744 173.401 145.125C173.512 145.057 173.589 145.182 173.487 145.262C166.573 150.707 160.9 155.215 152.046 160.732C151.924 160.808 151.838 160.669 151.951 160.582Z" fill="#263238"/>
<path opacity="0.1" d="M167.877 158.237L154.471 168.102C154.471 168.102 144.345 153.113 137.845 137.132C134.044 127.771 135.611 122.56 139.987 121.418L167.877 158.237Z" fill="black"/>
<path d="M181.321 218.252C167.786 224.854 152.574 228.555 136.5 228.555C119.678 228.555 103.806 224.499 89.8008 217.313C92.2578 207.867 95.0915 198.787 97.9471 190.488H170.696C170.696 190.488 175.643 201.37 181.321 218.252Z" fill="#7B6EB9"/>
<path opacity="0.1" d="M173.144 196.227L139.592 205.154L131.621 197.286L123.027 206.502L95.7539 197.051C96.4801 194.818 97.2117 192.629 97.9488 190.488H170.698C170.698 190.488 171.626 192.536 173.144 196.227Z" fill="black"/>
<path d="M184.787 58.2543C184.787 58.2543 194.68 65.4391 194.056 75.8235C193.432 86.2078 185.641 89.6427 175.802 89.5821C165.962 89.5215 153.917 84.9258 152.128 75.6995C149.271 60.9706 166.562 51.3588 174.091 52.9881C181.619 54.6179 184.787 58.2543 184.787 58.2543Z" fill="#9D5011"/>
<path d="M184.788 58.2539C191.076 64.6476 199.046 75.4791 192.094 83.9891C186.963 89.5151 177.352 89.5228 170.289 89.0964C177.631 90.7354 187.762 91.0286 193.332 85.0876C201.133 76.0218 192.712 63.9673 184.788 58.2539Z" fill="#9D5011"/>
<path d="M168.908 109.104C168.908 109.104 162.455 106.135 161.608 97.9806C160.761 89.8266 166.377 86.1564 174.036 84.941C181.694 83.7256 193.613 85.8921 194.102 96.1793C194.663 107.989 183.296 113.657 177.233 113.356C171.171 113.055 168.908 109.104 168.908 109.104Z" fill="#9D5011"/>
<path d="M171.071 110.449C165.427 106.248 157.868 98.8959 162.15 91.4157C165.45 86.4608 172.832 85.2427 178.386 84.6082C172.416 84.2326 164.543 85.27 160.923 90.6431C155.991 98.7239 164.11 107.071 171.071 110.449Z" fill="#9D5011"/>
<path d="M179.035 136.373C179.035 136.373 179.922 136.425 181.317 136.33C178.393 130.692 178.989 126.746 178.989 126.746C180.372 130.844 182.961 133.959 184.86 135.831C187.058 135.356 189.567 134.493 191.816 132.92C197.388 129.016 200.512 123.082 200.512 123.082C194.601 112.861 187.86 110.038 184.659 109.262C183.474 108.972 182.771 108.965 182.771 108.965L173.915 112.218C169.663 123.665 179.035 136.373 179.035 136.373Z" fill="#9D5011"/>
<path d="M182.32 109.33C189.366 109.338 195.44 113.381 199.623 118.795C200.223 119.576 200.782 120.392 201.413 121.176C201.002 120.27 200.563 119.365 200.082 118.482C196.613 112.423 189.451 107.787 182.32 109.33Z" fill="#9D5011"/>
<path d="M168.435 55.9909C174.003 56.087 177.758 60.811 177.618 68.9071C177.452 78.4495 170.664 82.1492 165.096 82.0531C159.529 81.9565 156.753 75.4733 158.144 66.6019C159.289 59.2986 162.043 55.8801 168.435 55.9909Z" fill="#7B6EB9"/>
<path d="M111.203 36.2198C111.203 36.2198 100.362 38.2182 96.833 46.9072C93.3037 55.5963 98.3056 61.4188 106.332 65.1949C114.36 68.9711 125.944 69.9157 130.986 63.1065C139.035 52.2367 128.707 37.6962 121.95 36.0948C115.193 34.4934 111.203 36.2198 111.203 36.2198Z" fill="#9D5011"/>
<path d="M111.202 36.2188C103.602 38.975 92.9076 44.6867 95.2549 54.3116C97.28 60.8008 105.094 64.5436 111.005 66.9427C104.396 65.4221 96.0406 61.7213 93.82 54.7238C91.0005 44.3165 102.536 37.7852 111.202 36.2188Z" fill="#9D5011"/>
<path d="M104.349 83.753C104.349 83.753 110.752 83.8458 114.611 77.5428C118.47 71.2398 115.328 66.0708 109.572 62.1046C103.815 58.139 93.2768 55.2671 88.8804 63.4445C83.8332 72.8325 90.8761 81.8622 95.9238 83.9741C100.972 86.0866 104.349 83.753 104.349 83.753Z" fill="#9D5011"/>
<path d="M102.066 84.0075C108.291 82.7844 117.297 79.7427 116.723 71.9938C115.964 66.6802 110.434 62.8199 106.162 60.1445C111.164 62.1598 117.165 66.0643 118.021 71.842C118.891 80.3329 109.042 83.9654 102.066 84.0075Z" fill="#9D5011"/>
<path d="M85.5134 101.998C85.5134 101.998 84.7719 101.696 83.6734 101.076C88.2434 97.6274 89.2934 94.1854 89.2934 94.1854C86.5754 96.9804 83.2584 98.5087 80.9865 99.2927C79.3829 98.0522 77.6778 96.3743 76.4602 94.2209C73.4457 88.8788 73.2109 82.8379 73.2109 82.8379C81.9923 76.8221 88.5732 77.1469 91.479 77.7596C92.5552 77.9845 93.1301 78.252 93.1301 78.252L99.0684 84.341C98.0763 95.3047 85.5134 101.998 85.5134 101.998Z" fill="#9D5011"/>
<path d="M93.3541 78.7245C87.62 75.9923 81.1079 76.9189 75.6004 79.6969C74.8087 80.0988 74.0372 80.5454 73.2188 80.9375C73.9056 80.3609 74.6138 79.7952 75.3487 79.264C80.5259 75.6838 88.154 74.6978 93.3541 78.7245Z" fill="#9D5011"/>
<path d="M125.384 40.7371C120.818 38.6508 115.927 41.0336 112.894 47.6729C109.318 55.4993 113.402 61.1476 117.968 63.2339C122.534 65.3202 127.312 61.1253 129.63 53.3682C131.537 46.9833 130.627 43.1318 125.384 40.7371Z" fill="#7B6EB9"/>
<path d="M127.286 124.229C116.66 120.189 57.6248 114.484 52.695 120.314C47.7651 126.142 42.6049 145.33 54.6627 149.686C66.7206 154.041 116.172 140.269 124.142 136.979C132.111 133.688 135.948 127.524 127.286 124.229Z" fill="#FBAFA5"/>
<path d="M90.1101 149.43L88.8281 117.117C88.8281 117.117 106.917 117.123 123.795 120.695C140.672 124.266 138.748 134.031 125.548 139.663C112.347 145.294 90.1101 149.43 90.1101 149.43Z" fill="#7B6EB9"/>
<path d="M96.4713 119.243C97.0059 128.024 97.6294 136.877 97.2581 145.67C97.2527 145.801 97.1063 145.794 97.097 145.664C96.4604 136.887 95.9029 129.662 96.2939 119.237C96.2993 119.094 96.4626 119.1 96.4713 119.243Z" fill="#263238"/>
<path opacity="0.1" d="M125.549 139.665C118.798 142.541 109.69 145.03 102.402 146.774L121.646 120.266C122.362 120.404 123.078 120.548 123.794 120.699C140.669 124.268 138.746 134.034 125.549 139.665Z" fill="black"/>
<path d="M175.223 193.711C175.238 193.669 139.587 200.917 139.587 200.917L131.234 193.816L123.3 200.917L94.3697 193.961C94.1611 193.707 107.065 141.304 114.975 126.488C120.42 116.287 142.878 114.317 148.44 126.488C158.834 149.235 175.223 193.711 175.223 193.711Z" fill="#7B6EB9"/>
<path d="M131.233 193.816C127.038 179.678 126.047 164.75 126.217 150.066C126.26 148.766 126.374 145.309 126.427 144.044C126.509 142.73 126.748 139.38 126.843 138.035C127.085 135.371 127.393 132.712 127.704 130.055C127.632 132.731 127.451 135.396 127.378 138.067C126.826 156.683 127.365 175.544 131.233 193.816Z" fill="#263238"/>
<path d="M131.234 143.43C131.215 144.946 128.941 145.025 128.887 143.43C128.94 141.832 131.216 141.914 131.234 143.43ZM131.234 143.43C131.188 142.191 129.443 142.271 129.433 143.43C129.441 144.591 131.188 144.669 131.234 143.43Z" fill="#263238"/>
<path d="M132.487 172.871C132.469 174.387 130.194 174.466 130.141 172.871C130.193 171.273 132.469 171.355 132.487 172.871ZM132.487 172.871C132.441 171.633 130.696 171.713 130.686 172.871C130.695 174.032 132.441 174.11 132.487 172.871Z" fill="#263238"/>
<path d="M131.234 158.422C131.215 159.937 128.941 160.016 128.887 158.422C128.94 156.824 131.216 156.906 131.234 158.422ZM131.234 158.422C131.188 157.183 129.443 157.263 129.433 158.422C129.441 159.582 131.188 159.661 131.234 158.422Z" fill="#263238"/>
<path d="M134.371 187.211C134.352 188.727 132.077 188.806 132.023 187.211C132.076 185.613 134.353 185.695 134.371 187.211ZM134.371 187.211C134.324 185.973 132.58 186.052 132.569 187.211C132.578 188.372 134.325 188.45 134.371 187.211Z" fill="#263238"/>
<path d="M125.724 119.135C118.751 121.199 116.474 129.033 115.851 132.567C115.178 136.389 115.527 144.458 117.703 145.105C119.879 145.753 127.481 136.389 127.481 136.389C127.481 136.389 131.449 146.57 135.696 146.388C139.942 146.207 145.298 138.244 146.772 130.374C148.039 123.611 141.737 114.395 125.724 119.135Z" fill="#7B6EB9"/>
<path opacity="0.7" d="M125.724 119.135C118.751 121.199 116.474 129.033 115.851 132.567C115.178 136.389 115.527 144.458 117.703 145.105C119.879 145.753 127.481 136.389 127.481 136.389C127.481 136.389 131.449 146.57 135.696 146.388C139.942 146.207 145.298 138.244 146.772 130.374C148.039 123.611 141.737 114.395 125.724 119.135Z" fill="white"/>
<path d="M143.293 123.144C142.725 125.002 135.696 138.14 124.292 135.666C121.537 135.068 122.585 119.975 122.585 119.975L122.406 118.823L119.918 102.685L142.204 90.5508C142.204 90.5508 143.523 122.354 143.293 123.144Z" fill="#FBAFA5"/>
<path d="M119.922 102.689L122.414 118.818L122.587 119.979C122.587 119.979 122.394 122.76 122.379 125.979C134.254 125.019 140.235 116.549 142.99 110.611C142.663 101.428 142.205 90.5508 142.205 90.5508L119.922 102.689Z" fill="#263238"/>
<path d="M103.476 73.0571C93.1296 106.476 111.977 116.447 119.186 118.67C125.73 120.688 148.269 126.728 162.013 94.5575C175.757 62.3861 163.489 47.0107 148.767 41.6037C134.044 36.1961 113.822 39.6375 103.476 73.0571Z" fill="#FBAFA5"/>
<path d="M119.445 96.9141C119.445 96.9141 120.797 99.2581 122.821 100.467C124.494 101.466 128.411 100.892 129.516 99.7495C130.598 98.6307 130.042 95.625 130.042 95.625C130.042 95.625 123.796 98.1612 119.445 96.9141Z" fill="white"/>
<path d="M126.773 98.9309C127.932 98.4668 129.068 98.1365 130.184 97.5703C129.306 98.4734 128.004 98.8682 126.773 98.9309Z" fill="#DBDBDB"/>
<path d="M121.188 99.154C122.134 99.083 123.03 99.1103 123.965 99.2746C123.05 99.5149 122.076 99.481 121.188 99.154Z" fill="#DBDBDB"/>
<path d="M115.536 71.391C116.361 71.3478 117.115 71.1704 117.927 71.0431C118.843 70.8996 119.587 70.8793 120.298 70.2231C120.68 69.8714 120.699 69.1092 120.392 68.7068C119.677 67.7693 118.511 67.6667 117.401 67.7944C116.197 67.9331 115.304 68.3481 114.46 69.214C113.642 70.0538 114.447 71.4477 115.536 71.391Z" fill="#263238"/>
<path d="M140.998 77.377C140.221 77.0964 139.55 76.7082 138.81 76.3516C137.975 75.9492 137.269 75.7145 136.778 74.8807C136.516 74.4335 136.717 73.6981 137.128 73.4022C138.083 72.712 139.229 72.9506 140.254 73.3945C141.366 73.8755 142.101 74.5313 142.659 75.6053C143.198 76.6454 142.024 77.7461 140.998 77.377Z" fill="#263238"/>
<path d="M136.089 82.7573C139.87 83.4371 138.233 90.9506 134.729 90.3205C131.281 89.7008 132.919 82.1879 136.089 82.7573Z" fill="#263238"/>
<path d="M137.474 83.4769C138.038 84.0447 138.517 84.9352 139.291 85.1859C140.187 85.4758 141.05 84.8402 141.813 84.214C141.892 84.149 141.942 84.2287 141.923 84.3286C141.631 85.7734 140.755 87.1291 139.165 87.0073C137.714 86.8965 136.981 85.401 136.938 83.8755C136.929 83.5932 137.248 83.2481 137.474 83.4769Z" fill="#263238"/>
<path d="M117.226 78.1479C113.536 77.0767 111.665 84.535 115.083 85.5277C118.446 86.5045 120.319 79.0461 117.226 78.1479Z" fill="#263238"/>
<path d="M115.547 78.2466C114.858 78.4939 114.095 79.0661 113.379 78.9357C112.55 78.7844 112.149 77.8262 111.822 76.9215C111.788 76.8281 111.714 76.8756 111.686 76.9739C111.289 78.3897 111.388 79.9927 112.689 80.6102C113.875 81.1737 115.1 80.18 115.796 78.8456C115.925 78.5988 115.824 78.1472 115.547 78.2466Z" fill="#263238"/>
<path d="M129.756 103.152C129.1 103.606 128.409 104.267 127.546 104.194C126.717 104.122 125.823 103.59 125.123 103.171C125.054 103.13 124.965 103.196 125 103.274C125.456 104.279 126.642 105.063 127.763 105.058C128.858 105.054 129.541 104.225 129.964 103.298C130.023 103.168 129.851 103.086 129.756 103.152Z" fill="#263238"/>
<path d="M120.367 91.7635C120.367 91.7635 118.87 95.6041 118.493 97.2394C118.458 97.3922 123.816 99.7324 129.844 95.8411C130.596 95.3557 130.202 94.885 129.662 95.0936C125.914 96.5432 122.699 96.7485 120.128 96.2009C120.117 95.7215 122.52 90.4619 122.253 90.446C121.123 90.3794 119.097 90.4204 118.346 90.4318C119.126 88.232 121.652 82.0977 123.066 78.09C123.154 77.8394 122.778 77.6658 122.664 77.8858C119.632 83.6794 118.142 86.7441 116.348 91.4441C116.208 91.811 119.648 91.8913 120.367 91.7635Z" fill="#263238"/>
<path d="M161.026 96.4939C152.543 94.6392 158.369 68.0561 158.688 64.7823C158.381 66.833 155.477 77.4467 154.575 77.7274C154.345 77.7902 150.236 75.8819 148.795 75.1978L148.774 75.1907C148.993 73.9665 149.136 72.6256 149.167 71.2704C149.207 70.6589 148.704 72.5295 147.953 74.8036C147.494 74.5824 147 74.3263 146.457 74.0779C146.945 71.7623 147.327 68.8571 147.137 65.7159C147.072 64.6529 145.965 69.1934 144.258 73.0274C138.657 70.3657 130.531 66.7309 122.626 65.0203C120.511 64.5529 118.669 64.245 117.029 64.0266C117.597 60.8358 118.582 57.5041 118.216 58.1931C117.13 60.1489 116.35 62.1593 115.805 63.877C114.916 63.7678 114.088 63.6793 113.344 63.6193C113.944 59.0727 117.395 52.275 116.473 53.2431C112.938 57.005 110.976 61.2622 110.106 63.5445C106.924 63.58 105.966 64.0272 106.026 63.2142C106.141 61.7476 110.193 49.4631 121.692 42.0064C134.19 33.9027 155.935 35.2486 165.119 52.9117C165.119 52.9117 173.826 61.1596 173.492 71.8344C173.164 82.488 165.928 97.5586 161.026 96.4939Z" fill="#9D5011"/>
<path d="M155.771 94.6586C155.771 94.6586 164.915 84.9665 169.42 88.3812C173.926 91.7964 165.942 106.621 159.872 107.917C153.802 109.212 152.492 103.616 152.492 103.616L155.771 94.6586Z" fill="#FBAFA5"/>
<path d="M167.024 92.572C167.118 92.5774 167.116 92.7101 167.031 92.7303C162.756 93.7715 160.081 97.2004 158.022 100.862C159.442 99.545 161.196 98.9673 162.986 100.69C163.08 100.781 162.955 100.93 162.846 100.89C161.245 100.292 160.01 100.404 158.699 101.564C157.77 102.385 157.055 103.49 156.33 104.49C156.088 104.823 155.465 104.533 155.664 104.138C155.678 104.11 155.695 104.079 155.71 104.05C156.365 98.8887 161.423 92.2777 167.024 92.572Z" fill="#263238"/>
<path d="M128.789 94.4196C127.217 94.614 126.414 95.9544 126.545 97.404C126.651 98.5681 127.675 99.7873 129.427 99.5706C131.214 99.3494 131.897 97.7988 131.749 96.7838C131.591 95.7038 130.723 94.1805 128.789 94.4196Z" fill="#7B6EB9"/>
<path opacity="0.8" d="M128.789 94.4196C127.217 94.614 126.414 95.9544 126.545 97.404C126.651 98.5681 127.675 99.7873 129.427 99.5706C131.214 99.3494 131.897 97.7988 131.749 96.7838C131.591 95.7038 130.723 94.1805 128.789 94.4196Z" fill="white"/>
<path d="M130.785 95.8253C130.846 96.3139 130.499 96.7595 130.009 96.8201C129.521 96.8807 129.075 96.5334 129.015 96.0448C128.954 95.5561 129.301 95.1106 129.791 95.05C130.28 94.9888 130.725 95.3361 130.785 95.8253Z" fill="white"/>
<path d="M123.719 101.756C122.147 101.95 121.343 103.29 121.475 104.74C121.58 105.904 122.605 107.123 124.357 106.907C126.144 106.685 126.827 105.135 126.678 104.12C126.52 103.04 125.653 101.516 123.719 101.756Z" fill="#7B6EB9"/>
<path opacity="0.8" d="M123.719 101.756C122.147 101.95 121.343 103.29 121.475 104.74C121.58 105.904 122.605 107.123 124.357 106.907C126.144 106.685 126.827 105.135 126.678 104.12C126.52 103.04 125.653 101.516 123.719 101.756Z" fill="white"/>
<path d="M125.715 103.161C125.776 103.65 125.428 104.095 124.939 104.156C124.451 104.217 124.005 103.869 123.944 103.381C123.884 102.892 124.231 102.446 124.72 102.386C125.209 102.325 125.654 102.672 125.715 103.161Z" fill="white"/>
<path d="M119.363 97.4469C117.792 97.6413 116.988 98.9812 117.119 100.431C117.225 101.595 118.25 102.814 120.001 102.597C121.788 102.376 122.471 100.826 122.323 99.8106C122.166 98.7311 121.298 97.2078 119.363 97.4469Z" fill="#7B6EB9"/>
<path opacity="0.8" d="M119.363 97.4469C117.792 97.6413 116.988 98.9812 117.119 100.431C117.225 101.595 118.25 102.814 120.001 102.597C121.788 102.376 122.471 100.826 122.323 99.8106C122.166 98.7311 121.298 97.2078 119.363 97.4469Z" fill="white"/>
<path d="M121.363 98.8529C121.424 99.3416 121.076 99.7871 120.588 99.8477C120.099 99.9083 119.653 99.5611 119.593 99.0719C119.532 98.5832 119.879 98.1377 120.369 98.0771C120.857 98.017 121.302 98.3643 121.363 98.8529Z" fill="white"/>
<path d="M131.914 96.7939C130.883 96.9216 130.356 97.8001 130.443 98.7513C130.512 99.5146 131.184 100.314 132.333 100.172C133.505 100.027 133.953 99.0101 133.856 98.344C133.751 97.6358 133.183 96.6366 131.914 96.7939Z" fill="#7B6EB9"/>
<path opacity="0.8" d="M131.914 96.7939C130.883 96.9216 130.356 97.8001 130.443 98.7513C130.512 99.5146 131.184 100.314 132.333 100.172C133.505 100.027 133.953 99.0101 133.856 98.344C133.751 97.6358 133.183 96.6366 131.914 96.7939Z" fill="white"/>
<path d="M133.224 97.7165C133.264 98.037 133.037 98.3291 132.716 98.369C132.395 98.4089 132.103 98.1812 132.063 97.8601C132.023 97.5396 132.251 97.2475 132.572 97.2077C132.893 97.1678 133.185 97.3955 133.224 97.7165Z" fill="white"/>
<path d="M120.497 103.098C119.466 103.226 118.939 104.105 119.025 105.056C119.094 105.819 119.766 106.619 120.914 106.477C122.087 106.331 122.534 105.315 122.437 104.649C122.334 103.941 121.765 102.942 120.497 103.098Z" fill="#7B6EB9"/>
<path opacity="0.8" d="M120.497 103.098C119.466 103.226 118.939 104.105 119.025 105.056C119.094 105.819 119.766 106.619 120.914 106.477C122.087 106.331 122.534 105.315 122.437 104.649C122.334 103.941 121.765 102.942 120.497 103.098Z" fill="white"/>
<path d="M121.806 104.021C121.846 104.342 121.619 104.634 121.298 104.674C120.977 104.714 120.685 104.486 120.645 104.165C120.605 103.844 120.833 103.552 121.154 103.512C121.475 103.472 121.767 103.7 121.806 104.021Z" fill="white"/>
<path d="M126.613 99.9228C125.583 100.051 125.056 100.929 125.142 101.88C125.211 102.643 125.883 103.443 127.032 103.301C128.203 103.156 128.652 102.138 128.554 101.473C128.451 100.765 127.882 99.7655 126.613 99.9228Z" fill="#7B6EB9"/>
<path opacity="0.8" d="M126.613 99.9228C125.583 100.051 125.056 100.929 125.142 101.88C125.211 102.643 125.883 103.443 127.032 103.301C128.203 103.156 128.652 102.138 128.554 101.473C128.451 100.765 127.882 99.7655 126.613 99.9228Z" fill="white"/>
<path d="M127.924 100.845C127.964 101.166 127.736 101.458 127.415 101.498C127.094 101.538 126.802 101.31 126.762 100.989C126.722 100.669 126.95 100.376 127.271 100.337C127.592 100.297 127.884 100.524 127.924 100.845Z" fill="white"/>
<path d="M115.746 97.8328C114.715 97.9606 114.188 98.8391 114.275 99.7902C114.344 100.554 115.016 101.353 116.164 101.211C117.336 101.066 117.784 100.05 117.687 99.3835C117.584 98.6753 117.015 97.6761 115.746 97.8328Z" fill="#7B6EB9"/>
<path opacity="0.8" d="M115.746 97.8328C114.715 97.9606 114.188 98.8391 114.275 99.7902C114.344 100.554 115.016 101.353 116.164 101.211C117.336 101.066 117.784 100.05 117.687 99.3835C117.584 98.6753 117.015 97.6761 115.746 97.8328Z" fill="white"/>
<path d="M117.056 98.7555C117.096 99.076 116.869 99.3681 116.548 99.4079C116.227 99.4478 115.935 99.2201 115.895 98.8991C115.855 98.5786 116.083 98.2865 116.404 98.2466C116.725 98.2073 117.017 98.435 117.056 98.7555Z" fill="white"/>
<path d="M122.958 97.2353C121.927 97.363 121.4 98.2415 121.486 99.1927C121.555 99.956 122.227 100.756 123.375 100.613C124.547 100.468 124.995 99.4509 124.898 98.7859C124.795 98.0772 124.227 97.078 122.958 97.2353Z" fill="#7B6EB9"/>
<path opacity="0.8" d="M122.958 97.2353C121.927 97.363 121.4 98.2415 121.486 99.1927C121.555 99.956 122.227 100.756 123.375 100.613C124.547 100.468 124.995 99.4509 124.898 98.7859C124.795 98.0772 124.227 97.078 122.958 97.2353Z" fill="white"/>
<path d="M124.267 98.1579C124.307 98.4784 124.08 98.7705 123.759 98.8104C123.438 98.8503 123.146 98.6226 123.106 98.3015C123.066 97.981 123.294 97.6889 123.615 97.6491C123.935 97.6092 124.228 97.8369 124.267 98.1579Z" fill="white"/>
<path d="M113.837 96.3356C113.129 96.423 112.768 97.0263 112.827 97.6788C112.874 98.2024 113.335 98.7516 114.123 98.6539C114.928 98.5545 115.235 97.8562 115.168 97.3998C115.097 96.9133 114.707 96.2275 113.837 96.3356Z" fill="#7B6EB9"/>
<path opacity="0.8" d="M113.837 96.3356C113.129 96.423 112.768 97.0263 112.827 97.6788C112.874 98.2024 113.335 98.7516 114.123 98.6539C114.928 98.5545 115.235 97.8562 115.168 97.3998C115.097 96.9133 114.707 96.2275 113.837 96.3356Z" fill="white"/>
<path d="M114.737 96.9692C114.765 97.1892 114.608 97.3896 114.388 97.4169C114.168 97.4442 113.968 97.288 113.941 97.068C113.913 96.848 114.069 96.6476 114.289 96.6203C114.51 96.593 114.71 96.7491 114.737 96.9692Z" fill="white"/>
<path d="M128.719 101.613C128.012 101.7 127.65 102.304 127.709 102.956C127.757 103.48 128.218 104.029 129.006 103.931C129.81 103.832 130.118 103.133 130.051 102.677C129.98 102.191 129.59 101.505 128.719 101.613Z" fill="#7B6EB9"/>
<path opacity="0.8" d="M128.719 101.613C128.012 101.7 127.65 102.304 127.709 102.956C127.757 103.48 128.218 104.029 129.006 103.931C129.81 103.832 130.118 103.133 130.051 102.677C129.98 102.191 129.59 101.505 128.719 101.613Z" fill="white"/>
<path d="M129.62 102.247C129.647 102.467 129.491 102.667 129.271 102.694C129.051 102.722 128.851 102.565 128.823 102.345C128.796 102.125 128.952 101.925 129.172 101.898C129.392 101.87 129.593 102.026 129.62 102.247Z" fill="white"/>
<path d="M134.079 94.0751C133.54 94.1417 133.264 94.6014 133.31 95.0988C133.346 95.498 133.697 95.9167 134.298 95.8425C134.911 95.7666 135.146 95.2342 135.095 94.8864C135.041 94.5157 134.743 93.9926 134.079 94.0751Z" fill="#7B6EB9"/>
<path opacity="0.8" d="M134.079 94.0751C133.54 94.1417 133.264 94.6014 133.31 95.0988C133.346 95.498 133.697 95.9167 134.298 95.8425C134.911 95.7666 135.146 95.2342 135.095 94.8864C135.041 94.5157 134.743 93.9926 134.079 94.0751Z" fill="white"/>
<path d="M134.766 94.5573C134.786 94.7249 134.667 94.8778 134.5 94.8986C134.332 94.9193 134.179 94.8003 134.159 94.6327C134.138 94.465 134.257 94.3122 134.425 94.2914C134.592 94.2707 134.745 94.3897 134.766 94.5573Z" fill="white"/>
<path d="M121.618 107.317C121.079 107.384 120.803 107.844 120.849 108.341C120.885 108.74 121.236 109.159 121.837 109.084C122.451 109.008 122.685 108.476 122.634 108.128C122.58 107.758 122.282 107.235 121.618 107.317Z" fill="#7B6EB9"/>
<path opacity="0.8" d="M121.618 107.317C121.079 107.384 120.803 107.844 120.849 108.341C120.885 108.74 121.236 109.159 121.837 109.084C122.451 109.008 122.685 108.476 122.634 108.128C122.58 107.758 122.282 107.235 121.618 107.317Z" fill="white"/>
<path d="M122.305 107.8C122.326 107.967 122.207 108.12 122.039 108.141C121.871 108.161 121.718 108.042 121.698 107.875C121.677 107.707 121.796 107.554 121.964 107.534C122.131 107.513 122.284 107.632 122.305 107.8Z" fill="white"/>
<path d="M126.017 95.0515C125.477 95.1182 125.202 95.5779 125.247 96.0753C125.283 96.4744 125.635 96.8932 126.236 96.8184C126.849 96.7425 127.083 96.2102 127.032 95.8624C126.978 95.4922 126.681 94.9696 126.017 95.0515Z" fill="#7B6EB9"/>
<path opacity="0.8" d="M126.017 95.0515C125.477 95.1182 125.202 95.5779 125.247 96.0753C125.283 96.4744 125.635 96.8932 126.236 96.8184C126.849 96.7425 127.083 96.2102 127.032 95.8624C126.978 95.4922 126.681 94.9696 126.017 95.0515Z" fill="white"/>
<path d="M126.703 95.534C126.724 95.7016 126.605 95.8545 126.437 95.8752C126.27 95.896 126.117 95.777 126.096 95.6093C126.075 95.4417 126.194 95.2888 126.362 95.2681C126.53 95.2468 126.683 95.3664 126.703 95.534Z" fill="white"/>
<path d="M129.048 100.2C128.509 100.267 128.233 100.726 128.278 101.224C128.314 101.623 128.666 102.042 129.267 101.967C129.88 101.891 130.114 101.359 130.064 101.011C130.01 100.641 129.712 100.118 129.048 100.2Z" fill="#7B6EB9"/>
<path opacity="0.8" d="M129.048 100.2C128.509 100.267 128.233 100.726 128.278 101.224C128.314 101.623 128.666 102.042 129.267 101.967C129.88 101.891 130.114 101.359 130.064 101.011C130.01 100.641 129.712 100.118 129.048 100.2Z" fill="white"/>
<path d="M129.735 100.682C129.755 100.85 129.636 101.003 129.469 101.024C129.301 101.044 129.148 100.925 129.127 100.758C129.107 100.59 129.226 100.437 129.393 100.417C129.561 100.395 129.714 100.514 129.735 100.682Z" fill="white"/>
<path d="M52.4743 147.919C59.397 149.45 72.3165 134.703 82.127 120.089C85.0558 115.726 69.2753 89.5277 64.495 92.4816C58.4743 96.202 47.7274 113.374 46.2313 127.731C45.4751 134.988 47.2076 146.754 52.4743 147.919Z" fill="#FBAFA5"/>
<path d="M81.5327 120.965C79.2346 125.342 76.3976 129.41 73.3078 133.262C70.1666 137.061 66.7214 140.731 62.5625 143.426C69.6261 136.784 75.5906 128.614 81.5327 120.965Z" fill="#263238"/>
<path d="M129.346 96.8892L129.903 97.8486C130.488 98.857 130.172 100.148 129.188 100.772L118.804 107.356C118.483 107.559 118.056 107.455 117.865 107.126C117.679 106.805 117.269 106.696 116.948 106.883L74.2064 132.474C73.8859 132.66 73.4759 132.551 73.2897 132.231L71.4229 129.016C71.2367 128.696 71.3459 128.286 71.6659 128.1L115.078 103.663C115.398 103.477 115.507 103.067 115.321 102.746C115.13 102.417 115.25 101.995 115.587 101.817L126.451 96.0621C127.482 95.5155 128.76 95.8808 129.346 96.8892Z" fill="#455A64"/>
<path d="M58.0781 99.1619C58.0781 99.1619 61.507 93.424 72.0268 87.1385C81.6544 81.3858 105.112 77.0102 113.903 105.145C116.434 113.244 112.004 122.091 105.826 110.806C102.269 104.311 101.82 103.219 100.703 101.68C100.703 101.68 102.802 111.52 98.1163 115.291C96.0224 116.977 90.1988 121.443 85.1696 124.274C85.1696 124.274 84.2583 123.344 83.2717 122.001C83.2717 122.001 73.1199 128.204 63.7347 120.466L58.0781 99.1619Z" fill="#FBAFA5"/>
<path d="M82.2949 83.5234C86.1179 85.7844 94.1403 90.711 99.3017 97.0238C105.034 104.036 114.187 119.089 108.967 123.267C105.139 126.331 101.139 120.891 101.139 120.891C101.139 120.891 103.611 127.911 99.5479 129.922C95.846 131.754 93.0035 127.361 93.0035 127.361C93.0035 127.361 92.4455 130.389 88.8665 130.116C84.0066 129.745 84.3293 124.576 78.4352 121.778C77.1111 121.149 82.2949 83.5234 82.2949 83.5234Z" fill="#FBAFA5"/>
<path d="M90.8826 101.846C94.1297 104.562 99.9216 112.621 101.211 120.717C101.24 120.901 101.117 121.021 101.055 120.859C97.742 112.246 93.0115 104.898 90.8165 101.9C90.787 101.86 90.8466 101.816 90.8826 101.846Z" fill="#263238"/>
<path d="M83.9742 107.837C86.535 110.468 92.1337 119.041 93.158 127.29C93.1809 127.475 93.0493 127.587 92.9942 127.423C89.9038 118.281 85.9169 111.011 83.9049 107.887C83.8782 107.845 83.9409 107.802 83.9742 107.837Z" fill="#263238"/>
<path d="M100.79 97.9492C106.144 102.554 109.329 109.335 110.574 116.213C111.988 124.108 106.954 128.47 101.166 121.438L102.092 120.924C102.836 123.793 103.26 127.513 100.809 129.702C98.0699 132.035 94.4439 130.277 92.6618 127.655L93.388 127.492C92.8021 130.258 90.8523 131.01 88.2496 130.419C86.1425 129.812 84.8993 127.821 83.5157 126.312C82.6159 125.266 81.7079 124.227 80.7617 123.219C81.7762 124.157 82.7595 125.133 83.7068 126.14C85.1286 127.539 86.3953 129.361 88.3882 129.868C90.5881 130.252 92.1365 129.782 92.5952 127.36L92.7622 126.48C94.3855 128.864 97.489 131.185 100.157 128.94C102.156 127.074 101.711 123.685 101.06 121.248L100.395 118.925L101.987 120.734C108.652 128.42 111.045 120.623 109.234 114.107C107.904 108.125 105.177 102.317 100.79 97.9492Z" fill="#263238"/>
<path d="M109.986 115.786C110.844 116.378 111.983 116.134 112.701 115.448C114.707 113.462 114.301 109.542 113.95 106.942C112.524 99.1613 107.55 91.9563 101.188 87.3284C97.8974 84.9937 94.0711 83.5151 90.0547 83.0117C94.1513 83.0636 98.2327 84.3642 101.67 86.6115C108.427 91.092 113.644 98.7458 114.767 106.824C115.043 109.616 115.217 113.678 112.876 115.664C112.078 116.334 110.802 116.501 109.986 115.786Z" fill="#263238"/>
<path d="M80.7625 123.217C75.3598 126.156 67.7327 125.376 63.7344 120.465C68.7265 124.049 74.8886 124.587 80.7625 123.217Z" fill="#263238"/>
<path opacity="0.6" d="M186.127 198.094H159.136L155.496 157.383H189.767L186.127 198.094Z" fill="#EBEBEB"/>
<path d="M189.768 157.383L186.128 198.094H159.136L155.496 157.383H158.076L161.716 195.262H183.544L187.184 157.383H189.768Z" fill="#EBEBEB"/>
<path d="M158.992 196.484H186.271L186.128 198.095H159.135L158.992 196.484Z" fill="#EBEBEB"/>
<path opacity="0.4" d="M186.228 167.324L183.547 195.264H161.72L159.031 167.324H186.228Z" fill="white"/>
<path opacity="0.4" d="M167.533 187.911H163.298L160.898 157.383H165.135L167.533 187.911Z" fill="white"/>
<path d="M174.151 203.936C171.593 200.264 177.385 199.35 177.385 199.35C177.385 199.35 168.73 198.656 167.556 193.849C166.437 189.214 173.474 188.357 173.977 188.288C173.519 188.247 165.583 187.402 164.9 182.45C164.195 177.303 171.407 177.656 171.872 177.681C171.453 177.507 165.939 175.111 166.275 171.231C166.858 164.565 183.224 170.07 188.114 167.737C188.114 167.737 189.601 159.217 189.566 158.945C189.566 158.945 190.147 162.72 192.649 164.595C195.752 166.921 198.67 168.695 199.439 170.912C200.697 174.56 197.865 176.551 197.865 176.551C197.865 176.551 202.462 177.734 203.122 181.615C203.456 183.609 200.564 185.916 200.564 185.916C200.564 185.916 204.206 187.017 204.578 190.506C204.884 193.29 201.935 195.17 201.935 195.17C201.935 195.17 204.941 197.85 204.329 200.795C203.11 206.738 179.638 211.795 174.151 203.936Z" fill="#FBAFA5"/>
<path d="M201.514 195.542C201.591 195.519 201.638 195.622 201.564 195.658C194.25 199.205 185.128 200.861 177.077 199.435C176.812 199.389 176.774 198.939 177.074 198.935C185.654 198.818 193.259 198.029 201.514 195.542Z" fill="#263238"/>
<path d="M200.69 185.937C200.78 185.909 200.826 186.058 200.736 186.101C193.18 189.715 182.854 191.298 173.767 188.562C173.455 188.468 173.269 188.071 173.636 188.152C179.816 189.513 193.27 188.214 200.69 185.937Z" fill="#263238"/>
<path d="M171.304 177.273C180.118 179.559 188.779 178.79 197.562 176.722C197.676 176.695 197.702 176.859 197.613 176.908C193.593 179.09 187.857 179.825 183.346 180.02C179.026 180.206 175.09 179.506 171.224 177.581C171.074 177.506 171.115 177.223 171.304 177.273Z" fill="#263238"/>
<path d="M201.865 195.269C201.85 195.231 201.851 195.214 201.843 195.186C201.844 195.168 201.854 195.16 201.855 195.142C201.855 195.142 201.855 195.142 201.865 195.134C201.866 195.116 201.885 195.099 201.904 195.082C203.539 194.1 204.535 192.16 204.341 190.27C204.258 189.465 203.988 188.622 203.462 187.986C202.37 186.668 200.509 185.974 200.558 185.914C202.069 184.483 202.964 182.276 202.436 180.275C202.188 179.379 201.504 178.697 200.796 178.105C200.378 177.763 198.642 176.808 197.866 176.579C197.734 176.543 197.724 176.417 197.799 176.368C199.12 175.24 199.842 173.49 199.405 171.764C198.991 170.084 197.828 168.743 196.503 167.68C194.981 166.487 193.232 165.593 191.895 164.169C191.348 163.586 190.877 162.937 190.491 162.23C190.115 161.514 189.936 160.945 189.749 160.062C189.724 159.899 189.771 159.722 189.82 159.932C190.175 161.41 190.681 162.215 191.339 162.885C192.081 163.633 192.945 164.174 193.836 164.725C195.521 165.775 197.368 166.666 198.795 168.096C200.027 169.342 200.844 170.904 200.595 172.693C200.379 174.233 199.398 175.671 198.023 176.392C198.721 176.436 201.005 177.247 201.514 177.576C202.464 178.175 203.22 178.862 203.547 179.925C204.244 182.233 202.943 184.459 201.155 185.863C201.894 186.107 203.451 186.494 204.343 187.432C205.049 188.196 205.499 189.168 205.54 190.212C205.618 192.508 204.022 194.149 202.164 195.243C202.173 195.252 202.199 195.263 202.206 195.29C203.699 195.97 204.943 197.729 204.355 199.344C204.06 196.966 201.865 195.269 201.865 195.269Z" fill="#263238"/>
<g opacity="0.2">
<path d="M148.601 24.4442L34.8036 138.241C34.334 134.278 34.0938 130.237 34.0938 126.148C34.0938 118.482 34.9346 111.012 36.5344 103.827L114.186 26.1695C121.372 24.5752 128.836 23.7344 136.502 23.7344C140.597 23.7344 144.631 23.9746 148.601 24.4442Z" fill="#E2E2F2"/>
<path d="M232.604 90.6896L101.04 222.248C93.3574 219.415 86.1065 215.685 79.418 211.186L221.542 69.0625C226.041 75.751 229.77 83.0019 232.604 90.6896Z" fill="#E2E2F2"/>
<path d="M238.216 138.137C232.74 185.115 195.47 222.385 148.492 227.861L238.216 138.137Z" fill="#E2E2F2"/>
<path d="M102.068 29.668L40.0312 91.7045C40.8885 89.3021 41.8331 86.9379 42.865 84.6229L94.9916 32.4962C97.3067 31.4698 99.6654 30.5252 102.068 29.668Z" fill="#E2E2F2"/>
<path d="M236.25 102.857L113.209 225.898C112.067 225.631 110.937 225.347 109.812 225.046L235.393 99.4609C235.698 100.586 235.982 101.716 236.25 102.857Z" fill="#E2E2F2"/>
<path d="M188.099 37.6616L48.0225 177.743C47.4984 176.848 46.9851 175.947 46.4883 175.03L185.38 36.1328C186.297 36.6242 187.203 37.1375 188.099 37.6616Z" fill="#E2E2F2"/>
</g>
<path d="M223.034 200.957H241.278C246.557 200.957 250.836 205.236 250.836 210.514V258.411H213.477V210.514C213.477 205.236 217.756 200.957 223.034 200.957Z" fill="#7B6EB9"/>
<path opacity="0.1" d="M223.034 200.957H241.278C246.557 200.957 250.836 205.236 250.836 210.514V258.411H213.477V210.514C213.477 205.236 217.756 200.957 223.034 200.957Z" fill="black"/>
<path d="M240.158 193.551H224.152V200.957H240.158V193.551Z" fill="#263238"/>
<path d="M237.369 189.711H226.941V193.553H237.369V189.711Z" fill="#263238"/>
<path opacity="0.2" d="M226.941 192.916L237.369 192.277V193.555H226.941V192.916Z" fill="black"/>
<path d="M233.886 182.336H230.426V189.71H233.886V182.336Z" fill="#263238"/>
<path d="M233.885 184.835H218.898L220.121 182.336H233.885V184.835Z" fill="#263238"/>
<path d="M221.137 186.718H217.977L220.12 182.336H223.28L221.137 186.718Z" fill="#263238"/>
<path d="M218.901 242.027H237.656V218.389H218.901V242.027Z" fill="white"/>
<path opacity="0.1" d="M223.238 201.219V203.783L235.18 208.927V258.415H241.702V201.395C240.817 201.111 239.877 200.961 238.9 200.961H225.414C224.662 200.96 223.936 201.048 223.238 201.219Z" fill="black"/>
<path d="M228.667 237.285H44.332V258.364H228.667V237.285Z" fill="#7B6EB9"/>
<path opacity="0.7" d="M228.667 237.285H44.332V258.364H228.667V237.285Z" fill="white"/>
<path d="M138.514 204.637H134.478C133.586 204.637 132.863 205.36 132.863 206.252V226.405H140.129V206.252C140.129 205.36 139.406 204.637 138.514 204.637Z" fill="#37474F"/>
<path d="M139.086 200.656H133.908C133.016 200.656 132.293 201.379 132.293 202.271V213.444H140.701V202.271C140.701 201.379 139.978 200.656 139.086 200.656Z" fill="#37474F"/>
<path d="M140.129 223.34H132.863V226.405H140.129V223.34Z" fill="#263238"/>
<path d="M140.129 213.445H132.863V214.978H140.129V213.445Z" fill="#263238"/>
<path d="M143.781 226.406H129.219V237.284H143.781V226.406Z" fill="#37474F"/>
<path d="M114.219 221.312H108.242V231.843H114.219V221.312Z" fill="#37474F"/>
<path d="M114.219 228.777H108.242V231.843H114.219V228.777Z" fill="#263238"/>
<path d="M118.511 231.844H103.949V237.282H118.511V231.844Z" fill="#37474F"/>
<path d="M114.219 221.314V218.762L99.4844 219.834V221.314H114.219Z" fill="#37474F"/>
<path d="M158.777 231.848H164.754V221.317H158.777V231.848Z" fill="#37474F"/>
<path d="M158.777 231.848H164.754V228.782H158.777V231.848Z" fill="#263238"/>
<path d="M154.485 237.285H169.047V231.846H154.485V237.285Z" fill="#37474F"/>
<path d="M158.777 221.314V218.762L173.512 219.834V221.314H158.777Z" fill="#37474F"/>
<path d="M91.2504 240.742L37.3984 244.054L37.9248 258.36L91.8958 258.275C92.4281 258.292 94.1426 257.677 94.1426 257.677L96.1284 257.615L95.5218 241.136L93.536 241.197C93.536 241.197 91.7806 240.693 91.2504 240.742Z" fill="#7B6EB9"/>
<path opacity="0.3" d="M91.2504 240.742L37.3984 244.054L37.9248 258.36L91.8958 258.275C92.4281 258.292 94.1426 257.677 94.1426 257.677L96.1284 257.615L95.5218 241.136L93.536 241.197C93.536 241.197 91.7806 240.693 91.2504 240.742Z" fill="white"/>
<path opacity="0.7" d="M81.5096 241.336C78.506 242.999 74.6726 246.173 72.8828 249.138C70.3177 253.382 65.9562 256.448 61.6193 258.318L52.5781 258.333C54.2565 257.526 60.9876 253.872 62.9341 245.869C63.2442 244.587 63.7804 243.429 64.4755 242.386L81.5096 241.336Z" fill="white"/>
<path opacity="0.8" d="M62.3319 242.52C62.0049 243.514 61.7395 244.564 61.4021 245.624C60.8785 247.208 60.161 248.84 59.0385 250.224C57.9001 251.617 56.4543 252.766 54.8785 253.624C52.4308 254.977 49.5916 255.707 46.8146 255.703L46.5312 255.319C49.2956 254.92 51.8679 253.923 54.0595 252.515C56.8932 250.723 58.7311 248.176 59.5894 245.146C59.8662 244.342 60.0972 243.497 60.374 242.637L62.3319 242.52Z" fill="white"/>
<path opacity="0.8" d="M90.2076 240.805C89.6829 241.229 89.1227 241.631 88.5265 241.987C87.0479 242.872 85.4247 243.437 83.9707 244.089C80.9955 245.279 78.5199 247.125 76.2764 249.303C74.5265 251.056 72.8901 252.985 71.6021 255.098L71.2734 254.84C72.1257 252.53 73.5049 250.379 75.167 248.45C76.224 247.22 77.4148 246.087 78.7542 245.054C80.0837 244.036 81.6185 243.216 83.1642 242.544C84.4299 242.014 85.6545 241.552 86.8022 241.013L90.2076 240.805Z" fill="white"/>
<path opacity="0.05" d="M65.8177 242.305L37.3984 244.052L37.9248 258.359L91.8958 258.274C92.4281 258.291 94.1426 257.676 94.1426 257.676L96.1284 257.613L96.035 255.078C93.9023 255.281 70.9245 256.648 65.8177 242.305Z" fill="black"/>
<g opacity="0.2">
<path d="M94.12 257.079C93.5609 252.018 93.3719 246.886 93.557 241.797C94.1161 246.859 94.3051 251.99 94.12 257.079Z" fill="black"/>
</g>
<g opacity="0.2">
<path d="M94.375 257.023C94.8484 256.822 95.336 256.805 95.8208 256.977C95.3474 257.18 94.8598 257.194 94.375 257.023Z" fill="black"/>
</g>
<g opacity="0.2">
<path d="M94.3516 256.39C94.8249 256.189 95.3125 256.173 95.7974 256.345C95.324 256.547 94.8364 256.561 94.3516 256.39Z" fill="black"/>
</g>
<g opacity="0.2">
<path d="M94.3281 255.757C94.8015 255.557 95.2891 255.54 95.7739 255.712C95.3011 255.914 94.8135 255.927 94.3281 255.757Z" fill="black"/>
</g>
<g opacity="0.2">
<path d="M94.3047 255.124C94.7781 254.924 95.2656 254.907 95.7505 255.079C95.2771 255.281 94.7895 255.295 94.3047 255.124Z" fill="black"/>
</g>
<g opacity="0.2">
<path d="M94.2812 254.491C94.7546 254.291 95.2422 254.274 95.7271 254.446C95.2542 254.648 94.7661 254.662 94.2812 254.491Z" fill="black"/>
</g>
<g opacity="0.2">
<path d="M94.2578 253.859C94.7312 253.658 95.2188 253.641 95.7036 253.813C95.2308 254.016 94.7432 254.029 94.2578 253.859Z" fill="black"/>
</g>
<g opacity="0.2">
<path d="M94.2344 253.226C94.7078 253.025 95.1953 253.008 95.6802 253.18C95.2068 253.383 94.7192 253.397 94.2344 253.226Z" fill="black"/>
</g>
<g opacity="0.2">
<path d="M94.2109 252.593C94.6843 252.393 95.1719 252.376 95.6568 252.548C95.1839 252.75 94.6958 252.764 94.2109 252.593Z" fill="black"/>
</g>
<g opacity="0.2">
<path d="M94.1875 251.964C94.6609 251.764 95.1485 251.747 95.6333 251.919C95.1605 252.121 94.6729 252.134 94.1875 251.964Z" fill="black"/>
</g>
<g opacity="0.2">
<path d="M94.1641 251.331C94.6374 251.131 95.125 251.114 95.6099 251.286C95.1365 251.488 94.6489 251.502 94.1641 251.331Z" fill="black"/>
</g>
<g opacity="0.2">
<path d="M94.1406 250.698C94.614 250.498 95.1016 250.481 95.5864 250.653C95.1136 250.856 94.6255 250.869 94.1406 250.698Z" fill="black"/>
</g>
<g opacity="0.2">
<path d="M94.1172 250.066C94.5906 249.865 95.0782 249.848 95.563 250.02C95.0896 250.223 94.602 250.237 94.1172 250.066Z" fill="black"/>
</g>
<g opacity="0.2">
<path d="M94.0938 249.433C94.5671 249.232 95.0547 249.215 95.5396 249.387C95.0662 249.59 94.5786 249.604 94.0938 249.433Z" fill="black"/>
</g>
<g opacity="0.2">
<path d="M94.0703 248.8C94.5437 248.6 95.0313 248.583 95.5161 248.755C95.0433 248.957 94.5557 248.971 94.0703 248.8Z" fill="black"/>
</g>
<g opacity="0.2">
<path d="M94.0469 248.167C94.5203 247.967 95.0078 247.95 95.4927 248.122C95.0193 248.324 94.5317 248.338 94.0469 248.167Z" fill="black"/>
</g>
<g opacity="0.2">
<path d="M94.0234 247.534C94.4968 247.334 94.9844 247.317 95.4692 247.489C94.9959 247.691 94.5083 247.705 94.0234 247.534Z" fill="black"/>
</g>
<g opacity="0.2">
<path d="M94 246.902C94.4734 246.701 94.961 246.684 95.4458 246.856C94.973 247.059 94.4848 247.072 94 246.902Z" fill="black"/>
</g>
<g opacity="0.2">
<path d="M93.9805 246.269C94.4539 246.068 94.9414 246.051 95.4263 246.223C94.9529 246.426 94.4653 246.44 93.9805 246.269Z" fill="black"/>
</g>
<g opacity="0.2">
<path d="M93.957 245.636C94.4304 245.436 94.918 245.419 95.4028 245.591C94.9295 245.793 94.4419 245.807 93.957 245.636Z" fill="black"/>
</g>
<g opacity="0.2">
<path d="M93.9336 245.003C94.407 244.803 94.8946 244.786 95.3794 244.958C94.9066 245.16 94.419 245.173 93.9336 245.003Z" fill="black"/>
</g>
<g opacity="0.2">
<path d="M93.9102 244.37C94.3835 244.17 94.8711 244.153 95.356 244.325C94.8826 244.527 94.395 244.541 93.9102 244.37Z" fill="black"/>
</g>
<g opacity="0.2">
<path d="M93.8867 243.737C94.3601 243.537 94.8477 243.52 95.3325 243.692C94.8597 243.894 94.3716 243.908 93.8867 243.737Z" fill="black"/>
</g>
<g opacity="0.2">
<path d="M93.8633 243.105C94.3367 242.904 94.8242 242.887 95.3091 243.059C94.8363 243.262 94.3487 243.275 93.8633 243.105Z" fill="black"/>
</g>
<g opacity="0.2">
<path d="M93.8398 242.472C94.3132 242.271 94.8008 242.255 95.2856 242.427C94.8123 242.629 94.3247 242.643 93.8398 242.472Z" fill="black"/>
</g>
<g opacity="0.2">
<path d="M93.8164 241.839C94.2898 241.639 94.7774 241.622 95.2622 241.794C94.7888 241.996 94.3013 242.009 93.8164 241.839Z" fill="black"/>
</g>
<path d="M28.9727 249.35L29.1315 253.664L33.9707 253.513L33.8119 249.199L28.9727 249.35Z" fill="#7B6EB9"/>
<path opacity="0.1" d="M30.7297 253.614C30.5555 253.068 30.484 252.521 30.4283 251.969L30.656 251.902C30.8383 251.842 30.8979 251.642 30.882 251.45C30.8837 251.257 30.8094 251.062 30.6232 251.014L30.3906 250.958C30.4048 250.405 30.4365 249.856 30.5708 249.301C30.7297 249.798 30.805 250.297 30.8575 250.797L30.6298 250.594C31.6169 250.64 31.6748 252.213 30.6931 252.319L30.905 252.103C30.8886 252.606 30.8509 253.109 30.7297 253.614Z" fill="black"/>
<path d="M33.9869 253.84L37.9394 258.355L37.3999 244.055L33.7969 248.811L33.9869 253.84Z" fill="#7B6EB9"/>
<path opacity="0.3" d="M33.9869 253.84L37.9394 258.355L37.3999 244.055L33.7969 248.811L33.9869 253.84Z" fill="white"/>
<path d="M25.9062 258.361C96.7612 258.027 176.245 258.024 247.099 258.361C176.244 258.698 96.7607 258.695 25.9062 258.361Z" fill="#263238"/>
</svg>
