<svg width="232" height="280" viewBox="0 0 232 280" fill="none" xmlns="http://www.w3.org/2000/svg">
<path d="M67.4434 250.916C67.4434 250.916 -29.3874 206.439 9.00047 151.005C51.842 89.139 -0.460054 92.4628 34.2342 38.5077C81.2436 -34.5993 179.123 10.8274 192.106 56.0709C205.088 101.314 179.616 122.815 204.947 142.5C230.277 162.186 215.148 237.803 175.511 237.803L106.884 243.651L67.4434 250.916Z" fill="#E2E2F2"/>
<path d="M135.576 245.125C69.3848 280.344 55.6162 250.373 55.7708 233.574C55.8739 224.004 60.9952 200.233 63.4656 174.018C65.2927 154.671 65.7047 133.962 61.587 116.674C61.4067 115.928 61.304 115.49 61.304 115.49C61.304 115.49 49.2083 68.077 84.0539 45.0778C118.899 22.0785 160.719 33.0893 179.12 72.0647C197.521 111.04 201.767 209.906 135.576 245.125Z" fill="#FFB27D"/>
<path d="M135.922 121.382C135.77 121.465 135.584 121.442 135.455 121.327C129.075 115.606 119.442 112.251 106.7 111.327C106.498 111.312 106.346 111.137 106.36 110.935C106.375 110.735 106.558 110.592 106.752 110.598C119.755 111.54 129.58 115.001 136.082 120.908C136.213 121.026 136.185 121.239 136.031 121.323L135.922 121.382Z" fill="#D3784A"/>
<path d="M144.644 147.735C144.854 147.725 145.025 147.907 145.001 148.116C144.251 154.634 142.244 159.583 141.597 161.05C136.504 172.582 129.324 181.22 119.65 187.454C118.916 187.929 118.174 188.382 117.43 188.816C117.28 188.904 117.089 188.918 116.944 188.824C116.833 188.752 116.789 188.646 116.789 188.541C116.789 188.424 116.849 188.31 116.958 188.247C117.728 187.8 118.494 187.334 119.254 186.843C128.806 180.685 135.896 172.153 140.931 160.755C141.566 159.318 143.529 154.47 144.27 148.08C144.291 147.891 144.446 147.744 144.636 147.735L144.644 147.735Z" fill="#D3784A"/>
<path opacity="0.5" d="M95.3557 62.9492C95.3557 62.9492 125.763 81.0487 118.828 92.3482C111.893 103.648 84.5806 97.2408 84.5806 97.2408C84.5806 97.2408 82.3125 94.5052 83.8806 89.7745C85.7325 84.1868 83.6055 81.1848 85.7853 76.8436C89.1577 70.1272 95.3557 62.9492 95.3557 62.9492Z" fill="#ED905D"/>
<path d="M93.1701 183.318C88.5725 185.452 89.9031 192.034 86.0135 196.457C82.1238 200.88 71.475 199.523 68.3682 193.695C65.7195 188.72 70.3171 186.264 76.2893 184.299C77.1034 184.032 77.9405 183.776 78.7901 183.52C79.0128 183.454 79.2377 183.387 79.4625 183.32C81.1574 182.821 82.3964 182.055 83.2585 181.105C83.5479 180.787 83.7937 180.448 83.9999 180.088C84.308 179.557 84.5267 178.984 84.6662 178.383C84.7098 178.191 84.7453 177.996 84.7744 177.798C85.166 175.098 84.104 171.907 82.3569 169.078C82.2256 168.866 82.0902 168.656 81.9529 168.447C81.6509 167.994 81.3532 167.509 81.0743 167.001C80.6431 166.22 80.2476 165.385 79.9103 164.517C79.1481 162.563 78.6879 160.456 78.8067 158.481C79.0212 154.988 81.0431 151.909 86.4196 150.821C89.6556 150.163 92.731 150.286 95.5587 150.883C97.8243 151.358 99.9315 152.134 101.835 153.054C102.205 153.233 102.57 153.418 102.924 153.608C105.066 154.749 106.909 156.043 108.381 157.23C108.991 157.723 109.537 158.198 110.014 158.635C110.401 158.991 110.776 159.341 111.14 159.684C111.684 160.196 112.2 160.696 112.692 161.183C136.773 185.008 102.049 179.197 93.1701 183.318Z" fill="#ED905D"/>
<path d="M146.64 205.337C171.918 176.717 170.521 123.846 159.944 95.8821C149.366 67.9179 127.31 56.5173 105.651 58.2914C83.9922 60.0655 81.2191 84.764 82.613 99.8184C84.0069 114.873 95.035 120.573 100.038 129.607C105.041 138.642 114.421 140.966 114.421 140.966C114.421 140.966 126.965 145.651 129.423 140.666C131.88 135.681 132.728 129.185 124.625 125.302C116.523 121.419 88.5644 111.644 86.1223 102.562C83.6804 93.4811 84.3135 71.2267 98.2536 63.3797C112.194 55.5329 125.766 78.7235 138.349 82.6793C150.931 86.6352 156.876 91.6905 157.409 102.32C157.941 112.949 162.389 118.665 163.231 123.46C164.073 128.254 164.575 167.011 152.456 184.15C140.337 201.289 133.74 197.041 128.263 203.815C122.787 210.588 129.333 215.807 134.513 214.62C139.693 213.434 146.64 205.337 146.64 205.337Z" fill="#ED905D"/>
<path d="M55.7594 233.946C55.5662 233.936 55.4133 233.776 55.4141 233.58C55.4545 223.338 60.3278 216.703 64.4083 212.94C68.825 208.867 73.1654 207.238 73.348 207.171C73.5375 207.101 73.7471 207.198 73.8168 207.387C73.8867 207.576 73.7899 207.786 73.6008 207.856C73.5572 207.872 69.1936 209.512 64.8825 213.495C60.9178 217.158 56.1837 223.617 56.144 233.583C56.1432 233.785 55.9791 233.947 55.7775 233.947C55.7715 233.946 55.7654 233.946 55.7594 233.946Z" fill="#D3784A"/>
<path d="M70.4131 159.818C70.7222 168.437 63.4645 174.019 63.4645 174.019C65.2916 154.673 65.7035 133.964 61.5859 116.676C62.5124 120.406 65.8067 132.163 71.8543 137.385C79.0859 143.662 70.0787 151.2 70.4131 159.818Z" fill="#ED905D"/>
<path d="M185.928 216.896C186.391 216.549 186.909 216.333 187.441 216.222L176.843 202.083L170.25 207.025L180.849 221.164C181.104 220.685 181.456 220.248 181.92 219.901L185.928 216.896Z" fill="#695BA6"/>
<path d="M226.392 279.235L230.4 276.23C232.093 274.962 232.437 272.562 231.168 270.869L191.286 217.663C190.365 216.435 188.849 215.928 187.438 216.222C186.906 216.334 186.389 216.549 185.925 216.896L181.917 219.9C181.454 220.248 181.102 220.684 180.846 221.164C180.168 222.435 180.229 224.033 181.15 225.261L221.032 278.467C222.3 280.159 224.7 280.503 226.392 279.235Z" fill="#4A4072"/>
<path d="M173.55 204.554L170.254 207.025L180.853 221.164C181.108 220.685 181.46 220.248 181.924 219.901L183.926 218.4L173.064 203.518L173.55 204.554Z" fill="#695BA6"/>
<path d="M181.925 219.901C181.461 220.248 181.109 220.685 180.854 221.164C180.176 222.435 180.237 224.033 181.158 225.262L221.039 278.467C222.308 280.159 224.708 280.503 226.401 279.235L228.591 277.593L183.928 218.4L181.925 219.901Z" fill="#2E294C"/>
<path d="M175.825 207.585C195.404 192.908 199.379 165.138 184.703 145.559C170.026 125.979 142.256 122.004 122.676 136.681C103.096 151.357 99.1216 179.127 113.798 198.707C128.475 218.287 156.245 222.261 175.825 207.585ZM124.949 139.713C142.854 126.292 168.249 129.927 181.67 147.832C195.091 165.737 191.456 191.131 173.552 204.552C155.647 217.973 130.252 214.338 116.831 196.434C103.41 178.529 107.045 153.134 124.949 139.713Z" fill="#695BA6"/>
<path opacity="0.29" d="M160.038 133.081C138.47 127.122 116.154 139.777 110.196 161.345C104.237 182.914 116.891 205.229 138.46 211.187L160.038 133.081Z" fill="#DCF6FA"/>
</svg>
