<svg width="230" height="225" viewBox="0 0 230 225" fill="none" xmlns="http://www.w3.org/2000/svg">
<path d="M115 224.889C178.513 224.889 230 174.546 230 112.445C230 50.3434 178.513 0 115 0C51.4873 0 0 50.3434 0 112.445C0 174.546 51.4873 224.889 115 224.889Z" fill="#E2E2F2"/>
<path d="M119.942 138.575C119.374 150.262 126.57 159.743 127.02 162.292C127.47 164.841 124.204 168.256 124.653 174.252C125.103 180.25 127.845 185.617 127.045 188.115C126.245 190.614 124.629 193.637 127.941 195.223C130.411 196.406 140.293 197.086 142.909 196.645C146.538 195.914 149.836 193.341 147.336 191.642C144.837 189.942 138.64 188.768 138.084 186.519C137.446 183.942 142.489 168.877 143.189 163.38C143.889 157.883 142.915 139.331 141.566 134.308C138.568 123.151 120.658 123.88 119.942 138.575Z" fill="#723E0A"/>
<path d="M127.054 162.902C130.58 158.997 137.303 153.33 143.299 152.085C143.037 145.105 142.368 137.303 141.565 134.308C138.567 123.151 120.656 123.88 119.942 138.574C119.374 150.261 126.57 159.742 127.02 162.29C127.056 162.488 127.061 162.692 127.054 162.902Z" fill="#452301"/>
<path d="M94.2656 123.168C94.2656 123.168 95.9676 152.257 121.652 152.257C147.337 152.257 147.337 123.168 147.337 123.168H94.2656Z" fill="white"/>
<path d="M101.232 140.534C99.9491 152.412 106.714 162.509 107.019 165.134C107.324 167.758 103.789 171.042 103.887 177.183C103.984 183.323 106.457 188.959 105.491 191.458C104.525 193.958 102.696 196.943 105.976 198.758C108.423 200.113 118.455 201.401 121.147 201.109C124.89 200.584 128.406 198.158 125.962 196.276C123.518 194.393 117.271 192.823 116.839 190.498C116.344 187.831 122.391 172.78 123.435 167.218C124.479 161.657 125.586 145.49 124.513 140.29C122.129 128.737 102.845 125.598 101.232 140.534Z" fill="#723E0A"/>
<path d="M120.047 97.5204C122.768 103.988 139.302 106.273 144.319 109.189C149.667 112.297 166.598 111.686 168.801 111.604C171.004 111.524 172.859 113.057 176.814 113.186C179.335 113.269 181.157 112.459 184.158 112.607C187.074 112.75 191.534 113.669 192.514 112.87C195.059 110.794 183.535 104.976 178.918 104.898C176.046 104.85 171.848 105.128 169.661 104.546C168.235 104.166 151.534 99.6274 150.043 98.9668C147.924 98.0277 137.343 89.386 130.338 86.8841C121.651 83.7791 117.325 91.0522 120.047 97.5204Z" fill="#452301"/>
<path d="M177.171 196.414C177.171 192.542 174.031 189.402 170.16 189.402C166.288 189.402 163.148 192.542 163.148 196.414C163.148 200.285 166.288 203.425 170.16 203.425C174.033 203.425 177.171 200.285 177.171 196.414Z" fill="#2F114D"/>
<path d="M32.2333 196.414C32.2333 192.542 29.0938 189.402 25.2221 189.402C21.3504 189.402 18.2109 192.542 18.2109 196.414C18.2109 200.285 21.3504 203.425 25.2221 203.425C29.0938 203.425 32.2333 200.285 32.2333 196.414Z" fill="#2F114D"/>
<path d="M171.209 191.026H20.8009C18.0984 191.026 15.5786 189.691 14.0606 187.456C12.5426 185.221 12.2308 182.387 13.2275 179.876L28.7525 140.722C35.5311 123.625 51.796 112.578 70.187 112.578H89.4342V119.612H70.187C54.6978 119.612 41.0013 128.917 35.2909 143.315L19.7659 182.469C19.5768 182.945 19.757 183.321 19.8796 183.504C20.0036 183.685 20.2872 183.992 20.8009 183.992H171.209V191.026Z" fill="white"/>
<path d="M39.4355 180.115H29.3743C27.2123 180.115 25.7314 177.935 26.5287 175.925L29.1826 169.232C30.0554 167.03 28.4326 164.641 26.0649 164.641H17.3773C16.0024 164.641 14.7655 165.48 14.2595 166.759L9.73615 178.166C8.59126 181.052 8.44304 184.292 9.56876 187.184C11.419 191.934 15.9078 194.9 20.8004 194.9H39.4343C41.287 194.9 42.7884 193.398 42.7884 191.546V183.469C42.7897 181.616 41.287 180.115 39.4355 180.115Z" fill="#4A4072"/>
<path d="M179.682 180.113H160.639C158.787 180.113 157.285 181.616 157.285 183.467V191.544C157.285 193.397 158.787 194.898 160.639 194.898H179.682C181.535 194.898 183.036 193.397 183.036 191.544V183.467C183.036 181.615 181.535 180.113 179.682 180.113Z" fill="#4A4072"/>
<path d="M114.101 74.9414C89.8901 74.9414 96.3263 118.331 96.3263 118.331H144.317C144.317 118.331 133.981 74.9414 114.101 74.9414Z" fill="#7B6EB9"/>
<path d="M200.534 109.738H74.6328V123.168H189.841C195.747 123.168 200.534 118.381 200.534 112.475V109.738Z" fill="#4A4072"/>
<path d="M103.581 97.4512C106.571 103.955 123.506 105.733 128.72 108.539C134.277 111.529 151.52 110.34 153.764 110.183C156.008 110.027 157.95 111.529 161.988 111.529C164.561 111.529 166.392 110.643 169.458 110.693C172.436 110.741 177.015 111.529 177.986 110.681C180.512 108.48 168.566 102.932 163.856 103.006C160.926 103.052 156.654 103.476 154.404 102.956C152.937 102.616 135.758 98.5463 134.214 97.9227C132.023 97.036 120.944 88.5783 113.719 86.2605C104.758 83.3867 100.591 90.9473 103.581 97.4512Z" fill="#723E0A"/>
<path d="M111.017 66.2305C111.017 66.2305 109.764 74.0607 106.961 78.1202C106.961 78.1202 116.345 88.3629 129.73 88.7513C131.728 88.8101 130.215 82.8122 129.994 77.2143L111.017 66.2305Z" fill="#452301"/>
<path d="M152.184 26.357C146.012 12.8841 113.497 10.2212 102.715 27.0482C97.2625 35.557 101.299 48.4791 103.145 55.0916C101.553 53.2401 97.702 53.6107 96.5699 56.3617C94.4399 61.5406 101.85 67.8298 105.1 64.0029C107.384 76.4382 123.658 88.0494 142.365 81.2222C157.432 75.7252 151.104 63.7818 151.334 55.5159C151.447 51.4065 156.801 36.4322 152.184 26.357Z" fill="#783F06"/>
<path d="M154.031 35.6073C148.962 35.2482 127.765 34.0407 119.585 38.2267C110.264 42.9967 102.858 51.7354 102.858 51.7354L102.086 51.2882C102.462 52.695 102.832 53.9881 103.141 55.0934C103.141 55.0934 104.437 56.1297 104.696 57.9812C104.696 57.9812 106.844 52.2146 115.54 47.0268C124.235 41.8377 126.692 44.6476 126.692 44.6476L128.508 43.8886C128.508 43.8886 128.105 38.7251 153.782 41.1324C153.975 39.3192 154.068 37.4575 154.031 35.6073Z" fill="#FFBDA8"/>
<path d="M103.144 55.0918C103.144 55.0918 121.692 32.0739 154.021 40.5711C154.021 40.5711 156.479 35.5392 154.103 32.5096C151.055 28.6239 108.661 27.9863 101.885 50.5224C101.885 50.5224 101.774 53.2773 103.144 55.0918Z" fill="#7B6EB9"/>
<path opacity="0.5" d="M132.004 31.1875C121.475 32.717 110.012 36.7663 104.43 45.1562C106.578 45.5101 105.794 48.7761 107.769 50.5637C112.285 46.7521 120.031 41.6091 130.614 39.5723C131.738 36.9222 132.326 34.074 132.004 31.1875Z" fill="#7B6EB9"/>
<path d="M125.238 33.6253C123.875 33.1793 124.847 31.0046 123.163 30.183C121.479 29.3613 120.346 31.4569 119.156 30.6557C117.49 29.5351 114.265 29.9466 114.079 34.3396C113.968 36.9513 115.637 39.466 118.005 40.7272C120.456 41.8197 123.465 41.5871 125.456 39.8941C128.806 37.0459 127.147 34.2488 125.238 33.6253Z" fill="#7B6EB9"/>
<path opacity="0.5" d="M114.395 32.5234C114.226 33.0358 114.11 33.6313 114.079 34.3405C113.968 36.9522 115.637 39.4669 118.005 40.7268C120.456 41.8193 123.465 41.5867 125.456 39.8937C126.115 39.3327 126.574 38.7756 126.882 38.2351C122.542 37.7815 117.293 35.9262 114.395 32.5234Z" fill="#7B6EB9"/>
<path d="M120.977 50.6157C122.087 49.7072 123.394 51.6992 124.995 50.7243C126.596 49.7493 125.441 47.664 126.757 47.0941C128.6 46.2955 129.992 43.3579 126.392 40.8317C124.252 39.3303 121.235 39.3802 118.897 40.695C116.655 42.1696 115.228 44.8286 115.581 47.4187C116.174 51.7759 119.423 51.8871 120.977 50.6157Z" fill="#7B6EB9"/>
<path opacity="0.5" d="M127.205 41.4949C126.964 41.2726 126.704 41.0502 126.392 40.8317C124.252 39.3303 121.235 39.3802 118.897 40.695C116.655 42.1696 115.228 44.8286 115.581 47.4187C115.703 48.3157 115.942 49.0248 116.252 49.5858C116.01 47.7931 122.961 40.4676 127.205 41.4949Z" fill="#7B6EB9"/>
<path d="M108.536 44.5407C108.569 43.107 106.194 43.3013 105.979 41.4395C105.763 39.5778 108.118 39.206 107.758 37.8183C107.254 35.8748 108.715 32.9704 112.92 34.2546C115.419 35.0187 117.237 37.4286 117.639 40.08C117.855 42.7531 116.636 45.5156 114.376 46.8305C110.576 49.0423 108.49 46.5481 108.536 44.5407Z" fill="#7B6EB9"/>
<path opacity="0.5" d="M111.969 34.0312C114.706 36.0322 114.635 44.5308 112.558 47.5757C113.112 47.4479 113.717 47.2141 114.376 46.8295C116.635 45.5146 117.854 42.7534 117.638 40.079C117.237 37.4263 115.419 35.0164 112.919 34.2536C112.718 34.1923 112.527 34.1475 112.337 34.1054C112.213 34.0773 112.089 34.0517 111.969 34.0312Z" fill="#7B6EB9"/>
<path d="M119.892 36.9023C117.466 35.7178 114.798 37.1209 114.901 37.3777C114.981 37.5745 117.066 36.9841 119.317 38.0817C121.568 39.1806 122.385 41.188 122.588 41.1305C122.854 41.0539 122.319 38.0868 119.892 36.9023Z" fill="#7B6EB9"/>
<path d="M116.524 43.9802C118.547 44.9679 120.857 43.6237 120.778 43.3962C120.717 43.2225 118.867 43.9431 116.99 43.027C115.112 42.1108 114.543 40.2082 114.369 40.267C114.14 40.3436 114.502 42.9925 116.524 43.9802Z" fill="#7B6EB9"/>
<path d="M119.044 40.5445C118.961 39.9426 118.396 39.7574 117.958 39.7701C117.483 39.7842 116.995 40.2608 117.016 40.7694C117.048 41.5156 117.709 41.8401 118.177 41.7724C118.661 41.7009 119.137 41.2243 119.044 40.5445Z" fill="white"/>
</svg>
