<svg width="261" height="216" viewBox="0 0 261 216" fill="none" xmlns="http://www.w3.org/2000/svg">
<g clip-path="url(#clip0_2327_12875)">
<path d="M21.2081 46.046C22.0308 45.5258 22.9098 45.1262 23.8186 44.8475L24.3078 42.23L28.7119 42.0625L29.3994 44.6347C30.3275 44.8428 31.2342 45.1747 32.0939 45.6312L34.2905 44.1265L37.5232 47.1202L36.19 49.4237C36.7105 50.246 37.1103 51.1251 37.3891 52.034L40.0074 52.5228L40.1755 56.9248L37.6021 57.6119C37.3938 58.539 37.0618 59.4453 36.6056 60.3051L38.1105 62.5006L35.1153 65.7317L32.8106 64.3987C31.9879 64.9188 31.1089 65.3185 30.1996 65.5971L29.7105 68.2147L25.3069 68.3822L24.6194 65.81C23.6918 65.6013 22.7851 65.27 21.9248 64.8135L19.7283 66.3182L16.4955 63.3244L17.8287 61.0209C17.3083 60.1987 16.9079 59.3201 16.6297 58.4112L14.0113 57.9223L13.8438 53.5209L16.4172 52.8338C16.6255 51.9067 16.958 51.0004 17.4137 50.1406L15.9088 47.9451L18.904 44.714L21.2081 46.046ZM23.6772 51.8639C21.9024 53.7781 22.0167 56.7682 23.9319 58.5416C25.8471 60.3155 28.8387 60.2013 30.613 58.287C32.3873 56.3728 32.2735 53.3827 30.3583 51.6093C28.443 49.8354 25.4515 49.9496 23.6772 51.8639Z" fill="#E2E2F2"/>
<path d="M223.146 139.206C223.968 138.686 224.847 138.286 225.756 138.008L226.245 135.39L230.649 135.223L231.337 137.795C232.265 138.003 233.172 138.335 234.031 138.791L236.228 137.287L239.461 140.281L238.128 142.584C238.649 143.407 239.048 144.286 239.327 145.195L241.945 145.684L242.113 150.085L239.54 150.772C239.331 151.699 238.999 152.605 238.543 153.465L240.048 155.661L237.053 158.892L234.748 157.559C233.925 158.079 233.046 158.479 232.137 158.757L231.648 161.375L227.244 161.542L226.557 158.97C225.629 158.761 224.723 158.43 223.862 157.974L221.666 159.478L218.433 156.485L219.767 154.181C219.246 153.359 218.846 152.48 218.568 151.571L215.949 151.082L215.781 146.681L218.355 145.994C218.564 145.067 218.896 144.161 219.352 143.301L217.847 141.105L220.842 137.874L223.146 139.206ZM225.615 145.024C223.84 146.938 223.954 149.928 225.869 151.702C227.785 153.476 230.776 153.361 232.551 151.447C234.325 149.533 234.211 146.543 232.296 144.769C230.381 142.996 227.389 143.11 225.615 145.024Z" fill="white"/>
<path d="M27.0644 22.504C27.4465 22.2619 27.8553 22.0767 28.2781 21.9468L28.5057 20.7301L30.5524 20.6523L30.8719 21.8482C31.3031 21.9452 31.7248 22.0991 32.1242 22.3115L33.1452 21.6123L34.6475 23.0038L34.0279 24.0744C34.2701 24.4569 34.4559 24.8654 34.5854 25.2875L35.8022 25.515L35.88 27.5607L34.6835 27.88C34.5864 28.311 34.4325 28.732 34.2205 29.1316L34.92 30.1522L33.5278 31.6537L32.4567 31.0344C32.0741 31.276 31.6659 31.4617 31.243 31.5911L31.016 32.8078L28.9692 32.8856L28.6497 31.6897C28.2186 31.5927 27.7973 31.4388 27.3975 31.227L26.3764 31.9261L24.8736 30.5346L25.4932 29.464C25.251 29.0821 25.0652 28.6736 24.9357 28.251L23.7184 28.0235L23.6406 25.9777L24.8371 25.6584C24.9341 25.2275 25.0881 24.8059 25.3006 24.4068L24.6011 23.3863L25.9933 21.8847L27.0644 22.504ZM28.2123 25.2082C27.3875 26.0983 27.4403 27.4876 28.3308 28.312C29.2208 29.1363 30.6114 29.0831 31.4362 28.1936C32.2609 27.304 32.2082 25.9141 31.3177 25.0897C30.4271 24.2654 29.0371 24.3186 28.2123 25.2082Z" fill="#E2E2F2"/>
<path d="M230.719 69.5105L235.757 71.622C235.757 71.622 237.531 67.3938 241.959 69.1605C244.259 70.0777 244.815 72.0686 244.816 73.4158C244.816 74.9799 244.012 76.4246 242.746 77.3439C241.301 78.3942 238.891 78.8893 235.747 76.8686L230.983 88.2232L235.965 90.3107L238.755 83.6596C238.755 83.6596 246.5 84.7824 249.729 77.0857C252.818 69.7218 246.928 65.2427 244.1 64.0573C241.937 63.1511 234.35 60.5862 230.719 69.5105Z" fill="#E2E2F2"/>
<path d="M235.044 92.6615L229.988 90.543L228.009 95.2625L233.065 97.381L235.044 92.6615Z" fill="#E2E2F2"/>
<path d="M236.445 43.5547L225.6 48.1836L226.895 49.7947L218.266 54.9291L230.825 49.9731L229.489 48.3114L236.445 43.5547Z" fill="#E2E2F2"/>
<path d="M198.928 11.7461L196.766 31.5247L200.209 30.9539L200.625 47.8911L203.724 25.3217L200.173 25.9108L198.928 11.7461Z" fill="#E2E2F2"/>
<path d="M219.967 16.9069L213.831 34.2213C213.33 35.6373 213.963 37.2046 215.307 37.8756C216.725 38.5831 218.449 38.0556 219.228 36.6761L228.34 20.5319C229.03 19.3095 228.492 17.7594 227.194 17.2262L223.055 15.5274C221.821 15.0203 220.413 15.6495 219.967 16.9069Z" fill="#E2E2F2"/>
<path d="M215.728 49.2662C214.09 51.1174 211.261 51.2906 209.409 49.6534C207.557 48.0167 207.384 45.1889 209.022 43.3382C210.659 41.4871 213.488 41.3139 215.34 42.9511C217.192 44.5878 217.366 47.4151 215.728 49.2662Z" fill="#E2E2F2"/>
<path d="M220.931 100.031C224.801 93.6098 226.124 85.766 224.856 78.3897C224.805 78.0949 224.745 77.8001 224.673 77.5069C224.131 74.9467 223.715 72.8676 222.477 70.693C222.351 70.4211 222.221 70.1514 222.087 69.8832C221.953 69.615 221.815 69.349 221.673 69.085C216.55 59.5815 206.198 53.1177 195.407 52.6836C193.571 35.295 181.413 19.3924 165.109 13.0543C148.805 6.71626 129.092 10.2286 115.984 21.8076C102.134 11.4385 82.9973 8.55956 66.7072 14.3937C50.4172 20.2277 37.4643 34.599 33.3546 51.4001C32.0976 56.5377 31.574 61.982 28.951 66.5754C26.9716 70.0424 23.9393 72.7606 21.347 75.7977C13.0743 85.4895 9.3504 98.905 11.4436 111.472C13.5368 124.038 21.4091 135.524 32.3774 142.014C23.6151 154.042 26.6897 172.988 38.8063 181.631C45.7651 186.596 55.0468 188.496 60.3493 195.199C62.6048 198.05 63.9114 201.526 65.8689 204.589C72.5234 215.004 87.3106 219.268 98.4923 213.996L157.885 198.907C177.848 200.508 198.344 193.984 213.705 181.14C219.399 176.378 224.518 170.601 226.984 163.602C229.451 156.603 228.863 148.222 224.127 142.507C235.31 130.997 233.71 109.74 220.931 100.031Z" fill="#E2E2F2"/>
<path d="M78.2104 127.789C79.068 127.247 79.9841 126.83 80.9321 126.54L81.4421 123.812L86.0331 123.637L86.7493 126.318C87.7165 126.536 88.6619 126.881 89.5587 127.357L91.8487 125.789L95.2187 128.91L93.8286 131.312C94.3715 132.169 94.7886 133.085 95.0788 134.032L97.8084 134.542L97.9832 139.131L95.3001 139.847C95.0825 140.814 94.7369 141.759 94.2608 142.655L95.83 144.944L92.7074 148.312L90.3046 146.922C89.447 147.465 88.5303 147.881 87.5824 148.172L87.0724 150.9L82.4814 151.075L81.7652 148.393C80.7979 148.176 79.8526 147.83 78.9563 147.354L76.6663 148.923L73.2963 145.802L74.6864 143.4C74.1435 142.543 73.7264 141.627 73.4362 140.679L70.7061 140.17L70.5312 135.581L73.2143 134.865C73.4315 133.898 73.7781 132.953 74.2531 132.057L72.684 129.768L75.8066 126.4L78.2104 127.789ZM80.7844 133.854C78.9344 135.85 79.0529 138.967 81.0501 140.817C83.0467 142.666 86.1652 142.547 88.0151 140.551C89.8651 138.555 89.7461 135.438 87.7494 133.589C85.7528 131.74 82.6343 131.858 80.7844 133.854Z" fill="white"/>
<path d="M162.757 54.2435C163.22 53.9503 163.715 53.7254 164.227 53.5683L164.503 52.0944L166.983 52L167.37 53.4489C167.892 53.5663 168.403 53.753 168.887 54.0097L170.124 53.1624L171.945 54.8487L171.194 56.1457C171.488 56.609 171.713 57.1037 171.869 57.6155L173.344 57.891L173.438 60.3697L171.989 60.7563C171.871 61.2786 171.684 61.7889 171.428 62.273L172.275 63.5096L170.589 65.3294L169.291 64.5786C168.828 64.8718 168.333 65.0967 167.821 65.2537L167.545 66.7277L165.065 66.8221L164.678 65.3732C164.156 65.2558 163.645 65.069 163.161 64.8123L161.924 65.6597L160.103 63.9734L160.854 62.6763C160.561 62.213 160.336 61.7184 160.178 61.2066L158.704 60.9311L158.609 58.4523L160.059 58.0652C160.176 57.543 160.363 57.0327 160.62 56.5485L159.772 55.312L161.459 53.4922L162.757 54.2435ZM164.147 57.52C163.148 58.5984 163.212 60.2821 164.291 61.2807C165.369 62.2798 167.054 62.2151 168.053 61.1372C169.052 60.0593 168.988 58.3751 167.91 57.3765C166.831 56.3774 165.146 56.4421 164.147 57.52Z" fill="white"/>
<path d="M42.8945 157.437C43.4938 157.058 44.1343 156.767 44.7967 156.564L45.1532 154.657L48.362 154.535L48.8626 156.409C49.5386 156.561 50.1994 156.803 50.8258 157.135L52.4263 156.039L54.7815 158.22L53.8101 159.899C54.1896 160.498 54.4809 161.138 54.6839 161.8L56.5918 162.157L56.714 165.364L54.839 165.864C54.6871 166.54 54.4454 167.2 54.1129 167.826L55.2096 169.426L53.0271 171.78L51.3478 170.809C50.748 171.189 50.1075 171.48 49.4451 171.682L49.0886 173.589L45.8799 173.711L45.3793 171.837C44.7033 171.685 44.0424 171.444 43.416 171.111L41.8156 172.207L39.4598 170.026L40.4312 168.348C40.0517 167.749 39.7605 167.109 39.5574 166.446L37.6495 166.09L37.5273 162.882L39.4024 162.382C39.5543 161.706 39.7965 161.045 40.1285 160.419L39.0317 158.82L41.2142 156.466L42.8945 157.437ZM44.6939 161.676C43.4009 163.071 43.4839 165.25 44.8797 166.542C46.275 167.834 48.4549 167.751 49.7479 166.356C51.0409 164.961 50.9579 162.783 49.5621 161.49C48.1662 160.198 45.9869 160.281 44.6939 161.676Z" fill="white"/>
<path d="M188.585 162.145C189.185 161.765 189.825 161.474 190.488 161.271L190.844 159.364L194.053 159.242L194.553 161.116C195.229 161.268 195.89 161.51 196.517 161.842L198.117 160.746L200.472 162.927L199.501 164.606C199.88 165.205 200.172 165.845 200.375 166.507L202.283 166.864L202.405 170.071L200.53 170.571C200.378 171.247 200.136 171.907 199.804 172.533L200.9 174.133L198.718 176.488L197.039 175.517C196.439 175.896 195.798 176.187 195.136 176.39L194.779 178.297L191.571 178.419L191.07 176.545C190.394 176.393 189.733 176.151 189.107 175.819L187.506 176.915L185.151 174.734L186.123 173.055C185.743 172.456 185.452 171.816 185.249 171.154L183.341 170.797L183.219 167.59L185.094 167.089C185.246 166.413 185.488 165.753 185.82 165.127L184.723 163.527L186.906 161.173L188.585 162.145ZM190.385 166.383C189.092 167.778 189.175 169.957 190.571 171.249C191.966 172.541 194.146 172.458 195.439 171.063C196.732 169.668 196.649 167.49 195.253 166.197C193.857 164.906 191.678 164.989 190.385 166.383Z" fill="white"/>
<path d="M56.9097 103.583C56.158 101.717 54.5659 100.175 52.6309 99.6234C50.9688 99.1492 49.0129 99.3349 47.7173 98.1923C47.1013 97.6492 46.737 96.8786 46.1941 96.2624C45.2237 95.1615 43.747 94.6304 42.2921 94.4347C37.4151 93.7774 32.9421 97.1134 31.1641 101.016C29.1701 102.334 27.1427 103.681 25.6372 105.537C24.1318 107.394 23.2037 109.873 23.7611 112.196C24.1709 113.902 25.3256 115.356 25.7463 117.06C26.1305 118.615 25.8742 120.25 25.9979 121.847C26.1216 123.444 26.8008 125.196 28.2931 125.78C30.1332 126.499 32.4133 125.145 34.1129 126.152C35.2681 126.837 35.6393 128.336 36.5825 129.292C38.219 130.95 40.9762 130.523 43.178 129.762C45.7227 128.881 48.1673 127.711 50.4494 126.281C51.9418 125.346 53.3867 124.279 54.4422 122.869C55.4977 121.459 56.1309 119.661 55.8396 117.925C55.6621 116.866 55.1537 115.87 55.0879 114.798C54.9715 112.911 56.2149 111.248 56.8867 109.48C57.6014 107.599 57.6614 105.449 56.9097 103.583Z" fill="white"/>
<path d="M53.2607 124.066L48.4995 127.346L48.4922 127.352L53.3656 129.078L53.2607 124.066Z" fill="white"/>
<path d="M37.7333 112.244C37.7333 113.328 36.8537 114.207 35.769 114.207C34.6843 114.207 33.8047 113.328 33.8047 112.244C33.8047 111.16 34.6843 110.281 35.769 110.281C36.8537 110.281 37.7333 111.16 37.7333 112.244Z" fill="#594C8B"/>
<path d="M43.8343 112.244C43.8343 113.328 42.9547 114.207 41.87 114.207C40.7853 114.207 39.9062 113.328 39.9062 112.244C39.9062 111.16 40.7858 110.281 41.87 110.281C42.9553 110.281 43.8343 111.16 43.8343 112.244Z" fill="#594C8B"/>
<path d="M49.9325 112.244C49.9325 113.328 49.0529 114.207 47.9682 114.207C46.8835 114.207 46.0039 113.328 46.0039 112.244C46.0039 111.16 46.8835 110.281 47.9682 110.281C49.0529 110.281 49.9325 111.16 49.9325 112.244Z" fill="#594C8B"/>
<path d="M206.333 70.4345C205.89 69.7207 204.941 69.5475 204.104 69.4718C201.07 69.1985 198.001 69.3054 194.994 69.7896C193.93 69.9607 192.416 69.8632 192.313 68.792C192.252 68.1592 192.823 67.6311 193.417 67.4047C194.446 67.0124 195.591 67.1986 196.693 67.1731C197.795 67.1475 199.046 66.7818 199.489 65.7732C200.162 64.2435 198.414 62.6585 196.76 62.4179C195.105 62.1769 193.367 62.6324 191.77 62.1367L188.289 62.2113C185.719 62.2552 183.155 62.6272 180.678 63.3159C179.985 63.5089 179.169 63.8793 179.119 64.5967C179.069 65.2995 179.793 65.7816 180.128 66.4019C180.803 67.6505 179.704 69.2251 178.372 69.716C177.039 70.207 175.567 70.0092 174.151 70.1167C172.736 70.2247 171.158 70.8185 170.689 72.1578C170.32 73.2158 170.764 74.4185 170.439 75.4906C170.026 76.8508 168.523 77.5651 167.124 77.815C165.724 78.0654 164.245 78.0268 162.951 78.6164C161.073 79.4725 159.937 81.7061 160.351 83.7273C160.764 85.7485 162.687 87.3565 164.75 87.4066C165.753 87.4312 166.735 87.1296 167.736 87.0774C168.467 87.0393 169.262 87.1807 169.843 87.5908C169.967 89.7049 171.431 91.7783 173.507 92.3345C174.89 92.7054 176.373 92.4722 177.775 92.768C179.177 93.0633 180.617 94.2539 180.35 95.6605C180.16 96.6639 179.162 97.4 179.083 98.4179C178.986 99.6633 180.338 100.574 181.583 100.688C182.828 100.801 184.073 100.418 185.321 100.489C186.57 100.561 187.962 101.356 187.991 102.605C188.023 103.994 186.388 104.975 186.358 106.363C186.334 107.527 187.448 108.388 188.534 108.807C189.62 109.227 190.838 109.442 191.692 110.233C192.547 111.023 192.692 112.705 191.627 113.176C193.348 113.115 194.359 110.62 193.166 109.379C192.427 108.612 191.185 108.403 190.614 107.503C189.978 106.501 190.534 105.112 191.449 104.356C192.364 103.6 193.548 103.274 194.631 102.787C195.714 102.301 196.8 101.53 197.081 100.377C197.502 98.648 195.843 97.0129 194.106 96.6252C192.37 96.2376 190.57 96.6748 188.793 96.7802C187.016 96.8856 184.997 96.5245 183.994 95.0548C185.929 94.135 187.864 93.2151 189.8 92.2953C190.329 92.0438 190.909 91.736 191.09 91.1788C191.412 90.1818 190.274 89.3694 189.319 88.9353C188.059 88.3625 186.799 87.7901 185.538 87.2172C185.524 86.9898 185.476 86.7644 185.389 86.5468C187.684 85.603 190.278 85.9651 192.736 86.2979C195.195 86.6308 197.825 86.8927 200.045 85.7851C202.265 84.6774 203.694 81.6518 202.267 79.6233C201.497 78.5287 200.007 77.779 199.975 76.4407C199.948 75.3341 201.004 74.4952 202.053 74.1414C203.103 73.7877 204.255 73.7172 205.226 73.184C206.196 72.6508 206.917 71.3746 206.333 70.4345Z" fill="white"/>
<path d="M178.761 78.6617C179.799 78.6617 180.64 77.821 180.64 76.784C180.64 75.7469 179.799 74.9062 178.761 74.9062C177.724 74.9062 176.883 75.7469 176.883 76.784C176.883 77.821 177.724 78.6617 178.761 78.6617Z" fill="#594C8B"/>
<path d="M186.476 76.784C186.476 77.8212 185.635 78.6617 184.597 78.6617C183.56 78.6617 182.719 77.8212 182.719 76.784C182.719 75.7468 183.56 74.9062 184.597 74.9062C185.635 74.9062 186.476 75.7468 186.476 76.784Z" fill="#594C8B"/>
<path d="M190.429 78.6617C191.467 78.6617 192.308 77.821 192.308 76.784C192.308 75.7469 191.467 74.9062 190.429 74.9062C189.392 74.9062 188.551 75.7469 188.551 76.784C188.551 77.821 189.392 78.6617 190.429 78.6617Z" fill="#594C8B"/>
<path d="M58.8916 33.5173C54.7182 33.499 50.6544 36.1625 49.007 39.9952C47.3596 43.8279 48.2245 48.607 51.1107 51.6206C45.9815 52.7282 42.6872 58.7309 44.0642 63.7917C45.4407 68.8531 50.8507 72.3148 56.0853 71.9512C61.3199 71.5875 66.0091 67.7611 67.9326 62.8813C69.352 66.9206 73.4048 69.8882 77.6862 70.0229C81.9671 70.1575 86.199 67.4502 87.8689 63.5079C90.1787 67.8081 96.769 68.5275 100.539 65.4263C104.31 62.3251 105.178 56.5677 103.368 52.0343C101.558 47.5015 97.5337 44.1362 93.1035 42.0842C95.9265 39.5371 96.2804 34.8733 94.2681 31.6474C92.2563 28.422 88.2865 26.694 84.4884 26.8886C80.6903 27.0832 77.1151 29.011 74.4284 31.7011C73.208 28.4908 69.6819 26.3235 66.2649 26.6835C62.8478 27.0435 59.851 29.8975 59.327 33.2914" fill="white"/>
<path d="M64.6962 42.8322L69.5994 51.4665C70.0003 52.1724 70.8647 52.4692 71.6148 52.1578C72.4062 51.8296 72.8008 50.939 72.5127 50.1324L69.1416 40.6972C68.8863 39.983 68.0626 39.6532 67.3845 39.995L65.225 41.0833C64.5814 41.4078 64.3397 42.2051 64.6962 42.8322Z" fill="#594C8B"/>
<path d="M76.4197 56.0171C76.5961 57.3413 75.6654 58.5575 74.3411 58.7338C73.0162 58.9101 71.7995 57.9799 71.623 56.6562C71.4466 55.3326 72.3773 54.1159 73.7016 53.9395C75.0265 53.7627 76.2433 54.6929 76.4197 56.0171Z" fill="#594C8B"/>
<path d="M80.5627 37.6991L80.7203 46.2671C80.7334 46.9678 81.2669 47.5485 81.9637 47.6215C82.6992 47.6982 83.3658 47.1859 83.4801 46.4554L84.8149 37.9114C84.9162 37.2645 84.427 36.6754 83.7719 36.6551L81.6855 36.5904C81.0633 36.5711 80.5517 37.0766 80.5627 37.6991Z" fill="#EBEBEB"/>
<path d="M84.0121 52.5291C83.5997 53.606 82.3929 54.1449 81.3155 53.7328C80.2381 53.3211 79.6988 52.1143 80.1112 51.0375C80.5231 49.9606 81.731 49.4216 82.8079 49.8338C83.8853 50.2455 84.424 51.4522 84.0121 52.5291Z" fill="#EBEBEB"/>
<path d="M147.457 162.14C150.552 162.127 153.567 164.102 154.788 166.945C156.01 169.788 155.369 173.332 153.228 175.568C157.032 176.389 159.476 180.841 158.454 184.595C157.434 188.349 153.421 190.916 149.538 190.647C145.656 190.377 142.178 187.539 140.751 183.92C139.699 186.915 136.693 189.117 133.517 189.216C130.342 189.316 127.203 187.308 125.965 184.384C124.252 187.574 119.364 188.107 116.567 185.807C113.771 183.507 113.127 179.237 114.469 175.874C115.811 172.512 118.796 170.016 122.082 168.495C119.989 166.605 119.726 163.146 121.219 160.754C122.711 158.361 125.655 157.08 128.472 157.224C131.289 157.368 133.941 158.798 135.934 160.793C136.839 158.412 139.454 156.805 141.988 157.072C144.523 157.339 146.745 159.456 147.134 161.973" fill="white"/>
<path d="M143.151 169.053L139.514 175.457C139.217 175.98 138.576 176.2 138.02 175.969C137.433 175.726 137.14 175.065 137.354 174.467L139.854 167.469C140.043 166.939 140.654 166.695 141.157 166.948L142.759 167.755C143.236 167.996 143.416 168.587 143.151 169.053Z" fill="#594C8B"/>
<path d="M134.458 178.834C134.327 179.816 135.017 180.718 135.999 180.849C136.982 180.98 137.884 180.29 138.015 179.308C138.146 178.327 137.456 177.424 136.474 177.293C135.491 177.162 134.589 177.852 134.458 178.834Z" fill="#594C8B"/>
<path d="M131.383 165.241L131.266 171.596C131.256 172.115 130.86 172.546 130.344 172.6C129.798 172.657 129.304 172.277 129.219 171.735L128.229 165.398C128.154 164.918 128.517 164.481 129.002 164.466L130.55 164.418C131.011 164.404 131.391 164.779 131.383 165.241Z" fill="#EBEBEB"/>
<path d="M128.824 176.239C129.13 177.037 130.025 177.437 130.824 177.131C131.623 176.826 132.023 175.931 131.718 175.132C131.412 174.333 130.516 173.934 129.717 174.239C128.918 174.545 128.519 175.44 128.824 176.239Z" fill="#EBEBEB"/>
<path d="M159.207 123.552L154.765 136.089C154.401 137.114 154.86 138.249 155.833 138.735C156.86 139.247 158.109 138.865 158.672 137.866L165.27 126.176C165.769 125.292 165.38 124.169 164.439 123.783L161.443 122.553C160.549 122.186 159.529 122.642 159.207 123.552Z" fill="white"/>
<path d="M156.138 146.98C154.952 148.32 152.903 148.446 151.563 147.26C150.222 146.075 150.096 144.027 151.282 142.687C152.468 141.347 154.516 141.222 155.857 142.407C157.198 143.592 157.324 145.64 156.138 146.98Z" fill="white"/>
<path d="M83.0197 84.6028L87.4619 97.1397C87.8252 98.1649 87.3669 99.2997 86.3934 99.7854C85.3666 100.298 84.118 99.9159 83.5542 98.9167L76.9567 87.2272C76.4571 86.3423 76.8465 85.2195 77.7872 84.8334L80.784 83.6037C81.6776 83.2369 82.6971 83.6924 83.0197 84.6028Z" fill="white"/>
<path d="M86.0888 108.031C87.2748 109.371 89.3231 109.496 90.6636 108.311C92.0047 107.126 92.1305 105.078 90.9445 103.738C89.7585 102.398 87.7102 102.272 86.3691 103.458C85.0281 104.643 84.9028 106.69 86.0888 108.031Z" fill="white"/>
<path d="M107.391 38.4856H111.623C111.623 38.4856 111.623 34.5888 115.316 34.5188C117.234 34.4828 118.228 35.8602 118.632 36.9157C119.101 38.1413 118.959 39.538 118.33 40.6748C117.613 41.9729 116.04 43.1526 113.188 42.6011V53.0656H117.373V46.9362C117.373 46.9362 123.241 45.2724 123.241 38.1794C123.241 31.3926 117.692 29.8169 115.316 29.8164C113.5 29.8164 107.312 30.298 107.391 38.4856Z" fill="white"/>
<path d="M117.423 55.2188H113.176V59.5685H117.423V55.2188Z" fill="white"/>
<path d="M145.859 110.987C145.859 110.987 146.002 111.003 146.275 111.077C146.546 111.155 146.948 111.319 147.391 111.665C147.83 112.009 148.306 112.556 148.627 113.327C148.952 114.087 149.099 115.104 148.786 116.167C148.492 117.226 147.783 118.302 146.718 119.141C145.657 119.992 144.23 120.546 142.65 120.786C139.472 121.234 135.733 120.747 131.779 119.53C129.797 118.923 127.757 118.128 125.646 117.224C123.537 116.314 121.337 115.327 119.103 114.159C116.878 112.979 114.597 111.644 112.437 109.954C111.35 109.121 110.299 108.194 109.314 107.166C108.316 106.15 107.4 105.016 106.588 103.782C105.764 102.578 104.996 101.183 104.954 99.5957C104.946 98.8119 105.207 97.9927 105.761 97.3955C106.306 96.7887 107.073 96.4302 107.852 96.2531C109.432 95.889 111.067 96.131 112.655 96.4176C114.255 96.7119 115.845 97.1654 117.428 97.6964C120.588 98.7866 123.748 100.104 127.001 101.455C130.232 102.841 133.514 104.445 136.491 106.685C137.975 107.804 139.375 109.082 140.601 110.544C141.819 112.002 142.908 113.648 143.519 115.523C144.12 117.364 144.344 119.502 143.479 121.382C142.656 123.284 140.731 124.54 138.724 124.93C136.686 125.365 134.551 124.931 132.645 124.126C130.728 123.306 128.959 122.158 127.294 120.864C123.973 118.247 121.184 114.901 118.846 111.224C116.499 107.542 114.579 103.535 112.723 99.4462C111.794 97.4005 110.881 95.3168 110.172 93.1325C109.821 92.0406 109.517 90.9256 109.3 89.7864C109.08 88.6571 108.926 87.4521 109.214 86.2647C109.357 85.6783 109.645 85.0942 110.104 84.6634C110.552 84.2181 111.158 83.9592 111.762 83.8561C112.987 83.6612 114.21 83.9833 115.294 84.466C117.509 85.4268 119.311 87.1033 120.887 88.8911C123.986 92.5322 126.831 96.4591 129.319 100.686C130.553 102.803 131.701 104.991 132.694 107.267C133.201 108.4 133.655 109.56 134.088 110.732C134.513 111.896 134.936 113.132 134.895 114.45C134.851 115.736 134.247 117.144 132.974 117.75C131.698 118.348 130.283 117.97 129.124 117.474C126.785 116.396 124.685 114.844 122.912 112.957C122.03 112.011 121.237 110.978 120.541 109.879C119.857 108.78 119.232 107.611 118.879 106.329C118.528 105.068 118.419 103.638 118.997 102.364C119.56 101.078 120.886 100.253 122.225 100.064C124.943 99.6363 127.743 101.116 129.122 103.467C129.809 104.64 130.126 106.09 129.779 107.452C129.437 108.798 128.557 109.993 127.355 110.709C126.754 111.064 126.064 111.29 125.353 111.315C124.639 111.344 123.936 111.157 123.308 110.843C122.048 110.194 121.135 109.04 120.601 107.767C120.072 106.506 119.889 104.958 120.634 103.661C121.009 103.019 121.75 102.576 122.506 102.577C123.26 102.566 123.964 102.883 124.517 103.35C125.619 104.335 126.044 105.719 126.518 106.978C126.967 108.27 127.315 109.63 127.337 111.034C127.367 112.433 127.015 113.867 126.232 115.061C125.47 116.267 124.143 117.142 122.709 117.313C121.281 117.502 119.841 117.181 118.565 116.585C117.277 116.003 116.129 115.128 115.18 114.084C113.276 111.997 112.142 109.208 112.084 106.364C112.006 103.52 112.879 100.692 114.393 98.2897C115.899 95.9031 118.105 93.8011 120.896 92.9272C122.277 92.4846 123.811 92.4635 125.198 92.9151C126.588 93.3625 127.794 94.1937 128.873 95.1087C131.036 96.9564 132.767 99.2172 134.31 101.542C135.819 103.886 137.363 106.223 138.405 108.836C139.445 111.417 139.829 114.395 138.879 117.082C138.409 118.415 137.567 119.621 136.477 120.514C135.386 121.407 134.1 122.032 132.755 122.391C130.046 123.136 127.179 122.75 124.601 121.899C123.3 121.476 122.048 120.937 120.827 120.351C119.608 119.766 118.409 119.131 117.267 118.401C114.983 116.965 112.94 114.99 111.805 112.51C110.644 110.056 110.191 107.366 110.04 104.724C109.901 102.075 110.138 99.384 111 96.8734C111.841 94.3541 113.428 92.1234 115.407 90.4121C117.383 88.6817 119.768 87.4854 122.25 86.7643C124.738 86.0522 127.371 85.8683 129.905 86.2323C132.44 86.5937 134.894 87.415 137.107 88.6397C139.316 89.8741 141.299 91.4772 142.943 93.3625C144.584 95.2527 145.824 97.4579 146.644 99.791C147.43 102.121 147.709 104.711 146.942 107.084C146.175 109.454 144.52 111.38 142.691 112.918C138.966 115.957 134.565 118.008 130.016 119.021C127.74 119.521 125.424 119.795 123.12 119.723C120.821 119.645 118.525 119.195 116.457 118.216C114.406 117.226 112.598 115.719 111.402 113.799C110.183 111.883 109.779 109.558 109.956 107.376C110.108 105.176 110.666 103.073 111.182 101.002C111.712 98.9349 112.336 96.8633 113.461 95.041C114.03 94.1396 114.733 93.3173 115.568 92.6567C116.407 92.0001 117.367 91.522 118.363 91.2004C120.366 90.5602 122.465 90.4849 124.486 90.6276C128.533 90.9178 132.484 92.3086 135.485 94.8466C138.47 97.3573 140.5 100.963 140.729 104.724C140.998 108.487 139.662 112.093 137.715 115.023C135.76 117.977 133.135 120.372 130.178 121.961C127.23 123.549 123.834 124.228 120.706 123.577C117.574 122.931 114.923 121.168 112.764 119.184C110.615 117.167 108.773 114.945 107.509 112.497C106.223 110.064 105.736 107.331 106.081 104.816C106.403 102.296 107.412 100.008 108.769 98.1448C110.129 96.273 111.864 94.8377 113.686 93.8434C117.349 91.8271 121.188 91.4019 124.347 91.668C127.537 91.9545 130.123 92.8816 132.095 93.7947C134.071 94.7213 135.465 95.6399 136.377 96.2823C137.288 96.928 137.721 97.3028 137.721 97.3028C137.721 97.3028 137.602 97.2234 137.375 97.0555C137.15 96.8848 136.808 96.6394 136.349 96.323C135.43 95.6954 134.029 94.7917 132.054 93.8834C130.084 92.9878 127.505 92.0806 124.336 91.8122C121.198 91.5629 117.393 92.0021 113.779 94.0092C111.981 94.9988 110.275 96.4202 108.941 98.2689C107.607 100.109 106.621 102.367 106.312 104.845C105.982 107.319 106.462 109.986 107.735 112.383C108.983 114.789 110.819 116.995 112.949 118.984C115.089 120.943 117.706 122.669 120.766 123.292C123.818 123.922 127.137 123.256 130.035 121.688C132.94 120.121 135.525 117.755 137.445 114.842C139.359 111.953 140.658 108.411 140.39 104.747C140.163 101.09 138.179 97.571 135.256 95.1191C132.32 92.6438 128.443 91.2795 124.461 90.9987C122.47 90.859 120.413 90.9399 118.483 91.5613C117.522 91.8726 116.605 92.3319 115.807 92.9579C115.012 93.5884 114.341 94.3744 113.792 95.2452C112.707 97.0059 112.092 99.0424 111.567 101.099C111.055 103.167 110.505 105.256 110.359 107.4C110.191 109.535 110.581 111.745 111.751 113.582C112.9 115.423 114.65 116.883 116.638 117.839C118.641 118.786 120.881 119.227 123.135 119.3C125.395 119.369 127.681 119.097 129.925 118.602C134.408 117.602 138.757 115.567 142.412 112.581C144.204 111.074 145.797 109.204 146.523 106.946C147.252 104.692 146.99 102.201 146.222 99.93C145.422 97.6567 144.21 95.5021 142.604 93.655C140.996 91.8121 139.052 90.2436 136.89 89.0362C132.568 86.6486 127.26 85.7749 122.38 87.2069C119.959 87.9114 117.635 89.0795 115.716 90.7619C113.793 92.4284 112.263 94.5791 111.447 97.0239C110.611 99.4613 110.377 102.093 110.515 104.697C110.664 107.298 111.113 109.934 112.237 112.304C113.333 114.694 115.287 116.585 117.527 117.998C118.646 118.714 119.828 119.339 121.037 119.919C122.245 120.498 123.479 121.029 124.752 121.442C127.28 122.276 130.042 122.64 132.631 121.926C133.919 121.583 135.143 120.985 136.172 120.143C137.2 119.299 137.983 118.178 138.427 116.92C139.324 114.38 138.973 111.525 137.959 109.012C136.947 106.472 135.412 104.139 133.91 101.809C132.379 99.5016 130.674 97.279 128.561 95.4763C127.51 94.5851 126.351 93.7929 125.051 93.3757C123.758 92.9574 122.345 92.9736 121.038 93.3897C118.402 94.2123 116.262 96.2298 114.804 98.5469C113.336 100.876 112.494 103.615 112.569 106.349C112.623 109.079 113.713 111.758 115.538 113.757C116.446 114.756 117.543 115.591 118.767 116.145C119.978 116.712 121.338 117.006 122.643 116.833C123.952 116.672 125.123 115.902 125.831 114.794C126.552 113.693 126.885 112.36 126.857 111.04C126.837 109.711 126.505 108.399 126.065 107.133C125.603 105.883 125.163 104.553 124.205 103.712C123.732 103.31 123.12 103.041 122.516 103.054C121.912 103.058 121.35 103.39 121.039 103.912C120.415 104.987 120.541 106.415 121.041 107.583C121.536 108.77 122.393 109.838 123.524 110.418C124.648 111.018 126.035 110.967 127.114 110.298C128.199 109.655 129.012 108.553 129.319 107.336C129.632 106.117 129.35 104.791 128.714 103.703C127.436 101.513 124.795 100.125 122.299 100.525C121.068 100.706 119.92 101.428 119.421 102.56C118.91 103.679 118.991 105.001 119.327 106.203C119.661 107.42 120.262 108.551 120.933 109.631C121.612 110.705 122.387 111.714 123.249 112.64C124.976 114.482 127.045 116.009 129.305 117.051C130.417 117.533 131.712 117.846 132.776 117.335C133.839 116.841 134.399 115.602 134.437 114.432C134.478 113.228 134.084 112.043 133.66 110.886C133.231 109.724 132.782 108.573 132.28 107.448C131.296 105.188 130.157 103.014 128.931 100.911C126.465 96.7131 123.627 92.7907 120.557 89.1789C119.003 87.4116 117.243 85.7818 115.12 84.8607C114.075 84.3924 112.929 84.1043 111.832 84.2781C110.726 84.4278 109.859 85.2878 109.625 86.3693C109.362 87.4461 109.496 88.5965 109.714 89.7068C109.925 90.8258 110.224 91.9239 110.57 93.0023C111.268 95.1602 112.172 97.2318 113.098 99.2743C114.949 103.361 116.857 107.351 119.182 111.008C121.499 114.659 124.257 117.971 127.532 120.559C129.172 121.837 130.921 122.973 132.79 123.775C134.652 124.562 136.705 124.976 138.646 124.563C140.568 124.19 142.372 123.007 143.142 121.23C143.957 119.472 143.757 117.424 143.174 115.635C142.584 113.817 141.526 112.208 140.328 110.769C139.124 109.328 137.745 108.066 136.28 106.959C133.342 104.74 130.087 103.141 126.868 101.754C123.629 100.403 120.462 99.0758 117.326 97.9876C115.753 97.457 114.178 97.0054 112.596 96.7106C111.022 96.4223 109.419 96.1882 107.915 96.5346C107.172 96.7017 106.464 97.0364 105.97 97.5856C105.466 98.1277 105.227 98.8652 105.232 99.5939C105.266 101.076 105.997 102.441 106.813 103.633C107.612 104.853 108.516 105.976 109.5 106.984C110.473 108.003 111.513 108.925 112.589 109.755C114.729 111.437 116.994 112.772 119.209 113.953C121.431 115.123 123.624 116.115 125.727 117.031C127.832 117.939 129.863 118.738 131.834 119.349C135.763 120.575 139.481 121.071 142.627 120.642C144.19 120.412 145.596 119.873 146.641 119.044C147.691 118.226 148.394 117.173 148.689 116.138C149.004 115.099 148.869 114.106 148.556 113.352C148.248 112.591 147.786 112.047 147.357 111.701C146.477 111.01 145.837 111.025 145.859 110.987Z" fill="#594C8B"/>
<path d="M163.593 24.7196C163.593 24.7196 163.681 24.6257 163.879 24.466C164.079 24.3106 164.408 24.1055 164.893 23.9652C165.374 23.8269 166.021 23.769 166.749 23.9396C167.473 24.1019 168.288 24.5276 168.895 25.3107C169.51 26.0782 169.922 27.1572 169.975 28.3697C170.038 29.5859 169.694 30.9126 169.042 32.1878C167.703 34.7339 165.387 37.2017 162.427 39.4426C160.945 40.5674 159.295 41.637 157.528 42.7013C155.758 43.7605 153.883 44.8457 151.86 45.8605C149.833 46.8633 147.664 47.8233 145.301 48.5109C144.124 48.8652 142.898 49.1443 141.633 49.3227C140.371 49.5168 139.065 49.5899 137.742 49.534C136.434 49.5027 135.021 49.3295 133.855 48.5375C133.287 48.1368 132.834 47.5279 132.692 46.8231C132.537 46.1203 132.675 45.3831 132.953 44.7283C133.511 43.3973 134.54 42.3356 135.58 41.3297C136.633 40.3196 137.796 39.3998 139.012 38.5248C140.23 37.6504 141.507 36.826 142.805 36.0001C144.104 35.1758 145.419 34.3363 146.774 33.5198C149.479 31.8914 152.367 30.3424 155.557 29.35C157.148 28.8559 158.811 28.5064 160.516 28.3796C162.214 28.2565 163.979 28.3264 165.657 28.8612C166.494 29.1246 167.308 29.4925 168.043 29.9959C168.777 30.4968 169.435 31.1438 169.878 31.9368C170.823 33.5151 170.732 35.553 169.97 37.2079C169.225 38.9067 167.8 40.2267 166.22 41.1909C164.623 42.1546 162.862 42.8401 161.048 43.3744C157.404 44.4199 153.507 44.698 149.603 44.4747C145.69 44.2546 141.762 43.5528 137.805 42.7619C135.826 42.3664 133.828 41.9391 131.867 41.3114C130.889 40.9947 129.918 40.6332 128.977 40.1949C128.039 39.7645 127.088 39.2479 126.385 38.4293C126.039 38.0245 125.771 37.5215 125.7 36.9763C125.612 36.4321 125.738 35.8712 125.973 35.3855C126.464 34.4093 127.329 33.6935 128.243 33.1598C130.091 32.0568 132.249 31.6238 134.376 31.413C138.651 31.0639 143.008 31.0493 147.392 31.4521C149.582 31.6613 151.779 31.9723 153.957 32.4413C155.049 32.6657 156.132 32.9432 157.213 33.2417C158.284 33.5422 159.399 33.8808 160.323 34.5904C160.781 34.9457 161.168 35.3986 161.428 35.9239C161.687 36.4462 161.81 37.0587 161.695 37.6467C161.592 38.2358 161.276 38.7653 160.878 39.189C160.481 39.6199 160.005 39.9601 159.511 40.257C157.511 41.3907 155.283 42.106 152.987 42.4076C151.839 42.5537 150.673 42.5907 149.511 42.5213C148.354 42.4436 147.181 42.2871 146.071 41.8759C144.976 41.4742 143.893 40.81 143.281 39.7452C142.974 39.2208 142.832 38.6062 142.842 37.9994C142.856 37.3916 143.028 36.7958 143.297 36.2584C144.392 34.0859 146.911 32.8321 149.319 33.058C150.519 33.1702 151.723 33.6919 152.519 34.641C153.308 35.5786 153.714 36.8286 153.607 38.0573C153.552 38.6699 153.358 39.2787 153.013 39.7984C152.669 40.3212 152.174 40.7276 151.626 41.0156C150.514 41.5827 149.21 41.6448 148.016 41.3693C146.835 41.0986 145.63 40.4245 145.093 39.2391C144.831 38.6495 144.894 37.9118 145.275 37.3817C145.648 36.8459 146.232 36.5067 146.846 36.3533C147.467 36.2046 148.105 36.2469 148.713 36.3528C149.323 36.4634 149.911 36.6257 150.502 36.7958C151.676 37.1448 152.843 37.6019 153.869 38.3151C154.895 39.0194 155.746 40.0154 156.199 41.1951C156.422 41.7846 156.542 42.4196 156.51 43.0566C156.482 43.6937 156.292 44.3172 155.999 44.8786C155.398 46.0008 154.42 46.8747 153.327 47.4867C152.782 47.7998 152.202 48.0544 151.601 48.2396C151.003 48.4373 150.382 48.5605 149.757 48.634C147.255 48.9262 144.644 48.2944 142.554 46.8565C140.453 45.4321 138.855 43.3253 137.901 40.9739C137.428 39.7963 137.091 38.5519 136.99 37.2763C136.881 36.0053 136.983 34.6999 137.398 33.4765C137.796 32.2499 138.574 31.1375 139.617 30.3721C140.659 29.602 141.889 29.1612 143.116 28.8554C145.588 28.2492 148.138 28.173 150.641 28.2669C153.14 28.3952 155.654 28.4959 158.095 29.1032C160.512 29.6954 162.867 30.97 164.316 33.0507C165.035 34.0812 165.467 35.3114 165.547 36.5615C165.626 37.8116 165.41 39.0664 164.97 40.2262C164.101 42.5735 162.329 44.4492 160.363 45.8777C159.376 46.6019 158.329 47.2306 157.263 47.8123C156.198 48.394 155.109 48.9346 153.981 49.3827C152.855 49.8319 151.682 50.1747 150.48 50.3474C149.279 50.5253 148.049 50.4862 146.861 50.2723C144.476 49.8351 142.283 48.7593 140.281 47.4873C138.281 46.2043 136.449 44.626 135.076 42.6909C133.687 40.7667 132.896 38.4554 132.685 36.1269C132.459 33.7906 132.834 31.4354 133.606 29.2566C133.991 28.1641 134.503 27.1206 135.111 26.1424C135.4 25.6441 135.766 25.1965 136.09 24.7222C136.463 24.2866 136.813 23.829 137.215 23.4215C138.801 21.7692 140.679 20.4168 142.725 19.4479C144.776 18.489 146.978 17.8848 149.207 17.6756C151.438 17.4706 153.688 17.7215 155.81 18.345C157.913 18.9899 159.934 20.1372 161.252 21.9252C162.568 23.7111 163.105 25.9139 163.267 28.0462C163.532 32.3422 162.724 36.6184 161.083 40.4573C160.257 42.3747 159.246 44.2029 157.989 45.8396C156.732 47.47 155.206 48.9012 153.418 49.8899C151.631 50.8613 149.594 51.3857 147.582 51.2526C146.58 51.1827 145.588 50.9479 144.678 50.5379C143.764 50.1346 142.932 49.5805 142.173 48.9544C140.654 47.6959 139.413 46.1886 138.172 44.7278C136.942 43.2586 135.76 41.722 135.025 39.957C134.668 39.0752 134.438 38.1393 134.393 37.1923C134.354 36.2443 134.507 35.301 134.793 34.4119C135.371 32.6276 136.411 31.0624 137.572 29.6672C139.898 26.8759 142.975 24.7316 146.386 23.877C149.769 23.0198 153.449 23.4283 156.301 25.2236C157.734 26.0965 158.933 27.273 159.921 28.5674C160.888 29.8791 161.662 31.3071 162.217 32.794C163.346 35.7606 163.717 38.9224 163.328 41.9036C163.134 43.3942 162.713 44.8352 162.093 46.1589C161.471 47.4841 160.589 48.6559 159.558 49.63C157.455 51.5678 154.786 52.5758 152.211 53.1095C149.618 53.6187 147.032 53.7972 144.591 53.4372C143.373 53.254 142.196 52.9238 141.125 52.4135C140.051 51.909 139.087 51.237 138.256 50.4638C136.589 48.9126 135.45 46.9832 134.803 45.022C134.151 43.0546 134.012 41.0417 134.24 39.1952C134.455 37.342 135.005 35.6469 135.712 34.1579C136.424 32.6672 137.298 31.3801 138.229 30.2912C140.107 28.1166 142.136 26.7152 143.834 25.7552C145.544 24.7984 146.944 24.261 147.89 23.9307C148.838 23.6026 149.337 23.4779 149.337 23.4779C149.337 23.4779 149.215 23.5201 148.973 23.5968C148.731 23.6704 148.371 23.7904 147.898 23.9568C146.957 24.2954 145.562 24.8406 143.86 25.8027C142.171 26.7679 140.153 28.1725 138.291 30.3434C137.367 31.4297 136.501 32.7132 135.796 34.1975C135.096 35.6803 134.554 37.3666 134.345 39.2073C134.122 41.0417 134.264 43.0363 134.915 44.985C135.56 46.9279 136.693 48.838 138.343 50.3688C139.98 51.9132 142.188 52.9676 144.611 53.2973C147.03 53.6511 149.605 53.47 152.18 52.9603C154.738 52.4266 157.379 51.4222 159.448 49.5106C160.461 48.549 161.329 47.3949 161.941 46.0864C162.552 44.7799 162.967 43.3561 163.157 41.8806C163.538 38.9302 163.167 35.7961 162.046 32.8593C161.496 31.3869 160.728 29.9751 159.771 28.6801C158.795 27.4029 157.611 26.2441 156.2 25.3869C153.397 23.6245 149.772 23.2238 146.435 24.0716C143.074 24.9168 140.034 27.0361 137.734 29.8013C136.584 31.1839 135.561 32.7314 134.997 34.4766C134.718 35.3464 134.571 36.2641 134.609 37.1829C134.653 38.1017 134.877 39.0116 135.227 39.8746C135.947 41.6015 137.116 43.1224 138.342 44.5859C139.583 46.0446 140.82 47.5436 142.316 48.7806C143.792 50.0286 145.627 50.9125 147.597 51.0241C149.559 51.1535 151.555 50.6401 153.306 49.6864C155.058 48.7165 156.561 47.3072 157.802 45.6961C159.042 44.0787 160.045 42.2652 160.863 40.3639C162.488 36.5594 163.287 32.3119 163.023 28.065C162.862 25.9598 162.331 23.8034 161.052 22.0728C159.777 20.3417 157.807 19.2189 155.736 18.5845C153.647 17.9725 151.429 17.7246 149.229 17.9281C147.031 18.1353 144.858 18.7326 142.835 19.6796C140.816 20.6359 138.964 21.9716 137.402 23.5994C137.005 24.0006 136.661 24.4514 136.294 24.8808C135.976 25.3483 135.615 25.7886 135.33 26.2796C134.733 27.2427 134.229 28.27 133.85 29.3459C133.091 31.4912 132.723 33.8099 132.945 36.1045C133.154 38.3928 133.928 40.6519 135.291 42.5401C136.639 44.4393 138.445 45.9972 140.425 47.2655C142.408 48.525 144.575 49.5846 146.909 50.0114C148.072 50.2201 149.268 50.2582 150.443 50.0845C151.619 49.9154 152.771 49.5794 153.883 49.1354C154.997 48.693 156.076 48.1577 157.135 47.5786C158.193 47.0005 159.231 46.377 160.204 45.6627C162.145 44.2509 163.873 42.4159 164.717 40.1328C165.145 39.0043 165.354 37.7866 165.277 36.5813C165.2 35.3761 164.786 34.2001 164.093 33.2057C163.403 32.2076 162.468 31.3859 161.426 30.7499C160.382 30.1092 159.222 29.6699 158.027 29.3672C155.63 28.7699 153.121 28.6666 150.63 28.5398C148.139 28.4459 145.614 28.5236 143.18 29.121C141.972 29.4215 140.776 29.854 139.778 30.5923C138.781 31.3259 138.04 32.3819 137.655 33.5657C137.255 34.7448 137.154 36.0147 137.261 37.2554C137.358 38.4998 137.688 39.718 138.152 40.8742C139.088 43.1803 140.655 45.2443 142.706 46.6337C144.743 48.0361 147.289 48.6513 149.725 48.3669C150.334 48.2959 150.938 48.1759 151.518 47.9839C152.102 47.8045 152.664 47.5572 153.193 47.254C154.252 46.6629 155.192 45.8166 155.759 44.7549C156.339 43.6973 156.391 42.4086 155.946 41.2937C155.515 40.1725 154.704 39.2182 153.715 38.5389C152.724 37.8497 151.584 37.4005 150.425 37.0561C149.268 36.7384 148.06 36.3539 146.909 36.6168C146.351 36.7556 145.819 37.0692 145.496 37.5366C145.167 37.9989 145.112 38.6187 145.34 39.1394C145.562 39.6653 145.988 40.0973 146.466 40.4286C146.95 40.7589 147.502 40.9786 148.078 41.1111C149.22 41.3756 150.466 41.3114 151.504 40.7803C152.015 40.5116 152.475 40.1328 152.791 39.6523C153.11 39.1733 153.291 38.6093 153.342 38.0349C153.444 36.8834 153.059 35.6944 152.317 34.8142C151.576 33.9278 150.44 33.43 149.295 33.3231C146.994 33.1039 144.568 34.3149 143.533 36.3773C143.279 36.886 143.119 37.4443 143.106 38.0067C143.098 38.5671 143.227 39.1321 143.511 39.6179C144.074 40.6019 145.1 41.2431 146.163 41.6323C147.237 42.0309 148.386 42.1859 149.53 42.2631C150.674 42.3319 151.823 42.2959 152.956 42.1519C155.217 41.8566 157.422 41.1471 159.381 40.0373C159.86 39.7493 160.318 39.4212 160.691 39.0158C161.066 38.6166 161.351 38.1319 161.445 37.6024C161.646 36.5286 161.017 35.4476 160.168 34.7933C159.296 34.1208 158.213 33.7859 157.145 33.4869C156.07 33.19 154.992 32.9135 153.906 32.6897C151.738 32.2222 149.552 31.9118 147.37 31.7026C143.007 31.2998 138.654 31.3123 134.402 31.6577C132.291 31.8653 130.169 32.2947 128.368 33.3685C127.473 33.8892 126.649 34.5805 126.191 35.4914C125.972 35.9438 125.86 36.4509 125.939 36.9429C126.003 37.4359 126.244 37.8951 126.57 38.2765C127.231 39.0476 128.15 39.5553 129.078 39.9805C130.009 40.4146 130.971 40.773 131.941 41.0876C133.887 41.7116 135.876 42.1384 137.853 42.5344C141.807 43.3269 145.724 44.0286 149.618 44.2504C153.504 44.4753 157.375 44.1998 160.99 43.1657C162.788 42.6377 164.538 41.9568 166.111 41.0093C167.668 40.0603 169.058 38.7706 169.781 37.1234C170.522 35.5123 170.607 33.5526 169.701 32.0396C169.278 31.2773 168.643 30.6518 167.93 30.1645C167.215 29.6746 166.419 29.3135 165.599 29.0542C163.952 28.5278 162.215 28.4568 160.532 28.5768C158.844 28.701 157.196 29.0459 155.615 29.5347C152.448 30.5166 149.571 32.0553 146.87 33.6773C145.517 34.4907 144.202 35.3281 142.902 36.1514C141.604 36.9753 140.329 37.797 139.115 38.6662C137.902 39.5359 136.744 40.45 135.698 41.4518C134.661 42.4509 133.645 43.5006 133.104 44.7914C132.835 45.4269 132.705 46.1292 132.849 46.7902C132.983 47.4544 133.406 48.0262 133.948 48.4102C135.063 49.1719 136.451 49.3525 137.75 49.3832C139.063 49.4401 140.359 49.3697 141.614 49.1787C142.871 49.0029 144.091 48.7274 145.262 48.3763C147.615 47.6959 149.779 46.7422 151.803 45.7452C153.824 44.7361 155.698 43.6556 157.468 42.6006C159.235 41.541 160.884 40.4772 162.365 39.3586C165.321 37.1313 167.634 34.6759 168.971 32.1512C169.623 30.8876 169.966 29.5749 169.909 28.3733C169.861 27.1739 169.458 26.1059 168.854 25.3452C168.258 24.5688 167.457 24.1457 166.741 23.9803C166.021 23.8066 165.38 23.8592 164.902 23.9923C163.93 24.2766 163.608 24.753 163.593 24.7196Z" fill="#4A4072"/>
<path d="M72.9023 170.066C72.9023 170.066 72.8235 170.033 72.6784 169.948C72.5354 169.86 72.3316 169.703 72.1319 169.434C71.9344 169.168 71.7484 168.78 71.6853 168.289C71.6181 167.802 71.6932 167.197 72.0387 166.639C72.3727 166.079 72.9473 165.573 73.688 165.259C74.4288 164.938 75.3326 164.843 76.276 164.953C78.1681 165.193 80.2383 166.057 82.317 167.374C83.3596 168.033 84.4069 168.809 85.4781 169.659C86.5467 170.512 87.6558 171.423 88.7557 172.444C89.8489 173.469 90.9487 174.593 91.9241 175.899C92.4173 176.548 92.8752 177.243 93.2795 177.987C93.693 178.725 94.0415 179.519 94.3139 180.353C94.598 181.172 94.8185 182.089 94.5973 182.997C94.4802 183.442 94.2071 183.864 93.8024 184.116C93.4018 184.375 92.9118 184.46 92.4408 184.44C91.4847 184.402 90.5863 184.01 89.7201 183.598C88.8485 183.179 88.0073 182.67 87.1816 182.119C86.3558 181.566 85.5475 180.965 84.7332 180.35C83.9198 179.736 83.0931 179.114 82.2716 178.463C80.6323 177.162 79 175.729 77.6433 173.979C76.9672 173.107 76.3641 172.156 75.8896 171.127C75.419 170.102 75.0528 168.99 74.9953 167.824C74.9649 167.244 75.0045 166.654 75.1465 166.081C75.2872 165.509 75.5362 164.95 75.926 164.492C76.687 163.539 77.9738 163.123 79.1784 163.212C80.4064 163.28 81.5571 163.858 82.5225 164.615C83.4916 165.382 84.3263 166.317 85.079 167.318C86.5742 169.337 87.6513 171.691 88.4188 174.166C89.1902 176.645 89.666 179.245 90.0932 181.885C90.307 183.205 90.5053 184.544 90.5705 185.906C90.601 186.587 90.6017 187.273 90.548 187.959C90.4983 188.641 90.3981 189.35 90.0529 189.977C89.8819 190.286 89.6317 190.569 89.3095 190.739C88.9919 190.92 88.6145 190.972 88.258 190.938C87.538 190.861 86.8926 190.49 86.3489 190.046C85.235 189.155 84.4652 187.917 83.8407 186.646C82.6315 184.073 81.6112 181.373 80.8439 178.559C80.4656 177.151 80.1489 175.716 79.9345 174.255C79.8205 173.525 79.7415 172.789 79.676 172.049C79.614 171.314 79.5655 170.544 79.7917 169.806C79.906 169.439 80.0977 169.094 80.3636 168.811C80.6279 168.529 80.9797 168.311 81.3715 168.245C81.7614 168.173 82.1636 168.246 82.5192 168.395C82.8789 168.541 83.2007 168.758 83.4996 168.995C84.668 169.973 85.6293 171.19 86.3496 172.545C86.7068 173.224 87.0003 173.938 87.2269 174.676C87.4472 175.412 87.6223 176.176 87.6245 176.961C87.6292 177.733 87.4681 178.56 86.9487 179.186C86.6942 179.498 86.3454 179.729 85.9664 179.864C85.5856 179.996 85.1757 180.028 84.7795 179.985C83.176 179.81 81.8125 178.537 81.394 176.99C81.1851 176.219 81.2298 175.351 81.6344 174.637C82.0337 173.93 82.7159 173.388 83.5038 173.169C83.8969 173.061 84.3201 173.041 84.7231 173.135C85.1276 173.227 85.4949 173.44 85.8009 173.713C86.4112 174.271 86.7524 175.066 86.8584 175.871C86.9645 176.667 86.8253 177.571 86.2139 178.179C85.9085 178.479 85.4356 178.61 85.0179 178.497C84.5987 178.39 84.2524 178.106 84.0146 177.761C83.7782 177.41 83.6563 177.004 83.5811 176.602C83.5081 176.198 83.4724 175.795 83.441 175.389C83.3852 174.579 83.3981 173.749 83.603 172.947C83.8024 172.147 84.2235 171.388 84.8509 170.833C85.1653 170.558 85.532 170.336 85.935 170.208C86.3372 170.078 86.7684 170.051 87.1852 170.103C88.0216 170.215 88.7913 170.619 89.4253 171.156C89.7462 171.422 90.0389 171.723 90.2935 172.053C90.555 172.378 90.7757 172.735 90.9664 173.105C91.7284 174.59 91.942 176.357 91.5342 177.988C91.1372 179.622 90.1996 181.103 88.9606 182.24C88.339 182.807 87.6443 183.304 86.8754 183.663C86.1115 184.026 85.2768 184.265 84.4206 184.291C83.5665 184.329 82.6951 184.104 81.9777 183.634C81.2574 183.166 80.6983 182.505 80.2236 181.815C79.2734 180.421 78.6341 178.856 78.1116 177.282C77.6111 175.7 77.0902 174.117 76.901 172.462C76.7077 170.824 76.9528 169.067 77.9088 167.685C78.3819 167 79.0456 166.446 79.8035 166.106C80.5616 165.768 81.391 165.611 82.2135 165.615C83.8731 165.61 85.4494 166.274 86.7929 167.163C87.4716 167.607 88.1052 168.111 88.7138 168.638C89.3223 169.164 89.9107 169.714 90.4509 170.31C90.9912 170.905 91.4765 171.553 91.8626 172.259C92.252 172.963 92.513 173.735 92.6559 174.522C92.9379 176.104 92.7787 177.714 92.4534 179.252C92.1208 180.791 91.5657 182.294 90.6826 183.595C89.81 184.903 88.5581 185.93 87.1608 186.601C85.7621 187.283 84.2124 187.597 82.6801 187.624C81.9121 187.638 81.1452 187.562 80.3966 187.412C80.0199 187.348 79.6569 187.225 79.2873 187.134C78.9301 187.003 78.5647 186.892 78.2182 186.737C76.8239 186.136 75.5481 185.284 74.4714 184.239C73.3998 183.189 72.5136 181.963 71.8664 180.628C71.2212 179.291 70.8548 177.837 70.7495 176.375C70.6619 174.92 70.9054 173.4 71.7101 172.167C72.5137 170.936 73.7573 170.092 75.044 169.497C77.6507 168.336 80.494 167.845 83.2592 167.973C84.6417 168.041 86.012 168.245 87.3201 168.645C88.6245 169.047 89.8676 169.662 90.8966 170.542C91.9148 171.426 92.7131 172.568 93.0975 173.848C93.2866 174.485 93.3712 175.156 93.3277 175.816C93.2892 176.476 93.1383 177.122 92.9255 177.737C92.4965 178.972 91.8484 180.092 91.2291 181.201C90.602 182.305 89.922 183.395 88.9965 184.261C88.5317 184.687 88.0038 185.047 87.426 185.294C86.8463 185.538 86.2249 185.662 85.6065 185.691C84.364 185.746 83.1504 185.464 82.0145 185.067C79.741 184.271 77.6951 182.859 76.3727 180.94C75.0549 179.039 74.4545 176.661 74.9078 174.475C75.1174 173.383 75.5697 172.366 76.1444 171.453C76.7344 170.548 77.4418 169.737 78.2365 169.047C79.8171 167.659 81.6946 166.695 83.6365 166.245C84.6072 166.019 85.5999 165.946 86.566 166.024C87.5334 166.102 88.4659 166.378 89.3101 166.792C91.0017 167.647 92.2472 169.07 93.1764 170.544C94.0944 172.035 94.8054 173.598 95.1486 175.197C95.3174 175.995 95.3856 176.803 95.3173 177.586C95.2532 178.369 95.0594 179.123 94.7722 179.819C94.1956 181.212 93.2616 182.367 92.1938 183.223C91.1232 184.085 89.9053 184.638 88.7056 184.925C87.5047 185.221 86.3243 185.273 85.2352 185.179C84.1441 185.083 83.1419 184.84 82.2495 184.514C80.4632 183.854 79.1218 182.919 78.1315 182.088C77.1403 181.249 76.4815 180.505 76.057 179.995C75.6332 179.482 75.4399 179.202 75.4399 179.202C75.4399 179.202 75.4942 179.267 75.5981 179.4C75.7001 179.533 75.8581 179.729 76.0711 179.983C76.4999 180.489 77.1625 181.228 78.1549 182.061C79.1465 182.886 80.4872 183.812 82.2677 184.464C83.1567 184.785 84.1548 185.025 85.2403 185.118C86.3238 185.209 87.4969 185.154 88.6887 184.857C89.8797 184.57 91.0855 184.018 92.1448 183.163C93.2018 182.312 94.1252 181.166 94.6929 179.786C95.2721 178.412 95.4145 176.797 95.0569 175.217C94.7153 173.634 94.0051 172.078 93.0908 170.598C92.1657 169.134 90.9291 167.729 89.2616 166.888C88.4291 166.482 87.5109 166.211 86.5561 166.135C85.603 166.059 84.6225 166.132 83.662 166.356C81.7409 166.804 79.8806 167.761 78.3166 169.138C77.53 169.821 76.8312 170.625 76.249 171.519C75.6825 172.422 75.2375 173.425 75.0325 174.499C74.5885 176.648 75.1809 178.99 76.482 180.864C77.7871 182.754 79.809 184.149 82.0603 184.936C83.1858 185.328 84.3845 185.604 85.5993 185.549C86.2041 185.521 86.8083 185.399 87.37 185.162C87.9304 184.922 88.4437 184.572 88.8984 184.154C89.8038 183.307 90.4772 182.229 91.1014 181.128C91.7196 180.02 92.3633 178.904 92.7844 177.689C93.2169 176.483 93.3401 175.14 92.9521 173.891C92.5771 172.644 91.7951 171.524 90.7963 170.659C89.7873 169.797 88.5631 169.191 87.2745 168.794C85.9821 168.4 84.6229 168.198 83.2523 168.132C80.5121 168.005 77.6889 168.495 75.1123 169.644C73.8421 170.232 72.6262 171.062 71.8481 172.257C71.069 173.45 70.8289 174.933 70.9155 176.366C71.0202 177.804 71.381 179.238 72.018 180.556C72.6568 181.872 73.5321 183.082 74.5898 184.118C75.6524 185.149 76.9117 185.988 78.2853 186.58C78.6266 186.733 78.9864 186.842 79.3384 186.97C79.7025 187.059 80.0597 187.181 80.4308 187.244C81.1676 187.391 81.9227 187.466 82.6788 187.451C84.1873 187.424 85.7129 187.115 87.0864 186.445C88.4592 185.785 89.6828 184.78 90.539 183.496C91.4056 182.219 91.9541 180.737 92.2824 179.214C92.6044 177.692 92.7595 176.101 92.4829 174.553C92.3425 173.783 92.0887 173.032 91.7079 172.343C91.3301 171.653 90.8539 171.015 90.3201 170.428C89.7869 169.84 89.2039 169.294 88.5985 168.772C87.9937 168.249 87.3658 167.75 86.6962 167.311C85.3688 166.434 83.8281 165.787 82.2142 165.793C81.4139 165.789 80.6093 165.943 79.8784 166.269C79.1479 166.597 78.5135 167.127 78.0568 167.787C77.597 168.447 77.3036 169.218 77.1506 170.013C76.9948 170.809 76.9912 171.63 77.0806 172.442C77.2659 174.068 77.7842 175.65 78.2837 177.225C78.8034 178.792 79.4377 180.341 80.3736 181.713C80.8406 182.393 81.3868 183.035 82.0771 183.484C82.7641 183.932 83.5919 184.147 84.4164 184.111C85.2417 184.086 86.0539 183.854 86.7997 183.5C87.5499 183.151 88.23 182.664 88.8403 182.107C90.0555 180.992 90.9737 179.54 91.3606 177.945C91.7587 176.356 91.5499 174.633 90.8078 173.187C90.6225 172.826 90.4078 172.479 90.1539 172.163C89.9068 171.842 89.6227 171.551 89.3119 171.293C88.6989 170.773 87.9551 170.386 87.164 170.28C86.3726 170.166 85.5601 170.432 84.9709 170.967C84.3746 171.495 83.9701 172.219 83.7779 172.991C83.5798 173.766 83.5654 174.577 83.6205 175.377C83.6918 176.168 83.7332 177.007 84.1636 177.66C84.3793 177.974 84.6977 178.232 85.0629 178.324C85.4264 178.421 85.8242 178.312 86.0946 178.049C86.3698 177.789 86.5391 177.425 86.6339 177.051C86.7267 176.674 86.735 176.28 86.6838 175.893C86.583 175.123 86.2539 174.364 85.6831 173.843C85.3976 173.588 85.0555 173.39 84.6837 173.306C84.3122 173.219 83.9199 173.237 83.5513 173.339C82.8126 173.543 82.1634 174.058 81.7889 174.722C81.4104 175.388 81.365 176.209 81.5643 176.944C81.9622 178.423 83.2774 179.647 84.7985 179.811C85.1735 179.851 85.5573 179.82 85.9096 179.698C86.2596 179.573 86.5805 179.362 86.8162 179.073C87.2968 178.495 87.457 177.71 87.4519 176.96C87.4501 176.201 87.2797 175.452 87.0622 174.724C86.8393 173.998 86.5504 173.294 86.1981 172.624C85.4898 171.289 84.5372 170.085 83.3933 169.127C83.1033 168.896 82.7933 168.688 82.455 168.551C82.12 168.411 81.7527 168.346 81.4021 168.411C80.6884 168.535 80.1631 169.176 79.9538 169.855C79.7385 170.552 79.7818 171.302 79.8441 172.034C79.9092 172.77 79.9875 173.503 80.1006 174.229C80.3134 175.683 80.6281 177.112 81.0045 178.514C81.7671 181.315 82.7851 184.014 83.9866 186.573C84.6054 187.834 85.3647 189.052 86.4494 189.92C86.9807 190.355 87.6012 190.706 88.2733 190.779C88.6051 190.81 88.9461 190.762 89.2333 190.599C89.5247 190.445 89.7538 190.188 89.9151 189.898C90.2406 189.309 90.3426 188.62 90.3912 187.946C90.4448 187.267 90.4443 186.588 90.4143 185.912C90.3503 184.56 90.1538 183.227 89.9408 181.908C89.5153 179.27 89.042 176.676 88.2759 174.208C87.5138 171.745 86.4441 169.406 84.9629 167.403C84.2177 166.409 83.3887 165.481 82.4352 164.725C81.4844 163.979 80.3607 163.416 79.1699 163.349C77.9972 163.263 76.7605 163.665 76.0308 164.577C75.6558 165.017 75.4146 165.556 75.2774 166.112C75.139 166.669 75.0995 167.247 75.1288 167.816C75.1841 168.96 75.5431 170.054 76.0084 171.071C76.4772 172.09 77.074 173.033 77.7445 173.9C79.0895 175.638 80.7128 177.067 82.3472 178.367C83.1663 179.017 83.9917 179.639 84.8046 180.255C85.6177 180.87 86.4239 181.47 87.2455 182.022C88.0673 182.573 88.9037 183.08 89.7687 183.496C90.63 183.908 91.5176 184.295 92.4449 184.331C92.9021 184.351 93.3684 184.269 93.7454 184.026C94.1268 183.789 94.3839 183.394 94.4967 182.968C94.7109 182.099 94.501 181.197 94.2185 180.383C93.9491 179.555 93.6046 178.767 93.1947 178.033C92.7938 177.293 92.3395 176.6 91.8495 175.954C90.8809 174.652 89.7862 173.53 88.6973 172.506C87.6016 171.486 86.4955 170.573 85.4294 169.719C84.3611 168.869 83.3177 168.092 82.2793 167.433C80.2099 166.115 78.1481 165.249 76.2697 165.005C75.3335 164.893 74.4386 164.985 73.7057 165.299C72.9719 165.607 72.402 166.105 72.0697 166.656C71.726 167.207 71.6489 167.801 71.7124 168.284C71.7716 168.771 71.9531 169.157 72.1467 169.423C72.549 169.96 72.9196 170.049 72.9023 170.066Z" fill="#4A4072"/>
<path d="M62.8536 92.6072C62.8536 92.6072 62.755 92.6005 62.5644 92.5739C62.364 92.5425 62.0837 92.4987 61.7209 92.4419C60.9875 92.3031 59.8746 92.1345 58.5659 91.5372C57.9186 91.2345 57.2291 90.7952 56.6418 90.1405C56.0603 89.494 55.5561 88.6206 55.4684 87.5824C55.4287 87.0695 55.5101 86.5165 55.7617 86.0187C56.0107 85.522 56.408 85.0859 56.8981 84.7603C57.393 84.4478 58.0048 84.2412 58.6385 84.3225C59.2628 84.4039 59.872 84.7765 60.2206 85.342C60.5829 85.9045 60.6931 86.5999 60.6492 87.2766C60.6059 87.9575 60.3976 88.6358 60.0672 89.2634C59.8913 89.5707 59.6913 89.8759 59.4397 90.1342C59.2116 90.4154 58.9308 90.6486 58.6562 90.8928C58.0758 91.3441 57.418 91.713 56.7071 91.9827C55.994 92.2499 55.2267 92.3949 54.4442 92.4429C53.6607 92.4925 52.8547 92.4189 52.0728 92.2024C51.2908 91.9911 50.5287 91.6467 49.8501 91.1568C49.1652 90.6732 48.5952 90.0189 48.1567 89.2848C47.2808 87.8093 46.9472 85.9864 47.227 84.2161C47.3695 83.3318 47.6754 82.4599 48.1494 81.6747C48.39 81.2845 48.6657 80.913 48.9872 80.5775C49.2952 80.23 49.6752 79.9358 50.1032 79.7219C50.5271 79.5137 51.0475 79.3921 51.5387 79.5518C51.781 79.629 51.995 79.7693 52.1818 79.9436C52.3546 80.1325 52.4851 80.3584 52.554 80.6005C52.6929 81.0852 52.6469 81.5839 52.553 82.0545C52.4549 82.5278 52.2857 82.9812 52.078 83.4163C51.6306 84.2709 51.1457 85.0791 50.62 85.8935C50.0892 86.6991 49.4909 87.4796 48.7706 88.1547C48.0476 88.8272 47.203 89.3693 46.277 89.698C45.3557 90.0299 44.3336 90.1165 43.3867 89.8686C42.4387 89.6281 41.5973 89.0886 40.9301 88.4145C40.2599 87.7389 39.741 86.9349 39.3782 86.0766C38.6589 84.3497 38.5044 82.5074 38.4131 80.7523C38.3656 79.8747 38.3306 78.9862 38.4606 78.117C38.5895 77.2624 38.8813 76.3624 39.574 75.7791C39.9117 75.4932 40.3283 75.2985 40.7652 75.2417C41.2005 75.1817 41.6427 75.2422 42.0425 75.3909C42.8417 75.6925 43.5046 76.2919 43.8695 77.0391C44.2313 77.7852 44.3106 78.6199 44.2354 79.4015C44.1556 80.1867 43.9358 80.9385 43.6231 81.6278C43.3313 82.329 42.9226 82.9577 42.4977 83.5499C42.0488 84.1259 41.5623 84.6554 41.0288 85.1125C39.9702 86.037 38.7664 86.6918 37.5591 87.1253C36.3454 87.55 35.1109 87.7159 33.9552 87.6726C32.7969 87.6283 31.7215 87.3643 30.7783 86.9829C28.8866 86.2081 27.5142 85.0274 26.6148 83.9234C25.7044 82.8152 25.2268 81.7926 24.9716 81.0893C24.8296 80.7408 24.768 80.4596 24.7163 80.2744C24.6667 80.0886 24.6484 79.9916 24.6484 79.9916C24.6704 79.9848 24.7476 80.3745 25.0227 81.0695C25.2931 81.7624 25.7822 82.7688 26.6957 83.8556C27.5983 84.9382 28.9659 86.0918 30.8347 86.8415C31.767 87.2104 32.8256 87.4629 33.962 87.4994C35.0963 87.5354 36.3068 87.3664 37.4959 86.9432C38.6793 86.5123 39.858 85.8638 40.8915 84.9539C41.4125 84.5036 41.8864 83.9829 42.3239 83.4184C42.7373 82.8377 43.1345 82.2225 43.4169 81.5375C43.7202 80.8645 43.9301 80.1335 44.0042 79.3791C44.0747 78.6283 43.9943 77.8379 43.6545 77.1424C43.3183 76.4563 42.6955 75.8954 41.9585 75.6205C41.2235 75.3398 40.345 75.4321 39.7363 75.97C39.1167 76.4902 38.8359 77.3276 38.7137 78.154C38.59 78.9945 38.6239 79.8591 38.673 80.7387C38.7654 82.4871 38.9241 84.2996 39.6241 85.9733C39.9749 86.8013 40.477 87.5772 41.1207 88.2241C41.7612 88.8711 42.5619 89.3808 43.454 89.6062C44.344 89.8384 45.3061 89.7591 46.1872 89.4419C47.0715 89.1283 47.8874 88.6055 48.5853 87.9559C49.9785 86.637 50.9343 84.9314 51.8347 83.2989C52.222 82.4746 52.5118 81.526 52.2962 80.6761C52.2372 80.4685 52.1286 80.2853 51.9898 80.1304C51.8379 79.9911 51.6578 79.87 51.4578 79.8064C51.0569 79.6744 50.6085 79.7704 50.2202 79.9608C49.8292 80.1559 49.4716 80.4283 49.1793 80.7596C48.8713 81.0799 48.6067 81.4363 48.3754 81.8104C47.9192 82.5638 47.6227 83.4032 47.4838 84.2579C47.2103 85.9681 47.5319 87.7352 48.3723 89.157C49.195 90.6027 50.6247 91.5737 52.1354 91.9718C53.6513 92.3949 55.2455 92.2598 56.6298 91.7714C57.3199 91.5116 57.9578 91.1568 58.5205 90.7227C59.0634 90.2683 59.5525 89.7549 59.8829 89.1627C60.2013 88.5643 60.4049 87.9121 60.4482 87.2631C60.4937 86.6172 60.3893 85.9624 60.0583 85.4453C59.742 84.9246 59.184 84.5813 58.615 84.5041C58.0361 84.4259 57.4619 84.6132 56.9916 84.9064C56.5259 85.2121 56.1449 85.6248 55.9068 86.0928C55.6672 86.5613 55.5863 87.0784 55.6203 87.5725C55.6965 88.5659 56.1762 89.4194 56.7389 90.0554C57.3068 90.7003 57.976 91.1365 58.6118 91.4432C59.896 92.0474 61.0026 92.2342 61.7308 92.3897C62.091 92.458 62.3697 92.5107 62.5686 92.5483C62.7581 92.5822 62.8536 92.6072 62.8536 92.6072Z" fill="#4A4072"/>
<path d="M216.95 119.834C216.95 119.834 216.889 119.912 216.759 120.054C216.62 120.201 216.425 120.408 216.173 120.675C215.644 121.201 214.875 122.023 213.642 122.765C213.027 123.127 212.274 123.447 211.402 123.561C210.54 123.675 209.535 123.597 208.629 123.082C208.184 122.825 207.774 122.445 207.505 121.956C207.237 121.469 207.102 120.895 207.111 120.307C207.133 119.722 207.308 119.1 207.734 118.624C208.154 118.155 208.806 117.863 209.47 117.896C210.138 117.915 210.774 118.218 211.307 118.637C211.844 119.058 212.286 119.613 212.617 120.241C212.77 120.559 212.909 120.897 212.98 121.25C213.083 121.598 213.116 121.961 213.162 122.326C213.206 123.06 213.138 123.811 212.958 124.55C212.775 125.289 212.461 126.004 212.058 126.676C211.656 127.35 211.139 127.973 210.518 128.495C209.902 129.021 209.186 129.454 208.399 129.737C207.612 130.028 206.75 130.128 205.897 130.074C204.185 129.962 202.493 129.206 201.191 127.974C200.543 127.356 199.997 126.611 199.617 125.776C199.432 125.357 199.281 124.919 199.186 124.464C199.074 124.014 199.046 123.534 199.112 123.06C199.18 122.593 199.374 122.095 199.784 121.78C199.984 121.624 200.221 121.527 200.471 121.471C200.724 121.436 200.984 121.456 201.223 121.536C201.701 121.696 202.086 122.016 202.421 122.359C202.756 122.708 203.034 123.104 203.276 123.521C203.727 124.374 204.12 125.231 204.494 126.125C204.858 127.018 205.163 127.953 205.312 128.929C205.458 129.906 205.427 130.909 205.175 131.858C204.927 132.806 204.42 133.698 203.68 134.338C202.946 134.984 202.025 135.373 201.092 135.542C200.155 135.712 199.199 135.685 198.286 135.499C196.455 135.115 194.848 134.201 193.349 133.283C192.599 132.826 191.846 132.352 191.203 131.753C190.571 131.163 189.994 130.414 189.905 129.513C189.86 129.072 189.935 128.619 190.135 128.226C190.332 127.833 190.632 127.503 190.981 127.257C191.682 126.769 192.551 126.561 193.374 126.683C194.193 126.807 194.927 127.214 195.529 127.718C196.131 128.228 196.627 128.834 197.018 129.482C197.431 130.119 197.719 130.812 197.967 131.497C198.188 132.193 198.349 132.894 198.424 133.592C198.588 134.988 198.447 136.351 198.122 137.592C197.785 138.833 197.224 139.945 196.534 140.874C195.843 141.804 195.017 142.541 194.169 143.103C192.46 144.225 190.71 144.689 189.291 144.806C187.862 144.93 186.748 144.745 186.024 144.558C185.656 144.478 185.389 144.37 185.207 144.308C185.026 144.244 184.936 144.204 184.936 144.204C184.943 144.182 185.308 144.339 186.036 144.505C186.761 144.674 187.867 144.84 189.28 144.701C190.684 144.569 192.409 144.094 194.084 142.977C194.915 142.417 195.722 141.687 196.395 140.77C197.067 139.855 197.612 138.761 197.936 137.541C198.25 136.322 198.382 134.983 198.216 133.616C198.139 132.932 197.978 132.246 197.76 131.566C197.515 130.897 197.232 130.221 196.827 129.601C196.444 128.97 195.96 128.383 195.379 127.896C194.8 127.413 194.103 127.032 193.337 126.919C192.581 126.808 191.766 127.004 191.123 127.457C190.476 127.904 190.055 128.681 190.154 129.487C190.233 130.292 190.764 130.997 191.377 131.565C192 132.143 192.732 132.604 193.485 133.061C194.979 133.974 196.564 134.868 198.34 135.238C199.221 135.417 200.145 135.442 201.042 135.277C201.938 135.115 202.811 134.743 203.502 134.134C204.197 133.532 204.676 132.694 204.912 131.787C205.154 130.881 205.184 129.912 205.044 128.969C204.744 127.074 203.878 125.321 203.041 123.655C202.581 122.87 201.962 122.094 201.139 121.791C200.935 121.723 200.722 121.709 200.516 121.735C200.315 121.782 200.114 121.862 199.948 121.991C199.612 122.247 199.438 122.671 199.375 123.099C199.315 123.532 199.337 123.98 199.445 124.409C199.535 124.844 199.679 125.264 199.857 125.666C200.22 126.469 200.745 127.188 201.371 127.786C202.627 128.979 204.266 129.713 205.914 129.824C207.571 129.964 209.181 129.334 210.363 128.313C211.57 127.303 212.36 125.912 212.74 124.494C212.917 123.778 212.985 123.051 212.945 122.341C212.877 121.637 212.731 120.943 212.429 120.336C212.116 119.734 211.693 119.198 211.183 118.795C210.676 118.392 210.077 118.108 209.463 118.088C208.855 118.054 208.256 118.32 207.87 118.746C207.478 119.179 207.308 119.759 207.284 120.312C207.273 120.869 207.397 121.417 207.649 121.878C207.899 122.34 208.28 122.7 208.707 122.951C209.569 123.45 210.544 123.537 211.387 123.433C212.24 123.33 212.978 123.024 213.591 122.674C214.816 121.956 215.596 121.15 216.136 120.637C216.396 120.379 216.597 120.179 216.74 120.036C216.876 119.899 216.95 119.834 216.95 119.834Z" fill="#4A4072"/>
</g>
<defs>
<clipPath id="clip0_2327_12875">
<rect width="261" height="216" fill="white"/>
</clipPath>
</defs>
</svg>
