<svg width="193" height="188" viewBox="0 0 193 188" fill="none" xmlns="http://www.w3.org/2000/svg">
<path d="M156.641 62.6719L154.336 65.4551L159.476 76.6155L162.847 83.9329C162.905 83.9207 162.96 83.9085 163.021 83.8964L159.196 63.4271C158.995 63.4453 158.785 63.4575 158.575 63.4392C157.841 63.3814 157.177 63.1012 156.641 62.6719Z" fill="#938CCB"/>
<path d="M99.0142 1.37818C98.6275 1.2107 98.253 1.06453 97.8815 0.933594L93.7279 6.88072L91.0391 10.7328L99.0142 1.37818Z" fill="#938CCB"/>
<path d="M79.2499 121.484L81.9601 117.675C81.5125 117.27 81.1562 116.761 80.9582 116.18L68.9452 118.847L67.0664 119.267L72.4441 121.018L78.245 122.903L79.2499 121.484Z" fill="#938CCB"/>
<path d="M146.057 19.7134L148.853 19.6251L153.423 19.4789C153.299 18.7542 153.095 18.0264 152.821 17.3047L146.039 19.6342C146.042 19.6647 146.054 19.686 146.057 19.7134Z" fill="#938CCB"/>
<path d="M26.6172 26.221L43.6364 18.5352L37.5857 19.8476C33.5327 21.1357 29.775 23.3251 26.6172 26.221Z" fill="#938CCB"/>
<path d="M156.177 22.1849C156.734 21.0399 157.943 20.2908 159.286 20.4004C159.438 20.4126 159.584 20.4492 159.73 20.4827L159.834 20.2847C159.624 20.2147 159.41 20.1477 159.197 20.0898L146.883 20.4857L153.92 21.7738L156.177 22.1849Z" fill="#938CCB"/>
<path d="M78.0183 6.31953L87.2664 0.75C85.3388 1.33162 83.5239 2.24515 81.9191 3.44493C81.8339 3.50888 81.7273 3.53629 81.6116 3.51802C79.7206 3.19219 77.7808 3.0582 75.8594 3.11606L75.6797 4.78174C76.6663 4.95835 77.4915 5.5278 78.0183 6.31953Z" fill="#938CCB"/>
<path d="M12.1464 72.1553C12.1738 71.8203 12.2591 71.5066 12.3718 71.2052L3.413 67.0547C2.13101 69.4877 1.19616 72.0761 0.632812 74.768L9.29618 73.1876L12.1586 72.6638C12.1464 72.4994 12.1312 72.3288 12.1464 72.1553Z" fill="#938CCB"/>
<path d="M50.3125 106.019C50.4587 106.731 50.6292 107.438 50.821 108.123L59.2438 104.514L62.8919 102.949L50.3125 106.019Z" fill="#938CCB"/>
<path d="M86.072 20.2401C86.0264 20.237 85.9868 20.2218 85.9441 20.2187L84.1719 31.8694C84.6256 32.0247 85.0367 32.2683 85.3838 32.5789L90.6093 26.7414L91.9004 25.3011C91.27 24.5976 90.9138 23.6476 90.996 22.6335C91.0356 22.1524 91.1726 21.7017 91.3766 21.2967L89.2694 19.899L88.3071 19.2656C87.7895 19.9203 86.9643 20.3131 86.072 20.2401Z" fill="#938CCB"/>
<path d="M78.7558 19.9069L82.416 31.7371C82.7084 31.6854 83.0037 31.658 83.3143 31.6823C83.3417 31.6823 83.3692 31.6945 83.3935 31.6976L85.1749 19.9982C84.234 19.5506 83.6158 18.5609 83.7072 17.4647C83.7437 17.0353 83.8899 16.6455 84.1061 16.3045L77.2941 11.0547C76.9744 11.3166 76.6029 11.5267 76.207 11.6637L78.7558 19.9069Z" fill="#938CCB"/>
<path d="M163.884 102.641L163.83 97.3033L163.766 90.942C163.662 90.942 163.562 90.9573 163.452 90.9481C163.263 90.9329 163.084 90.8903 162.904 90.8477L155.687 104.59L151.914 111.771L161.013 107.334C160.858 106.88 160.788 106.39 160.827 105.884C160.967 104.194 162.271 102.876 163.884 102.641Z" fill="#938CCB"/>
<path d="M148.98 55.3219L153.94 64.6826L156.078 62.1004C155.53 61.4122 155.225 60.5291 155.302 59.5881C155.375 58.6563 155.81 57.8463 156.447 57.2556L140.508 39.1523C140.484 39.1676 140.463 39.1858 140.441 39.2011L148.98 55.3219Z" fill="#938CCB"/>
<path d="M120.162 114.126L118.012 132.077C118.651 132.308 119.294 132.503 119.924 132.658C120.055 132.689 120.162 132.786 120.207 132.917C120.366 133.389 120.551 133.873 120.771 134.376L123 125.773L126.794 111.145L123.335 111.193C123.057 112.777 121.748 113.976 120.162 114.126Z" fill="#938CCB"/>
<path d="M188.727 103.918C188.517 103.2 188.267 102.496 187.984 101.82L187.539 105.8L188.166 104.811L188.727 103.918Z" fill="#938CCB"/>
<path d="M123.737 34.8129L134.291 35.4463L135.074 35.4919C135.281 34.4201 135.945 33.5309 136.858 33.0284L135.863 30.1721L133.18 22.4649C132.833 22.5441 132.476 22.5898 132.102 22.5593C131.532 22.5106 131.018 22.3248 130.561 22.0508L124.931 29.4261L122.641 32.4255C123.283 33.0437 123.688 33.8841 123.737 34.8129Z" fill="#938CCB"/>
<path d="M130.094 115.25L147.905 149.709C148.081 147.878 148.313 146.128 148.596 144.483C148.62 144.358 148.696 144.252 148.806 144.197C148.919 144.136 149.053 144.133 149.162 144.197C149.747 144.486 150.362 144.754 151.041 145.004L151.291 144.48L137.432 125.372L130.094 115.25Z" fill="#938CCB"/>
<path d="M140.305 112.096L141.252 114.67L151.304 142.045L150.615 112.955L141.98 110.324C141.641 111.095 141.048 111.719 140.305 112.096Z" fill="#938CCB"/>
<path d="M116.431 111.672L102 113.362L87.898 115.012C87.898 115.113 87.9102 115.21 87.9041 115.317C87.8219 116.337 87.3103 117.217 86.5703 117.811L93.5467 128.828C98.1296 126.919 102.25 123.916 105.477 120.131C105.557 120.034 105.681 119.982 105.809 119.994C105.825 119.994 105.837 119.994 105.849 119.997C105.989 120.025 106.105 120.119 106.153 120.253C108.054 125.497 112.079 129.675 117.247 131.779L118.413 122.071L119.366 114.108C117.969 113.916 116.848 112.948 116.431 111.672Z" fill="#938CCB"/>
<path d="M161.642 90.2656L157.924 93.3716L141.672 106.956C142.101 107.602 142.336 108.378 142.269 109.206C142.257 109.331 142.223 109.447 142.202 109.569L144.416 110.245L150.801 112.194L153.289 107.452L162.147 90.5854C161.971 90.491 161.803 90.3844 161.642 90.2656Z" fill="#938CCB"/>
<path d="M69.4311 98.9918L74.7631 93.9278C74.1297 93.2213 73.7703 92.2712 73.8526 91.2541C73.8861 90.8552 73.9957 90.4837 74.1479 90.1366L53.1518 72.8281C53.0422 72.9317 52.9265 73.0261 52.8047 73.1144L66.1697 98.2275C66.5504 98.127 66.9523 98.0722 67.3695 98.1057C68.1673 98.1666 68.8768 98.5015 69.4311 98.9918Z" fill="#938CCB"/>
<path d="M66.4369 107.111L66.6348 105.204C65.4594 105.055 64.4759 104.355 63.943 103.371L51.0469 108.901C51.9909 111.971 53.3855 114.857 55.1913 117.494L64.5946 118.673L65.2036 118.749L66.4369 107.111Z" fill="#938CCB"/>
<path d="M188.717 115.046L186.899 108.742L180.562 125.968C184.5 123.417 187.371 119.583 188.717 115.046Z" fill="#938CCB"/>
<path d="M152.139 144.071L162.091 144.9L164.579 145.107C166.421 144.446 168.153 143.517 169.731 142.329L155.614 120.523L151.43 114.059L152.139 144.071Z" fill="#938CCB"/>
<path d="M63.5158 101.377C63.6194 100.113 64.3745 99.0594 65.4221 98.5113L62.9738 93.9101L52.1149 73.5078C51.5942 73.7332 51.0247 73.8519 50.4188 73.8032C50.2391 73.791 50.0747 73.7484 49.9072 73.7118L33.0859 109.407L43.9174 106.77C45.8054 105.728 47.5807 104.471 49.2007 103.039C49.3103 102.942 49.4687 102.915 49.6057 102.969C49.7458 103.021 49.8402 103.149 49.8585 103.292C49.9285 103.892 50.029 104.535 50.1599 105.247L53.8415 104.352L63.5311 101.989C63.5097 101.785 63.4976 101.584 63.5158 101.377Z" fill="#938CCB"/>
<path d="M188.537 71.2383L185.407 73.4034L170.809 83.5192L184.323 76.0618L190.157 72.837L188.537 71.2383Z" fill="#938CCB"/>
<path d="M162.108 84.2175L153.646 65.8555L129.967 71.1844C129.915 71.6503 129.787 72.0858 129.574 72.4786L144.355 78.7881L160.583 85.7157C160.924 85.0732 161.463 84.5525 162.108 84.2175Z" fill="#938CCB"/>
<path d="M84.0481 118.585C83.5213 118.54 83.0402 118.381 82.6048 118.141L81.0243 120.367L78.9141 123.339L85.9209 130.927C88.2808 130.583 90.5921 129.974 92.7968 129.124L85.8965 118.223C85.3393 118.497 84.712 118.64 84.0481 118.585Z" fill="#938CCB"/>
<path d="M76.4995 127.382L74.6328 130.555C78.0038 131.283 81.5056 131.459 84.9588 131.06L78.4697 124.035L76.4995 127.382Z" fill="#938CCB"/>
<path d="M69.5892 125.195L72.4425 129.991C72.8962 130.125 73.356 130.25 73.8189 130.363L77.8049 123.59L73.9346 122.333L66.4375 119.891L69.5892 125.195Z" fill="#938CCB"/>
<path d="M47.2544 71.1094L19.2728 72.6106C19.2698 72.6533 19.2789 72.6928 19.2759 72.7355C19.1815 73.8865 18.545 74.8549 17.6406 75.4395L30.3205 104.332L32.3851 109.027L49.1515 73.445C48.2075 72.9882 47.5133 72.1325 47.2544 71.1094Z" fill="#938CCB"/>
<path d="M133.93 22.2069L137.179 31.5432L137.596 32.7369C137.998 32.6212 138.421 32.5633 138.86 32.5999C138.902 32.6029 138.936 32.6182 138.975 32.6212L141.947 22.822C140.921 22.3866 140.212 21.4091 140.139 20.2702L135.863 19.7891C135.62 20.8701 134.889 21.744 133.93 22.2069Z" fill="#938CCB"/>
<path d="M77.1309 95.1039C76.467 95.0522 75.8732 94.8085 75.3677 94.4492L69.9688 99.5803C70.4499 100.247 70.7178 101.069 70.6478 101.952C70.6113 102.406 70.4803 102.835 70.2946 103.222L81.8325 112.498C82.1431 112.187 82.5086 111.94 82.9105 111.764L78.8788 98.8037L77.7247 95.0917C77.5237 95.11 77.3288 95.1222 77.1309 95.1039Z" fill="#938CCB"/>
<path d="M86.5857 35.5329C86.5492 35.9927 86.4182 36.4221 86.2264 36.8149L87.621 37.5762L104.025 46.5197L96.461 28.4804L95.5658 26.3488C95.1547 26.4706 94.7223 26.5285 94.2716 26.4889C93.6047 26.4371 93.0048 26.1905 92.4963 25.8281L86.4456 32.5913L85.9219 33.176C86.3939 33.8398 86.6557 34.6559 86.5857 35.5329Z" fill="#938CCB"/>
<path d="M96.2969 26.0476L104.991 46.7726L114.275 39.2634L117.174 36.9156C116.766 36.2792 116.544 35.5179 116.611 34.7079C116.635 34.4034 116.708 34.1232 116.803 33.8461L104.531 28.0634L97.591 24.793C97.2683 25.3167 96.8298 25.7522 96.2969 26.0476Z" fill="#938CCB"/>
<path d="M162.216 61.0898C161.842 62.1252 161.014 62.9321 159.984 63.2732L163.821 83.8186C163.894 83.8217 163.964 83.8095 164.037 83.8156C165.164 83.9069 166.114 84.522 166.702 85.399L178.246 77.4025L187.735 70.8251L162.216 61.0898Z" fill="#938CCB"/>
<path d="M147.523 155.723L139.7 181.765L138.086 187.124L149.831 185.617C148.747 179.115 147.163 167.358 147.523 155.723Z" fill="#938CCB"/>
<path d="M137.223 105.678L126.921 74.332C126.912 74.332 126.903 74.3381 126.891 74.3381L127.698 110.274L135.149 109.077C135.14 108.928 135.128 108.778 135.14 108.626C135.246 107.292 136.087 106.202 137.223 105.678Z" fill="#938CCB"/>
<path d="M74.5484 89.4279C75.063 88.7305 75.8182 88.2403 76.683 88.0576L75.6507 56.2208L75.401 48.4832C75.2883 48.4832 75.1787 48.4984 75.066 48.4893C74.5453 48.4466 74.0642 48.2883 73.6348 48.0508L53.7015 68.3039C54.1156 68.9434 54.3409 69.7077 54.274 70.5238C54.2222 71.1541 53.9968 71.7266 53.668 72.2169L59.1857 76.7632L74.5484 89.4279Z" fill="#938CCB"/>
<path d="M167.901 106.773C167.673 108.125 166.698 109.197 165.438 109.587L168.169 122.626L171.902 140.44C175.276 137.036 177.286 132.575 177.585 127.8C177.594 127.654 177.682 127.523 177.816 127.465L177.941 127.413C178.12 127.331 178.3 127.246 178.48 127.161C178.815 126.996 179.15 126.823 179.472 126.634L180.791 123.05L186.388 107.842L167.901 106.773Z" fill="#938CCB"/>
<path d="M188.863 93.9339C191.695 91.7932 193.227 88.2609 192.81 84.7072C192.682 83.5988 192.365 82.5147 191.863 81.4885C191.808 81.3758 191.808 81.2449 191.869 81.1322C192.791 79.3417 193.157 77.338 192.925 75.3313C192.822 74.4756 192.609 73.623 192.277 72.8008L191.436 73.1175L191.184 73.2149L188.863 93.9339Z" fill="#938CCB"/>
<path d="M161.365 108.043L157.711 109.824L151.578 112.815L155.18 118.378L170.363 141.832C170.662 141.588 170.948 141.338 171.228 141.079L164.657 109.718C164.474 109.73 164.295 109.742 164.109 109.727C162.933 109.636 161.944 108.975 161.365 108.043Z" fill="#938CCB"/>
<path d="M116.266 110.279C116.284 110.054 116.33 109.835 116.384 109.624L82.2181 94.7521L80.1352 93.8477C79.7028 94.3531 79.1425 94.7368 78.5 94.9409L83.6615 111.522C83.9721 111.461 84.2888 111.427 84.6207 111.455C86.2072 111.582 87.4557 112.743 87.7998 114.213L112.627 111.308L116.272 110.879C116.259 110.687 116.247 110.483 116.266 110.279Z" fill="#938CCB"/>
<path d="M77.7101 87.978C78.3008 88.0267 78.8398 88.2307 79.3088 88.5261L97.5429 62.9897C96.7421 62.268 96.264 61.2053 96.3584 60.0512C96.3949 59.6066 96.5198 59.1985 96.6964 58.8179L83.8308 50.8793L78.0146 47.2891C77.5365 47.828 76.9031 48.2087 76.1875 48.3853L76.6504 62.6852L77.4756 87.981C77.5548 87.984 77.6339 87.9719 77.7101 87.978Z" fill="#938CCB"/>
<path d="M122.848 70.5096C122.848 70.5005 122.854 70.4944 122.854 70.4852L111.709 65.7653L103.03 62.0898C102.366 63.2653 101.069 64.0205 99.6347 63.9047C99.1048 63.8621 98.6206 63.7007 98.1852 63.4541L95.813 66.7763L79.9297 89.0178C80.2738 89.365 80.5509 89.7761 80.7336 90.2359L109.004 78.4178L123.259 72.4585C122.948 71.8799 122.793 71.213 122.848 70.5096Z" fill="#938CCB"/>
<path d="M142.86 23.0583C142.808 23.0552 142.766 23.04 142.714 23.0308L139.754 32.7996C140.326 33.0006 140.832 33.3386 141.222 33.7771L149.788 28.3294L155.972 24.3951C155.878 24.051 155.829 23.6886 155.86 23.311C155.869 23.1831 155.902 23.0674 155.923 22.9456L145.887 21.1094C145.436 22.3335 144.224 23.1709 142.86 23.0583Z" fill="#938CCB"/>
<path d="M189.106 113.516C189.7 110.693 189.673 107.779 189.006 104.965L187.383 107.532L189.106 113.516Z" fill="#938CCB"/>
<path d="M167.178 86.4327C167.288 86.8255 167.343 87.2427 167.309 87.6721C167.257 88.3024 167.032 88.8749 166.703 89.3652L180.217 101.098L186.64 106.677L186.908 104.286L187.34 100.44C186.588 98.9817 185.671 97.6327 184.608 96.4268C184.517 96.3233 184.487 96.174 184.532 96.037C184.578 95.903 184.691 95.8056 184.831 95.7751C185.948 95.5468 187.017 95.1235 188.004 94.5266L189.158 84.2067L190.342 73.6523L167.178 86.4327Z" fill="#938CCB"/>
<path d="M135.946 18.995L140.197 19.4731C140.438 18.3403 141.306 17.4694 142.402 17.2014L141.488 9.39374C139.753 7.17994 137.298 5.67261 134.57 5.14885C134.521 5.13971 134.475 5.12144 134.433 5.09404C134.256 4.98441 134.077 4.87783 133.894 4.77734L133.062 15.4992C134.731 15.819 135.946 17.2806 135.946 18.995Z" fill="#938CCB"/>
<path d="M139.554 112.37C139.191 112.459 138.811 112.51 138.418 112.477C136.883 112.352 135.665 111.268 135.275 109.867L128.016 111.033L150.391 141.884L148.567 136.917L139.554 112.37Z" fill="#938CCB"/>
<path d="M132.264 15.4399L132.663 10.3302L133.123 4.39529C131.174 3.48784 129.027 3.13461 126.895 3.38735C126.895 3.38735 126.71 3.4178 126.704 3.42085C126.612 3.43607 126.515 3.41171 126.439 3.35995C124.197 1.9257 121.487 1.2984 118.835 1.609C118.214 1.68208 117.577 1.81303 116.953 1.99878L121.533 6.87097L130.254 16.1495C130.824 15.7201 131.518 15.4673 132.264 15.4399Z" fill="#938CCB"/>
<path d="M143.343 17.1185C144.461 17.2098 145.378 17.9193 145.81 18.8755L148.648 17.9011L152.509 16.5765C150.67 12.5995 146.763 9.9929 142.348 9.87109L143.194 17.1215C143.24 17.1215 143.292 17.1124 143.343 17.1185Z" fill="#938CCB"/>
<path d="M98.0431 22.1633L106.067 21.3289L128.835 18.9659C128.835 18.8806 128.823 18.7954 128.829 18.7071C128.893 17.9306 129.207 17.2363 129.676 16.6851L116.006 2.14771C112.855 0.415038 109.261 -0.288385 105.674 0.128797C105.254 0.177519 104.818 0.247556 104.377 0.329775L96.9712 18.159L96.2891 19.8003C97.1843 20.2966 97.8208 21.1584 98.0431 22.1633Z" fill="#938CCB"/>
<path d="M88.859 17.8797C88.8377 18.1233 88.7768 18.3517 88.6945 18.5709L91.8219 20.6416C92.5405 19.7829 93.649 19.2683 94.8487 19.3657C95.0923 19.387 95.3299 19.4297 95.5552 19.4967L101.728 4.62733L103.424 0.546875C102.294 0.833116 101.201 1.23203 100.159 1.73447C100.05 1.78624 99.9219 1.78624 99.8123 1.73447C99.797 1.72838 99.7849 1.72229 99.7727 1.7162L87.8906 15.6507C88.5423 16.1683 88.9321 16.9905 88.859 17.8797Z" fill="#938CCB"/>
<path d="M191.87 71.8863C191.66 71.4813 191.422 71.0916 191.148 70.7109L191.155 70.9271L191.194 72.2609L191.87 71.8863Z" fill="#938CCB"/>
<path d="M162.43 60.1611C162.427 60.2128 162.408 60.2585 162.402 60.3072L162.862 60.4838L188.265 70.1734L188.304 69.9298L188.596 68.1088C188.536 68.0144 188.499 67.9109 188.517 67.8348C188.73 66.7751 188.776 65.7032 188.651 64.6526C188.435 62.7951 187.701 61.0381 186.535 59.5703L162.78 59.7469L162.424 59.75C162.427 59.884 162.442 60.021 162.43 60.1611Z" fill="#938CCB"/>
<path d="M78.6115 8.5706C78.5506 9.29534 78.2796 9.95005 77.8594 10.486L84.6226 15.6962C85.125 15.2729 85.7889 15.0384 86.4923 15.0963C86.6567 15.1085 86.809 15.142 86.9612 15.1816L97.0863 0.683748C94.8816 0.0412272 92.5551 -0.150618 90.2652 0.117353C90.1221 0.132578 89.985 0.156941 89.848 0.178256L89.7292 0.196523L78.3801 7.02673C78.5628 7.50481 78.6572 8.02553 78.6115 8.5706Z" fill="#938CCB"/>
<path d="M190.355 70.7416L190.328 69.6971C190.005 69.3469 189.658 69.0211 189.298 68.7227L189 70.5802L190.382 71.9505L190.355 70.7416Z" fill="#938CCB"/>
<path d="M161.508 25.559L170.135 35.3978L183.25 50.3463C182.029 47.0028 179.632 44.1738 176.481 42.4199C176.359 42.3529 176.283 42.2219 176.277 42.0818C176.268 41.6373 176.237 41.1835 176.185 40.7359C175.582 35.5653 172.4 31.156 167.671 28.9513C167.558 28.8965 167.479 28.799 167.452 28.6803C167.309 28.056 167.108 27.4318 166.855 26.8227L166.785 26.7923L161.946 24.8008C161.828 25.0718 161.687 25.3306 161.508 25.559Z" fill="#938CCB"/>
<path d="M159.203 26.731L159.234 49.4263L159.243 56.3266C160.747 56.4849 161.938 57.5629 162.312 58.9545L185.842 58.7779C185.349 58.2693 184.813 57.8156 184.24 57.4319C184.118 57.3497 184.048 57.2066 184.063 57.0574C184.185 55.9429 184.182 54.8131 184.054 53.7047C183.993 53.2084 183.905 52.6998 183.783 52.1487L182.054 50.1754L160.933 26.0977C160.439 26.4692 159.846 26.6945 159.203 26.731Z" fill="#938CCB"/>
<path d="M0.895343 86.8851L0.539062 86.4375C1.07805 89.2451 2.00681 91.937 3.31621 94.4614L4.54644 95.2684L10.9412 99.4584L0.895343 86.8851Z" fill="#938CCB"/>
<path d="M71.7927 44.6346C71.8506 43.9433 72.1094 43.313 72.4992 42.7953L49.3654 20.0117C48.9391 20.3802 48.4244 20.6329 47.8672 20.77L49.6882 46.5743L51.1072 66.6904C51.9233 66.7787 52.645 67.1471 53.1961 67.6892L72.9864 47.5822C72.1794 46.8605 71.6952 45.7948 71.7927 44.6346Z" fill="#938CCB"/>
<path d="M164.559 90.8458L164.677 102.609H164.683C166.486 102.755 167.853 104.22 167.948 105.974L185.804 107.003L171.882 94.914L166.185 89.9688C165.734 90.4012 165.18 90.6996 164.559 90.8458Z" fill="#938CCB"/>
<path d="M12.2877 73.4531L0.466592 75.6091C-0.0480333 78.4745 -0.136343 81.3887 0.198621 84.2755C0.213846 84.4156 0.238207 84.5556 0.256478 84.6927L0.280837 84.8419L12.5222 100.159L13.8194 87.9479L15.0953 75.9532C13.7311 75.7126 12.6623 74.729 12.2877 73.4531Z" fill="#938CCB"/>
<path d="M127.716 142.892C127.765 142.928 127.807 142.971 127.838 143.029C129.939 146.814 131.751 151.074 133.222 155.693L147.765 151.275L147.771 151.193L127.433 111.844L121.297 135.507C122.789 138.47 125.003 141.019 127.716 142.892Z" fill="#938CCB"/>
<path d="M16 68.8803C16.4415 68.9168 16.8465 69.0417 17.2241 69.2183L45.09 20.2924C44.6637 20.0152 44.3013 19.6559 44.0273 19.2266L35.1599 23.2309L24.9953 27.8199C21.6639 31.3918 19.243 35.7463 18.0006 40.4176C17.9763 40.5089 17.9245 40.5881 17.8484 40.6398C10.3757 45.9536 5.71662 54.5713 5.38471 63.6945C5.38471 63.7706 5.36034 63.8467 5.31162 63.9046C4.78177 64.6689 4.27019 65.4911 3.78906 66.3529L12.3063 70.3024L12.7265 70.4973C13.4269 69.4406 14.651 68.7707 16 68.8803Z" fill="#938CCB"/>
<path d="M12.9931 101.676L12.8012 102.069L11.6562 104.377C15.8189 107.556 20.7398 109.563 25.9196 110.211L26.4951 110.153L30.8466 109.73L24.6833 106.95L12.9931 101.676Z" fill="#938CCB"/>
<path d="M75.6419 41.3559C76.4123 41.4199 77.1005 41.7274 77.6486 42.1903L80.8247 38.058C79.9081 37.3424 79.36 36.1975 79.4605 34.952C79.4818 34.7023 79.5244 34.4587 79.5944 34.2273L50.0324 19.2148C49.9867 19.2818 49.9472 19.3519 49.8984 19.4158L73.0353 42.2025C73.7326 41.6087 74.6583 41.2767 75.6419 41.3559Z" fill="#938CCB"/>
<path d="M59.8672 122.887C63.1529 125.908 67.0811 128.228 71.3047 129.644L67.1694 122.683L65.4184 119.738L59.8672 122.887Z" fill="#938CCB"/>
<path d="M4.15625 95.957C5.94678 98.9656 8.29152 101.676 11.02 103.88L11.4006 103.113L12.3019 101.298L4.15625 95.957Z" fill="#938CCB"/>
<path d="M82.7334 38.8099C82.2949 38.7733 81.8869 38.6485 81.5093 38.4719L78.1992 42.7807C78.7078 43.4567 78.994 44.3063 78.9179 45.2107L103.044 46.8886L100.486 45.4939L85.8029 37.4883C85.0842 38.3775 83.9575 38.9073 82.7334 38.8099Z" fill="#938CCB"/>
<path d="M80.7827 115.405C80.7584 115.185 80.7492 114.96 80.7706 114.732C80.8193 114.135 81.0263 113.593 81.3278 113.118L69.8629 103.906C69.2752 104.637 68.4043 105.121 67.4329 105.219L66.0078 118.69L71.4768 117.475L80.7827 115.405Z" fill="#938CCB"/>
<path d="M47.3166 13.7434C48.0231 13.8013 48.6626 14.0693 49.1894 14.4682L53.1024 9.94922C50.4836 10.677 47.9927 11.7672 45.6875 13.2014L46.0103 13.8866C46.4214 13.7648 46.8629 13.7069 47.3166 13.7434Z" fill="#938CCB"/>
<path d="M60.7785 12.6805L71.6252 9.27913C71.5065 8.87108 71.4456 8.44172 71.4851 7.99409C71.6313 6.17919 73.1173 4.80584 74.8896 4.72667L75.0571 3.15234C74.5181 3.18584 73.9669 3.23152 73.4158 3.29851C68.37 3.88622 63.5617 5.81073 59.5087 8.86194C59.4478 8.91067 59.3717 8.93808 59.2955 8.94112C58.6895 8.97462 58.0897 9.01725 57.4806 9.09033C56.5001 9.20605 55.483 9.38266 54.4538 9.61409L49.7734 15.0161C50.0079 15.2963 50.1906 15.616 50.3307 15.9571L60.7785 12.6805Z" fill="#938CCB"/>
<path d="M55.8242 118.375C56.8626 119.782 58.0137 121.103 59.2591 122.312L64.3171 119.444L61.2689 119.06L55.8242 118.375Z" fill="#938CCB"/>
<path d="M20.1263 83.0747L16.932 75.7969C16.6001 75.9187 16.2469 75.9857 15.8845 76.0009L15.4186 80.392L13.2383 100.91L19.566 103.766L31.5882 109.19L20.1263 83.0747Z" fill="#938CCB"/>
<path d="M126.858 108.209L126.136 75.9609L121.133 107.256C122.418 107.761 123.316 108.97 123.389 110.389L124.909 110.368L126.903 110.34L126.858 108.209Z" fill="#938CCB"/>
<path d="M121.168 38.4261L122.106 43.9073L126.098 67.2451C126.296 67.2269 126.5 67.2147 126.704 67.2329C126.954 67.2543 127.191 67.2999 127.42 67.3669L135.894 42.1168L136.841 39.2909C135.763 38.6971 135.051 37.5674 135.008 36.2884L123.683 35.6094C123.446 36.9766 122.453 38.0546 121.168 38.4261Z" fill="#938CCB"/>
<path d="M97.9375 24.0758L117.149 33.132C117.834 32.0266 119.086 31.3232 120.468 31.4358C121.038 31.4815 121.552 31.6673 122.009 31.9444L129.93 21.5666C129.424 21.0824 129.071 20.4582 128.916 19.7578L98.1232 22.9552C98.1232 23.0435 98.1385 23.1288 98.1293 23.214C98.1019 23.5155 98.0319 23.8017 97.9375 24.0758Z" fill="#938CCB"/>
<path d="M19.2139 71.8156L40.4689 70.6767L47.1468 70.3174C47.1438 70.1925 47.1285 70.0707 47.1377 69.9459C47.2778 68.2163 48.6359 66.8734 50.2985 66.6846L47.0676 20.8646C46.958 20.8646 46.8484 20.8799 46.7357 20.8707C46.4038 20.8433 46.0932 20.7581 45.7948 20.6484L17.8984 69.6261C18.5866 70.1651 19.0556 70.9416 19.2139 71.8156Z" fill="#938CCB"/>
<path d="M104.975 48.168L101.559 57.1602C102.804 57.8027 103.611 59.1456 103.492 60.6286C103.471 60.8813 103.425 61.128 103.355 61.3594L123.024 69.6909C123.127 69.3803 123.273 69.094 123.453 68.8291L123.063 68.3906L104.975 48.168Z" fill="#938CCB"/>
<path d="M123.964 68.21C124.348 67.8446 124.801 67.5583 125.313 67.3908L120.38 38.5505C120.219 38.5596 120.057 38.5749 119.89 38.5596C119.019 38.4896 118.258 38.0998 117.679 37.5273L105.41 47.4575L123.593 67.7928L123.964 68.21Z" fill="#938CCB"/>
<path d="M50.3867 18.5054L79.9122 33.4996C80.305 32.8023 80.9201 32.2663 81.654 31.9588L79.294 24.3307L75.4237 11.8336C75.2045 11.8579 74.9791 11.8671 74.7538 11.8457C73.5205 11.7453 72.4821 11.0236 71.9188 10.0156L50.542 16.7179C50.5907 17.0042 50.6121 17.2965 50.5907 17.5949C50.5694 17.9177 50.4903 18.2192 50.3867 18.5054Z" fill="#938CCB"/>
<path d="M156.274 25.1523L141.694 34.4278C142.026 35.0246 142.194 35.725 142.136 36.4589C142.069 37.3176 141.685 38.0728 141.125 38.6483L151.427 50.3477L157.091 56.782C157.502 56.5445 157.961 56.3861 158.449 56.3283L158.409 26.6749C157.489 26.4892 156.719 25.9258 156.274 25.1523Z" fill="#938CCB"/>
<path d="M147.693 152.401C147.693 152.319 147.699 152.225 147.705 152.121L140.707 154.247L133.457 156.454C136.085 165.02 137.541 174.74 137.784 185.377L147.693 152.401Z" fill="#938CCB"/>
<path d="M97.1114 58.1339C97.827 57.2235 98.9719 56.6723 100.214 56.7728C100.421 56.788 100.619 56.8337 100.811 56.8824L104.277 47.7714L78.7584 45.9961C78.6884 46.2214 78.594 46.4346 78.4844 46.6356L97.1114 58.1339Z" fill="#938CCB"/>
<path d="M137.581 39.6017L134.058 50.1073L128.156 67.6838C129.137 68.235 129.828 69.2216 129.968 70.3665L153.275 65.1198L147.447 54.1208L139.725 39.5469C139.274 39.7022 138.784 39.7722 138.278 39.7296C138.041 39.7113 137.806 39.6656 137.581 39.6017Z" fill="#938CCB"/>
<path d="M91.6475 86.5413L80.947 91.0146C80.9866 91.2796 81.0079 91.5536 80.9835 91.8338C80.9439 92.3179 80.8069 92.7777 80.5938 93.1827L116.465 108.795L116.678 108.886C117.33 107.674 118.658 106.889 120.119 107.008C120.202 107.014 120.278 107.041 120.357 107.053L125.598 74.2665C124.848 74.0868 124.194 73.694 123.716 73.1367L91.6475 86.5413Z" fill="#938CCB"/>
<path d="M160.18 87.0925C160.198 86.8733 160.241 86.6601 160.296 86.4561L129.104 73.1367C128.721 73.5722 128.24 73.9132 127.691 74.1203L134.832 95.8533L137.978 105.43C138.307 105.363 138.645 105.321 138.995 105.351C139.844 105.418 140.591 105.796 141.163 106.341L153.222 96.2614L161.045 89.7235C160.439 89.017 160.101 88.0883 160.18 87.0925Z" fill="#938CCB"/>
</svg>
