<svg width="271" height="271" viewBox="0 0 271 271" fill="none" xmlns="http://www.w3.org/2000/svg">
<path d="M14.0278 112.084L17.972 111.772C17.972 111.772 17.7102 108.461 21.1465 108.129C22.9313 107.957 23.9508 109.054 24.3979 109.922C24.9177 110.929 24.8792 112.126 24.3697 113.138C23.7882 114.293 22.4017 115.412 19.7064 115.154L20.4099 124.047L24.3096 123.738L23.8977 118.529C23.8977 118.529 29.2553 116.683 28.7784 110.655C28.322 104.888 23.0445 103.957 20.831 104.133C19.1378 104.267 13.4029 105.132 14.0278 112.084Z" fill="#E0E0E0"/>
<path d="M24.4969 125.57L20.5391 125.883L20.8312 129.579L24.7891 129.266L24.4969 125.57Z" fill="#E0E0E0"/>
<path d="M204.805 145.054H206.943C206.943 145.054 206.943 143.259 208.809 143.226C209.778 143.209 210.28 143.844 210.484 144.33C210.721 144.895 210.649 145.538 210.332 146.062C209.969 146.66 209.175 147.203 207.733 146.95V151.771H209.848V148.946C209.848 148.946 212.813 148.18 212.813 144.912C212.813 141.785 210.009 141.059 208.809 141.059C207.891 141.06 204.764 141.281 204.805 145.054Z" fill="#E0E0E0"/>
<path d="M209.872 152.766H207.727V154.77H209.872V152.766Z" fill="#E0E0E0"/>
<path d="M14.6641 212.087L17.3952 212.476C17.3952 212.476 17.722 210.183 20.1112 210.481C21.3518 210.636 21.8781 211.539 22.0504 212.197C22.2504 212.961 22.0418 213.77 21.541 214.381C20.9686 215.078 19.8548 215.628 18.0602 215.042L17.1827 221.2L19.8835 221.585L20.3973 217.977C20.3973 217.977 24.3247 217.538 24.9192 213.364C25.4883 209.37 22.0391 207.932 20.5057 207.713C19.3334 207.546 15.2993 207.261 14.6641 212.087Z" fill="#F5F5F5"/>
<path d="M19.7291 222.859L16.9883 222.469L16.6234 225.029L19.3643 225.419L19.7291 222.859Z" fill="#F5F5F5"/>
<path d="M86.0241 26.3321L89.6132 25.5538C89.6132 25.5538 88.9601 22.5403 92.0799 21.8069C93.7005 21.4264 94.7747 22.3088 95.2945 23.0508C95.8977 23.9126 96.0115 25.0188 95.669 26.0134C95.2777 27.1489 94.1416 28.351 91.63 28.4491L93.3845 36.5423L96.9335 35.7726L95.9059 31.0318C95.9059 31.0318 100.604 28.6659 99.4153 23.1804C98.2776 17.9316 93.3064 17.7333 91.2918 18.1701C89.7514 18.504 84.584 20.0145 86.0241 26.3321Z" fill="#F5F5F5"/>
<path d="M97.3402 37.4261L93.7383 38.207L94.4677 41.5711L98.0696 40.7902L97.3402 37.4261Z" fill="#F5F5F5"/>
<path d="M235.031 234.339L237.119 234.8C237.119 234.8 237.507 233.047 239.335 233.419C240.285 233.612 240.639 234.339 240.733 234.858C240.843 235.461 240.634 236.073 240.211 236.516C239.728 237.022 238.834 237.381 237.482 236.822L236.441 241.529L238.505 241.985L239.115 239.228C239.115 239.228 242.176 239.119 242.881 235.928C243.556 232.875 240.975 231.561 239.802 231.302C238.907 231.105 235.806 230.647 235.031 234.339Z" fill="#E0E0E0"/>
<path d="M238.306 242.955L236.211 242.492L235.778 244.449L237.874 244.912L238.306 242.955Z" fill="#E0E0E0"/>
<path d="M241.352 81.3649H245.29C245.29 81.3649 245.29 78.0582 248.727 77.9991C250.512 77.9682 251.437 79.1373 251.813 80.0327C252.25 81.0728 252.117 82.2581 251.533 83.2224C250.865 84.3237 249.401 85.3248 246.747 84.857V93.7366H250.641V88.535C250.641 88.535 256.103 87.1231 256.103 81.1042C256.103 75.3455 250.939 74.0078 248.728 74.0078C247.037 74.0084 241.278 74.417 241.352 81.3649Z" fill="#F5F5F5"/>
<path d="M250.686 95.5664H246.734V99.2574H250.686V95.5664Z" fill="#F5F5F5"/>
<path d="M143.23 31.9594L147.479 32.8981C147.479 32.8981 148.267 29.3312 151.988 30.0862C153.921 30.4786 154.64 31.9604 154.832 33.0157C155.055 34.2417 154.63 35.4889 153.769 36.3897C152.786 37.4184 150.968 38.1495 148.216 37.0119L146.099 46.5912L150.3 47.5196L151.54 41.9083C151.54 41.9083 157.769 41.6872 159.204 35.1946C160.577 28.9822 155.325 26.3079 152.94 25.7811C151.117 25.3789 144.807 24.4467 143.23 31.9594Z" fill="#E0E0E0"/>
<path d="M149.908 49.5048L145.645 48.5625L144.764 52.5443L149.028 53.4865L149.908 49.5048Z" fill="#E0E0E0"/>
<path d="M119.973 38.6562L106.84 43.0058L111.482 56.0116L119.973 38.6562Z" fill="#594C8B"/>
<path d="M148.338 95.0382L139.485 105.67L150.298 114.259L148.338 95.0382Z" fill="#594C8B"/>
<path d="M116.624 116.359L126.511 106.682L116.627 97.0381L116.624 116.359Z" fill="#594C8B"/>
<path d="M121.451 94.9856L117.17 86.8871C125.549 82.4578 129.83 75.9652 129.224 68.6054C128.572 60.6922 122.25 53.4126 113.492 50.4907L116.392 41.8008C128.771 45.9308 137.392 56.1573 138.354 67.8542C139.266 78.9365 133.106 88.8258 121.451 94.9856Z" fill="#594C8B"/>
<g opacity="0.3">
<path d="M128.809 74.357C128.809 74.357 132.88 75.6757 138.167 72.7695L137.638 76.7364L127.858 80.4372L127.645 77.4589L128.809 74.357Z" fill="black"/>
</g>
<path d="M119.351 152.644C92.0172 148.908 69.9285 140.793 53.6994 128.524C39.9515 118.131 34.4508 107.688 32.6432 104.256C27.9202 95.2888 25.8861 85.5843 26.7603 76.1904C28.3674 58.9249 40.9369 48.5093 48.9937 45.7207C55.7964 43.3668 64.8678 43.3479 70.8407 44.3733C77.3886 45.4985 83.737 47.7131 89.7104 50.9565L84.2178 61.0729C79.3528 58.4312 74.1962 56.6301 68.8922 55.719C63.7145 54.8296 56.7779 55.2079 52.759 56.5992C48.507 58.0708 39.3581 65.0571 38.222 77.2576C37.5554 84.4233 39.1483 91.904 42.8285 98.8915C44.3401 101.761 48.9412 110.496 60.6419 119.342C75.2775 130.407 95.5553 137.774 120.911 141.24L119.351 152.644Z" fill="#938CCB"/>
<g opacity="0.3">
<path d="M59.0895 118.109L48.1953 123.994L52.9524 127.979L63.5805 121.489L59.0895 118.109Z" fill="black"/>
</g>
<g opacity="0.3">
<path d="M96.0078 136.207C96.0078 136.207 96.0143 146.977 97.8132 148.596L101.608 149.494L98.7048 136.855L96.0078 136.207Z" fill="black"/>
</g>
<path d="M81.1914 64.5345L95.5707 60.6272L91.3404 46.3672L81.1914 64.5345Z" fill="#938CCB"/>
<path d="M191.84 245.64L190.227 234.621C223.49 229.751 240.907 202.862 246.851 191.527L256.713 196.699C249.976 209.545 230.17 240.027 191.84 245.64Z" fill="#938CCB"/>
<path d="M258.288 204.141L256.073 186.832L239.168 194.614L258.288 204.141Z" fill="#938CCB"/>
<g opacity="0.3">
<path d="M213.411 226.812L210.711 228.227L212.426 239.732L216.987 237.542L213.411 226.812Z" fill="black"/>
</g>
<path d="M92.0297 238.814C76.9703 236.283 55.5797 229.849 39.1918 213.572C23.8819 198.366 16.5844 177.071 20.1475 157.999C21.9849 148.165 26.7545 138.6 33.9398 130.337C40.5853 122.695 49.1413 116.289 58.6843 111.81C74.4879 104.394 93.7744 101.241 117.644 102.17L117.287 111.324C94.9159 110.452 77.0212 113.324 62.5769 120.103C44.9787 128.362 32.1718 143.527 29.1534 159.681C26.1393 175.814 32.4596 193.972 45.6481 207.072C60.3282 221.653 79.7995 227.468 93.5484 229.779L92.0297 238.814Z" fill="#594C8B"/>
<g opacity="0.3">
<path d="M84.7604 227.949L82.0547 236.714L88.7473 238.424L88.4974 228.817L84.7604 227.949Z" fill="black"/>
</g>
<g opacity="0.3">
<path d="M90.1473 251.794C90.1473 251.794 93.6595 246.585 100.711 240.562C107.763 234.538 145.667 212.206 145.667 212.206L200.706 183.282L197.547 179.363L110.025 221.848L88.7695 240.419L90.1473 251.794Z" fill="black"/>
</g>
<path d="M89.2581 252.889L80.082 252.888C80.727 239.982 87.2023 230.659 101.814 220.548C115.24 211.257 136.054 200.881 164.861 186.518C175.412 181.257 187.371 175.295 200.471 168.638C208.248 164.685 215.08 159.099 220.228 152.484L227.458 158.11C221.488 165.782 213.591 172.246 204.621 176.804C191.49 183.478 179.514 189.448 168.948 194.716C113.244 222.489 90.2136 233.544 89.2581 252.889Z" fill="#594C8B"/>
<path d="M86.6968 225.312C63.4211 225.314 41.8403 209.622 34.9396 194.68C32.9347 190.34 29.5949 181.911 29.7472 174.229C29.8686 168.122 32.2036 159.368 38.3829 154.797C41.3135 152.629 45.4267 151.08 49.669 150.547C54.4651 149.947 58.845 150.711 62.006 152.702L56.3101 161.746C53.9968 160.289 47.7254 161.18 44.7389 163.389C42.3747 165.139 40.5233 169.89 40.4328 174.442C40.3525 178.49 41.8869 184.233 44.6419 190.2C47.3611 196.086 53.4792 202.351 61.0082 206.957C69.4921 212.147 79.0378 214.875 87.8767 214.607L88.1862 225.291C87.6903 225.305 87.1916 225.312 86.6968 225.312Z" fill="#938CCB"/>
<g opacity="0.3">
<path d="M54.1172 161.093L57.2293 150.805C57.2293 150.805 60.7583 151.729 61.8743 152.729L56.2364 161.617" fill="black"/>
</g>
<g opacity="0.3">
<path d="M80.1719 174.856C80.3919 174.743 113.783 201.864 138.225 208.104C162.668 214.344 182.88 215.43 190.748 213.802C198.616 212.174 208.521 209.381 208.521 209.381L207.367 201.818C207.367 201.818 178.675 204.034 159.954 202.813C141.234 201.592 96.0601 174.855 96.0601 174.855L87.0883 170.551L80.1719 174.856Z" fill="black"/>
</g>
<path d="M176.418 211.353C167.861 211.353 159.791 210.217 152.984 208.771C138.485 205.69 122.398 197.196 111.56 191.076C108.84 189.54 105.899 187.837 102.569 185.869C100.32 184.541 98.1442 183.24 96.0608 181.994C88.5015 177.476 81.8203 173.635 78.0469 172.134C79.2084 168.548 80.4154 165.128 81.6767 161.903C86.2463 163.72 93.2619 167.87 101.544 172.82C103.614 174.057 105.775 175.348 108.007 176.668C111.276 178.599 114.158 180.269 116.816 181.77C127.042 187.544 142.145 195.541 155.206 198.317C169.837 201.426 190.907 203.006 208.197 192.877C216.274 188.144 222.794 181.563 226.557 174.347C230.856 166.101 231.653 157.227 228.926 147.97C224.889 134.267 210.916 126.672 194.154 129.075C183.699 130.572 174.627 134.776 166.623 138.485C160.586 141.283 155.373 143.699 150.442 144.57L148.582 134.046C152.142 133.417 156.77 131.272 162.13 128.788C170.372 124.969 180.63 120.215 192.638 118.495C203.501 116.939 213.706 118.677 222.15 123.519C230.463 128.287 236.511 135.898 239.178 144.95C242.664 156.783 241.576 168.657 236.034 179.288C231.287 188.394 223.529 196.282 213.599 202.099C201.718 209.059 188.576 211.353 176.418 211.353Z" fill="#938CCB"/>
<g opacity="0.3">
<path d="M193.647 118.434C194.995 122.461 194.2 129.241 194.2 129.241L191.793 129.469C191.992 125.835 191.693 122.277 190.82 118.809L193.647 118.434Z" fill="black"/>
</g>
<g opacity="0.3">
<path d="M206.222 118.313C206.222 118.313 207.038 123.094 206.222 129.138L203.836 128.704V118.023L206.222 118.313Z" fill="black"/>
</g>
<g opacity="0.3">
<path d="M230.336 154.716L230.483 158.065C230.483 158.065 237.184 151.856 238.325 142.616C237.613 140.601 236.999 139.176 236.181 137.77L230.336 154.716Z" fill="black"/>
</g>
<g opacity="0.3">
<path d="M152.448 132.934C152.448 133.111 154.124 143.571 154.124 143.571C153.049 143.994 151.691 144.333 150.22 144.638L148.547 133.97C149.97 133.828 151.268 133.426 152.448 132.934Z" fill="black"/>
</g>
<path d="M130.567 175.476C125.064 175.476 119.721 174.557 115.077 172.747C113.141 171.993 110.434 170.801 107.568 169.539C105.145 168.473 102.639 167.369 100.251 166.372C96.8768 164.962 92.4535 165.148 91.524 166.928L83.4141 162.651C86.9983 155.781 96.7099 154.964 103.782 157.919C106.251 158.95 108.797 160.071 111.259 161.155C114.032 162.376 116.651 163.529 118.402 164.211C124.391 166.544 132.315 166.954 139.599 165.308C148.926 163.201 160.648 155.86 166.866 148.232C173.468 140.134 175.642 130.713 172.829 122.384C170.173 114.517 156.935 109.261 149.71 109.992L148.784 100.879C159.22 99.8175 177.145 106.528 181.51 119.454C185.351 130.831 182.602 143.43 173.967 154.021C166.489 163.194 152.885 171.699 141.618 174.244C137.969 175.068 134.232 175.476 130.567 175.476Z" fill="#594C8B"/>
<path d="M116.75 252.889C116.741 246.652 120.495 239.91 126.791 234.856C142.315 222.392 165.015 225.074 177.165 227.782L175.172 236.724C150.606 231.249 137.908 237.679 132.525 241.999C127.637 245.924 125.907 250.311 125.911 252.877L116.75 252.889Z" fill="#594C8B"/>
<path d="M170.414 239.195L183.92 234.165L174.372 223.316L170.414 239.195Z" fill="#594C8B"/>
<g opacity="0.3">
<path d="M153.539 100.853L152.765 109.966H149.784L148.918 100.807C150.668 100.625 152.247 100.604 153.539 100.853Z" fill="black"/>
</g>
<g opacity="0.3">
<path d="M84.7669 160.645C84.7669 160.645 92.5175 166.046 92.4129 166.08C92.3077 166.115 91.9018 166.295 91.524 166.929L83.4141 162.652C83.4141 162.652 84.1284 161.364 84.7669 160.645Z" fill="black"/>
</g>
<path d="M160.225 62.4023L149.305 77.5642L166.774 83.136L160.225 62.4023Z" fill="#594C8B"/>
<path d="M213.276 171.682L209.611 163.287L209.555 163.312C209.618 163.282 215.99 160.198 222.329 149.265C228.72 138.244 228.663 121.485 228.651 120.368C227.586 99.6472 218.404 85.2674 201.361 77.6247L201.073 77.4968C189.496 72.3521 176.096 72.1928 164.304 77.0588L160.307 78.7082L156.812 70.2394L160.81 68.5901C174.908 62.7734 190.938 62.9685 204.789 69.124L205.101 69.2633C225.283 78.313 236.589 95.8527 237.804 119.99L237.809 120.125C237.826 120.94 238.136 140.267 230.254 153.861C222.399 167.408 214.186 171.285 213.276 171.682Z" fill="#594C8B"/>
<path d="M189.194 173.389L179.328 169.512C180.565 166.103 181.924 163.288 183.554 160.062C185.582 156.047 187.68 151.895 189.346 146.659C195.381 127.692 194.568 117.24 190.791 103.49L201.098 100.66C205.334 116.087 206.34 128.502 199.532 149.9C197.607 155.951 195.209 160.696 193.094 164.883C191.611 167.813 190.213 170.583 189.194 173.389Z" fill="#938CCB"/>
<path d="M205.381 101.107L191.859 88.1172L184.535 105.435L205.381 101.107Z" fill="#938CCB"/>
<path d="M54.3279 164.791L72.9622 162.711L64.3398 146.002L54.3279 164.791Z" fill="#938CCB"/>
<path d="M147.841 128.538L134.303 141.51L151.303 149.545L147.841 128.538Z" fill="#938CCB"/>
<g opacity="0.3">
<path d="M179.328 169.504L180.239 167.258L190.151 170.795L189.194 173.388L179.328 169.504Z" fill="black"/>
</g>
<path d="M207.638 78.8858C222.387 77.1963 232.975 63.8696 231.285 49.1198C229.596 34.3701 216.269 23.7826 201.519 25.4721C186.77 27.1616 176.182 40.4883 177.872 55.2381C179.561 69.9879 192.888 80.5753 207.638 78.8858Z" fill="white"/>
<path d="M177.696 52.1915C177.705 52.1915 177.722 52.044 177.745 51.7562C177.768 51.4446 177.798 51.0218 177.837 50.4814C177.854 50.1991 177.874 49.8863 177.897 49.5427C177.934 49.1991 178.009 48.8267 178.071 48.4218C178.202 47.6121 178.326 46.6734 178.638 45.6528C179.116 43.5807 180.091 41.133 181.624 38.5396C183.17 35.9575 185.397 33.2605 188.428 30.9727C191.448 28.7066 195.26 26.7792 199.657 26.002C204.025 25.2524 208.956 25.389 213.651 27.1733C214.846 27.5559 215.969 28.1473 217.124 28.7012C218.218 29.3624 219.37 29.9722 220.388 30.8003C221.471 31.5434 222.417 32.4735 223.408 33.3683C224.303 34.3597 225.244 35.3298 226.016 36.455C227.6 38.6555 228.983 41.1 229.82 43.7888C230.688 46.4609 231.155 49.2988 231.194 52.1866C231.156 55.0754 230.69 57.9144 229.822 60.587C228.986 63.2764 227.602 65.7219 226.018 67.923C225.246 69.0482 224.305 70.0189 223.41 71.0108C222.419 71.9062 221.472 72.8362 220.39 73.5799C219.372 74.408 218.219 75.0178 217.125 75.6796C215.97 76.2335 214.847 76.8248 213.652 77.208C208.956 78.9928 204.025 79.1289 199.656 78.3793C195.258 77.6015 191.447 75.6741 188.427 73.408C185.396 71.1203 183.169 68.4233 181.624 65.8412C180.09 63.2477 179.115 60.8006 178.638 58.7285C178.325 57.7079 178.202 56.7692 178.071 55.96C178.009 55.5551 177.935 55.1828 177.897 54.8391C177.874 54.496 177.854 54.1833 177.837 53.9009C177.798 53.3605 177.768 52.9378 177.745 52.6261C177.722 52.3389 177.705 52.1915 177.696 52.1915C177.687 52.1915 177.685 52.3389 177.691 52.6272C177.7 52.9405 177.712 53.3649 177.729 53.908C177.739 54.1925 177.751 54.5074 177.763 54.8527C177.793 55.199 177.859 55.5741 177.914 55.9827C178.028 56.7995 178.137 57.747 178.436 58.7795C178.887 60.8748 179.841 63.3572 181.367 65.994C182.906 68.6195 185.139 71.3685 188.197 73.7078C191.246 76.0254 195.106 78.0037 199.574 78.8134C204.011 79.5955 209.029 79.4736 213.818 77.6693C215.036 77.2817 216.182 76.6839 217.36 76.1208C218.476 75.4503 219.651 74.8297 220.691 73.9891C221.795 73.233 222.762 72.2883 223.773 71.3761C224.688 70.368 225.647 69.3788 226.437 68.233C228.055 65.9913 229.467 63.4976 230.323 60.7551C231.21 58.0293 231.686 55.1329 231.724 52.1877C231.686 49.243 231.208 46.3476 230.321 43.623C229.465 40.8815 228.053 38.3889 226.434 36.1477C225.645 35.0019 224.686 34.0139 223.771 33.0057C222.76 32.0941 221.793 31.1494 220.689 30.3938C219.65 29.5532 218.475 28.9326 217.359 28.2627C216.181 27.6996 215.035 27.1023 213.817 26.7147C209.029 24.911 204.012 24.7885 199.575 25.5706C195.107 26.3798 191.247 28.3581 188.198 30.6757C185.139 33.015 182.905 35.7634 181.367 38.3894C179.84 41.0263 178.886 43.5086 178.435 45.604C178.136 46.6365 178.027 47.5845 177.912 48.4013C177.859 48.8099 177.792 49.185 177.762 49.5313C177.75 49.8766 177.738 50.1915 177.728 50.476C177.711 51.0191 177.699 51.4435 177.69 51.7568C177.685 52.0435 177.687 52.1915 177.696 52.1915Z" fill="#4A4072"/>
<path d="M197.821 45.5588H201.422C201.422 45.5588 201.422 42.5355 204.564 42.4808C206.196 42.4526 207.042 43.5214 207.386 44.3404C207.785 45.2916 207.664 46.375 207.129 47.2569C206.518 48.2639 205.18 49.1793 202.753 48.7517V56.8714H206.314V52.1154C206.314 52.1154 211.308 50.8243 211.308 45.3209C211.308 40.0553 206.586 38.832 204.565 38.832C203.019 38.8326 197.753 39.206 197.821 45.5588Z" fill="#4A4072"/>
<path d="M206.356 58.543H202.742V61.918H206.356V58.543Z" fill="#4A4072"/>
<path d="M186.106 83.6855C187.61 82.0188 187.478 79.4486 185.811 77.9449C184.144 76.4411 181.574 76.5732 180.07 78.24C178.567 79.9067 178.699 82.4768 180.366 83.9806C182.032 85.4843 184.602 85.3522 186.106 83.6855Z" fill="white"/>
<path d="M179.017 80.9676C179.069 80.9692 179.072 80.6061 179.252 80.0023C179.43 79.4099 179.849 78.5508 180.745 77.8982C181.611 77.2435 183.021 76.8868 184.375 77.399C185.719 77.87 186.873 79.3004 186.858 80.967C186.873 82.6342 185.719 84.0646 184.375 84.5361C183.021 85.0483 181.611 84.6916 180.745 84.0369C179.849 83.3843 179.43 82.5253 179.252 81.9329C179.072 81.3296 179.069 80.9659 179.017 80.9676C178.991 80.9649 178.914 81.3312 179.035 81.9871C179.155 82.6288 179.542 83.5936 180.498 84.3599C181.421 85.1269 182.999 85.5892 184.556 85.0342C186.099 84.5296 187.453 82.8906 187.434 80.9665C187.452 79.0435 186.099 77.405 184.556 76.9004C183 76.3454 181.422 76.8077 180.499 77.5746C179.542 78.341 179.155 79.3058 179.036 79.9475C178.914 80.6039 178.99 80.9703 179.017 80.9676Z" fill="#4A4072"/>
<path d="M74.88 79.7689C76.1412 72.0621 70.9159 64.7921 63.2091 63.5309C55.5022 62.2697 48.2322 67.4949 46.9711 75.2018C45.7099 82.9086 50.9351 90.1786 58.642 91.4398C66.3488 92.701 73.6188 87.4757 74.88 79.7689Z" fill="white"/>
<path d="M75.0638 77.4853C75.0589 77.4853 75.0502 77.4078 75.0377 77.2566C75.0258 77.0929 75.0101 76.8701 74.99 76.5861C74.9803 76.4376 74.97 76.2728 74.9586 76.0923C74.9391 75.9119 74.8995 75.7157 74.867 75.5026C74.7982 75.0766 74.7331 74.5829 74.5689 74.0463C74.3174 72.9563 73.8047 71.6691 72.9982 70.3049C72.1852 68.9466 71.0134 67.5282 69.4194 66.325C67.8302 65.1331 65.8259 64.1196 63.5127 63.7104C61.2151 63.3158 58.6216 63.3879 56.1523 64.3266C55.5236 64.5282 54.9328 64.8388 54.3258 65.1304C53.7507 65.4784 53.1442 65.7992 52.6087 66.2344C52.0396 66.6252 51.542 67.1147 51.0206 67.5851C50.5496 68.1065 50.0548 68.6171 49.6488 69.2084C48.8158 70.3656 48.0879 71.6517 47.6478 73.0658C47.1914 74.4712 46.9459 75.9639 46.9253 77.4831C46.9453 79.0023 47.1903 80.4961 47.6467 81.902C48.0868 83.3167 48.8147 84.6028 49.6478 85.7605C50.0537 86.3524 50.5486 86.863 51.0196 87.3844C51.541 87.8554 52.0385 88.3443 52.6082 88.7356C53.1437 89.1713 53.7501 89.4922 54.3252 89.8402C54.9328 90.1318 55.5236 90.4429 56.1523 90.644C58.6222 91.5827 61.2162 91.6542 63.5137 91.2597C65.827 90.8505 67.8319 89.8369 69.4205 88.6451C71.0145 87.4418 72.1857 86.0234 72.9987 84.6646C73.8052 83.3004 74.318 82.0131 74.5695 80.9237C74.7337 80.3871 74.7987 79.8934 74.8676 79.4674C74.9001 79.2544 74.9396 79.0587 74.9592 78.8777C74.9705 78.6972 74.9814 78.5324 74.9906 78.3839C75.0112 78.0999 75.0269 77.8772 75.0383 77.7135C75.0502 77.5628 75.0589 77.4853 75.0638 77.4853C75.0686 77.4853 75.0692 77.5628 75.0665 77.7146C75.0616 77.8793 75.0551 78.1026 75.0464 78.3883C75.041 78.5378 75.035 78.7037 75.028 78.8853C75.0128 79.0674 74.9776 79.2647 74.9489 79.4798C74.8887 79.9091 74.8312 80.4077 74.6741 80.9508C74.4372 82.0533 73.9353 83.3584 73.1326 84.7454C72.3234 86.1264 71.1483 87.5719 69.5397 88.8028C67.9365 90.0217 65.9056 91.0624 63.5555 91.4884C61.2216 91.8998 58.5826 91.8358 56.0634 90.8868C55.4228 90.683 54.8201 90.3686 54.2006 90.0722C53.613 89.7199 52.9951 89.393 52.4483 88.9508C51.8678 88.5529 51.3588 88.0559 50.8271 87.5762C50.3458 87.0462 49.8412 86.5258 49.4261 85.9231C48.5746 84.7437 47.8321 83.4327 47.3817 81.9898C46.915 80.5563 46.6646 79.0327 46.6445 77.4831C46.6646 75.9341 46.9161 74.4116 47.3827 72.978C47.8331 71.5358 48.5757 70.2247 49.4272 69.0458C49.8423 68.4431 50.3469 67.9233 50.8282 67.3932C51.3599 66.9136 51.8683 66.4171 52.4494 66.0193C52.9962 65.577 53.6141 65.2507 54.2011 64.8984C54.8201 64.6025 55.4233 64.2881 56.0639 64.0843C58.5826 63.1358 61.2216 63.0713 63.5549 63.4827C65.905 63.9087 67.9354 64.9488 69.5392 66.1678C71.1478 67.3981 72.3229 68.8442 73.1321 70.2252C73.9348 71.6122 74.4367 72.9178 74.6741 74.0203C74.8312 74.5634 74.8887 75.062 74.9489 75.4918C74.977 75.7064 75.0123 75.9043 75.028 76.0864C75.0345 76.268 75.041 76.4338 75.0464 76.5834C75.0551 76.869 75.0616 77.0923 75.0665 77.2571C75.0692 77.4078 75.0686 77.4853 75.0638 77.4853Z" fill="#4A4072"/>
<path d="M56.602 74.7769H58.9125C58.9125 74.7769 58.9125 72.8371 60.9288 72.8018C61.9759 72.7839 62.519 73.4696 62.7396 73.9953C62.9959 74.6056 62.9179 75.301 62.5748 75.8668C62.1829 76.5129 61.3239 77.1004 59.7667 76.8262V82.0364H62.0512V78.9844C62.0512 78.9844 65.2555 78.1562 65.2555 74.6246C65.2555 71.2457 62.2258 70.4609 60.9282 70.4609C59.9374 70.4609 56.5586 70.7005 56.602 74.7769Z" fill="#4A4072"/>
<path d="M62.0804 83.1094H59.7617V85.2752H62.0804V83.1094Z" fill="#4A4072"/>
<path d="M81.3443 84.1897C81.3443 85.5024 80.2798 86.5669 78.9671 86.5669C77.6543 86.5669 76.5898 85.5024 76.5898 84.1897C76.5898 82.877 77.6543 81.8125 78.9671 81.8125C80.2803 81.8125 81.3443 82.8764 81.3443 84.1897Z" fill="white"/>
<path d="M81.345 84.1891C81.3146 84.1902 81.3125 83.9777 81.2068 83.6243C81.1027 83.278 80.8577 82.7756 80.3336 82.394C79.8268 82.0108 79.0024 81.8021 78.2106 82.1018C77.4247 82.3772 76.7499 83.2135 76.7586 84.1885C76.7499 85.1636 77.4247 86.0005 78.2106 86.2758C79.003 86.5755 79.8268 86.3668 80.3336 85.9837C80.8577 85.6021 81.1027 85.0996 81.2068 84.7533C81.3125 84.4005 81.3146 84.188 81.345 84.1891C81.3601 84.1875 81.4046 84.4016 81.3341 84.7853C81.2642 85.1609 81.0377 85.7251 80.4783 86.1734C79.9385 86.6216 79.016 86.892 78.1049 86.5679C77.2025 86.2731 76.4111 85.3143 76.422 84.1891C76.4111 83.0644 77.2025 82.1062 78.1049 81.8108C79.0155 81.4861 79.9379 81.7566 80.4778 82.2048C81.0371 82.6531 81.2637 83.2173 81.3336 83.5929C81.4051 83.9761 81.3607 84.1902 81.345 84.1891Z" fill="#4A4072"/>
<path d="M227.547 221.759C238.08 221.759 246.618 213.221 246.618 202.688C246.618 192.155 238.08 183.617 227.547 183.617C217.015 183.617 208.477 192.155 208.477 202.688C208.477 213.221 217.015 221.759 227.547 221.759Z" fill="white"/>
<path d="M246.62 202.688C246.613 202.688 246.601 202.583 246.585 202.379C246.569 202.158 246.548 201.859 246.521 201.475C246.508 201.274 246.494 201.053 246.478 200.809C246.451 200.565 246.398 200.301 246.354 200.014C246.262 199.44 246.174 198.774 245.952 198.05C245.613 196.58 244.921 194.843 243.833 193.004C242.737 191.172 241.156 189.259 239.006 187.636C236.863 186.028 234.16 184.661 231.04 184.11C227.941 183.578 224.443 183.675 221.112 184.941C220.264 185.212 219.467 185.632 218.648 186.025C217.872 186.494 217.054 186.926 216.332 187.514C215.564 188.041 214.893 188.701 214.19 189.336C213.555 190.039 212.887 190.728 212.339 191.525C211.215 193.086 210.234 194.821 209.64 196.728C209.025 198.623 208.693 200.637 208.666 202.686C208.693 204.735 209.023 206.749 209.639 208.645C210.232 210.553 211.214 212.288 212.338 213.85C212.885 214.648 213.553 215.336 214.188 216.04C214.891 216.675 215.563 217.335 216.331 217.862C217.053 218.45 217.871 218.882 218.647 219.352C219.466 219.745 220.263 220.164 221.111 220.436C224.442 221.702 227.94 221.798 231.04 221.267C234.16 220.715 236.863 219.347 239.006 217.74C241.156 216.116 242.736 214.203 243.833 212.371C244.921 210.532 245.612 208.795 245.951 207.325C246.172 206.601 246.26 205.936 246.353 205.361C246.397 205.074 246.45 204.81 246.476 204.566C246.492 204.323 246.506 204.1 246.519 203.9C246.547 203.517 246.568 203.217 246.584 202.996C246.601 202.792 246.613 202.688 246.62 202.688C246.626 202.688 246.627 202.792 246.624 202.997C246.617 203.219 246.608 203.52 246.597 203.905C246.589 204.107 246.581 204.33 246.572 204.575C246.551 204.821 246.503 205.087 246.465 205.377C246.384 205.956 246.307 206.628 246.095 207.361C245.775 208.848 245.098 210.609 244.015 212.479C242.923 214.341 241.339 216.292 239.169 217.952C237.006 219.596 234.268 220.999 231.098 221.574C227.95 222.129 224.39 222.042 220.992 220.762C220.129 220.488 219.315 220.063 218.48 219.664C217.688 219.188 216.854 218.748 216.117 218.152C215.333 217.615 214.647 216.945 213.93 216.298C213.281 215.583 212.6 214.881 212.04 214.068C210.892 212.478 209.89 210.709 209.283 208.763C208.654 206.829 208.316 204.775 208.289 202.685C208.316 200.596 208.655 198.542 209.284 196.609C209.892 194.664 210.893 192.896 212.041 191.305C212.601 190.493 213.282 189.791 213.931 189.076C214.648 188.429 215.334 187.759 216.117 187.223C216.855 186.627 217.688 186.186 218.48 185.711C219.316 185.311 220.129 184.887 220.992 184.613C224.39 183.333 227.948 183.246 231.096 183.801C234.266 184.375 237.005 185.779 239.168 187.422C241.338 189.082 242.922 191.032 244.014 192.894C245.097 194.765 245.774 196.526 246.094 198.013C246.306 198.745 246.384 199.418 246.465 199.997C246.503 200.287 246.55 200.553 246.571 200.799C246.58 201.044 246.588 201.268 246.596 201.469C246.607 201.855 246.617 202.156 246.623 202.378C246.627 202.583 246.626 202.688 246.62 202.688Z" fill="#4A4072"/>
<path d="M222.399 198.359H225.155C225.155 198.359 225.155 196.045 227.56 196.004C228.809 195.982 229.456 196.801 229.72 197.427C230.025 198.155 229.933 198.984 229.524 199.66C229.056 200.43 228.031 201.131 226.174 200.804V207.018H228.899V203.378C228.899 203.378 232.721 202.39 232.721 198.177C232.721 194.147 229.107 193.211 227.56 193.211C226.377 193.211 222.347 193.497 222.399 198.359Z" fill="#4A4072"/>
<path d="M228.93 208.297H226.164V210.88H228.93V208.297Z" fill="#4A4072"/>
<path d="M207.336 181.581C207.336 183.328 208.752 184.744 210.499 184.744C212.246 184.744 213.662 183.328 213.662 181.581C213.662 179.834 212.246 178.418 210.499 178.418C208.752 178.419 207.336 179.834 207.336 181.581Z" fill="white"/>
<path d="M207.334 181.581C207.375 181.583 207.377 181.3 207.518 180.83C207.656 180.369 207.982 179.701 208.679 179.193C209.354 178.683 210.45 178.406 211.504 178.804C212.55 179.17 213.448 180.284 213.436 181.58C213.448 182.877 212.55 183.991 211.504 184.357C210.45 184.756 209.354 184.478 208.679 183.969C207.982 183.461 207.656 182.793 207.518 182.331C207.377 181.863 207.375 181.58 207.334 181.581C207.314 181.579 207.254 181.864 207.349 182.375C207.442 182.874 207.743 183.625 208.487 184.221C209.206 184.818 210.433 185.178 211.645 184.746C212.846 184.353 213.899 183.078 213.884 181.581C213.898 180.084 212.846 178.81 211.645 178.417C210.434 177.985 209.206 178.344 208.487 178.941C207.743 179.537 207.442 180.289 207.349 180.788C207.254 181.298 207.314 181.583 207.334 181.581Z" fill="#4A4072"/>
<path d="M54.9298 236.173C57.0546 229.203 53.1271 221.831 46.1576 219.706C39.188 217.581 31.8157 221.509 29.6909 228.478C27.5662 235.448 31.4937 242.82 38.4632 244.945C45.4327 247.07 52.8051 243.142 54.9298 236.173Z" fill="white"/>
<path d="M55.514 232.324C55.5096 232.324 55.5015 232.252 55.4901 232.111C55.4793 231.958 55.4647 231.75 55.4457 231.485C55.437 231.346 55.4267 231.193 55.4164 231.024C55.398 230.856 55.3611 230.673 55.3308 230.474C55.2668 230.077 55.2056 229.616 55.0527 229.115C54.8181 228.098 54.3395 226.897 53.5872 225.624C52.8284 224.357 51.7352 223.033 50.2479 221.91C48.7655 220.798 46.8951 219.852 44.7363 219.471C42.5927 219.103 40.1727 219.17 37.8681 220.046C37.2816 220.234 36.7304 220.524 36.1635 220.796C35.6264 221.121 35.0611 221.42 34.5614 221.826C34.0302 222.191 33.5657 222.648 33.0795 223.087C32.64 223.573 32.1782 224.049 31.7993 224.601C31.0215 225.681 30.343 226.881 29.9321 228.201C29.5061 229.512 29.2769 230.905 29.2579 232.322C29.2769 233.74 29.5056 235.134 29.931 236.445C30.3413 237.765 31.021 238.966 31.7982 240.046C32.1771 240.598 32.6389 241.074 33.0784 241.561C33.5652 242.001 34.0296 242.457 34.5608 242.822C35.0605 243.228 35.6264 243.528 36.163 243.852C36.7299 244.124 37.2811 244.414 37.8675 244.602C40.1721 245.478 42.5927 245.545 44.7363 245.177C46.8951 244.796 48.7655 243.849 50.2479 242.737C51.7352 241.614 52.8284 240.291 53.5866 239.024C54.3389 237.751 54.8175 236.55 55.0522 235.533C55.2056 235.032 55.2663 234.571 55.3302 234.174C55.3606 233.975 55.3975 233.792 55.4159 233.624C55.4267 233.455 55.4365 233.302 55.4452 233.163C55.4641 232.898 55.4788 232.69 55.4896 232.537C55.501 232.397 55.5091 232.324 55.514 232.324C55.5189 232.324 55.5194 232.397 55.5167 232.539C55.5124 232.692 55.5059 232.901 55.4977 233.167C55.4928 233.307 55.4869 233.462 55.4804 233.631C55.4663 233.8 55.4332 233.985 55.4067 234.185C55.3503 234.586 55.2966 235.051 55.1503 235.558C54.9292 236.587 54.4609 237.805 53.7118 239.099C52.9568 240.387 51.8604 241.737 50.3596 242.885C48.8636 244.022 46.9688 244.993 44.7759 245.391C42.5981 245.775 40.1353 245.715 37.7852 244.829C37.1873 244.639 36.6247 244.346 36.047 244.07C35.499 243.741 34.9223 243.436 34.4118 243.023C33.8698 242.652 33.395 242.188 32.899 241.741C32.4497 241.246 31.9787 240.76 31.5917 240.198C30.7977 239.098 30.1045 237.874 29.6839 236.528C29.2487 235.191 29.0151 233.769 28.9961 232.323C29.0151 230.878 29.2492 229.457 29.685 228.12C30.1056 226.774 30.7982 225.551 31.5928 224.451C31.9798 223.889 32.4508 223.403 32.9001 222.909C33.3961 222.461 33.8708 221.998 34.4128 221.627C34.9229 221.215 35.4996 220.91 36.0475 220.581C36.6253 220.304 37.1879 220.011 37.7857 219.821C40.1358 218.936 42.5981 218.876 44.7759 219.26C46.9688 219.657 48.8636 220.628 50.3596 221.765C51.8604 222.913 52.9574 224.262 53.7124 225.551C54.4614 226.845 54.9297 228.063 55.1514 229.092C55.2977 229.599 55.3514 230.064 55.4078 230.465C55.4343 230.665 55.4668 230.85 55.4815 231.019C55.488 231.189 55.4934 231.343 55.4988 231.483C55.5069 231.749 55.5129 231.957 55.5178 232.111C55.5189 232.252 55.5183 232.324 55.514 232.324Z" fill="#4A4072"/>
<path d="M38.7582 229.332H40.6649C40.6649 229.332 40.6649 227.731 42.3289 227.702C43.1928 227.688 43.641 228.254 43.8231 228.687C44.0345 229.191 43.9706 229.765 43.6876 230.231C43.3641 230.765 42.6557 231.249 41.3706 231.023V235.322H43.2562V232.803C43.2562 232.803 45.9006 232.12 45.9006 229.205C45.9006 226.417 43.4004 225.77 42.3299 225.77C41.5104 225.771 38.7224 225.968 38.7582 229.332Z" fill="#4A4072"/>
<path d="M43.2804 236.207H41.3672V237.994H43.2804V236.207Z" fill="#4A4072"/>
<path d="M50.9727 215.553C50.9727 217.237 52.338 218.603 54.0225 218.603C55.707 218.603 57.0718 217.238 57.0718 215.553C57.0718 213.869 55.7065 212.504 54.0225 212.504C52.3385 212.504 50.9727 213.869 50.9727 215.553Z" fill="white"/>
<path d="M50.9734 215.555C51.0124 215.556 51.0151 215.283 51.1501 214.831C51.2834 214.386 51.5978 213.742 52.2704 213.252C52.9202 212.761 53.9777 212.493 54.9939 212.877C56.002 213.231 56.8676 214.304 56.8568 215.554C56.8682 216.805 56.002 217.878 54.9939 218.232C53.9777 218.616 52.9202 218.348 52.2704 217.857C51.5983 217.367 51.2839 216.723 51.1506 216.279C51.0151 215.826 51.0124 215.554 50.9734 215.555C50.9539 215.553 50.8964 215.828 50.9875 216.32C51.0774 216.801 51.3679 217.525 52.0856 218.1C52.7782 218.675 53.962 219.022 55.13 218.606C56.2877 218.227 57.3028 216.998 57.2888 215.554C57.3023 214.112 56.2877 212.882 55.13 212.503C53.962 212.087 52.7782 212.434 52.0856 213.009C51.3679 213.584 51.0774 214.308 50.9875 214.79C50.8964 215.282 50.9539 215.556 50.9734 215.555Z" fill="#4A4072"/>
</svg>
