<svg width="192" height="246" viewBox="0 0 192 246" fill="none" xmlns="http://www.w3.org/2000/svg">
<path d="M0.131425 164.068C-1.22961 144.542 8.20884 128.511 17.8653 113.229C34.6349 86.6874 51.4045 60.1461 68.1741 33.6048C76.0035 21.2133 84.4131 8.27569 96.1399 2.76288C112.241 -4.8073 130.837 4.02064 143.309 19.0139C155.781 34.0072 163.408 54.2124 170.761 73.9307C178.754 95.3665 194.629 106.352 191.627 141.788C188.159 182.733 157.249 197.084 131.123 210.473C77.4753 237.964 4.76472 230.527 0.131425 164.068Z" fill="#E2E2F2"/>
<path d="M51.289 66.7726L50.6719 65.9578C53.4401 61.4491 56.7192 57.8077 60.4183 55.1367L60.7851 56.2288C57.1806 58.8322 53.9857 62.3789 51.289 66.7726Z" fill="white"/>
<path d="M48.2571 124.733C44.4266 116.752 42.4023 107.357 42.4023 97.5675C42.4023 90.6718 43.3931 84.023 45.347 77.8086L46.1014 78.3175C44.1982 84.3712 43.2328 90.8476 43.2328 97.5675C43.2328 107.107 45.2052 116.258 48.9365 124.033L48.2571 124.733Z" fill="white"/>
<path d="M84.8106 229.853L84.7656 229.045C101.608 227.083 118.765 221.592 134.382 213.168L134.574 213.929C118.909 222.38 101.702 227.886 84.8106 229.853Z" fill="#AFC3EF"/>
<path d="M173.079 76.5679C172.831 34.0359 138.151 -0.242467 95.6187 0.00524034C53.0867 0.252947 18.8094 34.9331 19.056 77.465C19.2357 108.317 43.9082 129.06 59.5706 153.393C64.4221 160.93 64.0573 189.223 64.0573 189.223L129.383 188.843C129.383 188.843 128.689 160.556 133.452 152.962C148.829 128.447 173.258 107.42 173.079 76.5679Z" fill="#594C8B"/>
<path opacity="0.5" d="M173.079 76.5679C172.831 34.0359 138.151 -0.242467 95.6187 0.00524034C53.0867 0.252947 18.8094 34.9331 19.056 77.465C19.2357 108.317 43.9082 129.06 59.5706 153.393C64.4221 160.93 64.0573 189.223 64.0573 189.223L129.383 188.843C129.383 188.843 128.689 160.556 133.452 152.962C148.829 128.447 173.258 107.42 173.079 76.5679Z" fill="white"/>
<path opacity="0.3" d="M163.937 62.3284C163.981 110.8 133.675 165.768 96.2278 165.803C58.7805 165.838 28.3672 104.434 28.3281 62.4534C28.3036 36.5925 58.6421 15.601 96.0894 15.5664C133.537 15.5319 163.913 36.4676 163.937 62.3284Z" fill="white"/>
<path opacity="0.4" d="M140.098 109.552C140.12 133.662 120.594 153.224 96.4837 153.246C72.3736 153.269 52.8114 133.742 52.7891 109.632C52.7668 85.5231 72.2932 65.9598 96.4034 65.9375C120.514 65.9152 140.077 85.4417 140.098 109.552Z" fill="white"/>
<path opacity="0.4" d="M126.771 120.6C126.786 137.536 113.061 142.7 96.1242 142.715C79.1875 142.73 65.4531 137.592 65.4375 120.655C65.4219 103.719 79.1473 98.7813 96.084 98.7657C113.021 98.7512 126.755 103.663 126.771 120.6Z" fill="white"/>
<path d="M114.292 245.611L77.5594 245.61L67.3555 232.27L124.497 232.271L114.292 245.611Z" fill="#594C8B"/>
<path opacity="0.5" d="M114.292 245.611L77.5594 245.61L67.3555 232.27L124.497 232.271L114.292 245.611Z" fill="white"/>
<path d="M60.75 180.03C60.7422 178.692 61.8201 177.602 63.1579 177.595L128.443 177.254C129.779 177.247 130.868 178.324 130.876 179.66C130.883 180.997 129.806 182.088 128.468 182.094L63.1825 182.436C61.8469 182.444 60.7579 181.367 60.75 180.03Z" fill="#594C8B"/>
<path d="M136.672 190.17C136.662 195.091 132.679 199.065 127.776 199.073L118.721 199.089C118.085 199.251 117.392 199.34 116.697 199.339L64.3817 199.425C59.4611 199.433 55.4687 195.449 55.4609 190.528C55.4732 185.68 59.3294 181.746 64.1552 181.631L64.3561 181.627L73.4108 181.611C73.9932 181.469 74.6125 181.381 75.234 181.367L75.4348 181.362L127.75 181.277C132.672 181.266 136.663 185.25 136.672 190.17Z" fill="#594C8B"/>
<path d="M136.672 190.17C136.662 195.091 132.679 199.065 127.776 199.073L118.721 199.089C118.085 199.251 117.392 199.34 116.697 199.339L64.3817 199.425C59.4611 199.433 55.4687 195.449 55.4609 190.528C55.4732 185.68 59.3294 181.746 64.1552 181.631L64.3561 181.627L73.4108 181.611C73.9932 181.469 74.6125 181.381 75.234 181.367L75.4348 181.362L127.75 181.277C132.672 181.266 136.663 185.25 136.672 190.17Z" fill="#594C8B"/>
<g opacity="0.2">
<path d="M136.672 190.17C136.662 195.091 132.679 199.065 127.776 199.073L118.721 199.089C118.085 199.251 117.392 199.34 116.697 199.339L64.3817 199.425C59.4611 199.433 55.4687 195.449 55.4609 190.528C55.4732 185.68 59.3294 181.746 64.1552 181.631L64.3561 181.627L73.4108 181.611C73.9932 181.469 74.6125 181.381 75.234 181.367L75.4348 181.362L127.75 181.277C132.672 181.266 136.663 185.25 136.672 190.17Z" fill="white"/>
</g>
<path d="M133.563 207.516C133.562 212.436 129.865 216.403 125.305 216.403L116.886 216.404C116.294 216.565 115.65 216.654 115.003 216.651L66.3534 216.647C61.7775 216.647 58.0586 212.657 58.043 207.737C58.0463 202.888 61.6258 198.962 66.1135 198.854L66.301 198.849L74.7208 198.848C75.2619 198.706 75.8377 198.621 76.4157 198.606L76.602 198.602L125.253 198.605C129.829 198.606 133.548 202.596 133.563 207.516Z" fill="#594C8B"/>
<path opacity="0.3" d="M133.563 207.516C133.562 212.436 129.865 216.403 125.305 216.403L116.886 216.404C116.294 216.565 115.65 216.654 115.003 216.651L66.3534 216.647C61.7775 216.647 58.0586 212.657 58.043 207.737C58.0463 202.888 61.6258 198.962 66.1135 198.854L66.301 198.849L74.7208 198.848C75.2619 198.706 75.8377 198.621 76.4157 198.606L76.602 198.602L125.253 198.605C129.829 198.606 133.548 202.596 133.563 207.516Z" fill="white"/>
<path d="M130.454 224.423C130.462 229.344 127.05 233.304 122.835 233.295L115.049 233.28C114.502 233.44 113.906 233.527 113.308 233.523L68.3223 233.433C64.0912 233.425 60.6456 229.428 60.6211 224.508C60.6155 219.661 63.9183 215.74 68.0679 215.639L68.2409 215.635L76.0269 215.65C76.5268 215.509 77.059 215.423 77.5946 215.411L77.7676 215.406L122.753 215.497C126.984 215.506 130.431 219.502 130.454 224.423Z" fill="#594C8B"/>
<path opacity="0.4" d="M130.454 224.423C130.462 229.344 127.05 233.304 122.835 233.295L115.049 233.28C114.502 233.44 113.906 233.527 113.308 233.523L68.3223 233.433C64.0912 233.425 60.6456 229.428 60.6211 224.508C60.6155 219.661 63.9183 215.74 68.0679 215.639L68.2409 215.635L76.0269 215.65C76.5268 215.509 77.059 215.423 77.5946 215.411L77.7676 215.406L122.753 215.497C126.984 215.506 130.431 219.502 130.454 224.423Z" fill="white"/>
<path d="M65.7696 235.808C65.7618 234.468 66.8452 233.377 68.1853 233.373L123.426 233.262C124.76 233.259 125.843 234.335 125.851 235.667C125.859 237.007 124.775 238.099 123.435 238.102L68.1942 238.214C66.8619 238.217 65.7774 237.141 65.7696 235.808Z" fill="#594C8B"/>
<path d="M82.8147 70.4035L78.1339 73.0033C78.4251 74.4985 78.8201 75.9568 79.3055 77.3728L84.6513 77.2846C85.612 79.6234 86.8796 81.8003 88.4037 83.7708L85.6544 88.3556C86.6475 89.4948 87.7175 90.5638 88.8556 91.5568L93.4404 88.8075C95.4109 90.3317 97.5879 91.6003 99.9266 92.561L99.8384 97.9068C101.254 98.3922 102.713 98.7872 104.208 99.0784L106.808 94.3976C108.034 94.5616 109.283 94.6543 110.553 94.6543C111.824 94.6543 113.073 94.5616 114.299 94.3976L116.899 99.0784C118.394 98.7872 119.852 98.3922 121.268 97.9068L121.18 92.561C123.518 91.6003 125.696 90.3328 127.666 88.8075L132.251 91.5568C133.39 90.5638 134.459 89.4937 135.452 88.3556L132.703 83.7708C134.227 81.8003 135.496 79.6234 136.456 77.2846L141.801 77.3728C142.287 75.9568 142.682 74.4996 142.973 73.0033L138.292 70.4035C138.456 69.1773 138.549 67.9287 138.549 66.6578C138.549 65.3869 138.456 64.1383 138.292 62.912L142.973 60.3122C142.682 58.8171 142.287 57.3587 141.801 55.9428L136.456 56.0309C135.495 53.6933 134.227 51.5153 132.702 49.5448L135.451 44.96C134.458 43.8208 133.388 42.7518 132.25 41.7588L127.665 44.5081C125.695 42.9839 123.518 41.7152 121.179 40.7557L121.267 35.4099C119.851 34.9245 118.393 34.5295 116.898 34.2383L114.298 38.9191C113.072 38.755 111.823 38.6624 110.552 38.6624C109.281 38.6624 108.033 38.755 106.807 38.9191L104.207 34.2383C102.712 34.5295 101.253 34.9245 99.8373 35.4099L99.9254 40.7557C97.5878 41.7164 95.4098 42.9839 93.4393 44.5081L88.8545 41.7588C87.7153 42.7518 86.6463 43.8219 85.6533 44.96L88.4026 49.5448C86.8784 51.5153 85.6098 53.6922 84.6502 56.0309L79.3044 55.9428C78.819 57.3587 78.424 58.8171 78.1328 60.3122L82.8136 62.912C82.6496 64.1383 82.5569 65.3869 82.5569 66.6578C82.5581 67.9298 82.6507 69.1784 82.8147 70.4035ZM95.5482 67.3284C95.5482 58.9175 102.366 52.1 110.777 52.1C119.187 52.1 126.005 58.9186 126.005 67.3284C126.005 75.7393 119.187 82.5568 110.777 82.5568C102.366 82.5568 95.5482 75.7381 95.5482 67.3284Z" fill="#4A4072"/>
<path d="M59.2398 110.572L54.0714 113.443C54.241 114.25 54.4564 115.04 54.7074 115.814L60.6167 115.716C61.1311 116.882 61.7682 117.982 62.5136 118.998L59.4752 124.065C60.0231 124.675 60.6033 125.255 61.2125 125.803L66.2805 122.764C67.2959 123.51 68.396 124.147 69.562 124.661L69.4639 130.571C70.2371 130.823 71.0271 131.037 71.8338 131.207L74.7048 126.038C75.3274 126.105 75.9589 126.142 76.5994 126.142C77.2399 126.142 77.8714 126.105 78.494 126.038L81.365 131.207C82.1717 131.037 82.9617 130.823 83.7349 130.571L83.6367 124.661C84.8027 124.147 85.9029 123.51 86.9183 122.764L91.9862 125.803C92.5955 125.255 93.1757 124.675 93.7235 124.065L90.6852 118.998C91.4306 117.982 92.0677 116.882 92.5821 115.716L98.4913 115.814C98.7435 115.041 98.9577 114.251 99.1273 113.443L93.959 110.572C94.0259 109.95 94.0627 109.318 94.0627 108.678C94.0627 108.037 94.0259 107.405 93.959 106.783L99.1273 103.912C98.9577 103.105 98.7435 102.315 98.4913 101.541L92.5821 101.639C92.0677 100.473 91.4306 99.374 90.6852 98.3575L93.7235 93.2895C93.1757 92.6803 92.5966 92.1001 91.9862 91.5522L86.9183 94.5906C85.9029 93.8452 84.8027 93.2081 83.6367 92.6937L83.7349 86.7845C82.9617 86.5323 82.1717 86.318 81.3638 86.1484L78.4929 91.3168C77.8703 91.2499 77.2387 91.213 76.5983 91.213C75.9578 91.213 75.3263 91.2499 74.7036 91.3168L71.8327 86.1484C71.026 86.318 70.236 86.5323 69.4616 86.7845L69.5598 92.6937C68.3938 93.2081 67.2936 93.8452 66.2783 94.5906L61.2103 91.5522C60.6011 92.1001 60.0209 92.6792 59.473 93.2895L62.5113 98.3575C61.766 99.3729 61.13 100.473 60.6156 101.639L54.7063 101.541C54.4542 102.314 54.2399 103.104 54.0703 103.912L59.2387 106.783C59.1717 107.405 59.1349 108.037 59.1349 108.678C59.136 109.318 59.1729 109.95 59.2398 110.572ZM66.2794 108.678C66.2794 102.978 70.8999 98.3575 76.5994 98.3575C82.2989 98.3575 86.9194 102.978 86.9194 108.678C86.9194 114.377 82.2989 118.998 76.5994 118.998C70.8999 118.998 66.2794 114.377 66.2794 108.678Z" fill="#4A4072"/>
<path opacity="0.5" d="M59.2398 110.572L54.0714 113.443C54.241 114.25 54.4564 115.04 54.7074 115.814L60.6167 115.716C61.1311 116.882 61.7682 117.982 62.5136 118.998L59.4752 124.065C60.0231 124.675 60.6033 125.255 61.2125 125.803L66.2805 122.764C67.2959 123.51 68.396 124.147 69.562 124.661L69.4639 130.571C70.2371 130.823 71.0271 131.037 71.8338 131.207L74.7048 126.038C75.3274 126.105 75.9589 126.142 76.5994 126.142C77.2399 126.142 77.8714 126.105 78.494 126.038L81.365 131.207C82.1717 131.037 82.9617 130.823 83.7349 130.571L83.6367 124.661C84.8027 124.147 85.9029 123.51 86.9183 122.764L91.9862 125.803C92.5955 125.255 93.1757 124.675 93.7235 124.065L90.6852 118.998C91.4306 117.982 92.0677 116.882 92.5821 115.716L98.4913 115.814C98.7435 115.041 98.9577 114.251 99.1273 113.443L93.959 110.572C94.0259 109.95 94.0627 109.318 94.0627 108.678C94.0627 108.037 94.0259 107.405 93.959 106.783L99.1273 103.912C98.9577 103.105 98.7435 102.315 98.4913 101.541L92.5821 101.639C92.0677 100.473 91.4306 99.374 90.6852 98.3575L93.7235 93.2895C93.1757 92.6803 92.5966 92.1001 91.9862 91.5522L86.9183 94.5906C85.9029 93.8452 84.8027 93.2081 83.6367 92.6937L83.7349 86.7845C82.9617 86.5323 82.1717 86.318 81.3638 86.1484L78.4929 91.3168C77.8703 91.2499 77.2387 91.213 76.5983 91.213C75.9578 91.213 75.3263 91.2499 74.7036 91.3168L71.8327 86.1484C71.026 86.318 70.236 86.5323 69.4616 86.7845L69.5598 92.6937C68.3938 93.2081 67.2936 93.8452 66.2783 94.5906L61.2103 91.5522C60.6011 92.1001 60.0209 92.6792 59.473 93.2895L62.5113 98.3575C61.766 99.3729 61.13 100.473 60.6156 101.639L54.7063 101.541C54.4542 102.314 54.2399 103.104 54.0703 103.912L59.2387 106.783C59.1717 107.405 59.1349 108.037 59.1349 108.678C59.136 109.318 59.1729 109.95 59.2398 110.572ZM66.2794 108.678C66.2794 102.978 70.8999 98.3575 76.5994 98.3575C82.2989 98.3575 86.9194 102.978 86.9194 108.678C86.9194 114.377 82.2989 118.998 76.5994 118.998C70.8999 118.998 66.2794 114.377 66.2794 108.678Z" fill="#4A4072"/>
</svg>
