<svg width="240" height="240" viewBox="0 0 240 240" fill="none" xmlns="http://www.w3.org/2000/svg">
<path d="M212.852 70.6666C204.119 49.5634 187.253 33.1933 167.867 24.3861C148.48 15.5789 126.763 14.0153 106.094 17.8229C86.6537 21.4042 67.7245 29.7954 52.4953 43.6545C37.266 57.5137 25.9437 77.048 22.6031 98.5682C19.7687 116.825 22.6541 135.607 27.1317 153.456C29.8516 164.298 35.7384 175.75 42.6621 184.041C53.7525 197.323 72.2925 209.14 85.7954 208.817L84.2812 208.912C129.328 215.194 175.655 196.125 197.068 169.725C218.481 143.324 226.204 102.932 212.852 70.6666Z" fill="#E2E2F2"/>
<path d="M177.591 60.1753C171.398 69.5564 160.789 69.2305 151.032 62.7894C141.275 56.3483 136.065 46.2313 142.259 36.8502C148.451 27.4691 161.382 25.0854 171.139 31.5265C180.895 37.9676 183.784 50.7942 177.591 60.1753Z" fill="white"/>
<path d="M143.787 62.6107C142.753 63.5462 141.42 63.1478 140.441 62.0659C139.462 60.984 139.209 59.629 140.244 58.6934C141.278 57.7579 142.91 57.8765 143.888 58.9579C144.866 60.0403 144.821 61.6757 143.787 62.6107Z" fill="white"/>
<path d="M137.905 63.6644C137.28 63.9514 136.711 63.5669 136.411 62.9132C136.11 62.2594 136.191 61.5845 136.816 61.297C137.441 61.01 138.192 61.3066 138.492 61.9604C138.793 62.6141 138.53 63.3768 137.905 63.6644Z" fill="white"/>
<path d="M99.9814 79.1099C101.165 80.0882 100.979 81.5598 100.001 82.7435C99.0228 83.9272 97.6226 84.3746 96.439 83.3963C95.2553 82.4181 95.0887 80.6656 96.067 79.4819C97.0452 78.2982 98.7977 78.1317 99.9814 79.1099Z" fill="white"/>
<path d="M151.544 35.9986C149.235 39.4992 147.115 44.6107 150.313 48.2947C152.781 51.1368 157.283 51.3086 160.227 49.1539C161.766 48.0274 162.906 46.4242 163.559 44.6386C164.16 43.0003 164.464 40.955 163.601 39.3494C162.562 37.416 160.248 37.4731 158.449 38.1864C156.612 38.915 154.954 40.1059 153.622 41.5603C151.11 44.304 148.663 49.2816 150.98 52.8278C152.102 54.5467 154.126 55.4568 156.024 56.0338C158.248 56.7096 160.654 56.9222 162.93 56.3808C166.548 55.5202 170.183 52.1448 169.772 48.1358C169.568 46.1386 167.897 44.893 165.912 45.3326C163.939 45.7694 162.372 47.5867 161.556 49.3493C160.119 52.4534 160.384 58.2763 164.667 58.9334C166.679 59.2421 168.703 58.2494 170.157 56.9218C171.607 55.5984 172.626 53.8022 173.075 51.8952C174.092 47.5824 172.209 43.0858 169.057 40.1357C165.894 37.1741 161.151 35.0093 156.757 35.7043C154.711 36.0278 152.767 37.0258 151.473 38.6669C150.199 40.2816 149.616 42.3134 149.376 44.3275C148.866 48.6072 149.693 53.365 152.992 56.3923C156.448 59.5637 161.41 60.2827 165.888 59.4029C167.873 59.0131 169.847 58.2547 171.395 56.9227C173.081 55.4717 173.931 53.4053 174.355 51.2659C175.213 46.9368 174.873 42.2808 171.755 38.9112C169.11 36.0523 165.136 34.5346 161.265 34.7366C156.97 34.9608 152.932 37.0454 149.876 40.0085C147.035 42.7632 144.45 46.9469 146.281 50.9486C147.002 52.523 148.362 53.797 150.091 54.1272C150.468 54.1992 150.63 53.6208 150.25 53.5488C148.52 53.2186 147.238 51.8755 146.64 50.2579C145.969 48.4416 146.264 46.4822 147.071 44.7586C148.68 41.3242 151.94 38.5373 155.31 36.9101C158.649 35.2982 162.499 34.8048 166.054 35.9813C169.381 37.0824 172.353 39.5755 173.52 42.9432C174.218 44.9578 174.288 47.125 174.062 49.2283C173.844 51.2616 173.408 53.4005 172.229 55.1117C169.953 58.415 165.229 59.3203 161.483 59.1379C157.413 58.9397 153.341 57.0053 151.347 53.3194C150.392 51.553 149.964 49.5403 149.867 47.5469C149.773 45.6336 149.925 43.6603 150.507 41.8282C151.103 39.9538 152.229 38.3026 153.954 37.3066C155.683 36.3082 157.73 36.0216 159.694 36.2539C163.641 36.721 167.595 39.0091 170.063 42.1061C172.531 45.2011 173.578 49.5662 171.986 53.2973C171.275 54.9643 170.083 56.4475 168.534 57.4046C166.862 58.4376 164.501 58.9378 162.931 57.4483C161.591 56.1778 161.202 54.1114 161.358 52.3402C161.518 50.5229 162.309 48.7469 163.584 47.4384C164.318 46.6858 165.245 46.0162 166.311 45.8712C167.351 45.7296 168.424 46.1438 168.895 47.1221C169.685 48.7642 168.934 50.9059 167.978 52.3094C165.645 55.7362 161.266 56.6146 157.412 55.777C155.529 55.3675 153.463 54.6538 152.085 53.2464C150.622 51.7522 150.476 49.608 150.947 47.664C151.81 44.1019 154.37 40.9258 157.606 39.2338C159.203 38.3986 161.754 37.56 162.964 39.4507C163.904 40.9195 163.544 42.9437 162.981 44.4802C161.772 47.7797 158.664 50.3678 155.026 50.0026C153.353 49.8346 151.707 49.0618 150.633 47.7475C149.314 46.1338 149.072 43.8725 149.477 41.8862C149.891 39.8496 150.93 38.0194 152.062 36.3024C152.275 35.9784 151.756 35.6774 151.544 35.9986Z" fill="#E2E2F2"/>
<path d="M91.2132 93.46C92.7622 91.3274 93.1352 87.9165 93.0358 85.2823C92.888 81.3626 92.384 77.1064 87.7587 74.1299C82.2694 70.5976 77.1531 70.4719 77.1531 70.4719C73.0045 70.024 67.9928 70.7781 64.8761 73.5525C62.3379 75.8119 60.8734 78.0866 59.8294 81.3203C58.8713 84.2891 58.8133 88.794 59.996 91.6812C60.9541 94.0197 66.2235 99.904 74.7641 99.904C74.7641 99.904 86.0072 100.627 91.2132 93.46Z" fill="white"/>
<path d="M66.8073 87.7655C68.0625 86.7973 68.9558 85.426 69.2616 83.8616C69.5309 82.484 69.4646 80.4488 67.9085 79.8599C66.3523 79.2709 65.5728 80.9816 65.2435 82.1802C64.764 83.9274 64.584 85.7922 64.9593 87.5768C65.5973 90.6109 68.3635 93.4655 71.6731 92.9941C74.9203 92.5319 77.2113 89.2007 78.0048 86.2516C78.4209 84.704 78.5021 83.072 78.2309 81.4924C77.9904 80.0922 77.4633 78.2005 76.0421 77.5592C74.6069 76.9112 73.1093 77.9437 72.2856 79.0813C71.3424 80.3831 70.9992 82.0703 71.1389 83.6543C71.3011 85.496 72.0331 87.2236 72.9134 88.8301C73.7851 90.4218 74.8406 91.964 76.2825 93.0925C77.6073 94.1298 79.2926 94.8181 80.9971 94.6856C82.5144 94.5676 83.9309 93.8341 84.9912 92.7556C87.2861 90.4213 87.6336 86.6514 85.9824 83.8544C84.2731 80.9596 80.7312 79.6242 77.5166 80.4652C73.776 81.4434 71.2041 84.5586 68.6505 87.2404C67.5845 88.3597 66.4459 89.6663 66.648 91.3271C66.839 92.8972 68.0136 94.1418 69.42 94.76C72.4233 96.0815 76.4006 95.4008 79.2153 93.9133C82.1414 92.3672 84.2539 89.5578 84.6936 86.2511C85.6872 78.778 77.3861 74.3192 70.9214 74.4973C69.3552 74.5405 67.3123 74.6663 66.0941 75.7736C64.8629 76.892 65.2142 78.4568 66.275 79.5431C68.4926 81.8135 72.0288 82.8181 75.1296 82.6804C76.704 82.6103 78.2563 82.2503 79.6915 81.5984C81.3288 80.8549 82.715 79.45 84.5093 79.0804C87.7929 78.404 90.9533 81.3234 90.3585 84.645C90.0854 86.1709 89.1629 87.5274 87.792 88.2647C87.4517 88.4476 87.7545 88.966 88.0949 88.7826C90.2217 87.6388 91.3877 85.0952 90.9384 82.7298C90.4771 80.2986 88.1913 78.5725 85.7841 78.4036C84.4094 78.3071 83.1825 78.8159 82.0334 79.5244C80.7336 80.3255 79.5182 81.1362 78.0393 81.5845C75.2376 82.4336 72.1056 82.2196 69.4526 80.9735C68.2373 80.4028 66.731 79.5541 66.0936 78.3133C65.0467 76.2762 67.7304 75.4621 69.1939 75.2452C72.4377 74.7647 75.8457 75.3973 78.7094 76.9909C81.3849 78.4794 83.7643 80.9116 84.1248 84.0781C84.4593 87.0143 83.2104 89.9989 81.0177 91.9468C78.7046 94.0016 75.5136 94.9348 72.4531 94.7951C70.8854 94.7236 69.1886 94.3328 68.1096 93.1079C66.8726 91.7039 67.0757 90.0292 68.1974 88.6381C69.1771 87.4232 70.3286 86.3058 71.4216 85.1922C72.6259 83.9648 73.9133 82.8008 75.4253 81.9623C78.2798 80.3797 81.7569 80.3581 84.2448 82.6559C86.5411 84.7765 87.1104 88.4399 85.4937 91.1346C84.7517 92.3711 83.5742 93.381 82.1976 93.8365C80.5953 94.3669 78.9043 94.0328 77.4749 93.1861C76.0766 92.3576 75.0048 91.0928 74.1413 89.7354C73.2355 88.3112 72.4305 86.7565 72.0009 85.1173C71.6107 83.6269 71.5766 82.0285 72.1478 80.5784C72.6739 79.2416 74.3289 77.2156 75.9662 78.1938C77.2085 78.9359 77.5857 80.8828 77.7302 82.2028C77.8929 83.6869 77.7307 85.197 77.2713 86.6168C76.3997 89.312 74.0352 92.5165 70.8945 92.4436C67.5216 92.3653 65.4797 89.025 65.3645 85.9679C65.3069 84.442 65.5118 82.6304 66.2045 81.25C66.6273 80.4076 67.5446 79.9895 68.2665 80.8184C68.8377 81.4741 68.8445 82.5167 68.7441 83.3312C68.5545 84.8701 67.7313 86.3029 66.5049 87.2485C66.2035 87.4799 66.5016 88.0016 66.8073 87.7655Z" fill="#E2E2F2"/>
<path d="M72.6029 115.928L73.1784 114.176L73.8322 115.928C73.8322 115.928 75.1378 116.151 75.1531 116.272C75.168 116.391 73.9032 116.764 73.9032 116.764C73.9032 116.764 73.3723 118.463 73.1784 118.078C72.9845 117.693 72.7963 116.841 72.7963 116.841C72.7963 116.841 71.1523 116.499 71.1523 116.332C71.1523 116.151 72.6029 115.928 72.6029 115.928Z" fill="white"/>
<path d="M142.135 173.249L142.71 171.496L143.364 173.249C143.364 173.249 144.67 173.471 144.685 173.592C144.7 173.711 143.435 174.084 143.435 174.084C143.435 174.084 142.904 175.783 142.71 175.398C142.516 175.014 142.328 174.162 142.328 174.162C142.328 174.162 140.684 173.82 140.684 173.652C140.684 173.471 142.135 173.249 142.135 173.249Z" fill="white"/>
<path d="M165.666 77.2329L166.241 75.4805L166.895 77.2329C166.895 77.2329 168.201 77.4552 168.216 77.5766C168.231 77.6957 166.966 78.0686 166.966 78.0686C166.966 78.0686 166.435 79.7678 166.241 79.3829C166.047 78.9979 165.859 78.1459 165.859 78.1459C165.859 78.1459 164.215 77.8042 164.215 77.6366C164.215 77.4557 165.666 77.2329 165.666 77.2329Z" fill="white"/>
<path d="M98.5737 48.0938C99.6436 58.8516 91.2686 65.0705 79.7433 66.2162C68.218 67.362 57.9066 63.0017 56.8372 52.2439C55.7673 41.4862 64.2436 31.8362 75.7689 30.69C87.2937 29.5438 97.5038 37.3356 98.5737 48.0938Z" fill="#594C8B"/>
<path d="M103.194 65.9436C103.747 66.629 103.448 67.4551 102.732 68.033C102.015 68.6114 101.152 68.7228 100.599 68.0373C100.046 67.3524 100.179 66.3281 100.896 65.7497C101.612 65.1717 102.641 65.2586 103.194 65.9436Z" fill="#594C8B"/>
<path d="M100.623 58.9845C101.863 59.8903 101.766 61.3701 100.86 62.6104C99.9545 63.8503 98.5837 64.3811 97.3438 63.4754C96.104 62.5696 95.8328 60.8306 96.7381 59.5903C97.6438 58.3499 99.3833 58.0787 100.623 58.9845Z" fill="#594C8B"/>
<path d="M70.1087 41.2643C67.6718 43.1171 66.3239 46.2184 66.6316 49.2707C66.947 52.3984 69.0623 55.0571 71.9217 56.2965C74.5703 57.4446 78.2721 57.363 80.2113 54.927C82.0871 52.5702 80.6375 49.0595 77.8502 48.256C74.5771 47.3123 71.5348 49.8529 70.8153 52.9437C70.4611 54.4657 70.4793 56.3277 71.3337 57.6909C72.2251 59.1141 73.8959 59.4592 75.4363 59.7208C79.115 60.3453 83.1302 60.5977 86.459 58.6033C89.2766 56.9152 90.6859 53.8734 90.2937 50.6305C89.422 43.4296 81.7876 40.3667 75.3499 40.5184C71.7547 40.6033 68.1268 41.6517 65.4052 44.0809C62.9567 46.2659 61.4731 49.4497 61.8681 52.7603C62.2555 56.008 64.3775 58.5726 67.4471 59.655C70.6339 60.7787 74.2689 60.3875 77.3947 59.2552C80.6759 58.0667 83.6121 55.9033 85.4188 52.8837C87.1698 49.9571 87.8126 46.3537 86.7676 43.0667C85.7951 40.0072 83.4686 37.3225 80.3596 36.3352C77.4095 35.3982 73.4591 36.4739 72.7142 39.8617C72.0258 42.9923 74.7292 45.7955 77.6433 46.3398C79.4649 46.6801 81.3614 46.3657 83.0783 45.7129C84.682 45.1029 86.2598 44.2163 87.3532 42.8641C88.3588 41.6209 88.8595 40.0345 88.5647 38.4486C88.4942 38.0694 87.9158 38.2302 87.9863 38.608C88.6463 42.1605 85.0507 44.5077 82.1303 45.4053C79.1111 46.3331 75.4127 45.9539 73.7687 42.9088C73.0651 41.6061 73.0003 40.0509 73.8081 38.7769C74.6015 37.5246 76.0123 36.7504 77.47 36.6006C80.6207 36.2766 83.5732 38.3521 85.151 40.947C88.5758 46.5779 85.7817 53.6397 80.5598 57.028C78.0028 58.6869 74.9111 59.6555 71.8603 59.7126C69.0667 59.7649 66.0748 58.9969 64.1947 56.7995C62.2372 54.5118 61.9362 51.1197 63.0388 48.3817C64.1778 45.5541 66.6551 43.4046 69.442 42.2733C72.4924 41.0349 75.9763 40.839 79.2033 41.3857C82.1395 41.883 85.0415 43.0773 87.1291 45.2574C89.0807 47.2955 90.1362 50.2974 89.6529 53.1059C89.1292 56.1481 86.7302 58.2318 83.8598 59.0829C82.2326 59.5653 80.5204 59.6502 78.8342 59.5437C77.1422 59.4366 75.2687 59.2624 73.654 58.707C70.3747 57.5785 70.751 52.9533 72.526 50.6627C74.3582 48.2987 78.3134 47.8096 79.9655 50.643C80.7095 51.9189 80.6505 53.4827 79.6847 54.6256C78.8111 55.659 77.4489 56.2288 76.125 56.3809C73.2911 56.7069 70.3651 55.2793 68.6894 53.0094C66.9815 50.6953 66.7651 47.6075 67.9075 44.9953C68.459 43.7344 69.3129 42.6155 70.4102 41.7813C70.715 41.5518 70.4164 41.0305 70.1087 41.2643Z" fill="#421B36"/>
<path d="M139.068 29.3897C139.068 40.2814 130.637 45.6809 119.727 45.6809C108.816 45.6809 98.3281 39.5091 98.3281 28.6169C98.3281 17.7252 108.401 9.66797 119.312 9.66797C130.223 9.66797 139.068 18.498 139.068 29.3897Z" fill="#938CCB"/>
<path d="M134.774 46.6642C134.774 47.8637 133.795 48.4843 132.595 48.4843C131.396 48.4843 130.43 47.8637 130.43 46.6642C130.43 45.4647 131.402 44.4922 132.602 44.4922C133.801 44.4922 134.774 45.4647 134.774 46.6642Z" fill="#938CCB"/>
<path d="M133.667 50.9459C133.527 51.5334 132.975 51.7225 132.388 51.5823C131.8 51.4417 131.399 51.0251 131.54 50.4375C131.681 49.85 132.271 49.4876 132.858 49.6278C133.445 49.7684 133.807 50.3583 133.667 50.9459Z" fill="#938CCB"/>
<path d="M110.013 21.8494C107.223 24.9492 105.964 29.2817 106.695 33.3943C107.066 35.4818 107.967 37.6265 109.798 38.8318C111.58 40.0049 113.695 39.7726 115.404 38.5874C118.735 36.2782 120.44 31.8502 120.539 27.918C120.59 25.8967 120.234 23.8294 119.417 21.9742C118.711 20.3695 117.297 18.5542 115.349 18.6578C113.333 18.7649 112.147 20.7252 111.921 22.543C111.773 23.7305 111.903 24.9449 112.058 26.1252C112.206 27.2518 112.424 28.373 112.781 29.4535C114.02 33.198 117.551 36.7788 121.814 35.5322C125.876 34.3442 127.678 29.8375 126.159 26.0201C124.587 22.0702 120.071 20.1914 116.049 21.041C113.98 21.4778 111.885 22.5866 110.465 24.1735C109.826 24.8873 109.318 25.783 109.404 26.7718C109.484 27.6962 110.064 28.4834 110.773 29.0441C112.5 30.4102 114.934 30.6161 117.037 30.2849C119.353 29.9206 121.541 28.8626 123.58 27.7462C125.232 26.8418 126.979 25.6802 127.837 23.9393C128.631 22.3284 128.43 20.4458 127.308 19.0399C126.145 17.5807 124.226 17.0268 122.458 17.621C120.51 18.2753 119.471 19.9769 119.263 21.9598C118.81 26.2932 120.746 31.1282 123.841 34.1436C125.231 35.4977 127.215 36.6074 129.194 35.9402C131.155 35.2798 132.31 33.3746 132.692 31.4316C132.982 29.9575 133.356 27.234 131.873 26.213C131.171 25.7306 130.26 25.8866 129.622 26.4007C128.792 27.0694 128.558 28.1604 128.425 29.1631C128.114 31.5103 128.336 34.0831 127.091 36.1985C125.98 38.0873 123.919 39.2748 121.854 39.8436C117.816 40.9562 113.213 39.8206 110.181 36.9209C107.099 33.9727 105.886 29.3282 106.903 25.2142C107.918 21.1039 111.261 17.8735 115.285 16.6817C119.331 15.4831 123.672 16.6289 126.751 19.4782C128.215 20.8332 129.343 22.518 129.991 24.4073C130.115 24.7706 130.695 24.6146 130.569 24.2479C129.447 20.9777 126.962 18.2681 123.84 16.7935C120.629 15.2772 116.98 15.2273 113.714 16.613C110.521 17.9676 107.878 20.5831 106.687 23.861C105.458 27.2412 105.796 31.1388 107.471 34.3073C110.791 40.5862 119.924 43.0937 125.706 38.6153C127.213 37.4484 128.151 35.8649 128.517 33.9991C128.714 32.9954 128.779 31.9711 128.854 30.953C128.934 29.8692 128.942 28.6462 129.411 27.6444C129.874 26.6561 131.244 25.9879 131.927 27.1538C132.393 27.9497 132.331 29.0105 132.28 29.8946C132.16 31.9596 131.432 34.219 129.444 35.1938C127.376 36.2076 125.243 34.8012 123.861 33.3041C122.436 31.7604 121.35 29.885 120.667 27.9007C119.985 25.9207 119.56 23.623 119.923 21.5354C120.273 19.5223 121.823 17.9796 123.93 17.9782C125.886 17.9767 127.54 19.615 127.72 21.5402C127.899 23.4487 126.576 25.0063 125.132 26.0676C123.521 27.2513 121.618 28.1854 119.759 28.903C117.657 29.7142 115.323 30.1553 113.11 29.5313C112.115 29.251 111.091 28.745 110.467 27.8906C109.749 26.9062 109.95 25.7906 110.664 24.8686C111.928 23.2366 114.033 22.1225 116.014 21.6626C119.989 20.7401 124.549 22.7186 125.793 26.79C126.377 28.6985 126.18 30.847 125.036 32.5116C123.958 34.0807 122.099 35.1492 120.184 35.1809C118.192 35.2135 116.377 34.097 115.132 32.6057C113.758 30.9617 113.097 28.8502 112.754 26.7679C112.419 24.7366 111.993 22.0385 113.428 20.3201C114.081 19.5372 115.072 19.0634 116.093 19.3332C117.05 19.5866 117.788 20.3681 118.309 21.175C120.349 24.3348 120.344 28.7825 119.161 32.239C118.044 35.4996 114.487 40.7782 110.416 38.5058C108.486 37.4287 107.61 35.2198 107.257 33.1428C106.927 31.2046 107.076 29.189 107.631 27.3065C108.18 25.4412 109.135 23.719 110.436 22.2737C110.695 21.9871 110.272 21.5618 110.013 21.8494Z" fill="#421B36"/>
<path d="M95.2812 157.885C95.2812 158.658 100.741 173.457 101.867 177.106C103.347 181.899 107.525 191.344 107.525 191.344C108.567 196.754 112.63 213.309 112.63 213.309L118.905 214.061L121.934 201.606C121.934 201.606 114.042 172.238 114.191 171.797C114.34 171.356 111.957 155.898 111.362 155.898C110.767 155.898 95.2812 157.885 95.2812 157.885Z" fill="#FFAE7A"/>
<path d="M111.295 208.455C111.295 208.455 107.109 192.76 107.557 191.98C108.005 191.2 119.163 190.716 121.969 193.13C121.969 193.13 121.823 208.348 120.801 209.873C119.78 211.399 111.295 208.455 111.295 208.455Z" fill="#938CCB"/>
<path d="M101.531 156.255C101.531 156.696 108.879 180.6 110.026 183.003C111.361 185.801 112.384 187.382 113.012 189.55C113.57 191.475 119.197 213.022 120.239 213.574C121.281 214.126 125.355 213.555 125.355 213.555C125.353 213.661 127.009 200.601 127.064 188.965C127.082 185.322 122.265 174.149 121.967 171.058C121.669 167.967 123.419 156.475 122.972 156.254C122.526 156.034 101.531 156.255 101.531 156.255Z" fill="#FFAE7A"/>
<path d="M89.1976 140.66C89.1976 140.66 88.1378 162.723 89.1976 163.715C90.2574 164.706 123.626 165.822 134.376 160.367L128.296 124.074L97.2698 117.66L89.1976 140.66Z" fill="#421B36"/>
<path d="M89.1965 139.48C89.1125 139.583 85.9373 144.205 85.9373 144.205C85.9373 144.205 82.5878 145.995 83.2666 148.322C83.9453 150.648 86.7519 150.29 86.7519 150.29C86.7519 150.29 88.2005 151.006 89.3775 150.935C90.5544 150.863 92.365 149.217 92.365 149.217C92.365 149.217 94.1755 147.606 93.6327 146.317C93.0893 145.029 91.5955 145.06 92.0031 144.024C92.4106 142.989 93.7344 141.843 93.7344 141.843L89.1965 139.48Z" fill="#FFAE7A"/>
<path d="M84.8052 137.258C84.8503 137.437 82.5871 150.538 84.4433 151.468C86.2989 152.398 87.0492 150.42 87.0492 150.42C87.0492 150.42 90.69 151.575 92.1837 151.325C93.6775 151.074 96.7553 149.678 96.3933 149.105C96.0314 148.532 94.8765 148.139 93.7337 148.64C92.5908 149.141 91.278 149.177 91.278 149.177C91.278 149.177 90.6434 138.581 90.3953 138.331C90.1466 138.081 84.8052 137.258 84.8052 137.258Z" fill="#FFAE7A"/>
<path d="M140.583 90.9744C139.356 86.6099 137.557 82.465 136.421 78.0695C135.288 73.6848 134.822 69.0749 133.291 64.8459C131.76 60.6168 128.828 56.6363 124.838 55.7891L111.03 63.8991C111.234 75.2171 110.647 86.5525 109.278 97.7674C108.736 102.204 108.118 106.974 109.942 110.955C111.357 114.045 114.116 116.186 117.091 117.125C120.067 118.064 123.245 117.9 126.277 117.23C132.71 115.808 139.182 111.485 141.195 104.468C142.444 100.111 141.81 95.3389 140.583 90.9744Z" fill="#421B36"/>
<path d="M114.423 86.8361C114.423 86.8361 114.771 86.3715 115.137 86.3662C117.237 86.3377 123.467 85.7776 125.792 86.3C128.522 86.9141 106.978 120.973 104.413 120.806C101.848 120.639 95.7266 119.634 95.7266 119.634C95.7266 119.634 110.535 87.5237 114.423 86.8361Z" fill="#594C8B"/>
<path d="M128.336 60.4011C124.019 53.2575 113.714 54.1384 108.874 60.9963C107.343 63.1654 106.593 64.7415 106.165 68.8285C104.971 80.2315 115.511 80.1167 115.511 80.1167L115.139 87.1034L124.175 86.3L125.141 78.8018C125.141 78.8018 129.802 71.1655 129.71 65.718C129.688 64.5061 128.968 61.4473 128.336 60.4011Z" fill="#FFAE7A"/>
<path d="M124.88 62.2782C124.223 61.7798 123.225 61.4717 122.402 61.2999C121.545 61.1207 120.754 61.2973 119.908 61.2368C119.515 61.2088 119.214 60.6749 119.657 60.4733C120.531 60.0767 121.713 60.2068 122.631 60.4365C123.733 60.7126 124.413 61.2456 125.22 61.9451C125.455 62.1484 125.125 62.464 124.88 62.2782Z" fill="#421B36"/>
<path d="M122.767 79.5699C120.428 80.9045 117.607 81.2402 114.922 80.7151C114.412 80.6156 114.614 79.9507 115.109 80.0103C117.728 80.3237 120.179 80.0954 122.737 79.5089C122.776 79.4997 122.803 79.5488 122.767 79.5699Z" fill="#421B36"/>
<path d="M111.743 60.0691C113.301 58.6985 115.804 59.3915 116.553 61.1341C117.504 63.3475 116.344 65.8746 114.598 67.4371C114.233 67.7641 113.527 67.3679 113.834 66.9362C114.663 65.7721 115.482 65.0187 115.788 63.5828C116.037 62.4161 115.929 60.6923 114.433 60.2588C113.745 60.0594 112.6 60.1449 111.938 60.3544C111.762 60.4109 111.607 60.1887 111.743 60.0691Z" fill="#421B36"/>
<g opacity="0.3">
<path d="M120.1 68.2847C120.253 68.8392 121.19 69.1008 122.192 68.8694C123.193 68.638 123.88 68.0007 123.727 67.4463C123.573 66.8918 122.637 66.6302 121.635 66.8616C120.633 67.093 119.946 67.7303 120.1 68.2847Z" fill="#421B36"/>
</g>
<g opacity="0.3">
<path d="M108.8 67.2874C108.63 67.8379 109.297 68.4918 110.291 68.7487C111.285 69.0055 112.23 68.7675 112.4 68.217C112.57 67.6665 111.903 67.0126 110.909 66.7558C109.915 66.4989 108.97 66.7369 108.8 67.2874Z" fill="#421B36"/>
</g>
<path d="M111.039 58.6076C111.039 58.6076 114.576 54.4895 120.724 54.5039C124.785 54.5131 127.626 55.0886 130.692 58.5467C133.758 62.0048 134.6 68.6501 133.559 71.2299C132.518 73.8097 125.138 78.8035 125.138 78.8035C127.31 75.235 130.038 70.6785 128.926 67.0158C128.828 66.8965 121.61 65.842 119.738 56.2141C119.448 54.7218 112.99 56.9351 111.039 58.6076Z" fill="#421B36"/>
<path d="M128.975 66.8755C129.823 66.6126 130.802 66.9001 131.442 67.4721C132.081 68.044 132.412 68.857 132.507 69.6696C132.666 71.0204 132.163 72.4712 131.019 73.3399C129.875 74.2085 128.072 74.3593 126.891 73.5331L128.975 66.8755Z" fill="#FFAE7A"/>
<path d="M130.33 70.8013C130.136 70.6343 129.601 70.4941 129.35 70.4577C128.888 70.3906 128.565 70.5725 128.207 70.8096C127.81 71.0739 127.407 70.5475 127.687 70.2333C128.085 69.7845 128.808 69.6087 129.414 69.7275C129.676 69.7788 129.942 69.8963 130.136 70.0676C130.38 70.2837 130.357 70.4612 130.457 70.7299C130.481 70.7965 130.385 70.8482 130.33 70.8013Z" fill="#421B36"/>
<path d="M121.915 65.6939C121.915 66.105 121.586 66.4385 121.18 66.4385C120.774 66.4385 120.445 66.1054 120.445 65.6939C120.445 65.2823 120.775 64.9492 121.18 64.9492C121.586 64.9497 121.915 65.2828 121.915 65.6939Z" fill="#421B36"/>
<path d="M113.896 65.3931C113.896 65.8042 113.566 66.1377 113.161 66.1377C112.755 66.1377 112.426 65.8046 112.426 65.3931C112.426 64.982 112.755 64.6484 113.161 64.6484C113.566 64.6484 113.896 64.982 113.896 65.3931Z" fill="#421B36"/>
<path d="M115.138 86.3691C114.767 86.2858 108.914 86.2696 105.254 87.9167C101.346 89.6755 83.6121 120.286 81.7569 126.21C79.9017 132.133 83.7355 135.971 83.7355 135.971C83.7355 135.971 82.7462 138.975 84.2304 139.642C85.7145 140.309 92.5161 138.724 92.5161 138.724C92.5161 138.724 96.4613 122.038 97.9517 118.284C99.4416 114.53 115.138 86.3691 115.138 86.3691Z" fill="#938CCB"/>
<path d="M124.305 85.7148C123.698 85.7394 117.888 90.8617 114.651 97.7577C112.602 102.124 103.967 118.082 102.399 125.019C100.83 131.956 102.995 138.163 105.486 140.292C107.976 142.421 128.89 145.805 133.247 140.292C137.604 134.778 136.764 133.014 135.703 129.84C134.642 126.665 131.872 117.997 133.414 113.051C134.956 108.105 124.416 85.7105 124.305 85.7148Z" fill="#938CCB"/>
<path d="M113.477 70.4567C114.168 70.589 114.861 70.5794 115.563 70.6504C115.72 70.6662 115.875 70.5597 115.954 70.4457C116.061 70.2906 116.034 70.1906 115.954 70.0289C115.89 69.9009 115.709 69.8238 115.563 69.8242C114.804 69.8277 114.102 69.8865 113.448 70.2533C113.364 70.3011 113.371 70.4365 113.477 70.4567Z" fill="#421B36"/>
<path d="M124.26 85.6557C124.26 85.6557 128.877 85.2459 131.845 87.2484C134.813 89.2505 135.184 97.6766 135.679 102.766C136.174 107.855 130.114 122.872 126.28 126.793C122.446 130.714 99.4442 144.897 95.9815 143.979C92.5188 143.061 86.874 141.292 87.594 139.632C88.314 137.972 97.8367 126.793 105.504 121.537C113.171 116.281 112.676 114.529 112.676 114.529C112.676 114.529 111.563 113.278 112.429 112.027C113.295 110.775 116.881 102.432 119.726 97.7603C122.57 93.0881 124.26 85.6557 124.26 85.6557Z" fill="#938CCB"/>
<path d="M135.373 102.767C135.529 104.487 135.113 106.258 134.693 107.925C134.11 110.238 133.334 112.511 132.465 114.746C131.562 117.064 130.551 119.352 129.381 121.569C128.512 123.217 127.579 124.924 126.301 126.346C125.475 127.263 124.44 128.029 123.437 128.776C121.903 129.922 120.313 131.005 118.706 132.064C114.846 134.611 110.872 137.026 106.792 139.269C105 140.254 103.184 141.208 101.317 142.072C100.021 142.672 98.678 143.285 97.2644 143.618C96.9058 143.703 96.4714 143.785 96.1335 143.733C95.5594 143.644 94.9714 143.422 94.418 143.26C93.7205 143.056 93.0269 142.84 92.341 142.605C91.0834 142.174 89.7601 141.7 88.6753 140.959C88.0844 140.557 87.6361 140.097 88.0033 139.48C88.8097 138.125 89.9271 136.888 90.9629 135.678C92.6674 133.688 94.4569 131.756 96.3125 129.882C98.3506 127.823 100.472 125.826 102.738 123.975C105.053 122.084 107.647 120.506 109.908 118.556C110.986 117.626 112.201 116.56 112.789 115.284C112.883 115.081 112.985 114.842 112.977 114.616C112.964 114.27 112.69 114.125 112.534 113.736C112.158 112.794 112.788 112.046 113.207 111.232C113.656 110.36 114.074 109.475 114.497 108.593C115.674 106.136 116.842 103.673 118.108 101.253C118.7 100.121 119.313 98.9973 119.979 97.8998C120.166 97.5912 119.648 97.3142 119.461 97.6232C116.808 102 114.94 106.708 112.561 111.202C112.125 112.026 111.606 112.728 111.893 113.694C111.96 113.921 112.176 114.615 112.453 114.717C112.264 114.648 112.468 114.525 112.378 114.61C112.338 114.648 112.378 114.683 112.346 114.789C112.306 114.926 112.251 115.057 112.185 115.185C111.918 115.703 111.526 116.171 111.124 116.607C109.224 118.666 106.804 120.231 104.51 121.892C102.125 123.619 99.9337 125.569 97.8356 127.579C95.7577 129.569 93.7709 131.64 91.8692 133.771C90.53 135.273 89.1999 136.798 88.0244 138.412C87.7489 138.789 87.3927 139.212 87.265 139.66C87.0505 140.413 87.7767 141.033 88.3733 141.432C89.4644 142.163 90.7666 142.641 92.0237 143.078C93.289 143.518 94.6306 144.005 95.9593 144.258C96.949 144.447 98.0909 143.988 98.9847 143.657C100.67 143.034 102.286 142.255 103.873 141.449C108.077 139.317 112.127 136.919 116.082 134.424C119.334 132.373 122.65 130.279 125.563 127.828C126.686 126.884 127.552 125.782 128.322 124.581C129.566 122.639 130.588 120.578 131.528 118.501C132.59 116.152 133.53 113.754 134.325 111.318C135 109.253 135.598 107.144 135.883 105.001C135.981 104.261 136.042 103.511 135.974 102.767C135.942 102.418 135.341 102.415 135.373 102.767Z" fill="#421B36"/>
<path d="M96.8789 122.222C95.3189 122.285 93.3245 122.327 92.3386 120.987C91.8476 120.32 91.9623 119.544 92.2066 118.818C92.4557 118.078 92.7745 117.352 93.0721 116.627C94.1189 114.075 95.2575 111.555 96.5367 109.093C98.9434 104.461 101.88 100.097 105.015 95.8507C105.289 95.479 105.565 95.1082 105.842 94.7383C106 94.5262 106.363 94.2075 106.37 93.9503C106.377 93.7377 106.2 93.4598 106.127 93.2679C105.876 92.6109 105.625 91.9543 105.374 91.2973C105.248 90.9664 104.668 91.1088 104.796 91.4428C105.03 92.0542 105.263 92.6656 105.497 93.2771C105.563 93.4497 105.799 93.8175 105.774 94.0024C105.796 93.8398 105.477 94.2146 105.567 94.1383C105.426 94.2579 105.313 94.4771 105.205 94.6226C104.949 94.9653 104.694 95.3085 104.44 95.6526C102.719 97.9856 101.049 100.351 99.5021 102.784C96.5103 107.493 94.0954 112.458 92.0535 117.569C91.5039 118.945 90.9039 120.473 92.1845 121.676C93.4095 122.827 95.245 122.836 96.8794 122.769C97.2634 122.754 97.2658 122.206 96.8789 122.222Z" fill="#421B36"/>
<path d="M93.7422 220.178C93.952 220.018 94.1598 219.895 94.5414 219.676C94.6878 219.758 99.1221 222.101 106.716 221.72C114.438 221.331 120.242 217.324 120.242 217.324C120.386 218.258 120.413 219.06 120.187 219.474C120.161 219.521 120.124 219.567 120.079 219.614C119.988 219.711 119.852 219.809 119.682 219.908C117.212 221.333 107.103 223.011 103.066 223.34C97.7445 223.774 95.1112 222.3 94.0979 221.224C93.5896 220.655 93.5258 220.343 93.7422 220.178Z" fill="#594C8B"/>
<path d="M96.3007 218.784L105.716 214.015C106.676 213.503 107.643 212.582 108.615 211.468C109.648 209.066 111.939 208.803 113.144 210.166C113.945 211.072 114.062 212.514 114.036 213.471C114.15 213.475 114.262 213.483 114.376 213.481C117.272 213.441 118.888 211.846 118.888 211.846C119.478 213.917 120.015 215.891 120.243 217.322C120.243 217.322 114.462 221.408 106.739 221.797C99.0161 222.187 94.543 219.674 94.543 219.674L96.3007 218.784Z" fill="#421B36"/>
<path d="M120.298 217.417C113.823 221.537 102.045 224.57 95.0485 219.892C94.7898 219.719 95.0283 219.323 95.3053 219.491C102.899 224.104 112.914 220.571 120.18 217.232C120.316 217.17 120.422 217.338 120.298 217.417Z" fill="#421B36"/>
<path d="M107.234 212.899C107.234 212.899 109.836 210.84 109.896 207.814C109.928 206.211 108.975 203.046 109.79 202.478C110.604 201.91 118.417 203.126 118.97 204.759C119.523 206.392 118.323 209.454 118.323 209.454L119.116 212.683L115.08 214.571L107.234 212.899Z" fill="#421B36"/>
<path d="M103.546 215.229C103.801 215.588 104.221 215.824 104.561 216.115C104.937 216.438 105.225 216.882 105.619 217.172C105.975 217.435 106.449 217.117 106.25 216.728C106.023 216.285 105.471 215.931 105.043 215.655C104.634 215.391 104.127 215.099 103.61 215.127C103.557 215.129 103.514 215.183 103.546 215.229Z" fill="white"/>
<path d="M106.924 213.292C107.092 213.635 107.604 213.868 107.902 214.115C108.264 214.414 108.545 214.803 108.94 215.062C109.28 215.285 109.727 214.917 109.624 214.582C109.466 214.066 108.919 213.657 108.435 213.388C108.047 213.173 107.422 212.896 106.977 213.106C106.9 213.142 106.892 213.228 106.924 213.292Z" fill="white"/>
<path d="M109.2 210.807C109.514 211.06 109.998 211.158 110.378 211.315C110.828 211.502 111.202 211.881 111.667 212.003C112.04 212.1 112.264 211.736 112.128 211.455C111.91 211.005 111.215 210.756 110.735 210.603C110.295 210.464 109.626 210.367 109.225 210.632C109.166 210.671 109.136 210.755 109.2 210.807Z" fill="white"/>
<path d="M110.029 207.693C110.838 207.747 111.645 207.978 112.437 208.122C113.033 208.23 113.267 207.469 112.688 207.29C111.776 207.006 110.876 207.084 109.959 207.221C109.65 207.267 109.752 207.674 110.029 207.693Z" fill="white"/>
<path d="M114.887 220.208C115.208 218.916 115.324 217.644 116.09 216.475C116.839 215.334 117.923 214.568 119.193 213.959C119.761 213.686 119.262 212.962 118.699 213.187C115.988 214.273 113.504 217.447 114.698 220.208C114.731 220.283 114.863 220.303 114.887 220.208Z" fill="#594C8B"/>
<path d="M99.8967 217.077C100.491 217.828 101.466 218.258 102.183 218.915C103.254 219.894 103.987 221.125 103.768 222.543C103.664 223.212 104.761 223.524 104.907 222.83C105.183 221.524 104.765 220.248 103.857 219.211C103.009 218.242 101.448 217.069 100.091 216.846C99.9601 216.824 99.8002 216.954 99.8967 217.077Z" fill="#594C8B"/>
<path d="M117.39 205.967C117.39 205.967 112.727 191.78 113.175 191C113.623 190.221 124.594 188.661 127.4 191.075C127.4 191.075 127.28 205.915 126.258 207.44C125.236 208.966 117.39 205.967 117.39 205.967Z" fill="#938CCB"/>
<path d="M101.641 221.401C101.85 221.241 102.058 221.117 102.44 220.899C102.586 220.98 107.02 223.324 114.614 222.942C122.337 222.554 128.14 218.547 128.14 218.547C128.284 219.481 128.312 220.283 128.086 220.696C128.06 220.744 128.023 220.79 127.978 220.837C127.886 220.934 127.751 221.032 127.58 221.131C125.111 222.555 115.001 224.233 110.965 224.562C105.643 224.997 103.01 223.523 101.996 222.447C101.488 221.877 101.424 221.565 101.641 221.401Z" fill="#594C8B"/>
<path d="M104.196 220.006L113.611 215.238C114.571 214.725 115.538 213.805 116.51 212.69C117.543 210.289 119.834 210.026 121.039 211.389C121.84 212.294 121.957 213.736 121.931 214.694C122.045 214.698 122.157 214.705 122.271 214.704C125.167 214.664 126.783 213.069 126.783 213.069C127.373 215.14 127.91 217.115 128.138 218.545C128.138 218.545 122.357 222.631 114.633 223.02C106.911 223.41 102.438 220.897 102.438 220.897L104.196 220.006Z" fill="#421B36"/>
<path d="M128.2 218.64C121.726 222.76 109.947 225.793 102.951 221.115C102.692 220.942 102.931 220.546 103.208 220.714C110.801 225.327 120.816 221.794 128.082 218.455C128.218 218.392 128.324 218.561 128.2 218.64Z" fill="#421B36"/>
<path d="M115.133 214.123C115.133 214.123 117.735 212.064 117.794 209.038C117.826 207.435 116.044 204.121 116.858 203.553C117.673 202.985 126.316 204.351 126.869 205.983C127.422 207.616 126.221 210.679 126.221 210.679L127.015 213.907L122.978 215.795L115.133 214.123Z" fill="#421B36"/>
<path d="M111.445 216.452C111.7 216.811 112.12 217.047 112.46 217.338C112.836 217.66 113.123 218.104 113.518 218.395C113.875 218.657 114.348 218.339 114.149 217.951C113.923 217.508 113.371 217.154 112.942 216.878C112.534 216.614 112.026 216.322 111.509 216.349C111.455 216.353 111.412 216.406 111.445 216.452Z" fill="white"/>
<path d="M114.822 214.515C114.99 214.857 115.502 215.091 115.8 215.337C116.162 215.637 116.443 216.025 116.838 216.285C117.179 216.508 117.625 216.14 117.522 215.804C117.364 215.289 116.818 214.88 116.333 214.611C115.945 214.395 115.32 214.119 114.875 214.329C114.799 214.365 114.791 214.451 114.822 214.515Z" fill="white"/>
<path d="M117.098 212.029C117.413 212.282 117.897 212.381 118.277 212.538C118.727 212.724 119.101 213.104 119.566 213.225C119.939 213.323 120.163 212.959 120.027 212.677C119.809 212.228 119.114 211.978 118.633 211.826C118.194 211.686 117.525 211.59 117.123 211.855C117.064 211.894 117.035 211.978 117.098 212.029Z" fill="white"/>
<path d="M117.928 208.915C118.736 208.97 119.543 209.201 120.335 209.344C120.931 209.453 121.165 208.692 120.586 208.512C119.674 208.229 118.774 208.307 117.858 208.443C117.548 208.489 117.651 208.896 117.928 208.915Z" fill="white"/>
<path d="M122.785 221.431C123.107 220.139 123.222 218.867 123.989 217.698C124.738 216.556 125.821 215.791 127.091 215.182C127.66 214.909 127.16 214.185 126.597 214.41C123.887 215.496 121.402 218.669 122.597 221.431C122.629 221.506 122.762 221.526 122.785 221.431Z" fill="#594C8B"/>
<path d="M107.795 218.3C108.39 219.051 109.365 219.481 110.082 220.138C111.152 221.118 111.886 222.348 111.667 223.766C111.563 224.435 112.659 224.747 112.806 224.053C113.082 222.747 112.664 221.471 111.755 220.433C110.907 219.464 109.346 218.292 107.99 218.069C107.859 218.047 107.698 218.177 107.795 218.3Z" fill="#594C8B"/>
<path d="M116.257 204.457C115.143 199.443 114.028 194.428 112.913 189.414C112.719 188.539 112.244 187.694 111.896 186.863C111.281 185.391 110.672 183.916 110.105 182.428C109.395 180.563 108.815 178.655 108.206 176.76C107.371 174.161 106.543 171.56 105.716 168.959C105.203 167.342 104.689 165.724 104.178 164.107C104.071 163.769 103.492 163.912 103.599 164.252C104.839 168.17 106.082 172.087 107.337 176C107.939 177.88 108.514 179.772 109.178 181.634C110.081 184.168 111.258 186.608 112.212 189.122C112.545 189.999 112.653 190.996 112.856 191.907C113.164 193.294 113.472 194.681 113.78 196.068C114.413 198.913 115.045 201.758 115.678 204.603C115.756 204.948 116.334 204.802 116.257 204.457Z" fill="#421B36"/>
<path d="M121.514 95.2778C124.939 93.0934 128.181 91.7523 132.409 91.555C132.864 91.5336 132.866 90.927 132.409 90.9077C128.346 90.7372 123.973 92.2287 121.452 95.2051C121.421 95.2428 121.462 95.3112 121.514 95.2778Z" fill="#421B36"/>
<path d="M112.278 114.251C113.739 115.763 115.025 117.212 116.083 118.995C116.253 119.282 116.816 119.082 116.675 118.767C115.85 116.91 114.372 115.07 112.483 114.008C112.313 113.913 112.155 114.123 112.278 114.251Z" fill="#421B36"/>
<path d="M83.2823 136.027C84.887 136.624 86.7786 136.924 88.4903 137.155C88.9324 137.214 89.1398 136.626 88.6804 136.525C86.9812 136.147 85.0742 135.768 83.3198 135.773C83.1494 135.773 83.1412 135.975 83.2823 136.027Z" fill="#421B36"/>
<path d="M89.4382 137.161C92.1358 139.518 95.6244 141.347 98.9057 142.94C99.3228 143.142 99.691 142.573 99.2772 142.359C95.982 140.662 92.91 138.634 89.6307 136.933C89.4761 136.853 89.3057 137.045 89.4382 137.161Z" fill="#421B36"/>
<path opacity="0.2" d="M99.5781 170.435L99.845 171.189C100.149 171.161 100.371 170.934 100.257 170.461C100.007 170.28 99.7836 170.318 99.5781 170.435Z" fill="#421B36"/>
<path opacity="0.2" d="M99.8499 164.969C99.6521 165.056 99.4476 165.145 99.2148 165.248C99.2465 165.521 99.2729 165.742 99.2993 165.961C99.5499 166.006 99.7716 166.045 100.003 166.086C100.576 165.798 100.345 165.188 99.8499 164.969Z" fill="#421B36"/>
<path opacity="0.2" d="M101.099 168.918C101.099 168.953 101.099 168.988 101.099 169.023C100.428 169.049 100.573 169.804 101.099 169.97C101.099 169.935 101.099 169.9 101.099 169.865C101.203 169.9 101.307 169.934 101.427 169.974C102.052 169.639 101.751 168.964 101.099 168.918Z" fill="#421B36"/>
<path opacity="0.2" d="M101.099 171.655C101.013 171.637 100.927 171.619 100.859 171.606C100.83 171.635 100.805 171.67 100.781 171.706C100.882 171.707 100.986 171.708 101.099 171.709C101.279 171.71 101.474 171.711 101.678 171.711C101.654 171.676 101.631 171.641 101.611 171.605C101.423 171.624 101.261 171.64 101.099 171.655Z" fill="#421B36"/>
<path opacity="0.2" d="M97.8766 164.071C97.7628 164.246 97.8665 164.526 98.011 164.721C98.2049 164.959 98.5716 164.743 98.8471 164.746C99.0843 164.395 99.0555 164.134 98.8644 163.996L97.8766 164.071Z" fill="#421B36"/>
<path opacity="0.2" d="M98.1641 166.444L98.333 166.921L98.4569 167.271C98.55 167.198 98.6081 167.082 98.5625 166.921C98.6777 166.921 98.7929 166.921 98.9085 166.921C98.9345 166.373 98.5111 166.271 98.1641 166.444Z" fill="#421B36"/>
<path opacity="0.2" d="M100.229 168.147C100.167 167.702 99.6214 167.645 99.2734 167.873C99.1356 168.771 99.7568 168.862 100.229 168.147Z" fill="#421B36"/>
<path opacity="0.2" d="M101.097 166.499C100.844 166.6 100.455 166.615 100.406 166.92C100.508 167.265 100.74 167.374 101.097 167.446C101.097 167.481 101.097 167.516 101.097 167.551C101.516 167.637 101.588 167.182 101.673 166.92C101.711 166.92 101.75 166.92 101.788 166.92C101.78 166.759 101.859 166.583 101.709 166.461C101.49 166.475 101.293 166.487 101.097 166.499Z" fill="#421B36"/>
<path opacity="0.2" d="M104.438 166.923C104.421 166.49 104.421 166.49 103.891 166.383C103.624 166.511 103.166 166.602 103.401 166.923C103.468 167.498 104.445 167.502 104.438 166.923Z" fill="#421B36"/>
<path opacity="0.2" d="M104.139 170.002C104.347 169.964 104.422 169.912 104.381 169.689C104.811 168.973 103.999 168.959 103.439 169.226C103.287 169.642 103.689 170.013 104.139 170.002Z" fill="#421B36"/>
<path opacity="0.2" d="M103.994 163.816C103.742 163.914 103.515 163.998 103.43 164.228C103.537 164.402 103.636 164.562 103.752 164.749C104.742 164.619 104.951 164.286 103.994 163.816Z" fill="#421B36"/>
<path opacity="0.2" d="M103.52 171.704C103.879 171.702 104.23 171.699 104.555 171.697C104.437 171.608 104.321 171.521 104.204 171.434C103.849 171.438 103.631 171.55 103.52 171.704Z" fill="#421B36"/>
<path opacity="0.2" d="M105.223 170.213C104.056 170.755 105.414 171.883 106.066 170.776C105.754 170.473 105.826 169.898 105.223 170.213Z" fill="#421B36"/>
<path opacity="0.2" d="M101.094 164.711C101.988 164.714 101.989 163.997 101.299 163.809L101.094 163.824L100.43 163.875C100.565 164.259 100.415 164.896 101.094 164.711Z" fill="#421B36"/>
<path opacity="0.2" d="M102.078 168.221C102.707 168.927 102.966 168.75 103.143 167.928C102.671 167.714 102.212 167.675 102.078 168.221Z" fill="#421B36"/>
<path opacity="0.2" d="M102.564 165.09C102.085 165.32 102.096 165.576 102.324 165.98C102.537 165.98 102.739 165.98 102.976 165.98C102.955 165.699 103.31 165.506 103.117 165.201C102.929 165.163 102.748 165.127 102.564 165.09Z" fill="#421B36"/>
<path opacity="0.2" d="M102.167 170.385C102.141 170.761 102.039 171.141 102.528 171.336C103.572 171.135 103.117 169.715 102.167 170.385Z" fill="#421B36"/>
<path opacity="0.2" d="M119.74 163.299C119.63 163.06 119.539 162.86 119.448 162.664C118.943 162.559 118.967 163.001 118.742 163.169C119.058 163.648 119.31 163.69 119.74 163.299Z" fill="#421B36"/>
<path opacity="0.2" d="M116.326 165.729C116.396 165.878 116.353 166.063 116.585 166.105C116.736 165.999 116.865 165.907 116.997 165.814C116.858 165.438 116.484 165.311 116.232 165.078C115.719 165.363 116.101 165.51 116.326 165.729Z" fill="#421B36"/>
<path opacity="0.2" d="M113.945 163.544C114.02 163.346 114.162 163.161 114.316 163.006C114.266 162.942 114.213 162.884 114.156 162.832L113.196 162.905C113.044 163.289 113.337 163.679 113.945 163.544Z" fill="#421B36"/>
<path opacity="0.2" d="M111.809 166.921C111.886 166.921 111.963 166.921 112.039 166.921C112.021 167.188 111.751 167.413 112.22 167.507C112.298 167.325 112.473 167.239 112.665 167.214C112.693 167.091 112.712 167.006 112.731 166.921C112.807 166.921 112.884 166.921 112.961 166.921C112.865 166.534 111.462 166.34 111.809 166.921Z" fill="#421B36"/>
<path opacity="0.2" d="M114.236 165.767C114.201 164.68 113.02 164.758 113.106 165.799C113.273 166.204 114.092 166.199 114.236 165.767Z" fill="#421B36"/>
<path opacity="0.2" d="M115.63 164.566C115.41 164.272 115.346 163.915 114.854 163.824C114.751 164.132 114.777 164.46 114.703 164.787C115.076 164.911 115.353 164.828 115.63 164.566Z" fill="#421B36"/>
<path opacity="0.2" d="M107.201 166.92C107.239 166.92 107.278 166.92 107.316 166.92C107.375 166.233 106.013 166.135 106.164 166.92C106.138 167.608 107.485 167.893 107.201 166.92Z" fill="#421B36"/>
<path opacity="0.2" d="M118.115 163.834C117.438 163.655 117.197 164.235 117.512 164.702C118.162 165.24 118.341 164.27 118.115 163.834Z" fill="#421B36"/>
<path opacity="0.2" d="M116.359 168.701C116.936 168.457 116.961 168.402 116.746 167.848C116.09 167.741 116.051 167.761 115.859 168.319C115.952 168.525 116.136 168.634 116.359 168.701Z" fill="#421B36"/>
<path opacity="0.2" d="M110.599 168.728C111.42 169.144 111.666 168.23 111.204 167.72C110.579 167.695 109.956 168.277 110.599 168.728Z" fill="#421B36"/>
<path opacity="0.2" d="M107.281 164.514C107.273 163.789 105.956 163.651 106.261 164.547C106.539 164.971 106.904 164.906 107.281 164.514Z" fill="#421B36"/>
<path opacity="0.2" d="M108.687 163.246L107.738 163.318C107.729 163.36 107.725 163.399 107.715 163.441C108.09 163.502 108.425 163.529 108.687 163.246Z" fill="#421B36"/>
<path opacity="0.2" d="M105.734 166.049C105.787 165.996 105.849 165.934 105.938 165.845C105.88 164.77 104.453 164.797 104.942 165.829C105.238 165.906 105.453 166.07 105.734 166.049Z" fill="#421B36"/>
<path opacity="0.2" d="M112.167 164.852C112.37 164.693 112.549 164.552 112.743 164.4C112.734 164.22 112.725 164.032 112.716 163.849C112.553 163.802 112.427 163.765 112.308 163.73C111.641 163.947 111.507 164.537 112.167 164.852Z" fill="#421B36"/>
<path opacity="0.2" d="M111.211 166.086C111.71 165.979 111.329 165.382 111.2 165.105C110.845 164.663 110.607 165.36 110.378 165.558C110.101 166.032 110.833 166.029 111.211 166.086Z" fill="#421B36"/>
<path opacity="0.2" d="M111.435 171.1C111.559 170.695 111.42 170.416 111.008 170.23C110.834 170.336 110.662 170.44 110.476 170.551C110.356 171.332 110.813 171.447 111.435 171.1Z" fill="#421B36"/>
<path opacity="0.2" d="M111.384 163.043L110.461 163.113C110.576 163.293 110.689 163.469 110.822 163.676C111.155 163.654 111.352 163.332 111.384 163.043Z" fill="#421B36"/>
<path opacity="0.2" d="M105.214 167.737C105.117 167.902 105.019 168.068 104.891 168.285C104.96 168.702 105.622 168.955 105.762 168.485C105.748 168.138 105.828 167.6 105.214 167.737Z" fill="#421B36"/>
<path opacity="0.2" d="M108.203 166.197C108.412 166.093 108.608 165.994 108.803 165.897C108.803 165.693 108.803 165.523 108.803 165.335C108.532 165.188 108.306 165.068 108.093 164.953C107.566 165.239 107.557 165.254 107.588 165.718C107.793 165.877 107.992 166.033 108.203 166.197Z" fill="#421B36"/>
<path opacity="0.2" d="M117.273 166.627C117.297 166.727 117.32 166.824 117.343 166.922C117.155 167.627 118.568 167.468 118.494 166.922C118.417 166.922 118.34 166.922 118.264 166.922C118.65 166.193 117.627 166.271 117.273 166.627Z" fill="#421B36"/>
<path opacity="0.2" d="M117.934 169.773C118.033 169.837 118.101 169.881 118.168 169.924C118.808 168.529 116.413 168.808 117.587 169.972C117.718 169.948 117.805 169.844 117.934 169.773Z" fill="#421B36"/>
<path opacity="0.2" d="M118.814 171.092C119.135 171.229 119.378 171.091 119.629 170.997C119.657 170.791 119.682 170.607 119.707 170.422C118.893 169.784 118.797 170.368 118.814 171.092Z" fill="#421B36"/>
<path opacity="0.2" d="M118.641 168.005C118.711 168.695 119.685 168.908 119.751 168.099C119.628 167.628 118.83 167.525 118.641 168.005Z" fill="#421B36"/>
<path opacity="0.2" d="M115.903 170.293C115.641 171.261 117.31 171.6 116.965 170.455C116.617 170.375 116.217 170.056 115.903 170.293Z" fill="#421B36"/>
<path opacity="0.2" d="M119.183 165.176C119.018 165.314 118.764 165.371 118.617 165.593C118.903 166.208 119.49 165.999 119.75 165.498C119.564 165.283 119.564 165.283 119.183 165.176Z" fill="#421B36"/>
<path opacity="0.2" d="M116.649 162.645L116.27 162.673C115.775 163.089 115.798 163.362 116.328 163.668C116.903 163.35 116.903 163.35 117.099 163.022C116.976 162.875 116.84 162.738 116.649 162.645Z" fill="#421B36"/>
<path opacity="0.2" d="M117.141 172.022C117.3 172.818 118.517 172.542 118.472 171.859C118.217 171.305 117.288 171.394 117.141 172.022Z" fill="#421B36"/>
<path opacity="0.2" d="M120.024 169.163C119.976 169.489 119.987 169.617 120.353 169.691C120.955 170.045 121.069 169.763 121.007 169.216C120.515 168.876 120.478 168.874 120.024 169.163Z" fill="#421B36"/>
<path opacity="0.2" d="M122.149 166.067C122.163 166.057 122.175 166.049 122.188 166.039C122.212 165.727 122.235 165.421 122.259 165.124C121.436 164.8 121.1 166.156 122.149 166.067Z" fill="#421B36"/>
<path opacity="0.2" d="M121.644 167.742C121.126 168.032 121.479 168.667 122.017 168.72C122.034 168.395 122.053 168.056 122.075 167.711C121.962 167.68 121.82 167.683 121.644 167.742Z" fill="#421B36"/>
<path opacity="0.2" d="M121.234 163.07C121.673 163.359 121.928 163.814 122.41 163.295C122.583 162.379 121.67 162.392 121.234 163.07Z" fill="#421B36"/>
<path opacity="0.2" d="M121.956 170.239C121.747 170.195 121.53 170.261 121.399 170.523C121.305 170.908 121.632 171.172 121.973 171.174C121.97 171.135 121.968 171.1 121.965 171.058C121.953 170.841 121.952 170.561 121.956 170.239Z" fill="#421B36"/>
<path opacity="0.2" d="M120.861 166.476C120.65 166.097 120.033 166.569 120.107 166.923C120.069 166.923 120.03 166.923 119.992 166.923C120.061 167.145 120.141 167.325 120.335 167.489C120.624 167.344 120.882 167.214 121.144 167.082C121.144 167.025 121.144 166.974 121.144 166.923C121.106 166.923 121.067 166.923 121.029 166.923C121.055 166.752 120.726 166.699 120.861 166.476Z" fill="#421B36"/>
<path opacity="0.2" d="M120.417 163.946C120.136 164.413 119.95 164.72 120.709 164.829C120.866 164.614 121.009 164.418 121.149 164.226C120.979 163.933 120.747 163.846 120.417 163.946Z" fill="#421B36"/>
<path opacity="0.2" d="M115.844 173.034C115.862 173.045 115.877 173.057 115.892 173.07C116.195 173.03 116.494 172.99 116.789 172.95C116.687 172.852 116.545 172.744 116.37 172.617C116.197 172.755 116.031 172.886 115.844 173.034Z" fill="#421B36"/>
<path opacity="0.2" d="M120.28 171.627C119.939 172.485 121.354 172.488 120.944 171.613C120.68 171.669 120.558 171.656 120.28 171.627Z" fill="#421B36"/>
<path opacity="0.2" d="M109.526 168.82C109.238 169.061 109.062 169.206 108.844 169.446C109.227 170.467 110.9 169.582 109.526 168.82Z" fill="#421B36"/>
<path opacity="0.2" d="M109.633 171.477C109.257 171.546 109.012 171.697 109.008 172.155C109.708 173.023 110.635 171.982 109.633 171.477Z" fill="#421B36"/>
<path opacity="0.2" d="M115.609 166.92C115.899 166.098 114.357 166.207 114.458 166.92C114.496 166.92 114.535 166.92 114.573 166.92C114.641 167.407 115.087 167.554 115.537 167.665C115.782 167.437 115.736 167.175 115.725 166.92C115.686 166.92 115.648 166.92 115.609 166.92Z" fill="#421B36"/>
<path opacity="0.2" d="M108.034 167.648C107.179 168.329 107.717 168.615 108.566 168.77C108.667 168.444 108.989 168.19 108.679 167.928C108.496 167.796 108.295 167.464 108.034 167.648Z" fill="#421B36"/>
<path opacity="0.2" d="M109.004 164.284C109.028 164.374 109.056 164.474 109.08 164.562C109.496 164.92 110.129 164.614 110.217 164.152C110.019 164.026 109.839 163.911 109.696 163.82C109.336 163.871 109.114 164.006 109.004 164.284Z" fill="#421B36"/>
<path opacity="0.2" d="M109.542 166.242C109.096 166.304 109.054 166.607 108.932 166.92C108.893 166.92 108.855 166.92 108.816 166.92C108.85 167.525 110.046 167.593 110.084 166.92C110.122 166.92 110.161 166.92 110.199 166.92C110.236 166.467 109.859 166.37 109.542 166.242Z" fill="#421B36"/>
<path opacity="0.2" d="M107.488 170.792C107.963 171.739 109.328 170.882 108.429 170.177C107.918 169.938 107.807 170.591 107.488 170.792Z" fill="#421B36"/>
<path opacity="0.2" d="M106.214 169.736C106.683 170.128 106.808 170.028 107.254 169.779C107.866 169.144 106.125 168.267 106.214 169.736Z" fill="#421B36"/>
<path opacity="0.2" d="M107.93 172.757C107.32 173.01 107.541 173.969 108.299 173.873C108.694 173.397 108.898 172.571 107.93 172.757Z" fill="#421B36"/>
<path opacity="0.2" d="M106.469 171.62C106.081 172.174 106.413 172.68 107.115 172.506C107.361 172.32 107.273 172.141 107.221 171.956C107.164 171.509 106.852 171.562 106.469 171.62Z" fill="#421B36"/>
<path opacity="0.2" d="M113.686 170.215C113.077 170.413 112.774 171.084 113.551 171.216C114.331 171.357 114.439 170.385 113.686 170.215Z" fill="#421B36"/>
<path opacity="0.2" d="M110.476 172.981C110.534 173.042 110.592 173.103 110.666 173.181C110.516 173.246 110.405 173.295 110.305 173.34C110.374 173.551 110.49 173.668 110.63 173.721C110.817 173.7 111.009 173.679 111.205 173.657C111.302 173.613 111.399 173.559 111.492 173.494C111.451 172.985 110.868 172.397 110.476 172.981Z" fill="#421B36"/>
<path opacity="0.2" d="M114.883 171.504C114.776 171.592 114.664 171.684 114.534 171.791C114.386 172.694 115.85 172.556 115.593 171.762C115.35 171.674 115.127 171.593 114.883 171.504Z" fill="#421B36"/>
<path opacity="0.2" d="M115.577 169.484C115.244 169.312 115.009 169.071 114.623 169.087C114.582 169.234 114.551 169.348 114.523 169.445C114.675 169.627 114.809 169.787 114.967 169.979C115.11 169.616 115.553 169.919 115.577 169.484Z" fill="#421B36"/>
<path opacity="0.2" d="M113.269 173.411C113.621 173.367 113.976 173.322 114.334 173.276C113.74 172.169 112.881 172.879 113.269 173.411Z" fill="#421B36"/>
<path opacity="0.2" d="M112.958 169.327C112.804 169.176 112.689 169.013 112.429 168.941C112.171 169.26 111.991 169.374 111.559 169.467C112.07 170.098 112.744 170.149 112.958 169.327Z" fill="#421B36"/>
<path opacity="0.2" d="M114.216 168.226C113.904 167.618 112.836 167.685 113.14 168.481C113.53 168.581 113.924 168.775 114.216 168.226Z" fill="#421B36"/>
<path opacity="0.2" d="M112.393 171.395C112.053 171.55 111.798 171.746 111.613 172.148C112.243 172.707 112.388 172.462 112.99 172.003C112.755 171.796 112.715 171.474 112.393 171.395Z" fill="#421B36"/>
</svg>
