<svg width="245" height="245" viewBox="0 0 245 245" fill="none" xmlns="http://www.w3.org/2000/svg">
<g clip-path="url(#clip0_2327_12330)">
<path d="M134.94 190.49L81.4722 172.141L13.5352 185.358L69.3158 205.063L134.94 190.49Z" fill="#AEABDA"/>
<path d="M134.939 190.491L81.4537 172.194C81.5997 172.181 13.5231 185.484 13.5574 185.48L13.5745 185.245L69.3365 205.003C69.1645 205.051 134.973 190.465 134.939 190.491ZM134.939 190.491C134.938 190.496 69.315 205.128 69.311 205.133C69.3003 205.141 13.5074 185.471 13.4937 185.475L13.0703 185.326L13.5108 185.24C13.5108 185.237 81.4724 172.089 81.4753 172.086C81.4959 172.084 134.919 190.491 134.939 190.491Z" fill="#AEABDA"/>
<path d="M71.4403 199.95C68.152 198.54 64.7631 197.226 61.3586 195.927C57.9644 194.618 54.4981 193.378 51.0318 192.139C47.5435 190.92 44.0528 189.703 40.4915 188.554L35.146 186.834C33.3306 186.293 31.5465 185.722 29.7031 185.207C31.3378 185.921 33.0322 186.578 34.6948 187.266L39.7834 189.231C43.1781 190.54 46.6439 191.78 50.1116 193.019C53.6014 194.236 57.0912 195.453 60.6535 196.602C64.2055 197.759 67.7722 198.903 71.4403 199.95Z" fill="#E2E2F2"/>
<path d="M62.6057 192.496C58.8263 190.687 54.7682 189.145 50.6419 187.668C46.4877 186.217 42.2634 184.834 37.7578 183.719C41.5347 185.53 45.5934 187.072 49.7217 188.548C53.8783 189.996 58.1026 191.379 62.6057 192.496Z" fill="#E2E2F2"/>
<path d="M87.5497 196.97C84.2613 195.56 80.872 194.246 77.468 192.947C74.0737 191.638 70.6075 190.398 67.1412 189.159C63.6524 187.939 60.1626 186.723 56.6008 185.574L51.2554 183.853C49.44 183.312 47.6559 182.741 45.8125 182.227C47.4471 182.94 49.1411 183.598 50.8036 184.285L55.8928 186.251C59.2875 187.559 62.7533 188.799 66.221 190.038C69.7108 191.256 73.2006 192.473 76.7629 193.622C80.3149 194.779 83.8816 195.923 87.5497 196.97Z" fill="#E2E2F2"/>
<path d="M89.6083 193.36C84.0135 190.91 78.1398 188.726 72.1976 186.608C66.2279 184.515 60.1882 182.491 53.8672 180.734C59.4596 183.187 65.3337 185.37 71.2774 187.487C77.2495 189.577 83.2897 191.602 89.6083 193.36Z" fill="#E2E2F2"/>
<path d="M82.6185 186.553C79.532 184.987 76.1642 183.691 72.7303 182.458C69.267 181.252 65.736 180.111 61.9219 179.242C65.0064 180.81 68.3742 182.106 71.8106 183.338C75.2754 184.541 78.8063 185.682 82.6185 186.553Z" fill="#E2E2F2"/>
<path d="M233.431 198.907L159.235 179.301L87.6445 208.504L161.465 228.809L233.431 198.907Z" fill="#EBEBEB"/>
<path d="M233.43 198.908C233.432 198.908 159.098 179.344 159.257 179.358L87.69 208.619L87.6762 208.388C87.6645 208.389 161.615 228.768 161.441 228.753L233.43 198.908ZM233.43 198.908C233.423 198.915 161.478 228.868 161.469 228.875C161.461 228.888 87.6243 208.616 87.6121 208.623L87.2656 208.528L87.5983 208.393C87.6037 208.386 159.223 179.245 159.231 179.238C159.258 179.225 233.404 198.916 233.43 198.908Z" fill="#AEABDA"/>
<path d="M162.508 222.863C157.675 221.299 152.778 219.842 147.872 218.402C142.971 216.95 138.025 215.575 133.078 214.2C128.118 212.848 123.156 211.499 118.15 210.224L110.637 208.316C108.111 207.716 105.606 207.083 103.062 206.512C105.473 207.304 107.921 208.032 110.35 208.795L117.698 210.974C122.599 212.425 127.545 213.8 132.492 215.174C137.454 216.524 142.415 217.874 147.422 219.147C152.423 220.433 157.434 221.701 162.508 222.863Z" fill="#AEABDA"/>
<path d="M143.491 212.464C138.202 210.562 132.736 208.956 127.226 207.422C121.698 205.918 116.127 204.487 110.375 203.355C115.663 205.26 121.129 206.865 126.64 208.397C132.169 209.9 137.742 211.33 143.491 212.464Z" fill="#AEABDA"/>
<path d="M169.82 214.538C165.596 213.142 161.309 211.853 157.011 210.58C152.721 209.296 148.384 208.088 144.047 206.881C139.695 205.697 135.344 204.515 130.946 203.409L124.348 201.753C122.127 201.236 119.926 200.686 117.688 200.199C119.793 200.907 121.937 201.552 124.06 202.231L130.495 204.159C134.786 205.443 139.123 206.651 143.461 207.856C147.812 209.039 152.164 210.221 156.562 211.327C160.953 212.444 165.354 213.545 169.82 214.538Z" fill="#AEABDA"/>
<path d="M173.272 210.321C169.37 209.013 165.404 207.813 161.429 206.628C157.46 205.432 153.444 204.313 149.429 203.194C145.4 202.099 141.369 201.006 137.293 199.987L131.177 198.463C129.117 197.992 127.078 197.486 125 197.043C126.945 197.707 128.928 198.308 130.89 198.942L136.842 200.738C140.812 201.932 144.827 203.052 148.843 204.169C152.873 205.263 156.903 206.357 160.98 207.374C165.05 208.404 169.128 209.415 173.272 210.321Z" fill="#AEABDA"/>
<path d="M191.758 210.237C186.925 208.673 182.028 207.217 177.122 205.776C172.221 204.324 167.275 202.949 162.328 201.574C157.368 200.223 152.406 198.873 147.4 197.599L139.887 195.691C137.361 195.091 134.856 194.457 132.312 193.887C134.723 194.679 137.171 195.408 139.599 196.17L146.948 198.35C151.849 199.801 156.795 201.176 161.742 202.549C166.703 203.9 171.665 205.25 176.672 206.523C181.673 207.808 186.683 209.076 191.758 210.237Z" fill="#AEABDA"/>
<path d="M192.37 205.242C188.095 203.832 183.756 202.528 179.408 201.241C175.066 199.943 170.679 198.722 166.29 197.501C161.889 196.303 157.485 195.107 153.037 193.986L146.362 192.309C144.115 191.785 141.889 191.228 139.625 190.734C141.756 191.449 143.926 192.101 146.074 192.787L152.586 194.737C156.928 196.034 161.316 197.256 165.705 198.476C170.107 199.673 174.511 200.869 178.96 201.989C183.401 203.12 187.853 204.234 192.37 205.242Z" fill="#AEABDA"/>
<path d="M206.383 203.928C201.55 202.365 196.653 200.908 191.746 199.467C186.846 198.016 181.899 196.641 176.953 195.266C171.993 193.914 167.031 192.565 162.025 191.29L154.512 189.383C151.986 188.783 149.481 188.148 146.938 187.578C149.348 188.37 151.796 189.099 154.224 189.861L161.574 192.041C166.474 193.492 171.42 194.867 176.367 196.241C181.329 197.591 186.29 198.941 191.297 200.215C196.298 201.499 201.308 202.767 206.383 203.928Z" fill="#AEABDA"/>
<path d="M189.384 194.085C183.759 192.091 177.956 190.393 172.11 188.766C166.246 187.169 160.338 185.646 154.25 184.422C159.874 186.419 165.677 188.117 171.524 189.741C177.389 191.336 183.298 192.858 189.384 194.085Z" fill="#AEABDA"/>
<path d="M165.518 126.273H22.4062V145.014H165.518V126.273Z" fill="#E2E2F2"/>
<path d="M50.8047 126.273H37.4453V145.014H50.8047V126.273Z" fill="#AEABDA"/>
<path d="M72.8792 126.273H67.9219V145.014H72.8792V126.273Z" fill="#AEABDA"/>
<path d="M149.57 126.273H136.211V145.014H149.57V126.273Z" fill="#AEABDA"/>
<path d="M222.591 152.282L160.23 21.9844L143.327 30.0747L205.687 160.373L222.591 152.282Z" fill="#E2E2F2"/>
<path d="M172.603 47.8391L166.781 35.6758L149.877 43.7661L155.699 55.9294L172.603 47.8391Z" fill="#AEABDA"/>
<path d="M182.227 67.9393L180.066 63.4258L163.162 71.5161L165.323 76.0296L182.227 67.9393Z" fill="#AEABDA"/>
<path d="M215.645 137.764L209.824 125.602L192.92 133.692L198.741 145.855L215.645 137.764Z" fill="#AEABDA"/>
<path d="M154.051 114.156H31.8867V126.272H154.051V114.156Z" fill="#AEABDA"/>
<path d="M90.3611 116.633H43.375V123.904H90.3611V116.633Z" fill="#EBEBEB"/>
<path d="M153.772 67.7852H44.0859V93.1789H153.772V67.7852Z" fill="#E2E2F2"/>
<path d="M142.145 67.7852H131.922V93.1789H142.145V67.7852Z" fill="#AEABDA"/>
<path d="M125.214 67.7852H121.25V93.1789H125.214V67.7852Z" fill="#AEABDA"/>
<path d="M168.951 145.012H27.3359V160.376H168.951V145.012Z" fill="#CACAE8"/>
<path d="M153.937 145.012H140.738V160.376H153.937V145.012Z" fill="#E2E2F2"/>
<path d="M69.727 145.012H56.5273V160.376H69.727V145.012Z" fill="#E2E2F2"/>
<path d="M83.8832 145.012H78.7656V160.376H83.8832V145.012Z" fill="#E2E2F2"/>
<path d="M100.999 93.1797H22.5938V114.156H100.999V93.1797Z" fill="#CACAE8"/>
<path d="M173.477 93.1797H101V114.156H173.477V93.1797Z" fill="#CACAE8"/>
<path d="M100.999 95.3555H22.5938V111.978H100.999V95.3555Z" fill="white"/>
<path d="M101.001 111.98C100.892 111.872 22.3717 112.296 22.4874 111.98C22.4869 111.98 22.4727 95.3572 22.4727 95.3572V95.2347H22.5952C22.6045 95.2279 101.028 95.32 101.043 95.3151C101.055 95.3523 100.992 111.939 101.001 111.98ZM101.001 111.98L100.958 95.3572C101.199 95.4793 22.553 95.4371 22.5952 95.4793L22.7172 95.3572L22.703 111.98C21.9998 111.689 101.168 112.071 101.001 111.98Z" fill="#263238"/>
<path d="M29.4141 98.777C37.6289 98.6609 45.8447 98.5766 54.0596 98.5344L65.2056 98.4609L89.8516 98.5335C98.0665 98.5761 92.7823 98.6599 100.998 98.777C92.7823 98.8941 98.0665 98.9779 89.8516 99.02L65.2056 99.0925L54.0596 99.0186C45.8443 98.9774 37.6289 98.8931 29.4141 98.777Z" fill="#AEABDA"/>
<path d="M29.4141 102.039C37.6289 101.923 45.8447 101.839 54.0596 101.797L65.2056 101.723L89.8516 101.795C98.0665 101.838 92.7823 101.922 100.998 102.039C92.7823 102.156 98.0665 102.24 89.8516 102.282L65.2056 102.355L54.0596 102.281C45.8443 102.24 37.6289 102.155 29.4141 102.039Z" fill="#AEABDA"/>
<path d="M29.4141 105.3C37.6289 105.184 45.8447 105.101 54.0596 105.058L65.2056 104.984L89.8516 105.057C98.0665 105.1 92.7823 105.183 100.998 105.3C92.7823 105.418 98.0665 105.501 89.8516 105.544L65.2056 105.616L54.0596 105.543C45.8443 105.5 37.6289 105.416 29.4141 105.3Z" fill="#AEABDA"/>
<path d="M29.4141 108.559C37.6289 108.443 45.8447 108.358 54.0596 108.316L65.2056 108.242L89.8516 108.315C98.0665 108.358 92.7823 108.442 100.998 108.559C92.7823 108.676 98.0665 108.76 89.8516 108.802L65.2056 108.875L54.0596 108.801C45.8443 108.759 37.6289 108.674 29.4141 108.559Z" fill="#AEABDA"/>
<path d="M127.262 93.1797H117.059V114.156H127.262V93.1797Z" fill="#EBEBEB"/>
<path d="M169.726 93.1797H162.867V114.156H169.726V93.1797Z" fill="#EBEBEB"/>
<path d="M77.3215 67.8047L146.852 67.8047V45.1049L77.3215 45.1049V67.8047Z" fill="#AEABDA"/>
<path d="M24.5257 67.8047H77.3203V45.1049L24.5257 45.1049V67.8047Z" fill="#AEABDA"/>
<path d="M146.85 47.4609H77.3203V65.4493H146.85V47.4609Z" fill="white"/>
<path d="M77.3218 47.4608C77.4276 47.4608 146.86 47.3555 146.957 47.3555C146.973 47.4319 146.962 65.3581 146.974 65.4497V65.5717H146.851C146.833 65.5791 77.2934 65.4933 77.2723 65.4987C77.2537 65.4556 77.3355 47.5083 77.3218 47.4608ZM77.3218 47.4608L77.3713 65.4492C77.0694 65.3096 146.915 65.3738 146.852 65.3267L146.73 65.4492C146.779 65.5281 146.595 46.9689 146.852 47.5662L77.3218 47.4608Z" fill="#263238"/>
<path d="M142.35 61.7494C136.931 61.8405 131.512 61.9067 126.092 61.94L109.835 61.9978L93.5775 61.9405C88.1581 61.9072 82.7392 61.841 77.3203 61.7489C82.7392 61.6568 88.1586 61.5906 93.5775 61.5573L109.835 61.5L126.092 61.5583C131.512 61.5921 136.931 61.6583 142.35 61.7494Z" fill="#AEABDA"/>
<path d="M142.35 58.2187C136.931 58.3098 131.512 58.3759 126.092 58.4093L109.835 58.4671L93.5775 58.4098C88.1581 58.3764 82.7392 58.3108 77.3203 58.2182C82.7392 58.126 88.1586 58.0599 93.5775 58.0261L109.835 57.9688L126.092 58.0271C131.512 58.0614 136.931 58.1275 142.35 58.2187Z" fill="#AEABDA"/>
<path d="M142.35 54.6903C136.931 54.7815 131.512 54.8476 126.092 54.8809L109.835 54.9392L93.5775 54.8819C88.1581 54.8486 82.7392 54.7824 77.3203 54.6903C82.7392 54.5982 88.1586 54.5321 93.5775 54.4987L109.835 54.4414L126.092 54.4997C131.512 54.533 136.931 54.5992 142.35 54.6903Z" fill="#AEABDA"/>
<path d="M142.35 51.1635C136.931 51.2546 131.512 51.3213 126.092 51.3541L109.835 51.4119L93.5775 51.3546C88.1581 51.3213 82.7392 51.2551 77.3203 51.163C82.7392 51.0709 88.1586 51.0047 93.5775 50.9714L109.835 50.9141L126.092 50.9719C131.512 51.0062 136.931 51.0723 142.35 51.1635Z" fill="#AEABDA"/>
<path d="M42.8198 45.1055H32.9375V67.8052H42.8198V45.1055Z" fill="#E2E2F2"/>
<path d="M22.2031 160.378C86.4598 160.078 158.541 160.076 222.798 160.378C158.541 160.681 86.4593 160.679 22.2031 160.378Z" fill="#263238"/>
<path d="M233.967 188.673L123.056 168.066L16.0391 198.76L126.389 220.1L233.967 188.673Z" fill="white"/>
<path d="M233.968 188.673C233.977 188.673 122.95 168.119 123.074 168.126L16.0737 198.877L16.0634 198.64C16.0585 198.64 126.497 220.049 126.373 220.041C126.373 220.042 233.968 188.673 233.968 188.673ZM233.968 188.673C233.967 188.677 126.397 220.16 126.393 220.164C126.388 220.171 16.0257 198.876 16.0169 198.88L15.5156 198.784L16.0061 198.643C16.0056 198.64 123.052 168.007 123.053 168.004C123.075 167.997 233.948 188.677 233.968 188.673Z" fill="#263238"/>
<path d="M127.947 213.849C120.723 212.205 113.402 210.674 106.067 209.16C98.7425 207.634 91.3484 206.189 83.9548 204.744C76.5396 203.324 69.1229 201.905 61.6382 200.566L50.4084 198.561C46.6334 197.93 42.8878 197.264 39.0859 196.664C42.6894 197.496 46.3492 198.262 49.9791 199.064L60.9644 201.355C68.2904 202.88 75.6835 204.325 83.0791 205.769C90.4953 207.188 97.9119 208.607 105.397 209.945C112.872 211.295 120.362 212.628 127.947 213.849Z" fill="#AEABDA"/>
<path d="M99.5184 202.921C91.6122 200.922 83.441 199.234 75.2051 197.622C66.9427 196.041 58.6132 194.537 50.0156 193.348C57.9193 195.349 66.0911 197.037 74.3294 198.647C82.5938 200.226 90.9238 201.729 99.5184 202.921Z" fill="#AEABDA"/>
<path d="M138.879 205.102C132.566 203.635 126.156 202.28 119.732 200.942C113.317 199.592 106.835 198.324 100.352 197.054C93.8478 195.81 87.3421 194.568 80.7687 193.405L70.905 191.664C67.5853 191.121 64.2954 190.543 60.9492 190.031C64.097 190.776 67.3016 191.453 70.4758 192.166L80.095 194.193C86.5096 195.542 92.9923 196.812 99.4764 198.079C105.982 199.322 112.487 200.564 119.061 201.727C125.625 202.901 132.204 204.058 138.879 205.102Z" fill="#AEABDA"/>
<path d="M144.042 200.67C138.21 199.296 132.281 198.034 126.338 196.789C120.405 195.532 114.403 194.356 108.401 193.18C102.377 192.028 96.3524 190.879 90.2598 189.809L81.1173 188.208C78.0377 187.712 74.9889 187.18 71.8828 186.715C74.79 187.413 77.754 188.044 80.6876 188.711L89.585 190.598C95.5189 191.854 101.521 193.03 107.524 194.205C113.549 195.355 119.573 196.505 125.667 197.574C131.751 198.655 137.849 199.718 144.042 200.67Z" fill="#AEABDA"/>
<path d="M171.674 200.583C164.45 198.94 157.13 197.409 149.795 195.894C142.47 194.369 135.076 192.924 127.682 191.479C120.267 190.058 112.85 188.639 105.365 187.3L94.1349 185.295C90.3595 184.665 86.6144 183.998 82.8125 183.398C86.4155 184.231 90.0758 184.997 93.7052 185.798L104.691 188.089C112.016 189.614 119.41 191.06 126.805 192.503C134.221 193.923 141.638 195.341 149.123 196.68C156.599 198.029 164.088 199.363 171.674 200.583Z" fill="#AEABDA"/>
<path d="M172.591 195.326C166.201 193.844 159.716 192.474 153.215 191.122C146.725 189.758 140.166 188.473 133.607 187.19C127.026 185.931 120.444 184.674 113.794 183.496L103.817 181.733C100.459 181.183 97.1305 180.598 93.7461 180.078C96.9316 180.83 100.174 181.515 103.386 182.236L113.12 184.284C119.612 185.648 126.17 186.932 132.731 188.214C139.312 189.472 145.894 190.729 152.545 191.906C159.185 193.096 165.84 194.267 172.591 195.326Z" fill="#AEABDA"/>
<path d="M193.538 193.947C186.313 192.303 178.993 190.772 171.658 189.258C164.333 187.732 156.939 186.287 149.545 184.842C142.129 183.421 134.713 182.003 127.229 180.664L115.998 178.658C112.223 178.027 108.478 177.361 104.676 176.762C108.279 177.594 111.939 178.36 115.568 179.161L126.554 181.452C133.879 182.977 141.273 184.423 148.668 185.866C156.084 187.286 163.5 188.704 170.986 190.043C178.462 191.393 185.952 192.726 193.538 193.947Z" fill="#AEABDA"/>
<path d="M168.13 183.606C159.721 181.51 151.047 179.725 142.308 178.015C133.542 176.337 124.71 174.736 115.609 173.449C124.016 175.548 132.691 177.332 141.431 179.04C150.199 180.716 159.031 182.316 168.13 183.606Z" fill="#AEABDA"/>
<path d="M107.821 183.105C116.26 183.115 133.684 184.086 147.984 182.317C163.084 180.45 182.034 171.221 189.041 169.214C198.508 166.502 189.744 95.5192 180.03 92.7306C149.805 84.0527 108.431 90.241 94.5979 101.293C80.7657 112.345 89.843 183.085 107.821 183.105Z" fill="#C95F50"/>
<path d="M80.0035 155.834C75.0217 160.247 73.0867 170.637 74.3538 173.426C76.529 178.212 84.9677 183.624 93.2835 185.471C97.9645 186.51 123.71 179.016 128.431 176.434C141.413 169.332 136.095 160.026 130.235 159.289C125.692 158.717 118.912 159.937 108.562 161.752C101.448 162.999 94.927 161.787 93.3903 161.302C89.6178 160.113 92.5 165.94 92.5 165.94L102.116 158.959L100.365 148.996C100.365 148.996 85.7581 150.736 80.0035 155.834Z" fill="#C95F50"/>
<path d="M107.817 183.105C114.257 181.128 120.74 179.171 126.838 176.308C132.442 173.688 138.504 168.201 133.545 162.021C129.976 157.153 110.81 163.101 104.714 162.652C101.312 162.51 97.9214 162.201 94.582 161.595C99.6388 161.763 104.676 162.115 109.648 161.001C115.484 159.971 130.652 155.559 134.884 160.544C137.469 163.6 138.201 167.904 135.837 171.331C131.712 177.227 124.253 179.025 117.762 180.933C114.473 181.789 111.163 182.547 107.817 183.105Z" fill="#263238"/>
<path d="M76.8419 137.499C70.9962 141.365 65.9286 149.299 66.9017 154.75C67.8749 160.2 78.0723 166.814 86.3111 170.362C88.7709 171.42 120.142 169.242 125.445 167.247C140.03 161.76 136.578 151.688 131.74 147.779C128.874 145.463 116.805 147.524 105.745 147.888C98.1427 148.138 91.5228 145.911 89.992 145.179C86.2342 143.381 88.3784 149.883 88.3784 149.883L99.4353 144.024L99.081 133.377C99.082 133.377 83.5951 133.033 76.8419 137.499Z" fill="#C95F50"/>
<path d="M75.1484 164.183C78.8793 166.271 82.6332 168.652 86.7007 169.943C90.4506 170.386 94.2746 169.909 98.0407 169.716C106.142 169.055 114.352 168.351 122.349 166.992C126.184 166.386 129.886 164.5 132.641 161.835C133.377 161.134 133.627 160.391 133.981 159.522C134.315 158.633 134.579 157.689 134.706 156.746C135.323 153.039 133.442 148.912 129.824 147.581C127.958 147.03 125.875 146.969 123.907 146.933C119.84 146.892 115.747 147.199 111.665 147.567C115.691 146.768 119.763 146.201 123.891 145.971C126.263 145.917 128.714 145.766 131.002 146.632C134.882 148.353 137.014 152.847 136.41 156.96C136.23 158.583 135.712 160.155 135.052 161.638C134.21 163.216 132.861 164.213 131.507 165.219C129.749 166.451 127.857 167.461 125.814 168.149C122.792 169.117 119.662 169.376 116.563 169.796C110.437 170.521 104.29 171.001 98.125 171.238C94.2472 171.307 90.3032 171.614 86.4611 170.915C82.3064 169.343 78.7441 166.701 75.1484 164.183Z" fill="#263238"/>
<path d="M73.0332 111.373C66.6995 114.373 62.3214 128.68 62.5139 134.213C62.7065 139.746 77.0556 151.471 90.0348 152.56C95.5786 153.026 114.294 152.893 119.725 151.277C135.053 146.717 134.454 136.076 130.218 131.523C127.708 128.824 114.263 129.81 103.262 128.606C95.7016 127.778 89.4634 124.637 88.0517 123.696C84.586 121.386 85.7894 128.125 85.7894 128.125L97.5636 123.889L98.719 113.299C98.719 113.299 80.3499 107.907 73.0332 111.373Z" fill="#C95F50"/>
<path d="M70.4648 144.301C76.1851 147.716 82.3699 150.864 89.0569 151.629C99.708 152.697 121.432 152.554 129.324 144.789C131.403 142.584 132.879 139.48 132.145 136.435C131.338 132.844 127.742 130.237 124.118 129.929C120.123 129.65 116.022 129.686 111.995 129.441C103.927 128.97 95.4112 128.259 88.2171 124.202C85.8112 122.95 83.4342 121.631 81.1851 120.117C83.5395 121.45 85.9895 122.603 88.4449 123.733C90.889 124.895 93.3846 125.806 96.0316 126.338C103.95 128.03 112.095 127.899 120.162 128.018C122.935 128.063 125.948 127.956 128.498 129.312C132.548 131.182 135.201 136.02 133.97 140.471C132.104 147.837 124.161 150.835 117.469 152.188C109.407 153.786 101.139 153.95 92.9745 153.254C90.253 152.979 87.4938 152.696 84.8738 151.867C79.6724 150.173 74.8753 147.483 70.4648 144.301Z" fill="#263238"/>
<path d="M174.927 88.1393C178.333 89.3829 245.003 79.7578 245.003 79.7578V177.612L174.203 174.815L174.927 88.1393Z" fill="#C95F50"/>
<path d="M123.768 52.6825C123.768 52.6825 128.896 36.4057 117.513 33.8101C106.13 31.2151 103.695 48.1064 103.695 48.1064L123.768 52.6825Z" fill="#7B6EB9"/>
<path d="M98.1046 160.363L98.1096 160.389L98.0944 160.394L87.259 173.106L82.2737 171.972V171.967L78.0156 155.821V155.805C78.0156 155.805 78.0156 155.805 78.0259 155.801L103.841 47.4414L123.919 52.02L98.1046 160.363Z" fill="#7B6EB9"/>
<path d="M101.241 51.0857L124.68 56.4297L125.74 51.7788L102.302 46.4348L101.241 51.0857Z" fill="#7B6EB9"/>
<path opacity="0.2" d="M101.241 51.0857L124.68 56.4297L125.74 51.7788L102.302 46.4348L101.241 51.0857Z" fill="black"/>
<path d="M100.069 56.2264L123.508 61.5703L124.568 56.9194L101.13 51.5755L100.069 56.2264Z" fill="#7B6EB9"/>
<path opacity="0.2" d="M100.069 56.2264L123.508 61.5703L124.568 56.9194L101.13 51.5755L100.069 56.2264Z" fill="black"/>
<path d="M123.51 61.572L115.949 59.8477L112.895 92.7208L115.718 93.1956L123.51 61.572Z" fill="#7B6EB9"/>
<path opacity="0.2" d="M123.51 61.572L115.949 59.8477L112.895 92.7208L115.718 93.1956L123.51 61.572Z" fill="black"/>
<path d="M82.957 172.105L83.474 174.095C83.6519 174.78 84.526 174.983 84.9866 174.446L86.3356 172.876L82.957 172.105Z" fill="#7B6EB9"/>
<path opacity="0.5" d="M82.957 172.105L83.474 174.095C83.6519 174.78 84.526 174.983 84.9866 174.446L86.3356 172.876L82.957 172.105Z" fill="black"/>
<g opacity="0.2">
<path d="M79.0273 155.996C85.1342 156.728 91.1583 158.124 96.9589 160.169C90.851 159.443 84.8299 158.036 79.0273 155.996Z" fill="black"/>
</g>
<path d="M95.5174 82.7656C95.5174 82.7656 87.6034 83.0542 82.2815 84.5698C77.0718 86.0535 64.5499 90.3116 62.3875 94.1312C60.2246 97.9507 57.3405 109.457 60.1472 112.872C62.4394 115.66 80.739 128.416 89.9559 128.366C99.3737 128.315 102.425 122.17 100.194 114.46C98.5167 108.664 84.778 102.832 84.778 102.832L91.0687 107.843L90.2023 105.324L95.5174 82.7656Z" fill="#C95F50"/>
<path d="M80.1826 99.8398C87.5536 103.001 98.1239 107.993 101.135 115.933C102.316 118.863 102.112 122.455 100.211 125.064C96.9381 129.69 92.462 129.704 87.4787 128.381C83.128 127.224 79.0296 125.285 75.1027 123.15C72.5003 121.707 69.9548 120.166 67.5312 118.45C70.14 119.863 72.7752 121.213 75.4511 122.465C80.577 124.755 90.7122 129.521 95.9978 126.959C98.3302 125.596 100.222 123.225 100.434 120.462C101.083 110.721 87.5345 103.884 80.1826 99.8398Z" fill="#263238"/>
<path d="M83.8984 99.8398C86.6723 100.737 89.4506 102.704 90.558 105.48C88.4079 103.59 85.9491 101.873 83.8984 99.8398Z" fill="#263238"/>
<path d="M181.103 93.3152C181.103 93.3152 168.462 81.6704 154.678 75.3391C135.988 66.7543 126.079 62.8269 118.196 71.8106C104.943 86.9173 87.1544 91.8732 89.2286 97.8306C90.9181 102.684 95.2781 107.141 102.394 107.764C112.608 108.659 122.491 100.751 129.028 94.7206C129.028 94.7206 149.812 117.629 164.977 108.38C174.489 102.578 181.103 93.3152 181.103 93.3152Z" fill="#C95F50"/>
<path d="M98.1297 88.1445C95.3568 90.251 92.259 92.0307 90.275 94.8737C89.933 95.4176 89.6954 96.0027 89.6944 96.5279C89.7336 97.0875 89.9502 97.748 90.179 98.2895C91.5304 101.316 94.0784 103.785 97.064 105.187C97.554 105.462 98.3791 105.708 98.9044 105.926C99.5375 106.119 100.19 106.253 100.831 106.422L102.815 106.669L104.825 106.691C105.825 106.602 106.856 106.575 107.844 106.376C108.339 106.278 109.349 106.087 109.846 105.99C110.783 105.733 111.805 105.4 112.698 105.015C120.342 101.633 126.927 96.2359 133.3 90.8136C127.376 97.4898 119.885 104.354 111.377 107.516C106.463 108.996 100.941 109.264 96.2501 106.848C92.9397 105.171 90.1702 102.301 88.8658 98.8015C87.7515 96.1482 88.8976 94.3376 90.887 92.629C93.1116 90.7548 95.641 89.467 98.1297 88.1445Z" fill="#263238"/>
<path d="M129.028 94.7188C129.696 103.209 131.872 112.085 137.774 118.439C140.033 120.703 142.587 122.731 145.148 124.642C149.505 127.888 154.075 130.722 158.883 133.369C154.629 132.216 150.597 130.257 146.827 127.991C143.055 125.666 139.475 122.921 136.418 119.699C130.458 112.966 128.482 103.493 129.028 94.7188Z" fill="#263238"/>
</g>
<defs>
<clipPath id="clip0_2327_12330">
<rect width="245" height="245" fill="white"/>
</clipPath>
</defs>
</svg>
