<svg width="275" height="264" viewBox="0 0 275 264" fill="none" xmlns="http://www.w3.org/2000/svg">
<path d="M206.262 58.4376C204.551 58.7159 202.932 58.7053 201.403 58.4028C199.874 58.1007 198.485 57.5221 197.236 56.6646C195.081 55.2601 193.579 53.372 192.729 51.0023C191.879 48.6326 191.605 46.4451 191.909 44.4408C192.212 42.4366 192.796 40.4486 193.658 38.4739C194.521 36.5003 195.51 34.8017 196.628 33.3761C197.746 31.951 199.084 30.7033 200.646 29.6315C202.207 28.5591 203.895 27.9261 205.711 27.7318C207.527 27.5375 209.493 27.8157 211.612 28.5702C211.932 28.6864 212.289 28.8759 212.683 29.1384C213.078 29.4008 213.42 29.6294 213.712 29.8274L214.535 30.4832C214.788 30.6854 214.917 30.8058 214.922 30.8427C215.588 31.3058 215.988 31.9531 216.124 32.7847C216.88 35.0118 217.481 37.373 217.923 39.8684C218.366 42.3637 218.689 44.7191 218.888 46.9346C219.087 49.149 219.388 51.4881 219.789 53.9491C219.915 54.7062 219.746 55.4011 219.284 56.0347C218.821 56.6683 218.195 57.0505 217.406 57.1825C216.617 57.314 215.908 57.1477 215.28 56.6815C214.651 56.2142 214.273 55.6038 214.148 54.8467L214.048 53.9892C213.052 55.3034 211.96 56.3003 210.776 56.9809C209.476 57.6731 207.972 58.1588 206.262 58.4376ZM208.935 51.5219C209.257 51.3297 209.655 51.0509 210.13 50.686C210.605 50.3217 211.099 49.8771 211.613 49.3534C212.126 48.8296 212.571 48.1986 212.944 47.4589C213.011 47.3749 213.097 47.2878 213.202 47.1975C212.604 42.0569 211.803 37.9649 210.799 34.9173C210.668 34.78 210.528 34.6512 210.38 34.5324C210.232 34.4152 210.126 34.3217 210.06 34.2526C209.995 34.1829 209.911 34.1258 209.81 34.0794C209.709 34.0329 209.598 33.9806 209.476 33.9162C207.547 33.1406 205.635 33.3375 203.741 34.506C201.846 35.676 200.291 37.626 199.077 40.3541C197.866 43.1214 197.381 45.4657 197.624 47.3871C197.866 49.3074 198.779 50.8112 200.36 51.8978C201.313 52.5193 202.443 52.8487 203.751 52.8878C205.057 52.9274 206.349 52.6782 207.628 52.1412C208.176 51.921 208.611 51.7151 208.935 51.5219Z" fill="#E2E2F2"/>
<path d="M242.001 209.345C241.028 208.963 240.274 208.454 239.738 207.821C239.201 207.188 238.806 206.6 238.553 206.056C238.298 205.512 238.13 204.967 238.049 204.423C237.967 203.878 237.955 203.169 238.011 202.293C238.092 201.557 238.308 200.822 238.658 200.087C239.007 199.353 239.49 198.686 240.107 198.085C240.724 197.485 241.48 197.007 242.378 196.653C243.277 196.298 244.246 196.154 245.288 196.218C246.295 196.285 247.164 196.512 247.895 196.899C248.625 197.286 249.259 197.796 249.794 198.429C250.256 198.962 250.542 199.365 250.651 199.637C250.761 199.91 250.861 200.166 250.953 200.405C251.043 200.645 251.119 200.85 251.181 201.021C251.242 201.192 251.299 201.367 251.352 201.548C251.404 201.728 251.446 201.939 251.477 202.181C251.512 202.511 251.468 202.819 251.345 203.104C251.222 203.39 251.026 203.618 250.759 203.79C250.54 203.889 250.301 203.946 250.042 203.961L245.621 204.282C242.516 204.47 240.965 204.59 240.968 204.642L240.891 204.646C241.163 205.521 241.671 206.19 242.414 206.656C243.157 207.121 244.152 207.362 245.399 207.38C246.073 207.379 246.632 207.312 247.076 207.184C247.568 207.017 247.923 206.871 248.142 206.746C248.36 206.62 248.628 206.453 248.946 206.244C249.266 206.105 249.595 206.104 249.932 206.242C250.268 206.381 250.505 206.612 250.644 206.935C250.782 207.259 250.787 207.581 250.657 207.902C250.528 208.223 250.312 208.479 250.011 208.67C249.743 208.841 249.466 208.992 249.179 209.121C248.891 209.251 248.468 209.409 247.907 209.596C247.346 209.784 246.504 209.9 245.383 209.944C244.1 209.926 242.973 209.727 242.001 209.345ZM248.584 201.503C248.401 200.99 248.124 200.509 247.754 200.058C247.02 199.296 246.141 198.883 245.116 198.816C244.04 198.736 243.111 199.018 242.333 199.662C241.555 200.307 241.044 201.115 240.803 202.087C241.801 201.981 244.395 201.785 248.584 201.503Z" fill="#E2E2F2"/>
<path d="M49.0611 202.25C49.2057 202.87 49.1177 203.441 48.7986 203.961C48.4784 204.482 48.0105 204.815 47.3953 204.961C46.7796 205.107 46.2137 205.02 45.6971 204.697C45.1804 204.375 44.8497 203.904 44.7041 203.283C44.56 202.663 44.647 202.093 44.9666 201.572C45.2862 201.052 45.7594 200.71 46.3835 200.549C47.0081 200.387 47.5698 200.483 48.0682 200.836C48.5848 201.159 48.9165 201.63 49.0611 202.25ZM48.3563 217.494C47.5195 213.635 46.962 211.11 46.6837 209.92C46.5622 209.4 46.6376 208.917 46.9106 208.472C47.1836 208.028 47.5782 207.745 48.0954 207.622C48.6126 207.5 49.091 207.576 49.5317 207.851C49.9724 208.126 50.2548 208.524 50.3758 209.045C50.6541 210.235 51.208 212.748 52.0401 216.58C52.8706 220.415 53.5272 223.256 54.0124 225.104C54.134 225.624 54.0648 226.112 53.8075 226.565C53.5497 227.019 53.163 227.307 52.6458 227.43C52.1291 227.553 51.646 227.485 51.1954 227.224C50.7453 226.965 50.4597 226.575 50.3376 226.054C49.8529 224.206 49.1926 221.353 48.3563 217.494Z" fill="#E2E2F2"/>
<path d="M151.488 150.656C151.188 150.287 151.061 149.706 151.105 148.915C149.828 149.787 148.557 150.298 147.291 150.452C145.479 150.693 143.907 150.206 142.576 148.991C141.292 147.809 140.388 146.004 139.864 143.579C139.685 142.736 139.571 141.876 139.525 140.997C139.48 140.094 139.524 139.143 139.657 138.146C139.79 137.148 139.906 136.342 140.005 135.724C140.104 135.108 140.269 134.268 140.498 133.206C140.728 132.143 140.872 131.474 140.93 131.199C141.041 130.699 141.311 130.302 141.742 130.008C142.171 129.714 142.642 129.617 143.152 129.718C143.662 129.819 144.063 130.086 144.355 130.519C144.647 130.953 144.748 131.433 144.659 131.961C144.588 132.338 144.432 133.05 144.192 134.099C143.951 135.147 143.794 135.93 143.719 136.447C143.644 136.964 143.549 137.645 143.435 138.491C143.32 139.337 143.28 140.102 143.313 140.786C143.346 141.47 143.424 142.14 143.549 142.797C143.915 144.407 144.493 145.542 145.28 146.202C145.603 146.473 146.167 146.657 146.971 146.755C148.071 146.71 148.981 146.5 149.701 146.126C150.421 145.752 151.167 144.791 151.939 143.243C152.392 139.885 152.766 136.466 153.056 132.984C153.095 132.45 153.318 132.016 153.728 131.681C154.137 131.346 154.602 131.198 155.119 131.234C155.637 131.272 156.062 131.497 156.395 131.91C156.728 132.322 156.875 132.783 156.84 133.292C156.324 139.286 155.651 144.785 154.821 149.791C154.735 150.294 154.476 150.699 154.045 151.005C153.613 151.312 153.136 151.42 152.612 151.331C152.161 151.252 151.787 151.026 151.488 150.656Z" fill="#E2E2F2"/>
<path d="M78.903 40.9181C77.3143 39.3162 76.3134 37.2422 75.9016 34.6956C75.5971 32.6982 75.8041 30.7927 76.5215 28.9795C77.3803 26.6637 78.7694 24.9408 80.6894 23.8093C81.0829 23.5781 81.577 23.408 82.1718 23.2982C82.1959 23.2977 82.3698 23.2829 82.6926 23.2523C82.8158 23.2259 82.9153 23.199 82.9892 23.1726C83.3607 23.0918 83.7338 23.1229 84.1085 23.2676C84.2075 23.266 84.4438 23.2687 84.8164 23.275C85.1895 23.2824 85.4379 23.2908 85.562 23.3009C85.6862 23.312 85.9037 23.3331 86.2155 23.3658C86.5257 23.3991 86.7809 23.4387 86.9805 23.4857L87.6926 23.7375C87.9918 23.8331 88.279 23.9535 88.5551 24.0997C88.8297 24.2455 89.131 24.4165 89.4575 24.6108C91.0876 25.6874 92.2294 27.2144 92.8808 29.1939C93.5316 31.1733 93.7181 32.779 93.4388 34.0092C93.2355 35.3641 92.8582 36.6276 92.3049 37.7997C91.751 38.9719 90.9792 40.0168 89.9872 40.9334C88.9953 41.8495 87.93 42.4667 86.7929 42.7851C83.5273 43.6363 80.8974 43.0148 78.903 40.9181ZM88.2905 37.1867C89.0325 36.212 89.5135 35.184 89.7331 34.1048C89.9526 33.025 89.8478 31.8444 89.4176 30.5614C88.9885 29.2794 88.3225 28.358 87.4196 27.7963C87.143 27.6004 86.9176 27.4604 86.7426 27.3749C86.5671 27.2904 86.3617 27.2186 86.1243 27.1595C85.8874 27.1009 85.7004 27.0718 85.5641 27.074C85.4274 27.0761 85.136 27.0687 84.6885 27.0502C84.2416 27.0322 83.8433 27.0132 83.4954 26.9942C83.421 26.9953 83.3335 26.9842 83.2344 26.9604C82.9609 26.99 82.8121 27.0048 82.7875 27.0053L82.5281 27.0845C81.4444 27.7017 80.6207 28.6722 80.0579 29.9948C79.4946 31.3175 79.3479 32.6776 79.6178 34.0752C79.9165 35.7727 80.5447 37.0516 81.5021 37.9122C82.5349 38.8478 83.8931 39.1768 85.5783 38.9001C86.6436 38.7332 87.5475 38.1625 88.2905 37.1867Z" fill="#E2E2F2"/>
<path d="M186.073 130.06L185.047 135.42L244.197 147.397L253.773 88.2266L241.916 142.456L186.073 130.06Z" fill="#E0E0E0"/>
<path d="M196.82 71.3547L184.086 129.613L241.903 142.445L254.638 84.1864L196.82 71.3547Z" fill="white"/>
<path d="M241.914 142.458C241.914 142.458 241.93 142.362 241.967 142.18C242.007 141.994 242.063 141.725 242.137 141.373C242.29 140.658 242.515 139.608 242.808 138.24C243.4 135.498 244.266 131.487 245.369 126.384C247.583 116.188 250.744 101.634 254.535 84.1756L254.625 84.3171C237.82 80.592 217.979 76.1943 196.811 71.502L196.806 71.5009L196.968 71.3964C192.297 92.7281 187.92 112.718 184.213 129.65L184.123 129.508C201.441 133.378 215.876 136.604 225.988 138.864C231.046 140 235.022 140.894 237.739 141.504C239.094 141.811 240.135 142.047 240.842 142.207C241.191 142.287 241.457 142.348 241.641 142.391C241.82 142.433 241.914 142.458 241.914 142.458C241.914 142.458 241.827 142.444 241.65 142.407C241.468 142.368 241.206 142.312 240.862 142.238C240.158 142.085 239.123 141.86 237.775 141.567C235.061 140.972 231.089 140.101 226.036 138.993C215.901 136.758 201.431 133.567 184.072 129.74L183.957 129.715L183.982 129.598C187.679 112.665 192.044 92.6716 196.701 71.3372L196.731 71.2031L196.864 71.2327L196.869 71.2337C218.035 75.9393 237.872 80.3491 254.676 84.0847L254.791 84.1106L254.766 84.2268C250.919 101.705 247.712 116.276 245.465 126.483C244.34 131.569 243.455 135.567 242.85 138.299C242.548 139.655 242.315 140.696 242.158 141.404C242.079 141.75 242.019 142.013 241.977 142.196C241.937 142.373 241.914 142.458 241.914 142.458Z" fill="#263238"/>
<path d="M213.094 83.0126C212.383 83.1003 211.655 83.0453 210.965 82.8516C212.993 87.5201 213.001 93.146 212.372 98.2026L213.341 98.1023C214.11 93.9443 213.969 87.6859 213.094 83.0126Z" fill="#AE7461"/>
<path d="M226.865 102.388C232.529 109.958 229.997 121.507 222.485 127.215C214.972 132.923 204.29 131.414 198.626 123.844C192.961 116.274 194.459 105.511 201.972 99.8032C209.484 94.095 221.2 94.8184 226.865 102.388Z" fill="#938CCB"/>
<g opacity="0.3">
<path d="M196.75 106.326C196.75 106.326 201.85 106.424 206.017 102.928C210.184 99.4315 211.506 96.2128 211.506 96.2128C211.506 96.2128 207.124 95.7746 203.807 98.5429C201.187 100.729 198.313 103.974 197.191 105.443C196.893 105.834 196.773 106.274 196.75 106.326Z" fill="black"/>
</g>
<path d="M211.655 89.7852C209.532 89.8765 207.395 89.9705 205.329 90.4689C203.263 90.9673 201.25 91.903 199.789 93.4563C198.244 95.0979 197.427 97.296 196.844 99.4803C196.26 101.665 195.866 103.914 194.988 105.996C198.757 105.408 202.172 104.237 205.347 102.108C206.583 101.278 208.058 100.017 208.945 98.8155C210.077 97.2812 210.74 96.1254 211.107 94.675C211.504 93.1084 211.69 91.4695 211.655 89.7852Z" fill="#455A64"/>
<path d="M212.821 88.9267C212.833 88.941 212.665 89.1152 212.351 89.4172C211.995 89.7552 211.547 90.1802 211.012 90.6871C209.88 91.7558 208.321 93.2384 206.631 94.9074C204.94 96.5774 203.438 98.1182 202.354 99.2375C201.841 99.765 201.41 100.209 201.067 100.56C200.761 100.871 200.585 101.036 200.571 101.023C200.557 101.011 200.707 100.82 200.989 100.488C201.271 100.155 201.689 99.6816 202.214 99.1039C203.262 97.9487 204.746 96.3842 206.44 94.711C208.133 93.0393 209.716 91.5762 210.883 90.5429C211.466 90.026 211.944 89.6142 212.28 89.337C212.616 89.0593 212.808 88.9125 212.821 88.9267Z" fill="#263238"/>
<g opacity="0.3">
<path d="M200.898 115.406C201.319 115.406 201.321 114.746 200.898 114.746C200.477 114.746 200.476 115.406 200.898 115.406Z" fill="black"/>
</g>
<g opacity="0.3">
<path d="M200.074 112.551C200.496 112.551 200.497 111.891 200.074 111.891C199.653 111.891 199.652 112.551 200.074 112.551Z" fill="black"/>
</g>
<g opacity="0.3">
<path d="M198.347 115.422C198.769 115.422 198.77 114.762 198.347 114.762C197.926 114.762 197.926 115.422 198.347 115.422Z" fill="black"/>
</g>
<g opacity="0.3">
<path d="M197.91 111.254C198.332 111.254 198.333 110.594 197.91 110.594C197.488 110.594 197.488 111.254 197.91 111.254Z" fill="black"/>
</g>
<g opacity="0.3">
<path d="M200.817 108.445C201.238 108.445 201.239 107.785 200.817 107.785C200.395 107.785 200.394 108.445 200.817 108.445Z" fill="black"/>
</g>
<g opacity="0.3">
<path d="M202.676 110.691C203.097 110.691 203.098 110.031 202.676 110.031C202.254 110.031 202.253 110.691 202.676 110.691Z" fill="black"/>
</g>
<g opacity="0.3">
<path d="M199.004 119.488C199.425 119.488 199.426 118.828 199.004 118.828C198.583 118.828 198.582 119.488 199.004 119.488Z" fill="black"/>
</g>
<g opacity="0.3">
<path d="M198.633 107.758C199.054 107.758 199.055 107.098 198.633 107.098C198.211 107.098 198.21 107.758 198.633 107.758Z" fill="black"/>
</g>
<g opacity="0.3">
<path d="M227.783 110.669C227.727 110.671 227.764 109.676 227.429 108.129C227.104 106.592 226.315 104.496 224.785 102.638C223.255 100.78 221.355 99.6122 219.916 99.0066C218.469 98.3894 217.491 98.2426 217.504 98.1882C217.507 98.1724 217.751 98.1956 218.187 98.2827C218.622 98.3688 219.246 98.5367 219.989 98.8266C221.469 99.3942 223.429 100.561 224.995 102.462C226.56 104.363 227.337 106.52 227.618 108.089C227.763 108.878 227.812 109.527 227.816 109.974C227.821 110.422 227.799 110.669 227.783 110.669Z" fill="white"/>
</g>
<g opacity="0.3">
<path d="M227.314 115.546C227.249 115.499 227.538 115.028 227.69 114.383C227.851 113.74 227.811 113.188 227.89 113.176C227.958 113.157 228.129 113.741 227.955 114.449C227.786 115.157 227.366 115.596 227.314 115.546Z" fill="white"/>
</g>
<path d="M225.696 80.6346C227.677 80.6346 229.283 79.0165 229.283 77.0204C229.283 75.0244 227.677 73.4062 225.696 73.4062C223.715 73.4062 222.109 75.0244 222.109 77.0204C222.109 79.0165 223.715 80.6346 225.696 80.6346Z" fill="#938CCB"/>
<path d="M228.024 76.9299C227.998 76.931 228 76.7309 227.903 76.3966C227.808 76.0688 227.58 75.592 227.088 75.2282C226.613 74.8633 225.836 74.6632 225.089 74.9468C224.348 75.2071 223.71 76.0022 223.718 76.9294C223.71 77.8566 224.348 78.6523 225.089 78.9126C225.837 79.1961 226.613 78.996 227.089 78.6311C227.581 78.2679 227.808 77.7911 227.904 77.4627C227.999 77.129 227.998 76.9289 228.024 76.9299C228.036 76.9283 228.074 77.13 228.006 77.4896C227.939 77.8413 227.726 78.3687 227.206 78.7864C226.703 79.2045 225.847 79.4554 225.004 79.1512C224.168 78.8746 223.435 77.9796 223.445 76.9294C223.435 75.8797 224.167 74.9853 225.004 74.7086C225.847 74.4045 226.703 74.6553 227.206 75.0735C227.726 75.4911 227.939 76.0186 228.006 76.3702C228.074 76.7293 228.036 76.931 228.024 76.9299Z" fill="#263238"/>
<path d="M161.475 208.582L160.859 212.108L220.368 224.6L230.534 163.738L218.18 220.485L161.475 208.582Z" fill="#E0E0E0"/>
<path d="M171.979 148.572L158.984 208.02L217.981 221.113L230.975 161.666L171.979 148.572Z" fill="white"/>
<path d="M217.988 221.128C217.988 221.128 218.005 221.03 218.044 220.844C218.083 220.654 218.141 220.38 218.217 220.02C218.373 219.292 218.603 218.22 218.902 216.824C219.506 214.026 220.391 209.933 221.515 204.726C223.775 194.322 227.001 179.471 230.87 161.656L230.96 161.798C213.811 157.997 193.566 153.509 171.966 148.721L171.96 148.72L172.122 148.615C167.357 170.382 162.89 190.78 159.107 208.057L159.018 207.916C176.69 211.864 191.419 215.156 201.737 217.461C206.899 218.621 210.956 219.532 213.729 220.155C215.111 220.468 216.172 220.708 216.895 220.872C217.25 220.954 217.521 221.016 217.709 221.059C217.893 221.102 217.988 221.128 217.988 221.128C217.988 221.128 217.9 221.113 217.719 221.075C217.534 221.036 217.266 220.979 216.914 220.903C216.197 220.747 215.141 220.517 213.765 220.218C210.995 219.611 206.942 218.722 201.786 217.591C191.444 215.31 176.68 212.054 158.967 208.148L158.852 208.122L158.877 208.006C162.649 190.727 167.103 170.326 171.856 148.556L171.885 148.422L172.018 148.451L172.024 148.452C193.621 153.254 213.864 157.754 231.01 161.566L231.125 161.592L231.1 161.708C227.175 179.543 223.903 194.411 221.611 204.826C220.463 210.016 219.56 214.096 218.943 216.884C218.635 218.268 218.398 219.33 218.236 220.052C218.156 220.405 218.096 220.674 218.053 220.861C218.012 221.04 217.988 221.128 217.988 221.128Z" fill="#263238"/>
<path d="M188.788 210.846C188.778 210.846 188.769 210.845 188.759 210.843C188.689 210.828 188.644 210.757 188.659 210.686L195.777 178.131C195.792 178.059 195.863 178.015 195.933 178.03C196.004 178.046 196.048 178.116 196.032 178.188L188.915 210.743C188.902 210.804 188.848 210.846 188.788 210.846Z" fill="#263238"/>
<path d="M187.517 211.595C187.392 211.595 187.266 211.582 187.14 211.554C186.688 211.453 186.301 211.181 186.051 210.788C185.801 210.394 185.719 209.926 185.819 209.47L186.033 208.49C186.065 208.349 186.202 208.259 186.345 208.289C186.487 208.321 186.576 208.461 186.545 208.604L186.331 209.583C186.187 210.24 186.601 210.893 187.253 211.038C187.569 211.109 187.894 211.05 188.167 210.875C188.44 210.699 188.628 210.427 188.698 210.109L189.425 206.781C189.457 206.64 189.594 206.55 189.738 206.58C189.879 206.612 189.968 206.752 189.937 206.895L189.21 210.222C189.109 210.678 188.84 211.069 188.449 211.32C188.166 211.502 187.845 211.595 187.517 211.595Z" fill="#938CCB"/>
<path d="M171.41 189.886C171.41 189.886 180.737 177.669 196.191 181.1C211.646 184.53 214.596 200.153 214.596 200.153C214.596 200.153 209.535 198.154 202.869 200.854C202.869 200.854 193.998 194.22 181.26 195.571C181.259 195.571 177.655 190.883 171.41 189.886Z" fill="#455A64"/>
<path d="M202.868 200.854C202.858 200.854 202.847 200.703 202.833 200.418C202.821 200.107 202.806 199.692 202.786 199.17C202.79 198.627 202.694 197.97 202.619 197.205C202.568 196.436 202.371 195.58 202.211 194.627C201.798 192.74 201.136 190.522 200.046 188.211C199.512 187.053 198.858 185.88 198.108 184.715C197.359 183.549 196.497 182.392 195.511 181.31C195.408 181.202 195.304 181.095 195.21 180.996L195.367 181.019C190.24 183.713 186.492 187.528 184.275 190.562C183.151 192.079 182.352 193.385 181.835 194.305C181.565 194.76 181.386 195.129 181.246 195.37C181.111 195.613 181.037 195.739 181.028 195.734C181.02 195.73 181.078 195.596 181.197 195.345C181.322 195.096 181.486 194.718 181.742 194.254C182.233 193.315 183.01 191.988 184.121 190.447C185.228 188.906 186.701 187.172 188.56 185.476C190.414 183.777 192.672 182.141 195.241 180.775L195.331 180.727L195.399 180.797C195.497 180.9 195.604 181.011 195.71 181.121C196.712 182.221 197.578 183.388 198.332 184.567C199.087 185.746 199.741 186.932 200.274 188.103C201.36 190.44 202.008 192.682 202.399 194.588C202.549 195.55 202.733 196.413 202.77 197.187C202.832 197.958 202.913 198.62 202.892 199.165C202.89 199.689 202.888 200.106 202.887 200.418C202.884 200.705 202.877 200.854 202.868 200.854Z" fill="#263238"/>
<path d="M203.462 158.428C205.443 158.428 207.049 156.809 207.049 154.813C207.049 152.817 205.443 151.199 203.462 151.199C201.481 151.199 199.875 152.817 199.875 154.813C199.875 156.809 201.481 158.428 203.462 158.428Z" fill="#938CCB"/>
<path d="M205.79 154.723C205.764 154.724 205.765 154.524 205.669 154.19C205.574 153.862 205.346 153.385 204.854 153.021C204.379 152.656 203.602 152.456 202.855 152.74C202.113 153.001 201.476 153.795 201.484 154.722C201.476 155.65 202.114 156.445 202.855 156.706C203.603 156.989 204.379 156.789 204.854 156.424C205.346 156.06 205.574 155.584 205.669 155.256C205.765 154.922 205.764 154.722 205.79 154.723C205.801 154.722 205.84 154.923 205.772 155.283C205.704 155.634 205.492 156.162 204.971 156.579C204.469 156.998 203.613 157.248 202.769 156.944C201.933 156.668 201.201 155.773 201.211 154.722C201.201 153.673 201.933 152.778 202.769 152.502C203.613 152.197 204.469 152.448 204.971 152.866C205.492 153.284 205.704 153.812 205.772 154.163C205.84 154.522 205.802 154.724 205.79 154.723Z" fill="#263238"/>
<path d="M74.5 220.092C74.598 220.075 75.9457 226.964 75.9457 226.964L137.075 214.326L123.703 151.996L133.474 210.007L74.5 220.092Z" fill="#E0E0E0"/>
<path d="M123.117 148.533L62.1094 158.965L72.4619 220.438L133.47 210.007L123.117 148.533Z" fill="white"/>
<path d="M133.473 210.006C133.473 210.006 133.451 209.906 133.417 209.715C133.383 209.52 133.333 209.237 133.267 208.866C133.137 208.113 132.947 207.007 132.698 205.566C132.204 202.676 131.481 198.448 130.561 193.068C128.736 182.315 126.129 166.965 123.003 148.551L123.139 148.648C105.407 151.686 84.4741 155.272 62.1402 159.098L62.1344 159.099L62.246 158.941C66.0309 181.453 69.5773 202.549 72.5814 220.417L72.4457 220.32C90.7307 217.219 105.971 214.634 116.647 212.823C121.99 211.923 126.189 211.215 129.059 210.732C130.491 210.494 131.591 210.31 132.338 210.186C132.707 210.126 132.988 210.08 133.183 210.048C133.372 210.018 133.473 210.006 133.473 210.006C133.473 210.006 133.383 210.026 133.197 210.06C133.006 210.094 132.73 210.144 132.367 210.209C131.626 210.338 130.536 210.53 129.115 210.779C126.254 211.276 122.067 212.002 116.739 212.927C106.051 214.769 90.7915 217.4 72.484 220.556L72.3676 220.576L72.3477 220.459C69.3331 202.592 65.7741 181.498 61.9762 158.988L61.9531 158.852L62.0878 158.829L62.0936 158.828C84.4301 155.015 105.365 151.442 123.099 148.415L123.216 148.395L123.235 148.512C126.318 166.965 128.887 182.348 130.687 193.124C131.579 198.496 132.279 202.719 132.758 205.605C132.993 207.038 133.174 208.139 133.297 208.887C133.355 209.253 133.401 209.532 133.431 209.725C133.462 209.913 133.473 210.006 133.473 210.006Z" fill="#263238"/>
<path d="M111.988 199.295C111.988 199.295 113.384 206.221 113.665 206.866C113.665 206.866 112.359 208.649 112.5 209.145C112.641 209.64 113.69 210.465 113.69 210.465L116.366 210.007L119.16 208.179L119.241 203.659L117.629 199.428L115.516 197.777L111.988 199.295Z" fill="#E0E0E0"/>
<g opacity="0.3">
<path d="M111.988 199.295C111.988 199.295 113.384 206.221 113.665 206.866C113.665 206.866 112.359 208.649 112.5 209.145C112.641 209.64 113.69 210.465 113.69 210.465L116.366 210.007L119.16 208.179L119.241 203.659L117.629 199.428L115.516 197.777L111.988 199.295Z" fill="black"/>
</g>
<path d="M70.1353 190.772C70.1327 190.999 69.7795 193.821 70.861 195.079C71.942 196.337 74.3184 198.301 75.248 198.657C76.1775 199.014 79.2104 198.804 81.0623 197.045C81.0623 197.045 81.5952 194.137 80.8794 193.529C80.1631 192.922 78.4182 191.365 78.3789 192.042C78.3396 192.718 78.6319 193.544 78.6319 193.544C78.6319 193.544 77.5158 193.598 77.6484 194.082C77.781 194.565 78.6833 195.368 78.6833 195.368C78.6833 195.368 77.4042 195.667 76.9934 195.657C76.5826 195.646 74.9142 194.85 74.8523 193.572C74.7905 192.294 76.8121 189.114 77.9853 187.883C79.1586 186.652 83.1284 183.5 83.1284 183.5L88.4088 180.845L84.9289 172.938C84.9289 172.938 78.8258 174.96 75.2406 179.181C71.6554 183.4 70.1615 188.548 70.1353 190.772Z" fill="#E0E0E0"/>
<path d="M97.1746 198.553C97.1746 198.553 100.023 199.746 101.267 200.214C102.51 200.681 107.318 201.566 108.775 201.104C110.233 200.641 114.991 199.027 114.991 199.027L116.723 184.792L119.229 181.635C119.229 181.635 115.748 178.374 113.626 178.035C111.504 177.697 105.367 179.293 105.367 179.293C105.367 179.293 97.7059 182.217 97.5461 182.524C97.3863 182.832 96.0312 195.013 96.0312 195.013L97.1746 198.553Z" fill="#E0E0E0"/>
<path d="M89.098 191.055C89.098 191.055 89.3553 195.308 88.902 196.021C88.4488 196.733 86.9025 201.851 87.2127 203.011C87.5229 204.171 88.53 205.386 90.265 207.516C91.9999 209.646 92.9872 210.401 92.9872 210.401L96.096 205.71L94.5193 200.433L95.3556 194.166L89.098 191.055Z" fill="#E0E0E0"/>
<path d="M84.9289 172.94C84.9289 172.94 87.1114 171.219 88.0105 171.227C89.9137 171.242 94.0664 173.609 94.0664 173.609L106.315 179.188L97.038 191.823L90.5792 194.983L87.1507 188.504L81.2227 183.973L84.9289 172.94Z" fill="#E0E0E0"/>
<path d="M90.2276 193.321C90.1333 193.443 90.7065 205.015 90.7065 205.015L90.9402 211.85C90.9402 211.85 89.8105 213.314 89.8865 213.764C89.9619 214.213 90.4089 214.483 90.4089 214.483C90.4089 214.483 92.9718 213.951 94.0958 213.816C95.2197 213.682 97.1302 213.334 97.0951 213.126C97.0443 212.825 97.2985 212.496 97.2985 212.496L96.4229 211.722C96.4229 211.722 96.6377 208.912 97.4305 206.812C98.2238 204.712 98.2768 200.601 98.2768 200.601L99.5024 194.943C99.5024 194.943 99.2231 190.56 99.1859 190.682C99.1492 190.804 96.186 190.902 96.186 190.902L90.2276 193.321Z" fill="#E0E0E0"/>
<path d="M92.9516 214.071C92.9065 213.519 93.1067 212.951 93.4871 212.551C93.6385 212.392 93.8392 212.251 94.0567 212.271C94.27 212.291 94.4387 212.457 94.5755 212.624C94.8291 212.933 95.0402 213.277 95.2006 213.643" fill="#E2E2F2"/>
<path d="M90.4883 214.431C90.4883 214.431 90.8242 212.949 91.1894 212.807C91.5552 212.666 92.7053 214.035 92.7053 214.035L90.4883 214.431Z" fill="#E2E2F2"/>
<g opacity="0.3">
<path d="M94.5859 190.961C94.7562 191.14 95.0994 192.085 95.8786 191.484C96.6578 190.883 97.1572 188.238 97.4024 187.89C97.6482 187.541 98.9661 187.239 99.3402 186.754C99.7148 186.268 100.525 185.863 101.13 185.643C101.735 185.423 102.992 185.413 103.638 184.051C104.284 182.69 103.964 178.117 103.964 178.117L102.278 177.559L101.794 183.001C101.794 183.001 97.949 184.59 97.8316 184.795C97.7142 185.001 95.7021 187.051 95.6266 187.054C95.5511 187.056 94.6205 191.167 94.6205 191.167" fill="black"/>
</g>
<path d="M92.1626 173.934C92.1626 173.934 96.1686 173.097 97.586 173.234C99.004 173.371 102.479 174.98 102.787 175.688C103.094 176.395 103.218 183.173 102.688 183.605C102.157 184.038 101.798 184.079 100.855 184.668C99.9126 185.258 99.703 185.445 99.2393 185.221C98.7755 184.996 99.0517 185.518 98.241 186.075C97.4299 186.631 96.6355 186.615 96.4049 187.035C96.1739 187.454 94.9996 190.547 94.5882 190.959C94.1774 191.372 93.0335 191.638 92.4189 190.452C91.8042 189.265 90.0022 181.027 89.9844 181.144" fill="#E0E0E0"/>
<path d="M89.9844 181.142C89.9933 181.134 90.0336 181.285 90.1038 181.565C90.173 181.849 90.2731 182.263 90.402 182.795C90.6593 183.864 91.0219 185.413 91.5103 187.316C91.6334 187.792 91.7644 188.289 91.9101 188.805C92.0605 189.318 92.204 189.862 92.4309 190.385C92.5593 190.636 92.7312 190.877 92.968 191.043C93.2044 191.207 93.502 191.29 93.7975 191.258C93.9453 191.247 94.0925 191.208 94.2293 191.146C94.365 191.084 94.4981 191.002 94.5919 190.886C94.7743 190.644 94.9079 190.344 95.0478 190.055C95.3224 189.469 95.5781 188.855 95.8401 188.228C95.9711 187.914 96.1015 187.597 96.2404 187.278C96.2766 187.198 96.3106 187.119 96.352 187.039C96.3934 186.958 96.4563 186.879 96.5312 186.826C96.679 186.713 96.8488 186.653 97.0133 186.59C97.345 186.471 97.6777 186.356 97.9838 186.179C98.2919 186.008 98.5754 185.781 98.754 185.472C98.7996 185.395 98.8353 185.314 98.8882 185.23C98.9154 185.19 98.9547 185.139 99.0187 185.126C99.049 185.114 99.0763 185.123 99.1051 185.122L99.1795 185.142C99.2728 185.18 99.3462 185.22 99.4311 185.242C99.5138 185.266 99.5993 185.27 99.6831 185.254C99.8523 185.222 100.014 185.13 100.171 185.038C100.33 184.944 100.486 184.844 100.644 184.744C100.959 184.544 101.28 184.352 101.609 184.185C101.938 184.015 102.271 183.867 102.556 183.648L102.66 183.565C102.671 183.551 102.682 183.537 102.694 183.524C102.704 183.507 102.712 183.486 102.721 183.468C102.756 183.391 102.779 183.304 102.798 183.217C102.838 183.044 102.863 182.866 102.884 182.688C102.925 182.332 102.949 181.977 102.966 181.624C103.03 180.213 103.014 178.848 102.954 177.55C102.938 177.226 102.918 176.906 102.89 176.591C102.876 176.434 102.861 176.278 102.839 176.125C102.816 175.974 102.799 175.813 102.74 175.685C102.674 175.561 102.559 175.457 102.446 175.363C102.331 175.268 102.211 175.181 102.087 175.1C101.841 174.936 101.588 174.791 101.336 174.655C100.323 174.119 99.3299 173.709 98.3967 173.434C98.163 173.368 97.9319 173.311 97.7045 173.278C97.4771 173.248 97.2517 173.246 97.0332 173.251C96.5957 173.265 96.1828 173.304 95.7987 173.349C95.0295 173.438 94.3703 173.546 93.8321 173.635C93.294 173.725 92.8774 173.802 92.5949 173.854C92.4561 173.88 92.3492 173.9 92.2737 173.913C92.2014 173.927 92.1637 173.931 92.1637 173.931C92.1637 173.931 92.1999 173.92 92.2716 173.904C92.3471 173.888 92.4529 173.865 92.5913 173.835C92.8727 173.777 93.2887 173.694 93.8258 173.598C94.3634 173.504 95.0221 173.39 95.7924 173.296C96.1775 173.248 96.591 173.207 97.0317 173.191C97.2517 173.184 97.4802 173.185 97.7134 173.215C97.9455 173.247 98.1787 173.304 98.415 173.369C99.3561 173.642 100.353 174.05 101.372 174.585C101.627 174.721 101.882 174.867 102.131 175.031C102.256 175.113 102.379 175.201 102.497 175.298C102.614 175.397 102.733 175.5 102.814 175.647C102.883 175.802 102.896 175.956 102.921 176.112C102.944 176.267 102.96 176.424 102.974 176.583C103.003 176.899 103.024 177.22 103.04 177.545C103.102 178.844 103.121 180.211 103.058 181.628C103.04 181.981 103.017 182.339 102.975 182.698C102.954 182.877 102.929 183.057 102.888 183.237C102.868 183.327 102.845 183.417 102.805 183.506C102.794 183.528 102.785 183.551 102.772 183.573L102.72 183.637L102.611 183.723C102.316 183.949 101.976 184.1 101.651 184.268C101.324 184.434 101.007 184.623 100.693 184.824C100.535 184.923 100.378 185.023 100.218 185.119C100.057 185.212 99.8917 185.309 99.6978 185.346C99.5007 185.392 99.299 185.299 99.1465 185.23C99.0616 185.199 99.0092 185.207 98.9642 185.282C98.9196 185.353 98.8798 185.439 98.8326 185.519C98.644 185.846 98.3417 186.085 98.0278 186.26C97.7134 186.442 97.3717 186.558 97.0432 186.676C96.8807 186.738 96.7152 186.798 96.5852 186.898C96.4484 186.99 96.3971 187.157 96.3222 187.314C96.1838 187.631 96.0528 187.949 95.9213 188.262C95.6583 188.889 95.4015 189.503 95.1243 190.092C94.9807 190.385 94.8529 190.678 94.6543 190.941C94.5479 191.07 94.4054 191.156 94.2613 191.222C94.1156 191.288 93.96 191.328 93.8033 191.34C93.4899 191.373 93.1708 191.284 92.9209 191.109C92.6699 190.93 92.4917 190.68 92.3591 190.418C92.1281 189.88 91.9887 189.34 91.8388 188.824C91.6947 188.307 91.5653 187.808 91.4442 187.332C90.9637 185.425 90.6111 183.874 90.3648 182.803C90.2432 182.27 90.1489 181.854 90.0839 181.568C90.052 181.43 90.0279 181.323 90.0101 181.247C89.9949 181.177 89.9854 181.137 89.9844 181.142Z" fill="#263238"/>
<path d="M101.133 180.697C101.13 180.697 101.127 180.65 101.126 180.56C101.125 180.461 101.123 180.33 101.121 180.167C101.115 179.826 101.117 179.33 101.037 178.727C100.956 178.13 100.779 177.406 100.315 176.753C100.086 176.429 99.7841 176.128 99.4063 175.924C99.029 175.718 98.5868 175.613 98.1314 175.58C97.6745 175.548 97.2244 175.579 96.7921 175.624C96.3598 175.669 95.9453 175.735 95.5544 175.815C94.7721 175.977 94.0825 176.192 93.5181 176.411C92.9543 176.63 92.5073 176.837 92.2134 177.002C92.0667 177.086 91.9608 177.164 91.8916 177.219C91.8225 177.275 91.7879 177.308 91.7853 177.305C91.7842 177.304 91.7916 177.294 91.8067 177.277C91.8219 177.26 91.846 177.236 91.8791 177.205C91.9451 177.144 92.0494 177.06 92.1945 176.97C92.3396 176.879 92.5246 176.784 92.7426 176.68C92.9601 176.574 93.2111 176.462 93.494 176.349C94.0579 176.122 94.7495 175.898 95.5366 175.73C95.9301 175.647 96.3472 175.579 96.7827 175.532C97.217 175.486 97.6719 175.453 98.1382 175.486C98.603 175.519 99.0594 175.627 99.4503 175.842C99.8423 176.056 100.153 176.369 100.386 176.702C100.858 177.376 101.029 178.115 101.103 178.719C101.175 179.329 101.163 179.826 101.158 180.167C101.152 180.33 101.148 180.461 101.144 180.56C101.14 180.65 101.136 180.697 101.133 180.697Z" fill="#263238"/>
<path d="M88.8803 183.661C88.8818 183.662 88.8677 183.676 88.8394 183.702C88.8053 183.731 88.7639 183.767 88.7131 183.811C88.5931 183.911 88.4296 184.047 88.2247 184.217C87.7924 184.57 87.1862 185.064 86.4568 185.658L86.4526 185.661L86.4473 185.664C86.0942 185.818 85.7064 185.988 85.2977 186.167L85.2751 186.177L85.2547 186.163C84.6385 185.724 83.9636 185.244 83.2577 184.742C82.9701 184.536 82.6876 184.335 82.4183 184.142L82.4036 184.131L82.4 184.114C82.3559 183.908 82.3287 183.704 82.3172 183.501C82.3072 183.298 82.3098 183.095 82.3586 182.9C82.3848 182.804 82.4162 182.706 82.478 182.624C82.5021 182.579 82.5472 182.548 82.5813 182.511L82.6855 182.424C82.8218 182.302 82.9523 182.178 83.078 182.057C83.5816 181.572 84.0217 181.128 84.3906 180.76C84.7538 180.396 85.0477 180.102 85.2584 179.892C85.3559 179.795 85.4344 179.718 85.4942 179.659C85.5487 179.607 85.5775 179.581 85.5801 179.582C85.5822 179.584 85.5571 179.615 85.5068 179.671C85.4496 179.733 85.3752 179.813 85.2825 179.914C85.0855 180.125 84.7973 180.428 84.4347 180.803C84.071 181.177 83.6361 181.625 83.1351 182.117C83.0099 182.239 82.8794 182.364 82.7427 182.488L82.6347 182.58C82.6075 182.613 82.5703 182.635 82.5498 182.675C82.498 182.744 82.4691 182.832 82.4456 182.921C82.401 183.102 82.3984 183.298 82.4089 183.495C82.4204 183.692 82.4482 183.894 82.4911 184.092L82.4728 184.065C82.7427 184.257 83.0251 184.459 83.3133 184.664C84.0181 185.168 84.6914 185.65 85.3066 186.091L85.2641 186.086C85.6739 185.91 86.0627 185.743 86.417 185.59L86.408 185.595C87.1458 185.012 87.7589 184.526 88.197 184.18C88.4076 184.017 88.5758 183.887 88.699 183.791C88.7529 183.751 88.797 183.718 88.8326 183.692C88.8625 183.67 88.8792 183.659 88.8803 183.661Z" fill="#263238"/>
<path d="M82.9074 183.843C82.9074 183.843 78.6305 186.348 77.4237 186.432C76.217 186.515 72.2891 185.659 72.2891 185.659C72.2891 185.659 74.5381 187.78 76.2018 188.236C77.8655 188.693 79.2609 189.008 80.9508 188.534C82.6407 188.06 85.3833 186.116 85.3833 186.116C85.3833 186.116 85.3712 183.615 82.9074 183.843Z" fill="white"/>
<path d="M82.9078 183.842C82.9073 183.84 82.9293 183.838 82.9728 183.836C83.021 183.833 83.0855 183.83 83.1677 183.826C83.2542 183.82 83.3616 183.814 83.4868 183.834C83.5502 183.84 83.6178 183.848 83.6902 183.855C83.763 183.864 83.8369 183.892 83.9171 183.911C84.233 183.997 84.614 184.199 84.9027 184.586C85.0468 184.777 85.1705 185.005 85.2548 185.265C85.3408 185.524 85.4036 185.807 85.4152 186.115L85.4157 186.131L85.4015 186.141C84.8519 186.527 84.2236 186.939 83.5209 187.359C82.8151 187.769 82.0416 188.212 81.1467 188.516C80.6976 188.661 80.2197 188.756 79.7245 188.796C79.2288 188.831 78.7179 188.811 78.206 188.735C77.6935 188.661 77.1784 188.543 76.6612 188.407C76.4024 188.341 76.1425 188.271 75.8815 188.18C75.7547 188.128 75.6268 188.077 75.5021 188.02C75.3795 187.957 75.2532 187.9 75.1332 187.832C74.0433 187.223 73.0996 186.456 72.2586 185.692L72.1328 185.578L72.2994 185.613C73.0917 185.783 73.861 185.936 74.6008 186.066C75.3407 186.196 76.0513 186.312 76.7267 186.371C77.0637 186.395 77.3964 186.423 77.7008 186.345C77.8533 186.3 78.0047 186.262 78.1488 186.206C78.2945 186.156 78.4365 186.101 78.5738 186.043C79.1251 185.815 79.6244 185.575 80.074 185.352C80.9727 184.901 81.6769 184.515 82.1606 184.251C82.3985 184.119 82.584 184.017 82.7145 183.945C82.7747 183.912 82.8219 183.886 82.858 183.867C82.8905 183.848 82.9073 183.84 82.9078 183.842C82.9083 183.844 82.8926 183.854 82.8617 183.874C82.8266 183.895 82.781 183.923 82.7223 183.959C82.594 184.034 82.4106 184.141 82.1758 184.278C81.6963 184.551 80.9963 184.946 80.0997 185.403C79.6512 185.631 79.1528 185.875 78.5995 186.107C78.4617 186.167 78.3197 186.222 78.1724 186.274C78.0278 186.332 77.8732 186.372 77.7181 186.417C77.3974 186.501 77.0595 186.473 76.7204 186.449C76.0392 186.392 75.3276 186.279 74.5862 186.152C73.8447 186.022 73.0744 185.872 72.2801 185.703L72.3209 185.624C73.1567 186.382 74.0999 187.147 75.1778 187.748C75.2967 187.816 75.4209 187.871 75.542 187.933C75.6651 187.989 75.7903 188.04 75.9145 188.091C76.166 188.179 76.4265 188.249 76.6848 188.316C77.2004 188.452 77.7118 188.569 78.2191 188.643C78.7263 188.718 79.2299 188.739 79.7182 188.706C80.2061 188.668 80.6787 188.576 81.121 188.434C82.0034 188.137 82.7779 187.699 83.4827 187.293C84.1853 186.879 84.8152 186.471 85.3659 186.09L85.3528 186.116C85.324 185.523 85.1443 184.989 84.8634 184.617C84.5857 184.237 84.2168 184.034 83.9071 183.945C83.8285 183.924 83.7562 183.895 83.6849 183.886C83.6136 183.877 83.5466 183.868 83.4842 183.861C83.36 183.838 83.2547 183.843 83.1693 183.844C83.087 183.845 83.0226 183.845 82.9749 183.845C82.9309 183.844 82.9083 183.843 82.9078 183.842Z" fill="#263238"/>
<path d="M74.3158 184.331C74.3152 184.342 74.1937 184.342 74.0071 184.295C73.8201 184.249 73.5727 184.157 73.3034 184.051C73.0341 183.946 72.7904 183.854 72.6096 183.808C72.4294 183.758 72.313 183.753 72.3125 183.738C72.3109 183.727 72.433 183.708 72.6238 183.742C72.815 183.773 73.0671 183.857 73.3375 183.962C73.6078 184.068 73.8484 184.168 74.026 184.23C74.2031 184.293 74.3168 184.316 74.3158 184.331Z" fill="#263238"/>
<path d="M73.0464 191.655C73.0506 191.665 72.8966 191.742 72.6309 191.818C72.3657 191.895 71.9885 191.965 71.5672 191.984C71.1459 192.002 70.7618 191.959 70.494 191.884C70.2252 191.812 70.0769 191.718 70.0822 191.71C70.089 191.695 70.2436 191.765 70.5092 191.819C70.7738 191.876 71.149 191.907 71.563 191.89C71.9769 191.871 72.349 191.813 72.6147 191.753C72.8809 191.695 73.0412 191.64 73.0464 191.655Z" fill="#263238"/>
<path d="M72.9043 189.305C72.8938 189.333 72.3761 189.125 71.7048 189.009C71.0341 188.887 70.4771 188.905 70.4766 188.875C70.476 188.863 70.6149 188.843 70.8407 188.84C71.0666 188.837 71.3799 188.855 71.7211 188.915C72.0617 188.976 72.3624 189.067 72.5736 189.147C72.7848 189.228 72.909 189.294 72.9043 189.305Z" fill="#263238"/>
<path d="M73.3873 193.497C73.3946 193.504 73.2783 193.639 73.0383 193.79C72.8009 193.944 72.4435 194.105 72.0327 194.228C71.6203 194.346 71.2331 194.403 70.9507 194.402C70.6677 194.405 70.4974 194.353 70.5 194.344C70.5026 194.328 70.6729 194.354 70.948 194.335C71.2231 194.319 71.601 194.253 72.006 194.136C72.41 194.016 72.7637 193.867 73.0042 193.731C73.2474 193.6 73.3763 193.485 73.3873 193.497Z" fill="#263238"/>
<path d="M74.4985 195.869C74.5058 195.878 74.4183 195.956 74.2564 196.05C74.0955 196.144 73.8628 196.253 73.5977 196.353C73.332 196.451 73.0852 196.521 72.9023 196.555C72.7195 196.59 72.6026 196.588 72.6016 196.576C72.6005 196.562 72.7116 196.541 72.8866 196.49C73.0622 196.44 73.3027 196.361 73.5647 196.264C73.8262 196.165 74.0599 196.068 74.2254 195.99C74.3926 195.914 74.4906 195.857 74.4985 195.869Z" fill="#263238"/>
<path d="M112.4 188.125C112.308 188.261 111.475 192.506 112.019 194.03C112.562 195.555 116.806 204.073 116.806 204.073L117.26 206.768C117.26 206.768 115.969 209.185 116.164 209.556C116.359 209.927 116.661 209.954 116.661 209.954L123.878 208.721L123.926 208.083L123.088 206.985L122.752 206.35C122.752 206.35 122.137 202.7 122.155 202.465C122.173 202.231 122.004 192.38 122.004 192.38L121.813 185.458C121.813 185.458 120.517 182.871 119.548 181.881C118.579 180.892 113.631 179.773 113.631 179.773L112.4 188.125Z" fill="#E0E0E0"/>
<path d="M124.701 197.083C124.752 197.157 124.385 197.89 124.842 198.884C125.3 199.878 127.353 201.152 127.484 201.162C127.615 201.172 127.21 200.494 127.21 200.494C127.21 200.494 128.556 201.014 129.177 200.874C129.799 200.734 129.334 200.848 129.334 200.848L129.71 200.784C129.71 200.784 128.26 200.217 127.876 199.47C127.492 198.723 126.419 197.374 125.925 197.171C125.43 196.968 125.17 197.002 125.17 197.002L124.701 197.083Z" fill="#263238"/>
<path d="M121.813 185.461C121.813 185.461 123.154 186.881 123.569 189.342C123.983 191.803 124.186 193.004 124.759 194.963C125.333 196.922 126.23 198.982 126.23 198.982C126.23 198.982 124.664 197.297 124.249 196.284C123.835 195.272 123.182 193.969 123.043 192.763C122.904 191.557 122.614 190.561 121.581 189.138C120.549 187.717 121.813 185.461 121.813 185.461Z" fill="#E0E0E0"/>
<g opacity="0.3">
<path d="M85.4061 187.17L86.126 186.626L87.3946 186.259L88.5972 183.895L86.4357 185.631L85.3851 186.116L84.6641 186.603L85.4061 187.17Z" fill="black"/>
</g>
<path d="M73.2109 187.187C73.1984 187.21 72.7619 186.974 72.175 186.814C71.5913 186.643 71.0971 186.616 71.0977 186.59C71.0956 186.564 71.6049 186.549 72.2002 186.723C72.7991 186.886 73.2267 187.166 73.2109 187.187Z" fill="#263238"/>
<path d="M129.684 200.788C129.661 200.792 129.554 200.812 129.309 200.856L129.307 200.849C129.334 200.842 129.362 200.835 129.392 200.828C129.407 200.824 129.422 200.82 129.438 200.815L129.462 200.809C129.465 200.809 129.472 200.806 129.472 200.806C129.475 200.821 129.466 200.811 129.463 200.815C129.397 200.83 129.324 200.845 129.246 200.863C129.09 200.905 128.9 200.92 128.691 200.897C128.27 200.854 127.762 200.721 127.181 200.508L127.193 200.494C127.285 200.652 127.382 200.819 127.461 201.007C127.475 201.056 127.507 201.1 127.488 201.164C127.475 201.183 127.453 201.178 127.443 201.173C127.43 201.168 127.416 201.164 127.404 201.159L127.333 201.123C127.24 201.073 127.148 201.017 127.054 200.96C126.682 200.725 126.292 200.452 125.897 200.125C125.7 199.963 125.502 199.786 125.313 199.587C125.126 199.388 124.936 199.171 124.809 198.904C124.683 198.639 124.601 198.343 124.575 198.033C124.563 197.878 124.568 197.719 124.587 197.56C124.596 197.481 124.61 197.401 124.625 197.322L124.65 197.204C124.657 197.167 124.667 197.117 124.662 197.097L124.656 197.073L124.673 197.07L124.662 197.097C124.506 196.865 124.353 196.621 124.232 196.351C124.117 196.081 123.999 195.805 123.878 195.522C123.636 194.957 123.384 194.364 123.197 193.72C122.984 193.079 122.993 192.367 122.802 191.676C122.627 190.979 122.302 190.301 121.885 189.66L121.927 189.647C121.955 190.804 122.004 192.026 122.02 193.309C122.042 194.592 122.065 195.936 122.088 197.337C122.109 198.738 122.132 200.196 122.154 201.708C122.157 201.897 122.158 202.087 122.16 202.278C122.162 202.373 122.156 202.474 122.164 202.562C122.174 202.657 122.186 202.752 122.199 202.847C122.251 203.227 122.311 203.611 122.372 203.997C122.498 204.769 122.627 205.553 122.758 206.35L122.754 206.341C122.855 206.53 122.973 206.753 123.091 206.977L123.089 206.972C123.34 207.302 123.633 207.684 123.927 208.07L123.934 208.08L123.933 208.092C123.919 208.283 123.903 208.506 123.886 208.73L123.884 208.755L123.859 208.759C121.611 209.145 119.173 209.562 116.642 209.996L116.637 209.997L116.633 209.996C116.48 209.972 116.35 209.888 116.247 209.777C116.196 209.721 116.152 209.659 116.116 209.592C116.071 209.513 116.084 209.428 116.093 209.353C116.144 209.051 116.262 208.767 116.378 208.479C116.619 207.905 116.903 207.33 117.204 206.758L117.201 206.781C117.062 205.962 116.905 205.029 116.746 204.086L116.749 204.096C116.014 202.601 115.196 200.939 114.362 199.243L114.408 199.263C113.181 199.672 111.934 200.089 110.668 200.511C110.035 200.722 109.397 200.935 108.754 201.149C108.587 201.189 108.418 201.231 108.248 201.242C108.077 201.266 107.906 201.267 107.735 201.275C107.393 201.282 107.05 201.269 106.706 201.247C105.335 201.148 103.956 200.929 102.578 200.627C102.234 200.55 101.89 200.465 101.549 200.364C101.205 200.262 100.882 200.115 100.549 199.986C99.8866 199.72 99.2206 199.454 98.5509 199.185L98.608 199.155C98.5116 199.6 98.4021 200.106 98.292 200.614L98.2931 200.605C98.2747 201.496 98.2197 202.402 98.1301 203.32C98.0353 204.237 97.9121 205.169 97.6737 206.091C97.5642 206.555 97.3708 206.996 97.2346 207.451C97.0936 207.907 96.9731 208.372 96.873 208.844C96.6734 209.788 96.5267 210.754 96.4402 211.729L96.4256 211.692C96.6944 211.93 96.9978 212.198 97.3017 212.467L97.3321 212.494L97.3074 212.528C97.2016 212.676 97.112 212.857 97.1078 213.041C97.1067 213.063 97.1088 213.086 97.1115 213.108L97.113 213.129C97.113 213.143 97.112 213.159 97.1067 213.168C97.0973 213.191 97.0847 213.201 97.0732 213.214C97.0261 213.253 96.9789 213.274 96.9312 213.295C96.8358 213.335 96.7394 213.365 96.642 213.394C96.2511 213.504 95.8476 213.583 95.4378 213.658C95.2329 213.695 95.0254 213.73 94.8184 213.762C94.612 213.801 94.404 213.841 94.1954 213.88C93.7783 213.96 93.358 214.04 92.9373 214.12L92.8854 214.13L92.8838 214.079C92.8833 214.054 92.8823 214.027 92.8817 213.999L92.9341 214.042C92.1471 214.193 91.271 214.362 90.3912 214.532L90.3728 214.535L90.3592 214.526C90.1491 214.388 89.9657 214.197 89.863 213.947C89.841 213.883 89.8189 213.821 89.8148 213.75C89.8079 213.674 89.8258 213.609 89.841 213.542C89.8824 213.414 89.9332 213.29 89.9955 213.174C90.2413 212.703 90.5526 212.26 90.878 211.827L90.8685 211.856C90.8292 210.711 90.7857 209.448 90.7422 208.178L90.7532 208.206C90.3073 207.677 89.8677 207.138 89.4275 206.593C88.9874 206.048 88.5467 205.498 88.1338 204.919C87.7287 204.339 87.3331 203.724 87.1418 203.016C87.0994 202.832 87.0984 202.648 87.1062 202.466C87.1135 202.284 87.1314 202.103 87.1549 201.923C87.2016 201.564 87.2671 201.206 87.341 200.85C87.4898 200.139 87.6716 199.432 87.8728 198.728C88.0756 198.025 88.2941 197.323 88.5551 196.631C88.6221 196.458 88.6908 196.287 88.7746 196.118C88.7935 196.076 88.8213 196.034 88.8427 195.994C88.86 195.954 88.8841 195.92 88.8967 195.876C88.9276 195.794 88.9481 195.705 88.968 195.617C89.0361 195.258 89.0618 194.889 89.0801 194.52C89.1121 193.78 89.1026 193.036 89.0812 192.291L89.0864 192.312C88.456 191.121 87.7722 189.829 87.0852 188.531L87.0983 188.546C86.3144 187.947 85.464 187.297 84.6114 186.645L84.6654 186.647C84.1791 186.965 83.6646 187.284 83.128 187.588C82.5898 187.889 82.0318 188.185 81.4423 188.414C80.7978 188.667 80.1113 188.794 79.4249 188.817C78.7369 188.84 78.0531 188.74 77.3881 188.595L77.4347 188.578C76.8851 189.281 76.3883 190.025 75.9429 190.794C75.7218 191.179 75.5132 191.572 75.3293 191.975C75.148 192.377 74.9819 192.791 74.9059 193.221C74.8126 193.649 74.9447 194.091 75.1915 194.443C75.3146 194.621 75.4671 194.777 75.628 194.922C75.7936 195.062 75.9712 195.187 76.1572 195.298C76.3448 195.406 76.5408 195.501 76.7441 195.567C76.8484 195.598 76.9432 195.626 77.0496 195.615C77.156 195.608 77.2634 195.596 77.3708 195.58C77.8 195.515 78.2265 195.424 78.6494 195.328L78.6289 195.409C78.4461 195.243 78.2721 195.07 78.107 194.888C77.9425 194.705 77.7848 194.515 77.6622 194.295C77.6328 194.239 77.6061 194.181 77.5867 194.118C77.5746 194.088 77.5746 194.049 77.5694 194.015C77.5673 193.979 77.5794 193.943 77.5862 193.908C77.6454 193.77 77.7701 193.702 77.8828 193.652C78.117 193.555 78.3606 193.522 78.6064 193.503L78.565 193.565C78.4529 193.229 78.3706 192.885 78.3282 192.534C78.3093 192.356 78.2957 192.185 78.3166 191.996C78.325 191.948 78.3528 191.887 78.4078 191.86C78.4597 191.83 78.5152 191.831 78.5624 191.837C78.6577 191.851 78.7411 191.886 78.8218 191.924C79.1388 192.084 79.4165 192.295 79.6921 192.506C79.9662 192.718 80.2318 192.941 80.4944 193.165L80.8874 193.5C81.0273 193.627 81.1048 193.798 81.1551 193.966C81.2536 194.307 81.273 194.658 81.2767 195.003C81.2772 195.696 81.1991 196.382 81.0854 197.06L81.0828 197.075L81.0718 197.085C80.727 197.399 80.3519 197.677 79.9489 197.906C79.5428 198.128 79.1199 198.316 78.6829 198.46C77.8078 198.738 76.8924 198.894 75.9785 198.845C75.7506 198.827 75.5221 198.806 75.2994 198.734C75.0773 198.664 74.8766 198.55 74.6827 198.432C74.2944 198.195 73.9292 197.928 73.5713 197.653C72.8571 197.102 72.1801 196.511 71.5382 195.889C71.3794 195.731 71.2222 195.572 71.0697 195.409C70.9188 195.245 70.7653 195.082 70.6395 194.891C70.3911 194.509 70.2554 194.072 70.1658 193.636C69.9924 192.758 70.0139 191.861 70.06 190.989C70.0657 190.106 70.2261 189.237 70.4304 188.394C70.64 187.549 70.901 186.723 71.2133 185.923C71.5256 185.123 71.8641 184.338 72.2576 183.586C72.4421 183.203 72.6606 182.841 72.8613 182.469L73.1882 181.929C73.2967 181.749 73.4052 181.57 73.5247 181.397C74.4474 180.002 75.4818 178.691 76.7101 177.613C77.9336 176.533 79.2713 175.629 80.6468 174.849C82.0307 174.082 83.4445 173.416 84.8944 172.906L84.8823 172.913C85.5814 172.378 86.2945 171.877 87.0638 171.484C87.1596 171.435 87.2597 171.394 87.3577 171.349C87.4604 171.314 87.5579 171.266 87.6653 171.244C87.7188 171.232 87.7696 171.214 87.8246 171.207L87.9897 171.191L88.3109 171.215C88.7343 171.272 89.1461 171.377 89.5459 171.507C90.3466 171.764 91.109 172.098 91.8536 172.444C92.5972 172.793 93.3198 173.166 94.023 173.558L93.9984 173.554C94.9992 173.389 95.987 173.234 96.9716 173.193C97.2173 173.185 97.4646 173.186 97.7093 173.221C97.9525 173.259 98.1893 173.317 98.422 173.383C98.8878 173.517 99.3385 173.684 99.7797 173.863C100.22 174.044 100.651 174.239 101.068 174.451C101.486 174.664 101.893 174.891 102.272 175.159C102.458 175.298 102.65 175.435 102.777 175.645C102.837 175.756 102.848 175.872 102.871 175.985C102.89 176.099 102.905 176.213 102.917 176.326C102.967 176.781 102.993 177.233 103.015 177.682L102.995 177.652C104.122 178.166 105.133 178.627 106.124 179.079L106.103 179.077C107.422 178.761 108.707 178.488 109.96 178.276C110.588 178.169 111.208 178.081 111.821 178.023C112.434 177.97 113.044 177.927 113.639 178.018C114.233 178.129 114.773 178.383 115.278 178.661C115.783 178.942 116.261 179.251 116.715 179.576C117.623 180.228 118.457 180.915 119.226 181.62L119.244 181.637L119.229 181.656L119.228 181.656L119.222 181.618C119.315 181.678 119.407 181.742 119.489 181.816C119.573 181.891 119.639 181.975 119.713 182.053C119.853 182.216 119.98 182.383 120.101 182.549C120.34 182.883 120.553 183.217 120.753 183.544C121.152 184.2 121.495 184.832 121.813 185.454L121.809 185.448C122.255 185.958 122.588 186.526 122.861 187.095C123.13 187.667 123.33 188.248 123.463 188.824C123.59 189.402 123.667 189.965 123.764 190.505C123.857 191.046 123.948 191.566 124.046 192.064C124.434 194.06 124.951 195.699 125.443 197.026L125.433 197.017C125.556 197.041 125.675 197.076 125.788 197.118C125.902 197.156 126.011 197.211 126.105 197.282C126.294 197.421 126.452 197.583 126.601 197.741C126.896 198.059 127.143 198.374 127.359 198.673C127.574 198.972 127.752 199.258 127.895 199.525C128.051 199.784 128.264 199.962 128.453 200.105C128.841 200.387 129.161 200.542 129.371 200.645C129.578 200.745 129.684 200.788 129.684 200.788C129.684 200.788 129.576 200.749 129.364 200.65C129.153 200.549 128.831 200.395 128.441 200.115C128.25 199.972 128.035 199.794 127.875 199.532C127.731 199.265 127.553 198.982 127.338 198.683C127.122 198.386 126.874 198.071 126.579 197.756C126.431 197.599 126.273 197.438 126.086 197.302C125.993 197.232 125.889 197.181 125.775 197.142C125.662 197.101 125.545 197.067 125.424 197.043L125.416 197.042L125.414 197.035C124.918 195.709 124.398 194.069 124.005 192.072C123.906 191.573 123.814 191.053 123.721 190.512C123.623 189.972 123.545 189.407 123.417 188.834C123.284 188.261 123.085 187.683 122.817 187.114C122.545 186.549 122.211 185.983 121.77 185.481L121.768 185.478L121.766 185.475C121.449 184.856 121.104 184.225 120.706 183.571C120.506 183.245 120.294 182.912 120.055 182.58C119.934 182.415 119.807 182.249 119.669 182.088C119.596 182.012 119.529 181.926 119.45 181.856C119.37 181.785 119.281 181.722 119.189 181.663L119.165 181.647L119.182 181.625L119.183 181.624L119.186 181.66C118.419 180.957 117.584 180.271 116.679 179.623C116.225 179.299 115.749 178.992 115.246 178.712C114.744 178.436 114.206 178.185 113.625 178.077C113.042 177.988 112.432 178.031 111.823 178.083C111.211 178.142 110.592 178.23 109.967 178.337C108.715 178.551 107.431 178.825 106.114 179.14L106.103 179.143L106.093 179.138C105.101 178.687 104.09 178.227 102.962 177.714L102.944 177.705L102.943 177.684C102.921 177.236 102.894 176.785 102.845 176.334C102.832 176.221 102.817 176.108 102.798 175.996C102.777 175.887 102.762 175.768 102.711 175.677C102.6 175.492 102.409 175.35 102.227 175.216C101.854 174.952 101.448 174.726 101.032 174.515C100.616 174.304 100.187 174.11 99.7482 173.93C99.3091 173.752 98.86 173.585 98.3979 173.453C98.1668 173.388 97.932 173.33 97.6942 173.293C97.4568 173.259 97.2136 173.259 96.9695 173.266C95.9927 173.308 95.0055 173.462 94.0068 173.628L93.9937 173.63L93.9821 173.623C93.2805 173.234 92.5589 172.861 91.817 172.513C91.0739 172.168 90.3136 171.836 89.5182 171.581C89.121 171.452 88.7133 171.348 88.2978 171.293C87.8754 171.205 87.4762 171.366 87.0947 171.555C86.3354 171.942 85.6222 172.444 84.9279 172.976L84.9227 172.98L84.9159 172.982C83.4749 173.49 82.0622 174.156 80.6835 174.921C79.3122 175.699 77.9792 176.601 76.7619 177.676C75.5405 178.748 74.5124 180.053 73.5928 181.444C73.4738 181.616 73.3659 181.795 73.2579 181.974L72.932 182.512C72.7324 182.882 72.5144 183.243 72.331 183.625C71.9395 184.375 71.6026 185.157 71.2914 185.954C70.9806 186.752 70.7212 187.575 70.5127 188.415C70.3094 189.255 70.1511 190.115 70.1454 190.991C70.0987 191.868 70.0788 192.752 70.2502 193.618C70.3382 194.047 70.4723 194.474 70.7113 194.841C70.8302 195.022 70.9822 195.184 71.1321 195.347C71.283 195.51 71.4397 195.667 71.5979 195.824C72.2367 196.444 72.9121 197.033 73.6232 197.581C73.979 197.854 74.3431 198.12 74.7262 198.354C74.9174 198.471 75.1139 198.582 75.3235 198.647C75.5326 198.715 75.7579 198.737 75.9806 198.755C76.8782 198.802 77.7869 198.648 78.6509 198.373C79.0827 198.231 79.5003 198.045 79.9007 197.826C80.2979 197.601 80.6668 197.327 81.0058 197.019L80.9922 197.044C81.1048 196.373 81.1824 195.689 81.1813 195.005C81.1782 194.664 81.1578 194.318 81.064 193.995C81.0168 193.835 80.9424 193.679 80.825 193.573L80.432 193.238C80.1695 193.014 79.9049 192.793 79.6329 192.582C79.3604 192.373 79.0822 192.164 78.7793 192.011C78.7039 191.975 78.6247 191.943 78.5488 191.932C78.4691 191.921 78.4157 191.944 78.4057 192.017C78.3889 192.175 78.3999 192.356 78.4188 192.525C78.4597 192.867 78.5419 193.208 78.6509 193.536L78.6703 193.594L78.6096 193.599C78.3753 193.616 78.1327 193.651 77.9179 193.741C77.8131 193.786 77.7104 193.851 77.6721 193.943C77.6386 194.035 77.6889 194.148 77.7428 194.252C77.8581 194.459 78.0127 194.648 78.1746 194.827C78.3371 195.006 78.5105 195.178 78.6892 195.341L78.7568 195.402L78.6688 195.422C78.2433 195.518 77.8167 195.61 77.3823 195.675C77.2733 195.691 77.1638 195.704 77.0522 195.711C76.939 195.723 76.818 195.691 76.7142 195.659C76.5015 195.589 76.3008 195.492 76.1085 195.382C75.9172 195.268 75.7354 195.139 75.5651 194.995C75.3995 194.846 75.2418 194.685 75.1129 194.499C74.8546 194.134 74.7136 193.657 74.8116 193.207C74.8902 192.762 75.0595 192.344 75.2418 191.937C75.4273 191.53 75.6369 191.136 75.8596 190.749C76.3076 189.975 76.8059 189.229 77.3588 188.521L77.3766 188.498L77.4054 188.504C78.0667 188.648 78.7416 188.747 79.4197 188.724C80.0951 188.702 80.7737 188.576 81.4061 188.327C82.5673 187.86 83.6394 187.197 84.612 186.569L84.6397 186.551L84.6659 186.572C85.519 187.224 86.3689 187.874 87.1528 188.473L87.1612 188.48L87.1659 188.489C87.8529 189.787 88.5367 191.079 89.1666 192.27L89.1718 192.28L89.1723 192.291C89.1938 193.037 89.2038 193.782 89.1708 194.526C89.1524 194.898 89.1268 195.269 89.0571 195.637C89.0361 195.729 89.0151 195.821 88.9816 195.911C88.9685 195.957 88.9402 196.001 88.9198 196.045C88.8983 196.086 88.8747 196.121 88.8553 196.163C88.7746 196.324 88.7065 196.495 88.64 196.666C88.3806 197.353 88.1621 198.053 87.9598 198.755C87.7596 199.457 87.5778 200.162 87.4295 200.871C87.3561 201.225 87.2906 201.58 87.2445 201.936C87.2215 202.114 87.2037 202.293 87.1963 202.471C87.1885 202.648 87.1911 202.828 87.2293 202.994C87.4143 203.68 87.8042 204.289 88.2071 204.866C88.6174 205.441 89.0576 205.991 89.4972 206.536C89.9369 207.08 90.377 207.619 90.8208 208.147L90.8313 208.159L90.8318 208.175C90.8753 209.446 90.9183 210.709 90.9576 211.854L90.9581 211.87L90.9482 211.883C90.6259 212.313 90.3152 212.755 90.0747 213.215C89.9641 213.448 89.8336 213.686 89.9458 213.915C90.0359 214.138 90.2125 214.323 90.4043 214.449L90.3718 214.444C91.2526 214.274 92.1298 214.105 92.9174 213.954L92.9687 213.944L92.9703 213.996C92.9708 214.023 92.9719 214.049 92.9724 214.073L92.9195 214.032C93.3408 213.952 93.7615 213.872 94.1786 213.793C94.3872 213.753 94.5952 213.713 94.8022 213.674C95.0113 213.642 95.2161 213.608 95.421 213.571C95.8292 213.497 96.2317 213.418 96.6163 213.309C96.7122 213.282 96.8065 213.252 96.8956 213.214C96.9391 213.196 96.9836 213.174 97.0124 213.149C97.0177 213.144 97.024 213.137 97.0234 213.136C97.025 213.134 97.0302 213.138 97.0329 213.137C97.0161 213.14 97.0271 213.126 97.0229 213.122C97.0192 213.095 97.0171 213.068 97.0182 213.041C97.0255 212.825 97.1209 212.638 97.2367 212.475L97.2425 212.535C96.9385 212.267 96.6357 211.998 96.3668 211.761L96.3501 211.746L96.3522 211.724C96.4392 210.743 96.5864 209.776 96.7876 208.827C96.8882 208.353 97.0093 207.885 97.1518 207.426C97.2907 206.964 97.4825 206.529 97.5904 206.07C97.8272 205.157 97.9504 204.227 98.0452 203.313C98.1348 202.398 98.1904 201.493 98.2082 200.606V200.601L98.2092 200.597C98.3193 200.089 98.4288 199.584 98.5257 199.138L98.5362 199.089L98.5828 199.107C99.252 199.376 99.917 199.643 100.579 199.908C100.91 200.037 101.236 200.185 101.573 200.285C101.911 200.385 102.253 200.47 102.596 200.547C103.969 200.848 105.346 201.068 106.711 201.167C107.053 201.189 107.393 201.202 107.732 201.195C107.902 201.188 108.071 201.187 108.238 201.163C108.407 201.152 108.568 201.112 108.73 201.074C109.372 200.86 110.01 200.647 110.643 200.437C111.909 200.015 113.156 199.599 114.383 199.19L114.415 199.18L114.43 199.21C115.263 200.907 116.08 202.569 116.815 204.065L116.818 204.07L116.819 204.075C116.977 205.019 117.134 205.951 117.272 206.771L117.274 206.783L117.268 206.794C116.968 207.364 116.684 207.939 116.444 208.508C116.329 208.793 116.212 209.078 116.164 209.364C116.154 209.434 116.147 209.508 116.178 209.559C116.212 209.622 116.253 209.679 116.299 209.73C116.391 209.831 116.516 209.907 116.64 209.927L116.632 209.928C119.163 209.496 121.601 209.08 123.849 208.696L123.822 208.725C123.839 208.501 123.855 208.279 123.87 208.088L123.876 208.11C123.582 207.724 123.29 207.342 123.038 207.013L123.037 207.01L123.036 207.008C122.917 206.785 122.8 206.562 122.699 206.373L122.697 206.368L122.696 206.363C122.566 205.566 122.438 204.78 122.312 204.008C122.252 203.622 122.192 203.238 122.14 202.857C122.127 202.761 122.115 202.665 122.106 202.569C122.097 202.466 122.103 202.376 122.102 202.28C122.1 202.089 122.098 201.9 122.096 201.711C122.075 200.199 122.054 198.741 122.034 197.34C122.012 195.939 121.99 194.596 121.97 193.312C121.955 192.029 121.908 190.808 121.881 189.65L121.879 189.568L121.923 189.637C122.342 190.281 122.669 190.965 122.845 191.667C123.036 192.367 123.026 193.075 123.236 193.712C123.421 194.353 123.672 194.945 123.913 195.51C124.033 195.793 124.15 196.07 124.265 196.34C124.384 196.606 124.536 196.85 124.691 197.081L124.705 197.103L124.679 197.108L124.691 197.081C124.708 197.14 124.688 197.172 124.683 197.214L124.659 197.333C124.643 197.411 124.629 197.489 124.62 197.568C124.602 197.724 124.597 197.88 124.608 198.033C124.634 198.339 124.714 198.632 124.837 198.894C124.962 199.155 125.148 199.372 125.335 199.569C125.522 199.768 125.719 199.944 125.916 200.107C126.308 200.434 126.698 200.708 127.068 200.943C127.161 201 127.253 201.056 127.345 201.106C127.387 201.126 127.447 201.164 127.471 201.154C127.482 201.119 127.458 201.061 127.442 201.018C127.365 200.832 127.268 200.664 127.178 200.506L127.164 200.482L127.19 200.492C127.769 200.706 128.275 200.841 128.693 200.886C128.903 200.909 129.089 200.896 129.245 200.854C129.324 200.838 129.397 200.822 129.463 200.809C129.469 200.811 129.468 200.8 129.48 200.814C129.473 200.819 129.471 200.818 129.466 200.82L129.442 200.826C129.426 200.83 129.411 200.834 129.396 200.838C129.366 200.845 129.337 200.852 129.31 200.858L129.309 200.851C129.553 200.809 129.661 200.792 129.684 200.788Z" fill="#263238"/>
<path d="M90.9389 211.849C90.9374 211.849 90.9353 211.828 90.9326 211.787C90.9306 211.74 90.9279 211.68 90.9243 211.603C90.9185 211.437 90.9106 211.2 90.9007 210.899C90.8839 210.28 90.8598 209.395 90.8305 208.305C90.7802 206.11 90.711 203.087 90.6345 199.748C90.5999 198.055 90.5669 196.445 90.537 194.984L90.5423 195.004C89.542 193.098 88.691 191.477 88.0868 190.327C87.7913 189.756 87.556 189.303 87.392 188.987C87.3149 188.835 87.2542 188.716 87.2107 188.63C87.1923 188.592 87.1777 188.561 87.1656 188.537C87.1557 188.516 87.1515 188.504 87.1525 188.504C87.1535 188.503 87.1604 188.513 87.1719 188.533C87.1855 188.557 87.2023 188.586 87.2232 188.622C87.2699 188.707 87.3343 188.824 87.4166 188.973C87.5859 189.287 87.8285 189.736 88.1334 190.301C88.7449 191.448 89.6064 193.063 90.6188 194.962L90.6235 194.971V194.981C90.656 196.442 90.6911 198.053 90.7288 199.745C90.7943 203.085 90.854 206.108 90.897 208.303C90.9138 209.394 90.9279 210.279 90.9374 210.897C90.94 211.199 90.9421 211.436 90.9436 211.603C90.9431 211.679 90.9431 211.74 90.9431 211.787C90.9415 211.828 90.9405 211.849 90.9389 211.849Z" fill="#263238"/>
<path d="M100.035 194.609C100.04 194.608 100.063 194.684 100.09 194.823C100.118 194.963 100.143 195.168 100.151 195.423C100.165 195.93 100.076 196.652 99.7342 197.357C99.566 197.709 99.3658 198.02 99.1861 198.301C99.0053 198.582 98.8445 198.834 98.7218 199.054C98.4735 199.492 98.3844 199.793 98.3681 199.788C98.3629 199.786 98.3791 199.709 98.4232 199.574C98.4677 199.439 98.5463 199.248 98.6632 199.022C98.7795 198.796 98.9356 198.538 99.1127 198.255C99.2883 197.971 99.4843 197.661 99.6488 197.316C99.9831 196.627 100.08 195.924 100.084 195.424C100.087 194.92 100.017 194.613 100.035 194.609Z" fill="#263238"/>
<path d="M112.374 185.645C112.375 185.645 112.375 185.659 112.373 185.687C112.37 185.721 112.365 185.762 112.36 185.811C112.347 185.928 112.329 186.087 112.306 186.287C112.258 186.7 112.188 187.298 112.112 188.037C112.036 188.776 111.953 189.657 111.893 190.637C111.863 191.127 111.841 191.642 111.838 192.176C111.839 192.443 111.841 192.714 111.861 192.988C111.881 193.261 111.906 193.541 111.982 193.806C112.969 195.826 113.831 197.704 114.442 199.053C114.743 199.724 114.988 200.271 115.162 200.658C115.242 200.842 115.305 200.989 115.352 201.096C115.371 201.142 115.386 201.18 115.399 201.212C115.409 201.238 115.414 201.252 115.412 201.252C115.41 201.253 115.403 201.241 115.39 201.216C115.375 201.186 115.356 201.149 115.334 201.104C115.284 200.998 115.215 200.855 115.128 200.673C114.948 200.289 114.694 199.747 114.382 199.081C113.752 197.733 112.89 195.881 111.892 193.833C111.812 193.553 111.787 193.27 111.767 192.994C111.748 192.717 111.747 192.444 111.746 192.175C111.75 191.639 111.775 191.123 111.806 190.632C111.871 189.65 111.962 188.769 112.046 188.03C112.131 187.291 112.21 186.695 112.27 186.283C112.3 186.083 112.324 185.925 112.342 185.809C112.351 185.76 112.358 185.72 112.363 185.687C112.369 185.658 112.372 185.645 112.374 185.645Z" fill="#263238"/>
<path d="M121.471 185.82C121.477 185.819 121.498 185.875 121.531 185.979C121.564 186.083 121.605 186.235 121.651 186.424C121.744 186.802 121.846 187.331 121.912 187.922C121.976 188.514 121.991 189.053 121.982 189.442C121.978 189.637 121.971 189.794 121.961 189.902C121.952 190.011 121.944 190.071 121.937 190.07C121.923 190.07 121.925 189.829 121.916 189.442C121.907 189.054 121.882 188.52 121.818 187.932C121.753 187.345 121.662 186.818 121.586 186.438C121.511 186.058 121.457 185.824 121.471 185.82Z" fill="#263238"/>
<path d="M88.1217 178.446C88.0336 178.758 87.7119 178.938 87.4027 178.849C87.0936 178.76 86.9149 178.436 87.0029 178.125C87.0909 177.813 87.4127 177.633 87.7218 177.722C88.0305 177.811 88.2097 178.135 88.1217 178.446Z" fill="#263238"/>
<path d="M88.5791 177.243C88.5414 177.282 88.2579 177.004 87.8115 176.933C87.3656 176.857 87.0087 177.03 86.9856 176.981C86.9736 176.96 87.0475 176.885 87.2005 176.819C87.3514 176.752 87.5867 176.704 87.8419 176.746C88.0971 176.788 88.3046 176.909 88.4266 177.021C88.5514 177.132 88.5975 177.227 88.5791 177.243Z" fill="#263238"/>
<g opacity="0.3">
<path d="M92.4492 176.903C92.6546 177.325 93.2331 177.362 93.6963 177.3C94.6097 177.178 95.502 176.909 96.4206 176.836C97.3392 176.763 98.3295 176.916 99.0212 177.529C99.3084 177.783 99.583 178.131 99.9655 178.134C100.419 178.137 100.728 177.592 100.631 177.145C100.534 176.699 100.161 176.366 99.7684 176.136C98.7283 175.528 97.4534 175.434 96.2671 175.634C95.0808 175.834 93.6895 176.317 92.5797 176.786" fill="black"/>
</g>
<g opacity="0.3">
<path d="M98.6702 199.177C99.7596 198.736 100.607 197.83 100.849 196.672C101.091 195.514 100.616 194.264 99.7952 193.418C100.038 194.488 100.254 195.615 99.9309 196.631C99.7863 197.084 99.6417 197.51 99.3729 197.902C99.1041 198.294 98.8678 198.758 98.6445 199.135C98.6723 199.07 98.7006 199.005 98.7284 198.941" fill="black"/>
</g>
<path d="M76.7758 182.991C76.7638 183.001 76.6391 182.846 76.4148 182.621C76.191 182.395 75.8593 182.106 75.4501 181.848C75.0403 181.591 74.6363 181.418 74.3366 181.315C74.0369 181.211 73.8446 181.166 73.8477 181.151C73.8487 181.145 73.8985 181.15 73.9871 181.164C74.0756 181.178 74.2025 181.207 74.357 181.251C74.6657 181.339 75.0822 181.505 75.5004 181.767C75.9175 182.03 76.2492 182.334 76.4635 182.575C76.5709 182.695 76.6527 182.796 76.7035 182.871C76.7549 182.945 76.7811 182.987 76.7758 182.991Z" fill="#263238"/>
<path d="M95.4657 156.568C97.4466 156.568 99.0525 154.95 99.0525 152.954C99.0525 150.958 97.4466 149.34 95.4657 149.34C93.4848 149.34 91.8789 150.958 91.8789 152.954C91.8789 154.95 93.4848 156.568 95.4657 156.568Z" fill="#938CCB"/>
<path d="M97.7897 152.863C97.7641 152.864 97.7651 152.664 97.6687 152.33C97.5733 152.002 97.3459 151.525 96.8539 151.161C96.3781 150.796 95.602 150.596 94.8548 150.88C94.1134 151.141 93.4757 151.935 93.484 152.862C93.4757 153.79 94.1134 154.585 94.8548 154.846C95.6026 155.129 96.3786 154.929 96.8539 154.564C97.3459 154.2 97.5733 153.724 97.6687 153.396C97.7651 153.063 97.7641 152.862 97.7897 152.863C97.8013 152.861 97.84 153.063 97.7719 153.423C97.7043 153.774 97.4916 154.302 96.9713 154.719C96.4687 155.138 95.6131 155.388 94.7694 155.084C93.9336 154.808 93.2011 153.913 93.211 152.863C93.2011 151.813 93.9331 150.919 94.7694 150.642C95.6131 150.338 96.4687 150.589 96.9713 151.007C97.4916 151.425 97.7043 151.952 97.7719 152.304C97.84 152.663 97.8013 152.865 97.7897 152.863Z" fill="#263238"/>
<path d="M113.953 111.963L114.675 116.916L174.404 114.145L167.451 51.707L170.544 108.853L113.953 111.963Z" fill="#E0E0E0"/>
<path d="M167.303 48.9707L107.891 52.2383L111.133 112.104L170.545 108.836L167.303 48.9707Z" fill="white"/>
<path d="M170.546 108.854C170.546 108.854 170.536 108.756 170.524 108.57C170.512 108.378 170.495 108.103 170.473 107.742C170.43 107.008 170.367 105.931 170.285 104.526C170.126 101.711 169.892 97.5919 169.596 92.3515C169.015 81.8781 168.185 66.9277 167.189 48.9937L167.313 49.1062C150.045 50.0603 129.658 51.187 107.907 52.3887L107.901 52.3893L108.03 52.2446C109.21 74.1672 110.316 94.7116 111.252 112.112L111.128 111.999C128.931 111.046 143.77 110.252 154.165 109.695C159.367 109.423 163.456 109.209 166.25 109.062C167.645 108.991 168.715 108.938 169.443 108.901C169.802 108.884 170.075 108.871 170.265 108.862C170.449 108.855 170.546 108.854 170.546 108.854C170.546 108.854 170.458 108.863 170.277 108.875C170.091 108.887 169.821 108.904 169.469 108.926C168.746 108.969 167.684 109.033 166.301 109.114C163.513 109.275 159.435 109.509 154.246 109.808C143.835 110.395 128.971 111.233 111.14 112.238L111.022 112.244L111.016 112.126C110.069 94.7259 108.95 74.1825 107.757 52.2604L107.75 52.1232L107.886 52.1158L107.892 52.1152C129.644 50.9267 150.031 49.8132 167.3 48.8696L167.418 48.8633L167.424 48.9821C168.372 66.9504 169.161 81.9287 169.715 92.4222C169.985 97.6526 170.197 101.764 170.342 104.574C170.412 105.969 170.464 107.039 170.501 107.768C170.517 108.124 170.53 108.395 170.539 108.584C170.546 108.764 170.546 108.854 170.546 108.854Z" fill="#263238"/>
<path d="M122.298 86.2015C127.014 89.6546 141.011 99.6005 147.665 104.322C148.812 105.136 150.323 104.005 149.886 102.662L140.23 73.0189C139.922 72.0717 138.786 71.7031 137.987 72.2908L122.299 83.8297C121.501 84.4174 121.498 85.6159 122.298 86.2015Z" fill="#AE7461"/>
<path d="M146.021 103.335C145.954 103.354 144.016 96.7423 141.692 88.5684C139.367 80.3918 137.537 73.75 137.603 73.7305C137.67 73.7115 139.608 80.3221 141.933 88.4987C144.256 96.6726 146.087 103.316 146.021 103.335Z" fill="#6F4439"/>
<path d="M141.276 99.5131C141.209 99.5321 139.305 93.0393 137.023 85.0127C134.74 76.9828 132.944 70.4605 133.01 70.4414C133.076 70.4224 134.98 76.9137 137.263 84.9435C139.545 92.9702 141.342 99.4941 141.276 99.5131Z" fill="#6F4439"/>
<path d="M136.666 96.6342C136.6 96.6532 134.696 90.1604 132.414 82.1338C130.13 74.1039 128.334 67.5815 128.4 67.5625C128.466 67.5435 130.37 74.0348 132.654 82.0646C134.936 90.0912 136.732 96.6152 136.666 96.6342Z" fill="#6F4439"/>
<path d="M132.152 93.4444C132.085 93.4634 130.707 88.8218 129.074 83.0777C127.441 77.332 126.17 72.6597 126.237 72.6407C126.303 72.6217 127.681 77.2623 129.315 83.0085C130.948 88.7526 132.218 93.4254 132.152 93.4444Z" fill="#6F4439"/>
<path d="M127.551 90.1855C127.484 90.2046 126.273 86.1474 124.844 81.124C123.415 76.099 122.311 72.0113 122.378 71.9923C122.444 71.9732 123.656 76.0299 125.084 81.0543C126.513 86.0782 127.617 90.1665 127.551 90.1855Z" fill="#6F4439"/>
<path d="M149.075 100.595C149.036 100.653 143.273 96.8434 136.203 92.0867C129.131 87.3284 123.431 83.4254 123.469 83.3678C123.507 83.3103 129.27 87.1193 136.342 91.8776C143.411 96.6338 149.113 100.538 149.075 100.595Z" fill="#6F4439"/>
<path d="M147.366 95.0372C147.328 95.0953 141.651 91.3438 134.688 86.6594C127.723 81.9734 122.11 78.129 122.149 78.071C122.187 78.0134 127.862 81.7638 134.827 86.4498C141.79 91.1342 147.404 94.9791 147.366 95.0372Z" fill="#6F4439"/>
<path d="M145.47 89.5573C145.432 89.6153 141.402 86.9716 136.471 83.6537C131.538 80.3347 127.571 77.5981 127.61 77.54C127.648 77.4824 131.677 80.1251 136.61 83.4441C141.541 86.7626 145.508 89.4997 145.47 89.5573Z" fill="#6F4439"/>
<path d="M143.792 84.1471C143.754 84.2046 140.226 81.8989 135.913 78.9975C131.599 76.0951 128.134 73.6959 128.172 73.6378C128.21 73.5802 131.737 75.8855 136.052 78.7879C140.365 81.6898 143.83 84.0895 143.792 84.1471Z" fill="#6F4439"/>
<path d="M141.894 77.9589C141.856 78.017 138.448 75.7915 134.283 72.9894C130.116 70.1862 126.771 67.8678 126.809 67.8097C126.847 67.7521 130.255 69.9766 134.421 72.7798C138.586 75.5819 141.933 77.9008 141.894 77.9589Z" fill="#6F4439"/>
<path d="M117.665 78.278C116.515 74.0271 117.978 69.3184 121.685 66.5353C126.638 62.8181 133.801 64.0706 137.442 69.0966L138.394 70.4113L138.641 70.2297C140.349 70.2344 141.575 72.0682 141.645 73.7874C141.654 74.0139 141.646 74.2525 141.533 74.4484C141.429 74.63 141.248 74.752 141.074 74.8671C139.926 75.6243 138.779 76.3819 137.631 77.1391C138.202 77.7373 138.39 78.7637 137.862 79.401C137.335 80.0383 136.076 79.8704 135.905 79.0584C136.403 79.9792 137.252 80.6999 137.371 81.8225C137.423 82.3219 137.245 82.8373 136.837 83.1271C136.148 83.6177 135.327 83.1831 134.667 82.7634C134.128 82.4207 133.589 82.078 133.05 81.7353C132.896 81.6377 132.735 81.5373 132.554 81.5231C132.292 81.5025 132.054 81.6646 131.84 81.8193C129.27 83.6821 126.7 85.5449 124.129 87.4076C124.348 87.8015 124.154 88.3348 123.789 88.5956C123.423 88.857 122.939 88.8913 122.497 88.8185C121.37 88.6331 120.382 87.7662 120.045 86.6674C119.707 85.5686 120.036 84.2909 120.862 83.4962L120.172 82.7364C119.011 81.4613 118.117 79.947 117.665 78.278Z" fill="#938CCB"/>
<path d="M122.858 67.4931C122.893 67.538 122.056 68.0111 121.056 69.1526C120.062 70.2714 118.962 72.1659 118.74 74.4769C118.524 76.7891 119.25 78.8588 120.017 80.1471C120.784 81.4582 121.518 82.0817 121.476 82.1192C121.466 82.1293 121.281 81.9819 120.979 81.6768C120.677 81.3726 120.275 80.8932 119.866 80.239C119.046 78.9512 118.27 76.8339 118.491 74.4532C118.72 72.0735 119.878 70.1421 120.925 69.0338C121.449 68.4694 121.934 68.0749 122.288 67.8337C122.642 67.5908 122.852 67.4809 122.858 67.4931Z" fill="white"/>
<path d="M122.676 87.8298C122.657 87.8573 122.453 87.7617 122.145 87.5642C121.843 87.3652 121.416 87.0558 121.103 86.56C120.79 86.0563 120.749 85.4829 120.862 85.1133C120.973 84.7352 121.182 84.5863 121.198 84.6074C121.232 84.6328 121.087 84.8128 121.034 85.1523C120.977 85.4855 121.04 85.9829 121.315 86.4264C121.595 86.8725 121.978 87.1893 122.25 87.4206C122.526 87.6508 122.697 87.8002 122.676 87.8298Z" fill="white"/>
<path d="M136.79 82.3065C136.805 82.3102 136.809 82.3772 136.748 82.477C136.689 82.5747 136.554 82.6919 136.35 82.7384C136.145 82.7864 135.899 82.7421 135.664 82.6571C135.43 82.5726 135.179 82.4665 134.925 82.3334C133.899 81.8017 133.281 81.0757 133.331 81.0345C133.381 80.9807 134.055 81.6005 135.04 82.1095C135.532 82.3514 135.999 82.5995 136.321 82.5626C136.66 82.5272 136.763 82.2891 136.79 82.3065Z" fill="white"/>
<path d="M137.005 54.0291C138.986 54.0291 140.592 52.411 140.592 50.4149C140.592 48.4189 138.986 46.8008 137.005 46.8008C135.024 46.8008 133.418 48.4189 133.418 50.4149C133.418 52.411 135.024 54.0291 137.005 54.0291Z" fill="#938CCB"/>
<path d="M139.329 50.3245C139.303 50.3255 139.304 50.1254 139.208 49.7912C139.113 49.4633 138.885 48.9865 138.393 48.6227C137.918 48.2579 137.141 48.0578 136.394 48.3413C135.652 48.6016 135.015 49.3968 135.023 50.3239C135.015 51.2511 135.653 52.0468 136.394 52.3071C137.142 52.5906 137.918 52.3905 138.393 52.0257C138.885 51.6624 139.113 51.1856 139.208 50.8572C139.304 50.524 139.303 50.3239 139.329 50.3245C139.34 50.3229 139.379 50.5246 139.311 50.8841C139.243 51.2358 139.031 51.7633 138.51 52.1809C138.008 52.5991 137.152 52.8499 136.308 52.5458C135.472 52.2691 134.74 51.3741 134.75 50.3239C134.74 49.2743 135.472 48.3798 136.308 48.1032C137.152 47.799 138.008 48.0498 138.51 48.468C139.031 48.8857 139.243 49.4131 139.311 49.7648C139.379 50.1243 139.34 50.326 139.329 50.3245Z" fill="#263238"/>
<path d="M139.845 80.4648C139.409 80.5599 138.963 81.2854 139.156 81.8503C139.354 82.4285 139.965 82.8588 140.546 82.6819C141.127 82.505 141.479 81.7938 141.283 81.2151C141.091 80.647 140.418 80.3059 139.845 80.4648Z" fill="#938CCB"/>
<path d="M31.0156 128.007V132.733L86.8866 134.581L89.1393 72.6602L85.7935 131.187L31.0156 128.007Z" fill="#E0E0E0"/>
<path d="M30.0838 68.2052L26.6797 127.758L85.7811 131.188L89.1852 71.6353L30.0838 68.2052Z" fill="white"/>
<path d="M85.7913 131.186C85.7913 131.186 85.7923 131.088 85.8007 130.903C85.8101 130.712 85.8237 130.438 85.841 130.078C85.8798 129.349 85.9364 128.276 86.0103 126.878C86.1633 124.076 86.387 119.977 86.6721 114.763C87.2532 104.342 88.0827 89.4672 89.0783 71.6234L89.1894 71.7491C72.0101 70.7575 51.7286 69.5864 30.0901 68.3372L30.0843 68.3366L30.2284 68.2073C28.975 90.0153 27.8002 110.452 26.8051 127.761L26.694 127.636C44.4015 128.689 59.1616 129.567 69.5006 130.181C74.6741 130.495 78.7398 130.741 81.5191 130.91C82.9056 130.997 83.9693 131.063 84.6935 131.108C85.0503 131.132 85.3218 131.15 85.5104 131.162C85.6943 131.176 85.7913 131.186 85.7913 131.186C85.7913 131.186 85.7032 131.186 85.523 131.177C85.337 131.168 85.0692 131.154 84.7176 131.137C83.9987 131.098 82.9417 131.041 81.5647 130.968C78.7906 130.814 74.7322 130.589 69.5693 130.303C59.2103 129.716 44.422 128.879 26.6804 127.874L26.5625 127.867L26.5693 127.748C27.5534 110.438 28.7156 90.0005 29.9559 68.192L29.9638 68.0547L30.1 68.0626L30.1058 68.0631C51.7438 69.3261 72.0242 70.5094 89.203 71.512L89.3209 71.5189L89.3141 71.6377C88.2677 89.51 87.3947 104.409 86.7837 114.846C86.473 120.047 86.2288 124.136 86.0616 126.93C85.9762 128.317 85.9107 129.381 85.8662 130.106C85.8431 130.46 85.8253 130.729 85.8133 130.916C85.8007 131.097 85.7913 131.186 85.7913 131.186Z" fill="#263238"/>
<path d="M50.2201 87.4568C48.8131 85.3828 46.528 83.8785 44.0154 83.3722C43.7801 83.3246 43.5186 83.2898 43.3143 83.4096C43.0229 83.5802 42.9889 83.9693 43.0025 84.2983C43.0979 86.6774 43.9939 89.0249 45.5224 90.902C47.0509 92.779 49.2051 94.1766 51.582 94.8334L51.6092 94.5652C52.1384 92.1486 51.627 89.5307 50.2201 87.4568Z" fill="#455A64"/>
<path d="M58.2588 85.0017C58.2865 85.0472 57.5488 85.4812 56.4955 86.3613C55.9663 86.7975 55.3763 87.3645 54.7658 88.034C54.1669 88.7141 53.5533 89.5019 52.9921 90.3863C52.4403 91.277 51.997 92.1736 51.6454 93.011C51.3074 93.8542 51.0527 94.6346 50.8892 95.3036C50.5528 96.6399 50.4805 97.4974 50.4281 97.4916C50.4093 97.49 50.4171 97.2756 50.448 96.887C50.4606 96.6927 50.4832 96.4551 50.5319 96.1827C50.5775 95.9102 50.6157 95.5961 50.7016 95.2581C50.8431 94.5749 51.0826 93.7771 51.4127 92.9154C51.757 92.0601 52.2008 91.144 52.762 90.239C53.3321 89.3398 53.962 88.543 54.5808 87.8624C55.2112 87.1919 55.8232 86.6317 56.375 86.2098C56.6407 85.9865 56.9058 85.8164 57.1306 85.658C57.3538 85.497 57.5571 85.3745 57.7259 85.2795C58.0602 85.0846 58.2493 84.9854 58.2588 85.0017Z" fill="#263238"/>
<path d="M34.779 113.24C37.3356 119.133 41.2562 123.23 46.3767 123.715C47.4006 123.809 48.2134 123.204 49.1964 123.206C49.6958 123.267 50.259 123.643 50.804 123.896C51.0959 124.023 51.3862 124.128 51.6487 124.133C56.9668 124.166 61.6891 120.833 65.0773 114.999C69.7985 106.827 69.0057 97.7075 63.3124 94.6202C62.5018 94.1762 61.7326 93.8346 60.9701 93.5795C60.0369 93.2839 59.1094 93.108 58.0798 93.0816C56.2761 93.0109 54.1859 93.3631 51.349 94.1456C51.2567 94.1741 51.1514 94.2015 51.0582 94.229C46.4197 91.9306 42.6228 91.6983 38.8427 93.1999C32.8355 95.6076 31.0178 104.576 34.779 113.24Z" fill="#938CCB"/>
<path d="M35.37 104.719C35.3338 104.731 35.0687 104.093 34.9807 102.998C34.8874 101.91 35.0556 100.362 35.7467 98.8182C36.4452 97.2775 37.5032 96.1058 38.3909 95.4316C39.2796 94.7494 39.9424 94.5044 39.9581 94.5382C39.9948 94.5994 39.3907 94.9284 38.5785 95.6412C37.7652 96.3482 36.79 97.496 36.1188 98.975C35.4559 100.457 35.25 101.93 35.2673 102.988C35.2799 104.05 35.4413 104.703 35.37 104.719Z" fill="#FAFAFA"/>
<path d="M36.2132 108.78C36.1026 108.798 35.9376 108.389 35.8438 107.868C35.75 107.346 35.7631 106.909 35.8737 106.891C35.9842 106.873 36.1493 107.281 36.2431 107.803C36.3369 108.325 36.3232 108.762 36.2132 108.78Z" fill="#FAFAFA"/>
<path d="M46.7217 86.8758C46.7856 86.8351 47.8515 88.4239 49.1017 90.4239C50.3525 92.4245 51.3146 94.0787 51.2512 94.1189C51.1872 94.1595 50.122 92.5708 48.8712 90.5702C47.6204 88.5706 46.6583 86.9164 46.7217 86.8758Z" fill="#263238"/>
<g opacity="0.3">
<path d="M65.9458 100.141C65.295 97.754 62.6383 94.5749 60.568 94.6741C59.7207 94.6488 58.9457 95.0379 58.604 95.8521C58.2624 96.6663 58.4096 97.6151 58.756 98.4277C59.1023 99.2398 59.6316 99.9568 60.0833 100.714C61.0438 102.326 61.659 104.145 61.8743 106.013C61.9346 106.534 61.966 107.067 62.1636 107.552C62.3611 108.037 62.7667 108.475 63.2828 108.539C64.0243 108.632 64.6295 107.959 65.0078 107.31C66.2502 105.174 66.5966 102.528 65.9458 100.141Z" fill="white"/>
</g>
<path d="M59.579 74.6932C61.5599 74.6932 63.1657 73.075 63.1657 71.079C63.1657 69.083 61.5599 67.4648 59.579 67.4648C57.598 67.4648 55.9922 69.083 55.9922 71.079C55.9922 73.075 57.598 74.6932 59.579 74.6932Z" fill="#938CCB"/>
<path d="M61.9069 70.988C61.8813 70.989 61.8823 70.7889 61.7859 70.4547C61.691 70.1268 61.4631 69.65 60.9711 69.2862C60.4958 68.9214 59.7192 68.7213 58.972 69.0048C58.2305 69.2651 57.5928 70.0603 57.6012 70.9875C57.5928 71.9146 58.2305 72.7103 58.972 72.9706C59.7198 73.2542 60.4958 73.0541 60.9711 72.6892C61.4631 72.3254 61.6905 71.8492 61.7859 71.5207C61.8823 71.187 61.8818 70.9869 61.9069 70.988C61.9185 70.9869 61.9572 71.1881 61.8891 71.5477C61.8215 71.8993 61.6088 72.4268 61.0884 72.8444C60.5859 73.2626 59.7302 73.5134 58.8866 73.2093C58.0508 72.9326 57.3183 72.0377 57.3282 70.988C57.3183 69.9383 58.0503 69.0439 58.8866 68.7672C59.7302 68.4631 60.5859 68.7139 61.0884 69.1321C61.6088 69.5497 61.8215 70.0772 61.8891 70.4288C61.9572 70.7879 61.919 70.9896 61.9069 70.988Z" fill="#263238"/>
<path d="M61.0544 77.007L63.5167 77.1271L65.808 83.5986L65.9187 83.6039L68.8286 77.386L71.2908 77.506L70.8305 86.9493L68.8939 86.8549L69.1935 80.7085L69.1151 80.7046L66.374 86.6859L65.0552 86.6216L62.9098 80.3791L62.8315 80.3752L62.5307 86.5448L60.5941 86.4504L61.0544 77.007ZM72.4386 87.0277L72.7838 79.9452L74.6559 80.0364L74.595 81.286L74.678 81.2901C74.8458 80.8823 75.1077 80.5669 75.4636 80.3439C75.8196 80.1209 76.2374 80.0211 76.7169 80.0445C77.2026 80.0681 77.6101 80.2097 77.9395 80.4692C78.269 80.7256 78.4806 81.0625 78.5743 81.48L78.6481 81.4836C78.8123 81.0849 79.0894 80.7733 79.4794 80.5489C79.8725 80.3215 80.3289 80.2205 80.8484 80.2458C81.5093 80.278 82.0354 80.5148 82.4268 80.956C82.8214 81.3943 83 81.9977 82.9626 82.7662L82.7304 87.5293L80.7707 87.4338L80.984 83.058C81.0032 82.6645 80.913 82.3643 80.7136 82.1574C80.5142 81.9505 80.2577 81.8393 79.9441 81.8241C79.5875 81.8067 79.3038 81.9069 79.0929 82.1246C78.8821 82.3393 78.7678 82.631 78.7498 82.9999L78.539 87.325L76.6346 87.2322L76.85 82.8149C76.8669 82.4675 76.7805 82.186 76.5907 81.9703C76.404 81.7547 76.1493 81.6391 75.8265 81.6234C75.6082 81.6127 75.4088 81.6585 75.2282 81.7606C75.0508 81.8598 74.9066 82.0053 74.7956 82.1971C74.6847 82.3858 74.6229 82.6108 74.6101 82.8721L74.4029 87.1234L72.4386 87.0277Z" fill="black"/>
<path d="M105.815 167.183L104.358 157.841L110.653 156.86L110.907 158.488L106.587 159.162L106.934 161.388L110.93 160.765L111.184 162.393L107.188 163.016L107.536 165.247L111.874 164.57L112.128 166.199L105.815 167.183ZM116.858 165.601C116.137 165.714 115.494 165.664 114.928 165.454C114.365 165.239 113.902 164.885 113.538 164.39C113.174 163.892 112.934 163.274 112.819 162.535C112.707 161.814 112.748 161.16 112.943 160.572C113.138 159.984 113.466 159.499 113.926 159.115C114.389 158.732 114.965 158.486 115.652 158.379C116.114 158.307 116.556 158.314 116.978 158.401C117.402 158.485 117.786 158.65 118.13 158.899C118.477 159.147 118.769 159.481 119.006 159.902C119.242 160.32 119.407 160.827 119.5 161.423L119.583 161.957L113.667 162.88L113.479 161.675L117.566 161.038C117.523 160.758 117.423 160.52 117.268 160.323C117.113 160.126 116.918 159.984 116.683 159.896C116.45 159.804 116.193 159.78 115.91 159.825C115.615 159.871 115.364 159.98 115.158 160.152C114.953 160.321 114.805 160.529 114.713 160.777C114.62 161.022 114.594 161.283 114.634 161.561L114.813 162.706C114.867 163.052 114.977 163.342 115.145 163.574C115.315 163.806 115.529 163.972 115.787 164.072C116.046 164.172 116.338 164.196 116.663 164.146C116.879 164.112 117.072 164.051 117.242 163.962C117.412 163.873 117.551 163.758 117.66 163.616C117.769 163.475 117.843 163.311 117.882 163.124L119.698 162.962C119.674 163.408 119.546 163.815 119.313 164.181C119.083 164.544 118.76 164.85 118.344 165.098C117.931 165.343 117.435 165.511 116.858 165.601Z" fill="black"/>
<path d="M212.218 167.168C212.212 166.934 212.174 166.719 212.104 166.523C212.034 166.324 211.933 166.145 211.799 165.986C211.669 165.826 211.508 165.687 211.315 165.57C211.126 165.455 210.906 165.364 210.656 165.3C210.188 165.178 209.747 165.188 209.332 165.329C208.921 165.47 208.559 165.737 208.247 166.13C207.937 166.521 207.699 167.034 207.534 167.672C207.369 168.31 207.325 168.877 207.403 169.374C207.481 169.871 207.667 170.283 207.96 170.61C208.255 170.934 208.643 171.159 209.126 171.284C209.564 171.397 209.958 171.417 210.308 171.342C210.662 171.265 210.957 171.105 211.195 170.861C211.436 170.618 211.607 170.302 211.708 169.911L212.086 170.071L209.727 169.46L210.104 168.004L213.934 168.995L213.635 170.148C213.427 170.952 213.078 171.6 212.589 172.09C212.101 172.577 211.518 172.9 210.841 173.058C210.165 173.214 209.443 173.192 208.674 172.993C207.816 172.771 207.111 172.387 206.559 171.84C206.009 171.291 205.642 170.619 205.46 169.825C205.281 169.028 205.317 168.147 205.567 167.182C205.759 166.44 206.037 165.806 206.402 165.281C206.771 164.753 207.203 164.337 207.698 164.033C208.193 163.729 208.728 163.538 209.301 163.461C209.874 163.384 210.463 163.423 211.068 163.58C211.586 163.714 212.049 163.915 212.457 164.183C212.865 164.447 213.207 164.761 213.481 165.125C213.759 165.489 213.959 165.889 214.082 166.325C214.205 166.757 214.239 167.208 214.185 167.677L212.218 167.168ZM216.473 177.778C215.856 177.618 215.35 177.397 214.953 177.113C214.558 176.832 214.268 176.514 214.084 176.158C213.899 175.802 213.815 175.434 213.831 175.053L215.653 175.272C215.671 175.423 215.723 175.573 215.808 175.722C215.894 175.872 216.022 176.007 216.195 176.128C216.369 176.252 216.595 176.35 216.872 176.422C217.286 176.529 217.653 176.516 217.974 176.383C218.297 176.254 218.519 175.954 218.641 175.483L218.966 174.227L218.886 174.206C218.753 174.375 218.581 174.523 218.37 174.65C218.159 174.776 217.909 174.859 217.619 174.899C217.329 174.938 217.002 174.911 216.639 174.817C216.123 174.683 215.685 174.443 215.324 174.095C214.966 173.745 214.726 173.29 214.604 172.731C214.485 172.169 214.524 171.508 214.721 170.749C214.922 169.971 215.217 169.354 215.605 168.898C215.994 168.442 216.431 168.139 216.918 167.989C217.409 167.839 217.906 167.829 218.409 167.96C218.793 168.059 219.098 168.208 219.323 168.406C219.55 168.602 219.716 168.816 219.824 169.051C219.936 169.283 220.011 169.503 220.049 169.71L220.121 169.729L220.419 168.576L222.31 169.065L220.516 175.997C220.364 176.581 220.095 177.032 219.707 177.351C219.319 177.671 218.847 177.863 218.289 177.929C217.734 177.998 217.129 177.948 216.473 177.778ZM217.612 173.543C217.919 173.622 218.198 173.613 218.449 173.516C218.704 173.417 218.925 173.239 219.112 172.982C219.303 172.723 219.45 172.392 219.555 171.99C219.659 171.588 219.692 171.225 219.655 170.9C219.619 170.573 219.515 170.3 219.343 170.08C219.171 169.861 218.932 169.712 218.625 169.632C218.312 169.551 218.026 169.568 217.768 169.682C217.51 169.793 217.287 169.984 217.1 170.253C216.913 170.523 216.769 170.853 216.667 171.243C216.565 171.639 216.531 171.996 216.567 172.314C216.606 172.629 216.711 172.893 216.882 173.106C217.056 173.316 217.3 173.462 217.612 173.543Z" fill="black"/>
<path d="M149.376 58.9556C149.313 58.5868 149.135 58.3093 148.841 58.1233C148.547 57.9373 148.161 57.8612 147.682 57.895C147.356 57.9179 147.085 57.9833 146.867 58.0912C146.649 58.1961 146.486 58.3325 146.378 58.5006C146.272 58.6685 146.227 58.8537 146.241 59.0563C146.247 59.2256 146.293 59.3705 146.378 59.4909C146.467 59.6112 146.584 59.7125 146.728 59.7949C146.873 59.8741 147.038 59.9412 147.224 59.9959C147.409 60.0477 147.607 60.0893 147.816 60.1208L148.677 60.2637C149.095 60.3268 149.481 60.423 149.836 60.5523C150.191 60.6815 150.502 60.8494 150.769 61.0557C151.037 61.2621 151.25 61.5124 151.41 61.8066C151.573 62.1006 151.669 62.4439 151.7 62.8367C151.738 63.4141 151.626 63.9249 151.364 64.3691C151.105 64.81 150.71 65.1664 150.18 65.4382C149.653 65.7068 149.006 65.8681 148.238 65.9222C147.477 65.9759 146.806 65.906 146.224 65.7125C145.646 65.5187 145.183 65.2043 144.834 64.7692C144.489 64.3307 144.284 63.7728 144.221 63.0954L146.151 62.9594C146.194 63.2741 146.304 63.5318 146.478 63.7323C146.656 63.9296 146.883 64.0725 147.161 64.1609C147.441 64.246 147.754 64.2764 148.098 64.2522C148.435 64.2284 148.725 64.1586 148.967 64.0429C149.212 63.9269 149.397 63.7765 149.523 63.5918C149.649 63.4071 149.703 63.2011 149.687 62.9739C149.672 62.7621 149.597 62.5885 149.461 62.453C149.328 62.3174 149.138 62.2074 148.892 62.1229C148.648 62.0383 148.351 61.9666 148.002 61.908L146.957 61.7225C146.148 61.5851 145.499 61.327 145.009 60.948C144.52 60.5691 144.252 60.0311 144.206 59.334C144.163 58.7632 144.279 58.2536 144.556 57.8052C144.836 57.3566 145.238 56.9935 145.761 56.716C146.285 56.4385 146.89 56.2754 147.578 56.227C148.278 56.1776 148.898 56.2543 149.436 56.457C149.978 56.6594 150.41 56.9637 150.732 57.3699C151.053 57.7761 151.239 58.2598 151.287 58.8209L149.376 58.9556ZM158.723 59.9675L156.935 60.2046C156.894 60.0533 156.818 59.9198 156.708 59.8041C156.598 59.6854 156.457 59.595 156.286 59.533C156.118 59.4677 155.92 59.4431 155.693 59.4591C155.389 59.4805 155.137 59.5631 154.938 59.7067C154.738 59.8473 154.645 60.0235 154.66 60.2354C154.672 60.4042 154.75 60.5422 154.893 60.6494C155.036 60.7565 155.275 60.8338 155.608 60.8813L156.907 61.0489C157.604 61.1416 158.133 61.3327 158.493 61.622C158.853 61.9114 159.05 62.3109 159.086 62.8205C159.119 63.2841 159.011 63.7005 158.762 64.0697C158.517 64.4387 158.165 64.7382 157.706 64.968C157.25 65.1945 156.715 65.3294 156.101 65.3727C155.164 65.4387 154.405 65.2963 153.821 64.9456C153.241 64.5916 152.88 64.0802 152.737 63.4115L154.659 63.1742C154.738 63.4556 154.894 63.6636 155.129 63.7982C155.363 63.9298 155.656 63.9833 156.006 63.9586C156.35 63.9343 156.621 63.8489 156.821 63.7021C157.023 63.5521 157.118 63.3711 157.106 63.159C157.091 62.9812 157.005 62.8407 156.85 62.7375C156.694 62.6312 156.461 62.5582 156.149 62.5184L154.907 62.3607C154.207 62.2712 153.676 62.068 153.314 61.751C152.955 61.4339 152.757 61.0112 152.72 60.4832C152.688 60.0288 152.783 59.6287 153.006 59.2829C153.231 58.9369 153.562 58.6591 153.998 58.4494C154.436 58.2396 154.958 58.1133 155.563 58.0707C156.456 58.0077 157.173 58.147 157.712 58.4884C158.254 58.8297 158.591 59.3227 158.723 59.9675Z" fill="black"/>
<path d="M234.448 95.8719L236.484 86.6392L238.436 87.0697L236.755 94.693L240.713 95.5659L240.358 97.1753L234.448 95.8719ZM245.572 88.6433L243.535 97.876L241.615 97.4525L243.651 88.2198L245.572 88.6433Z" fill="black"/>
</svg>
