<svg width="226" height="250" viewBox="0 0 226 250" fill="none" xmlns="http://www.w3.org/2000/svg">
<g opacity="0.4">
<path d="M156.821 22.6184C144.653 18.1556 130.09 17.3813 118.87 19.5951C102.039 22.4377 92.4696 34.6293 86.858 49.8017C81.5778 63.3913 72.6702 66.5512 58.1475 69.0818C41.6468 71.9244 24.8168 73.5041 11.9464 85.514C3.69527 93.1014 -0.594143 103.849 0.0664069 114.596C1.05567 131.028 10.9556 138.615 21.8464 149.674C32.4063 160.421 35.3767 170.536 35.3767 184.443C35.3767 192.978 33.7264 203.408 38.3466 210.992C46.267 223.952 66.0684 226.164 80.2583 222.372C95.4379 218.262 99.0699 206.885 107.65 196.455C117.221 184.758 133.389 184.758 147.581 185.075C167.052 185.709 187.182 187.606 203.684 175.595C220.844 163.269 225.726 145.252 225.893 125.926C226.061 106.582 217.672 91.3151 200.465 81.7911C177.955 69.331 183.306 32.0697 156.821 22.6184Z" fill="#C0C7FF"/>
</g>
<g opacity="0.3">
<path d="M171.761 191.178C160.371 190.508 152.665 209.27 165.061 213.29C170.757 214.965 177.122 210.274 178.797 205.584C181.142 199.553 179.094 191.159 171.761 191.178Z" fill="#C0C7FF"/>
<path d="M82.4073 22.418C69.0057 23.0879 70.131 37.3639 81.4019 35.819C91.0593 34.4958 92.1234 23.4233 82.4073 22.418Z" fill="#C0C7FF"/>
<path d="M189.299 193.221C183.272 192.198 181.258 201.261 187.288 202.266C193.989 203.271 195.664 194.561 189.299 193.221Z" fill="#C0C7FF"/>
<path d="M24.7556 183.255C17.7196 182.919 18.0551 192.635 24.4202 193.641C32.1261 194.646 32.8655 183.246 24.7556 183.255Z" fill="#C0C7FF"/>
<path d="M219.231 77.8442C212.885 73.4675 206.52 80.4749 213.629 85.3761C221.054 90.4943 226.356 82.804 219.231 77.8442Z" fill="#C0C7FF"/>
</g>
<path d="M76.4505 250.005C76.4505 232.9 74.7088 189.572 79.935 166.685C83.6288 150.767 87.2717 145.908 125.234 146.561C140.964 147.828 146.517 154.432 149.07 164.388C152.792 173.416 151.842 183.077 152.476 192.581C153.11 201.451 153.901 211.27 154.218 221.011C154.535 230.752 154.557 238.617 153.743 250.005" fill="#818FFF"/>
<path d="M69.3781 169.77C66.8439 183.708 58.1207 219.139 69.4856 228.689C77.1385 235.12 91.0874 237.405 112.894 235.503C114.437 230.936 114.437 230.936 114.088 225.284C102.956 220.723 89.7373 213.714 84.9 211.853C84.9 211.853 87.9867 191.037 91.7106 175.471" fill="#9B6E5D"/>
<path d="M108.766 234.869C113.013 235.904 122.093 241.081 125.926 242.728C132.38 245.509 132.852 242.161 124.673 237.921C126.105 238.495 133.738 241.529 134.26 239.407C134.776 237.283 127.222 234.417 126.103 233.467C127.365 233.64 135.643 235.965 136.216 234.534C136.827 232.612 131.506 230.035 126.117 229.285C128.3 228.822 138.814 228.741 135.946 225.929C133.996 224.151 127.7 224.636 125.465 224.408C127.049 220.88 129.324 217.873 124.784 220.048C120.848 221.971 115.7 223.83 111.304 225.24" fill="#9B6E5D"/>
<path d="M160.122 168.504C156.736 169.34 146.153 172.052 142.853 173.199C145.068 179.884 151.215 202.082 151.215 202.082C147.482 205.814 138.321 204.932 130.305 205.832C129.106 209.217 128.417 213.04 128.622 216.721C141.81 222.671 163.377 222.628 169.588 212.219C171.856 208.417 166.729 179.77 160.122 168.504Z" fill="#9B6E5D"/>
<path d="M134.917 207.118C130.711 205.544 128.241 202.326 124.766 198.819C120.1 194.106 121.605 200.861 123.631 203.535C117.449 201.618 109.872 198.116 108.286 199.666C105.913 201.989 114.597 204.76 117.844 205.653C116.144 205.496 106.147 203.641 105.698 205.684C105.342 207.303 113.975 209.454 115.628 209.818C113.01 209.891 105.644 209.374 105.919 211.586C105.892 213.181 113.314 213.978 116.667 214.499C114.968 214.341 108.041 214.486 108.497 216.92C108.724 218.145 114.897 218.077 116.391 218.187C121.787 218.288 128.163 218.424 133.257 216.943" fill="#9B6E5D"/>
<path d="M63.0469 181.805C64.314 171.035 71.6631 148.99 87.1216 152.662C101.471 156.07 97.8914 177.845 94.0906 188.14" fill="#6173FF"/>
<path d="M167.792 179.27C166.525 168.499 159.175 146.455 143.717 150.127C129.368 153.535 138.649 175.31 142.45 185.605" fill="#6173FF"/>
<path d="M128.267 36.0987C130.535 23.2699 106.709 21.2104 109.26 36.7328C106.709 25.0122 89.0378 27.0712 92.1546 40.5335C86.608 26.7544 67.9729 33.2483 71.2476 46.869C58.6276 37.049 45.2723 58.2728 59.8438 64.6083C41.0467 60.3318 39.7796 87.0997 57.9432 86.7824C40.4132 84.8817 40.4132 110.857 60.4774 106.422C43.7398 113.396 60.0536 135.09 71.2476 124.161C63.0624 135.724 80.9601 145.544 87.7203 134.298C86.608 146.177 108.519 144.91 106.093 133.665C104.718 148.217 132.702 146.969 130.167 131.764C133.603 145.544 157.144 140.792 154.876 126.696C166.964 136.199 181.377 113.396 166.28 109.59C180.382 112.124 185.97 89.9501 170.714 86.7824C188.188 83.6141 179.952 59.0647 165.013 64.6083C176.943 51.6206 158.366 36.0987 147.907 48.1361C156.035 30.2384 132.119 24.2197 128.267 36.0987Z" fill="#1E254F"/>
<path d="M87.2227 84.2434C84.3078 116.569 77.7028 143.75 115.099 143.163C149.56 142.623 146.222 123.84 144.242 83.6094" fill="#9B6E5D"/>
<path d="M104.945 135.717C104.945 141.107 104.945 146.491 104.945 151.881C104.945 155.935 109.456 159.321 114.862 159.321C120.268 159.321 124.778 155.934 124.778 151.881C124.778 146.491 124.778 141.107 124.778 135.717C124.778 131.663 120.268 128.277 114.862 128.277C109.456 128.277 104.945 131.663 104.945 135.717Z" fill="#9B6E5D"/>
<path d="M85.6068 107.052C70.4485 103.884 70.2277 121.624 86.2757 119.089L85.6068 107.052Z" fill="#9B6E5D"/>
<path d="M145.231 107.052C160.39 103.884 160.61 121.624 144.562 119.089L145.231 107.052Z" fill="#9B6E5D"/>
<path d="M93.7836 84.2473C90.5084 97.235 88.1907 105.431 85.548 117.192C80.4786 103.887 68.4417 62.7067 91.8829 65.2409" fill="#293262"/>
<path d="M138.547 90.5806C140.629 97.9515 143.542 109.27 145.516 117.189C149.909 104.67 151.217 98.8162 149.317 85.5117" fill="#293262"/>
<path d="M81.4165 103.252C81.4165 103.252 81.202 102.935 80.8006 102.34C80.6043 102.041 80.3633 101.672 80.0923 101.235C79.8233 100.792 79.4873 100.312 79.1882 99.7111C78.8719 99.1185 78.5442 98.4481 78.1812 97.7097C77.7902 96.9728 77.4802 96.1554 77.1317 95.2789C76.7822 94.4007 76.4125 93.4587 76.1201 92.4346C75.9597 91.9252 75.8132 91.3971 75.6595 90.8549C75.5842 90.5833 75.5079 90.3081 75.4305 90.0298C75.3692 89.7478 75.3074 89.4627 75.2451 89.1745C75.0062 88.0175 74.7383 86.8054 74.6064 85.5233C74.5196 84.8835 74.4563 84.2302 74.3867 83.564C74.3405 82.8967 74.328 82.2153 74.2989 81.5216C74.207 80.1329 74.3259 78.7007 74.407 77.2269C74.4553 76.4906 74.583 75.7501 74.6827 74.9981C74.7367 74.6216 74.7912 74.2436 74.8458 73.864C74.9076 73.4849 75.0062 73.1094 75.0883 72.7293C75.6943 69.6763 76.8217 66.573 78.3962 63.6083C79.9785 60.6519 82.0204 57.8088 84.5447 55.4138C87.0592 53.0156 89.9766 51.0309 93.0612 49.5893L94.225 49.071L94.8051 48.8155C95.0008 48.7387 95.2013 48.6732 95.3991 48.6026C96.1942 48.3378 96.9856 48.0745 97.7718 47.8128C98.5731 47.6243 99.3702 47.4363 100.162 47.2504L100.753 47.119L101.349 47.0343C101.746 46.9803 102.14 46.9263 102.533 46.8723C102.924 46.8214 103.315 46.7705 103.703 46.7196C104.092 46.6895 104.481 46.6802 104.866 46.661C105.636 46.6319 106.397 46.5825 107.147 46.596C108.642 46.6745 110.101 46.6999 111.486 46.9549C112.18 47.0665 112.864 47.1532 113.527 47.2846C114.186 47.4383 114.834 47.578 115.464 47.7442C116.096 47.901 116.712 48.0563 117.3 48.2687C117.891 48.4681 118.471 48.6504 119.029 48.856C121.256 49.6973 123.204 50.6196 124.837 51.5839C125.245 51.8192 125.641 52.0471 126.023 52.2668C126.399 52.4942 126.746 52.7435 127.082 52.9746C127.753 53.4394 128.365 53.8585 128.905 54.2568C129.448 54.6467 129.897 55.056 130.297 55.3904C130.695 55.7264 131.026 56.0208 131.293 56.2597C131.826 56.738 132.1 57.0033 132.1 57.0033C132.1 57.0033 131.722 56.9389 131.011 56.8185C130.304 56.6995 129.296 56.4768 128.024 56.2342C127.377 56.1392 126.675 56.0115 125.916 55.8811C125.539 55.8152 125.146 55.7461 124.739 55.675C124.33 55.6235 123.906 55.5701 123.468 55.515C122.591 55.4247 121.696 55.2232 120.721 55.1853C120.236 55.1536 119.748 55.1001 119.249 55.0539C118.999 55.03 118.748 55.0061 118.494 54.9817C118.239 54.9672 117.979 54.9677 117.719 54.9599C116.677 54.9511 115.617 54.8218 114.516 54.9002C113.967 54.9235 113.416 54.9178 112.858 54.9235C112.3 54.9469 111.738 55.0155 111.172 55.0586C110.036 55.1094 108.901 55.3405 107.749 55.4797C107.176 55.581 106.61 55.7284 106.035 55.8385C105.749 55.9009 105.46 55.9517 105.175 56.0224C104.894 56.1044 104.612 56.187 104.328 56.2701C104.045 56.3506 103.762 56.4311 103.477 56.5126L103.051 56.6315C102.911 56.6777 102.774 56.7338 102.635 56.7837C102.08 56.9883 101.526 57.1965 100.966 57.3897C99.888 57.8835 98.7902 58.34 97.7635 58.946C95.6868 60.1046 93.7462 61.5228 92.0071 63.1788C90.2549 64.8229 88.763 66.7547 87.4684 68.8013C86.1873 70.8567 85.078 73.0409 84.2731 75.3133C84.1682 75.5953 84.0488 75.8716 83.9506 76.1556C83.8613 76.4433 83.7725 76.7289 83.6837 77.014C83.5176 77.5879 83.3 78.1456 83.1546 78.7199C82.884 79.8728 82.5423 80.9976 82.3522 82.1359C82.2427 82.7014 82.1149 83.2607 82.0204 83.8184C81.9482 84.3787 81.8812 84.9328 81.7919 85.4807C81.5847 86.5759 81.5608 87.6509 81.4393 88.6936C81.2908 89.739 81.336 90.7428 81.256 91.7149C81.1667 92.6901 81.2217 93.6088 81.1958 94.4906C81.1345 96.2671 81.2544 97.7694 81.2467 99.0827C81.297 100.39 81.3812 101.441 81.3941 102.153C81.4087 102.869 81.4165 103.252 81.4165 103.252Z" fill="#E43C7A"/>
<path d="M90.3927 76.0078C80.9404 86.3029 95.4615 97.5483 101.796 85.511C97.7293 95.8061 116.261 103.25 119.536 89.9458C115.111 103.884 137.909 105.151 135.374 91.8464C138.543 108.319 159.658 98.1819 150.58 86.778C168.686 89.629 165.201 65.1331 150.58 70.9394C160.609 56.5262 138.434 45.9143 132.84 60.1691C134.633 53.0417 133.145 47.3985 127.772 45.5976C118.795 42.5882 113.2 48.7653 113.834 55.7343C114.863 45.4392 95.9871 44.7589 100.529 58.9025C95.9871 44.7594 74.2362 61.753 91.0262 69.6723" fill="#293262"/>
<g opacity="0.3">
<path d="M96.6211 67.4549C95.5514 68.0884 94.5325 68.8056 93.659 69.6598C92.7913 70.5073 92.0502 71.5002 91.7236 72.6037C91.3887 73.7041 91.5424 74.858 92.0726 75.8421C92.3312 76.338 92.677 76.7955 93.0702 77.2146C93.4575 77.6368 93.8756 77.9821 94.3414 78.2143C95.2694 78.6894 96.3469 78.7107 97.3944 78.4173C98.4444 78.1213 99.4508 77.5449 100.361 76.8469C101.27 76.1438 102.095 75.3098 102.796 74.4026C103.496 73.5084 104.098 72.4999 104.37 71.5454L106.549 72.394C105.962 73.7083 105.427 75.0361 105.062 76.3593C104.882 77.0199 104.747 77.6783 104.686 78.315C104.631 78.9506 104.63 79.5676 104.746 80.1237C104.957 81.2418 105.6 82.1371 106.605 82.8532C107.102 83.2104 107.67 83.5194 108.274 83.7879C108.428 83.8518 108.575 83.9245 108.734 83.9821L109.162 84.1467L109.688 84.3186C109.853 84.369 109.97 84.3867 110.112 84.4256C110.691 84.5565 111.314 84.6214 111.906 84.5965C112.504 84.5721 113.093 84.4656 113.663 84.2864C114.803 83.925 115.855 83.2349 116.722 82.3328C117.592 81.4318 118.28 80.3247 118.737 79.1287C119.197 77.9328 119.434 76.6496 119.432 75.3742L122.586 75.5269C122.547 76.0799 122.501 76.633 122.51 77.1777C122.511 77.723 122.539 78.2646 122.611 78.7912C122.744 79.848 123.031 80.858 123.486 81.7491C123.938 82.6408 124.565 83.4083 125.332 83.9769C126.097 84.5482 127.006 84.9054 127.946 85.0233C128.885 85.1303 129.854 85.0171 130.715 84.6432C131.575 84.2745 132.322 83.6654 132.853 82.8786C133.387 82.0934 133.712 81.1374 133.83 80.1144C133.957 79.0903 133.862 78.006 133.657 76.9248L136.274 76.5805C136.291 77.7926 136.753 78.9179 137.628 79.7768C138.495 80.6394 139.725 81.2174 141.022 81.4474C142.318 81.6728 143.7 81.5897 144.91 81.1083C146.121 80.6342 147.127 79.7426 147.665 78.5513C147.701 78.4781 147.73 78.4012 147.763 78.3259L147.787 78.2693C147.792 78.2553 147.756 78.3685 147.773 78.3166L147.775 78.3083L147.78 78.2911L147.791 78.2574L147.833 78.1213C147.887 77.9427 147.953 77.7479 147.978 77.6056C148.051 77.307 148.113 76.9622 148.141 76.6273C148.202 75.9532 148.154 75.2652 148.002 74.5906C147.699 73.2383 146.978 71.9603 146.012 70.8895C145.049 69.8104 143.836 68.9287 142.485 68.3283C141.138 67.7213 139.639 67.3832 138.12 67.4544C139.619 67.2072 141.197 67.3531 142.675 67.8345C144.15 68.3242 145.535 69.1286 146.704 70.2051C147.864 71.2852 148.805 72.6588 149.299 74.2364C149.547 75.0226 149.676 75.8566 149.668 76.6958C149.666 77.1175 149.632 77.5272 149.549 77.9697C149.515 78.2023 149.467 78.3695 149.424 78.5565L149.39 78.6946L149.382 78.7289L149.378 78.7465L149.356 78.8193L149.33 78.8956C149.294 78.9969 149.261 79.0997 149.221 79.1999C148.914 80.0074 148.435 80.7661 147.827 81.3991C147.219 82.0342 146.489 82.5421 145.706 82.9129C144.136 83.6513 142.382 83.8803 140.688 83.656C138.999 83.4322 137.313 82.7727 135.959 81.558C135.287 80.9536 134.713 80.2058 134.312 79.3656C133.909 78.5269 133.688 77.6067 133.629 76.7C133.58 75.9714 134.133 75.3415 134.861 75.2942C135.516 75.2511 136.091 75.6925 136.235 76.3115L136.246 76.3557C136.547 77.6415 136.701 78.9984 136.577 80.3896C136.458 81.7741 136.043 83.199 135.246 84.4453C134.457 85.6927 133.282 86.7183 131.931 87.3404C130.581 87.9667 129.067 88.2113 127.599 88.0436C126.132 87.8769 124.708 87.3269 123.52 86.4587C122.328 85.5951 121.38 84.437 120.726 83.1751C120.066 81.9112 119.683 80.5542 119.5 79.2103C119.311 77.8632 119.316 76.5255 119.441 75.22L119.442 75.2106C119.525 74.3418 120.297 73.7052 121.166 73.7888C121.985 73.8677 122.598 74.5657 122.595 75.3727C122.584 77.0495 122.258 78.7133 121.645 80.266C121.031 81.8187 120.123 83.265 118.932 84.4796C117.746 85.6917 116.255 86.6705 114.572 87.1872C113.735 87.449 112.853 87.5845 111.976 87.5923C111.094 87.6011 110.24 87.4905 109.386 87.2698C109.172 87.2091 108.929 87.1447 108.743 87.0818L108.222 86.8954L108.108 86.8523L108.038 86.8232L107.899 86.7656L107.621 86.6498C107.436 86.5755 107.253 86.482 107.069 86.3989C106.335 86.0484 105.608 85.6351 104.919 85.1111C104.233 84.5907 103.582 83.9473 103.079 83.1658C102.567 82.3931 102.232 81.4916 102.085 80.5984C101.926 79.7015 101.963 78.825 102.076 77.9982C102.193 77.1694 102.394 76.3853 102.635 75.6318C103.122 74.1269 103.76 72.7367 104.433 71.3839L104.455 71.3408C104.743 70.7623 105.445 70.5271 106.023 70.8148C106.552 71.078 106.794 71.6877 106.611 72.2324C106.373 72.9465 106.046 73.5702 105.682 74.1544C105.318 74.7376 104.911 75.2761 104.475 75.7829C103.597 76.7919 102.598 77.6742 101.494 78.4241C100.388 79.1641 99.1631 79.781 97.7947 80.077C97.1124 80.2203 96.3916 80.2759 95.6708 80.186C94.9511 80.0962 94.2407 79.848 93.6268 79.4673C93.0073 79.0903 92.4974 78.5814 92.0871 78.0543C91.6722 77.5324 91.3051 76.9591 91.0381 76.3287C90.7712 75.7014 90.5947 75.0201 90.5837 74.3278C90.5645 73.6366 90.7079 72.9522 90.9592 72.3306C91.209 71.7064 91.5756 71.1513 91.9874 70.6522C92.4034 70.1558 92.8681 69.7123 93.3719 69.3264C94.3762 68.5542 95.4859 67.9586 96.6211 67.4549Z" fill="#6173FF"/>
</g>
<path d="M97.8853 129.007C104.014 129.007 104.014 119.504 97.8853 119.504C91.757 119.504 91.757 129.007 97.8853 129.007Z" fill="#E16BA1"/>
<path d="M133.361 129.007C139.49 129.007 139.49 119.504 133.361 119.504C127.234 119.504 127.234 129.007 133.361 129.007Z" fill="#E16BA1"/>
<path d="M101.532 110.855C101.615 113.529 103.448 115.557 106.125 115.805C109.031 116.075 110.65 113.424 110.718 110.855C110.745 109.833 109.162 109.836 109.134 110.855C109.084 112.727 108.151 114.286 106.125 114.221C104.325 114.163 103.168 112.523 103.116 110.855C103.083 109.836 101.5 109.833 101.532 110.855Z" fill="#1E254F"/>
<path d="M123.071 110.855C123.155 113.529 124.987 115.557 127.664 115.805C130.571 116.075 132.189 113.424 132.258 110.855C132.285 109.833 130.701 109.836 130.673 110.855C130.623 112.727 129.69 114.286 127.664 114.221C125.864 114.163 124.708 112.523 124.655 110.855C124.623 109.836 123.039 109.833 123.071 110.855Z" fill="#1E254F"/>
<path d="M116.13 112.341C116.708 115.516 117.266 118.708 118.031 121.845C118.215 121.52 118.399 121.195 118.584 120.87C117.404 121.367 116.262 121.47 114.993 121.476C113.971 121.481 113.971 123.065 114.993 123.06C116.412 123.053 117.684 122.955 119.005 122.398C119.412 122.227 119.671 121.886 119.558 121.424C118.793 118.288 118.235 115.096 117.657 111.921C117.474 110.917 115.948 111.343 116.13 112.341Z" fill="#745346"/>
<path d="M108.231 128.726C112.467 127.552 116.953 127.11 119.375 131.529C119.865 132.425 121.233 131.626 120.742 130.73C117.97 125.67 112.766 125.825 107.811 127.198C106.827 127.471 107.245 128.999 108.231 128.726Z" fill="#1E254F"/>
<path d="M99.048 106.563C102.593 105.341 106.819 104.694 110.159 106.8C111.026 107.346 111.82 105.975 110.958 105.432C107.269 103.106 102.568 103.678 98.6274 105.035C97.6677 105.366 98.08 106.896 99.048 106.563Z" fill="#1E254F"/>
<path d="M122.044 106.796C125.647 104.504 129.06 105.198 132.838 106.559C133.801 106.906 134.212 105.375 133.259 105.032C129.056 103.517 125.195 102.915 121.245 105.428C120.385 105.975 121.18 107.346 122.044 106.796Z" fill="#1E254F"/>
<path d="M84.2639 121.939C87.5323 121.939 87.5323 116.871 84.2639 116.871C80.9954 116.871 80.9954 121.939 84.2639 121.939Z" fill="#F9C929"/>
<path d="M145.084 122.256C148.353 122.256 148.353 117.188 145.084 117.188C141.816 117.188 141.816 122.256 145.084 122.256Z" fill="#F9C929"/>
<path d="M99.4492 156.672C108.966 162.566 120.333 162.362 129.89 156.672C133.395 154.583 130.21 149.105 126.692 151.201C119.011 155.775 110.294 155.937 102.647 151.201C99.1631 149.044 95.9844 154.525 99.4492 156.672Z" fill="#6173FF"/>
<path d="M154.018 34.8325C155.057 29.2931 156.096 23.7538 157.134 18.2149C157.441 16.5786 154.938 15.8801 154.63 17.5248C153.592 23.0641 152.553 28.6035 151.514 34.1423C151.207 35.7787 153.71 36.4771 154.018 34.8325Z" fill="#818FFF"/>
<path d="M160.12 37.7361C164.274 31.8509 168.428 25.9656 172.583 20.0799C173.55 18.7084 171.298 17.4133 170.34 18.7697C166.186 24.6549 162.032 30.5402 157.877 36.4259C156.909 37.7968 159.162 39.0925 160.12 37.7361Z" fill="#818FFF"/>
<path d="M164.846 42.3535C170.039 39.757 175.232 37.1605 180.425 34.564C181.923 33.8152 180.608 31.5754 179.115 32.3222C173.922 34.9187 168.729 37.5152 163.536 40.1117C162.038 40.8605 163.353 43.1003 164.846 42.3535Z" fill="#818FFF"/>
<path d="M68.8501 34.1503C66.5994 28.2651 64.3493 22.3793 62.0992 16.4941C61.5077 14.9466 58.9963 15.6175 59.5956 17.1843C61.8457 23.0695 64.0964 28.9547 66.3465 34.8405C66.938 36.388 69.4493 35.717 68.8501 34.1503Z" fill="#818FFF"/>
<path d="M62.2881 37.2133C56.4028 32.0203 50.5176 26.8273 44.6319 21.6343C43.3814 20.5308 41.5379 22.3603 42.7961 23.4701C48.6814 28.6631 54.5671 33.8561 60.4523 39.0491C61.7028 40.1526 63.5458 38.3231 62.2881 37.2133Z" fill="#818FFF"/>
<path d="M58.077 42.0758C52.3647 40.3449 46.6524 38.6141 40.9401 36.8828C39.3334 36.3957 38.6521 38.9023 40.25 39.3863C45.9623 41.1172 51.6746 42.848 57.3869 44.5793C58.9936 45.0664 59.6749 42.5598 58.077 42.0758Z" fill="#818FFF"/>
<path d="M110.437 21.5076C110.264 14.7567 110.09 8.00579 109.917 1.25489C109.874 -0.416218 107.278 -0.420373 107.321 1.25489C107.494 8.00579 107.667 14.7567 107.84 21.5076C107.883 23.1792 110.48 23.1834 110.437 21.5076Z" fill="#818FFF"/>
<path d="M104.028 21.8948C101.432 17.394 98.8353 12.8938 96.2388 8.39299C95.4028 6.94311 93.1584 8.2507 93.997 9.70319C96.5935 14.204 99.19 18.7042 101.787 23.205C102.623 24.6549 104.866 23.3478 104.028 21.8948Z" fill="#818FFF"/>
<path d="M117.008 22.1634C119.086 17.836 121.163 13.5082 123.24 9.18086C123.961 7.67905 121.722 6.36106 120.998 7.87067C118.921 12.198 116.843 16.5258 114.766 20.8532C114.045 22.355 116.284 23.673 117.008 22.1634Z" fill="#818FFF"/>
</svg>
