<svg width="237" height="237" viewBox="0 0 237 237" fill="none" xmlns="http://www.w3.org/2000/svg">
<path d="M190.425 109.729C176.289 44.6361 141.395 23.6445 118.028 23.6445H117.645C94.2778 23.6445 59.3837 44.6361 45.2472 109.729C31.1112 174.822 68.2705 230.999 68.2705 230.999H79.12C79.12 230.999 50.0949 184.317 61.1367 130.226C72.1785 76.1353 99.4349 58.6913 117.687 58.6913H117.986C136.238 58.6913 163.494 76.1347 174.536 130.226C185.578 184.317 156.553 230.999 156.553 230.999H167.402C167.402 230.999 204.562 174.822 190.425 109.729Z" fill="#E2E2F2"/>
<path d="M174.538 130.226C163.496 76.1354 136.24 58.6914 117.988 58.6914H117.689C99.437 58.6914 72.1811 76.1348 61.1387 130.226C50.0969 184.317 79.122 230.999 79.122 230.999H156.555C156.555 230.999 185.58 184.317 174.538 130.226Z" fill="#E2E2F2"/>
<path opacity="0.2" d="M117.835 236.999C146.707 236.999 170.112 234.483 170.112 231.38C170.112 228.277 146.707 225.762 117.835 225.762C88.9637 225.762 65.5586 228.277 65.5586 231.38C65.5586 234.483 88.9637 236.999 117.835 236.999Z" fill="#8444AD"/>
<path d="M145.387 220.953H130.51L120.035 146.715H115.121L111.672 220.953H97.0585L96.2656 141.624L96.5594 133.758L139.016 134.719L139.62 143.899L145.387 220.953Z" fill="#281B46"/>
<path opacity="0.2" d="M132.696 220.953H130.51L120.035 146.715H115.121L111.672 220.953H107.012L107.636 145.861L96.2656 141.624L96.5594 133.758L139.016 134.719L139.62 143.899L127.485 147.374L132.696 220.953Z" fill="#691E46"/>
<path d="M118.732 33.2033C118.732 33.2033 115.4 29.0633 107.377 34.0145C103.426 36.4527 99.4977 43.2019 99.1476 49.3213C98.834 54.8009 91.9348 57.8684 93.197 62.6168C94.0432 65.8003 100.036 67.2999 103.929 64.5904C110.466 72.9849 127.989 73.9816 131.6 64.5778C136.977 68.6839 141.615 65.1596 142.906 63.026C145.035 59.5059 143.202 55.1354 139.207 52.2006C135.212 49.2659 134.448 45.5591 134.214 42.4968C133.68 35.5208 128.057 28.6844 118.732 33.2033Z" fill="#281B46"/>
<path d="M128.059 48.462V52.889C131.555 55.1626 133.536 50.5422 133.024 47.9812C132.888 47.2913 132.569 46.7529 132.052 46.5386C129.611 45.5199 128.059 48.462 128.059 48.462Z" fill="#BA7859"/>
<path d="M128.059 50.1888V52.891C131.555 55.1646 133.536 50.5442 133.024 47.9832C131.091 47.3351 129.282 48.7881 128.059 50.1888Z" fill="#594E41"/>
<path d="M108.42 48.462V52.889C104.924 55.1626 102.943 50.5422 103.455 47.9812C103.591 47.2913 103.91 46.7529 104.427 46.5386C106.868 45.5199 108.42 48.462 108.42 48.462Z" fill="#BA7859"/>
<path d="M108.42 50.1888V52.891C104.924 55.1646 102.943 50.5442 103.455 47.9832C105.389 47.3351 107.197 48.7881 108.42 50.1888Z" fill="#594E41"/>
<path d="M148.553 113.245C146.06 116.569 138.33 115.748 138.33 115.748L138.513 119.344L139.615 134.935H96.0304L96.8823 120.917L97.1018 115.858C97.1018 115.858 90.6077 116.168 89.3591 111.804C88.1151 107.44 92.32 83.9649 94.1906 79.8097C95.5129 76.8723 103.944 72.6649 108.768 70.4488C110.769 69.5341 112.149 68.9592 112.149 68.9592L126.094 68.3477C126.094 68.3477 127.124 68.7815 128.692 69.4818C133.349 71.562 142.757 75.9733 143.844 78.1476C145.302 81.0588 151.046 109.92 148.553 113.245Z" fill="#AEABDA"/>
<path d="M128.697 69.4818C128.112 73.1718 126.068 78.9473 119.039 78.8323C111.836 78.7121 109.516 73.5534 108.773 70.4488C110.775 69.5341 112.155 68.9592 112.155 68.9592L126.1 68.3477C126.1 68.3477 127.129 68.7815 128.697 69.4818Z" fill="#594C8B"/>
<path d="M112.759 230.346C112.759 230.346 86.9313 230.854 86.8288 230.346C86.7996 230.19 87.6829 229.605 88.9268 228.858C91.757 227.17 96.4511 224.676 96.4511 224.676L97.0574 220.953H111.671L112.207 225.569L112.759 230.346Z" fill="#594C8B"/>
<path d="M147.428 230.346C147.428 230.346 121.596 230.853 121.493 230.346C121.459 230.175 122.561 229.463 124.03 228.599C126.88 226.926 131.115 224.676 131.115 224.676L130.505 220.953H145.383L146.129 224.379L147.428 230.346Z" fill="#594C8B"/>
<path d="M112.759 230.345C112.759 230.345 86.9313 230.853 86.8288 230.345C86.7996 230.189 87.6829 229.604 88.9268 228.857H104.298C104.298 228.857 107.358 225.475 112.208 225.568L112.759 230.345Z" fill="#281B46"/>
<path d="M147.428 230.347C147.428 230.347 121.596 230.854 121.493 230.347C121.459 230.176 122.561 229.463 124.03 228.6H140.777C140.777 228.6 142.695 225.243 146.13 224.379L147.428 230.347Z" fill="#281B46"/>
<path d="M125.406 66.0061L126.143 69.4975C126.143 69.4975 125.668 75.7224 119.009 76.1667C112.35 76.611 112.11 68.3947 112.11 68.3947L112.585 66.4399L113.155 64.0984C113.155 64.0984 107.066 61.8509 106.622 54.9727C106.36 50.9116 107.62 41.8799 107.62 41.8799C107.62 41.8799 113.615 42.0995 118.575 38.9844C121.319 41.6343 128.056 42.5437 128.056 42.5437C128.474 45.3243 128.845 48.4289 128.929 54.0841C129.028 60.8631 124.774 63.0112 124.774 63.0112L125.406 66.0061Z" fill="#BA7859"/>
<path d="M111.02 45.8273C111.615 46.7064 115.203 44.5885 114.669 43.4068C114.135 42.2251 110.128 44.5107 111.02 45.8273Z" fill="#281B46"/>
<path d="M124.885 45.3989C124.35 46.3162 120.628 44.4451 121.081 43.2304C121.534 42.0152 125.686 44.0254 124.885 45.3989Z" fill="#281B46"/>
<path d="M112.806 47.5158C112.746 47.7165 112.658 48.9119 112.921 49.0875C113.187 49.2647 113.589 49.2505 113.745 49.0033C113.846 48.8434 113.807 47.6015 113.727 47.4364C113.594 47.1615 112.92 47.1369 112.806 47.5158Z" fill="#281B46"/>
<path d="M121.818 47.5158C121.758 47.7165 121.669 48.9119 121.933 49.0875C122.199 49.2647 122.601 49.2505 122.757 49.0033C122.858 48.8434 122.819 47.6015 122.739 47.4364C122.606 47.1615 121.932 47.1369 121.818 47.5158Z" fill="#281B46"/>
<path d="M117.17 47.6155C117.17 47.6155 116.067 53.7306 117.824 53.7521C119.58 53.7735 118.316 47.5156 118.316 47.5156L117.17 47.6155Z" fill="#594E41"/>
<path d="M126.313 53.3528C125.863 52.9644 125.299 52.5886 124.629 52.1836C124.283 51.974 123.925 51.7586 123.561 51.5459C125.017 50.4635 129.221 47.617 128.904 47.0912C128.622 46.624 124.907 49.4338 122.903 51.1686C121.24 50.2377 119.479 49.4396 117.919 49.4417C117.085 49.4427 115.04 50.0516 113.164 50.8952C111.006 49.0889 107.272 46.0679 106.997 46.5226C106.68 47.0463 110.867 50.1933 112.338 51.2877C111.35 51.7874 110.474 52.3409 109.947 52.8886C109.934 52.9028 109.922 52.9195 109.908 52.9336C108.46 53.4458 106.186 54.2517 106.446 54.685C106.586 54.9171 107.658 54.7059 109.104 54.2016C108.339 55.9933 108.537 58.3865 110.017 59.6409C112.52 61.7624 116.101 62.4518 120.323 61.833C124.428 61.2309 127.071 59.7512 127.526 56.4041C127.619 55.7204 127.548 55.1575 127.334 54.6599C128.344 55.0394 128.914 55.0044 129.03 54.812C129.276 54.4018 127.595 53.8425 126.313 53.3528Z" fill="white"/>
<path d="M110.031 56.5062C110.031 56.5062 118.178 55.3423 125.584 56.4069C118.726 54.0262 112.718 55.2785 110.031 56.5062Z" fill="#CDDBFF"/>
<path d="M112.109 53.8577C112.109 53.8577 118.081 52.6937 123.509 53.7583C118.482 51.3776 114.079 52.6304 112.109 53.8577Z" fill="#CDDBFF"/>
<path d="M125.407 66.0066C123.724 67.2976 120.787 68.4788 118.654 68.4265C116.459 68.3743 114.18 67.376 112.586 66.4404L113.156 64.0989C113.156 64.0989 114.933 65.1285 118.623 64.7052C122.313 64.2818 124.774 63.0117 124.774 63.0117L125.407 66.0066Z" fill="#594E41"/>
<path d="M103.375 86.6544L102.41 105.426L123.508 108.728L137.345 103.514L135.955 85.7852L133.116 97.2566L124.078 100.957L108.77 99.3425L103.375 86.6544Z" fill="#594C8B"/>
<path d="M115.419 107.511L102.41 105.426C102.41 105.426 105.027 101.164 109.669 100.966C114.312 100.767 118.279 104.095 118.279 104.095L115.419 107.511Z" fill="#BA7859"/>
<path d="M138.517 119.344L126.485 119.156L96.8867 120.918L97.1062 115.858L129.788 111.332L138.334 115.749L138.517 119.344Z" fill="#594C8B"/>
<path d="M102.41 105.426L112.11 108.981L111.332 110.35L125.961 115.101L130.13 107.511L102.41 105.426Z" fill="#594C8B"/>
<path d="M113.273 108.978L138.335 115.749L140.474 103.771L116.75 102.207L113.273 108.978Z" fill="#AEABDA"/>
<path d="M130.133 103.117C130.133 103.117 133.74 98.211 136.789 96.3984L137.348 103.515L130.133 103.117Z" fill="#BA7859"/>
<path d="M158.089 103.874C158.089 103.874 152.816 152.701 117.837 175.801C82.8685 152.701 77.5859 103.874 77.5859 103.874L117.837 82.0977L158.089 103.874Z" fill="#D4DAE6"/>
<path d="M117.836 88.5391L83.9375 106.878C83.9375 106.878 88.3833 148.002 117.836 167.452C147.29 148.002 151.736 106.878 151.736 106.878L117.836 88.5391Z" fill="#281B46"/>
<path d="M117.363 172.005C117.002 171.765 116.903 171.279 117.143 170.918C117.379 170.558 117.87 170.458 118.231 170.699C118.591 170.939 118.691 171.426 118.45 171.786C118.299 172.011 118.048 172.136 117.797 172.136C117.645 172.136 117.499 172.094 117.363 172.005ZM125.051 165.859C124.759 165.541 124.785 165.044 125.109 164.751C125.428 164.464 125.924 164.485 126.217 164.809C126.504 165.127 126.478 165.624 126.159 165.917C126.008 166.053 125.82 166.115 125.632 166.115C125.418 166.115 125.209 166.032 125.051 165.859ZM109.439 165.843C109.121 165.556 109.094 165.059 109.387 164.735C109.675 164.417 110.171 164.391 110.495 164.683C110.814 164.97 110.84 165.467 110.547 165.791C110.396 165.958 110.182 166.047 109.967 166.047C109.78 166.048 109.591 165.98 109.439 165.843ZM132.009 158.787C131.679 158.505 131.632 158.014 131.914 157.679C132.191 157.35 132.688 157.308 133.017 157.585C133.352 157.862 133.394 158.359 133.117 158.688C132.96 158.876 132.735 158.97 132.516 158.97C132.337 158.971 132.154 158.908 132.009 158.787ZM102.498 158.609C102.221 158.275 102.263 157.784 102.598 157.501C102.927 157.225 103.424 157.266 103.701 157.601C103.978 157.935 103.936 158.427 103.601 158.703C103.455 158.828 103.277 158.886 103.099 158.886C102.875 158.887 102.655 158.793 102.498 158.609ZM137.987 150.858C137.621 150.623 137.522 150.137 137.757 149.777C137.993 149.411 138.479 149.307 138.839 149.547C139.205 149.782 139.304 150.268 139.069 150.629C138.918 150.859 138.667 150.984 138.411 150.984C138.265 150.984 138.118 150.947 137.987 150.858ZM96.551 150.54C96.3158 150.174 96.4204 149.693 96.781 149.458C97.1469 149.218 97.6329 149.322 97.8681 149.688C98.1033 150.049 97.9988 150.535 97.6382 150.77C97.5023 150.859 97.3559 150.901 97.2096 150.901C96.9535 150.9 96.7026 150.775 96.551 150.54ZM143.016 142.297C142.634 142.099 142.478 141.628 142.676 141.241C142.87 140.855 143.345 140.703 143.732 140.896C144.113 141.095 144.27 141.565 144.072 141.952C143.936 142.224 143.659 142.381 143.371 142.381C143.251 142.381 143.13 142.355 143.016 142.297ZM91.5591 141.859C91.3657 141.472 91.5172 141.001 91.904 140.802C92.2908 140.609 92.7612 140.761 92.9598 141.147C93.1532 141.534 93.0016 142.005 92.6148 142.204C92.4999 142.261 92.3796 142.287 92.2594 142.287C91.972 142.287 91.7002 142.13 91.5591 141.859ZM147.171 133.271C146.768 133.109 146.569 132.654 146.731 132.252C146.894 131.849 147.348 131.651 147.751 131.813C148.153 131.975 148.347 132.43 148.19 132.832C148.07 133.141 147.772 133.323 147.458 133.323C147.364 133.324 147.265 133.307 147.171 133.271ZM87.4514 132.733C87.2946 132.33 87.488 131.876 87.8905 131.714C88.2929 131.557 88.7476 131.75 88.9097 132.153C88.9097 132.153 88.9097 132.153 88.9097 132.158C89.0717 132.556 88.8731 133.016 88.4706 133.172C88.3766 133.209 88.2773 133.229 88.1832 133.229C87.8691 133.229 87.5769 133.041 87.4514 132.733ZM150.51 123.91C150.097 123.785 149.862 123.346 149.988 122.928C149.988 122.928 149.988 122.928 149.988 122.933C150.113 122.515 150.552 122.285 150.965 122.41C151.383 122.536 151.613 122.97 151.488 123.388C151.388 123.722 151.075 123.942 150.74 123.942C150.662 123.941 150.589 123.931 150.51 123.91ZM84.1587 123.283C84.0332 122.87 84.2684 122.431 84.6813 122.306C85.0995 122.18 85.5385 122.416 85.6639 122.834C85.6639 122.834 85.6639 122.834 85.6587 122.834C85.7894 123.247 85.5542 123.68 85.136 123.811C85.0629 123.832 84.9845 123.842 84.9113 123.842C84.5716 123.842 84.2627 123.622 84.1587 123.283ZM153.071 114.299C152.648 114.21 152.382 113.792 152.47 113.368C152.564 112.945 152.983 112.678 153.406 112.767C153.829 112.861 154.096 113.274 154.007 113.703C153.929 114.069 153.599 114.319 153.239 114.319C153.186 114.319 153.129 114.314 153.071 114.299ZM81.6551 113.598H81.6499C81.561 113.175 81.8276 112.757 82.2562 112.663C82.6795 112.574 83.0924 112.846 83.1865 113.269C83.2754 113.692 83.0088 114.105 82.5854 114.199C82.5279 114.21 82.4705 114.215 82.4182 114.215C82.0575 114.214 81.7335 113.964 81.6551 113.598ZM152.497 105.424C152.115 105.215 151.974 104.739 152.183 104.357C152.387 103.981 152.863 103.835 153.244 104.044C153.626 104.248 153.767 104.723 153.558 105.105C153.417 105.366 153.15 105.517 152.873 105.517C152.742 105.517 152.617 105.486 152.497 105.424ZM82.2138 105.057C82.0048 104.676 82.1459 104.2 82.5274 103.991C82.909 103.787 83.3846 103.928 83.5937 104.31C83.7975 104.691 83.6564 105.167 83.2748 105.371C83.1546 105.434 83.0292 105.465 82.9037 105.465C82.6215 105.466 82.3555 105.319 82.2138 105.057ZM143.763 100.699C143.382 100.49 143.241 100.014 143.444 99.6326C143.654 99.251 144.129 99.1099 144.511 99.319C144.892 99.5228 145.033 99.9984 144.824 100.38C144.683 100.641 144.411 100.793 144.134 100.793C144.008 100.793 143.884 100.762 143.763 100.699ZM90.9475 100.328C90.7437 99.9514 90.8848 99.4758 91.2611 99.2667C91.6427 99.0629 92.1183 99.204 92.3274 99.5855C92.5312 99.9671 92.3901 100.443 92.0086 100.647C91.8936 100.709 91.7629 100.741 91.6369 100.741C91.3604 100.741 91.0887 100.594 90.9475 100.328ZM135.029 95.9682C134.648 95.7643 134.506 95.2887 134.71 94.9072C134.919 94.5309 135.395 94.3845 135.776 94.5936C136.153 94.7974 136.299 95.273 136.09 95.6546C135.949 95.9159 135.682 96.0675 135.4 96.0675C135.275 96.068 135.149 96.0367 135.029 95.9682ZM99.6813 95.6028C99.4774 95.2213 99.6185 94.7457 100 94.5418C100.376 94.338 100.852 94.4791 101.061 94.8607C101.265 95.2422 101.124 95.7178 100.742 95.9217C100.627 95.9844 100.497 96.0157 100.371 96.0157C100.094 96.0157 99.8224 95.8689 99.6813 95.6028ZM126.295 91.2438C125.914 91.04 125.773 90.5644 125.977 90.1828C126.186 89.8013 126.656 89.6601 127.038 89.8692C127.419 90.0731 127.56 90.5487 127.356 90.9302C127.215 91.1916 126.943 91.3431 126.666 91.3431C126.542 91.3431 126.411 91.3118 126.295 91.2438ZM108.415 90.8774C108.211 90.5011 108.352 90.0255 108.734 89.8164C109.115 89.6126 109.591 89.7537 109.795 90.1353C109.999 90.5116 109.858 90.9872 109.476 91.1963C109.361 91.259 109.23 91.2903 109.105 91.2903C108.828 91.2909 108.556 91.144 108.415 90.8774ZM117.562 86.5236C117.541 86.5132 117.525 86.5027 117.509 86.4923C117.363 86.4243 117.232 86.3094 117.149 86.1526C116.945 85.7762 117.086 85.3006 117.468 85.0915C117.724 84.9504 118.027 84.9713 118.262 85.1177C118.272 85.1281 118.288 85.1334 118.303 85.1438C118.685 85.3476 118.826 85.8233 118.622 86.2048C118.481 86.4661 118.209 86.6177 117.932 86.6177C117.808 86.6182 117.677 86.5869 117.562 86.5236Z" fill="#281B46"/>
<path d="M122.063 111.672H113.613V136.386H122.063V111.672Z" fill="#AEABDA"/>
<path d="M130.195 128.254V119.805H105.482V128.254H130.195Z" fill="#AEABDA"/>
<path opacity="0.2" d="M117.837 82.0977V175.801C82.8685 152.701 77.5859 103.874 77.5859 103.874L117.837 82.0977Z" fill="#6B1E5D"/>
<path d="M100.771 67.5378C100.649 67.5378 100.526 67.5326 100.403 67.5227C97.3564 67.2755 95.3118 64.0663 95.2266 63.9299L95.6693 63.6523C95.6891 63.6837 97.6632 66.7774 100.448 67.0021C101.996 67.1239 103.532 66.3425 105.004 64.67L105.396 65.0154C103.921 66.6906 102.367 67.5378 100.771 67.5378Z" fill="#281B46"/>
<path d="M126.158 43.2398C125.741 43.2398 125.324 43.2027 124.905 43.128C120.866 42.4077 118.265 38.4956 118.156 38.3294L118.594 38.043C118.619 38.0816 121.185 41.9353 125 42.6142C126.965 42.9633 128.938 42.4171 130.862 40.9892L131.174 41.4089C129.533 42.6262 127.851 43.2398 126.158 43.2398Z" fill="#281B46"/>
<path d="M11.1135 73.6193L20.7374 49.9823C21.052 49.2093 21.7482 48.614 22.5797 48.5429C22.9033 48.5152 23.1332 48.4085 23.209 48.2214C23.393 47.7699 22.6169 47.0271 21.4754 46.5625C20.3339 46.0978 19.2598 46.0874 19.0758 46.539C18.9995 46.7261 19.0894 46.9623 19.3016 47.2085C19.8467 47.8404 19.9293 48.7525 19.6147 49.5255L9.99085 73.1624C9.67621 73.9355 8.98002 74.5303 8.14846 74.6019C7.82493 74.6296 7.59496 74.7362 7.51918 74.9233C7.3352 75.3749 8.11135 76.1176 9.25285 76.5822C10.3944 77.0469 11.4684 77.0573 11.6524 76.6058C11.7287 76.4186 11.6388 76.1819 11.4266 75.9362C10.881 75.3043 10.7984 74.3923 11.1135 73.6193Z" fill="#7B6EB9"/>
<path d="M3.31845 57.3206L26.9554 66.9444C27.7284 67.259 28.3237 67.9552 28.3948 68.7868C28.4225 69.1108 28.5292 69.3403 28.7163 69.4161C29.1679 69.6 29.9106 68.8239 30.3752 67.6824C30.8399 66.5409 30.8508 65.4668 30.3987 65.2828C30.2116 65.2065 29.9754 65.2964 29.7292 65.5086C29.0973 66.0538 28.1852 66.1363 27.4122 65.8217L3.77526 56.1979C3.00224 55.8832 2.40744 55.1871 2.33584 54.3555C2.30814 54.032 2.20151 53.802 2.0144 53.7262C1.56282 53.5422 0.820113 54.3184 0.355464 55.4599C-0.109184 56.6014 -0.119637 57.6755 0.331944 57.8594C0.519058 57.9357 0.755303 57.8458 1.00148 57.6336C1.63338 57.0885 2.5449 57.0059 3.31845 57.3206Z" fill="#7B6EB9"/>
<path d="M3.84067 67.0861L27.3595 57.1774C28.1289 56.8533 29.0415 56.9249 29.6801 57.4622C29.9289 57.6718 30.1662 57.7586 30.3523 57.6802C30.8018 57.491 30.7777 56.4169 30.2995 55.2812C29.8207 54.1454 29.0692 53.3781 28.6197 53.5679C28.4336 53.6463 28.3301 53.8768 28.3061 54.2013C28.2449 55.034 27.6585 55.7369 26.8891 56.061L3.36975 65.9697C2.60039 66.2937 1.68782 66.2221 1.04912 65.6848C0.800333 65.4757 0.563044 65.3884 0.376975 65.4668C-0.0725159 65.6561 -0.0489961 66.7301 0.429764 67.8659C0.908002 69.0016 1.66012 69.7689 2.10961 69.5792C2.29568 69.5008 2.39969 69.2698 2.42321 68.9457C2.48488 68.1136 3.07131 67.4101 3.84067 67.0861Z" fill="#7B6EB9"/>
<path d="M9.84952 50.047L19.7582 73.5658C20.0822 74.3352 20.0106 75.2478 19.4733 75.8865C19.2637 76.1353 19.177 76.3725 19.2554 76.5586C19.4446 77.0081 20.5187 76.9841 21.6544 76.5058C22.7902 76.0276 23.5574 75.275 23.3682 74.826C23.2898 74.6399 23.0593 74.5359 22.7348 74.5124C21.9022 74.4512 21.1992 73.8648 20.8751 73.0954L10.9665 49.5766C10.6424 48.8072 10.714 47.8947 11.2513 47.256C11.4604 47.0072 11.5477 46.7699 11.4693 46.5838C11.2801 46.1343 10.206 46.1584 9.07023 46.6366C7.93448 47.1148 7.16721 47.867 7.35694 48.3165C7.43534 48.5025 7.66635 48.606 7.9904 48.63C8.82249 48.6912 9.52547 49.2776 9.84952 50.047Z" fill="#7B6EB9"/>
<path d="M24.8276 63.8129C26.0621 58.5849 22.8247 53.3461 17.5967 52.1116C12.3687 50.8771 7.12984 54.1145 5.89537 59.3425C4.6609 64.5705 7.89828 69.8093 13.1263 71.0438C18.3542 72.2783 23.5931 69.0409 24.8276 63.8129Z" fill="#938CCB"/>
<path d="M15.8851 72.5828V50.5661C15.8851 49.8459 16.2479 49.144 16.8892 48.8168C17.139 48.6893 17.2874 48.5293 17.2874 48.3553C17.2874 47.9345 16.4256 47.5938 15.3625 47.5938C14.2994 47.5938 13.4375 47.9345 13.4375 48.3553C13.4375 48.5293 13.5865 48.6893 13.8358 48.8168C14.4771 49.1445 14.8398 49.8459 14.8398 50.5661V72.5828C14.8398 73.3031 14.4771 74.0045 13.8358 74.3322C13.5859 74.4597 13.4375 74.6197 13.4375 74.7937C13.4375 75.2145 14.2994 75.5552 15.3625 75.5552C16.4256 75.5552 17.2874 75.2145 17.2874 74.7937C17.2874 74.6197 17.1385 74.4597 16.8892 74.3322C16.2479 74.0045 15.8851 73.3031 15.8851 72.5828Z" fill="#938CCB"/>
<path d="M4.35573 62.1H26.3724C27.0927 62.1 27.7946 62.4627 28.1218 63.104C28.2493 63.3539 28.4093 63.5023 28.5833 63.5023C29.004 63.5023 29.3448 62.6404 29.3448 61.5773C29.3448 60.5142 29.004 59.6523 28.5833 59.6523C28.4093 59.6523 28.2493 59.8013 28.1218 60.0506C27.7941 60.6919 27.0927 61.0547 26.3724 61.0547H4.3552C3.63497 61.0547 2.93356 60.6919 2.60585 60.0506C2.47832 59.8008 2.31838 59.6523 2.14433 59.6523C1.72359 59.6523 1.38281 60.5142 1.38281 61.5773C1.38281 62.6404 1.72359 63.5023 2.14433 63.5023C2.31838 63.5023 2.47832 63.3533 2.60585 63.104C2.93356 62.4627 3.63549 62.1 4.35573 62.1Z" fill="#938CCB"/>
<path d="M7.95206 69.7272L23.5201 54.1591C24.0292 53.65 24.7818 53.4101 25.4671 53.6317C25.7336 53.718 25.9521 53.7101 26.0749 53.5873C26.3723 53.2899 26.0038 52.4395 25.2522 51.6874C24.5006 50.9358 23.6498 50.5673 23.3524 50.8647C23.229 50.9881 23.2212 51.206 23.3079 51.4726C23.5295 52.1578 23.2902 52.9104 22.7806 53.4195L7.21249 68.9876C6.70341 69.4967 5.95077 69.7366 5.26556 69.515C4.999 69.4287 4.78053 69.4366 4.6577 69.5594C4.36031 69.8568 4.72879 70.7072 5.48038 71.4593C6.23197 72.2109 7.08234 72.5793 7.37974 72.2819C7.50309 72.1586 7.51093 71.9406 7.42416 71.6741C7.20255 70.9889 7.44246 70.2362 7.95206 69.7272Z" fill="#938CCB"/>
<path d="M7.21249 54.1591L22.7806 69.7272C23.2896 70.2362 23.5295 70.9889 23.3079 71.6741C23.2217 71.9406 23.2295 72.1591 23.3524 72.2819C23.6498 72.5793 24.5001 72.2109 25.2522 71.4593C26.0038 70.7077 26.3723 69.8568 26.0749 69.5594C25.9516 69.436 25.7336 69.4282 25.4671 69.515C24.7818 69.7366 24.0292 69.4972 23.5201 68.9876L7.95206 53.4195C7.44298 52.9104 7.20308 52.1578 7.42469 51.4726C7.51093 51.206 7.50309 50.9876 7.38026 50.8647C7.08286 50.5673 6.23249 50.9358 5.48038 51.6874C4.72879 52.439 4.36031 53.2894 4.6577 53.5873C4.78105 53.7106 4.999 53.7185 5.26556 53.6317C5.95025 53.4101 6.70289 53.65 7.21249 54.1591Z" fill="#938CCB"/>
<path d="M14.5708 56.3982C14.5708 57.339 13.8082 58.1015 12.8674 58.1015C11.9266 58.1015 11.1641 57.339 11.1641 56.3982C11.1641 55.4574 11.9266 54.6953 12.8674 54.6953C13.8082 54.6953 14.5708 55.4574 14.5708 56.3982Z" fill="#7B6EB9"/>
<path d="M22.4726 65.0471C22.4726 65.9879 21.71 66.75 20.7692 66.75C19.8284 66.75 19.0664 65.9874 19.0664 65.0471C19.0664 64.1063 19.829 63.3438 20.7692 63.3438C21.7106 63.3438 22.4726 64.1063 22.4726 65.0471Z" fill="#7B6EB9"/>
<path d="M21.9302 58.1057C21.9302 59.0465 21.1676 59.8085 20.2268 59.8085C19.286 59.8085 18.5234 59.046 18.5234 58.1057C18.5234 57.1649 19.286 56.4023 20.2268 56.4023C21.1676 56.4023 21.9302 57.1649 21.9302 58.1057Z" fill="#7B6EB9"/>
<path d="M17.977 61.7966C17.977 62.7374 17.2145 63.5 16.2737 63.5C15.3329 63.5 14.5703 62.7374 14.5703 61.7966C14.5703 60.8558 15.3329 60.0938 16.2737 60.0938C17.2145 60.0938 17.977 60.8563 17.977 61.7966Z" fill="#7B6EB9"/>
<path d="M15.1445 66.7497C15.1445 67.6905 14.3819 68.4531 13.4416 68.4531C12.5008 68.4531 11.7383 67.6905 11.7383 66.7497C11.7383 65.8089 12.5008 65.0469 13.4416 65.0469C14.3819 65.0464 15.1445 65.8089 15.1445 66.7497Z" fill="#7B6EB9"/>
<path d="M11.164 61.5739C11.164 62.5147 10.4014 63.2773 9.46065 63.2773C8.51986 63.2773 7.75781 62.5147 7.75781 61.5739C7.75781 60.6331 8.52038 59.8711 9.46065 59.8711C10.4014 59.8706 11.164 60.6331 11.164 61.5739Z" fill="#7B6EB9"/>
<path d="M12.4573 150.733L22.0811 127.096C22.3957 126.323 23.0919 125.728 23.9235 125.656C24.247 125.629 24.477 125.522 24.5528 125.335C24.7368 124.883 23.9606 124.141 22.8191 123.676C21.6776 123.211 20.6035 123.2 20.4196 123.652C20.3432 123.839 20.4331 124.075 20.6453 124.322C21.1905 124.953 21.2731 125.865 20.9584 126.639L11.3346 150.275C11.02 151.048 10.3238 151.643 9.49221 151.715C9.16869 151.743 8.93923 151.849 8.86293 152.036C8.67895 152.488 9.4551 153.231 10.5966 153.695C11.7381 154.16 12.8122 154.17 12.9962 153.719C13.0725 153.532 12.9826 153.296 12.7704 153.05C12.2252 152.418 12.1426 151.506 12.4573 150.733Z" fill="#7B6EB9"/>
<path d="M4.66168 134.434L28.2986 144.058C29.0717 144.372 29.667 145.068 29.7381 145.9C29.7658 146.224 29.8724 146.454 30.0595 146.529C30.5111 146.713 31.2538 145.937 31.7184 144.796C32.1831 143.654 32.1941 142.58 31.7425 142.396C31.5554 142.32 31.3191 142.41 31.0729 142.622C30.441 143.167 29.529 143.25 28.756 142.935L5.11901 133.311C4.34599 132.997 3.75119 132.3 3.67959 131.469C3.65189 131.145 3.54526 130.916 3.35815 130.839C2.90657 130.656 2.16386 131.432 1.69921 132.573C1.23457 133.715 1.22411 134.789 1.67569 134.973C1.86281 135.049 2.09905 134.959 2.34523 134.747C2.97661 134.202 3.88866 134.119 4.66168 134.434Z" fill="#7B6EB9"/>
<path d="M5.1839 144.2L28.7027 134.291C29.4721 133.967 30.3847 134.039 31.0234 134.576C31.2722 134.785 31.5094 134.872 31.6955 134.794C32.145 134.605 32.121 133.531 31.6427 132.395C31.1645 131.259 30.4119 130.492 29.9629 130.681C29.7768 130.759 29.6733 130.99 29.6493 131.314C29.5881 132.147 29.0017 132.85 28.2323 133.174L4.7135 143.082C3.94414 143.406 3.03157 143.335 2.39287 142.797C2.14408 142.588 1.90679 142.501 1.72073 142.579C1.27123 142.769 1.29475 143.843 1.77351 144.978C2.25175 146.114 3.00387 146.882 3.45336 146.692C3.63942 146.613 3.74344 146.382 3.76695 146.058C3.82811 145.227 4.41454 144.524 5.1839 144.2Z" fill="#7B6EB9"/>
<path d="M11.1926 127.16L21.1013 150.679C21.4253 151.448 21.3537 152.361 20.8164 153C20.6074 153.249 20.5201 153.486 20.5985 153.672C20.7877 154.121 21.8618 154.097 22.9975 153.619C24.1333 153.141 24.9005 152.389 24.7113 151.939C24.6329 151.753 24.4024 151.65 24.0784 151.626C23.2458 151.565 22.5428 150.978 22.2187 150.209L12.3101 126.69C11.986 125.921 12.0576 125.008 12.5949 124.369C12.804 124.12 12.8913 123.883 12.8129 123.697C12.6237 123.248 11.5496 123.272 10.4139 123.75C9.2781 124.228 8.51135 124.98 8.70056 125.43C8.77896 125.616 9.00998 125.72 9.33403 125.743C10.1651 125.804 10.8686 126.391 11.1926 127.16Z" fill="#7B6EB9"/>
<path d="M26.1674 140.926C27.4019 135.698 24.1645 130.459 18.9365 129.225C13.7085 127.99 8.46969 131.228 7.23521 136.456C6.00074 141.684 9.23811 146.923 14.4661 148.157C19.6941 149.392 24.9329 146.154 26.1674 140.926Z" fill="#938CCB"/>
<path d="M17.2289 149.692V127.676C17.2289 126.955 17.5916 126.253 18.2329 125.926C18.4828 125.799 18.6312 125.639 18.6312 125.465C18.6312 125.044 17.7693 124.703 16.7062 124.703C15.6431 124.703 14.7812 125.044 14.7812 125.465C14.7812 125.639 14.9302 125.799 15.1795 125.926C15.8208 126.254 16.1836 126.955 16.1836 127.676V149.692C16.1836 150.412 15.8208 151.114 15.1795 151.442C14.9297 151.569 14.7812 151.729 14.7812 151.903C14.7812 152.324 15.6431 152.665 16.7062 152.665C17.7693 152.665 18.6312 152.324 18.6312 151.903C18.6312 151.729 18.4822 151.569 18.2329 151.442C17.5916 151.114 17.2289 150.412 17.2289 149.692Z" fill="#938CCB"/>
<path d="M5.69895 139.205H27.7157C28.4359 139.205 29.1373 139.568 29.465 140.209C29.5926 140.459 29.7525 140.608 29.9265 140.608C30.3473 140.608 30.6881 139.746 30.6881 138.683C30.6881 137.62 30.3473 136.758 29.9265 136.758C29.7525 136.758 29.5926 136.906 29.465 137.156C29.1373 137.797 28.4359 138.16 27.7157 138.16H5.69895C4.97872 138.16 4.27731 137.797 3.9496 137.156C3.82207 136.906 3.66213 136.758 3.48808 136.758C3.06734 136.758 2.72656 137.62 2.72656 138.683C2.72656 139.746 3.06734 140.608 3.48808 140.608C3.66213 140.608 3.82207 140.459 3.9496 140.209C4.27731 139.568 4.97872 139.205 5.69895 139.205Z" fill="#938CCB"/>
<path d="M9.2919 146.84L24.86 131.272C25.369 130.763 26.1217 130.523 26.8069 130.744C27.0735 130.831 27.2919 130.823 27.4148 130.7C27.7122 130.403 27.3437 129.552 26.5921 128.801C25.8405 128.049 24.9896 127.681 24.6922 127.978C24.5688 128.101 24.561 128.319 24.6478 128.586C24.8694 129.271 24.63 130.024 24.1204 130.533L8.55233 146.101C8.04325 146.61 7.29062 146.85 6.60541 146.628C6.33885 146.542 6.12089 146.55 5.99755 146.673C5.70015 146.97 6.06863 147.82 6.82022 148.573C7.57181 149.324 8.42218 149.693 8.7201 149.395C8.84345 149.272 8.85129 149.054 8.76453 148.787C8.54292 148.102 8.78282 147.349 9.2919 146.84Z" fill="#938CCB"/>
<path d="M8.55624 131.268L24.1243 146.837C24.6334 147.346 24.8733 148.098 24.6517 148.783C24.5654 149.05 24.5733 149.268 24.6961 149.391C24.9935 149.689 25.8439 149.32 26.596 148.569C27.3476 147.817 27.7161 146.966 27.4187 146.669C27.2953 146.545 27.0774 146.538 26.8108 146.624C26.1256 146.846 25.373 146.606 24.8639 146.097L9.29581 130.529C8.78673 130.02 8.54683 129.267 8.76844 128.582C8.85468 128.315 8.84684 128.097 8.72401 127.974C8.42661 127.677 7.57624 128.045 6.82413 128.797C6.07254 129.548 5.70406 130.399 6.00145 130.696C6.1248 130.819 6.34275 130.827 6.60931 130.741C7.29452 130.519 8.04716 130.759 8.55624 131.268Z" fill="#938CCB"/>
<path d="M15.914 133.508C15.914 134.449 15.1514 135.211 14.2107 135.211C13.2699 135.211 12.5078 134.449 12.5078 133.508C12.5078 132.567 13.2704 131.805 14.2107 131.805C15.1514 131.805 15.914 132.568 15.914 133.508Z" fill="#7B6EB9"/>
<path d="M23.8164 142.156C23.8164 143.097 23.0538 143.859 22.113 143.859C21.1722 143.859 20.4102 143.097 20.4102 142.156C20.4102 141.215 21.1727 140.453 22.113 140.453C23.0538 140.453 23.8164 141.216 23.8164 142.156Z" fill="#7B6EB9"/>
<path d="M23.2734 135.211C23.2734 136.152 22.5108 136.915 21.5705 136.915C20.6298 136.915 19.8672 136.152 19.8672 135.211C19.8672 134.27 20.6298 133.508 21.5705 133.508C22.5108 133.508 23.2734 134.27 23.2734 135.211Z" fill="#7B6EB9"/>
<path d="M19.3203 138.903C19.3203 139.843 18.5577 140.606 17.6169 140.606C16.6761 140.606 15.9141 139.843 15.9141 138.903C15.9141 137.962 16.6766 137.199 17.6169 137.199C18.5577 137.2 19.3203 137.962 19.3203 138.903Z" fill="#7B6EB9"/>
<path d="M16.4849 143.86C16.4849 144.8 15.7223 145.562 14.7815 145.562C13.8407 145.562 13.0781 144.8 13.0781 143.86C13.0781 142.919 13.8407 142.156 14.7815 142.156C15.7223 142.156 16.4849 142.919 16.4849 143.86Z" fill="#7B6EB9"/>
<path d="M12.5078 138.683C12.5078 139.624 11.7452 140.387 10.8044 140.387C9.86361 140.387 9.10156 139.624 9.10156 138.683C9.10156 137.743 9.86413 136.98 10.8044 136.98C11.7452 136.98 12.5078 137.743 12.5078 138.683Z" fill="#7B6EB9"/>
<path d="M197.477 46.7471L218.644 22.0523C219.336 21.2448 220.418 20.8063 221.452 21.0551C221.855 21.1523 222.175 21.1157 222.343 20.9207C222.747 20.4488 222.109 19.2377 220.916 18.2159C219.723 17.1936 218.429 16.7478 218.025 17.2192C217.857 17.4147 217.87 17.7367 218.028 18.1198C218.432 19.1039 218.164 20.2397 217.472 21.0472L196.304 45.7421C195.612 46.5496 194.53 46.9881 193.496 46.7393C193.094 46.6421 192.774 46.6787 192.606 46.8741C192.201 47.3461 192.84 48.5571 194.033 49.5789C195.225 50.6013 196.52 51.0471 196.924 50.5751C197.091 50.3796 197.078 50.0577 196.921 49.6746C196.516 48.6904 196.785 47.5546 197.477 46.7471Z" fill="#7B6EB9"/>
<path d="M194.625 23.8989L219.32 45.0658C220.127 45.7583 220.566 46.8397 220.317 47.874C220.22 48.2765 220.257 48.5969 220.452 48.7647C220.924 49.1692 222.135 48.53 223.157 47.3378C224.179 46.1451 224.625 44.851 224.153 44.4464C223.958 44.2792 223.636 44.2922 223.253 44.4495C222.269 44.8541 221.133 44.586 220.325 43.8934L195.631 22.7261C194.823 22.0335 194.385 20.9521 194.633 19.9183C194.731 19.5159 194.694 19.1955 194.499 19.0277C194.027 18.6231 192.816 19.2624 191.794 20.4546C190.772 21.6468 190.326 22.9414 190.798 23.3459C190.993 23.5137 191.315 23.5001 191.698 23.3428C192.682 22.9388 193.818 23.2064 194.625 23.8989Z" fill="#7B6EB9"/>
<path d="M191.319 35.9137L223.748 33.4195C224.808 33.338 225.883 33.7927 226.439 34.7001C226.654 35.0534 226.907 35.2546 227.163 35.2347C227.783 35.1872 228.188 33.879 228.067 32.313C227.947 30.7471 227.347 29.5163 226.727 29.5638C226.47 29.5837 226.252 29.8205 226.092 30.2031C225.683 31.1846 224.69 31.7982 223.629 31.8798L191.2 34.3744C190.139 34.456 189.064 34.0013 188.509 33.0939C188.293 32.7406 188.041 32.5399 187.784 32.5597C187.165 32.6073 186.76 33.9155 186.881 35.4814C187.001 37.0473 187.601 38.2782 188.221 38.2301C188.477 38.2103 188.696 37.973 188.855 37.5909C189.266 36.6088 190.258 35.9952 191.319 35.9137Z" fill="#7B6EB9"/>
<path d="M205.458 17.7405L207.953 50.1697C208.034 51.2302 207.579 52.3053 206.672 52.8604C206.319 53.0768 206.117 53.3287 206.137 53.5853C206.185 54.2047 207.493 54.6097 209.059 54.489C210.625 54.3688 211.856 53.7688 211.808 53.1489C211.788 52.8923 211.552 52.6738 211.169 52.5144C210.187 52.1046 209.574 51.1121 209.492 50.0511L206.998 17.6218C206.916 16.5614 207.371 15.4862 208.278 14.9312C208.631 14.7153 208.832 14.4629 208.813 14.2062C208.765 13.5869 207.457 13.1818 205.891 13.3025C204.325 13.4233 203.094 14.0228 203.142 14.6427C203.162 14.8993 203.399 15.1178 203.781 15.2772C204.763 15.6869 205.376 16.68 205.458 17.7405Z" fill="#7B6EB9"/>
<path d="M213.007 44.9838C219.131 41.9235 221.615 34.478 218.555 28.3539C215.494 22.2297 208.049 19.746 201.925 22.8064C195.801 25.8667 193.317 33.3122 196.377 39.4364C199.438 45.5605 206.883 48.0442 213.007 44.9838Z" fill="#938CCB"/>
<path d="M203.668 47.4162L212.547 20.7991C212.837 19.9283 213.559 19.2264 214.466 19.0889C214.819 19.0356 215.063 18.9023 215.134 18.6917C215.304 18.1831 214.399 17.4232 213.114 16.9946C211.829 16.566 210.649 16.6303 210.48 17.1388C210.41 17.3495 210.525 17.6024 210.775 17.8575C211.418 18.5124 211.574 19.507 211.283 20.3773L202.404 46.995C202.113 47.8657 201.392 48.5677 200.485 48.7051C200.131 48.7584 199.887 48.8917 199.817 49.1024C199.648 49.6109 200.552 50.3709 201.837 50.7994C203.123 51.228 204.302 51.1638 204.472 50.6552C204.542 50.4446 204.427 50.1916 204.176 49.9365C203.532 49.2816 203.377 48.287 203.668 47.4162Z" fill="#938CCB"/>
<path d="M193.955 30.0902L220.573 38.9693C221.443 39.2599 222.145 39.9811 222.283 40.8885C222.336 41.2418 222.469 41.4859 222.68 41.5564C223.189 41.7263 223.948 40.8216 224.377 39.5363C224.806 38.2511 224.741 37.0715 224.233 36.9021C224.022 36.8321 223.769 36.9471 223.514 37.1974C222.86 37.8408 221.865 37.9961 220.994 37.7055L194.377 28.8264C193.506 28.5358 192.804 27.8146 192.667 26.9072C192.614 26.5539 192.48 26.3098 192.27 26.2392C191.761 26.0694 191.001 26.9741 190.573 28.2593C190.144 29.5446 190.208 30.7237 190.717 30.8936C190.928 30.9641 191.181 30.8486 191.436 30.5983C192.09 29.9549 193.085 29.7996 193.955 30.0902Z" fill="#938CCB"/>
<path d="M195.222 40.7642L220.321 28.2219C221.142 27.8116 222.149 27.8252 222.887 28.3698C223.175 28.582 223.442 28.6604 223.641 28.5611C224.12 28.3212 224.018 27.1447 223.412 25.9326C222.806 24.7205 221.927 23.9324 221.447 24.1717C221.248 24.271 221.151 24.5313 221.148 24.8888C221.14 25.8066 220.546 26.6199 219.725 27.0302L194.625 39.5731C193.804 39.9834 192.798 39.9698 192.059 39.4252C191.772 39.213 191.505 39.1346 191.306 39.2339C190.827 39.4733 190.929 40.6503 191.534 41.8624C192.14 43.0744 193.02 43.8626 193.499 43.6227C193.698 43.5234 193.795 43.2631 193.798 42.9056C193.807 41.9878 194.401 41.1745 195.222 40.7642Z" fill="#938CCB"/>
<path d="M200.605 21.6431L213.147 46.7425C213.557 47.5636 213.544 48.5703 212.999 49.3088C212.787 49.5963 212.708 49.8633 212.808 50.062C213.047 50.5412 214.224 50.4393 215.436 49.8336C216.648 49.2278 217.436 48.3481 217.197 47.8689C217.098 47.6703 216.837 47.573 216.48 47.5699C215.562 47.5615 214.749 46.9683 214.339 46.1472L201.796 21.0473C201.385 20.2262 201.399 19.2195 201.944 18.481C202.156 18.1936 202.234 17.9265 202.135 17.7279C201.896 17.2486 200.719 17.3505 199.506 17.9563C198.294 18.562 197.506 19.4417 197.746 19.921C197.845 20.1196 198.106 20.2168 198.463 20.2199C199.382 20.2288 200.195 20.822 200.605 21.6431Z" fill="#938CCB"/>
<path d="M208.597 27.3192C208.218 28.4565 206.989 29.0707 205.851 28.6912C204.714 28.3118 204.1 27.0825 204.479 25.9451C204.859 24.8078 206.088 24.1937 207.225 24.5731C208.362 24.9531 208.977 26.1824 208.597 27.3192Z" fill="#7B6EB9"/>
<path d="M214.668 40.9638C214.288 42.1011 213.059 42.7152 211.922 42.3357C210.784 41.9563 210.17 40.727 210.55 39.5897C210.929 38.4524 212.158 37.8382 213.296 38.2177C214.433 38.5971 215.047 39.8264 214.668 40.9638Z" fill="#7B6EB9"/>
<path d="M216.812 32.3466C216.433 33.4839 215.204 34.098 214.066 33.7186C212.929 33.3391 212.315 32.1098 212.694 30.9725C213.074 29.8352 214.303 29.221 215.44 29.6005C216.577 29.9799 217.192 31.2092 216.812 32.3466Z" fill="#7B6EB9"/>
<path d="M210.543 35.2177C210.163 36.355 208.934 36.9691 207.797 36.5897C206.659 36.2102 206.045 34.9809 206.425 33.8436C206.804 32.7063 208.033 32.0921 209.171 32.4716C210.308 32.851 210.922 34.0803 210.543 35.2177Z" fill="#7B6EB9"/>
<path d="M205.121 40.0653C204.741 41.2026 203.512 41.8168 202.375 41.4373C201.238 41.0579 200.623 39.8285 201.003 38.6912C201.382 37.5539 202.612 36.9398 203.749 37.3192C204.886 37.6992 205.5 38.9285 205.121 40.0653Z" fill="#7B6EB9"/>
<path d="M202.394 32.202C202.015 33.3394 200.786 33.9535 199.648 33.574C198.511 33.1946 197.897 31.9653 198.276 30.8279C198.656 29.6906 199.885 29.0765 201.022 29.456C202.16 29.8354 202.774 31.0647 202.394 32.202Z" fill="#7B6EB9"/>
<path d="M201.384 87.8864L212.854 74.5057C213.229 74.0682 213.815 73.8304 214.375 73.9652C214.593 74.018 214.767 73.9981 214.858 73.8926C215.077 73.637 214.731 72.9805 214.085 72.427C213.439 71.873 212.737 71.6315 212.518 71.8871C212.427 71.9927 212.435 72.1672 212.52 72.3753C212.739 72.9084 212.593 73.5236 212.219 73.9616L200.749 87.3423C200.374 87.7798 199.788 88.0176 199.228 87.8827C199.01 87.8305 198.836 87.8498 198.745 87.9559C198.526 88.2115 198.872 88.8679 199.518 89.4214C200.164 89.9755 200.866 90.2169 201.085 89.9614C201.176 89.8553 201.169 89.6807 201.083 89.4732C200.864 88.9395 201.009 88.3244 201.384 87.8864Z" fill="#7B6EB9"/>
<path d="M199.841 75.5054L213.222 86.9748C213.659 87.3501 213.897 87.936 213.762 88.4963C213.709 88.7142 213.729 88.8883 213.835 88.9787C214.09 89.1977 214.747 88.8517 215.3 88.2057C215.854 87.5597 216.096 86.8582 215.84 86.6392C215.735 86.5483 215.56 86.5556 215.352 86.6408C214.819 86.8598 214.203 86.7145 213.766 86.3398L200.385 74.8704C199.948 74.4951 199.71 73.9092 199.845 73.3489C199.897 73.131 199.878 72.9569 199.771 72.8665C199.516 72.6475 198.859 72.9935 198.306 73.6395C197.752 74.2855 197.51 74.987 197.766 75.206C197.872 75.2969 198.047 75.2896 198.254 75.2044C198.788 74.9849 199.404 75.1302 199.841 75.5054Z" fill="#7B6EB9"/>
<path d="M198.049 82.0162L215.621 80.6645C216.195 80.6201 216.778 80.8668 217.078 81.3581C217.195 81.5494 217.332 81.6587 217.471 81.6477C217.806 81.6221 218.026 80.9133 217.961 80.0645C217.895 79.2157 217.57 78.5493 217.235 78.5749C217.096 78.5854 216.977 78.714 216.891 78.9209C216.668 79.453 216.131 79.7854 215.556 79.8299L197.985 81.1815C197.41 81.2259 196.828 80.9792 196.527 80.4879C196.41 80.2966 196.274 80.1874 196.134 80.1983C195.799 80.2239 195.579 80.9332 195.644 81.7815C195.71 82.6298 196.035 83.2967 196.37 83.2711C196.509 83.2606 196.628 83.132 196.714 82.9245C196.936 82.393 197.475 82.0606 198.049 82.0162Z" fill="#7B6EB9"/>
<path d="M205.709 72.1697L207.06 89.7411C207.105 90.316 206.858 90.8983 206.366 91.1988C206.175 91.3159 206.066 91.4523 206.077 91.5919C206.102 91.9274 206.811 92.1469 207.66 92.0816C208.509 92.0163 209.175 91.6912 209.149 91.3556C209.139 91.2166 209.01 91.0985 208.803 91.0117C208.271 90.7896 207.939 90.2518 207.895 89.6774L206.543 72.1059C206.499 71.531 206.746 70.9487 207.237 70.6482C207.428 70.5311 207.538 70.3942 207.527 70.2551C207.501 69.9196 206.792 69.7001 205.943 69.7654C205.095 69.8307 204.428 70.1558 204.454 70.4914C204.465 70.6304 204.593 70.7491 204.8 70.8353C205.332 71.0569 205.665 71.5947 205.709 72.1697Z" fill="#7B6EB9"/>
<path d="M212.992 83.5519C214.445 80.1387 212.857 76.1936 209.443 74.7402C206.03 73.2868 202.085 74.8755 200.632 78.2887C199.178 81.7018 200.767 85.647 204.18 87.1004C207.593 88.5538 211.538 86.9651 212.992 83.5519Z" fill="#938CCB"/>
<path d="M204.738 88.247L209.549 73.8246C209.707 73.3527 210.098 72.9722 210.589 72.8979C210.781 72.8692 210.913 72.7971 210.951 72.6826C211.043 72.4072 210.553 71.9953 209.857 71.7633C209.16 71.5307 208.521 71.5657 208.429 71.8416C208.391 71.9556 208.454 72.0931 208.589 72.231C208.938 72.5859 209.022 73.1248 208.865 73.5962L204.054 88.0186C203.896 88.4901 203.505 88.8706 203.013 88.9453C202.822 88.9741 202.69 89.0462 202.652 89.1606C202.56 89.4361 203.05 89.848 203.746 90.08C204.442 90.3121 205.082 90.2771 205.174 90.0016C205.212 89.8877 205.149 89.7502 205.014 89.6122C204.665 89.2579 204.581 88.719 204.738 88.247Z" fill="#938CCB"/>
<path d="M199.479 78.8593L213.901 83.6704C214.373 83.8277 214.754 84.2187 214.828 84.7105C214.856 84.9018 214.929 85.034 215.043 85.0722C215.319 85.1642 215.73 84.6739 215.962 83.9777C216.194 83.2816 216.16 82.6423 215.884 82.5503C215.77 82.5122 215.633 82.5749 215.495 82.7103C215.14 83.0589 214.601 83.143 214.129 82.9857L199.707 78.1746C199.235 78.0173 198.855 77.6263 198.78 77.1345C198.752 76.9432 198.68 76.811 198.565 76.7728C198.29 76.6808 197.878 77.1711 197.646 77.8673C197.414 78.5635 197.449 79.2027 197.724 79.2947C197.838 79.3328 197.975 79.2701 198.113 79.1347C198.468 78.7861 199.007 78.7014 199.479 78.8593Z" fill="#938CCB"/>
<path d="M200.164 84.647L213.764 77.8508C214.209 77.6287 214.754 77.636 215.155 77.9308C215.31 78.0458 215.455 78.0881 215.563 78.0343C215.823 77.9047 215.767 77.267 215.439 76.61C215.111 75.953 214.634 75.526 214.374 75.6562C214.267 75.71 214.214 75.8511 214.212 76.0445C214.208 76.5416 213.886 76.9822 213.441 77.2048L199.841 84.001C199.396 84.2231 198.851 84.2158 198.451 83.921C198.295 83.8061 198.15 83.7637 198.043 83.8176C197.783 83.9477 197.838 84.5848 198.166 85.2418C198.495 85.8983 198.971 86.3258 199.231 86.1957C199.339 86.1418 199.392 86.0007 199.393 85.8073C199.397 85.3098 199.719 84.8692 200.164 84.647Z" fill="#938CCB"/>
<path d="M203.08 74.2846L209.876 87.8849C210.098 88.3297 210.091 88.8753 209.796 89.2757C209.681 89.4314 209.639 89.5762 209.693 89.6839C209.822 89.9437 210.46 89.8883 211.117 89.56C211.774 89.2318 212.201 88.7551 212.071 88.4954C212.017 88.3877 211.876 88.3349 211.682 88.3333C211.185 88.3291 210.745 88.0072 210.522 87.5624L203.726 73.9622C203.504 73.5174 203.511 72.9717 203.806 72.5719C203.921 72.4161 203.963 72.2713 203.909 72.1637C203.78 71.9039 203.142 71.9593 202.485 72.2875C201.829 72.6158 201.401 73.0924 201.531 73.3522C201.585 73.4599 201.726 73.5127 201.919 73.5142C202.417 73.5184 202.858 73.8399 203.08 74.2846Z" fill="#938CCB"/>
<path d="M207.414 77.3612C207.208 77.9774 206.542 78.3104 205.926 78.105C205.309 77.8996 204.976 77.2332 205.182 76.6169C205.387 76.0007 206.054 75.6678 206.67 75.8732C207.286 76.0786 207.619 76.745 207.414 77.3612Z" fill="#7B6EB9"/>
<path d="M210.702 84.7518C210.497 85.3681 209.831 85.701 209.214 85.4956C208.598 85.2902 208.265 84.6238 208.471 84.0076C208.677 83.3913 209.343 83.0584 209.959 83.2638C210.575 83.4697 210.908 84.1356 210.702 84.7518Z" fill="#7B6EB9"/>
<path d="M211.863 80.0839C211.657 80.7001 210.991 81.033 210.375 80.8276C209.759 80.6222 209.426 79.9558 209.631 79.3396C209.836 78.7234 210.503 78.3904 211.119 78.5958C211.736 78.8012 212.069 79.4676 211.863 80.0839Z" fill="#7B6EB9"/>
<path d="M208.464 81.6425C208.259 82.2587 207.592 82.5916 206.976 82.3862C206.36 82.1808 206.027 81.5144 206.233 80.8982C206.438 80.282 207.105 79.949 207.721 80.1544C208.337 80.3598 208.67 81.0262 208.464 81.6425Z" fill="#7B6EB9"/>
<path d="M205.527 84.2675C205.321 84.8837 204.655 85.2166 204.039 85.0112C203.423 84.8058 203.09 84.1394 203.295 83.5232C203.5 82.907 204.167 82.574 204.783 82.7794C205.4 82.9854 205.733 83.6512 205.527 84.2675Z" fill="#7B6EB9"/>
<path d="M204.05 80.0057C203.845 80.622 203.178 80.9549 202.562 80.7495C201.946 80.5441 201.613 79.8777 201.819 79.2615C202.024 78.6452 202.691 78.3123 203.307 78.5177C203.922 78.7236 204.255 79.39 204.05 80.0057Z" fill="#7B6EB9"/>
<path d="M47.7911 34.7184L59.2605 21.3377C59.6357 20.9002 60.2217 20.6624 60.7819 20.7972C60.9999 20.85 61.174 20.8302 61.2644 20.7246C61.4834 20.469 61.1374 19.8126 60.4913 19.259C59.8453 18.705 59.1439 18.4636 58.9249 18.7191C58.834 18.8247 58.8413 18.9998 58.9265 19.2073C59.1455 19.7404 59.0002 20.3556 58.6254 20.7936L47.1556 34.1743C46.7803 34.6118 46.1944 34.8496 45.6341 34.7148C45.4161 34.662 45.2426 34.6818 45.1517 34.7879C44.9327 35.0435 45.2787 35.7 45.9247 36.2535C46.5707 36.8075 47.2721 37.049 47.4911 36.7934C47.5821 36.6873 47.5747 36.5127 47.4896 36.3052C47.2706 35.7716 47.4159 35.1564 47.7911 34.7184Z" fill="#7B6EB9"/>
<path d="M46.2467 22.3419L59.6274 33.8113C60.0649 34.1865 60.3027 34.7724 60.1679 35.3327C60.1151 35.5507 60.1349 35.7247 60.2411 35.8151C60.4966 36.0341 61.1531 35.6881 61.7066 35.0421C62.2606 34.3961 62.5021 33.6947 62.2465 33.4752C62.1409 33.3842 61.9664 33.3916 61.7583 33.4767C61.2252 33.6957 60.6101 33.5504 60.1721 33.1757L46.7913 21.7063C46.3539 21.3311 46.1161 20.7452 46.2509 20.1849C46.3037 19.9669 46.2838 19.7929 46.1777 19.7025C45.9221 19.4835 45.2657 19.8295 44.7122 20.4755C44.1582 21.1215 43.9167 21.8229 44.1723 22.0419C44.2784 22.1328 44.4529 22.1255 44.6604 22.0403C45.1935 21.8213 45.8087 21.9666 46.2467 22.3419Z" fill="#7B6EB9"/>
<path d="M44.4548 28.8521L62.0263 27.5005C62.6012 27.4561 63.1834 27.7028 63.484 28.1941C63.6011 28.3853 63.738 28.4946 63.8765 28.4836C64.2121 28.458 64.4316 27.7487 64.3662 26.9005C64.3009 26.0522 63.9758 25.3853 63.6403 25.4109C63.5012 25.4213 63.3831 25.5499 63.2963 25.7569C63.0742 26.2889 62.5364 26.6214 61.962 26.6658L44.3905 28.0174C43.8156 28.0618 43.2334 27.8151 42.9328 27.3238C42.8158 27.1325 42.6793 27.0233 42.5403 27.0343C42.2048 27.0599 41.9852 27.7691 42.0506 28.6174C42.1159 29.4657 42.441 30.1326 42.7765 30.107C42.9156 30.0966 43.0342 29.968 43.1205 29.7605C43.3421 29.2289 43.8799 28.8965 44.4548 28.8521Z" fill="#7B6EB9"/>
<path d="M52.1145 19.0051L53.4661 36.5765C53.5105 37.1515 53.2638 37.7337 52.7725 38.0342C52.5812 38.1513 52.472 38.2883 52.483 38.4273C52.5086 38.7628 53.2173 38.9824 54.0661 38.917C54.9144 38.8517 55.5813 38.5266 55.5557 38.191C55.5453 38.052 55.4167 37.9334 55.2097 37.8471C54.6776 37.625 54.3452 37.0872 54.3013 36.5128L52.9497 18.9413C52.9053 18.3664 53.152 17.7841 53.6433 17.4836C53.8346 17.3665 53.9438 17.2296 53.9328 17.0911C53.9072 16.7555 53.198 16.536 52.3497 16.6014C51.5014 16.6667 50.8345 16.9918 50.8601 17.3273C50.8711 17.4664 50.9991 17.585 51.2066 17.6712C51.7376 17.8923 52.0701 18.4302 52.1145 19.0051Z" fill="#7B6EB9"/>
<path d="M59.3902 30.3879C60.8436 26.9747 59.2549 23.0295 55.8418 21.5761C52.4286 20.1227 48.4835 21.7114 47.0301 25.1246C45.5767 28.5378 47.1654 32.4829 50.5785 33.9363C53.9917 35.3897 57.9368 33.801 59.3902 30.3879Z" fill="#938CCB"/>
<path d="M51.1444 35.0828L55.9556 20.6604C56.1129 20.1884 56.5038 19.8079 56.9957 19.7337C57.187 19.7044 57.3192 19.6323 57.3574 19.5183C57.4493 19.2429 56.9591 18.831 56.2629 18.599C55.5662 18.3669 54.9275 18.4014 54.8355 18.6774C54.7973 18.7913 54.8601 18.9288 54.9954 19.0668C55.3441 19.4216 55.4282 19.9605 55.2709 20.432L50.4598 34.8544C50.3024 35.3258 49.9115 35.7063 49.4196 35.781C49.2284 35.8103 49.0961 35.8819 49.058 35.9964C48.966 36.2718 49.4562 36.6837 50.1524 36.9157C50.8486 37.1478 51.4878 37.1128 51.5798 36.8373C51.618 36.7234 51.5553 36.5859 51.4199 36.448C51.0713 36.0931 50.9871 35.5542 51.1444 35.0828Z" fill="#938CCB"/>
<path d="M45.8849 25.6952L60.3073 30.5063C60.7793 30.6637 61.1598 31.0546 61.234 31.5464C61.2627 31.7377 61.3354 31.87 61.4493 31.9081C61.7248 32.0001 62.1366 31.5099 62.3687 30.8137C62.6008 30.117 62.5657 29.4783 62.2903 29.3863C62.1764 29.3481 62.0389 29.4108 61.9009 29.5462C61.546 29.8948 61.0071 29.979 60.5357 29.8217L46.1133 25.0105C45.6413 24.8532 45.2608 24.4623 45.1866 23.9704C45.1574 23.7791 45.0852 23.6469 44.9713 23.6087C44.6958 23.5168 44.284 24.007 44.0519 24.7032C43.8199 25.3994 43.8549 26.0386 44.1303 26.1306C44.2443 26.1688 44.3817 26.106 44.5197 25.9707C44.8741 25.6221 45.4129 25.5379 45.8849 25.6952Z" fill="#938CCB"/>
<path d="M46.5698 31.4791L60.17 24.6829C60.6148 24.4607 61.1605 24.468 61.5609 24.7628C61.7166 24.8778 61.8614 24.9201 61.969 24.8663C62.2288 24.7367 62.1734 24.099 61.8452 23.4421C61.5169 22.7851 61.0403 22.358 60.7805 22.4882C60.6728 22.542 60.6201 22.6831 60.6185 22.8765C60.6143 23.3736 60.2923 23.8142 59.8476 24.0368L46.2473 30.833C45.8025 31.0552 45.2569 31.0479 44.857 30.7531C44.7013 30.6381 44.5565 30.5958 44.4488 30.6496C44.1891 30.7792 44.2445 31.4169 44.5727 32.0739C44.9009 32.7303 45.3776 33.1579 45.6374 33.0277C45.745 32.9739 45.7978 32.8328 45.7994 32.6394C45.8036 32.1423 46.125 31.7012 46.5698 31.4791Z" fill="#938CCB"/>
<path d="M49.486 21.1172L56.2822 34.7174C56.5044 35.1622 56.4971 35.7079 56.2023 36.1077C56.0873 36.2635 56.045 36.4083 56.0988 36.5159C56.2284 36.7757 56.8661 36.7203 57.5231 36.3921C58.18 36.0638 58.6071 35.5872 58.4769 35.3274C58.4231 35.2197 58.282 35.1669 58.0886 35.1654C57.5915 35.1612 57.1509 34.8392 56.9283 34.3944L50.1321 20.7942C49.9099 20.3494 49.9172 19.8037 50.212 19.4039C50.327 19.2481 50.3694 19.1034 50.3155 18.9957C50.1859 18.7359 49.5482 18.7913 48.8913 19.1196C48.2348 19.4478 47.8072 19.9245 47.9374 20.1842C47.9912 20.2919 48.1323 20.3447 48.3257 20.3463C48.8233 20.3504 49.2639 20.6719 49.486 21.1172Z" fill="#938CCB"/>
<path d="M53.8198 24.1932C53.6144 24.8095 52.948 25.1424 52.3318 24.937C51.7156 24.7316 51.3826 24.0652 51.588 23.449C51.7934 22.8327 52.4598 22.4998 53.0761 22.7052C53.6923 22.9106 54.0252 23.577 53.8198 24.1932Z" fill="#7B6EB9"/>
<path d="M57.105 31.5839C56.8996 32.2001 56.2332 32.533 55.6169 32.3276C55.0007 32.1222 54.6678 31.4558 54.8732 30.8396C55.0786 30.2234 55.745 29.8904 56.3612 30.0958C56.9774 30.3018 57.3104 30.9676 57.105 31.5839Z" fill="#7B6EB9"/>
<path d="M58.269 26.9164C58.0636 27.5326 57.3972 27.8656 56.781 27.6596C56.1648 27.4542 55.8318 26.7878 56.0372 26.1716C56.2427 25.5554 56.909 25.2225 57.5253 25.4279C58.1415 25.6338 58.4744 26.3002 58.269 26.9164Z" fill="#7B6EB9"/>
<path d="M54.8703 28.4745C54.6649 29.0907 53.9985 29.4236 53.3823 29.2182C52.7661 29.0128 52.4331 28.3464 52.6391 27.7302C52.8445 27.114 53.5109 26.7811 54.1271 26.9865C54.7428 27.1924 55.0757 27.8583 54.8703 28.4745Z" fill="#7B6EB9"/>
<path d="M51.9331 31.0995C51.7277 31.7157 51.0613 32.0486 50.4451 31.8432C49.8288 31.6378 49.4959 30.9714 49.7013 30.3552C49.9067 29.739 50.5731 29.4061 51.1893 29.6115C51.8056 29.8174 52.1385 30.4833 51.9331 31.0995Z" fill="#7B6EB9"/>
<path d="M50.4565 26.8378C50.2511 27.454 49.5847 27.7869 48.9685 27.5815C48.3523 27.3761 48.0193 26.7097 48.2247 26.0935C48.4302 25.4773 49.0966 25.1443 49.7128 25.3497C50.3295 25.5552 50.6625 26.2216 50.4565 26.8378Z" fill="#7B6EB9"/>
<path d="M213.287 131.245C213.287 133.108 211.776 134.619 209.913 134.619C208.05 134.619 206.539 133.108 206.539 131.245C206.539 129.382 208.05 127.871 209.913 127.871C211.776 127.871 213.287 129.381 213.287 131.245Z" fill="#7B6EB9"/>
<path d="M236.801 89.0448C236.801 90.6097 235.532 91.8787 233.967 91.8787C232.402 91.8787 231.133 90.6102 231.133 89.0448C231.133 87.4794 232.401 86.2109 233.967 86.2109C235.532 86.2109 236.801 87.48 236.801 89.0448Z" fill="#7B6EB9"/>
<path d="M220.602 108.727C221.025 108.727 221.367 108.384 221.367 107.961C221.367 107.538 221.025 107.195 220.602 107.195C220.179 107.195 219.836 107.538 219.836 107.961C219.836 108.384 220.179 108.727 220.602 108.727Z" fill="#7B6EB9"/>
<path d="M229.767 128.952C230.695 128.952 231.448 128.199 231.448 127.271C231.448 126.342 230.695 125.59 229.767 125.59C228.838 125.59 228.086 126.342 228.086 127.271C228.086 128.199 228.838 128.952 229.767 128.952Z" fill="#7B6EB9"/>
<path d="M4.3862 99.447C4.3862 100.658 3.40463 101.64 2.1931 101.64C0.982086 101.64 0 100.659 0 99.447C0 98.236 0.981563 97.2539 2.1931 97.2539C3.40411 97.2539 4.3862 98.236 4.3862 99.447Z" fill="#7B6EB9"/>
<path d="M21.5683 92.3037C21.5683 93.2957 20.7645 94.0996 19.7724 94.0996C18.7804 94.0996 17.9766 93.2957 17.9766 92.3037C17.9766 91.3117 18.7804 90.5078 19.7724 90.5078C20.7639 90.5073 21.5683 91.3117 21.5683 92.3037Z" fill="#7B6EB9"/>
<path d="M21.519 111.201C21.519 111.998 20.873 112.644 20.0759 112.644C19.2788 112.644 18.6328 111.998 18.6328 111.201C18.6328 110.404 19.2788 109.758 20.0759 109.758C20.873 109.758 21.519 110.404 21.519 111.201Z" fill="#7B6EB9"/>
<path d="M16.4911 18.7308C17.0528 16.3519 15.5797 13.9681 13.2008 13.4064C10.822 12.8447 8.43817 14.3177 7.87645 16.6966C7.31474 19.0755 8.78782 21.4593 11.1667 22.021C13.5455 22.5827 15.9293 21.1096 16.4911 18.7308Z" fill="#7B6EB9"/>
<path d="M32.9411 44.9407C33.422 44.9407 33.8118 44.5509 33.8118 44.07C33.8118 43.5891 33.422 43.1992 32.9411 43.1992C32.4602 43.1992 32.0703 43.5891 32.0703 44.07C32.0703 44.5509 32.4602 44.9407 32.9411 44.9407Z" fill="#7B6EB9"/>
<path d="M22.4756 29.4526C22.4756 30.199 21.8704 30.8037 21.1245 30.8037C20.3787 30.8037 19.7734 30.1985 19.7734 29.4526C19.7734 28.7068 20.3787 28.1016 21.1245 28.1016C21.8704 28.1016 22.4756 28.7063 22.4756 29.4526Z" fill="#7B6EB9"/>
<path d="M74.5114 6.62438C75.2836 6.62438 75.9095 5.99842 75.9095 5.22625C75.9095 4.45409 75.2836 3.82812 74.5114 3.82812C73.7392 3.82812 73.1133 4.45409 73.1133 5.22625C73.1133 5.99842 73.7392 6.62438 74.5114 6.62438Z" fill="#7B6EB9"/>
<path d="M37.5454 3.044C38.386 3.044 39.0674 2.36257 39.0674 1.522C39.0674 0.681422 38.386 0 37.5454 0C36.7049 0 36.0234 0.681422 36.0234 1.522C36.0234 2.36257 36.7049 3.044 37.5454 3.044Z" fill="#7B6EB9"/>
<path d="M177.045 10.5038C178.081 10.5038 178.922 9.66347 178.922 8.62689C178.922 7.59031 178.081 6.75 177.045 6.75C176.008 6.75 175.168 7.59031 175.168 8.62689C175.168 9.66347 176.008 10.5038 177.045 10.5038Z" fill="#7B6EB9"/>
<path d="M159.413 18.6186C159.413 19.7413 158.503 20.6512 157.38 20.6512C156.258 20.6512 155.348 19.7413 155.348 18.6186C155.348 17.4959 156.258 16.5859 157.38 16.5859C158.503 16.5854 159.413 17.4959 159.413 18.6186Z" fill="#7B6EB9"/>
<path d="M152.057 2.64551C152.057 3.33439 151.498 3.89259 150.81 3.89259C150.121 3.89259 149.562 3.33439 149.562 2.64551C149.562 1.95664 150.121 1.39844 150.81 1.39844C151.498 1.39844 152.057 1.95717 152.057 2.64551Z" fill="#7B6EB9"/>
<path d="M141.575 12.5376C141.575 13.6608 140.665 14.5708 139.541 14.5708C138.418 14.5708 137.508 13.6603 137.508 12.5376C137.508 11.4144 138.418 10.5039 139.541 10.5039C140.665 10.5039 141.575 11.4144 141.575 12.5376Z" fill="#7B6EB9"/>
<path d="M233.395 9.11832C234.47 9.11832 235.341 8.24712 235.341 7.17244C235.341 6.09776 234.47 5.22656 233.395 5.22656C232.32 5.22656 231.449 6.09776 231.449 7.17244C231.449 8.24712 232.32 9.11832 233.395 9.11832Z" fill="#7B6EB9"/>
<path d="M230.333 66.7517C231.574 66.7517 232.58 65.7457 232.58 64.5048C232.58 63.2638 231.574 62.2578 230.333 62.2578C229.092 62.2578 228.086 63.2638 228.086 64.5048C228.086 65.7457 229.092 66.7517 230.333 66.7517Z" fill="#7B6EB9"/>
<path d="M217.243 147.949C217.243 148.629 216.692 149.18 216.012 149.18C215.333 149.18 214.781 148.629 214.781 147.949C214.781 147.27 215.332 146.719 216.012 146.719C216.692 146.718 217.243 147.269 217.243 147.949Z" fill="#7B6EB9"/>
</svg>
