<svg width="218" height="203" viewBox="0 0 218 203" fill="none" xmlns="http://www.w3.org/2000/svg">
<path d="M149.586 197.3C149.586 197.3 245.178 171.277 207.062 125.285C164.524 73.9565 216.455 76.7141 182.007 31.9489C135.33 -28.7062 38.1438 8.98326 25.2535 46.5207C12.3631 84.0581 37.6546 101.897 12.5034 118.229C-12.6478 134.561 2.37383 197.3 41.7308 197.3L109.871 202.151L149.586 197.3Z" fill="#E2E2F2"/>
<path d="M0.000991821 163.057C0.000991821 169.771 45.6714 172.248 106.059 172.248C166.446 172.248 209.862 163.888 215.4 160.091C228.451 151.141 166.446 151.141 106.059 151.141C45.6714 151.139 0.000991821 156.343 0.000991821 163.057Z" fill="#F4F4F4"/>
<path d="M150.384 136.004C155.759 137.892 160.852 138.902 158.343 138.964C168.428 139.285 173.543 140.271 173.863 140.271C176.53 140.266 183.201 133.148 187.469 138.717C189.772 141.721 192.698 145.279 196.913 147.253C201.127 149.228 201.288 152.322 201.288 152.322C201.288 152.322 203.102 151.788 204.169 152.482C205.237 153.175 206.411 156.91 199.367 156.91C192.325 156.91 183.36 154.989 177.598 154.794C174.388 154.685 161.776 156.214 150.384 157.444V136.004Z" fill="#FFD2B3"/>
<path opacity="0.4" d="M158.345 138.964C163.285 139.121 167.026 139.438 169.601 139.72C170.059 145.638 172.641 150.878 178.094 154.826C177.935 154.818 177.754 154.799 177.599 154.794C174.39 154.685 161.778 156.214 150.385 157.444V136.004C155.76 137.892 160.853 138.902 158.345 138.964Z" fill="#FFB98B"/>
<path d="M61.1719 114.119C61.1719 114.119 59.0377 123.295 57.97 127.778C56.9023 132.26 41.0028 160.042 40.3629 160.931C39.723 161.82 36.9477 165.954 34.6271 166.995C32.3052 168.034 30.438 167.101 30.2783 166.461C30.1187 165.821 30.2247 164.753 30.2783 164.647C30.332 164.54 25.6371 165.714 22.4889 165.554C19.3406 165.394 17.1528 165.394 15.8194 166.142C14.4861 166.889 12.4579 166.622 12.8845 165.502C13.3111 164.382 15.3929 162.567 18.4338 161.606C21.4748 160.646 29.9054 158.352 30.8122 156.858C31.719 155.364 37.1087 135.062 38.3884 130.58C39.6694 126.098 41.6694 123.538 43.5098 120.576C45.3502 117.614 47.4308 97.6059 48.3912 93.7642C49.3529 89.9212 61.1451 108.703 61.1719 114.119Z" fill="#FFD2B3"/>
<path opacity="0.4" d="M61.1719 114.119C61.1719 114.119 59.0377 123.295 57.97 127.778C56.9023 132.26 41.0028 160.042 40.3629 160.931C39.723 161.82 36.9477 165.954 34.6271 166.995C32.3052 168.034 30.438 167.101 30.2783 166.461C30.1187 165.821 30.2247 164.753 30.2783 164.647C30.332 164.54 25.6371 165.714 22.4889 165.554C19.3406 165.394 17.1528 165.394 15.8194 166.142C14.4861 166.889 12.4579 166.622 12.8845 165.502C13.3111 164.382 15.3929 162.567 18.4338 161.606C21.4748 160.646 29.9054 158.352 30.8122 156.858C31.719 155.364 37.1087 135.062 38.3884 130.58C39.6694 126.098 41.6694 123.538 43.5098 120.576C45.3502 117.614 47.4308 97.6059 48.3912 93.7642C49.3529 89.9212 61.1451 108.703 61.1719 114.119Z" fill="#FFB98B"/>
<path d="M41.4766 123.77C42.1471 122.684 42.8393 121.656 43.5111 120.576C45.3515 117.614 47.432 97.6057 48.3938 93.7639C49.3542 89.9222 61.1463 108.703 61.1719 114.12C61.1719 114.12 59.0377 123.296 57.97 127.779C57.675 129.018 56.2445 132.04 54.3186 135.779C51.1742 130.858 46.3209 126.905 41.4766 123.77Z" fill="#FFB98B"/>
<path d="M64.9153 74.3311C66.9856 76.5623 54.2266 101.112 49.6684 101.112C46.1996 101.112 37.9082 88.7964 35.7153 90.0314C35.7153 90.0314 41.6414 60.4533 61.8398 56.9258C60.2868 60.9093 62.246 69.6209 63.4861 72.5405C63.6624 72.9492 64.172 73.5291 64.9153 74.3311Z" fill="#FFD2B3"/>
<path d="M64.8151 74.219C79.4732 87.7583 111.303 93.9986 118.906 96.2426C122.62 97.3384 114.542 138.963 109.419 138.323C104.296 137.683 68.9647 128.416 59.3603 124.495C56.3194 123.252 44.4736 115.532 45.6128 94.5822C46.222 93.0036 64.7308 74.1424 64.8151 74.219Z" fill="#FFD2B3"/>
<path d="M74.6836 162.072C74.3017 161.436 69.2773 162.633 68.5289 163.183C67.6936 163.796 65.7191 166.595 65.3998 167.395C65.0792 168.196 66.8405 169.397 68.7205 168.035C70.6018 166.674 75.1638 162.872 74.6836 162.072Z" fill="#FFB98B"/>
<path opacity="0.4" d="M79.1791 112.845C79.4728 112.098 84.8612 102.475 89.0159 115.426C92.1935 125.329 96.5589 132.867 98.4414 135.873C87.8128 133.219 72.4522 129.011 63.71 126.08C63.641 126.04 63.5644 126.001 63.4967 125.961C72.6246 127.853 60.4953 104.281 60.4953 104.281C60.4953 104.281 78.8853 113.592 79.1791 112.845Z" fill="#FFB98B"/>
<path opacity="0.4" d="M115.198 98.3594L117.875 115.933C115.701 127.051 112.144 138.671 109.416 138.33C108.032 138.157 104.429 137.35 99.734 136.192C103.536 136.667 109.299 107.694 115.198 98.3594Z" fill="#FFB98B"/>
<path d="M63.5572 81.2767C68.4028 80.6867 75.6827 82.4773 81.8451 95.3627C88.0075 108.248 90.6487 123.054 91.8492 125.296C93.0497 127.537 91.7687 155.788 92.2489 158.67C92.7292 161.551 94.9706 163.391 93.369 166.513C91.7687 169.634 83.5246 168.034 81.0443 168.353C78.5628 168.674 78.0826 169.953 76.3226 169.953C74.5614 169.953 74.5614 168.432 75.3622 167.153C75.3622 167.153 74.1884 166.832 73.5486 167.153C72.9087 167.473 72.0543 168.807 71.2548 169.287C70.454 169.767 68.7311 169.856 68.3735 169.233C67.8001 168.233 69.4936 165.124 70.6686 163.471C71.8423 161.817 79.7876 159.396 80.4811 158.543C81.1746 157.689 77.223 135.046 76.6406 131.918C76.0582 128.79 60.6376 105.847 58.2774 99.9235C55.9146 94.0012 55.6745 82.2359 63.5572 81.2767Z" fill="#FFD6BA"/>
<path d="M135.183 148.296C135.183 148.296 150.677 140.903 139.713 130.418C128.748 119.934 118.155 123.334 118.155 123.334L105.932 133.774C105.932 133.774 112.102 98.3257 117.784 94.8032C123.466 91.2821 158.814 99.3921 164.939 118.067C169.941 133.316 162.192 149.012 147.396 150.828C136.314 152.188 135.183 148.296 135.183 148.296Z" fill="#E6E8F4"/>
<path d="M147.714 149.446C147.394 149.446 142.279 148.46 132.194 148.139C137.48 148.007 147.021 150.185 153.264 142.288C161.045 132.444 147.275 109.777 128.72 117.539C109.699 125.565 94.6784 144.742 95.1062 153.172C95.5328 161.603 99.8011 167.151 104.711 168.005C109.619 168.859 145.687 163.773 151.45 163.968C157.213 164.164 166.176 166.085 173.219 166.085C180.263 166.085 179.088 162.35 178.022 161.657C176.954 160.963 175.14 161.497 175.14 161.497C175.14 161.497 174.981 158.402 170.765 156.428C166.55 154.453 163.623 150.894 161.321 147.891C157.052 142.324 150.381 149.442 147.714 149.446Z" fill="#FFD2B3"/>
<g opacity="0.4">
<path d="M152.547 143.102C146.31 149.998 137.286 148.012 132.196 148.137C132.196 148.137 126.694 148.332 120.826 149.205C114.957 150.077 112.289 155.627 112.289 155.627C112.289 155.627 115.597 144.529 120.933 143.356C126.168 142.202 147.322 148.305 152.547 143.102Z" fill="#FFB98B"/>
<path d="M132.195 148.141C134.278 148.207 136.137 148.302 137.797 148.41C136.087 148.391 134.23 148.313 132.195 148.141Z" fill="#FFB98B"/>
</g>
<path opacity="0.4" d="M64.1094 73.4294C55.5178 77.1971 53.4373 96.4045 46.0642 98.9665C42.2046 95.4977 37.322 89.1259 35.7153 90.0314C35.7153 90.0314 41.6413 60.4533 61.8398 56.9258C60.2868 60.9093 62.246 69.6209 63.4861 72.5405C63.587 72.773 63.8067 73.0718 64.1094 73.4294Z" fill="#FFB98B"/>
<path d="M56.9211 71.4194C57.8381 71.4194 61.9251 73.371 63.4832 72.5395C66.5995 58.4536 64.1563 31.5653 45.1366 27.053C22.2625 21.6263 4.31691 36.8208 5.62091 54.8469L45.4891 71.4194H56.9211Z" fill="#911811"/>
<path d="M20.4437 44.641C13.1523 44.5771 11.506 52.5748 5.62587 54.8469C4.54283 69.7554 14.0936 74.0952 14.9173 77.859C15.7411 81.6216 13.1242 85.356 15.5048 86.591C17.8868 87.826 19.3862 89.7661 19.5624 90.1199C19.7387 90.4724 30.412 101.009 33.587 100.415C36.7621 99.8213 46.9935 93.9999 49.1992 88.3548C51.4049 82.7097 49.9923 77.7709 49.9923 77.7709C49.9923 77.7709 53.6387 79.4248 55.9018 74.6839C60.2838 65.5049 50.4278 60.4537 46.7879 70.0976C45.8172 57.9249 35.8425 60.068 30.8194 56.3374C24.3237 51.5148 26.182 44.9015 20.4437 44.641Z" fill="#FFD2B3"/>
<path d="M73.5505 167.156C76.4829 164.394 80.1306 163.259 78.5928 164.431C77.0564 165.602 75.3641 167.156 75.3641 167.156C75.3641 167.156 74.1904 166.836 73.5505 167.156Z" fill="#FFB98B"/>
</svg>
