<svg width="211" height="193" viewBox="0 0 211 193" fill="none" xmlns="http://www.w3.org/2000/svg">
<path d="M105.5 192.194C163.766 192.194 211 177.666 211 159.744C211 141.822 163.766 127.293 105.5 127.293C47.234 127.293 0 141.822 0 159.744C0 177.666 47.234 192.194 105.5 192.194Z" fill="#EDECF3"/>
<path d="M161.844 166.414C152.179 169.512 145.238 170.771 138.351 172.085C138.484 172.875 138.546 173.666 138.546 174.464C138.537 175.866 138.325 177.312 137.597 178.519C135.946 181.271 132.219 181.972 129.041 181.51C123.76 180.746 118.914 177.409 116.305 172.751C114.92 170.274 113.793 166.592 113.358 162.944C113.056 160.503 113.074 158.071 113.527 156.038C113.606 155.71 113.686 155.39 113.784 155.089C109.001 155.24 104.457 154.93 100.347 154.325C100.391 154.432 100.436 154.547 100.472 154.653C101.332 156.996 101.519 159.766 101.173 162.597C99.9748 172.245 92.5012 182.62 83.9546 179.203C82.6585 178.688 81.4249 177.907 80.6001 176.78C79.0384 174.632 78.3372 171.756 78.328 168.659C71.7254 167.372 68.4414 167.461 57.6665 164.053C40.1388 158.506 41.168 146.4 42.5784 143.338C43.9102 140.454 45.2409 138.271 46.6432 136.567C51.1782 131.029 56.4767 130.514 65.0234 127.079C64.73 111.848 64.6237 103.444 69.4879 89.0038C73.2062 77.9898 79.7476 68.1297 87.0168 59.0586C87.0168 59.0586 152.027 79.7825 154.006 86.0213C158.985 101.784 154.84 116.081 150.891 132.58C157.432 133.974 160.814 135.598 165.056 138.624C166.051 139.334 166.921 140.089 167.656 140.896C175.973 149.747 170.302 163.707 161.844 166.414Z" fill="#C5C2E0"/>
<path d="M132.949 147.844C131.59 150.08 128.893 151.154 126.301 151.571C123.71 151.988 121.046 151.918 118.509 152.592C116.227 153.205 113.69 155.388 113.787 155.086C109.003 155.238 104.459 154.927 100.349 154.323C100.393 154.429 99.1952 153.595 98.6453 153.284C98.211 153.044 97.7316 152.875 97.2522 152.725C92.8062 151.287 88.1465 150.559 83.7085 149.077C79.2706 147.595 74.6259 144.468 71.1328 140.895C73.3345 142.225 77.2919 142.377 79.8123 142.9C81.1165 143.175 82.3686 143.673 83.6104 144.16C87.7815 145.775 91.9884 147.275 96.2485 148.642C101.414 150.319 106.845 151.82 112.214 151.02C114.123 150.736 115.969 150.168 117.85 149.716C122.786 148.536 127.881 148.189 132.949 147.844Z" fill="#AF87CE"/>
<path d="M72.9127 142.966C75.0231 144.74 77.3056 147.189 79.9288 148.181C82.3904 149.112 84.9386 149.689 87.3274 150.867C88.1602 151.278 88.8868 150.074 88.062 149.61C86.1584 148.535 84.0376 147.629 81.9064 147.107C78.5496 146.285 76.1863 144.331 73.2997 142.465C72.9993 142.271 72.632 142.73 72.9127 142.966Z" fill="#433A60"/>
<path d="M98.4968 154.38C98.7451 154.505 98.945 154.485 99.2083 154.511C99.4451 154.532 99.6057 154.645 99.824 154.718C100.198 154.845 100.642 154.752 100.713 154.314C100.882 153.28 98.9669 152.728 98.3732 153.422C98.1352 153.7 98.1214 154.192 98.4968 154.38Z" fill="#433A60"/>
<path d="M113.928 157.376C116.595 152.284 122.359 152.579 127.331 151.759C130.308 151.268 132.286 149.883 134.749 148.191C135.541 147.647 134.818 146.36 133.987 146.885C132.729 147.681 131.576 148.768 130.252 149.445C127.408 150.9 123.976 150.502 120.931 151.216C117.331 152.059 114.054 153.129 113.055 157.006C112.922 157.519 113.669 157.869 113.928 157.376Z" fill="#433A60"/>
<path d="M135.071 150.875C137.504 148.597 135.226 148.411 134.619 146.631C133.888 144.483 134.409 143.446 135.639 141.339C137.124 138.795 138.773 136.706 141.686 135.835C144.702 134.933 150.739 134.681 151.954 138.031C153.312 141.777 150.116 148.9 147.886 151.771C145.112 155.339 140.345 157.598 135.974 156.454C134.563 156.084 133.04 155.05 133.137 153.595C133.211 152.454 134.237 151.655 135.071 150.875Z" fill="#FEDFC0"/>
<path d="M141.016 108.584C129.72 109.68 124.402 109.369 114.353 106.762C106.455 104.713 98.4885 102.271 89.6172 97.6055C86.5816 105.517 83.7389 127.902 109.563 134.384C129.361 139.352 140.627 121.787 141.016 108.584Z" fill="#EDECF3"/>
<path d="M153.559 141.069C151.855 146.421 134.93 142.178 135.4 139.881C135.631 138.736 135.862 137.618 136.092 136.526C139.012 122.548 141.284 112.27 138.55 97.6093C137.591 92.4887 135.346 87.1717 136.403 82.0696C137.459 76.9571 142.27 72.1298 147.355 73.2919L155.679 80.8798C155.768 81.1374 155.857 81.395 155.945 81.6514C162.939 102.17 159.744 121.579 153.559 141.069Z" fill="#C5C2E0"/>
<path d="M153.559 141.062C151.855 146.414 134.93 142.171 135.4 139.874C135.631 138.729 135.862 137.611 136.092 136.519C138.497 137.575 140.974 138.526 143.583 138.712C144.239 138.765 144.906 138.765 145.544 138.588C147.409 138.073 148.554 136.244 149.414 134.514C156.488 120.349 156.577 103.602 153.674 88.0346L152.903 85.8156C152.175 84.2978 153.302 82.3457 154.908 81.8224C155.245 81.7069 155.6 81.6538 155.946 81.6445C162.939 102.163 159.744 121.572 153.559 141.062Z" fill="#AF87CE"/>
<path d="M98.8646 148.21C96.4319 145.933 98.7098 145.747 99.3163 143.967C100.047 141.819 99.5265 140.782 98.2963 138.675C96.812 136.131 95.1625 134.042 92.2493 133.171C89.2333 132.269 83.1967 132.017 81.9815 135.367C80.6231 139.113 83.8193 146.236 86.0498 149.107C88.8232 152.675 93.5904 154.934 97.9613 153.79C99.3717 153.42 100.895 152.386 100.798 150.931C100.724 149.789 99.6986 148.991 98.8646 148.21Z" fill="#FEDFC0"/>
<path d="M96.9838 129.645C97.4101 131.5 97.8444 133.861 98.2972 137.278C98.5721 139.355 81.9939 138.769 81.354 137.358C71.0504 114.699 68.7251 90.4081 79.4989 69.5698C81.3632 65.9578 83.6261 62.4428 86.3152 59.0618C87.5662 58.6448 96.9746 70.2271 97.7555 71.2921C103.143 78.6502 98.4474 84.3033 95.0837 93.4356C94.0013 96.3731 92.8913 110.29 93.3002 113.396C94.5881 123.166 95.7594 124.329 96.9838 129.645Z" fill="#C5C2E0"/>
<path d="M135.513 91.3045C133.418 96.8306 124.098 98.42 114.697 94.8554C105.295 91.2907 99.3729 83.9211 101.468 78.395C103.564 72.8689 112.883 71.2795 122.283 74.8442C131.686 78.4088 137.608 85.7785 135.513 91.3045Z" fill="#EDECF3"/>
<path d="M172.734 66.8386C179.773 46.1073 166.16 22.7419 142.328 14.6504C118.497 6.55896 93.4714 16.8056 86.4325 37.5369C79.3936 58.2682 93.0067 81.6336 116.838 89.7251C140.67 97.8166 165.695 87.5699 172.734 66.8386Z" fill="#FEDFC0"/>
<path d="M93.5862 41.865C91.7935 47.145 86.9697 50.2812 82.8125 48.8708C78.6552 47.4592 76.7389 42.0348 78.5316 36.7536C80.3244 31.4736 85.1481 28.3375 89.3054 29.7479C93.4626 31.1583 95.379 36.585 93.5862 41.865Z" fill="#FEDFC0"/>
<path d="M179.567 71.0603C177.774 76.3403 172.95 79.4765 168.793 78.0649C164.636 76.6534 162.719 71.229 164.512 65.9489C166.305 60.6689 171.129 57.5328 175.286 58.9432C179.442 60.3559 181.359 65.7803 179.567 71.0603Z" fill="#FEDFC0"/>
<path d="M133.276 58.5223C132.741 60.0968 129.925 60.5635 126.986 59.5654C124.046 58.5674 122.096 56.4824 122.631 54.908C123.166 53.3336 125.982 52.8669 128.922 53.865C131.862 54.863 133.809 56.9479 133.276 58.5223Z" fill="#EC9DB6"/>
<path d="M86.0935 37.2285C83.7948 37.9539 82.4976 41.1928 84.5433 42.974C84.8899 43.2755 85.4859 43.4499 85.9017 43.1496C86.0692 43.0283 86.1824 42.9139 86.3037 42.7476C86.5394 42.4253 86.4804 41.9436 86.3037 41.6156C86.0219 41.0946 85.6961 40.658 85.7966 40.0296C85.8856 39.4786 86.2702 39.027 86.7346 38.7486C87.5235 38.2761 87.0141 36.9374 86.0935 37.2285Z" fill="#DDAC9F"/>
<path d="M87.81 34.4278C86.0774 30.2105 79.2888 34.3863 80.6784 37.9879C80.8713 38.4869 81.4315 38.6706 81.8485 38.2963C82.3128 37.8793 82.4295 37.363 82.6317 36.7946C82.8869 36.0796 83.3525 35.5691 83.982 35.1336C84.6473 34.6739 85.8036 34.1737 86.3777 35.0308C86.8386 35.7204 88.1681 35.2976 87.81 34.4278Z" fill="#DDAC9F"/>
<path d="M173.305 67.331C174.147 67.6279 173.863 68.8662 173.528 69.4114C173.128 70.0617 172.509 70.3586 171.948 70.8345C171.189 71.4767 172.013 72.6099 172.864 72.4089C175.288 71.836 176.855 66.5502 173.644 66.102C172.847 65.99 172.512 67.0515 173.305 67.331Z" fill="#DDAC9F"/>
<path d="M173.811 63.7651C175.024 63.9846 175.737 64.4513 176.188 65.5845C176.407 66.1378 176.532 66.7257 176.561 67.3194C176.594 68.0171 176.38 68.6478 176.505 69.3374C176.544 69.5569 176.849 69.6135 176.992 69.4656C178.874 67.5193 177.025 61.3013 173.691 62.8399C173.306 63.0166 173.395 63.6889 173.811 63.7651Z" fill="#DDAC9F"/>
<path d="M114.134 44.695C115.899 45.0023 117.645 45.4123 119.324 46.0442C120.954 46.6576 122.495 47.9051 124.191 48.2331C124.857 48.3625 125.647 47.6302 125.169 46.9602C124.116 45.4817 122.197 44.8002 120.529 44.1949C118.54 43.4729 116.462 43.1206 114.353 43.0744C113.447 43.0548 113.201 44.5333 114.134 44.695Z" fill="#4E6777"/>
<path d="M138.841 52.7171C140.536 53.8572 142.482 54.697 144.319 55.5864C145.834 56.3211 147.484 57.5074 149.208 57.3595C149.846 57.3041 150.511 56.5567 150.034 55.9203C148.943 54.4614 147.09 54.0282 145.444 53.3397C143.519 52.5346 141.545 51.6151 139.524 51.0953C138.526 50.8378 138.018 52.1627 138.841 52.7171Z" fill="#4E6777"/>
<path d="M119.044 70.5837C125.179 69.5892 128.398 74.8654 126.533 78.2094C126.136 78.7459 125.128 78.5801 124.584 78.1469C124.041 77.7136 123.712 77.0986 123.109 76.725C122.013 76.046 120.471 76.4051 119.161 76.107C117.761 75.7872 116.692 74.6197 116.665 73.3824C116.639 72.1466 117.62 70.8148 119.044 70.5837Z" fill="#4E6777"/>
<path d="M125.931 66.4351C126.036 65.63 126.239 64.8341 126.534 64.0775C126.801 63.3925 127.324 62.763 127.268 62.0064C127.226 61.4461 126.684 61.1123 126.173 61.378C125.379 61.7892 125.117 62.8138 124.872 63.6201C124.592 64.5361 124.449 65.4821 124.392 66.4363C124.331 67.447 125.807 67.3881 125.931 66.4351Z" fill="#DDAC9F"/>
<path d="M85.306 60.4971C89.7208 74.0547 104.318 86.2758 117.618 90.4492C125.149 92.8126 133.055 93.1256 140.887 92.1461C146.443 91.4507 152.94 89.569 157.374 86.0597C157.498 85.9604 157.363 85.7421 157.219 85.7929C151.993 87.6215 146.927 89.8543 141.462 90.9482C133.525 92.5365 126.384 91.1388 118.677 89.2641C111.408 87.4967 104.827 82.7527 99.254 77.8585C93.4958 72.8025 90.1217 66.6458 86.6875 59.9138C86.3005 59.156 85.0403 59.6816 85.306 60.4971Z" fill="#DDAC9F"/>
<path d="M101.747 84.7369C106.383 94.5889 123.188 102.72 132.852 95.2681C133.413 94.8361 132.905 93.8716 132.278 94.2863C127.714 97.2999 120.527 96.6473 115.626 94.9377C109.638 92.8493 106.253 89.1552 102.609 84.2333C102.229 83.7193 101.47 84.149 101.747 84.7369Z" fill="#573D8F"/>
<path d="M97.4362 129.332C102.673 133.566 111.696 136.709 118.445 135.77C125.027 134.854 132.747 130.504 135.859 124.532C136.122 124.026 135.411 123.383 135.02 123.885C131.08 128.961 125.418 133.063 119.017 134.066C115.329 134.645 111.76 134.098 108.121 133.208C104.389 132.296 101.494 130.092 98.075 128.503C97.5771 128.274 96.9337 128.926 97.4362 129.332Z" fill="#573D8F"/>
<path d="M98.2972 137.278C98.5721 139.355 81.9939 138.77 81.354 137.358C71.0504 114.699 68.7251 90.4086 79.4989 69.5703C81.1669 72.6937 79.1085 81.1792 78.9571 83.8059C78.6198 89.9026 78.5494 96.0271 79.0726 102.116C79.5959 108.151 80.7499 114.266 83.7763 119.511C86.634 124.472 91.4 128.572 96.9827 129.645C97.4101 131.501 97.8444 133.862 98.2972 137.278Z" fill="#AF87CE"/>
<path d="M77.3422 72.9088C74.5249 77.8099 73.2439 84.5789 72.4341 90.1454C71.4246 97.0819 71.4303 104.68 72.7934 111.557C73.7244 116.249 75.0724 120.885 76.4262 125.463C77.6633 129.645 78.3518 133.043 80.513 136.87C80.9658 137.671 82.1267 136.967 81.734 136.156C78.1739 128.796 76.7439 120.623 75.062 112.654C73.3906 104.733 72.9112 95.9464 74.503 87.96C75.4929 82.9953 77.8528 78.2189 78.2836 73.1641C78.3298 72.6501 77.5802 72.4953 77.3422 72.9088Z" fill="#433A60"/>
<path d="M151.959 143.083C154.838 140.897 155.413 137.497 156.166 134.138C157.491 128.23 158.957 122.325 160.018 116.362C161.418 108.495 160.508 99.7793 158.883 92.0147C158.7 91.1449 157.403 91.5191 157.559 92.3797C158.891 99.7065 160.195 107.88 158.972 115.314C158.261 119.632 157.144 123.881 156.181 128.147C155.132 132.788 154.742 138.679 151.33 142.267C150.941 142.673 151.47 143.454 151.959 143.083Z" fill="#433A60"/>
<path d="M101.173 162.593C99.9748 172.241 92.5012 182.616 83.9546 179.199C82.6585 178.684 81.4249 177.903 80.6001 176.775C79.0384 174.628 78.3372 171.752 78.328 168.655C71.7254 167.368 68.4414 167.457 57.6665 164.048C40.1388 158.502 41.168 146.396 42.5784 143.334C43.9102 140.449 45.2409 138.266 46.6432 136.562C46.5543 136.837 46.4746 137.095 46.4122 137.308C45.4269 140.734 45.8092 144.541 47.3709 147.745C48.2234 149.494 49.4305 151.065 50.9564 152.271C52.1543 153.23 53.4954 153.975 54.8261 154.712C59.2813 157.179 63.8348 159.682 68.8491 160.543C70.5448 160.836 72.266 160.933 73.9882 161.058C76.9349 161.28 79.8724 161.581 82.8018 161.972C83.2985 162.043 83.8136 162.114 84.2399 162.389C85.5001 163.187 85.261 165.042 85.6064 166.497C86.2186 169.054 89.1121 170.589 91.7308 170.323C94.3402 170.065 96.6296 168.397 98.3519 166.418C99.3973 165.221 100.284 163.908 101.173 162.593Z" fill="#AF87CE"/>
<path d="M161.845 166.41C152.18 169.508 145.239 170.767 138.353 172.081C138.485 172.872 138.548 173.662 138.548 174.46C138.539 175.862 138.326 177.308 137.598 178.515C135.948 181.267 132.22 181.968 129.042 181.506C123.761 180.742 118.915 177.405 116.306 172.747C114.921 170.27 113.795 166.588 113.359 162.94C115.552 167.067 119.483 170.289 124.027 171.451C126.618 172.116 129.983 171.788 131.082 169.357C131.446 168.566 131.517 167.617 132.094 166.961C132.627 166.358 133.461 166.144 134.242 165.966C139.14 164.875 144.119 164.147 148.939 162.771C153.758 161.395 158.498 159.311 162.146 155.875C165.802 152.449 168.269 147.506 167.878 142.509C167.835 141.968 167.763 141.427 167.657 140.895C175.975 149.743 170.303 163.703 161.845 166.41Z" fill="#AF87CE"/>
<path d="M42.2326 149.353C44.0404 164.981 66.088 167.318 78.2329 169.288C79.1974 169.445 79.6225 167.978 78.6418 167.804C66.1677 165.592 46.4349 164.344 42.846 149.27C42.7663 148.936 42.191 148.999 42.2326 149.353Z" fill="#433A60"/>
<path d="M77.8982 168.9C77.4789 175.26 82.7878 182.8 89.9276 180.944C95.2376 179.564 99.3348 171.915 100.674 167.088C100.92 166.201 99.5393 165.822 99.2967 166.708C98.3044 170.33 96.2876 173.978 93.6493 176.683C91.2005 179.196 88.2931 180.304 84.8878 178.931C80.5977 177.202 79.1896 173.165 78.7865 168.899C78.7322 168.336 77.9363 168.324 77.8982 168.9Z" fill="#433A60"/>
<path d="M114.332 168.835C116.777 175.568 121.314 180.714 128.59 181.871C134.858 182.868 139.752 178.786 138.539 172.309C138.374 171.427 137.014 171.797 137.189 172.681C138.92 181.407 129.053 181.393 123.675 178.568C119.324 176.282 117.571 172.509 115.131 168.497C114.883 168.091 114.156 168.353 114.332 168.835Z" fill="#433A60"/>
<path d="M137.803 173.052C142.205 172.679 146.564 171.049 150.834 169.939C154.72 168.927 158.946 168.037 162.645 166.445C168.752 163.814 171.899 157.122 171.807 150.699C171.793 149.757 170.447 149.788 170.364 150.699C169.595 159.23 165.999 164.074 157.74 166.319C151.1 168.123 144.43 170.665 137.617 171.677C136.843 171.79 137.017 173.118 137.803 173.052Z" fill="#433A60"/>
<path d="M84.1557 147.06C86.1368 150.833 92.0429 155.491 96.5963 154.795C97.9859 154.583 100.355 153.543 101.097 152.251C102.006 150.665 100.709 149.803 99.5465 148.951C99.2242 148.715 98.813 149.246 99.1179 149.506C99.8722 151.19 99.565 152.275 98.195 152.76C96.6552 153.569 95.1559 153.682 93.6981 153.101C92.5534 152.795 91.3613 152.194 90.3564 151.577C88.1825 150.243 86.5549 148.379 84.8211 146.548C84.4803 146.189 83.9374 146.645 84.1557 147.06Z" fill="#DDAC9F"/>
<path d="M133.509 152.607C130.946 155.497 136.423 157.18 138.497 156.991C140.883 156.774 143.647 156.069 145.776 154.952C147.917 153.828 148.185 151.72 149.503 149.874C149.696 149.604 149.27 149.283 149.046 149.521C148.437 150.172 148.053 150.863 147.523 151.578C146.323 153.196 145.034 153.987 143.179 154.562C141.885 154.962 140.582 155.368 139.242 155.583C137.523 156.049 135.925 155.687 134.446 154.493C134.271 153.902 134.096 153.309 133.925 152.716C133.877 152.546 133.638 152.463 133.509 152.607Z" fill="#DDAC9F"/>
<path d="M134.722 143.164C133.879 144.493 133.988 150.498 136.721 149.547C137.151 149.398 137.228 148.849 136.846 148.596C136.24 148.195 135.921 148.006 135.736 147.24C135.629 146.793 135.605 146.302 135.588 145.845C135.555 144.984 135.756 144.104 135.534 143.269C135.431 142.89 134.922 142.848 134.722 143.164Z" fill="#DDAC9F"/>
<path d="M98.0579 146.49C99.6347 144.818 100.992 142.487 99.4637 140.311C99.2107 139.95 98.6147 140.285 98.8654 140.661C100.102 142.515 98.6701 144.588 97.7102 146.221C97.5832 146.436 97.8824 146.676 98.0579 146.49Z" fill="#DDAC9F"/>
<path d="M90.7706 150.267C90.9877 151.009 91.28 151.778 91.6612 152.453C92.0042 153.06 92.427 153.839 93.1697 153.911C93.4343 153.937 93.6999 153.655 93.6826 153.399C93.6399 152.742 93.0635 152.384 92.6765 151.895C92.2191 151.316 91.8587 150.73 91.5861 150.043C91.3909 149.549 90.6146 149.731 90.7706 150.267Z" fill="#DDAC9F"/>
<path d="M94.4363 150.027C94.3104 150.795 94.7366 151.358 95.2841 151.857C95.9587 152.473 96.6991 153.198 97.4869 153.661C98.1165 154.032 98.761 153.181 98.2597 152.66C97.8023 152.184 97.2016 151.813 96.6795 151.407C96.3226 151.128 95.38 150.65 95.3754 150.154C95.3708 149.636 94.5252 149.479 94.4363 150.027Z" fill="#DDAC9F"/>
<path d="M135.811 155.787C136.536 155.791 137.168 155.797 137.841 155.492C138.463 155.211 139.07 154.761 139.327 154.118C139.512 153.652 138.92 153.339 138.552 153.522C138.075 153.758 137.698 154.186 137.246 154.474C136.772 154.777 136.286 155.113 135.737 155.243C135.429 155.315 135.501 155.786 135.811 155.787Z" fill="#DDAC9F"/>
<path d="M142.351 155.798C142.765 155.345 143.181 154.892 143.596 154.44C143.929 154.077 144.484 153.707 144.35 153.164C144.311 153.005 144.17 152.934 144.022 152.915C143.513 152.849 143.16 153.492 142.861 153.83C142.472 154.267 142.083 154.704 141.693 155.142C141.298 155.585 141.945 156.242 142.351 155.798Z" fill="#DDAC9F"/>
<path d="M165.785 24.7925C165.626 22.4776 163.243 21.5397 160.853 21.9925C163.829 20.8085 164.123 17.1248 161.854 14.8793C159.587 12.6337 155.933 12.4674 152.86 13.3615C154.189 12.0481 154.009 9.68936 152.821 8.26395C151.634 6.83854 149.718 6.224 147.87 6.1108C144.53 5.90635 140.104 7.13539 138.447 10.0844C136.929 7.19777 135.181 5.077 132.171 3.95885C129.161 2.8407 124.237 4.00273 123.381 7.13771C114.302 -1.09132 105.921 9.02055 114.759 17.3512C118.56 20.9344 136.398 31.0451 139.166 26.6961C143.647 31.819 150.555 32.5167 156.974 31.454C160.892 30.8037 165.55 28.7868 165.785 24.7925Z" fill="#D8C93F"/>
</svg>
