<svg width="145" height="258" viewBox="0 0 145 258" fill="none" xmlns="http://www.w3.org/2000/svg">
<path d="M83.3154 225.477L83.8304 233.725C83.8304 233.725 79.8564 235.442 77.9824 234.585L75.6484 226.58L83.3154 225.477Z" fill="#F2D3B4"/>
<path d="M75.9408 228.862C74.1938 224.342 70.8218 206.73 69.6898 202.008C67.8788 194.471 66.3398 186.205 66.1688 178.431C66.0908 174.752 71.7278 141.242 80.7968 131.513C83.8488 128.24 97.6888 125.007 100.259 127.17C102.57 129.116 103.337 140.811 103.923 143.956C105.898 154.569 96.9298 165.64 90.0938 173.909C87.8638 176.608 84.2858 183.6 83.4618 187.131C83.2358 188.101 83.8528 190.966 83.8238 193.334C83.7288 201.325 84.2248 226.784 84.2108 226.796C81.6318 229.013 76.1438 229.389 75.9408 228.862Z" fill="#33516B"/>
<path d="M67.7108 179.379C67.9208 168.493 70.8728 157.967 72.9148 147.32C68.5908 160.378 66.1168 175.987 66.1688 178.432C66.3388 186.205 67.8788 194.471 69.6898 202.009C69.8418 202.641 70.0338 203.508 70.2568 204.539C68.9938 196.18 67.5488 187.837 67.7108 179.379Z" fill="#33516B"/>
<path d="M90.0944 173.91C96.9304 165.641 105.898 154.57 103.923 143.957C103.337 140.811 102.57 129.117 100.259 127.171C97.6894 125.007 83.8494 128.241 80.7974 131.514C77.9004 134.622 75.3554 140.16 73.2344 146.374C74.2144 147.401 75.2294 148.396 76.3014 149.323C77.7074 150.54 79.0184 151.456 79.2514 153.426C79.9944 159.711 79.0014 166.302 80.2574 172.508C80.9254 175.804 78.8264 188.174 77.6914 190.372C76.7544 192.182 75.9344 194.046 75.1134 195.908C76.8114 194.32 78.3344 192.555 79.7234 190.681C80.0334 190.263 80.6884 190.389 80.7154 190.949C81.0194 197.295 81.5304 203.665 82.1284 209.988C82.6774 215.777 83.4624 221.558 83.3884 227.382C83.6834 227.202 83.9644 227.011 84.2114 226.797C84.2264 226.785 83.7294 201.326 83.8244 193.335C83.8534 190.967 83.2374 188.102 83.4624 187.132C84.2864 183.602 87.8644 176.609 90.0944 173.91Z" fill="#33516B"/>
<path d="M77.5415 232.402C77.5415 232.402 86.1525 229.899 86.7385 231.843C87.4025 234.041 87.7635 236.823 87.9425 238.21C88.1235 239.595 88.7225 240.058 86.7295 241.397C84.7365 242.738 78.4395 245.167 70.8295 246.584C63.2145 248.003 56.3125 245.224 55.4125 243.179C52.1625 235.798 63.4225 239.934 74.4025 230.44C75.6415 229.37 77.5415 232.402 77.5415 232.402Z" fill="#F23437"/>
<path d="M87.2425 233.764C86.6275 233.986 85.8655 233.842 85.2495 233.573C84.0925 233.063 83.6135 232.223 83.5195 231.061C85.1105 230.9 86.3965 230.866 86.6635 231.683C86.8625 232.289 87.1005 233.104 87.2425 233.764Z" fill="#BDBDB9"/>
<path d="M55.4106 243.178C52.9446 237.782 58.1556 238.211 65.0676 235.676C66.2056 236.382 67.0596 237.622 67.7426 238.569C69.4226 240.891 70.0696 244.037 69.3196 246.808C62.3246 247.633 56.2756 245.077 55.4106 243.178Z" fill="#F0EFE8"/>
<path d="M55.4103 243.178C54.9513 242.141 54.7903 241.338 54.8653 240.683C55.1643 241.117 55.5063 241.531 55.9763 241.923C57.0823 242.848 58.5313 243.983 59.9243 244.335C63.5113 245.24 67.1273 245.566 70.7733 244.961C74.5833 244.327 79.3733 243.049 82.9513 241.585C84.7263 240.856 86.6653 239.99 88.0023 238.586C88.2123 239.685 88.5223 240.187 86.7263 241.395C84.7333 242.736 78.4363 245.165 70.8263 246.582C63.2123 248.002 56.3103 245.223 55.4103 243.178Z" fill="#BDBDB9"/>
<path opacity="0.7" d="M57.4553 241.761C58.8823 242.078 62.1523 242.794 62.6693 240.665C63.1653 238.624 61.4873 237.779 59.7353 238.06C58.8783 238.195 56.7753 238.573 55.9433 239.451C54.6833 240.119 56.2683 241.492 57.4553 241.761Z" fill="white"/>
<path d="M19.2149 107.091L16.5859 115.579C23.8429 115.891 31.3339 114.807 38.3439 114.184C43.8589 113.693 49.1539 112.551 54.5169 111.208C58.4859 110.216 62.4299 109.127 66.2659 107.714L62.9869 97.7305C49.0849 103.271 34.0079 110.284 19.2149 107.091Z" fill="#F2D3B4"/>
<path d="M62.9883 97.7305C59.7303 99.0285 56.4063 100.405 53.0373 101.715C53.4343 103.491 53.8963 105.255 54.3053 107.023C54.4833 107.79 54.7283 108.553 54.0463 109.147C52.6063 110.399 51.0143 111.507 49.3203 112.43C51.0523 112.054 52.7803 111.642 54.5173 111.208C58.4863 110.216 62.4303 109.127 66.2663 107.714L62.9883 97.7305Z" fill="#F2D3B4"/>
<path d="M56.1365 105.495C55.0335 103.13 53.6415 97.7236 53.4375 97.1406C63.0355 93.7696 74.8515 84.9886 77.8175 86.8446C81.9005 89.4026 85.2755 96.4256 76.0665 103.38C73.5915 105.249 64.1575 111.767 59.4235 113.36C59.0385 112.685 56.4095 106.08 56.1365 105.495Z" fill="#5964AD"/>
<path d="M2.54522 108.517C5.82622 107.389 10.0822 108.168 13.6192 109.741C12.8262 109.119 12.0142 108.521 11.1062 108.007C9.20222 106.929 6.77022 106.369 5.02922 105.128C4.64522 104.86 4.51222 104.232 5.02422 104.067C6.49422 103.592 10.0102 104.502 11.9722 105.487C12.7842 105.893 13.6322 106.358 14.4642 106.87C14.1592 106.555 13.8502 106.253 13.5282 105.993C11.7442 104.574 10.4952 103.91 7.96722 102.904C6.22021 102.211 6.69122 100.278 9.77622 101.089C11.2592 101.478 14.0342 102.454 17.8242 105.28C15.3982 102.174 12.9362 101.756 12.3002 100.544C12.0462 100.052 12.4552 99.6552 12.9962 99.7532C19.3002 100.977 27.4452 108.883 22.2572 115.291C20.3822 117.606 17.7472 119.564 14.9302 120.549C13.4072 121.078 9.71422 122.015 10.2372 119.713C10.5552 118.326 13.5002 117.992 13.9642 116.648C14.8672 114.053 11.0132 112.035 8.46622 111.593C6.45121 111.243 4.22722 110.998 2.55022 109.734C2.13722 109.421 1.95422 108.72 2.54522 108.517Z" fill="#F2D3B4"/>
<path d="M117.339 226.141L120.587 233.742C120.587 233.742 117.415 236.69 115.363 236.509L110.484 229.747L117.339 226.141Z" fill="#F2D3B4"/>
<path d="M111.519 231.798C108.36 228.124 99.2855 212.656 96.6395 208.587C92.4105 202.089 88.1925 194.815 85.4295 187.549C84.1235 184.107 78.2185 150.643 83.5085 138.441C85.2895 134.333 97.2475 126.654 100.394 127.833C103.224 128.893 107.861 139.656 109.465 142.423C114.88 151.766 110.133 165.197 106.46 175.278C105.261 178.568 104.231 186.355 104.636 189.957C104.748 190.946 106.289 193.439 107.054 195.68C109.638 203.243 118.63 227.067 118.62 227.083C116.934 230.036 111.887 232.226 111.519 231.798Z" fill="#33516B"/>
<path d="M102.973 159.639C102.445 171.938 99.7348 184.05 98.0878 196.228C99.4418 194.773 100.616 193.174 101.893 191.637C102.098 191.39 102.596 191.445 102.728 191.745C108.082 203.939 111.245 217.003 116.939 229.045C117.617 228.45 118.215 227.79 118.62 227.084C118.63 227.068 109.639 203.244 107.054 195.681C106.289 193.44 104.748 190.947 104.636 189.958C104.231 186.356 105.261 178.569 106.46 175.279C110.133 165.197 114.879 151.767 109.465 142.424C107.861 139.657 103.223 128.894 100.394 127.834C99.5678 127.525 98.1258 127.836 96.4258 128.524C100.695 138.268 103.432 148.967 102.973 159.639Z" fill="#33516B"/>
<path d="M92.2092 200.372C89.3812 194 87.1162 187.344 85.5612 180.545C83.9662 173.571 82.8802 166.384 82.3142 159.253C82.0262 155.633 81.6302 151.893 81.7922 148.258C81.8642 146.651 82.0072 145.048 82.1042 143.445C79.5252 157.975 84.2732 184.503 85.4272 187.548C87.7032 193.532 90.9682 199.515 94.4102 205.07C93.6532 203.516 92.9122 201.954 92.2092 200.372Z" fill="#33516B"/>
<path d="M114.206 234.597C114.206 234.597 121.483 229.358 122.685 230.992C124.047 232.842 125.319 235.342 125.952 236.59C126.585 237.834 127.306 238.07 125.875 239.998C124.447 241.932 119.326 246.327 112.628 250.21C105.929 254.096 98.4931 253.787 96.9611 252.162C91.4291 246.293 103.424 246.424 110.593 233.8C111.401 232.376 114.206 234.597 114.206 234.597Z" fill="#F23437"/>
<path d="M123.808 232.633C123.302 233.047 122.535 233.168 121.866 233.12C120.604 233.027 119.871 232.395 119.395 231.332C120.841 230.646 122.041 230.185 122.565 230.865C122.956 231.369 123.452 232.059 123.808 232.633Z" fill="#BDBDB9"/>
<path d="M96.962 252.161C92.834 247.901 97.888 246.56 103.552 241.859C104.862 242.143 106.079 243.026 107.041 243.689C109.402 245.315 111.064 248.062 111.285 250.926C104.968 254.044 98.415 253.661 96.962 252.161Z" fill="#F0EFE8"/>
<path d="M96.9642 252.16C96.1862 251.336 95.7652 250.633 95.6172 249.991C96.0432 250.302 96.5052 250.576 97.0792 250.788C98.4312 251.29 100.178 251.874 101.607 251.739C105.29 251.392 108.807 250.49 112.04 248.696C115.416 246.824 119.503 244.016 122.385 241.438C123.815 240.157 125.351 238.693 126.141 236.922C126.708 237.888 127.168 238.258 125.879 239.996C124.451 241.93 119.33 246.325 112.632 250.208C105.933 254.095 98.4972 253.786 96.9642 252.16Z" fill="#BDBDB9"/>
<path opacity="0.7" d="M98.4175 250.143C99.8685 249.965 103.19 249.545 102.964 247.366C102.748 245.276 100.885 245.04 99.3275 245.891C98.5655 246.305 96.7095 247.366 96.2205 248.472C95.2545 249.524 97.2085 250.288 98.4175 250.143Z" fill="white"/>
<path d="M108.189 139.644C105.418 131.465 101.546 115.102 96.7647 104.277C93.6307 97.1853 90.8897 88.7353 88.0207 85.9273C83.0597 81.0693 77.4267 83.9833 74.2447 86.7543C69.8027 90.6233 62.7657 112.79 72.1327 145.803C82.3327 151.665 106.505 140.969 108.189 139.644Z" fill="#8C88C0"/>
<path d="M73.9603 87.0354C73.5503 87.8544 73.1743 88.6814 72.9353 89.5414C72.5873 90.7944 71.0393 96.9014 73.7703 96.6444C75.4063 96.4914 76.8153 95.3414 77.9863 94.2784C78.2743 94.0174 78.7723 94.1094 78.8763 94.5134C79.6083 97.3784 80.5953 100.344 82.6133 102.587C84.0833 104.219 85.9253 105.421 87.4293 107.009C89.9483 109.668 90.7233 113.02 90.5393 116.634C90.1543 124.166 87.1353 131.724 82.4283 137.708C87.2813 134.16 91.4293 130.03 94.0483 124.369C94.2233 123.991 94.7763 124.054 94.9673 124.369C96.7013 127.211 96.9733 130.979 97.4063 134.221C97.8493 137.523 97.5993 140.689 94.7663 142.858C91.7513 145.17 87.9383 146.47 84.2263 147.285C94.9083 146.04 107.015 140.563 108.19 139.64C105.419 131.461 101.547 115.098 96.7663 104.273C93.6323 97.1814 90.8913 88.7314 88.0223 85.9234C83.0613 81.0654 77.4283 83.9794 74.2463 86.7504C74.1543 86.8344 74.0563 86.9374 73.9603 87.0354Z" fill="#5964AD"/>
<path d="M70.5236 139.204C70.2076 137.251 70.0866 135.262 69.9606 133.289C69.6366 128.245 69.3936 123.193 69.3756 118.137C69.3456 109.536 70.0256 101.025 71.2336 92.5337C71.2736 92.1087 71.3296 91.6837 71.4096 91.2617C67.8986 99.3967 65.0696 116.833 70.7536 140.509C70.6736 140.078 70.5946 139.643 70.5236 139.204Z" fill="#5964AD"/>
<path d="M82.3951 75.1094C82.3951 75.1094 82.0331 80.4734 83.6911 85.4814C83.9101 86.1394 84.7151 86.4254 84.9481 87.0294C84.9481 87.0294 74.0311 97.8454 74.4161 92.1144C74.8471 85.7264 72.5321 78.2574 72.3711 77.3414L82.3951 75.1094Z" fill="#F6DFC9"/>
<path d="M82.5551 80.0243C82.2531 77.2183 82.3951 75.1133 82.3951 75.1133L72.3711 77.3443C72.4591 77.8443 73.1891 80.3063 73.7641 83.4743C76.9961 83.3043 79.9451 81.9843 82.5551 80.0243Z" fill="#F2D3B4"/>
<path d="M134.343 145.392C135.132 142.015 133.928 137.859 132.006 134.5C132.703 135.226 133.382 135.974 133.985 136.826C135.249 138.613 136.052 140.974 137.462 142.579C137.769 142.934 138.408 143.002 138.518 142.477C138.842 140.966 137.583 137.56 136.405 135.707C135.918 134.941 135.37 134.143 134.777 133.367C135.12 133.64 135.452 133.917 135.743 134.212C137.333 135.841 138.123 137.02 139.377 139.433C140.245 141.101 142.12 140.436 141.001 137.449C140.466 136.012 139.212 133.351 136.019 129.864C139.355 131.964 140.02 134.372 141.291 134.883C141.804 135.085 142.16 134.638 142.004 134.108C140.152 127.961 131.463 120.658 125.61 126.466C123.498 128.564 121.816 131.384 121.122 134.285C120.747 135.854 120.188 139.623 122.426 138.871C123.774 138.413 123.811 135.45 125.099 134.852C127.589 133.692 129.986 137.323 130.683 139.81C131.236 141.781 131.704 143.968 133.131 145.509C133.482 145.889 134.2 146.002 134.343 145.392Z" fill="#F2D3B4"/>
<path d="M126.063 133.648L134.55 131.014C130.699 124.854 125.568 119.291 121.089 113.864C117.564 109.594 113.627 105.873 109.484 102.211C106.422 99.501 103.291 96.864 99.9551 94.5L93.5781 102.853C106.013 111.182 120.327 119.645 126.063 133.648Z" fill="#F2D3B4"/>
<path d="M108.647 101.481C105.849 99.029 102.988 96.65 99.9551 94.5L93.5781 102.853C96.8851 105.069 100.323 107.296 103.699 109.633C105.901 107.309 107.886 104.603 108.647 101.481Z" fill="#F2D3B4"/>
<path d="M104.902 104.907C106.425 102.786 108.792 97.7311 109.102 97.1971C100.293 92.1061 87.9759 84.3091 84.7169 85.5841C80.2309 87.3431 76.7769 96.3721 84.2479 100.012C87.0359 101.37 95.8599 109.584 100.215 112.027C100.719 111.434 104.526 105.431 104.902 104.907Z" fill="#8C88C0"/>
<path d="M108.789 16.4121C108.789 16.4121 115.31 13.7511 121.833 17.1361C128.354 20.5231 132.114 27.5481 131.865 35.8231C131.614 44.6001 136.003 51.4991 141.774 45.6061C144.029 52.2511 140.015 57.2671 135.001 57.0161C138.011 57.5201 141.27 56.0151 141.27 56.0151C141.27 56.0151 141.897 61.6571 138.011 63.7871C134.122 65.9211 131.363 66.2951 127.852 63.6651C128.731 66.4211 131.113 67.4251 131.113 67.4251C131.113 67.4251 118.697 69.9351 118.072 51.6261C120.328 40.5901 119.575 28.9811 108.789 16.4121Z" fill="#4D4D4F"/>
<g opacity="0.5">
<path opacity="0.5" d="M135 57.014C138.426 57.186 141.381 54.898 142.191 51.313C137.354 56.945 130.673 51.371 130.673 51.371C130.673 51.371 130.673 55.887 137.444 58.331C134.058 60.025 127.1 55.888 127.1 55.888C127.1 55.888 127.1 58.145 132.931 61.344C128.041 63.974 119.763 57.768 121.268 43.66C122.772 29.55 117.13 23.531 113.555 18.077C112.663 16.718 112.816 15.909 113.542 15.457C110.73 15.628 108.789 16.412 108.789 16.412C119.576 28.981 120.328 40.591 118.072 51.625C118.697 69.934 131.113 67.424 131.113 67.424C131.113 67.424 128.731 66.421 127.852 63.664C131.363 66.294 134.121 65.92 138.011 63.786C141.897 61.655 141.27 56.014 141.27 56.014C141.27 56.014 138.01 57.518 135 57.014Z" fill="#5A5A5C"/>
</g>
<path d="M87.3026 53.0834C83.7576 52.5114 81.2646 55.3424 81.4536 62.6564C79.1966 54.8814 77.4426 53.7534 72.1756 52.7494C51.2306 46.3544 49.2946 28.3594 49.2946 28.3594C49.2946 28.3594 42.0696 34.7374 48.2406 56.6454C48.7236 58.4324 43.0346 63.2304 42.8236 64.2034C42.6166 65.1744 45.3346 66.5354 47.9646 66.5354C49.4916 67.2984 50.1666 80.4354 63.9946 82.1284C66.3836 82.3644 69.4256 82.5814 72.2576 82.2484C81.1056 81.2014 83.9936 77.3204 85.9996 75.5414C90.4206 70.8704 90.6086 65.2904 90.6086 65.2904C94.6216 62.6574 91.9426 53.8384 87.3026 53.0834Z" fill="#F4D9BF"/>
<path d="M43.2109 65.0141C44.0369 65.7931 46.0219 66.5351 47.9639 66.5351C48.0579 66.5821 48.1489 66.6771 48.2389 66.8121C48.4589 66.0021 48.6799 65.1941 48.8369 64.3711C47.0729 65.4001 45.2059 65.4891 43.2109 65.0141Z" fill="#F2D3B4"/>
<path d="M88.2052 56.439C87.8902 56.207 87.9382 55.81 88.1352 55.586C87.0502 55.324 85.5462 56.425 85.1962 57.487C84.7812 58.751 84.7192 60.206 85.1822 61.472C85.9892 63.673 88.4632 64.578 89.5742 61.984C90.4622 59.913 90.0672 57.809 88.2052 56.439Z" fill="#F2D3B4"/>
<path d="M108.791 16.4109C100.479 5.52293 68.1293 -8.01807 47.1863 22.8329C41.2483 26.3609 36.3063 20.0189 36.3063 20.0189C36.3063 20.0189 34.2973 29.7009 43.9533 28.9479C36.8043 33.2119 41.4883 41.9049 43.8793 43.1809C48.2393 36.1989 50.0433 31.6769 50.0433 31.6769C50.0433 31.6769 49.3973 46.4299 70.3413 52.8249C75.6083 53.8289 79.1093 58.1659 80.5453 66.2949C81.8193 66.6139 82.5773 65.9369 82.5773 65.9369C82.5773 65.9369 82.1593 62.7689 82.2193 59.4419C82.2803 56.0229 85.5063 52.7929 87.3003 53.0829C91.9393 53.8369 94.6193 62.6559 90.6073 65.2909C90.6073 65.2909 90.4193 70.8709 85.9983 75.5419C93.0533 76.4829 110.547 74.6979 116.943 55.8869C123.339 37.0759 114.88 22.8499 108.791 16.4109Z" fill="#4D4D4F"/>
<path opacity="0.5" d="M43.904 28.952C45.284 28.049 46.747 27.255 48.178 26.412C46.568 26.845 44.897 26.97 43.212 26.618C39.822 25.906 37.375 24.121 36.153 21.332C36.001 23.942 36.532 29.498 43.904 28.952Z" fill="#5A5A5C"/>
<path opacity="0.5" d="M45.4246 33.9796C44.3196 35.8506 43.4286 38.0006 43.4786 40.2196C43.5006 41.2056 43.7986 42.1596 43.9156 43.1226C48.2486 36.1726 50.0446 31.6756 50.0446 31.6756C50.0446 31.6756 50.0246 32.1626 50.1146 32.9896C50.5316 30.9046 51.5686 28.9426 52.7446 27.1016C49.7656 28.6746 47.1276 31.0956 45.4246 33.9796Z" fill="#5A5A5C"/>
<path opacity="0.5" d="M77.1713 54.8522C74.8123 50.5822 71.5013 48.2452 66.7933 47.1622C63.0883 46.3102 58.2083 45.9062 54.9453 43.5742C57.9153 47.0212 62.6733 50.4822 70.3423 52.8242C74.5283 53.6232 77.5923 56.5322 79.3973 61.7682C78.9533 59.3532 78.3473 56.9752 77.1713 54.8522Z" fill="#5A5A5C"/>
<path opacity="0.5" d="M108.793 16.4117C106.61 13.5517 102.768 10.5107 97.9121 8.13672C99.2131 8.95272 100.401 9.96072 100.7 11.3057C100.759 11.5767 100.622 11.8957 100.328 11.9607C97.9761 12.4687 95.5901 12.1367 93.2121 12.4207C89.9351 12.8117 86.5711 13.5427 83.5601 14.9317C80.8411 16.1877 78.1561 17.6647 75.8881 19.6427C74.5351 20.8237 72.9121 22.0387 71.8281 23.5547C73.7671 22.1257 75.5861 20.5607 77.7991 19.5167C80.0811 18.4417 82.4431 17.5517 84.8971 16.9537C88.9041 15.9757 93.6541 14.5787 97.6661 16.1697C98.1211 16.3487 98.2221 17.0567 97.6661 17.1937C93.0201 18.3457 88.1731 19.9467 84.6731 23.3787C81.9641 26.0337 78.9241 29.2047 77.8301 32.9617C81.0781 29.5577 84.6561 26.4007 89.0471 24.5707C94.1511 22.4427 101.634 20.7287 107.069 22.5557C107.402 22.6667 107.556 23.0217 107.387 23.3377C103.949 29.7787 99.2111 35.5897 97.0031 42.6367C101.572 39.6807 104.833 34.7877 107.001 29.8957C107.189 29.4707 107.879 29.5987 107.974 30.0237C109.774 38.0757 107.993 47.4837 104.275 54.7797C102.622 58.0277 100.541 61.0127 98.4201 63.9687C97.3781 65.4217 93.3121 67.4477 93.3741 67.1047C94.1631 62.7497 95.6911 57.4687 93.4401 53.2837C92.3721 51.2937 90.5091 48.4177 87.8221 48.7507C86.2031 48.9507 84.7511 49.7667 83.7481 51.0537C80.7551 54.8977 80.0881 61.4637 82.5661 65.8107C82.4901 65.1967 82.1711 62.3837 82.2231 59.4437C82.2841 56.0247 85.5101 52.7947 87.3041 53.0847C91.9431 53.8387 94.6231 62.6577 90.6111 65.2927C90.6111 65.2927 90.4231 70.8727 86.0021 75.5437C93.0571 76.4847 110.551 74.6997 116.947 55.8887C123.341 37.0767 114.882 22.8507 108.793 16.4117Z" fill="#5A5A5C"/>
<path d="M100.892 14.7528C100.892 14.7528 100.349 14.7678 99.5593 14.7778C99.1653 14.7838 98.7053 14.7918 98.2153 14.8008C97.7253 14.8398 97.2033 14.8048 96.6863 14.8588C96.1673 14.8858 95.6473 14.8928 95.1613 14.9448C94.6783 14.9958 94.2113 14.9818 93.8243 15.0458C93.0423 15.1328 92.4883 15.1308 92.4883 15.1308C92.4883 15.1308 92.9723 14.8898 93.7383 14.6198C94.1173 14.4608 94.5843 14.3948 95.0793 14.2888C95.3293 14.2488 95.5863 14.1758 95.8513 14.1678C96.1143 14.1488 96.3873 14.1288 96.6553 14.1098C97.1953 14.0688 97.7363 14.1158 98.2383 14.1438C98.4913 14.1538 98.7323 14.2038 98.9613 14.2338C99.1923 14.2668 99.4073 14.3018 99.6063 14.3518C100.397 14.5188 100.892 14.7528 100.892 14.7528Z" fill="#C53623"/>
<path d="M103.274 18.1401C103.274 18.1401 102.935 18.1311 102.341 18.1511C101.748 18.1641 100.904 18.2281 99.8979 18.3441C99.3949 18.3891 98.8549 18.4771 98.2829 18.5711C97.7149 18.6641 97.1209 18.8071 96.5029 18.9291C95.8949 19.0921 95.2579 19.2251 94.6339 19.4351C94.3189 19.5311 94.0009 19.6291 93.6819 19.7291C93.3669 19.8371 93.0579 19.9651 92.7459 20.0831C92.1109 20.2951 91.5059 20.5851 90.9099 20.8611C90.3009 21.1161 89.7469 21.4531 89.1889 21.7451C88.6269 22.0271 88.1369 22.3871 87.6419 22.6871C87.1419 22.9791 86.7109 23.3151 86.3139 23.6261C85.9219 23.9431 85.5299 24.1971 85.2199 24.4711C84.9109 24.7451 84.6429 24.9831 84.4229 25.1791C83.9699 25.5681 83.7109 25.7891 83.7109 25.7891C83.7109 25.7891 83.9319 25.5321 84.3179 25.0751C84.5159 24.8521 84.7549 24.5751 85.0299 24.2661C85.3029 23.9501 85.6649 23.6471 86.0449 23.2991C86.4229 22.9501 86.8389 22.5771 87.3249 22.2391C87.8059 21.8941 88.2809 21.4801 88.8519 21.1761C89.4139 20.8591 89.9659 20.4691 90.5949 20.2051C91.2059 19.9121 91.8259 19.6071 92.4779 19.3801C92.8029 19.2641 93.1229 19.1361 93.4489 19.0291C93.7769 18.9301 94.1069 18.8341 94.4309 18.7381C95.0779 18.5261 95.7409 18.4291 96.3699 18.2851C97.0039 18.1761 97.6239 18.0821 98.2099 18.0301C98.7979 17.9801 99.3519 17.9321 99.8689 17.9241C100.896 17.8771 101.753 17.9601 102.346 18.0091C102.941 18.0651 103.274 18.1401 103.274 18.1401Z" fill="#C53623"/>
<path d="M108.916 23.5312C108.916 23.5312 108.832 23.7352 108.666 24.0802C108.501 24.4212 108.262 24.9122 107.975 25.4972C107.687 26.0812 107.336 26.7532 106.945 27.4622C106.561 28.1762 106.151 28.9372 105.741 29.6982C105.315 30.4502 104.892 31.2062 104.473 31.9002C104.092 32.6102 103.732 33.2743 103.407 33.8372C103.087 34.4012 102.79 34.8622 102.596 35.1912C102.395 35.5142 102.273 35.7002 102.273 35.7002C102.273 35.7002 102.334 35.4903 102.462 35.1323C102.596 34.7773 102.771 34.2603 103.016 33.6533C103.257 33.0443 103.548 32.3373 103.887 31.5923C104.251 30.8643 104.669 30.0983 105.083 29.3353C105.517 28.5823 105.921 27.8113 106.376 27.1303C106.814 26.4423 107.236 25.8072 107.609 25.2752C108.356 24.2032 108.916 23.5312 108.916 23.5312Z" fill="#C53623"/>
<path d="M111.052 22.4023C111.052 22.4023 111.233 22.8213 111.469 23.5813C111.595 23.9593 111.712 24.4293 111.863 24.9633C111.985 25.5043 112.162 26.1103 112.263 26.7863C112.322 27.1223 112.383 27.4743 112.447 27.8383C112.495 28.2023 112.545 28.5823 112.595 28.9723C112.716 29.7483 112.742 30.5793 112.805 31.4333C112.805 32.2903 112.849 33.1813 112.786 34.0803C112.722 34.9803 112.686 35.8983 112.528 36.8043L112.322 38.1633C112.217 38.6073 112.114 39.0503 112.012 39.4893C111.84 40.3803 111.535 41.2183 111.258 42.0303C111.017 42.8573 110.646 43.6063 110.315 44.3193C110.149 44.6763 109.989 45.0223 109.834 45.3613C109.644 45.6773 109.464 45.9873 109.292 46.2823C108.939 46.8713 108.633 47.4203 108.309 47.8713C107.973 48.3133 107.676 48.6963 107.434 49.0123C106.942 49.6383 106.66 49.9933 106.66 49.9933C106.66 49.9933 106.897 49.6053 107.313 48.9283C107.523 48.5943 107.779 48.1883 108.072 47.7213C108.351 47.2473 108.597 46.6753 108.917 46.0833C109.072 45.7833 109.233 45.4693 109.397 45.1483C109.531 44.8093 109.671 44.4603 109.813 44.1003C110.097 43.3843 110.411 42.6353 110.63 41.8243C110.752 41.4193 110.876 41.0123 111.002 40.6003C111.136 40.1893 111.195 39.7513 111.302 39.3273C111.4 38.8953 111.496 38.4613 111.593 38.0263L111.781 36.6973C111.944 35.8173 111.985 34.9203 112.061 34.0413C112.127 33.1603 112.121 32.2903 112.141 31.4473C112.095 30.6093 112.128 29.7903 112.048 29.0213C112.021 28.6343 111.994 28.2603 111.968 27.8983C111.925 27.5353 111.883 27.1853 111.844 26.8483C111.772 26.1763 111.659 25.5713 111.588 25.0203C111.488 24.4823 111.414 24.0023 111.325 23.6203C111.17 22.8433 111.052 22.4023 111.052 22.4023Z" fill="#C53623"/>
<path d="M108.195 15.9236L109.743 10.1406C109.743 10.1406 112.565 12.4936 113.707 14.9826C109.002 16.3256 108.531 16.3256 108.531 16.3256L108.195 15.9236Z" fill="#006AB0"/>
<path d="M108.793 16.4141C108.793 16.4141 113.505 16.5971 116.533 17.2691C116.466 20.2941 116.127 22.3111 116.127 22.3111C116.127 22.3111 111.611 20.4681 108.793 16.4141Z" fill="#006AB0"/>
<path d="M54.5937 56.3957C54.8667 57.8867 54.6277 59.2077 54.0687 59.3457C53.5027 59.4807 52.8257 58.3847 52.5537 56.8967C52.2817 55.4067 52.5217 54.0867 53.0807 53.9497C53.6477 53.8087 54.3237 54.9067 54.5937 56.3957Z" fill="#461A00"/>
<path d="M53.223 55.5553C53.272 56.0143 53.172 56.4043 52.996 56.4283C52.825 56.4553 52.644 56.1013 52.593 55.6473C52.548 55.1893 52.646 54.7943 52.815 54.7753C52.991 54.7443 53.172 55.0983 53.223 55.5553Z" fill="white"/>
<path d="M48.2824 51.1836C48.2824 51.1836 48.1744 50.5326 48.2964 49.5526C48.3564 49.0616 48.4754 48.4896 48.7484 47.8976C48.8934 47.6086 49.0684 47.3016 49.3334 47.0446C49.5874 46.7806 49.9494 46.5706 50.3384 46.4916C50.7284 46.4206 51.1234 46.4636 51.4604 46.5786C51.8054 46.6806 52.0964 46.8616 52.3664 47.0296C52.6294 47.2096 52.8684 47.4006 53.0744 47.5996C53.2944 47.7816 53.4614 47.9946 53.6294 48.1706C53.9504 48.5446 54.1924 48.8696 54.3444 49.1126C54.4974 49.3526 54.5834 49.4896 54.5834 49.4896C54.5834 49.4896 54.4544 49.3886 54.2334 49.2126C54.0194 49.0306 53.7004 48.7796 53.3324 48.4836C53.1384 48.3476 52.9454 48.1806 52.7234 48.0336C52.5034 47.8776 52.2644 47.7396 52.0234 47.5916C51.7754 47.4606 51.5144 47.3486 51.2524 47.2716C50.9894 47.1886 50.7254 47.1816 50.4884 47.2276C50.0014 47.2966 49.6184 47.7376 49.3354 48.2026C49.0564 48.6846 48.8644 49.1966 48.7174 49.6456C48.4274 50.5426 48.2824 51.1836 48.2824 51.1836Z" fill="#C39368"/>
<path d="M54.7734 74.7897C54.7734 74.7897 54.9194 74.9287 55.1784 75.1597C55.4354 75.3907 55.8254 75.7007 56.3014 76.0327C56.5464 76.1927 56.8124 76.3557 57.0994 76.5167C57.3874 76.6687 57.7024 76.8038 58.0274 76.9248C58.1924 76.9788 58.3634 77.0158 58.5324 77.0638C58.7034 77.0858 58.8784 77.1117 59.0554 77.1367C59.2304 77.1327 59.4074 77.1468 59.5844 77.1328C59.7564 77.0968 59.9354 77.0868 60.1034 77.0358C60.2604 76.9808 60.4714 76.9277 60.5834 76.8767C60.7494 76.7857 60.9494 76.6977 61.0904 76.6007C61.3544 76.4107 61.6424 76.2018 61.8594 75.9388C62.0854 75.6858 62.2664 75.4028 62.4124 75.1198C62.5584 74.8348 62.6644 74.5458 62.7524 74.2728C62.9144 73.7228 62.9944 73.2347 63.0184 72.8907C63.0504 72.5457 63.0524 72.3438 63.0524 72.3438C63.0524 72.3438 63.1174 72.5337 63.1674 72.8857C63.2044 73.2337 63.2644 73.7437 63.1744 74.3627C63.1264 74.6687 63.0614 75.0048 62.9264 75.3418C62.7964 75.6808 62.6294 76.0377 62.3734 76.3537C62.1324 76.6797 61.8294 76.9728 61.4534 77.2308C61.2744 77.3518 61.1094 77.4267 60.9324 77.5287C60.6874 77.6447 60.5104 77.6857 60.2934 77.7637C60.0804 77.8227 59.8574 77.8347 59.6404 77.8677C59.4214 77.8827 59.2054 77.8637 58.9884 77.8597C58.7794 77.8317 58.5714 77.7887 58.3674 77.7437C58.1734 77.6767 57.9754 77.6177 57.7904 77.5427C57.4244 77.3887 57.0984 77.1937 56.8034 76.9937C56.5104 76.7877 56.2574 76.5737 56.0314 76.3637C55.1494 75.5107 54.7734 74.7897 54.7734 74.7897Z" fill="#C39368"/>
<path d="M60.9766 71.5C60.9766 71.5 61.2196 71.56 61.5886 71.646C61.7646 71.684 61.9596 71.736 62.1636 71.774C62.3676 71.807 62.5786 71.85 62.7846 71.853C62.9936 71.881 63.1996 71.871 63.3946 71.85C63.5876 71.831 63.7816 71.799 63.9476 71.754C64.1176 71.72 64.2616 71.671 64.3716 71.638C64.4816 71.609 64.5496 71.595 64.5496 71.595C64.5426 71.584 64.4636 71.863 64.1556 72.133C64.0786 72.204 63.9956 72.279 63.8886 72.333C63.7876 72.392 63.6776 72.463 63.5486 72.495C63.3026 72.591 63.0116 72.617 62.7336 72.606C62.4546 72.577 62.1816 72.513 61.9526 72.4C61.7206 72.296 61.5296 72.157 61.3836 72.024C61.0856 71.759 60.9766 71.5 60.9766 71.5Z" fill="#C39368"/>
<path d="M88.9145 57.7676C88.9145 57.7676 88.8285 57.7546 88.6895 57.7546C88.5515 57.7546 88.3635 57.7866 88.1905 57.8726C88.0995 57.9096 88.0185 57.9776 87.9435 58.0486C87.8625 58.1176 87.8045 58.2196 87.7315 58.3096C87.6695 58.4186 87.6085 58.5326 87.5525 58.6566C87.5015 58.7886 87.4345 58.9026 87.4025 59.0506C87.3585 59.1926 87.2965 59.3226 87.2645 59.4696C87.2325 59.6176 87.1815 59.7546 87.1405 59.8906C87.0735 60.1706 86.9955 60.4326 86.9235 60.6616C86.8025 61.1236 86.6555 61.4366 86.6555 61.4366C86.6555 61.4366 86.5525 61.1136 86.4945 60.6226C86.4715 60.3746 86.4715 60.0846 86.4895 59.7756C86.5235 59.4626 86.5825 59.1336 86.6925 58.8026C86.7405 58.6406 86.8345 58.4816 86.9085 58.3226C86.9855 58.1676 87.1125 58.0256 87.2195 57.8936C87.3475 57.7646 87.4815 57.6536 87.6385 57.5796C87.7865 57.4996 87.9515 57.4546 88.0975 57.4516C88.3905 57.4326 88.6085 57.5296 88.7345 57.6136C88.8625 57.7006 88.9145 57.7676 88.9145 57.7676Z" fill="#C39368"/>
<path d="M86.75 59.7441C86.75 59.7441 86.962 59.7061 87.24 59.7421C87.52 59.7721 87.862 59.8651 88.184 60.0181C88.499 60.1711 88.79 60.3801 88.986 60.5811C89.184 60.7771 89.289 60.9661 89.289 60.9661C89.289 60.9661 89.074 61.0051 88.799 60.9711C88.518 60.9411 88.174 60.8461 87.857 60.6941C87.539 60.5391 87.249 60.3261 87.052 60.1271C86.855 59.9331 86.75 59.7441 86.75 59.7441Z" fill="#C39368"/>
</svg>
