<svg width="257" height="257" viewBox="0 0 257 257" fill="none" xmlns="http://www.w3.org/2000/svg">
<path d="M64.3298 238.654C62.7914 237.999 61.2756 237.307 59.7881 236.575C39.9904 226.818 25.144 208.555 17.2813 190.073C13.8329 181.977 11.5585 173.523 10.2647 164.976C1.80583 108.906 48.9083 82.7068 59.6241 63.1424C70.34 43.578 88.9946 13.3086 135.096 11.7028C170.148 10.4764 205.453 25.3485 224.361 57.5943C226.449 61.145 228.337 64.9105 229.999 68.8884C233.091 76.2869 235.422 84.4199 236.842 93.3049C240.92 118.823 236.662 140.388 222.363 162.613C219.039 167.779 215.22 172.974 215.429 179.174C215.582 183.681 217.762 187.726 221.836 182.544C226.624 176.453 237.952 181.6 232.127 196.357C222.398 221.002 196.873 233.541 170.337 241.067C137.764 250.305 96.1891 252.226 64.3298 238.654Z" fill="#92E3A9"/>
<path d="M64.3298 238.654C62.7914 237.999 61.2756 237.307 59.7881 236.575C39.9904 226.818 25.144 208.555 17.2813 190.073C13.8329 181.977 11.5585 173.523 10.2647 164.976C1.80583 108.906 48.9083 82.7068 59.6241 63.1424C70.34 43.578 88.9946 13.3086 135.096 11.7028C170.148 10.4764 205.453 25.3485 224.361 57.5943C226.449 61.145 228.337 64.9105 229.999 68.8884C233.091 76.2869 235.422 84.4199 236.842 93.3049C240.92 118.823 236.662 140.388 222.363 162.613C219.039 167.779 215.22 172.974 215.429 179.174C215.582 183.681 217.762 187.726 221.836 182.544C226.624 176.453 237.952 181.6 232.127 196.357C222.398 221.002 196.873 233.541 170.337 241.067C137.764 250.305 96.1891 252.226 64.3298 238.654Z" fill="#E2E2F2"/>
<path d="M222.866 209.003C222.638 209.003 222.422 209.049 222.218 209.12C222.181 209.086 222.154 209.057 222.115 209.023C219.384 206.633 216.994 205.438 214.007 205.524C211.02 205.609 208.887 207.06 205.9 207.146C202.913 207.231 199.158 205.695 198.475 204.927C197.793 204.159 197.707 203.647 197.707 203.647C197.707 203.647 201.633 201.257 203.596 200.233C204.159 199.939 204.778 199.553 205.36 199.154C205.706 199.747 206.34 200.149 207.075 200.149C208.176 200.149 209.068 199.257 209.068 198.157C209.068 197.056 208.176 196.164 207.075 196.164C205.975 196.164 205.083 197.056 205.083 198.157C205.083 198.238 205.098 198.315 205.107 198.394C204.906 198.492 204.69 198.594 204.449 198.697C202.657 199.465 200.609 201.598 195.659 201.598C190.709 201.598 188.149 201.087 184.394 198.014C180.638 194.942 177.396 189.138 176.03 186.749C174.664 184.359 171.165 174.203 171.165 174.203C171.165 174.203 169.373 168.571 163.997 161.402C158.62 154.233 151.11 149.198 143.685 144.59C136.261 139.981 125.678 129.399 118.936 121.718C112.194 114.037 113.389 105.929 115.522 99.3582C117.656 92.7867 120.216 91.3362 129.177 94.9204C138.138 98.505 145.051 108.49 145.478 111.818C145.904 115.146 144.71 115.829 145.222 116.597C145.734 117.365 146.331 115.659 146.417 114.464C146.502 113.269 145.99 110.88 145.393 108.405C144.796 105.93 146.844 109.002 148.124 109.941C149.404 110.88 155.634 109.77 154.866 109.258C154.098 108.746 152.306 110.368 150.087 109.002C147.868 107.637 146.246 107.039 143.259 103.37C140.272 99.7 137.286 96.9692 137.286 96.9692C137.286 96.9692 142.321 94.3236 147.1 97.8224C151.879 101.322 152.306 103.625 152.391 102.175C152.476 100.724 151.111 99.7 148.806 97.5664C146.502 95.4328 145.308 94.6649 146.502 93.7258C147.697 92.7873 152.134 90.6536 155.804 91.5069C159.474 92.3601 161.607 93.2992 160.925 92.0188C160.242 90.739 158.023 90.0559 154.695 90.4825C151.367 90.9091 148.721 91.5064 147.185 92.1895C145.648 92.8721 149.574 90.3118 149.318 87.2397C149.062 84.1675 148.55 84.3381 148.38 86.0451C148.209 87.7521 148.209 89.032 146.161 91.4216C144.112 93.8111 142.833 94.7497 138.907 95.0057C134.981 95.2617 129.178 91.4216 126.532 87.8369C123.887 84.2523 120.814 80.2416 123.545 74.0114C126.276 67.7812 132.25 66.3307 135.067 66.8426C137.883 67.3545 142.747 71.2805 146.673 74.7793C150.599 78.2781 152.989 77.0835 155.464 81.0948C157.939 85.106 157.597 87.325 157.597 88.0076C157.597 88.6902 158.536 88.6902 158.451 86.7272C158.365 84.7642 157.085 81.6067 156.402 80.0704C155.72 78.5346 155.805 78.1927 157.853 78.4487C159.902 78.7047 160.84 78.8753 162.462 81.8627C164.083 84.8496 164.254 84.4229 163.486 82.1187C162.718 79.8144 161.437 78.2781 159.56 77.5102C157.682 76.7422 156.317 78.0221 152.988 76.5716C149.66 75.1206 148.55 73.7554 148.55 73.7554C148.55 73.7554 152.306 74.2673 156.658 72.0484C161.01 69.8295 164.082 65.2209 162.973 65.904C161.863 66.5866 160.242 68.9762 157.938 70.3419C155.634 71.7076 153.841 72.3049 152.135 72.0489C150.428 71.7929 150.428 71.7929 150.428 71.7929C150.428 71.7929 151.794 69.4887 154.183 67.3551C156.573 65.2214 159.218 65.4774 159.56 64.8801C159.901 64.2829 157.085 64.1976 154.951 65.5627C152.818 66.9279 151.452 69.4887 150.087 70.5979C148.721 71.7076 147.868 72.5608 146.075 71.6218C144.283 70.6832 142.406 67.9523 140.528 66.8426C138.651 65.7334 137.797 65.3916 137.797 65.3916C137.797 65.3916 143.259 61.551 150.343 61.551C157.426 61.551 157.853 63.258 162.035 62.0629C166.217 60.8679 168.009 56.0034 167.07 56.6011C166.131 57.1984 165.363 59.332 162.461 60.3564C159.56 61.3808 160.242 61.8928 154.012 60.5271C147.782 59.1614 143.344 60.7831 143.344 60.7831C143.344 60.7831 147.697 57.7962 148.465 55.9186C149.232 54.0409 149.744 50.8834 151.622 50.0302C153.5 49.1769 154.865 50.3715 154.95 49.8595C155.035 49.3476 153.841 48.3232 152.219 48.8351C150.598 49.3471 149.488 51.2247 149.318 51.6513C149.147 52.0779 148.891 49.1764 150.256 46.7868C151.622 44.3972 155.206 43.544 155.206 42.7756C155.206 42.0077 154.012 40.642 150.939 44.3972C147.867 48.1525 148.464 50.0297 148.123 52.0779C147.781 54.1262 144.88 57.625 144.367 57.7957C143.855 57.9663 144.367 55.2354 143.685 51.0535C143.002 46.8716 144.367 45.25 145.477 43.2022C146.587 41.1539 145.136 40.386 143.855 43.9701C142.575 47.5547 142.575 49.3465 143.088 53.1872C143.599 57.0278 142.49 59.0761 141.21 60.5266C139.93 61.9776 135.748 64.0254 130.457 65.2204C125.165 66.4155 120.898 67.2687 117.143 64.9644C113.388 62.6602 108.267 58.0517 108.865 53.4431C109.462 48.8346 109.036 45.3353 112.022 42.6044C115.009 39.8735 117.228 39.1051 120.983 38.7638C124.739 38.4225 126.872 37.6541 127.555 35.0938C128.238 32.5336 129.603 30.7413 131.31 31.2532C133.017 31.7652 134.126 32.1918 133.103 31.1679C132.079 30.144 130.628 29.8022 129.177 30.5706C127.726 31.3386 127.299 33.5575 126.104 35.1792C124.91 36.8008 123.715 36.9715 122.776 36.8862C121.838 36.8008 121.24 36.5449 121.24 36.5449C121.24 36.5449 123.715 32.8749 125.251 29.9734C126.788 27.0718 127.214 24.9382 130.286 24.7676C133.359 24.5969 133.103 23.9143 131.31 23.829C129.518 23.7437 127.043 24.7676 125.934 26.5599C124.825 28.3522 123.971 29.9734 123.374 30.4005C122.776 30.8271 123.032 28.5229 122.435 25.6213C121.838 22.7198 120.387 22.8905 120.643 24.085C120.899 25.28 122.094 29.1201 122.008 30.8271C121.923 32.5341 121.155 33.7287 120.472 34.7531C119.789 35.7775 118.509 36.8014 118.509 36.8014C118.509 36.8014 115.01 38.5083 113.901 39.0203C112.791 39.5322 111.852 40.2153 111.852 40.2153C111.852 40.2153 113.132 34.0705 113.73 32.108C114.327 30.1451 114.242 29.0358 117.314 25.2806C120.386 21.5253 122.605 19.3068 122.349 18.6237C122.093 17.9412 122.52 17.4292 120.13 19.9894C117.741 22.5497 115.778 25.0246 115.095 25.9637C114.413 26.9022 113.815 27.756 113.815 27.756C113.815 27.756 112.706 22.5502 112.278 20.8432C111.852 19.1362 112.62 17.771 112.961 14.9548C113.302 12.1386 112.62 10.9436 112.108 12.4799C111.596 14.0162 111.681 16.9178 111.425 17.9417C111.169 18.9656 110.743 19.734 110.743 19.734C110.743 19.734 109.804 18.5389 107.756 15.8081C105.707 13.0772 104.598 13.0772 105.11 14.1864C105.622 15.2961 109.548 19.6481 110.572 21.7818C111.596 23.9154 112.62 27.2435 111.938 31.1695C111.255 35.0954 110.657 39.2768 110.401 40.3012C110.145 41.3251 109.036 42.9467 109.036 42.9467C109.036 42.9467 107.329 39.6181 105.195 37.485C103.061 35.3514 97.5996 33.8155 96.7458 31.0841C95.8926 28.3532 96.0632 26.7316 97.0871 25.793C98.111 24.8545 100.245 22.8062 100.501 20.7579C100.757 18.7096 99.9887 19.0509 99.4767 20.7579C98.9648 22.4649 96.4045 24.5985 95.4655 24.8545C94.5269 25.1104 91.796 23.6599 89.6624 21.0992C87.5288 18.5389 82.579 14.4424 81.9817 15.7227C81.3844 17.0031 83.2615 16.4053 85.4805 18.3683C87.6994 20.3313 89.4064 21.8671 88.5527 22.2089C87.6994 22.5502 85.4805 20.9285 83.8588 21.6116C82.2371 22.2942 83.6028 22.892 84.6267 22.9773C85.6506 23.0626 86.8457 22.2947 90.0032 23.7452C93.1607 25.1957 93.9291 25.7935 94.8677 28.7804C95.8062 31.7672 96.5747 33.8155 99.9881 35.6932C103.402 37.5708 103.914 38.5947 103.914 38.5947C103.914 38.5947 99.8175 38.0828 97.7697 38.68C95.7214 39.2773 93.2465 40.131 90.601 36.8024C87.9554 33.4742 85.3952 32.8764 85.5658 33.9009C85.7365 34.9247 87.9554 35.6932 89.4917 37.3143C91.0281 38.936 92.1373 39.9599 94.3562 40.3012C96.5752 40.6425 96.5752 40.6425 96.5752 40.6425C96.5752 40.6425 97.0018 40.8984 94.8682 41.7517C92.7346 42.6049 90.6863 43.2027 90.089 44.1413C89.4917 45.0798 90.8569 44.8239 92.052 44.3119C93.247 43.8 98.4528 41.3251 99.3914 40.5566C100.33 39.7887 102.976 39.5327 104.427 40.0447C105.878 40.5566 107.715 43.3343 107.991 44.8902C107.991 44.8902 109.086 52.556 103.172 59.3459C97.2583 66.1358 89.5925 66.5738 84.7737 63.7262C79.9555 60.8792 76.889 56.9363 76.2321 53.8703C75.5752 50.8037 75.3557 50.3658 76.451 48.8326C77.5464 47.2993 79.5176 46.8614 81.4888 45.3281C83.46 43.7948 84.3389 42.2266 84.3389 41.3456C84.3389 40.4646 83.6337 41.4335 82.488 42.7555C81.3423 44.0775 81.2539 44.8706 79.4035 45.5758C77.5526 46.2811 75.7016 47.162 75.7016 47.162C75.7016 47.162 75.2611 44.1654 76.8473 41.874C78.4336 39.5826 79.3151 39.3179 80.9897 38.0843C82.6643 36.8507 81.4302 36.4097 80.5492 37.1149C79.6677 37.8201 76.5832 39.4947 75.2611 42.4908C73.9391 45.4874 74.0275 48.2193 74.1154 49.7177C74.2033 51.216 74.8206 53.5074 74.3796 54.0363C73.9391 54.5652 71.2951 52.7143 69.3563 50.0703C67.4175 47.4262 64.5093 46.1926 63.6278 43.3723C62.7463 40.552 61.6006 38.2606 63.0989 36.0576C64.5972 33.8541 64.4209 32.7968 63.6278 33.9425C62.8347 35.0882 61.248 35.705 61.5127 38.5253C61.7769 41.3456 62.6584 43.5486 62.8347 44.1659C63.011 44.7827 62.3942 43.637 59.4855 43.4607C56.5772 43.2844 52.2586 44.6943 51.6418 45.7522C51.025 46.81 52.0823 46.1926 53.3164 45.8406C54.5505 45.488 54.3742 44.6064 57.6351 45.0475C60.8959 45.488 63.1873 47.0747 64.4214 47.9557C65.655 48.8372 66.096 49.8066 66.096 49.8066C66.096 49.8066 62.3947 50.9523 60.7201 51.9217C59.0455 52.8911 57.9882 53.5963 56.2252 53.2437C54.4626 52.8911 54.4626 53.3316 55.6962 53.8605C56.9304 54.3894 58.0761 54.3894 59.7502 54.2131C61.4248 54.0368 63.9804 51.5691 66.4481 51.8333C68.9158 52.0975 70.3257 53.8605 71.6477 55.2704C72.9697 56.6803 73.6749 57.7381 73.6749 57.7381C73.6749 57.7381 69.9731 57.9144 67.3296 59.589C64.6856 61.2636 63.5399 61.7925 62.3063 61.8804C61.0727 61.9688 58.8692 60.7347 56.5778 60.8226C54.2863 60.911 53.8458 60.9989 54.8152 61.3515C55.7847 61.7041 57.3709 61.4394 59.5744 62.233C61.7779 63.0261 62.3063 62.8498 62.3063 63.7314C62.3063 64.6129 60.8964 66.1991 59.3097 67.1685C57.7235 68.1379 54.8152 68.6668 55.3436 69.0194C55.8725 69.372 58.4282 68.7552 59.9265 68.05C61.4248 67.3448 62.7468 65.5823 64.0688 64.1724C65.3908 62.7625 66.0076 61.881 69.5331 60.9994C73.0586 60.1179 74.5564 59.8537 77.2889 61.1757C80.0208 62.4978 83.1058 67.9621 83.4584 72.016C83.811 76.0699 82.4006 79.9481 77.7299 81.6221C73.0592 83.2968 69.5336 81.6221 68.0353 80.388C66.537 79.1544 66.1844 77.5677 63.2762 75.2763C60.368 72.9849 56.4899 72.3681 56.6662 73.2491C56.8425 74.1306 57.6356 73.2491 59.5744 74.4827C61.5132 75.7163 62.3947 75.981 63.2757 76.9504C64.1572 77.9198 65.5671 79.1539 64.6856 80.0349C63.8041 80.9164 63.011 80.1233 59.1334 78.184C55.2557 76.2452 53.1401 75.0111 51.1134 72.896C49.0862 70.7809 45.9138 69.1941 43.6224 69.1941C41.331 69.1941 42.3883 69.723 43.7987 70.0757C45.2086 70.4283 47.4121 71.2214 48.9983 72.6313C50.5845 74.0412 51.8186 76.1568 51.8186 76.1568C51.8186 76.1568 48.4694 74.3059 44.4155 74.3059C40.3616 74.3059 37.1008 74.8348 34.7209 76.5094C32.3416 78.184 35.0735 77.0383 36.7481 76.6857C38.4228 76.3331 40.8905 75.1874 44.8565 75.6284C48.8225 76.0694 51.1139 76.9504 53.5816 78.2724C56.0494 79.5944 59.7507 81.269 60.4559 81.6216C61.1611 81.9742 61.6895 82.4147 61.6895 82.4147C61.6895 82.4147 57.5472 82.1505 53.229 85.4114C48.9104 88.6722 50.2324 90.6994 45.8259 91.5804C41.4194 92.4619 39.8332 91.3162 39.9211 92.0209C40.009 92.7261 42.0362 93.1666 45.297 92.7261C48.5578 92.2856 49.7919 91.2278 51.6423 89.289C53.4932 87.3502 54.11 86.2045 56.0488 85.2351C57.9877 84.2657 59.3097 84.442 59.3097 84.442C59.3097 84.442 57.8998 85.4114 57.6351 87.6149C57.3709 89.8184 57.9877 90.7878 57.0183 91.5809C56.0488 92.374 54.9031 92.8145 55.1673 93.1671C55.4321 93.5197 57.1061 93.1671 57.8992 92.0214C58.6924 90.8757 58.164 89.0248 58.6923 87.4386C59.2213 85.8524 61.4243 84.1778 62.3937 84.0014C63.3631 83.8251 64.4209 83.913 66.8886 84.0893C69.3563 84.2656 70.1494 83.913 74.7322 84.7946C79.3151 85.6761 86.2777 89.2895 88.657 92.9908C91.0368 96.6921 90.7721 99.7771 89.1859 102.333C87.5997 104.888 82.3996 109.56 80.8134 109.824C79.2272 110.088 76.1421 109.383 72.5287 107.268C68.9153 105.153 62.4816 105.858 62.129 107.18C61.7764 108.502 62.7458 107.356 65.6545 107.268C68.5627 107.18 69.4442 107.092 70.9425 108.238C72.4408 109.383 73.4102 109.56 72.8813 110.089C72.3524 110.617 73.5865 110.882 68.4748 113.261C63.3631 115.641 60.3664 115.817 57.6345 115.024C54.9026 114.231 51.2892 114.936 50.4077 115.817C49.5262 116.699 51.906 116.346 53.228 116.081C54.55 115.817 55.9599 115.641 57.5466 116.169C59.1328 116.698 60.9838 117.227 63.9804 116.522C66.977 115.817 69.3563 114.759 69.3563 114.759C69.3563 114.759 68.6511 116.786 67.3291 118.549C66.0071 120.311 63.8036 120.224 64.8614 120.664C65.9192 121.105 67.7696 119.783 68.6511 118.637C69.5326 117.491 70.3257 115.023 71.6477 113.79C72.9697 112.556 73.8512 111.41 75.6137 111.234C77.3762 111.058 79.5798 112.027 79.5798 112.027C79.5798 112.027 76.4953 116.258 75.5259 118.725C74.5564 121.193 73.6749 122.339 69.8852 124.983C66.0955 127.627 66.3597 129.565 66.8007 129.565C67.2417 129.565 66.7128 128.772 68.4753 127.45C70.2378 126.128 72.1771 125.335 73.6749 123.925C75.1732 122.515 75.9664 120.752 76.1427 120.488C76.319 120.224 76.4068 125.247 76.4953 127.802C76.5832 130.358 75.0854 131.856 74.3801 132.826C73.6749 133.795 72.9702 134.941 72.8818 135.91C72.7939 136.88 73.7633 135.91 74.2038 134.588C74.6443 133.266 76.4074 132.561 76.8479 130.358C77.2884 128.155 77.4647 126.392 77.4647 126.392C77.4647 126.392 77.7289 128.507 78.0815 130.534C78.4341 132.562 77.4647 134.5 78.0815 134.5C78.6983 134.5 78.963 132.914 78.963 130.711C78.963 128.507 78.0815 126.304 78.1699 122.691C78.2583 119.077 78.4341 118.548 79.404 116.257C80.3734 113.966 83.2816 111.586 83.7226 110.793C84.1631 110 84.4278 109.383 84.4278 109.383C84.4278 109.383 84.0752 113.349 85.8377 115.993C87.6002 118.637 88.7459 119.959 88.2175 121.545C87.6886 123.131 85.7498 124.277 85.3093 125.511C84.8688 126.745 85.7498 126.569 86.6313 125.335C87.5123 124.101 89.3632 122.603 89.2754 120.752C89.1875 118.901 88.7464 117.667 88.7464 117.667C88.7464 117.667 90.0685 117.844 89.8037 121.898C89.5395 125.952 89.3632 129.477 90.2442 128.596C91.1258 127.714 90.5968 128.155 90.5968 124.013C90.5968 119.87 90.5084 118.108 88.7459 115.64C86.9834 113.172 85.9256 112.467 86.6308 109.383C87.336 106.298 90.7731 102.068 95.9728 100.305C101.172 98.5425 103.993 99.4235 106.901 105.946C109.809 112.467 111.307 119.518 117.477 127.186C123.647 134.853 135.818 143.023 149.261 153.288C162.703 163.553 171.013 176.751 172.235 187.994C173.458 199.237 170.477 204.783 166.065 208.186C161.653 211.59 156.107 212.472 152.199 213.355C150.571 213.722 148.877 214.944 147.418 216.381C145.376 218.391 143.796 220.823 143.502 221.926C143.383 222.374 143.292 222.713 143.223 222.974C142.24 223.096 141.476 223.925 141.476 224.941C141.476 226.042 142.368 226.934 143.468 226.934C144.569 226.934 145.461 226.042 145.461 224.941C145.461 224.096 144.932 223.378 144.19 223.089C144.568 221.573 145.704 218.621 149.048 216.632C153.712 213.859 155.729 213.607 156.99 213.607C158.25 213.607 158.25 213.607 158.25 213.607C158.25 213.607 153.712 216.632 152.704 220.413C151.696 224.195 152.452 226.464 151.191 229.111C150.933 229.653 150.703 230.101 150.498 230.477C150.491 230.477 150.485 230.475 150.479 230.475C149.378 230.475 148.487 231.367 148.487 232.467C148.487 233.568 149.378 234.46 150.479 234.46C151.579 234.46 152.471 233.568 152.471 232.467C152.471 231.967 152.28 231.514 151.975 231.164C152.417 229.989 152.942 228.363 153.082 226.967C153.335 224.446 153.461 222.43 154.343 220.917C155.225 219.404 155.855 218.774 155.855 218.774C155.855 218.774 154.973 221.8 155.855 224.447C156.738 227.094 157.62 228.607 157.116 229.993C157.072 230.112 157.035 230.228 156.997 230.345C156.939 230.34 156.884 230.327 156.825 230.327C155.724 230.327 154.832 231.219 154.832 232.32C154.832 233.42 155.724 234.312 156.825 234.312C157.925 234.312 158.817 233.42 158.817 232.32C158.817 231.617 158.451 231.002 157.902 230.648C158.13 229.406 158.343 227.435 157.872 225.707C157.116 222.934 156.108 221.17 157.242 218.774C158.376 216.38 160.519 215.371 162.788 213.48C165.057 211.59 168.461 210.707 170.729 207.808C172.998 204.909 174.007 201.254 174.007 201.254C174.007 201.254 175.393 207.178 173.755 211.968C172.116 216.758 167.83 221.17 166.192 223.691C165.204 225.21 165.134 227.182 165.232 228.514C164.745 228.877 164.425 229.452 164.425 230.106C164.425 231.207 165.317 232.099 166.417 232.099C167.518 232.099 168.41 231.207 168.41 230.106C168.41 229.006 167.518 228.114 166.417 228.114C166.292 228.114 166.17 228.129 166.051 228.151C166.094 227.465 166.303 226.553 166.822 225.329C168.587 221.17 170.729 220.539 172.746 217.514C174.763 214.49 176.116 211.071 176.372 208.34C176.372 208.34 176.798 213.631 179.786 219.691C182.234 224.659 182.503 228.761 182.379 230.503C181.409 230.637 180.659 231.461 180.659 232.468C180.659 233.569 181.551 234.461 182.651 234.461C183.752 234.461 184.643 233.569 184.643 232.468C184.643 231.512 183.969 230.714 183.069 230.521C183.179 228.871 183.109 226.311 182.772 223.958C182.346 220.971 180.127 216.875 179.188 213.461C178.249 210.048 178.335 204.159 178.335 204.159C178.335 204.159 183.711 212.864 187.296 217.216C190.88 221.569 194.038 227.457 195.232 231.895C196.186 235.438 195.508 237.511 194.848 238.898C194.816 238.896 194.786 238.888 194.753 238.888C193.652 238.888 192.761 239.78 192.761 240.88C192.761 241.981 193.652 242.873 194.753 242.873C195.853 242.873 196.745 241.981 196.745 240.88C196.745 240.242 196.439 239.679 195.971 239.314C196.414 237.444 197.032 234.784 196.342 231.639C195.574 228.14 195.318 227.116 195.318 227.116C195.318 227.116 197.793 228.482 198.305 233.517C198.319 233.66 198.334 233.795 198.349 233.925C197.826 234.285 197.483 234.886 197.483 235.568C197.483 236.668 198.374 237.56 199.475 237.56C200.575 237.56 201.467 236.668 201.467 235.568C201.467 234.467 200.575 233.575 199.475 233.575C199.401 233.575 199.331 233.589 199.26 233.597C198.795 231.889 197.539 227.958 195.829 225.58C193.866 222.849 191.647 220.033 192.842 220.118C194.037 220.203 198.56 221.74 202.827 225.665C206.988 229.492 209.197 232.343 210.017 234.065C209.488 234.424 209.141 235.029 209.141 235.715C209.141 236.816 210.032 237.708 211.133 237.708C212.233 237.708 213.125 236.815 213.125 235.715C213.125 234.615 212.233 233.723 211.133 233.723C211.037 233.723 210.944 233.738 210.852 233.751C209.537 230.7 208.732 228.601 205.472 226.177C202.144 223.702 200.522 222.422 200.522 222.422C200.522 222.422 205.472 222.08 208.288 221.312C208.863 221.156 209.377 220.981 209.829 220.802C210.138 221.501 210.835 221.99 211.649 221.99C212.749 221.99 213.641 221.098 213.641 219.998C213.641 218.897 212.749 218.005 211.649 218.005C210.633 218.005 209.805 218.768 209.682 219.75C208.859 220.032 207.719 220.392 205.984 220.715C202.314 221.398 202.058 222.081 197.62 220.374C193.183 218.667 190.793 217.387 188.659 215.509C186.526 213.632 182.258 207.658 180.04 203.476C177.821 199.294 177.394 193.15 177.394 193.15C177.394 193.15 180.893 199.465 192.158 204.159C203.423 208.853 206.922 208.597 212.555 213.547C217.061 217.506 218.506 220.152 219.036 221.84C218.458 222.189 218.068 222.817 218.068 223.541C218.068 224.641 218.96 225.533 220.061 225.533C221.161 225.533 222.053 224.641 222.053 223.541C222.053 222.44 221.161 221.548 220.061 221.548C220.031 221.548 220.004 221.556 219.975 221.557C218.871 218.831 219.033 216.528 213.324 212.182C207.606 207.829 206.24 208.085 206.24 208.085C206.24 208.085 211.019 206.464 214.689 206.72C217.677 206.928 220.154 208.437 221.341 209.728C221.053 210.073 220.873 210.512 220.873 210.996C220.873 212.097 221.765 212.989 222.865 212.989C223.966 212.989 224.858 212.097 224.858 210.996C224.858 209.895 223.966 209.003 222.866 209.003Z" fill="#7B6EB9"/>
<path d="M131.226 129.572C131.364 131.372 126.933 136.911 124.855 137.05C122.777 137.189 112.945 127.217 113.36 125.14C113.776 123.063 120.436 118.102 120.436 118.102C121.73 117.57 131.087 127.772 131.226 129.572ZM132.829 132.289C132.829 132.289 127.171 138.601 126.735 139.907C126.3 141.213 126.191 141.104 129.891 143.824C133.591 146.545 137.618 150.027 138.597 150.354C139.576 150.68 144.474 144.695 145.453 143.062C146.433 141.43 145.562 140.668 145.018 140.016C144.473 139.363 136.747 132.724 135.441 132.071C134.135 131.419 132.829 132.289 132.829 132.289ZM148.282 143.825C148.282 143.825 144.038 148.504 143.058 149.919C142.079 151.333 143.167 152.204 143.82 152.966C144.473 153.727 154.376 160.583 155.355 161.454C156.335 162.325 157.314 160.91 158.076 160.475C158.838 160.039 162.646 156.34 162.429 154.707C162.211 153.075 154.158 146.11 152.199 144.478C150.241 142.845 149.044 143.28 148.282 143.825ZM164.933 158.407C164.933 158.407 159.6 161.563 158.73 162.651C157.859 163.739 158.73 164.61 158.947 165.154C159.165 165.699 164.497 175.601 165.15 177.016C165.803 178.43 166.891 178.975 167.653 179.084C168.415 179.193 173.094 177.125 173.856 175.383C174.618 173.642 174.074 173.533 173.53 172.118C172.985 170.704 168.741 159.277 167.653 158.189C166.565 157.101 164.933 158.407 164.933 158.407Z" fill="#C7C7C7"/>
<g opacity="0.47">
<path d="M162.701 159.773C161.4 160.594 159.87 161.605 159.102 162.278C163.854 167.492 167.442 173.032 169.684 178.447C170.493 178.086 171.401 177.603 172.175 177.072C171.577 175.401 171.164 174.202 171.164 174.202C171.164 174.202 169.372 168.57 163.995 161.401C163.577 160.845 163.143 160.305 162.701 159.773Z" fill="white"/>
<path d="M126.702 136.111C127.701 135.318 128.781 134.129 129.637 132.948C125.719 129.152 121.945 125.147 118.935 121.718C118.507 121.231 118.111 120.741 117.745 120.25C116.673 121.154 115.491 122.219 114.621 123.188C115.452 124.502 116.389 125.835 117.477 127.187C119.79 130.063 122.949 133.01 126.702 136.111Z" fill="white"/>
<path d="M157.678 160.763C157.817 160.65 157.951 160.549 158.078 160.476C158.493 160.239 159.809 159.034 160.888 157.722C156.594 153.16 151.436 149.508 146.193 146.168C145.319 147.16 144.361 148.267 143.695 149.093C145.517 150.454 147.376 151.851 149.261 153.29C152.346 155.647 155.158 158.158 157.678 160.763Z" fill="white"/>
<path d="M144.149 144.881C143.994 144.784 143.839 144.686 143.684 144.59C139.973 142.286 135.472 138.489 131.056 134.309C130.219 135.277 129.225 136.45 128.398 137.49C132.381 140.687 136.938 144.056 141.809 147.685C142.632 146.768 143.469 145.756 144.149 144.881Z" fill="white"/>
</g>
<path d="M222.866 209.003C222.638 209.003 222.422 209.049 222.218 209.12C222.181 209.086 222.154 209.057 222.115 209.023C219.384 206.633 216.994 205.438 214.007 205.524C211.02 205.609 208.887 207.06 205.9 207.146C202.913 207.231 199.158 205.695 198.475 204.927C197.793 204.159 197.707 203.647 197.707 203.647C197.707 203.647 201.633 201.257 203.596 200.233C204.159 199.939 204.778 199.553 205.36 199.154C205.706 199.747 206.34 200.149 207.075 200.149C208.176 200.149 209.068 199.257 209.068 198.157C209.068 197.056 208.176 196.164 207.075 196.164C205.975 196.164 205.083 197.056 205.083 198.157C205.083 198.238 205.098 198.315 205.107 198.394C204.906 198.492 204.69 198.594 204.449 198.697C202.657 199.465 200.609 201.598 195.659 201.598C190.709 201.598 188.149 201.087 184.394 198.014C180.638 194.942 177.396 189.138 176.03 186.749C174.664 184.359 171.165 174.203 171.165 174.203C171.165 174.203 169.373 168.571 163.997 161.402C158.62 154.233 151.11 149.198 143.685 144.59C136.261 139.981 125.678 129.399 118.936 121.718C112.194 114.037 113.389 105.929 115.522 99.3582C117.656 92.7867 120.216 91.3362 129.177 94.9204C138.138 98.505 145.051 108.49 145.478 111.818C145.904 115.146 144.71 115.829 145.222 116.597C145.734 117.365 146.331 115.659 146.417 114.464C146.502 113.269 145.99 110.88 145.393 108.405C144.796 105.93 146.844 109.002 148.124 109.941C149.404 110.88 155.634 109.77 154.866 109.258C154.098 108.746 152.306 110.368 150.087 109.002C147.868 107.637 146.246 107.039 143.259 103.37C140.272 99.7 137.286 96.9692 137.286 96.9692C137.286 96.9692 142.321 94.3236 147.1 97.8224C151.879 101.322 152.306 103.625 152.391 102.175C152.476 100.724 151.111 99.7 148.806 97.5664C146.502 95.4328 145.308 94.6649 146.502 93.7258C147.697 92.7873 152.134 90.6536 155.804 91.5069C159.474 92.3601 161.607 93.2992 160.925 92.0188C160.242 90.739 158.023 90.0559 154.695 90.4825C151.367 90.9091 148.721 91.5064 147.185 92.1895C145.648 92.8721 149.574 90.3118 149.318 87.2397C149.062 84.1675 148.55 84.3381 148.38 86.0451C148.209 87.7521 148.209 89.032 146.161 91.4216C144.112 93.8111 142.833 94.7497 138.907 95.0057C134.981 95.2617 129.178 91.4216 126.532 87.8369C123.887 84.2523 120.814 80.2416 123.545 74.0114C126.276 67.7812 132.25 66.3307 135.067 66.8426C137.883 67.3545 142.747 71.2805 146.673 74.7793C150.599 78.2781 152.989 77.0835 155.464 81.0948C157.939 85.106 157.597 87.325 157.597 88.0076C157.597 88.6902 158.536 88.6902 158.451 86.7272C158.365 84.7642 157.085 81.6067 156.402 80.0704C155.72 78.5346 155.805 78.1927 157.853 78.4487C159.902 78.7047 160.84 78.8753 162.462 81.8627C164.083 84.8496 164.254 84.4229 163.486 82.1187C162.718 79.8144 161.437 78.2781 159.56 77.5102C157.682 76.7422 156.317 78.0221 152.988 76.5716C149.66 75.1206 148.55 73.7554 148.55 73.7554C148.55 73.7554 152.306 74.2673 156.658 72.0484C161.01 69.8295 164.082 65.2209 162.973 65.904C161.863 66.5866 160.242 68.9762 157.938 70.3419C155.634 71.7076 153.841 72.3049 152.135 72.0489C150.428 71.7929 150.428 71.7929 150.428 71.7929C150.428 71.7929 151.794 69.4887 154.183 67.3551C156.573 65.2214 159.218 65.4774 159.56 64.8801C159.901 64.2829 157.085 64.1976 154.951 65.5627C152.818 66.9279 151.452 69.4887 150.087 70.5979C148.721 71.7076 147.868 72.5608 146.075 71.6218C144.283 70.6832 142.406 67.9523 140.528 66.8426C138.651 65.7334 137.797 65.3916 137.797 65.3916C137.797 65.3916 143.259 61.551 150.343 61.551C157.426 61.551 157.853 63.258 162.035 62.0629C166.217 60.8679 168.009 56.0034 167.07 56.6011C166.131 57.1984 165.363 59.332 162.461 60.3564C159.56 61.3808 160.242 61.8928 154.012 60.5271C147.782 59.1614 143.344 60.783 143.344 60.783C143.344 60.783 147.697 57.7962 148.465 55.9186C149.232 54.0409 149.744 50.8834 151.622 50.0302C153.5 49.1769 154.865 50.3715 154.95 49.8595C155.035 49.3476 153.841 48.3232 152.219 48.8351C150.598 49.3471 149.488 51.2247 149.318 51.6513C149.147 52.0779 148.891 49.1764 150.256 46.7868C151.622 44.3972 155.206 43.544 155.206 42.7756C155.206 42.0077 154.012 40.642 150.939 44.3972C147.867 48.1525 148.464 50.0297 148.123 52.0779C147.781 54.1262 144.88 57.625 144.367 57.7957C143.855 57.9663 144.367 55.2354 143.685 51.0535C143.002 46.8716 144.367 45.25 145.477 43.2022C146.587 41.1539 145.136 40.386 143.855 43.9701C142.575 47.5547 142.575 49.3465 143.088 53.1872C143.599 57.0278 142.49 59.0761 141.21 60.5266C139.93 61.9776 135.748 64.0254 130.457 65.2204C125.165 66.4155 120.898 67.2687 117.143 64.9644C113.388 62.6602 108.267 58.0517 108.865 53.4431C109.462 48.8346 109.036 45.3353 112.022 42.6044C115.009 39.8735 117.228 39.1051 120.983 38.7638C124.739 38.4225 126.872 37.6541 127.555 35.0938C128.238 32.5336 129.603 30.7413 131.31 31.2532C133.017 31.7652 134.126 32.1918 133.103 31.1679C132.079 30.144 130.628 29.8022 129.177 30.5706C127.726 31.3386 127.299 33.5575 126.104 35.1792C124.91 36.8008 123.715 36.9715 122.776 36.8862C121.838 36.8008 121.24 36.5449 121.24 36.5449C121.24 36.5449 123.715 32.8749 125.251 29.9734C126.788 27.0718 127.214 24.9382 130.286 24.7676C133.359 24.5969 133.103 23.9143 131.31 23.829C129.518 23.7437 127.043 24.7676 125.934 26.5599C124.825 28.3522 123.971 29.9734 123.374 30.4005C122.776 30.8271 123.032 28.5229 122.435 25.6213C121.838 22.7198 120.387 22.8905 120.643 24.085C120.899 25.28 122.094 29.1201 122.008 30.8271C121.923 32.5341 121.155 33.7287 120.472 34.7531C119.789 35.7775 118.509 36.8014 118.509 36.8014C118.509 36.8014 115.01 38.5083 113.901 39.0203C112.791 39.5322 111.852 40.2153 111.852 40.2153C111.852 40.2153 113.132 34.0705 113.73 32.108C114.327 30.1451 114.242 29.0358 117.314 25.2806C120.386 21.5253 122.605 19.3068 122.349 18.6237C122.093 17.9412 122.52 17.4292 120.13 19.9894C117.741 22.5497 115.778 25.0246 115.095 25.9637C114.413 26.9022 113.815 27.756 113.815 27.756C113.815 27.756 112.706 22.5502 112.278 20.8432C111.852 19.1362 112.62 17.771 112.961 14.9548C113.302 12.1386 112.62 10.9436 112.108 12.4799C111.596 14.0162 111.681 16.9178 111.425 17.9417C111.169 18.9656 110.743 19.734 110.743 19.734C110.743 19.734 109.804 18.5389 107.756 15.8081C105.707 13.0772 104.598 13.0772 105.11 14.1864C105.622 15.2961 109.548 19.6481 110.572 21.7818C111.596 23.9154 112.62 27.2435 111.938 31.1695C111.255 35.0954 110.657 39.2768 110.401 40.3012C110.145 41.3251 109.036 42.9467 109.036 42.9467C109.036 42.9467 107.329 39.6181 105.195 37.485C103.061 35.3514 97.5996 33.8155 96.7458 31.0841C95.8926 28.3532 96.0632 26.7316 97.0871 25.793C98.111 24.8545 100.245 22.8062 100.501 20.7579C100.757 18.7096 99.9887 19.0509 99.4767 20.7579C98.9648 22.4649 96.4045 24.5985 95.4655 24.8545C94.5269 25.1104 91.796 23.6599 89.6624 21.0992C87.5288 18.5389 82.579 14.4424 81.9817 15.7227C81.3844 17.0031 83.2615 16.4053 85.4805 18.3683C87.6994 20.3313 89.4064 21.8671 88.5527 22.2089C87.6994 22.5502 85.4805 20.9285 83.8588 21.6116C82.2371 22.2942 83.6028 22.892 84.6267 22.9773C85.6506 23.0626 86.8457 22.2947 90.0032 23.7452C93.1607 25.1957 93.9291 25.7935 94.8677 28.7804C95.8062 31.7672 96.5747 33.8155 99.9881 35.6932C103.402 37.5708 103.914 38.5947 103.914 38.5947C103.914 38.5947 99.8175 38.0828 97.7697 38.68C95.7214 39.2773 93.2465 40.131 90.601 36.8024C87.9554 33.4742 85.3952 32.8765 85.5658 33.9009C85.7365 34.9247 87.9554 35.6932 89.4917 37.3143C91.0281 38.936 92.1373 39.9599 94.3562 40.3012C96.5752 40.6425 96.5752 40.6425 96.5752 40.6425C96.5752 40.6425 97.0018 40.8984 94.8682 41.7517C92.7346 42.6049 90.6863 43.2027 90.089 44.1413C89.4917 45.0798 90.8569 44.8239 92.052 44.3119C93.247 43.8 98.4528 41.3251 99.3914 40.5566C100.33 39.7887 102.976 39.5327 104.427 40.0447C105.878 40.5566 107.715 43.3343 107.991 44.8902C107.991 44.8902 109.086 52.556 103.172 59.3459C97.2583 66.1358 89.5925 66.5738 84.7737 63.7262C79.9555 60.8792 76.889 56.9363 76.2321 53.8703C75.5752 50.8037 75.3557 50.3658 76.451 48.8325C77.5464 47.2993 79.5176 46.8614 81.4888 45.3281C83.46 43.7948 84.3389 42.2266 84.3389 41.3456C84.3389 40.4646 83.6337 41.4335 82.488 42.7555C81.3423 44.0775 81.2539 44.8706 79.4035 45.5758C77.5526 46.2811 75.7016 47.162 75.7016 47.162C75.7016 47.162 75.2611 44.1654 76.8473 41.874C78.4336 39.5826 79.3151 39.3179 80.9897 38.0843C82.6643 36.8507 81.4302 36.4097 80.5492 37.1149C79.6677 37.8201 76.5832 39.4947 75.2611 42.4908C73.9391 45.4874 74.0275 48.2193 74.1154 49.7177C74.2033 51.216 74.8206 53.5074 74.3796 54.0363C73.9391 54.5652 71.2951 52.7143 69.3563 50.0703C67.4175 47.4262 64.5093 46.1926 63.6278 43.3723C62.7463 40.552 61.6006 38.2606 63.0989 36.0576C64.5972 33.8541 64.4209 32.7968 63.6278 33.9425C62.8347 35.0882 61.248 35.705 61.5127 38.5253C61.7769 41.3456 62.6584 43.5486 62.8347 44.1659C63.011 44.7827 62.3942 43.637 59.4855 43.4607C56.5772 43.2844 52.2586 44.6943 51.6418 45.7521C51.025 46.81 52.0823 46.1926 53.3164 45.8406C54.5505 45.488 54.3742 44.6064 57.6351 45.0475C60.8959 45.488 63.1873 47.0747 64.4214 47.9557C65.655 48.8372 66.096 49.8066 66.096 49.8066C66.096 49.8066 62.3947 50.9523 60.7201 51.9217C59.0455 52.8911 57.9882 53.5963 56.2252 53.2437C54.4626 52.8911 54.4626 53.3316 55.6962 53.8605C56.9304 54.3894 58.0761 54.3894 59.7502 54.2131C61.4248 54.0368 63.9804 51.5691 66.4481 51.8333C68.9158 52.0975 70.3257 53.8605 71.6477 55.2704C72.9697 56.6803 73.6749 57.7381 73.6749 57.7381C73.6749 57.7381 69.9731 57.9144 67.3296 59.589C64.6856 61.2636 63.5399 61.7925 62.3063 61.8804C61.0727 61.9688 58.8692 60.7347 56.5778 60.8226C54.2863 60.911 53.8458 60.9989 54.8152 61.3515C55.7847 61.7041 57.3709 61.4394 59.5744 62.233C61.7779 63.0261 62.3063 62.8498 62.3063 63.7314C62.3063 64.6129 60.8964 66.1991 59.3097 67.1685C57.7235 68.1379 54.8152 68.6668 55.3436 69.0194C55.8725 69.372 58.4282 68.7552 59.9265 68.05C61.4248 67.3448 62.7468 65.5823 64.0688 64.1724C65.3908 62.7625 66.0076 61.881 69.5331 60.9994C73.0586 60.1179 74.5564 59.8537 77.2889 61.1757C80.0208 62.4978 83.1058 67.9621 83.4584 72.016C83.811 76.0699 82.4006 79.948 77.7299 81.6221C73.0592 83.2968 69.5336 81.6221 68.0353 80.388C66.537 79.1544 66.1844 77.5677 63.2762 75.2763C60.368 72.9849 56.4899 72.3681 56.6662 73.2491C56.8425 74.1306 57.6356 73.2491 59.5744 74.4827C61.5132 75.7163 62.3947 75.981 63.2757 76.9504C64.1572 77.9198 65.5671 79.1539 64.6856 80.0349C63.8041 80.9164 63.011 80.1233 59.1334 78.184C55.2557 76.2452 53.1401 75.0111 51.1134 72.896C49.0862 70.7809 45.9138 69.1941 43.6224 69.1941C41.331 69.1941 42.3883 69.723 43.7987 70.0757C45.2086 70.4283 47.4121 71.2214 48.9983 72.6313C50.5845 74.0412 51.8186 76.1568 51.8186 76.1568C51.8186 76.1568 48.4694 74.3059 44.4155 74.3059C40.3616 74.3059 37.1008 74.8348 34.7209 76.5094C32.3416 78.184 35.0735 77.0383 36.7481 76.6857C38.4228 76.3331 40.8905 75.1874 44.8565 75.6284C48.8225 76.0694 51.1139 76.9504 53.5816 78.2724C56.0494 79.5944 59.7507 81.269 60.4559 81.6216C61.1611 81.9742 61.6895 82.4147 61.6895 82.4147C61.6895 82.4147 57.5472 82.1505 53.229 85.4114C48.9104 88.6722 50.2324 90.6994 45.8259 91.5804C41.4194 92.4619 39.8332 91.3162 39.9211 92.0209C40.009 92.7261 42.0362 93.1666 45.297 92.7261C48.5578 92.2856 49.7919 91.2278 51.6423 89.289C53.4932 87.3502 54.11 86.2045 56.0488 85.2351C57.9877 84.2657 59.3097 84.442 59.3097 84.442C59.3097 84.442 57.8998 85.4114 57.6351 87.6149C57.3709 89.8184 57.9877 90.7878 57.0183 91.5809C56.0488 92.374 54.9031 92.8145 55.1673 93.1671C55.4321 93.5197 57.1061 93.1671 57.8992 92.0214C58.6923 90.8757 58.164 89.0248 58.6923 87.4386C59.2213 85.8524 61.4243 84.1778 62.3937 84.0015C63.3631 83.8252 64.4209 83.913 66.8886 84.0893C69.3563 84.2657 70.1494 83.913 74.7322 84.7946C79.3151 85.6761 86.2777 89.2895 88.657 92.9908C91.0368 96.6921 90.7721 99.7771 89.1859 102.333C87.5997 104.888 82.3996 109.56 80.8134 109.824C79.2272 110.088 76.1421 109.383 72.5287 107.268C68.9153 105.153 62.4816 105.858 62.129 107.18C61.7764 108.502 62.7458 107.356 65.6545 107.268C68.5627 107.18 69.4442 107.092 70.9425 108.238C72.4408 109.383 73.4102 109.56 72.8813 110.088C72.3524 110.617 73.5865 110.882 68.4748 113.261C63.3631 115.641 60.3664 115.817 57.6345 115.024C54.9026 114.231 51.2892 114.936 50.4077 115.817C49.5262 116.699 51.906 116.346 53.228 116.081C54.55 115.817 55.9599 115.641 57.5466 116.169C59.1328 116.698 60.9838 117.227 63.9804 116.522C66.977 115.817 69.3563 114.759 69.3563 114.759C69.3563 114.759 68.6511 116.786 67.3291 118.549C66.0071 120.311 63.8036 120.224 64.8614 120.664C65.9192 121.105 67.7696 119.783 68.6511 118.637C69.5326 117.491 70.3257 115.023 71.6477 113.79C72.9697 112.556 73.8512 111.41 75.6137 111.234C77.3762 111.058 79.5798 112.027 79.5798 112.027C79.5798 112.027 76.4953 116.258 75.5259 118.725C74.5564 121.193 73.6749 122.339 69.8852 124.983C66.0955 127.627 66.3597 129.566 66.8007 129.566C67.2417 129.566 66.7128 128.772 68.4753 127.45C70.2378 126.128 72.1771 125.335 73.6749 123.925C75.1733 122.515 75.9663 120.752 76.1427 120.488C76.319 120.224 76.4068 125.247 76.4953 127.802C76.5832 130.358 75.0854 131.856 74.3801 132.826C73.6749 133.795 72.9702 134.941 72.8818 135.91C72.7939 136.88 73.7633 135.91 74.2038 134.588C74.6443 133.266 76.4074 132.561 76.8479 130.358C77.2884 128.155 77.4647 126.392 77.4647 126.392C77.4647 126.392 77.7289 128.507 78.0815 130.534C78.4341 132.562 77.4647 134.5 78.0815 134.5C78.6983 134.5 78.963 132.914 78.963 130.711C78.963 128.507 78.0815 126.304 78.1699 122.691C78.2583 119.077 78.4341 118.548 79.404 116.257C80.3734 113.966 83.2816 111.586 83.7226 110.793C84.1631 110 84.4278 109.383 84.4278 109.383C84.4278 109.383 84.0752 113.349 85.8377 115.993C87.6002 118.637 88.7459 119.959 88.2175 121.545C87.6886 123.131 85.7498 124.277 85.3093 125.511C84.8688 126.745 85.7498 126.569 86.6313 125.335C87.5123 124.101 89.3632 122.603 89.2754 120.752C89.1875 118.901 88.7464 117.667 88.7464 117.667C88.7464 117.667 90.0685 117.844 89.8037 121.898C89.5395 125.952 89.3632 129.477 90.2442 128.596C91.1258 127.714 90.5968 128.155 90.5968 124.013C90.5968 119.87 90.5084 118.108 88.7459 115.64C86.9834 113.172 85.9256 112.467 86.6308 109.383C87.336 106.298 90.7731 102.068 95.9728 100.305C101.172 98.5425 103.993 99.4235 106.901 105.946C109.809 112.467 111.307 119.518 117.477 127.186C123.647 134.853 135.818 143.023 149.261 153.288C162.703 163.553 171.013 176.751 172.235 187.994C173.458 199.237 170.477 204.783 166.065 208.186C161.653 211.59 156.107 212.472 152.199 213.355C150.571 213.722 148.877 214.944 147.418 216.381C145.376 218.391 143.796 220.823 143.502 221.926C143.383 222.374 143.292 222.713 143.223 222.974C142.24 223.096 141.476 223.925 141.476 224.941C141.476 226.042 142.368 226.934 143.468 226.934C144.569 226.934 145.461 226.042 145.461 224.941C145.461 224.096 144.932 223.378 144.19 223.089C144.568 221.573 145.704 218.621 149.048 216.632C153.712 213.859 155.729 213.607 156.99 213.607C158.25 213.607 158.25 213.607 158.25 213.607C158.25 213.607 153.712 216.632 152.704 220.413C151.696 224.195 152.452 226.464 151.191 229.111C150.933 229.653 150.703 230.101 150.498 230.477C150.491 230.477 150.485 230.475 150.479 230.475C149.378 230.475 148.487 231.367 148.487 232.467C148.487 233.568 149.378 234.46 150.479 234.46C151.579 234.46 152.471 233.568 152.471 232.467C152.471 231.967 152.28 231.514 151.975 231.164C152.417 229.989 152.942 228.363 153.082 226.967C153.335 224.446 153.461 222.43 154.343 220.917C155.225 219.404 155.855 218.774 155.855 218.774C155.855 218.774 154.973 221.8 155.855 224.447C156.738 227.094 157.62 228.607 157.116 229.993C157.072 230.112 157.035 230.228 156.997 230.345C156.939 230.34 156.884 230.327 156.825 230.327C155.724 230.327 154.832 231.219 154.832 232.32C154.832 233.42 155.724 234.312 156.825 234.312C157.925 234.312 158.817 233.42 158.817 232.32C158.817 231.617 158.451 231.002 157.902 230.648C158.13 229.406 158.343 227.435 157.872 225.707C157.116 222.934 156.108 221.17 157.242 218.774C158.376 216.38 160.519 215.371 162.788 213.48C165.057 211.59 168.461 210.707 170.729 207.808C172.998 204.909 174.007 201.254 174.007 201.254C174.007 201.254 175.393 207.178 173.755 211.968C172.116 216.758 167.83 221.17 166.192 223.691C165.204 225.21 165.134 227.182 165.232 228.514C164.745 228.877 164.425 229.452 164.425 230.106C164.425 231.207 165.317 232.099 166.418 232.099C167.518 232.099 168.41 231.207 168.41 230.106C168.41 229.006 167.518 228.114 166.418 228.114C166.292 228.114 166.17 228.129 166.051 228.151C166.094 227.465 166.303 226.553 166.822 225.329C168.587 221.17 170.729 220.539 172.746 217.514C174.763 214.49 176.116 211.071 176.372 208.34C176.372 208.34 176.798 213.631 179.786 219.691C182.234 224.659 182.503 228.761 182.379 230.503C181.409 230.637 180.659 231.461 180.659 232.468C180.659 233.569 181.551 234.461 182.651 234.461C183.752 234.461 184.643 233.569 184.643 232.468C184.643 231.512 183.969 230.714 183.069 230.521C183.179 228.871 183.109 226.311 182.772 223.958C182.346 220.971 180.127 216.875 179.188 213.461C178.249 210.048 178.335 204.159 178.335 204.159C178.335 204.159 183.711 212.864 187.296 217.216C190.88 221.569 194.038 227.457 195.232 231.895C196.186 235.438 195.508 237.511 194.848 238.898C194.816 238.896 194.786 238.888 194.753 238.888C193.652 238.888 192.761 239.78 192.761 240.88C192.761 241.981 193.652 242.873 194.753 242.873C195.853 242.873 196.745 241.981 196.745 240.88C196.745 240.242 196.439 239.679 195.971 239.314C196.414 237.444 197.032 234.784 196.342 231.639C195.574 228.14 195.318 227.116 195.318 227.116C195.318 227.116 197.793 228.482 198.305 233.517C198.319 233.66 198.334 233.795 198.349 233.925C197.826 234.285 197.483 234.886 197.483 235.568C197.483 236.668 198.374 237.56 199.475 237.56C200.575 237.56 201.467 236.668 201.467 235.568C201.467 234.467 200.575 233.575 199.475 233.575C199.401 233.575 199.331 233.589 199.26 233.597C198.795 231.889 197.539 227.958 195.829 225.58C193.866 222.849 191.647 220.033 192.842 220.118C194.037 220.203 198.56 221.74 202.827 225.665C206.988 229.492 209.197 232.343 210.017 234.065C209.488 234.424 209.141 235.029 209.141 235.715C209.141 236.816 210.032 237.707 211.133 237.707C212.233 237.707 213.125 236.815 213.125 235.715C213.125 234.615 212.233 233.723 211.133 233.723C211.037 233.723 210.944 233.738 210.852 233.751C209.537 230.7 208.732 228.601 205.472 226.177C202.144 223.702 200.522 222.422 200.522 222.422C200.522 222.422 205.472 222.08 208.288 221.312C208.863 221.156 209.377 220.981 209.829 220.802C210.138 221.501 210.835 221.99 211.649 221.99C212.749 221.99 213.641 221.098 213.641 219.998C213.641 218.897 212.749 218.005 211.649 218.005C210.633 218.005 209.805 218.768 209.682 219.75C208.859 220.032 207.719 220.392 205.984 220.715C202.314 221.398 202.058 222.081 197.62 220.374C193.183 218.667 190.793 217.387 188.659 215.509C186.526 213.632 182.258 207.658 180.04 203.476C177.821 199.294 177.394 193.15 177.394 193.15C177.394 193.15 180.893 199.465 192.158 204.159C203.423 208.853 206.922 208.597 212.555 213.547C217.061 217.506 218.506 220.152 219.036 221.84C218.458 222.189 218.068 222.817 218.068 223.541C218.068 224.641 218.96 225.533 220.061 225.533C221.161 225.533 222.053 224.641 222.053 223.541C222.053 222.44 221.161 221.548 220.061 221.548C220.031 221.548 220.004 221.556 219.975 221.557C218.871 218.831 219.033 216.528 213.324 212.182C207.606 207.829 206.24 208.085 206.24 208.085C206.24 208.085 211.019 206.464 214.689 206.72C217.677 206.928 220.154 208.437 221.341 209.728C221.053 210.073 220.873 210.512 220.873 210.996C220.873 212.097 221.765 212.989 222.865 212.989C223.966 212.989 224.858 212.097 224.858 210.996C224.858 209.895 223.966 209.003 222.866 209.003Z" stroke="#263238" stroke-miterlimit="10"/>
<path d="M104.711 93.3466C111.084 93.3466 116.25 87.5449 116.25 80.3881C116.25 73.2314 111.084 67.4297 104.711 67.4297C98.3382 67.4297 93.1719 73.2314 93.1719 80.3881C93.1719 87.5449 98.3382 93.3466 104.711 93.3466Z" fill="#263238" stroke="#263238" stroke-miterlimit="10"/>
<path d="M131.226 129.572C131.364 131.372 126.933 136.911 124.855 137.05C122.777 137.189 112.945 127.217 113.36 125.14C113.776 123.063 120.436 118.102 120.436 118.102C121.73 117.57 131.087 127.772 131.226 129.572ZM132.829 132.289C132.829 132.289 127.171 138.601 126.735 139.907C126.3 141.213 126.191 141.104 129.891 143.824C133.591 146.545 137.618 150.027 138.597 150.354C139.576 150.68 144.474 144.695 145.453 143.062C146.433 141.43 145.562 140.668 145.018 140.016C144.473 139.363 136.747 132.724 135.441 132.071C134.135 131.419 132.829 132.289 132.829 132.289ZM148.282 143.825C148.282 143.825 144.038 148.504 143.058 149.919C142.079 151.333 143.167 152.204 143.82 152.966C144.473 153.727 154.376 160.583 155.355 161.454C156.335 162.325 157.314 160.91 158.076 160.475C158.838 160.039 162.646 156.34 162.429 154.707C162.211 153.075 154.158 146.11 152.199 144.478C150.241 142.845 149.044 143.28 148.282 143.825ZM164.933 158.407C164.933 158.407 159.6 161.563 158.73 162.651C157.859 163.739 158.73 164.61 158.947 165.154C159.165 165.699 164.497 175.601 165.15 177.016C165.803 178.43 166.891 178.975 167.653 179.084C168.415 179.193 173.094 177.125 173.856 175.383C174.618 173.642 174.074 173.533 173.53 172.118C172.985 170.704 168.741 159.277 167.653 158.189C166.565 157.101 164.933 158.407 164.933 158.407Z" stroke="#263238" stroke-miterlimit="10"/>
<path d="M123.463 122.361C124.345 123.464 124.525 124.785 123.868 125.31C123.211 125.835 121.963 125.366 121.082 124.262C120.2 123.158 120.019 121.838 120.677 121.313C121.334 120.788 122.582 121.257 123.463 122.361Z" fill="#263238" stroke="#263238" stroke-miterlimit="10"/>
<path d="M135.626 142.174C136.804 142.953 137.383 144.153 136.919 144.855C136.455 145.557 135.124 145.495 133.946 144.716C132.767 143.937 132.188 142.737 132.652 142.035C133.116 141.333 134.448 141.396 135.626 142.174Z" fill="#263238" stroke="#263238" stroke-miterlimit="10"/>
<path d="M156.305 150.334C157.484 151.113 158.063 152.313 157.599 153.015C157.135 153.718 155.803 153.655 154.625 152.876C153.447 152.097 152.868 150.897 153.332 150.195C153.796 149.493 155.127 149.556 156.305 150.334Z" fill="#263238" stroke="#263238" stroke-miterlimit="10"/>
<path d="M169.536 167.578C170.366 168.721 170.487 170.048 169.806 170.542C169.126 171.037 167.901 170.512 167.071 169.369C166.241 168.226 166.119 166.899 166.8 166.405C167.481 165.91 168.706 166.436 169.536 167.578Z" fill="#263238" stroke="#263238" stroke-miterlimit="10"/>
</svg>
