<svg width="231" height="287" viewBox="0 0 231 287" fill="none" xmlns="http://www.w3.org/2000/svg">
<path d="M13.3367 158.035C13.3377 203.855 50.2866 240.998 95.8685 240.997C141.45 240.996 178.399 203.851 178.398 158.031C178.397 112.213 141.447 75.0684 95.8648 75.0703C50.2838 75.0703 13.3367 112.216 13.3367 158.035Z" fill="#E2E2F2"/>
<path d="M107.075 107.081C106.827 106.506 99.9404 90.3179 89.2491 95.0193C87.0682 98.2044 87.2144 103.308 87.5408 106.849C87.6361 107.886 87.7785 108.915 87.9389 109.94C92.4167 119.857 102.501 142.487 102.501 142.487L64.4206 170.369L70.1238 175.035C70.1238 175.035 109.325 159.315 116.36 148.274C123.395 137.235 110.744 115.63 107.075 107.081Z" fill="#FFCAA6"/>
<path d="M107.075 107.081C106.827 106.506 99.9404 90.3179 89.2491 95.0193C87.0682 98.2044 87.2144 103.308 87.5408 106.849C87.6361 107.886 87.7785 108.915 87.9389 109.94C92.4167 119.857 102.501 142.487 102.501 142.487L64.4206 170.369L70.1238 175.035C70.1238 175.035 109.325 159.315 116.36 148.274C123.395 137.235 110.744 115.63 107.075 107.081Z" fill="#EEA47E"/>
<path opacity="0.6" d="M108.117 142.576C105.839 142.161 103.567 141.414 101.524 140.289C102.14 141.672 102.503 142.484 102.503 142.484L83.616 156.313C91.6331 151.458 99.636 146.583 108.117 142.576Z" fill="#F2BC97"/>
<path opacity="0.6" d="M107.075 107.081C106.828 106.506 99.9409 90.3179 89.2496 95.0193C89.1015 95.2364 88.9647 95.4621 88.8364 95.6944C90.9796 94.6362 93.634 94.8182 95.8394 96.0253C98.3052 97.3747 100.098 99.7282 101.699 101.977C103.813 104.949 105.721 108.071 107.4 111.312C110.886 118.041 113.621 125.232 115.245 132.651C116.708 139.339 117.139 146.257 112.975 152.052C114.428 150.755 115.587 149.488 116.36 148.275C123.395 137.235 110.744 115.63 107.075 107.081Z" fill="#F2BC97"/>
<path d="M77.9661 99.1988C77.9661 99.1988 85.4483 100.094 89.7818 107.354L95.2812 91.1351L82.0761 80.3906L77.9661 99.1988Z" fill="#FFCAA6"/>
<path d="M84.0469 87.454C83.4375 87.968 82.3433 88.3273 80.3652 87.8361C76.1609 86.7902 72.3585 86.2242 72.3585 86.2242C72.3585 86.2242 73.4754 90.4609 67.0204 86.4697C67.0204 86.4697 70.8086 82.2511 65.0857 76.4962C59.3599 70.7414 53.7614 72.3392 52.2323 75.547C50.6995 78.7568 54.7075 84.2357 56.7441 85.6381C58.7788 87.0396 53.5416 87.4597 50.2816 85.0057C50.2816 85.0057 40.4751 89.2035 31.8552 82.526C30.2922 81.3189 35.0549 89.5079 42.6918 88.6526C44.1464 88.4923 30.6374 98.8603 19.3075 84.2708C17.7265 82.2368 22.993 94.6312 31.0204 96.2214C33.9965 96.8112 28.4782 98.2079 28.4782 98.2079C28.4782 98.2079 33.8456 101.471 37.1207 105.838C40.1742 109.908 40.5958 114.032 40.8911 119.231C40.9845 120.877 48.4572 115.302 48.7959 115.454C50.824 116.362 50.4844 116.102 52.6445 116.618C57.279 117.726 62.5133 118.248 67.0817 116.606C72.3689 114.706 75.6544 110.213 77.9286 105.27C79.253 102.395 80.2944 99.4179 81.266 96.4072C81.7603 94.873 82.2301 93.3321 82.698 91.7903C82.9781 90.8658 83.3262 88.0637 84.0469 87.454Z" fill="#FFCAA6"/>
<path opacity="0.3" d="M48.7979 115.45C48.897 115.496 48.9866 115.534 49.0743 115.572C49.1469 114.428 48.6989 113.142 48.0773 112.273C46.8953 113.497 46.351 115.154 45.2823 116.468C44.3843 117.572 43.2325 118.418 42.126 119.308C44.2843 118.44 48.5442 115.337 48.7979 115.45Z" fill="#E1B897"/>
<path opacity="0.3" d="M80.3682 87.8362C76.1639 86.7902 72.3615 86.2242 72.3615 86.2242C72.3615 86.2242 73.4783 90.4609 67.0233 86.4698C67.0233 86.4698 70.8116 82.2511 65.0886 76.4962C64.2661 75.6713 63.4473 74.9999 62.6417 74.4604C61.2277 73.9758 59.81 73.9692 58.5478 74.8482C56.0755 76.5692 55.6736 79.6453 57.6857 81.8746C59.2195 83.5719 61.2702 84.7639 63.4275 85.4703C63.7284 85.5689 63.6445 85.988 63.3426 86.0023C61.6918 86.0734 59.9515 86.3465 58.3252 85.9188C57.463 85.6912 56.6443 85.33 55.866 84.8938C56.182 85.201 56.4811 85.4551 56.7461 85.6381C58.7808 87.0396 53.5436 87.4597 50.2836 85.0057C50.2836 85.0057 40.4771 89.2035 31.8573 82.526C30.2942 81.3189 35.0569 89.5079 42.6938 88.6526C44.1484 88.4923 30.6395 98.8603 19.3095 84.2708C17.7286 82.2368 22.995 94.6312 31.0224 96.2214C33.9985 96.8112 28.4803 98.2079 28.4803 98.2079C28.4803 98.2079 28.7359 98.3634 29.1689 98.6527C31.3696 98.1937 33.442 96.9117 35.2465 95.5813C31.2677 95.7103 27.1879 93.3985 24.1835 91.0241C23.9628 90.8506 24.0883 90.4135 24.3996 90.5329C28.6331 92.1686 33.2317 93.1197 37.7746 92.5546C40.945 92.1601 43.9211 91.1265 46.6727 89.6065C45.9633 89.2945 45.2691 88.9494 44.6238 88.5037C44.4644 88.3937 44.4408 88.1292 44.6352 88.0334C48.347 86.2042 52.5626 87.1477 56.3292 88.3084C58.7016 89.0395 61.074 89.7762 63.3879 90.6828C65.4631 91.4954 67.744 92.1885 69.6212 93.425C73.3934 95.9066 75.4083 100.451 76.461 104.71C76.6544 105.488 76.8412 106.324 76.9836 107.182C77.3175 106.556 77.6345 105.918 77.9326 105.27C79.257 102.395 80.2984 99.4179 81.2699 96.4072C81.7642 94.873 82.234 93.3321 82.7019 91.7903C82.982 90.8677 83.3301 88.0656 84.0508 87.4559C83.4405 87.968 82.3463 88.3264 80.3682 87.8362Z" fill="#E1B897"/>
<path opacity="0.3" d="M44.6763 105.089C45.1461 102.05 46.3422 99.3006 47.7656 96.6133C45.3847 98.4851 43.3529 102.386 44.5622 105.209C44.5999 105.17 44.6395 105.129 44.6763 105.089Z" fill="#E1B897"/>
<path d="M62.816 88.799C62.816 88.799 63.2867 88.5515 63.9395 88.1731C64.2668 87.9712 64.6423 87.754 65.0167 87.4866C65.2167 87.3662 65.3912 87.2012 65.5874 87.0675C65.7723 86.912 65.9657 86.766 66.1383 86.5972C66.3091 86.4284 66.4977 86.2748 66.643 86.0861C66.7967 85.9088 66.9609 85.7438 67.0826 85.5503C67.2203 85.374 67.3505 85.1976 67.4467 85.0098C67.558 84.8325 67.6674 84.6647 67.7363 84.4912C67.8174 84.3195 67.8929 84.1631 67.9589 84.0275C68.0098 83.8795 68.057 83.7515 68.0957 83.6501C68.1834 83.4348 68.2353 83.3125 68.2353 83.3125C68.2353 83.3125 68.2485 83.4434 68.2579 83.6776C68.2749 83.9127 68.2702 84.2484 68.1777 84.6429C68.1523 84.8486 68.0843 85.0582 67.9976 85.2772C67.923 85.5001 67.8249 85.7295 67.6835 85.9476C67.5627 86.1762 67.4165 86.3981 67.242 86.6029C67.0816 86.8229 66.8779 87.0059 66.6854 87.2031C66.2798 87.5644 65.8365 87.883 65.3865 88.1058C64.9441 88.3457 64.5017 88.4974 64.1216 88.6065C63.3518 88.817 62.816 88.799 62.816 88.799Z" fill="#D18C59"/>
<path d="M63.1328 84.4285C63.1328 84.4285 62.8998 84.438 62.4857 84.4342C62.0754 84.4086 61.466 84.3725 60.7689 84.1743C60.4152 84.0805 60.0398 83.9458 59.6615 83.76C59.287 83.5646 58.887 83.3456 58.5342 83.0327C57.8032 82.4448 57.1759 81.5752 56.9231 80.5568C56.8052 80.0486 56.7741 79.51 56.874 78.9932C56.9655 78.4755 57.2127 77.9843 57.5627 77.6059C57.9098 77.2276 58.3673 76.9924 58.8069 76.8853C59.2512 76.7886 59.6738 76.8037 60.0416 76.8692C60.785 76.9924 61.3104 77.3186 61.6754 77.5064C62.0263 77.7358 62.2169 77.8752 62.2169 77.8752C62.2169 77.8752 61.9886 77.7984 61.6084 77.6514C61.4122 77.5993 61.1811 77.5092 60.9066 77.4571C60.6359 77.3954 60.3256 77.3537 59.9945 77.3395C59.6615 77.3271 59.3106 77.3717 58.9701 77.4751C58.6418 77.5974 58.3343 77.8051 58.0975 78.0876C57.6268 78.6613 57.5023 79.5479 57.7164 80.3624C57.8079 80.774 57.9805 81.1694 58.2088 81.5259C58.439 81.8815 58.6993 82.2143 59.0078 82.4922C59.6058 83.0592 60.2973 83.4565 60.9246 83.7353C61.5519 84.0065 62.1027 84.1819 62.5046 84.2758C62.9045 84.3687 63.1328 84.4285 63.1328 84.4285Z" fill="#D18C59"/>
<path d="M57.4198 80.8008C57.4198 80.8008 57.4925 80.8823 57.6038 81.0274C57.6604 81.1004 57.7245 81.1962 57.8094 81.2796C57.9 81.364 57.9717 81.4674 58.0858 81.5632C58.1933 81.6608 58.2999 81.7632 58.4339 81.8495C58.5556 81.951 58.7093 82.0098 58.847 82.0961C58.998 82.153 59.1517 82.2089 59.313 82.2364C59.4724 82.2781 59.6441 82.2886 59.812 82.2762C59.9828 82.2848 60.1516 82.2506 60.3195 82.2193C60.4808 82.1606 60.6553 82.1359 60.81 82.0591C61.1289 81.9368 61.4109 81.7575 61.6637 81.6049C61.8986 81.4304 62.1127 81.2863 62.2504 81.1668C62.3948 81.0559 62.4844 80.9904 62.4844 80.9904C62.4844 80.9904 62.4542 81.0928 62.3797 81.2673C62.3136 81.4456 62.1797 81.6769 61.9844 81.9462C61.7797 82.2004 61.5062 82.4905 61.1317 82.7039C60.9562 82.8205 60.7468 82.9116 60.5308 82.9855C60.3044 83.0396 60.0742 83.0946 59.8328 83.1003C59.5951 83.1012 59.3489 83.0737 59.1215 83.0064C58.8876 82.9533 58.6876 82.8291 58.4924 82.72C58.1254 82.463 57.8603 82.1444 57.7103 81.8429C57.6198 81.7054 57.583 81.5432 57.533 81.42C57.4802 81.292 57.4708 81.1829 57.4538 81.089C57.4283 80.9098 57.4198 80.8008 57.4198 80.8008Z" fill="#D18C59"/>
<path d="M32.6979 99.0889C31.2037 95.789 34.5034 91.8226 40.3207 93.5256C41.8375 93.9713 35.3929 93.7077 34.4647 96.2869C33.5365 98.8698 35.5382 99.3487 34.7741 100.075C34.0053 100.806 33.1045 99.9888 32.6979 99.0889Z" fill="#8E5640"/>
<path d="M52.3358 100.274C52.6555 98.2016 52.0141 96.3829 50.9048 96.2094C49.7964 96.0311 48.6305 97.5654 48.3098 99.6373C47.9843 101.707 48.6239 103.529 49.736 103.704C50.8453 103.881 52.0113 102.344 52.3358 100.274Z" fill="#FFB399"/>
<path d="M88.1746 58.755C85.355 43.2077 71.1707 22.2499 42.6266 25.032C14.0881 27.8179 -5.12404 66.5001 7.33596 84.5905C7.33596 84.5905 2.71664 90.6005 11.0167 97.459C19.545 104.511 26.3613 100.372 26.3613 100.372C27.8876 99.603 17.4217 100.573 15.5596 90.5957C15.5596 90.5957 20.5298 98.0754 28.4799 98.2062C28.4799 98.2062 33.9982 96.8095 31.0221 96.2197C22.9947 94.6295 17.7283 82.2361 19.3092 84.2691C30.6401 98.8586 44.1481 88.4906 42.6935 88.6509C35.0566 89.5062 30.2939 81.3172 31.8569 82.5243C40.4768 89.2018 50.2833 85.004 50.2833 85.004C53.5433 87.458 58.7805 87.0379 56.7458 85.6364C54.7092 84.234 50.7012 78.7551 52.234 75.5453C53.7631 72.3375 59.3616 70.7397 65.0874 76.4945C70.8104 82.2484 67.0221 86.468 67.0221 86.468C73.4771 90.4592 72.3602 86.2225 72.3602 86.2225C72.3602 86.2225 76.1626 86.7895 80.3669 87.8345C84.5702 88.8794 84.8079 86.0954 84.8079 86.0954C84.8079 86.0954 91.0026 74.3041 88.1746 58.755Z" fill="#8E5640"/>
<path d="M10.032 81.7601C9.60374 82.1346 9.19906 82.5405 8.82552 82.9861C8.73496 83.0933 8.53027 83.0848 8.44348 82.9795C5.83244 79.8181 5.08157 75.4154 4.95234 71.4186C4.80236 66.7609 5.53342 62.3535 6.98893 57.9395C7.87185 55.2664 8.75761 52.5545 9.75561 49.9241C10.4574 48.0788 11.4488 46.3843 12.3516 44.6367C3.33082 57.7792 0.340565 74.4293 7.33699 84.5877C7.33699 84.5877 3.44684 89.6589 9.24245 95.7996C8.84816 94.9917 8.52555 94.1468 8.30199 93.2621C7.25116 89.0994 8.22087 85.333 10.032 81.7601Z" fill="#8E5640"/>
<path d="M50.5962 7.7265C40.22 15.466 42.6282 25.0299 42.6282 25.0299C56.5739 23.672 67.0822 27.9846 74.5248 34.5606C78.032 30.6747 79.2894 24.6885 77.0953 17.2913C73.8419 6.31932 60.9715 -0.0120382 50.5962 7.7265Z" fill="#7F4938"/>
<path opacity="0.5" d="M52.0629 6.74332C53.0458 6.47591 54.0495 6.27584 55.0683 6.22842C57.3086 6.12412 59.5555 6.61151 61.444 7.86887C66.0397 10.9269 68.7621 16.6381 69.3158 22.0345C69.4422 23.2672 69.9941 26.3424 68.4423 26.9786C67.7547 27.2621 66.8217 26.7757 66.2237 26.4723C65.0116 25.855 63.9022 25.1997 62.6014 24.7654C59.0263 23.5716 55.0362 22.6101 51.246 22.8623C48.2445 23.0596 45.3872 23.8969 42.6177 25.0035C42.6215 25.0224 42.6243 25.03 42.6243 25.03C56.57 23.6721 67.0783 27.9847 74.5209 34.5607C78.0281 30.6748 79.2855 24.6886 77.0914 17.2915C73.9908 6.8315 62.1515 0.598761 52.0629 6.74332Z" fill="#7F4938"/>
<g opacity="0.5">
<path d="M42.6279 25.0279C31.298 26.1355 21.4415 32.9039 14.4498 41.7898C26.4117 28.4065 44.0297 24.3253 62.4843 35.1645C80.9522 46.0085 72.2399 80.0606 69.9524 75.0653C67.8413 70.4502 58.3216 62.2556 50.9723 67.0973C43.6231 71.9361 51.3902 81.0922 48.5113 80.0691C45.6314 79.045 42.0289 75.235 42.0289 75.235C45.4644 81.7465 49.3489 82.452 47.4774 83.1129C34.4298 87.69 27.4022 73.7207 27.6418 75.894C28.9728 87.9641 38.6897 89.0166 34.6948 89.651C23.7932 91.3749 17.4995 80.2635 17.4995 80.2635C16.2873 91.555 26.839 96.0023 23.9148 95.5007C17.6466 94.4282 13.8027 85.7149 13.8027 85.7149C13.8027 85.7149 11.4114 91.7656 18.5409 98.2666C20.8321 100.361 14.4158 99.7582 9.97102 94.2566C5.52338 88.7521 7.33733 84.5874 7.33733 84.5874C7.33733 84.5874 2.71802 90.5973 11.0181 97.4559C19.5464 104.508 26.3627 100.369 26.3627 100.369C27.8889 99.5999 17.4231 100.57 15.561 90.5926C15.561 90.5926 20.5312 98.0723 28.4813 98.2031C28.4813 98.2031 33.9996 96.8064 31.0235 96.2166C22.996 94.6264 17.7296 82.233 19.3106 84.266C30.6415 98.8555 44.1495 88.4875 42.6949 88.6478C35.058 89.5031 30.2953 81.3141 31.8583 82.5212C40.4782 89.1987 50.2847 85.0009 50.2847 85.0009C53.5447 87.4549 58.7819 87.0348 56.7472 85.6333C54.7106 84.2309 50.7025 78.752 52.2354 75.5422C53.7645 72.3343 59.363 70.7366 65.0888 76.4914C70.8117 82.2453 67.0235 86.4649 67.0235 86.4649C73.4784 90.456 72.3616 86.2193 72.3616 86.2193C72.3616 86.2193 76.164 86.7864 80.3683 87.8313C84.5716 88.8763 84.8093 86.0923 84.8093 86.0923C84.8093 86.0923 91.003 74.2991 88.174 58.75C85.3564 43.2046 71.1721 22.2467 42.6279 25.0279Z" fill="#8E5640"/>
</g>
<path d="M69.1107 150.031C67.4505 153.419 68.2862 155.954 67.391 159.958C66.1459 165.523 57.2176 215.622 57.5911 220.566C57.5911 220.566 59.9598 221.77 59.6532 224.912C59.5881 225.594 61.7049 225.947 63.6952 226.07C65.6884 226.193 67.2769 223.778 67.2769 223.778C67.2769 223.778 73.0801 203.845 78.254 190.047C81.7357 180.758 84.942 170.906 85.7344 164.343C80.4538 160.314 73.514 154.938 69.1107 150.031Z" fill="#2C2C2C"/>
<path d="M69.1107 150.031C67.4505 153.419 68.2862 155.954 67.391 159.958C66.1459 165.523 57.2176 215.622 57.5911 220.566C57.5911 220.566 59.9598 221.77 59.6532 224.912C59.5881 225.594 61.7049 225.947 63.6952 226.07C65.6884 226.193 67.2769 223.778 67.2769 223.778C67.2769 223.778 73.0801 203.845 78.254 190.047C81.7357 180.758 84.942 170.906 85.7344 164.343C80.4538 160.314 73.514 154.938 69.1107 150.031Z" fill="#4A4A4A"/>
<path d="M69.5876 168.267C70.097 165.179 70.4413 162.17 70.1338 159.041C69.9744 157.43 69.7319 155.83 69.4659 154.234C69.3518 155.806 69.3414 157.454 68.8886 159.474C68.0406 163.263 62.1176 196.088 59.5066 212.858C61.0734 206.856 68.5792 174.381 69.5876 168.267Z" fill="#4A4A4A"/>
<path opacity="0.5" d="M85.7344 164.343C81.183 160.872 75.4043 156.402 71.0737 152.09C71.7434 153.546 72.398 155.011 73.0367 156.483C74.3799 159.584 76.0533 162.559 77.2626 165.717C78.5163 168.987 78.8908 172.174 78.4106 175.653C77.9324 179.118 76.8202 182.512 75.8401 185.86C73.5913 193.553 71.0171 201.13 68.5004 208.735C67.2599 212.488 66.1874 216.287 64.9979 220.055C64.3763 222.026 63.7216 224.015 63.2735 226.042C63.4141 226.052 63.5546 226.062 63.6943 226.071C65.6874 226.194 67.2759 223.779 67.2759 223.779C67.2759 223.779 73.0791 203.846 78.2531 190.048C81.7348 180.758 84.942 170.905 85.7344 164.343Z" fill="#4A4A4A"/>
<path d="M47.0828 235.003C57.5269 236.94 64.2866 236.244 67.8334 235.476C68.4135 233.024 69.071 228.505 69.2417 226.828C69.4577 224.726 67.4278 223.253 67.4278 223.253C67.4278 223.253 65.6855 226.193 63.6923 226.07C61.702 225.946 59.5852 225.594 59.6503 224.912C59.9569 221.769 57.5882 220.565 57.5882 220.565C57.5882 220.565 54.5282 219.011 51.0474 222.641C49.6108 224.14 45.4593 223.591 41.2419 223.276C37.3394 222.983 30.743 219.896 28.3819 227.271C30.5788 229.331 35.8311 232.918 47.0828 235.003Z" fill="#594C8B"/>
<path d="M47.0824 235.001C35.8307 232.916 30.5784 229.329 28.3815 227.27C28.1919 227.865 28.0249 228.519 27.8929 229.26C27.6769 230.472 36.1165 236.45 50.2764 238.336C64.4362 240.222 66.7765 238.22 67.4094 236.871C67.5387 236.598 67.683 236.1 67.832 235.475C64.2862 236.243 57.5265 236.939 47.0824 235.001Z" fill="#CECECE"/>
<path d="M137.916 145.986C137.916 145.986 133.144 146.79 126.175 145.799C106.498 143.001 68.8928 137.928 68.5693 153.247L85.0204 168.491C85.0204 168.491 141.256 176.614 141.59 177.456C141.922 178.298 137.916 145.986 137.916 145.986Z" fill="#4A4A4A"/>
<path opacity="0.5" d="M74.5836 158.396C81.8282 161.983 89.7103 163.883 97.6548 165.142C101.6 165.767 105.562 166.264 109.524 166.761C112.917 167.187 116.249 167.77 119.619 168.316C121.434 168.611 125.007 169.372 126.324 167.526C127.004 166.575 126.628 165.593 126.195 164.609C125.428 162.869 124.664 161.145 123.749 159.476C122.138 156.543 120.373 153.628 118.435 150.875C119.035 151.658 119.626 152.448 120.206 153.246C123.122 157.25 126.028 161.437 128.21 165.901C129.459 168.455 131.191 173.397 134.756 173.131C136.913 172.97 138.963 172.288 141.006 171.58C141.425 175.228 141.685 177.697 141.59 177.456C141.256 176.614 85.0203 168.49 85.0203 168.49L73.5696 157.881C73.9054 158.054 74.2431 158.229 74.5836 158.396Z" fill="#4A4A4A"/>
<path d="M156.565 131.735C152.787 129.303 148.466 125.604 146.446 123.816L126.293 147.774C129.201 149.18 134.42 152.34 137.071 157.854C149.311 161.287 159.012 149.805 156.565 131.735Z" fill="#F2BC97"/>
<path d="M133.909 146.813C136.65 144.285 139.277 141.615 141.687 138.767C144.274 135.709 146.643 132.479 148.862 129.143C149.326 128.447 149.781 127.742 150.219 127.028C148.676 125.767 147.334 124.606 146.443 123.816L126.29 147.774C127.319 148.27 128.639 148.994 130.031 149.958C131.416 149.022 132.704 147.924 133.909 146.813Z" fill="#EEA47E"/>
<path d="M140.746 136.188C143.86 131.731 146.642 127.053 149.109 122.208C144.272 118.392 137.728 112.903 130.455 105.931C115.367 91.458 95.932 84.4961 88.4894 92.7913C84.4634 97.2793 87.1565 106.187 90.4892 117.455C95.3453 133.878 100.465 138.486 112.986 142.976C118.48 144.945 123.481 147.82 127.284 150.351C132.671 146.679 137.043 141.486 140.746 136.188Z" fill="#7B6EB9"/>
<path d="M140.578 136.421C126.606 137.904 115.752 127.991 116.738 126.668C119.602 122.839 124.725 109.341 109.221 96.7578C97.1375 86.9492 89.2213 90.7137 86.5725 97.5325C86.0273 102.432 88.0837 109.324 90.4882 117.456C95.3442 133.879 100.464 138.487 112.985 142.977C118.479 144.946 123.48 147.821 127.283 150.352C132.59 146.735 136.91 141.641 140.578 136.421Z" fill="#7B6EB9"/>
<path d="M116.739 126.667C119.603 122.838 124.726 109.34 109.222 96.757C106.577 94.6093 104.131 93.113 101.897 92.1562C100.59 91.7532 99.2486 91.4801 97.894 91.5342C95.1141 91.6451 92.271 93.003 90.7249 95.3963C87.2621 100.759 89.5477 108.394 91.972 113.742C94.5189 119.357 98.6958 125.179 104.821 127.111C107.4 127.924 110.856 127.094 112.782 129.395C113.813 130.626 114.528 132.049 115.265 133.468C116.138 135.147 117.029 136.812 117.803 138.541C118.957 141.113 119.893 143.733 120.686 146.412C123.131 147.706 125.362 149.073 127.284 150.352C132.59 146.736 136.911 141.64 140.578 136.422C126.607 137.905 115.752 127.99 116.739 126.667Z" fill="#7B6EB9"/>
<path d="M105.95 95.3824C93.6325 88.4991 88.7094 95.6375 90.1526 105.249C91.894 113.594 100.928 126.207 110.982 124.029C110.979 124.023 110.972 123.999 110.972 123.999C123.221 119.015 118.838 102.588 105.95 95.3824Z" fill="#EEA47E"/>
<path d="M209.319 204.506C208.701 203.35 207.904 201.755 206.92 200.323C202.546 201.821 193.942 204.528 182.858 206.824C170.857 209.311 167.21 205.664 156.674 208.606C153.556 209.475 161.029 196.824 163.259 175.584C165.106 157.993 168.621 149.716 156.674 131.75C156.674 131.75 146.471 142.995 128.587 144.032C128.587 144.032 135.911 231.489 147.115 231.299C154.847 231.169 199.297 214.775 210.984 208.506C210.522 206.979 209.868 205.531 209.319 204.506Z" fill="#4A4A4A"/>
<path opacity="0.5" d="M138.991 144.141C140.735 143.674 142.509 143.228 144.225 142.664C146.12 142.043 147.957 141.231 149.883 140.704C152.299 140.041 154.896 139.75 157.018 141.346C159.17 142.966 160.279 146.293 160.833 148.822C162.237 155.242 161.268 161.939 160.114 168.321C158.652 176.412 156.904 184.44 155.258 192.496C154.344 196.963 153.427 201.452 153.02 206C152.757 208.948 151.987 212.462 152.981 215.342C154.216 214.555 155.013 213.134 156.165 212.22C157.184 211.413 158.285 210.757 159.487 210.263C162.598 208.982 165.926 208.362 169.242 207.912C169.904 207.822 170.569 207.742 171.234 207.666C166.696 207.427 162.881 206.875 156.676 208.606C153.558 209.475 161.032 196.824 163.262 175.584C165.109 157.993 168.623 149.716 156.676 131.75C156.676 131.75 146.474 142.995 128.59 144.032C128.59 144.032 128.596 144.105 128.607 144.237C131.667 145.872 135.749 145.007 138.991 144.141Z" fill="#4A4A4A"/>
<path opacity="0.5" d="M138.789 170.542C141.782 167.421 145.521 165.284 149.031 162.832C143.645 164.39 138.551 167.29 134.442 171.102C133.507 171.968 132.468 172.752 131.493 171.677C132.833 182.643 134.605 195.167 136.744 205.902C136.035 199.206 135.778 192.477 135.369 185.757C135.178 182.607 134.809 179.05 135.607 175.956C136.142 173.886 137.323 172.072 138.789 170.542Z" fill="#4A4A4A"/>
<path d="M221.094 210.78C216.972 201.982 212.87 197.329 210.423 195.102C208.31 195.971 204.635 197.884 203.311 198.645C201.651 199.601 201.774 202.252 201.774 202.252C201.774 202.252 204.318 200.461 205.284 202.008C206.25 203.553 207.533 206.479 206.997 206.794C204.519 208.235 204.894 210.633 204.894 210.633C204.894 210.633 205.373 213.733 209.896 214.395C211.759 214.671 213.558 218.047 215.565 221.352C217.426 224.406 218.657 230.949 225.335 228.788C225.681 226.06 225.532 220.249 221.094 210.78Z" fill="#594C8B"/>
<path d="M221.095 210.78C225.535 220.249 225.683 226.06 225.336 228.787C225.875 228.612 226.446 228.389 227.059 228.092C228.064 227.611 227.983 218.161 221.852 206.631C215.721 195.104 213.005 194.429 211.677 194.673C211.406 194.72 210.964 194.88 210.425 195.102C212.872 197.33 216.973 201.982 221.095 210.78Z" fill="#D8D8D8"/>
<path d="M42.8741 97.3126C42.1902 98.0826 41.6356 98.9171 41.1875 99.8425C40.8026 100.64 40.7206 101.408 40.5583 102.214C40.0584 100.317 40.1282 98.2599 40.448 96.3464C40.4621 96.2677 40.3857 96.2136 40.3527 96.3075C39.6264 98.3529 39.7792 100.998 40.4178 103.045C40.4734 103.226 40.6583 103.105 40.6942 102.981C40.9309 102.143 40.9621 101.304 41.2913 100.478C41.7148 99.4187 42.443 98.588 43.0401 97.6331C43.1213 97.5089 43.0543 97.1107 42.8741 97.3126Z" fill="#8E5640"/>
<path d="M68.4904 106.941C67.1057 106.941 65.4342 108.418 64.7239 109.525C64.3031 110.182 64.1098 111.049 64.0428 111.82C64.022 112.055 64.0494 112.339 64.0947 112.642C64.0909 112.71 64.0834 112.777 64.0852 112.844C64.0881 112.931 64.1164 112.971 64.1494 112.983C64.3305 114.027 64.6022 115.215 63.9551 115.705C63.8824 115.762 63.9117 115.962 63.9994 115.876L64.1541 115.721C64.1654 115.711 64.1701 115.669 64.1466 115.673C65.2012 115.522 64.4013 113.494 64.306 112.833C64.3098 112.818 64.3145 112.803 64.3154 112.787C64.4107 111.481 65.6992 110.221 66.4944 109.284C67.1066 108.562 68.1122 108.139 68.547 107.322C68.5866 107.249 68.6508 106.94 68.4904 106.941Z" fill="#D18C59"/>
<path d="M65.2044 110.346C64.8714 110.792 64.5129 111.277 64.2931 111.805C64.396 110.676 64.8648 109.402 65.7543 108.884C66.4231 108.493 67.1381 107.717 67.9531 107.484C67.64 107.75 67.2475 107.969 66.9683 108.22C66.3005 108.826 65.742 109.626 65.2044 110.346Z" fill="white"/>
<path d="M144.554 167.047C144.554 167.047 139.035 169.783 138.075 176.132C137.116 182.48 137.942 201.752 139.035 210.14C140.128 218.53 144.792 228.861 144.554 227.436C144.313 226.011 140.712 216.219 139.667 204.163C137.7 181.443 144.554 167.047 144.554 167.047Z" fill="#4A4A4A"/>
<path opacity="0.5" d="M129.008 167.404C128.772 166.708 128.555 166.005 128.31 165.375C127.591 163.527 126.989 161.643 125.987 159.921C125.123 158.438 124.057 157.057 122.958 155.743C122.415 155.093 121.83 154.51 121.235 153.945C123.44 158.646 126.073 163.125 129.008 167.404Z" fill="#4A4A4A"/>
<path d="M94.1431 99.0651C94.1431 99.0651 90.7058 104.23 96.7778 112.13C103.023 120.258 118.977 141.268 118.977 141.268L88.2523 177.168L94.8657 180.399C94.8657 180.399 129.449 156.081 133.784 143.716C138.121 131.349 120.888 113.23 115.369 105.749C114.983 105.226 103.752 89.8967 94.1431 99.0651Z" fill="#F2BC97"/>
<path opacity="0.6" d="M124.461 140.066C122.149 140.185 119.767 139.98 117.521 139.355C118.435 140.56 118.974 141.268 118.974 141.268L103.736 159.073C110.435 152.504 117.117 145.915 124.461 140.066Z" fill="#F2BC97"/>
<path opacity="0.6" d="M115.369 105.749C114.983 105.226 103.751 89.8967 94.1425 99.0651C94.1425 99.0651 93.7387 99.673 93.4529 100.79C95.0584 97.7547 98.6722 96.6765 101.916 97.5698C104.624 98.317 106.905 100.197 108.976 102.018C111.709 104.425 114.277 107.025 116.649 109.793C121.574 115.542 125.874 121.912 129.143 128.762C132.09 134.935 134.084 141.571 131.349 148.17C132.469 146.573 133.309 145.072 133.784 143.716C138.12 131.349 120.888 113.23 115.369 105.749Z" fill="#F2BC97"/>
<path d="M68.1181 186.805C70.2754 184.814 72.4072 182.774 74.6193 180.854C76.5096 179.213 79.0292 178.002 80.5913 176.031C80.7016 175.892 80.6403 175.688 80.4847 175.616C80.4667 175.608 80.4554 175.602 80.4403 175.596C80.1036 175.155 79.2839 175.246 78.6301 175.13C77.8906 174.997 77.1605 174.761 76.4587 174.493C75.355 174.073 74.2976 173.581 73.9042 172.395C73.6363 171.588 74.3136 171.087 75.0211 171.088C76.8851 171.093 78.6849 171.795 80.5847 171.787C82.5533 171.779 84.4843 171.287 86.4076 170.925C87.2038 170.775 87.982 170.607 88.7602 170.512C90.0629 170.659 91.2864 170.784 92.5258 171.466C93.9917 172.27 95.3935 173.51 96.0585 175.086C97.4527 178.386 96.1641 181.999 94.3926 184.888C92.4042 188.134 89.7894 190.886 86.8368 193.235C84.8814 194.491 82.8948 196.042 80.7101 196.522C80.4384 196.582 79.9262 196.326 79.9649 195.987C80.1026 194.784 81.1997 193.869 81.9572 193.012C82.8184 192.039 83.7249 191.108 84.5974 190.148C82.9816 191.347 81.3252 192.494 79.6499 193.608C78.4198 194.425 77.1973 195.277 75.8352 195.858C75.0494 196.194 74.0203 196.559 73.1987 196.198C71.446 195.429 75.388 192.348 75.8946 191.887C78.0095 189.971 80.8261 188.533 82.8325 186.455C80.3639 187.659 77.9925 189.043 75.6493 190.479C74.3212 191.293 71.3394 193.958 69.6981 192.53C69.3028 192.185 69.4283 191.682 69.6198 191.282C69.8405 190.821 70.4527 190.415 70.7876 190.07C71.1819 189.664 78.9914 184.3 79.3933 183.901C79.1339 183.598 71.1036 187.83 71.0527 187.782C69.8386 188.584 67.9483 189.517 67.8615 187.781C67.8426 187.476 67.9492 187.142 68.1181 186.805Z" fill="#F2BC97"/>
</svg>
