<svg width="1156" height="960" viewBox="0 0 1156 960" fill="none" xmlns="http://www.w3.org/2000/svg">
<g id="tab-1">
<g id="Rectangle 173" filter="url(#filter0_d_2096_1347)">
<rect x="258" y="4" width="886" height="144" rx="15" fill="#F1F1F4"/>
</g>
<g id="Rectangle 175" filter="url(#filter1_d_2096_1347)">
<path d="M4 19C4 10.7157 10.7157 4 19 4H260.727C264.741 4 268.587 5.6085 271.405 8.4658L329.315 67.1691C335.192 73.1258 335.058 82.7387 329.019 88.53L271.352 143.827C268.559 146.505 264.84 148 260.97 148H19C10.7157 148 4 141.284 4 133V19Z" fill="url(#paint0_linear_2096_1347)"/>
</g>
<text id="Reflexos e movimenta&#195;&#167;&#195;&#181;es" fill="#292929" xml:space="preserve" style="white-space: pre" font-family="Open Sans" font-size="20" font-weight="600" letter-spacing="0em"><tspan x="97.8398" y="69.7588">Reflexos e </tspan><tspan x="70.0957" y="97.7588">movimenta&#xe7;&#xf5;es</tspan></text>
<text id="Reflexos: &#226;&#128;&#156;suc&#195;&#167;&#195;&#163;o&#226;&#128;&#157;, &#226;&#128;&#156;fuga-asfixia&#226;&#128;&#157; (se colocado em dec&#195;&#186;bito ventral, libera as vias a&#195;&#169;reas), sustenta&#195;&#167;&#195;&#163;o cef&#195;&#161;lica, ou seja, controle cervical (sustentar a cabe&#195;&#167;a deitada de barriga para baixo). Movimenta&#195;&#167;&#195;&#163;o predominantemente reflexa e assim&#195;&#169;trica." fill="#292929" xml:space="preserve" style="white-space: pre" font-family="Open Sans" font-size="18" letter-spacing="0em"><tspan x="368" y="57.4829">Reflexos: &#x201c;suc&#xe7;&#xe3;o&#x201d;, &#x201c;fuga-asfixia&#x201d; (se colocado em dec&#xfa;bito ventral, libera as vias a&#xe9;reas), </tspan><tspan x="368" y="82.4829">sustenta&#xe7;&#xe3;o cef&#xe1;lica, ou seja, controle cervical (sustentar a cabe&#xe7;a deitada de barriga </tspan><tspan x="368" y="107.483">para baixo). Movimenta&#xe7;&#xe3;o predominantemente reflexa e assim&#xe9;trica.</tspan></text>
<g id="Rectangle 180" filter="url(#filter2_d_2096_1347)">
<rect x="258" y="164" width="886" height="144" rx="15" fill="#F1F1F4"/>
</g>
<g id="Rectangle 181" filter="url(#filter3_d_2096_1347)">
<path d="M4 179C4 170.716 10.7157 164 19 164H260.727C264.741 164 268.587 165.608 271.405 168.466L329.315 227.169C335.192 233.126 335.058 242.739 329.019 248.53L271.352 303.827C268.559 306.505 264.84 308 260.97 308H19C10.7157 308 4 301.284 4 293V179Z" fill="url(#paint1_linear_2096_1347)"/>
</g>
<text id="Mobilidade" fill="#292929" xml:space="preserve" style="white-space: pre" font-family="Open Sans" font-size="20" font-weight="600" letter-spacing="0em"><tspan x="93.0449" y="243.759">Mobilidade</tspan></text>
<text id="Movimenta&#195;&#167;&#195;&#163;o dos quatro membros devem ser ativos, sendo que os membros superiores se movimentam em bloco e as m&#195;&#163;os podem se abrir (os polegares s&#195;&#163;o menos m&#195;&#179;veis, permanecendo contidos na m&#195;&#163;o). Os membros inferiores s&#195;&#163;o mais m&#195;&#179;veis, alternando flex&#195;&#181;es e extens&#195;&#181;es, movendo-os contra a a&#195;&#167;&#195;&#163;o da gravidade." fill="#292929" xml:space="preserve" style="white-space: pre" font-family="Open Sans" font-size="18" letter-spacing="0em"><tspan x="368" y="205.483">Movimenta&#xe7;&#xe3;o dos quatro membros devem ser ativos, sendo que os membros </tspan><tspan x="368" y="230.483">superiores se movimentam em bloco e as m&#xe3;os podem se abrir (os polegares s&#xe3;o </tspan><tspan x="368" y="255.483">menos m&#xf3;veis, permanecendo contidos na m&#xe3;o). Os membros inferiores s&#xe3;o mais </tspan><tspan x="368" y="280.483">m&#xf3;veis, alternando flex&#xf5;es e extens&#xf5;es, movendo-os contra a a&#xe7;&#xe3;o da gravidade.</tspan></text>
<g id="Rectangle 182" filter="url(#filter4_d_2096_1347)">
<rect x="258" y="324" width="886" height="144" rx="15" fill="#F1F1F4"/>
</g>
<g id="Rectangle 183" filter="url(#filter5_d_2096_1347)">
<path d="M4 339C4 330.716 10.7157 324 19 324H260.727C264.741 324 268.587 325.608 271.405 328.466L329.315 387.169C335.192 393.126 335.058 402.739 329.019 408.53L271.352 463.827C268.559 466.505 264.84 468 260.97 468H19C10.7157 468 4 461.284 4 453V339Z" fill="url(#paint2_linear_2096_1347)"/>
</g>
<text id="Apoio" fill="#292929" xml:space="preserve" style="white-space: pre" font-family="Open Sans" font-size="20" font-weight="600" letter-spacing="0em"><tspan x="119.158" y="403.759">Apoio</tspan></text>
<text id="Quando colocado de barriga para baixo come&#195;&#167;a a se apoiar com as m&#195;&#163;os e, at&#195;&#169; o final do primeiro trimestre, apoia-se nos antebra&#195;&#167;os, erguendo a cabe&#195;&#167;a a 45&#194;&#176; quando em dec&#195;&#186;bito ventral e realiza bem a contra&#195;&#167;&#195;&#163;o dos m&#195;&#186;sculos abdominais." fill="#292929" xml:space="preserve" style="white-space: pre" font-family="Open Sans" font-size="18" letter-spacing="0em"><tspan x="368" y="377.483">Quando colocado de barriga para baixo come&#xe7;a a se apoiar com as m&#xe3;os e, at&#xe9; o final </tspan><tspan x="368" y="402.483">do primeiro trimestre, apoia-se nos antebra&#xe7;os, erguendo a cabe&#xe7;a a 45&#xb0; quando em </tspan><tspan x="368" y="427.483">dec&#xfa;bito ventral e realiza bem a contra&#xe7;&#xe3;o dos m&#xfa;sculos abdominais.</tspan></text>
<g id="Rectangle 184" filter="url(#filter6_d_2096_1347)">
<rect x="258" y="484" width="886" height="144" rx="15" fill="#F1F1F4"/>
</g>
<g id="Rectangle 185" filter="url(#filter7_d_2096_1347)">
<path d="M4 499C4 490.716 10.7157 484 19 484H260.727C264.741 484 268.587 485.608 271.405 488.466L329.315 547.169C335.192 553.126 335.058 562.739 329.019 568.53L271.352 623.827C268.559 626.505 264.84 628 260.97 628H19C10.7157 628 4 621.284 4 613V499Z" fill="url(#paint3_linear_2096_1347)"/>
</g>
<text id="Amplitude da movimenta&#195;&#167;&#195;&#163;o" fill="#292929" xml:space="preserve" style="white-space: pre" font-family="Open Sans" font-size="20" font-weight="600" letter-spacing="0em"><tspan x="82.0977" y="549.759">Amplitude da </tspan><tspan x="74.9297" y="577.759">movimenta&#xe7;&#xe3;o</tspan></text>
<text id="Em dec&#195;&#186;bito dorsal, apresenta um aumento da amplitude e da movimenta&#195;&#167;&#195;&#163;o de membros superiores ao visualizar objetos." fill="#292929" xml:space="preserve" style="white-space: pre" font-family="Open Sans" font-size="18" letter-spacing="0em"><tspan x="368" y="547.483">Em dec&#xfa;bito dorsal, apresenta um aumento da amplitude e da movimenta&#xe7;&#xe3;o de </tspan><tspan x="368" y="572.483">membros superiores ao visualizar objetos.</tspan></text>
<g id="Rectangle 186" filter="url(#filter8_d_2096_1347)">
<rect x="258" y="644" width="886" height="144" rx="15" fill="#F1F1F4"/>
</g>
<g id="Rectangle 188" filter="url(#filter9_d_2096_1347)">
<rect x="4" y="804" width="563" height="144" rx="15" fill="#E1A3D8"/>
</g>
<g id="Rectangle 189" filter="url(#filter10_d_2096_1347)">
<rect x="581" y="804" width="563" height="144" rx="15" fill="#E1A3D8"/>
</g>
<g id="Rectangle 187" filter="url(#filter11_d_2096_1347)">
<path d="M4 659C4 650.716 10.7157 644 19 644H260.727C264.741 644 268.587 645.608 271.405 648.466L329.315 707.169C335.192 713.126 335.058 722.739 329.019 728.53L271.352 783.827C268.559 786.505 264.84 788 260.97 788H19C10.7157 788 4 781.284 4 773V659Z" fill="url(#paint4_linear_2096_1347)"/>
</g>
<text id="No final do primeiro trimestre, tenta levar objetos &#195;&#160; boca, mas ainda n&#195;&#163;o coordena a soltura. Os movimentos s&#195;&#163;o mais coordenados, menos bruscos e com amplitude melhor modulada." fill="#292929" xml:space="preserve" style="white-space: pre" font-family="Open Sans" font-size="18" letter-spacing="0em"><tspan x="368" y="697.483">No final do primeiro trimestre, tenta levar objetos &#xe0; boca, mas ainda n&#xe3;o coordena a </tspan><tspan x="368" y="722.483">soltura. Os movimentos s&#xe3;o mais coordenados, menos bruscos e com amplitude melhor </tspan><tspan x="368" y="747.483">modulada.</tspan></text>
<g id="Frame 703">
<g id="clarity:note-line" clip-path="url(#clip0_2096_1347)">
<path id="Vector" d="M160.333 718H131V688.667H148.626L151.293 686H131C130.292 686 129.614 686.281 129.114 686.781C128.614 687.281 128.333 687.959 128.333 688.667V718C128.333 718.707 128.614 719.386 129.114 719.886C129.614 720.386 130.292 720.667 131 720.667H160.333C161.04 720.667 161.719 720.386 162.219 719.886C162.719 719.386 163 718.707 163 718V698L160.333 700.667V718Z" fill="#434556"/>
<path id="Vector_2" d="M167.706 685.786L163.213 681.293C163.014 681.093 162.777 680.934 162.516 680.826C162.255 680.718 161.975 680.662 161.693 680.662C161.411 680.662 161.131 680.718 160.87 680.826C160.609 680.934 160.372 681.093 160.173 681.293L141.893 699.68L140.413 706.093C140.35 706.404 140.357 706.725 140.432 707.033C140.508 707.341 140.651 707.628 140.852 707.874C141.052 708.12 141.304 708.319 141.59 708.456C141.876 708.593 142.189 708.665 142.506 708.666C142.67 708.684 142.836 708.684 143 708.666L149.466 707.24L167.706 688.826C167.906 688.627 168.065 688.39 168.173 688.129C168.281 687.868 168.337 687.589 168.337 687.306C168.337 687.024 168.281 686.744 168.173 686.483C168.065 686.223 167.906 685.986 167.706 685.786ZM148.08 704.773L143.2 705.853L144.333 701.013L158.093 687.16L161.853 690.92L148.08 704.773ZM163.36 689.413L159.6 685.653L161.666 683.546L165.453 687.333L163.36 689.413Z" fill="#434556"/>
</g>
<text id="Lembrete!" fill="#292929" xml:space="preserve" style="white-space: pre" font-family="Open Sans" font-size="20" font-weight="600" letter-spacing="0em"><tspan x="97.4785" y="747.759">Lembrete!</tspan></text>
</g>
<text id="Vale lembrar que o t&#195;&#180;nus flexor aumenta com frio, desconforto e refluxo gastroesof&#195;&#161;gico, bastante frequente nessa fase da vida." fill="black" xml:space="preserve" style="white-space: pre" font-family="Open Sans" font-size="18" font-weight="600" letter-spacing="0em"><tspan x="251" y="845.483">Vale lembrar que o t&#xf4;nus flexor </tspan><tspan x="251" y="870.483">aumenta com frio, desconforto e </tspan><tspan x="251" y="895.483">refluxo gastroesof&#xe1;gico, bastante </tspan><tspan x="251" y="920.483">frequente nessa fase da vida.</tspan></text>
<g id="Vector_3" filter="url(#filter12_d_2096_1347)">
<path d="M190.288 877.133C187.875 877.133 185.542 877.472 183.327 878.093C186.74 873.737 188.78 868.256 188.78 862.296C188.78 848.12 177.269 836.628 163.068 836.628C156.458 836.628 150.431 839.121 145.876 843.214C145.959 842.376 146.003 841.527 146.003 840.668C146.003 826.492 134.491 815 120.291 815C106.091 815 94.5793 826.492 94.5793 840.668C94.5793 841.563 94.6256 842.446 94.7151 843.317C90.6279 840.583 85.7129 838.987 80.4236 838.987C66.2234 838.987 54.7118 850.479 54.7118 864.655C54.7118 868.1 55.3963 871.384 56.6291 874.385C55.9953 874.338 55.3574 874.307 54.7118 874.307C40.5115 874.307 29 885.799 29 899.975C29 914.151 40.5115 925.643 54.7118 925.643C61.9636 925.643 68.5096 922.641 73.184 917.82C77.7157 925.129 85.8161 930 95.0587 930C101.782 930 107.9 927.421 112.482 923.203C116.428 925.665 121.088 927.093 126.085 927.093C130.793 927.093 135.202 925.823 138.997 923.618C143.525 927.588 149.456 930 155.955 930C162.973 930 169.332 927.19 173.971 922.638C178.41 926.282 184.093 928.47 190.288 928.47C204.488 928.47 216 916.978 216 902.801C216 888.625 204.488 877.133 190.288 877.133Z" fill="#F8EBF6"/>
</g>
<g id="bebe-01 1" clip-path="url(#clip1_2096_1347)">
<g id="b7">
<path id="Vector_4" d="M187.398 891.014C190.245 887.34 195.367 893.254 198.001 895.589C201.101 898.336 201.003 902.554 197.311 906.364C194.843 908.912 190.095 905.299 189.077 899.637C188.643 897.223 185.293 893.731 187.398 891.014Z" fill="#5583A5"/>
<path id="Vector_5" d="M191.826 901.997C191.826 901.997 191.29 902.128 190.335 902.342C190.146 902.385 189.938 902.43 189.715 902.478C188.377 902.77 186.469 903.163 184.188 903.575C178.096 904.68 169.351 905.913 161.736 905.648C155.308 905.427 149.684 904.139 147.145 900.806C139.344 890.57 154.947 874.858 160.62 871.525C160.62 871.525 162.85 869.323 165.973 867.302C173.134 869.506 178.873 874.936 179.363 882.809C177.472 885.713 174.729 888.57 171.022 891.046C173.526 890.513 175.878 890.463 178.24 890.672C180.55 890.877 182.866 890.758 185.339 890.896C186.06 890.936 186.793 890.998 187.542 891.096C187.94 891.148 188.344 891.21 188.753 891.284L191.826 901.997Z" fill="#5583A5"/>
<path id="Vector_6" d="M187.335 896.046C186.307 895.965 185.758 892.696 185.34 890.896C186.061 890.937 186.794 890.999 187.543 891.096C187.503 894.574 188.557 896.141 187.335 896.046Z" fill="#447093"/>
<path id="Vector_7" d="M189.716 902.478C188.378 902.771 186.47 903.164 184.188 903.575C185.441 902.666 186.207 902.073 186.626 900.807C187.529 898.076 189.751 899.171 189.716 902.478Z" fill="#447093"/>
<path id="Vector_8" d="M126.106 886.285C126.106 886.285 119.486 903.425 111.685 907.71C107.204 910.171 82.1338 911.519 82.1338 911.519V903.187C82.1338 903.187 94.6635 898.426 100.101 895.807C105.538 893.189 108.375 882 108.375 882L126.106 886.285Z" fill="#5583A5"/>
<path id="Vector_9" d="M184.065 886.09C183.874 887.185 183.59 888.316 183.205 889.482C183.165 889.606 183.122 889.732 183.08 889.856C182.12 892.629 180.224 895.26 177.569 897.66C176.564 898.569 175.448 899.447 174.236 900.285V900.288C173.739 900.63 173.224 900.969 172.694 901.3C172.46 901.447 172.224 901.592 171.983 901.735C170.356 902.709 168.59 903.618 166.702 904.458C164.231 905.558 161.55 906.541 158.701 907.382C154.971 908.479 150.95 909.339 146.73 909.912C145.543 910.074 144.342 910.214 143.127 910.329C131.824 911.4 121.6 910.181 114.971 906.56C112.99 905.48 111.33 904.185 110.061 902.67C109.295 901.761 108.673 900.773 108.205 899.704C107.928 899.073 107.704 898.414 107.538 897.728C107.481 897.495 107.432 897.259 107.389 897.019C107.311 896.583 107.255 896.138 107.221 895.681C107.039 893.186 107.545 890.372 108.848 887.237C109.763 885.037 110.978 883.292 112.384 881.919C112.77 881.543 113.169 881.193 113.583 880.871C118.661 876.884 125.585 876.853 130.124 877.477C140.526 878.905 145.07 868.452 158.257 865.574C158.328 865.557 158.401 865.543 158.472 865.528C158.673 865.486 158.876 865.447 159.077 865.412C162.153 864.85 165.325 864.886 168.337 865.464C169.202 865.631 170.058 865.843 170.893 866.097C170.909 866.102 170.923 866.107 170.938 866.112C178.098 868.316 183.838 873.746 184.328 881.619C184.418 883.033 184.337 884.523 184.065 886.09Z" fill="#6CA3C4"/>
<path id="Vector_10" d="M112.384 881.919C112.384 881.931 112.384 881.945 112.382 881.957C112.117 887.468 108.876 893.11 107.318 895.534C107.285 895.584 107.252 895.634 107.221 895.681C107.216 895.61 107.212 895.538 107.209 895.467C107.068 893.025 107.583 890.282 108.848 887.237C109.755 885.052 110.961 883.316 112.356 881.947C112.365 881.938 112.375 881.928 112.384 881.919Z" fill="#FFAE85"/>
<path id="Vector_11" d="M81.8012 898.112C82.1577 898.59 82.4362 899.104 82.6357 899.646C82.6886 899.79 82.735 899.936 82.7763 900.081C82.7979 900.152 82.8166 900.224 82.8329 900.294C82.8467 900.345 82.8602 900.395 82.8687 900.445C82.8825 900.496 82.8908 900.546 82.8993 900.596C82.9149 900.658 82.925 900.72 82.9342 900.784C82.9448 900.836 82.9522 900.888 82.9572 900.939C82.9685 900.999 82.9756 901.062 82.9818 901.122C82.9864 901.149 82.9892 901.174 82.9896 901.199C83.0073 901.359 83.0165 901.52 83.0202 901.681C83.0239 901.71 83.0252 901.737 83.0227 901.763C83.0236 901.863 83.0245 901.963 83.0215 902.061C83.0211 902.133 83.0172 902.207 83.0135 902.28C83.013 902.352 83.0062 902.427 82.9981 902.498C82.9935 902.563 82.988 902.625 82.9793 902.687C82.9733 902.77 82.9607 902.855 82.9494 902.938C82.9368 903.033 82.9209 903.13 82.9018 903.227C82.8922 903.276 82.8816 903.327 82.8722 903.376C82.8554 903.464 82.8345 903.55 82.8136 903.635C82.803 903.681 82.7924 903.727 82.7798 903.771C82.7577 903.859 82.7336 903.946 82.7074 904.031C82.6936 904.078 82.6789 904.121 82.6653 904.168C82.6345 904.267 82.6017 904.366 82.5658 904.465C82.5254 904.578 82.4806 904.689 82.4348 904.802C82.3845 904.923 82.3321 905.043 82.2767 905.164C82.2213 905.286 82.1604 905.407 82.0986 905.525C81.5048 906.657 80.6326 907.709 79.5086 908.563C79.3569 908.679 79.2034 908.788 79.0476 908.891C78.7406 909.099 78.4266 909.285 78.1058 909.448C78.0353 909.486 77.9636 909.521 77.8919 909.555C77.8128 909.594 77.7347 909.631 77.6547 909.666C77.5747 909.702 77.4945 909.737 77.4134 909.769C77.3311 909.804 77.2511 909.834 77.1702 909.866C76.8258 909.998 76.4744 910.107 76.1237 910.19C76.0524 910.209 75.9823 910.225 75.9111 910.238C75.7325 910.278 75.5521 910.311 75.3758 910.336C75.3207 910.344 75.2655 910.353 75.2115 910.359C75.1309 910.37 75.0481 910.38 74.9666 910.388C74.8236 910.401 74.6784 910.412 74.5366 910.418C74.4837 910.422 74.4297 910.423 74.3789 910.423C74.2785 910.426 74.179 910.427 74.0818 910.424C74.0278 910.425 73.9749 910.423 73.92 910.421C73.2236 910.398 72.5473 910.281 71.91 910.069C70.7194 909.678 69.6723 908.962 68.8965 907.934C67.2032 905.677 67.3176 902.542 68.9204 899.964C69.4917 899.043 70.2538 898.191 71.1916 897.479C71.9433 896.906 72.7484 896.467 73.5713 896.162C76.6495 895.012 79.991 895.696 81.8012 898.112Z" fill="#FFAE85"/>
<path id="Vector_12" d="M82.6358 899.646C82.6887 899.79 82.7351 899.936 82.7765 900.082C82.7981 900.153 82.8167 900.225 82.833 900.295C82.8468 900.346 82.8604 900.396 82.8689 900.446C82.8827 900.496 82.8909 900.547 82.8994 900.597C82.9151 900.659 82.9252 900.721 82.9344 900.785C82.9449 900.836 82.9523 900.889 82.9573 900.94C82.9686 901 82.9757 901.063 82.9819 901.122C82.9865 901.149 82.9893 901.175 82.9897 901.199C83.0074 901.359 83.0187 901.521 83.0203 901.681C83.024 901.71 83.0254 901.738 83.0228 901.763C83.0238 901.864 83.0247 901.964 83.0217 902.062C83.0212 902.134 83.0173 902.207 83.0136 902.281C83.0132 902.353 83.0063 902.427 82.9982 902.499C82.9937 902.564 82.9881 902.625 82.9794 902.688C82.9734 902.771 82.9608 902.856 82.9495 902.938C82.9369 903.034 82.921 903.13 82.902 903.228C82.8923 903.277 82.8817 903.328 82.8723 903.376C82.8555 903.464 82.8346 903.55 82.8137 903.636C82.8031 903.682 82.7926 903.727 82.7799 903.772C82.7579 903.86 82.7337 903.946 82.7075 904.032C82.6937 904.079 82.679 904.122 82.6655 904.169C82.6347 904.268 82.6018 904.366 82.566 904.466C82.5255 904.579 82.4807 904.689 82.435 904.802C82.3846 904.923 82.3322 905.044 82.2768 905.165C82.2215 905.286 82.1606 905.407 82.0987 905.525C81.5049 906.658 80.6328 907.71 79.5087 908.563C79.3571 908.679 79.2035 908.789 79.0477 908.892C78.7407 909.1 78.4268 909.286 78.1059 909.449C78.0354 909.487 77.9637 909.521 77.892 909.556C77.8129 909.595 77.7348 909.631 77.6548 909.667C77.5748 909.702 77.4946 909.738 77.4135 909.77C77.3312 909.804 77.2513 909.835 77.1704 909.867C76.8259 909.999 76.4745 910.108 76.1238 910.191C76.0526 910.209 75.9825 910.226 75.9112 910.239C75.7327 910.279 75.5523 910.312 75.376 910.337C75.3208 910.345 75.2657 910.353 75.2117 910.36C75.131 910.371 75.0483 910.381 74.9667 910.388C74.8237 910.401 74.6785 910.413 74.5367 910.418C74.4838 910.422 74.4298 910.423 74.3791 910.423C74.2786 910.426 74.1791 910.428 74.0819 910.424C74.0279 910.425 73.975 910.424 73.9201 910.422C73.2238 910.399 72.5474 910.282 71.9102 910.069C72.0876 908.686 72.4068 907.485 72.8273 906.444C73.3998 905.03 74.1616 903.909 75.0133 903.019C76.549 901.42 78.3792 900.571 79.9406 900.122C80.1258 900.07 80.3076 900.024 80.4829 899.98C81.3546 899.77 82.1116 899.683 82.6358 899.646Z" fill="#FF9D72"/>
<path id="Vector_13" d="M80.0853 900.136C79.6204 900.08 79.1821 900.1 78.7335 900.153C78.2882 900.209 77.8469 900.309 77.4149 900.448C76.5544 900.733 75.7336 901.19 75.045 901.81C74.6971 902.115 74.3875 902.464 74.1175 902.838C73.8392 903.207 73.6193 903.615 73.4297 904.03C73.0622 904.868 72.8551 905.759 72.8138 906.645C72.8071 906.789 72.9176 906.911 73.0606 906.918C73.1822 906.924 73.2881 906.844 73.3214 906.732L73.3221 906.73C73.5616 905.921 73.8553 905.149 74.249 904.447C74.6475 903.748 75.1429 903.123 75.7377 902.606C76.3361 902.095 77.0145 901.675 77.7539 901.36C78.4867 901.041 79.2888 900.806 80.0821 900.655L80.1026 900.651C80.243 900.625 80.3354 900.488 80.3089 900.347C80.2875 900.232 80.1945 900.149 80.0853 900.136Z" fill="#F48351"/>
<path id="Vector_14" d="M107.538 897.728C106.483 898.663 106.219 896.171 106.72 894.855C107.609 892.519 107.545 890.372 108.847 887.237C109.762 885.037 111.67 884.21 111.684 882.237C111.694 880.89 113.339 879.619 113.582 880.871C113.798 884.432 112.994 890.389 107.538 897.728Z" fill="#7CB4D1"/>
<path id="Vector_15" d="M73.5709 896.162L80.4826 899.979L81.6893 900.645L83.0213 902.061C83.0209 902.134 83.017 902.207 83.0133 902.28C83.0128 902.353 83.0059 902.427 82.9979 902.498C82.9933 902.563 82.9878 902.625 82.979 902.687C82.9731 902.77 82.9604 902.855 82.9492 902.938C82.9365 903.034 82.9207 903.13 82.9016 903.228C82.892 903.277 82.8814 903.328 82.872 903.376C82.8552 903.464 82.8343 903.55 82.8134 903.636C82.8028 903.681 82.7922 903.727 82.7796 903.771C82.7575 903.859 82.7334 903.946 82.7072 904.032C82.6934 904.078 82.6787 904.122 82.6651 904.168C82.6343 904.268 82.6015 904.366 82.5656 904.465C82.5252 904.578 82.4803 904.689 82.4346 904.802C82.3843 904.923 82.3319 905.044 82.2765 905.165C82.2211 905.286 82.1602 905.407 82.0984 905.525C81.5046 906.658 80.6324 907.709 79.5084 908.563C79.3567 908.679 79.2032 908.788 79.0474 908.891C78.6544 906.47 77.0905 904.583 75.1858 903.147C75.1297 903.101 75.0714 903.06 75.013 903.018C74.7914 902.854 74.5685 902.698 74.3401 902.547C72.4981 901.334 70.4682 900.494 68.9199 899.964C69.4912 899.043 70.2533 898.191 71.1912 897.478C71.9429 896.906 72.7477 896.468 73.5709 896.162Z" fill="#FF9D72"/>
<path id="Vector_16" d="M79.0479 908.891C79.0479 908.891 79.0479 908.891 79.0479 908.891C79.2037 908.788 79.3573 908.679 79.509 908.563C80.633 907.709 81.5051 906.658 82.099 905.525C82.1608 905.407 82.2217 905.286 82.2771 905.165C82.3325 905.043 82.3849 904.923 82.4352 904.802C82.4809 904.689 82.5257 904.578 82.5662 904.465C82.602 904.366 82.6349 904.268 82.6657 904.168C82.6793 904.121 82.694 904.078 82.7078 904.032C82.734 903.946 82.7581 903.859 82.7801 903.771C82.7928 903.727 82.8034 903.681 82.8139 903.636C82.8349 903.55 82.8558 903.464 82.8725 903.376C82.882 903.327 82.8925 903.277 82.9022 903.228C82.9213 903.13 82.9371 903.034 82.9498 902.938C82.961 902.855 82.9737 902.77 82.9796 902.687C82.9884 902.625 82.9939 902.563 82.9985 902.498C83.0065 902.427 83.0134 902.353 83.0139 902.28C83.0175 902.207 83.0214 902.134 83.0219 902.061L81.6899 900.645L80.4832 899.98C80.3078 900.023 80.126 900.07 79.9408 900.122C78.3795 900.57 76.5493 901.42 75.0137 903.018C75.072 903.06 75.1303 903.102 75.1864 903.148C77.091 904.583 78.6549 906.47 79.0479 908.891Z" fill="#FF8B5F"/>
<path id="Vector_17" d="M112.382 881.957C112.117 887.468 108.876 893.11 107.318 895.533L107.209 895.467L106.013 894.748L102.753 892.786L101.848 892.243L103.443 879.767L106.968 880.595L111.725 881.714L112.356 881.947L112.382 881.957Z" fill="#FFAE85"/>
<path id="Vector_18" d="M111.726 881.715C110.434 887.85 107.801 892.286 106.012 894.749L102.753 892.787L106.968 880.597L111.726 881.715Z" fill="#FF9265"/>
<path id="Vector_19" d="M111.664 875.862C110.179 885.665 105.203 895.516 98.8481 901.399C95.4935 904.503 91.7535 906.505 87.9402 906.805C84.8527 907.053 81.718 906.186 78.6989 903.894C78.6564 903.86 78.6114 903.827 78.5689 903.794C72.7792 899.311 66.5971 897.783 61.4033 894.369C60.8667 894.017 60.3418 893.643 59.8266 893.245C57.9283 891.776 56.1907 889.955 54.699 887.518C54.6753 887.479 54.6516 887.442 54.628 887.401C45.5216 872.358 55.6139 842.922 77.1884 839.741C78.03 839.618 78.8906 839.563 79.7699 839.575C80.1599 839.58 80.5524 839.594 80.9447 839.623C81.2283 839.644 81.5121 839.668 81.8005 839.704C83.5356 839.901 85.3254 840.33 87.1221 840.956C91.0843 842.336 95.0842 844.686 98.6825 847.705C99.855 848.685 100.985 849.738 102.056 850.854C103.41 852.263 104.67 853.768 105.808 855.349C106.604 856.458 107.34 857.601 108.006 858.777C111.009 864.083 112.552 870.001 111.664 875.862Z" fill="#FFAE85"/>
<path id="Vector_20" d="M85.1231 886.497L86.844 887.368L87.0618 888.056C87.0377 888.135 87.0069 888.247 86.983 888.346C86.957 888.448 86.9324 888.551 86.9108 888.655C86.8672 888.863 86.8325 889.072 86.8088 889.28C86.7566 889.695 86.7426 890.11 86.7946 890.496C86.8479 890.881 86.9561 891.237 87.148 891.517C87.3362 891.799 87.6035 892.016 87.9429 892.161C88.2734 892.31 88.6115 892.354 88.9686 892.292C89.3257 892.235 89.6868 892.064 90.032 891.841C90.3769 891.615 90.7014 891.33 91.0015 891.015C91.3056 890.707 91.5912 890.353 91.8394 890.007L91.8489 889.994C91.9504 889.853 92.1469 889.821 92.2876 889.923C92.4135 890.015 92.4519 890.183 92.3855 890.319C92.2738 890.548 92.158 890.749 92.0281 890.954C91.8999 891.157 91.7631 891.356 91.617 891.549C91.3191 891.931 90.9845 892.293 90.5904 892.612C90.1976 892.93 89.7307 893.198 89.1901 893.334C88.6528 893.471 88.039 893.431 87.5228 893.227C87.0113 893.037 86.5094 892.687 86.1731 892.21C85.833 891.736 85.6556 891.187 85.586 890.663C85.5143 890.135 85.5313 889.62 85.5947 889.122C85.6294 888.873 85.6761 888.629 85.7333 888.387C85.762 888.266 85.7928 888.145 85.8275 888.026C85.8645 887.903 85.8987 887.794 85.9495 887.655L86.1672 888.343L84.7639 887.015C84.6364 886.894 84.6302 886.692 84.7501 886.563C84.848 886.458 85.0009 886.435 85.1231 886.497Z" fill="#F48351"/>
<path id="Vector_21" d="M77.1413 889.456C77.6862 890.262 76.5346 893.364 75.9612 896.52C75.5742 898.65 74.4157 897.656 73.988 895.471C73.4004 892.466 75.5168 887.055 77.1413 889.456Z" fill="#FF9D72"/>
<path id="Vector_22" d="M83.3552 877.605C84.3266 877.597 86.2463 874.841 88.5345 872.539C90.0791 870.985 88.6085 870.587 86.5613 871.49C83.7477 872.731 80.4589 877.629 83.3552 877.605Z" fill="#FF9D72"/>
<path id="Vector_23" d="M76.5199 889.113C77.0765 889.896 76.0104 892.835 75.5165 895.839C75.1833 897.867 74.0158 896.89 73.5433 894.79C72.8936 891.904 74.8599 886.778 76.5199 889.113Z" fill="#F4DB9D"/>
<path id="Vector_24" d="M82.7217 877.285C83.6777 877.306 85.4864 874.762 87.6717 872.657C89.1466 871.236 87.6871 870.816 85.6985 871.607C82.9651 872.695 79.8711 877.221 82.7217 877.285Z" fill="#F4DB9D"/>
<path id="Vector_25" d="M93.4743 895.887C93.6136 895.773 93.7776 895.641 93.9247 895.513C94.0736 895.381 94.2239 895.254 94.3639 895.115C94.6484 894.844 94.9191 894.565 95.1669 894.271C95.6672 893.687 96.0783 893.054 96.3911 892.38C96.5501 892.044 96.6749 891.694 96.7802 891.336C96.893 890.979 96.9608 890.608 97.0249 890.232C97.138 889.476 97.161 888.688 97.1584 887.859V887.853C97.1578 887.652 97.3193 887.488 97.519 887.487C97.6668 887.487 97.7943 887.576 97.8509 887.704C98.2075 888.514 98.384 889.414 98.3824 890.333C98.3774 891.252 98.1701 892.189 97.7693 893.033C97.3708 893.877 96.796 894.629 96.1109 895.227C95.7678 895.526 95.399 895.789 95.009 896.011C94.8127 896.119 94.6155 896.224 94.4087 896.312C94.1996 896.401 94.0008 896.477 93.762 896.54C93.5708 896.591 93.375 896.476 93.3244 896.284C93.2874 896.143 93.3389 895.999 93.4444 895.912L93.4743 895.887Z" fill="#F48351"/>
<g id="Group" opacity="0.3">
<path id="Vector_26" d="M98.5549 897.935C98.1674 897.169 98.11 896.341 98.2005 895.527C98.2982 894.714 98.5822 893.931 98.9819 893.229L99.3059 892.72C99.4192 892.554 99.5481 892.402 99.675 892.249C99.9186 891.931 100.218 891.671 100.506 891.406C100.802 891.149 101.131 890.936 101.453 890.723C101.796 890.539 102.14 890.364 102.505 890.231C102.646 890.18 102.8 890.253 102.851 890.394C102.88 890.475 102.869 890.561 102.827 890.629L102.814 890.65C102.612 890.979 102.383 891.258 102.164 891.541C101.964 891.841 101.737 892.106 101.539 892.389C101.348 892.676 101.132 892.939 100.96 893.227C100.874 893.371 100.766 893.501 100.686 893.646C100.605 893.791 100.518 893.931 100.434 894.073C100.115 894.648 99.8283 895.231 99.5989 895.85C99.3693 896.464 99.1848 897.13 99.0584 897.813L99.049 897.863C99.0223 898.007 98.8844 898.102 98.7413 898.075C98.6583 898.06 98.591 898.005 98.5549 897.935Z" fill="black"/>
</g>
<path id="Vector_27" d="M61.8732 847.662C61.483 846.958 60.1871 844.893 57.7209 843.466C57.5033 843.34 57.5982 843.005 57.8489 843.021C59.5583 843.128 62.8961 843.672 63.8659 846.253C63.9023 846.35 63.8682 846.46 63.7869 846.524L62.2246 847.736C62.1097 847.825 61.9438 847.789 61.8732 847.662Z" fill="#F4DB9D"/>
<path id="Vector_28" d="M62.6194 846.859C62.9285 845.903 63.5088 843.55 62.8653 840.806C62.8136 840.585 63.0636 840.42 63.2394 840.561C64.357 841.457 66.6786 843.735 65.2544 846.301C65.2255 846.353 65.177 846.393 65.1207 846.412L62.9207 847.157C62.7368 847.219 62.5592 847.044 62.6194 846.859Z" fill="#F4DB9D"/>
<path id="Vector_29" d="M98.6833 847.704C99.8556 848.686 100.985 849.738 102.055 850.853L98.9722 859.487C98.9722 859.487 95.0493 856.644 95.9081 852.384C96.1942 850.964 97.2141 848.054 98.6833 847.704Z" fill="#FF9D72"/>
<path id="Vector_30" opacity="0.7" d="M101.439 869.757C103.618 870.192 105.464 873.01 104.825 876.251C104.186 879.493 101.304 881.931 99.1246 881.495C96.9457 881.059 94.9601 877.932 95.599 874.691C96.2381 871.449 99.2595 869.321 101.439 869.757Z" fill="#F6896C"/>
<path id="Vector_31" opacity="0.7" d="M87.2477 897.078C85.8109 896.885 84.0478 897.368 82.7866 898.663C80.8685 900.633 80.8373 903.735 82.164 905.046C83.4907 906.356 86.2915 906.313 88.2097 904.343C90.128 902.373 90.4369 899.222 89.1101 897.912C88.656 897.463 87.996 897.179 87.2477 897.078Z" fill="#F6896C"/>
<path id="Vector_32" d="M98.6835 847.705C99.8558 848.686 100.985 849.739 102.055 850.854C103.41 852.263 104.671 853.769 105.807 855.35L103.961 858.641C92.0515 847.194 81.7777 847.924 81.7777 847.924L81.5869 842.169L81.7997 839.703C83.5371 839.903 85.3265 840.329 87.1231 840.956C91.0847 842.338 95.0855 844.686 98.6835 847.705Z" fill="#FF9D72"/>
<path id="Vector_33" d="M95.9082 852.384C95.9074 852.388 95.907 852.391 95.9062 852.395C97.3412 853.259 98.8431 854.289 100.39 855.516L102.055 850.854C100.985 849.738 99.8557 848.686 98.6834 847.704C97.2142 848.054 96.1943 850.964 95.9082 852.384Z" fill="#FF8B5F"/>
<path id="Vector_34" d="M84.903 840.432C89.1998 847.024 78.518 856.689 78.518 856.689C77.035 871.245 68.1543 875.946 68.1543 875.946L72.6148 875.087C71.5266 887.36 65.1638 892.842 61.4035 894.369C60.8667 894.017 60.3409 893.643 59.8252 893.245C57.9274 891.776 56.1897 889.956 54.6982 887.518L80.9456 839.623C82.9495 839.768 82.8103 839.702 84.903 840.432Z" fill="#FF9D72"/>
<path id="Vector_35" d="M84.9031 840.433C84.3137 840.227 83.9014 840.084 83.5683 839.982C82.9742 839.865 82.3838 839.77 81.7997 839.703L81.5869 842.169L81.7777 847.924C81.7777 847.924 82.9315 847.842 84.9119 848.164C86.0542 845.585 86.4523 842.809 84.9031 840.433Z" fill="#FF8B5F"/>
<path id="Vector_36" d="M84.5952 840C84.5952 840 87.9804 844.761 76.4017 855.643C76.4017 855.643 73.6866 869.24 63.3022 878.608C64.4527 879.621 67.0128 878.807 70.1932 877.152C70.3654 877.063 70.5655 877.201 70.5389 877.395C70.2684 879.353 68.9072 887.166 63.9896 890.932C61.6244 892.74 59.2764 893.384 57.0934 893.158C54.6054 892.901 52.3337 891.519 50.488 889.455C48.2069 886.907 46.578 883.314 46.011 879.516C45.8745 878.609 45.7984 877.694 45.7899 876.776C45.6897 867.183 54.2322 848.611 63.5357 845.495C63.5357 845.495 66.7791 840.971 72.5263 839.156C73.1643 838.954 73.8351 838.786 74.5358 838.663C76.1824 838.368 77.9941 838.314 79.9562 838.63C81.4192 838.863 82.9693 839.302 84.5952 840Z" fill="#F4DB9D"/>
<path id="Vector_37" d="M65.0583 886.604C64.9361 886.759 64.8138 886.89 64.6835 887.023C64.5546 887.156 64.4201 887.283 64.2804 887.404C64.0016 887.646 63.7098 887.875 63.3993 888.078C62.7806 888.486 62.1068 888.825 61.3893 889.052C59.9599 889.526 58.376 889.557 56.9112 889.186C56.1767 889.003 55.4771 888.729 54.7955 888.396C54.6291 888.306 54.4657 888.209 54.3007 888.115L54.0541 887.973C53.9732 887.923 53.8974 887.865 53.8188 887.811L53.3518 887.482C53.2045 887.362 53.0593 887.238 52.9149 887.113L52.6994 886.926L52.4997 886.721C52.3682 886.583 52.2308 886.45 52.1051 886.308C51.8658 886.012 51.6126 885.727 51.4076 885.407L51.246 885.173L51.1656 885.056L51.0939 884.933L50.8082 884.443C50.7129 884.28 50.6384 884.107 50.5529 883.939C50.4697 883.77 50.3847 883.602 50.318 883.427L50.1048 882.906C50.0416 882.73 49.9855 882.552 49.9257 882.374L49.8377 882.109L49.764 881.839L49.6187 881.3L49.5017 880.756L49.4436 880.484L49.3983 880.211L49.3089 879.664L49.2432 879.115C49.0738 877.65 49.0959 876.18 49.2018 874.727C49.4562 871.825 50.1006 868.968 51.2033 866.292C51.2458 866.189 51.3632 866.14 51.4657 866.183C51.5623 866.223 51.611 866.33 51.5809 866.429L51.5797 866.432C50.7407 869.147 50.2546 871.969 50.1344 874.785C50.0763 876.193 50.1142 877.603 50.3068 878.983L50.3792 879.5L50.4739 880.012L50.5214 880.267L50.5809 880.52L50.7 881.024L50.8448 881.52L50.9176 881.767L51.0038 882.01C51.062 882.171 51.1164 882.333 51.1773 882.493L51.3747 882.965C51.4361 883.124 51.5142 883.275 51.5903 883.426C51.6684 883.576 51.7358 883.733 51.8224 883.878L52.0803 884.313L52.1444 884.422L52.2168 884.525L52.3616 884.731C52.5443 885.015 52.7702 885.262 52.9807 885.521C53.0919 885.646 53.2135 885.76 53.3288 885.88L53.504 886.058L53.6938 886.22L54.0721 886.545L54.4772 886.836C54.5452 886.884 54.6105 886.936 54.6811 886.98L54.8966 887.107C55.0407 887.191 55.1828 887.279 55.328 887.36L55.7814 887.575L56.008 887.684L56.2433 887.774L56.714 887.956C56.8712 888.016 57.0328 888.057 57.1922 888.109C57.8353 888.293 58.4974 888.39 59.1624 888.416C59.495 888.424 59.8294 888.416 60.1612 888.376C60.4933 888.34 60.8249 888.287 61.1522 888.207C61.4801 888.13 61.8035 888.029 62.1204 887.906C62.4387 887.788 62.7515 887.649 63.0553 887.49C63.6597 887.174 64.2526 886.784 64.7598 886.335L64.769 886.327C64.8524 886.254 64.9793 886.262 65.0526 886.346C65.1172 886.419 65.1179 886.529 65.0583 886.604Z" fill="#F6E2B1"/>
<path id="Vector_38" d="M65.1788 883.191C64.5119 883.786 63.7062 884.191 62.8752 884.505C62.0366 884.803 61.1511 884.99 60.2452 885.032C59.3402 885.068 58.4117 884.958 57.5279 884.653C56.6422 884.357 55.8192 883.836 55.1573 883.167C54.4895 882.5 53.9876 881.694 53.6304 880.851C53.2623 880.008 53.0669 879.119 52.9366 878.238C52.705 876.468 52.7895 874.701 53.1028 872.992C53.1182 872.908 53.1984 872.852 53.2818 872.868C53.3549 872.881 53.4064 872.945 53.4075 873.018C53.4381 874.736 53.5348 876.441 53.8894 878.066C54.071 878.874 54.2983 879.669 54.6487 880.392C54.9919 881.117 55.4331 881.779 55.9831 882.323C56.5337 882.865 57.1875 883.292 57.9181 883.561C58.6457 883.835 59.4335 883.974 60.2367 884.005C61.841 884.035 63.5187 883.71 65.0005 882.94L65.006 882.937C65.0814 882.898 65.1742 882.928 65.2131 883.004C65.2464 883.068 65.2301 883.145 65.1788 883.191Z" fill="#F6E2B1"/>
<path id="Vector_39" d="M84.5956 839.999C84.5956 839.999 87.9808 844.76 76.4021 855.642C76.4021 855.642 73.687 869.239 63.3026 878.608C64.4531 879.62 67.0132 878.806 70.1936 877.151C70.3658 877.062 70.5659 877.201 70.5393 877.394C70.2688 879.353 68.9076 887.165 63.99 890.931C61.6248 892.74 59.2768 893.384 57.0938 893.157C60.0476 891.414 63.7478 888.716 65.3018 885.466C68.0729 879.671 58.5717 878.927 58.5717 878.927C58.5717 878.927 66.151 871.384 69.2364 865.215C74.7669 854.157 69.686 849.571 69.686 849.571C69.686 849.571 76.5967 852.706 79.3678 846.911C81.312 842.846 78.3941 839.774 74.5364 838.662C76.183 838.367 77.9947 838.313 79.9568 838.629C81.4196 838.863 82.9697 839.302 84.5956 839.999Z" fill="#F1D28B"/>
<path id="Vector_40" d="M108.006 858.777C111.009 864.084 112.553 870 111.664 875.862C110.179 885.665 105.203 895.516 98.8477 901.398C101.601 897.631 107.361 888.903 108.668 880.256C110.4 868.794 105.279 861.225 105.279 861.225L108.006 858.777Z" fill="#FF9D72"/>
<path id="Vector_41" d="M108.286 847.319C110.246 848.832 111.481 851.505 111.337 854.486C111.157 858.278 108.808 861.359 105.788 862.115C105.232 862.256 104.652 862.315 104.06 862.287C100.254 862.104 97.3425 858.313 97.556 853.821C97.7704 849.328 101.027 845.833 104.835 846.018C106.116 846.081 107.294 846.55 108.286 847.319Z" fill="#FFAE85"/>
<path id="Vector_42" d="M108.286 847.318C110.246 848.831 111.48 851.504 111.337 854.485C111.156 858.277 108.808 861.358 105.788 862.114C104.572 860.036 101.537 853.37 108.286 847.318Z" fill="#FF9D72"/>
<path id="Vector_43" d="M104.752 859.718C104.444 859.363 104.213 858.987 104.003 858.584C103.798 858.182 103.631 857.759 103.501 857.321C103.25 856.445 103.162 855.505 103.281 854.583C103.335 854.121 103.447 853.667 103.601 853.231C103.747 852.792 103.957 852.379 104.191 851.987C104.671 851.209 105.284 850.534 105.987 850C106.102 849.913 106.265 849.936 106.351 850.051C106.424 850.149 106.419 850.282 106.345 850.373L106.344 850.375C105.815 851.03 105.348 851.71 104.994 852.433C104.646 853.159 104.413 853.923 104.325 854.709C104.244 855.495 104.282 856.297 104.44 857.089C104.592 857.878 104.852 858.678 105.175 859.422L105.184 859.442C105.241 859.573 105.181 859.727 105.05 859.785C104.945 859.832 104.824 859.801 104.752 859.718Z" fill="#F48351"/>
<path id="Vector_44" d="M90.8253 875.364C90.9147 875.522 90.9767 875.665 91.036 875.821C91.0965 875.975 91.1408 876.132 91.182 876.292C91.2596 876.612 91.3028 876.943 91.3107 877.28C91.3238 877.951 91.1861 878.655 90.863 879.292C90.7 879.609 90.4916 879.903 90.251 880.165C90.0092 880.426 89.7279 880.642 89.434 880.821C88.8383 881.17 88.1845 881.356 87.5378 881.36C87.3696 881.361 87.2324 881.224 87.2315 881.055C87.2308 880.948 87.2848 880.853 87.367 880.798L87.3751 880.793C87.8745 880.462 88.3256 880.152 88.7043 879.803C89.0808 879.453 89.3758 879.069 89.6045 878.637C89.8284 878.202 89.9823 877.716 90.0816 877.19C90.1836 876.668 90.2296 876.094 90.2622 875.528L90.2641 875.496C90.2737 875.329 90.4158 875.202 90.5817 875.211C90.686 875.217 90.7763 875.279 90.8253 875.364Z" fill="#51321D"/>
<path id="Vector_45" d="M77.9736 895.638C78.455 895.344 78.9376 895.033 79.3474 894.698C79.7622 894.364 80.1166 893.999 80.3928 893.596C80.6645 893.19 80.8633 892.748 80.9942 892.248C81.1223 891.748 81.1836 891.201 81.2395 890.602L81.2401 890.595C81.2558 890.426 81.4045 890.302 81.5718 890.318C81.6777 890.328 81.7666 890.393 81.8131 890.481C82.113 891.058 82.2557 891.727 82.2293 892.42C82.2095 892.766 82.152 893.117 82.036 893.455C81.9197 893.791 81.7591 894.115 81.5575 894.408C81.1507 894.994 80.5976 895.446 80.0021 895.749C79.7029 895.9 79.3924 896.017 79.0753 896.098C78.9158 896.136 78.757 896.171 78.5938 896.189C78.429 896.209 78.2748 896.221 78.0938 896.216C77.9278 896.211 77.7971 896.071 77.8019 895.904C77.8049 895.799 77.8616 895.707 77.9448 895.655L77.9736 895.638Z" fill="#51321D"/>
<path id="Vector_46" d="M87.9395 906.805C84.852 907.053 81.7173 906.186 78.6982 903.894C78.8922 902.927 79.4052 901.785 80.7149 901.52C82.6062 901.14 86.469 905.175 87.9395 906.805Z" fill="#FF9D72"/>
<path id="Vector_47" d="M81.3317 901.532C81.086 902.926 81.395 904.286 82.1636 905.045C83.1641 906.033 85.0027 906.251 86.6691 905.454C85.0949 903.848 82.8568 901.824 81.3317 901.532Z" fill="#F78261"/>
<path id="Vector_48" d="M72.8713 915.219C73.0614 916.995 78.2818 916.63 78.2818 916.63C78.2818 916.63 75.2701 917.848 75.5234 918.924C75.6261 919.36 76.3845 919.587 77.503 919.585C80.0902 919.581 84.6036 918.351 87.3804 915.599C87.6139 915.368 87.8373 915.126 88.0434 914.875L88.0115 913.012L87.9572 909.944C87.9572 909.944 87.766 909.665 87.4434 909.222C86.1066 907.402 82.506 902.792 80.6103 903.243C79.0039 903.625 81.4512 906.543 80.5076 907.337C79.564 908.131 73.9705 906.41 73.7039 908.389C73.5116 909.82 77.9279 910.796 77.9279 910.796C77.9279 910.796 71.8555 910.129 71.5115 912.033C71.1833 913.855 77.4288 914.061 77.9679 914.075C77.497 914.083 72.7573 914.174 72.8713 915.219Z" fill="#FFAE85"/>
<path id="Vector_49" d="M198.446 915.567C194.741 917.433 191.472 917.104 189.434 915.043C188.968 914.571 188.566 914.012 188.238 913.365C188.171 913.229 188.105 913.091 188.044 912.948C187.994 912.834 187.942 912.715 187.885 912.591C186.734 910.058 184.386 905.83 185.129 903.252C185.233 902.883 185.403 902.547 185.646 902.257C185.854 902.009 186.117 901.793 186.441 901.614C186.595 901.528 186.762 901.45 186.944 901.383C190.155 900.193 192.439 904.468 194.59 905.621C199.635 908.32 201.607 913.974 198.446 915.567Z" fill="#6CA3C4"/>
<path id="Vector_50" d="M114.995 885.809C114.995 885.809 114.758 897.474 110.061 902.671C109.295 901.761 108.673 900.773 108.205 899.704C109.794 898.426 115.231 882 114.995 885.809Z" fill="#5991B6"/>
<path id="Vector_51" d="M158.701 907.382C153.924 908.789 148.668 909.803 143.127 910.329C131.824 911.401 121.6 910.182 114.971 906.561C119.016 900.505 123.763 895.246 128.233 894.855C130.245 894.679 131.779 898.188 129.888 903.664C128.208 908.528 131.306 909.139 136.507 908.901C141.708 908.663 143.836 906.997 143.836 903.902C143.836 900.807 148.564 886.285 158.257 886.285C163.34 886.285 159.593 899.536 158.701 907.382Z" fill="#5991B6"/>
<path id="Vector_52" d="M192.299 912.472C192.299 912.472 191.484 912.671 190.072 912.979C189.54 913.093 188.926 913.224 188.238 913.364C187.904 913.433 187.554 913.503 187.188 913.576C176.784 915.626 153.613 919.149 147.618 911.281C147.278 910.836 146.982 910.379 146.729 909.912C141.159 899.697 155.668 885.188 161.093 882C161.093 882 172.925 870.318 180.242 876.049C185.129 879.876 184.33 891.034 174.363 899.381C174.361 899.382 174.359 899.383 174.358 899.383C173.476 900.119 172.523 900.835 171.495 901.521C171.899 901.435 172.299 901.362 172.694 901.299C173.462 901.181 174.216 901.104 174.963 901.064C177.729 900.916 180.398 901.276 183.209 901.79C184.008 901.935 184.819 902.095 185.646 902.256C186.041 902.335 186.441 902.416 186.845 902.495C187.62 902.649 188.412 902.802 189.226 902.949L192.299 912.472Z" fill="#6CA3C4"/>
<path id="Vector_53" d="M131.542 891.284C131.542 891.284 129.011 909.283 120.904 912.948C109.32 918.185 87.5707 916.519 87.5707 916.519C85.6796 914.852 85.6796 910.091 87.5707 908.187C87.5707 908.187 102.569 905.714 107.665 902.473C112.157 899.616 113.812 887.713 113.812 887.713C114.521 883.19 118.724 884.088 122.432 884.496C126.599 884.955 130.792 887.253 131.542 891.284Z" fill="#6CA3C4"/>
<g id="Group_2">
<path id="Vector_54" d="M93.4213 890.092C90.5348 895.6 85.3909 898.784 89.2591 900.84C93.1273 902.895 101.948 901.875 104.835 896.367C107.721 890.86 103.58 882.95 99.712 880.895C95.8438 878.839 96.308 884.585 93.4213 890.092ZM93.4578 899.204C93.1267 899.836 92.2028 900 91.3945 899.571C90.5863 899.141 90.1995 898.28 90.5307 897.648C90.8618 897.016 91.7857 896.852 92.5939 897.282C93.4022 897.711 93.789 898.572 93.4578 899.204ZM100.74 885.308C100.409 885.94 99.4854 886.104 98.6771 885.675C97.8689 885.245 97.4821 884.384 97.8133 883.752C98.1444 883.12 99.0683 882.956 99.8765 883.386C100.685 883.815 101.072 884.676 100.74 885.308Z" fill="#CEE9FA"/>
<path id="Vector_55" d="M104.672 895.644C105.854 893.387 104.66 890.413 102.004 889.001C99.3486 887.59 96.2367 888.276 95.0539 890.533C93.871 892.79 95.0651 895.764 97.721 897.175C100.377 898.587 103.489 897.901 104.672 895.644Z" fill="#BADFF8"/>
<path id="Vector_56" d="M97.6659 895.867C97.6692 895.866 97.6604 895.894 97.657 895.911L97.6434 895.973C97.6349 896.016 97.6262 896.06 97.62 896.106C97.6046 896.195 97.5954 896.288 97.5878 896.381C97.5745 896.566 97.5786 896.754 97.5977 896.938C97.6315 897.308 97.7229 897.669 97.8702 898.007C98.1607 898.686 98.645 899.283 99.2333 899.788C99.8234 900.296 100.503 900.727 101.235 901.086C101.418 901.175 101.599 901.266 101.788 901.348L102.069 901.474C102.163 901.514 102.259 901.549 102.354 901.586L102.925 901.808C103.115 901.882 103.309 901.932 103.501 901.996C103.882 902.133 104.271 902.2 104.655 902.296C105.04 902.352 105.424 902.431 105.803 902.438C106.561 902.481 107.303 902.422 107.981 902.21C109.347 901.806 110.418 900.802 111.053 899.47C111.7 898.117 111.904 896.582 111.507 895.199C111.312 894.506 110.979 893.845 110.527 893.243C110.079 892.637 109.513 892.092 108.888 891.6C108.258 891.114 107.552 890.674 106.849 890.315C106.138 889.961 105.392 889.705 104.63 889.584C103.869 889.456 103.092 889.481 102.336 889.657C101.957 889.743 101.588 889.878 101.232 890.044C101.054 890.128 100.879 890.221 100.711 890.323C100.627 890.374 100.546 890.428 100.466 890.483L100.35 890.566L100.252 890.641L99.4923 889.923C99.5495 889.857 99.5854 889.817 99.6309 889.769C99.6745 889.723 99.7177 889.679 99.7619 889.635C99.8503 889.55 99.9409 889.468 100.034 889.39C100.219 889.233 100.414 889.088 100.615 888.952C101.021 888.688 101.455 888.464 101.913 888.293C102.828 887.944 103.827 887.817 104.805 887.87C105.785 887.928 106.735 888.178 107.625 888.528C107.845 888.62 108.069 888.707 108.282 888.813L108.603 888.968L108.913 889.134C109.327 889.353 109.732 889.603 110.128 889.869C110.911 890.416 111.665 891.052 112.295 891.836C112.934 892.608 113.445 893.526 113.755 894.519C114.072 895.512 114.164 896.575 114.064 897.599C113.965 898.626 113.671 899.614 113.242 900.527C112.8 901.44 112.181 902.319 111.388 903.014C110.597 903.713 109.636 904.226 108.633 904.501C107.628 904.774 106.597 904.826 105.616 904.722C105.119 904.685 104.647 904.571 104.172 904.475C103.712 904.338 103.244 904.22 102.809 904.039C102.589 903.952 102.363 903.877 102.15 903.779L101.516 903.481C101.411 903.43 101.304 903.383 101.2 903.33L100.892 903.165C100.686 903.058 100.484 902.937 100.284 902.815C99.4822 902.329 98.7128 901.749 98.032 901.046C97.3693 900.329 96.7906 899.466 96.5143 898.472C96.3767 897.978 96.3172 897.46 96.3427 896.949C96.3572 896.694 96.3928 896.44 96.4514 896.192C96.4819 896.067 96.5146 895.944 96.5571 895.821C96.5775 895.76 96.6014 895.699 96.626 895.637L96.6662 895.543L96.7177 895.434L97.6659 895.867Z" fill="#B0DDF4"/>
<path id="Vector_57" d="M103.788 895.799C104.868 893.738 103.778 891.023 101.353 889.734C98.9277 888.445 96.0864 889.072 95.0064 891.133C93.9263 893.194 95.0166 895.909 97.4415 897.197C99.8665 898.486 102.708 897.86 103.788 895.799Z" fill="#E9F8FF"/>
</g>
<path id="Vector_58" d="M184.065 886.089C180.403 892.577 176.857 898.552 177.011 897.076C177.328 894.062 176.224 889.856 173.387 885.808C170.55 881.761 162.039 881.285 161.094 881.524C160.148 881.762 159.675 881.047 159.675 881.047C156.602 873.191 157.696 868.29 158.472 865.528C158.673 865.486 158.876 865.447 159.077 865.412C162.152 864.85 165.325 864.886 168.337 865.464C169.202 865.631 170.058 865.843 170.893 866.097C170.909 866.102 170.923 866.107 170.938 866.112C178.098 868.316 183.838 873.746 184.328 881.619C184.418 883.033 184.337 884.523 184.065 886.089Z" fill="#5991B6"/>
<path id="Vector_59" d="M172.694 901.299C173.462 901.18 174.217 901.104 174.963 901.064C175.987 901.045 172.921 902.059 171.968 902.235C169.951 902.607 167.775 902.788 166.323 902.874C166.047 902.891 165.972 902.5 166.234 902.411C169.345 901.356 172.576 900.217 174.358 899.383C174.36 899.383 174.362 899.382 174.363 899.38C175.706 898.752 176.76 898.164 177.569 897.659C176.564 898.569 175.448 899.447 174.236 900.285V900.287C173.739 900.63 173.224 900.968 172.694 901.299Z" fill="#5991B6"/>
<path id="Vector_60" d="M183.205 889.482C183.165 889.606 183.123 889.732 183.08 889.856C181.756 893.679 178.652 897.233 174.236 900.285C179.046 895.346 178.356 879.716 160.785 880.327C160.687 880.331 160.596 880.274 160.559 880.182C160.092 879.033 157.23 871.561 159.077 865.412C162.153 864.85 165.326 864.886 168.338 865.464C169.203 865.631 170.059 865.843 170.893 866.097C170.91 866.102 170.924 866.107 170.938 866.112C178.099 868.316 183.839 873.746 184.328 881.619C184.479 884.021 184.141 886.649 183.205 889.482Z" fill="#7CB4D1"/>
<path id="Vector_61" d="M190.172 914.376C190.026 914.995 189.936 915.567 189.434 915.043C188.969 914.571 188.567 914.012 188.238 913.365C187.905 913.434 187.555 913.503 187.188 913.577C187.432 913.284 187.668 912.955 187.886 912.591C188.538 911.502 189.029 910.08 189.023 908.266C189.023 908.025 189.339 907.936 189.461 908.143C190.054 909.148 190.909 911.267 190.172 914.376Z" fill="#5991B6"/>
<path id="Vector_62" d="M187.099 904.139C186.723 904.234 185.941 903.804 185.13 903.251C184.425 902.768 183.699 902.194 183.21 901.79C184.009 901.935 184.82 902.094 185.647 902.256C185.855 902.009 186.118 901.792 186.442 901.613C186.543 901.889 186.695 902.194 186.846 902.494C187.229 903.266 187.607 904.011 187.099 904.139Z" fill="#5991B6"/>
<path id="Vector_63" d="M164.876 877.477C164.876 878.397 164.135 879.143 163.221 879.143C162.307 879.143 161.566 878.397 161.566 877.477C161.566 876.557 162.307 875.811 163.221 875.811C164.135 875.811 164.876 876.557 164.876 877.477Z" fill="#69A4C6"/>
<g id="Group_3">
<g id="Group_4">
<path id="Vector_64" d="M163.781 875.936C164.495 876.51 164.612 877.559 164.042 878.278C163.472 878.997 162.431 879.116 161.717 878.541C161.002 877.967 160.885 876.919 161.455 876.199C162.025 875.48 163.066 875.362 163.781 875.936Z" fill="#CEE9FA"/>
<path id="Vector_65" d="M163.559 876.215C164.121 876.666 164.213 877.49 163.765 878.055C163.317 878.621 162.499 878.713 161.938 878.262C161.376 877.811 161.284 876.987 161.732 876.422C162.18 875.857 162.998 875.765 163.559 876.215Z" fill="#BADFF8"/>
</g>
<g id="Group_5">
<path id="Vector_66" d="M162.844 877.583C162.774 877.329 162.513 877.181 162.262 877.251C162.01 877.321 161.863 877.583 161.932 877.837C162.002 878.09 162.263 878.239 162.514 878.169C162.766 878.098 162.913 877.836 162.844 877.583Z" fill="#6CA3C4"/>
<path id="Vector_67" d="M163.565 876.64C163.496 876.387 163.235 876.238 162.984 876.308C162.732 876.378 162.584 876.641 162.654 876.894C162.724 877.148 162.984 877.296 163.236 877.226C163.487 877.156 163.635 876.894 163.565 876.64Z" fill="#6CA3C4"/>
</g>
</g>
<path id="Vector_68" d="M193.422 893.687C193.548 893.753 193.644 893.817 193.752 893.887C193.853 893.958 193.951 894.034 194.048 894.111C194.241 894.267 194.416 894.441 194.586 894.622C194.919 894.988 195.209 895.397 195.451 895.834C195.936 896.708 196.218 897.695 196.314 898.686C196.363 899.183 196.359 899.68 196.325 900.172C196.296 900.416 196.279 900.662 196.231 900.902C196.209 901.022 196.19 901.143 196.165 901.262L196.08 901.617C195.838 902.557 195.461 903.449 194.923 904.238C194.833 904.369 194.656 904.402 194.526 904.313C194.435 904.25 194.392 904.145 194.404 904.042L194.404 904.04C194.51 903.121 194.633 902.246 194.688 901.383C194.727 900.953 194.728 900.526 194.735 900.104C194.726 899.683 194.715 899.265 194.669 898.852C194.58 898.026 194.419 897.216 194.151 896.426C194.019 896.03 193.86 895.64 193.679 895.253C193.59 895.059 193.492 894.867 193.39 894.676C193.339 894.58 193.286 894.485 193.23 894.392C193.179 894.298 193.114 894.201 193.069 894.118L193.046 894.077C192.97 893.94 193.018 893.767 193.154 893.691C193.24 893.643 193.341 893.645 193.422 893.687Z" fill="#447093"/>
</g>
</g>
<g id="Frame 704">
<path id="Polygon 13" d="M711.122 877.33C714.455 875.406 714.455 870.594 711.122 868.67L665.5 842.33C662.167 840.406 658 842.811 658 846.66L658 899.34C658 903.189 662.167 905.594 665.5 903.67L711.122 877.33Z" fill="#CA6AB7"/>
<g id="Assista ao v&#195;&#173;deo com os principais marcos de 0 a 3 meses clicando aqui">
<text fill="black" xml:space="preserve" style="white-space: pre" font-family="Open Sans" font-size="18" letter-spacing="0em"><tspan x="765.622" y="865.483">Assista ao v&#xed;deo com os principais </tspan><tspan x="765.622" y="890.483">marcos de 0 a 3 meses </tspan></text>
<text fill="black" xml:space="preserve" style="white-space: pre" font-family="Open Sans" font-size="18" font-style="italic" font-weight="600" letter-spacing="0em" text-decoration="underline"><tspan x="961.513" y="890.483"><a href="https://youtu.be/Y4WEqfNb954?si=lKYneroDtyeWBCaJ">clicando aqui&#10;</a></tspan></text>
</g>
</g>
</g>
<defs>
<filter id="filter0_d_2096_1347" x="254" y="0" width="902" height="160" filterUnits="userSpaceOnUse" color-interpolation-filters="sRGB">
<feFlood flood-opacity="0" result="BackgroundImageFix"/>
<feColorMatrix in="SourceAlpha" type="matrix" values="0 0 0 0 0 0 0 0 0 0 0 0 0 0 0 0 0 0 127 0" result="hardAlpha"/>
<feOffset dx="4" dy="4"/>
<feGaussianBlur stdDeviation="4"/>
<feComposite in2="hardAlpha" operator="out"/>
<feColorMatrix type="matrix" values="0 0 0 0 0 0 0 0 0 0 0 0 0 0 0 0 0 0 0.25 0"/>
<feBlend mode="normal" in2="BackgroundImageFix" result="effect1_dropShadow_2096_1347"/>
<feBlend mode="normal" in="SourceGraphic" in2="effect1_dropShadow_2096_1347" result="shape"/>
</filter>
<filter id="filter1_d_2096_1347" x="0" y="0" width="345.637" height="160" filterUnits="userSpaceOnUse" color-interpolation-filters="sRGB">
<feFlood flood-opacity="0" result="BackgroundImageFix"/>
<feColorMatrix in="SourceAlpha" type="matrix" values="0 0 0 0 0 0 0 0 0 0 0 0 0 0 0 0 0 0 127 0" result="hardAlpha"/>
<feOffset dx="4" dy="4"/>
<feGaussianBlur stdDeviation="4"/>
<feComposite in2="hardAlpha" operator="out"/>
<feColorMatrix type="matrix" values="0 0 0 0 0 0 0 0 0 0 0 0 0 0 0 0 0 0 0.25 0"/>
<feBlend mode="normal" in2="BackgroundImageFix" result="effect1_dropShadow_2096_1347"/>
<feBlend mode="normal" in="SourceGraphic" in2="effect1_dropShadow_2096_1347" result="shape"/>
</filter>
<filter id="filter2_d_2096_1347" x="254" y="160" width="902" height="160" filterUnits="userSpaceOnUse" color-interpolation-filters="sRGB">
<feFlood flood-opacity="0" result="BackgroundImageFix"/>
<feColorMatrix in="SourceAlpha" type="matrix" values="0 0 0 0 0 0 0 0 0 0 0 0 0 0 0 0 0 0 127 0" result="hardAlpha"/>
<feOffset dx="4" dy="4"/>
<feGaussianBlur stdDeviation="4"/>
<feComposite in2="hardAlpha" operator="out"/>
<feColorMatrix type="matrix" values="0 0 0 0 0 0 0 0 0 0 0 0 0 0 0 0 0 0 0.25 0"/>
<feBlend mode="normal" in2="BackgroundImageFix" result="effect1_dropShadow_2096_1347"/>
<feBlend mode="normal" in="SourceGraphic" in2="effect1_dropShadow_2096_1347" result="shape"/>
</filter>
<filter id="filter3_d_2096_1347" x="0" y="160" width="345.637" height="160" filterUnits="userSpaceOnUse" color-interpolation-filters="sRGB">
<feFlood flood-opacity="0" result="BackgroundImageFix"/>
<feColorMatrix in="SourceAlpha" type="matrix" values="0 0 0 0 0 0 0 0 0 0 0 0 0 0 0 0 0 0 127 0" result="hardAlpha"/>
<feOffset dx="4" dy="4"/>
<feGaussianBlur stdDeviation="4"/>
<feComposite in2="hardAlpha" operator="out"/>
<feColorMatrix type="matrix" values="0 0 0 0 0 0 0 0 0 0 0 0 0 0 0 0 0 0 0.25 0"/>
<feBlend mode="normal" in2="BackgroundImageFix" result="effect1_dropShadow_2096_1347"/>
<feBlend mode="normal" in="SourceGraphic" in2="effect1_dropShadow_2096_1347" result="shape"/>
</filter>
<filter id="filter4_d_2096_1347" x="254" y="320" width="902" height="160" filterUnits="userSpaceOnUse" color-interpolation-filters="sRGB">
<feFlood flood-opacity="0" result="BackgroundImageFix"/>
<feColorMatrix in="SourceAlpha" type="matrix" values="0 0 0 0 0 0 0 0 0 0 0 0 0 0 0 0 0 0 127 0" result="hardAlpha"/>
<feOffset dx="4" dy="4"/>
<feGaussianBlur stdDeviation="4"/>
<feComposite in2="hardAlpha" operator="out"/>
<feColorMatrix type="matrix" values="0 0 0 0 0 0 0 0 0 0 0 0 0 0 0 0 0 0 0.25 0"/>
<feBlend mode="normal" in2="BackgroundImageFix" result="effect1_dropShadow_2096_1347"/>
<feBlend mode="normal" in="SourceGraphic" in2="effect1_dropShadow_2096_1347" result="shape"/>
</filter>
<filter id="filter5_d_2096_1347" x="0" y="320" width="345.637" height="160" filterUnits="userSpaceOnUse" color-interpolation-filters="sRGB">
<feFlood flood-opacity="0" result="BackgroundImageFix"/>
<feColorMatrix in="SourceAlpha" type="matrix" values="0 0 0 0 0 0 0 0 0 0 0 0 0 0 0 0 0 0 127 0" result="hardAlpha"/>
<feOffset dx="4" dy="4"/>
<feGaussianBlur stdDeviation="4"/>
<feComposite in2="hardAlpha" operator="out"/>
<feColorMatrix type="matrix" values="0 0 0 0 0 0 0 0 0 0 0 0 0 0 0 0 0 0 0.25 0"/>
<feBlend mode="normal" in2="BackgroundImageFix" result="effect1_dropShadow_2096_1347"/>
<feBlend mode="normal" in="SourceGraphic" in2="effect1_dropShadow_2096_1347" result="shape"/>
</filter>
<filter id="filter6_d_2096_1347" x="254" y="480" width="902" height="160" filterUnits="userSpaceOnUse" color-interpolation-filters="sRGB">
<feFlood flood-opacity="0" result="BackgroundImageFix"/>
<feColorMatrix in="SourceAlpha" type="matrix" values="0 0 0 0 0 0 0 0 0 0 0 0 0 0 0 0 0 0 127 0" result="hardAlpha"/>
<feOffset dx="4" dy="4"/>
<feGaussianBlur stdDeviation="4"/>
<feComposite in2="hardAlpha" operator="out"/>
<feColorMatrix type="matrix" values="0 0 0 0 0 0 0 0 0 0 0 0 0 0 0 0 0 0 0.25 0"/>
<feBlend mode="normal" in2="BackgroundImageFix" result="effect1_dropShadow_2096_1347"/>
<feBlend mode="normal" in="SourceGraphic" in2="effect1_dropShadow_2096_1347" result="shape"/>
</filter>
<filter id="filter7_d_2096_1347" x="0" y="480" width="345.637" height="160" filterUnits="userSpaceOnUse" color-interpolation-filters="sRGB">
<feFlood flood-opacity="0" result="BackgroundImageFix"/>
<feColorMatrix in="SourceAlpha" type="matrix" values="0 0 0 0 0 0 0 0 0 0 0 0 0 0 0 0 0 0 127 0" result="hardAlpha"/>
<feOffset dx="4" dy="4"/>
<feGaussianBlur stdDeviation="4"/>
<feComposite in2="hardAlpha" operator="out"/>
<feColorMatrix type="matrix" values="0 0 0 0 0 0 0 0 0 0 0 0 0 0 0 0 0 0 0.25 0"/>
<feBlend mode="normal" in2="BackgroundImageFix" result="effect1_dropShadow_2096_1347"/>
<feBlend mode="normal" in="SourceGraphic" in2="effect1_dropShadow_2096_1347" result="shape"/>
</filter>
<filter id="filter8_d_2096_1347" x="254" y="640" width="902" height="160" filterUnits="userSpaceOnUse" color-interpolation-filters="sRGB">
<feFlood flood-opacity="0" result="BackgroundImageFix"/>
<feColorMatrix in="SourceAlpha" type="matrix" values="0 0 0 0 0 0 0 0 0 0 0 0 0 0 0 0 0 0 127 0" result="hardAlpha"/>
<feOffset dx="4" dy="4"/>
<feGaussianBlur stdDeviation="4"/>
<feComposite in2="hardAlpha" operator="out"/>
<feColorMatrix type="matrix" values="0 0 0 0 0 0 0 0 0 0 0 0 0 0 0 0 0 0 0.25 0"/>
<feBlend mode="normal" in2="BackgroundImageFix" result="effect1_dropShadow_2096_1347"/>
<feBlend mode="normal" in="SourceGraphic" in2="effect1_dropShadow_2096_1347" result="shape"/>
</filter>
<filter id="filter9_d_2096_1347" x="0" y="800" width="579" height="160" filterUnits="userSpaceOnUse" color-interpolation-filters="sRGB">
<feFlood flood-opacity="0" result="BackgroundImageFix"/>
<feColorMatrix in="SourceAlpha" type="matrix" values="0 0 0 0 0 0 0 0 0 0 0 0 0 0 0 0 0 0 127 0" result="hardAlpha"/>
<feOffset dx="4" dy="4"/>
<feGaussianBlur stdDeviation="4"/>
<feComposite in2="hardAlpha" operator="out"/>
<feColorMatrix type="matrix" values="0 0 0 0 0 0 0 0 0 0 0 0 0 0 0 0 0 0 0.25 0"/>
<feBlend mode="normal" in2="BackgroundImageFix" result="effect1_dropShadow_2096_1347"/>
<feBlend mode="normal" in="SourceGraphic" in2="effect1_dropShadow_2096_1347" result="shape"/>
</filter>
<filter id="filter10_d_2096_1347" x="577" y="800" width="579" height="160" filterUnits="userSpaceOnUse" color-interpolation-filters="sRGB">
<feFlood flood-opacity="0" result="BackgroundImageFix"/>
<feColorMatrix in="SourceAlpha" type="matrix" values="0 0 0 0 0 0 0 0 0 0 0 0 0 0 0 0 0 0 127 0" result="hardAlpha"/>
<feOffset dx="4" dy="4"/>
<feGaussianBlur stdDeviation="4"/>
<feComposite in2="hardAlpha" operator="out"/>
<feColorMatrix type="matrix" values="0 0 0 0 0 0 0 0 0 0 0 0 0 0 0 0 0 0 0.25 0"/>
<feBlend mode="normal" in2="BackgroundImageFix" result="effect1_dropShadow_2096_1347"/>
<feBlend mode="normal" in="SourceGraphic" in2="effect1_dropShadow_2096_1347" result="shape"/>
</filter>
<filter id="filter11_d_2096_1347" x="0" y="640" width="345.637" height="160" filterUnits="userSpaceOnUse" color-interpolation-filters="sRGB">
<feFlood flood-opacity="0" result="BackgroundImageFix"/>
<feColorMatrix in="SourceAlpha" type="matrix" values="0 0 0 0 0 0 0 0 0 0 0 0 0 0 0 0 0 0 127 0" result="hardAlpha"/>
<feOffset dx="4" dy="4"/>
<feGaussianBlur stdDeviation="4"/>
<feComposite in2="hardAlpha" operator="out"/>
<feColorMatrix type="matrix" values="0 0 0 0 0 0 0 0 0 0 0 0 0 0 0 0 0 0 0.25 0"/>
<feBlend mode="normal" in2="BackgroundImageFix" result="effect1_dropShadow_2096_1347"/>
<feBlend mode="normal" in="SourceGraphic" in2="effect1_dropShadow_2096_1347" result="shape"/>
</filter>
<filter id="filter12_d_2096_1347" x="29" y="811" width="191" height="119" filterUnits="userSpaceOnUse" color-interpolation-filters="sRGB">
<feFlood flood-opacity="0" result="BackgroundImageFix"/>
<feColorMatrix in="SourceAlpha" type="matrix" values="0 0 0 0 0 0 0 0 0 0 0 0 0 0 0 0 0 0 127 0" result="hardAlpha"/>
<feOffset dx="2" dy="-2"/>
<feGaussianBlur stdDeviation="1"/>
<feComposite in2="hardAlpha" operator="out"/>
<feColorMatrix type="matrix" values="0 0 0 0 0 0 0 0 0 0 0 0 0 0 0 0 0 0 0.25 0"/>
<feBlend mode="normal" in2="BackgroundImageFix" result="effect1_dropShadow_2096_1347"/>
<feBlend mode="normal" in="SourceGraphic" in2="effect1_dropShadow_2096_1347" result="shape"/>
</filter>
<linearGradient id="paint0_linear_2096_1347" x1="55.7114" y1="4.00001" x2="288.289" y2="148" gradientUnits="userSpaceOnUse">
<stop stop-color="#E1A3D8"/>
<stop offset="1" stop-color="#EBE5EA"/>
</linearGradient>
<linearGradient id="paint1_linear_2096_1347" x1="187" y1="164" x2="25.5" y2="349" gradientUnits="userSpaceOnUse">
<stop stop-color="#E1A3D8"/>
<stop offset="1" stop-color="#EBE5EA"/>
</linearGradient>
<linearGradient id="paint2_linear_2096_1347" x1="158.745" y1="505.944" x2="125.255" y2="250.056" gradientUnits="userSpaceOnUse">
<stop stop-color="#E1A3D8"/>
<stop offset="1" stop-color="#EBE5EA"/>
</linearGradient>
<linearGradient id="paint3_linear_2096_1347" x1="105.832" y1="661.862" x2="178.168" y2="414.138" gradientUnits="userSpaceOnUse">
<stop stop-color="#E1A3D8"/>
<stop offset="1" stop-color="#EBE5EA"/>
</linearGradient>
<linearGradient id="paint4_linear_2096_1347" x1="199.137" y1="582.305" x2="84.8627" y2="813.695" gradientUnits="userSpaceOnUse">
<stop stop-color="#E1A3D8"/>
<stop offset="1" stop-color="#EBE5EA"/>
</linearGradient>
<clipPath id="clip0_2096_1347">
<rect width="48" height="48" fill="white" transform="translate(123 678)"/>
</clipPath>
<clipPath id="clip1_2096_1347">
<rect width="156" height="82" fill="white" transform="translate(45 838)"/>
</clipPath>
</defs>
</svg>
