<svg width="1156" height="960" viewBox="0 0 1156 960" fill="none" xmlns="http://www.w3.org/2000/svg">
<g id="Group 754">
<g id="Rectangle 173" filter="url(#filter0_d_2326_4909)">
<rect x="258" y="4" width="886" height="144" rx="15" fill="#F1F1F4"/>
</g>
<g id="Rectangle 175" filter="url(#filter1_d_2326_4909)">
<path d="M4 19C4 10.7157 10.7157 4 19 4H260.727C264.741 4 268.587 5.6085 271.405 8.4658L329.315 67.1691C335.192 73.1258 335.058 82.7387 329.019 88.53L271.352 143.827C268.559 146.505 264.84 148 260.97 148H19C10.7157 148 4 141.284 4 133V19Z" fill="url(#paint0_linear_2326_4909)"/>
</g>
<text id="Reflexos e movimenta&#195;&#167;&#195;&#181;es" fill="#292929" xml:space="preserve" style="white-space: pre" font-family="Open Sans" font-size="20" font-weight="600" letter-spacing="0em"><tspan x="97.8398" y="69.7588">Reflexos e </tspan><tspan x="70.0957" y="97.7588">movimenta&#xe7;&#xf5;es</tspan></text>
<text id="Reflexos: &#226;&#128;&#156;suc&#195;&#167;&#195;&#163;o&#226;&#128;&#157;, &#226;&#128;&#156;fuga-asfixia&#226;&#128;&#157; (se colocado em dec&#195;&#186;bito ventral, libera as vias a&#195;&#169;reas), sustenta&#195;&#167;&#195;&#163;o cef&#195;&#161;lica, ou seja, controle cervical (sustentar a cabe&#195;&#167;a deitada de barriga para baixo). Movimenta&#195;&#167;&#195;&#163;o predominantemente reflexa e assim&#195;&#169;trica." fill="#292929" xml:space="preserve" style="white-space: pre" font-family="Open Sans" font-size="18" letter-spacing="0em"><tspan x="368" y="57.4829">Reflexos: &#x201c;suc&#xe7;&#xe3;o&#x201d;, &#x201c;fuga-asfixia&#x201d; (se colocado em dec&#xfa;bito ventral, libera as vias a&#xe9;reas), </tspan><tspan x="368" y="82.4829">sustenta&#xe7;&#xe3;o cef&#xe1;lica, ou seja, controle cervical (sustentar a cabe&#xe7;a deitada de barriga </tspan><tspan x="368" y="107.483">para baixo). Movimenta&#xe7;&#xe3;o predominantemente reflexa e assim&#xe9;trica.</tspan></text>
<g id="Rectangle 180" filter="url(#filter2_d_2326_4909)">
<rect x="258" y="164" width="886" height="144" rx="15" fill="#F1F1F4"/>
</g>
<g id="Rectangle 181" filter="url(#filter3_d_2326_4909)">
<path d="M4 179C4 170.716 10.7157 164 19 164H260.727C264.741 164 268.587 165.608 271.405 168.466L329.315 227.169C335.192 233.126 335.058 242.739 329.019 248.53L271.352 303.827C268.559 306.505 264.84 308 260.97 308H19C10.7157 308 4 301.284 4 293V179Z" fill="url(#paint1_linear_2326_4909)"/>
</g>
<text id="Mobilidade" fill="#292929" xml:space="preserve" style="white-space: pre" font-family="Open Sans" font-size="20" font-weight="600" letter-spacing="0em"><tspan x="93.0449" y="243.759">Mobilidade</tspan></text>
<text id="Movimenta&#195;&#167;&#195;&#163;o dos quatro membros devem ser ativos, sendo que os membros superiores se movimentam em bloco e as m&#195;&#163;os podem se abrir (os polegares s&#195;&#163;o menos m&#195;&#179;veis, permanecendo contidos na m&#195;&#163;o). Os membros inferiores s&#195;&#163;o mais m&#195;&#179;veis, alternando flex&#195;&#181;es e extens&#195;&#181;es, movendo-os contra a a&#195;&#167;&#195;&#163;o da gravidade." fill="#292929" xml:space="preserve" style="white-space: pre" font-family="Open Sans" font-size="18" letter-spacing="0em"><tspan x="368" y="205.483">Movimenta&#xe7;&#xe3;o dos quatro membros devem ser ativos, sendo que os membros </tspan><tspan x="368" y="230.483">superiores se movimentam em bloco e as m&#xe3;os podem se abrir (os polegares s&#xe3;o </tspan><tspan x="368" y="255.483">menos m&#xf3;veis, permanecendo contidos na m&#xe3;o). Os membros inferiores s&#xe3;o mais </tspan><tspan x="368" y="280.483">m&#xf3;veis, alternando flex&#xf5;es e extens&#xf5;es, movendo-os contra a a&#xe7;&#xe3;o da gravidade.</tspan></text>
<g id="Rectangle 182" filter="url(#filter4_d_2326_4909)">
<rect x="258" y="324" width="886" height="144" rx="15" fill="#F1F1F4"/>
</g>
<g id="Rectangle 183" filter="url(#filter5_d_2326_4909)">
<path d="M4 339C4 330.716 10.7157 324 19 324H260.727C264.741 324 268.587 325.608 271.405 328.466L329.315 387.169C335.192 393.126 335.058 402.739 329.019 408.53L271.352 463.827C268.559 466.505 264.84 468 260.97 468H19C10.7157 468 4 461.284 4 453V339Z" fill="url(#paint2_linear_2326_4909)"/>
</g>
<text id="Apoio" fill="#292929" xml:space="preserve" style="white-space: pre" font-family="Open Sans" font-size="20" font-weight="600" letter-spacing="0em"><tspan x="119.158" y="403.759">Apoio</tspan></text>
<text id="Quando colocado de barriga para baixo come&#195;&#167;a a se apoiar com as m&#195;&#163;os e, at&#195;&#169; o final do primeiro trimestre, apoia-se nos antebra&#195;&#167;os, erguendo a cabe&#195;&#167;a a 45&#194;&#176; quando em dec&#195;&#186;bito ventral e realiza bem a contra&#195;&#167;&#195;&#163;o dos m&#195;&#186;sculos abdominais." fill="#292929" xml:space="preserve" style="white-space: pre" font-family="Open Sans" font-size="18" letter-spacing="0em"><tspan x="368" y="377.483">Quando colocado de barriga para baixo come&#xe7;a a se apoiar com as m&#xe3;os e, at&#xe9; o final </tspan><tspan x="368" y="402.483">do primeiro trimestre, apoia-se nos antebra&#xe7;os, erguendo a cabe&#xe7;a a 45&#xb0; quando em </tspan><tspan x="368" y="427.483">dec&#xfa;bito ventral e realiza bem a contra&#xe7;&#xe3;o dos m&#xfa;sculos abdominais.</tspan></text>
<g id="Rectangle 184" filter="url(#filter6_d_2326_4909)">
<rect x="258" y="484" width="886" height="144" rx="15" fill="#F1F1F4"/>
</g>
<g id="Rectangle 185" filter="url(#filter7_d_2326_4909)">
<path d="M4 499C4 490.716 10.7157 484 19 484H260.727C264.741 484 268.587 485.608 271.405 488.466L329.315 547.169C335.192 553.126 335.058 562.739 329.019 568.53L271.352 623.827C268.559 626.505 264.84 628 260.97 628H19C10.7157 628 4 621.284 4 613V499Z" fill="url(#paint3_linear_2326_4909)"/>
</g>
<text id="Amplitude da movimenta&#195;&#167;&#195;&#163;o" fill="#292929" xml:space="preserve" style="white-space: pre" font-family="Open Sans" font-size="20" font-weight="600" letter-spacing="0em"><tspan x="82.0977" y="549.759">Amplitude da </tspan><tspan x="74.9297" y="577.759">movimenta&#xe7;&#xe3;o</tspan></text>
<text id="Em dec&#195;&#186;bito dorsal, apresenta um aumento da amplitude e da movimenta&#195;&#167;&#195;&#163;o de membros superiores ao visualizar objetos." fill="#292929" xml:space="preserve" style="white-space: pre" font-family="Open Sans" font-size="18" letter-spacing="0em"><tspan x="368" y="547.483">Em dec&#xfa;bito dorsal, apresenta um aumento da amplitude e da movimenta&#xe7;&#xe3;o de </tspan><tspan x="368" y="572.483">membros superiores ao visualizar objetos.</tspan></text>
<g id="Rectangle 186" filter="url(#filter8_d_2326_4909)">
<rect x="258" y="644" width="886" height="144" rx="15" fill="#F1F1F4"/>
</g>
<g id="Rectangle 188" filter="url(#filter9_d_2326_4909)">
<rect x="4" y="804" width="563" height="144" rx="15" fill="#E1A3D8"/>
</g>
<g id="Rectangle 189" filter="url(#filter10_d_2326_4909)">
<rect x="581" y="804" width="563" height="144" rx="15" fill="#E1A3D8"/>
</g>
<g id="Rectangle 187" filter="url(#filter11_d_2326_4909)">
<path d="M4 659C4 650.716 10.7157 644 19 644H260.727C264.741 644 268.587 645.608 271.405 648.466L329.315 707.169C335.192 713.126 335.058 722.739 329.019 728.53L271.352 783.827C268.559 786.505 264.84 788 260.97 788H19C10.7157 788 4 781.284 4 773V659Z" fill="url(#paint4_linear_2326_4909)"/>
</g>
<text id="No final do primeiro trimestre, tenta levar objetos &#195;&#160; boca, mas ainda n&#195;&#163;o coordena a soltura. Os movimentos s&#195;&#163;o mais coordenados, menos bruscos e com amplitude melhor modulada." fill="#292929" xml:space="preserve" style="white-space: pre" font-family="Open Sans" font-size="18" letter-spacing="0em"><tspan x="368" y="697.483">No final do primeiro trimestre, tenta levar objetos &#xe0; boca, mas ainda n&#xe3;o coordena a </tspan><tspan x="368" y="722.483">soltura. Os movimentos s&#xe3;o mais coordenados, menos bruscos e com amplitude melhor </tspan><tspan x="368" y="747.483">modulada.</tspan></text>
<g id="Frame 703">
<g id="clarity:note-line" clip-path="url(#clip0_2326_4909)">
<path id="Vector" d="M160.332 718H130.999V688.667H148.625L151.292 686H130.999C130.291 686 129.613 686.281 129.113 686.781C128.613 687.281 128.332 687.959 128.332 688.667V718C128.332 718.707 128.613 719.386 129.113 719.886C129.613 720.386 130.291 720.667 130.999 720.667H160.332C161.039 720.667 161.718 720.386 162.218 719.886C162.718 719.386 162.999 718.707 162.999 718V698L160.332 700.667V718Z" fill="#434556"/>
<path id="Vector_2" d="M167.707 685.786L163.214 681.293C163.015 681.093 162.778 680.934 162.517 680.826C162.256 680.718 161.976 680.662 161.694 680.662C161.412 680.662 161.132 680.718 160.871 680.826C160.61 680.934 160.373 681.093 160.174 681.293L141.894 699.68L140.414 706.093C140.351 706.404 140.358 706.725 140.433 707.033C140.509 707.341 140.652 707.628 140.852 707.874C141.053 708.12 141.305 708.319 141.591 708.456C141.877 708.593 142.19 708.665 142.507 708.666C142.671 708.684 142.837 708.684 143.001 708.666L149.467 707.24L167.707 688.826C167.907 688.627 168.066 688.39 168.174 688.129C168.282 687.868 168.338 687.589 168.338 687.306C168.338 687.024 168.282 686.744 168.174 686.483C168.066 686.223 167.907 685.986 167.707 685.786ZM148.081 704.773L143.201 705.853L144.334 701.013L158.094 687.16L161.854 690.92L148.081 704.773ZM163.361 689.413L159.601 685.653L161.667 683.546L165.454 687.333L163.361 689.413Z" fill="#434556"/>
</g>
<text id="Lembrete!" fill="#292929" xml:space="preserve" style="white-space: pre" font-family="Open Sans" font-size="20" font-weight="600" letter-spacing="0em"><tspan x="97.4785" y="747.759">Lembrete!</tspan></text>
</g>
<text id="Vale lembrar que o t&#195;&#180;nus flexor aumenta com frio, desconforto e refluxo gastroesof&#195;&#161;gico, bastante frequente nessa fase da vida." fill="black" xml:space="preserve" style="white-space: pre" font-family="Open Sans" font-size="18" font-weight="600" letter-spacing="0em"><tspan x="251" y="845.483">Vale lembrar que o t&#xf4;nus flexor </tspan><tspan x="251" y="870.483">aumenta com frio, desconforto e </tspan><tspan x="251" y="895.483">refluxo gastroesof&#xe1;gico, bastante </tspan><tspan x="251" y="920.483">frequente nessa fase da vida.</tspan></text>
<g id="Vector_3" filter="url(#filter12_d_2326_4909)">
<path d="M190.288 877.133C187.875 877.133 185.542 877.472 183.327 878.093C186.74 873.737 188.78 868.256 188.78 862.296C188.78 848.12 177.269 836.628 163.068 836.628C156.458 836.628 150.431 839.121 145.876 843.214C145.959 842.376 146.003 841.527 146.003 840.668C146.003 826.492 134.491 815 120.291 815C106.091 815 94.5793 826.492 94.5793 840.668C94.5793 841.563 94.6256 842.446 94.7151 843.317C90.6279 840.583 85.7129 838.987 80.4236 838.987C66.2234 838.987 54.7118 850.479 54.7118 864.655C54.7118 868.1 55.3963 871.384 56.6291 874.385C55.9953 874.338 55.3574 874.307 54.7118 874.307C40.5115 874.307 29 885.799 29 899.975C29 914.151 40.5115 925.643 54.7118 925.643C61.9636 925.643 68.5096 922.641 73.184 917.82C77.7157 925.129 85.8161 930 95.0587 930C101.782 930 107.9 927.421 112.482 923.203C116.428 925.665 121.088 927.093 126.085 927.093C130.793 927.093 135.202 925.823 138.997 923.618C143.525 927.588 149.456 930 155.955 930C162.973 930 169.332 927.19 173.971 922.638C178.41 926.282 184.093 928.47 190.288 928.47C204.488 928.47 216 916.978 216 902.801C216 888.625 204.488 877.133 190.288 877.133Z" fill="#F8EBF6"/>
</g>
<g id="bebe-01 1" clip-path="url(#clip1_2326_4909)">
<g id="b7">
<path id="Vector_4" d="M187.396 891.014C190.243 887.34 195.365 893.254 198 895.589C201.099 898.336 201.001 902.554 197.309 906.364C194.841 908.912 190.093 905.299 189.075 899.637C188.641 897.223 185.291 893.731 187.396 891.014Z" fill="#5583A5"/>
<path id="Vector_5" d="M191.826 901.997C191.826 901.997 191.29 902.128 190.335 902.342C190.146 902.385 189.938 902.43 189.715 902.478C188.377 902.77 186.469 903.163 184.188 903.575C178.096 904.68 169.351 905.913 161.736 905.648C155.308 905.427 149.684 904.139 147.145 900.806C139.344 890.57 154.947 874.858 160.62 871.525C160.62 871.525 162.85 869.323 165.973 867.302C173.134 869.506 178.873 874.936 179.363 882.809C177.472 885.713 174.729 888.57 171.022 891.046C173.526 890.513 175.878 890.463 178.24 890.672C180.55 890.877 182.866 890.758 185.339 890.896C186.06 890.936 186.793 890.998 187.542 891.096C187.94 891.148 188.344 891.21 188.753 891.284L191.826 901.997Z" fill="#5583A5"/>
<path id="Vector_6" d="M187.335 896.046C186.307 895.965 185.758 892.696 185.34 890.896C186.061 890.937 186.794 890.999 187.543 891.096C187.503 894.574 188.557 896.141 187.335 896.046Z" fill="#447093"/>
<path id="Vector_7" d="M189.715 902.478C188.377 902.771 186.469 903.164 184.188 903.575C185.44 902.666 186.206 902.073 186.625 900.807C187.528 898.076 189.75 899.171 189.715 902.478Z" fill="#447093"/>
<path id="Vector_8" d="M126.105 886.285C126.105 886.285 119.485 903.425 111.684 907.71C107.203 910.171 82.1328 911.519 82.1328 911.519V903.187C82.1328 903.187 94.6625 898.426 100.1 895.807C105.537 893.189 108.374 882 108.374 882L126.105 886.285Z" fill="#5583A5"/>
<path id="Vector_9" d="M184.067 886.09C183.876 887.185 183.592 888.316 183.207 889.482C183.167 889.606 183.124 889.732 183.082 889.856C182.122 892.629 180.226 895.26 177.571 897.66C176.566 898.569 175.45 899.447 174.238 900.285V900.288C173.741 900.63 173.226 900.969 172.696 901.3C172.462 901.447 172.226 901.592 171.985 901.735C170.358 902.709 168.592 903.618 166.703 904.458C164.233 905.558 161.552 906.541 158.703 907.382C154.973 908.479 150.952 909.339 146.732 909.912C145.545 910.074 144.344 910.214 143.129 910.329C131.826 911.4 121.602 910.181 114.973 906.56C112.991 905.48 111.332 904.185 110.063 902.67C109.297 901.761 108.675 900.773 108.207 899.704C107.93 899.073 107.706 898.414 107.54 897.728C107.483 897.495 107.434 897.259 107.391 897.019C107.313 896.583 107.256 896.138 107.223 895.681C107.041 893.186 107.547 890.372 108.85 887.237C109.765 885.037 110.98 883.292 112.386 881.919C112.772 881.543 113.171 881.193 113.585 880.871C118.663 876.884 125.587 876.853 130.126 877.477C140.528 878.905 145.072 868.452 158.259 865.574C158.33 865.557 158.403 865.543 158.474 865.528C158.675 865.486 158.878 865.447 159.079 865.412C162.154 864.85 165.327 864.886 168.339 865.464C169.204 865.631 170.06 865.843 170.895 866.097C170.911 866.102 170.925 866.107 170.94 866.112C178.1 868.316 183.84 873.746 184.33 881.619C184.42 883.033 184.339 884.523 184.067 886.09Z" fill="#6CA3C4"/>
<path id="Vector_10" d="M112.385 881.919C112.385 881.931 112.385 881.945 112.383 881.957C112.118 887.468 108.877 893.11 107.319 895.534C107.286 895.584 107.253 895.634 107.222 895.681C107.217 895.61 107.213 895.538 107.21 895.467C107.069 893.025 107.584 890.282 108.849 887.237C109.756 885.052 110.962 883.316 112.357 881.947C112.366 881.938 112.376 881.928 112.385 881.919Z" fill="#FFAE85"/>
<path id="Vector_11" d="M81.8012 898.112C82.1577 898.59 82.4362 899.104 82.6357 899.646C82.6886 899.79 82.735 899.936 82.7763 900.081C82.7979 900.152 82.8166 900.224 82.8329 900.294C82.8467 900.345 82.8602 900.395 82.8687 900.445C82.8825 900.496 82.8908 900.546 82.8993 900.596C82.9149 900.658 82.925 900.72 82.9342 900.784C82.9448 900.836 82.9522 900.888 82.9572 900.939C82.9685 900.999 82.9756 901.062 82.9818 901.122C82.9864 901.149 82.9892 901.174 82.9896 901.199C83.0073 901.359 83.0165 901.52 83.0202 901.681C83.0239 901.71 83.0252 901.737 83.0227 901.763C83.0236 901.863 83.0245 901.963 83.0215 902.061C83.0211 902.133 83.0172 902.207 83.0135 902.28C83.013 902.352 83.0062 902.427 82.9981 902.498C82.9935 902.563 82.988 902.625 82.9793 902.687C82.9733 902.77 82.9607 902.855 82.9494 902.938C82.9368 903.033 82.9209 903.13 82.9018 903.227C82.8922 903.276 82.8816 903.327 82.8722 903.376C82.8554 903.464 82.8345 903.55 82.8136 903.635C82.803 903.681 82.7924 903.727 82.7798 903.771C82.7577 903.859 82.7336 903.946 82.7074 904.031C82.6936 904.078 82.6789 904.121 82.6653 904.168C82.6345 904.267 82.6017 904.366 82.5658 904.465C82.5254 904.578 82.4806 904.689 82.4348 904.802C82.3845 904.923 82.3321 905.043 82.2767 905.164C82.2213 905.286 82.1604 905.407 82.0986 905.525C81.5048 906.657 80.6326 907.709 79.5086 908.563C79.3569 908.679 79.2034 908.788 79.0476 908.891C78.7406 909.099 78.4266 909.285 78.1058 909.448C78.0353 909.486 77.9636 909.521 77.8919 909.555C77.8128 909.594 77.7347 909.631 77.6547 909.666C77.5747 909.702 77.4945 909.737 77.4134 909.769C77.3311 909.804 77.2511 909.834 77.1702 909.866C76.8258 909.998 76.4744 910.107 76.1237 910.19C76.0524 910.209 75.9823 910.225 75.9111 910.238C75.7325 910.278 75.5521 910.311 75.3758 910.336C75.3207 910.344 75.2655 910.353 75.2115 910.359C75.1309 910.37 75.0481 910.38 74.9666 910.388C74.8236 910.401 74.6784 910.412 74.5366 910.418C74.4837 910.422 74.4297 910.423 74.3789 910.423C74.2785 910.426 74.179 910.427 74.0818 910.424C74.0278 910.425 73.9749 910.423 73.92 910.421C73.2236 910.398 72.5473 910.281 71.91 910.069C70.7194 909.678 69.6723 908.962 68.8965 907.934C67.2032 905.677 67.3176 902.542 68.9204 899.964C69.4917 899.043 70.2538 898.191 71.1916 897.479C71.9433 896.906 72.7484 896.467 73.5713 896.162C76.6495 895.012 79.991 895.696 81.8012 898.112Z" fill="#FFAE85"/>
<path id="Vector_12" d="M82.6358 899.646C82.6887 899.79 82.7351 899.936 82.7765 900.082C82.7981 900.153 82.8167 900.225 82.833 900.295C82.8468 900.346 82.8604 900.396 82.8689 900.446C82.8827 900.496 82.8909 900.547 82.8994 900.597C82.9151 900.659 82.9252 900.721 82.9344 900.785C82.9449 900.836 82.9523 900.889 82.9573 900.94C82.9686 901 82.9757 901.063 82.9819 901.122C82.9865 901.149 82.9893 901.175 82.9897 901.199C83.0074 901.359 83.0187 901.521 83.0203 901.681C83.024 901.71 83.0254 901.738 83.0228 901.763C83.0238 901.864 83.0247 901.964 83.0217 902.062C83.0212 902.134 83.0173 902.207 83.0136 902.281C83.0132 902.353 83.0063 902.427 82.9982 902.499C82.9937 902.564 82.9881 902.625 82.9794 902.688C82.9734 902.771 82.9608 902.856 82.9495 902.938C82.9369 903.034 82.921 903.13 82.902 903.228C82.8923 903.277 82.8817 903.328 82.8723 903.376C82.8555 903.464 82.8346 903.55 82.8137 903.636C82.8031 903.682 82.7926 903.727 82.7799 903.772C82.7579 903.86 82.7337 903.946 82.7075 904.032C82.6937 904.079 82.679 904.122 82.6655 904.169C82.6347 904.268 82.6018 904.366 82.566 904.466C82.5255 904.579 82.4807 904.689 82.435 904.802C82.3846 904.923 82.3322 905.044 82.2768 905.165C82.2215 905.286 82.1606 905.407 82.0987 905.525C81.5049 906.658 80.6328 907.71 79.5087 908.563C79.3571 908.679 79.2035 908.789 79.0477 908.892C78.7407 909.1 78.4268 909.286 78.1059 909.449C78.0354 909.487 77.9637 909.521 77.892 909.556C77.8129 909.595 77.7348 909.631 77.6548 909.667C77.5748 909.702 77.4946 909.738 77.4135 909.77C77.3312 909.804 77.2513 909.835 77.1704 909.867C76.8259 909.999 76.4745 910.108 76.1238 910.191C76.0526 910.209 75.9825 910.226 75.9112 910.239C75.7327 910.279 75.5523 910.312 75.376 910.337C75.3208 910.345 75.2657 910.353 75.2117 910.36C75.131 910.371 75.0483 910.381 74.9667 910.388C74.8237 910.401 74.6785 910.413 74.5367 910.418C74.4838 910.422 74.4298 910.423 74.3791 910.423C74.2786 910.426 74.1791 910.428 74.0819 910.424C74.0279 910.425 73.975 910.424 73.9201 910.422C73.2238 910.399 72.5474 910.282 71.9102 910.069C72.0876 908.686 72.4068 907.485 72.8273 906.444C73.3998 905.03 74.1616 903.909 75.0133 903.019C76.549 901.42 78.3792 900.571 79.9406 900.122C80.1258 900.07 80.3076 900.024 80.4829 899.98C81.3546 899.77 82.1116 899.683 82.6358 899.646Z" fill="#FF9D72"/>
<path id="Vector_13" d="M80.0843 900.136C79.6194 900.08 79.1812 900.1 78.7326 900.153C78.2872 900.209 77.8459 900.309 77.4139 900.448C76.5535 900.733 75.7326 901.19 75.044 901.81C74.6961 902.115 74.3865 902.464 74.1165 902.838C73.8382 903.207 73.6183 903.615 73.4287 904.03C73.0612 904.868 72.8542 905.759 72.8128 906.645C72.8061 906.789 72.9167 906.911 73.0596 906.918C73.1812 906.924 73.2871 906.844 73.3204 906.732L73.3211 906.73C73.5606 905.921 73.8543 905.149 74.248 904.447C74.6465 903.748 75.142 903.123 75.7367 902.606C76.3352 902.095 77.0136 901.675 77.7529 901.36C78.4858 901.041 79.2878 900.806 80.0811 900.655L80.1016 900.651C80.242 900.625 80.3344 900.488 80.3079 900.347C80.2866 900.232 80.1935 900.149 80.0843 900.136Z" fill="#F48351"/>
<path id="Vector_14" d="M107.54 897.728C106.485 898.663 106.221 896.171 106.722 894.855C107.611 892.519 107.547 890.372 108.849 887.237C109.764 885.037 111.672 884.21 111.686 882.237C111.696 880.89 113.341 879.619 113.584 880.871C113.8 884.432 112.996 890.389 107.54 897.728Z" fill="#7CB4D1"/>
<path id="Vector_15" d="M73.5729 896.162L80.4845 899.979L81.6913 900.645L83.0233 902.061C83.0228 902.134 83.0189 902.207 83.0152 902.28C83.0148 902.353 83.0079 902.427 82.9998 902.498C82.9953 902.563 82.9897 902.625 82.981 902.687C82.975 902.77 82.9624 902.855 82.9511 902.938C82.9385 903.034 82.9226 903.13 82.9036 903.228C82.8939 903.277 82.8833 903.328 82.8739 903.376C82.8571 903.464 82.8362 903.55 82.8153 903.636C82.8047 903.681 82.7942 903.727 82.7815 903.771C82.7595 903.859 82.7353 903.946 82.7091 904.032C82.6953 904.078 82.6806 904.122 82.6671 904.168C82.6363 904.268 82.6034 904.366 82.5676 904.465C82.5271 904.578 82.4823 904.689 82.4366 904.802C82.3862 904.923 82.3338 905.044 82.2785 905.165C82.2231 905.286 82.1622 905.407 82.1003 905.525C81.5065 906.658 80.6344 907.709 79.5103 908.563C79.3587 908.679 79.2051 908.788 79.0493 908.891C78.6564 906.47 77.0925 904.583 75.1878 903.147C75.1317 903.101 75.0733 903.06 75.0149 903.018C74.7934 902.854 74.5705 902.698 74.342 902.547C72.5001 901.334 70.4701 900.494 68.9219 899.964C69.4932 899.043 70.2553 898.191 71.1931 897.478C71.9449 896.906 72.7497 896.468 73.5729 896.162Z" fill="#FF9D72"/>
<path id="Vector_16" d="M79.0499 908.891C79.0499 908.891 79.0499 908.891 79.0499 908.891C79.2057 908.788 79.3592 908.679 79.5109 908.563C80.6349 907.709 81.5071 906.658 82.1009 905.525C82.1627 905.407 82.2237 905.286 82.279 905.165C82.3344 905.043 82.3868 904.923 82.4371 904.802C82.4829 904.689 82.5277 904.578 82.5681 904.465C82.604 904.366 82.6369 904.268 82.6677 904.168C82.6812 904.121 82.6959 904.078 82.7097 904.032C82.7359 903.946 82.76 903.859 82.7821 903.771C82.7947 903.727 82.8053 903.681 82.8159 903.636C82.8368 903.55 82.8577 903.464 82.8745 903.376C82.8839 903.327 82.8945 903.277 82.9041 903.228C82.9232 903.13 82.9391 903.034 82.9517 902.938C82.963 902.855 82.9756 902.77 82.9816 902.687C82.9903 902.625 82.9958 902.563 83.0004 902.498C83.0085 902.427 83.0154 902.353 83.0158 902.28C83.0195 902.207 83.0234 902.134 83.0238 902.061L81.6919 900.645L80.4851 899.98C80.3098 900.023 80.1279 900.07 79.9427 900.122C78.3814 900.57 76.5512 901.42 75.0156 903.018C75.0739 903.06 75.1323 903.102 75.1883 903.148C77.093 904.583 78.6568 906.47 79.0499 908.891Z" fill="#FF8B5F"/>
<path id="Vector_17" d="M112.382 881.957C112.117 887.468 108.876 893.11 107.318 895.533L107.209 895.467L106.013 894.748L102.753 892.786L101.848 892.243L103.443 879.767L106.968 880.595L111.725 881.714L112.356 881.947L112.382 881.957Z" fill="#FFAE85"/>
<path id="Vector_18" d="M111.727 881.715C110.435 887.85 107.802 892.286 106.013 894.749L102.754 892.787L106.969 880.597L111.727 881.715Z" fill="#FF9265"/>
<path id="Vector_19" d="M111.664 875.862C110.179 885.665 105.203 895.516 98.8481 901.399C95.4935 904.503 91.7535 906.505 87.9402 906.805C84.8527 907.053 81.718 906.186 78.6989 903.894C78.6564 903.86 78.6114 903.827 78.5689 903.794C72.7792 899.311 66.5971 897.783 61.4033 894.369C60.8667 894.017 60.3418 893.643 59.8266 893.245C57.9283 891.776 56.1907 889.955 54.699 887.518C54.6753 887.479 54.6516 887.442 54.628 887.401C45.5216 872.358 55.6139 842.922 77.1884 839.741C78.03 839.618 78.8906 839.563 79.7699 839.575C80.1599 839.58 80.5524 839.594 80.9447 839.623C81.2283 839.644 81.5121 839.668 81.8005 839.704C83.5356 839.901 85.3254 840.33 87.1221 840.956C91.0843 842.336 95.0842 844.686 98.6825 847.705C99.855 848.685 100.985 849.738 102.056 850.854C103.41 852.263 104.67 853.768 105.808 855.349C106.604 856.458 107.34 857.601 108.006 858.777C111.009 864.083 112.552 870.001 111.664 875.862Z" fill="#FFAE85"/>
<path id="Vector_20" d="M85.1231 886.497L86.844 887.368L87.0618 888.056C87.0377 888.135 87.0069 888.247 86.983 888.346C86.957 888.448 86.9324 888.551 86.9108 888.655C86.8672 888.863 86.8325 889.072 86.8088 889.28C86.7566 889.695 86.7426 890.11 86.7946 890.496C86.8479 890.881 86.9561 891.237 87.148 891.517C87.3362 891.799 87.6035 892.016 87.9429 892.161C88.2734 892.31 88.6115 892.354 88.9686 892.292C89.3257 892.235 89.6868 892.064 90.032 891.841C90.3769 891.615 90.7014 891.33 91.0015 891.015C91.3056 890.707 91.5912 890.353 91.8394 890.007L91.8489 889.994C91.9504 889.853 92.1469 889.821 92.2876 889.923C92.4135 890.015 92.4519 890.183 92.3855 890.319C92.2738 890.548 92.158 890.749 92.0281 890.954C91.8999 891.157 91.7631 891.356 91.617 891.549C91.3191 891.931 90.9845 892.293 90.5904 892.612C90.1976 892.93 89.7307 893.198 89.1901 893.334C88.6528 893.471 88.039 893.431 87.5228 893.227C87.0113 893.037 86.5094 892.687 86.1731 892.21C85.833 891.736 85.6556 891.187 85.586 890.663C85.5143 890.135 85.5313 889.62 85.5947 889.122C85.6294 888.873 85.6761 888.629 85.7333 888.387C85.762 888.266 85.7928 888.145 85.8275 888.026C85.8645 887.903 85.8987 887.794 85.9495 887.655L86.1672 888.343L84.7639 887.015C84.6364 886.894 84.6302 886.692 84.7501 886.563C84.848 886.458 85.0009 886.435 85.1231 886.497Z" fill="#F48351"/>
<path id="Vector_21" d="M77.1403 889.456C77.6852 890.262 76.5336 893.364 75.9602 896.52C75.5732 898.65 74.4147 897.656 73.9871 895.471C73.3994 892.466 75.5158 887.055 77.1403 889.456Z" fill="#FF9D72"/>
<path id="Vector_22" d="M83.3552 877.605C84.3266 877.597 86.2463 874.841 88.5345 872.539C90.0791 870.985 88.6085 870.587 86.5613 871.49C83.7477 872.731 80.4589 877.629 83.3552 877.605Z" fill="#FF9D72"/>
<path id="Vector_23" d="M76.5179 889.113C77.0745 889.896 76.0084 892.835 75.5145 895.839C75.1813 897.867 74.0138 896.89 73.5414 894.79C72.8917 891.904 74.858 886.778 76.5179 889.113Z" fill="#F4DB9D"/>
<path id="Vector_24" d="M82.7207 877.285C83.6768 877.306 85.4854 874.762 87.6707 872.657C89.1457 871.236 87.6861 870.816 85.6975 871.607C82.9641 872.695 79.8701 877.221 82.7207 877.285Z" fill="#F4DB9D"/>
<path id="Vector_25" d="M93.4743 895.887C93.6136 895.773 93.7776 895.641 93.9247 895.513C94.0736 895.381 94.2239 895.254 94.3639 895.115C94.6484 894.844 94.9191 894.565 95.1669 894.271C95.6672 893.687 96.0783 893.054 96.3911 892.38C96.5501 892.044 96.6749 891.694 96.7802 891.336C96.893 890.979 96.9608 890.608 97.0249 890.232C97.138 889.476 97.161 888.688 97.1584 887.859V887.853C97.1578 887.652 97.3193 887.488 97.519 887.487C97.6668 887.487 97.7943 887.576 97.8509 887.704C98.2075 888.514 98.384 889.414 98.3824 890.333C98.3774 891.252 98.1701 892.189 97.7693 893.033C97.3708 893.877 96.796 894.629 96.1109 895.227C95.7678 895.526 95.399 895.789 95.009 896.011C94.8127 896.119 94.6155 896.224 94.4087 896.312C94.1996 896.401 94.0008 896.477 93.762 896.54C93.5708 896.591 93.375 896.476 93.3244 896.284C93.2874 896.143 93.3389 895.999 93.4444 895.912L93.4743 895.887Z" fill="#F48351"/>
<g id="Group" opacity="0.3">
<path id="Vector_26" d="M98.5559 897.935C98.1684 897.169 98.1109 896.341 98.2015 895.527C98.2992 894.714 98.5832 893.931 98.9828 893.229L99.3069 892.72C99.4202 892.554 99.5491 892.402 99.676 892.249C99.9196 891.931 100.219 891.671 100.507 891.406C100.803 891.149 101.132 890.936 101.454 890.723C101.797 890.539 102.141 890.364 102.506 890.231C102.647 890.18 102.801 890.253 102.852 890.394C102.881 890.475 102.87 890.561 102.828 890.629L102.815 890.65C102.613 890.979 102.384 891.258 102.165 891.541C101.965 891.841 101.738 892.106 101.54 892.389C101.349 892.676 101.133 892.939 100.961 893.227C100.875 893.371 100.767 893.501 100.687 893.646C100.606 893.791 100.519 893.931 100.435 894.073C100.116 894.648 99.8292 895.231 99.5999 895.85C99.3703 896.464 99.1858 897.13 99.0594 897.813L99.05 897.863C99.0233 898.007 98.8854 898.102 98.7422 898.075C98.6593 898.06 98.5919 898.005 98.5559 897.935Z" fill="black"/>
</g>
<path id="Vector_27" d="M61.8752 847.662C61.485 846.958 60.189 844.893 57.7229 843.466C57.5053 843.34 57.6002 843.005 57.8509 843.021C59.5603 843.128 62.8981 843.672 63.8679 846.253C63.9042 846.35 63.8702 846.46 63.7888 846.524L62.2266 847.736C62.1117 847.825 61.9457 847.789 61.8752 847.662Z" fill="#F4DB9D"/>
<path id="Vector_28" d="M62.6213 846.859C62.9304 845.903 63.5107 843.55 62.8672 840.806C62.8155 840.585 63.0656 840.42 63.2414 840.561C64.359 841.457 66.6805 843.735 65.2564 846.301C65.2274 846.353 65.1789 846.393 65.1226 846.412L62.9226 847.157C62.7388 847.219 62.5611 847.044 62.6213 846.859Z" fill="#F4DB9D"/>
<path id="Vector_29" d="M98.6833 847.704C99.8556 848.686 100.985 849.738 102.055 850.853L98.9722 859.487C98.9722 859.487 95.0493 856.644 95.9081 852.384C96.1942 850.964 97.2141 848.054 98.6833 847.704Z" fill="#FF9D72"/>
<path id="Vector_30" opacity="0.7" d="M101.438 869.757C103.617 870.192 105.463 873.01 104.824 876.251C104.185 879.493 101.303 881.931 99.1236 881.495C96.9447 881.059 94.9591 877.932 95.598 874.691C96.2371 871.449 99.2585 869.321 101.438 869.757Z" fill="#F6896C"/>
<path id="Vector_31" opacity="0.7" d="M87.2477 897.078C85.8109 896.885 84.0478 897.368 82.7866 898.663C80.8685 900.633 80.8373 903.735 82.164 905.046C83.4907 906.356 86.2915 906.313 88.2097 904.343C90.128 902.373 90.4369 899.222 89.1101 897.912C88.656 897.463 87.996 897.179 87.2477 897.078Z" fill="#F6896C"/>
<path id="Vector_32" d="M98.6825 847.705C99.8548 848.686 100.984 849.739 102.054 850.854C103.409 852.263 104.67 853.769 105.806 855.35L103.96 858.641C92.0505 847.194 81.7767 847.924 81.7767 847.924L81.5859 842.169L81.7987 839.703C83.5361 839.903 85.3255 840.329 87.1222 840.956C91.0837 842.338 95.0845 844.686 98.6825 847.705Z" fill="#FF9D72"/>
<path id="Vector_33" d="M95.9082 852.384C95.9074 852.388 95.907 852.391 95.9062 852.395C97.3412 853.259 98.8431 854.289 100.39 855.516L102.055 850.854C100.985 849.738 99.8557 848.686 98.6834 847.704C97.2142 848.054 96.1943 850.964 95.9082 852.384Z" fill="#FF8B5F"/>
<path id="Vector_34" d="M84.9039 840.432C89.2008 847.024 78.519 856.689 78.519 856.689C77.036 871.245 68.1553 875.946 68.1553 875.946L72.6158 875.087C71.5276 887.36 65.1647 892.842 61.4045 894.369C60.8677 894.017 60.3419 893.643 59.8261 893.245C57.9283 891.776 56.1907 889.956 54.6992 887.518L80.9465 839.623C82.9505 839.768 82.8113 839.702 84.9039 840.432Z" fill="#FF9D72"/>
<path id="Vector_35" d="M84.9022 840.433C84.3127 840.227 83.9004 840.084 83.5674 839.982C82.9732 839.865 82.3829 839.77 81.7988 839.703L81.5859 842.169L81.7767 847.924C81.7767 847.924 82.9305 847.842 84.9109 848.164C86.0532 845.585 86.4513 842.809 84.9022 840.433Z" fill="#FF8B5F"/>
<path id="Vector_36" d="M84.5952 840C84.5952 840 87.9804 844.761 76.4017 855.643C76.4017 855.643 73.6866 869.24 63.3022 878.608C64.4527 879.621 67.0128 878.807 70.1932 877.152C70.3654 877.063 70.5655 877.201 70.5389 877.395C70.2684 879.353 68.9072 887.166 63.9896 890.932C61.6244 892.74 59.2764 893.384 57.0934 893.158C54.6054 892.901 52.3337 891.519 50.488 889.455C48.2069 886.907 46.578 883.314 46.011 879.516C45.8745 878.609 45.7984 877.694 45.7899 876.776C45.6897 867.183 54.2322 848.611 63.5357 845.495C63.5357 845.495 66.7791 840.971 72.5263 839.156C73.1643 838.954 73.8351 838.786 74.5358 838.663C76.1824 838.368 77.9941 838.314 79.9562 838.63C81.4192 838.863 82.9693 839.302 84.5952 840Z" fill="#F4DB9D"/>
<path id="Vector_37" d="M65.0564 886.604C64.9341 886.759 64.8119 886.89 64.6816 887.023C64.5526 887.156 64.4182 887.283 64.2785 887.404C63.9997 887.646 63.7078 887.875 63.3973 888.078C62.7787 888.486 62.1049 888.825 61.3874 889.052C59.9579 889.526 58.3741 889.557 56.9092 889.186C56.1747 889.003 55.4752 888.729 54.7936 888.396C54.6272 888.306 54.4638 888.209 54.2988 888.115L54.0522 887.973C53.9713 887.923 53.8954 887.865 53.8169 887.811L53.3499 887.482C53.2026 887.362 53.0573 887.238 52.913 887.113L52.6974 886.926L52.4977 886.721C52.3663 886.583 52.2288 886.45 52.1031 886.308C51.8639 886.012 51.6106 885.727 51.4056 885.407L51.2441 885.173L51.1636 885.056L51.0919 884.933L50.8063 884.443C50.7109 884.28 50.6364 884.107 50.551 883.939C50.4678 883.77 50.3827 883.602 50.3161 883.427L50.1028 882.906C50.0396 882.73 49.9835 882.552 49.9238 882.374L49.8358 882.109L49.762 881.839L49.6168 881.3L49.4998 880.756L49.4416 880.484L49.3964 880.211L49.307 879.664L49.2412 879.115C49.0719 877.65 49.0939 876.18 49.1999 874.727C49.4543 871.825 50.0987 868.968 51.2013 866.292C51.2438 866.189 51.3613 866.14 51.4638 866.183C51.5603 866.223 51.609 866.33 51.5789 866.429L51.5778 866.432C50.7387 869.147 50.2527 871.969 50.1325 874.785C50.0743 876.193 50.1122 877.603 50.3048 878.983L50.3772 879.5L50.4719 880.012L50.5195 880.267L50.579 880.52L50.698 881.024L50.8428 881.52L50.9157 881.767L51.0019 882.01C51.06 882.171 51.1145 882.333 51.1754 882.493L51.3728 882.965C51.4341 883.124 51.5123 883.275 51.5883 883.426C51.6665 883.576 51.7338 883.733 51.8205 883.878L52.0783 884.313L52.1424 884.422L52.2148 884.525L52.3596 884.731C52.5423 885.015 52.7682 885.262 52.9787 885.521C53.0899 885.646 53.2115 885.76 53.3269 885.88L53.502 886.058L53.6918 886.22L54.0701 886.545L54.4753 886.836C54.5433 886.884 54.6086 886.936 54.6791 886.98L54.8947 887.107C55.0388 887.191 55.1808 887.279 55.326 887.36L55.7795 887.575L56.0061 887.684L56.2414 887.774L56.7121 887.956C56.8692 888.016 57.0308 888.057 57.1903 888.109C57.8333 888.293 58.4954 888.39 59.1605 888.416C59.493 888.424 59.8274 888.416 60.1593 888.376C60.4913 888.34 60.823 888.287 61.1502 888.207C61.4782 888.13 61.8015 888.029 62.1184 887.906C62.4367 887.788 62.7495 887.649 63.0533 887.49C63.6577 887.174 64.2506 886.784 64.7578 886.335L64.767 886.327C64.8505 886.254 64.9773 886.262 65.0506 886.346C65.1152 886.419 65.1159 886.529 65.0564 886.604Z" fill="#F6E2B1"/>
<path id="Vector_38" d="M65.1788 883.191C64.5119 883.786 63.7062 884.191 62.8752 884.505C62.0366 884.803 61.1511 884.99 60.2452 885.032C59.3402 885.068 58.4117 884.958 57.5279 884.653C56.6422 884.357 55.8192 883.836 55.1573 883.167C54.4895 882.5 53.9876 881.694 53.6304 880.851C53.2623 880.008 53.0669 879.119 52.9366 878.238C52.705 876.468 52.7895 874.701 53.1028 872.992C53.1182 872.908 53.1984 872.852 53.2818 872.868C53.3549 872.881 53.4064 872.945 53.4075 873.018C53.4381 874.736 53.5348 876.441 53.8894 878.066C54.071 878.874 54.2983 879.669 54.6487 880.392C54.9919 881.117 55.4331 881.779 55.9831 882.323C56.5337 882.865 57.1875 883.292 57.9181 883.561C58.6457 883.835 59.4335 883.974 60.2367 884.005C61.841 884.035 63.5187 883.71 65.0005 882.94L65.006 882.937C65.0814 882.898 65.1742 882.928 65.2131 883.004C65.2464 883.068 65.2301 883.145 65.1788 883.191Z" fill="#F6E2B1"/>
<path id="Vector_39" d="M84.5956 839.999C84.5956 839.999 87.9808 844.76 76.4021 855.642C76.4021 855.642 73.687 869.239 63.3026 878.608C64.4531 879.62 67.0132 878.806 70.1936 877.151C70.3658 877.062 70.5659 877.201 70.5393 877.394C70.2688 879.353 68.9076 887.165 63.99 890.931C61.6248 892.74 59.2768 893.384 57.0938 893.157C60.0476 891.414 63.7478 888.716 65.3018 885.466C68.0729 879.671 58.5717 878.927 58.5717 878.927C58.5717 878.927 66.151 871.384 69.2364 865.215C74.7669 854.157 69.686 849.571 69.686 849.571C69.686 849.571 76.5967 852.706 79.3678 846.911C81.312 842.846 78.3941 839.774 74.5364 838.662C76.183 838.367 77.9947 838.313 79.9568 838.629C81.4196 838.863 82.9697 839.302 84.5956 839.999Z" fill="#F1D28B"/>
<path id="Vector_40" d="M108.006 858.777C111.009 864.084 112.553 870 111.664 875.862C110.179 885.665 105.203 895.516 98.8477 901.398C101.601 897.631 107.361 888.903 108.668 880.256C110.4 868.794 105.279 861.225 105.279 861.225L108.006 858.777Z" fill="#FF9D72"/>
<path id="Vector_41" d="M108.288 847.319C110.248 848.832 111.483 851.505 111.339 854.486C111.159 858.278 108.81 861.359 105.79 862.115C105.234 862.256 104.654 862.315 104.062 862.287C100.256 862.104 97.3444 858.313 97.5579 853.821C97.7723 849.328 101.029 845.833 104.837 846.018C106.118 846.081 107.296 846.55 108.288 847.319Z" fill="#FFAE85"/>
<path id="Vector_42" d="M108.286 847.318C110.246 848.831 111.48 851.504 111.337 854.485C111.156 858.277 108.808 861.358 105.788 862.114C104.572 860.036 101.537 853.37 108.286 847.318Z" fill="#FF9D72"/>
<path id="Vector_43" d="M104.75 859.718C104.442 859.363 104.211 858.987 104.001 858.584C103.796 858.182 103.629 857.759 103.499 857.321C103.248 856.445 103.16 855.505 103.279 854.583C103.333 854.121 103.445 853.667 103.599 853.231C103.745 852.792 103.955 852.379 104.189 851.987C104.669 851.209 105.282 850.534 105.985 850C106.1 849.913 106.263 849.936 106.349 850.051C106.422 850.149 106.417 850.282 106.343 850.373L106.342 850.375C105.813 851.03 105.346 851.71 104.992 852.433C104.644 853.159 104.411 853.923 104.323 854.709C104.242 855.495 104.28 856.297 104.438 857.089C104.59 857.878 104.85 858.678 105.173 859.422L105.182 859.442C105.239 859.573 105.179 859.727 105.048 859.785C104.943 859.832 104.822 859.801 104.75 859.718Z" fill="#F48351"/>
<path id="Vector_44" d="M90.8243 875.364C90.9137 875.522 90.9758 875.665 91.0351 875.821C91.0955 875.975 91.1398 876.132 91.181 876.292C91.2587 876.612 91.3019 876.943 91.3097 877.28C91.3228 877.951 91.1851 878.655 90.862 879.292C90.6991 879.609 90.4906 879.903 90.25 880.165C90.0082 880.426 89.7269 880.642 89.433 880.821C88.8373 881.17 88.1835 881.356 87.5368 881.36C87.3686 881.361 87.2314 881.224 87.2305 881.055C87.2298 880.948 87.2838 880.853 87.3661 880.798L87.3741 880.793C87.8735 880.462 88.3246 880.152 88.7034 879.803C89.0798 879.453 89.3749 879.069 89.6035 878.637C89.8274 878.202 89.9814 877.716 90.0806 877.19C90.1827 876.668 90.2286 876.094 90.2613 875.528L90.2631 875.496C90.2728 875.329 90.4148 875.202 90.5807 875.211C90.685 875.217 90.7754 875.279 90.8243 875.364Z" fill="#51321D"/>
<path id="Vector_45" d="M77.9726 895.638C78.454 895.344 78.9367 895.033 79.3464 894.698C79.7612 894.364 80.1156 893.999 80.3918 893.596C80.6635 893.19 80.8623 892.748 80.9933 892.248C81.1213 891.748 81.1826 891.201 81.2385 890.602L81.2392 890.595C81.2548 890.426 81.4035 890.302 81.5708 890.318C81.6767 890.328 81.7657 890.393 81.8121 890.481C82.112 891.058 82.2547 891.727 82.2283 892.42C82.2085 892.766 82.1511 893.117 82.035 893.455C81.9187 893.791 81.7581 894.115 81.5565 894.408C81.1498 894.994 80.5966 895.446 80.0012 895.749C79.7019 895.9 79.3915 896.017 79.0743 896.098C78.9148 896.136 78.756 896.171 78.5929 896.189C78.4281 896.209 78.2739 896.221 78.0928 896.216C77.9268 896.211 77.7961 896.071 77.8009 895.904C77.8039 895.799 77.8607 895.707 77.9439 895.655L77.9726 895.638Z" fill="#51321D"/>
<path id="Vector_46" d="M87.9405 906.805C84.853 907.053 81.7183 906.186 78.6992 903.894C78.8932 902.927 79.4061 901.785 80.7158 901.52C82.6072 901.14 86.4699 905.175 87.9405 906.805Z" fill="#FF9D72"/>
<path id="Vector_47" d="M81.3327 901.532C81.087 902.926 81.396 904.286 82.1646 905.045C83.1651 906.033 85.0037 906.251 86.6701 905.454C85.0959 903.848 82.8578 901.824 81.3327 901.532Z" fill="#F78261"/>
<path id="Vector_48" d="M72.8723 915.219C73.0623 916.995 78.2828 916.63 78.2828 916.63C78.2828 916.63 75.2711 917.848 75.5243 918.924C75.6271 919.36 76.3855 919.587 77.504 919.585C80.0912 919.581 84.6045 918.351 87.3814 915.599C87.6149 915.368 87.8383 915.126 88.0444 914.875L88.0125 913.012L87.9582 909.944C87.9582 909.944 87.767 909.665 87.4444 909.222C86.1075 907.402 82.507 902.792 80.6113 903.243C79.0049 903.625 81.4522 906.543 80.5086 907.337C79.5649 908.131 73.9715 906.41 73.7049 908.389C73.5126 909.82 77.9289 910.796 77.9289 910.796C77.9289 910.796 71.8565 910.129 71.5125 912.033C71.1843 913.855 77.4297 914.061 77.9689 914.075C77.498 914.083 72.7583 914.174 72.8723 915.219Z" fill="#FFAE85"/>
<path id="Vector_49" d="M198.444 915.567C194.739 917.433 191.47 917.104 189.432 915.043C188.966 914.571 188.564 914.012 188.236 913.365C188.169 913.229 188.103 913.091 188.042 912.948C187.992 912.834 187.94 912.715 187.883 912.591C186.732 910.058 184.384 905.83 185.127 903.252C185.231 902.883 185.401 902.547 185.644 902.257C185.852 902.009 186.115 901.793 186.439 901.614C186.593 901.528 186.76 901.45 186.942 901.383C190.153 900.193 192.437 904.468 194.588 905.621C199.633 908.32 201.605 913.974 198.444 915.567Z" fill="#6CA3C4"/>
<path id="Vector_50" d="M114.993 885.809C114.993 885.809 114.756 897.474 110.059 902.671C109.293 901.761 108.671 900.773 108.203 899.704C109.792 898.426 115.229 882 114.993 885.809Z" fill="#5991B6"/>
<path id="Vector_51" d="M158.699 907.382C153.922 908.789 148.666 909.803 143.125 910.329C131.822 911.401 121.598 910.182 114.969 906.561C119.014 900.505 123.761 895.246 128.231 894.855C130.243 894.679 131.777 898.188 129.886 903.664C128.206 908.528 131.304 909.139 136.505 908.901C141.706 908.663 143.834 906.997 143.834 903.902C143.834 900.807 148.562 886.285 158.255 886.285C163.338 886.285 159.591 899.536 158.699 907.382Z" fill="#5991B6"/>
<path id="Vector_52" d="M192.298 912.472C192.298 912.472 191.483 912.671 190.071 912.979C189.539 913.093 188.925 913.224 188.237 913.364C187.903 913.433 187.553 913.503 187.187 913.576C176.783 915.626 153.612 919.149 147.617 911.281C147.277 910.836 146.981 910.379 146.728 909.912C141.158 899.697 155.667 885.188 161.092 882C161.092 882 172.924 870.318 180.241 876.049C185.128 879.876 184.329 891.034 174.362 899.381C174.36 899.382 174.358 899.383 174.357 899.383C173.475 900.119 172.522 900.835 171.494 901.521C171.898 901.435 172.298 901.362 172.693 901.299C173.461 901.181 174.215 901.104 174.962 901.064C177.728 900.916 180.397 901.276 183.208 901.79C184.007 901.935 184.818 902.095 185.645 902.256C186.04 902.335 186.44 902.416 186.844 902.495C187.619 902.649 188.411 902.802 189.225 902.949L192.298 912.472Z" fill="#6CA3C4"/>
<path id="Vector_53" d="M131.542 891.284C131.542 891.284 129.011 909.283 120.904 912.948C109.32 918.185 87.5707 916.519 87.5707 916.519C85.6796 914.852 85.6796 910.091 87.5707 908.187C87.5707 908.187 102.569 905.714 107.665 902.473C112.157 899.616 113.812 887.713 113.812 887.713C114.521 883.19 118.724 884.088 122.432 884.496C126.599 884.955 130.792 887.253 131.542 891.284Z" fill="#6CA3C4"/>
<path id="Vector_54" d="M184.064 886.089C180.402 892.577 176.856 898.552 177.01 897.076C177.327 894.062 176.223 889.856 173.386 885.808C170.549 881.761 162.038 881.285 161.093 881.524C160.147 881.762 159.674 881.047 159.674 881.047C156.601 873.191 157.695 868.29 158.471 865.528C158.672 865.486 158.875 865.447 159.076 865.412C162.152 864.85 165.324 864.886 168.336 865.464C169.201 865.631 170.057 865.843 170.892 866.097C170.908 866.102 170.922 866.107 170.937 866.112C178.097 868.316 183.837 873.746 184.327 881.619C184.417 883.033 184.336 884.523 184.064 886.089Z" fill="#5991B6"/>
<path id="Vector_55" d="M172.692 901.299C173.46 901.18 174.215 901.104 174.962 901.064C175.985 901.045 172.919 902.059 171.966 902.235C169.949 902.607 167.773 902.788 166.321 902.874C166.045 902.891 165.97 902.5 166.232 902.411C169.343 901.356 172.574 900.217 174.356 899.383C174.358 899.383 174.36 899.382 174.361 899.38C175.704 898.752 176.758 898.164 177.567 897.659C176.562 898.569 175.446 899.447 174.234 900.285V900.287C173.737 900.63 173.222 900.968 172.692 901.299Z" fill="#5991B6"/>
<path id="Vector_56" d="M183.203 889.482C183.163 889.606 183.121 889.732 183.078 889.856C181.754 893.679 178.65 897.233 174.234 900.285C179.044 895.346 178.354 879.716 160.783 880.327C160.685 880.331 160.594 880.274 160.557 880.182C160.09 879.033 157.228 871.561 159.076 865.412C162.151 864.85 165.324 864.886 168.336 865.464C169.201 865.631 170.057 865.843 170.891 866.097C170.908 866.102 170.922 866.107 170.936 866.112C178.097 868.316 183.837 873.746 184.326 881.619C184.477 884.021 184.139 886.649 183.203 889.482Z" fill="#7CB4D1"/>
<path id="Vector_57" d="M190.171 914.376C190.025 914.995 189.935 915.567 189.433 915.043C188.968 914.571 188.566 914.012 188.237 913.365C187.904 913.434 187.554 913.503 187.188 913.577C187.431 913.284 187.667 912.955 187.885 912.591C188.537 911.502 189.028 910.08 189.022 908.266C189.022 908.025 189.338 907.936 189.46 908.143C190.053 909.148 190.908 911.267 190.171 914.376Z" fill="#5991B6"/>
<path id="Vector_58" d="M187.1 904.139C186.724 904.234 185.942 903.804 185.131 903.251C184.426 902.768 183.7 902.194 183.211 901.79C184.01 901.935 184.821 902.094 185.648 902.256C185.856 902.009 186.119 901.792 186.443 901.613C186.544 901.889 186.696 902.194 186.847 902.494C187.23 903.266 187.608 904.011 187.1 904.139Z" fill="#5991B6"/>
<path id="Vector_59" d="M164.876 877.477C164.876 878.397 164.135 879.143 163.221 879.143C162.307 879.143 161.566 878.397 161.566 877.477C161.566 876.557 162.307 875.811 163.221 875.811C164.135 875.811 164.876 876.557 164.876 877.477Z" fill="#69A4C6"/>
<g id="Group_2">
<g id="Group_3">
<path id="Vector_60" d="M163.781 875.936C164.495 876.51 164.612 877.559 164.042 878.278C163.472 878.997 162.431 879.116 161.717 878.541C161.002 877.967 160.885 876.919 161.455 876.199C162.025 875.48 163.066 875.362 163.781 875.936Z" fill="#CEE9FA"/>
<path id="Vector_61" d="M163.56 876.215C164.122 876.666 164.214 877.49 163.766 878.055C163.318 878.621 162.5 878.713 161.939 878.262C161.377 877.811 161.285 876.987 161.733 876.422C162.181 875.857 162.999 875.765 163.56 876.215Z" fill="#BADFF8"/>
</g>
<g id="Group_4">
<path id="Vector_62" d="M162.843 877.583C162.773 877.329 162.513 877.181 162.261 877.251C162.009 877.321 161.862 877.583 161.931 877.837C162.001 878.09 162.262 878.239 162.513 878.169C162.765 878.098 162.912 877.836 162.843 877.583Z" fill="#6CA3C4"/>
<path id="Vector_63" d="M163.565 876.64C163.496 876.387 163.235 876.238 162.984 876.308C162.732 876.378 162.584 876.641 162.654 876.894C162.724 877.148 162.984 877.296 163.236 877.226C163.487 877.156 163.635 876.894 163.565 876.64Z" fill="#6CA3C4"/>
</g>
</g>
<path id="Vector_64" d="M193.42 893.687C193.546 893.753 193.642 893.817 193.75 893.887C193.851 893.958 193.949 894.034 194.046 894.111C194.239 894.267 194.414 894.441 194.584 894.622C194.917 894.988 195.207 895.397 195.449 895.834C195.934 896.708 196.216 897.695 196.312 898.686C196.361 899.183 196.358 899.68 196.323 900.172C196.294 900.416 196.277 900.662 196.229 900.902C196.207 901.022 196.188 901.143 196.164 901.262L196.078 901.617C195.836 902.557 195.459 903.449 194.921 904.238C194.832 904.369 194.654 904.402 194.524 904.313C194.433 904.25 194.39 904.145 194.402 904.042L194.402 904.04C194.508 903.121 194.631 902.246 194.687 901.383C194.725 900.953 194.727 900.526 194.733 900.104C194.724 899.683 194.713 899.265 194.667 898.852C194.579 898.026 194.417 897.216 194.149 896.426C194.017 896.03 193.858 895.64 193.677 895.253C193.588 895.059 193.49 894.867 193.388 894.676C193.337 894.58 193.284 894.485 193.228 894.392C193.177 894.298 193.113 894.201 193.067 894.118L193.044 894.077C192.968 893.94 193.016 893.767 193.152 893.691C193.238 893.643 193.339 893.645 193.42 893.687Z" fill="#447093"/>
</g>
</g>
<g id="Frame 704">
<path id="Polygon 13" d="M711.121 877.33C714.454 875.406 714.454 870.594 711.121 868.67L665.499 842.33C662.166 840.406 657.999 842.811 657.999 846.66L657.999 899.34C657.999 903.189 662.166 905.594 665.499 903.67L711.121 877.33Z" fill="#CA6AB7"/>
<g id="Assista ao v&#195;&#173;deo com os principais marcos de 0 a 3 meses clicando aqui&#194;&#160;">
<text fill="black" xml:space="preserve" style="white-space: pre" font-family="Open Sans" font-size="18" letter-spacing="0em"><tspan x="765.621" y="865.483">Assista ao v&#xed;deo com os principais </tspan><tspan x="765.621" y="890.483">marcos de 0 a 3 meses </tspan></text>
<text fill="black" xml:space="preserve" style="white-space: pre" font-family="Open Sans" font-size="18" font-style="italic" font-weight="600" letter-spacing="0em" text-decoration="underline"><tspan x="961.512" y="890.483"><a href="https://youtu.be/Y4WEqfNb954?si=lKYneroDtyeWBCaJ">clicando aqui&#xa0;&#10;</a></tspan></text>
</g>
</g>
</g>
<defs>
<filter id="filter0_d_2326_4909" x="254" y="0" width="902" height="160" filterUnits="userSpaceOnUse" color-interpolation-filters="sRGB">
<feFlood flood-opacity="0" result="BackgroundImageFix"/>
<feColorMatrix in="SourceAlpha" type="matrix" values="0 0 0 0 0 0 0 0 0 0 0 0 0 0 0 0 0 0 127 0" result="hardAlpha"/>
<feOffset dx="4" dy="4"/>
<feGaussianBlur stdDeviation="4"/>
<feComposite in2="hardAlpha" operator="out"/>
<feColorMatrix type="matrix" values="0 0 0 0 0 0 0 0 0 0 0 0 0 0 0 0 0 0 0.25 0"/>
<feBlend mode="normal" in2="BackgroundImageFix" result="effect1_dropShadow_2326_4909"/>
<feBlend mode="normal" in="SourceGraphic" in2="effect1_dropShadow_2326_4909" result="shape"/>
</filter>
<filter id="filter1_d_2326_4909" x="0" y="0" width="345.637" height="160" filterUnits="userSpaceOnUse" color-interpolation-filters="sRGB">
<feFlood flood-opacity="0" result="BackgroundImageFix"/>
<feColorMatrix in="SourceAlpha" type="matrix" values="0 0 0 0 0 0 0 0 0 0 0 0 0 0 0 0 0 0 127 0" result="hardAlpha"/>
<feOffset dx="4" dy="4"/>
<feGaussianBlur stdDeviation="4"/>
<feComposite in2="hardAlpha" operator="out"/>
<feColorMatrix type="matrix" values="0 0 0 0 0 0 0 0 0 0 0 0 0 0 0 0 0 0 0.25 0"/>
<feBlend mode="normal" in2="BackgroundImageFix" result="effect1_dropShadow_2326_4909"/>
<feBlend mode="normal" in="SourceGraphic" in2="effect1_dropShadow_2326_4909" result="shape"/>
</filter>
<filter id="filter2_d_2326_4909" x="254" y="160" width="902" height="160" filterUnits="userSpaceOnUse" color-interpolation-filters="sRGB">
<feFlood flood-opacity="0" result="BackgroundImageFix"/>
<feColorMatrix in="SourceAlpha" type="matrix" values="0 0 0 0 0 0 0 0 0 0 0 0 0 0 0 0 0 0 127 0" result="hardAlpha"/>
<feOffset dx="4" dy="4"/>
<feGaussianBlur stdDeviation="4"/>
<feComposite in2="hardAlpha" operator="out"/>
<feColorMatrix type="matrix" values="0 0 0 0 0 0 0 0 0 0 0 0 0 0 0 0 0 0 0.25 0"/>
<feBlend mode="normal" in2="BackgroundImageFix" result="effect1_dropShadow_2326_4909"/>
<feBlend mode="normal" in="SourceGraphic" in2="effect1_dropShadow_2326_4909" result="shape"/>
</filter>
<filter id="filter3_d_2326_4909" x="0" y="160" width="345.637" height="160" filterUnits="userSpaceOnUse" color-interpolation-filters="sRGB">
<feFlood flood-opacity="0" result="BackgroundImageFix"/>
<feColorMatrix in="SourceAlpha" type="matrix" values="0 0 0 0 0 0 0 0 0 0 0 0 0 0 0 0 0 0 127 0" result="hardAlpha"/>
<feOffset dx="4" dy="4"/>
<feGaussianBlur stdDeviation="4"/>
<feComposite in2="hardAlpha" operator="out"/>
<feColorMatrix type="matrix" values="0 0 0 0 0 0 0 0 0 0 0 0 0 0 0 0 0 0 0.25 0"/>
<feBlend mode="normal" in2="BackgroundImageFix" result="effect1_dropShadow_2326_4909"/>
<feBlend mode="normal" in="SourceGraphic" in2="effect1_dropShadow_2326_4909" result="shape"/>
</filter>
<filter id="filter4_d_2326_4909" x="254" y="320" width="902" height="160" filterUnits="userSpaceOnUse" color-interpolation-filters="sRGB">
<feFlood flood-opacity="0" result="BackgroundImageFix"/>
<feColorMatrix in="SourceAlpha" type="matrix" values="0 0 0 0 0 0 0 0 0 0 0 0 0 0 0 0 0 0 127 0" result="hardAlpha"/>
<feOffset dx="4" dy="4"/>
<feGaussianBlur stdDeviation="4"/>
<feComposite in2="hardAlpha" operator="out"/>
<feColorMatrix type="matrix" values="0 0 0 0 0 0 0 0 0 0 0 0 0 0 0 0 0 0 0.25 0"/>
<feBlend mode="normal" in2="BackgroundImageFix" result="effect1_dropShadow_2326_4909"/>
<feBlend mode="normal" in="SourceGraphic" in2="effect1_dropShadow_2326_4909" result="shape"/>
</filter>
<filter id="filter5_d_2326_4909" x="0" y="320" width="345.637" height="160" filterUnits="userSpaceOnUse" color-interpolation-filters="sRGB">
<feFlood flood-opacity="0" result="BackgroundImageFix"/>
<feColorMatrix in="SourceAlpha" type="matrix" values="0 0 0 0 0 0 0 0 0 0 0 0 0 0 0 0 0 0 127 0" result="hardAlpha"/>
<feOffset dx="4" dy="4"/>
<feGaussianBlur stdDeviation="4"/>
<feComposite in2="hardAlpha" operator="out"/>
<feColorMatrix type="matrix" values="0 0 0 0 0 0 0 0 0 0 0 0 0 0 0 0 0 0 0.25 0"/>
<feBlend mode="normal" in2="BackgroundImageFix" result="effect1_dropShadow_2326_4909"/>
<feBlend mode="normal" in="SourceGraphic" in2="effect1_dropShadow_2326_4909" result="shape"/>
</filter>
<filter id="filter6_d_2326_4909" x="254" y="480" width="902" height="160" filterUnits="userSpaceOnUse" color-interpolation-filters="sRGB">
<feFlood flood-opacity="0" result="BackgroundImageFix"/>
<feColorMatrix in="SourceAlpha" type="matrix" values="0 0 0 0 0 0 0 0 0 0 0 0 0 0 0 0 0 0 127 0" result="hardAlpha"/>
<feOffset dx="4" dy="4"/>
<feGaussianBlur stdDeviation="4"/>
<feComposite in2="hardAlpha" operator="out"/>
<feColorMatrix type="matrix" values="0 0 0 0 0 0 0 0 0 0 0 0 0 0 0 0 0 0 0.25 0"/>
<feBlend mode="normal" in2="BackgroundImageFix" result="effect1_dropShadow_2326_4909"/>
<feBlend mode="normal" in="SourceGraphic" in2="effect1_dropShadow_2326_4909" result="shape"/>
</filter>
<filter id="filter7_d_2326_4909" x="0" y="480" width="345.637" height="160" filterUnits="userSpaceOnUse" color-interpolation-filters="sRGB">
<feFlood flood-opacity="0" result="BackgroundImageFix"/>
<feColorMatrix in="SourceAlpha" type="matrix" values="0 0 0 0 0 0 0 0 0 0 0 0 0 0 0 0 0 0 127 0" result="hardAlpha"/>
<feOffset dx="4" dy="4"/>
<feGaussianBlur stdDeviation="4"/>
<feComposite in2="hardAlpha" operator="out"/>
<feColorMatrix type="matrix" values="0 0 0 0 0 0 0 0 0 0 0 0 0 0 0 0 0 0 0.25 0"/>
<feBlend mode="normal" in2="BackgroundImageFix" result="effect1_dropShadow_2326_4909"/>
<feBlend mode="normal" in="SourceGraphic" in2="effect1_dropShadow_2326_4909" result="shape"/>
</filter>
<filter id="filter8_d_2326_4909" x="254" y="640" width="902" height="160" filterUnits="userSpaceOnUse" color-interpolation-filters="sRGB">
<feFlood flood-opacity="0" result="BackgroundImageFix"/>
<feColorMatrix in="SourceAlpha" type="matrix" values="0 0 0 0 0 0 0 0 0 0 0 0 0 0 0 0 0 0 127 0" result="hardAlpha"/>
<feOffset dx="4" dy="4"/>
<feGaussianBlur stdDeviation="4"/>
<feComposite in2="hardAlpha" operator="out"/>
<feColorMatrix type="matrix" values="0 0 0 0 0 0 0 0 0 0 0 0 0 0 0 0 0 0 0.25 0"/>
<feBlend mode="normal" in2="BackgroundImageFix" result="effect1_dropShadow_2326_4909"/>
<feBlend mode="normal" in="SourceGraphic" in2="effect1_dropShadow_2326_4909" result="shape"/>
</filter>
<filter id="filter9_d_2326_4909" x="0" y="800" width="579" height="160" filterUnits="userSpaceOnUse" color-interpolation-filters="sRGB">
<feFlood flood-opacity="0" result="BackgroundImageFix"/>
<feColorMatrix in="SourceAlpha" type="matrix" values="0 0 0 0 0 0 0 0 0 0 0 0 0 0 0 0 0 0 127 0" result="hardAlpha"/>
<feOffset dx="4" dy="4"/>
<feGaussianBlur stdDeviation="4"/>
<feComposite in2="hardAlpha" operator="out"/>
<feColorMatrix type="matrix" values="0 0 0 0 0 0 0 0 0 0 0 0 0 0 0 0 0 0 0.25 0"/>
<feBlend mode="normal" in2="BackgroundImageFix" result="effect1_dropShadow_2326_4909"/>
<feBlend mode="normal" in="SourceGraphic" in2="effect1_dropShadow_2326_4909" result="shape"/>
</filter>
<filter id="filter10_d_2326_4909" x="577" y="800" width="579" height="160" filterUnits="userSpaceOnUse" color-interpolation-filters="sRGB">
<feFlood flood-opacity="0" result="BackgroundImageFix"/>
<feColorMatrix in="SourceAlpha" type="matrix" values="0 0 0 0 0 0 0 0 0 0 0 0 0 0 0 0 0 0 127 0" result="hardAlpha"/>
<feOffset dx="4" dy="4"/>
<feGaussianBlur stdDeviation="4"/>
<feComposite in2="hardAlpha" operator="out"/>
<feColorMatrix type="matrix" values="0 0 0 0 0 0 0 0 0 0 0 0 0 0 0 0 0 0 0.25 0"/>
<feBlend mode="normal" in2="BackgroundImageFix" result="effect1_dropShadow_2326_4909"/>
<feBlend mode="normal" in="SourceGraphic" in2="effect1_dropShadow_2326_4909" result="shape"/>
</filter>
<filter id="filter11_d_2326_4909" x="0" y="640" width="345.637" height="160" filterUnits="userSpaceOnUse" color-interpolation-filters="sRGB">
<feFlood flood-opacity="0" result="BackgroundImageFix"/>
<feColorMatrix in="SourceAlpha" type="matrix" values="0 0 0 0 0 0 0 0 0 0 0 0 0 0 0 0 0 0 127 0" result="hardAlpha"/>
<feOffset dx="4" dy="4"/>
<feGaussianBlur stdDeviation="4"/>
<feComposite in2="hardAlpha" operator="out"/>
<feColorMatrix type="matrix" values="0 0 0 0 0 0 0 0 0 0 0 0 0 0 0 0 0 0 0.25 0"/>
<feBlend mode="normal" in2="BackgroundImageFix" result="effect1_dropShadow_2326_4909"/>
<feBlend mode="normal" in="SourceGraphic" in2="effect1_dropShadow_2326_4909" result="shape"/>
</filter>
<filter id="filter12_d_2326_4909" x="29" y="811" width="191" height="119" filterUnits="userSpaceOnUse" color-interpolation-filters="sRGB">
<feFlood flood-opacity="0" result="BackgroundImageFix"/>
<feColorMatrix in="SourceAlpha" type="matrix" values="0 0 0 0 0 0 0 0 0 0 0 0 0 0 0 0 0 0 127 0" result="hardAlpha"/>
<feOffset dx="2" dy="-2"/>
<feGaussianBlur stdDeviation="1"/>
<feComposite in2="hardAlpha" operator="out"/>
<feColorMatrix type="matrix" values="0 0 0 0 0 0 0 0 0 0 0 0 0 0 0 0 0 0 0.25 0"/>
<feBlend mode="normal" in2="BackgroundImageFix" result="effect1_dropShadow_2326_4909"/>
<feBlend mode="normal" in="SourceGraphic" in2="effect1_dropShadow_2326_4909" result="shape"/>
</filter>
<linearGradient id="paint0_linear_2326_4909" x1="55.7114" y1="4.00001" x2="288.289" y2="148" gradientUnits="userSpaceOnUse">
<stop stop-color="#E1A3D8"/>
<stop offset="1" stop-color="#EBE5EA"/>
</linearGradient>
<linearGradient id="paint1_linear_2326_4909" x1="187" y1="164" x2="25.5" y2="349" gradientUnits="userSpaceOnUse">
<stop stop-color="#E1A3D8"/>
<stop offset="1" stop-color="#EBE5EA"/>
</linearGradient>
<linearGradient id="paint2_linear_2326_4909" x1="158.745" y1="505.944" x2="125.255" y2="250.056" gradientUnits="userSpaceOnUse">
<stop stop-color="#E1A3D8"/>
<stop offset="1" stop-color="#EBE5EA"/>
</linearGradient>
<linearGradient id="paint3_linear_2326_4909" x1="105.832" y1="661.862" x2="178.168" y2="414.138" gradientUnits="userSpaceOnUse">
<stop stop-color="#E1A3D8"/>
<stop offset="1" stop-color="#EBE5EA"/>
</linearGradient>
<linearGradient id="paint4_linear_2326_4909" x1="199.137" y1="582.305" x2="84.8627" y2="813.695" gradientUnits="userSpaceOnUse">
<stop stop-color="#E1A3D8"/>
<stop offset="1" stop-color="#EBE5EA"/>
</linearGradient>
<clipPath id="clip0_2326_4909">
<rect width="48" height="48" fill="white" transform="translate(123 678)"/>
</clipPath>
<clipPath id="clip1_2326_4909">
<rect width="156" height="82" fill="white" transform="translate(45 838)"/>
</clipPath>
</defs>
</svg>
